{
  "accessors": [
    {
      "bufferView": 2,
      "componentType": 5126,
      "count": 582,
      "max": [
        1.1252151727676392,
        1.1359174251556396,
        1.3737432956695557
      ],
      "min": [
        -1.1252151727676392,
        -1.1261253356933594,
        -0.7353074550628662
      ],
      "type": "VEC3"
    },
    {
      "bufferView": 2,
      "byteOffset": 6984,
      "componentType": 5126,
      "count": 582,
      "max": [
        1.0,
        0.9999608397483826,
        0.9999977350234985
      ],
      "min": [
        -1.0,
        -0.9892933964729309,
        -0.9971842765808105
      ],
      "type": "VEC3"
    },
    {
      "bufferView": 1,
      "componentType": 5126,
      "count": 582,
      "max": [
        0.5000000596046448,
        0.40236204862594604
      ],
      "min": [
        0.0,
        0.2918359935283661
      ],
      "type": "VEC2"
    },
    {
      "bufferView": 2,
      "byteOffset": 13968,
      "componentType": 5126,
      "count": 582,
      "max": [
        0.0,
        0.01325523853302002,
        0.17035068571567535
      ],
      "min": [
        0.0,
        -0.01101529598236084,
        -0.14156503975391388
      ],
      "type": "VEC3"
    },
    {
      "bufferView": 2,
      "byteOffset": 20952,
      "componentType": 5126,
      "count": 582,
      "max": [
        0.05302271246910095,
        0.15198087692260742,
        0.15750712156295776
      ],
      "min": [
        -0.03563690185546875,
        -0.025394082069396973,
        -0.022195398807525635
      ],
      "type": "VEC3"
    },
    {
      "bufferView": 0,
      "componentType": 5125,
      "count": 3288,
      "type": "SCALAR"
    },
    {
      "bufferView": 2,
      "byteOffset": 27936,
      "componentType": 5126,
      "count": 12,
      "max": [
        0.94441819190979,
        0.058048754930496216,
        0.7460184097290039
      ],
      "min": [
        -0.9396492838859558,
        -0.04321923106908798,
        -0.5554355382919312
      ],
      "type": "VEC3"
    },
    {
      "bufferView": 2,
      "byteOffset": 28080,
      "componentType": 5126,
      "count": 12,
      "max": [
        2.704355628324606e-10,
        -0.996986448764801,
        0.07757693529129028
      ],
      "min": [
        0.0,
        -0.996986448764801,
        0.07757693529129028
      ],
      "type": "VEC3"
    },
    {
      "bufferView": 1,
      "byteOffset": 4656,
      "componentType": 5126,
      "count": 12,
      "max": [
        1.0,
        1.0
      ],
      "min": [
        0.0,
        0.0
      ],
      "type": "VEC2"
    },
    {
      "bufferView": 0,
      "byteOffset": 13152,
      "componentType": 5125,
      "count": 24,
      "type": "SCALAR"
    },
    {
      "bufferView": 3,
      "componentType": 5126,
      "count": 85,
      "max": [
        5.083333492279053
      ],
      "min": [
        0.0416666679084301
      ],
      "type": "SCALAR"
    },
    {
      "bufferView": 4,
      "componentType": 5126,
      "count": 85,
      "max": [
        0.0,
        10.115187644958496,
        0.0
      ],
      "min": [
        -2.0,
        0.0,
        0.0
      ],
      "type": "VEC3"
    },
    {
      "bufferView": 3,
      "byteOffset": 340,
      "componentType": 5126,
      "count": 190,
      "max": [
        5.083333492279053
      ],
      "min": [
        0.0416666679084301
      ],
      "type": "SCALAR"
    },
    {
      "bufferView": 4,
      "byteOffset": 1020,
      "componentType": 5126,
      "count": 190,
      "max": [
        100.89006042480469,
        100.89009094238281,
        100.89009094238281
      ],
      "min": [
        96.92547607421875,
        96.92548370361328,
        96.92548370361328
      ],
      "type": "VEC3"
    },
    {
      "bufferView": 3,
      "byteOffset": 1100,
      "componentType": 5126,
      "count": 190,
      "max": [
        5.083333492279053
      ],
      "min": [
        0.0416666679084301
      ],
      "type": "SCALAR"
    },
    {
      "bufferView": 5,
      "componentType": 5126,
      "count": 190,
      "max": [
        -2.9685523372791067e-08,
        0.7236904501914978,
        0.7340220808982849,
        -3.016630856222946e-08
      ],
      "min": [
        -3.163351536272785e-08,
        0.6791256070137024,
        0.6901246905326843,
        -3.208512566743593e-08
      ],
      "type": "VEC4"
    },
    {
      "bufferView": 3,
      "byteOffset": 1860,
      "componentType": 5126,
      "count": 47,
      "max": [
        5.108333110809326
      ],
      "min": [
        0.0416666679084301
      ],
      "type": "SCALAR"
    },
    {
      "bufferView": 3,
      "byteOffset": 2048,
      "componentType": 5126,
      "count": 94,
      "max": [
        1.0
      ],
      "min": [
        0.0
      ],
      "type": "SCALAR"
    }
  ],
  "animations": [
    {
      "channels": [
        {
          "sampler": 0,
          "target": {
            "node": 4,
            "path": "translation"
          }
        },
        {
          "sampler": 1,
          "target": {
            "node": 4,
            "path": "scale"
          }
        },
        {
          "sampler": 2,
          "target": {
            "node": 4,
            "path": "rotation"
          }
        },
        {
          "sampler": 3,
          "target": {
            "node": 5,
            "path": "weights"
          }
        }
      ],
      "name": "Scene",
      "samplers": [
        {
          "input": 10,
          "interpolation": "LINEAR",
          "output": 11
        },
        {
          "input": 12,
          "interpolation": "LINEAR",
          "output": 13
        },
        {
          "input": 14,
          "interpolation": "LINEAR",
          "output": 15
        },
        {
          "input": 16,
          "interpolation": "LINEAR",
          "output": 17
        }
      ]
    }
  ],
  "asset": {
    "extras": {
      "author": "Spark (https://sketchfab.com/muammar.yacoob)",
      "license": "CC-BY-4.0 (http://creativecommons.org/licenses/by/4.0/)",
      "source": "https://sketchfab.com/3d-models/animated-lowpoly-screaming-pumpkin-45958df60b7143e8b1926cc6c809f75c",
      "title": "Animated Lowpoly Screaming Pumpkin"
    },
    "generator": "Sketchfab-12.63.0",
    "version": "2.0"
  },
  "bufferViews": [
    {
      "buffer": 0,
      "byteLength": 13248,
      "name": "floatBufferViews",
      "target": 34963
    },
    {
      "buffer": 0,
      "byteLength": 4752,
      "byteOffset": 13248,
      "byteStride": 8,
      "name": "floatBufferViews",
      "target": 34962
    },
    {
      "buffer": 0,
      "byteLength": 28224,
      "byteOffset": 18000,
      "byteStride": 12,
      "name": "floatBufferViews",
      "target": 34962
    },
    {
      "buffer": 0,
      "byteLength": 2424,
      "byteOffset": 46224,
      "name": "floatBufferViews"
    },
    {
      "buffer": 0,
      "byteLength": 3300,
      "byteOffset": 48648,
      "byteStride": 12,
      "name": "floatBufferViews"
    },
    {
      "buffer": 0,
      "byteLength": 3040,
      "byteOffset": 51948,
      "byteStride": 16,
      "name": "floatBufferViews"
    }
  ],
  "buffers": [
    {
      "byteLength": 54988,
      "uri": "scene.bin"
    }
  ],
  "images": [
    {
      "uri": "textures/LowPoly_baseColor.png"
    }
  ],
  "materials": [
    {
      "doubleSided": true,
      "name": "LowPoly",
      "pbrMetallicRoughness": {
        "baseColorTexture": {
          "index": 0
        },
        "metallicFactor": 0.0
      }
    },
    {
      "doubleSided": true,
      "emissiveFactor": [
        1.0,
        1.0,
        0.0
      ],
      "name": "Glow",
      "pbrMetallicRoughness": {
        "baseColorFactor": [
          0.8,
          0.8,
          0.8,
          1.0
        ],
        "metallicFactor": 0.0,
        "roughnessFactor": 0.8040408205773457
      }
    }
  ],
  "meshes": [
    {
      "name": "1",
      "primitives": [
        {
          "attributes": {
            "NORMAL": 1,
            "POSITION": 0,
            "TEXCOORD_0": 2
          },
          "indices": 5,
          "material": 0,
          "mode": 4,
          "targets": [
            {
              "POSITION": 3
            },
            {
              "POSITION": 4
            }
          ]
        }
      ],
      "weights": [
        0.0,
        0.0
      ]
    },
    {
      "name": "0",
      "primitives": [
        {
          "attributes": {
            "NORMAL": 7,
            "POSITION": 6,
            "TEXCOORD_0": 8
          },
          "indices": 9,
          "material": 1,
          "mode": 4
        }
      ]
    }
  ],
  "nodes": [
    {
      "children": [
        1
      ],
      "matrix": [
        1.0,
        0.0,
        0.0,
        0.0,
        0.0,
        2.220446049250313e-16,
        -1.0,
        0.0,
        0.0,
        1.0,
        2.220446049250313e-16,
        0.0,
        0.0,
        0.0,
        0.0,
        1.0
      ],
      "name": "Sketchfab_model"
    },
    {
      "children": [
        2
      ],
      "matrix": [
        1.0,
        0.0,
        0.0,
        0.0,
        0.0,
        0.0,
        1.0,
        0.0,
        0.0,
        -1.0,
        0.0,
        0.0,
        0.0,
        0.0,
        0.0,
        1.0
      ],
      "name": "f3d90d28d4b249ba970a218226d9e3cb.fbx"
    },
    {
      "children": [
        3
      ],
      "name": "Object_2"
    },
    {
      "children": [
        4,
        8
      ],
      "name": "RootNode"
    },
    {
      "children": [
        5,
        6
      ],
      "name": "Sphere.001",
      "rotation": [
        -3.090862321641907e-08,
        0.7071068286895752,
        0.7071067094802856,
        -3.0908616110991716e-08
      ],
      "scale": [
        100.0,
        100.0,
        100.0
      ]
    },
    {
      "mesh": 0,
      "name": "1"
    },
    {
      "children": [
        7
      ],
      "name": "Sphere.002",
      "rotation": [
        1.3234889800848443e-23,
        6.617444900424222e-24,
        -1.5461785009925103e-30,
        1.0
      ],
      "translation": [
        -9.110120174970036e-39,
        4.1359030627651384e-25,
        0.010816020891070366
      ]
    },
    {
      "mesh": 1,
      "name": "0"
    },
    {
      "children": [
        9
      ],
      "name": "Point",
      "rotation": [
        -1.5888268153725822e-15,
        1.0,
        3.774895063202166e-08,
        4.371138828673793e-08
      ],
      "scale": [
        100.0,
        100.0,
        100.0
      ]
    },
    {
      "children": [
        10
      ],
      "matrix": [
        1.0,
        0.0,
        0.0,
        0.0,
        0.0,
        2.220446049250313e-16,
        1.0,
        0.0,
        0.0,
        -1.0,
        2.220446049250313e-16,
        0.0,
        0.0,
        0.0,
        0.0,
        1.0
      ],
      "name": "Object_9"
    },
    {
      "name": "Object_10"
    }
  ],
  "samplers": [
    {
      "magFilter": 9729,
      "minFilter": 9987,
      "wrapS": 10497,
      "wrapT": 10497
    }
  ],
  "scene": 0,
  "scenes": [
    {
      "name": "Sketchfab_Scene",
      "nodes": [
        0
      ]
    }
  ],
  "textures": [
    {
      "sampler": 0,
      "source": 0
    }
  ]
}
