{
  "accessors": [
    {
      "bufferView": 2,
      "componentType": 5126,
      "count": 603,
      "max": [
        0.1894884705543518,
        0.16682873666286469,
        0.8426125645637512
      ],
      "min": [
        -0.1894884705543518,
        -0.16526168584823608,
        1.341104507446289e-07
      ],
      "type": "VEC3"
    },
    {
      "bufferView": 2,
      "byteOffset": 7236,
      "componentType": 5126,
      "count": 603,
      "max": [
        1.0,
        1.0,
        1.0
      ],
      "min": [
        -1.0,
        -1.0,
        -1.0
      ],
      "type": "VEC3"
    },
    {
      "bufferView": 1,
      "componentType": 5126,
      "count": 603,
      "max": [
        0.9905059337615967,
        0.9920830726623535
      ],
      "min": [
        0.0015917408745735884,
        0.0015916710253804922
      ],
      "type": "VEC2"
    },
    {
      "bufferView": 0,
      "componentType": 5125,
      "count": 1044,
      "type": "SCALAR"
    },
    {
      "bufferView": 2,
      "byteOffset": 14472,
      "componentType": 5126,
      "count": 540,
      "max": [
        0.3332267999649048,
        0.3332267999649048,
        1.0055553913116455
      ],
      "min": [
        -0.3332267999649048,
        -0.3332267999649048,
        -1.1920928955078125e-07
      ],
      "type": "VEC3"
    },
    {
      "bufferView": 2,
      "byteOffset": 20952,
      "componentType": 5126,
      "count": 540,
      "max": [
        1.0,
        1.0,
        1.0
      ],
      "min": [
        -1.0,
        -1.0,
        -1.0
      ],
      "type": "VEC3"
    },
    {
      "bufferView": 1,
      "byteOffset": 4824,
      "componentType": 5126,
      "count": 540,
      "max": [
        0.9897528886795044,
        0.9902435541152954
      ],
      "min": [
        0.0466831810772419,
        0.0015916710253804922
      ],
      "type": "VEC2"
    },
    {
      "bufferView": 0,
      "byteOffset": 4176,
      "componentType": 5125,
      "count": 924,
      "type": "SCALAR"
    },
    {
      "bufferView": 2,
      "byteOffset": 27432,
      "componentType": 5126,
      "count": 128,
      "max": [
        0.4543148875236511,
        0.45431429147720337,
        1.3339018821716309
      ],
      "min": [
        -0.454314649105072,
        -0.4543152451515198,
        1.1920928955078125e-07
      ],
      "type": "VEC3"
    },
    {
      "bufferView": 2,
      "byteOffset": 28968,
      "componentType": 5126,
      "count": 128,
      "max": [
        1.0,
        1.0,
        1.0
      ],
      "min": [
        -1.0,
        -1.0,
        -1.0
      ],
      "type": "VEC3"
    },
    {
      "bufferView": 1,
      "byteOffset": 9144,
      "componentType": 5126,
      "count": 128,
      "max": [
        0.9006322026252747,
        0.8421122431755066
      ],
      "min": [
        0.0015917408745735884,
        0.0015916710253804922
      ],
      "type": "VEC2"
    },
    {
      "bufferView": 0,
      "byteOffset": 7872,
      "componentType": 5125,
      "count": 156,
      "type": "SCALAR"
    },
    {
      "bufferView": 2,
      "byteOffset": 30504,
      "componentType": 5126,
      "count": 197,
      "max": [
        0.1647127866744995,
        0.19685837626457214,
        0.4662909507751465
      ],
      "min": [
        -0.16471248865127563,
        -0.19685879349708557,
        2.384185791015625e-07
      ],
      "type": "VEC3"
    },
    {
      "bufferView": 2,
      "byteOffset": 32868,
      "componentType": 5126,
      "count": 197,
      "max": [
        1.0,
        1.0,
        0.9999757409095764
      ],
      "min": [
        -1.0,
        -1.0,
        -1.0
      ],
      "type": "VEC3"
    },
    {
      "bufferView": 1,
      "byteOffset": 10168,
      "componentType": 5126,
      "count": 197,
      "max": [
        0.9617278575897217,
        0.9587677717208862
      ],
      "min": [
        0.02905918098986149,
        0.1330050528049469
      ],
      "type": "VEC2"
    },
    {
      "bufferView": 0,
      "byteOffset": 8496,
      "componentType": 5125,
      "count": 228,
      "type": "SCALAR"
    },
    {
      "bufferView": 2,
      "byteOffset": 35232,
      "componentType": 5126,
      "count": 1553,
      "max": [
        0.6193544268608093,
        0.25276586413383484,
        1.0722256898880005
      ],
      "min": [
        -0.6193563342094421,
        -0.25276583433151245,
        -2.384185791015625e-07
      ],
      "type": "VEC3"
    },
    {
      "bufferView": 2,
      "byteOffset": 53868,
      "componentType": 5126,
      "count": 1553,
      "max": [
        1.0,
        1.0,
        1.0
      ],
      "min": [
        -1.0,
        -1.0,
        -1.0
      ],
      "type": "VEC3"
    },
    {
      "bufferView": 1,
      "byteOffset": 11744,
      "componentType": 5126,
      "count": 1553,
      "max": [
        0.9950435757637024,
        0.9974834322929382
      ],
      "min": [
        0.0015917408745735884,
        0.0015916710253804922
      ],
      "type": "VEC2"
    },
    {
      "bufferView": 0,
      "byteOffset": 9408,
      "componentType": 5125,
      "count": 1968,
      "type": "SCALAR"
    },
    {
      "bufferView": 2,
      "byteOffset": 72504,
      "componentType": 5126,
      "count": 186,
      "max": [
        0.15491466224193573,
        0.15491414070129395,
        1.1797919273376465
      ],
      "min": [
        -0.15491370856761932,
        -0.1549142301082611,
        1.1920928955078125e-07
      ],
      "type": "VEC3"
    },
    {
      "bufferView": 2,
      "byteOffset": 74736,
      "componentType": 5126,
      "count": 186,
      "max": [
        1.0,
        1.0,
        1.0
      ],
      "min": [
        -1.0,
        -1.0,
        -1.0
      ],
      "type": "VEC3"
    },
    {
      "bufferView": 1,
      "byteOffset": 24168,
      "componentType": 5126,
      "count": 186,
      "max": [
        0.9844637513160706,
        0.9566909670829773
      ],
      "min": [
        0.019887618720531464,
        0.0015916710253804922
      ],
      "type": "VEC2"
    },
    {
      "bufferView": 0,
      "byteOffset": 17280,
      "componentType": 5125,
      "count": 252,
      "type": "SCALAR"
    },
    {
      "bufferView": 2,
      "byteOffset": 76968,
      "componentType": 5126,
      "count": 232,
      "max": [
        0.26818493008613586,
        0.2261505424976349,
        0.9387856721878052
      ],
      "min": [
        -0.268186092376709,
        -0.22615069150924683,
        -4.308633378968807e-07
      ],
      "type": "VEC3"
    },
    {
      "bufferView": 2,
      "byteOffset": 79752,
      "componentType": 5126,
      "count": 232,
      "max": [
        1.0,
        0.999981164932251,
        1.0
      ],
      "min": [
        -1.0,
        -1.0,
        -1.0
      ],
      "type": "VEC3"
    },
    {
      "bufferView": 1,
      "byteOffset": 25656,
      "componentType": 5126,
      "count": 232,
      "max": [
        0.9642670750617981,
        0.9819762110710144
      ],
      "min": [
        0.0015917408745735884,
        0.0015916710253804922
      ],
      "type": "VEC2"
    },
    {
      "bufferView": 0,
      "byteOffset": 18288,
      "componentType": 5125,
      "count": 264,
      "type": "SCALAR"
    },
    {
      "bufferView": 2,
      "byteOffset": 82536,
      "componentType": 5126,
      "count": 198,
      "max": [
        0.22403723001480103,
        0.22403734922409058,
        0.6982783675193787
      ],
      "min": [
        -0.22403723001480103,
        -0.22403711080551147,
        -5.513429641723633e-07
      ],
      "type": "VEC3"
    },
    {
      "bufferView": 2,
      "byteOffset": 84912,
      "componentType": 5126,
      "count": 198,
      "max": [
        1.0,
        1.0,
        1.0
      ],
      "min": [
        -1.0,
        -1.0,
        -1.0
      ],
      "type": "VEC3"
    },
    {
      "bufferView": 1,
      "byteOffset": 27512,
      "componentType": 5126,
      "count": 198,
      "max": [
        0.9588435888290405,
        0.9734132289886475
      ],
      "min": [
        0.0942060798406601,
        0.0015916710253804922
      ],
      "type": "VEC2"
    },
    {
      "bufferView": 0,
      "byteOffset": 19344,
      "componentType": 5125,
      "count": 300,
      "type": "SCALAR"
    },
    {
      "bufferView": 2,
      "byteOffset": 87288,
      "componentType": 5126,
      "count": 809,
      "max": [
        0.32265985012054443,
        0.07679542899131775,
        0.41319239139556885
      ],
      "min": [
        -0.3226596713066101,
        -0.075765460729599,
        -1.4845656259865336e-08
      ],
      "type": "VEC3"
    },
    {
      "bufferView": 2,
      "byteOffset": 96996,
      "componentType": 5126,
      "count": 809,
      "max": [
        1.0,
        1.0,
        1.0
      ],
      "min": [
        -1.0,
        -1.0,
        -1.0
      ],
      "type": "VEC3"
    },
    {
      "bufferView": 1,
      "byteOffset": 29096,
      "componentType": 5126,
      "count": 809,
      "max": [
        0.9958136677742004,
        0.9978681206703186
      ],
      "min": [
        0.0015917408745735884,
        0.0015916710253804922
      ],
      "type": "VEC2"
    },
    {
      "bufferView": 0,
      "byteOffset": 20544,
      "componentType": 5125,
      "count": 1296,
      "type": "SCALAR"
    },
    {
      "bufferView": 2,
      "byteOffset": 106704,
      "componentType": 5126,
      "count": 276,
      "max": [
        0.04165251553058624,
        0.33775097131729126,
        0.9972295761108398
      ],
      "min": [
        -0.47440609335899353,
        -0.037330400198698044,
        -0.0024013519287109375
      ],
      "type": "VEC3"
    },
    {
      "bufferView": 2,
      "byteOffset": 110016,
      "componentType": 5126,
      "count": 276,
      "max": [
        0.9999199509620667,
        0.9999200701713562,
        0.6377496123313904
      ],
      "min": [
        -0.9999200105667114,
        -0.9999200105667114,
        -0.7320453524589539
      ],
      "type": "VEC3"
    },
    {
      "bufferView": 1,
      "byteOffset": 35568,
      "componentType": 5126,
      "count": 276,
      "max": [
        0.9829330444335938,
        0.9753082394599915
      ],
      "min": [
        0.0015917408745735884,
        0.0015916710253804922
      ],
      "type": "VEC2"
    },
    {
      "bufferView": 0,
      "byteOffset": 25728,
      "componentType": 5125,
      "count": 276,
      "type": "SCALAR"
    },
    {
      "bufferView": 2,
      "byteOffset": 113328,
      "componentType": 5126,
      "count": 240,
      "max": [
        0.3070673644542694,
        0.005227535963058472,
        0.36707818508148193
      ],
      "min": [
        0.004278030712157488,
        -0.027775993570685387,
        -0.009256554767489433
      ],
      "type": "VEC3"
    },
    {
      "bufferView": 2,
      "byteOffset": 116208,
      "componentType": 5126,
      "count": 240,
      "max": [
        0.9356052875518799,
        0.9999869465827942,
        0.8953537344932556
      ],
      "min": [
        -0.9415666460990906,
        -0.9999868273735046,
        -0.863080620765686
      ],
      "type": "VEC3"
    },
    {
      "bufferView": 1,
      "byteOffset": 37776,
      "componentType": 5126,
      "count": 240,
      "max": [
        0.9885033369064331,
        0.986031174659729
      ],
      "min": [
        0.07219407707452774,
        0.0015916710253804922
      ],
      "type": "VEC2"
    },
    {
      "bufferView": 0,
      "byteOffset": 26832,
      "componentType": 5125,
      "count": 240,
      "type": "SCALAR"
    },
    {
      "bufferView": 2,
      "byteOffset": 119088,
      "componentType": 5126,
      "count": 322,
      "max": [
        0.015140407718718052,
        0.0041881706565618515,
        0.4405680298805237
      ],
      "min": [
        -0.40407100319862366,
        -0.025052517652511597,
        -0.0036140636075288057
      ],
      "type": "VEC3"
    },
    {
      "bufferView": 2,
      "byteOffset": 122952,
      "componentType": 5126,
      "count": 322,
      "max": [
        0.9601851105690002,
        0.999963641166687,
        0.9545032382011414
      ],
      "min": [
        -0.9643862247467041,
        -0.999963641166687,
        -0.9545013904571533
      ],
      "type": "VEC3"
    },
    {
      "bufferView": 1,
      "byteOffset": 39696,
      "componentType": 5126,
      "count": 322,
      "max": [
        0.9883562326431274,
        0.9929998517036438
      ],
      "min": [
        0.03917977958917618,
        0.0015916710253804922
      ],
      "type": "VEC2"
    },
    {
      "bufferView": 0,
      "byteOffset": 27792,
      "componentType": 5125,
      "count": 324,
      "type": "SCALAR"
    },
    {
      "bufferView": 2,
      "byteOffset": 126816,
      "componentType": 5126,
      "count": 834,
      "max": [
        0.03516218066215515,
        0.30167555809020996,
        0.5094914436340332
      ],
      "min": [
        -0.2807965874671936,
        -0.041444599628448486,
        -0.001159049803391099
      ],
      "type": "VEC3"
    },
    {
      "bufferView": 2,
      "byteOffset": 136824,
      "componentType": 5126,
      "count": 834,
      "max": [
        0.9991694092750549,
        0.9996454119682312,
        0.9955597519874573
      ],
      "min": [
        -0.9991346001625061,
        -0.9996004700660706,
        -0.9996637105941772
      ],
      "type": "VEC3"
    },
    {
      "bufferView": 1,
      "byteOffset": 42272,
      "componentType": 5126,
      "count": 834,
      "max": [
        0.9980840086936951,
        0.9977908134460449
      ],
      "min": [
        0.02244354970753193,
        0.020222442224621773
      ],
      "type": "VEC2"
    },
    {
      "bufferView": 0,
      "byteOffset": 29088,
      "componentType": 5125,
      "count": 834,
      "type": "SCALAR"
    },
    {
      "bufferView": 2,
      "byteOffset": 146832,
      "componentType": 5126,
      "count": 209,
      "max": [
        0.5401964783668518,
        0.38182851672172546,
        0.1933245062828064
      ],
      "min": [
        -0.026467695832252502,
        -0.026468496769666672,
        -0.0094496114179492
      ],
      "type": "VEC3"
    },
    {
      "bufferView": 2,
      "byteOffset": 149340,
      "componentType": 5126,
      "count": 209,
      "max": [
        1.0,
        1.0,
        1.0
      ],
      "min": [
        -1.0,
        -1.0,
        -1.0
      ],
      "type": "VEC3"
    },
    {
      "bufferView": 1,
      "byteOffset": 48944,
      "componentType": 5126,
      "count": 209,
      "max": [
        0.9667201042175293,
        0.9857007265090942
      ],
      "min": [
        0.10959625244140625,
        0.0015916710253804922
      ],
      "type": "VEC2"
    },
    {
      "bufferView": 0,
      "byteOffset": 32424,
      "componentType": 5125,
      "count": 264,
      "type": "SCALAR"
    },
    {
      "bufferView": 2,
      "byteOffset": 151848,
      "componentType": 5126,
      "count": 2100,
      "max": [
        0.228659987449646,
        0.18763266503810883,
        0.7577548623085022
      ],
      "min": [
        -0.22859109938144684,
        -0.11681626737117767,
        -0.0001951143058249727
      ],
      "type": "VEC3"
    },
    {
      "bufferView": 2,
      "byteOffset": 177048,
      "componentType": 5126,
      "count": 2100,
      "max": [
        0.9945270419120789,
        0.9988263845443726,
        0.9954708218574524
      ],
      "min": [
        -0.9948526620864868,
        -0.9792242050170898,
        -0.9999738335609436
      ],
      "type": "VEC3"
    },
    {
      "bufferView": 1,
      "byteOffset": 50616,
      "componentType": 5126,
      "count": 2100,
      "max": [
        0.9983128905296326,
        0.9980747103691101
      ],
      "min": [
        0.02905918098986149,
        0.032931260764598846
      ],
      "type": "VEC2"
    },
    {
      "bufferView": 0,
      "byteOffset": 33480,
      "componentType": 5125,
      "count": 2100,
      "type": "SCALAR"
    },
    {
      "bufferView": 2,
      "byteOffset": 202248,
      "componentType": 5126,
      "count": 1896,
      "max": [
        0.2842625677585602,
        0.2744140625,
        0.6988521218299866
      ],
      "min": [
        -0.30140259861946106,
        -0.12293253839015961,
        -0.00019508600234985352
      ],
      "type": "VEC3"
    },
    {
      "bufferView": 2,
      "byteOffset": 225000,
      "componentType": 5126,
      "count": 1896,
      "max": [
        0.9993240237236023,
        0.9877552390098572,
        0.9973480105400085
      ],
      "min": [
        -0.9939863681793213,
        -0.9881003499031067,
        -0.9999738931655884
      ],
      "type": "VEC3"
    },
    {
      "bufferView": 1,
      "byteOffset": 67416,
      "componentType": 5126,
      "count": 1896,
      "max": [
        0.9982566833496094,
        0.9983314871788025
      ],
      "min": [
        0.011381193995475769,
        0.0015916710253804922
      ],
      "type": "VEC2"
    },
    {
      "bufferView": 0,
      "byteOffset": 41880,
      "componentType": 5125,
      "count": 1896,
      "type": "SCALAR"
    },
    {
      "bufferView": 2,
      "byteOffset": 247752,
      "componentType": 5126,
      "count": 120,
      "max": [
        0.03346827253699303,
        0.03346827253699303,
        0.1860232949256897
      ],
      "min": [
        -0.03346827253699303,
        -0.03346827253699303,
        0.0
      ],
      "type": "VEC3"
    },
    {
      "bufferView": 2,
      "byteOffset": 249192,
      "componentType": 5126,
      "count": 120,
      "max": [
        1.0,
        1.0,
        1.0
      ],
      "min": [
        -1.0,
        -1.0,
        -1.0
      ],
      "type": "VEC3"
    },
    {
      "bufferView": 1,
      "byteOffset": 82584,
      "componentType": 5126,
      "count": 120,
      "max": [
        0.9883112907409668,
        0.9561874866485596
      ],
      "min": [
        0.2034323811531067,
        0.10242516547441483
      ],
      "type": "VEC2"
    },
    {
      "bufferView": 0,
      "byteOffset": 49464,
      "componentType": 5125,
      "count": 180,
      "type": "SCALAR"
    },
    {
      "bufferView": 2,
      "byteOffset": 250632,
      "componentType": 5126,
      "count": 120,
      "max": [
        0.05891269072890282,
        0.05891266092658043,
        0.17291070520877838
      ],
      "min": [
        -0.05891263112425804,
        -0.05891266092658043,
        0.0
      ],
      "type": "VEC3"
    },
    {
      "bufferView": 2,
      "byteOffset": 252072,
      "componentType": 5126,
      "count": 120,
      "max": [
        1.0,
        1.0,
        1.0
      ],
      "min": [
        -1.0,
        -1.0,
        -1.0
      ],
      "type": "VEC3"
    },
    {
      "bufferView": 1,
      "byteOffset": 83544,
      "componentType": 5126,
      "count": 120,
      "max": [
        0.9942057728767395,
        0.9546157121658325
      ],
      "min": [
        0.07219407707452774,
        0.03782796859741211
      ],
      "type": "VEC2"
    },
    {
      "bufferView": 0,
      "byteOffset": 50184,
      "componentType": 5125,
      "count": 180,
      "type": "SCALAR"
    },
    {
      "bufferView": 2,
      "byteOffset": 253512,
      "componentType": 5126,
      "count": 136,
      "max": [
        0.034320369362831116,
        0.15993842482566833,
        0.44079941511154175
      ],
      "min": [
        -0.24827468395233154,
        -0.2563677430152893,
        -0.003990352153778076
      ],
      "type": "VEC3"
    },
    {
      "bufferView": 2,
      "byteOffset": 255144,
      "componentType": 5126,
      "count": 136,
      "max": [
        0.999987006187439,
        0.999426543712616,
        1.0
      ],
      "min": [
        -0.9999869465827942,
        -0.999426543712616,
        -1.0
      ],
      "type": "VEC3"
    },
    {
      "bufferView": 1,
      "byteOffset": 84504,
      "componentType": 5126,
      "count": 136,
      "max": [
        0.9806621074676514,
        0.9776968359947205
      ],
      "min": [
        0.08732182532548904,
        0.0015916710253804922
      ],
      "type": "VEC2"
    },
    {
      "bufferView": 0,
      "byteOffset": 50904,
      "componentType": 5125,
      "count": 204,
      "type": "SCALAR"
    },
    {
      "bufferView": 2,
      "byteOffset": 256776,
      "componentType": 5126,
      "count": 136,
      "max": [
        0.1894884705543518,
        0.22331014275550842,
        0.45243799686431885
      ],
      "min": [
        -0.2274351418018341,
        -0.05046926811337471,
        -0.005052894353866577
      ],
      "type": "VEC3"
    },
    {
      "bufferView": 2,
      "byteOffset": 258408,
      "componentType": 5126,
      "count": 136,
      "max": [
        0.9992856979370117,
        0.9999873042106628,
        0.9937577843666077
      ],
      "min": [
        -0.9992855787277222,
        -0.9999873042106628,
        -0.9937577843666077
      ],
      "type": "VEC3"
    },
    {
      "bufferView": 1,
      "byteOffset": 85592,
      "componentType": 5126,
      "count": 136,
      "max": [
        0.9840366244316101,
        0.9768585562705994
      ],
      "min": [
        0.21508769690990448,
        0.1391296535730362
      ],
      "type": "VEC2"
    },
    {
      "bufferView": 0,
      "byteOffset": 51720,
      "componentType": 5125,
      "count": 204,
      "type": "SCALAR"
    },
    {
      "bufferView": 2,
      "byteOffset": 260040,
      "componentType": 5126,
      "count": 109,
      "max": [
        0.09625326842069626,
        0.07085376977920532,
        0.09005692601203918
      ],
      "min": [
        -0.09625326842069626,
        -0.07085376977920532,
        0.0
      ],
      "type": "VEC3"
    },
    {
      "bufferView": 2,
      "byteOffset": 261348,
      "componentType": 5126,
      "count": 109,
      "max": [
        1.0,
        1.0,
        1.0
      ],
      "min": [
        -1.0,
        -1.0,
        -1.0
      ],
      "type": "VEC3"
    },
    {
      "bufferView": 1,
      "byteOffset": 86680,
      "componentType": 5126,
      "count": 109,
      "max": [
        0.9631795287132263,
        0.9782246351242065
      ],
      "min": [
        0.0942060798406601,
        0.1391296535730362
      ],
      "type": "VEC2"
    },
    {
      "bufferView": 0,
      "byteOffset": 52536,
      "componentType": 5125,
      "count": 177,
      "type": "SCALAR"
    },
    {
      "bufferView": 2,
      "byteOffset": 262656,
      "componentType": 5126,
      "count": 120,
      "max": [
        0.044796984642744064,
        0.044796984642744064,
        0.13148072361946106
      ],
      "min": [
        -0.044796984642744064,
        -0.044796984642744064,
        0.0
      ],
      "type": "VEC3"
    },
    {
      "bufferView": 2,
      "byteOffset": 264096,
      "componentType": 5126,
      "count": 120,
      "max": [
        1.0,
        1.0,
        1.0
      ],
      "min": [
        -1.0,
        -1.0,
        -1.0
      ],
      "type": "VEC3"
    },
    {
      "bufferView": 1,
      "byteOffset": 87552,
      "componentType": 5126,
      "count": 120,
      "max": [
        0.9971954822540283,
        0.9960665702819824
      ],
      "min": [
        0.21508769690990448,
        0.3281078040599823
      ],
      "type": "VEC2"
    },
    {
      "bufferView": 0,
      "byteOffset": 53244,
      "componentType": 5125,
      "count": 180,
      "type": "SCALAR"
    },
    {
      "bufferView": 2,
      "byteOffset": 265536,
      "componentType": 5126,
      "count": 109,
      "max": [
        0.09625326842069626,
        0.07085376977920532,
        0.09005692601203918
      ],
      "min": [
        -0.09625326842069626,
        -0.07085376977920532,
        0.0
      ],
      "type": "VEC3"
    },
    {
      "bufferView": 2,
      "byteOffset": 266844,
      "componentType": 5126,
      "count": 109,
      "max": [
        1.0,
        1.0,
        1.0
      ],
      "min": [
        -1.0,
        -1.0,
        -1.0
      ],
      "type": "VEC3"
    },
    {
      "bufferView": 1,
      "byteOffset": 88512,
      "componentType": 5126,
      "count": 109,
      "max": [
        0.966256320476532,
        0.977957010269165
      ],
      "min": [
        0.04527115821838379,
        0.16593703627586365
      ],
      "type": "VEC2"
    },
    {
      "bufferView": 0,
      "byteOffset": 53964,
      "componentType": 5125,
      "count": 177,
      "type": "SCALAR"
    },
    {
      "bufferView": 2,
      "byteOffset": 268152,
      "componentType": 5126,
      "count": 120,
      "max": [
        0.048003196716308594,
        0.048003196716308594,
        0.18815985321998596
      ],
      "min": [
        -0.048003196716308594,
        -0.048003196716308594,
        0.0
      ],
      "type": "VEC3"
    },
    {
      "bufferView": 2,
      "byteOffset": 269592,
      "componentType": 5126,
      "count": 120,
      "max": [
        1.0,
        1.0,
        1.0
      ],
      "min": [
        -1.0,
        -1.0,
        -1.0
      ],
      "type": "VEC3"
    },
    {
      "bufferView": 1,
      "byteOffset": 89384,
      "componentType": 5126,
      "count": 120,
      "max": [
        0.9952092170715332,
        0.9624285697937012
      ],
      "min": [
        0.02905918098986149,
        0.0015916710253804922
      ],
      "type": "VEC2"
    },
    {
      "bufferView": 0,
      "byteOffset": 54672,
      "componentType": 5125,
      "count": 180,
      "type": "SCALAR"
    },
    {
      "bufferView": 2,
      "byteOffset": 271032,
      "componentType": 5126,
      "count": 120,
      "max": [
        0.0771399512887001,
        0.07714001089334488,
        0.05876035615801811
      ],
      "min": [
        -0.07714007049798965,
        -0.07714001089334488,
        0.0
      ],
      "type": "VEC3"
    },
    {
      "bufferView": 2,
      "byteOffset": 272472,
      "componentType": 5126,
      "count": 120,
      "max": [
        1.0,
        1.0,
        1.0
      ],
      "min": [
        -1.0,
        -1.0,
        -1.0
      ],
      "type": "VEC3"
    },
    {
      "bufferView": 1,
      "byteOffset": 90344,
      "componentType": 5126,
      "count": 120,
      "max": [
        0.9847955703735352,
        0.9637793898582458
      ],
      "min": [
        0.2187924087047577,
        0.17145346105098724
      ],
      "type": "VEC2"
    },
    {
      "bufferView": 0,
      "byteOffset": 55392,
      "componentType": 5125,
      "count": 180,
      "type": "SCALAR"
    },
    {
      "bufferView": 2,
      "byteOffset": 273912,
      "componentType": 5126,
      "count": 120,
      "max": [
        0.048003196716308594,
        0.048003196716308594,
        0.18815985321998596
      ],
      "min": [
        -0.048003196716308594,
        -0.048003196716308594,
        0.0
      ],
      "type": "VEC3"
    },
    {
      "bufferView": 2,
      "byteOffset": 275352,
      "componentType": 5126,
      "count": 120,
      "max": [
        1.0,
        1.0,
        1.0
      ],
      "min": [
        -1.0,
        -1.0,
        -1.0
      ],
      "type": "VEC3"
    },
    {
      "bufferView": 1,
      "byteOffset": 91304,
      "componentType": 5126,
      "count": 120,
      "max": [
        0.9956173896789551,
        0.9962202906608582
      ],
      "min": [
        0.14202703535556793,
        0.3280559480190277
      ],
      "type": "VEC2"
    },
    {
      "bufferView": 0,
      "byteOffset": 56112,
      "componentType": 5125,
      "count": 180,
      "type": "SCALAR"
    },
    {
      "bufferView": 2,
      "byteOffset": 276792,
      "componentType": 5126,
      "count": 120,
      "max": [
        0.06417050212621689,
        0.06417056173086166,
        0.11804291605949402
      ],
      "min": [
        -0.06417050212621689,
        -0.06417044252157211,
        0.0
      ],
      "type": "VEC3"
    },
    {
      "bufferView": 2,
      "byteOffset": 278232,
      "componentType": 5126,
      "count": 120,
      "max": [
        1.0,
        1.0,
        1.0
      ],
      "min": [
        -1.0,
        -1.0,
        -1.0
      ],
      "type": "VEC3"
    },
    {
      "bufferView": 1,
      "byteOffset": 92264,
      "componentType": 5126,
      "count": 120,
      "max": [
        0.9944721460342407,
        0.9782174229621887
      ],
      "min": [
        0.0015917408745735884,
        0.268736332654953
      ],
      "type": "VEC2"
    },
    {
      "bufferView": 0,
      "byteOffset": 56832,
      "componentType": 5125,
      "count": 180,
      "type": "SCALAR"
    },
    {
      "bufferView": 2,
      "byteOffset": 279672,
      "componentType": 5126,
      "count": 120,
      "max": [
        0.03346821665763855,
        0.033468276262283325,
        0.11320431530475616
      ],
      "min": [
        -0.0334683358669281,
        -0.033468276262283325,
        0.0
      ],
      "type": "VEC3"
    },
    {
      "bufferView": 2,
      "byteOffset": 281112,
      "componentType": 5126,
      "count": 120,
      "max": [
        1.0,
        1.0,
        1.0
      ],
      "min": [
        -1.0,
        -1.0,
        -1.0
      ],
      "type": "VEC3"
    },
    {
      "bufferView": 1,
      "byteOffset": 93224,
      "componentType": 5126,
      "count": 120,
      "max": [
        0.9978331327438354,
        0.9800031185150146
      ],
      "min": [
        0.2604416608810425,
        0.12894290685653687
      ],
      "type": "VEC2"
    },
    {
      "bufferView": 0,
      "byteOffset": 57552,
      "componentType": 5125,
      "count": 180,
      "type": "SCALAR"
    },
    {
      "bufferView": 2,
      "byteOffset": 282552,
      "componentType": 5126,
      "count": 109,
      "max": [
        0.09625326842069626,
        0.07085376977920532,
        0.09005692601203918
      ],
      "min": [
        -0.09625326842069626,
        -0.07085376977920532,
        1.862645149230957e-09
      ],
      "type": "VEC3"
    },
    {
      "bufferView": 2,
      "byteOffset": 283860,
      "componentType": 5126,
      "count": 109,
      "max": [
        1.0,
        1.0,
        1.0
      ],
      "min": [
        -1.0,
        -1.0,
        -1.0
      ],
      "type": "VEC3"
    },
    {
      "bufferView": 1,
      "byteOffset": 94184,
      "componentType": 5126,
      "count": 109,
      "max": [
        0.9623077511787415,
        0.9776734709739685
      ],
      "min": [
        0.0015917408745735884,
        0.16549932956695557
      ],
      "type": "VEC2"
    },
    {
      "bufferView": 0,
      "byteOffset": 58272,
      "componentType": 5125,
      "count": 177,
      "type": "SCALAR"
    },
    {
      "bufferView": 2,
      "byteOffset": 285168,
      "componentType": 5126,
      "count": 24,
      "max": [
        0.19682084023952484,
        0.14959512650966644,
        0.007869400084018707
      ],
      "min": [
        -0.19682084023952484,
        -0.14959512650966644,
        0.0
      ],
      "type": "VEC3"
    },
    {
      "bufferView": 2,
      "byteOffset": 285456,
      "componentType": 5126,
      "count": 24,
      "max": [
        1.0,
        1.0,
        1.0
      ],
      "min": [
        -1.0,
        -1.0,
        -1.0
      ],
      "type": "VEC3"
    },
    {
      "bufferView": 1,
      "byteOffset": 95056,
      "componentType": 5126,
      "count": 24,
      "max": [
        0.7577560544013977,
        0.3298247456550598
      ],
      "min": [
        0.7101854681968689,
        0.26715120673179626
      ],
      "type": "VEC2"
    },
    {
      "bufferView": 0,
      "byteOffset": 58980,
      "componentType": 5125,
      "count": 36,
      "type": "SCALAR"
    },
    {
      "bufferView": 2,
      "byteOffset": 285744,
      "componentType": 5126,
      "count": 136,
      "max": [
        0.09134238213300705,
        0.20415443181991577,
        0.36201345920562744
      ],
      "min": [
        -0.20509490370750427,
        -0.19941264390945435,
        -0.003389224410057068
      ],
      "type": "VEC3"
    },
    {
      "bufferView": 2,
      "byteOffset": 287376,
      "componentType": 5126,
      "count": 136,
      "max": [
        0.9993570446968079,
        0.9993571639060974,
        0.9958166480064392
      ],
      "min": [
        -0.9993571043014526,
        -0.9993571639060974,
        -0.9958166480064392
      ],
      "type": "VEC3"
    },
    {
      "bufferView": 1,
      "byteOffset": 95248,
      "componentType": 5126,
      "count": 136,
      "max": [
        0.9817189574241638,
        0.9294694662094116
      ],
      "min": [
        0.022715974599123,
        0.0015916710253804922
      ],
      "type": "VEC2"
    },
    {
      "bufferView": 0,
      "byteOffset": 59124,
      "componentType": 5125,
      "count": 204,
      "type": "SCALAR"
    },
    {
      "bufferView": 2,
      "byteOffset": 289008,
      "componentType": 5126,
      "count": 1988,
      "max": [
        0.208246111869812,
        0.2631612718105316,
        0.5482926368713379
      ],
      "min": [
        -0.21113325655460358,
        -0.20998936891555786,
        -0.0010450162226334214
      ],
      "type": "VEC3"
    },
    {
      "bufferView": 2,
      "byteOffset": 312864,
      "componentType": 5126,
      "count": 1988,
      "max": [
        0.9985314011573792,
        0.9960101842880249,
        0.9996386170387268
      ],
      "min": [
        -0.9996724128723145,
        -0.9972264170646667,
        -0.9986498951911926
      ],
      "type": "VEC3"
    },
    {
      "bufferView": 1,
      "byteOffset": 96336,
      "componentType": 5126,
      "count": 1988,
      "max": [
        0.9984081983566284,
        0.9980171918869019
      ],
      "min": [
        0.054741159081459045,
        0.020222442224621773
      ],
      "type": "VEC2"
    },
    {
      "bufferView": 0,
      "byteOffset": 59940,
      "componentType": 5125,
      "count": 1998,
      "type": "SCALAR"
    },
    {
      "bufferView": 2,
      "byteOffset": 336720,
      "componentType": 5126,
      "count": 2099,
      "max": [
        0.2370608150959015,
        0.22157084941864014,
        0.7034201622009277
      ],
      "min": [
        -0.22698068618774414,
        -0.12485869973897934,
        -0.0001951143058249727
      ],
      "type": "VEC3"
    },
    {
      "bufferView": 2,
      "byteOffset": 361908,
      "componentType": 5126,
      "count": 2099,
      "max": [
        0.9989343881607056,
        0.9878462553024292,
        0.9973479509353638
      ],
      "min": [
        -0.9965580701828003,
        -0.9785599112510681,
        -0.9999738335609436
      ],
      "type": "VEC3"
    },
    {
      "bufferView": 1,
      "byteOffset": 112240,
      "componentType": 5126,
      "count": 2099,
      "max": [
        0.998237669467926,
        0.998408317565918
      ],
      "min": [
        0.008988230489194393,
        0.011055655777454376
      ],
      "type": "VEC2"
    },
    {
      "bufferView": 0,
      "byteOffset": 67932,
      "componentType": 5125,
      "count": 2100,
      "type": "SCALAR"
    },
    {
      "bufferView": 2,
      "byteOffset": 387096,
      "componentType": 5126,
      "count": 704,
      "max": [
        0.11688195914030075,
        0.04805837944149971,
        0.21800103783607483
      ],
      "min": [
        -0.19572299718856812,
        -0.04688452556729317,
        -0.0002853937039617449
      ],
      "type": "VEC3"
    },
    {
      "bufferView": 2,
      "byteOffset": 395544,
      "componentType": 5126,
      "count": 704,
      "max": [
        0.9702005386352539,
        0.9999682307243347,
        0.9427232146263123
      ],
      "min": [
        -0.9342580437660217,
        -0.9999682903289795,
        -0.987431526184082
      ],
      "type": "VEC3"
    },
    {
      "bufferView": 1,
      "byteOffset": 129032,
      "componentType": 5126,
      "count": 704,
      "max": [
        0.9961933493614197,
        0.9977506399154663
      ],
      "min": [
        0.0015917408745735884,
        0.0015916710253804922
      ],
      "type": "VEC2"
    },
    {
      "bufferView": 0,
      "byteOffset": 76332,
      "componentType": 5125,
      "count": 1056,
      "type": "SCALAR"
    },
    {
      "bufferView": 3,
      "componentType": 5126,
      "count": 1,
      "max": [
        0.0
      ],
      "min": [
        0.0
      ],
      "type": "SCALAR"
    },
    {
      "bufferView": 4,
      "componentType": 5126,
      "count": 1,
      "max": [
        0.0,
        0.0,
        0.7071067690849304,
        0.7071067690849304
      ],
      "min": [
        0.0,
        0.0,
        0.7071067690849304,
        0.7071067690849304
      ],
      "type": "VEC4"
    }
  ],
  "animations": [
    {
      "channels": [
        {
          "sampler": 0,
          "target": {
            "node": 52,
            "path": "rotation"
          }
        }
      ],
      "name": "pot.004|Cube.008Action",
      "samplers": [
        {
          "input": 136,
          "interpolation": "LINEAR",
          "output": 137
        }
      ]
    }
  ],
  "asset": {
    "extras": {
      "author": "zinaida (https://sketchfab.com/zinaida)",
      "license": "CC-BY-4.0 (http://creativecommons.org/licenses/by/4.0/)",
      "source": "https://sketchfab.com/3d-models/oriental-dd0e8b4dcd61422693d4db8bb5a9e7b3",
      "title": "oriental"
    },
    "generator": "Sketchfab-12.68.0",
    "version": "2.0"
  },
  "bufferViews": [
    {
      "buffer": 0,
      "byteLength": 80556,
      "name": "floatBufferViews",
      "target": 34963
    },
    {
      "buffer": 0,
      "byteLength": 134664,
      "byteOffset": 80556,
      "byteStride": 8,
      "name": "floatBufferViews",
      "target": 34962
    },
    {
      "buffer": 0,
      "byteLength": 403992,
      "byteOffset": 215220,
      "byteStride": 12,
      "name": "floatBufferViews",
      "target": 34962
    },
    {
      "buffer": 0,
      "byteLength": 4,
      "byteOffset": 619212,
      "name": "floatBufferViews"
    },
    {
      "buffer": 0,
      "byteLength": 16,
      "byteOffset": 619216,
      "byteStride": 16,
      "name": "floatBufferViews"
    }
  ],
  "buffers": [
    {
      "byteLength": 619232,
      "uri": "scene.bin"
    }
  ],
  "images": [
    {
      "uri": "textures/Texture_atlas_baseColor.jpeg"
    }
  ],
  "materials": [
    {
      "doubleSided": true,
      "name": "Texture_atlas",
      "pbrMetallicRoughness": {
        "baseColorTexture": {
          "index": 0
        },
        "metallicFactor": 0.0,
        "roughnessFactor": 0.6
      }
    }
  ],
  "meshes": [
    {
      "name": "house_9_Texture_atlas_0",
      "primitives": [
        {
          "attributes": {
            "NORMAL": 1,
            "POSITION": 0,
            "TEXCOORD_0": 2
          },
          "indices": 3,
          "material": 0,
          "mode": 4
        }
      ]
    },
    {
      "name": "house2_Texture_atlas_0",
      "primitives": [
        {
          "attributes": {
            "NORMAL": 5,
            "POSITION": 4,
            "TEXCOORD_0": 6
          },
          "indices": 7,
          "material": 0,
          "mode": 4
        }
      ]
    },
    {
      "name": "house3_Texture_atlas_0",
      "primitives": [
        {
          "attributes": {
            "NORMAL": 9,
            "POSITION": 8,
            "TEXCOORD_0": 10
          },
          "indices": 11,
          "material": 0,
          "mode": 4
        }
      ]
    },
    {
      "name": "house4_Texture_atlas_0",
      "primitives": [
        {
          "attributes": {
            "NORMAL": 13,
            "POSITION": 12,
            "TEXCOORD_0": 14
          },
          "indices": 15,
          "material": 0,
          "mode": 4
        }
      ]
    },
    {
      "name": "house5_Texture_atlas_0",
      "primitives": [
        {
          "attributes": {
            "NORMAL": 17,
            "POSITION": 16,
            "TEXCOORD_0": 18
          },
          "indices": 19,
          "material": 0,
          "mode": 4
        }
      ]
    },
    {
      "name": "house6_Texture_atlas_0",
      "primitives": [
        {
          "attributes": {
            "NORMAL": 21,
            "POSITION": 20,
            "TEXCOORD_0": 22
          },
          "indices": 23,
          "material": 0,
          "mode": 4
        }
      ]
    },
    {
      "name": "house7_Texture_atlas_0",
      "primitives": [
        {
          "attributes": {
            "NORMAL": 25,
            "POSITION": 24,
            "TEXCOORD_0": 26
          },
          "indices": 27,
          "material": 0,
          "mode": 4
        }
      ]
    },
    {
      "name": "house8_Texture_atlas_0",
      "primitives": [
        {
          "attributes": {
            "NORMAL": 29,
            "POSITION": 28,
            "TEXCOORD_0": 30
          },
          "indices": 31,
          "material": 0,
          "mode": 4
        }
      ]
    },
    {
      "name": "house_1_Texture_atlas_0",
      "primitives": [
        {
          "attributes": {
            "NORMAL": 33,
            "POSITION": 32,
            "TEXCOORD_0": 34
          },
          "indices": 35,
          "material": 0,
          "mode": 4
        }
      ]
    },
    {
      "name": "ivy_1_Texture_atlas_0",
      "primitives": [
        {
          "attributes": {
            "NORMAL": 37,
            "POSITION": 36,
            "TEXCOORD_0": 38
          },
          "indices": 39,
          "material": 0,
          "mode": 4
        }
      ]
    },
    {
      "name": "ivy_2_Texture_atlas_0",
      "primitives": [
        {
          "attributes": {
            "NORMAL": 41,
            "POSITION": 40,
            "TEXCOORD_0": 42
          },
          "indices": 43,
          "material": 0,
          "mode": 4
        }
      ]
    },
    {
      "name": "ivy_3_Texture_atlas_0",
      "primitives": [
        {
          "attributes": {
            "NORMAL": 45,
            "POSITION": 44,
            "TEXCOORD_0": 46
          },
          "indices": 47,
          "material": 0,
          "mode": 4
        }
      ]
    },
    {
      "name": "ivy_4_Texture_atlas_0",
      "primitives": [
        {
          "attributes": {
            "NORMAL": 49,
            "POSITION": 48,
            "TEXCOORD_0": 50
          },
          "indices": 51,
          "material": 0,
          "mode": 4
        }
      ]
    },
    {
      "name": "stairs_Texture_atlas_0",
      "primitives": [
        {
          "attributes": {
            "NORMAL": 53,
            "POSITION": 52,
            "TEXCOORD_0": 54
          },
          "indices": 55,
          "material": 0,
          "mode": 4
        }
      ]
    },
    {
      "name": "palm.002_Texture_atlas_0",
      "primitives": [
        {
          "attributes": {
            "NORMAL": 57,
            "POSITION": 56,
            "TEXCOORD_0": 58
          },
          "indices": 59,
          "material": 0,
          "mode": 4
        }
      ]
    },
    {
      "name": "palm.004_Texture_atlas_0",
      "primitives": [
        {
          "attributes": {
            "NORMAL": 61,
            "POSITION": 60,
            "TEXCOORD_0": 62
          },
          "indices": 63,
          "material": 0,
          "mode": 4
        }
      ]
    },
    {
      "name": "pot.008_Texture_atlas_0",
      "primitives": [
        {
          "attributes": {
            "NORMAL": 65,
            "POSITION": 64,
            "TEXCOORD_0": 66
          },
          "indices": 67,
          "material": 0,
          "mode": 4
        }
      ]
    },
    {
      "name": "pot.007_Texture_atlas_0",
      "primitives": [
        {
          "attributes": {
            "NORMAL": 69,
            "POSITION": 68,
            "TEXCOORD_0": 70
          },
          "indices": 71,
          "material": 0,
          "mode": 4
        }
      ]
    },
    {
      "name": "carpet_1_Texture_atlas_0",
      "primitives": [
        {
          "attributes": {
            "NORMAL": 73,
            "POSITION": 72,
            "TEXCOORD_0": 74
          },
          "indices": 75,
          "material": 0,
          "mode": 4
        }
      ]
    },
    {
      "name": "carpet_3_Texture_atlas_0",
      "primitives": [
        {
          "attributes": {
            "NORMAL": 77,
            "POSITION": 76,
            "TEXCOORD_0": 78
          },
          "indices": 79,
          "material": 0,
          "mode": 4
        }
      ]
    },
    {
      "name": "fruit_1_Texture_atlas_0",
      "primitives": [
        {
          "attributes": {
            "NORMAL": 81,
            "POSITION": 80,
            "TEXCOORD_0": 82
          },
          "indices": 83,
          "material": 0,
          "mode": 4
        }
      ]
    },
    {
      "name": "pot.006_Texture_atlas_0",
      "primitives": [
        {
          "attributes": {
            "NORMAL": 85,
            "POSITION": 84,
            "TEXCOORD_0": 86
          },
          "indices": 87,
          "material": 0,
          "mode": 4
        }
      ]
    },
    {
      "name": "fruit_2_Texture_atlas_0",
      "primitives": [
        {
          "attributes": {
            "NORMAL": 89,
            "POSITION": 88,
            "TEXCOORD_0": 90
          },
          "indices": 91,
          "material": 0,
          "mode": 4
        }
      ]
    },
    {
      "name": "pot.005_Texture_atlas_0",
      "primitives": [
        {
          "attributes": {
            "NORMAL": 93,
            "POSITION": 92,
            "TEXCOORD_0": 94
          },
          "indices": 95,
          "material": 0,
          "mode": 4
        }
      ]
    },
    {
      "name": "pot.004_Texture_atlas_0",
      "primitives": [
        {
          "attributes": {
            "NORMAL": 97,
            "POSITION": 96,
            "TEXCOORD_0": 98
          },
          "indices": 99,
          "material": 0,
          "mode": 4
        }
      ]
    },
    {
      "name": "pot.003_Texture_atlas_0",
      "primitives": [
        {
          "attributes": {
            "NORMAL": 101,
            "POSITION": 100,
            "TEXCOORD_0": 102
          },
          "indices": 103,
          "material": 0,
          "mode": 4
        }
      ]
    },
    {
      "name": "pot.002_Texture_atlas_0",
      "primitives": [
        {
          "attributes": {
            "NORMAL": 105,
            "POSITION": 104,
            "TEXCOORD_0": 106
          },
          "indices": 107,
          "material": 0,
          "mode": 4
        }
      ]
    },
    {
      "name": "pot.001_Texture_atlas_0",
      "primitives": [
        {
          "attributes": {
            "NORMAL": 109,
            "POSITION": 108,
            "TEXCOORD_0": 110
          },
          "indices": 111,
          "material": 0,
          "mode": 4
        }
      ]
    },
    {
      "name": "fruit_3_Texture_atlas_0",
      "primitives": [
        {
          "attributes": {
            "NORMAL": 113,
            "POSITION": 112,
            "TEXCOORD_0": 114
          },
          "indices": 115,
          "material": 0,
          "mode": 4
        }
      ]
    },
    {
      "name": "carpet_4_Texture_atlas_0",
      "primitives": [
        {
          "attributes": {
            "NORMAL": 117,
            "POSITION": 116,
            "TEXCOORD_0": 118
          },
          "indices": 119,
          "material": 0,
          "mode": 4
        }
      ]
    },
    {
      "name": "carpet_2_Texture_atlas_0",
      "primitives": [
        {
          "attributes": {
            "NORMAL": 121,
            "POSITION": 120,
            "TEXCOORD_0": 122
          },
          "indices": 123,
          "material": 0,
          "mode": 4
        }
      ]
    },
    {
      "name": "palm.001_Texture_atlas_0",
      "primitives": [
        {
          "attributes": {
            "NORMAL": 125,
            "POSITION": 124,
            "TEXCOORD_0": 126
          },
          "indices": 127,
          "material": 0,
          "mode": 4
        }
      ]
    },
    {
      "name": "palm.003_Texture_atlas_0",
      "primitives": [
        {
          "attributes": {
            "NORMAL": 129,
            "POSITION": 128,
            "TEXCOORD_0": 130
          },
          "indices": 131,
          "material": 0,
          "mode": 4
        }
      ]
    },
    {
      "name": "camel_Texture_atlas_0",
      "primitives": [
        {
          "attributes": {
            "NORMAL": 133,
            "POSITION": 132,
            "TEXCOORD_0": 134
          },
          "indices": 135,
          "material": 0,
          "mode": 4
        }
      ]
    }
  ],
  "nodes": [
    {
      "children": [
        1
      ],
      "matrix": [
        -1.0,
        -2.832769343193999e-16,
        -6.290011496532519e-32,
        0.0,
        0.0,
        2.220446049250313e-16,
        -1.0,
        0.0,
        2.832769343193999e-16,
        -1.0,
        -2.220446049250313e-16,
        0.0,
        -80.96629333496094,
        -127.1881103515625,
        -2.824143371417398e-14,
        1.0
      ],
      "name": "Sketchfab_model"
    },
    {
      "children": [
        2
      ],
      "matrix": [
        1.0,
        0.0,
        0.0,
        0.0,
        0.0,
        -1.0,
        0.0,
        0.0,
        0.0,
        0.0,
        -1.0,
        0.0,
        0.0,
        0.0,
        0.0,
        1.0
      ],
      "name": "fbx_all.fbx"
    },
    {
      "children": [
        3
      ],
      "name": "Object_2"
    },
    {
      "children": [
        4,
        6,
        8,
        10,
        12,
        14,
        16,
        18,
        20,
        22,
        24,
        26,
        28,
        30,
        32,
        34,
        36,
        38,
        40,
        42,
        44,
        46,
        48,
        50,
        52,
        54,
        56,
        58,
        60,
        62,
        64,
        66,
        68,
        70
      ],
      "name": "RootNode"
    },
    {
      "children": [
        5
      ],
      "name": "house_9",
      "rotation": [
        0.0,
        0.0,
        0.7071068286895752,
        0.7071068286895752
      ],
      "scale": [
        100.0,
        100.0,
        100.0
      ],
      "translation": [
        0.0,
        37.75286102294922,
        0.0
      ]
    },
    {
      "mesh": 0,
      "name": "house_9_Texture_atlas_0"
    },
    {
      "children": [
        7
      ],
      "name": "house2",
      "rotation": [
        0.0,
        0.0,
        0.7071068286895752,
        0.7071068286895752
      ],
      "scale": [
        100.0,
        100.0,
        100.0
      ],
      "translation": [
        -86.9028091430664,
        -113.97090148925781,
        0.0
      ]
    },
    {
      "mesh": 1,
      "name": "house2_Texture_atlas_0"
    },
    {
      "children": [
        9
      ],
      "name": "house3",
      "rotation": [
        0.0,
        0.0,
        0.7071068286895752,
        0.7071068286895752
      ],
      "scale": [
        100.0,
        100.0,
        100.0
      ],
      "translation": [
        -98.29989624023438,
        0.0,
        0.0
      ]
    },
    {
      "mesh": 2,
      "name": "house3_Texture_atlas_0"
    },
    {
      "children": [
        11
      ],
      "name": "house4",
      "rotation": [
        0.0,
        -0.0,
        -0.7071066498756409,
        0.70710688829422
      ],
      "scale": [
        100.0,
        100.0,
        100.0
      ],
      "translation": [
        -82.21321105957031,
        316.3164978027344,
        0.0
      ]
    },
    {
      "mesh": 3,
      "name": "house4_Texture_atlas_0"
    },
    {
      "children": [
        13
      ],
      "name": "house5",
      "rotation": [
        0.0,
        0.0,
        0.7071068286895752,
        0.7071068286895752
      ],
      "scale": [
        100.0,
        100.0,
        100.0
      ],
      "translation": [
        -83.34121704101563,
        238.4898681640625,
        0.0
      ]
    },
    {
      "mesh": 4,
      "name": "house5_Texture_atlas_0"
    },
    {
      "children": [
        15
      ],
      "name": "house6",
      "rotation": [
        0.0,
        0.0,
        0.7071068286895752,
        0.7071068286895752
      ],
      "scale": [
        100.0,
        100.0,
        100.0
      ],
      "translation": [
        -127.70907592773438,
        71.54763793945313,
        0.0
      ]
    },
    {
      "mesh": 5,
      "name": "house6_Texture_atlas_0"
    },
    {
      "children": [
        17
      ],
      "name": "house7",
      "rotation": [
        0.0,
        0.0,
        0.7071068286895752,
        0.7071068286895752
      ],
      "scale": [
        100.0,
        100.0,
        100.0
      ],
      "translation": [
        28.341201782226563,
        -117.5324935913086,
        0.0
      ]
    },
    {
      "mesh": 6,
      "name": "house7_Texture_atlas_0"
    },
    {
      "children": [
        19
      ],
      "name": "house8",
      "rotation": [
        0.0,
        0.0,
        0.7071068286895752,
        0.7071068286895752
      ],
      "scale": [
        100.0,
        100.0,
        100.0
      ],
      "translation": [
        0.0,
        -55.316566467285156,
        0.0
      ]
    },
    {
      "mesh": 7,
      "name": "house8_Texture_atlas_0"
    },
    {
      "children": [
        21
      ],
      "name": "house_1",
      "rotation": [
        0.0,
        0.0,
        0.7071068286895752,
        0.7071068286895752
      ],
      "scale": [
        100.0,
        100.0,
        100.0
      ],
      "translation": [
        -150.85336303710938,
        121.88868713378906,
        0.0
      ]
    },
    {
      "mesh": 8,
      "name": "house_1_Texture_atlas_0"
    },
    {
      "children": [
        23
      ],
      "name": "ivy_1",
      "rotation": [
        0.0,
        0.0,
        0.7071068286895752,
        0.7071068286895752
      ],
      "scale": [
        100.0,
        100.0,
        100.0
      ],
      "translation": [
        -52.74771499633789,
        43.63908004760742,
        -0.28560981154441833
      ]
    },
    {
      "mesh": 9,
      "name": "ivy_1_Texture_atlas_0"
    },
    {
      "children": [
        25
      ],
      "name": "ivy_2",
      "rotation": [
        0.0,
        0.0,
        0.7071068286895752,
        0.7071068286895752
      ],
      "scale": [
        100.0,
        100.0,
        100.0
      ],
      "translation": [
        15.086277961730957,
        20.285520553588867,
        0.45958906412124634
      ]
    },
    {
      "mesh": 10,
      "name": "ivy_2_Texture_atlas_0"
    },
    {
      "children": [
        27
      ],
      "name": "ivy_3",
      "rotation": [
        0.0,
        0.0,
        0.7071068286895752,
        0.7071068286895752
      ],
      "scale": [
        100.0,
        100.0,
        100.0
      ],
      "translation": [
        46.30960464477539,
        -96.66053009033203,
        -0.43469035625457764
      ]
    },
    {
      "mesh": 11,
      "name": "ivy_3_Texture_atlas_0"
    },
    {
      "children": [
        29
      ],
      "name": "ivy_4",
      "rotation": [
        0.0,
        0.0,
        0.7071068286895752,
        0.7071068286895752
      ],
      "scale": [
        100.0,
        100.0,
        100.0
      ],
      "translation": [
        -112.838623046875,
        86.71593475341797,
        -0.16822615265846252
      ]
    },
    {
      "mesh": 12,
      "name": "ivy_4_Texture_atlas_0"
    },
    {
      "children": [
        31
      ],
      "name": "stairs",
      "rotation": [
        0.0,
        0.0,
        0.7071068286895752,
        0.7071068286895752
      ],
      "scale": [
        100.0,
        100.0,
        100.0
      ],
      "translation": [
        91.3460922241211,
        -69.63265991210938,
        0.0
      ]
    },
    {
      "mesh": 13,
      "name": "stairs_Texture_atlas_0"
    },
    {
      "children": [
        33
      ],
      "name": "palm.002",
      "rotation": [
        0.0,
        0.0,
        0.7071068286895752,
        0.7071068286895752
      ],
      "scale": [
        100.0,
        100.0,
        100.0
      ],
      "translation": [
        -29.000282287597656,
        356.5223083496094,
        0.0
      ]
    },
    {
      "mesh": 14,
      "name": "palm.002_Texture_atlas_0"
    },
    {
      "children": [
        35
      ],
      "name": "palm.004",
      "rotation": [
        0.0,
        0.0,
        0.7071068286895752,
        0.7071068286895752
      ],
      "scale": [
        100.0,
        100.0,
        100.0
      ],
      "translation": [
        12.620359420776367,
        329.1463317871094,
        0.0
      ]
    },
    {
      "mesh": 15,
      "name": "palm.004_Texture_atlas_0"
    },
    {
      "children": [
        37
      ],
      "name": "pot.008",
      "rotation": [
        0.0,
        0.0,
        0.7071068286895752,
        0.7071068286895752
      ],
      "scale": [
        100.0,
        100.0,
        100.0
      ],
      "translation": [
        67.03337097167969,
        34.82853317260742,
        0.0655926764011383
      ]
    },
    {
      "mesh": 16,
      "name": "pot.008_Texture_atlas_0"
    },
    {
      "children": [
        39
      ],
      "name": "pot.007",
      "rotation": [
        0.0,
        0.0,
        0.7071068286895752,
        0.7071068286895752
      ],
      "scale": [
        100.0,
        100.0,
        100.0
      ],
      "translation": [
        11.360401153564453,
        100.47991180419922,
        0.20988434553146362
      ]
    },
    {
      "mesh": 17,
      "name": "pot.007_Texture_atlas_0"
    },
    {
      "children": [
        41
      ],
      "name": "carpet_1",
      "rotation": [
        0.0,
        0.0,
        0.7071068286895752,
        0.7071068286895752
      ],
      "scale": [
        100.0,
        100.0,
        100.0
      ],
      "translation": [
        -7.034453868865967,
        79.77326202392578,
        0.13092458248138428
      ]
    },
    {
      "mesh": 18,
      "name": "carpet_1_Texture_atlas_0"
    },
    {
      "children": [
        43
      ],
      "name": "carpet_3",
      "rotation": [
        0.0,
        0.0,
        0.7071068286895752,
        0.7071068286895752
      ],
      "scale": [
        100.0,
        100.0,
        100.0
      ],
      "translation": [
        -29.84531593322754,
        -15.381860733032227,
        0.41508376598358154
      ]
    },
    {
      "mesh": 19,
      "name": "carpet_3_Texture_atlas_0"
    },
    {
      "children": [
        45
      ],
      "name": "fruit_1",
      "rotation": [
        -0.16786158084869385,
        0.16786159574985504,
        0.6868933439254761,
        0.6868934035301208
      ],
      "scale": [
        100.0,
        100.0,
        100.0
      ],
      "translation": [
        -14.764202117919922,
        86.88914489746094,
        4.303321838378906
      ]
    },
    {
      "mesh": 20,
      "name": "fruit_1_Texture_atlas_0"
    },
    {
      "children": [
        47
      ],
      "name": "pot.006",
      "rotation": [
        0.0,
        0.0,
        0.7071068286895752,
        0.7071068286895752
      ],
      "scale": [
        100.0,
        100.0,
        100.0
      ],
      "translation": [
        38.19263458251953,
        57.45560073852539,
        0.0947900116443634
      ]
    },
    {
      "mesh": 21,
      "name": "pot.006_Texture_atlas_0"
    },
    {
      "children": [
        49
      ],
      "name": "fruit_2",
      "rotation": [
        -0.1323160082101822,
        0.1323160082101822,
        0.6946167945861816,
        0.6946167945861816
      ],
      "scale": [
        100.0,
        100.0,
        100.0
      ],
      "translation": [
        -0.15310049057006836,
        80.79656219482422,
        5.37790060043335
      ]
    },
    {
      "mesh": 22,
      "name": "fruit_2_Texture_atlas_0"
    },
    {
      "children": [
        51
      ],
      "name": "pot.005",
      "rotation": [
        0.0,
        0.0,
        0.7071068286895752,
        0.7071068286895752
      ],
      "scale": [
        100.0,
        100.0,
        100.0
      ],
      "translation": [
        41.78583526611328,
        17.761369705200195,
        -0.16302727162837982
      ]
    },
    {
      "mesh": 23,
      "name": "pot.005_Texture_atlas_0"
    },
    {
      "children": [
        53
      ],
      "name": "pot.004",
      "rotation": [
        0.0,
        0.0,
        0.7071068286895752,
        0.7071068286895752
      ],
      "scale": [
        100.0,
        100.0,
        100.0
      ],
      "translation": [
        26.763200759887695,
        89.86267852783203,
        -0.4569888114929199
      ]
    },
    {
      "mesh": 24,
      "name": "pot.004_Texture_atlas_0"
    },
    {
      "children": [
        55
      ],
      "name": "pot.003",
      "rotation": [
        0.0,
        0.0,
        0.7071068286895752,
        0.7071068286895752
      ],
      "scale": [
        100.0,
        100.0,
        100.0
      ],
      "translation": [
        32.20530700683594,
        70.3580093383789,
        0.06977282464504242
      ]
    },
    {
      "mesh": 25,
      "name": "pot.003_Texture_atlas_0"
    },
    {
      "children": [
        57
      ],
      "name": "pot.002",
      "rotation": [
        0.0,
        0.0,
        0.7071068286895752,
        0.7071068286895752
      ],
      "scale": [
        100.0,
        100.0,
        100.0
      ],
      "translation": [
        56.62940216064453,
        20.636629104614258,
        -0.24623572826385498
      ]
    },
    {
      "mesh": 26,
      "name": "pot.002_Texture_atlas_0"
    },
    {
      "children": [
        59
      ],
      "name": "pot.001",
      "rotation": [
        0.0,
        0.0,
        0.7071068286895752,
        0.7071068286895752
      ],
      "scale": [
        100.0,
        100.0,
        100.0
      ],
      "translation": [
        51.37176513671875,
        51.083553314208984,
        0.05466081202030182
      ]
    },
    {
      "mesh": 27,
      "name": "pot.001_Texture_atlas_0"
    },
    {
      "children": [
        61
      ],
      "name": "fruit_3",
      "rotation": [
        0.0,
        0.0,
        0.7071068286895752,
        0.7071068286895752
      ],
      "scale": [
        100.0,
        100.0,
        100.0
      ],
      "translation": [
        14.894140243530273,
        70.19229888916016,
        -0.061362236738204956
      ]
    },
    {
      "mesh": 28,
      "name": "fruit_3_Texture_atlas_0"
    },
    {
      "children": [
        63
      ],
      "name": "carpet_4",
      "rotation": [
        0.0,
        0.0,
        0.7071068286895752,
        0.7071068286895752
      ],
      "scale": [
        100.0,
        100.0,
        100.0
      ],
      "translation": [
        44.93253707885742,
        45.475215911865234,
        0.44636502861976624
      ]
    },
    {
      "mesh": 29,
      "name": "carpet_4_Texture_atlas_0"
    },
    {
      "children": [
        65
      ],
      "name": "carpet_2",
      "rotation": [
        0.0,
        0.0,
        0.7071068286895752,
        0.7071068286895752
      ],
      "scale": [
        100.0,
        100.0,
        100.0
      ],
      "translation": [
        -72.44480895996094,
        64.86090087890625,
        6.478765612882853e-08
      ]
    },
    {
      "mesh": 30,
      "name": "carpet_2_Texture_atlas_0"
    },
    {
      "children": [
        67
      ],
      "name": "palm.001",
      "rotation": [
        0.0,
        0.0,
        0.7071068286895752,
        0.7071068286895752
      ],
      "scale": [
        100.0,
        100.0,
        100.0
      ],
      "translation": [
        -32.3593864440918,
        148.3620147705078,
        0.0
      ]
    },
    {
      "mesh": 31,
      "name": "palm.001_Texture_atlas_0"
    },
    {
      "children": [
        69
      ],
      "name": "palm.003",
      "rotation": [
        0.0,
        0.0,
        0.7071068286895752,
        0.7071068286895752
      ],
      "scale": [
        100.0,
        100.0,
        100.0
      ],
      "translation": [
        18.05172348022461,
        3.289247989654541,
        0.0
      ]
    },
    {
      "mesh": 32,
      "name": "palm.003_Texture_atlas_0"
    },
    {
      "children": [
        71
      ],
      "name": "camel",
      "rotation": [
        0.0,
        0.0,
        0.7071068286895752,
        0.7071068286895752
      ],
      "scale": [
        100.0,
        100.0,
        100.0
      ],
      "translation": [
        -41.01980972290039,
        198.2176971435547,
        0.0
      ]
    },
    {
      "mesh": 33,
      "name": "camel_Texture_atlas_0"
    }
  ],
  "samplers": [
    {
      "magFilter": 9729,
      "minFilter": 9987,
      "wrapS": 10497,
      "wrapT": 10497
    }
  ],
  "scene": 0,
  "scenes": [
    {
      "name": "Sketchfab_Scene",
      "nodes": [
        0
      ]
    }
  ],
  "textures": [
    {
      "sampler": 0,
      "source": 0
    }
  ]
}
