{
  "accessors": [
    {
      "bufferView": 2,
      "componentType": 5126,
      "count": 2722,
      "max": [
        16.65166473388672,
        4.973390102386475,
        4.006782531738281
      ],
      "min": [
        -16.290889739990234,
        -5.0130815505981445,
        -5.780866622924805
      ],
      "type": "VEC3"
    },
    {
      "bufferView": 2,
      "byteOffset": 32664,
      "componentType": 5126,
      "count": 2722,
      "max": [
        1.0,
        1.0,
        1.0
      ],
      "min": [
        -1.0,
        -1.0,
        -1.0
      ],
      "type": "VEC3"
    },
    {
      "bufferView": 1,
      "componentType": 5126,
      "count": 2722,
      "max": [
        1.0,
        0.9999999403953552
      ],
      "min": [
        0.0,
        0.0
      ],
      "type": "VEC2"
    },
    {
      "bufferView": 0,
      "componentType": 5125,
      "count": 7881,
      "type": "SCALAR"
    },
    {
      "bufferView": 3,
      "componentType": 5126,
      "count": 498,
      "max": [
        10.375
      ],
      "min": [
        0.0
      ],
      "type": "SCALAR"
    },
    {
      "bufferView": 4,
      "componentType": 5126,
      "count": 498,
      "max": [
        0.4977872669696808,
        0.7071016430854797,
        0.7071017622947693,
        0.7071067094802856
      ],
      "min": [
        -0.7071068286895752,
        -0.4984203577041626,
        -0.4984204173088074,
        -0.497787207365036
      ],
      "type": "VEC4"
    }
  ],
  "animations": [
    {
      "channels": [
        {
          "sampler": 0,
          "target": {
            "node": 4,
            "path": "rotation"
          }
        }
      ],
      "name": "Shield|ShieldAction",
      "samplers": [
        {
          "input": 4,
          "interpolation": "LINEAR",
          "output": 5
        }
      ]
    }
  ],
  "asset": {
    "extras": {
      "author": "Citron Legacy (https://sketchfab.com/CitronLegacy)",
      "license": "CC-BY-4.0 (http://creativecommons.org/licenses/by/4.0/)",
      "source": "https://sketchfab.com/3d-models/stylized-paladin-shield-f8e41616e56d40e6a4fa90851acd74c3",
      "title": "Stylized Paladin Shield"
    },
    "generator": "Sketchfab-12.68.0",
    "version": "2.0"
  },
  "bufferViews": [
    {
      "buffer": 0,
      "byteLength": 31524,
      "name": "floatBufferViews",
      "target": 34963
    },
    {
      "buffer": 0,
      "byteLength": 21776,
      "byteOffset": 31524,
      "byteStride": 8,
      "name": "floatBufferViews",
      "target": 34962
    },
    {
      "buffer": 0,
      "byteLength": 65328,
      "byteOffset": 53300,
      "byteStride": 12,
      "name": "floatBufferViews",
      "target": 34962
    },
    {
      "buffer": 0,
      "byteLength": 1992,
      "byteOffset": 118628,
      "name": "floatBufferViews"
    },
    {
      "buffer": 0,
      "byteLength": 7968,
      "byteOffset": 120620,
      "byteStride": 16,
      "name": "floatBufferViews"
    }
  ],
  "buffers": [
    {
      "byteLength": 128588,
      "uri": "scene.bin"
    }
  ],
  "images": [
    {
      "uri": "textures/BaseColor_baseColor.png"
    }
  ],
  "materials": [
    {
      "doubleSided": true,
      "name": "BaseColor",
      "pbrMetallicRoughness": {
        "baseColorTexture": {
          "index": 0
        },
        "metallicFactor": 0.0,
        "roughnessFactor": 0.8040408206
      }
    }
  ],
  "meshes": [
    {
      "name": "Shield_BaseColor_0",
      "primitives": [
        {
          "attributes": {
            "NORMAL": 1,
            "POSITION": 0,
            "TEXCOORD_0": 2
          },
          "indices": 3,
          "material": 0,
          "mode": 4
        }
      ]
    }
  ],
  "nodes": [
    {
      "children": [
        1
      ],
      "matrix": [
        0.8277713656425476,
        1.3152048655117992e-16,
        -0.5610656142234802,
        0.0,
        -0.5482038855552673,
        -0.21288953721523268,
        -0.8087957501411438,
        0.0,
        -0.11944498866796494,
        0.9770762920379639,
        -0.17622385919094063,
        0.0,
        -0.21604055166244507,
        -0.08187825232744218,
        0.056601494550704935,
        1.0
      ],
      "name": "Sketchfab_model"
    },
    {
      "children": [
        2
      ],
      "matrix": [
        0.009999999776482582,
        0.0,
        0.0,
        0.0,
        0.0,
        0.0,
        0.009999999776482582,
        0.0,
        0.0,
        -0.009999999776482582,
        0.0,
        0.0,
        0.0,
        0.0,
        0.0,
        1.0
      ],
      "name": "8aaf39180fb44ed48f271aaf4f8cac2e.fbx"
    },
    {
      "children": [
        3
      ],
      "name": "Object_2"
    },
    {
      "children": [
        4
      ],
      "name": "RootNode"
    },
    {
      "children": [
        5
      ],
      "name": "Shield",
      "rotation": [
        -0.7071068286895752,
        0.0,
        0.0,
        0.7071067094802856
      ],
      "scale": [
        8.379008293151855,
        8.379008293151855,
        48.82541275024414
      ],
      "translation": [
        -1.5007615089416504,
        34.67446517944336,
        37.364200592041016
      ]
    },
    {
      "mesh": 0,
      "name": "Shield_BaseColor_0"
    }
  ],
  "samplers": [
    {
      "magFilter": 9729,
      "minFilter": 9987,
      "wrapS": 10497,
      "wrapT": 10497
    }
  ],
  "scene": 0,
  "scenes": [
    {
      "name": "Sketchfab_Scene",
      "nodes": [
        0
      ]
    }
  ],
  "textures": [
    {
      "sampler": 0,
      "source": 0
    }
  ]
}
