{
  "accessors": [
    {
      "bufferView": 2,
      "componentType": 5126,
      "count": 72,
      "max": [
        -4.687108993530273,
        -0.9474073648452759,
        1.7296676635742188
      ],
      "min": [
        -5.445611476898193,
        -2.9474077224731445,
        1.1254664659500122
      ],
      "type": "VEC3"
    },
    {
      "bufferView": 2,
      "byteOffset": 864,
      "componentType": 5126,
      "count": 72,
      "max": [
        1.0,
        1.0,
        1.0
      ],
      "min": [
        -1.0,
        -1.0,
        -1.0
      ],
      "type": "VEC3"
    },
    {
      "bufferView": 1,
      "componentType": 5126,
      "count": 72,
      "max": [
        0.875,
        1.0
      ],
      "min": [
        0.125,
        0.0
      ],
      "type": "VEC2"
    },
    {
      "bufferView": 0,
      "componentType": 5125,
      "count": 108,
      "type": "SCALAR"
    },
    {
      "bufferView": 2,
      "byteOffset": 1728,
      "componentType": 5126,
      "count": 24,
      "max": [
        -4.885962009429932,
        -2.1818490028381348,
        1.8380063772201538
      ],
      "min": [
        -5.20154333114624,
        -2.2901878356933594,
        1.7296677827835083
      ],
      "type": "VEC3"
    },
    {
      "bufferView": 2,
      "byteOffset": 2016,
      "componentType": 5126,
      "count": 24,
      "max": [
        1.0,
        1.0,
        1.0
      ],
      "min": [
        -1.0,
        -1.0,
        -1.0
      ],
      "type": "VEC3"
    },
    {
      "bufferView": 1,
      "byteOffset": 576,
      "componentType": 5126,
      "count": 24,
      "max": [
        0.875,
        1.0
      ],
      "min": [
        0.125,
        0.0
      ],
      "type": "VEC2"
    },
    {
      "bufferView": 0,
      "byteOffset": 432,
      "componentType": 5125,
      "count": 36,
      "type": "SCALAR"
    },
    {
      "bufferView": 2,
      "byteOffset": 2304,
      "componentType": 5126,
      "count": 24,
      "max": [
        -4.808228969573975,
        -1.7530678510665894,
        1.8380063772201538
      ],
      "min": [
        -5.2339959144592285,
        -2.0791029930114746,
        1.7296677827835083
      ],
      "type": "VEC3"
    },
    {
      "bufferView": 2,
      "byteOffset": 2592,
      "componentType": 5126,
      "count": 24,
      "max": [
        0.8427149057388306,
        0.8427150249481201,
        1.0
      ],
      "min": [
        -0.8427121043205261,
        -0.8427146673202515,
        -1.0
      ],
      "type": "VEC3"
    },
    {
      "bufferView": 1,
      "byteOffset": 768,
      "componentType": 5126,
      "count": 24,
      "max": [
        0.875,
        1.0
      ],
      "min": [
        0.125,
        0.0
      ],
      "type": "VEC2"
    },
    {
      "bufferView": 0,
      "byteOffset": 576,
      "componentType": 5125,
      "count": 36,
      "type": "SCALAR"
    },
    {
      "bufferView": 2,
      "byteOffset": 2880,
      "componentType": 5126,
      "count": 790,
      "max": [
        -4.827134132385254,
        -2.3843531608581543,
        2.1594605445861816
      ],
      "min": [
        -5.146275043487549,
        -2.70349383354187,
        1.7296677827835083
      ],
      "type": "VEC3"
    },
    {
      "bufferView": 2,
      "byteOffset": 12360,
      "componentType": 5126,
      "count": 790,
      "max": [
        0.993830144405365,
        0.9938335418701172,
        1.0
      ],
      "min": [
        -0.9938331842422485,
        -0.9938335418701172,
        -1.0
      ],
      "type": "VEC3"
    },
    {
      "bufferView": 1,
      "byteOffset": 960,
      "componentType": 5126,
      "count": 790,
      "max": [
        1.0,
        1.0
      ],
      "min": [
        0.0,
        0.01000000536441803
      ],
      "type": "VEC2"
    },
    {
      "bufferView": 0,
      "byteOffset": 720,
      "componentType": 5125,
      "count": 1242,
      "type": "SCALAR"
    },
    {
      "bufferView": 2,
      "byteOffset": 21840,
      "componentType": 5126,
      "count": 160,
      "max": [
        -4.921985149383545,
        -2.479203939437866,
        2.2487428188323975
      ],
      "min": [
        -5.051424026489258,
        -2.608642816543579,
        2.1594605445861816
      ],
      "type": "VEC3"
    },
    {
      "bufferView": 2,
      "byteOffset": 23760,
      "componentType": 5126,
      "count": 160,
      "max": [
        0.9862399697303772,
        0.9862400889396667,
        1.0
      ],
      "min": [
        -0.9862452149391174,
        -0.9862406849861145,
        -0.13378062844276428
      ],
      "type": "VEC3"
    },
    {
      "bufferView": 1,
      "byteOffset": 7280,
      "componentType": 5126,
      "count": 160,
      "max": [
        0.4442729651927948,
        0.4442729651927948
      ],
      "min": [
        0.055726952850818634,
        0.05572698265314102
      ],
      "type": "VEC2"
    },
    {
      "bufferView": 0,
      "byteOffset": 5688,
      "componentType": 5125,
      "count": 282,
      "type": "SCALAR"
    },
    {
      "bufferView": 2,
      "byteOffset": 25680,
      "componentType": 5126,
      "count": 128,
      "max": [
        -4.839476108551025,
        -2.3966946601867676,
        1.942675232887268
      ],
      "min": [
        -5.1339335441589355,
        -2.691152334213257,
        1.8587063550949097
      ],
      "type": "VEC3"
    },
    {
      "bufferView": 2,
      "byteOffset": 27216,
      "componentType": 5126,
      "count": 128,
      "max": [
        0.9415197372436523,
        0.9415178298950195,
        0.3239569365978241
      ],
      "min": [
        -0.9415197968482971,
        -0.941516637802124,
        0.3239429295063019
      ],
      "type": "VEC3"
    },
    {
      "bufferView": 1,
      "byteOffset": 8560,
      "componentType": 5126,
      "count": 128,
      "max": [
        1.0,
        0.7000000476837158
      ],
      "min": [
        0.0,
        0.6000000238418579
      ],
      "type": "VEC2"
    },
    {
      "bufferView": 0,
      "byteOffset": 6816,
      "componentType": 5125,
      "count": 192,
      "type": "SCALAR"
    },
    {
      "bufferView": 2,
      "byteOffset": 28752,
      "componentType": 5126,
      "count": 776,
      "max": [
        -4.732476234436035,
        -1.1858233213424683,
        2.293393611907959
      ],
      "min": [
        -5.151068687438965,
        -1.6044158935546875,
        1.7296674251556396
      ],
      "type": "VEC3"
    },
    {
      "bufferView": 2,
      "byteOffset": 38064,
      "componentType": 5126,
      "count": 776,
      "max": [
        0.993834376335144,
        0.9938340783119202,
        1.0
      ],
      "min": [
        -0.9938344359397888,
        -0.9938340783119202,
        -1.0
      ],
      "type": "VEC3"
    },
    {
      "bufferView": 1,
      "byteOffset": 9584,
      "componentType": 5126,
      "count": 776,
      "max": [
        1.0,
        1.0
      ],
      "min": [
        0.0,
        0.01000000536441803
      ],
      "type": "VEC2"
    },
    {
      "bufferView": 0,
      "byteOffset": 7584,
      "componentType": 5125,
      "count": 1242,
      "type": "SCALAR"
    },
    {
      "bufferView": 2,
      "byteOffset": 47376,
      "componentType": 5126,
      "count": 160,
      "max": [
        -4.856884956359863,
        -1.3102318048477173,
        2.41049861907959
      ],
      "min": [
        -5.026659965515137,
        -1.4800069332122803,
        2.293393611907959
      ],
      "type": "VEC3"
    },
    {
      "bufferView": 2,
      "byteOffset": 49296,
      "componentType": 5126,
      "count": 160,
      "max": [
        0.9862392544746399,
        0.9862409234046936,
        1.0
      ],
      "min": [
        -0.9862386584281921,
        -0.9862410426139832,
        -0.13378369808197021
      ],
      "type": "VEC3"
    },
    {
      "bufferView": 1,
      "byteOffset": 15792,
      "componentType": 5126,
      "count": 160,
      "max": [
        0.4442729651927948,
        0.4442729651927948
      ],
      "min": [
        0.055726952850818634,
        0.05572698265314102
      ],
      "type": "VEC2"
    },
    {
      "bufferView": 0,
      "byteOffset": 12552,
      "componentType": 5125,
      "count": 282,
      "type": "SCALAR"
    },
    {
      "bufferView": 2,
      "byteOffset": 51216,
      "componentType": 5126,
      "count": 128,
      "max": [
        -4.748663425445557,
        -1.2020108699798584,
        2.0090529918670654
      ],
      "min": [
        -5.134881019592285,
        -1.5882283449172974,
        1.898917555809021
      ],
      "type": "VEC3"
    },
    {
      "bufferView": 2,
      "byteOffset": 52752,
      "componentType": 5126,
      "count": 128,
      "max": [
        0.9415193796157837,
        0.9415194988250732,
        0.3239542245864868
      ],
      "min": [
        -0.941518247127533,
        -0.9415189623832703,
        0.32394710183143616
      ],
      "type": "VEC3"
    },
    {
      "bufferView": 1,
      "byteOffset": 17072,
      "componentType": 5126,
      "count": 128,
      "max": [
        1.0,
        0.7000000476837158
      ],
      "min": [
        0.0,
        0.6000000238418579
      ],
      "type": "VEC2"
    },
    {
      "bufferView": 0,
      "byteOffset": 13680,
      "componentType": 5125,
      "count": 192,
      "type": "SCALAR"
    },
    {
      "bufferView": 2,
      "byteOffset": 54288,
      "componentType": 5126,
      "count": 1280,
      "max": [
        -2.2102177143096924,
        0.8274872899055481,
        0.7593040466308594
      ],
      "min": [
        -3.328655242919922,
        -0.29095011949539185,
        0.0939674973487854
      ],
      "type": "VEC3"
    },
    {
      "bufferView": 2,
      "byteOffset": 69648,
      "componentType": 5126,
      "count": 1280,
      "max": [
        0.9951847195625305,
        0.9951848387718201,
        0.9977462887763977
      ],
      "min": [
        -0.9951849579811096,
        -0.9951847791671753,
        -0.9977462291717529
      ],
      "type": "VEC3"
    },
    {
      "bufferView": 1,
      "byteOffset": 18096,
      "componentType": 5126,
      "count": 1280,
      "max": [
        1.0,
        0.9228518009185791
      ],
      "min": [
        0.0,
        0.7165353298187256
      ],
      "type": "VEC2"
    },
    {
      "bufferView": 0,
      "byteOffset": 14448,
      "componentType": 5125,
      "count": 1920,
      "type": "SCALAR"
    },
    {
      "bufferView": 2,
      "byteOffset": 85008,
      "componentType": 5126,
      "count": 193,
      "max": [
        -2.2145605087280273,
        0.8114861845970154,
        0.8859955668449402
      ],
      "min": [
        -3.3117620944976807,
        -0.28571540117263794,
        -0.01246654987335205
      ],
      "type": "VEC3"
    },
    {
      "bufferView": 2,
      "byteOffset": 87324,
      "componentType": 5126,
      "count": 193,
      "max": [
        0.9577195048332214,
        0.95792156457901,
        1.0
      ],
      "min": [
        -0.9579327702522278,
        -0.9577386975288391,
        -1.0
      ],
      "type": "VEC3"
    },
    {
      "bufferView": 1,
      "byteOffset": 28336,
      "componentType": 5126,
      "count": 193,
      "max": [
        1.0,
        1.0
      ],
      "min": [
        7.450580596923828e-08,
        0.01000000536441803
      ],
      "type": "VEC2"
    },
    {
      "bufferView": 0,
      "byteOffset": 22128,
      "componentType": 5125,
      "count": 318,
      "type": "SCALAR"
    },
    {
      "bufferView": 2,
      "byteOffset": 89640,
      "componentType": 5126,
      "count": 48,
      "max": [
        -2.292064666748047,
        0.7339821457862854,
        0.8700332641601563
      ],
      "min": [
        -3.2342581748962402,
        -0.20821139216423035,
        0.6763771772384644
      ],
      "type": "VEC3"
    },
    {
      "bufferView": 2,
      "byteOffset": 90216,
      "componentType": 5126,
      "count": 48,
      "max": [
        0.9659256339073181,
        0.965925931930542,
        0.0
      ],
      "min": [
        -0.965925931930542,
        -0.9659258723258972,
        0.0
      ],
      "type": "VEC3"
    },
    {
      "bufferView": 1,
      "byteOffset": 29880,
      "componentType": 5126,
      "count": 48,
      "max": [
        0.4557453691959381,
        0.4557453393936157
      ],
      "min": [
        0.044254593551158905,
        0.04425458610057831
      ],
      "type": "VEC2"
    },
    {
      "bufferView": 0,
      "byteOffset": 23400,
      "componentType": 5125,
      "count": 72,
      "type": "SCALAR"
    },
    {
      "bufferView": 2,
      "byteOffset": 90792,
      "componentType": 5126,
      "count": 12,
      "max": [
        -2.292064666748047,
        0.7339821457862854,
        0.6763771772384644
      ],
      "min": [
        -3.2342581748962402,
        -0.20821139216423035,
        0.6763771772384644
      ],
      "type": "VEC3"
    },
    {
      "bufferView": 2,
      "byteOffset": 90936,
      "componentType": 5126,
      "count": 12,
      "max": [
        -2.238095575535226e-08,
        0.0,
        1.0
      ],
      "min": [
        -2.238095575535226e-08,
        0.0,
        1.0
      ],
      "type": "VEC3"
    },
    {
      "bufferView": 1,
      "byteOffset": 30264,
      "componentType": 5126,
      "count": 12,
      "max": [
        0.4557453691959381,
        0.4557453393936157
      ],
      "min": [
        0.044254593551158905,
        0.04425458610057831
      ],
      "type": "VEC2"
    },
    {
      "bufferView": 0,
      "byteOffset": 23688,
      "componentType": 5125,
      "count": 30,
      "type": "SCALAR"
    },
    {
      "bufferView": 2,
      "byteOffset": 91080,
      "componentType": 5126,
      "count": 60,
      "max": [
        0.621037483215332,
        5.414649963378906,
        5.430004119873047
      ],
      "min": [
        -5.7447967529296875,
        -4.123351097106934,
        0.004999041557312012
      ],
      "type": "VEC3"
    },
    {
      "bufferView": 2,
      "byteOffset": 91800,
      "componentType": 5126,
      "count": 60,
      "max": [
        1.0,
        1.0,
        1.0
      ],
      "min": [
        -1.0,
        -1.0,
        -1.0
      ],
      "type": "VEC3"
    },
    {
      "bufferView": 1,
      "byteOffset": 30360,
      "componentType": 5126,
      "count": 60,
      "max": [
        0.875,
        1.0
      ],
      "min": [
        0.125,
        0.0
      ],
      "type": "VEC2"
    },
    {
      "bufferView": 0,
      "byteOffset": 23808,
      "componentType": 5125,
      "count": 108,
      "type": "SCALAR"
    },
    {
      "bufferView": 2,
      "byteOffset": 92520,
      "componentType": 5126,
      "count": 960,
      "max": [
        1.6025123596191406,
        5.540869235992432,
        6.18729305267334
      ],
      "min": [
        -6.867395877838135,
        -4.328428268432617,
        -0.0231647789478302
      ],
      "type": "VEC3"
    },
    {
      "bufferView": 2,
      "byteOffset": 104040,
      "componentType": 5126,
      "count": 960,
      "max": [
        1.0,
        1.0,
        1.0
      ],
      "min": [
        -1.0,
        -1.0,
        -1.0
      ],
      "type": "VEC3"
    },
    {
      "bufferView": 1,
      "byteOffset": 30840,
      "componentType": 5126,
      "count": 960,
      "max": [
        0.875,
        1.0
      ],
      "min": [
        0.125,
        0.0
      ],
      "type": "VEC2"
    },
    {
      "bufferView": 0,
      "byteOffset": 24240,
      "componentType": 5125,
      "count": 1440,
      "type": "SCALAR"
    },
    {
      "bufferView": 2,
      "byteOffset": 115560,
      "componentType": 5126,
      "count": 72,
      "max": [
        3.263794422149658,
        2.678861618041992,
        0.9351582527160645
      ],
      "min": [
        -3.2637939453125,
        -2.777280330657959,
        -0.7577342987060547
      ],
      "type": "VEC3"
    },
    {
      "bufferView": 2,
      "byteOffset": 116424,
      "componentType": 5126,
      "count": 72,
      "max": [
        1.0,
        0.9597328901290894,
        0.9863458275794983
      ],
      "min": [
        -1.0,
        -0.9597262144088745,
        -0.9863641858100891
      ],
      "type": "VEC3"
    },
    {
      "bufferView": 1,
      "byteOffset": 38520,
      "componentType": 5126,
      "count": 72,
      "max": [
        0.875,
        1.0
      ],
      "min": [
        0.125,
        0.0
      ],
      "type": "VEC2"
    },
    {
      "bufferView": 0,
      "byteOffset": 30000,
      "componentType": 5125,
      "count": 108,
      "type": "SCALAR"
    },
    {
      "bufferView": 2,
      "byteOffset": 117288,
      "componentType": 5126,
      "count": 7296,
      "max": [
        1.1617159843444824,
        0.6674935817718506,
        6.0688862800598145
      ],
      "min": [
        -6.412320137023926,
        -5.3506035804748535,
        3.925544261932373
      ],
      "type": "VEC3"
    },
    {
      "bufferView": 2,
      "byteOffset": 204840,
      "componentType": 5126,
      "count": 7296,
      "max": [
        0.999464750289917,
        0.9997752904891968,
        0.9998432397842407
      ],
      "min": [
        -0.999464750289917,
        -0.9999123215675354,
        -0.9998432397842407
      ],
      "type": "VEC3"
    },
    {
      "bufferView": 1,
      "byteOffset": 39096,
      "componentType": 5126,
      "count": 7296,
      "max": [
        0.875,
        1.0
      ],
      "min": [
        0.125,
        0.0
      ],
      "type": "VEC2"
    },
    {
      "bufferView": 0,
      "byteOffset": 30432,
      "componentType": 5125,
      "count": 10944,
      "type": "SCALAR"
    },
    {
      "bufferView": 2,
      "byteOffset": 292392,
      "componentType": 5126,
      "count": 768,
      "max": [
        1.170433759689331,
        0.6444320678710938,
        5.924735069274902
      ],
      "min": [
        -5.467587471008301,
        -4.523606300354004,
        4.167688846588135
      ],
      "type": "VEC3"
    },
    {
      "bufferView": 2,
      "byteOffset": 301608,
      "componentType": 5126,
      "count": 768,
      "max": [
        0.9994602799415588,
        0.996525764465332,
        0.9977413415908813
      ],
      "min": [
        -0.9994603395462036,
        -0.9965443015098572,
        -0.9977240562438965
      ],
      "type": "VEC3"
    },
    {
      "bufferView": 1,
      "byteOffset": 97464,
      "componentType": 5126,
      "count": 768,
      "max": [
        0.875,
        1.0
      ],
      "min": [
        0.125,
        0.0
      ],
      "type": "VEC2"
    },
    {
      "bufferView": 0,
      "byteOffset": 74208,
      "componentType": 5125,
      "count": 1152,
      "type": "SCALAR"
    },
    {
      "bufferView": 2,
      "byteOffset": 310824,
      "componentType": 5126,
      "count": 1152,
      "max": [
        1.1087024211883545,
        0.7171099185943604,
        6.0699992179870605
      ],
      "min": [
        -6.420397758483887,
        -5.330883026123047,
        3.8230104446411133
      ],
      "type": "VEC3"
    },
    {
      "bufferView": 2,
      "byteOffset": 324648,
      "componentType": 5126,
      "count": 1152,
      "max": [
        0.9997233748435974,
        0.9891707301139832,
        0.9999216198921204
      ],
      "min": [
        -0.9996997714042664,
        -0.9891190528869629,
        -0.9999188184738159
      ],
      "type": "VEC3"
    },
    {
      "bufferView": 1,
      "byteOffset": 103608,
      "componentType": 5126,
      "count": 1152,
      "max": [
        0.875,
        1.0
      ],
      "min": [
        0.125,
        0.0
      ],
      "type": "VEC2"
    },
    {
      "bufferView": 0,
      "byteOffset": 78816,
      "componentType": 5125,
      "count": 1728,
      "type": "SCALAR"
    },
    {
      "bufferView": 2,
      "byteOffset": 338472,
      "componentType": 5126,
      "count": 72,
      "max": [
        0.6130976676940918,
        0.5915849208831787,
        5.548903465270996
      ],
      "min": [
        -5.914497375488281,
        -4.864563941955566,
        3.856010913848877
      ],
      "type": "VEC3"
    },
    {
      "bufferView": 2,
      "byteOffset": 339336,
      "componentType": 5126,
      "count": 72,
      "max": [
        1.0,
        0.9597354531288147,
        0.9804771542549133
      ],
      "min": [
        -1.0,
        -0.9597328901290894,
        -0.9805018305778503
      ],
      "type": "VEC3"
    },
    {
      "bufferView": 1,
      "byteOffset": 112824,
      "componentType": 5126,
      "count": 72,
      "max": [
        0.875,
        1.0
      ],
      "min": [
        0.125,
        0.0
      ],
      "type": "VEC2"
    },
    {
      "bufferView": 0,
      "byteOffset": 85728,
      "componentType": 5125,
      "count": 108,
      "type": "SCALAR"
    },
    {
      "bufferView": 2,
      "byteOffset": 340200,
      "componentType": 5126,
      "count": 6968,
      "max": [
        1.186852216720581,
        6.392788887023926,
        5.975947856903076
      ],
      "min": [
        -6.365020751953125,
        0.2360701560974121,
        3.9664206504821777
      ],
      "type": "VEC3"
    },
    {
      "bufferView": 2,
      "byteOffset": 423816,
      "componentType": 5126,
      "count": 6968,
      "max": [
        0.9998785257339478,
        0.9997814297676086,
        0.9999244213104248
      ],
      "min": [
        -0.9998785257339478,
        -0.999691903591156,
        -0.9999242424964905
      ],
      "type": "VEC3"
    },
    {
      "bufferView": 1,
      "byteOffset": 113400,
      "componentType": 5126,
      "count": 6968,
      "max": [
        0.875,
        1.0
      ],
      "min": [
        0.125,
        0.0
      ],
      "type": "VEC2"
    },
    {
      "bufferView": 0,
      "byteOffset": 86160,
      "componentType": 5125,
      "count": 10452,
      "type": "SCALAR"
    },
    {
      "bufferView": 2,
      "byteOffset": 507432,
      "componentType": 5126,
      "count": 768,
      "max": [
        1.1343951225280762,
        5.56655216217041,
        5.85590934753418
      ],
      "min": [
        -5.441381454467773,
        0.3059070110321045,
        4.141907215118408
      ],
      "type": "VEC3"
    },
    {
      "bufferView": 2,
      "byteOffset": 516648,
      "componentType": 5126,
      "count": 768,
      "max": [
        0.9995757937431335,
        0.9985081553459167,
        0.9992581605911255
      ],
      "min": [
        -0.9995757937431335,
        -0.9984992146492004,
        -0.9992582201957703
      ],
      "type": "VEC3"
    },
    {
      "bufferView": 1,
      "byteOffset": 169144,
      "componentType": 5126,
      "count": 768,
      "max": [
        0.875,
        1.0
      ],
      "min": [
        0.125,
        0.0
      ],
      "type": "VEC2"
    },
    {
      "bufferView": 0,
      "byteOffset": 127968,
      "componentType": 5125,
      "count": 1152,
      "type": "SCALAR"
    },
    {
      "bufferView": 2,
      "byteOffset": 525864,
      "componentType": 5126,
      "count": 1152,
      "max": [
        1.13405179977417,
        6.261162757873535,
        5.98496150970459
      ],
      "min": [
        -6.384379863739014,
        0.46959495544433594,
        3.8485445976257324
      ],
      "type": "VEC3"
    },
    {
      "bufferView": 2,
      "byteOffset": 539688,
      "componentType": 5126,
      "count": 1152,
      "max": [
        0.9998840093612671,
        0.9947181344032288,
        0.9994615316390991
      ],
      "min": [
        -0.9998841285705566,
        -0.9922405481338501,
        -0.9994400143623352
      ],
      "type": "VEC3"
    },
    {
      "bufferView": 1,
      "byteOffset": 175288,
      "componentType": 5126,
      "count": 1152,
      "max": [
        0.875,
        1.0
      ],
      "min": [
        0.125,
        0.0
      ],
      "type": "VEC2"
    },
    {
      "bufferView": 0,
      "byteOffset": 132576,
      "componentType": 5125,
      "count": 1728,
      "type": "SCALAR"
    },
    {
      "bufferView": 2,
      "byteOffset": 553512,
      "componentType": 5126,
      "count": 1578,
      "max": [
        0.7275965809822083,
        4.754472732543945,
        1.415862798690796
      ],
      "min": [
        -0.0849008560180664,
        3.7315053939819336,
        0.8058874607086182
      ],
      "type": "VEC3"
    },
    {
      "bufferView": 2,
      "byteOffset": 572448,
      "componentType": 5126,
      "count": 1578,
      "max": [
        0.9992653131484985,
        0.9992651343345642,
        1.0
      ],
      "min": [
        -0.9992652535438538,
        -0.9992651343345642,
        -1.0
      ],
      "type": "VEC3"
    },
    {
      "bufferView": 1,
      "byteOffset": 184504,
      "componentType": 5126,
      "count": 1578,
      "max": [
        0.8750000596046448,
        1.0
      ],
      "min": [
        3.360293703735806e-05,
        0.0
      ],
      "type": "VEC2"
    },
    {
      "bufferView": 0,
      "byteOffset": 139488,
      "componentType": 5125,
      "count": 2472,
      "type": "SCALAR"
    },
    {
      "bufferView": 2,
      "byteOffset": 591384,
      "componentType": 5126,
      "count": 252,
      "max": [
        0.8553436398506165,
        4.768318176269531,
        0.8176363706588745
      ],
      "min": [
        -0.19679248332977295,
        3.6973328590393066,
        -0.11800822615623474
      ],
      "type": "VEC3"
    },
    {
      "bufferView": 2,
      "byteOffset": 594408,
      "componentType": 5126,
      "count": 252,
      "max": [
        0.9901825189590454,
        0.9952281713485718,
        0.9999500513076782
      ],
      "min": [
        -0.9941884875297546,
        -0.9864009618759155,
        -1.0
      ],
      "type": "VEC3"
    },
    {
      "bufferView": 1,
      "byteOffset": 197128,
      "componentType": 5126,
      "count": 252,
      "max": [
        1.0,
        1.0
      ],
      "min": [
        7.450580596923828e-08,
        0.01000000536441803
      ],
      "type": "VEC2"
    },
    {
      "bufferView": 0,
      "byteOffset": 149376,
      "componentType": 5125,
      "count": 390,
      "type": "SCALAR"
    },
    {
      "bufferView": 2,
      "byteOffset": 597432,
      "componentType": 5126,
      "count": 12,
      "max": [
        0.7421355247497559,
        4.652924537658691,
        0.8176363706588745
      ],
      "min": [
        -0.08427634835243225,
        3.8268418312072754,
        0.8115119934082031
      ],
      "type": "VEC3"
    },
    {
      "bufferView": 2,
      "byteOffset": 597576,
      "componentType": 5126,
      "count": 12,
      "max": [
        -0.0008392664021812379,
        0.003595795249566436,
        0.9999932050704956
      ],
      "min": [
        -0.0008392664021812379,
        0.003595795249566436,
        0.9999932050704956
      ],
      "type": "VEC3"
    },
    {
      "bufferView": 1,
      "byteOffset": 199144,
      "componentType": 5126,
      "count": 12,
      "max": [
        0.464313268661499,
        0.464313268661499
      ],
      "min": [
        0.035686783492565155,
        0.035686787217855453
      ],
      "type": "VEC2"
    },
    {
      "bufferView": 0,
      "byteOffset": 150936,
      "componentType": 5125,
      "count": 30,
      "type": "SCALAR"
    },
    {
      "bufferView": 2,
      "byteOffset": 597720,
      "componentType": 5126,
      "count": 66,
      "max": [
        0.40780413150787354,
        4.4066481590271,
        1.4795066118240356
      ],
      "min": [
        0.25137385725975037,
        4.311313152313232,
        1.4090546369552612
      ],
      "type": "VEC3"
    },
    {
      "bufferView": 2,
      "byteOffset": 598512,
      "componentType": 5126,
      "count": 66,
      "max": [
        0.9455844163894653,
        0.9701316356658936,
        0.9965001344680786
      ],
      "min": [
        -0.9455842971801758,
        -0.9873238205909729,
        -0.9965001344680786
      ],
      "type": "VEC3"
    },
    {
      "bufferView": 1,
      "byteOffset": 199240,
      "componentType": 5126,
      "count": 66,
      "max": [
        0.875,
        1.0
      ],
      "min": [
        0.14650839567184448,
        0.0
      ],
      "type": "VEC2"
    },
    {
      "bufferView": 0,
      "byteOffset": 151056,
      "componentType": 5125,
      "count": 102,
      "type": "SCALAR"
    },
    {
      "bufferView": 2,
      "byteOffset": 599304,
      "componentType": 5126,
      "count": 24,
      "max": [
        0.35616186261177063,
        4.408496856689453,
        1.4617855548858643
      ],
      "min": [
        0.2078751176595688,
        4.065521717071533,
        1.4068087339401245
      ],
      "type": "VEC3"
    },
    {
      "bufferView": 2,
      "byteOffset": 599592,
      "componentType": 5126,
      "count": 24,
      "max": [
        0.9455842971801758,
        0.9422741532325745,
        0.9964999556541443
      ],
      "min": [
        -0.9455843567848206,
        -0.9422746896743774,
        -0.9964999556541443
      ],
      "type": "VEC3"
    },
    {
      "bufferView": 1,
      "byteOffset": 199768,
      "componentType": 5126,
      "count": 24,
      "max": [
        0.875,
        1.0
      ],
      "min": [
        0.125,
        0.0
      ],
      "type": "VEC2"
    },
    {
      "bufferView": 0,
      "byteOffset": 151464,
      "componentType": 5125,
      "count": 36,
      "type": "SCALAR"
    },
    {
      "bufferView": 2,
      "byteOffset": 599880,
      "componentType": 5126,
      "count": 424,
      "max": [
        1.2767362594604492,
        -1.9437848329544067,
        1.506500005722046
      ],
      "min": [
        -0.37135666608810425,
        -3.302278518676758,
        -0.028610944747924805
      ],
      "type": "VEC3"
    },
    {
      "bufferView": 2,
      "byteOffset": 604968,
      "componentType": 5126,
      "count": 424,
      "max": [
        0.9819586277008057,
        0.9819589853286743,
        1.0
      ],
      "min": [
        -0.9819588661193848,
        -0.98195880651474,
        -1.0
      ],
      "type": "VEC3"
    },
    {
      "bufferView": 1,
      "byteOffset": 199960,
      "componentType": 5126,
      "count": 424,
      "max": [
        0.875,
        1.0
      ],
      "min": [
        0.125,
        0.0
      ],
      "type": "VEC2"
    },
    {
      "bufferView": 0,
      "byteOffset": 151608,
      "componentType": 5125,
      "count": 612,
      "type": "SCALAR"
    },
    {
      "bufferView": 2,
      "byteOffset": 610056,
      "componentType": 5126,
      "count": 448,
      "max": [
        0.9772464036941528,
        -2.232926607131958,
        1.766449213027954
      ],
      "min": [
        -0.02563565969467163,
        -3.004390239715576,
        0.6759325265884399
      ],
      "type": "VEC3"
    },
    {
      "bufferView": 2,
      "byteOffset": 615432,
      "componentType": 5126,
      "count": 448,
      "max": [
        0.9791378378868103,
        0.9800493121147156,
        0.9951848387718201
      ],
      "min": [
        -0.9791381359100342,
        -0.9800485372543335,
        -0.9951847195625305
      ],
      "type": "VEC3"
    },
    {
      "bufferView": 1,
      "byteOffset": 203352,
      "componentType": 5126,
      "count": 448,
      "max": [
        1.0,
        1.0
      ],
      "min": [
        0.0,
        0.02051079086959362
      ],
      "type": "VEC2"
    },
    {
      "bufferView": 0,
      "byteOffset": 154056,
      "componentType": 5125,
      "count": 756,
      "type": "SCALAR"
    },
    {
      "bufferView": 2,
      "byteOffset": 620808,
      "componentType": 5126,
      "count": 1504,
      "max": [
        1.2052018642425537,
        -2.0268807411193848,
        1.4747331142425537
      ],
      "min": [
        -0.22302478551864624,
        -3.2282328605651855,
        0.5696711540222168
      ],
      "type": "VEC3"
    },
    {
      "bufferView": 2,
      "byteOffset": 638856,
      "componentType": 5126,
      "count": 1504,
      "max": [
        0.8280634880065918,
        0.8280651569366455,
        1.0
      ],
      "min": [
        -0.8535958528518677,
        -0.8280647993087769,
        -1.0
      ],
      "type": "VEC3"
    },
    {
      "bufferView": 1,
      "byteOffset": 206936,
      "componentType": 5126,
      "count": 1504,
      "max": [
        1.0,
        1.0
      ],
      "min": [
        0.0,
        0.0
      ],
      "type": "VEC2"
    },
    {
      "bufferView": 0,
      "byteOffset": 157080,
      "componentType": 5125,
      "count": 2424,
      "type": "SCALAR"
    },
    {
      "bufferView": 2,
      "byteOffset": 656904,
      "componentType": 5126,
      "count": 192,
      "max": [
        9.91833782196045,
        12.5,
        0.009444266557693481
      ],
      "min": [
        -15.08166217803955,
        -12.5,
        -0.2905557453632355
      ],
      "type": "VEC3"
    },
    {
      "bufferView": 2,
      "byteOffset": 659208,
      "componentType": 5126,
      "count": 192,
      "max": [
        0.9951847195625305,
        0.9951847195625305,
        1.0
      ],
      "min": [
        -0.9951847791671753,
        -0.9951847791671753,
        -1.0
      ],
      "type": "VEC3"
    },
    {
      "bufferView": 1,
      "byteOffset": 218968,
      "componentType": 5126,
      "count": 192,
      "max": [
        1.0,
        1.0
      ],
      "min": [
        0.0,
        0.01000000536441803
      ],
      "type": "VEC2"
    },
    {
      "bufferView": 0,
      "byteOffset": 166776,
      "componentType": 5125,
      "count": 372,
      "type": "SCALAR"
    },
    {
      "bufferView": 2,
      "byteOffset": 661512,
      "componentType": 5126,
      "count": 60,
      "max": [
        0.5952075719833374,
        -8.684331893920898,
        0.5501258373260498
      ],
      "min": [
        -0.1322961151599884,
        -9.45715618133545,
        -0.23077628016471863
      ],
      "type": "VEC3"
    },
    {
      "bufferView": 2,
      "byteOffset": 662232,
      "componentType": 5126,
      "count": 60,
      "max": [
        0.9308409094810486,
        0.8517459034919739,
        0.8522939085960388
      ],
      "min": [
        -0.9251378774642944,
        -0.9856140613555908,
        -0.8194403648376465
      ],
      "type": "VEC3"
    },
    {
      "bufferView": 1,
      "byteOffset": 220504,
      "componentType": 5126,
      "count": 60,
      "max": [
        1.0,
        0.47238200902938843
      ],
      "min": [
        0.0,
        0.0
      ],
      "type": "VEC2"
    },
    {
      "bufferView": 0,
      "byteOffset": 168264,
      "componentType": 5125,
      "count": 60,
      "type": "SCALAR"
    },
    {
      "bufferView": 2,
      "byteOffset": 662952,
      "componentType": 5126,
      "count": 800,
      "max": [
        6.103787422180176,
        -4.8075079917907715,
        1.2029204368591309
      ],
      "min": [
        4.912705898284912,
        -6.031169414520264,
        -0.29150375723838806
      ],
      "type": "VEC3"
    },
    {
      "bufferView": 2,
      "byteOffset": 672552,
      "componentType": 5126,
      "count": 800,
      "max": [
        0.9999760389328003,
        0.9945637583732605,
        0.4893462359905243
      ],
      "min": [
        -0.9999760389328003,
        -0.9945637583732605,
        -0.4893462359905243
      ],
      "type": "VEC3"
    },
    {
      "bufferView": 1,
      "byteOffset": 220984,
      "componentType": 5126,
      "count": 800,
      "max": [
        1.0,
        1.0
      ],
      "min": [
        0.0,
        0.0
      ],
      "type": "VEC2"
    },
    {
      "bufferView": 0,
      "byteOffset": 168504,
      "componentType": 5125,
      "count": 1200,
      "type": "SCALAR"
    },
    {
      "bufferView": 2,
      "byteOffset": 682152,
      "componentType": 5126,
      "count": 800,
      "max": [
        -3.6704602241516113,
        -9.950148582458496,
        0.7811087369918823
      ],
      "min": [
        -4.411756992340088,
        -10.743484497070313,
        -0.17628243565559387
      ],
      "type": "VEC3"
    },
    {
      "bufferView": 2,
      "byteOffset": 691752,
      "componentType": 5126,
      "count": 800,
      "max": [
        0.9946611523628235,
        0.9984311461448669,
        0.48926493525505066
      ],
      "min": [
        -0.9946607351303101,
        -0.9984313249588013,
        -0.489296555519104
      ],
      "type": "VEC3"
    },
    {
      "bufferView": 1,
      "byteOffset": 227384,
      "componentType": 5126,
      "count": 800,
      "max": [
        1.0,
        1.0
      ],
      "min": [
        0.0,
        0.0
      ],
      "type": "VEC2"
    },
    {
      "bufferView": 0,
      "byteOffset": 173304,
      "componentType": 5125,
      "count": 1200,
      "type": "SCALAR"
    },
    {
      "bufferView": 2,
      "byteOffset": 701352,
      "componentType": 5126,
      "count": 60,
      "max": [
        2.3639256954193115,
        10.630776405334473,
        1.1274694204330444
      ],
      "min": [
        0.7726286053657532,
        9.146998405456543,
        -0.019246608018875122
      ],
      "type": "VEC3"
    },
    {
      "bufferView": 2,
      "byteOffset": 702072,
      "componentType": 5126,
      "count": 60,
      "max": [
        0.812959611415863,
        0.98983234167099,
        0.8122144937515259
      ],
      "min": [
        -0.9850921034812927,
        -0.8416679501533508,
        -0.9991624355316162
      ],
      "type": "VEC3"
    },
    {
      "bufferView": 1,
      "byteOffset": 233784,
      "componentType": 5126,
      "count": 60,
      "max": [
        1.0,
        0.47238200902938843
      ],
      "min": [
        0.0,
        0.0
      ],
      "type": "VEC2"
    },
    {
      "bufferView": 0,
      "byteOffset": 178104,
      "componentType": 5125,
      "count": 60,
      "type": "SCALAR"
    },
    {
      "bufferView": 2,
      "byteOffset": 702792,
      "componentType": 5126,
      "count": 60,
      "max": [
        2.661672592163086,
        9.671672821044922,
        0.2982298731803894
      ],
      "min": [
        2.0438551902770996,
        9.151285171508789,
        -0.01009446382522583
      ],
      "type": "VEC3"
    },
    {
      "bufferView": 2,
      "byteOffset": 703512,
      "componentType": 5126,
      "count": 60,
      "max": [
        0.7521875500679016,
        0.943835437297821,
        0.990222156047821
      ],
      "min": [
        -0.9714600443840027,
        -0.7908926606178284,
        -0.9997267127037048
      ],
      "type": "VEC3"
    },
    {
      "bufferView": 1,
      "byteOffset": 234264,
      "componentType": 5126,
      "count": 60,
      "max": [
        1.0,
        0.47238200902938843
      ],
      "min": [
        0.0,
        0.0
      ],
      "type": "VEC2"
    },
    {
      "bufferView": 0,
      "byteOffset": 178344,
      "componentType": 5125,
      "count": 60,
      "type": "SCALAR"
    },
    {
      "bufferView": 2,
      "byteOffset": 704232,
      "componentType": 5126,
      "count": 800,
      "max": [
        -5.122895240783691,
        10.283149719238281,
        0.7811086773872375
      ],
      "min": [
        -5.7747673988342285,
        9.551596641540527,
        -0.17628240585327148
      ],
      "type": "VEC3"
    },
    {
      "bufferView": 2,
      "byteOffset": 713832,
      "componentType": 5126,
      "count": 800,
      "max": [
        0.9772928953170776,
        0.9566910266876221,
        0.4893682599067688
      ],
      "min": [
        -0.9772930145263672,
        -0.9566879272460938,
        -0.4893816411495209
      ],
      "type": "VEC3"
    },
    {
      "bufferView": 1,
      "byteOffset": 234744,
      "componentType": 5126,
      "count": 800,
      "max": [
        1.0,
        1.0
      ],
      "min": [
        0.0,
        0.0
      ],
      "type": "VEC2"
    },
    {
      "bufferView": 0,
      "byteOffset": 178584,
      "componentType": 5125,
      "count": 1200,
      "type": "SCALAR"
    },
    {
      "bufferView": 2,
      "byteOffset": 723432,
      "componentType": 5126,
      "count": 800,
      "max": [
        -11.138409614562988,
        6.400590896606445,
        0.7811084985733032
      ],
      "min": [
        -11.868197441101074,
        5.607656002044678,
        -0.17628267407417297
      ],
      "type": "VEC3"
    },
    {
      "bufferView": 2,
      "byteOffset": 733032,
      "componentType": 5126,
      "count": 800,
      "max": [
        0.9892492890357971,
        0.998163640499115,
        0.48946064710617065
      ],
      "min": [
        -0.9892504811286926,
        -0.9981638789176941,
        -0.48946064710617065
      ],
      "type": "VEC3"
    },
    {
      "bufferView": 1,
      "byteOffset": 241144,
      "componentType": 5126,
      "count": 800,
      "max": [
        1.0,
        1.0
      ],
      "min": [
        0.0,
        0.0
      ],
      "type": "VEC2"
    },
    {
      "bufferView": 0,
      "byteOffset": 183384,
      "componentType": 5125,
      "count": 1200,
      "type": "SCALAR"
    },
    {
      "bufferView": 2,
      "byteOffset": 742632,
      "componentType": 5126,
      "count": 4156,
      "max": [
        -2.6761579513549805,
        4.045879364013672,
        6.942187309265137
      ],
      "min": [
        -4.4707136154174805,
        1.239993691444397,
        1.0339454412460327
      ],
      "type": "VEC3"
    },
    {
      "bufferView": 2,
      "byteOffset": 792504,
      "componentType": 5126,
      "count": 4156,
      "max": [
        1.0,
        1.0,
        1.0
      ],
      "min": [
        -1.0,
        -1.0,
        -1.0
      ],
      "type": "VEC3"
    },
    {
      "bufferView": 1,
      "byteOffset": 247544,
      "componentType": 5126,
      "count": 4156,
      "max": [
        0.8750000596046448,
        1.0
      ],
      "min": [
        0.125,
        0.0
      ],
      "type": "VEC2"
    },
    {
      "bufferView": 0,
      "byteOffset": 188184,
      "componentType": 5125,
      "count": 6240,
      "type": "SCALAR"
    },
    {
      "bufferView": 2,
      "byteOffset": 842376,
      "componentType": 5126,
      "count": 364,
      "max": [
        -2.6773769855499268,
        4.045879364013672,
        6.609662055969238
      ],
      "min": [
        -4.3283371925354,
        1.239993691444397,
        1.0339454412460327
      ],
      "type": "VEC3"
    },
    {
      "bufferView": 2,
      "byteOffset": 846744,
      "componentType": 5126,
      "count": 364,
      "max": [
        1.0,
        1.0,
        1.0
      ],
      "min": [
        -1.0,
        -1.0,
        -1.0
      ],
      "type": "VEC3"
    },
    {
      "bufferView": 1,
      "byteOffset": 280792,
      "componentType": 5126,
      "count": 364,
      "max": [
        0.875,
        1.0
      ],
      "min": [
        0.125,
        0.0
      ],
      "type": "VEC2"
    },
    {
      "bufferView": 0,
      "byteOffset": 213144,
      "componentType": 5125,
      "count": 546,
      "type": "SCALAR"
    },
    {
      "bufferView": 2,
      "byteOffset": 851112,
      "componentType": 5126,
      "count": 1032,
      "max": [
        -2.6835038661956787,
        4.045879364013672,
        6.937072277069092
      ],
      "min": [
        -4.481408596038818,
        1.2545472383499146,
        1.0343694686889648
      ],
      "type": "VEC3"
    },
    {
      "bufferView": 2,
      "byteOffset": 863496,
      "componentType": 5126,
      "count": 1032,
      "max": [
        1.0,
        1.0,
        1.0
      ],
      "min": [
        -1.0,
        -1.0,
        -1.0
      ],
      "type": "VEC3"
    },
    {
      "bufferView": 1,
      "byteOffset": 283704,
      "componentType": 5126,
      "count": 1032,
      "max": [
        0.875,
        1.0
      ],
      "min": [
        0.125,
        0.0
      ],
      "type": "VEC2"
    },
    {
      "bufferView": 0,
      "byteOffset": 215328,
      "componentType": 5125,
      "count": 1548,
      "type": "SCALAR"
    },
    {
      "bufferView": 2,
      "byteOffset": 875880,
      "componentType": 5126,
      "count": 182,
      "max": [
        -1.3350603580474854,
        4.1500139236450195,
        1.928823709487915
      ],
      "min": [
        -4.335060119628906,
        1.1500139236450195,
        0.013132095336914063
      ],
      "type": "VEC3"
    },
    {
      "bufferView": 2,
      "byteOffset": 878064,
      "componentType": 5126,
      "count": 182,
      "max": [
        1.0,
        1.0,
        1.0
      ],
      "min": [
        -1.0,
        -1.0,
        -1.0
      ],
      "type": "VEC3"
    },
    {
      "bufferView": 1,
      "byteOffset": 291960,
      "componentType": 5126,
      "count": 182,
      "max": [
        0.9900000095367432,
        1.0
      ],
      "min": [
        0.04654345661401749,
        0.0
      ],
      "type": "VEC2"
    },
    {
      "bufferView": 0,
      "byteOffset": 221520,
      "componentType": 5125,
      "count": 348,
      "type": "SCALAR"
    },
    {
      "bufferView": 2,
      "byteOffset": 880248,
      "componentType": 5126,
      "count": 256,
      "max": [
        -1.3350603580474854,
        3.7153048515319824,
        2.075151205062866
      ],
      "min": [
        -2.9340732097625732,
        1.5855969190597534,
        0.013132095336914063
      ],
      "type": "VEC3"
    },
    {
      "bufferView": 2,
      "byteOffset": 883320,
      "componentType": 5126,
      "count": 256,
      "max": [
        1.0,
        1.0,
        1.0
      ],
      "min": [
        0.0,
        -1.0,
        -1.0
      ],
      "type": "VEC3"
    },
    {
      "bufferView": 1,
      "byteOffset": 293416,
      "componentType": 5126,
      "count": 256,
      "max": [
        0.875,
        1.0
      ],
      "min": [
        0.125,
        0.0
      ],
      "type": "VEC2"
    },
    {
      "bufferView": 0,
      "byteOffset": 222912,
      "componentType": 5125,
      "count": 384,
      "type": "SCALAR"
    },
    {
      "bufferView": 2,
      "byteOffset": 886392,
      "componentType": 5126,
      "count": 4,
      "max": [
        -2.6966819763183594,
        3.4040637016296387,
        1.013132095336914
      ],
      "min": [
        -4.335060119628906,
        1.8734405040740967,
        1.013132095336914
      ],
      "type": "VEC3"
    },
    {
      "bufferView": 2,
      "byteOffset": 886440,
      "componentType": 5126,
      "count": 4,
      "max": [
        0.0,
        0.0,
        1.0
      ],
      "min": [
        0.0,
        0.0,
        1.0
      ],
      "type": "VEC3"
    },
    {
      "bufferView": 1,
      "byteOffset": 295464,
      "componentType": 5126,
      "count": 4,
      "max": [
        0.875,
        0.6897144913673401
      ],
      "min": [
        0.7384684085845947,
        0.6078985333442688
      ],
      "type": "VEC2"
    },
    {
      "bufferView": 0,
      "byteOffset": 224448,
      "componentType": 5125,
      "count": 6,
      "type": "SCALAR"
    },
    {
      "bufferView": 2,
      "byteOffset": 886488,
      "componentType": 5126,
      "count": 84,
      "max": [
        -2.72004771232605,
        4.002754211425781,
        6.838122844696045
      ],
      "min": [
        -4.296294689178467,
        1.2910373210906982,
        0.6477646827697754
      ],
      "type": "VEC3"
    },
    {
      "bufferView": 2,
      "byteOffset": 887496,
      "componentType": 5126,
      "count": 84,
      "max": [
        1.0,
        1.0,
        1.0
      ],
      "min": [
        -1.0,
        -1.0,
        -1.0
      ],
      "type": "VEC3"
    },
    {
      "bufferView": 1,
      "byteOffset": 295496,
      "componentType": 5126,
      "count": 84,
      "max": [
        0.875,
        1.0
      ],
      "min": [
        0.125,
        0.0
      ],
      "type": "VEC2"
    },
    {
      "bufferView": 0,
      "byteOffset": 224472,
      "componentType": 5125,
      "count": 144,
      "type": "SCALAR"
    },
    {
      "bufferView": 2,
      "byteOffset": 888504,
      "componentType": 5126,
      "count": 1280,
      "max": [
        -1.4904505014419556,
        2.762904167175293,
        0.43296653032302856
      ],
      "min": [
        -2.0950117111206055,
        2.1583428382873535,
        0.07146255671977997
      ],
      "type": "VEC3"
    },
    {
      "bufferView": 2,
      "byteOffset": 903864,
      "componentType": 5126,
      "count": 1280,
      "max": [
        0.9951848387718201,
        0.9951848387718201,
        0.9977462291717529
      ],
      "min": [
        -0.9951848387718201,
        -0.9951848387718201,
        -0.9977462291717529
      ],
      "type": "VEC3"
    },
    {
      "bufferView": 1,
      "byteOffset": 296168,
      "componentType": 5126,
      "count": 1280,
      "max": [
        1.0,
        0.9228518009185791
      ],
      "min": [
        0.0,
        0.7165353298187256
      ],
      "type": "VEC2"
    },
    {
      "bufferView": 0,
      "byteOffset": 225048,
      "componentType": 5125,
      "count": 1920,
      "type": "SCALAR"
    },
    {
      "bufferView": 2,
      "byteOffset": 919224,
      "componentType": 5126,
      "count": 198,
      "max": [
        -1.492798089981079,
        2.7542548179626465,
        0.5014485120773315
      ],
      "min": [
        -2.0858802795410156,
        2.16117262840271,
        0.005000084638595581
      ],
      "type": "VEC3"
    },
    {
      "bufferView": 2,
      "byteOffset": 921600,
      "componentType": 5126,
      "count": 198,
      "max": [
        0.9643987417221069,
        0.9643984436988831,
        1.0
      ],
      "min": [
        -0.9643985629081726,
        -0.9643986821174622,
        -1.0
      ],
      "type": "VEC3"
    },
    {
      "bufferView": 1,
      "byteOffset": 306408,
      "componentType": 5126,
      "count": 198,
      "max": [
        1.0,
        1.0
      ],
      "min": [
        7.450580596923828e-08,
        0.01000000536441803
      ],
      "type": "VEC2"
    },
    {
      "bufferView": 0,
      "byteOffset": 232728,
      "componentType": 5125,
      "count": 318,
      "type": "SCALAR"
    },
    {
      "bufferView": 2,
      "byteOffset": 923976,
      "componentType": 5126,
      "count": 60,
      "max": [
        -1.5346920490264893,
        2.7123606204986572,
        0.49282020330429077
      ],
      "min": [
        -2.0439860820770264,
        2.20306658744812,
        0.038526490330696106
      ],
      "type": "VEC3"
    },
    {
      "bufferView": 2,
      "byteOffset": 924696,
      "componentType": 5126,
      "count": 60,
      "max": [
        0.9659262895584106,
        0.9659258723258972,
        1.0
      ],
      "min": [
        -0.9659258723258972,
        -0.9659258723258972,
        0.0
      ],
      "type": "VEC3"
    },
    {
      "bufferView": 1,
      "byteOffset": 307992,
      "componentType": 5126,
      "count": 60,
      "max": [
        0.4557453691959381,
        0.4557453393936157
      ],
      "min": [
        0.044254593551158905,
        0.04425458610057831
      ],
      "type": "VEC2"
    },
    {
      "bufferView": 0,
      "byteOffset": 234000,
      "componentType": 5125,
      "count": 102,
      "type": "SCALAR"
    },
    {
      "bufferView": 2,
      "byteOffset": 925416,
      "componentType": 5126,
      "count": 420,
      "max": [
        -2.7210347652435303,
        3.000542163848877,
        1.1187995672225952
      ],
      "min": [
        -3.2046689987182617,
        2.2201128005981445,
        1.0033130645751953
      ],
      "type": "VEC3"
    },
    {
      "bufferView": 2,
      "byteOffset": 930456,
      "componentType": 5126,
      "count": 420,
      "max": [
        0.99946528673172,
        0.9770452380180359,
        0.9754388928413391
      ],
      "min": [
        -0.9304710626602173,
        -0.9888076186180115,
        -0.9969552159309387
      ],
      "type": "VEC3"
    },
    {
      "bufferView": 1,
      "byteOffset": 308472,
      "componentType": 5126,
      "count": 420,
      "max": [
        1.0,
        0.47238200902938843
      ],
      "min": [
        0.0,
        0.0
      ],
      "type": "VEC2"
    },
    {
      "bufferView": 0,
      "byteOffset": 234408,
      "componentType": 5125,
      "count": 420,
      "type": "SCALAR"
    },
    {
      "bufferView": 2,
      "byteOffset": 935496,
      "componentType": 5126,
      "count": 100,
      "max": [
        -4.35388708114624,
        -1.8892629146575928,
        1.0331387519836426
      ],
      "min": [
        -5.463855266571045,
        -3.523716926574707,
        -0.0027253031730651855
      ],
      "type": "VEC3"
    },
    {
      "bufferView": 2,
      "byteOffset": 936696,
      "componentType": 5126,
      "count": 100,
      "max": [
        0.9999372959136963,
        0.9986148476600647,
        1.0
      ],
      "min": [
        -0.9999468326568604,
        -0.9997006058692932,
        -1.0
      ],
      "type": "VEC3"
    },
    {
      "bufferView": 1,
      "byteOffset": 311832,
      "componentType": 5126,
      "count": 100,
      "max": [
        0.875,
        1.0
      ],
      "min": [
        0.125,
        0.0
      ],
      "type": "VEC2"
    },
    {
      "bufferView": 0,
      "byteOffset": 236088,
      "componentType": 5125,
      "count": 180,
      "type": "SCALAR"
    },
    {
      "bufferView": 2,
      "byteOffset": 937896,
      "componentType": 5126,
      "count": 72,
      "max": [
        -4.504724502563477,
        -2.0639126300811768,
        0.5257383584976196
      ],
      "min": [
        -5.533496856689453,
        -3.242889404296875,
        0.09890592098236084
      ],
      "type": "VEC3"
    },
    {
      "bufferView": 2,
      "byteOffset": 938760,
      "componentType": 5126,
      "count": 72,
      "max": [
        0.999538779258728,
        0.10218224674463272,
        0.11376859247684479
      ],
      "min": [
        -0.9998247623443604,
        -0.06513287872076035,
        -0.2060479372739792
      ],
      "type": "VEC3"
    },
    {
      "bufferView": 1,
      "byteOffset": 312632,
      "componentType": 5126,
      "count": 72,
      "max": [
        0.625,
        0.75
      ],
      "min": [
        0.375,
        0.0
      ],
      "type": "VEC2"
    },
    {
      "bufferView": 0,
      "byteOffset": 236808,
      "componentType": 5125,
      "count": 108,
      "type": "SCALAR"
    },
    {
      "bufferView": 2,
      "byteOffset": 939624,
      "componentType": 5126,
      "count": 144,
      "max": [
        -4.504724502563477,
        -2.0639126300811768,
        0.5257383584976196
      ],
      "min": [
        -5.533496856689453,
        -3.242889404296875,
        0.09890592098236084
      ],
      "type": "VEC3"
    },
    {
      "bufferView": 2,
      "byteOffset": 941352,
      "componentType": 5126,
      "count": 144,
      "max": [
        0.06048765778541565,
        0.9673060774803162,
        0.9999185800552368
      ],
      "min": [
        -0.05520904064178467,
        -0.9978564977645874,
        -0.9999983906745911
      ],
      "type": "VEC3"
    },
    {
      "bufferView": 1,
      "byteOffset": 313208,
      "componentType": 5126,
      "count": 144,
      "max": [
        0.875,
        1.0
      ],
      "min": [
        0.125,
        0.25
      ],
      "type": "VEC2"
    },
    {
      "bufferView": 0,
      "byteOffset": 237240,
      "componentType": 5125,
      "count": 216,
      "type": "SCALAR"
    }
  ],
  "asset": {
    "extras": {
      "author": "LumbertVOLT (https://sketchfab.com/LumbertVOLT)",
      "license": "CC-BY-4.0 (http://creativecommons.org/licenses/by/4.0/)",
      "source": "https://sketchfab.com/3d-models/low-poly-medieval-forge-2e2b434374e744cda3fddae92d4fe8ca",
      "title": "Low Poly Medieval Forge"
    },
    "generator": "Sketchfab-13.23.0",
    "version": "2.0"
  },
  "bufferViews": [
    {
      "buffer": 0,
      "byteLength": 238104,
      "name": "floatBufferViews",
      "target": 34963
    },
    {
      "buffer": 0,
      "byteLength": 314360,
      "byteOffset": 238104,
      "byteStride": 8,
      "name": "floatBufferViews",
      "target": 34962
    },
    {
      "buffer": 0,
      "byteLength": 943080,
      "byteOffset": 552464,
      "byteStride": 12,
      "name": "floatBufferViews",
      "target": 34962
    }
  ],
  "buffers": [
    {
      "byteLength": 1495544,
      "uri": "scene.bin"
    }
  ],
  "images": [
    {
      "uri": "textures/Ground_baseColor.png"
    }
  ],
  "materials": [
    {
      "doubleSided": true,
      "name": "Rock__0",
      "pbrMetallicRoughness": {
        "metallicFactor": 0.0,
        "roughnessFactor": 0.6
      }
    },
    {
      "doubleSided": true,
      "name": "Wood",
      "pbrMetallicRoughness": {
        "baseColorFactor": [
          0.222624,
          0.0394593,
          0.0,
          1.0
        ],
        "metallicFactor": 0.0,
        "roughnessFactor": 0.9880543137132403
      }
    },
    {
      "doubleSided": true,
      "name": "Stone_Light",
      "pbrMetallicRoughness": {
        "baseColorFactor": [
          0.50119,
          0.595841,
          0.479991,
          1.0
        ],
        "metallicFactor": 0.0,
        "roughnessFactor": 0.8731358274638917
      }
    },
    {
      "doubleSided": true,
      "name": "Blue",
      "pbrMetallicRoughness": {
        "baseColorFactor": [
          0.0952913,
          0.0901511,
          0.8,
          1.0
        ],
        "metallicFactor": 0.0,
        "roughnessFactor": 0.9681371500030764
      }
    },
    {
      "doubleSided": true,
      "name": "Brick_Light",
      "pbrMetallicRoughness": {
        "baseColorFactor": [
          0.625329,
          0.145792,
          0.0725186,
          1.0
        ],
        "metallicFactor": 0.0,
        "roughnessFactor": 0.9457862575825866
      }
    },
    {
      "doubleSided": true,
      "name": "Brick",
      "pbrMetallicRoughness": {
        "baseColorFactor": [
          0.8,
          0.0650424,
          0.0410036,
          1.0
        ],
        "metallicFactor": 0.0,
        "roughnessFactor": 0.9509051633024379
      }
    },
    {
      "doubleSided": true,
      "name": "Anvil",
      "pbrMetallicRoughness": {
        "baseColorFactor": [
          0.00515986,
          0.000500127,
          0.00191887,
          1.0
        ],
        "metallicFactor": 0.0,
        "roughnessFactor": 0.9996437452938749
      }
    },
    {
      "doubleSided": true,
      "name": "Wood_Light",
      "pbrMetallicRoughness": {
        "baseColorFactor": [
          0.444941,
          0.187924,
          0.0443592,
          1.0
        ],
        "metallicFactor": 0.0,
        "roughnessFactor": 0.9480784041503895
      }
    },
    {
      "doubleSided": true,
      "name": "Walls",
      "pbrMetallicRoughness": {
        "baseColorFactor": [
          1.0,
          0.473103,
          0.218302,
          1.0
        ],
        "metallicFactor": 0.0,
        "roughnessFactor": 0.8732765113353864
      }
    },
    {
      "doubleSided": true,
      "name": "Brick_Dark",
      "pbrMetallicRoughness": {
        "baseColorFactor": [
          0.264003,
          0.0593408,
          0.0309632,
          1.0
        ],
        "metallicFactor": 0.0,
        "roughnessFactor": 0.9774597369099863
      }
    },
    {
      "doubleSided": true,
      "name": "Metal",
      "pbrMetallicRoughness": {
        "baseColorFactor": [
          0.0995588,
          0.0995588,
          0.0995588,
          1.0
        ],
        "metallicFactor": 0.0,
        "roughnessFactor": 0.9777379755441694
      }
    },
    {
      "doubleSided": true,
      "name": "Ground",
      "pbrMetallicRoughness": {
        "baseColorTexture": {
          "index": 0
        },
        "metallicFactor": 0.0,
        "roughnessFactor": 0.8578514768788912
      }
    },
    {
      "doubleSided": true,
      "name": "Grass",
      "pbrMetallicRoughness": {
        "baseColorFactor": [
          0.114946,
          0.2019,
          0.060314,
          1.0
        ],
        "metallicFactor": 0.0,
        "roughnessFactor": 0.9612732993489649
      }
    },
    {
      "doubleSided": true,
      "name": "Furnace",
      "pbrMetallicRoughness": {
        "baseColorFactor": [
          0.0980804,
          0.0829925,
          0.0750326,
          1.0
        ],
        "metallicFactor": 0.0,
        "roughnessFactor": 0.9808535599942404
      }
    },
    {
      "doubleSided": true,
      "name": "Furnace_2",
      "pbrMetallicRoughness": {
        "baseColorFactor": [
          0.0435789,
          0.0435789,
          0.0435789,
          1.0
        ],
        "metallicFactor": 0.0,
        "roughnessFactor": 0.9902554617215334
      }
    },
    {
      "doubleSided": true,
      "name": "Brick_Tube",
      "pbrMetallicRoughness": {
        "baseColorFactor": [
          1.0,
          0.228442,
          0.112058,
          1.0
        ],
        "metallicFactor": 0.0,
        "roughnessFactor": 0.91411882155089
      }
    },
    {
      "doubleSided": true,
      "name": "Coal",
      "pbrMetallicRoughness": {
        "baseColorFactor": [
          0.0188186,
          0.0188186,
          0.0188186,
          1.0
        ],
        "metallicFactor": 0.0,
        "roughnessFactor": 0.9957920331158623
      }
    }
  ],
  "meshes": [
    {
      "name": "Shelf_Wood_0",
      "primitives": [
        {
          "attributes": {
            "NORMAL": 1,
            "POSITION": 0,
            "TEXCOORD_0": 2
          },
          "indices": 3,
          "material": 1,
          "mode": 4
        }
      ]
    },
    {
      "name": "Stone_Stone Light_0",
      "primitives": [
        {
          "attributes": {
            "NORMAL": 5,
            "POSITION": 4,
            "TEXCOORD_0": 6
          },
          "indices": 7,
          "material": 2,
          "mode": 4
        }
      ]
    },
    {
      "name": "Stone.001_Stone Light_0",
      "primitives": [
        {
          "attributes": {
            "NORMAL": 9,
            "POSITION": 8,
            "TEXCOORD_0": 10
          },
          "indices": 11,
          "material": 2,
          "mode": 4
        }
      ]
    },
    {
      "name": "Bottle_Blue_0",
      "primitives": [
        {
          "attributes": {
            "NORMAL": 13,
            "POSITION": 12,
            "TEXCOORD_0": 14
          },
          "indices": 15,
          "material": 3,
          "mode": 4
        }
      ]
    },
    {
      "name": "Bottle_Brick Light_0",
      "primitives": [
        {
          "attributes": {
            "NORMAL": 17,
            "POSITION": 16,
            "TEXCOORD_0": 18
          },
          "indices": 19,
          "material": 4,
          "mode": 4
        }
      ]
    },
    {
      "name": "Bottle_Stone Light_0",
      "primitives": [
        {
          "attributes": {
            "NORMAL": 21,
            "POSITION": 20,
            "TEXCOORD_0": 22
          },
          "indices": 23,
          "material": 2,
          "mode": 4
        }
      ]
    },
    {
      "name": "Bottle.001_Brick_0",
      "primitives": [
        {
          "attributes": {
            "NORMAL": 25,
            "POSITION": 24,
            "TEXCOORD_0": 26
          },
          "indices": 27,
          "material": 5,
          "mode": 4
        }
      ]
    },
    {
      "name": "Bottle.001_Brick Light_0",
      "primitives": [
        {
          "attributes": {
            "NORMAL": 29,
            "POSITION": 28,
            "TEXCOORD_0": 30
          },
          "indices": 31,
          "material": 4,
          "mode": 4
        }
      ]
    },
    {
      "name": "Bottle.001_Stone Light_0",
      "primitives": [
        {
          "attributes": {
            "NORMAL": 33,
            "POSITION": 32,
            "TEXCOORD_0": 34
          },
          "indices": 35,
          "material": 2,
          "mode": 4
        }
      ]
    },
    {
      "name": "Bucket_Anvil_0",
      "primitives": [
        {
          "attributes": {
            "NORMAL": 37,
            "POSITION": 36,
            "TEXCOORD_0": 38
          },
          "indices": 39,
          "material": 6,
          "mode": 4
        }
      ]
    },
    {
      "name": "Bucket_Wood_0",
      "primitives": [
        {
          "attributes": {
            "NORMAL": 41,
            "POSITION": 40,
            "TEXCOORD_0": 42
          },
          "indices": 43,
          "material": 1,
          "mode": 4
        }
      ]
    },
    {
      "name": "Bucket_Wood Light_0",
      "primitives": [
        {
          "attributes": {
            "NORMAL": 45,
            "POSITION": 44,
            "TEXCOORD_0": 46
          },
          "indices": 47,
          "material": 7,
          "mode": 4
        }
      ]
    },
    {
      "name": "Bucket_Blue_0",
      "primitives": [
        {
          "attributes": {
            "NORMAL": 49,
            "POSITION": 48,
            "TEXCOORD_0": 50
          },
          "indices": 51,
          "material": 3,
          "mode": 4
        }
      ]
    },
    {
      "name": "Wall_Walls_0",
      "primitives": [
        {
          "attributes": {
            "NORMAL": 53,
            "POSITION": 52,
            "TEXCOORD_0": 54
          },
          "indices": 55,
          "material": 8,
          "mode": 4
        }
      ]
    },
    {
      "name": "Frame_Wood_0",
      "primitives": [
        {
          "attributes": {
            "NORMAL": 57,
            "POSITION": 56,
            "TEXCOORD_0": 58
          },
          "indices": 59,
          "material": 1,
          "mode": 4
        }
      ]
    },
    {
      "name": "Cube.001_Brick Light_0",
      "primitives": [
        {
          "attributes": {
            "NORMAL": 61,
            "POSITION": 60,
            "TEXCOORD_0": 62
          },
          "indices": 63,
          "material": 4,
          "mode": 4
        }
      ]
    },
    {
      "name": "Roof.001_Brick_0",
      "primitives": [
        {
          "attributes": {
            "NORMAL": 65,
            "POSITION": 64,
            "TEXCOORD_0": 66
          },
          "indices": 67,
          "material": 5,
          "mode": 4
        }
      ]
    },
    {
      "name": "Roof.001_Brick Dark_0",
      "primitives": [
        {
          "attributes": {
            "NORMAL": 69,
            "POSITION": 68,
            "TEXCOORD_0": 70
          },
          "indices": 71,
          "material": 9,
          "mode": 4
        }
      ]
    },
    {
      "name": "Roof.001_Brick Light_0",
      "primitives": [
        {
          "attributes": {
            "NORMAL": 73,
            "POSITION": 72,
            "TEXCOORD_0": 74
          },
          "indices": 75,
          "material": 4,
          "mode": 4
        }
      ]
    },
    {
      "name": "Cube.020_Brick Light_0",
      "primitives": [
        {
          "attributes": {
            "NORMAL": 77,
            "POSITION": 76,
            "TEXCOORD_0": 78
          },
          "indices": 79,
          "material": 4,
          "mode": 4
        }
      ]
    },
    {
      "name": "Roof_Brick_0",
      "primitives": [
        {
          "attributes": {
            "NORMAL": 81,
            "POSITION": 80,
            "TEXCOORD_0": 82
          },
          "indices": 83,
          "material": 5,
          "mode": 4
        }
      ]
    },
    {
      "name": "Roof_Brick Dark_0",
      "primitives": [
        {
          "attributes": {
            "NORMAL": 85,
            "POSITION": 84,
            "TEXCOORD_0": 86
          },
          "indices": 87,
          "material": 9,
          "mode": 4
        }
      ]
    },
    {
      "name": "Roof_Brick Light_0",
      "primitives": [
        {
          "attributes": {
            "NORMAL": 89,
            "POSITION": 88,
            "TEXCOORD_0": 90
          },
          "indices": 91,
          "material": 4,
          "mode": 4
        }
      ]
    },
    {
      "name": "Anvil_Anvil_0",
      "primitives": [
        {
          "attributes": {
            "NORMAL": 93,
            "POSITION": 92,
            "TEXCOORD_0": 94
          },
          "indices": 95,
          "material": 6,
          "mode": 4
        }
      ]
    },
    {
      "name": "Stump_Wood_0",
      "primitives": [
        {
          "attributes": {
            "NORMAL": 97,
            "POSITION": 96,
            "TEXCOORD_0": 98
          },
          "indices": 99,
          "material": 1,
          "mode": 4
        }
      ]
    },
    {
      "name": "Stump_Wood Light_0",
      "primitives": [
        {
          "attributes": {
            "NORMAL": 101,
            "POSITION": 100,
            "TEXCOORD_0": 102
          },
          "indices": 103,
          "material": 7,
          "mode": 4
        }
      ]
    },
    {
      "name": "Hammer_Metal_0",
      "primitives": [
        {
          "attributes": {
            "NORMAL": 105,
            "POSITION": 104,
            "TEXCOORD_0": 106
          },
          "indices": 107,
          "material": 10,
          "mode": 4
        }
      ]
    },
    {
      "name": "Hammer_Wood Light_0",
      "primitives": [
        {
          "attributes": {
            "NORMAL": 109,
            "POSITION": 108,
            "TEXCOORD_0": 110
          },
          "indices": 111,
          "material": 7,
          "mode": 4
        }
      ]
    },
    {
      "name": "Grinding Wheel_Wood_0",
      "primitives": [
        {
          "attributes": {
            "NORMAL": 113,
            "POSITION": 112,
            "TEXCOORD_0": 114
          },
          "indices": 115,
          "material": 1,
          "mode": 4
        }
      ]
    },
    {
      "name": "Grinding Wheel_Stone Light_0",
      "primitives": [
        {
          "attributes": {
            "NORMAL": 117,
            "POSITION": 116,
            "TEXCOORD_0": 118
          },
          "indices": 119,
          "material": 2,
          "mode": 4
        }
      ]
    },
    {
      "name": "Grinding Wheel_Wood Light_0",
      "primitives": [
        {
          "attributes": {
            "NORMAL": 121,
            "POSITION": 120,
            "TEXCOORD_0": 122
          },
          "indices": 123,
          "material": 7,
          "mode": 4
        }
      ]
    },
    {
      "name": "Ground_Ground_0",
      "primitives": [
        {
          "attributes": {
            "NORMAL": 125,
            "POSITION": 124,
            "TEXCOORD_0": 126
          },
          "indices": 127,
          "material": 11,
          "mode": 4
        }
      ]
    },
    {
      "name": "Rock__0",
      "primitives": [
        {
          "attributes": {
            "NORMAL": 129,
            "POSITION": 128,
            "TEXCOORD_0": 130
          },
          "indices": 131,
          "material": 0,
          "mode": 4
        }
      ]
    },
    {
      "name": "Grass.003_Grass_0",
      "primitives": [
        {
          "attributes": {
            "NORMAL": 133,
            "POSITION": 132,
            "TEXCOORD_0": 134
          },
          "indices": 135,
          "material": 12,
          "mode": 4
        }
      ]
    },
    {
      "name": "Grass.002_Grass_0",
      "primitives": [
        {
          "attributes": {
            "NORMAL": 137,
            "POSITION": 136,
            "TEXCOORD_0": 138
          },
          "indices": 139,
          "material": 12,
          "mode": 4
        }
      ]
    },
    {
      "name": "Rock.001__0",
      "primitives": [
        {
          "attributes": {
            "NORMAL": 141,
            "POSITION": 140,
            "TEXCOORD_0": 142
          },
          "indices": 143,
          "material": 0,
          "mode": 4
        }
      ]
    },
    {
      "name": "Rock.002__0",
      "primitives": [
        {
          "attributes": {
            "NORMAL": 145,
            "POSITION": 144,
            "TEXCOORD_0": 146
          },
          "indices": 147,
          "material": 0,
          "mode": 4
        }
      ]
    },
    {
      "name": "Grass.001_Grass_0",
      "primitives": [
        {
          "attributes": {
            "NORMAL": 149,
            "POSITION": 148,
            "TEXCOORD_0": 150
          },
          "indices": 151,
          "material": 12,
          "mode": 4
        }
      ]
    },
    {
      "name": "Grass_Grass_0",
      "primitives": [
        {
          "attributes": {
            "NORMAL": 153,
            "POSITION": 152,
            "TEXCOORD_0": 154
          },
          "indices": 155,
          "material": 12,
          "mode": 4
        }
      ]
    },
    {
      "name": "Furnace_Brick_0",
      "primitives": [
        {
          "attributes": {
            "NORMAL": 157,
            "POSITION": 156,
            "TEXCOORD_0": 158
          },
          "indices": 159,
          "material": 5,
          "mode": 4
        }
      ]
    },
    {
      "name": "Furnace_Brick Dark_0",
      "primitives": [
        {
          "attributes": {
            "NORMAL": 161,
            "POSITION": 160,
            "TEXCOORD_0": 162
          },
          "indices": 163,
          "material": 9,
          "mode": 4
        }
      ]
    },
    {
      "name": "Furnace_Brick Light_0",
      "primitives": [
        {
          "attributes": {
            "NORMAL": 165,
            "POSITION": 164,
            "TEXCOORD_0": 166
          },
          "indices": 167,
          "material": 4,
          "mode": 4
        }
      ]
    },
    {
      "name": "Furnace_Furnace_0",
      "primitives": [
        {
          "attributes": {
            "NORMAL": 169,
            "POSITION": 168,
            "TEXCOORD_0": 170
          },
          "indices": 171,
          "material": 13,
          "mode": 4
        }
      ]
    },
    {
      "name": "Furnace_Stone Light_0",
      "primitives": [
        {
          "attributes": {
            "NORMAL": 173,
            "POSITION": 172,
            "TEXCOORD_0": 174
          },
          "indices": 175,
          "material": 2,
          "mode": 4
        }
      ]
    },
    {
      "name": "Furnace_Furnace 2_0",
      "primitives": [
        {
          "attributes": {
            "NORMAL": 177,
            "POSITION": 176,
            "TEXCOORD_0": 178
          },
          "indices": 179,
          "material": 14,
          "mode": 4
        }
      ]
    },
    {
      "name": "Furnace_Brick Tube_0",
      "primitives": [
        {
          "attributes": {
            "NORMAL": 181,
            "POSITION": 180,
            "TEXCOORD_0": 182
          },
          "indices": 183,
          "material": 15,
          "mode": 4
        }
      ]
    },
    {
      "name": "Bucket.001_Anvil_0",
      "primitives": [
        {
          "attributes": {
            "NORMAL": 185,
            "POSITION": 184,
            "TEXCOORD_0": 186
          },
          "indices": 187,
          "material": 6,
          "mode": 4
        }
      ]
    },
    {
      "name": "Bucket.001_Wood_0",
      "primitives": [
        {
          "attributes": {
            "NORMAL": 189,
            "POSITION": 188,
            "TEXCOORD_0": 190
          },
          "indices": 191,
          "material": 1,
          "mode": 4
        }
      ]
    },
    {
      "name": "Bucket.001_Wood Light_0",
      "primitives": [
        {
          "attributes": {
            "NORMAL": 193,
            "POSITION": 192,
            "TEXCOORD_0": 194
          },
          "indices": 195,
          "material": 7,
          "mode": 4
        }
      ]
    },
    {
      "name": "Coal_Coal_0",
      "primitives": [
        {
          "attributes": {
            "NORMAL": 197,
            "POSITION": 196,
            "TEXCOORD_0": 198
          },
          "indices": 199,
          "material": 16,
          "mode": 4
        }
      ]
    },
    {
      "name": "Wood Store_Wood_0",
      "primitives": [
        {
          "attributes": {
            "NORMAL": 201,
            "POSITION": 200,
            "TEXCOORD_0": 202
          },
          "indices": 203,
          "material": 1,
          "mode": 4
        }
      ]
    },
    {
      "name": "Wood_Wood Light_0",
      "primitives": [
        {
          "attributes": {
            "NORMAL": 205,
            "POSITION": 204,
            "TEXCOORD_0": 206
          },
          "indices": 207,
          "material": 7,
          "mode": 4
        }
      ]
    },
    {
      "name": "Wood_Wood_0",
      "primitives": [
        {
          "attributes": {
            "NORMAL": 209,
            "POSITION": 208,
            "TEXCOORD_0": 210
          },
          "indices": 211,
          "material": 1,
          "mode": 4
        }
      ]
    }
  ],
  "nodes": [
    {
      "children": [
        1
      ],
      "matrix": [
        2.220446049250313e-16,
        -3.828568672208042e-16,
        1.0,
        0.0,
        -1.0,
        -2.8327693431939995e-16,
        2.2204460492503123e-16,
        0.0,
        2.832769343193999e-16,
        -1.0,
        -3.828568672208042e-16,
        0.0,
        0.0,
        0.0,
        0.0,
        1.0
      ],
      "name": "Sketchfab_model"
    },
    {
      "children": [
        2
      ],
      "matrix": [
        0.009999999776482582,
        0.0,
        0.0,
        0.0,
        0.0,
        -0.009999999776482582,
        0.0,
        0.0,
        0.0,
        0.0,
        -0.009999999776482582,
        0.0,
        0.0,
        0.0,
        0.0,
        1.0
      ],
      "name": "Forge.fbx"
    },
    {
      "children": [
        3,
        17,
        22,
        24,
        38,
        46,
        50,
        66,
        80
      ],
      "name": "RootNode"
    },
    {
      "children": [
        4,
        5,
        7,
        9,
        13
      ],
      "matrix": [
        100.0,
        0.0,
        0.0,
        0.0,
        0.0,
        100.0,
        0.0,
        0.0,
        0.0,
        0.0,
        100.0,
        0.0,
        0.0,
        0.0,
        0.0,
        1.0
      ],
      "name": "Shelf"
    },
    {
      "mesh": 0,
      "name": "Shelf_Wood_0"
    },
    {
      "children": [
        6
      ],
      "name": "Stone"
    },
    {
      "mesh": 1,
      "name": "Stone_Stone Light_0"
    },
    {
      "children": [
        8
      ],
      "name": "Stone.001"
    },
    {
      "mesh": 2,
      "name": "Stone.001_Stone Light_0"
    },
    {
      "children": [
        10,
        11,
        12
      ],
      "name": "Bottle"
    },
    {
      "mesh": 3,
      "name": "Bottle_Blue_0"
    },
    {
      "mesh": 4,
      "name": "Bottle_Brick Light_0"
    },
    {
      "mesh": 5,
      "name": "Bottle_Stone Light_0"
    },
    {
      "children": [
        14,
        15,
        16
      ],
      "name": "Bottle.001"
    },
    {
      "mesh": 6,
      "name": "Bottle.001_Brick_0"
    },
    {
      "mesh": 7,
      "name": "Bottle.001_Brick Light_0"
    },
    {
      "mesh": 8,
      "name": "Bottle.001_Stone Light_0"
    },
    {
      "children": [
        18,
        19,
        20,
        21
      ],
      "matrix": [
        100.0,
        0.0,
        0.0,
        0.0,
        0.0,
        100.0,
        0.0,
        0.0,
        0.0,
        0.0,
        100.0,
        0.0,
        0.0,
        0.0,
        0.0,
        1.0
      ],
      "name": "Bucket"
    },
    {
      "mesh": 9,
      "name": "Bucket_Anvil_0"
    },
    {
      "mesh": 10,
      "name": "Bucket_Wood_0"
    },
    {
      "mesh": 11,
      "name": "Bucket_Wood Light_0"
    },
    {
      "mesh": 12,
      "name": "Bucket_Blue_0"
    },
    {
      "children": [
        23
      ],
      "matrix": [
        100.0,
        0.0,
        0.0,
        0.0,
        0.0,
        100.0,
        0.0,
        0.0,
        0.0,
        0.0,
        100.0,
        0.0,
        0.0,
        0.0,
        0.0,
        1.0
      ],
      "name": "Wall"
    },
    {
      "mesh": 13,
      "name": "Wall_Walls_0"
    },
    {
      "children": [
        25,
        26,
        28,
        32,
        34
      ],
      "matrix": [
        100.0,
        0.0,
        0.0,
        0.0,
        0.0,
        100.0,
        0.0,
        0.0,
        0.0,
        0.0,
        100.0,
        0.0,
        0.0,
        0.0,
        0.0,
        1.0
      ],
      "name": "Frame"
    },
    {
      "mesh": 14,
      "name": "Frame_Wood_0"
    },
    {
      "children": [
        27
      ],
      "matrix": [
        1.0,
        0.0,
        0.0,
        0.0,
        0.0,
        1.0,
        0.0,
        0.0,
        0.0,
        0.0,
        1.0,
        0.0,
        -2.5345306396484375,
        3.175713539123535,
        4.613745212554932,
        1.0
      ],
      "name": "Cube.001"
    },
    {
      "mesh": 15,
      "name": "Cube.001_Brick Light_0"
    },
    {
      "children": [
        29,
        30,
        31
      ],
      "name": "Roof.001"
    },
    {
      "mesh": 16,
      "name": "Roof.001_Brick_0"
    },
    {
      "mesh": 17,
      "name": "Roof.001_Brick Dark_0"
    },
    {
      "mesh": 18,
      "name": "Roof.001_Brick Light_0"
    },
    {
      "children": [
        33
      ],
      "name": "Cube.020"
    },
    {
      "mesh": 19,
      "name": "Cube.020_Brick Light_0"
    },
    {
      "children": [
        35,
        36,
        37
      ],
      "name": "Roof"
    },
    {
      "mesh": 20,
      "name": "Roof_Brick_0"
    },
    {
      "mesh": 21,
      "name": "Roof_Brick Dark_0"
    },
    {
      "mesh": 22,
      "name": "Roof_Brick Light_0"
    },
    {
      "children": [
        39,
        40,
        43
      ],
      "matrix": [
        100.0,
        0.0,
        0.0,
        0.0,
        0.0,
        100.0,
        0.0,
        0.0,
        0.0,
        0.0,
        100.0,
        0.0,
        0.0,
        0.0,
        0.0,
        1.0
      ],
      "name": "Anvil"
    },
    {
      "mesh": 23,
      "name": "Anvil_Anvil_0"
    },
    {
      "children": [
        41,
        42
      ],
      "name": "Stump"
    },
    {
      "mesh": 24,
      "name": "Stump_Wood_0"
    },
    {
      "mesh": 25,
      "name": "Stump_Wood Light_0"
    },
    {
      "children": [
        44,
        45
      ],
      "name": "Hammer"
    },
    {
      "mesh": 26,
      "name": "Hammer_Metal_0"
    },
    {
      "mesh": 27,
      "name": "Hammer_Wood Light_0"
    },
    {
      "children": [
        47,
        48,
        49
      ],
      "matrix": [
        100.0,
        0.0,
        0.0,
        0.0,
        0.0,
        100.0,
        0.0,
        0.0,
        0.0,
        0.0,
        100.0,
        0.0,
        0.0,
        0.0,
        0.0,
        1.0
      ],
      "name": "Grinding Wheel"
    },
    {
      "mesh": 28,
      "name": "Grinding Wheel_Wood_0"
    },
    {
      "mesh": 29,
      "name": "Grinding Wheel_Stone Light_0"
    },
    {
      "mesh": 30,
      "name": "Grinding Wheel_Wood Light_0"
    },
    {
      "children": [
        51,
        52,
        54,
        56,
        58,
        60,
        62,
        64
      ],
      "matrix": [
        100.0,
        0.0,
        0.0,
        0.0,
        0.0,
        100.0,
        0.0,
        0.0,
        0.0,
        0.0,
        100.0,
        0.0,
        0.0,
        0.0,
        0.0,
        1.0
      ],
      "name": "Ground"
    },
    {
      "mesh": 31,
      "name": "Ground_Ground_0"
    },
    {
      "children": [
        53
      ],
      "name": "Rock"
    },
    {
      "mesh": 32,
      "name": "Rock__0"
    },
    {
      "children": [
        55
      ],
      "name": "Grass.003"
    },
    {
      "mesh": 33,
      "name": "Grass.003_Grass_0"
    },
    {
      "children": [
        57
      ],
      "name": "Grass.002"
    },
    {
      "mesh": 34,
      "name": "Grass.002_Grass_0"
    },
    {
      "children": [
        59
      ],
      "name": "Rock.001"
    },
    {
      "mesh": 35,
      "name": "Rock.001__0"
    },
    {
      "children": [
        61
      ],
      "name": "Rock.002"
    },
    {
      "mesh": 36,
      "name": "Rock.002__0"
    },
    {
      "children": [
        63
      ],
      "name": "Grass.001"
    },
    {
      "mesh": 37,
      "name": "Grass.001_Grass_0"
    },
    {
      "children": [
        65
      ],
      "name": "Grass"
    },
    {
      "mesh": 38,
      "name": "Grass_Grass_0"
    },
    {
      "children": [
        67,
        68,
        69,
        70,
        71,
        72,
        73,
        74,
        78
      ],
      "matrix": [
        100.0,
        0.0,
        0.0,
        0.0,
        0.0,
        100.0,
        0.0,
        0.0,
        0.0,
        0.0,
        100.0,
        0.0,
        0.0,
        0.0,
        0.0,
        1.0
      ],
      "name": "Furnace"
    },
    {
      "mesh": 39,
      "name": "Furnace_Brick_0"
    },
    {
      "mesh": 40,
      "name": "Furnace_Brick Dark_0"
    },
    {
      "mesh": 41,
      "name": "Furnace_Brick Light_0"
    },
    {
      "mesh": 42,
      "name": "Furnace_Furnace_0"
    },
    {
      "mesh": 43,
      "name": "Furnace_Stone Light_0"
    },
    {
      "mesh": 44,
      "name": "Furnace_Furnace 2_0"
    },
    {
      "mesh": 45,
      "name": "Furnace_Brick Tube_0"
    },
    {
      "children": [
        75,
        76,
        77
      ],
      "name": "Bucket.001"
    },
    {
      "mesh": 46,
      "name": "Bucket.001_Anvil_0"
    },
    {
      "mesh": 47,
      "name": "Bucket.001_Wood_0"
    },
    {
      "mesh": 48,
      "name": "Bucket.001_Wood Light_0"
    },
    {
      "children": [
        79
      ],
      "name": "Coal"
    },
    {
      "mesh": 49,
      "name": "Coal_Coal_0"
    },
    {
      "children": [
        81,
        82
      ],
      "matrix": [
        100.0,
        0.0,
        0.0,
        0.0,
        0.0,
        100.0,
        0.0,
        0.0,
        0.0,
        0.0,
        100.0,
        0.0,
        0.0,
        0.0,
        0.0,
        1.0
      ],
      "name": "Wood Store"
    },
    {
      "mesh": 50,
      "name": "Wood Store_Wood_0"
    },
    {
      "children": [
        83,
        84
      ],
      "name": "Wood"
    },
    {
      "mesh": 51,
      "name": "Wood_Wood Light_0"
    },
    {
      "mesh": 52,
      "name": "Wood_Wood_0"
    }
  ],
  "samplers": [
    {
      "magFilter": 9729,
      "minFilter": 9987,
      "wrapS": 10497,
      "wrapT": 10497
    }
  ],
  "scene": 0,
  "scenes": [
    {
      "name": "Sketchfab_Scene",
      "nodes": [
        0
      ]
    }
  ],
  "textures": [
    {
      "sampler": 0,
      "source": 0
    }
  ]
}
