{
  "accessors": [
    {
      "bufferView": 2,
      "componentType": 5126,
      "count": 20,
      "max": [
        8.780324935913086,
        258.7502746582031,
        -391.21966552734375
      ],
      "min": [
        -8.780324935913086,
        -7.7913408279418945,
        -408.78033447265625
      ],
      "type": "VEC3"
    },
    {
      "bufferView": 2,
      "byteOffset": 240,
      "componentType": 5126,
      "count": 20,
      "max": [
        1.0,
        1.0,
        1.0
      ],
      "min": [
        -1.0,
        0.0,
        -1.0
      ],
      "type": "VEC3"
    },
    {
      "bufferView": 1,
      "componentType": 5126,
      "count": 20,
      "max": [
        0.24193882942199707,
        1.0
      ],
      "min": [
        0.0,
        0.0
      ],
      "type": "VEC2"
    },
    {
      "bufferView": 0,
      "componentType": 5125,
      "count": 30,
      "type": "SCALAR"
    },
    {
      "bufferView": 2,
      "byteOffset": 480,
      "componentType": 5126,
      "count": 268,
      "max": [
        -8.614269256591797,
        243.6331329345703,
        -394.9403076171875
      ],
      "min": [
        -13.37631893157959,
        25.22102928161621,
        -405.4706726074219
      ],
      "type": "VEC3"
    },
    {
      "bufferView": 2,
      "byteOffset": 3696,
      "componentType": 5126,
      "count": 268,
      "max": [
        0.6707887649536133,
        1.0,
        0.9925383925437927
      ],
      "min": [
        -1.0,
        -1.0,
        -0.9925529956817627
      ],
      "type": "VEC3"
    },
    {
      "bufferView": 1,
      "byteOffset": 160,
      "componentType": 5126,
      "count": 268,
      "max": [
        0.9358029961585999,
        0.8996161818504333
      ],
      "min": [
        0.1959412544965744,
        0.16022302210330963
      ],
      "type": "VEC2"
    },
    {
      "bufferView": 0,
      "byteOffset": 120,
      "componentType": 5125,
      "count": 600,
      "type": "SCALAR"
    },
    {
      "bufferView": 2,
      "byteOffset": 6912,
      "componentType": 5126,
      "count": 948,
      "max": [
        -2.1376953125,
        257.39666748046875,
        0.19277191162109375
      ],
      "min": [
        -8.779632568359375,
        0.6416094303131104,
        -390.2424011230469
      ],
      "type": "VEC3"
    },
    {
      "bufferView": 2,
      "byteOffset": 18288,
      "componentType": 5126,
      "count": 948,
      "max": [
        0.9784554243087769,
        0.9999762177467346,
        0.9999445080757141
      ],
      "min": [
        -0.9784564971923828,
        -0.9999473690986633,
        -1.0
      ],
      "type": "VEC3"
    },
    {
      "bufferView": 1,
      "byteOffset": 2304,
      "componentType": 5126,
      "count": 948,
      "max": [
        0.5683028101921082,
        0.9980469346046448
      ],
      "min": [
        0.001953125,
        0.0019530669087544084
      ],
      "type": "VEC2"
    },
    {
      "bufferView": 0,
      "byteOffset": 2520,
      "componentType": 5125,
      "count": 2412,
      "type": "SCALAR"
    },
    {
      "bufferView": 2,
      "byteOffset": 29664,
      "componentType": 5126,
      "count": 100,
      "max": [
        -7.7864990234375,
        243.7587127685547,
        -2.1240921020507813
      ],
      "min": [
        -11.2252197265625,
        18.22684669494629,
        -389.6341552734375
      ],
      "type": "VEC3"
    },
    {
      "bufferView": 2,
      "byteOffset": 30864,
      "componentType": 5126,
      "count": 100,
      "max": [
        0.0,
        1.0,
        1.0
      ],
      "min": [
        -1.0,
        -1.0,
        -1.0
      ],
      "type": "VEC3"
    },
    {
      "bufferView": 1,
      "byteOffset": 9888,
      "componentType": 5126,
      "count": 100,
      "max": [
        0.9951556921005249,
        0.9175272583961487
      ],
      "min": [
        0.6356629729270935,
        0.008168384432792664
      ],
      "type": "VEC2"
    },
    {
      "bufferView": 0,
      "byteOffset": 12168,
      "componentType": 5125,
      "count": 150,
      "type": "SCALAR"
    },
    {
      "bufferView": 2,
      "byteOffset": 32064,
      "componentType": 5126,
      "count": 2966,
      "max": [
        -5.915557861328125,
        237.6482696533203,
        -19.166961669921875
      ],
      "min": [
        -20.73687744140625,
        30.688501358032227,
        -400.7698059082031
      ],
      "type": "VEC3"
    },
    {
      "bufferView": 2,
      "byteOffset": 67656,
      "componentType": 5126,
      "count": 2966,
      "max": [
        1.0,
        1.0,
        1.0
      ],
      "min": [
        -1.0,
        -1.0,
        -1.0
      ],
      "type": "VEC3"
    },
    {
      "bufferView": 1,
      "byteOffset": 10688,
      "componentType": 5126,
      "count": 2966,
      "max": [
        0.998046875,
        0.9440613389015198
      ],
      "min": [
        0.001953125,
        0.001953125
      ],
      "type": "VEC2"
    },
    {
      "bufferView": 0,
      "byteOffset": 12768,
      "componentType": 5125,
      "count": 4284,
      "type": "SCALAR"
    },
    {
      "bufferView": 2,
      "byteOffset": 103248,
      "componentType": 5126,
      "count": 40,
      "max": [
        -11.61163330078125,
        134.60491943359375,
        69.31925201416016
      ],
      "min": [
        -16.012664794921875,
        121.93438720703125,
        -53.155181884765625
      ],
      "type": "VEC3"
    },
    {
      "bufferView": 2,
      "byteOffset": 103728,
      "componentType": 5126,
      "count": 40,
      "max": [
        0.9999873042106628,
        1.0,
        1.0
      ],
      "min": [
        -1.0,
        -1.0,
        -0.9942143559455872
      ],
      "type": "VEC3"
    },
    {
      "bufferView": 1,
      "byteOffset": 34416,
      "componentType": 5126,
      "count": 40,
      "max": [
        0.7404643893241882,
        0.8485287427902222
      ],
      "min": [
        0.001953132450580597,
        0.001958283130079508
      ],
      "type": "VEC2"
    },
    {
      "bufferView": 0,
      "byteOffset": 29904,
      "componentType": 5125,
      "count": 84,
      "type": "SCALAR"
    },
    {
      "bufferView": 2,
      "byteOffset": 104208,
      "componentType": 5126,
      "count": 20,
      "max": [
        12.188220977783203,
        258.7502746582031,
        409.10260009765625
      ],
      "min": [
        -5.372428894042969,
        -7.7913408279418945,
        391.54193115234375
      ],
      "type": "VEC3"
    },
    {
      "bufferView": 2,
      "byteOffset": 104448,
      "componentType": 5126,
      "count": 20,
      "max": [
        1.0,
        1.0,
        1.0
      ],
      "min": [
        -1.0,
        0.0,
        -1.0
      ],
      "type": "VEC3"
    },
    {
      "bufferView": 1,
      "byteOffset": 34736,
      "componentType": 5126,
      "count": 20,
      "max": [
        0.24193882942199707,
        1.0
      ],
      "min": [
        0.0,
        0.0
      ],
      "type": "VEC2"
    },
    {
      "bufferView": 0,
      "byteOffset": 30240,
      "componentType": 5125,
      "count": 30,
      "type": "SCALAR"
    },
    {
      "bufferView": 2,
      "byteOffset": 104688,
      "componentType": 5126,
      "count": 268,
      "max": [
        -5.20637321472168,
        243.50233459472656,
        405.3819580078125
      ],
      "min": [
        -9.968422889709473,
        24.69175148010254,
        394.8515930175781
      ],
      "type": "VEC3"
    },
    {
      "bufferView": 2,
      "byteOffset": 107904,
      "componentType": 5126,
      "count": 268,
      "max": [
        0.6707890629768372,
        1.0,
        0.9925529360771179
      ],
      "min": [
        -1.0,
        -1.0,
        -0.9925529360771179
      ],
      "type": "VEC3"
    },
    {
      "bufferView": 1,
      "byteOffset": 34896,
      "componentType": 5126,
      "count": 268,
      "max": [
        0.9330957531929016,
        0.9271823763847351
      ],
      "min": [
        0.2298891842365265,
        0.16018454730510712
      ],
      "type": "VEC2"
    },
    {
      "bufferView": 0,
      "byteOffset": 30360,
      "componentType": 5125,
      "count": 600,
      "type": "SCALAR"
    },
    {
      "bufferView": 2,
      "byteOffset": 111120,
      "componentType": 5126,
      "count": 100,
      "max": [
        -5.267036437988281,
        245.0256805419922,
        389.3583984375
      ],
      "min": [
        -8.705748558044434,
        18.705251693725586,
        1.0420184135437012
      ],
      "type": "VEC3"
    },
    {
      "bufferView": 2,
      "byteOffset": 112320,
      "componentType": 5126,
      "count": 100,
      "max": [
        0.0,
        1.0,
        1.0
      ],
      "min": [
        -1.0,
        -1.0,
        -1.0
      ],
      "type": "VEC3"
    },
    {
      "bufferView": 1,
      "byteOffset": 37040,
      "componentType": 5126,
      "count": 100,
      "max": [
        0.9820370674133301,
        0.9175272583961487
      ],
      "min": [
        0.27045685052871704,
        0.008168384432792664
      ],
      "type": "VEC2"
    },
    {
      "bufferView": 0,
      "byteOffset": 32760,
      "componentType": 5125,
      "count": 150,
      "type": "SCALAR"
    },
    {
      "bufferView": 2,
      "byteOffset": 113520,
      "componentType": 5126,
      "count": 2636,
      "max": [
        -5.2821502685546875,
        238.15281677246094,
        399.09893798828125
      ],
      "min": [
        -15.638893127441406,
        29.99014663696289,
        19.188125610351563
      ],
      "type": "VEC3"
    },
    {
      "bufferView": 2,
      "byteOffset": 145152,
      "componentType": 5126,
      "count": 2636,
      "max": [
        1.0,
        1.0,
        1.0
      ],
      "min": [
        -1.0,
        -1.0,
        -1.0
      ],
      "type": "VEC3"
    },
    {
      "bufferView": 1,
      "byteOffset": 37840,
      "componentType": 5126,
      "count": 2636,
      "max": [
        0.9935183525085449,
        0.9456787705421448
      ],
      "min": [
        0.1765424609184265,
        0.0019583702087402344
      ],
      "type": "VEC2"
    },
    {
      "bufferView": 0,
      "byteOffset": 33360,
      "componentType": 5125,
      "count": 3828,
      "type": "SCALAR"
    },
    {
      "bufferView": 2,
      "byteOffset": 176784,
      "componentType": 5126,
      "count": 948,
      "max": [
        1.2547731399536133,
        257.87506103515625,
        390.3410339355469
      ],
      "min": [
        -5.3871612548828125,
        1.1200157403945923,
        2.1145215034484863
      ],
      "type": "VEC3"
    },
    {
      "bufferView": 2,
      "byteOffset": 188160,
      "componentType": 5126,
      "count": 948,
      "max": [
        0.9782166481018066,
        0.9999759197235107,
        0.9999451041221619
      ],
      "min": [
        -0.9782161712646484,
        -0.9999467730522156,
        -1.0
      ],
      "type": "VEC3"
    },
    {
      "bufferView": 1,
      "byteOffset": 58928,
      "componentType": 5126,
      "count": 948,
      "max": [
        0.5683028101921082,
        0.9980469346046448
      ],
      "min": [
        0.001953125,
        0.0019530669087544084
      ],
      "type": "VEC2"
    },
    {
      "bufferView": 0,
      "byteOffset": 48672,
      "componentType": 5125,
      "count": 2412,
      "type": "SCALAR"
    },
    {
      "bufferView": 2,
      "byteOffset": 199536,
      "componentType": 5126,
      "count": 20,
      "max": [
        8.780324935913086,
        257.5014343261719,
        580.0247192382813
      ],
      "min": [
        -8.780324935913086,
        -7.7913408279418945,
        562.4640502929688
      ],
      "type": "VEC3"
    },
    {
      "bufferView": 2,
      "byteOffset": 199776,
      "componentType": 5126,
      "count": 20,
      "max": [
        1.0,
        1.0,
        1.0
      ],
      "min": [
        -1.0,
        0.0,
        -1.0
      ],
      "type": "VEC3"
    },
    {
      "bufferView": 1,
      "byteOffset": 66512,
      "componentType": 5126,
      "count": 20,
      "max": [
        0.24193882942199707,
        1.0
      ],
      "min": [
        0.0,
        0.0
      ],
      "type": "VEC2"
    },
    {
      "bufferView": 0,
      "byteOffset": 58320,
      "componentType": 5125,
      "count": 30,
      "type": "SCALAR"
    },
    {
      "bufferView": 2,
      "byteOffset": 200016,
      "componentType": 5126,
      "count": 20,
      "max": [
        8.780324935913086,
        257.5014343261719,
        580.0247192382813
      ],
      "min": [
        -8.780324935913086,
        -7.7913408279418945,
        562.4640502929688
      ],
      "type": "VEC3"
    },
    {
      "bufferView": 2,
      "byteOffset": 200256,
      "componentType": 5126,
      "count": 20,
      "max": [
        1.0,
        1.0,
        1.0
      ],
      "min": [
        -1.0,
        0.0,
        -1.0
      ],
      "type": "VEC3"
    },
    {
      "bufferView": 1,
      "byteOffset": 66672,
      "componentType": 5126,
      "count": 20,
      "max": [
        0.24193882942199707,
        1.0
      ],
      "min": [
        0.0,
        0.0
      ],
      "type": "VEC2"
    },
    {
      "bufferView": 0,
      "byteOffset": 58440,
      "componentType": 5125,
      "count": 30,
      "type": "SCALAR"
    },
    {
      "bufferView": 2,
      "byteOffset": 200496,
      "componentType": 5126,
      "count": 948,
      "max": [
        5.590456485748291,
        256.16949462890625,
        723.5078125
      ],
      "min": [
        -1.051477313041687,
        -0.585557222366333,
        337.41632080078125
      ],
      "type": "VEC3"
    },
    {
      "bufferView": 2,
      "byteOffset": 211872,
      "componentType": 5126,
      "count": 948,
      "max": [
        0.9779825210571289,
        0.9999756217002869,
        0.9999457001686096
      ],
      "min": [
        -0.9779828786849976,
        -0.9999461770057678,
        -1.0
      ],
      "type": "VEC3"
    },
    {
      "bufferView": 1,
      "byteOffset": 66832,
      "componentType": 5126,
      "count": 948,
      "max": [
        0.5683028101921082,
        0.9980469346046448
      ],
      "min": [
        0.001953125,
        0.0019530669087544084
      ],
      "type": "VEC2"
    },
    {
      "bufferView": 0,
      "byteOffset": 58560,
      "componentType": 5125,
      "count": 2412,
      "type": "SCALAR"
    },
    {
      "bufferView": 2,
      "byteOffset": 223248,
      "componentType": 5126,
      "count": 72,
      "max": [
        -0.11047482490539551,
        234.24423217773438,
        729.9020385742188
      ],
      "min": [
        -3.549186944961548,
        22.398666381835938,
        330.03472900390625
      ],
      "type": "VEC3"
    },
    {
      "bufferView": 2,
      "byteOffset": 224112,
      "componentType": 5126,
      "count": 72,
      "max": [
        1.0,
        0.9999944567680359,
        1.0
      ],
      "min": [
        -1.0,
        -0.9999944567680359,
        -1.0
      ],
      "type": "VEC3"
    },
    {
      "bufferView": 1,
      "byteOffset": 74416,
      "componentType": 5126,
      "count": 72,
      "max": [
        0.6635817289352417,
        0.9924275875091553
      ],
      "min": [
        0.4768655300140381,
        0.007572472095489502
      ],
      "type": "VEC2"
    },
    {
      "bufferView": 0,
      "byteOffset": 68208,
      "componentType": 5125,
      "count": 108,
      "type": "SCALAR"
    },
    {
      "bufferView": 2,
      "byteOffset": 224976,
      "componentType": 5126,
      "count": 72,
      "max": [
        -0.11047482490539551,
        234.62498474121094,
        -498.48748779296875
      ],
      "min": [
        -3.549186944961548,
        18.743000030517578,
        -901.02001953125
      ],
      "type": "VEC3"
    },
    {
      "bufferView": 2,
      "byteOffset": 225840,
      "componentType": 5126,
      "count": 72,
      "max": [
        1.0,
        0.9999141693115234,
        1.0
      ],
      "min": [
        -1.0,
        -0.9999141693115234,
        -1.0
      ],
      "type": "VEC3"
    },
    {
      "bufferView": 1,
      "byteOffset": 74992,
      "componentType": 5126,
      "count": 72,
      "max": [
        0.4485292136669159,
        0.9924344420433044
      ],
      "min": [
        0.26188111305236816,
        0.007565587759017944
      ],
      "type": "VEC2"
    },
    {
      "bufferView": 0,
      "byteOffset": 68640,
      "componentType": 5125,
      "count": 108,
      "type": "SCALAR"
    },
    {
      "bufferView": 2,
      "byteOffset": 226704,
      "componentType": 5126,
      "count": 948,
      "max": [
        5.590456485748291,
        256.16949462890625,
        -505.62103271484375
      ],
      "min": [
        -1.051477313041687,
        -0.585557222366333,
        -891.7125244140625
      ],
      "type": "VEC3"
    },
    {
      "bufferView": 2,
      "byteOffset": 238080,
      "componentType": 5126,
      "count": 948,
      "max": [
        0.9779834151268005,
        0.9999756217002869,
        0.9999457001686096
      ],
      "min": [
        -0.9779837727546692,
        -0.9999461770057678,
        -1.0
      ],
      "type": "VEC3"
    },
    {
      "bufferView": 1,
      "byteOffset": 75568,
      "componentType": 5126,
      "count": 948,
      "max": [
        0.5683028101921082,
        0.9980469346046448
      ],
      "min": [
        0.001953125,
        0.0019530669087544084
      ],
      "type": "VEC2"
    },
    {
      "bufferView": 0,
      "byteOffset": 69072,
      "componentType": 5125,
      "count": 2412,
      "type": "SCALAR"
    },
    {
      "bufferView": 2,
      "byteOffset": 249456,
      "componentType": 5126,
      "count": 600,
      "max": [
        788.7485961914063,
        237.87060546875,
        -60.031776428222656
      ],
      "min": [
        -2420.478759765625,
        -32.57548141479492,
        -2350.1552734375
      ],
      "type": "VEC3"
    },
    {
      "bufferView": 2,
      "byteOffset": 256656,
      "componentType": 5126,
      "count": 600,
      "max": [
        1.0,
        1.0,
        1.0
      ],
      "min": [
        -1.0,
        0.0,
        -1.0
      ],
      "type": "VEC3"
    },
    {
      "bufferView": 1,
      "byteOffset": 83152,
      "componentType": 5126,
      "count": 600,
      "max": [
        0.24193882942199707,
        1.0
      ],
      "min": [
        0.0,
        0.0
      ],
      "type": "VEC2"
    },
    {
      "bufferView": 0,
      "byteOffset": 78720,
      "componentType": 5125,
      "count": 900,
      "type": "SCALAR"
    },
    {
      "bufferView": 2,
      "byteOffset": 263856,
      "componentType": 5126,
      "count": 13285,
      "max": [
        780.0874633789063,
        237.87060546875,
        -70.96389770507813
      ],
      "min": [
        -2416.83935546875,
        -28.67101287841797,
        -2353.563232421875
      ],
      "type": "VEC3"
    },
    {
      "bufferView": 2,
      "byteOffset": 423276,
      "componentType": 5126,
      "count": 13285,
      "max": [
        1.0,
        1.0,
        1.0
      ],
      "min": [
        -1.0,
        -1.0,
        -1.0
      ],
      "type": "VEC3"
    },
    {
      "bufferView": 1,
      "byteOffset": 87952,
      "componentType": 5126,
      "count": 13285,
      "max": [
        1.0,
        1.0
      ],
      "min": [
        0.0,
        -3.725290298461914e-09
      ],
      "type": "VEC2"
    },
    {
      "bufferView": 0,
      "byteOffset": 82320,
      "componentType": 5125,
      "count": 19545,
      "type": "SCALAR"
    },
    {
      "bufferView": 2,
      "byteOffset": 582696,
      "componentType": 5126,
      "count": 2844,
      "max": [
        626.6808471679688,
        237.49786376953125,
        -531.4507446289063
      ],
      "min": [
        -2423.352783203125,
        -21.46523094177246,
        -2345.94482421875
      ],
      "type": "VEC3"
    },
    {
      "bufferView": 2,
      "byteOffset": 616824,
      "componentType": 5126,
      "count": 2844,
      "max": [
        1.0,
        0.9999756217002869,
        1.0
      ],
      "min": [
        -1.0,
        -0.9999461770057678,
        -0.9999456405639648
      ],
      "type": "VEC3"
    },
    {
      "bufferView": 1,
      "byteOffset": 194232,
      "componentType": 5126,
      "count": 2844,
      "max": [
        0.5683028101921082,
        0.9980469346046448
      ],
      "min": [
        0.001953125,
        0.0019530669087544084
      ],
      "type": "VEC2"
    },
    {
      "bufferView": 0,
      "byteOffset": 160500,
      "componentType": 5125,
      "count": 7236,
      "type": "SCALAR"
    },
    {
      "bufferView": 2,
      "byteOffset": 650952,
      "componentType": 5126,
      "count": 1896,
      "max": [
        147.68084716796875,
        236.51699829101563,
        -531.4507446289063
      ],
      "min": [
        -706.1727294921875,
        -21.46523094177246,
        -1825.7862548828125
      ],
      "type": "VEC3"
    },
    {
      "bufferView": 2,
      "byteOffset": 673704,
      "componentType": 5126,
      "count": 1896,
      "max": [
        1.0,
        0.9999761581420898,
        0.9779924750328064
      ],
      "min": [
        -0.9999457001686096,
        -0.9999473690986633,
        -0.9779933094978333
      ],
      "type": "VEC3"
    },
    {
      "bufferView": 1,
      "byteOffset": 216984,
      "componentType": 5126,
      "count": 1896,
      "max": [
        0.5683028101921082,
        0.9980469346046448
      ],
      "min": [
        0.001953125,
        0.0019530669087544084
      ],
      "type": "VEC2"
    },
    {
      "bufferView": 0,
      "byteOffset": 189444,
      "componentType": 5125,
      "count": 4824,
      "type": "SCALAR"
    },
    {
      "bufferView": 2,
      "byteOffset": 696456,
      "componentType": 5126,
      "count": 3792,
      "max": [
        783.2893676757813,
        235.28982543945313,
        -531.4507446289063
      ],
      "min": [
        -2005.05224609375,
        -21.46523094177246,
        -2341.535400390625
      ],
      "type": "VEC3"
    },
    {
      "bufferView": 2,
      "byteOffset": 741960,
      "componentType": 5126,
      "count": 3792,
      "max": [
        1.0,
        0.9999761581420898,
        0.9999456405639648
      ],
      "min": [
        -1.0,
        -0.9999473690986633,
        -1.0
      ],
      "type": "VEC3"
    },
    {
      "bufferView": 1,
      "byteOffset": 232152,
      "componentType": 5126,
      "count": 3792,
      "max": [
        0.5683028101921082,
        0.9980469346046448
      ],
      "min": [
        0.001953125,
        0.0019530669087544084
      ],
      "type": "VEC2"
    },
    {
      "bufferView": 0,
      "byteOffset": 208740,
      "componentType": 5125,
      "count": 9648,
      "type": "SCALAR"
    },
    {
      "bufferView": 2,
      "byteOffset": 787464,
      "componentType": 5126,
      "count": 2844,
      "max": [
        -835.3191528320313,
        236.99539184570313,
        -531.4507446289063
      ],
      "min": [
        -2422.540283203125,
        -21.46523094177246,
        -2332.628662109375
      ],
      "type": "VEC3"
    },
    {
      "bufferView": 2,
      "byteOffset": 821592,
      "componentType": 5126,
      "count": 2844,
      "max": [
        1.0,
        0.9999759197235107,
        1.0
      ],
      "min": [
        -0.9999457001686096,
        -0.9999467730522156,
        -0.9999456405639648
      ],
      "type": "VEC3"
    },
    {
      "bufferView": 1,
      "byteOffset": 262488,
      "componentType": 5126,
      "count": 2844,
      "max": [
        0.5683028101921082,
        0.9980469346046448
      ],
      "min": [
        0.001953125,
        0.0019530669087544084
      ],
      "type": "VEC2"
    },
    {
      "bufferView": 0,
      "byteOffset": 247332,
      "componentType": 5125,
      "count": 7236,
      "type": "SCALAR"
    },
    {
      "bufferView": 2,
      "byteOffset": 855720,
      "componentType": 5126,
      "count": 948,
      "max": [
        -1339.319091796875,
        235.28982543945313,
        -531.4507446289063
      ],
      "min": [
        -1725.41064453125,
        -21.46523094177246,
        -538.0927124023438
      ],
      "type": "VEC3"
    },
    {
      "bufferView": 2,
      "byteOffset": 867096,
      "componentType": 5126,
      "count": 948,
      "max": [
        1.0,
        0.9999756217002869,
        0.9779936671257019
      ],
      "min": [
        -0.9999457001686096,
        -0.9999461770057678,
        -0.9779914021492004
      ],
      "type": "VEC3"
    },
    {
      "bufferView": 1,
      "byteOffset": 285240,
      "componentType": 5126,
      "count": 948,
      "max": [
        0.5683028101921082,
        0.9980469346046448
      ],
      "min": [
        0.001953125,
        0.0019530669087544084
      ],
      "type": "VEC2"
    },
    {
      "bufferView": 0,
      "byteOffset": 276276,
      "componentType": 5125,
      "count": 2412,
      "type": "SCALAR"
    },
    {
      "bufferView": 2,
      "byteOffset": 878472,
      "componentType": 5126,
      "count": 3792,
      "max": [
        773.3223266601563,
        235.28982543945313,
        -531.4507446289063
      ],
      "min": [
        -2217.41064453125,
        -21.46523094177246,
        -2348.382080078125
      ],
      "type": "VEC3"
    },
    {
      "bufferView": 2,
      "byteOffset": 923976,
      "componentType": 5126,
      "count": 3792,
      "max": [
        1.0,
        0.9999756217002869,
        0.9780120253562927
      ],
      "min": [
        -1.0,
        -0.9999461770057678,
        -0.9780150055885315
      ],
      "type": "VEC3"
    },
    {
      "bufferView": 1,
      "byteOffset": 292824,
      "componentType": 5126,
      "count": 3792,
      "max": [
        0.5683028101921082,
        0.9980469346046448
      ],
      "min": [
        0.001953125,
        0.0019530669087544084
      ],
      "type": "VEC2"
    },
    {
      "bufferView": 0,
      "byteOffset": 285924,
      "componentType": 5125,
      "count": 9648,
      "type": "SCALAR"
    },
    {
      "bufferView": 2,
      "byteOffset": 969480,
      "componentType": 5126,
      "count": 2844,
      "max": [
        772.7058715820313,
        235.28982543945313,
        -65.26296997070313
      ],
      "min": [
        -2404.43603515625,
        -21.46523094177246,
        -2348.382080078125
      ],
      "type": "VEC3"
    },
    {
      "bufferView": 2,
      "byteOffset": 1003608,
      "componentType": 5126,
      "count": 2844,
      "max": [
        1.0,
        0.9999756217002869,
        0.9780014157295227
      ],
      "min": [
        -1.0,
        -0.9999461770057678,
        -0.9780126810073853
      ],
      "type": "VEC3"
    },
    {
      "bufferView": 1,
      "byteOffset": 323160,
      "componentType": 5126,
      "count": 2844,
      "max": [
        0.5683028101921082,
        0.9980469346046448
      ],
      "min": [
        0.001953125,
        0.0019530669087544084
      ],
      "type": "VEC2"
    },
    {
      "bufferView": 0,
      "byteOffset": 324516,
      "componentType": 5125,
      "count": 7236,
      "type": "SCALAR"
    },
    {
      "bufferView": 2,
      "byteOffset": 1037736,
      "componentType": 5126,
      "count": 2844,
      "max": [
        373.32220458984375,
        235.28982543945313,
        -65.26296997070313
      ],
      "min": [
        -2405.05224609375,
        -25.36969757080078,
        -2345.94482421875
      ],
      "type": "VEC3"
    },
    {
      "bufferView": 2,
      "byteOffset": 1071864,
      "componentType": 5126,
      "count": 2844,
      "max": [
        1.0,
        0.9999756217002869,
        0.9780115485191345
      ],
      "min": [
        -1.0,
        -0.9999461770057678,
        -0.9780150055885315
      ],
      "type": "VEC3"
    },
    {
      "bufferView": 1,
      "byteOffset": 345912,
      "componentType": 5126,
      "count": 2844,
      "max": [
        0.5683028101921082,
        0.9980469346046448
      ],
      "min": [
        0.001953125,
        0.0019530669087544084
      ],
      "type": "VEC2"
    },
    {
      "bufferView": 0,
      "byteOffset": 353460,
      "componentType": 5125,
      "count": 7236,
      "type": "SCALAR"
    },
    {
      "bufferView": 2,
      "byteOffset": 1105992,
      "componentType": 5126,
      "count": 2844,
      "max": [
        784.5381469726563,
        235.28982543945313,
        -1533.6796875
      ],
      "min": [
        -1605.05224609375,
        -21.46523094177246,
        -2342.629638671875
      ],
      "type": "VEC3"
    },
    {
      "bufferView": 2,
      "byteOffset": 1140120,
      "componentType": 5126,
      "count": 2844,
      "max": [
        1.0,
        0.999975860118866,
        0.9999456405639648
      ],
      "min": [
        -1.0,
        -0.9999467730522156,
        -1.0
      ],
      "type": "VEC3"
    },
    {
      "bufferView": 1,
      "byteOffset": 368664,
      "componentType": 5126,
      "count": 2844,
      "max": [
        0.5683028101921082,
        0.9980469346046448
      ],
      "min": [
        0.001953125,
        0.0019530669087544084
      ],
      "type": "VEC2"
    },
    {
      "bufferView": 0,
      "byteOffset": 382404,
      "componentType": 5125,
      "count": 7236,
      "type": "SCALAR"
    },
    {
      "bufferView": 2,
      "byteOffset": 1174248,
      "componentType": 5126,
      "count": 1896,
      "max": [
        -27.2940673828125,
        235.28982543945313,
        -1533.6796875
      ],
      "min": [
        -2004.43603515625,
        -21.46523094177246,
        -2345.94482421875
      ],
      "type": "VEC3"
    },
    {
      "bufferView": 2,
      "byteOffset": 1197000,
      "componentType": 5126,
      "count": 1896,
      "max": [
        1.0,
        0.9999756217002869,
        0.9780120253562927
      ],
      "min": [
        -1.0,
        -0.9999461770057678,
        -0.9780138731002808
      ],
      "type": "VEC3"
    },
    {
      "bufferView": 1,
      "byteOffset": 391416,
      "componentType": 5126,
      "count": 1896,
      "max": [
        0.5683028101921082,
        0.9980469346046448
      ],
      "min": [
        0.001953125,
        0.0019530669087544084
      ],
      "type": "VEC2"
    },
    {
      "bufferView": 0,
      "byteOffset": 411348,
      "componentType": 5125,
      "count": 4824,
      "type": "SCALAR"
    },
    {
      "bufferView": 2,
      "byteOffset": 1219752,
      "componentType": 5126,
      "count": 6183,
      "max": [
        -414.5610046386719,
        222.7534637451172,
        -1540.6851806640625
      ],
      "min": [
        -1217.080322265625,
        3.8120784759521484,
        -1877.559814453125
      ],
      "type": "VEC3"
    },
    {
      "bufferView": 2,
      "byteOffset": 1293948,
      "componentType": 5126,
      "count": 6183,
      "max": [
        0.9925779700279236,
        1.0,
        0.9626188278198242
      ],
      "min": [
        -0.9925779700279236,
        -1.0,
        -1.0
      ],
      "type": "VEC3"
    },
    {
      "bufferView": 1,
      "byteOffset": 406584,
      "componentType": 5126,
      "count": 6183,
      "max": [
        0.998046875,
        0.9456787705421448
      ],
      "min": [
        0.001953125,
        0.001953125
      ],
      "type": "VEC2"
    },
    {
      "bufferView": 0,
      "byteOffset": 430644,
      "componentType": 5125,
      "count": 9396,
      "type": "SCALAR"
    },
    {
      "bufferView": 2,
      "byteOffset": 1368144,
      "componentType": 5126,
      "count": 4,
      "max": [
        1303.69287109375,
        0.0,
        -1125.059814453125
      ],
      "min": [
        -2943.69287109375,
        0.0,
        -2582.940185546875
      ],
      "type": "VEC3"
    },
    {
      "bufferView": 2,
      "byteOffset": 1368192,
      "componentType": 5126,
      "count": 4,
      "max": [
        0.0,
        1.0,
        0.0
      ],
      "min": [
        0.0,
        1.0,
        0.0
      ],
      "type": "VEC3"
    },
    {
      "bufferView": 1,
      "byteOffset": 456048,
      "componentType": 5126,
      "count": 4,
      "max": [
        0.998046875,
        0.34385406970977783
      ],
      "min": [
        0.001953125,
        0.001953125
      ],
      "type": "VEC2"
    },
    {
      "bufferView": 0,
      "byteOffset": 468228,
      "componentType": 5125,
      "count": 6,
      "type": "SCALAR"
    },
    {
      "bufferView": 2,
      "byteOffset": 1368240,
      "componentType": 5126,
      "count": 20,
      "max": [
        -288.91998291015625,
        1.8047610521316528,
        -1153.011474609375
      ],
      "min": [
        -1361.080078125,
        -1.8047610521316528,
        -1314.988525390625
      ],
      "type": "VEC3"
    },
    {
      "bufferView": 2,
      "byteOffset": 1368480,
      "componentType": 5126,
      "count": 20,
      "max": [
        1.0,
        1.0,
        1.0
      ],
      "min": [
        -1.0,
        0.0,
        -1.0
      ],
      "type": "VEC3"
    },
    {
      "bufferView": 1,
      "byteOffset": 456080,
      "componentType": 5126,
      "count": 20,
      "max": [
        0.998046875,
        0.15809398889541626
      ],
      "min": [
        0.001953125,
        0.001953125
      ],
      "type": "VEC2"
    },
    {
      "bufferView": 0,
      "byteOffset": 468252,
      "componentType": 5125,
      "count": 30,
      "type": "SCALAR"
    }
  ],
  "asset": {
    "extras": {
      "author": "TampaJoey (https://sketchfab.com/TampaJoey)",
      "license": "CC-BY-4.0 (http://creativecommons.org/licenses/by/4.0/)",
      "source": "https://sketchfab.com/3d-models/modular-urban-fence-pack-w-graffiti-textures-1cf3690327bd449881ba6857d8fe7caf",
      "title": "Modular Urban Fence Pack (w/ graffiti textures)"
    },
    "generator": "Sketchfab-15.37.0",
    "version": "2.0"
  },
  "bufferViews": [
    {
      "buffer": 0,
      "byteLength": 468372,
      "name": "floatBufferViews",
      "target": 34963
    },
    {
      "buffer": 0,
      "byteLength": 456240,
      "byteOffset": 468372,
      "byteStride": 8,
      "name": "floatBufferViews",
      "target": 34962
    },
    {
      "buffer": 0,
      "byteLength": 1368720,
      "byteOffset": 924612,
      "byteStride": 12,
      "name": "floatBufferViews",
      "target": 34962
    }
  ],
  "buffers": [
    {
      "byteLength": 2293332,
      "uri": "scene.bin"
    }
  ],
  "extensionsUsed": [
    "KHR_materials_specular"
  ],
  "images": [
    {
      "uri": "textures/T_wood_baseColor.png"
    },
    {
      "uri": "textures/T_metal_baseColor.png"
    },
    {
      "uri": "textures/T_graffiti0_baseColor.png"
    },
    {
      "uri": "textures/T_concrete_baseColor.png"
    },
    {
      "uri": "textures/T_graffiti8_baseColor.png"
    },
    {
      "uri": "textures/T_graffiti7_baseColor.png"
    },
    {
      "uri": "textures/T_graffiti2_baseColor.png"
    },
    {
      "uri": "textures/T_graffiti6_baseColor.png"
    },
    {
      "uri": "textures/T_graffiti5_baseColor.png"
    },
    {
      "uri": "textures/T_graffiti4_baseColor.png"
    },
    {
      "uri": "textures/T_graffiti3_baseColor.png"
    },
    {
      "uri": "textures/T_graffiti9_baseColor.png"
    },
    {
      "uri": "textures/T_graffiti1_baseColor.png"
    },
    {
      "uri": "textures/T_ground_baseColor.png"
    },
    {
      "uri": "textures/T_title_baseColor.png"
    }
  ],
  "materials": [
    {
      "doubleSided": true,
      "name": "T_wood",
      "pbrMetallicRoughness": {
        "baseColorTexture": {
          "index": 0
        },
        "metallicFactor": 0.0,
        "roughnessFactor": 0.6
      }
    },
    {
      "doubleSided": true,
      "name": "T_metal",
      "pbrMetallicRoughness": {
        "baseColorTexture": {
          "index": 1
        },
        "metallicFactor": 0.0,
        "roughnessFactor": 0.6
      }
    },
    {
      "doubleSided": true,
      "extensions": {
        "KHR_materials_specular": {
          "specularColorFactor": [
            1.0,
            1.0,
            1.0
          ],
          "specularFactor": 0.33981055942265725
        }
      },
      "name": "T_graffiti0",
      "pbrMetallicRoughness": {
        "baseColorTexture": {
          "index": 2
        },
        "metallicFactor": 0.0,
        "roughnessFactor": 0.6140971096292864
      }
    },
    {
      "doubleSided": true,
      "name": "T_concrete",
      "pbrMetallicRoughness": {
        "baseColorTexture": {
          "index": 3
        },
        "metallicFactor": 0.0,
        "roughnessFactor": 0.6
      }
    },
    {
      "doubleSided": true,
      "name": "T_graffiti8",
      "pbrMetallicRoughness": {
        "baseColorTexture": {
          "index": 4
        },
        "metallicFactor": 0.0,
        "roughnessFactor": 0.6
      }
    },
    {
      "doubleSided": true,
      "name": "T_graffiti7",
      "pbrMetallicRoughness": {
        "baseColorTexture": {
          "index": 5
        },
        "metallicFactor": 0.0,
        "roughnessFactor": 0.6
      }
    },
    {
      "doubleSided": true,
      "name": "T_graffiti2",
      "pbrMetallicRoughness": {
        "baseColorTexture": {
          "index": 6
        },
        "metallicFactor": 0.0,
        "roughnessFactor": 0.6
      }
    },
    {
      "doubleSided": true,
      "name": "T_graffiti6",
      "pbrMetallicRoughness": {
        "baseColorTexture": {
          "index": 7
        },
        "metallicFactor": 0.0,
        "roughnessFactor": 0.6
      }
    },
    {
      "doubleSided": true,
      "name": "T_graffiti5",
      "pbrMetallicRoughness": {
        "baseColorTexture": {
          "index": 8
        },
        "metallicFactor": 0.0,
        "roughnessFactor": 0.6
      }
    },
    {
      "doubleSided": true,
      "name": "T_graffiti4",
      "pbrMetallicRoughness": {
        "baseColorTexture": {
          "index": 9
        },
        "metallicFactor": 0.0,
        "roughnessFactor": 0.6
      }
    },
    {
      "doubleSided": true,
      "name": "T_graffiti3",
      "pbrMetallicRoughness": {
        "baseColorTexture": {
          "index": 10
        },
        "metallicFactor": 0.0,
        "roughnessFactor": 0.6
      }
    },
    {
      "doubleSided": true,
      "name": "T_graffiti9",
      "pbrMetallicRoughness": {
        "baseColorTexture": {
          "index": 11
        },
        "metallicFactor": 0.0,
        "roughnessFactor": 0.6
      }
    },
    {
      "doubleSided": true,
      "name": "T_graffiti1",
      "pbrMetallicRoughness": {
        "baseColorTexture": {
          "index": 12
        },
        "metallicFactor": 0.0,
        "roughnessFactor": 0.6
      }
    },
    {
      "doubleSided": true,
      "name": "T_ground",
      "pbrMetallicRoughness": {
        "baseColorTexture": {
          "index": 13
        },
        "metallicFactor": 0.0,
        "roughnessFactor": 0.6
      }
    },
    {
      "doubleSided": true,
      "name": "T_title",
      "pbrMetallicRoughness": {
        "baseColorTexture": {
          "index": 14
        },
        "metallicFactor": 0.0,
        "roughnessFactor": 0.6
      }
    }
  ],
  "meshes": [
    {
      "name": "DoorPostLeft_T_wood_0",
      "primitives": [
        {
          "attributes": {
            "NORMAL": 1,
            "POSITION": 0,
            "TEXCOORD_0": 2
          },
          "indices": 3,
          "material": 0,
          "mode": 4
        }
      ]
    },
    {
      "name": "DoorPostLeft_T_metal_0",
      "primitives": [
        {
          "attributes": {
            "NORMAL": 5,
            "POSITION": 4,
            "TEXCOORD_0": 6
          },
          "indices": 7,
          "material": 1,
          "mode": 4
        }
      ]
    },
    {
      "name": "DoorLeft_T_graffiti0_0",
      "primitives": [
        {
          "attributes": {
            "NORMAL": 9,
            "POSITION": 8,
            "TEXCOORD_0": 10
          },
          "indices": 11,
          "material": 2,
          "mode": 4
        }
      ]
    },
    {
      "name": "DoorLeft_T_wood_0",
      "primitives": [
        {
          "attributes": {
            "NORMAL": 13,
            "POSITION": 12,
            "TEXCOORD_0": 14
          },
          "indices": 15,
          "material": 0,
          "mode": 4
        }
      ]
    },
    {
      "name": "DoorLeft_T_metal_0",
      "primitives": [
        {
          "attributes": {
            "NORMAL": 17,
            "POSITION": 16,
            "TEXCOORD_0": 18
          },
          "indices": 19,
          "material": 1,
          "mode": 4
        }
      ]
    },
    {
      "name": "Latch_T_metal_0",
      "primitives": [
        {
          "attributes": {
            "NORMAL": 21,
            "POSITION": 20,
            "TEXCOORD_0": 22
          },
          "indices": 23,
          "material": 1,
          "mode": 4
        }
      ]
    },
    {
      "name": "DoorPostRight_T_wood_0",
      "primitives": [
        {
          "attributes": {
            "NORMAL": 25,
            "POSITION": 24,
            "TEXCOORD_0": 26
          },
          "indices": 27,
          "material": 0,
          "mode": 4
        }
      ]
    },
    {
      "name": "DoorPostRight_T_metal_0",
      "primitives": [
        {
          "attributes": {
            "NORMAL": 29,
            "POSITION": 28,
            "TEXCOORD_0": 30
          },
          "indices": 31,
          "material": 1,
          "mode": 4
        }
      ]
    },
    {
      "name": "DoorRight_T_wood_0",
      "primitives": [
        {
          "attributes": {
            "NORMAL": 33,
            "POSITION": 32,
            "TEXCOORD_0": 34
          },
          "indices": 35,
          "material": 0,
          "mode": 4
        }
      ]
    },
    {
      "name": "DoorRight_T_metal_0",
      "primitives": [
        {
          "attributes": {
            "NORMAL": 37,
            "POSITION": 36,
            "TEXCOORD_0": 38
          },
          "indices": 39,
          "material": 1,
          "mode": 4
        }
      ]
    },
    {
      "name": "DoorRight_T_graffiti0_0",
      "primitives": [
        {
          "attributes": {
            "NORMAL": 41,
            "POSITION": 40,
            "TEXCOORD_0": 42
          },
          "indices": 43,
          "material": 2,
          "mode": 4
        }
      ]
    },
    {
      "name": "Post_wood_T_wood_0",
      "primitives": [
        {
          "attributes": {
            "NORMAL": 45,
            "POSITION": 44,
            "TEXCOORD_0": 46
          },
          "indices": 47,
          "material": 0,
          "mode": 4
        }
      ]
    },
    {
      "name": "Post_concrete_T_concrete_0",
      "primitives": [
        {
          "attributes": {
            "NORMAL": 49,
            "POSITION": 48,
            "TEXCOORD_0": 50
          },
          "indices": 51,
          "material": 3,
          "mode": 4
        }
      ]
    },
    {
      "name": "PanelStyle_A_T_graffiti8_0",
      "primitives": [
        {
          "attributes": {
            "NORMAL": 53,
            "POSITION": 52,
            "TEXCOORD_0": 54
          },
          "indices": 55,
          "material": 4,
          "mode": 4
        }
      ]
    },
    {
      "name": "PanelStyle_A_T_wood_0",
      "primitives": [
        {
          "attributes": {
            "NORMAL": 57,
            "POSITION": 56,
            "TEXCOORD_0": 58
          },
          "indices": 59,
          "material": 0,
          "mode": 4
        }
      ]
    },
    {
      "name": "PanelStyle_B_T_wood_0",
      "primitives": [
        {
          "attributes": {
            "NORMAL": 61,
            "POSITION": 60,
            "TEXCOORD_0": 62
          },
          "indices": 63,
          "material": 0,
          "mode": 4
        }
      ]
    },
    {
      "name": "PanelStyle_B_T_graffiti7_0",
      "primitives": [
        {
          "attributes": {
            "NORMAL": 65,
            "POSITION": 64,
            "TEXCOORD_0": 66
          },
          "indices": 67,
          "material": 5,
          "mode": 4
        }
      ]
    },
    {
      "name": "Example_Fence_sections__not_for_use__T_concrete_0",
      "primitives": [
        {
          "attributes": {
            "NORMAL": 69,
            "POSITION": 68,
            "TEXCOORD_0": 70
          },
          "indices": 71,
          "material": 3,
          "mode": 4
        }
      ]
    },
    {
      "name": "Example_Fence_sections__not_for_use__T_wood_0",
      "primitives": [
        {
          "attributes": {
            "NORMAL": 73,
            "POSITION": 72,
            "TEXCOORD_0": 74
          },
          "indices": 75,
          "material": 0,
          "mode": 4
        }
      ]
    },
    {
      "name": "Example_Fence_sections__not_for_use__T_graffiti0_0",
      "primitives": [
        {
          "attributes": {
            "NORMAL": 77,
            "POSITION": 76,
            "TEXCOORD_0": 78
          },
          "indices": 79,
          "material": 2,
          "mode": 4
        }
      ]
    },
    {
      "name": "Example_Fence_sections__not_for_use__T_graffiti2_0",
      "primitives": [
        {
          "attributes": {
            "NORMAL": 81,
            "POSITION": 80,
            "TEXCOORD_0": 82
          },
          "indices": 83,
          "material": 6,
          "mode": 4
        }
      ]
    },
    {
      "name": "Example_Fence_sections__not_for_use__T_graffiti6_0",
      "primitives": [
        {
          "attributes": {
            "NORMAL": 85,
            "POSITION": 84,
            "TEXCOORD_0": 86
          },
          "indices": 87,
          "material": 7,
          "mode": 4
        }
      ]
    },
    {
      "name": "Example_Fence_sections__not_for_use__T_graffiti5_0",
      "primitives": [
        {
          "attributes": {
            "NORMAL": 89,
            "POSITION": 88,
            "TEXCOORD_0": 90
          },
          "indices": 91,
          "material": 8,
          "mode": 4
        }
      ]
    },
    {
      "name": "Example_Fence_sections__not_for_use__T_graffiti4_0",
      "primitives": [
        {
          "attributes": {
            "NORMAL": 93,
            "POSITION": 92,
            "TEXCOORD_0": 94
          },
          "indices": 95,
          "material": 9,
          "mode": 4
        }
      ]
    },
    {
      "name": "Example_Fence_sections__not_for_use__T_graffiti3_0",
      "primitives": [
        {
          "attributes": {
            "NORMAL": 97,
            "POSITION": 96,
            "TEXCOORD_0": 98
          },
          "indices": 99,
          "material": 10,
          "mode": 4
        }
      ]
    },
    {
      "name": "Example_Fence_sections__not_for_use__T_graffiti9_0",
      "primitives": [
        {
          "attributes": {
            "NORMAL": 101,
            "POSITION": 100,
            "TEXCOORD_0": 102
          },
          "indices": 103,
          "material": 11,
          "mode": 4
        }
      ]
    },
    {
      "name": "Example_Fence_sections__not_for_use__T_graffiti1_0",
      "primitives": [
        {
          "attributes": {
            "NORMAL": 105,
            "POSITION": 104,
            "TEXCOORD_0": 106
          },
          "indices": 107,
          "material": 12,
          "mode": 4
        }
      ]
    },
    {
      "name": "Example_Fence_sections__not_for_use__T_graffiti7_0",
      "primitives": [
        {
          "attributes": {
            "NORMAL": 109,
            "POSITION": 108,
            "TEXCOORD_0": 110
          },
          "indices": 111,
          "material": 5,
          "mode": 4
        }
      ]
    },
    {
      "name": "Example_Fence_sections__not_for_use__T_graffiti8_0",
      "primitives": [
        {
          "attributes": {
            "NORMAL": 113,
            "POSITION": 112,
            "TEXCOORD_0": 114
          },
          "indices": 115,
          "material": 4,
          "mode": 4
        }
      ]
    },
    {
      "name": "Example_Fence_sections__not_for_use__T_metal_0",
      "primitives": [
        {
          "attributes": {
            "NORMAL": 117,
            "POSITION": 116,
            "TEXCOORD_0": 118
          },
          "indices": 119,
          "material": 1,
          "mode": 4
        }
      ]
    },
    {
      "name": "Example_Fence_sections__not_for_use__T_ground_0",
      "primitives": [
        {
          "attributes": {
            "NORMAL": 121,
            "POSITION": 120,
            "TEXCOORD_0": 122
          },
          "indices": 123,
          "material": 13,
          "mode": 4
        }
      ]
    },
    {
      "name": "Example_Fence_sections__not_for_use__T_title_0",
      "primitives": [
        {
          "attributes": {
            "NORMAL": 125,
            "POSITION": 124,
            "TEXCOORD_0": 126
          },
          "indices": 127,
          "material": 14,
          "mode": 4
        }
      ]
    }
  ],
  "nodes": [
    {
      "children": [
        1
      ],
      "matrix": [
        1.0,
        0.0,
        0.0,
        0.0,
        0.0,
        2.220446049250313e-16,
        -1.0,
        0.0,
        0.0,
        1.0,
        2.220446049250313e-16,
        0.0,
        0.0,
        0.0,
        0.0,
        1.0
      ],
      "name": "Sketchfab_model"
    },
    {
      "children": [
        2
      ],
      "matrix": [
        0.009999999776482582,
        0.0,
        0.0,
        0.0,
        0.0,
        0.0,
        0.009999999776482582,
        0.0,
        0.0,
        -0.009999999776482582,
        0.0,
        0.0,
        0.0,
        0.0,
        0.0,
        1.0
      ],
      "name": "JunkYardFence.fbx"
    },
    {
      "children": [
        3,
        12,
        19,
        21,
        23,
        26,
        29
      ],
      "name": "RootNode"
    },
    {
      "children": [
        4,
        5,
        6
      ],
      "matrix": [
        4.440892098500626e-16,
        0.0,
        -1.0,
        0.0,
        0.0,
        1.0,
        0.0,
        0.0,
        1.0,
        0.0,
        4.440892098500626e-16,
        0.0,
        -820.0316772460938,
        -20.87967300415039,
        -71.11016082763672,
        1.0
      ],
      "name": "DoorPostLeft"
    },
    {
      "mesh": 0,
      "name": "DoorPostLeft_T_wood_0"
    },
    {
      "mesh": 1,
      "name": "DoorPostLeft_T_metal_0"
    },
    {
      "children": [
        7,
        8,
        9,
        10
      ],
      "name": "DoorLeft"
    },
    {
      "mesh": 2,
      "name": "DoorLeft_T_graffiti0_0"
    },
    {
      "mesh": 3,
      "name": "DoorLeft_T_wood_0"
    },
    {
      "mesh": 4,
      "name": "DoorLeft_T_metal_0"
    },
    {
      "children": [
        11
      ],
      "name": "Latch"
    },
    {
      "mesh": 5,
      "name": "Latch_T_metal_0"
    },
    {
      "children": [
        13,
        14,
        15
      ],
      "matrix": [
        4.440892098500626e-16,
        0.0,
        -1.0,
        0.0,
        0.0,
        1.0,
        0.0,
        0.0,
        1.0,
        0.0,
        4.440892098500626e-16,
        0.0,
        -820.0316772460938,
        -20.87967300415039,
        -68.81216430664063,
        1.0
      ],
      "name": "DoorPostRight"
    },
    {
      "mesh": 6,
      "name": "DoorPostRight_T_wood_0"
    },
    {
      "mesh": 7,
      "name": "DoorPostRight_T_metal_0"
    },
    {
      "children": [
        16,
        17,
        18
      ],
      "matrix": [
        1.0,
        0.0,
        0.0,
        0.0,
        0.0,
        1.0,
        0.0,
        0.0,
        0.0,
        0.0,
        1.0,
        0.0,
        -1.4210854715202004e-14,
        0.0,
        0.0,
        1.0
      ],
      "name": "DoorRight"
    },
    {
      "mesh": 8,
      "name": "DoorRight_T_wood_0"
    },
    {
      "mesh": 9,
      "name": "DoorRight_T_metal_0"
    },
    {
      "mesh": 10,
      "name": "DoorRight_T_graffiti0_0"
    },
    {
      "children": [
        20
      ],
      "matrix": [
        4.440892098500626e-16,
        0.0,
        -1.0,
        0.0,
        0.0,
        1.0,
        0.0,
        0.0,
        1.0,
        0.0,
        4.440892098500626e-16,
        0.0,
        -904.5776977539063,
        -20.87967300415039,
        -68.81216430664063,
        1.0
      ],
      "name": "Post_wood"
    },
    {
      "mesh": 11,
      "name": "Post_wood_T_wood_0"
    },
    {
      "children": [
        22
      ],
      "matrix": [
        4.440892098500626e-16,
        0.0,
        -1.0,
        0.0,
        0.0,
        1.0,
        0.0,
        0.0,
        1.0,
        0.0,
        4.440892098500626e-16,
        0.0,
        -821.244384765625,
        -20.87967300415039,
        -68.81216430664063,
        1.0
      ],
      "name": "Post_concrete"
    },
    {
      "mesh": 12,
      "name": "Post_concrete_T_concrete_0"
    },
    {
      "children": [
        24,
        25
      ],
      "matrix": [
        4.218847493575595e-15,
        0.0,
        1.0,
        0.0,
        0.0,
        1.0,
        0.0,
        0.0,
        -1.0,
        0.0,
        4.218847493575595e-15,
        0.0,
        579.9683227539063,
        -20.87967300415039,
        -70.85343170166016,
        1.0
      ],
      "name": "PanelStyle_A"
    },
    {
      "mesh": 13,
      "name": "PanelStyle_A_T_graffiti8_0"
    },
    {
      "mesh": 14,
      "name": "PanelStyle_A_T_wood_0"
    },
    {
      "children": [
        27,
        28
      ],
      "matrix": [
        4.218847493575595e-15,
        0.0,
        1.0,
        0.0,
        0.0,
        1.0,
        0.0,
        0.0,
        -1.0,
        0.0,
        4.218847493575595e-15,
        0.0,
        -2220.03173828125,
        -20.87967300415039,
        -70.85343170166016,
        1.0
      ],
      "name": "PanelStyle_B"
    },
    {
      "mesh": 15,
      "name": "PanelStyle_B_T_wood_0"
    },
    {
      "mesh": 16,
      "name": "PanelStyle_B_T_graffiti7_0"
    },
    {
      "children": [
        30,
        31,
        32,
        33,
        34,
        35,
        36,
        37,
        38,
        39,
        40,
        41,
        42,
        43,
        44
      ],
      "name": "Example_Fence_sections__not_for_use_"
    },
    {
      "mesh": 17,
      "name": "Example_Fence_sections__not_for_use__T_concrete_0"
    },
    {
      "mesh": 18,
      "name": "Example_Fence_sections__not_for_use__T_wood_0"
    },
    {
      "mesh": 19,
      "name": "Example_Fence_sections__not_for_use__T_graffiti0_0"
    },
    {
      "mesh": 20,
      "name": "Example_Fence_sections__not_for_use__T_graffiti2_0"
    },
    {
      "mesh": 21,
      "name": "Example_Fence_sections__not_for_use__T_graffiti6_0"
    },
    {
      "mesh": 22,
      "name": "Example_Fence_sections__not_for_use__T_graffiti5_0"
    },
    {
      "mesh": 23,
      "name": "Example_Fence_sections__not_for_use__T_graffiti4_0"
    },
    {
      "mesh": 24,
      "name": "Example_Fence_sections__not_for_use__T_graffiti3_0"
    },
    {
      "mesh": 25,
      "name": "Example_Fence_sections__not_for_use__T_graffiti9_0"
    },
    {
      "mesh": 26,
      "name": "Example_Fence_sections__not_for_use__T_graffiti1_0"
    },
    {
      "mesh": 27,
      "name": "Example_Fence_sections__not_for_use__T_graffiti7_0"
    },
    {
      "mesh": 28,
      "name": "Example_Fence_sections__not_for_use__T_graffiti8_0"
    },
    {
      "mesh": 29,
      "name": "Example_Fence_sections__not_for_use__T_metal_0"
    },
    {
      "mesh": 30,
      "name": "Example_Fence_sections__not_for_use__T_ground_0"
    },
    {
      "mesh": 31,
      "name": "Example_Fence_sections__not_for_use__T_title_0"
    }
  ],
  "samplers": [
    {
      "magFilter": 9729,
      "minFilter": 9987,
      "wrapS": 10497,
      "wrapT": 10497
    }
  ],
  "scene": 0,
  "scenes": [
    {
      "name": "Sketchfab_Scene",
      "nodes": [
        0
      ]
    }
  ],
  "textures": [
    {
      "sampler": 0,
      "source": 0
    },
    {
      "sampler": 0,
      "source": 1
    },
    {
      "sampler": 0,
      "source": 2
    },
    {
      "sampler": 0,
      "source": 3
    },
    {
      "sampler": 0,
      "source": 4
    },
    {
      "sampler": 0,
      "source": 5
    },
    {
      "sampler": 0,
      "source": 6
    },
    {
      "sampler": 0,
      "source": 7
    },
    {
      "sampler": 0,
      "source": 8
    },
    {
      "sampler": 0,
      "source": 9
    },
    {
      "sampler": 0,
      "source": 10
    },
    {
      "sampler": 0,
      "source": 11
    },
    {
      "sampler": 0,
      "source": 12
    },
    {
      "sampler": 0,
      "source": 13
    },
    {
      "sampler": 0,
      "source": 14
    }
  ]
}
