{
  "accessors": [
    {
      "bufferView": 3,
      "componentType": 5126,
      "count": 418,
      "max": [
        1.96711003780365,
        -16.94477081298828,
        15.720780372619629
      ],
      "min": [
        -1.96711003780365,
        -18.851009368896484,
        13.746049880981445
      ],
      "type": "VEC3"
    },
    {
      "bufferView": 3,
      "byteOffset": 5016,
      "componentType": 5126,
      "count": 418,
      "max": [
        0.9998988509178162,
        0.9999127388000488,
        0.9999861121177673
      ],
      "min": [
        -0.9998988509178162,
        -0.9998329877853394,
        -0.9999861121177673
      ],
      "type": "VEC3"
    },
    {
      "bufferView": 1,
      "componentType": 5125,
      "count": 2400,
      "type": "SCALAR"
    },
    {
      "bufferView": 3,
      "byteOffset": 10032,
      "componentType": 5126,
      "count": 32,
      "max": [
        1.610859990119934,
        -18.633020401000977,
        15.170149803161621
      ],
      "min": [
        -1.610859990119934,
        -18.851009368896484,
        14.299180030822754
      ],
      "type": "VEC3"
    },
    {
      "bufferView": 3,
      "byteOffset": 10416,
      "componentType": 5126,
      "count": 32,
      "max": [
        0.5005407333374023,
        -0.8639236688613892,
        0.26936620473861694
      ],
      "min": [
        -0.5005407333374023,
        -0.9998329877853394,
        -0.2664962112903595
      ],
      "type": "VEC3"
    },
    {
      "bufferView": 1,
      "byteOffset": 9600,
      "componentType": 5125,
      "count": 84,
      "type": "SCALAR"
    },
    {
      "bufferView": 3,
      "byteOffset": 10800,
      "componentType": 5126,
      "count": 52,
      "max": [
        0.9431300163269043,
        -0.956059992313385,
        0.9001200199127197
      ],
      "min": [
        -0.9431300163269043,
        -2.2800099849700928,
        0.09706000238656998
      ],
      "type": "VEC3"
    },
    {
      "bufferView": 3,
      "byteOffset": 11424,
      "componentType": 5126,
      "count": 52,
      "max": [
        0.722080409526825,
        0.515097439289093,
        0.8195092082023621
      ],
      "min": [
        -0.722080409526825,
        -0.9103487730026245,
        -0.8671474456787109
      ],
      "type": "VEC3"
    },
    {
      "bufferView": 1,
      "byteOffset": 9936,
      "componentType": 5125,
      "count": 288,
      "type": "SCALAR"
    },
    {
      "bufferView": 3,
      "byteOffset": 12048,
      "componentType": 5126,
      "count": 244,
      "max": [
        0.9363399744033813,
        -0.3750399947166443,
        1.8625999689102173
      ],
      "min": [
        -0.9363399744033813,
        -1.5564199686050415,
        1.3139899969100952
      ],
      "type": "VEC3"
    },
    {
      "bufferView": 3,
      "byteOffset": 14976,
      "componentType": 5126,
      "count": 244,
      "max": [
        0.9647136330604553,
        0.9832296967506409,
        0.9986252188682556
      ],
      "min": [
        -0.9647136330604553,
        -0.9756032228469849,
        -0.9966688752174377
      ],
      "type": "VEC3"
    },
    {
      "bufferView": 1,
      "byteOffset": 11088,
      "componentType": 5125,
      "count": 1440,
      "type": "SCALAR"
    },
    {
      "bufferView": 3,
      "byteOffset": 17904,
      "componentType": 5126,
      "count": 16,
      "max": [
        14.3837890625,
        4.325856685638428,
        -4.022824764251709
      ],
      "min": [
        0.9821289777755737,
        -0.4438774883747101,
        -4.080255031585693
      ],
      "type": "VEC3"
    },
    {
      "bufferView": 3,
      "byteOffset": 18096,
      "componentType": 5126,
      "count": 16,
      "max": [
        0.0,
        0.012039718218147755,
        -0.9999275207519531
      ],
      "min": [
        0.0,
        0.012039718218147755,
        -0.9999275207519531
      ],
      "type": "VEC3"
    },
    {
      "bufferView": 4,
      "componentType": 5126,
      "count": 16,
      "max": [
        0.999961793422699,
        0.17037983238697052,
        0.002051473828032613,
        1.0
      ],
      "min": [
        0.9720314741134644,
        -0.23483382165431976,
        -0.0028275379445403814,
        1.0
      ],
      "type": "VEC4"
    },
    {
      "bufferView": 2,
      "componentType": 5126,
      "count": 16,
      "max": [
        0.996209979057312,
        0.8551499843597412
      ],
      "min": [
        0.011300000362098217,
        0.029069999232888222
      ],
      "type": "VEC2"
    },
    {
      "bufferView": 1,
      "byteOffset": 16848,
      "componentType": 5125,
      "count": 42,
      "type": "SCALAR"
    },
    {
      "bufferView": 3,
      "byteOffset": 18288,
      "componentType": 5126,
      "count": 16,
      "max": [
        14.3837890625,
        4.323775768280029,
        -3.8499772548675537
      ],
      "min": [
        0.9821289777755737,
        -0.44595867395401,
        -3.907407522201538
      ],
      "type": "VEC3"
    },
    {
      "bufferView": 3,
      "byteOffset": 18480,
      "componentType": 5126,
      "count": 16,
      "max": [
        0.0,
        -0.012039718218147755,
        0.9999275207519531
      ],
      "min": [
        0.0,
        -0.012039718218147755,
        0.9999275207519531
      ],
      "type": "VEC3"
    },
    {
      "bufferView": 4,
      "byteOffset": 256,
      "componentType": 5126,
      "count": 16,
      "max": [
        -0.9828079342842102,
        0.16299180686473846,
        0.0019625176209956408,
        1.0
      ],
      "min": [
        -0.9999967813491821,
        -0.1846175640821457,
        -0.002222904469817877,
        1.0
      ],
      "type": "VEC4"
    },
    {
      "bufferView": 2,
      "byteOffset": 128,
      "componentType": 5126,
      "count": 16,
      "max": [
        0.976610004901886,
        0.8069400191307068
      ],
      "min": [
        -0.0006300000241026282,
        0.056370001286268234
      ],
      "type": "VEC2"
    },
    {
      "bufferView": 1,
      "byteOffset": 17016,
      "componentType": 5125,
      "count": 42,
      "type": "SCALAR"
    },
    {
      "bufferView": 3,
      "byteOffset": 18672,
      "componentType": 5126,
      "count": 16,
      "max": [
        30.798858642578125,
        0.9504405856132507,
        8.736735343933105
      ],
      "min": [
        2.102954387664795,
        -9.262622833251953,
        8.613763809204102
      ],
      "type": "VEC3"
    },
    {
      "bufferView": 3,
      "byteOffset": 18864,
      "componentType": 5126,
      "count": 16,
      "max": [
        0.0,
        -0.012039718218147755,
        0.9999274611473083
      ],
      "min": [
        0.0,
        -0.012039718218147755,
        0.9999274611473083
      ],
      "type": "VEC3"
    },
    {
      "bufferView": 4,
      "byteOffset": 512,
      "componentType": 5126,
      "count": 16,
      "max": [
        0.9999618530273438,
        0.23483406007289886,
        0.0028275407385081053,
        1.0
      ],
      "min": [
        0.97203129529953,
        -0.17038004100322723,
        -0.002051476389169693,
        1.0
      ],
      "type": "VEC4"
    },
    {
      "bufferView": 2,
      "byteOffset": 256,
      "componentType": 5126,
      "count": 16,
      "max": [
        0.996209979057312,
        0.8551499843597412
      ],
      "min": [
        0.011300000362098217,
        0.029069999232888222
      ],
      "type": "VEC2"
    },
    {
      "bufferView": 1,
      "byteOffset": 17184,
      "componentType": 5125,
      "count": 42,
      "type": "SCALAR"
    },
    {
      "bufferView": 3,
      "byteOffset": 19056,
      "componentType": 5126,
      "count": 16,
      "max": [
        30.798858642578125,
        0.954896867275238,
        8.366629600524902
      ],
      "min": [
        2.102954387664795,
        -9.258166313171387,
        8.243659019470215
      ],
      "type": "VEC3"
    },
    {
      "bufferView": 3,
      "byteOffset": 19248,
      "componentType": 5126,
      "count": 16,
      "max": [
        0.0,
        0.012039718218147755,
        -0.9999274611473083
      ],
      "min": [
        0.0,
        0.012039718218147755,
        -0.9999274611473083
      ],
      "type": "VEC3"
    },
    {
      "bufferView": 4,
      "byteOffset": 768,
      "componentType": 5126,
      "count": 16,
      "max": [
        -0.9828079342842102,
        0.1846178025007248,
        0.0022229072637856007,
        1.0
      ],
      "min": [
        -0.9999966621398926,
        -0.1629919856786728,
        -0.0019625199493020773,
        1.0
      ],
      "type": "VEC4"
    },
    {
      "bufferView": 2,
      "byteOffset": 384,
      "componentType": 5126,
      "count": 16,
      "max": [
        0.976610004901886,
        0.8069400191307068
      ],
      "min": [
        -0.0006300000241026282,
        0.056370001286268234
      ],
      "type": "VEC2"
    },
    {
      "bufferView": 1,
      "byteOffset": 17352,
      "componentType": 5125,
      "count": 42,
      "type": "SCALAR"
    },
    {
      "bufferView": 3,
      "byteOffset": 19440,
      "componentType": 5126,
      "count": 183,
      "max": [
        3.5534191131591797,
        3.3508410453796387,
        21.141393661499023
      ],
      "min": [
        -3.5534191131591797,
        -9.880044937133789,
        9.587431907653809
      ],
      "type": "VEC3"
    },
    {
      "bufferView": 3,
      "byteOffset": 21636,
      "componentType": 5126,
      "count": 183,
      "max": [
        0.9967194199562073,
        0.9991512298583984,
        0.9748048186302185
      ],
      "min": [
        -0.9967194199562073,
        -0.9939880967140198,
        -0.9832702279090881
      ],
      "type": "VEC3"
    },
    {
      "bufferView": 1,
      "byteOffset": 17520,
      "componentType": 5125,
      "count": 1032,
      "type": "SCALAR"
    },
    {
      "bufferView": 3,
      "byteOffset": 23832,
      "componentType": 5126,
      "count": 338,
      "max": [
        5.1276655197143555,
        -2.744239091873169,
        13.39338207244873
      ],
      "min": [
        -5.1276655197143555,
        -14.080501556396484,
        -19.68430519104004
      ],
      "type": "VEC3"
    },
    {
      "bufferView": 3,
      "byteOffset": 27888,
      "componentType": 5126,
      "count": 338,
      "max": [
        0.9997003674507141,
        0.9985416531562805,
        0.9704726338386536
      ],
      "min": [
        -0.9997003674507141,
        -0.9982476234436035,
        -0.9765893816947937
      ],
      "type": "VEC3"
    },
    {
      "bufferView": 1,
      "byteOffset": 21648,
      "componentType": 5125,
      "count": 1968,
      "type": "SCALAR"
    },
    {
      "bufferView": 3,
      "byteOffset": 31944,
      "componentType": 5126,
      "count": 268,
      "max": [
        5.220273017883301,
        -9.96350383758545,
        13.365242004394531
      ],
      "min": [
        -5.220273017883301,
        -14.142912864685059,
        8.403557777404785
      ],
      "type": "VEC3"
    },
    {
      "bufferView": 3,
      "byteOffset": 35160,
      "componentType": 5126,
      "count": 268,
      "max": [
        0.9776670336723328,
        0.9272047877311707,
        0.8302024006843567
      ],
      "min": [
        -0.9776670336723328,
        -0.965058445930481,
        -0.7968068718910217
      ],
      "type": "VEC3"
    },
    {
      "bufferView": 1,
      "byteOffset": 29520,
      "componentType": 5125,
      "count": 1572,
      "type": "SCALAR"
    },
    {
      "bufferView": 3,
      "byteOffset": 38376,
      "componentType": 5126,
      "count": 8,
      "max": [
        1.029862642288208,
        -0.31688013672828674,
        21.141393661499023
      ],
      "min": [
        -1.029862642288208,
        -1.051937460899353,
        20.802261352539063
      ],
      "type": "VEC3"
    },
    {
      "bufferView": 3,
      "byteOffset": 38472,
      "componentType": 5126,
      "count": 8,
      "max": [
        0.48344939947128296,
        0.22305943071842194,
        0.9748048186302185
      ],
      "min": [
        -0.48344939947128296,
        -0.25553277134895325,
        0.8715189099311829
      ],
      "type": "VEC3"
    },
    {
      "bufferView": 1,
      "byteOffset": 35808,
      "componentType": 5125,
      "count": 18,
      "type": "SCALAR"
    },
    {
      "bufferView": 3,
      "byteOffset": 38568,
      "componentType": 5126,
      "count": 24,
      "max": [
        2.3414885997772217,
        0.23780840635299683,
        20.977317810058594
      ],
      "min": [
        -2.3414885997772217,
        -0.8594477772712708,
        19.862266540527344
      ],
      "type": "VEC3"
    },
    {
      "bufferView": 3,
      "byteOffset": 38856,
      "componentType": 5126,
      "count": 24,
      "max": [
        0.765172004699707,
        0.5382384657859802,
        0.9759668707847595
      ],
      "min": [
        -0.765172004699707,
        -0.4597339928150177,
        0.6379332542419434
      ],
      "type": "VEC3"
    },
    {
      "bufferView": 1,
      "byteOffset": 35880,
      "componentType": 5125,
      "count": 96,
      "type": "SCALAR"
    },
    {
      "bufferView": 3,
      "byteOffset": 39144,
      "componentType": 5126,
      "count": 30,
      "max": [
        1.0132253170013428,
        -2.935518741607666,
        -18.949434280395508
      ],
      "min": [
        -1.0132253170013428,
        -6.865950584411621,
        -21.846385955810547
      ],
      "type": "VEC3"
    },
    {
      "bufferView": 3,
      "byteOffset": 39504,
      "componentType": 5126,
      "count": 30,
      "max": [
        0.8173128366470337,
        0.996616780757904,
        0.9053917527198792
      ],
      "min": [
        -0.8173128366470337,
        -0.8579819798469543,
        -0.9953685402870178
      ],
      "type": "VEC3"
    },
    {
      "bufferView": 1,
      "byteOffset": 36264,
      "componentType": 5125,
      "count": 156,
      "type": "SCALAR"
    },
    {
      "bufferView": 5,
      "componentType": 5126,
      "count": 39,
      "max": [
        1.0,
        0.5698739290237427,
        0.25894850492477417,
        0.0,
        0.5698752403259277,
        1.0,
        0.5704801082611084,
        0.0,
        0.1598910093307495,
        0.5705599784851074,
        1.0,
        0.0,
        2.4229700565338135,
        1.5546799898147583,
        5.210569858551025,
        1.0
      ],
      "min": [
        -0.570609986782074,
        -0.5698739290237427,
        -0.25894850492477417,
        0.0,
        -0.5698752403259277,
        -0.4997699558734894,
        -0.5705599784851074,
        0.0,
        -0.1598910093307495,
        -0.5704801082611084,
        -0.5706113576889038,
        0.0,
        -2.4229700565338135,
        -4.01200008392334,
        -3.959320068359375,
        1.0
      ],
      "type": "MAT4"
    },
    {
      "bufferView": 0,
      "componentType": 5123,
      "count": 16,
      "type": "VEC4"
    },
    {
      "bufferView": 4,
      "byteOffset": 1024,
      "componentType": 5126,
      "count": 16,
      "max": [
        1.0,
        0.5,
        0.0,
        0.0
      ],
      "min": [
        0.5,
        0.0,
        0.0,
        0.0
      ],
      "type": "VEC4"
    },
    {
      "bufferView": 0,
      "byteOffset": 128,
      "componentType": 5123,
      "count": 16,
      "type": "VEC4"
    },
    {
      "bufferView": 4,
      "byteOffset": 1280,
      "componentType": 5126,
      "count": 16,
      "max": [
        1.0,
        0.5,
        0.0,
        0.0
      ],
      "min": [
        0.5,
        0.0,
        0.0,
        0.0
      ],
      "type": "VEC4"
    },
    {
      "bufferView": 0,
      "byteOffset": 256,
      "componentType": 5123,
      "count": 16,
      "type": "VEC4"
    },
    {
      "bufferView": 4,
      "byteOffset": 1536,
      "componentType": 5126,
      "count": 16,
      "max": [
        1.0,
        0.5,
        0.0,
        0.0
      ],
      "min": [
        0.5,
        0.0,
        0.0,
        0.0
      ],
      "type": "VEC4"
    },
    {
      "bufferView": 0,
      "byteOffset": 384,
      "componentType": 5123,
      "count": 16,
      "type": "VEC4"
    },
    {
      "bufferView": 4,
      "byteOffset": 1792,
      "componentType": 5126,
      "count": 16,
      "max": [
        1.0,
        0.5,
        0.0,
        0.0
      ],
      "min": [
        0.5,
        0.0,
        0.0,
        0.0
      ],
      "type": "VEC4"
    },
    {
      "bufferView": 0,
      "byteOffset": 512,
      "componentType": 5123,
      "count": 183,
      "type": "VEC4"
    },
    {
      "bufferView": 4,
      "byteOffset": 2048,
      "componentType": 5126,
      "count": 183,
      "max": [
        1.0,
        0.3112221658229828,
        0.2701687812805176,
        0.1477728635072708
      ],
      "min": [
        0.3042120933532715,
        0.0,
        0.0,
        0.0
      ],
      "type": "VEC4"
    },
    {
      "bufferView": 0,
      "byteOffset": 1976,
      "componentType": 5123,
      "count": 338,
      "type": "VEC4"
    },
    {
      "bufferView": 4,
      "byteOffset": 4976,
      "componentType": 5126,
      "count": 338,
      "max": [
        1.0,
        0.4981338381767273,
        0.314947247505188,
        0.24047626554965973
      ],
      "min": [
        0.2668033540248871,
        0.0,
        0.0,
        0.0
      ],
      "type": "VEC4"
    },
    {
      "bufferView": 0,
      "byteOffset": 4680,
      "componentType": 5123,
      "count": 268,
      "type": "VEC4"
    },
    {
      "bufferView": 4,
      "byteOffset": 10384,
      "componentType": 5126,
      "count": 268,
      "max": [
        1.0,
        0.49722450971603394,
        0.0,
        0.0
      ],
      "min": [
        0.5027754902839661,
        0.0,
        0.0,
        0.0
      ],
      "type": "VEC4"
    },
    {
      "bufferView": 0,
      "byteOffset": 6824,
      "componentType": 5123,
      "count": 8,
      "type": "VEC4"
    },
    {
      "bufferView": 4,
      "byteOffset": 14672,
      "componentType": 5126,
      "count": 8,
      "max": [
        1.0,
        0.0,
        0.0,
        0.0
      ],
      "min": [
        1.0,
        0.0,
        0.0,
        0.0
      ],
      "type": "VEC4"
    },
    {
      "bufferView": 0,
      "byteOffset": 6888,
      "componentType": 5123,
      "count": 24,
      "type": "VEC4"
    },
    {
      "bufferView": 4,
      "byteOffset": 14800,
      "componentType": 5126,
      "count": 24,
      "max": [
        1.0,
        0.0,
        0.0,
        0.0
      ],
      "min": [
        1.0,
        0.0,
        0.0,
        0.0
      ],
      "type": "VEC4"
    },
    {
      "bufferView": 0,
      "byteOffset": 7080,
      "componentType": 5123,
      "count": 30,
      "type": "VEC4"
    },
    {
      "bufferView": 4,
      "byteOffset": 15184,
      "componentType": 5126,
      "count": 30,
      "max": [
        1.0,
        0.27020812034606934,
        0.0,
        0.0
      ],
      "min": [
        0.7297919392585754,
        0.0,
        0.0,
        0.0
      ],
      "type": "VEC4"
    },
    {
      "bufferView": 6,
      "componentType": 5126,
      "count": 114,
      "max": [
        8.833330154418945
      ],
      "min": [
        0.0
      ],
      "type": "SCALAR"
    },
    {
      "bufferView": 7,
      "componentType": 5126,
      "count": 114,
      "max": [
        21.674219131469727,
        21.67462921142578,
        8.970359802246094
      ],
      "min": [
        -21.675020217895508,
        -21.675390243530273,
        8.970359802246094
      ],
      "type": "VEC3"
    },
    {
      "bufferView": 6,
      "byteOffset": 456,
      "componentType": 5126,
      "count": 114,
      "max": [
        8.833330154418945
      ],
      "min": [
        0.0
      ],
      "type": "SCALAR"
    },
    {
      "bufferView": 8,
      "componentType": 5126,
      "count": 114,
      "max": [
        0.6098300218582153,
        0.6098300218582153,
        0.7924500107765198,
        0.7924399971961975
      ],
      "min": [
        0.006870000157505274,
        -0.609790027141571,
        -0.792389988899231,
        0.00892999954521656
      ],
      "type": "VEC4"
    },
    {
      "bufferView": 6,
      "byteOffset": 912,
      "componentType": 5126,
      "count": 201,
      "max": [
        8.833330154418945
      ],
      "min": [
        0.0
      ],
      "type": "SCALAR"
    },
    {
      "bufferView": 7,
      "byteOffset": 1368,
      "componentType": 5126,
      "count": 201,
      "max": [
        0.07718999683856964,
        -1.6426299810409546,
        0.5835924744606018
      ],
      "min": [
        -0.03692999854683876,
        -1.8574609756469727,
        0.4729156494140625
      ],
      "type": "VEC3"
    },
    {
      "bufferView": 6,
      "byteOffset": 1716,
      "componentType": 5126,
      "count": 201,
      "max": [
        8.833330154418945
      ],
      "min": [
        0.0
      ],
      "type": "SCALAR"
    },
    {
      "bufferView": 8,
      "byteOffset": 1824,
      "componentType": 5126,
      "count": 201,
      "max": [
        0.7800995111465454,
        0.03553660213947296,
        0.034788258373737335,
        0.8000891208648682
      ],
      "min": [
        0.5998866558074951,
        -0.03553660213947296,
        -0.034788258373737335,
        0.6256487965583801
      ],
      "type": "VEC4"
    },
    {
      "bufferView": 6,
      "byteOffset": 2520,
      "componentType": 5126,
      "count": 201,
      "max": [
        8.833330154418945
      ],
      "min": [
        0.0
      ],
      "type": "SCALAR"
    },
    {
      "bufferView": 8,
      "byteOffset": 5040,
      "componentType": 5126,
      "count": 201,
      "max": [
        0.10447108745574951,
        0.0012416504323482513,
        0.04971439391374588,
        0.9999822974205017
      ],
      "min": [
        -0.10699462890625,
        -0.0019466308876872063,
        -0.04971439391374588,
        0.994259238243103
      ],
      "type": "VEC4"
    },
    {
      "bufferView": 6,
      "byteOffset": 3324,
      "componentType": 5126,
      "count": 201,
      "max": [
        8.833330154418945
      ],
      "min": [
        0.0
      ],
      "type": "SCALAR"
    },
    {
      "bufferView": 8,
      "byteOffset": 8256,
      "componentType": 5126,
      "count": 201,
      "max": [
        0.07624062150716782,
        0.0020804121159017086,
        0.0260937362909317,
        1.0000029802322388
      ],
      "min": [
        -0.057850442826747894,
        -0.0020804121159017086,
        -0.0260937362909317,
        0.9970903396606445
      ],
      "type": "VEC4"
    },
    {
      "bufferView": 6,
      "byteOffset": 4128,
      "componentType": 5126,
      "count": 158,
      "max": [
        8.833330154418945
      ],
      "min": [
        0.0
      ],
      "type": "SCALAR"
    },
    {
      "bufferView": 8,
      "byteOffset": 11472,
      "componentType": 5126,
      "count": 158,
      "max": [
        0.01671568490564823,
        0.00896458700299263,
        0.02459339238703251,
        0.999981701374054
      ],
      "min": [
        -0.2446761280298233,
        -0.00896458700299263,
        -0.02459339238703251,
        0.9695342779159546
      ],
      "type": "VEC4"
    },
    {
      "bufferView": 6,
      "byteOffset": 4760,
      "componentType": 5126,
      "count": 213,
      "max": [
        8.833330154418945
      ],
      "min": [
        0.0
      ],
      "type": "SCALAR"
    },
    {
      "bufferView": 8,
      "byteOffset": 14000,
      "componentType": 5126,
      "count": 213,
      "max": [
        -0.22184807062149048,
        0.018837889656424522,
        0.018179845064878464,
        0.9747889041900635
      ],
      "min": [
        -0.5970333814620972,
        -0.018837889656424522,
        -0.018179845064878464,
        0.8022178411483765
      ],
      "type": "VEC4"
    },
    {
      "bufferView": 6,
      "byteOffset": 5612,
      "componentType": 5126,
      "count": 1,
      "max": [
        0.0
      ],
      "min": [
        0.0
      ],
      "type": "SCALAR"
    },
    {
      "bufferView": 8,
      "byteOffset": 17408,
      "componentType": 5126,
      "count": 1,
      "max": [
        -0.5220797061920166,
        -0.4449802041053772,
        0.6685675978660583,
        -0.2871284484863281
      ],
      "min": [
        -0.5220797061920166,
        -0.4449802041053772,
        0.6685675978660583,
        -0.2871284484863281
      ],
      "type": "VEC4"
    },
    {
      "bufferView": 6,
      "byteOffset": 5616,
      "componentType": 5126,
      "count": 212,
      "max": [
        8.833330154418945
      ],
      "min": [
        0.0
      ],
      "type": "SCALAR"
    },
    {
      "bufferView": 8,
      "byteOffset": 17424,
      "componentType": 5126,
      "count": 212,
      "max": [
        0.5526414513587952,
        0.7228570580482483,
        0.6669160723686218,
        0.6937028169631958
      ],
      "min": [
        0.16874143481254578,
        0.24752385914325714,
        -0.20651249587535858,
        0.36821842193603516
      ],
      "type": "VEC4"
    },
    {
      "bufferView": 6,
      "byteOffset": 6464,
      "componentType": 5126,
      "count": 213,
      "max": [
        8.833330154418945
      ],
      "min": [
        0.0
      ],
      "type": "SCALAR"
    },
    {
      "bufferView": 8,
      "byteOffset": 20816,
      "componentType": 5126,
      "count": 213,
      "max": [
        -0.04967716336250305,
        0.9666064381599426,
        -0.16290557384490967,
        -0.11290646344423294
      ],
      "min": [
        -0.21095651388168335,
        0.44415605068206787,
        -0.8637051582336426,
        -0.19146552681922913
      ],
      "type": "VEC4"
    },
    {
      "bufferView": 6,
      "byteOffset": 7316,
      "componentType": 5126,
      "count": 213,
      "max": [
        8.833330154418945
      ],
      "min": [
        0.0
      ],
      "type": "SCALAR"
    },
    {
      "bufferView": 8,
      "byteOffset": 24224,
      "componentType": 5126,
      "count": 213,
      "max": [
        0.6579061150550842,
        0.04817249998450279,
        0.08611974865198135,
        0.9977746605873108
      ],
      "min": [
        0.06570781767368317,
        0.00026314574643038213,
        -0.011349153704941273,
        0.7530302405357361
      ],
      "type": "VEC4"
    },
    {
      "bufferView": 6,
      "byteOffset": 8168,
      "componentType": 5126,
      "count": 1,
      "max": [
        0.0
      ],
      "min": [
        0.0
      ],
      "type": "SCALAR"
    },
    {
      "bufferView": 8,
      "byteOffset": 27632,
      "componentType": 5126,
      "count": 1,
      "max": [
        0.5220797061920166,
        -0.4449802041053772,
        0.6685675978660583,
        0.2871284484863281
      ],
      "min": [
        0.5220797061920166,
        -0.4449802041053772,
        0.6685675978660583,
        0.2871284484863281
      ],
      "type": "VEC4"
    },
    {
      "bufferView": 6,
      "byteOffset": 8172,
      "componentType": 5126,
      "count": 213,
      "max": [
        8.833330154418945
      ],
      "min": [
        0.0
      ],
      "type": "SCALAR"
    },
    {
      "bufferView": 8,
      "byteOffset": 27648,
      "componentType": 5126,
      "count": 213,
      "max": [
        0.5114156603813171,
        -0.29958146810531616,
        0.17692601680755615,
        0.6966211795806885
      ],
      "min": [
        0.10179679840803146,
        -0.7482649087905884,
        -0.6485804915428162,
        0.3961687684059143
      ],
      "type": "VEC4"
    },
    {
      "bufferView": 6,
      "byteOffset": 9024,
      "componentType": 5126,
      "count": 213,
      "max": [
        8.833330154418945
      ],
      "min": [
        0.0
      ],
      "type": "SCALAR"
    },
    {
      "bufferView": 8,
      "byteOffset": 31056,
      "componentType": 5126,
      "count": 213,
      "max": [
        0.23602080345153809,
        0.965082585811615,
        -0.21985022723674774,
        0.12056620419025421
      ],
      "min": [
        0.07853738218545914,
        0.4411444664001465,
        -0.8629809021949768,
        0.06803932040929794
      ],
      "type": "VEC4"
    },
    {
      "bufferView": 6,
      "byteOffset": 9876,
      "componentType": 5126,
      "count": 213,
      "max": [
        8.833330154418945
      ],
      "min": [
        0.0
      ],
      "type": "SCALAR"
    },
    {
      "bufferView": 8,
      "byteOffset": 34464,
      "componentType": 5126,
      "count": 213,
      "max": [
        0.5995952486991882,
        -0.0068636490032076836,
        0.01345942635089159,
        0.9931438565254211
      ],
      "min": [
        0.10466378182172775,
        -0.0295561533421278,
        -0.04331565648317337,
        0.8001236915588379
      ],
      "type": "VEC4"
    },
    {
      "bufferView": 6,
      "byteOffset": 10728,
      "componentType": 5126,
      "count": 1,
      "max": [
        0.0
      ],
      "min": [
        0.0
      ],
      "type": "SCALAR"
    },
    {
      "bufferView": 8,
      "byteOffset": 37872,
      "componentType": 5126,
      "count": 1,
      "max": [
        0.31184935569763184,
        0.6854737997055054,
        -0.4076108932495117,
        0.5164581537246704
      ],
      "min": [
        0.31184935569763184,
        0.6854737997055054,
        -0.4076108932495117,
        0.5164581537246704
      ],
      "type": "VEC4"
    },
    {
      "bufferView": 6,
      "byteOffset": 10732,
      "componentType": 5126,
      "count": 201,
      "max": [
        8.833330154418945
      ],
      "min": [
        0.0
      ],
      "type": "SCALAR"
    },
    {
      "bufferView": 8,
      "byteOffset": 37888,
      "componentType": 5126,
      "count": 201,
      "max": [
        0.39368218183517456,
        -0.08891947567462921,
        0.7898483276367188,
        0.518463134765625
      ],
      "min": [
        0.04568764567375183,
        -0.5364459753036499,
        0.6927976608276367,
        0.46701985597610474
      ],
      "type": "VEC4"
    },
    {
      "bufferView": 6,
      "byteOffset": 11536,
      "componentType": 5126,
      "count": 201,
      "max": [
        8.833330154418945
      ],
      "min": [
        0.0
      ],
      "type": "SCALAR"
    },
    {
      "bufferView": 8,
      "byteOffset": 41104,
      "componentType": 5126,
      "count": 201,
      "max": [
        0.12638971209526062,
        0.7928453683853149,
        0.8832878470420837,
        -0.04655790701508522
      ],
      "min": [
        0.09979943931102753,
        0.4499799609184265,
        0.5861243605613708,
        -0.13174112141132355
      ],
      "type": "VEC4"
    },
    {
      "bufferView": 6,
      "byteOffset": 12340,
      "componentType": 5126,
      "count": 201,
      "max": [
        8.833330154418945
      ],
      "min": [
        0.0
      ],
      "type": "SCALAR"
    },
    {
      "bufferView": 8,
      "byteOffset": 44320,
      "componentType": 5126,
      "count": 201,
      "max": [
        0.8614148497581482,
        -0.04671335592865944,
        -0.0036760929506272078,
        0.9250814914703369
      ],
      "min": [
        0.3707864284515381,
        -0.08419092744588852,
        -0.012006213888525963,
        0.5055762529373169
      ],
      "type": "VEC4"
    },
    {
      "bufferView": 6,
      "byteOffset": 13144,
      "componentType": 5126,
      "count": 201,
      "max": [
        8.833330154418945
      ],
      "min": [
        0.0
      ],
      "type": "SCALAR"
    },
    {
      "bufferView": 8,
      "byteOffset": 47536,
      "componentType": 5126,
      "count": 201,
      "max": [
        0.9992321133613586,
        0.08429358899593353,
        0.022153370082378387,
        0.48591291904449463
      ],
      "min": [
        0.8740003705024719,
        -0.08429358899593353,
        -0.022153370082378387,
        -0.14082902669906616
      ],
      "type": "VEC4"
    },
    {
      "bufferView": 6,
      "byteOffset": 13948,
      "componentType": 5126,
      "count": 201,
      "max": [
        8.833330154418945
      ],
      "min": [
        0.0
      ],
      "type": "SCALAR"
    },
    {
      "bufferView": 8,
      "byteOffset": 50752,
      "componentType": 5126,
      "count": 201,
      "max": [
        0.21507030725479126,
        0.04619676619768143,
        0.08398226648569107,
        1.0000027418136597
      ],
      "min": [
        -0.08754222095012665,
        -0.04619676619768143,
        -0.08398226648569107,
        0.9718878269195557
      ],
      "type": "VEC4"
    },
    {
      "bufferView": 6,
      "byteOffset": 14752,
      "componentType": 5126,
      "count": 174,
      "max": [
        8.833330154418945
      ],
      "min": [
        0.0
      ],
      "type": "SCALAR"
    },
    {
      "bufferView": 8,
      "byteOffset": 53968,
      "componentType": 5126,
      "count": 174,
      "max": [
        0.2384943962097168,
        0.00449422188103199,
        0.10442947596311569,
        0.999923586845398
      ],
      "min": [
        -0.09801636636257172,
        -0.00449422188103199,
        -0.10442947596311569,
        0.9655001163482666
      ],
      "type": "VEC4"
    },
    {
      "bufferView": 6,
      "byteOffset": 15448,
      "componentType": 5126,
      "count": 174,
      "max": [
        8.833330154418945
      ],
      "min": [
        0.0
      ],
      "type": "SCALAR"
    },
    {
      "bufferView": 8,
      "byteOffset": 56752,
      "componentType": 5126,
      "count": 174,
      "max": [
        0.23423491418361664,
        0.04792251065373421,
        0.10255853086709976,
        0.9999983310699463
      ],
      "min": [
        -0.06739380955696106,
        -0.04792251065373421,
        -0.10255853086709976,
        0.9655647873878479
      ],
      "type": "VEC4"
    },
    {
      "bufferView": 6,
      "byteOffset": 16144,
      "componentType": 5126,
      "count": 201,
      "max": [
        8.833330154418945
      ],
      "min": [
        0.0
      ],
      "type": "SCALAR"
    },
    {
      "bufferView": 8,
      "byteOffset": 59536,
      "componentType": 5126,
      "count": 201,
      "max": [
        0.09440723061561584,
        0.08487601578235626,
        0.08745957911014557,
        0.999988317489624
      ],
      "min": [
        -0.13990379869937897,
        -0.08487601578235626,
        -0.08745957911014557,
        0.9880499839782715
      ],
      "type": "VEC4"
    },
    {
      "bufferView": 6,
      "byteOffset": 16948,
      "componentType": 5126,
      "count": 201,
      "max": [
        8.833330154418945
      ],
      "min": [
        0.0
      ],
      "type": "SCALAR"
    },
    {
      "bufferView": 8,
      "byteOffset": 62752,
      "componentType": 5126,
      "count": 201,
      "max": [
        0.1343194991350174,
        0.10994220525026321,
        0.07035353034734726,
        0.9999808669090271
      ],
      "min": [
        -0.11690735816955566,
        -0.10994220525026321,
        -0.07035353034734726,
        0.9822990894317627
      ],
      "type": "VEC4"
    },
    {
      "bufferView": 6,
      "byteOffset": 17752,
      "componentType": 5126,
      "count": 1,
      "max": [
        0.0
      ],
      "min": [
        0.0
      ],
      "type": "SCALAR"
    },
    {
      "bufferView": 8,
      "byteOffset": 65968,
      "componentType": 5126,
      "count": 1,
      "max": [
        0.31184935569763184,
        -0.6854737997055054,
        0.4076108932495117,
        0.5164581537246704
      ],
      "min": [
        0.31184935569763184,
        -0.6854737997055054,
        0.4076108932495117,
        0.5164581537246704
      ],
      "type": "VEC4"
    },
    {
      "bufferView": 6,
      "byteOffset": 17756,
      "componentType": 5126,
      "count": 201,
      "max": [
        8.833330154418945
      ],
      "min": [
        0.0
      ],
      "type": "SCALAR"
    },
    {
      "bufferView": 8,
      "byteOffset": 65984,
      "componentType": 5126,
      "count": 201,
      "max": [
        -0.04638935625553131,
        -0.07953518629074097,
        0.7911549210548401,
        -0.4622246026992798
      ],
      "min": [
        -0.4007764458656311,
        -0.5351709127426147,
        0.6931135058403015,
        -0.5183473825454712
      ],
      "type": "VEC4"
    },
    {
      "bufferView": 6,
      "byteOffset": 18560,
      "componentType": 5126,
      "count": 201,
      "max": [
        8.833330154418945
      ],
      "min": [
        0.0
      ],
      "type": "SCALAR"
    },
    {
      "bufferView": 8,
      "byteOffset": 69200,
      "componentType": 5126,
      "count": 201,
      "max": [
        -0.09407181292772293,
        0.7909530401229858,
        0.9002697467803955,
        0.1312667280435562
      ],
      "min": [
        -0.13015241920948029,
        0.415935218334198,
        0.5885927677154541,
        0.03823544830083847
      ],
      "type": "VEC4"
    },
    {
      "bufferView": 6,
      "byteOffset": 19364,
      "componentType": 5126,
      "count": 201,
      "max": [
        8.833330154418945
      ],
      "min": [
        0.0
      ],
      "type": "SCALAR"
    },
    {
      "bufferView": 8,
      "byteOffset": 72416,
      "componentType": 5126,
      "count": 201,
      "max": [
        0.8602626919746399,
        0.08411216735839844,
        0.010976670309901237,
        0.9457768797874451
      ],
      "min": [
        0.3136405646800995,
        0.048609066754579544,
        0.0027011989150196314,
        0.507429838180542
      ],
      "type": "VEC4"
    },
    {
      "bufferView": 6,
      "byteOffset": 20168,
      "componentType": 5126,
      "count": 201,
      "max": [
        8.833330154418945
      ],
      "min": [
        0.0
      ],
      "type": "SCALAR"
    },
    {
      "bufferView": 7,
      "byteOffset": 3780,
      "componentType": 5126,
      "count": 201,
      "max": [
        0.6650999784469604,
        -2.3756892681121826,
        1.3112354278564453
      ],
      "min": [
        0.6479799747467041,
        -3.679666757583618,
        -0.8616611957550049
      ],
      "type": "VEC3"
    },
    {
      "bufferView": 6,
      "byteOffset": 20972,
      "componentType": 5126,
      "count": 145,
      "max": [
        8.833330154418945
      ],
      "min": [
        0.0
      ],
      "type": "SCALAR"
    },
    {
      "bufferView": 8,
      "byteOffset": 75632,
      "componentType": 5126,
      "count": 145,
      "max": [
        0.004211524501442909,
        0.7249313592910767,
        0.9994418025016785,
        0.0
      ],
      "min": [
        -0.015778332948684692,
        -0.5172201991081238,
        0.6888169646263123,
        -0.035070013254880905
      ],
      "type": "VEC4"
    },
    {
      "bufferView": 6,
      "byteOffset": 21552,
      "componentType": 5126,
      "count": 213,
      "max": [
        8.833330154418945
      ],
      "min": [
        0.0
      ],
      "type": "SCALAR"
    },
    {
      "bufferView": 7,
      "byteOffset": 6192,
      "componentType": 5126,
      "count": 213,
      "max": [
        0.8603100180625916,
        -2.7624330520629883,
        3.493957281112671
      ],
      "min": [
        0.7428100109100342,
        -3.6917922496795654,
        1.445979118347168
      ],
      "type": "VEC3"
    },
    {
      "bufferView": 6,
      "byteOffset": 22404,
      "componentType": 5126,
      "count": 174,
      "max": [
        8.833330154418945
      ],
      "min": [
        0.0
      ],
      "type": "SCALAR"
    },
    {
      "bufferView": 8,
      "byteOffset": 77952,
      "componentType": 5126,
      "count": 174,
      "max": [
        5.3650732297683135e-05,
        0.7319769859313965,
        0.9982357025146484,
        0.07473883032798767
      ],
      "min": [
        -0.08571568876504898,
        -0.4830038547515869,
        0.6813281774520874,
        -0.05157366022467613
      ],
      "type": "VEC4"
    },
    {
      "bufferView": 6,
      "byteOffset": 23100,
      "componentType": 5126,
      "count": 119,
      "max": [
        8.833330154418945
      ],
      "min": [
        0.0
      ],
      "type": "SCALAR"
    },
    {
      "bufferView": 7,
      "byteOffset": 8748,
      "componentType": 5126,
      "count": 119,
      "max": [
        0.02012999914586544,
        -1.6292623281478882,
        1.2268140316009521
      ],
      "min": [
        0.02012999914586544,
        -1.7688487768173218,
        1.0410637855529785
      ],
      "type": "VEC3"
    },
    {
      "bufferView": 6,
      "byteOffset": 23576,
      "componentType": 5126,
      "count": 75,
      "max": [
        8.833330154418945
      ],
      "min": [
        0.0
      ],
      "type": "SCALAR"
    },
    {
      "bufferView": 8,
      "byteOffset": 80736,
      "componentType": 5126,
      "count": 75,
      "max": [
        0.7099165320396423,
        0.0,
        0.004233615007251501,
        0.7330455780029297
      ],
      "min": [
        0.6801819801330566,
        -0.0056003304198384285,
        -1.3569318070949521e-05,
        0.7042890191078186
      ],
      "type": "VEC4"
    },
    {
      "bufferView": 6,
      "byteOffset": 23876,
      "componentType": 5126,
      "count": 201,
      "max": [
        8.833330154418945
      ],
      "min": [
        0.0
      ],
      "type": "SCALAR"
    },
    {
      "bufferView": 7,
      "byteOffset": 10176,
      "componentType": 5126,
      "count": 201,
      "max": [
        -0.6650999784469604,
        -2.315234422683716,
        1.3116596937179565
      ],
      "min": [
        -0.6822199821472168,
        -3.6505377292633057,
        -0.8751530051231384
      ],
      "type": "VEC3"
    },
    {
      "bufferView": 6,
      "byteOffset": 24680,
      "componentType": 5126,
      "count": 151,
      "max": [
        8.833330154418945
      ],
      "min": [
        0.0
      ],
      "type": "SCALAR"
    },
    {
      "bufferView": 8,
      "byteOffset": 81936,
      "componentType": 5126,
      "count": 151,
      "max": [
        0.015758665278553963,
        0.7249313592910767,
        0.9993670582771301,
        0.03593109920620918
      ],
      "min": [
        -0.006710326299071312,
        -0.5172201991081238,
        0.6888169646263123,
        -0.0
      ],
      "type": "VEC4"
    },
    {
      "bufferView": 6,
      "byteOffset": 25284,
      "componentType": 5126,
      "count": 213,
      "max": [
        8.833330154418945
      ],
      "min": [
        0.0
      ],
      "type": "SCALAR"
    },
    {
      "bufferView": 7,
      "byteOffset": 12588,
      "componentType": 5126,
      "count": 213,
      "max": [
        -0.7453662753105164,
        -2.7624573707580566,
        3.493973970413208
      ],
      "min": [
        -0.8639793395996094,
        -3.7012271881103516,
        1.4566256999969482
      ],
      "type": "VEC3"
    },
    {
      "bufferView": 6,
      "byteOffset": 26136,
      "componentType": 5126,
      "count": 175,
      "max": [
        8.833330154418945
      ],
      "min": [
        0.0
      ],
      "type": "SCALAR"
    },
    {
      "bufferView": 8,
      "byteOffset": 84352,
      "componentType": 5126,
      "count": 175,
      "max": [
        0.13178320229053497,
        0.7319114804267883,
        0.9969974160194397,
        0.09908737987279892
      ],
      "min": [
        0.01820695772767067,
        -0.4640987813472748,
        0.6797112822532654,
        -0.1245039775967598
      ],
      "type": "VEC4"
    },
    {
      "bufferView": 6,
      "byteOffset": 26836,
      "componentType": 5126,
      "count": 200,
      "max": [
        8.833330154418945
      ],
      "min": [
        0.0
      ],
      "type": "SCALAR"
    },
    {
      "bufferView": 7,
      "byteOffset": 15144,
      "componentType": 5126,
      "count": 200,
      "max": [
        0.8068878054618835,
        -1.2450616359710693,
        2.4973268508911133
      ],
      "min": [
        0.8064877986907959,
        -1.5156443119049072,
        2.208768367767334
      ],
      "type": "VEC3"
    },
    {
      "bufferView": 6,
      "byteOffset": 27636,
      "componentType": 5126,
      "count": 213,
      "max": [
        8.833330154418945
      ],
      "min": [
        0.0
      ],
      "type": "SCALAR"
    },
    {
      "bufferView": 8,
      "byteOffset": 87152,
      "componentType": 5126,
      "count": 213,
      "max": [
        0.7312079668045044,
        0.755835771560669,
        -0.09847666323184967,
        0.8222144842147827
      ],
      "min": [
        0.0018087808275595307,
        -0.2200406938791275,
        -0.6348059773445129,
        0.33193057775497437
      ],
      "type": "VEC4"
    },
    {
      "bufferView": 6,
      "byteOffset": 28488,
      "componentType": 5126,
      "count": 213,
      "max": [
        8.833330154418945
      ],
      "min": [
        0.0
      ],
      "type": "SCALAR"
    },
    {
      "bufferView": 8,
      "byteOffset": 90560,
      "componentType": 5126,
      "count": 213,
      "max": [
        0.22439350187778473,
        0.15393972396850586,
        0.27442604303359985,
        0.9946210980415344
      ],
      "min": [
        -0.11945235729217529,
        -0.11786025017499924,
        -0.8563138842582703,
        0.4880833625793457
      ],
      "type": "VEC4"
    },
    {
      "bufferView": 6,
      "byteOffset": 29340,
      "componentType": 5126,
      "count": 213,
      "max": [
        8.833330154418945
      ],
      "min": [
        0.0
      ],
      "type": "SCALAR"
    },
    {
      "bufferView": 8,
      "byteOffset": 93968,
      "componentType": 5126,
      "count": 213,
      "max": [
        0.1889081597328186,
        0.05214300751686096,
        -0.3047448396682739,
        0.9502761960029602
      ],
      "min": [
        -0.10517178475856781,
        -0.06663013994693756,
        -0.3899998366832733,
        0.9121715426445007
      ],
      "type": "VEC4"
    },
    {
      "bufferView": 6,
      "byteOffset": 30192,
      "componentType": 5126,
      "count": 200,
      "max": [
        8.833330154418945
      ],
      "min": [
        0.0
      ],
      "type": "SCALAR"
    },
    {
      "bufferView": 7,
      "byteOffset": 17544,
      "componentType": 5126,
      "count": 200,
      "max": [
        -0.8064889907836914,
        -1.2450616359710693,
        2.4973268508911133
      ],
      "min": [
        -0.8068863749504089,
        -1.5156443119049072,
        2.208768367767334
      ],
      "type": "VEC3"
    },
    {
      "bufferView": 6,
      "byteOffset": 30992,
      "componentType": 5126,
      "count": 213,
      "max": [
        8.833330154418945
      ],
      "min": [
        0.0
      ],
      "type": "SCALAR"
    },
    {
      "bufferView": 8,
      "byteOffset": 97376,
      "componentType": 5126,
      "count": 213,
      "max": [
        0.7265864610671997,
        0.2200406938791275,
        0.6336510181427002,
        0.8416929244995117
      ],
      "min": [
        -0.005951315630227327,
        -0.7561950087547302,
        0.09965240210294724,
        0.3315838873386383
      ],
      "type": "VEC4"
    },
    {
      "bufferView": 6,
      "byteOffset": 31844,
      "componentType": 5126,
      "count": 213,
      "max": [
        8.833330154418945
      ],
      "min": [
        0.0
      ],
      "type": "SCALAR"
    },
    {
      "bufferView": 8,
      "byteOffset": 100784,
      "componentType": 5126,
      "count": 213,
      "max": [
        0.22459401190280914,
        0.11786025017499924,
        0.8563138842582703,
        0.9939377307891846
      ],
      "min": [
        -0.12700255215168,
        -0.15393972396850586,
        -0.2741529047489166,
        0.4881201684474945
      ],
      "type": "VEC4"
    },
    {
      "bufferView": 6,
      "byteOffset": 32696,
      "componentType": 5126,
      "count": 213,
      "max": [
        8.833330154418945
      ],
      "min": [
        0.0
      ],
      "type": "SCALAR"
    },
    {
      "bufferView": 8,
      "byteOffset": 104192,
      "componentType": 5126,
      "count": 213,
      "max": [
        0.1889081597328186,
        0.06666271388530731,
        0.3899998366832733,
        0.9502872228622437
      ],
      "min": [
        -0.10526943951845169,
        -0.05214300751686096,
        0.3047448396682739,
        0.9121715426445007
      ],
      "type": "VEC4"
    },
    {
      "bufferView": 6,
      "byteOffset": 33548,
      "componentType": 5126,
      "count": 1,
      "max": [
        0.0
      ],
      "min": [
        0.0
      ],
      "type": "SCALAR"
    },
    {
      "bufferView": 8,
      "byteOffset": 107600,
      "componentType": 5126,
      "count": 1,
      "max": [
        0.7028399705886841,
        0.0,
        0.0,
        0.7113500237464905
      ],
      "min": [
        0.7028399705886841,
        0.0,
        0.0,
        0.7113500237464905
      ],
      "type": "VEC4"
    }
  ],
  "animations": [
    {
      "channels": [
        {
          "sampler": 0,
          "target": {
            "node": 64,
            "path": "translation"
          }
        },
        {
          "sampler": 1,
          "target": {
            "node": 64,
            "path": "rotation"
          }
        },
        {
          "sampler": 2,
          "target": {
            "node": 4,
            "path": "translation"
          }
        },
        {
          "sampler": 3,
          "target": {
            "node": 4,
            "path": "rotation"
          }
        },
        {
          "sampler": 4,
          "target": {
            "node": 5,
            "path": "rotation"
          }
        },
        {
          "sampler": 5,
          "target": {
            "node": 6,
            "path": "rotation"
          }
        },
        {
          "sampler": 6,
          "target": {
            "node": 7,
            "path": "rotation"
          }
        },
        {
          "sampler": 7,
          "target": {
            "node": 8,
            "path": "rotation"
          }
        },
        {
          "sampler": 8,
          "target": {
            "node": 16,
            "path": "rotation"
          }
        },
        {
          "sampler": 9,
          "target": {
            "node": 17,
            "path": "rotation"
          }
        },
        {
          "sampler": 10,
          "target": {
            "node": 18,
            "path": "rotation"
          }
        },
        {
          "sampler": 11,
          "target": {
            "node": 19,
            "path": "rotation"
          }
        },
        {
          "sampler": 12,
          "target": {
            "node": 20,
            "path": "rotation"
          }
        },
        {
          "sampler": 13,
          "target": {
            "node": 21,
            "path": "rotation"
          }
        },
        {
          "sampler": 14,
          "target": {
            "node": 22,
            "path": "rotation"
          }
        },
        {
          "sampler": 15,
          "target": {
            "node": 23,
            "path": "rotation"
          }
        },
        {
          "sampler": 16,
          "target": {
            "node": 24,
            "path": "rotation"
          }
        },
        {
          "sampler": 17,
          "target": {
            "node": 25,
            "path": "rotation"
          }
        },
        {
          "sampler": 18,
          "target": {
            "node": 26,
            "path": "rotation"
          }
        },
        {
          "sampler": 19,
          "target": {
            "node": 27,
            "path": "rotation"
          }
        },
        {
          "sampler": 20,
          "target": {
            "node": 28,
            "path": "rotation"
          }
        },
        {
          "sampler": 21,
          "target": {
            "node": 29,
            "path": "rotation"
          }
        },
        {
          "sampler": 22,
          "target": {
            "node": 30,
            "path": "rotation"
          }
        },
        {
          "sampler": 23,
          "target": {
            "node": 31,
            "path": "rotation"
          }
        },
        {
          "sampler": 24,
          "target": {
            "node": 32,
            "path": "rotation"
          }
        },
        {
          "sampler": 25,
          "target": {
            "node": 33,
            "path": "rotation"
          }
        },
        {
          "sampler": 26,
          "target": {
            "node": 34,
            "path": "rotation"
          }
        },
        {
          "sampler": 27,
          "target": {
            "node": 35,
            "path": "rotation"
          }
        },
        {
          "sampler": 28,
          "target": {
            "node": 36,
            "path": "rotation"
          }
        },
        {
          "sampler": 29,
          "target": {
            "node": 37,
            "path": "rotation"
          }
        },
        {
          "sampler": 30,
          "target": {
            "node": 38,
            "path": "translation"
          }
        },
        {
          "sampler": 31,
          "target": {
            "node": 38,
            "path": "rotation"
          }
        },
        {
          "sampler": 32,
          "target": {
            "node": 39,
            "path": "translation"
          }
        },
        {
          "sampler": 33,
          "target": {
            "node": 39,
            "path": "rotation"
          }
        },
        {
          "sampler": 34,
          "target": {
            "node": 40,
            "path": "translation"
          }
        },
        {
          "sampler": 35,
          "target": {
            "node": 40,
            "path": "rotation"
          }
        },
        {
          "sampler": 36,
          "target": {
            "node": 41,
            "path": "translation"
          }
        },
        {
          "sampler": 37,
          "target": {
            "node": 41,
            "path": "rotation"
          }
        },
        {
          "sampler": 38,
          "target": {
            "node": 42,
            "path": "translation"
          }
        },
        {
          "sampler": 39,
          "target": {
            "node": 42,
            "path": "rotation"
          }
        },
        {
          "sampler": 40,
          "target": {
            "node": 43,
            "path": "translation"
          }
        },
        {
          "sampler": 41,
          "target": {
            "node": 43,
            "path": "rotation"
          }
        },
        {
          "sampler": 42,
          "target": {
            "node": 44,
            "path": "rotation"
          }
        },
        {
          "sampler": 43,
          "target": {
            "node": 45,
            "path": "rotation"
          }
        },
        {
          "sampler": 44,
          "target": {
            "node": 46,
            "path": "translation"
          }
        },
        {
          "sampler": 45,
          "target": {
            "node": 46,
            "path": "rotation"
          }
        },
        {
          "sampler": 46,
          "target": {
            "node": 47,
            "path": "rotation"
          }
        },
        {
          "sampler": 47,
          "target": {
            "node": 48,
            "path": "rotation"
          }
        },
        {
          "sampler": 48,
          "target": {
            "node": 2,
            "path": "rotation"
          }
        }
      ],
      "name": "Take 01",
      "samplers": [
        {
          "input": 71,
          "interpolation": "LINEAR",
          "output": 72
        },
        {
          "input": 73,
          "interpolation": "LINEAR",
          "output": 74
        },
        {
          "input": 75,
          "interpolation": "LINEAR",
          "output": 76
        },
        {
          "input": 77,
          "interpolation": "LINEAR",
          "output": 78
        },
        {
          "input": 79,
          "interpolation": "LINEAR",
          "output": 80
        },
        {
          "input": 81,
          "interpolation": "LINEAR",
          "output": 82
        },
        {
          "input": 83,
          "interpolation": "LINEAR",
          "output": 84
        },
        {
          "input": 85,
          "interpolation": "LINEAR",
          "output": 86
        },
        {
          "input": 87,
          "interpolation": "LINEAR",
          "output": 88
        },
        {
          "input": 89,
          "interpolation": "LINEAR",
          "output": 90
        },
        {
          "input": 91,
          "interpolation": "LINEAR",
          "output": 92
        },
        {
          "input": 93,
          "interpolation": "LINEAR",
          "output": 94
        },
        {
          "input": 95,
          "interpolation": "LINEAR",
          "output": 96
        },
        {
          "input": 97,
          "interpolation": "LINEAR",
          "output": 98
        },
        {
          "input": 99,
          "interpolation": "LINEAR",
          "output": 100
        },
        {
          "input": 101,
          "interpolation": "LINEAR",
          "output": 102
        },
        {
          "input": 103,
          "interpolation": "LINEAR",
          "output": 104
        },
        {
          "input": 105,
          "interpolation": "LINEAR",
          "output": 106
        },
        {
          "input": 107,
          "interpolation": "LINEAR",
          "output": 108
        },
        {
          "input": 109,
          "interpolation": "LINEAR",
          "output": 110
        },
        {
          "input": 111,
          "interpolation": "LINEAR",
          "output": 112
        },
        {
          "input": 113,
          "interpolation": "LINEAR",
          "output": 114
        },
        {
          "input": 115,
          "interpolation": "LINEAR",
          "output": 116
        },
        {
          "input": 117,
          "interpolation": "LINEAR",
          "output": 118
        },
        {
          "input": 119,
          "interpolation": "LINEAR",
          "output": 120
        },
        {
          "input": 121,
          "interpolation": "LINEAR",
          "output": 122
        },
        {
          "input": 123,
          "interpolation": "LINEAR",
          "output": 124
        },
        {
          "input": 125,
          "interpolation": "LINEAR",
          "output": 126
        },
        {
          "input": 127,
          "interpolation": "LINEAR",
          "output": 128
        },
        {
          "input": 129,
          "interpolation": "LINEAR",
          "output": 130
        },
        {
          "input": 131,
          "interpolation": "LINEAR",
          "output": 132
        },
        {
          "input": 133,
          "interpolation": "LINEAR",
          "output": 134
        },
        {
          "input": 135,
          "interpolation": "LINEAR",
          "output": 136
        },
        {
          "input": 137,
          "interpolation": "LINEAR",
          "output": 138
        },
        {
          "input": 139,
          "interpolation": "LINEAR",
          "output": 140
        },
        {
          "input": 141,
          "interpolation": "LINEAR",
          "output": 142
        },
        {
          "input": 143,
          "interpolation": "LINEAR",
          "output": 144
        },
        {
          "input": 145,
          "interpolation": "LINEAR",
          "output": 146
        },
        {
          "input": 147,
          "interpolation": "LINEAR",
          "output": 148
        },
        {
          "input": 149,
          "interpolation": "LINEAR",
          "output": 150
        },
        {
          "input": 151,
          "interpolation": "LINEAR",
          "output": 152
        },
        {
          "input": 153,
          "interpolation": "LINEAR",
          "output": 154
        },
        {
          "input": 155,
          "interpolation": "LINEAR",
          "output": 156
        },
        {
          "input": 157,
          "interpolation": "LINEAR",
          "output": 158
        },
        {
          "input": 159,
          "interpolation": "LINEAR",
          "output": 160
        },
        {
          "input": 161,
          "interpolation": "LINEAR",
          "output": 162
        },
        {
          "input": 163,
          "interpolation": "LINEAR",
          "output": 164
        },
        {
          "input": 165,
          "interpolation": "LINEAR",
          "output": 166
        },
        {
          "input": 167,
          "interpolation": "LINEAR",
          "output": 168
        }
      ]
    }
  ],
  "asset": {
    "extras": {
      "author": "DreamNoms (https://sketchfab.com/DreamNoms)",
      "license": "CC-BY-4.0 (http://creativecommons.org/licenses/by/4.0/)",
      "source": "https://sketchfab.com/3d-models/gryphon-rigged-and-animated-0cb6c35a8500427694747768186854c7",
      "title": "Gryphon Rigged and Animated"
    },
    "generator": "Sketchfab-12.68.0",
    "version": "2.0"
  },
  "bufferViews": [
    {
      "buffer": 0,
      "byteLength": 7320,
      "byteStride": 8,
      "name": "shortBufferViews",
      "target": 34962
    },
    {
      "buffer": 0,
      "byteLength": 36888,
      "byteOffset": 7320,
      "name": "floatBufferViews",
      "target": 34963
    },
    {
      "buffer": 0,
      "byteLength": 512,
      "byteOffset": 44208,
      "byteStride": 8,
      "name": "floatBufferViews",
      "target": 34962
    },
    {
      "buffer": 0,
      "byteLength": 39864,
      "byteOffset": 44720,
      "byteStride": 12,
      "name": "floatBufferViews",
      "target": 34962
    },
    {
      "buffer": 0,
      "byteLength": 15664,
      "byteOffset": 84584,
      "byteStride": 16,
      "name": "floatBufferViews",
      "target": 34962
    },
    {
      "buffer": 0,
      "byteLength": 2496,
      "byteOffset": 100248,
      "name": "floatBufferViews"
    },
    {
      "buffer": 0,
      "byteLength": 33552,
      "byteOffset": 102744,
      "name": "floatBufferViews"
    },
    {
      "buffer": 0,
      "byteLength": 19944,
      "byteOffset": 136296,
      "byteStride": 12,
      "name": "floatBufferViews"
    },
    {
      "buffer": 0,
      "byteLength": 107616,
      "byteOffset": 156240,
      "byteStride": 16,
      "name": "floatBufferViews"
    }
  ],
  "buffers": [
    {
      "byteLength": 263856,
      "uri": "scene.bin"
    }
  ],
  "images": [
    {
      "uri": "textures/Material_baseColor.png"
    },
    {
      "uri": "textures/Material_normal.png"
    },
    {
      "uri": "textures/WingBack_baseColor.png"
    },
    {
      "uri": "textures/WingBack_normal.png"
    }
  ],
  "materials": [
    {
      "doubleSided": true,
      "name": "Pupil.002",
      "pbrMetallicRoughness": {
        "baseColorFactor": [
          1.0,
          0.850779116153717,
          0.1328683197498321,
          1.0
        ],
        "metallicFactor": 0.0,
        "roughnessFactor": 0.0
      }
    },
    {
      "doubleSided": true,
      "name": "EyeRim",
      "pbrMetallicRoughness": {
        "baseColorFactor": [
          0.0,
          0.0,
          0.0,
          1.0
        ],
        "metallicFactor": 0.0,
        "roughnessFactor": 0.6
      }
    },
    {
      "doubleSided": true,
      "name": "Talons",
      "pbrMetallicRoughness": {
        "baseColorFactor": [
          0.8000000715255737,
          0.45336428284645086,
          0.015066411346197144,
          1.0
        ],
        "metallicFactor": 0.0,
        "roughnessFactor": 0.6
      }
    },
    {
      "doubleSided": true,
      "name": "Brown",
      "pbrMetallicRoughness": {
        "baseColorFactor": [
          0.21952623128890988,
          0.10224173218011856,
          0.000910580740310249,
          1.0
        ],
        "metallicFactor": 0.0,
        "roughnessFactor": 0.6
      }
    },
    {
      "alphaMode": "BLEND",
      "doubleSided": true,
      "name": "Material",
      "normalTexture": {
        "index": 1
      },
      "pbrMetallicRoughness": {
        "baseColorTexture": {
          "index": 0
        },
        "metallicFactor": 0.0,
        "roughnessFactor": 0.0
      }
    },
    {
      "alphaMode": "BLEND",
      "doubleSided": true,
      "name": "WingBack",
      "normalTexture": {
        "index": 3
      },
      "pbrMetallicRoughness": {
        "baseColorTexture": {
          "index": 2
        },
        "metallicFactor": 0.0,
        "roughnessFactor": 0.6
      }
    },
    {
      "doubleSided": true,
      "name": "White",
      "pbrMetallicRoughness": {
        "baseColorFactor": [
          0.800000011920929,
          0.800000011920929,
          0.800000011920929,
          1.0
        ],
        "metallicFactor": 0.0,
        "roughnessFactor": 0.6
      }
    },
    {
      "doubleSided": true,
      "name": "Beak",
      "pbrMetallicRoughness": {
        "baseColorFactor": [
          0.8000000715255737,
          0.5876004099845886,
          0.0,
          1.0
        ],
        "metallicFactor": 0.0,
        "roughnessFactor": 0.6
      }
    },
    {
      "doubleSided": true,
      "name": "LayeringBack",
      "pbrMetallicRoughness": {
        "baseColorFactor": [
          0.14126330614089966,
          0.04518621414899826,
          0.0,
          1.0
        ],
        "metallicFactor": 0.0,
        "roughnessFactor": 0.6
      }
    }
  ],
  "meshes": [
    {
      "name": "Roundcube.002_0",
      "primitives": [
        {
          "attributes": {
            "NORMAL": 1,
            "POSITION": 0
          },
          "indices": 2,
          "material": 0,
          "mode": 4
        }
      ]
    },
    {
      "name": "Roundcube.002_1",
      "primitives": [
        {
          "attributes": {
            "NORMAL": 4,
            "POSITION": 3
          },
          "indices": 5,
          "material": 1,
          "mode": 4
        }
      ]
    },
    {
      "name": "Vert.006_0",
      "primitives": [
        {
          "attributes": {
            "NORMAL": 7,
            "POSITION": 6
          },
          "indices": 8,
          "material": 2,
          "mode": 4
        }
      ]
    },
    {
      "name": "Vert.004_0",
      "primitives": [
        {
          "attributes": {
            "NORMAL": 10,
            "POSITION": 9
          },
          "indices": 11,
          "material": 3,
          "mode": 4
        }
      ]
    },
    {
      "name": "Feathers.000",
      "primitives": [
        {
          "attributes": {
            "JOINTS_0": 51,
            "NORMAL": 13,
            "POSITION": 12,
            "TANGENT": 14,
            "TEXCOORD_0": 15,
            "TEXCOORD_1": 15,
            "WEIGHTS_0": 52
          },
          "indices": 16,
          "material": 4,
          "mode": 4
        }
      ]
    },
    {
      "name": "Feathers.000",
      "primitives": [
        {
          "attributes": {
            "JOINTS_0": 53,
            "NORMAL": 18,
            "POSITION": 17,
            "TANGENT": 19,
            "TEXCOORD_0": 20,
            "TEXCOORD_1": 20,
            "WEIGHTS_0": 54
          },
          "indices": 21,
          "material": 5,
          "mode": 4
        }
      ]
    },
    {
      "name": "Feathers.003",
      "primitives": [
        {
          "attributes": {
            "JOINTS_0": 55,
            "NORMAL": 23,
            "POSITION": 22,
            "TANGENT": 24,
            "TEXCOORD_0": 25,
            "TEXCOORD_1": 25,
            "WEIGHTS_0": 56
          },
          "indices": 26,
          "material": 4,
          "mode": 4
        }
      ]
    },
    {
      "name": "Feathers.003",
      "primitives": [
        {
          "attributes": {
            "JOINTS_0": 57,
            "NORMAL": 28,
            "POSITION": 27,
            "TANGENT": 29,
            "TEXCOORD_0": 30,
            "TEXCOORD_1": 30,
            "WEIGHTS_0": 58
          },
          "indices": 31,
          "material": 5,
          "mode": 4
        }
      ]
    },
    {
      "name": "Body.003",
      "primitives": [
        {
          "attributes": {
            "JOINTS_0": 59,
            "NORMAL": 33,
            "POSITION": 32,
            "WEIGHTS_0": 60
          },
          "indices": 34,
          "material": 6,
          "mode": 4
        }
      ]
    },
    {
      "name": "Body.003",
      "primitives": [
        {
          "attributes": {
            "JOINTS_0": 61,
            "NORMAL": 36,
            "POSITION": 35,
            "WEIGHTS_0": 62
          },
          "indices": 37,
          "material": 3,
          "mode": 4
        }
      ]
    },
    {
      "name": "Body.003",
      "primitives": [
        {
          "attributes": {
            "JOINTS_0": 63,
            "NORMAL": 39,
            "POSITION": 38,
            "WEIGHTS_0": 64
          },
          "indices": 40,
          "material": 2,
          "mode": 4
        }
      ]
    },
    {
      "name": "Body.003",
      "primitives": [
        {
          "attributes": {
            "JOINTS_0": 65,
            "NORMAL": 42,
            "POSITION": 41,
            "WEIGHTS_0": 66
          },
          "indices": 43,
          "material": 7,
          "mode": 4
        }
      ]
    },
    {
      "name": "Body.003",
      "primitives": [
        {
          "attributes": {
            "JOINTS_0": 67,
            "NORMAL": 45,
            "POSITION": 44,
            "WEIGHTS_0": 68
          },
          "indices": 46,
          "material": 1,
          "mode": 4
        }
      ]
    },
    {
      "name": "Body.003",
      "primitives": [
        {
          "attributes": {
            "JOINTS_0": 69,
            "NORMAL": 48,
            "POSITION": 47,
            "WEIGHTS_0": 70
          },
          "indices": 49,
          "material": 8,
          "mode": 4
        }
      ]
    }
  ],
  "nodes": [
    {
      "children": [
        1
      ],
      "matrix": [
        0.145294651389122,
        -2.3365161589360375e-17,
        -6.35145858111334e-33,
        0.0,
        2.5940540370595205e-33,
        5.562705505477812e-17,
        -0.145294651389122,
        0.0,
        2.3365161589360375e-17,
        0.145294651389122,
        5.562705505477812e-17,
        0.0,
        -7.502076581415956e-16,
        -8.88178419700125e-16,
        -6.661338147750941e-16,
        1.0
      ],
      "name": "Sketchfab_model"
    },
    {
      "children": [
        2,
        62,
        64,
        65
      ],
      "name": "Root"
    },
    {
      "children": [
        3,
        50,
        51,
        53,
        54,
        56,
        57,
        58,
        59,
        60,
        61,
        49,
        52,
        55
      ],
      "name": "CatArmature",
      "rotation": [
        0.7028389573097229,
        0.0,
        0.0,
        0.7113490104675293
      ],
      "scale": [
        1.752500057220459,
        1.752500057220459,
        1.752500057220459
      ],
      "translation": [
        -0.0,
        1.4471399784088135,
        6.541550159454346
      ]
    },
    {
      "children": [
        4,
        38,
        39,
        40,
        41,
        42,
        43,
        46
      ],
      "name": "CatArmature_rootJoint"
    },
    {
      "children": [
        5,
        24,
        28,
        34
      ],
      "name": "Bone_CatArmature",
      "rotation": [
        0.714590847492218,
        0.0,
        0.0,
        0.6995427012443542
      ],
      "scale": [
        1.0,
        0.9999964237213135,
        0.9999964237213135
      ],
      "translation": [
        0.02012999914586544,
        -1.6426299810409546,
        0.47360000014305115
      ]
    },
    {
      "children": [
        6
      ],
      "name": "Bone.003_CatArmature",
      "rotation": [
        -0.024111947044730186,
        0.0,
        0.0,
        0.9997093677520752
      ],
      "scale": [
        1.0,
        1.0000027418136597,
        1.0000027418136597
      ],
      "translation": [
        0.0,
        0.5689700245857239,
        0.0
      ]
    },
    {
      "children": [
        7,
        16,
        20
      ],
      "name": "Bone.002_CatArmature",
      "rotation": [
        -0.04913443326950073,
        0.0,
        0.0,
        0.998792290687561
      ],
      "scale": [
        1.0,
        0.9999983906745911,
        0.9999983906745911
      ],
      "translation": [
        0.0,
        1.2149300575256348,
        0.0
      ]
    },
    {
      "children": [
        8
      ],
      "name": "Neck_CatArmature",
      "rotation": [
        -0.23620498180389404,
        0.0,
        0.0,
        0.9717032313346863
      ],
      "scale": [
        1.0,
        0.9999950528144836,
        0.9999950528144836
      ],
      "translation": [
        0.0,
        0.9106600284576416,
        0.0
      ]
    },
    {
      "children": [
        9,
        12,
        14
      ],
      "name": "Head_CatArmature",
      "rotation": [
        -0.23042097687721252,
        0.0,
        0.0,
        0.9730910658836365
      ],
      "scale": [
        1.0,
        0.9999973773956299,
        0.9999973773956299
      ],
      "translation": [
        0.0,
        1.033329963684082,
        0.0
      ]
    },
    {
      "children": [
        10,
        11
      ],
      "matrix": [
        0.25122999999999995,
        -0.0,
        -0.0,
        0.0,
        -0.0,
        -0.11858000000000002,
        -0.22148000000000004,
        0.0,
        -0.0,
        0.22148000000000004,
        -0.11858000000000002,
        0.0,
        -0.020130000000000002,
        -4.02879,
        -1.4694999999999998,
        1.0
      ],
      "name": "Roundcube.002"
    },
    {
      "mesh": 0,
      "name": "Roundcube.002_0"
    },
    {
      "mesh": 1,
      "name": "Roundcube.002_1"
    },
    {
      "children": [
        13
      ],
      "matrix": [
        0.5706200000000001,
        -0.0,
        -0.0,
        0.0,
        -0.0,
        -0.26933,
        -0.50305,
        0.0,
        -0.0,
        0.50305,
        -0.26933,
        0.0,
        -0.020130000000000002,
        0.47169,
        0.4496800000000001,
        1.0
      ],
      "name": "Vert.006"
    },
    {
      "mesh": 2,
      "name": "Vert.006_0"
    },
    {
      "children": [
        15
      ],
      "matrix": [
        0.5706200000000001,
        -0.0,
        -0.0,
        0.0,
        -0.0,
        -0.26933,
        -0.50305,
        0.0,
        -0.0,
        0.50305,
        -0.26933,
        0.0,
        -0.020130000000000002,
        0.5033799999999999,
        0.50886,
        1.0
      ],
      "name": "Vert.004"
    },
    {
      "mesh": 3,
      "name": "Vert.004_0"
    },
    {
      "children": [
        17
      ],
      "name": "Shoulder.L_CatArmature",
      "rotation": [
        -0.5220797061920166,
        -0.4449802041053772,
        0.6685675978660583,
        -0.2871284484863281
      ],
      "scale": [
        0.9999957084655762,
        1.000000238418579,
        1.0000039339065552
      ],
      "translation": [
        0.5876200199127197,
        0.8667899966239929,
        0.6408900022506714
      ]
    },
    {
      "children": [
        18
      ],
      "name": "Shoulder2.L_CatArmature",
      "rotation": [
        0.3096773624420166,
        0.4481520652770996,
        0.49266138672828674,
        0.6786342263221741
      ],
      "scale": [
        1.0000014305114746,
        1.0000001192092896,
        1.0000056028366089
      ],
      "translation": [
        -0.35732001066207886,
        0.14733000099658966,
        0.19163000583648682
      ]
    },
    {
      "children": [
        19
      ],
      "name": "UpperArm.L_CatArmature",
      "rotation": [
        -0.13418932259082794,
        0.8469299077987671,
        -0.48572397232055664,
        -0.16963332891464233
      ],
      "scale": [
        1.0000057220458984,
        0.9999977350234985,
        0.9999934434890747
      ],
      "translation": [
        0.0,
        0.5202699899673462,
        0.0
      ]
    },
    {
      "name": "Arm.L_CatArmature",
      "rotation": [
        0.3186739981174469,
        0.012832888402044773,
        -0.003961905837059021,
        0.9477692246437073
      ],
      "scale": [
        1.000001072883606,
        0.9999973773956299,
        1.0000063180923462
      ],
      "translation": [
        0.0,
        0.44547998905181885,
        0.0
      ]
    },
    {
      "children": [
        21
      ],
      "name": "Shoulder.R_CatArmature",
      "rotation": [
        0.5220797061920166,
        -0.4449802041053772,
        0.6685675978660583,
        0.2871284484863281
      ],
      "scale": [
        0.9999957084655762,
        1.000000238418579,
        1.0000039339065552
      ],
      "translation": [
        -0.6278799772262573,
        0.8667899966239929,
        0.6408900022506714
      ]
    },
    {
      "children": [
        22
      ],
      "name": "Shoulder2.R_CatArmature",
      "rotation": [
        0.2525328993797302,
        -0.49313417077064514,
        -0.4926232397556305,
        0.6710947751998901
      ],
      "scale": [
        1.0,
        0.9999935626983643,
        1.000004768371582
      ],
      "translation": [
        0.34564000368118286,
        0.11316999793052673,
        0.20945000648498535
      ]
    },
    {
      "children": [
        23
      ],
      "name": "UpperArm.R_CatArmature",
      "rotation": [
        0.13648197054862976,
        0.8573107719421387,
        -0.4867476522922516,
        0.09730187058448792
      ],
      "scale": [
        0.9999985694885254,
        1.0000027418136597,
        1.000003695487976
      ],
      "translation": [
        0.0,
        0.522059977054596,
        0.0
      ]
    },
    {
      "name": "Arm.R_CatArmature",
      "rotation": [
        0.3186739981174469,
        -0.012832888402044773,
        0.003961905837059021,
        0.9477692246437073
      ],
      "scale": [
        1.000001072883606,
        0.9999973773956299,
        1.0000063180923462
      ],
      "translation": [
        0.0,
        0.44547998905181885,
        0.0
      ]
    },
    {
      "children": [
        25
      ],
      "name": "Hip.L_CatArmature",
      "rotation": [
        0.31184935569763184,
        0.6854737997055054,
        -0.4076108932495117,
        0.5164581537246704
      ],
      "scale": [
        0.999995768070221,
        1.0000051259994507,
        1.0000017881393433
      ],
      "translation": [
        0.3619900047779083,
        0.12150000035762787,
        0.2111700028181076
      ]
    },
    {
      "children": [
        26
      ],
      "name": "Thigh.L_CatArmature",
      "rotation": [
        0.13214938342571259,
        -0.44686177372932434,
        0.7349562644958496,
        0.49263617396354675
      ],
      "scale": [
        1.000001311302185,
        1.000007152557373,
        0.9999960660934448
      ],
      "translation": [
        -0.12422999739646912,
        0.46533000469207764,
        -0.09640999883413315
      ]
    },
    {
      "children": [
        27
      ],
      "name": "Knee.L_CatArmature",
      "rotation": [
        0.10937730222940445,
        0.7292780876159668,
        0.6655044555664063,
        -0.11529920995235443
      ],
      "scale": [
        1.000006079673767,
        0.9999958276748657,
        1.0000014305114746
      ],
      "translation": [
        0.0,
        0.3869900107383728,
        0.0
      ]
    },
    {
      "name": "Ankle.L_CatArmature",
      "rotation": [
        0.7000147700309753,
        -0.06623520702123642,
        -0.009565983898937702,
        0.7109857201576233
      ],
      "scale": [
        0.999999463558197,
        1.0000041723251343,
        0.9999914169311523
      ],
      "translation": [
        0.0,
        0.933210015296936,
        0.0
      ]
    },
    {
      "children": [
        29
      ],
      "name": "Tail1_CatArmature",
      "rotation": [
        0.8943712711334229,
        0.0,
        0.0,
        0.4473254084587097
      ],
      "scale": [
        1.0,
        1.0,
        1.0
      ],
      "translation": [
        -0.010470000095665455,
        -0.07222999632358551,
        -0.36757999658584595
      ]
    },
    {
      "children": [
        30
      ],
      "name": "Tail1.001_CatArmature",
      "rotation": [
        0.2160641998052597,
        0.0,
        0.0,
        0.9763791561126709
      ],
      "scale": [
        1.0,
        0.9999971985816956,
        0.9999971985816956
      ],
      "translation": [
        0.0,
        1.4536900520324707,
        0.0
      ]
    },
    {
      "children": [
        31
      ],
      "name": "Tail1.004_CatArmature",
      "rotation": [
        0.2398085743188858,
        0.0,
        0.0,
        0.9708203077316284
      ],
      "scale": [
        1.0,
        0.999995768070221,
        0.999995768070221
      ],
      "translation": [
        0.0,
        1.4811099767684937,
        0.0
      ]
    },
    {
      "children": [
        32
      ],
      "name": "Tail1.002_CatArmature",
      "rotation": [
        0.23575077950954437,
        0.0,
        0.0,
        0.9718135595321655
      ],
      "scale": [
        1.0,
        0.9999964833259583,
        0.9999964833259583
      ],
      "translation": [
        0.0,
        1.3246300220489502,
        0.0
      ]
    },
    {
      "children": [
        33
      ],
      "name": "Tail1.005_CatArmature",
      "rotation": [
        0.09511584788560867,
        0.0,
        0.0,
        0.9954662322998047
      ],
      "scale": [
        1.0,
        1.0000041723251343,
        1.0000041723251343
      ],
      "translation": [
        0.0,
        1.2231199741363525,
        0.0
      ]
    },
    {
      "name": "Tail1.003_CatArmature",
      "rotation": [
        0.13547921180725098,
        0.0,
        0.0,
        0.9907802939414978
      ],
      "scale": [
        1.0,
        0.9999992251396179,
        0.9999992251396179
      ],
      "translation": [
        0.0,
        1.2373499870300293,
        0.0
      ]
    },
    {
      "children": [
        35
      ],
      "name": "Hip.R_CatArmature",
      "rotation": [
        0.31184935569763184,
        -0.6854737997055054,
        0.4076108932495117,
        0.5164581537246704
      ],
      "scale": [
        0.999995768070221,
        1.0000051259994507,
        1.0000017881393433
      ],
      "translation": [
        -0.4022499918937683,
        0.12150000035762787,
        0.2111700028181076
      ]
    },
    {
      "children": [
        36
      ],
      "name": "Thigh.R_CatArmature",
      "rotation": [
        -0.13214746117591858,
        -0.44686272740364075,
        0.7349554896354675,
        -0.4926369786262512
      ],
      "scale": [
        1.0000011920928955,
        1.0000081062316895,
        0.9999977350234985
      ],
      "translation": [
        0.12422999739646912,
        0.46533000469207764,
        -0.09640999883413315
      ]
    },
    {
      "children": [
        37
      ],
      "name": "Knee.R_CatArmature",
      "rotation": [
        -0.10937730222940445,
        0.7292780876159668,
        0.6655044555664063,
        0.11529920995235443
      ],
      "scale": [
        1.000006079673767,
        0.9999958276748657,
        1.0000014305114746
      ],
      "translation": [
        0.0,
        0.3869900107383728,
        0.0
      ]
    },
    {
      "name": "Ankle.R_CatArmature",
      "rotation": [
        0.7000147700309753,
        0.06623520702123642,
        0.009565983898937702,
        0.7109857201576233
      ],
      "scale": [
        0.999999463558197,
        1.0000041723251343,
        0.9999914169311523
      ],
      "translation": [
        0.0,
        0.933210015296936,
        0.0
      ]
    },
    {
      "name": "Foot.L_CatArmature",
      "rotation": [
        0.0,
        0.6555494070053101,
        0.7551522850990295,
        0.0
      ],
      "scale": [
        1.0,
        1.0000007152557373,
        1.0000007152557373
      ],
      "translation": [
        0.6650999784469604,
        -3.564310073852539,
        0.6640999913215637
      ]
    },
    {
      "name": "LegFrontIK.L_CatArmature",
      "rotation": [
        0.0,
        0.6706341505050659,
        0.7417882680892944,
        0.0
      ],
      "scale": [
        1.0,
        1.0000029802322388,
        1.0000029802322388
      ],
      "translation": [
        0.7461900115013123,
        -3.6432600021362305,
        2.7964999675750732
      ]
    },
    {
      "name": "SpineIK_CatArmature",
      "rotation": [
        0.6975170969963074,
        0.0,
        0.0,
        0.7165682315826416
      ],
      "scale": [
        1.0,
        1.0000029802322388,
        1.0000029802322388
      ],
      "translation": [
        0.02012999914586544,
        -1.654729962348938,
        1.0424400568008423
      ]
    },
    {
      "name": "Foot.R_CatArmature",
      "rotation": [
        0.0,
        0.6555494070053101,
        0.7551522850990295,
        0.0
      ],
      "scale": [
        1.0,
        1.0000007152557373,
        1.0000007152557373
      ],
      "translation": [
        -0.6650999784469604,
        -3.564310073852539,
        0.6640999913215637
      ]
    },
    {
      "name": "LegFrontIK.R_CatArmature",
      "rotation": [
        0.047911517322063446,
        0.6707121133804321,
        0.7401687502861023,
        -1.6767800161687774e-06
      ],
      "scale": [
        1.0000044107437134,
        0.9999992847442627,
        0.9999968409538269
      ],
      "translation": [
        -0.7461900115013123,
        -3.6432600021362305,
        2.7964999675750732
      ]
    },
    {
      "children": [
        44
      ],
      "name": "WingBase.L_CatArmature",
      "rotation": [
        0.0018273638561367989,
        0.0,
        -0.6168916821479797,
        0.787045955657959
      ],
      "scale": [
        1.0000028610229492,
        0.9999940395355225,
        0.999991238117218
      ],
      "translation": [
        0.8067700266838074,
        -1.469849944114685,
        2.209320068359375
      ]
    },
    {
      "children": [
        45
      ],
      "name": "WingArm.L_CatArmature",
      "rotation": [
        0.0016823314363136888,
        0.001836358685977757,
        0.22284750640392303,
        0.9748501181602478
      ],
      "scale": [
        0.9999992251396179,
        0.9999963641166687,
        1.0000028610229492
      ],
      "translation": [
        0.0,
        1.804460048675537,
        0.0
      ]
    },
    {
      "name": "WingTip.L_CatArmature",
      "rotation": [
        -0.0033236651215702295,
        -0.0032619039993733168,
        -0.3623288571834564,
        0.9320386648178101
      ],
      "scale": [
        1.000006914138794,
        0.9999962449073792,
        1.0000032186508179
      ],
      "translation": [
        0.06836000084877014,
        1.8393399715423584,
        -0.00039000000106170774
      ]
    },
    {
      "children": [
        47
      ],
      "name": "WingBase.R_CatArmature",
      "rotation": [
        0.0018273638561367989,
        0.0,
        0.6168916821479797,
        0.787045955657959
      ],
      "scale": [
        1.0000028610229492,
        0.9999940395355225,
        0.999991238117218
      ],
      "translation": [
        -0.8067700266838074,
        -1.469849944114685,
        2.209320068359375
      ]
    },
    {
      "children": [
        48
      ],
      "name": "WingArm.R_CatArmature",
      "rotation": [
        0.0016823314363136888,
        -0.001836358685977757,
        -0.22284750640392303,
        0.9748501181602478
      ],
      "scale": [
        0.9999992251396179,
        0.9999963641166687,
        1.0000028610229492
      ],
      "translation": [
        0.0,
        1.804460048675537,
        0.0
      ]
    },
    {
      "name": "WingTip.R_CatArmature",
      "rotation": [
        -0.0033236651215702295,
        0.0032619039993733168,
        0.3623288571834564,
        0.9320386648178101
      ],
      "scale": [
        1.000006914138794,
        0.9999962449073792,
        1.0000032186508179
      ],
      "translation": [
        -0.06836000084877014,
        1.8393399715423584,
        -0.00039000000106170774
      ]
    },
    {
      "matrix": [
        -0.5706100000000001,
        -0.0,
        -0.0,
        0.0,
        0.0,
        0.006870000000000002,
        -0.57057,
        0.0,
        -0.0,
        0.57057,
        0.006870000000000002,
        0.0,
        -0.8500200000000001,
        -1.37254,
        2.28634,
        1.0
      ],
      "name": "Feathers.000"
    },
    {
      "mesh": 4,
      "name": "Feathers.000_0",
      "skin": 0
    },
    {
      "mesh": 5,
      "name": "Feathers.000_1",
      "skin": 0
    },
    {
      "matrix": [
        0.5706100000000001,
        0.0,
        0.0,
        0.0,
        0.0,
        0.006870000000000002,
        -0.57057,
        0.0,
        -0.0,
        0.57057,
        0.006870000000000002,
        0.0,
        0.8500200000000001,
        -1.37254,
        2.28634,
        1.0
      ],
      "name": "Feathers.003"
    },
    {
      "mesh": 6,
      "name": "Feathers.003_0",
      "skin": 0
    },
    {
      "mesh": 7,
      "name": "Feathers.003_1",
      "skin": 0
    },
    {
      "matrix": [
        0.5706100000000001,
        0.0,
        0.0,
        0.0,
        0.0,
        0.006870000000000002,
        -0.57057,
        0.0,
        -0.0,
        0.57057,
        0.006870000000000002,
        0.0,
        0.0,
        -3.7423800000000003,
        0.78076,
        1.0
      ],
      "name": "Body.003"
    },
    {
      "mesh": 8,
      "name": "Body.003_0",
      "skin": 0
    },
    {
      "mesh": 9,
      "name": "Body.003_1",
      "skin": 0
    },
    {
      "mesh": 10,
      "name": "Body.003_2",
      "skin": 0
    },
    {
      "mesh": 11,
      "name": "Body.003_3",
      "skin": 0
    },
    {
      "mesh": 12,
      "name": "Body.003_4",
      "skin": 0
    },
    {
      "mesh": 13,
      "name": "Body.003_5",
      "skin": 0
    },
    {
      "children": [
        63
      ],
      "matrix": [
        -0.29086000000000006,
        0.9551700000000001,
        -0.05519000000000001,
        0.0,
        -0.7711,
        -0.19988000000000003,
        0.6045200000000001,
        0.0,
        0.5663900000000001,
        0.21839000000000003,
        0.7946700000000001,
        0.0,
        4.076250000000001,
        1.00545,
        5.903860000000001,
        1.0
      ],
      "name": "Lamp.002"
    },
    {
      "name": "Lamp.002"
    },
    {
      "name": "Camera.002",
      "rotation": [
        0.5452699065208435,
        0.27317994832992554,
        0.35497990250587463,
        0.7085497975349426
      ],
      "translation": [
        17.197429656982422,
        -13.20005989074707,
        8.970359802246094
      ]
    },
    {
      "children": [
        66
      ],
      "matrix": [
        -0.29086000000000006,
        0.9551700000000001,
        -0.05519000000000001,
        0.0,
        -0.7711,
        -0.19988000000000003,
        0.6045200000000001,
        0.0,
        0.5663900000000001,
        0.21839000000000003,
        0.7946700000000001,
        0.0,
        4.076250000000001,
        -3.85518,
        5.903860000000001,
        1.0
      ],
      "name": "Lamp.003"
    },
    {
      "name": "Lamp.003"
    }
  ],
  "samplers": [
    {
      "magFilter": 9729,
      "minFilter": 9987,
      "wrapS": 10497,
      "wrapT": 10497
    }
  ],
  "scene": 0,
  "scenes": [
    {
      "name": "Sketchfab_Scene",
      "nodes": [
        0
      ]
    }
  ],
  "skins": [
    {
      "inverseBindMatrices": 50,
      "joints": [
        3,
        4,
        5,
        6,
        7,
        8,
        16,
        17,
        18,
        19,
        20,
        21,
        22,
        23,
        24,
        25,
        26,
        27,
        28,
        29,
        30,
        31,
        32,
        33,
        34,
        35,
        36,
        37,
        38,
        39,
        40,
        41,
        42,
        43,
        44,
        45,
        46,
        47,
        48
      ],
      "skeleton": 3
    }
  ],
  "textures": [
    {
      "sampler": 0,
      "source": 0
    },
    {
      "sampler": 0,
      "source": 1
    },
    {
      "sampler": 0,
      "source": 2
    },
    {
      "sampler": 0,
      "source": 3
    }
  ]
}
