{
  "accessors": [
    {
      "bufferView": 2,
      "componentType": 5126,
      "count": 22784,
      "max": [
        12.177069664001465,
        2.5807600021362305,
        2.6157898902893066
      ],
      "min": [
        -7.24753999710083,
        -7.476200103759766,
        -4.181419849395752
      ],
      "type": "VEC3"
    },
    {
      "bufferView": 2,
      "byteOffset": 273408,
      "componentType": 5126,
      "count": 22784,
      "max": [
        0.9999693036079407,
        0.9999920725822449,
        0.9999172687530518
      ],
      "min": [
        -0.9998001456260681,
        -0.9999755024909973,
        -0.9975895285606384
      ],
      "type": "VEC3"
    },
    {
      "bufferView": 1,
      "componentType": 5126,
      "count": 22784,
      "max": [
        0.9995700120925903,
        0.9995899796485901
      ],
      "min": [
        0.00041000000783242285,
        0.00041000000783242285
      ],
      "type": "VEC2"
    },
    {
      "bufferView": 0,
      "componentType": 5125,
      "count": 51138,
      "type": "SCALAR"
    },
    {
      "bufferView": 2,
      "byteOffset": 546816,
      "componentType": 5126,
      "count": 1135,
      "max": [
        5.324240207672119,
        2.690190076828003,
        2.020970106124878
      ],
      "min": [
        -2.7312800884246826,
        -1.7821799516677856,
        -0.5799199938774109
      ],
      "type": "VEC3"
    },
    {
      "bufferView": 2,
      "byteOffset": 560436,
      "componentType": 5126,
      "count": 1135,
      "max": [
        0.984247624874115,
        0.9930031895637512,
        0.9981982111930847
      ],
      "min": [
        -0.990084707736969,
        -0.9998871684074402,
        -0.9984078407287598
      ],
      "type": "VEC3"
    },
    {
      "bufferView": 1,
      "byteOffset": 182272,
      "componentType": 5126,
      "count": 1135,
      "max": [
        0.8405299782752991,
        0.9979599714279175
      ],
      "min": [
        0.00026000000070780516,
        0.00026000000070780516
      ],
      "type": "VEC2"
    },
    {
      "bufferView": 0,
      "byteOffset": 204552,
      "componentType": 5125,
      "count": 3504,
      "type": "SCALAR"
    },
    {
      "bufferView": 2,
      "byteOffset": 574056,
      "componentType": 5126,
      "count": 1341,
      "max": [
        6.609230041503906,
        3.3524301052093506,
        2.1425399780273438
      ],
      "min": [
        -6.921889781951904,
        -6.810579776763916,
        -4.562679767608643
      ],
      "type": "VEC3"
    },
    {
      "bufferView": 2,
      "byteOffset": 590148,
      "componentType": 5126,
      "count": 1341,
      "max": [
        0.9997993111610413,
        0.9943127632141113,
        0.9999803900718689
      ],
      "min": [
        -0.9947589039802551,
        -0.9959163069725037,
        -0.9999969601631165
      ],
      "type": "VEC3"
    },
    {
      "bufferView": 1,
      "byteOffset": 191352,
      "componentType": 5126,
      "count": 1341,
      "max": [
        0.999779999256134,
        0.9992499947547913
      ],
      "min": [
        0.0,
        0.0
      ],
      "type": "VEC2"
    },
    {
      "bufferView": 0,
      "byteOffset": 218568,
      "componentType": 5125,
      "count": 5682,
      "type": "SCALAR"
    },
    {
      "bufferView": 2,
      "byteOffset": 606240,
      "componentType": 5126,
      "count": 224,
      "max": [
        3.7332000732421875,
        -0.4176900088787079,
        -1.876829981803894
      ],
      "min": [
        2.361109972000122,
        -0.7918800115585327,
        -3.7659599781036377
      ],
      "type": "VEC3"
    },
    {
      "bufferView": 2,
      "byteOffset": 608928,
      "componentType": 5126,
      "count": 224,
      "max": [
        0.27006348967552185,
        -0.9628424048423767,
        0.13398438692092896
      ],
      "min": [
        0.11966390907764435,
        -0.9837321043014526,
        -0.006260196212679148
      ],
      "type": "VEC3"
    },
    {
      "bufferView": 1,
      "byteOffset": 202080,
      "componentType": 5126,
      "count": 224,
      "max": [
        0.9985100030899048,
        0.9216700196266174
      ],
      "min": [
        0.20412999391555786,
        0.0016499999910593033
      ],
      "type": "VEC2"
    },
    {
      "bufferView": 0,
      "byteOffset": 241296,
      "componentType": 5125,
      "count": 528,
      "type": "SCALAR"
    },
    {
      "bufferView": 2,
      "byteOffset": 611616,
      "componentType": 5126,
      "count": 2551,
      "max": [
        5.9078898429870605,
        2.4900600910186768,
        1.7672100067138672
      ],
      "min": [
        -3.5782999992370605,
        -5.600870132446289,
        -4.123219966888428
      ],
      "type": "VEC3"
    },
    {
      "bufferView": 2,
      "byteOffset": 642228,
      "componentType": 5126,
      "count": 2551,
      "max": [
        0.999805748462677,
        0.9998778104782104,
        0.9998754858970642
      ],
      "min": [
        -0.999303936958313,
        -0.9998056888580322,
        -0.9998029470443726
      ],
      "type": "VEC3"
    },
    {
      "bufferView": 1,
      "byteOffset": 203872,
      "componentType": 5126,
      "count": 2551,
      "max": [
        0.9854300022125244,
        0.9980999827384949
      ],
      "min": [
        0.0017999999690800905,
        0.0006300000241026282
      ],
      "type": "VEC2"
    },
    {
      "bufferView": 2,
      "byteOffset": 672840,
      "componentType": 5126,
      "count": 2551,
      "max": [
        0.0,
        0.01250004768371582,
        0.0
      ],
      "min": [
        0.0,
        -0.020460009574890137,
        0.0
      ],
      "type": "VEC3"
    },
    {
      "bufferView": 0,
      "byteOffset": 243408,
      "componentType": 5125,
      "count": 9735,
      "type": "SCALAR"
    },
    {
      "bufferView": 2,
      "byteOffset": 703452,
      "componentType": 5126,
      "count": 735,
      "max": [
        0.021709999069571495,
        0.033440001308918,
        0.005880000069737434
      ],
      "min": [
        -0.033330000936985016,
        -0.01066999975591898,
        -0.02768000029027462
      ],
      "type": "VEC3"
    },
    {
      "bufferView": 2,
      "byteOffset": 712272,
      "componentType": 5126,
      "count": 735,
      "max": [
        1.0,
        0.9655081629753113,
        1.0
      ],
      "min": [
        -1.0,
        -0.9655081629753113,
        -1.0
      ],
      "type": "VEC3"
    },
    {
      "bufferView": 0,
      "byteOffset": 282348,
      "componentType": 5125,
      "count": 1296,
      "type": "SCALAR"
    },
    {
      "bufferView": 2,
      "byteOffset": 721092,
      "componentType": 5126,
      "count": 22,
      "max": [
        -0.7024199962615967,
        0.984279990196228,
        1.5707900524139404
      ],
      "min": [
        -0.813759982585907,
        0.9203900098800659,
        1.5638400316238403
      ],
      "type": "VEC3"
    },
    {
      "bufferView": 2,
      "byteOffset": 721356,
      "componentType": 5126,
      "count": 22,
      "max": [
        -0.02761627919971943,
        0.06996562331914902,
        0.9979209899902344
      ],
      "min": [
        -0.07223960757255554,
        -0.06800588220357895,
        0.9969984889030457
      ],
      "type": "VEC3"
    },
    {
      "bufferView": 1,
      "byteOffset": 224280,
      "componentType": 5126,
      "count": 22,
      "max": [
        0.1369899958372116,
        0.546180009841919
      ],
      "min": [
        0.1292800009250641,
        0.5405200123786926
      ],
      "type": "VEC2"
    },
    {
      "bufferView": 2,
      "byteOffset": 721620,
      "componentType": 5126,
      "count": 22,
      "max": [
        0.0038700103759765625,
        0.010980010032653809,
        0.0012000799179077148
      ],
      "min": [
        -0.007960021495819092,
        -0.022570013999938965,
        -0.0005899667739868164
      ],
      "type": "VEC3"
    },
    {
      "bufferView": 0,
      "byteOffset": 287532,
      "componentType": 5125,
      "count": 51,
      "type": "SCALAR"
    },
    {
      "bufferView": 2,
      "byteOffset": 721884,
      "componentType": 5126,
      "count": 9793,
      "max": [
        6.152560234069824,
        2.416719913482666,
        0.3799799978733063
      ],
      "min": [
        -5.1338300704956055,
        -5.047249794006348,
        -4.039770126342773
      ],
      "type": "VEC3"
    },
    {
      "bufferView": 2,
      "byteOffset": 839400,
      "componentType": 5126,
      "count": 9793,
      "max": [
        0.9999985098838806,
        0.9999838471412659,
        0.9997879862785339
      ],
      "min": [
        -0.9999775290489197,
        -0.9999030232429504,
        -0.9999621510505676
      ],
      "type": "VEC3"
    },
    {
      "bufferView": 1,
      "byteOffset": 224456,
      "componentType": 5126,
      "count": 9793,
      "max": [
        0.9990299940109253,
        0.9998300075531006
      ],
      "min": [
        0.0005200000014156103,
        0.0002500000118743628
      ],
      "type": "VEC2"
    },
    {
      "bufferView": 0,
      "byteOffset": 287736,
      "componentType": 5125,
      "count": 40578,
      "type": "SCALAR"
    },
    {
      "bufferView": 2,
      "byteOffset": 956916,
      "componentType": 5126,
      "count": 5557,
      "max": [
        1.2383099794387817,
        2.61368989944458,
        -0.5400599837303162
      ],
      "min": [
        -0.21108999848365784,
        0.6188200116157532,
        -2.7304699420928955
      ],
      "type": "VEC3"
    },
    {
      "bufferView": 2,
      "byteOffset": 1023600,
      "componentType": 5126,
      "count": 5557,
      "max": [
        0.9996633529663086,
        0.9982072114944458,
        0.999459445476532
      ],
      "min": [
        -0.9999164342880249,
        -0.9949735403060913,
        -0.9998144507408142
      ],
      "type": "VEC3"
    },
    {
      "bufferView": 1,
      "byteOffset": 302800,
      "componentType": 5126,
      "count": 5557,
      "max": [
        0.999239981174469,
        0.9760500192642212
      ],
      "min": [
        0.0019499999471008778,
        0.020840000361204147
      ],
      "type": "VEC2"
    },
    {
      "bufferView": 2,
      "byteOffset": 1090284,
      "componentType": 5126,
      "count": 5557,
      "max": [
        0.3013499975204468,
        -0.13695001602172852,
        0.6706700325012207
      ],
      "min": [
        -0.4308599829673767,
        -2.289630174636841,
        -0.6450400352478027
      ],
      "type": "VEC3"
    },
    {
      "bufferView": 0,
      "byteOffset": 450048,
      "componentType": 5125,
      "count": 10515,
      "type": "SCALAR"
    },
    {
      "bufferView": 2,
      "byteOffset": 1156968,
      "componentType": 5126,
      "count": 5218,
      "max": [
        6.164330005645752,
        2.843209981918335,
        0.9347599744796753
      ],
      "min": [
        -2.083329916000366,
        -6.636879920959473,
        -4.189420223236084
      ],
      "type": "VEC3"
    },
    {
      "bufferView": 2,
      "byteOffset": 1219584,
      "componentType": 5126,
      "count": 5218,
      "max": [
        0.9998490214347839,
        0.9999678134918213,
        1.0
      ],
      "min": [
        -0.9999576807022095,
        -0.9999946355819702,
        -1.0
      ],
      "type": "VEC3"
    },
    {
      "bufferView": 1,
      "byteOffset": 347256,
      "componentType": 5126,
      "count": 5218,
      "max": [
        0.9985299706459045,
        0.9948499798774719
      ],
      "min": [
        0.0013200000394135714,
        0.0012700000079348683
      ],
      "type": "VEC2"
    },
    {
      "bufferView": 0,
      "byteOffset": 492108,
      "componentType": 5125,
      "count": 11661,
      "type": "SCALAR"
    },
    {
      "bufferView": 2,
      "byteOffset": 1282200,
      "componentType": 5126,
      "count": 1920,
      "max": [
        -2.069200038909912,
        -0.784500002861023,
        2.1730899810791016
      ],
      "min": [
        -2.395780086517334,
        -1.0852199792861938,
        1.136330008506775
      ],
      "type": "VEC3"
    },
    {
      "bufferView": 2,
      "byteOffset": 1305240,
      "componentType": 5126,
      "count": 1920,
      "max": [
        0.9950865507125854,
        0.9638681411743164,
        0.9130035638809204
      ],
      "min": [
        -0.9950865507125854,
        -0.9638671278953552,
        -0.9130104184150696
      ],
      "type": "VEC3"
    },
    {
      "bufferView": 0,
      "byteOffset": 538752,
      "componentType": 5125,
      "count": 2400,
      "type": "SCALAR"
    },
    {
      "bufferView": 2,
      "byteOffset": 1328280,
      "componentType": 5126,
      "count": 736,
      "max": [
        10.34004020690918,
        10.34004020690918,
        10.34004020690918
      ],
      "min": [
        -10.34004020690918,
        -10.34004020690918,
        -4.128379821777344
      ],
      "type": "VEC3"
    },
    {
      "bufferView": 2,
      "byteOffset": 1337112,
      "componentType": 5126,
      "count": 736,
      "max": [
        0.9999745488166809,
        0.9999745488166809,
        1.0
      ],
      "min": [
        -0.9999745488166809,
        -0.9999745488166809,
        -1.0
      ],
      "type": "VEC3"
    },
    {
      "bufferView": 1,
      "byteOffset": 389000,
      "componentType": 5126,
      "count": 736,
      "max": [
        0.9974200129508972,
        0.9973899722099304
      ],
      "min": [
        1.9999999494757503e-05,
        1.9999999494757503e-05
      ],
      "type": "VEC2"
    },
    {
      "bufferView": 0,
      "byteOffset": 548352,
      "componentType": 5125,
      "count": 2550,
      "type": "SCALAR"
    },
    {
      "bufferView": 3,
      "componentType": 5126,
      "count": 19,
      "max": [
        10.416669845581055
      ],
      "min": [
        0.041669998317956924
      ],
      "type": "SCALAR"
    },
    {
      "bufferView": 3,
      "byteOffset": 76,
      "componentType": 5126,
      "count": 19,
      "max": [
        1.0
      ],
      "min": [
        0.0
      ],
      "type": "SCALAR"
    },
    {
      "bufferView": 3,
      "byteOffset": 152,
      "componentType": 5126,
      "count": 26,
      "max": [
        10.416669845581055
      ],
      "min": [
        0.041669998317956924
      ],
      "type": "SCALAR"
    },
    {
      "bufferView": 3,
      "byteOffset": 256,
      "componentType": 5126,
      "count": 26,
      "max": [
        1.0
      ],
      "min": [
        0.0
      ],
      "type": "SCALAR"
    },
    {
      "bufferView": 3,
      "byteOffset": 360,
      "componentType": 5126,
      "count": 27,
      "max": [
        10.416669845581055
      ],
      "min": [
        0.041669998317956924
      ],
      "type": "SCALAR"
    },
    {
      "bufferView": 3,
      "byteOffset": 468,
      "componentType": 5126,
      "count": 27,
      "max": [
        1.0
      ],
      "min": [
        1.740078836576231e-08
      ],
      "type": "SCALAR"
    }
  ],
  "animations": [
    {
      "channels": [
        {
          "sampler": 0,
          "target": {
            "node": 11,
            "path": "weights"
          }
        },
        {
          "sampler": 1,
          "target": {
            "node": 15,
            "path": "weights"
          }
        },
        {
          "sampler": 2,
          "target": {
            "node": 19,
            "path": "weights"
          }
        }
      ],
      "name": "Take 01",
      "samplers": [
        {
          "input": 49,
          "interpolation": "LINEAR",
          "output": 50
        },
        {
          "input": 51,
          "interpolation": "LINEAR",
          "output": 52
        },
        {
          "input": 53,
          "interpolation": "LINEAR",
          "output": 54
        }
      ]
    }
  ],
  "asset": {
    "extras": {
      "author": "luyssport (https://sketchfab.com/luyssport)",
      "license": "CC-BY-4.0 (http://creativecommons.org/licenses/by/4.0/)",
      "source": "https://sketchfab.com/3d-models/tap-9c94f0aca4bf4483800b80b6c035cf0e",
      "title": "Tap"
    },
    "generator": "Sketchfab-12.68.0",
    "version": "2.0"
  },
  "bufferViews": [
    {
      "buffer": 0,
      "byteLength": 558552,
      "name": "floatBufferViews",
      "target": 34963
    },
    {
      "buffer": 0,
      "byteLength": 394888,
      "byteOffset": 558552,
      "byteStride": 8,
      "name": "floatBufferViews",
      "target": 34962
    },
    {
      "buffer": 0,
      "byteLength": 1345944,
      "byteOffset": 953440,
      "byteStride": 12,
      "name": "floatBufferViews",
      "target": 34962
    },
    {
      "buffer": 0,
      "byteLength": 576,
      "byteOffset": 2299384,
      "name": "floatBufferViews"
    }
  ],
  "buffers": [
    {
      "byteLength": 2299960,
      "uri": "scene.bin"
    }
  ],
  "extensionsUsed": [
    "KHR_materials_unlit"
  ],
  "images": [
    {
      "uri": "textures/fondo_baseColor.jpeg"
    },
    {
      "uri": "textures/madera_baseColor.jpeg"
    },
    {
      "uri": "textures/objetos_baseColor.jpeg"
    },
    {
      "uri": "textures/piedra_baseColor.jpeg"
    },
    {
      "uri": "textures/suelo_baseColor.jpeg"
    },
    {
      "uri": "textures/tejado_baseColor.jpeg"
    },
    {
      "uri": "textures/vegetacion_baseColor.jpeg"
    }
  ],
  "materials": [
    {
      "extensions": {
        "KHR_materials_unlit": {}
      },
      "name": "fondo",
      "pbrMetallicRoughness": {
        "baseColorTexture": {
          "index": 0
        },
        "metallicFactor": 0.0
      }
    },
    {
      "doubleSided": true,
      "extensions": {
        "KHR_materials_unlit": {}
      },
      "name": "material",
      "pbrMetallicRoughness": {
        "baseColorFactor": [
          1.0,
          0.6735149547,
          0.2438378681,
          1.0
        ],
        "metallicFactor": 0.0
      }
    },
    {
      "doubleSided": true,
      "extensions": {
        "KHR_materials_unlit": {}
      },
      "name": "madera",
      "pbrMetallicRoughness": {
        "baseColorTexture": {
          "index": 1
        },
        "metallicFactor": 0.0
      }
    },
    {
      "doubleSided": true,
      "extensions": {
        "KHR_materials_unlit": {}
      },
      "name": "objetos",
      "pbrMetallicRoughness": {
        "baseColorTexture": {
          "index": 2
        },
        "metallicFactor": 0.0
      }
    },
    {
      "doubleSided": true,
      "extensions": {
        "KHR_materials_unlit": {}
      },
      "name": "piedra",
      "pbrMetallicRoughness": {
        "baseColorTexture": {
          "index": 3
        },
        "metallicFactor": 0.0
      }
    },
    {
      "doubleSided": true,
      "extensions": {
        "KHR_materials_unlit": {}
      },
      "name": "gold",
      "pbrMetallicRoughness": {
        "metallicFactor": 0.0
      }
    },
    {
      "extensions": {
        "KHR_materials_unlit": {}
      },
      "name": "door",
      "pbrMetallicRoughness": {
        "baseColorTexture": {
          "index": 2
        },
        "metallicFactor": 0.0
      }
    },
    {
      "doubleSided": true,
      "extensions": {
        "KHR_materials_unlit": {}
      },
      "name": "suelo",
      "pbrMetallicRoughness": {
        "baseColorTexture": {
          "index": 4
        },
        "metallicFactor": 0.0
      }
    },
    {
      "doubleSided": true,
      "extensions": {
        "KHR_materials_unlit": {}
      },
      "name": "tejado",
      "pbrMetallicRoughness": {
        "baseColorTexture": {
          "index": 5
        },
        "metallicFactor": 0.0
      }
    },
    {
      "doubleSided": true,
      "extensions": {
        "KHR_materials_unlit": {}
      },
      "name": "vegetacion",
      "pbrMetallicRoughness": {
        "baseColorTexture": {
          "index": 6
        },
        "metallicFactor": 0.0
      }
    }
  ],
  "meshes": [
    {
      "name": "vegetacion_0",
      "primitives": [
        {
          "attributes": {
            "NORMAL": 1,
            "POSITION": 0,
            "TEXCOORD_0": 2
          },
          "indices": 3,
          "material": 9,
          "mode": 4
        }
      ]
    },
    {
      "name": "tejado_0",
      "primitives": [
        {
          "attributes": {
            "NORMAL": 5,
            "POSITION": 4,
            "TEXCOORD_0": 6
          },
          "indices": 7,
          "material": 8,
          "mode": 4
        }
      ]
    },
    {
      "name": "suelo_0",
      "primitives": [
        {
          "attributes": {
            "NORMAL": 9,
            "POSITION": 8,
            "TEXCOORD_0": 10
          },
          "indices": 11,
          "material": 7,
          "mode": 4
        }
      ]
    },
    {
      "name": "puerta_0",
      "primitives": [
        {
          "attributes": {
            "NORMAL": 13,
            "POSITION": 12,
            "TEXCOORD_0": 14
          },
          "indices": 15,
          "material": 6,
          "mode": 4
        }
      ]
    },
    {
      "name": "piedra_0",
      "primitives": [
        {
          "attributes": {
            "NORMAL": 17,
            "POSITION": 16,
            "TEXCOORD_0": 18
          },
          "indices": 20,
          "material": 4,
          "mode": 4,
          "targets": [
            {
              "POSITION": 19
            }
          ]
        }
      ],
      "weights": [
        0.0
      ]
    },
    {
      "name": "oro_0",
      "primitives": [
        {
          "attributes": {
            "NORMAL": 22,
            "POSITION": 21
          },
          "indices": 23,
          "material": 5,
          "mode": 4
        }
      ]
    },
    {
      "name": "ojos_0",
      "primitives": [
        {
          "attributes": {
            "NORMAL": 25,
            "POSITION": 24,
            "TEXCOORD_0": 26
          },
          "indices": 28,
          "material": 4,
          "mode": 4,
          "targets": [
            {
              "POSITION": 27
            }
          ]
        }
      ],
      "weights": [
        0.0
      ]
    },
    {
      "name": "objetos_0",
      "primitives": [
        {
          "attributes": {
            "NORMAL": 30,
            "POSITION": 29,
            "TEXCOORD_0": 31
          },
          "indices": 32,
          "material": 3,
          "mode": 4
        }
      ]
    },
    {
      "name": "monstruo_0",
      "primitives": [
        {
          "attributes": {
            "NORMAL": 34,
            "POSITION": 33,
            "TEXCOORD_0": 35
          },
          "indices": 37,
          "material": 3,
          "mode": 4,
          "targets": [
            {
              "POSITION": 36
            }
          ]
        }
      ],
      "weights": [
        0.0
      ]
    },
    {
      "name": "madera_0",
      "primitives": [
        {
          "attributes": {
            "NORMAL": 39,
            "POSITION": 38,
            "TEXCOORD_0": 40
          },
          "indices": 41,
          "material": 2,
          "mode": 4
        }
      ]
    },
    {
      "name": "Icosphere_0",
      "primitives": [
        {
          "attributes": {
            "NORMAL": 43,
            "POSITION": 42
          },
          "indices": 44,
          "material": 1,
          "mode": 4
        }
      ]
    },
    {
      "name": "fondo_0",
      "primitives": [
        {
          "attributes": {
            "NORMAL": 46,
            "POSITION": 45,
            "TEXCOORD_0": 47
          },
          "indices": 48,
          "material": 0,
          "mode": 4
        }
      ]
    }
  ],
  "nodes": [
    {
      "children": [
        1
      ],
      "matrix": [
        1.0,
        0.0,
        0.0,
        0.0,
        0.0,
        2.220446049250313e-16,
        -1.0,
        0.0,
        0.0,
        1.0,
        2.220446049250313e-16,
        0.0,
        0.0,
        0.0,
        0.0,
        1.0
      ],
      "name": "Sketchfab_model"
    },
    {
      "children": [
        2,
        4,
        6,
        8,
        10,
        12,
        14,
        16,
        18,
        20,
        22,
        24
      ],
      "name": "Root"
    },
    {
      "children": [
        3
      ],
      "matrix": [
        1.0,
        0.0,
        0.0,
        0.0,
        0.0,
        1.0,
        0.0,
        0.0,
        0.0,
        0.0,
        1.0,
        0.0,
        -0.9556700000000001,
        1.7431400000000001,
        2.99869,
        1.0
      ],
      "name": "vegetacion"
    },
    {
      "mesh": 0,
      "name": "vegetacion_0"
    },
    {
      "children": [
        5
      ],
      "matrix": [
        1.0,
        0.0,
        0.0,
        0.0,
        0.0,
        1.0,
        0.0,
        0.0,
        0.0,
        0.0,
        1.0,
        0.0,
        -0.9556700000000001,
        1.7431400000000001,
        2.99869,
        1.0
      ],
      "name": "tejado"
    },
    {
      "mesh": 1,
      "name": "tejado_0"
    },
    {
      "children": [
        7
      ],
      "matrix": [
        1.0,
        0.0,
        0.0,
        0.0,
        0.0,
        1.0,
        0.0,
        0.0,
        0.0,
        0.0,
        1.0,
        0.0,
        -0.9556700000000001,
        1.7431400000000001,
        2.99869,
        1.0
      ],
      "name": "suelo"
    },
    {
      "mesh": 2,
      "name": "suelo_0"
    },
    {
      "children": [
        9
      ],
      "matrix": [
        1.0,
        0.0,
        0.0,
        0.0,
        0.0,
        1.0,
        0.0,
        0.0,
        0.0,
        0.0,
        1.0,
        0.0,
        -0.9556700000000001,
        1.7431400000000001,
        2.99869,
        1.0
      ],
      "name": "puerta"
    },
    {
      "mesh": 3,
      "name": "puerta_0"
    },
    {
      "children": [
        11
      ],
      "matrix": [
        1.0,
        0.0,
        0.0,
        0.0,
        0.0,
        1.0,
        0.0,
        0.0,
        0.0,
        0.0,
        1.0,
        0.0,
        -0.9556700000000001,
        1.7431400000000001,
        2.99869,
        1.0
      ],
      "name": "piedra"
    },
    {
      "mesh": 4,
      "name": "piedra_0"
    },
    {
      "children": [
        13
      ],
      "matrix": [
        -0.7958900000000001,
        -0.5869500000000001,
        0.14845000000000003,
        0.0,
        0.5752200000000001,
        -0.6565900000000001,
        0.4878700000000001,
        0.0,
        -0.18889000000000003,
        0.47369,
        0.8602000000000001,
        0.0,
        -2.5014499999999997,
        0.28322,
        0.006490000000000002,
        1.0
      ],
      "name": "oro"
    },
    {
      "mesh": 5,
      "name": "oro_0"
    },
    {
      "children": [
        15
      ],
      "matrix": [
        1.0,
        0.0,
        0.0,
        0.0,
        0.0,
        1.0,
        0.0,
        0.0,
        0.0,
        0.0,
        1.0,
        0.0,
        -0.9556700000000001,
        1.7431400000000001,
        2.99869,
        1.0
      ],
      "name": "ojos"
    },
    {
      "mesh": 6,
      "name": "ojos_0"
    },
    {
      "children": [
        17
      ],
      "matrix": [
        1.0,
        0.0,
        0.0,
        0.0,
        0.0,
        1.0,
        0.0,
        0.0,
        0.0,
        0.0,
        1.0,
        0.0,
        -0.9556700000000001,
        1.7431400000000001,
        2.99869,
        1.0
      ],
      "name": "objetos"
    },
    {
      "mesh": 7,
      "name": "objetos_0"
    },
    {
      "children": [
        19
      ],
      "matrix": [
        1.0,
        0.0,
        0.0,
        0.0,
        0.0,
        1.0,
        0.0,
        0.0,
        0.0,
        0.0,
        1.0,
        0.0,
        -0.9556700000000001,
        1.7431400000000001,
        2.99869,
        1.0
      ],
      "name": "monstruo"
    },
    {
      "mesh": 8,
      "name": "monstruo_0"
    },
    {
      "children": [
        21
      ],
      "matrix": [
        1.0,
        0.0,
        0.0,
        0.0,
        0.0,
        1.0,
        0.0,
        0.0,
        0.0,
        0.0,
        1.0,
        0.0,
        -0.9556700000000001,
        1.7431400000000001,
        2.99869,
        1.0
      ],
      "name": "madera"
    },
    {
      "mesh": 9,
      "name": "madera_0"
    },
    {
      "children": [
        23
      ],
      "name": "Icosphere"
    },
    {
      "mesh": 10,
      "name": "Icosphere_0"
    },
    {
      "children": [
        25
      ],
      "matrix": [
        3.0831000000000004,
        0.0,
        0.0,
        0.0,
        0.0,
        3.0831000000000004,
        0.0,
        0.0,
        0.0,
        0.0,
        3.0831000000000004,
        0.0,
        0.0,
        0.0,
        0.0,
        1.0
      ],
      "name": "fondo"
    },
    {
      "mesh": 11,
      "name": "fondo_0"
    }
  ],
  "samplers": [
    {
      "magFilter": 9729,
      "minFilter": 9987,
      "wrapS": 10497,
      "wrapT": 10497
    }
  ],
  "scene": 0,
  "scenes": [
    {
      "name": "Sketchfab_Scene",
      "nodes": [
        0
      ]
    }
  ],
  "textures": [
    {
      "sampler": 0,
      "source": 0
    },
    {
      "sampler": 0,
      "source": 1
    },
    {
      "sampler": 0,
      "source": 2
    },
    {
      "sampler": 0,
      "source": 3
    },
    {
      "sampler": 0,
      "source": 4
    },
    {
      "sampler": 0,
      "source": 5
    },
    {
      "sampler": 0,
      "source": 6
    }
  ]
}
