{
  "accessors": [
    {
      "bufferView": 3,
      "componentType": 5126,
      "count": 8593,
      "max": [
        85.19768524169922,
        172.39308166503906,
        16.9674072265625
      ],
      "min": [
        -85.05854797363281,
        -0.0022357602138072252,
        -17.08157730102539
      ],
      "type": "VEC3"
    },
    {
      "bufferView": 3,
      "byteOffset": 103116,
      "componentType": 5126,
      "count": 8593,
      "max": [
        0.9999468326568604,
        1.0,
        0.9999889731407166
      ],
      "min": [
        -0.9999468326568604,
        -1.0,
        -0.9999550580978394
      ],
      "type": "VEC3"
    },
    {
      "bufferView": 4,
      "componentType": 5126,
      "count": 8593,
      "max": [
        1.0,
        0.9999358654022217,
        0.9999908208847046,
        1.0
      ],
      "min": [
        -1.0,
        -0.9996559619903564,
        -0.9999772906303406,
        -1.0
      ],
      "type": "VEC4"
    },
    {
      "bufferView": 2,
      "componentType": 5126,
      "count": 8593,
      "max": [
        0.9978129863739014,
        0.9977099895477295
      ],
      "min": [
        0.003913000226020813,
        0.002365000080317259
      ],
      "type": "VEC2"
    },
    {
      "bufferView": 1,
      "componentType": 5125,
      "count": 39636,
      "type": "SCALAR"
    },
    {
      "bufferView": 3,
      "byteOffset": 206232,
      "componentType": 5126,
      "count": 932,
      "max": [
        9.460330963134766,
        172.54481506347656,
        10.721091270446777
      ],
      "min": [
        -9.321250915527344,
        147.27310180664063,
        -15.618468284606934
      ],
      "type": "VEC3"
    },
    {
      "bufferView": 3,
      "byteOffset": 217416,
      "componentType": 5126,
      "count": 932,
      "max": [
        0.9996792078018188,
        0.9999855756759644,
        0.9999861717224121
      ],
      "min": [
        -0.9996793270111084,
        -0.9995450377464294,
        -0.9996916055679321
      ],
      "type": "VEC3"
    },
    {
      "bufferView": 4,
      "byteOffset": 137488,
      "componentType": 5126,
      "count": 932,
      "max": [
        1.0,
        0.9791411757469177,
        0.9997162222862244,
        1.0
      ],
      "min": [
        -0.9999258518218994,
        -0.993840754032135,
        -0.9997395277023315,
        -1.0
      ],
      "type": "VEC4"
    },
    {
      "bufferView": 2,
      "byteOffset": 68744,
      "componentType": 5126,
      "count": 932,
      "max": [
        0.9900469779968262,
        0.542156994342804
      ],
      "min": [
        0.05304599925875664,
        0.019186999648809433
      ],
      "type": "VEC2"
    },
    {
      "bufferView": 1,
      "byteOffset": 158544,
      "componentType": 5125,
      "count": 4344,
      "type": "SCALAR"
    },
    {
      "bufferView": 3,
      "byteOffset": 228600,
      "componentType": 5126,
      "count": 225,
      "max": [
        -64.60992431640625,
        145.70877075195313,
        75.22335815429688
      ],
      "min": [
        -94.6463394165039,
        136.54139709472656,
        -26.19485855102539
      ],
      "type": "VEC3"
    },
    {
      "bufferView": 3,
      "byteOffset": 231300,
      "componentType": 5126,
      "count": 225,
      "max": [
        0.9644542932510376,
        1.0,
        0.939102053642273
      ],
      "min": [
        -0.964453935623169,
        -1.0,
        -0.9390997290611267
      ],
      "type": "VEC3"
    },
    {
      "bufferView": 4,
      "byteOffset": 152400,
      "componentType": 5126,
      "count": 225,
      "max": [
        0.967242956161499,
        0.9888376593589783,
        0.9917847514152527,
        1.0
      ],
      "min": [
        -0.9721415042877197,
        -0.9844334125518799,
        -0.9917849898338318,
        -1.0
      ],
      "type": "VEC4"
    },
    {
      "bufferView": 2,
      "byteOffset": 76200,
      "componentType": 5126,
      "count": 225,
      "max": [
        0.9859830141067505,
        0.7514089941978455
      ],
      "min": [
        0.37356600165367126,
        0.049639999866485596
      ],
      "type": "VEC2"
    },
    {
      "bufferView": 2,
      "byteOffset": 78000,
      "componentType": 5126,
      "count": 225,
      "max": [
        0.9859830141067505,
        0.7514089941978455
      ],
      "min": [
        0.37356600165367126,
        0.049639999866485596
      ],
      "type": "VEC2"
    },
    {
      "bufferView": 2,
      "byteOffset": 79800,
      "componentType": 5126,
      "count": 225,
      "max": [
        0.9859830141067505,
        0.7514089941978455
      ],
      "min": [
        0.37356600165367126,
        0.049639999866485596
      ],
      "type": "VEC2"
    },
    {
      "bufferView": 2,
      "byteOffset": 81600,
      "componentType": 5126,
      "count": 225,
      "max": [
        0.9859830141067505,
        0.7514089941978455
      ],
      "min": [
        0.37356600165367126,
        0.049639999866485596
      ],
      "type": "VEC2"
    },
    {
      "bufferView": 2,
      "byteOffset": 83400,
      "componentType": 5126,
      "count": 225,
      "max": [
        0.9859830141067505,
        0.7514089941978455
      ],
      "min": [
        0.37356600165367126,
        0.049639999866485596
      ],
      "type": "VEC2"
    },
    {
      "bufferView": 2,
      "byteOffset": 85200,
      "componentType": 5126,
      "count": 225,
      "max": [
        0.9859830141067505,
        0.7514089941978455
      ],
      "min": [
        0.37356600165367126,
        0.049639999866485596
      ],
      "type": "VEC2"
    },
    {
      "bufferView": 2,
      "byteOffset": 87000,
      "componentType": 5126,
      "count": 225,
      "max": [
        0.9859830141067505,
        0.7514089941978455
      ],
      "min": [
        0.37356600165367126,
        0.049639999866485596
      ],
      "type": "VEC2"
    },
    {
      "bufferView": 2,
      "byteOffset": 88800,
      "componentType": 5126,
      "count": 225,
      "max": [
        0.9859830141067505,
        0.7514089941978455
      ],
      "min": [
        0.37356600165367126,
        0.049639999866485596
      ],
      "type": "VEC2"
    },
    {
      "bufferView": 1,
      "byteOffset": 175920,
      "componentType": 5125,
      "count": 684,
      "type": "SCALAR"
    },
    {
      "bufferView": 3,
      "byteOffset": 234000,
      "componentType": 5126,
      "count": 85,
      "max": [
        79.74951934814453,
        152.1181640625,
        22.996967315673828
      ],
      "min": [
        34.910675048828125,
        139.78172302246094,
        -44.58290100097656
      ],
      "type": "VEC3"
    },
    {
      "bufferView": 3,
      "byteOffset": 235020,
      "componentType": 5126,
      "count": 85,
      "max": [
        0.9983430504798889,
        0.4939537048339844,
        0.9428319931030273
      ],
      "min": [
        -0.9776490330696106,
        -0.35160958766937256,
        -0.9428318738937378
      ],
      "type": "VEC3"
    },
    {
      "bufferView": 4,
      "byteOffset": 156000,
      "componentType": 5126,
      "count": 85,
      "max": [
        0.4655338227748871,
        0.9983975887298584,
        0.9991046786308289,
        1.0
      ],
      "min": [
        -0.8364136815071106,
        -0.9789760708808899,
        -0.7127763032913208,
        -1.0
      ],
      "type": "VEC4"
    },
    {
      "bufferView": 2,
      "byteOffset": 90600,
      "componentType": 5126,
      "count": 85,
      "max": [
        0.6046969890594482,
        0.9964219927787781
      ],
      "min": [
        0.008324000053107738,
        0.6583170294761658
      ],
      "type": "VEC2"
    },
    {
      "bufferView": 2,
      "byteOffset": 91280,
      "componentType": 5126,
      "count": 85,
      "max": [
        0.6046969890594482,
        0.9964219927787781
      ],
      "min": [
        0.008324000053107738,
        0.6583170294761658
      ],
      "type": "VEC2"
    },
    {
      "bufferView": 2,
      "byteOffset": 91960,
      "componentType": 5126,
      "count": 85,
      "max": [
        0.6046969890594482,
        0.9964219927787781
      ],
      "min": [
        0.008324000053107738,
        0.6583170294761658
      ],
      "type": "VEC2"
    },
    {
      "bufferView": 2,
      "byteOffset": 92640,
      "componentType": 5126,
      "count": 85,
      "max": [
        0.6046969890594482,
        0.9964219927787781
      ],
      "min": [
        0.008324000053107738,
        0.6583170294761658
      ],
      "type": "VEC2"
    },
    {
      "bufferView": 2,
      "byteOffset": 93320,
      "componentType": 5126,
      "count": 85,
      "max": [
        0.6046969890594482,
        0.9964219927787781
      ],
      "min": [
        0.008324000053107738,
        0.6583170294761658
      ],
      "type": "VEC2"
    },
    {
      "bufferView": 2,
      "byteOffset": 94000,
      "componentType": 5126,
      "count": 85,
      "max": [
        0.6046969890594482,
        0.9964219927787781
      ],
      "min": [
        0.008324000053107738,
        0.6583170294761658
      ],
      "type": "VEC2"
    },
    {
      "bufferView": 2,
      "byteOffset": 94680,
      "componentType": 5126,
      "count": 85,
      "max": [
        0.6046969890594482,
        0.9964219927787781
      ],
      "min": [
        0.008324000053107738,
        0.6583170294761658
      ],
      "type": "VEC2"
    },
    {
      "bufferView": 2,
      "byteOffset": 95360,
      "componentType": 5126,
      "count": 85,
      "max": [
        0.6046969890594482,
        0.9964219927787781
      ],
      "min": [
        0.008324000053107738,
        0.6583170294761658
      ],
      "type": "VEC2"
    },
    {
      "bufferView": 1,
      "byteOffset": 178656,
      "componentType": 5125,
      "count": 306,
      "type": "SCALAR"
    },
    {
      "bufferView": 5,
      "componentType": 5126,
      "count": 68,
      "max": [
        1.0,
        0.0,
        0.0,
        0.0,
        0.0,
        1.0,
        0.0,
        0.0,
        0.0,
        0.0,
        1.0,
        0.0,
        82.2324447631836,
        0.0,
        9.936524391174316,
        1.0
      ],
      "min": [
        1.0,
        0.0,
        0.0,
        0.0,
        0.0,
        1.0,
        0.0,
        0.0,
        0.0,
        0.0,
        1.0,
        0.0,
        -82.37146759033203,
        -154.0201416015625,
        -10.142215728759766,
        1.0
      ],
      "type": "MAT4"
    },
    {
      "bufferView": 0,
      "componentType": 5123,
      "count": 8593,
      "type": "VEC4"
    },
    {
      "bufferView": 4,
      "byteOffset": 157360,
      "componentType": 5126,
      "count": 8593,
      "max": [
        1.0,
        0.4995673894882202,
        0.3275558352470398,
        0.19919906556606293
      ],
      "min": [
        0.33421221375465393,
        0.0,
        0.0,
        0.0
      ],
      "type": "VEC4"
    },
    {
      "bufferView": 0,
      "byteOffset": 68744,
      "componentType": 5123,
      "count": 932,
      "type": "VEC4"
    },
    {
      "bufferView": 4,
      "byteOffset": 294848,
      "componentType": 5126,
      "count": 932,
      "max": [
        1.0,
        0.0,
        0.0,
        0.0
      ],
      "min": [
        1.0,
        0.0,
        0.0,
        0.0
      ],
      "type": "VEC4"
    },
    {
      "bufferView": 0,
      "byteOffset": 76200,
      "componentType": 5123,
      "count": 225,
      "type": "VEC4"
    },
    {
      "bufferView": 4,
      "byteOffset": 309760,
      "componentType": 5126,
      "count": 225,
      "max": [
        1.0,
        0.0,
        0.0,
        0.0
      ],
      "min": [
        1.0,
        0.0,
        0.0,
        0.0
      ],
      "type": "VEC4"
    },
    {
      "bufferView": 0,
      "byteOffset": 78000,
      "componentType": 5123,
      "count": 85,
      "type": "VEC4"
    },
    {
      "bufferView": 4,
      "byteOffset": 313360,
      "componentType": 5126,
      "count": 85,
      "max": [
        1.0,
        0.0,
        0.0,
        0.0
      ],
      "min": [
        1.0,
        0.0,
        0.0,
        0.0
      ],
      "type": "VEC4"
    },
    {
      "bufferView": 6,
      "componentType": 5126,
      "count": 127,
      "max": [
        4.666666507720947
      ],
      "min": [
        0.0
      ],
      "type": "SCALAR"
    },
    {
      "bufferView": 7,
      "componentType": 5126,
      "count": 127,
      "max": [
        -1.076841726899147e-09,
        5.5640363693237305,
        0.9880855679512024
      ],
      "min": [
        -1.0768701486085774e-09,
        5.5640363693237305,
        0.9880855679512024
      ],
      "type": "VEC3"
    },
    {
      "bufferView": 6,
      "byteOffset": 508,
      "componentType": 5126,
      "count": 141,
      "max": [
        4.666666507720947
      ],
      "min": [
        0.0
      ],
      "type": "SCALAR"
    },
    {
      "bufferView": 8,
      "componentType": 5126,
      "count": 141,
      "max": [
        0.2656732499599457,
        0.35828492045402527,
        0.15932874381542206,
        0.999911367893219
      ],
      "min": [
        -0.06611612439155579,
        -0.264616996049881,
        -0.196474090218544,
        0.9045287370681763
      ],
      "type": "VEC4"
    },
    {
      "bufferView": 6,
      "byteOffset": 1072,
      "componentType": 5126,
      "count": 141,
      "max": [
        4.666666507720947
      ],
      "min": [
        0.0
      ],
      "type": "SCALAR"
    },
    {
      "bufferView": 8,
      "byteOffset": 2256,
      "componentType": 5126,
      "count": 141,
      "max": [
        0.2295181006193161,
        0.4155082106590271,
        0.275911420583725,
        0.997800350189209
      ],
      "min": [
        -0.3697274327278137,
        -0.30802926421165466,
        -0.19630654156208038,
        0.895768404006958
      ],
      "type": "VEC4"
    },
    {
      "bufferView": 6,
      "byteOffset": 1636,
      "componentType": 5126,
      "count": 1,
      "max": [
        0.0
      ],
      "min": [
        0.0
      ],
      "type": "SCALAR"
    },
    {
      "bufferView": 8,
      "byteOffset": 4512,
      "componentType": 5126,
      "count": 1,
      "max": [
        0.14625945687294006,
        0.24212266504764557,
        -0.011279684491455555,
        0.9590920209884644
      ],
      "min": [
        0.14625945687294006,
        0.24212266504764557,
        -0.011279684491455555,
        0.9590920209884644
      ],
      "type": "VEC4"
    },
    {
      "bufferView": 6,
      "byteOffset": 1640,
      "componentType": 5126,
      "count": 1,
      "max": [
        0.0
      ],
      "min": [
        0.0
      ],
      "type": "SCALAR"
    },
    {
      "bufferView": 8,
      "byteOffset": 4528,
      "componentType": 5126,
      "count": 1,
      "max": [
        -0.011717181652784348,
        0.12296617031097412,
        -0.0636930763721466,
        0.9902955293655396
      ],
      "min": [
        -0.011717181652784348,
        0.12296617031097412,
        -0.0636930763721466,
        0.9902955293655396
      ],
      "type": "VEC4"
    },
    {
      "bufferView": 6,
      "byteOffset": 1644,
      "componentType": 5126,
      "count": 1,
      "max": [
        0.0
      ],
      "min": [
        0.0
      ],
      "type": "SCALAR"
    },
    {
      "bufferView": 8,
      "byteOffset": 4544,
      "componentType": 5126,
      "count": 1,
      "max": [
        0.4049384891986847,
        -0.2557741403579712,
        0.15135447680950165,
        0.8646942973136902
      ],
      "min": [
        0.4049384891986847,
        -0.2557741403579712,
        0.15135447680950165,
        0.8646942973136902
      ],
      "type": "VEC4"
    },
    {
      "bufferView": 6,
      "byteOffset": 1648,
      "componentType": 5126,
      "count": 1,
      "max": [
        0.0
      ],
      "min": [
        0.0
      ],
      "type": "SCALAR"
    },
    {
      "bufferView": 8,
      "byteOffset": 4560,
      "componentType": 5126,
      "count": 1,
      "max": [
        0.007548556197434664,
        -0.03512680158019066,
        -0.5230334997177124,
        0.8515545129776001
      ],
      "min": [
        0.007548556197434664,
        -0.03512680158019066,
        -0.5230334997177124,
        0.8515545129776001
      ],
      "type": "VEC4"
    },
    {
      "bufferView": 6,
      "byteOffset": 1652,
      "componentType": 5126,
      "count": 1,
      "max": [
        0.0
      ],
      "min": [
        0.0
      ],
      "type": "SCALAR"
    },
    {
      "bufferView": 8,
      "byteOffset": 4576,
      "componentType": 5126,
      "count": 1,
      "max": [
        0.004988993518054485,
        0.009076407179236412,
        -0.5662001967430115,
        0.8242026567459106
      ],
      "min": [
        0.004988993518054485,
        0.009076407179236412,
        -0.5662001967430115,
        0.8242026567459106
      ],
      "type": "VEC4"
    },
    {
      "bufferView": 6,
      "byteOffset": 1656,
      "componentType": 5126,
      "count": 1,
      "max": [
        0.0
      ],
      "min": [
        0.0
      ],
      "type": "SCALAR"
    },
    {
      "bufferView": 8,
      "byteOffset": 4592,
      "componentType": 5126,
      "count": 1,
      "max": [
        0.05463319644331932,
        -0.08414332568645477,
        -0.3041214346885681,
        0.9473358988761902
      ],
      "min": [
        0.05463319644331932,
        -0.08414332568645477,
        -0.3041214346885681,
        0.9473358988761902
      ],
      "type": "VEC4"
    },
    {
      "bufferView": 6,
      "byteOffset": 1660,
      "componentType": 5126,
      "count": 1,
      "max": [
        0.0
      ],
      "min": [
        0.0
      ],
      "type": "SCALAR"
    },
    {
      "bufferView": 8,
      "byteOffset": 4608,
      "componentType": 5126,
      "count": 1,
      "max": [
        -0.006724382285028696,
        -0.030861547216773033,
        -0.3746199607849121,
        0.9266402721405029
      ],
      "min": [
        -0.006724382285028696,
        -0.030861547216773033,
        -0.3746199607849121,
        0.9266402721405029
      ],
      "type": "VEC4"
    },
    {
      "bufferView": 6,
      "byteOffset": 1664,
      "componentType": 5126,
      "count": 1,
      "max": [
        0.0
      ],
      "min": [
        0.0
      ],
      "type": "SCALAR"
    },
    {
      "bufferView": 8,
      "byteOffset": 4624,
      "componentType": 5126,
      "count": 1,
      "max": [
        -0.016285402700304985,
        0.006694651208817959,
        -0.5581258535385132,
        0.8295694589614868
      ],
      "min": [
        -0.016285402700304985,
        0.006694651208817959,
        -0.5581258535385132,
        0.8295694589614868
      ],
      "type": "VEC4"
    },
    {
      "bufferView": 6,
      "byteOffset": 1668,
      "componentType": 5126,
      "count": 1,
      "max": [
        0.0
      ],
      "min": [
        0.0
      ],
      "type": "SCALAR"
    },
    {
      "bufferView": 8,
      "byteOffset": 4640,
      "componentType": 5126,
      "count": 1,
      "max": [
        -0.01078864000737667,
        -0.05409910902380943,
        -0.38634052872657776,
        0.9207050800323486
      ],
      "min": [
        -0.01078864000737667,
        -0.05409910902380943,
        -0.38634052872657776,
        0.9207050800323486
      ],
      "type": "VEC4"
    },
    {
      "bufferView": 6,
      "byteOffset": 1672,
      "componentType": 5126,
      "count": 1,
      "max": [
        0.0
      ],
      "min": [
        0.0
      ],
      "type": "SCALAR"
    },
    {
      "bufferView": 8,
      "byteOffset": 4656,
      "componentType": 5126,
      "count": 1,
      "max": [
        0.0050832112319767475,
        -0.026718949899077415,
        -0.4872928857803345,
        0.872814953327179
      ],
      "min": [
        0.0050832112319767475,
        -0.026718949899077415,
        -0.4872928857803345,
        0.872814953327179
      ],
      "type": "VEC4"
    },
    {
      "bufferView": 6,
      "byteOffset": 1676,
      "componentType": 5126,
      "count": 1,
      "max": [
        0.0
      ],
      "min": [
        0.0
      ],
      "type": "SCALAR"
    },
    {
      "bufferView": 8,
      "byteOffset": 4672,
      "componentType": 5126,
      "count": 1,
      "max": [
        0.0037524986546486616,
        -0.005567949265241623,
        -0.3690144717693329,
        0.9293993711471558
      ],
      "min": [
        0.0037524986546486616,
        -0.005567949265241623,
        -0.3690144717693329,
        0.9293993711471558
      ],
      "type": "VEC4"
    },
    {
      "bufferView": 6,
      "byteOffset": 1680,
      "componentType": 5126,
      "count": 1,
      "max": [
        0.0
      ],
      "min": [
        0.0
      ],
      "type": "SCALAR"
    },
    {
      "bufferView": 8,
      "byteOffset": 4688,
      "componentType": 5126,
      "count": 1,
      "max": [
        -0.0352441668510437,
        -0.03134200721979141,
        -0.48774269223213196,
        0.8717124462127686
      ],
      "min": [
        -0.0352441668510437,
        -0.03134200721979141,
        -0.48774269223213196,
        0.8717124462127686
      ],
      "type": "VEC4"
    },
    {
      "bufferView": 6,
      "byteOffset": 1684,
      "componentType": 5126,
      "count": 1,
      "max": [
        0.0
      ],
      "min": [
        0.0
      ],
      "type": "SCALAR"
    },
    {
      "bufferView": 8,
      "byteOffset": 4704,
      "componentType": 5126,
      "count": 1,
      "max": [
        -0.0028130197897553444,
        -0.007558254525065422,
        -0.2162964642047882,
        0.9762943983078003
      ],
      "min": [
        -0.0028130197897553444,
        -0.007558254525065422,
        -0.2162964642047882,
        0.9762943983078003
      ],
      "type": "VEC4"
    },
    {
      "bufferView": 6,
      "byteOffset": 1688,
      "componentType": 5126,
      "count": 1,
      "max": [
        0.0
      ],
      "min": [
        0.0
      ],
      "type": "SCALAR"
    },
    {
      "bufferView": 8,
      "byteOffset": 4720,
      "componentType": 5126,
      "count": 1,
      "max": [
        0.0009871477959677577,
        -0.013752107508480549,
        -0.3874395787715912,
        0.9217919707298279
      ],
      "min": [
        0.0009871477959677577,
        -0.013752107508480549,
        -0.3874395787715912,
        0.9217919707298279
      ],
      "type": "VEC4"
    },
    {
      "bufferView": 6,
      "byteOffset": 1692,
      "componentType": 5126,
      "count": 1,
      "max": [
        0.0
      ],
      "min": [
        0.0
      ],
      "type": "SCALAR"
    },
    {
      "bufferView": 8,
      "byteOffset": 4736,
      "componentType": 5126,
      "count": 1,
      "max": [
        -0.09444313496351242,
        0.048156868666410446,
        -0.4036163091659546,
        0.9087657928466797
      ],
      "min": [
        -0.09444313496351242,
        0.048156868666410446,
        -0.4036163091659546,
        0.9087657928466797
      ],
      "type": "VEC4"
    },
    {
      "bufferView": 6,
      "byteOffset": 1696,
      "componentType": 5126,
      "count": 141,
      "max": [
        4.666666507720947
      ],
      "min": [
        0.0
      ],
      "type": "SCALAR"
    },
    {
      "bufferView": 8,
      "byteOffset": 4752,
      "componentType": 5126,
      "count": 141,
      "max": [
        0.041047029197216034,
        0.28125670552253723,
        0.4754096269607544,
        0.9956904053688049
      ],
      "min": [
        -0.6918732523918152,
        -0.31924599409103394,
        -0.12555965781211853,
        0.7113991975784302
      ],
      "type": "VEC4"
    },
    {
      "bufferView": 6,
      "byteOffset": 2260,
      "componentType": 5126,
      "count": 191,
      "max": [
        4.666666507720947
      ],
      "min": [
        0.0
      ],
      "type": "SCALAR"
    },
    {
      "bufferView": 8,
      "byteOffset": 7008,
      "componentType": 5126,
      "count": 191,
      "max": [
        0.5895133018493652,
        0.06035834178328514,
        0.04477137327194214,
        0.9989240765571594
      ],
      "min": [
        -0.5828856229782104,
        -0.6846330165863037,
        -0.38880056142807007,
        0.5391905307769775
      ],
      "type": "VEC4"
    },
    {
      "bufferView": 6,
      "byteOffset": 3024,
      "componentType": 5126,
      "count": 165,
      "max": [
        4.666666507720947
      ],
      "min": [
        0.0
      ],
      "type": "SCALAR"
    },
    {
      "bufferView": 8,
      "byteOffset": 10064,
      "componentType": 5126,
      "count": 165,
      "max": [
        0.2438092678785324,
        0.3279288411140442,
        0.2340295910835266,
        0.9442826509475708
      ],
      "min": [
        -0.705524206161499,
        -0.7389427423477173,
        -0.5214616060256958,
        0.6313323974609375
      ],
      "type": "VEC4"
    },
    {
      "bufferView": 6,
      "byteOffset": 3684,
      "componentType": 5126,
      "count": 139,
      "max": [
        4.599999904632568
      ],
      "min": [
        0.0
      ],
      "type": "SCALAR"
    },
    {
      "bufferView": 8,
      "byteOffset": 12704,
      "componentType": 5126,
      "count": 139,
      "max": [
        0.09350762516260147,
        -0.028406819328665733,
        0.2368943989276886,
        0.9940705299377441
      ],
      "min": [
        -0.04054785147309303,
        -0.29405301809310913,
        -0.10608750581741333,
        0.9544370770454407
      ],
      "type": "VEC4"
    },
    {
      "bufferView": 6,
      "byteOffset": 4240,
      "componentType": 5126,
      "count": 141,
      "max": [
        4.666666507720947
      ],
      "min": [
        0.0
      ],
      "type": "SCALAR"
    },
    {
      "bufferView": 8,
      "byteOffset": 14928,
      "componentType": 5126,
      "count": 141,
      "max": [
        0.1628548502922058,
        0.12731976807117462,
        0.020532168447971344,
        0.9998510479927063
      ],
      "min": [
        -0.08738923817873001,
        -0.26979631185531616,
        -0.10161809623241425,
        0.948823869228363
      ],
      "type": "VEC4"
    },
    {
      "bufferView": 6,
      "byteOffset": 4804,
      "componentType": 5126,
      "count": 138,
      "max": [
        4.566666603088379
      ],
      "min": [
        0.0
      ],
      "type": "SCALAR"
    },
    {
      "bufferView": 8,
      "byteOffset": 17184,
      "componentType": 5126,
      "count": 138,
      "max": [
        0.0958436131477356,
        -0.024478061124682426,
        0.336900919675827,
        0.9936623573303223
      ],
      "min": [
        -0.021874459460377693,
        -0.18468138575553894,
        -0.0033170762471854687,
        0.9341886639595032
      ],
      "type": "VEC4"
    },
    {
      "bufferView": 6,
      "byteOffset": 5356,
      "componentType": 5126,
      "count": 141,
      "max": [
        4.666666507720947
      ],
      "min": [
        0.0
      ],
      "type": "SCALAR"
    },
    {
      "bufferView": 8,
      "byteOffset": 19392,
      "componentType": 5126,
      "count": 141,
      "max": [
        0.42051321268081665,
        0.3668966293334961,
        0.04331234097480774,
        0.9858149290084839
      ],
      "min": [
        0.1269424855709076,
        0.09463617950677872,
        -0.18015305697917938,
        0.8532509207725525
      ],
      "type": "VEC4"
    },
    {
      "bufferView": 6,
      "byteOffset": 5920,
      "componentType": 5126,
      "count": 140,
      "max": [
        4.633333206176758
      ],
      "min": [
        0.0
      ],
      "type": "SCALAR"
    },
    {
      "bufferView": 8,
      "byteOffset": 21648,
      "componentType": 5126,
      "count": 140,
      "max": [
        -0.0008699814206920564,
        0.008512081578373909,
        0.37296396493911743,
        0.9999667406082153
      ],
      "min": [
        -0.033989809453487396,
        -0.009070237167179585,
        -0.0705016627907753,
        0.9272131323814392
      ],
      "type": "VEC4"
    },
    {
      "bufferView": 6,
      "byteOffset": 6480,
      "componentType": 5126,
      "count": 141,
      "max": [
        4.666666507720947
      ],
      "min": [
        0.0
      ],
      "type": "SCALAR"
    },
    {
      "bufferView": 8,
      "byteOffset": 23888,
      "componentType": 5126,
      "count": 141,
      "max": [
        0.0043474524281919,
        0.012617330066859722,
        0.3706877529621124,
        0.99991774559021
      ],
      "min": [
        -0.014210841618478298,
        -0.0044333357363939285,
        -0.010501346550881863,
        0.9286721348762512
      ],
      "type": "VEC4"
    },
    {
      "bufferView": 6,
      "byteOffset": 7044,
      "componentType": 5126,
      "count": 141,
      "max": [
        4.666666507720947
      ],
      "min": [
        0.0
      ],
      "type": "SCALAR"
    },
    {
      "bufferView": 8,
      "byteOffset": 26144,
      "componentType": 5126,
      "count": 141,
      "max": [
        0.07799993455410004,
        -0.03142411261796951,
        0.2893291413784027,
        0.9982758164405823
      ],
      "min": [
        -0.07643072307109833,
        -0.10525047034025192,
        -0.15767669677734375,
        0.9535288214683533
      ],
      "type": "VEC4"
    },
    {
      "bufferView": 6,
      "byteOffset": 7608,
      "componentType": 5126,
      "count": 140,
      "max": [
        4.633333206176758
      ],
      "min": [
        0.0
      ],
      "type": "SCALAR"
    },
    {
      "bufferView": 8,
      "byteOffset": 28400,
      "componentType": 5126,
      "count": 140,
      "max": [
        0.0080101964995265,
        0.0278958547860384,
        0.5158162117004395,
        0.9999306201934814
      ],
      "min": [
        -0.009952706284821033,
        -0.0006975478609092534,
        -0.07320474088191986,
        0.8563030362129211
      ],
      "type": "VEC4"
    },
    {
      "bufferView": 6,
      "byteOffset": 8168,
      "componentType": 5126,
      "count": 139,
      "max": [
        4.599999904632568
      ],
      "min": [
        0.0
      ],
      "type": "SCALAR"
    },
    {
      "bufferView": 8,
      "byteOffset": 30640,
      "componentType": 5126,
      "count": 139,
      "max": [
        0.004991371650248766,
        0.004275195766240358,
        0.34493526816368103,
        0.9999094605445862
      ],
      "min": [
        -0.010412905365228653,
        -0.012485519982874393,
        -0.04378686472773552,
        0.9386110305786133
      ],
      "type": "VEC4"
    },
    {
      "bufferView": 6,
      "byteOffset": 8724,
      "componentType": 5126,
      "count": 138,
      "max": [
        4.566666603088379
      ],
      "min": [
        0.0
      ],
      "type": "SCALAR"
    },
    {
      "bufferView": 8,
      "byteOffset": 32864,
      "componentType": 5126,
      "count": 138,
      "max": [
        0.020576143637299538,
        0.02575341984629631,
        0.3945884108543396,
        0.9973389506340027
      ],
      "min": [
        -0.040114063769578934,
        -0.07897229492664337,
        0.06356265395879745,
        0.9179814457893372
      ],
      "type": "VEC4"
    },
    {
      "bufferView": 6,
      "byteOffset": 9276,
      "componentType": 5126,
      "count": 141,
      "max": [
        4.666666507720947
      ],
      "min": [
        0.0
      ],
      "type": "SCALAR"
    },
    {
      "bufferView": 8,
      "byteOffset": 35072,
      "componentType": 5126,
      "count": 141,
      "max": [
        0.016138991340994835,
        0.03179172798991203,
        0.39493730664253235,
        0.9993999600410461
      ],
      "min": [
        -0.007721484173089266,
        0.015877675265073776,
        0.030660070478916168,
        0.918165922164917
      ],
      "type": "VEC4"
    },
    {
      "bufferView": 6,
      "byteOffset": 9840,
      "componentType": 5126,
      "count": 141,
      "max": [
        4.666666507720947
      ],
      "min": [
        0.0
      ],
      "type": "SCALAR"
    },
    {
      "bufferView": 8,
      "byteOffset": 37328,
      "componentType": 5126,
      "count": 141,
      "max": [
        0.004345260094851255,
        -0.009773717261850834,
        0.47129830718040466,
        0.9991152286529541
      ],
      "min": [
        -0.013025728985667229,
        -0.03724673390388489,
        0.01934979110956192,
        0.8817781805992126
      ],
      "type": "VEC4"
    },
    {
      "bufferView": 6,
      "byteOffset": 10404,
      "componentType": 5126,
      "count": 135,
      "max": [
        4.4666666984558105
      ],
      "min": [
        0.0
      ],
      "type": "SCALAR"
    },
    {
      "bufferView": 8,
      "byteOffset": 39584,
      "componentType": 5126,
      "count": 135,
      "max": [
        0.014211082831025124,
        0.05641637369990349,
        0.47531071305274963,
        0.9997939467430115
      ],
      "min": [
        -0.010437315329909325,
        0.0007115915650501847,
        0.011618453077971935,
        0.8791319131851196
      ],
      "type": "VEC4"
    },
    {
      "bufferView": 6,
      "byteOffset": 10944,
      "componentType": 5126,
      "count": 141,
      "max": [
        4.666666507720947
      ],
      "min": [
        0.0
      ],
      "type": "SCALAR"
    },
    {
      "bufferView": 8,
      "byteOffset": 41744,
      "componentType": 5126,
      "count": 141,
      "max": [
        0.016529224812984467,
        0.034901030361652374,
        0.49203118681907654,
        0.9997850656509399
      ],
      "min": [
        -0.01416601613163948,
        0.015642454847693443,
        -0.08526203036308289,
        0.8698505163192749
      ],
      "type": "VEC4"
    },
    {
      "bufferView": 6,
      "byteOffset": 11508,
      "componentType": 5126,
      "count": 141,
      "max": [
        4.666666507720947
      ],
      "min": [
        0.0
      ],
      "type": "SCALAR"
    },
    {
      "bufferView": 8,
      "byteOffset": 44000,
      "componentType": 5126,
      "count": 141,
      "max": [
        0.01979527622461319,
        -0.009529883041977882,
        0.5225464701652527,
        0.9990692734718323
      ],
      "min": [
        -0.02032923698425293,
        -0.03838140144944191,
        0.01520302053540945,
        0.8525082468986511
      ],
      "type": "VEC4"
    },
    {
      "bufferView": 6,
      "byteOffset": 12072,
      "componentType": 5126,
      "count": 140,
      "max": [
        4.633333206176758
      ],
      "min": [
        0.0
      ],
      "type": "SCALAR"
    },
    {
      "bufferView": 8,
      "byteOffset": 46256,
      "componentType": 5126,
      "count": 140,
      "max": [
        0.06611555814743042,
        0.10765460133552551,
        0.36727988719940186,
        0.9985069632530212
      ],
      "min": [
        -0.02926459163427353,
        -0.020362095907330513,
        -0.07723761349916458,
        0.9249570369720459
      ],
      "type": "VEC4"
    },
    {
      "bufferView": 6,
      "byteOffset": 12632,
      "componentType": 5126,
      "count": 141,
      "max": [
        4.666666507720947
      ],
      "min": [
        0.0
      ],
      "type": "SCALAR"
    },
    {
      "bufferView": 8,
      "byteOffset": 48496,
      "componentType": 5126,
      "count": 141,
      "max": [
        0.146219402551651,
        0.23007585108280182,
        0.03448740392923355,
        0.9967206120491028
      ],
      "min": [
        -0.7186664342880249,
        -0.42935940623283386,
        -0.28011828660964966,
        0.6888192892074585
      ],
      "type": "VEC4"
    },
    {
      "bufferView": 6,
      "byteOffset": 13196,
      "componentType": 5126,
      "count": 262,
      "max": [
        4.666666507720947
      ],
      "min": [
        0.0
      ],
      "type": "SCALAR"
    },
    {
      "bufferView": 8,
      "byteOffset": 50752,
      "componentType": 5126,
      "count": 262,
      "max": [
        0.3508276343345642,
        0.784332275390625,
        0.4458375871181488,
        0.9999327063560486
      ],
      "min": [
        -0.6215828061103821,
        -0.029564399272203445,
        -0.1269925981760025,
        0.5383251905441284
      ],
      "type": "VEC4"
    },
    {
      "bufferView": 6,
      "byteOffset": 14244,
      "componentType": 5126,
      "count": 141,
      "max": [
        4.666666507720947
      ],
      "min": [
        0.0
      ],
      "type": "SCALAR"
    },
    {
      "bufferView": 8,
      "byteOffset": 54944,
      "componentType": 5126,
      "count": 141,
      "max": [
        0.08979379385709763,
        0.596508800983429,
        0.5443627238273621,
        0.9476856589317322
      ],
      "min": [
        -0.5202275514602661,
        -0.24287006258964539,
        -0.13216260075569153,
        0.7317697405815125
      ],
      "type": "VEC4"
    },
    {
      "bufferView": 6,
      "byteOffset": 14808,
      "componentType": 5126,
      "count": 141,
      "max": [
        4.666666507720947
      ],
      "min": [
        0.0
      ],
      "type": "SCALAR"
    },
    {
      "bufferView": 8,
      "byteOffset": 57200,
      "componentType": 5126,
      "count": 141,
      "max": [
        0.06677187234163284,
        0.30983400344848633,
        0.1408422738313675,
        0.9990532398223877
      ],
      "min": [
        -0.07720019668340683,
        -0.0768086165189743,
        -0.4057494103908539,
        0.9089896082878113
      ],
      "type": "VEC4"
    },
    {
      "bufferView": 6,
      "byteOffset": 15372,
      "componentType": 5126,
      "count": 141,
      "max": [
        4.666666507720947
      ],
      "min": [
        0.0
      ],
      "type": "SCALAR"
    },
    {
      "bufferView": 8,
      "byteOffset": 59456,
      "componentType": 5126,
      "count": 141,
      "max": [
        0.029762204736471176,
        0.15525458753108978,
        0.12147969752550125,
        0.9995172619819641
      ],
      "min": [
        -0.16632205247879028,
        -0.1076463982462883,
        -0.07655443996191025,
        0.9829176068305969
      ],
      "type": "VEC4"
    },
    {
      "bufferView": 6,
      "byteOffset": 15936,
      "componentType": 5126,
      "count": 141,
      "max": [
        4.666666507720947
      ],
      "min": [
        0.0
      ],
      "type": "SCALAR"
    },
    {
      "bufferView": 8,
      "byteOffset": 61712,
      "componentType": 5126,
      "count": 141,
      "max": [
        0.1289490908384323,
        0.111925408244133,
        0.13883711397647858,
        0.9990457892417908
      ],
      "min": [
        -0.066440649330616,
        -0.09727074950933456,
        -0.03576173260807991,
        0.985966682434082
      ],
      "type": "VEC4"
    },
    {
      "bufferView": 6,
      "byteOffset": 16500,
      "componentType": 5126,
      "count": 141,
      "max": [
        4.666666507720947
      ],
      "min": [
        0.0
      ],
      "type": "SCALAR"
    },
    {
      "bufferView": 8,
      "byteOffset": 63968,
      "componentType": 5126,
      "count": 141,
      "max": [
        0.13648727536201477,
        0.08269461244344711,
        0.042384203523397446,
        0.998283326625824
      ],
      "min": [
        0.038074806332588196,
        -0.033236220479011536,
        -0.04478100687265396,
        0.9899594187736511
      ],
      "type": "VEC4"
    },
    {
      "bufferView": 6,
      "byteOffset": 17064,
      "componentType": 5126,
      "count": 139,
      "max": [
        4.599999904632568
      ],
      "min": [
        0.0
      ],
      "type": "SCALAR"
    },
    {
      "bufferView": 8,
      "byteOffset": 66224,
      "componentType": 5126,
      "count": 139,
      "max": [
        0.12898503243923187,
        0.11614300310611725,
        0.0019372820388525724,
        0.9996809959411621
      ],
      "min": [
        -0.02580575831234455,
        -0.029970740899443626,
        -0.20246821641921997,
        0.9781028628349304
      ],
      "type": "VEC4"
    },
    {
      "bufferView": 6,
      "byteOffset": 17620,
      "componentType": 5126,
      "count": 140,
      "max": [
        4.633333206176758
      ],
      "min": [
        0.0
      ],
      "type": "SCALAR"
    },
    {
      "bufferView": 8,
      "byteOffset": 68448,
      "componentType": 5126,
      "count": 140,
      "max": [
        -0.07118897140026093,
        -0.01823326386511326,
        0.06673136353492737,
        0.9842004776000977
      ],
      "min": [
        -0.33527201414108276,
        -0.29636436700820923,
        -0.2354784607887268,
        0.9329074025154114
      ],
      "type": "VEC4"
    },
    {
      "bufferView": 6,
      "byteOffset": 18180,
      "componentType": 5126,
      "count": 140,
      "max": [
        4.633333206176758
      ],
      "min": [
        0.0
      ],
      "type": "SCALAR"
    },
    {
      "bufferView": 8,
      "byteOffset": 70688,
      "componentType": 5126,
      "count": 140,
      "max": [
        0.6536127328872681,
        0.330267071723938,
        0.0807708278298378,
        0.9711346626281738
      ],
      "min": [
        0.21888254582881927,
        -0.19886638224124908,
        -0.10167806595563889,
        0.7537171840667725
      ],
      "type": "VEC4"
    },
    {
      "bufferView": 6,
      "byteOffset": 18740,
      "componentType": 5126,
      "count": 135,
      "max": [
        4.4666666984558105
      ],
      "min": [
        0.0
      ],
      "type": "SCALAR"
    },
    {
      "bufferView": 8,
      "byteOffset": 72928,
      "componentType": 5126,
      "count": 135,
      "max": [
        0.04724838212132454,
        0.3687545955181122,
        0.30197346210479736,
        0.9803593158721924
      ],
      "min": [
        -0.4195617139339447,
        -0.2757735848426819,
        0.01855885051190853,
        0.8277979493141174
      ],
      "type": "VEC4"
    },
    {
      "bufferView": 6,
      "byteOffset": 19280,
      "componentType": 5126,
      "count": 141,
      "max": [
        4.666666507720947
      ],
      "min": [
        0.0
      ],
      "type": "SCALAR"
    },
    {
      "bufferView": 8,
      "byteOffset": 75088,
      "componentType": 5126,
      "count": 141,
      "max": [
        0.0483415313065052,
        0.05648967996239662,
        0.1939794421195984,
        0.9992614984512329
      ],
      "min": [
        -0.19898948073387146,
        -0.01453095767647028,
        -0.011251288466155529,
        0.9691300988197327
      ],
      "type": "VEC4"
    },
    {
      "bufferView": 6,
      "byteOffset": 19844,
      "componentType": 5126,
      "count": 141,
      "max": [
        4.666666507720947
      ],
      "min": [
        0.0
      ],
      "type": "SCALAR"
    },
    {
      "bufferView": 8,
      "byteOffset": 77344,
      "componentType": 5126,
      "count": 141,
      "max": [
        0.08862082660198212,
        0.14055290818214417,
        0.2174806445837021,
        0.9993035197257996
      ],
      "min": [
        -0.1526343822479248,
        -0.3724520802497864,
        -0.014109686017036438,
        0.9217454195022583
      ],
      "type": "VEC4"
    },
    {
      "bufferView": 6,
      "byteOffset": 20408,
      "componentType": 5126,
      "count": 141,
      "max": [
        4.666666507720947
      ],
      "min": [
        0.0
      ],
      "type": "SCALAR"
    },
    {
      "bufferView": 8,
      "byteOffset": 79600,
      "componentType": 5126,
      "count": 141,
      "max": [
        0.5428277254104614,
        0.43715184926986694,
        0.19072258472442627,
        0.9701698422431946
      ],
      "min": [
        0.18252654373645782,
        -0.2091553658246994,
        -0.1349320113658905,
        0.8202622532844543
      ],
      "type": "VEC4"
    },
    {
      "bufferView": 6,
      "byteOffset": 20972,
      "componentType": 5126,
      "count": 140,
      "max": [
        4.633333206176758
      ],
      "min": [
        0.0
      ],
      "type": "SCALAR"
    },
    {
      "bufferView": 8,
      "byteOffset": 81856,
      "componentType": 5126,
      "count": 140,
      "max": [
        0.1705007702112198,
        0.07137405127286911,
        0.03025071881711483,
        0.9916733503341675
      ],
      "min": [
        -0.5997856259346008,
        -0.4033285081386566,
        -0.2517828047275543,
        0.7953655123710632
      ],
      "type": "VEC4"
    },
    {
      "bufferView": 6,
      "byteOffset": 21532,
      "componentType": 5126,
      "count": 144,
      "max": [
        4.666666507720947
      ],
      "min": [
        0.0
      ],
      "type": "SCALAR"
    },
    {
      "bufferView": 7,
      "byteOffset": 1524,
      "componentType": 5126,
      "count": 144,
      "max": [
        12.783757209777832,
        91.09657287597656,
        158.10086059570313
      ],
      "min": [
        -6.880491256713867,
        75.79325866699219,
        0.5403944253921509
      ],
      "type": "VEC3"
    },
    {
      "bufferView": 6,
      "byteOffset": 22108,
      "componentType": 5126,
      "count": 144,
      "max": [
        4.666666507720947
      ],
      "min": [
        0.0
      ],
      "type": "SCALAR"
    },
    {
      "bufferView": 8,
      "byteOffset": 84096,
      "componentType": 5126,
      "count": 144,
      "max": [
        0.5246476531028748,
        0.897122859954834,
        0.4024933874607086,
        0.9977854490280151
      ],
      "min": [
        -0.56134432554245,
        -0.7745006680488586,
        -0.17047615349292755,
        0.43019983172416687
      ],
      "type": "VEC4"
    }
  ],
  "animations": [
    {
      "channels": [
        {
          "sampler": 0,
          "target": {
            "node": 15,
            "path": "translation"
          }
        },
        {
          "sampler": 1,
          "target": {
            "node": 15,
            "path": "rotation"
          }
        },
        {
          "sampler": 2,
          "target": {
            "node": 14,
            "path": "rotation"
          }
        },
        {
          "sampler": 3,
          "target": {
            "node": 23,
            "path": "rotation"
          }
        },
        {
          "sampler": 4,
          "target": {
            "node": 22,
            "path": "rotation"
          }
        },
        {
          "sampler": 5,
          "target": {
            "node": 21,
            "path": "rotation"
          }
        },
        {
          "sampler": 6,
          "target": {
            "node": 27,
            "path": "rotation"
          }
        },
        {
          "sampler": 7,
          "target": {
            "node": 26,
            "path": "rotation"
          }
        },
        {
          "sampler": 8,
          "target": {
            "node": 25,
            "path": "rotation"
          }
        },
        {
          "sampler": 9,
          "target": {
            "node": 31,
            "path": "rotation"
          }
        },
        {
          "sampler": 10,
          "target": {
            "node": 30,
            "path": "rotation"
          }
        },
        {
          "sampler": 11,
          "target": {
            "node": 29,
            "path": "rotation"
          }
        },
        {
          "sampler": 12,
          "target": {
            "node": 35,
            "path": "rotation"
          }
        },
        {
          "sampler": 13,
          "target": {
            "node": 34,
            "path": "rotation"
          }
        },
        {
          "sampler": 14,
          "target": {
            "node": 33,
            "path": "rotation"
          }
        },
        {
          "sampler": 15,
          "target": {
            "node": 39,
            "path": "rotation"
          }
        },
        {
          "sampler": 16,
          "target": {
            "node": 38,
            "path": "rotation"
          }
        },
        {
          "sampler": 17,
          "target": {
            "node": 37,
            "path": "rotation"
          }
        },
        {
          "sampler": 18,
          "target": {
            "node": 20,
            "path": "rotation"
          }
        },
        {
          "sampler": 19,
          "target": {
            "node": 19,
            "path": "rotation"
          }
        },
        {
          "sampler": 20,
          "target": {
            "node": 18,
            "path": "rotation"
          }
        },
        {
          "sampler": 21,
          "target": {
            "node": 17,
            "path": "rotation"
          }
        },
        {
          "sampler": 22,
          "target": {
            "node": 48,
            "path": "rotation"
          }
        },
        {
          "sampler": 23,
          "target": {
            "node": 47,
            "path": "rotation"
          }
        },
        {
          "sampler": 24,
          "target": {
            "node": 46,
            "path": "rotation"
          }
        },
        {
          "sampler": 25,
          "target": {
            "node": 52,
            "path": "rotation"
          }
        },
        {
          "sampler": 26,
          "target": {
            "node": 51,
            "path": "rotation"
          }
        },
        {
          "sampler": 27,
          "target": {
            "node": 50,
            "path": "rotation"
          }
        },
        {
          "sampler": 28,
          "target": {
            "node": 56,
            "path": "rotation"
          }
        },
        {
          "sampler": 29,
          "target": {
            "node": 55,
            "path": "rotation"
          }
        },
        {
          "sampler": 30,
          "target": {
            "node": 54,
            "path": "rotation"
          }
        },
        {
          "sampler": 31,
          "target": {
            "node": 60,
            "path": "rotation"
          }
        },
        {
          "sampler": 32,
          "target": {
            "node": 59,
            "path": "rotation"
          }
        },
        {
          "sampler": 33,
          "target": {
            "node": 58,
            "path": "rotation"
          }
        },
        {
          "sampler": 34,
          "target": {
            "node": 64,
            "path": "rotation"
          }
        },
        {
          "sampler": 35,
          "target": {
            "node": 63,
            "path": "rotation"
          }
        },
        {
          "sampler": 36,
          "target": {
            "node": 62,
            "path": "rotation"
          }
        },
        {
          "sampler": 37,
          "target": {
            "node": 45,
            "path": "rotation"
          }
        },
        {
          "sampler": 38,
          "target": {
            "node": 44,
            "path": "rotation"
          }
        },
        {
          "sampler": 39,
          "target": {
            "node": 43,
            "path": "rotation"
          }
        },
        {
          "sampler": 40,
          "target": {
            "node": 42,
            "path": "rotation"
          }
        },
        {
          "sampler": 41,
          "target": {
            "node": 13,
            "path": "rotation"
          }
        },
        {
          "sampler": 42,
          "target": {
            "node": 12,
            "path": "rotation"
          }
        },
        {
          "sampler": 43,
          "target": {
            "node": 11,
            "path": "rotation"
          }
        },
        {
          "sampler": 44,
          "target": {
            "node": 70,
            "path": "rotation"
          }
        },
        {
          "sampler": 45,
          "target": {
            "node": 69,
            "path": "rotation"
          }
        },
        {
          "sampler": 46,
          "target": {
            "node": 68,
            "path": "rotation"
          }
        },
        {
          "sampler": 47,
          "target": {
            "node": 67,
            "path": "rotation"
          }
        },
        {
          "sampler": 48,
          "target": {
            "node": 75,
            "path": "rotation"
          }
        },
        {
          "sampler": 49,
          "target": {
            "node": 74,
            "path": "rotation"
          }
        },
        {
          "sampler": 50,
          "target": {
            "node": 73,
            "path": "rotation"
          }
        },
        {
          "sampler": 51,
          "target": {
            "node": 72,
            "path": "rotation"
          }
        },
        {
          "sampler": 52,
          "target": {
            "node": 10,
            "path": "translation"
          }
        },
        {
          "sampler": 53,
          "target": {
            "node": 10,
            "path": "rotation"
          }
        }
      ],
      "name": "mixamo.com",
      "samplers": [
        {
          "input": 43,
          "interpolation": "LINEAR",
          "output": 44
        },
        {
          "input": 45,
          "interpolation": "LINEAR",
          "output": 46
        },
        {
          "input": 47,
          "interpolation": "LINEAR",
          "output": 48
        },
        {
          "input": 49,
          "interpolation": "LINEAR",
          "output": 50
        },
        {
          "input": 51,
          "interpolation": "LINEAR",
          "output": 52
        },
        {
          "input": 53,
          "interpolation": "LINEAR",
          "output": 54
        },
        {
          "input": 55,
          "interpolation": "LINEAR",
          "output": 56
        },
        {
          "input": 57,
          "interpolation": "LINEAR",
          "output": 58
        },
        {
          "input": 59,
          "interpolation": "LINEAR",
          "output": 60
        },
        {
          "input": 61,
          "interpolation": "LINEAR",
          "output": 62
        },
        {
          "input": 63,
          "interpolation": "LINEAR",
          "output": 64
        },
        {
          "input": 65,
          "interpolation": "LINEAR",
          "output": 66
        },
        {
          "input": 67,
          "interpolation": "LINEAR",
          "output": 68
        },
        {
          "input": 69,
          "interpolation": "LINEAR",
          "output": 70
        },
        {
          "input": 71,
          "interpolation": "LINEAR",
          "output": 72
        },
        {
          "input": 73,
          "interpolation": "LINEAR",
          "output": 74
        },
        {
          "input": 75,
          "interpolation": "LINEAR",
          "output": 76
        },
        {
          "input": 77,
          "interpolation": "LINEAR",
          "output": 78
        },
        {
          "input": 79,
          "interpolation": "LINEAR",
          "output": 80
        },
        {
          "input": 81,
          "interpolation": "LINEAR",
          "output": 82
        },
        {
          "input": 83,
          "interpolation": "LINEAR",
          "output": 84
        },
        {
          "input": 85,
          "interpolation": "LINEAR",
          "output": 86
        },
        {
          "input": 87,
          "interpolation": "LINEAR",
          "output": 88
        },
        {
          "input": 89,
          "interpolation": "LINEAR",
          "output": 90
        },
        {
          "input": 91,
          "interpolation": "LINEAR",
          "output": 92
        },
        {
          "input": 93,
          "interpolation": "LINEAR",
          "output": 94
        },
        {
          "input": 95,
          "interpolation": "LINEAR",
          "output": 96
        },
        {
          "input": 97,
          "interpolation": "LINEAR",
          "output": 98
        },
        {
          "input": 99,
          "interpolation": "LINEAR",
          "output": 100
        },
        {
          "input": 101,
          "interpolation": "LINEAR",
          "output": 102
        },
        {
          "input": 103,
          "interpolation": "LINEAR",
          "output": 104
        },
        {
          "input": 105,
          "interpolation": "LINEAR",
          "output": 106
        },
        {
          "input": 107,
          "interpolation": "LINEAR",
          "output": 108
        },
        {
          "input": 109,
          "interpolation": "LINEAR",
          "output": 110
        },
        {
          "input": 111,
          "interpolation": "LINEAR",
          "output": 112
        },
        {
          "input": 113,
          "interpolation": "LINEAR",
          "output": 114
        },
        {
          "input": 115,
          "interpolation": "LINEAR",
          "output": 116
        },
        {
          "input": 117,
          "interpolation": "LINEAR",
          "output": 118
        },
        {
          "input": 119,
          "interpolation": "LINEAR",
          "output": 120
        },
        {
          "input": 121,
          "interpolation": "LINEAR",
          "output": 122
        },
        {
          "input": 123,
          "interpolation": "LINEAR",
          "output": 124
        },
        {
          "input": 125,
          "interpolation": "LINEAR",
          "output": 126
        },
        {
          "input": 127,
          "interpolation": "LINEAR",
          "output": 128
        },
        {
          "input": 129,
          "interpolation": "LINEAR",
          "output": 130
        },
        {
          "input": 131,
          "interpolation": "LINEAR",
          "output": 132
        },
        {
          "input": 133,
          "interpolation": "LINEAR",
          "output": 134
        },
        {
          "input": 135,
          "interpolation": "LINEAR",
          "output": 136
        },
        {
          "input": 137,
          "interpolation": "LINEAR",
          "output": 138
        },
        {
          "input": 139,
          "interpolation": "LINEAR",
          "output": 140
        },
        {
          "input": 141,
          "interpolation": "LINEAR",
          "output": 142
        },
        {
          "input": 143,
          "interpolation": "LINEAR",
          "output": 144
        },
        {
          "input": 145,
          "interpolation": "LINEAR",
          "output": 146
        },
        {
          "input": 147,
          "interpolation": "LINEAR",
          "output": 148
        },
        {
          "input": 149,
          "interpolation": "LINEAR",
          "output": 150
        }
      ]
    }
  ],
  "asset": {
    "extras": {
      "author": "herobrine_son (https://sketchfab.com/herobrine_son)",
      "license": "CC-BY-4.0 (http://creativecommons.org/licenses/by/4.0/)",
      "source": "https://sketchfab.com/3d-models/knight-melee-combo-attack-ver-1-f0ec9e67eab2418ea39c1adec6bb66d8",
      "title": "knight Melee Combo Attack Ver 1"
    },
    "generator": "Sketchfab-12.68.0",
    "version": "2.0"
  },
  "bufferViews": [
    {
      "buffer": 0,
      "byteLength": 78680,
      "byteStride": 8,
      "name": "shortBufferViews",
      "target": 34962
    },
    {
      "buffer": 0,
      "byteLength": 179880,
      "byteOffset": 78680,
      "name": "floatBufferViews",
      "target": 34963
    },
    {
      "buffer": 0,
      "byteLength": 96040,
      "byteOffset": 258560,
      "byteStride": 8,
      "name": "floatBufferViews",
      "target": 34962
    },
    {
      "buffer": 0,
      "byteLength": 236040,
      "byteOffset": 354600,
      "byteStride": 12,
      "name": "floatBufferViews",
      "target": 34962
    },
    {
      "buffer": 0,
      "byteLength": 314720,
      "byteOffset": 590640,
      "byteStride": 16,
      "name": "floatBufferViews",
      "target": 34962
    },
    {
      "buffer": 0,
      "byteLength": 4352,
      "byteOffset": 905360,
      "name": "floatBufferViews"
    },
    {
      "buffer": 0,
      "byteLength": 22684,
      "byteOffset": 909712,
      "name": "floatBufferViews"
    },
    {
      "buffer": 0,
      "byteLength": 3252,
      "byteOffset": 932396,
      "byteStride": 12,
      "name": "floatBufferViews"
    },
    {
      "buffer": 0,
      "byteLength": 86400,
      "byteOffset": 935648,
      "byteStride": 16,
      "name": "floatBufferViews"
    }
  ],
  "buffers": [
    {
      "byteLength": 1022048,
      "uri": "scene.bin"
    }
  ],
  "extensionsRequired": [
    "KHR_materials_pbrSpecularGlossiness"
  ],
  "extensionsUsed": [
    "KHR_materials_pbrSpecularGlossiness"
  ],
  "images": [
    {
      "uri": "textures/Paladin_MAT_diffuse.png"
    },
    {
      "uri": "textures/Paladin_MAT_specularGlossiness.png"
    },
    {
      "uri": "textures/Paladin_MAT_normal.png"
    }
  ],
  "materials": [
    {
      "doubleSided": true,
      "extensions": {
        "KHR_materials_pbrSpecularGlossiness": {
          "diffuseFactor": [
            1.0,
            1.0,
            1.0,
            1.0
          ],
          "diffuseTexture": {
            "index": 0
          },
          "glossinessFactor": 0.10573712634405641,
          "specularFactor": [
            0.05,
            0.05,
            0.05
          ],
          "specularGlossinessTexture": {
            "index": 1
          }
        }
      },
      "name": "Paladin_MAT",
      "normalTexture": {
        "index": 2
      }
    }
  ],
  "meshes": [
    {
      "name": "Paladin_J_Nordstrom_Paladin_MAT_0",
      "primitives": [
        {
          "attributes": {
            "JOINTS_0": 35,
            "NORMAL": 1,
            "POSITION": 0,
            "TANGENT": 2,
            "TEXCOORD_0": 3,
            "TEXCOORD_1": 3,
            "TEXCOORD_2": 3,
            "WEIGHTS_0": 36
          },
          "indices": 4,
          "material": 0,
          "mode": 4
        }
      ]
    },
    {
      "name": "Paladin_J_Nordstrom_Helmet_Paladin_MAT_0",
      "primitives": [
        {
          "attributes": {
            "JOINTS_0": 37,
            "NORMAL": 6,
            "POSITION": 5,
            "TANGENT": 7,
            "TEXCOORD_0": 8,
            "TEXCOORD_1": 8,
            "TEXCOORD_2": 8,
            "WEIGHTS_0": 38
          },
          "indices": 9,
          "material": 0,
          "mode": 4
        }
      ]
    },
    {
      "name": "Paladin_J_Nordstrom_Sword_Paladin_MAT_0",
      "primitives": [
        {
          "attributes": {
            "JOINTS_0": 39,
            "NORMAL": 11,
            "POSITION": 10,
            "TANGENT": 12,
            "TEXCOORD_0": 13,
            "TEXCOORD_1": 14,
            "TEXCOORD_2": 15,
            "TEXCOORD_3": 16,
            "TEXCOORD_4": 17,
            "TEXCOORD_5": 13,
            "TEXCOORD_6": 13,
            "TEXCOORD_7": 18,
            "TEXCOORD_8": 19,
            "TEXCOORD_9": 20,
            "WEIGHTS_0": 40
          },
          "indices": 21,
          "material": 0,
          "mode": 4
        }
      ]
    },
    {
      "name": "Paladin_J_Nordstrom_Shield_Paladin_MAT_0",
      "primitives": [
        {
          "attributes": {
            "JOINTS_0": 41,
            "NORMAL": 23,
            "POSITION": 22,
            "TANGENT": 24,
            "TEXCOORD_0": 25,
            "TEXCOORD_1": 26,
            "TEXCOORD_2": 27,
            "TEXCOORD_3": 28,
            "TEXCOORD_4": 29,
            "TEXCOORD_5": 25,
            "TEXCOORD_6": 25,
            "TEXCOORD_7": 30,
            "TEXCOORD_8": 31,
            "TEXCOORD_9": 32,
            "WEIGHTS_0": 42
          },
          "indices": 33,
          "material": 0,
          "mode": 4
        }
      ]
    }
  ],
  "nodes": [
    {
      "children": [
        1
      ],
      "matrix": [
        0.016053933650255203,
        0.0,
        0.0,
        0.0,
        0.0,
        3.564689354863582e-18,
        -0.016053933650255203,
        0.0,
        0.0,
        0.016053933650255203,
        3.564689354863582e-18,
        0.0,
        0.0,
        0.0,
        0.0,
        1.0
      ],
      "name": "Sketchfab_model"
    },
    {
      "children": [
        2
      ],
      "matrix": [
        1.0,
        0.0,
        0.0,
        0.0,
        0.0,
        0.0,
        1.0,
        0.0,
        0.0,
        -1.0,
        0.0,
        0.0,
        0.0,
        0.0,
        0.0,
        1.0
      ],
      "name": "01e9f5b78e2d4bdea152a2c0b5835e52.fbx"
    },
    {
      "children": [
        3
      ],
      "name": "Object_2"
    },
    {
      "children": [
        4
      ],
      "name": "RootNode"
    },
    {
      "children": [
        5,
        6,
        7,
        8,
        9,
        77,
        78,
        79,
        80
      ],
      "name": "Object_4"
    },
    {
      "children": [
        10
      ],
      "name": "_rootJoint"
    },
    {
      "mesh": 0,
      "name": "Object_6",
      "skin": 0
    },
    {
      "mesh": 1,
      "name": "Object_7",
      "skin": 0
    },
    {
      "mesh": 2,
      "name": "Object_8",
      "skin": 0
    },
    {
      "mesh": 3,
      "name": "Object_9",
      "skin": 0
    },
    {
      "children": [
        11,
        67,
        72
      ],
      "name": "Hips_01",
      "translation": [
        0.03359370678663254,
        95.58192443847656,
        0.49751555919647217
      ]
    },
    {
      "children": [
        12
      ],
      "name": "Spine_02",
      "translation": [
        0.017299732193350792,
        10.57483196258545,
        -1.1172306537628174
      ]
    },
    {
      "children": [
        13
      ],
      "name": "Spine1_03",
      "translation": [
        0.019009830430150032,
        12.337305068969727,
        -1.3034255504608154
      ]
    },
    {
      "children": [
        14,
        17,
        42
      ],
      "name": "Spine2_04",
      "translation": [
        0.021725531667470932,
        14.099783897399902,
        -1.4896430969238281
      ]
    },
    {
      "children": [
        15
      ],
      "name": "Neck_05",
      "translation": [
        0.024441219866275787,
        15.862255096435547,
        -1.6758209466934204
      ]
    },
    {
      "children": [
        16
      ],
      "name": "Head_06",
      "translation": [
        -1.0768552716200475e-09,
        5.5640363693237305,
        0.9880855679512024
      ]
    },
    {
      "name": "HeadTop_End_07",
      "translation": [
        -7.506975485682688e-09,
        18.3118839263916,
        3.0869107246398926
      ]
    },
    {
      "children": [
        18
      ],
      "name": "LeftShoulder_08",
      "translation": [
        5.934976577758789,
        13.670222282409668,
        -1.6626099348068237
      ]
    },
    {
      "children": [
        19
      ],
      "name": "LeftArm_09",
      "translation": [
        12.499421119689941,
        -1.6499735116958618,
        0.02649371139705181
      ]
    },
    {
      "children": [
        20,
        41
      ],
      "name": "LeftForeArm_010",
      "translation": [
        25.557861328125,
        -0.39739906787872314,
        -0.8270837068557739
      ]
    },
    {
      "children": [
        21,
        25,
        29,
        33,
        37
      ],
      "name": "LeftHand_011",
      "translation": [
        21.589874267578125,
        0.3970598578453064,
        0.6520047783851624
      ]
    },
    {
      "children": [
        22
      ],
      "name": "LeftHandThumb1_012",
      "translation": [
        3.5456106662750244,
        -1.9109355211257935,
        2.3682031631469727
      ]
    },
    {
      "children": [
        23
      ],
      "name": "LeftHandThumb2_013",
      "translation": [
        2.1753242015838623,
        -1.2560192346572876,
        1.2559759616851807
      ]
    },
    {
      "children": [
        24
      ],
      "name": "LeftHandThumb3_014",
      "translation": [
        1.8427454233169556,
        -1.0638835430145264,
        1.0638936758041382
      ]
    },
    {
      "name": "LeftHandThumb4_015",
      "translation": [
        1.8965554237365723,
        -1.1929062604904175,
        0.9787144660949707
      ]
    },
    {
      "children": [
        26
      ],
      "name": "LeftHandIndex1_016",
      "translation": [
        9.909743309020996,
        0.2886817157268524,
        2.342229127883911
      ]
    },
    {
      "children": [
        27
      ],
      "name": "LeftHandIndex2_017",
      "translation": [
        3.7633309364318848,
        -0.13016410171985626,
        -0.2901271879673004
      ]
    },
    {
      "children": [
        28
      ],
      "name": "LeftHandIndex3_018",
      "translation": [
        2.5415148735046387,
        -0.08791804313659668,
        3.0028961191419512e-05
      ]
    },
    {
      "name": "LeftHandIndex4_019",
      "translation": [
        2.527109384536743,
        -0.049471911042928696,
        -0.08584660291671753
      ]
    },
    {
      "children": [
        30
      ],
      "name": "LeftHandMiddle1_020",
      "translation": [
        9.700758934020996,
        -2.999938078573905e-05,
        -2.227789991593454e-05
      ]
    },
    {
      "children": [
        31
      ],
      "name": "LeftHandMiddle2_021",
      "translation": [
        4.000228404998779,
        0.03322698548436165,
        -0.3382144272327423
      ]
    },
    {
      "children": [
        32
      ],
      "name": "LeftHandMiddle3_022",
      "translation": [
        2.9967172145843506,
        -5.825822154292837e-05,
        -4.2421408579684794e-05
      ]
    },
    {
      "name": "LeftHandMiddle4_023",
      "translation": [
        2.8201417922973633,
        0.1438707709312439,
        -0.0815529078245163
      ]
    },
    {
      "children": [
        34
      ],
      "name": "LeftHandRing1_024",
      "translation": [
        9.308411598205566,
        0.14608348906040192,
        -2.2415385246276855
      ]
    },
    {
      "children": [
        35
      ],
      "name": "LeftHandRing2_025",
      "translation": [
        4.019398212432861,
        -2.1845711671630852e-05,
        -2.518551264074631e-05
      ]
    },
    {
      "children": [
        36
      ],
      "name": "LeftHandRing3_026",
      "translation": [
        2.780850887298584,
        -0.22793912887573242,
        0.060405582189559937
      ]
    },
    {
      "name": "LeftHandRing4_027",
      "translation": [
        2.540721893310547,
        -4.669117697631009e-05,
        -2.5669207389000803e-05
      ]
    },
    {
      "children": [
        38
      ],
      "name": "LeftHandPinky1_028",
      "translation": [
        8.9854736328125,
        0.22697673738002777,
        -4.712477684020996
      ]
    },
    {
      "children": [
        39
      ],
      "name": "LeftHandPinky2_029",
      "translation": [
        3.5625407695770264,
        -2.217264409409836e-06,
        5.24342103744857e-05
      ]
    },
    {
      "children": [
        40
      ],
      "name": "LeftHandPinky3_030",
      "translation": [
        2.3351614475250244,
        -4.152105611865409e-05,
        -3.355564331286587e-06
      ]
    },
    {
      "name": "LeftHandPinky4_031",
      "translation": [
        2.0373079776763916,
        -8.008382792468183e-06,
        -9.816751116886735e-06
      ]
    },
    {
      "name": "Shield_joint_032",
      "translation": [
        14.680610656738281,
        6.043680667877197,
        0.39736056327819824
      ]
    },
    {
      "children": [
        43
      ],
      "name": "RightShoulder_033",
      "translation": [
        -5.979154109954834,
        13.670222282409668,
        -1.6626099348068237
      ]
    },
    {
      "children": [
        44
      ],
      "name": "RightArm_034",
      "translation": [
        -12.499451637268066,
        -1.649753212928772,
        0.026470061391592026
      ]
    },
    {
      "children": [
        45
      ],
      "name": "RightForeArm_035",
      "translation": [
        -25.557880401611328,
        -0.3973107933998108,
        -0.8270896673202515
      ]
    },
    {
      "children": [
        46,
        50,
        54,
        58,
        62,
        66
      ],
      "name": "RightHand_036",
      "translation": [
        -21.59001922607422,
        0.39701828360557556,
        0.6520112752914429
      ]
    },
    {
      "children": [
        47
      ],
      "name": "RightHandThumb1_037",
      "translation": [
        -3.545440435409546,
        -1.9108738899230957,
        2.368196964263916
      ]
    },
    {
      "children": [
        48
      ],
      "name": "RightHandThumb2_038",
      "translation": [
        -2.175398111343384,
        -1.2559365034103394,
        1.2559285163879395
      ]
    },
    {
      "children": [
        49
      ],
      "name": "RightHandThumb3_039",
      "translation": [
        -1.8427010774612427,
        -1.0639410018920898,
        1.0639115571975708
      ]
    },
    {
      "name": "RightHandThumb4_040",
      "translation": [
        -1.8965089321136475,
        -1.1929633617401123,
        0.9787331223487854
      ]
    },
    {
      "children": [
        51
      ],
      "name": "RightHandPinky1_041",
      "translation": [
        -8.985336303710938,
        0.22692826390266418,
        -4.7124924659729
      ]
    },
    {
      "children": [
        52
      ],
      "name": "RightHandPinky2_042",
      "translation": [
        -3.562537908554077,
        -6.038551146048121e-05,
        -2.9737677323282696e-05
      ]
    },
    {
      "children": [
        53
      ],
      "name": "RightHandPinky3_043",
      "translation": [
        -2.3351621627807617,
        2.870703610824421e-05,
        2.7946962291025557e-05
      ]
    },
    {
      "name": "RightHandPinky4_044",
      "translation": [
        -2.03730845451355,
        -1.6749458154663444e-05,
        -1.8377602827968076e-05
      ]
    },
    {
      "children": [
        55
      ],
      "name": "RightHandRing1_045",
      "translation": [
        -9.30827522277832,
        0.14603015780448914,
        -2.2415542602539063
      ]
    },
    {
      "children": [
        56
      ],
      "name": "RightHandRing2_046",
      "translation": [
        -4.0193963050842285,
        -4.664895823225379e-05,
        -4.687826003646478e-05
      ]
    },
    {
      "children": [
        57
      ],
      "name": "RightHandRing3_047",
      "translation": [
        -2.7808494567871094,
        -0.22795511782169342,
        0.060390252619981766
      ]
    },
    {
      "name": "RightHandRing4_048",
      "translation": [
        -2.5407235622406006,
        -5.564572347793728e-05,
        -8.743553735257592e-06
      ]
    },
    {
      "children": [
        59
      ],
      "name": "RightHandMiddle1_049",
      "translation": [
        -9.700623512268066,
        -8.952183998189867e-05,
        -3.935359563911334e-05
      ]
    },
    {
      "children": [
        60
      ],
      "name": "RightHandMiddle2_050",
      "translation": [
        -4.0002264976501465,
        0.03315042331814766,
        -0.3382197916507721
      ]
    },
    {
      "children": [
        61
      ],
      "name": "RightHandMiddle3_051",
      "translation": [
        -2.9967164993286133,
        -6.401589780580252e-05,
        -6.843317805760307e-07
      ]
    },
    {
      "name": "RightHandMiddle4_052",
      "translation": [
        -2.820143938064575,
        0.14386536180973053,
        -0.08151320368051529
      ]
    },
    {
      "children": [
        63
      ],
      "name": "RightHandIndex1_053",
      "translation": [
        -9.909616470336914,
        0.28861892223358154,
        2.3422107696533203
      ]
    },
    {
      "children": [
        64
      ],
      "name": "RightHandIndex2_054",
      "translation": [
        -3.763326406478882,
        -0.13023638725280762,
        -0.2901324927806854
      ]
    },
    {
      "children": [
        65
      ],
      "name": "RightHandIndex3_055",
      "translation": [
        -2.5415117740631104,
        -0.08795572817325592,
        -2.5783543605939485e-05
      ]
    },
    {
      "name": "RightHandIndex4_056",
      "translation": [
        -2.5271055698394775,
        -0.04950831085443497,
        -0.08590258657932281
      ]
    },
    {
      "name": "Sword_joint_057",
      "translation": [
        -7.989213943481445,
        -2.8230648040771484,
        -0.6267042756080627
      ]
    },
    {
      "children": [
        68
      ],
      "name": "LeftUpLeg_058",
      "translation": [
        9.789125442504883,
        -5.875845432281494,
        -0.5836798548698425
      ]
    },
    {
      "children": [
        69
      ],
      "name": "LeftLeg_059",
      "translation": [
        0.23206046223640442,
        -41.69733810424805,
        0.5909260511398315
      ]
    },
    {
      "children": [
        70
      ],
      "name": "LeftFoot_00",
      "translation": [
        -0.21998187899589539,
        -36.85536193847656,
        -3.032311201095581
      ]
    },
    {
      "children": [
        71
      ],
      "name": "LeftToeBase_060",
      "translation": [
        -1.1664539575576782,
        -10.835552215576172,
        12.529128074645996
      ]
    },
    {
      "name": "LeftToe_End_061",
      "translation": [
        -0.576276421546936,
        -0.1265742927789688,
        5.971446990966797
      ]
    },
    {
      "children": [
        73
      ],
      "name": "RightUpLeg_062",
      "translation": [
        -9.85757064819336,
        -5.873966693878174,
        -0.5149346590042114
      ]
    },
    {
      "children": [
        74
      ],
      "name": "RightLeg_063",
      "translation": [
        -0.21931128203868866,
        -41.69633483886719,
        0.7013158798217773
      ]
    },
    {
      "children": [
        75
      ],
      "name": "RightFoot_064",
      "translation": [
        0.23128943145275116,
        -36.85835647583008,
        -3.211648941040039
      ]
    },
    {
      "children": [
        76
      ],
      "name": "RightToeBase_065",
      "translation": [
        1.1664676666259766,
        -10.835567474365234,
        12.669968605041504
      ]
    },
    {
      "name": "RightToe_End_066",
      "translation": [
        0.5762768983840942,
        -0.12657558917999268,
        6.0202717781066895
      ]
    },
    {
      "name": "Paladin_J_Nordstrom"
    },
    {
      "name": "Paladin_J_Nordstrom_Helmet"
    },
    {
      "name": "Paladin_J_Nordstrom_Sword"
    },
    {
      "name": "Paladin_J_Nordstrom_Shield"
    }
  ],
  "samplers": [
    {
      "magFilter": 9729,
      "minFilter": 9987,
      "wrapS": 10497,
      "wrapT": 10497
    }
  ],
  "scene": 0,
  "scenes": [
    {
      "name": "Sketchfab_Scene",
      "nodes": [
        0
      ]
    }
  ],
  "skins": [
    {
      "inverseBindMatrices": 34,
      "joints": [
        5,
        10,
        11,
        12,
        13,
        14,
        15,
        16,
        17,
        18,
        19,
        20,
        21,
        22,
        23,
        24,
        25,
        26,
        27,
        28,
        29,
        30,
        31,
        32,
        33,
        34,
        35,
        36,
        37,
        38,
        39,
        40,
        41,
        42,
        43,
        44,
        45,
        46,
        47,
        48,
        49,
        50,
        51,
        52,
        53,
        54,
        55,
        56,
        57,
        58,
        59,
        60,
        61,
        62,
        63,
        64,
        65,
        66,
        67,
        68,
        69,
        70,
        71,
        72,
        73,
        74,
        75,
        76
      ],
      "skeleton": 5
    }
  ],
  "textures": [
    {
      "sampler": 0,
      "source": 0
    },
    {
      "sampler": 0,
      "source": 1
    },
    {
      "sampler": 0,
      "source": 2
    }
  ]
}
