{
  "accessors": [
    {
      "bufferView": 2,
      "componentType": 5126,
      "count": 14321,
      "max": [
        0.8306429386138916,
        3.267591953277588,
        0.13024698197841644
      ],
      "min": [
        -0.8306429386138916,
        -3.239877462387085,
        -0.13024698197841644
      ],
      "type": "VEC3"
    },
    {
      "bufferView": 2,
      "byteOffset": 171852,
      "componentType": 5126,
      "count": 14321,
      "max": [
        1.0,
        1.0,
        1.0
      ],
      "min": [
        -1.0,
        -1.0,
        -1.0
      ],
      "type": "VEC3"
    },
    {
      "bufferView": 3,
      "componentType": 5126,
      "count": 14321,
      "max": [
        1.0,
        0.9999998807907104,
        1.0,
        1.0
      ],
      "min": [
        -0.9999998211860657,
        -0.9999999403953552,
        -1.0,
        -1.0
      ],
      "type": "VEC4"
    },
    {
      "bufferView": 1,
      "componentType": 5126,
      "count": 14321,
      "max": [
        0.998046875,
        0.9976531267166138
      ],
      "min": [
        -0.998046875,
        0.001953125
      ],
      "type": "VEC2"
    },
    {
      "bufferView": 0,
      "componentType": 5125,
      "count": 61446,
      "type": "SCALAR"
    },
    {
      "bufferView": 2,
      "byteOffset": 343704,
      "componentType": 5126,
      "count": 338,
      "max": [
        0.13847577571868896,
        1.3935924768447876,
        0.10335824638605118
      ],
      "min": [
        -0.13847577571868896,
        1.0508264303207397,
        -0.10335824638605118
      ],
      "type": "VEC3"
    },
    {
      "bufferView": 2,
      "byteOffset": 347760,
      "componentType": 5126,
      "count": 338,
      "max": [
        0.5813620090484619,
        0.49977242946624756,
        1.0
      ],
      "min": [
        -0.5813620090484619,
        -0.4997727572917938,
        -1.0
      ],
      "type": "VEC3"
    },
    {
      "bufferView": 1,
      "byteOffset": 114568,
      "componentType": 5126,
      "count": 338,
      "max": [
        0.5551332235336304,
        0.489027202129364
      ],
      "min": [
        -0.514370322227478,
        0.4056529104709625
      ],
      "type": "VEC2"
    },
    {
      "bufferView": 0,
      "byteOffset": 245784,
      "componentType": 5125,
      "count": 1800,
      "type": "SCALAR"
    },
    {
      "bufferView": 2,
      "byteOffset": 351816,
      "componentType": 5126,
      "count": 50,
      "max": [
        0.09455971419811249,
        1.3393100500106812,
        0.0693742036819458
      ],
      "min": [
        -0.09455971419811249,
        1.1051088571548462,
        -0.0693742036819458
      ],
      "type": "VEC3"
    },
    {
      "bufferView": 2,
      "byteOffset": 352416,
      "componentType": 5126,
      "count": 50,
      "max": [
        0.7580984830856323,
        0.6844101548194885,
        1.0
      ],
      "min": [
        -0.7580984234809875,
        -0.6844117045402527,
        -1.0
      ],
      "type": "VEC3"
    },
    {
      "bufferView": 1,
      "byteOffset": 117272,
      "componentType": 5126,
      "count": 50,
      "max": [
        0.38393718004226685,
        0.6171404719352722
      ],
      "min": [
        -0.668121874332428,
        0.5562106966972351
      ],
      "type": "VEC2"
    },
    {
      "bufferView": 0,
      "byteOffset": 252984,
      "componentType": 5125,
      "count": 216,
      "type": "SCALAR"
    }
  ],
  "asset": {
    "extras": {
      "author": "Art_workshop (https://sketchfab.com/art_workshop)",
      "license": "CC-BY-4.0 (http://creativecommons.org/licenses/by/4.0/)",
      "source": "https://sketchfab.com/3d-models/wolf-gravestone-sword-free-0d1253a4dc75463dac62db985c81f9ec",
      "title": "Wolf Gravestone Sword Free"
    },
    "generator": "Sketchfab-16.29.0",
    "version": "2.0"
  },
  "bufferViews": [
    {
      "buffer": 0,
      "byteLength": 253848,
      "name": "floatBufferViews",
      "target": 34963
    },
    {
      "buffer": 0,
      "byteLength": 117672,
      "byteOffset": 253848,
      "byteStride": 8,
      "name": "floatBufferViews",
      "target": 34962
    },
    {
      "buffer": 0,
      "byteLength": 353016,
      "byteOffset": 371520,
      "byteStride": 12,
      "name": "floatBufferViews",
      "target": 34962
    },
    {
      "buffer": 0,
      "byteLength": 229136,
      "byteOffset": 724536,
      "byteStride": 16,
      "name": "floatBufferViews",
      "target": 34962
    }
  ],
  "buffers": [
    {
      "byteLength": 953672,
      "uri": "scene.bin"
    }
  ],
  "extensionsUsed": [
    "KHR_materials_specular",
    "KHR_materials_transmission",
    "KHR_materials_emissive_strength"
  ],
  "images": [
    {
      "uri": "textures/lambert1_baseColor.png"
    },
    {
      "uri": "textures/lambert1_metallicRoughness.png"
    },
    {
      "uri": "textures/lambert1_normal.png"
    }
  ],
  "materials": [
    {
      "doubleSided": true,
      "extensions": {
        "KHR_materials_specular": {
          "specularColorFactor": [
            1.0,
            1.0,
            1.0
          ],
          "specularFactor": 1.0
        }
      },
      "name": "lambert1",
      "normalTexture": {
        "index": 2
      },
      "pbrMetallicRoughness": {
        "baseColorTexture": {
          "index": 0
        },
        "metallicRoughnessTexture": {
          "index": 1
        }
      }
    },
    {
      "alphaMode": "BLEND",
      "doubleSided": true,
      "extensions": {
        "KHR_materials_specular": {
          "specularColorFactor": [
            1.0,
            1.0,
            1.0
          ],
          "specularFactor": 1.0
        },
        "KHR_materials_transmission": {
          "transmissionFactor": 0.5
        }
      },
      "name": "Gem_outside",
      "pbrMetallicRoughness": {
        "baseColorFactor": [
          1.0,
          0.0,
          0.0,
          0.5
        ],
        "roughnessFactor": 0.0
      }
    },
    {
      "doubleSided": true,
      "emissiveFactor": [
        1.0,
        0.0,
        0.0
      ],
      "extensions": {
        "KHR_materials_emissive_strength": {
          "emissiveStrength": 10.0
        },
        "KHR_materials_specular": {
          "specularColorFactor": [
            1.0,
            1.0,
            1.0
          ],
          "specularFactor": 1.0
        }
      },
      "name": "Gem_inside",
      "pbrMetallicRoughness": {
        "baseColorFactor": [
          0.0,
          1.0,
          0.7910999999999997,
          1.0
        ],
        "roughnessFactor": 0.9207483816249483
      }
    }
  ],
  "meshes": [
    {
      "name": "Broken_sword_lambert1_0",
      "primitives": [
        {
          "attributes": {
            "NORMAL": 1,
            "POSITION": 0,
            "TANGENT": 2,
            "TEXCOORD_0": 3
          },
          "indices": 4,
          "material": 0,
          "mode": 4
        }
      ]
    },
    {
      "name": "Broken_sword_Gem_outside_0",
      "primitives": [
        {
          "attributes": {
            "NORMAL": 6,
            "POSITION": 5,
            "TEXCOORD_0": 7
          },
          "indices": 8,
          "material": 1,
          "mode": 4
        }
      ]
    },
    {
      "name": "Broken_sword_Gem_inside_0",
      "primitives": [
        {
          "attributes": {
            "NORMAL": 10,
            "POSITION": 9,
            "TEXCOORD_0": 11
          },
          "indices": 12,
          "material": 2,
          "mode": 4
        }
      ]
    }
  ],
  "nodes": [
    {
      "children": [
        1
      ],
      "matrix": [
        0.6270991563796997,
        -0.778939425945282,
        -1.7295929709455082e-16,
        0.0,
        0.0,
        2.220446049250313e-16,
        -1.0,
        0.0,
        0.778939425945282,
        0.6270991563796997,
        1.3924398442715085e-16,
        0.0,
        0.0,
        0.0,
        0.0,
        1.0
      ],
      "name": "Sketchfab_model"
    },
    {
      "children": [
        2
      ],
      "matrix": [
        1.0,
        0.0,
        0.0,
        0.0,
        0.0,
        0.0,
        1.0,
        0.0,
        0.0,
        -1.0,
        0.0,
        0.0,
        0.0,
        0.0,
        0.0,
        1.0
      ],
      "name": "1ddac6d9bef84c8aa002d6b01a886eab.fbx"
    },
    {
      "children": [
        3
      ],
      "name": "RootNode"
    },
    {
      "children": [
        4,
        5,
        6
      ],
      "matrix": [
        0.009999999776482582,
        0.0,
        0.0,
        0.0,
        0.0,
        0.009999999776482582,
        0.0,
        0.0,
        0.0,
        0.0,
        0.009999999776482582,
        0.0,
        0.0,
        -1.734723475976807e-18,
        0.0,
        1.0
      ],
      "name": "Broken_sword"
    },
    {
      "mesh": 0,
      "name": "Broken_sword_lambert1_0"
    },
    {
      "mesh": 1,
      "name": "Broken_sword_Gem_outside_0"
    },
    {
      "mesh": 2,
      "name": "Broken_sword_Gem_inside_0"
    }
  ],
  "samplers": [
    {
      "magFilter": 9729,
      "minFilter": 9987,
      "wrapS": 10497,
      "wrapT": 10497
    }
  ],
  "scene": 0,
  "scenes": [
    {
      "name": "Sketchfab_Scene",
      "nodes": [
        0
      ]
    }
  ],
  "textures": [
    {
      "sampler": 0,
      "source": 0
    },
    {
      "sampler": 0,
      "source": 1
    },
    {
      "sampler": 0,
      "source": 2
    }
  ]
}
