{
  "accessors": [
    {
      "bufferView": 2,
      "componentType": 5126,
      "count": 2310,
      "max": [
        154.48976135253906,
        98.12155151367188,
        101.05919647216797
      ],
      "min": [
        -130.94894409179688,
        -118.7389144897461,
        -97.7348861694336
      ],
      "type": "VEC3"
    },
    {
      "bufferView": 2,
      "byteOffset": 27720,
      "componentType": 5126,
      "count": 2310,
      "max": [
        1.0,
        1.0,
        0.9999375343322754
      ],
      "min": [
        -1.0,
        -1.0,
        -0.9999120831489563
      ],
      "type": "VEC3"
    },
    {
      "bufferView": 3,
      "componentType": 5126,
      "count": 2310,
      "max": [
        1.0,
        0.9999437928199768,
        0.9997807741165161,
        1.0
      ],
      "min": [
        -1.0,
        -0.9999967813491821,
        -0.9996693730354309,
        -1.0
      ],
      "type": "VEC4"
    },
    {
      "bufferView": 1,
      "componentType": 5126,
      "count": 2310,
      "max": [
        0.9801256060600281,
        0.9939380884170532
      ],
      "min": [
        0.006061845924705267,
        0.006061854772269726
      ],
      "type": "VEC2"
    },
    {
      "bufferView": 0,
      "componentType": 5125,
      "count": 9270,
      "type": "SCALAR"
    }
  ],
  "asset": {
    "extras": {
      "author": "CoenBrunyanszki (https://sketchfab.com/CoenBrunyanszki)",
      "license": "CC-BY-4.0 (http://creativecommons.org/licenses/by/4.0/)",
      "source": "https://sketchfab.com/3d-models/keg-of-ancient-black-powder-sea-of-thieves-0774b9142ed6436ebe9a8604af29c940",
      "title": "Keg of Ancient Black Powder (Sea of Thieves)"
    },
    "generator": "Sketchfab-16.34.0",
    "version": "2.0"
  },
  "bufferViews": [
    {
      "buffer": 0,
      "byteLength": 37080,
      "name": "floatBufferViews",
      "target": 34963
    },
    {
      "buffer": 0,
      "byteLength": 18480,
      "byteOffset": 37080,
      "byteStride": 8,
      "name": "floatBufferViews",
      "target": 34962
    },
    {
      "buffer": 0,
      "byteLength": 55440,
      "byteOffset": 55560,
      "byteStride": 12,
      "name": "floatBufferViews",
      "target": 34962
    },
    {
      "buffer": 0,
      "byteLength": 36960,
      "byteOffset": 111000,
      "byteStride": 16,
      "name": "floatBufferViews",
      "target": 34962
    }
  ],
  "buffers": [
    {
      "byteLength": 147960,
      "uri": "scene.bin"
    }
  ],
  "extensionsUsed": [
    "KHR_materials_emissive_strength"
  ],
  "images": [
    {
      "uri": "textures/TT_checker_512x512_COLOR_GRID_baseColor.png"
    },
    {
      "uri": "textures/TT_checker_512x512_COLOR_GRID_metallicRoughness.png"
    },
    {
      "uri": "textures/TT_checker_512x512_COLOR_GRID_emissive.png"
    },
    {
      "uri": "textures/TT_checker_512x512_COLOR_GRID_normal.png"
    }
  ],
  "materials": [
    {
      "doubleSided": true,
      "emissiveFactor": [
        1.0,
        1.0,
        1.0
      ],
      "emissiveTexture": {
        "index": 2
      },
      "extensions": {
        "KHR_materials_emissive_strength": {
          "emissiveStrength": 10.0
        }
      },
      "name": "TT_checker_512x512_COLOR_GRID",
      "normalTexture": {
        "index": 3
      },
      "pbrMetallicRoughness": {
        "baseColorTexture": {
          "index": 0
        },
        "metallicRoughnessTexture": {
          "index": 1
        },
        "roughnessFactor": 0.9227938088595627
      }
    }
  ],
  "meshes": [
    {
      "name": "Barrel_low_TT_checker_512x512_COLOR_GRID_0",
      "primitives": [
        {
          "attributes": {
            "NORMAL": 1,
            "POSITION": 0,
            "TANGENT": 2,
            "TEXCOORD_0": 3
          },
          "indices": 4,
          "material": 0,
          "mode": 4
        }
      ]
    }
  ],
  "nodes": [
    {
      "children": [
        1
      ],
      "matrix": [
        1.0,
        0.0,
        0.0,
        0.0,
        0.0,
        2.220446049250313e-16,
        -1.0,
        0.0,
        0.0,
        1.0,
        2.220446049250313e-16,
        0.0,
        0.0,
        0.0,
        0.0,
        1.0
      ],
      "name": "Sketchfab_model"
    },
    {
      "children": [
        2
      ],
      "matrix": [
        0.009999999776482582,
        0.0,
        0.0,
        0.0,
        0.0,
        0.0,
        0.009999999776482582,
        0.0,
        0.0,
        -0.009999999776482582,
        0.0,
        0.0,
        0.0,
        0.0,
        0.0,
        1.0
      ],
      "name": "9f1109e240554186aa0c6923a0df1ac3.fbx"
    },
    {
      "children": [
        3
      ],
      "name": "RootNode"
    },
    {
      "children": [
        4
      ],
      "matrix": [
        1.0,
        0.0,
        0.0,
        0.0,
        0.0,
        1.0,
        0.0,
        0.0,
        0.0,
        0.0,
        1.0,
        0.0,
        -4.0978193283081055e-06,
        1.955777406692505e-06,
        -1.1175870895385742e-06,
        1.0
      ],
      "name": "Barrel_low"
    },
    {
      "mesh": 0,
      "name": "Barrel_low_TT_checker_512x512_COLOR_GRID_0"
    }
  ],
  "samplers": [
    {
      "magFilter": 9729,
      "minFilter": 9987,
      "wrapS": 10497,
      "wrapT": 10497
    }
  ],
  "scene": 0,
  "scenes": [
    {
      "name": "Sketchfab_Scene",
      "nodes": [
        0
      ]
    }
  ],
  "textures": [
    {
      "sampler": 0,
      "source": 0
    },
    {
      "sampler": 0,
      "source": 1
    },
    {
      "sampler": 0,
      "source": 2
    },
    {
      "sampler": 0,
      "source": 3
    }
  ]
}
