{
  "accessors": [
    {
      "bufferView": 2,
      "componentType": 5126,
      "count": 3166,
      "max": [
        1.5593233108520508,
        0.7990804314613342,
        10.90273380279541
      ],
      "min": [
        -1.5593233108520508,
        -0.9539057612419128,
        -0.17218390107154846
      ],
      "type": "VEC3"
    },
    {
      "bufferView": 2,
      "byteOffset": 37992,
      "componentType": 5126,
      "count": 3166,
      "max": [
        0.9977530241012573,
        1.0,
        0.9768156409263611
      ],
      "min": [
        -0.9977530241012573,
        -1.0,
        -0.9768717288970947
      ],
      "type": "VEC3"
    },
    {
      "bufferView": 1,
      "componentType": 5126,
      "count": 3166,
      "max": [
        0.5,
        1.0
      ],
      "min": [
        -0.018979335203766823,
        0.0
      ],
      "type": "VEC2"
    },
    {
      "bufferView": 0,
      "componentType": 5125,
      "count": 5316,
      "type": "SCALAR"
    },
    {
      "bufferView": 2,
      "byteOffset": 75984,
      "componentType": 5126,
      "count": 2484,
      "max": [
        1.2368992567062378,
        1.1470293998718262,
        1.4255852699279785
      ],
      "min": [
        -1.2368992567062378,
        -1.1470293998718262,
        -3.350982427597046
      ],
      "type": "VEC3"
    },
    {
      "bufferView": 2,
      "byteOffset": 105792,
      "componentType": 5126,
      "count": 2484,
      "max": [
        0.9659258723258972,
        0.9913346171379089,
        0.9999421834945679
      ],
      "min": [
        -0.9659258723258972,
        -0.9913346171379089,
        -1.0
      ],
      "type": "VEC3"
    },
    {
      "bufferView": 1,
      "byteOffset": 25328,
      "componentType": 5126,
      "count": 2484,
      "max": [
        0.9263564348220825,
        1.0
      ],
      "min": [
        0.2499999850988388,
        0.07364364713430405
      ],
      "type": "VEC2"
    },
    {
      "bufferView": 0,
      "byteOffset": 21264,
      "componentType": 5125,
      "count": 3756,
      "type": "SCALAR"
    },
    {
      "bufferView": 2,
      "byteOffset": 135600,
      "componentType": 5126,
      "count": 2060,
      "max": [
        2.904104471206665,
        0.6187542676925659,
        0.8069789409637451
      ],
      "min": [
        -2.904104471206665,
        -0.6187542676925659,
        -3.609652519226074
      ],
      "type": "VEC3"
    },
    {
      "bufferView": 2,
      "byteOffset": 160320,
      "componentType": 5126,
      "count": 2060,
      "max": [
        0.989421010017395,
        0.99668949842453,
        1.0
      ],
      "min": [
        -0.989421010017395,
        -0.99668949842453,
        -1.0
      ],
      "type": "VEC3"
    },
    {
      "bufferView": 1,
      "byteOffset": 45200,
      "componentType": 5126,
      "count": 2060,
      "max": [
        1.0,
        1.0
      ],
      "min": [
        7.450580596923828e-08,
        0.01000000536441803
      ],
      "type": "VEC2"
    },
    {
      "bufferView": 0,
      "byteOffset": 36288,
      "componentType": 5125,
      "count": 3126,
      "type": "SCALAR"
    },
    {
      "bufferView": 2,
      "byteOffset": 185040,
      "componentType": 5126,
      "count": 132,
      "max": [
        0.5234239101409912,
        0.5234238505363464,
        -3.609652519226074
      ],
      "min": [
        -0.5234237313270569,
        -0.5234238505363464,
        -4.415482521057129
      ],
      "type": "VEC3"
    },
    {
      "bufferView": 2,
      "byteOffset": 186624,
      "componentType": 5126,
      "count": 132,
      "max": [
        0.9534466862678528,
        0.9534468054771423,
        0.6477624177932739
      ],
      "min": [
        -0.9534466862678528,
        -0.9534468054771423,
        -0.8119407892227173
      ],
      "type": "VEC3"
    },
    {
      "bufferView": 1,
      "byteOffset": 61680,
      "componentType": 5126,
      "count": 132,
      "max": [
        0.8698920011520386,
        0.3698919415473938
      ],
      "min": [
        0.6301079392433167,
        0.13010795414447784
      ],
      "type": "VEC2"
    },
    {
      "bufferView": 0,
      "byteOffset": 48792,
      "componentType": 5125,
      "count": 180,
      "type": "SCALAR"
    },
    {
      "bufferView": 2,
      "byteOffset": 188208,
      "componentType": 5126,
      "count": 804,
      "max": [
        0.3023318648338318,
        1.1550371646881104,
        0.5060998797416687
      ],
      "min": [
        -0.3023318648338318,
        -1.1550371646881104,
        -0.1066853478550911
      ],
      "type": "VEC3"
    },
    {
      "bufferView": 2,
      "byteOffset": 197856,
      "componentType": 5126,
      "count": 804,
      "max": [
        0.9812360405921936,
        0.9914125204086304,
        0.880660355091095
      ],
      "min": [
        -0.9812360405921936,
        -0.9914125204086304,
        -0.9780390858650208
      ],
      "type": "VEC3"
    },
    {
      "bufferView": 1,
      "byteOffset": 62736,
      "componentType": 5126,
      "count": 804,
      "max": [
        0.5001119375228882,
        0.845869779586792
      ],
      "min": [
        0.44583940505981445,
        0.6551092863082886
      ],
      "type": "VEC2"
    },
    {
      "bufferView": 0,
      "byteOffset": 49512,
      "componentType": 5125,
      "count": 1236,
      "type": "SCALAR"
    },
    {
      "bufferView": 2,
      "byteOffset": 207504,
      "componentType": 5126,
      "count": 3332,
      "max": [
        0.7124097347259521,
        1.1891307830810547,
        8.548792839050293
      ],
      "min": [
        -0.7124097347259521,
        -1.1891307830810547,
        0.09525119513273239
      ],
      "type": "VEC3"
    },
    {
      "bufferView": 2,
      "byteOffset": 247488,
      "componentType": 5126,
      "count": 3332,
      "max": [
        0.9977997541427612,
        1.0,
        0.9637025594711304
      ],
      "min": [
        -0.9977997541427612,
        -1.0,
        -0.9640177488327026
      ],
      "type": "VEC3"
    },
    {
      "bufferView": 1,
      "byteOffset": 69168,
      "componentType": 5126,
      "count": 3332,
      "max": [
        0.5000207424163818,
        0.8241176009178162
      ],
      "min": [
        0.0,
        0.0
      ],
      "type": "VEC2"
    },
    {
      "bufferView": 0,
      "byteOffset": 54456,
      "componentType": 5125,
      "count": 6492,
      "type": "SCALAR"
    }
  ],
  "asset": {
    "extras": {
      "author": "Liberi Arcano (https://sketchfab.com/LiberiArcano)",
      "license": "CC-BY-4.0 (http://creativecommons.org/licenses/by/4.0/)",
      "source": "https://sketchfab.com/3d-models/swordtember-2025-day-14-trickster-3a02df4c30a34a5c9fa9a26f11e07753",
      "title": "Swordtember 2025 Day 14: Trickster"
    },
    "generator": "Sketchfab-16.74.0",
    "version": "2.0"
  },
  "bufferViews": [
    {
      "buffer": 0,
      "byteLength": 80424,
      "name": "floatBufferViews",
      "target": 34963
    },
    {
      "buffer": 0,
      "byteLength": 95824,
      "byteOffset": 80424,
      "byteStride": 8,
      "name": "floatBufferViews",
      "target": 34962
    },
    {
      "buffer": 0,
      "byteLength": 287472,
      "byteOffset": 176248,
      "byteStride": 12,
      "name": "floatBufferViews",
      "target": 34962
    }
  ],
  "buffers": [
    {
      "byteLength": 463720,
      "uri": "scene.bin"
    }
  ],
  "extensionsUsed": [
    "KHR_materials_specular"
  ],
  "materials": [
    {
      "doubleSided": true,
      "name": "Mat_SW202514_BladeBase",
      "pbrMetallicRoughness": {
        "baseColorFactor": [
          0.337296,
          0.315051,
          0.176156,
          1.0
        ],
        "roughnessFactor": 0.27761551199575996
      }
    },
    {
      "doubleSided": true,
      "extensions": {
        "KHR_materials_specular": {
          "specularColorFactor": [
            1.0,
            1.0,
            1.0
          ],
          "specularFactor": 0.0
        }
      },
      "name": "Mat_SW202514_GuardBase",
      "pbrMetallicRoughness": {
        "baseColorFactor": [
          0.14147699999999996,
          0.032387599999999996,
          0.009877869999999993,
          1.0
        ],
        "metallicFactor": 0.0
      }
    },
    {
      "doubleSided": true,
      "name": "Mat_SW202514_GuardHorns",
      "pbrMetallicRoughness": {
        "baseColorFactor": [
          0.58282035166508,
          0.34626736559538446,
          0.05870477909661039,
          1.0
        ],
        "roughnessFactor": 0.1500823078151
      }
    },
    {
      "doubleSided": true,
      "name": "Mat_SW202514_JewelPommel",
      "pbrMetallicRoughness": {
        "baseColorFactor": [
          0.637556,
          0.017866799999999995,
          0.10825499999999995,
          1.0
        ],
        "metallicFactor": 0.8620637116306771,
        "roughnessFactor": 0.21688541476687428
      }
    },
    {
      "doubleSided": true,
      "name": "Mat_SW202514_JewelBase",
      "pbrMetallicRoughness": {
        "baseColorFactor": [
          0.15736499999999976,
          0.6368749999999999,
          0.0006168649999999992,
          1.0
        ],
        "roughnessFactor": 0.32012658005597994
      }
    },
    {
      "doubleSided": true,
      "name": "Mat_SW202514_BladeFlat",
      "pbrMetallicRoughness": {
        "baseColorFactor": [
          0.014469,
          0.0137431,
          0.00899693,
          1.0
        ],
        "metallicFactor": 0.0,
        "roughnessFactor": 0.9963806961165532
      }
    }
  ],
  "meshes": [
    {
      "name": "SW2025_14_Mat_SW202514_BladeBase_0",
      "primitives": [
        {
          "attributes": {
            "NORMAL": 1,
            "POSITION": 0,
            "TEXCOORD_0": 2
          },
          "indices": 3,
          "material": 0,
          "mode": 4
        }
      ]
    },
    {
      "name": "SW2025_14_Mat_SW202514_GuardBase_0",
      "primitives": [
        {
          "attributes": {
            "NORMAL": 5,
            "POSITION": 4,
            "TEXCOORD_0": 6
          },
          "indices": 7,
          "material": 1,
          "mode": 4
        }
      ]
    },
    {
      "name": "SW2025_14_Mat_SW202514_GuardHorns_0",
      "primitives": [
        {
          "attributes": {
            "NORMAL": 9,
            "POSITION": 8,
            "TEXCOORD_0": 10
          },
          "indices": 11,
          "material": 2,
          "mode": 4
        }
      ]
    },
    {
      "name": "SW2025_14_Mat_SW202514_JewelPommel_0",
      "primitives": [
        {
          "attributes": {
            "NORMAL": 13,
            "POSITION": 12,
            "TEXCOORD_0": 14
          },
          "indices": 15,
          "material": 3,
          "mode": 4
        }
      ]
    },
    {
      "name": "SW2025_14_Mat_SW202514_JewelBase_0",
      "primitives": [
        {
          "attributes": {
            "NORMAL": 17,
            "POSITION": 16,
            "TEXCOORD_0": 18
          },
          "indices": 19,
          "material": 4,
          "mode": 4
        }
      ]
    },
    {
      "name": "SW2025_14_Mat_SW202514_BladeFlat_0",
      "primitives": [
        {
          "attributes": {
            "NORMAL": 21,
            "POSITION": 20,
            "TEXCOORD_0": 22
          },
          "indices": 23,
          "material": 5,
          "mode": 4
        }
      ]
    }
  ],
  "nodes": [
    {
      "children": [
        1
      ],
      "matrix": [
        1.0,
        0.0,
        0.0,
        0.0,
        0.0,
        2.220446049250313e-16,
        -1.0,
        0.0,
        0.0,
        1.0,
        2.220446049250313e-16,
        0.0,
        0.0,
        0.0,
        0.0,
        1.0
      ],
      "name": "Sketchfab_model"
    },
    {
      "children": [
        2
      ],
      "matrix": [
        0.009999999776482582,
        0.0,
        0.0,
        0.0,
        0.0,
        0.0,
        0.009999999776482582,
        0.0,
        0.0,
        -0.009999999776482582,
        0.0,
        0.0,
        0.0,
        0.0,
        0.0,
        1.0
      ],
      "name": "7dca03a7d94f4c308b9b210066327cbc.fbx"
    },
    {
      "children": [
        3
      ],
      "name": "RootNode"
    },
    {
      "children": [
        4,
        5,
        6,
        7,
        8,
        9
      ],
      "matrix": [
        23.47206370640355,
        -23.472059136224456,
        -3.877644305170246e-06,
        0.0,
        -3.7679047509701132e-06,
        1.7159115839066566e-06,
        -33.19450378417943,
        0.0,
        23.472059136224473,
        23.47206370640381,
        -1.4509780696068738e-06,
        0.0,
        4.39939071839035e-07,
        -60.62558364868164,
        7.095790977018623e-08,
        1.0
      ],
      "name": "SW2025_14"
    },
    {
      "mesh": 0,
      "name": "SW2025_14_Mat_SW202514_BladeBase_0"
    },
    {
      "mesh": 1,
      "name": "SW2025_14_Mat_SW202514_GuardBase_0"
    },
    {
      "mesh": 2,
      "name": "SW2025_14_Mat_SW202514_GuardHorns_0"
    },
    {
      "mesh": 3,
      "name": "SW2025_14_Mat_SW202514_JewelPommel_0"
    },
    {
      "mesh": 4,
      "name": "SW2025_14_Mat_SW202514_JewelBase_0"
    },
    {
      "mesh": 5,
      "name": "SW2025_14_Mat_SW202514_BladeFlat_0"
    }
  ],
  "scene": 0,
  "scenes": [
    {
      "name": "Sketchfab_Scene",
      "nodes": [
        0
      ]
    }
  ]
}
