{
  "accessors": [
    {
      "bufferView": 2,
      "componentType": 5126,
      "count": 2980,
      "max": [
        0.9135479927062988,
        0.8379979729652405,
        0.9178799986839294
      ],
      "min": [
        0.0,
        -0.45659300684928894,
        -1.0
      ],
      "type": "VEC3"
    },
    {
      "bufferView": 2,
      "byteOffset": 35760,
      "componentType": 5126,
      "count": 2980,
      "max": [
        0.9999954700469971,
        0.9999346137046814,
        1.0
      ],
      "min": [
        -0.999971330165863,
        -0.9999867677688599,
        -1.0
      ],
      "type": "VEC3"
    },
    {
      "bufferView": 3,
      "componentType": 5126,
      "count": 2980,
      "max": [
        0.9999634623527527,
        0.9999980926513672,
        0.999923050403595,
        -1.0
      ],
      "min": [
        -0.9999942183494568,
        -0.9997982978820801,
        -0.999058187007904,
        -1.0
      ],
      "type": "VEC4"
    },
    {
      "bufferView": 1,
      "componentType": 5126,
      "count": 2980,
      "max": [
        0.995727002620697,
        0.9927979707717896
      ],
      "min": [
        0.09230169653892517,
        0.0072015500627458096
      ],
      "type": "VEC2"
    },
    {
      "bufferView": 0,
      "componentType": 5125,
      "count": 15543,
      "type": "SCALAR"
    },
    {
      "bufferView": 2,
      "byteOffset": 71520,
      "componentType": 5126,
      "count": 2512,
      "max": [
        0.5738419890403748,
        0.013316400349140167,
        0.763916015625
      ],
      "min": [
        0.19211700558662415,
        -0.8379979729652405,
        0.128602996468544
      ],
      "type": "VEC3"
    },
    {
      "bufferView": 2,
      "byteOffset": 101664,
      "componentType": 5126,
      "count": 2512,
      "max": [
        0.9997772574424744,
        0.9989519715309143,
        0.9981434941291809
      ],
      "min": [
        -0.9994055032730103,
        -0.9981593489646912,
        -0.9956098794937134
      ],
      "type": "VEC3"
    },
    {
      "bufferView": 3,
      "byteOffset": 47680,
      "componentType": 5126,
      "count": 2512,
      "max": [
        0.9998101592063904,
        0.9977869391441345,
        0.9999929666519165,
        -1.0
      ],
      "min": [
        -0.9994688630104065,
        -0.9950945377349854,
        -0.9999716281890869,
        -1.0
      ],
      "type": "VEC4"
    },
    {
      "bufferView": 1,
      "byteOffset": 23840,
      "componentType": 5126,
      "count": 2512,
      "max": [
        0.9254130125045776,
        0.961633026599884
      ],
      "min": [
        0.10398499667644501,
        0.04716239869594574
      ],
      "type": "VEC2"
    },
    {
      "bufferView": 0,
      "byteOffset": 62172,
      "componentType": 5125,
      "count": 13998,
      "type": "SCALAR"
    },
    {
      "bufferView": 2,
      "byteOffset": 131808,
      "componentType": 5126,
      "count": 192,
      "max": [
        0.5381190180778503,
        0.029012300074100494,
        0.5431749820709229
      ],
      "min": [
        0.47842299938201904,
        -0.00017641199519857764,
        0.21260499954223633
      ],
      "type": "VEC3"
    },
    {
      "bufferView": 2,
      "byteOffset": 134112,
      "componentType": 5126,
      "count": 192,
      "max": [
        0.9968162178993225,
        0.9587476253509521,
        0.9950132369995117
      ],
      "min": [
        -0.996816098690033,
        -0.9587476253509521,
        -0.9950136542320251
      ],
      "type": "VEC3"
    },
    {
      "bufferView": 3,
      "byteOffset": 87872,
      "componentType": 5126,
      "count": 192,
      "max": [
        0.999335527420044,
        0.49243786931037903,
        0.99539715051651,
        -1.0
      ],
      "min": [
        -0.9992638230323792,
        -0.5939591526985168,
        -0.9971143007278442,
        -1.0
      ],
      "type": "VEC4"
    },
    {
      "bufferView": 1,
      "byteOffset": 43936,
      "componentType": 5126,
      "count": 192,
      "max": [
        0.9085310101509094,
        0.9404940009117126
      ],
      "min": [
        0.060279201716184616,
        0.38838499784469604
      ],
      "type": "VEC2"
    },
    {
      "bufferView": 0,
      "byteOffset": 118164,
      "componentType": 5125,
      "count": 720,
      "type": "SCALAR"
    },
    {
      "bufferView": 2,
      "byteOffset": 136416,
      "componentType": 5126,
      "count": 2980,
      "max": [
        0.0,
        0.8379979729652405,
        0.9178799986839294
      ],
      "min": [
        -0.9135479927062988,
        -0.45659300684928894,
        -1.0
      ],
      "type": "VEC3"
    },
    {
      "bufferView": 2,
      "byteOffset": 172176,
      "componentType": 5126,
      "count": 2980,
      "max": [
        0.999971330165863,
        0.9999346137046814,
        1.0
      ],
      "min": [
        -0.9999954700469971,
        -0.9999867677688599,
        -1.0
      ],
      "type": "VEC3"
    },
    {
      "bufferView": 3,
      "byteOffset": 90944,
      "componentType": 5126,
      "count": 2980,
      "max": [
        0.9999942183494568,
        0.9999980926513672,
        0.9999231100082397,
        1.0
      ],
      "min": [
        -0.9999635219573975,
        -0.9997982978820801,
        -0.999058187007904,
        1.0
      ],
      "type": "VEC4"
    },
    {
      "bufferView": 1,
      "byteOffset": 45472,
      "componentType": 5126,
      "count": 2980,
      "max": [
        0.995727002620697,
        0.9927979707717896
      ],
      "min": [
        0.09230169653892517,
        0.0072015500627458096
      ],
      "type": "VEC2"
    },
    {
      "bufferView": 0,
      "byteOffset": 121044,
      "componentType": 5125,
      "count": 15543,
      "type": "SCALAR"
    },
    {
      "bufferView": 2,
      "byteOffset": 207936,
      "componentType": 5126,
      "count": 2512,
      "max": [
        -0.19211700558662415,
        0.013316400349140167,
        0.763916015625
      ],
      "min": [
        -0.5738419890403748,
        -0.8379979729652405,
        0.128602996468544
      ],
      "type": "VEC3"
    },
    {
      "bufferView": 2,
      "byteOffset": 238080,
      "componentType": 5126,
      "count": 2512,
      "max": [
        0.9994055032730103,
        0.9989519715309143,
        0.9981434941291809
      ],
      "min": [
        -0.9997772574424744,
        -0.9981593489646912,
        -0.9956098794937134
      ],
      "type": "VEC3"
    },
    {
      "bufferView": 3,
      "byteOffset": 138624,
      "componentType": 5126,
      "count": 2512,
      "max": [
        0.9994688630104065,
        0.9977869391441345,
        0.9999929666519165,
        1.0
      ],
      "min": [
        -0.9998100996017456,
        -0.9950945973396301,
        -0.9999716281890869,
        1.0
      ],
      "type": "VEC4"
    },
    {
      "bufferView": 1,
      "byteOffset": 69312,
      "componentType": 5126,
      "count": 2512,
      "max": [
        0.9254130125045776,
        0.961633026599884
      ],
      "min": [
        0.10398499667644501,
        0.04716239869594574
      ],
      "type": "VEC2"
    },
    {
      "bufferView": 0,
      "byteOffset": 183216,
      "componentType": 5125,
      "count": 13998,
      "type": "SCALAR"
    },
    {
      "bufferView": 2,
      "byteOffset": 268224,
      "componentType": 5126,
      "count": 192,
      "max": [
        -0.47842299938201904,
        0.029012300074100494,
        0.5431749820709229
      ],
      "min": [
        -0.5381190180778503,
        -0.00017641199519857764,
        0.21260499954223633
      ],
      "type": "VEC3"
    },
    {
      "bufferView": 2,
      "byteOffset": 270528,
      "componentType": 5126,
      "count": 192,
      "max": [
        0.996816098690033,
        0.9587476253509521,
        0.9950132369995117
      ],
      "min": [
        -0.9968162178993225,
        -0.9587476253509521,
        -0.9950136542320251
      ],
      "type": "VEC3"
    },
    {
      "bufferView": 3,
      "byteOffset": 178816,
      "componentType": 5126,
      "count": 192,
      "max": [
        0.9992638230323792,
        0.49243786931037903,
        0.99539715051651,
        1.0
      ],
      "min": [
        -0.999335527420044,
        -0.5939590930938721,
        -0.9971143007278442,
        1.0
      ],
      "type": "VEC4"
    },
    {
      "bufferView": 1,
      "byteOffset": 89408,
      "componentType": 5126,
      "count": 192,
      "max": [
        0.9085310101509094,
        0.9404940009117126
      ],
      "min": [
        0.060279201716184616,
        0.38838499784469604
      ],
      "type": "VEC2"
    },
    {
      "bufferView": 0,
      "byteOffset": 239208,
      "componentType": 5125,
      "count": 720,
      "type": "SCALAR"
    },
    {
      "bufferView": 2,
      "byteOffset": 272832,
      "componentType": 5126,
      "count": 1717,
      "max": [
        0.5611469745635986,
        0.675508975982666,
        1.0
      ],
      "min": [
        -0.5611469745635986,
        0.052120499312877655,
        -0.6016749739646912
      ],
      "type": "VEC3"
    },
    {
      "bufferView": 2,
      "byteOffset": 293436,
      "componentType": 5126,
      "count": 1717,
      "max": [
        0.9998727440834045,
        0.9996113777160645,
        0.9992957711219788
      ],
      "min": [
        -0.9998727440834045,
        -0.9999697804450989,
        -0.9996183514595032
      ],
      "type": "VEC3"
    },
    {
      "bufferView": 3,
      "byteOffset": 181888,
      "componentType": 5126,
      "count": 1717,
      "max": [
        0.9999092817306519,
        0.9996472001075745,
        0.999925971031189,
        1.0
      ],
      "min": [
        -1.0,
        -0.9992462992668152,
        -0.9999291300773621,
        -1.0
      ],
      "type": "VEC4"
    },
    {
      "bufferView": 1,
      "byteOffset": 90944,
      "componentType": 5126,
      "count": 1717,
      "max": [
        0.7233930230140686,
        0.9919049739837646
      ],
      "min": [
        0.005315450020134449,
        0.014197899959981441
      ],
      "type": "VEC2"
    },
    {
      "bufferView": 0,
      "byteOffset": 242088,
      "componentType": 5125,
      "count": 9048,
      "type": "SCALAR"
    },
    {
      "bufferView": 2,
      "byteOffset": 314040,
      "componentType": 5126,
      "count": 1364,
      "max": [
        0.5111179947853088,
        0.7037429809570313,
        0.9033949971199036
      ],
      "min": [
        -0.51111900806427,
        -0.13556699454784393,
        -0.5984500050544739
      ],
      "type": "VEC3"
    },
    {
      "bufferView": 2,
      "byteOffset": 330408,
      "componentType": 5126,
      "count": 1364,
      "max": [
        1.0,
        0.9995237588882446,
        0.9943200945854187
      ],
      "min": [
        -1.0,
        -0.9963957667350769,
        -0.9999852180480957
      ],
      "type": "VEC3"
    },
    {
      "bufferView": 3,
      "byteOffset": 209360,
      "componentType": 5126,
      "count": 1364,
      "max": [
        1.0,
        0.9897270202636719,
        0.9998437762260437,
        1.0
      ],
      "min": [
        -1.0,
        -0.9839029908180237,
        -0.9999970197677612,
        1.0
      ],
      "type": "VEC4"
    },
    {
      "bufferView": 1,
      "byteOffset": 104680,
      "componentType": 5126,
      "count": 1364,
      "max": [
        0.5237399935722351,
        0.946590006351471
      ],
      "min": [
        0.004272549878805876,
        0.10637400299310684
      ],
      "type": "VEC2"
    },
    {
      "bufferView": 0,
      "byteOffset": 278280,
      "componentType": 5125,
      "count": 7056,
      "type": "SCALAR"
    }
  ],
  "asset": {
    "extras": {
      "author": "AlbertoGalindo3D (https://sketchfab.com/AlbertoGalindo3D)",
      "license": "CC-BY-4.0 (http://creativecommons.org/licenses/by/4.0/)",
      "source": "https://sketchfab.com/3d-models/roman-legionnaire-helmet-608c6fdd20174b7b8c77ac585042664c",
      "title": "Roman Legionnaire Helmet"
    },
    "generator": "Sketchfab-12.68.0",
    "version": "2.0"
  },
  "bufferViews": [
    {
      "buffer": 0,
      "byteLength": 306504,
      "name": "floatBufferViews",
      "target": 34963
    },
    {
      "buffer": 0,
      "byteLength": 115592,
      "byteOffset": 306504,
      "byteStride": 8,
      "name": "floatBufferViews",
      "target": 34962
    },
    {
      "buffer": 0,
      "byteLength": 346776,
      "byteOffset": 422096,
      "byteStride": 12,
      "name": "floatBufferViews",
      "target": 34962
    },
    {
      "buffer": 0,
      "byteLength": 231184,
      "byteOffset": 768872,
      "byteStride": 16,
      "name": "floatBufferViews",
      "target": 34962
    }
  ],
  "buffers": [
    {
      "byteLength": 1000056,
      "uri": "scene.bin"
    }
  ],
  "images": [
    {
      "uri": "textures/lambert2_baseColor.jpeg"
    },
    {
      "uri": "textures/lambert2_metallicRoughness.png"
    },
    {
      "uri": "textures/lambert2_normal.png"
    }
  ],
  "materials": [
    {
      "doubleSided": true,
      "name": "lambert2",
      "normalTexture": {
        "index": 2
      },
      "occlusionTexture": {
        "index": 1
      },
      "pbrMetallicRoughness": {
        "baseColorTexture": {
          "index": 0
        },
        "metallicRoughnessTexture": {
          "index": 1
        }
      }
    }
  ],
  "meshes": [
    {
      "name": "defaultMaterial",
      "primitives": [
        {
          "attributes": {
            "NORMAL": 1,
            "POSITION": 0,
            "TANGENT": 2,
            "TEXCOORD_0": 3
          },
          "indices": 4,
          "material": 0,
          "mode": 4
        }
      ]
    },
    {
      "name": "defaultMaterial",
      "primitives": [
        {
          "attributes": {
            "NORMAL": 6,
            "POSITION": 5,
            "TANGENT": 7,
            "TEXCOORD_0": 8
          },
          "indices": 9,
          "material": 0,
          "mode": 4
        }
      ]
    },
    {
      "name": "defaultMaterial",
      "primitives": [
        {
          "attributes": {
            "NORMAL": 11,
            "POSITION": 10,
            "TANGENT": 12,
            "TEXCOORD_0": 13
          },
          "indices": 14,
          "material": 0,
          "mode": 4
        }
      ]
    },
    {
      "name": "defaultMaterial",
      "primitives": [
        {
          "attributes": {
            "NORMAL": 16,
            "POSITION": 15,
            "TANGENT": 17,
            "TEXCOORD_0": 18
          },
          "indices": 19,
          "material": 0,
          "mode": 4
        }
      ]
    },
    {
      "name": "defaultMaterial",
      "primitives": [
        {
          "attributes": {
            "NORMAL": 21,
            "POSITION": 20,
            "TANGENT": 22,
            "TEXCOORD_0": 23
          },
          "indices": 24,
          "material": 0,
          "mode": 4
        }
      ]
    },
    {
      "name": "defaultMaterial",
      "primitives": [
        {
          "attributes": {
            "NORMAL": 26,
            "POSITION": 25,
            "TANGENT": 27,
            "TEXCOORD_0": 28
          },
          "indices": 29,
          "material": 0,
          "mode": 4
        }
      ]
    },
    {
      "name": "defaultMaterial",
      "primitives": [
        {
          "attributes": {
            "NORMAL": 31,
            "POSITION": 30,
            "TANGENT": 32,
            "TEXCOORD_0": 33
          },
          "indices": 34,
          "material": 0,
          "mode": 4
        }
      ]
    },
    {
      "name": "defaultMaterial",
      "primitives": [
        {
          "attributes": {
            "NORMAL": 36,
            "POSITION": 35,
            "TANGENT": 37,
            "TEXCOORD_0": 38
          },
          "indices": 39,
          "material": 0,
          "mode": 4
        }
      ]
    }
  ],
  "nodes": [
    {
      "children": [
        1
      ],
      "matrix": [
        0.17627058923244476,
        0.0,
        0.0,
        0.0,
        0.0,
        3.9139933346020675e-17,
        -0.17627058923244476,
        0.0,
        0.0,
        0.17627058923244476,
        3.9139933346020675e-17,
        0.0,
        0.0,
        0.0,
        0.0,
        1.0
      ],
      "name": "Sketchfab_model"
    },
    {
      "children": [
        2,
        4,
        6,
        8,
        10,
        12,
        14,
        16
      ],
      "matrix": [
        1.0,
        0.0,
        0.0,
        0.0,
        0.0,
        -4.371139006309477e-08,
        0.999999999999999,
        0.0,
        0.0,
        -0.999999999999999,
        -4.371139006309477e-08,
        0.0,
        0.0,
        0.0,
        0.0,
        1.0
      ],
      "name": "Collada visual scene group"
    },
    {
      "children": [
        3
      ],
      "name": "Left_Half"
    },
    {
      "mesh": 0,
      "name": "defaultMaterial"
    },
    {
      "children": [
        5
      ],
      "name": "L_Cheek"
    },
    {
      "mesh": 1,
      "name": "defaultMaterial"
    },
    {
      "children": [
        7
      ],
      "name": "L_Hinge"
    },
    {
      "mesh": 2,
      "name": "defaultMaterial"
    },
    {
      "children": [
        9
      ],
      "name": "Right_Half"
    },
    {
      "mesh": 3,
      "name": "defaultMaterial"
    },
    {
      "children": [
        11
      ],
      "name": "R_Cheek"
    },
    {
      "mesh": 4,
      "name": "defaultMaterial"
    },
    {
      "children": [
        13
      ],
      "name": "R_Hinge"
    },
    {
      "mesh": 5,
      "name": "defaultMaterial"
    },
    {
      "children": [
        15
      ],
      "name": "Steel_B"
    },
    {
      "mesh": 6,
      "name": "defaultMaterial"
    },
    {
      "children": [
        17
      ],
      "name": "Inner_Cap"
    },
    {
      "mesh": 7,
      "name": "defaultMaterial"
    }
  ],
  "samplers": [
    {
      "magFilter": 9729,
      "minFilter": 9987,
      "wrapS": 10497,
      "wrapT": 10497
    }
  ],
  "scene": 0,
  "scenes": [
    {
      "name": "Sketchfab_Scene",
      "nodes": [
        0
      ]
    }
  ],
  "textures": [
    {
      "sampler": 0,
      "source": 0
    },
    {
      "sampler": 0,
      "source": 1
    },
    {
      "sampler": 0,
      "source": 2
    }
  ]
}
