{
  "accessors": [
    {
      "bufferView": 3,
      "componentType": 5126,
      "count": 243,
      "max": [
        1.5065300464630127,
        2.5375609397888184,
        11.731123924255371
      ],
      "min": [
        -1.5065300464630127,
        -1.2270889282226563,
        6.640093803405762
      ],
      "type": "VEC3"
    },
    {
      "bufferView": 3,
      "byteOffset": 2916,
      "componentType": 5126,
      "count": 243,
      "max": [
        0.9954282641410828,
        0.9999989867210388,
        0.9986501336097717
      ],
      "min": [
        -0.9954282641410828,
        -0.9902512431144714,
        -0.7935012578964233
      ],
      "type": "VEC3"
    },
    {
      "bufferView": 2,
      "componentType": 5126,
      "count": 243,
      "max": [
        0.9883000254631042,
        0.9899899959564209
      ],
      "min": [
        0.5562099814414978,
        2.9999999242136255e-05
      ],
      "type": "VEC2"
    },
    {
      "bufferView": 1,
      "componentType": 5125,
      "count": 864,
      "type": "SCALAR"
    },
    {
      "bufferView": 3,
      "byteOffset": 5832,
      "componentType": 5126,
      "count": 2658,
      "max": [
        7.396585464477539,
        3.4770548343658447,
        16.660940170288086
      ],
      "min": [
        -7.396585464477539,
        -3.0512688159942627,
        0.07127366214990616
      ],
      "type": "VEC3"
    },
    {
      "bufferView": 3,
      "byteOffset": 37728,
      "componentType": 5126,
      "count": 2658,
      "max": [
        0.9997678995132446,
        0.9999943375587463,
        0.999726414680481
      ],
      "min": [
        -0.9997678995132446,
        -0.9998371005058289,
        -1.0
      ],
      "type": "VEC3"
    },
    {
      "bufferView": 2,
      "byteOffset": 1944,
      "componentType": 5126,
      "count": 2658,
      "max": [
        0.8340799808502197,
        0.9985499978065491
      ],
      "min": [
        0.0037799999117851257,
        0.005009999964386225
      ],
      "type": "VEC2"
    },
    {
      "bufferView": 1,
      "byteOffset": 3456,
      "componentType": 5125,
      "count": 10872,
      "type": "SCALAR"
    },
    {
      "bufferView": 5,
      "componentType": 5126,
      "count": 54,
      "max": [
        1.0,
        0.681856095790863,
        0.7054265141487122,
        0.0,
        0.6579471230506897,
        1.0,
        0.6380563974380493,
        0.0,
        0.5321158170700073,
        0.705489993095398,
        1.0,
        0.0,
        4.976500034332275,
        6.927110195159912,
        5.547530174255371,
        1.0
      ],
      "min": [
        -0.705489993095398,
        -0.6818490028381348,
        -0.7054265141487122,
        0.0,
        -0.6579471230506897,
        -0.6579800248146057,
        -0.6579800248146057,
        0.0,
        -0.5321158170700073,
        -0.7045446634292603,
        -0.705489993095398,
        0.0,
        -4.976500034332275,
        -6.194200038909912,
        -6.223430156707764,
        1.0
      ],
      "type": "MAT4"
    },
    {
      "bufferView": 0,
      "componentType": 5123,
      "count": 243,
      "type": "VEC4"
    },
    {
      "bufferView": 4,
      "componentType": 5126,
      "count": 243,
      "max": [
        1.0,
        0.3408556580543518,
        0.0,
        0.0
      ],
      "min": [
        0.6591443419456482,
        0.0,
        0.0,
        0.0
      ],
      "type": "VEC4"
    },
    {
      "bufferView": 0,
      "byteOffset": 1944,
      "componentType": 5123,
      "count": 2658,
      "type": "VEC4"
    },
    {
      "bufferView": 4,
      "byteOffset": 3888,
      "componentType": 5126,
      "count": 2658,
      "max": [
        1.0,
        0.5,
        0.3333333432674408,
        0.2024281620979309
      ],
      "min": [
        0.3141292631626129,
        0.0,
        0.0,
        0.0
      ],
      "type": "VEC4"
    },
    {
      "bufferView": 6,
      "componentType": 5126,
      "count": 1,
      "max": [
        0.0
      ],
      "min": [
        0.0
      ],
      "type": "SCALAR"
    },
    {
      "bufferView": 8,
      "componentType": 5126,
      "count": 1,
      "max": [
        0.7071067690849304,
        0.0,
        0.0,
        0.7071067690849304
      ],
      "min": [
        0.7071067690849304,
        0.0,
        0.0,
        0.7071067690849304
      ],
      "type": "VEC4"
    },
    {
      "bufferView": 6,
      "byteOffset": 4,
      "componentType": 5126,
      "count": 1,
      "max": [
        0.0
      ],
      "min": [
        0.0
      ],
      "type": "SCALAR"
    },
    {
      "bufferView": 7,
      "componentType": 5126,
      "count": 1,
      "max": [
        -0.5132798552513123,
        4.673790454864502,
        -0.6695318818092346
      ],
      "min": [
        -0.5132798552513123,
        4.673790454864502,
        -0.6695318818092346
      ],
      "type": "VEC3"
    },
    {
      "bufferView": 6,
      "byteOffset": 8,
      "componentType": 5126,
      "count": 1,
      "max": [
        0.0
      ],
      "min": [
        0.0
      ],
      "type": "SCALAR"
    },
    {
      "bufferView": 8,
      "byteOffset": 16,
      "componentType": 5126,
      "count": 1,
      "max": [
        0.71546870470047,
        0.026253333315253258,
        0.026560058817267418,
        0.6976442337036133
      ],
      "min": [
        0.71546870470047,
        0.026253333315253258,
        0.026560058817267418,
        0.6976442337036133
      ],
      "type": "VEC4"
    },
    {
      "bufferView": 6,
      "byteOffset": 12,
      "componentType": 5126,
      "count": 1,
      "max": [
        0.0
      ],
      "min": [
        0.0
      ],
      "type": "SCALAR"
    },
    {
      "bufferView": 8,
      "byteOffset": 32,
      "componentType": 5126,
      "count": 1,
      "max": [
        -0.6590979099273682,
        -3.5278851555631263e-06,
        -3.5278851555631263e-06,
        0.7520571351051331
      ],
      "min": [
        -0.6590979099273682,
        -3.5278851555631263e-06,
        -3.5278851555631263e-06,
        0.7520571351051331
      ],
      "type": "VEC4"
    },
    {
      "bufferView": 6,
      "byteOffset": 16,
      "componentType": 5126,
      "count": 1,
      "max": [
        0.0
      ],
      "min": [
        0.0
      ],
      "type": "SCALAR"
    },
    {
      "bufferView": 8,
      "byteOffset": 48,
      "componentType": 5126,
      "count": 1,
      "max": [
        0.05583510547876358,
        -0.00734930532053113,
        -0.06457138806581497,
        0.9963256120681763
      ],
      "min": [
        0.05583510547876358,
        -0.00734930532053113,
        -0.06457138806581497,
        0.9963256120681763
      ],
      "type": "VEC4"
    },
    {
      "bufferView": 6,
      "byteOffset": 20,
      "componentType": 5126,
      "count": 1,
      "max": [
        0.0
      ],
      "min": [
        0.0
      ],
      "type": "SCALAR"
    },
    {
      "bufferView": 8,
      "byteOffset": 64,
      "componentType": 5126,
      "count": 1,
      "max": [
        -0.33614662289619446,
        0.19608767330646515,
        -0.0074486322700977325,
        0.921140730381012
      ],
      "min": [
        -0.33614662289619446,
        0.19608767330646515,
        -0.0074486322700977325,
        0.921140730381012
      ],
      "type": "VEC4"
    },
    {
      "bufferView": 6,
      "byteOffset": 24,
      "componentType": 5126,
      "count": 1,
      "max": [
        0.0
      ],
      "min": [
        0.0
      ],
      "type": "SCALAR"
    },
    {
      "bufferView": 8,
      "byteOffset": 80,
      "componentType": 5126,
      "count": 1,
      "max": [
        0.26122596859931946,
        0.06131413206458092,
        -0.009095931425690651,
        0.9632868766784668
      ],
      "min": [
        0.26122596859931946,
        0.06131413206458092,
        -0.009095931425690651,
        0.9632868766784668
      ],
      "type": "VEC4"
    },
    {
      "bufferView": 6,
      "byteOffset": 28,
      "componentType": 5126,
      "count": 1,
      "max": [
        0.0
      ],
      "min": [
        0.0
      ],
      "type": "SCALAR"
    },
    {
      "bufferView": 8,
      "byteOffset": 96,
      "componentType": 5126,
      "count": 1,
      "max": [
        0.39385858178138733,
        0.04906380549073219,
        0.077340267598629,
        0.9145914912223816
      ],
      "min": [
        0.39385858178138733,
        0.04906380549073219,
        0.077340267598629,
        0.9145914912223816
      ],
      "type": "VEC4"
    },
    {
      "bufferView": 6,
      "byteOffset": 32,
      "componentType": 5126,
      "count": 1,
      "max": [
        0.0
      ],
      "min": [
        0.0
      ],
      "type": "SCALAR"
    },
    {
      "bufferView": 8,
      "byteOffset": 112,
      "componentType": 5126,
      "count": 1,
      "max": [
        -0.8041332960128784,
        0.0,
        0.0,
        0.594448983669281
      ],
      "min": [
        -0.8041332960128784,
        0.0,
        0.0,
        0.594448983669281
      ],
      "type": "VEC4"
    },
    {
      "bufferView": 6,
      "byteOffset": 36,
      "componentType": 5126,
      "count": 1,
      "max": [
        0.0
      ],
      "min": [
        0.0
      ],
      "type": "SCALAR"
    },
    {
      "bufferView": 8,
      "byteOffset": 128,
      "componentType": 5126,
      "count": 1,
      "max": [
        -0.8401634693145752,
        -0.11726409941911697,
        -0.07760912925004959,
        0.5237777829170227
      ],
      "min": [
        -0.8401634693145752,
        -0.11726409941911697,
        -0.07760912925004959,
        0.5237777829170227
      ],
      "type": "VEC4"
    },
    {
      "bufferView": 6,
      "byteOffset": 40,
      "componentType": 5126,
      "count": 1,
      "max": [
        0.0
      ],
      "min": [
        0.0
      ],
      "type": "SCALAR"
    },
    {
      "bufferView": 8,
      "byteOffset": 144,
      "componentType": 5126,
      "count": 1,
      "max": [
        0.09662530571222305,
        -0.017022402957081795,
        -0.13957831263542175,
        0.9853330850601196
      ],
      "min": [
        0.09662530571222305,
        -0.017022402957081795,
        -0.13957831263542175,
        0.9853330850601196
      ],
      "type": "VEC4"
    },
    {
      "bufferView": 6,
      "byteOffset": 44,
      "componentType": 5126,
      "count": 1,
      "max": [
        0.0
      ],
      "min": [
        0.0
      ],
      "type": "SCALAR"
    },
    {
      "bufferView": 8,
      "byteOffset": 160,
      "componentType": 5126,
      "count": 1,
      "max": [
        -0.8988285064697266,
        -0.06416423618793488,
        0.3705747127532959,
        0.22508876025676727
      ],
      "min": [
        -0.8988285064697266,
        -0.06416423618793488,
        0.3705747127532959,
        0.22508876025676727
      ],
      "type": "VEC4"
    },
    {
      "bufferView": 6,
      "byteOffset": 48,
      "componentType": 5126,
      "count": 1,
      "max": [
        0.0
      ],
      "min": [
        0.0
      ],
      "type": "SCALAR"
    },
    {
      "bufferView": 8,
      "byteOffset": 176,
      "componentType": 5126,
      "count": 1,
      "max": [
        -0.4064694344997406,
        -0.08635304868221283,
        0.24562884867191315,
        0.8757835030555725
      ],
      "min": [
        -0.4064694344997406,
        -0.08635304868221283,
        0.24562884867191315,
        0.8757835030555725
      ],
      "type": "VEC4"
    },
    {
      "bufferView": 6,
      "byteOffset": 52,
      "componentType": 5126,
      "count": 1,
      "max": [
        0.0
      ],
      "min": [
        0.0
      ],
      "type": "SCALAR"
    },
    {
      "bufferView": 8,
      "byteOffset": 192,
      "componentType": 5126,
      "count": 1,
      "max": [
        -0.12205681204795837,
        -0.9410452246665955,
        -0.17003947496414185,
        0.26576364040374756
      ],
      "min": [
        -0.12205681204795837,
        -0.9410452246665955,
        -0.17003947496414185,
        0.26576364040374756
      ],
      "type": "VEC4"
    },
    {
      "bufferView": 6,
      "byteOffset": 56,
      "componentType": 5126,
      "count": 1,
      "max": [
        0.0
      ],
      "min": [
        0.0
      ],
      "type": "SCALAR"
    },
    {
      "bufferView": 7,
      "byteOffset": 12,
      "componentType": 5126,
      "count": 1,
      "max": [
        -0.16241584718227386,
        0.26008498668670654,
        0.15281988680362701
      ],
      "min": [
        -0.16241584718227386,
        0.26008498668670654,
        0.15281988680362701
      ],
      "type": "VEC3"
    },
    {
      "bufferView": 6,
      "byteOffset": 60,
      "componentType": 5126,
      "count": 1,
      "max": [
        0.0
      ],
      "min": [
        0.0
      ],
      "type": "SCALAR"
    },
    {
      "bufferView": 8,
      "byteOffset": 208,
      "componentType": 5126,
      "count": 1,
      "max": [
        0.056520167738199234,
        0.3006410002708435,
        0.05588601902127266,
        0.9504187703132629
      ],
      "min": [
        0.056520167738199234,
        0.3006410002708435,
        0.05588601902127266,
        0.9504187703132629
      ],
      "type": "VEC4"
    },
    {
      "bufferView": 6,
      "byteOffset": 64,
      "componentType": 5126,
      "count": 1,
      "max": [
        0.0
      ],
      "min": [
        0.0
      ],
      "type": "SCALAR"
    },
    {
      "bufferView": 8,
      "byteOffset": 224,
      "componentType": 5126,
      "count": 1,
      "max": [
        -0.004420815035700798,
        0.012847482226788998,
        -0.014065167866647243,
        0.9998087882995605
      ],
      "min": [
        -0.004420815035700798,
        0.012847482226788998,
        -0.014065167866647243,
        0.9998087882995605
      ],
      "type": "VEC4"
    },
    {
      "bufferView": 6,
      "byteOffset": 68,
      "componentType": 5126,
      "count": 1,
      "max": [
        0.0
      ],
      "min": [
        0.0
      ],
      "type": "SCALAR"
    },
    {
      "bufferView": 8,
      "byteOffset": 240,
      "componentType": 5126,
      "count": 1,
      "max": [
        -0.088407963514328,
        0.45817333459854126,
        -0.009498080238699913,
        0.8844037055969238
      ],
      "min": [
        -0.088407963514328,
        0.45817333459854126,
        -0.009498080238699913,
        0.8844037055969238
      ],
      "type": "VEC4"
    },
    {
      "bufferView": 6,
      "byteOffset": 72,
      "componentType": 5126,
      "count": 1,
      "max": [
        0.0
      ],
      "min": [
        0.0
      ],
      "type": "SCALAR"
    },
    {
      "bufferView": 8,
      "byteOffset": 256,
      "componentType": 5126,
      "count": 1,
      "max": [
        -0.07716885954141617,
        0.01623537763953209,
        -0.06764009594917297,
        0.9945886731147766
      ],
      "min": [
        -0.07716885954141617,
        0.01623537763953209,
        -0.06764009594917297,
        0.9945886731147766
      ],
      "type": "VEC4"
    },
    {
      "bufferView": 6,
      "byteOffset": 76,
      "componentType": 5126,
      "count": 1,
      "max": [
        0.0
      ],
      "min": [
        0.0
      ],
      "type": "SCALAR"
    },
    {
      "bufferView": 8,
      "byteOffset": 272,
      "componentType": 5126,
      "count": 1,
      "max": [
        -0.09172344207763672,
        0.46679621934890747,
        -0.034023530781269073,
        0.8789369463920593
      ],
      "min": [
        -0.09172344207763672,
        0.46679621934890747,
        -0.034023530781269073,
        0.8789369463920593
      ],
      "type": "VEC4"
    },
    {
      "bufferView": 6,
      "byteOffset": 80,
      "componentType": 5126,
      "count": 1,
      "max": [
        0.0
      ],
      "min": [
        0.0
      ],
      "type": "SCALAR"
    },
    {
      "bufferView": 8,
      "byteOffset": 288,
      "componentType": 5126,
      "count": 1,
      "max": [
        -0.05296649783849716,
        0.01645081304013729,
        -0.058114126324653625,
        0.996768057346344
      ],
      "min": [
        -0.05296649783849716,
        0.01645081304013729,
        -0.058114126324653625,
        0.996768057346344
      ],
      "type": "VEC4"
    },
    {
      "bufferView": 6,
      "byteOffset": 84,
      "componentType": 5126,
      "count": 1,
      "max": [
        0.0
      ],
      "min": [
        0.0
      ],
      "type": "SCALAR"
    },
    {
      "bufferView": 8,
      "byteOffset": 304,
      "componentType": 5126,
      "count": 1,
      "max": [
        -0.08027070015668869,
        0.4572601318359375,
        -0.021881379187107086,
        0.8854321241378784
      ],
      "min": [
        -0.08027070015668869,
        0.4572601318359375,
        -0.021881379187107086,
        0.8854321241378784
      ],
      "type": "VEC4"
    },
    {
      "bufferView": 6,
      "byteOffset": 88,
      "componentType": 5126,
      "count": 1,
      "max": [
        0.0
      ],
      "min": [
        0.0
      ],
      "type": "SCALAR"
    },
    {
      "bufferView": 8,
      "byteOffset": 320,
      "componentType": 5126,
      "count": 1,
      "max": [
        -0.02137542888522148,
        0.02166270650923252,
        -0.058277904987335205,
        0.997836709022522
      ],
      "min": [
        -0.02137542888522148,
        0.02166270650923252,
        -0.058277904987335205,
        0.997836709022522
      ],
      "type": "VEC4"
    },
    {
      "bufferView": 6,
      "byteOffset": 92,
      "componentType": 5126,
      "count": 1,
      "max": [
        0.0
      ],
      "min": [
        0.0
      ],
      "type": "SCALAR"
    },
    {
      "bufferView": 8,
      "byteOffset": 336,
      "componentType": 5126,
      "count": 1,
      "max": [
        -0.04834672063589096,
        0.464437335729599,
        -0.0555398128926754,
        0.8825393915176392
      ],
      "min": [
        -0.04834672063589096,
        0.464437335729599,
        -0.0555398128926754,
        0.8825393915176392
      ],
      "type": "VEC4"
    },
    {
      "bufferView": 6,
      "byteOffset": 96,
      "componentType": 5126,
      "count": 1,
      "max": [
        0.0
      ],
      "min": [
        0.0
      ],
      "type": "SCALAR"
    },
    {
      "bufferView": 8,
      "byteOffset": 352,
      "componentType": 5126,
      "count": 1,
      "max": [
        -0.07956083863973618,
        0.014990410767495632,
        -0.07167478650808334,
        0.9941362738609314
      ],
      "min": [
        -0.07956083863973618,
        0.014990410767495632,
        -0.07167478650808334,
        0.9941362738609314
      ],
      "type": "VEC4"
    },
    {
      "bufferView": 6,
      "byteOffset": 100,
      "componentType": 5126,
      "count": 1,
      "max": [
        0.0
      ],
      "min": [
        0.0
      ],
      "type": "SCALAR"
    },
    {
      "bufferView": 8,
      "byteOffset": 368,
      "componentType": 5126,
      "count": 1,
      "max": [
        0.5446492433547974,
        0.02503189817070961,
        0.8361567258834839,
        -0.059830330312252045
      ],
      "min": [
        0.5446492433547974,
        0.02503189817070961,
        0.8361567258834839,
        -0.059830330312252045
      ],
      "type": "VEC4"
    },
    {
      "bufferView": 6,
      "byteOffset": 104,
      "componentType": 5126,
      "count": 1,
      "max": [
        0.0
      ],
      "min": [
        0.0
      ],
      "type": "SCALAR"
    },
    {
      "bufferView": 8,
      "byteOffset": 384,
      "componentType": 5126,
      "count": 1,
      "max": [
        -0.2619973123073578,
        -0.08582288771867752,
        -0.24827134609222412,
        0.9286258220672607
      ],
      "min": [
        -0.2619973123073578,
        -0.08582288771867752,
        -0.24827134609222412,
        0.9286258220672607
      ],
      "type": "VEC4"
    },
    {
      "bufferView": 6,
      "byteOffset": 108,
      "componentType": 5126,
      "count": 1,
      "max": [
        0.0
      ],
      "min": [
        0.0
      ],
      "type": "SCALAR"
    },
    {
      "bufferView": 8,
      "byteOffset": 400,
      "componentType": 5126,
      "count": 1,
      "max": [
        -0.11938733607530594,
        0.8673385381698608,
        0.1746729016304016,
        0.45051655173301697
      ],
      "min": [
        -0.11938733607530594,
        0.8673385381698608,
        0.1746729016304016,
        0.45051655173301697
      ],
      "type": "VEC4"
    },
    {
      "bufferView": 6,
      "byteOffset": 112,
      "componentType": 5126,
      "count": 1,
      "max": [
        0.0
      ],
      "min": [
        0.0
      ],
      "type": "SCALAR"
    },
    {
      "bufferView": 8,
      "byteOffset": 416,
      "componentType": 5126,
      "count": 1,
      "max": [
        -0.05136357620358467,
        -0.11079231649637222,
        -0.15305092930793762,
        0.9806441068649292
      ],
      "min": [
        -0.05136357620358467,
        -0.11079231649637222,
        -0.15305092930793762,
        0.9806441068649292
      ],
      "type": "VEC4"
    },
    {
      "bufferView": 6,
      "byteOffset": 116,
      "componentType": 5126,
      "count": 1,
      "max": [
        0.0
      ],
      "min": [
        0.0
      ],
      "type": "SCALAR"
    },
    {
      "bufferView": 8,
      "byteOffset": 432,
      "componentType": 5126,
      "count": 1,
      "max": [
        -0.004420815035700798,
        -0.012847482226788998,
        0.014065167866647243,
        0.9998087882995605
      ],
      "min": [
        -0.004420815035700798,
        -0.012847482226788998,
        0.014065167866647243,
        0.9998087882995605
      ],
      "type": "VEC4"
    },
    {
      "bufferView": 6,
      "byteOffset": 120,
      "componentType": 5126,
      "count": 1,
      "max": [
        0.0
      ],
      "min": [
        0.0
      ],
      "type": "SCALAR"
    },
    {
      "bufferView": 8,
      "byteOffset": 448,
      "componentType": 5126,
      "count": 1,
      "max": [
        -0.08258859068155289,
        -0.4549802541732788,
        -0.0642518401145935,
        0.8843328356742859
      ],
      "min": [
        -0.08258859068155289,
        -0.4549802541732788,
        -0.0642518401145935,
        0.8843328356742859
      ],
      "type": "VEC4"
    },
    {
      "bufferView": 6,
      "byteOffset": 124,
      "componentType": 5126,
      "count": 1,
      "max": [
        0.0
      ],
      "min": [
        0.0
      ],
      "type": "SCALAR"
    },
    {
      "bufferView": 8,
      "byteOffset": 464,
      "componentType": 5126,
      "count": 1,
      "max": [
        -0.10415510833263397,
        -0.01123716775327921,
        -0.00113139976747334,
        0.9944963455200195
      ],
      "min": [
        -0.10415510833263397,
        -0.01123716775327921,
        -0.00113139976747334,
        0.9944963455200195
      ],
      "type": "VEC4"
    },
    {
      "bufferView": 6,
      "byteOffset": 128,
      "componentType": 5126,
      "count": 1,
      "max": [
        0.0
      ],
      "min": [
        0.0
      ],
      "type": "SCALAR"
    },
    {
      "bufferView": 8,
      "byteOffset": 480,
      "componentType": 5126,
      "count": 1,
      "max": [
        -0.08673465996980667,
        -0.46429699659347534,
        -0.03980148956179619,
        0.8805233240127563
      ],
      "min": [
        -0.08673465996980667,
        -0.46429699659347534,
        -0.03980148956179619,
        0.8805233240127563
      ],
      "type": "VEC4"
    },
    {
      "bufferView": 6,
      "byteOffset": 132,
      "componentType": 5126,
      "count": 1,
      "max": [
        0.0
      ],
      "min": [
        0.0
      ],
      "type": "SCALAR"
    },
    {
      "bufferView": 8,
      "byteOffset": 496,
      "componentType": 5126,
      "count": 1,
      "max": [
        -0.08183585852384567,
        -0.013170079328119755,
        -0.009995807893574238,
        0.9965083599090576
      ],
      "min": [
        -0.08183585852384567,
        -0.013170079328119755,
        -0.009995807893574238,
        0.9965083599090576
      ],
      "type": "VEC4"
    },
    {
      "bufferView": 6,
      "byteOffset": 136,
      "componentType": 5126,
      "count": 1,
      "max": [
        0.0
      ],
      "min": [
        0.0
      ],
      "type": "SCALAR"
    },
    {
      "bufferView": 8,
      "byteOffset": 512,
      "componentType": 5126,
      "count": 1,
      "max": [
        -0.07441828399896622,
        -0.4550638496875763,
        -0.05189995840191841,
        0.88582444190979
      ],
      "min": [
        -0.07441828399896622,
        -0.4550638496875763,
        -0.05189995840191841,
        0.88582444190979
      ],
      "type": "VEC4"
    },
    {
      "bufferView": 6,
      "byteOffset": 140,
      "componentType": 5126,
      "count": 1,
      "max": [
        0.0
      ],
      "min": [
        0.0
      ],
      "type": "SCALAR"
    },
    {
      "bufferView": 8,
      "byteOffset": 528,
      "componentType": 5126,
      "count": 1,
      "max": [
        -0.049066849052906036,
        -0.022176075726747513,
        -0.010391166433691978,
        0.9984950423240662
      ],
      "min": [
        -0.049066849052906036,
        -0.022176075726747513,
        -0.010391166433691978,
        0.9984950423240662
      ],
      "type": "VEC4"
    },
    {
      "bufferView": 6,
      "byteOffset": 144,
      "componentType": 5126,
      "count": 1,
      "max": [
        0.0
      ],
      "min": [
        0.0
      ],
      "type": "SCALAR"
    },
    {
      "bufferView": 8,
      "byteOffset": 544,
      "componentType": 5126,
      "count": 1,
      "max": [
        -0.04326668754220009,
        -0.4655330777168274,
        -0.018320508301258087,
        0.8837824463844299
      ],
      "min": [
        -0.04326668754220009,
        -0.4655330777168274,
        -0.018320508301258087,
        0.8837824463844299
      ],
      "type": "VEC4"
    },
    {
      "bufferView": 6,
      "byteOffset": 148,
      "componentType": 5126,
      "count": 1,
      "max": [
        0.0
      ],
      "min": [
        0.0
      ],
      "type": "SCALAR"
    },
    {
      "bufferView": 8,
      "byteOffset": 560,
      "componentType": 5126,
      "count": 1,
      "max": [
        -0.10863291472196579,
        -0.016219714656472206,
        0.003591171931475401,
        0.9939427971839905
      ],
      "min": [
        -0.10863291472196579,
        -0.016219714656472206,
        0.003591171931475401,
        0.9939427971839905
      ],
      "type": "VEC4"
    },
    {
      "bufferView": 6,
      "byteOffset": 152,
      "componentType": 5126,
      "count": 1,
      "max": [
        0.0
      ],
      "min": [
        0.0
      ],
      "type": "SCALAR"
    },
    {
      "bufferView": 8,
      "byteOffset": 576,
      "componentType": 5126,
      "count": 1,
      "max": [
        0.47611522674560547,
        -0.48855945467948914,
        -0.5096862316131592,
        0.5242624282836914
      ],
      "min": [
        0.47611522674560547,
        -0.48855945467948914,
        -0.5096862316131592,
        0.5242624282836914
      ],
      "type": "VEC4"
    },
    {
      "bufferView": 6,
      "byteOffset": 156,
      "componentType": 5126,
      "count": 1,
      "max": [
        0.0
      ],
      "min": [
        0.0
      ],
      "type": "SCALAR"
    },
    {
      "bufferView": 8,
      "byteOffset": 592,
      "componentType": 5126,
      "count": 1,
      "max": [
        0.01914248801767826,
        0.00704079307615757,
        -0.044046852737665176,
        0.9988212585449219
      ],
      "min": [
        0.01914248801767826,
        0.00704079307615757,
        -0.044046852737665176,
        0.9988212585449219
      ],
      "type": "VEC4"
    },
    {
      "bufferView": 6,
      "byteOffset": 160,
      "componentType": 5126,
      "count": 1,
      "max": [
        0.0
      ],
      "min": [
        0.0
      ],
      "type": "SCALAR"
    },
    {
      "bufferView": 8,
      "byteOffset": 608,
      "componentType": 5126,
      "count": 1,
      "max": [
        0.2998248040676117,
        -0.5350454449653625,
        0.1790831983089447,
        0.7692651748657227
      ],
      "min": [
        0.2998248040676117,
        -0.5350454449653625,
        0.1790831983089447,
        0.7692651748657227
      ],
      "type": "VEC4"
    },
    {
      "bufferView": 6,
      "byteOffset": 164,
      "componentType": 5126,
      "count": 1,
      "max": [
        0.0
      ],
      "min": [
        0.0
      ],
      "type": "SCALAR"
    },
    {
      "bufferView": 8,
      "byteOffset": 624,
      "componentType": 5126,
      "count": 1,
      "max": [
        0.3725243806838989,
        0.015320191159844398,
        0.03949812054634094,
        0.9270548820495605
      ],
      "min": [
        0.3725243806838989,
        0.015320191159844398,
        0.03949812054634094,
        0.9270548820495605
      ],
      "type": "VEC4"
    },
    {
      "bufferView": 6,
      "byteOffset": 168,
      "componentType": 5126,
      "count": 1,
      "max": [
        0.0
      ],
      "min": [
        0.0
      ],
      "type": "SCALAR"
    },
    {
      "bufferView": 8,
      "byteOffset": 640,
      "componentType": 5126,
      "count": 1,
      "max": [
        0.47777464985847473,
        0.4644855558872223,
        0.528963565826416,
        0.5255372524261475
      ],
      "min": [
        0.47777464985847473,
        0.4644855558872223,
        0.528963565826416,
        0.5255372524261475
      ],
      "type": "VEC4"
    },
    {
      "bufferView": 6,
      "byteOffset": 172,
      "componentType": 5126,
      "count": 1,
      "max": [
        0.0
      ],
      "min": [
        0.0
      ],
      "type": "SCALAR"
    },
    {
      "bufferView": 8,
      "byteOffset": 656,
      "componentType": 5126,
      "count": 1,
      "max": [
        0.016346106305718422,
        -0.027185672894120216,
        0.14804817736148834,
        0.9884697794914246
      ],
      "min": [
        0.016346106305718422,
        -0.027185672894120216,
        0.14804817736148834,
        0.9884697794914246
      ],
      "type": "VEC4"
    },
    {
      "bufferView": 6,
      "byteOffset": 176,
      "componentType": 5126,
      "count": 1,
      "max": [
        0.0
      ],
      "min": [
        0.0
      ],
      "type": "SCALAR"
    },
    {
      "bufferView": 8,
      "byteOffset": 672,
      "componentType": 5126,
      "count": 1,
      "max": [
        0.2998248040676117,
        0.5350454449653625,
        -0.1790831983089447,
        0.7692651748657227
      ],
      "min": [
        0.2998248040676117,
        0.5350454449653625,
        -0.1790831983089447,
        0.7692651748657227
      ],
      "type": "VEC4"
    },
    {
      "bufferView": 6,
      "byteOffset": 180,
      "componentType": 5126,
      "count": 1,
      "max": [
        0.0
      ],
      "min": [
        0.0
      ],
      "type": "SCALAR"
    },
    {
      "bufferView": 8,
      "byteOffset": 688,
      "componentType": 5126,
      "count": 1,
      "max": [
        0.3725243806838989,
        -0.015320191159844398,
        -0.03949812054634094,
        0.9270548820495605
      ],
      "min": [
        0.3725243806838989,
        -0.015320191159844398,
        -0.03949812054634094,
        0.9270548820495605
      ],
      "type": "VEC4"
    },
    {
      "bufferView": 6,
      "byteOffset": 184,
      "componentType": 5126,
      "count": 1,
      "max": [
        0.0
      ],
      "min": [
        0.0
      ],
      "type": "SCALAR"
    },
    {
      "bufferView": 8,
      "byteOffset": 704,
      "componentType": 5126,
      "count": 1,
      "max": [
        -0.0015249947318807244,
        -4.999982593290042e-06,
        0.0,
        0.9999988079071045
      ],
      "min": [
        -0.0015249947318807244,
        -4.999982593290042e-06,
        0.0,
        0.9999988079071045
      ],
      "type": "VEC4"
    },
    {
      "bufferView": 6,
      "byteOffset": 188,
      "componentType": 5126,
      "count": 1,
      "max": [
        0.0
      ],
      "min": [
        0.0
      ],
      "type": "SCALAR"
    },
    {
      "bufferView": 7,
      "byteOffset": 24,
      "componentType": 5126,
      "count": 1,
      "max": [
        -0.895014226436615,
        -0.26957717537879944,
        0.37146657705307007
      ],
      "min": [
        -0.895014226436615,
        -0.26957717537879944,
        0.37146657705307007
      ],
      "type": "VEC3"
    },
    {
      "bufferView": 6,
      "byteOffset": 192,
      "componentType": 5126,
      "count": 1,
      "max": [
        0.0
      ],
      "min": [
        0.0
      ],
      "type": "SCALAR"
    },
    {
      "bufferView": 8,
      "byteOffset": 720,
      "componentType": 5126,
      "count": 1,
      "max": [
        0.602116048336029,
        -0.35888439416885376,
        -0.6172020435333252,
        0.35738661885261536
      ],
      "min": [
        0.602116048336029,
        -0.35888439416885376,
        -0.6172020435333252,
        0.35738661885261536
      ],
      "type": "VEC4"
    },
    {
      "bufferView": 6,
      "byteOffset": 196,
      "componentType": 5126,
      "count": 1,
      "max": [
        0.0
      ],
      "min": [
        0.0
      ],
      "type": "SCALAR"
    },
    {
      "bufferView": 8,
      "byteOffset": 736,
      "componentType": 5126,
      "count": 1,
      "max": [
        -0.001587629085406661,
        -0.0016137080965563655,
        -0.025590674951672554,
        0.9996707439422607
      ],
      "min": [
        -0.001587629085406661,
        -0.0016137080965563655,
        -0.025590674951672554,
        0.9996707439422607
      ],
      "type": "VEC4"
    },
    {
      "bufferView": 6,
      "byteOffset": 200,
      "componentType": 5126,
      "count": 1,
      "max": [
        0.0
      ],
      "min": [
        0.0
      ],
      "type": "SCALAR"
    },
    {
      "bufferView": 8,
      "byteOffset": 752,
      "componentType": 5126,
      "count": 1,
      "max": [
        0.6281769275665283,
        0.4874393939971924,
        0.47484737634658813,
        0.3772597014904022
      ],
      "min": [
        0.6281769275665283,
        0.4874393939971924,
        0.47484737634658813,
        0.3772597014904022
      ],
      "type": "VEC4"
    },
    {
      "bufferView": 6,
      "byteOffset": 204,
      "componentType": 5126,
      "count": 1,
      "max": [
        0.0
      ],
      "min": [
        0.0
      ],
      "type": "SCALAR"
    },
    {
      "bufferView": 8,
      "byteOffset": 768,
      "componentType": 5126,
      "count": 1,
      "max": [
        0.24786488711833954,
        0.022002067416906357,
        0.36136576533317566,
        0.8986086249351501
      ],
      "min": [
        0.24786488711833954,
        0.022002067416906357,
        0.36136576533317566,
        0.8986086249351501
      ],
      "type": "VEC4"
    },
    {
      "bufferView": 6,
      "byteOffset": 208,
      "componentType": 5126,
      "count": 1,
      "max": [
        0.0
      ],
      "min": [
        0.0
      ],
      "type": "SCALAR"
    },
    {
      "bufferView": 8,
      "byteOffset": 784,
      "componentType": 5126,
      "count": 1,
      "max": [
        -0.45612454414367676,
        0.6563687920570374,
        0.3443816304206848,
        -0.49247506260871887
      ],
      "min": [
        -0.45612454414367676,
        0.6563687920570374,
        0.3443816304206848,
        -0.49247506260871887
      ],
      "type": "VEC4"
    },
    {
      "bufferView": 6,
      "byteOffset": 212,
      "componentType": 5126,
      "count": 1,
      "max": [
        0.0
      ],
      "min": [
        0.0
      ],
      "type": "SCALAR"
    },
    {
      "bufferView": 8,
      "byteOffset": 800,
      "componentType": 5126,
      "count": 1,
      "max": [
        0.15493243932724,
        -0.4613778591156006,
        -0.030147796496748924,
        0.8730502724647522
      ],
      "min": [
        0.15493243932724,
        -0.4613778591156006,
        -0.030147796496748924,
        0.8730502724647522
      ],
      "type": "VEC4"
    },
    {
      "bufferView": 6,
      "byteOffset": 216,
      "componentType": 5126,
      "count": 1,
      "max": [
        0.0
      ],
      "min": [
        0.0
      ],
      "type": "SCALAR"
    },
    {
      "bufferView": 8,
      "byteOffset": 816,
      "componentType": 5126,
      "count": 1,
      "max": [
        0.45612671971321106,
        0.6563706994056702,
        0.3443790674209595,
        0.4924723207950592
      ],
      "min": [
        0.45612671971321106,
        0.6563706994056702,
        0.3443790674209595,
        0.4924723207950592
      ],
      "type": "VEC4"
    },
    {
      "bufferView": 6,
      "byteOffset": 220,
      "componentType": 5126,
      "count": 1,
      "max": [
        0.0
      ],
      "min": [
        0.0
      ],
      "type": "SCALAR"
    },
    {
      "bufferView": 8,
      "byteOffset": 832,
      "componentType": 5126,
      "count": 1,
      "max": [
        -0.0041829803958535194,
        -0.0056510609574615955,
        0.15113385021686554,
        0.9884909987449646
      ],
      "min": [
        -0.0041829803958535194,
        -0.0056510609574615955,
        0.15113385021686554,
        0.9884909987449646
      ],
      "type": "VEC4"
    }
  ],
  "animations": [
    {
      "channels": [
        {
          "sampler": 0,
          "target": {
            "node": 5,
            "path": "rotation"
          }
        },
        {
          "sampler": 1,
          "target": {
            "node": 6,
            "path": "translation"
          }
        },
        {
          "sampler": 2,
          "target": {
            "node": 6,
            "path": "rotation"
          }
        },
        {
          "sampler": 3,
          "target": {
            "node": 7,
            "path": "rotation"
          }
        },
        {
          "sampler": 4,
          "target": {
            "node": 8,
            "path": "rotation"
          }
        },
        {
          "sampler": 5,
          "target": {
            "node": 9,
            "path": "rotation"
          }
        },
        {
          "sampler": 6,
          "target": {
            "node": 10,
            "path": "rotation"
          }
        },
        {
          "sampler": 7,
          "target": {
            "node": 11,
            "path": "rotation"
          }
        },
        {
          "sampler": 8,
          "target": {
            "node": 12,
            "path": "rotation"
          }
        },
        {
          "sampler": 9,
          "target": {
            "node": 13,
            "path": "rotation"
          }
        },
        {
          "sampler": 10,
          "target": {
            "node": 14,
            "path": "rotation"
          }
        },
        {
          "sampler": 11,
          "target": {
            "node": 15,
            "path": "rotation"
          }
        },
        {
          "sampler": 12,
          "target": {
            "node": 16,
            "path": "rotation"
          }
        },
        {
          "sampler": 13,
          "target": {
            "node": 17,
            "path": "rotation"
          }
        },
        {
          "sampler": 14,
          "target": {
            "node": 18,
            "path": "translation"
          }
        },
        {
          "sampler": 15,
          "target": {
            "node": 18,
            "path": "rotation"
          }
        },
        {
          "sampler": 16,
          "target": {
            "node": 19,
            "path": "rotation"
          }
        },
        {
          "sampler": 17,
          "target": {
            "node": 20,
            "path": "rotation"
          }
        },
        {
          "sampler": 18,
          "target": {
            "node": 21,
            "path": "rotation"
          }
        },
        {
          "sampler": 19,
          "target": {
            "node": 22,
            "path": "rotation"
          }
        },
        {
          "sampler": 20,
          "target": {
            "node": 23,
            "path": "rotation"
          }
        },
        {
          "sampler": 21,
          "target": {
            "node": 24,
            "path": "rotation"
          }
        },
        {
          "sampler": 22,
          "target": {
            "node": 25,
            "path": "rotation"
          }
        },
        {
          "sampler": 23,
          "target": {
            "node": 26,
            "path": "rotation"
          }
        },
        {
          "sampler": 24,
          "target": {
            "node": 27,
            "path": "rotation"
          }
        },
        {
          "sampler": 25,
          "target": {
            "node": 28,
            "path": "rotation"
          }
        },
        {
          "sampler": 26,
          "target": {
            "node": 29,
            "path": "rotation"
          }
        },
        {
          "sampler": 27,
          "target": {
            "node": 30,
            "path": "rotation"
          }
        },
        {
          "sampler": 28,
          "target": {
            "node": 31,
            "path": "rotation"
          }
        },
        {
          "sampler": 29,
          "target": {
            "node": 32,
            "path": "rotation"
          }
        },
        {
          "sampler": 30,
          "target": {
            "node": 33,
            "path": "rotation"
          }
        },
        {
          "sampler": 31,
          "target": {
            "node": 34,
            "path": "rotation"
          }
        },
        {
          "sampler": 32,
          "target": {
            "node": 35,
            "path": "rotation"
          }
        },
        {
          "sampler": 33,
          "target": {
            "node": 36,
            "path": "rotation"
          }
        },
        {
          "sampler": 34,
          "target": {
            "node": 37,
            "path": "rotation"
          }
        },
        {
          "sampler": 35,
          "target": {
            "node": 38,
            "path": "rotation"
          }
        },
        {
          "sampler": 36,
          "target": {
            "node": 39,
            "path": "rotation"
          }
        },
        {
          "sampler": 37,
          "target": {
            "node": 40,
            "path": "rotation"
          }
        },
        {
          "sampler": 38,
          "target": {
            "node": 41,
            "path": "rotation"
          }
        },
        {
          "sampler": 39,
          "target": {
            "node": 42,
            "path": "rotation"
          }
        },
        {
          "sampler": 40,
          "target": {
            "node": 43,
            "path": "rotation"
          }
        },
        {
          "sampler": 41,
          "target": {
            "node": 44,
            "path": "rotation"
          }
        },
        {
          "sampler": 42,
          "target": {
            "node": 45,
            "path": "rotation"
          }
        },
        {
          "sampler": 43,
          "target": {
            "node": 46,
            "path": "rotation"
          }
        },
        {
          "sampler": 44,
          "target": {
            "node": 47,
            "path": "rotation"
          }
        },
        {
          "sampler": 45,
          "target": {
            "node": 48,
            "path": "rotation"
          }
        },
        {
          "sampler": 46,
          "target": {
            "node": 49,
            "path": "rotation"
          }
        },
        {
          "sampler": 47,
          "target": {
            "node": 50,
            "path": "translation"
          }
        },
        {
          "sampler": 48,
          "target": {
            "node": 50,
            "path": "rotation"
          }
        },
        {
          "sampler": 49,
          "target": {
            "node": 51,
            "path": "rotation"
          }
        },
        {
          "sampler": 50,
          "target": {
            "node": 52,
            "path": "rotation"
          }
        },
        {
          "sampler": 51,
          "target": {
            "node": 53,
            "path": "rotation"
          }
        },
        {
          "sampler": 52,
          "target": {
            "node": 54,
            "path": "rotation"
          }
        },
        {
          "sampler": 53,
          "target": {
            "node": 55,
            "path": "rotation"
          }
        },
        {
          "sampler": 54,
          "target": {
            "node": 56,
            "path": "rotation"
          }
        },
        {
          "sampler": 55,
          "target": {
            "node": 57,
            "path": "rotation"
          }
        }
      ],
      "name": "ArmatureAction",
      "samplers": [
        {
          "input": 13,
          "interpolation": "LINEAR",
          "output": 14
        },
        {
          "input": 15,
          "interpolation": "LINEAR",
          "output": 16
        },
        {
          "input": 17,
          "interpolation": "LINEAR",
          "output": 18
        },
        {
          "input": 19,
          "interpolation": "LINEAR",
          "output": 20
        },
        {
          "input": 21,
          "interpolation": "LINEAR",
          "output": 22
        },
        {
          "input": 23,
          "interpolation": "LINEAR",
          "output": 24
        },
        {
          "input": 25,
          "interpolation": "LINEAR",
          "output": 26
        },
        {
          "input": 27,
          "interpolation": "LINEAR",
          "output": 28
        },
        {
          "input": 29,
          "interpolation": "LINEAR",
          "output": 30
        },
        {
          "input": 31,
          "interpolation": "LINEAR",
          "output": 32
        },
        {
          "input": 33,
          "interpolation": "LINEAR",
          "output": 34
        },
        {
          "input": 35,
          "interpolation": "LINEAR",
          "output": 36
        },
        {
          "input": 37,
          "interpolation": "LINEAR",
          "output": 38
        },
        {
          "input": 39,
          "interpolation": "LINEAR",
          "output": 40
        },
        {
          "input": 41,
          "interpolation": "LINEAR",
          "output": 42
        },
        {
          "input": 43,
          "interpolation": "LINEAR",
          "output": 44
        },
        {
          "input": 45,
          "interpolation": "LINEAR",
          "output": 46
        },
        {
          "input": 47,
          "interpolation": "LINEAR",
          "output": 48
        },
        {
          "input": 49,
          "interpolation": "LINEAR",
          "output": 50
        },
        {
          "input": 51,
          "interpolation": "LINEAR",
          "output": 52
        },
        {
          "input": 53,
          "interpolation": "LINEAR",
          "output": 54
        },
        {
          "input": 55,
          "interpolation": "LINEAR",
          "output": 56
        },
        {
          "input": 57,
          "interpolation": "LINEAR",
          "output": 58
        },
        {
          "input": 59,
          "interpolation": "LINEAR",
          "output": 60
        },
        {
          "input": 61,
          "interpolation": "LINEAR",
          "output": 62
        },
        {
          "input": 63,
          "interpolation": "LINEAR",
          "output": 64
        },
        {
          "input": 65,
          "interpolation": "LINEAR",
          "output": 66
        },
        {
          "input": 67,
          "interpolation": "LINEAR",
          "output": 68
        },
        {
          "input": 69,
          "interpolation": "LINEAR",
          "output": 70
        },
        {
          "input": 71,
          "interpolation": "LINEAR",
          "output": 72
        },
        {
          "input": 73,
          "interpolation": "LINEAR",
          "output": 74
        },
        {
          "input": 75,
          "interpolation": "LINEAR",
          "output": 76
        },
        {
          "input": 77,
          "interpolation": "LINEAR",
          "output": 78
        },
        {
          "input": 79,
          "interpolation": "LINEAR",
          "output": 80
        },
        {
          "input": 81,
          "interpolation": "LINEAR",
          "output": 82
        },
        {
          "input": 83,
          "interpolation": "LINEAR",
          "output": 84
        },
        {
          "input": 85,
          "interpolation": "LINEAR",
          "output": 86
        },
        {
          "input": 87,
          "interpolation": "LINEAR",
          "output": 88
        },
        {
          "input": 89,
          "interpolation": "LINEAR",
          "output": 90
        },
        {
          "input": 91,
          "interpolation": "LINEAR",
          "output": 92
        },
        {
          "input": 93,
          "interpolation": "LINEAR",
          "output": 94
        },
        {
          "input": 95,
          "interpolation": "LINEAR",
          "output": 96
        },
        {
          "input": 97,
          "interpolation": "LINEAR",
          "output": 98
        },
        {
          "input": 99,
          "interpolation": "LINEAR",
          "output": 100
        },
        {
          "input": 101,
          "interpolation": "LINEAR",
          "output": 102
        },
        {
          "input": 103,
          "interpolation": "LINEAR",
          "output": 104
        },
        {
          "input": 105,
          "interpolation": "LINEAR",
          "output": 106
        },
        {
          "input": 107,
          "interpolation": "LINEAR",
          "output": 108
        },
        {
          "input": 109,
          "interpolation": "LINEAR",
          "output": 110
        },
        {
          "input": 111,
          "interpolation": "LINEAR",
          "output": 112
        },
        {
          "input": 113,
          "interpolation": "LINEAR",
          "output": 114
        },
        {
          "input": 115,
          "interpolation": "LINEAR",
          "output": 116
        },
        {
          "input": 117,
          "interpolation": "LINEAR",
          "output": 118
        },
        {
          "input": 119,
          "interpolation": "LINEAR",
          "output": 120
        },
        {
          "input": 121,
          "interpolation": "LINEAR",
          "output": 122
        },
        {
          "input": 123,
          "interpolation": "LINEAR",
          "output": 124
        }
      ]
    }
  ],
  "asset": {
    "extras": {
      "author": "chained_tan (https://sketchfab.com/ch_fren)",
      "license": "CC-BY-4.0 (http://creativecommons.org/licenses/by/4.0/)",
      "source": "https://sketchfab.com/3d-models/lucina-fire-emblem-f8e74b4f06764c088f22fa10b180b2fd",
      "title": "Lucina (fire emblem)"
    },
    "generator": "Sketchfab-12.67.0",
    "version": "2.0"
  },
  "bufferViews": [
    {
      "buffer": 0,
      "byteLength": 23208,
      "byteStride": 8,
      "name": "shortBufferViews",
      "target": 34962
    },
    {
      "buffer": 0,
      "byteLength": 46944,
      "byteOffset": 23208,
      "name": "floatBufferViews",
      "target": 34963
    },
    {
      "buffer": 0,
      "byteLength": 23208,
      "byteOffset": 70152,
      "byteStride": 8,
      "name": "floatBufferViews",
      "target": 34962
    },
    {
      "buffer": 0,
      "byteLength": 69624,
      "byteOffset": 93360,
      "byteStride": 12,
      "name": "floatBufferViews",
      "target": 34962
    },
    {
      "buffer": 0,
      "byteLength": 46416,
      "byteOffset": 162984,
      "byteStride": 16,
      "name": "floatBufferViews",
      "target": 34962
    },
    {
      "buffer": 0,
      "byteLength": 3456,
      "byteOffset": 209400,
      "name": "floatBufferViews"
    },
    {
      "buffer": 0,
      "byteLength": 224,
      "byteOffset": 212856,
      "name": "floatBufferViews"
    },
    {
      "buffer": 0,
      "byteLength": 36,
      "byteOffset": 213080,
      "byteStride": 12,
      "name": "floatBufferViews"
    },
    {
      "buffer": 0,
      "byteLength": 848,
      "byteOffset": 213116,
      "byteStride": 16,
      "name": "floatBufferViews"
    }
  ],
  "buffers": [
    {
      "byteLength": 213964,
      "uri": "scene.bin"
    }
  ],
  "extensionsUsed": [
    "KHR_materials_unlit"
  ],
  "images": [
    {
      "uri": "textures/lucina_text_baseColor.png"
    }
  ],
  "materials": [
    {
      "alphaMode": "BLEND",
      "doubleSided": true,
      "extensions": {
        "KHR_materials_unlit": {}
      },
      "name": "lucina_text",
      "pbrMetallicRoughness": {
        "baseColorTexture": {
          "index": 0
        },
        "metallicFactor": 0.0
      }
    }
  ],
  "meshes": [
    {
      "name": "hair",
      "primitives": [
        {
          "attributes": {
            "JOINTS_0": 9,
            "NORMAL": 1,
            "POSITION": 0,
            "TEXCOORD_0": 2,
            "WEIGHTS_0": 10
          },
          "indices": 3,
          "material": 0,
          "mode": 4
        }
      ]
    },
    {
      "name": "body",
      "primitives": [
        {
          "attributes": {
            "JOINTS_0": 11,
            "NORMAL": 5,
            "POSITION": 4,
            "TEXCOORD_0": 6,
            "WEIGHTS_0": 12
          },
          "indices": 7,
          "material": 0,
          "mode": 4
        }
      ]
    }
  ],
  "nodes": [
    {
      "children": [
        1
      ],
      "matrix": [
        1.4457827806472778,
        0.0,
        0.0,
        0.0,
        0.0,
        3.21028266336238e-16,
        -1.4457827806472778,
        0.0,
        0.0,
        1.4457827806472778,
        3.21028266336238e-16,
        0.0,
        0.0,
        0.0,
        0.0,
        1.0
      ],
      "name": "Sketchfab_model"
    },
    {
      "children": [
        2
      ],
      "name": "Root"
    },
    {
      "children": [
        3
      ],
      "matrix": [
        0.92023,
        -0.3913700000000001,
        0.0,
        0.0,
        0.3913700000000001,
        0.92023,
        0.0,
        0.0,
        0.0,
        0.0,
        1.0,
        0.0,
        0.0,
        0.0,
        0.0,
        1.0
      ],
      "name": "lucina"
    },
    {
      "children": [
        4,
        59,
        61,
        58,
        60
      ],
      "matrix": [
        0.18612,
        0.07916000000000002,
        0.0,
        0.0,
        -0.07916000000000002,
        0.18612,
        0.0,
        0.0,
        0.0,
        0.0,
        0.20225,
        0.0,
        0.0,
        -0.0,
        -0.0,
        1.0
      ],
      "name": "Armature"
    },
    {
      "children": [
        5
      ],
      "name": "Armature_rootJoint"
    },
    {
      "children": [
        6
      ],
      "name": "jotoroot_Armature",
      "rotation": [
        0.7071068286895752,
        0.0,
        0.0,
        0.7071068286895752
      ],
      "scale": [
        1.0,
        1.0,
        1.0
      ],
      "translation": [
        0.0,
        -0.0026000000070780516,
        0.028310000896453857
      ]
    },
    {
      "children": [
        7,
        41,
        45,
        49
      ],
      "name": "Bone_Armature",
      "rotation": [
        0.7081843018531799,
        3.5355215004528873e-06,
        3.5355215004528873e-06,
        0.706027626991272
      ],
      "scale": [
        1.0,
        1.0000046491622925,
        1.0000046491622925
      ],
      "translation": [
        0.0,
        4.684720039367676,
        -0.8217300176620483
      ]
    },
    {
      "children": [
        8
      ],
      "name": "hip_Armature",
      "rotation": [
        -0.6590979099273682,
        -3.5278851555631263e-06,
        -3.5278851555631263e-06,
        0.7520571351051331
      ],
      "scale": [
        0.9999997615814209,
        1.0000014305114746,
        1.0000016689300537
      ],
      "translation": [
        0.0,
        0.7353900074958801,
        0.43222999572753906
      ]
    },
    {
      "children": [
        9
      ],
      "name": "belly_Armature",
      "rotation": [
        0.02851170115172863,
        7.568238743260736e-06,
        0.0008078141254372895,
        0.9995931386947632
      ],
      "scale": [
        1.0000042915344238,
        0.9999940395355225,
        0.9999958872795105
      ],
      "translation": [
        0.0,
        0.4384399950504303,
        0.0
      ]
    },
    {
      "children": [
        10,
        15,
        28
      ],
      "name": "torso_Armature",
      "rotation": [
        -0.2390732616186142,
        8.791391155682504e-05,
        -0.001490397029556334,
        0.9710004925727844
      ],
      "scale": [
        1.000006914138794,
        0.9999952912330627,
        1.0000005960464478
      ],
      "translation": [
        0.0,
        0.7552199959754944,
        0.0
      ]
    },
    {
      "children": [
        11
      ],
      "name": "neck_Armature",
      "rotation": [
        0.22202078998088837,
        6.37151169939898e-05,
        0.0007004350190982223,
        0.9750416874885559
      ],
      "scale": [
        1.0000011920928955,
        0.9999951124191284,
        1.0000090599060059
      ],
      "translation": [
        0.0,
        0.8743699789047241,
        0.0
      ]
    },
    {
      "children": [
        12
      ],
      "name": "head_Armature",
      "rotation": [
        0.38609424233436584,
        0.0,
        0.0,
        0.9224593639373779
      ],
      "scale": [
        1.0,
        0.9999964833259583,
        0.9999964833259583
      ],
      "translation": [
        0.0,
        0.497189998626709,
        0.0
      ]
    },
    {
      "children": [
        13
      ],
      "name": "hair_Armature",
      "rotation": [
        -0.804133415222168,
        0.0,
        0.0,
        0.5944490432739258
      ],
      "scale": [
        1.0,
        0.9999973773956299,
        0.9999973773956299
      ],
      "translation": [
        0.0,
        0.599590003490448,
        0.0
      ]
    },
    {
      "children": [
        14
      ],
      "name": "hair.002_Armature",
      "rotation": [
        -0.8348862528800964,
        0.0,
        0.0,
        0.5504224896430969
      ],
      "scale": [
        1.0,
        0.9999995827674866,
        0.9999995827674866
      ],
      "translation": [
        0.0,
        0.7579600214958191,
        -0.4278300106525421
      ]
    },
    {
      "name": "hair.003_Armature",
      "rotation": [
        0.12284521013498306,
        0.0,
        0.0,
        0.9924258589744568
      ],
      "scale": [
        1.0,
        1.0000019073486328,
        1.0000019073486328
      ],
      "translation": [
        0.0,
        1.1655199527740479,
        0.0
      ]
    },
    {
      "children": [
        16
      ],
      "name": "arm.R_Armature",
      "rotation": [
        -0.5011014342308044,
        0.35903626680374146,
        0.6121800541877747,
        0.495202898979187
      ],
      "scale": [
        1.0000022649765015,
        0.9999915957450867,
        0.9999985098838806
      ],
      "translation": [
        -0.5463500022888184,
        0.7046899795532227,
        -0.044319998472929
      ]
    },
    {
      "children": [
        17
      ],
      "name": "arm2.R_Armature",
      "rotation": [
        -0.014252470806241035,
        0.21844717860221863,
        -0.024960773065686226,
        0.9754253625869751
      ],
      "scale": [
        1.0000067949295044,
        1.000001072883606,
        1.0000044107437134
      ],
      "translation": [
        0.0,
        1.062940001487732,
        0.0
      ]
    },
    {
      "children": [
        18,
        20,
        22,
        24,
        26
      ],
      "name": "hand.R_Armature",
      "rotation": [
        -0.0236985944211483,
        -0.6493172645568848,
        0.017386682331562042,
        0.7599494457244873
      ],
      "scale": [
        0.999995768070221,
        0.9999992251396179,
        0.9999995827674866
      ],
      "translation": [
        0.0,
        1.1419700384140015,
        0.0
      ]
    },
    {
      "children": [
        19
      ],
      "name": "hand.R.006_Armature",
      "rotation": [
        0.1430012732744217,
        0.33002495765686035,
        0.22611376643180847,
        0.9052662253379822
      ],
      "scale": [
        0.9999949336051941,
        1.0000070333480835,
        1.000000238418579
      ],
      "translation": [
        -0.13755999505519867,
        0.2595199942588806,
        0.16012999415397644
      ]
    },
    {
      "name": "hand.R.007_Armature",
      "rotation": [
        -0.004420815035700798,
        0.012847482226788998,
        -0.014065167866647243,
        0.9998087882995605
      ],
      "scale": [
        0.9999927878379822,
        1.000005841255188,
        1.000001072883606
      ],
      "translation": [
        0.0,
        0.19117000699043274,
        0.0
      ]
    },
    {
      "children": [
        21
      ],
      "name": "hand.R.008_Armature",
      "rotation": [
        -0.008359260857105255,
        0.4421212673187256,
        0.019172148779034615,
        0.896711528301239
      ],
      "scale": [
        0.9999988079071045,
        0.9999916553497314,
        1.000003695487976
      ],
      "translation": [
        -0.029789999127388,
        0.4390999972820282,
        0.16200000047683716
      ]
    },
    {
      "name": "hand.R.009_Armature",
      "rotation": [
        -0.017811184749007225,
        -0.0060187638737261295,
        -0.007684092037379742,
        0.9997937083244324
      ],
      "scale": [
        1.0000004768371582,
        1.0000038146972656,
        0.999995768070221
      ],
      "translation": [
        0.0,
        0.21268999576568604,
        0.0
      ]
    },
    {
      "children": [
        23
      ],
      "name": "hand.R.010_Armature",
      "rotation": [
        -0.011596295982599258,
        0.4529227912425995,
        -0.004529612138867378,
        0.8914628028869629
      ],
      "scale": [
        0.9999976754188538,
        1.0000009536743164,
        0.9999948143959045
      ],
      "translation": [
        0.050620000809431076,
        0.43873000144958496,
        0.07962000370025635
      ]
    },
    {
      "name": "hand.R.011_Armature",
      "rotation": [
        0.005347635596990585,
        -0.001492535462602973,
        0.004392608534544706,
        0.9999749660491943
      ],
      "scale": [
        1.0000048875808716,
        0.999995231628418,
        1.0000004768371582
      ],
      "translation": [
        0.0,
        0.2094999998807907,
        0.0
      ]
    },
    {
      "children": [
        25
      ],
      "name": "hand.R.012_Armature",
      "rotation": [
        5.030968168284744e-05,
        0.4421699047088623,
        0.0068985465914011,
        0.8969047665596008
      ],
      "scale": [
        1.0000044107437134,
        0.9999950528144836,
        0.9999991655349731
      ],
      "translation": [
        0.11866000294685364,
        0.4409799873828888,
        -0.006219999864697456
      ]
    },
    {
      "name": "hand.R.013_Armature",
      "rotation": [
        0.037584856152534485,
        0.004600814543664455,
        0.0039403317496180534,
        0.9992750883102417
      ],
      "scale": [
        1.000003695487976,
        0.9999952912330627,
        0.9999982714653015
      ],
      "translation": [
        0.0,
        0.20656999945640564,
        0.0
      ]
    },
    {
      "children": [
        27
      ],
      "name": "hand.R.014_Armature",
      "rotation": [
        0.03228751942515373,
        0.45191690325737,
        -0.025411324575543404,
        0.89111328125
      ],
      "scale": [
        1.0000016689300537,
        0.9999939799308777,
        1.000004768371582
      ],
      "translation": [
        0.18528999388217926,
        0.4345400035381317,
        -0.08929000049829483
      ]
    },
    {
      "name": "hand.R.015_Armature",
      "rotation": [
        -0.02141563594341278,
        0.002080553909763694,
        -0.00795708503574133,
        0.9997368454933167
      ],
      "scale": [
        0.9999955296516418,
        1.0000051259994507,
        0.9999945163726807
      ],
      "translation": [
        0.0,
        0.15625,
        0.0
      ]
    },
    {
      "children": [
        29
      ],
      "name": "arm.L_Armature",
      "rotation": [
        0.5004857778549194,
        0.3598293364048004,
        0.6115820407867432,
        -0.4959881603717804
      ],
      "scale": [
        1.0000050067901611,
        0.9999991059303284,
        0.9999932050704956
      ],
      "translation": [
        0.5468299984931946,
        0.7062100172042847,
        -0.044119998812675476
      ]
    },
    {
      "children": [
        30
      ],
      "name": "arm2.L_Armature",
      "rotation": [
        -0.014252470806241035,
        -0.21844717860221863,
        0.024960773065686226,
        0.9754253625869751
      ],
      "scale": [
        1.0000067949295044,
        1.000001072883606,
        1.0000044107437134
      ],
      "translation": [
        0.0,
        1.062940001487732,
        0.0
      ]
    },
    {
      "children": [
        31,
        33,
        35,
        37,
        39
      ],
      "name": "hand.L_Armature",
      "rotation": [
        -0.0236985944211483,
        0.6493172645568848,
        -0.017386682331562042,
        0.7599494457244873
      ],
      "scale": [
        0.999995768070221,
        0.9999992251396179,
        0.9999995827674866
      ],
      "translation": [
        0.0,
        1.1419700384140015,
        0.0
      ]
    },
    {
      "children": [
        32
      ],
      "name": "hand.L.006_Armature",
      "rotation": [
        0.1430012732744217,
        -0.33002495765686035,
        -0.22611376643180847,
        0.9052662253379822
      ],
      "scale": [
        0.9999949336051941,
        1.0000070333480835,
        1.000000238418579
      ],
      "translation": [
        0.13755999505519867,
        0.2595199942588806,
        0.16012999415397644
      ]
    },
    {
      "name": "hand.L.007_Armature",
      "rotation": [
        -0.004420815035700798,
        -0.012847482226788998,
        0.014065167866647243,
        0.9998087882995605
      ],
      "scale": [
        0.9999927878379822,
        1.000005841255188,
        1.000001072883606
      ],
      "translation": [
        0.0,
        0.19117000699043274,
        0.0
      ]
    },
    {
      "children": [
        34
      ],
      "name": "hand.L.008_Armature",
      "rotation": [
        -0.008359218947589397,
        -0.4421212673187256,
        -0.019172053784132004,
        0.896711528301239
      ],
      "scale": [
        0.9999956488609314,
        1.0000079870224,
        1.0000004768371582
      ],
      "translation": [
        0.029789999127388,
        0.4390999972820282,
        0.16200000047683716
      ]
    },
    {
      "name": "hand.L.009_Armature",
      "rotation": [
        -0.017811184749007225,
        0.0060187638737261295,
        0.007684092037379742,
        0.9997937083244324
      ],
      "scale": [
        1.0000004768371582,
        1.0000038146972656,
        0.999995768070221
      ],
      "translation": [
        0.0,
        0.21268999576568604,
        0.0
      ]
    },
    {
      "children": [
        36
      ],
      "name": "hand.L.010_Armature",
      "rotation": [
        -0.011596295982599258,
        -0.4529227912425995,
        0.004529612138867378,
        0.8914628028869629
      ],
      "scale": [
        0.9999976754188538,
        1.0000009536743164,
        0.9999948143959045
      ],
      "translation": [
        -0.050620000809431076,
        0.43873000144958496,
        0.07962000370025635
      ]
    },
    {
      "name": "hand.L.011_Armature",
      "rotation": [
        0.005347635596990585,
        0.001492535462602973,
        -0.004392608534544706,
        0.9999749660491943
      ],
      "scale": [
        1.0000048875808716,
        0.999995231628418,
        1.0000004768371582
      ],
      "translation": [
        0.0,
        0.2094999998807907,
        0.0
      ]
    },
    {
      "children": [
        38
      ],
      "name": "hand.L.012_Armature",
      "rotation": [
        5.030968168284744e-05,
        -0.4421699047088623,
        -0.0068985465914011,
        0.8969047665596008
      ],
      "scale": [
        1.0000044107437134,
        0.9999950528144836,
        0.9999991655349731
      ],
      "translation": [
        -0.11866000294685364,
        0.4409799873828888,
        -0.006219999864697456
      ]
    },
    {
      "name": "hand.L.013_Armature",
      "rotation": [
        0.037584856152534485,
        -0.004600814543664455,
        -0.0039403317496180534,
        0.9992750883102417
      ],
      "scale": [
        1.000003695487976,
        0.9999952912330627,
        0.9999982714653015
      ],
      "translation": [
        0.0,
        0.20656999945640564,
        0.0
      ]
    },
    {
      "children": [
        40
      ],
      "name": "hand.L.014_Armature",
      "rotation": [
        0.03228764608502388,
        -0.45191559195518494,
        0.02541145496070385,
        0.8911139369010925
      ],
      "scale": [
        1.0000042915344238,
        0.9999948740005493,
        0.9999931454658508
      ],
      "translation": [
        -0.18528999388217926,
        0.4345400035381317,
        -0.08929000049829483
      ]
    },
    {
      "name": "hand.L.015_Armature",
      "rotation": [
        -0.02141563594341278,
        -0.002080553909763694,
        0.00795708503574133,
        0.9997368454933167
      ],
      "scale": [
        0.9999955296516418,
        1.0000051259994507,
        0.9999945163726807
      ],
      "translation": [
        0.0,
        0.15625,
        0.0
      ]
    },
    {
      "children": [
        42
      ],
      "name": "leg.R_Armature",
      "rotation": [
        0.48095953464508057,
        -0.49738043546676636,
        -0.5023772716522217,
        0.5185630917549133
      ],
      "scale": [
        1.0000016689300537,
        0.9999995827674866,
        0.9999967813491821
      ],
      "translation": [
        -0.4596799910068512,
        0.7835100293159485,
        0.2226099967956543
      ]
    },
    {
      "children": [
        43
      ],
      "name": "knee.R_Armature",
      "rotation": [
        0.01914248801767826,
        0.00704079307615757,
        -0.044046852737665176,
        0.9988212585449219
      ],
      "scale": [
        0.9999988079071045,
        1.0000033378601074,
        1.000002384185791
      ],
      "translation": [
        0.0,
        1.8066500425338745,
        0.0
      ]
    },
    {
      "children": [
        44
      ],
      "name": "foot.R_Armature",
      "rotation": [
        0.2675052881240845,
        -0.6589962840080261,
        0.21113836765289307,
        0.6705114245414734
      ],
      "scale": [
        1.0000005960464478,
        0.9999958872795105,
        1.000002384185791
      ],
      "translation": [
        0.0,
        2.1417999267578125,
        0.0
      ]
    },
    {
      "name": "base.R_Armature",
      "rotation": [
        0.3725244104862213,
        0.015320193022489548,
        0.03949812427163124,
        0.9270550012588501
      ],
      "scale": [
        1.0000022649765015,
        0.9999985098838806,
        0.9999953508377075
      ],
      "translation": [
        0.0,
        0.5024600028991699,
        0.0
      ]
    },
    {
      "children": [
        46
      ],
      "name": "leg.L_Armature",
      "rotation": [
        0.4809569716453552,
        0.4973779022693634,
        0.5023797154426575,
        0.5185655355453491
      ],
      "scale": [
        1.0000016689300537,
        1.0,
        0.9999971985816956
      ],
      "translation": [
        0.4596799910068512,
        0.7835100293159485,
        0.22261999547481537
      ]
    },
    {
      "children": [
        47
      ],
      "name": "knee.L_Armature",
      "rotation": [
        0.01914248801767826,
        -0.00704079307615757,
        0.044046852737665176,
        0.9988212585449219
      ],
      "scale": [
        0.9999988079071045,
        1.0000033378601074,
        1.000002384185791
      ],
      "translation": [
        0.0,
        1.8066500425338745,
        0.0
      ]
    },
    {
      "children": [
        48
      ],
      "name": "foot.L_Armature",
      "rotation": [
        0.2675052881240845,
        0.6589962840080261,
        -0.21113836765289307,
        0.6705114245414734
      ],
      "scale": [
        1.0000005960464478,
        0.9999958872795105,
        1.000002384185791
      ],
      "translation": [
        0.0,
        2.1417999267578125,
        0.0
      ]
    },
    {
      "name": "base.L_Armature",
      "rotation": [
        0.3725244104862213,
        -0.015320193022489548,
        -0.03949812427163124,
        0.9270550012588501
      ],
      "scale": [
        1.0000022649765015,
        0.9999985098838806,
        0.9999953508377075
      ],
      "translation": [
        0.0,
        0.5024600028991699,
        0.0
      ]
    },
    {
      "children": [
        50,
        52,
        54,
        56
      ],
      "name": "skirt_Armature",
      "rotation": [
        -0.001524994964711368,
        -4.999983048037393e-06,
        0.0,
        0.999998927116394
      ],
      "scale": [
        1.0,
        1.0000046491622925,
        1.0000046491622925
      ],
      "translation": [
        0.0,
        0.7929099798202515,
        0.0
      ]
    },
    {
      "children": [
        51
      ],
      "name": "skirt_L.001_Armature",
      "rotation": [
        0.648034930229187,
        -0.46355244517326355,
        -0.48932120203971863,
        0.3545907735824585
      ],
      "scale": [
        0.9999951124191284,
        1.0000039339065552,
        1.0000032186508179
      ],
      "translation": [
        -0.3285599946975708,
        -0.5841900110244751,
        0.20423999428749084
      ]
    },
    {
      "name": "skirt_L.002_Armature",
      "rotation": [
        -0.0839652568101883,
        -0.025550879538059235,
        0.05887709930539131,
        0.9943995475769043
      ],
      "scale": [
        0.9999986886978149,
        1.000005841255188,
        0.9999935030937195
      ],
      "translation": [
        0.0,
        1.4342999458312988,
        0.0
      ]
    },
    {
      "children": [
        53
      ],
      "name": "skirt_R.001_Armature",
      "rotation": [
        0.6480377912521362,
        0.4635546803474426,
        0.48931795358657837,
        0.3545870780944824
      ],
      "scale": [
        0.9999963641166687,
        0.999997615814209,
        0.9999948143959045
      ],
      "translation": [
        0.32857000827789307,
        -0.5841900110244751,
        0.20422999560832977
      ]
    },
    {
      "name": "skirt_R.002_Armature",
      "rotation": [
        -0.0839652568101883,
        0.025550879538059235,
        -0.05887709930539131,
        0.9943995475769043
      ],
      "scale": [
        0.9999986886978149,
        1.000005841255188,
        0.9999935030937195
      ],
      "translation": [
        0.0,
        1.4342999458312988,
        0.0
      ]
    },
    {
      "children": [
        55
      ],
      "name": "skirt_L.003_Armature",
      "rotation": [
        -0.45612454414367676,
        0.6563687920570374,
        0.3443816304206848,
        -0.49247506260871887
      ],
      "scale": [
        1.0000015497207642,
        0.999993085861206,
        0.9999991059303284
      ],
      "translation": [
        -0.5033400058746338,
        0.5143100023269653,
        0.20423999428749084
      ]
    },
    {
      "name": "skirt_L.004_Armature",
      "rotation": [
        -0.09062740951776505,
        0.021936869248747826,
        -0.12531065940856934,
        0.9877260327339172
      ],
      "scale": [
        0.999995768070221,
        1.0000032186508179,
        1.0000001192092896
      ],
      "translation": [
        0.0,
        1.4042199850082397,
        0.0
      ]
    },
    {
      "children": [
        57
      ],
      "name": "skirt_R.003_Armature",
      "rotation": [
        0.45612677931785583,
        0.6563707590103149,
        0.34437909722328186,
        0.492472380399704
      ],
      "scale": [
        1.000002384185791,
        0.999995768070221,
        1.0000009536743164
      ],
      "translation": [
        0.5033400058746338,
        0.5143100023269653,
        0.20422999560832977
      ]
    },
    {
      "name": "skirt_R.004_Armature",
      "rotation": [
        -0.09062740951776505,
        -0.021936869248747826,
        0.12531065940856934,
        0.9877260327339172
      ],
      "scale": [
        0.999995768070221,
        1.0000032186508179,
        1.0000001192092896
      ],
      "translation": [
        0.0,
        1.4042199850082397,
        0.0
      ]
    },
    {
      "matrix": [
        0.7054900000000001,
        0.0,
        0.0,
        0.0,
        0.0,
        0.6579800000000001,
        0.0,
        0.0,
        0.0,
        0.0,
        0.7054900000000001,
        0.0,
        -0.0,
        0.10054,
        7.493040000000001,
        1.0
      ],
      "name": "hair"
    },
    {
      "mesh": 0,
      "name": "hair_0",
      "skin": 0
    },
    {
      "matrix": [
        0.27164,
        0.0,
        0.0,
        0.0,
        0.0,
        0.27164,
        0.0,
        0.0,
        0.0,
        0.0,
        0.27164,
        0.0,
        -0.0,
        -0.6052700000000001,
        0.007620000000000002,
        1.0
      ],
      "name": "body"
    },
    {
      "mesh": 1,
      "name": "body_0",
      "skin": 0
    }
  ],
  "samplers": [
    {
      "magFilter": 9728,
      "minFilter": 9728,
      "wrapS": 10497,
      "wrapT": 10497
    }
  ],
  "scene": 0,
  "scenes": [
    {
      "name": "Sketchfab_Scene",
      "nodes": [
        0
      ]
    }
  ],
  "skins": [
    {
      "inverseBindMatrices": 8,
      "joints": [
        4,
        5,
        6,
        7,
        8,
        9,
        10,
        11,
        12,
        13,
        14,
        15,
        16,
        17,
        18,
        19,
        20,
        21,
        22,
        23,
        24,
        25,
        26,
        27,
        28,
        29,
        30,
        31,
        32,
        33,
        34,
        35,
        36,
        37,
        38,
        39,
        40,
        41,
        42,
        43,
        44,
        45,
        46,
        47,
        48,
        49,
        50,
        51,
        52,
        53,
        54,
        55,
        56,
        57
      ],
      "skeleton": 4
    }
  ],
  "textures": [
    {
      "sampler": 0,
      "source": 0
    }
  ]
}
