{
  "accessors": [
    {
      "bufferView": 3,
      "componentType": 5126,
      "count": 23586,
      "max": [
        0.49864962697029114,
        1.5427042245864868,
        0.16019809246063232
      ],
      "min": [
        -0.8467447757720947,
        0.00520585710182786,
        -0.20227402448654175
      ],
      "type": "VEC3"
    },
    {
      "bufferView": 3,
      "byteOffset": 283032,
      "componentType": 5126,
      "count": 23586,
      "max": [
        1.0,
        1.0,
        1.0
      ],
      "min": [
        -1.0,
        -0.9999908804893494,
        -1.0
      ],
      "type": "VEC3"
    },
    {
      "bufferView": 4,
      "componentType": 5126,
      "count": 23586,
      "max": [
        1.0,
        0.9999998807907104,
        0.9999873042106628,
        1.0
      ],
      "min": [
        -1.0,
        -0.9999997615814209,
        -0.9999996423721313,
        -1.0
      ],
      "type": "VEC4"
    },
    {
      "bufferView": 2,
      "componentType": 5126,
      "count": 23586,
      "max": [
        0.998046875,
        0.9983129501342773
      ],
      "min": [
        0.00130462646484375,
        0.0062112957239151
      ],
      "type": "VEC2"
    },
    {
      "bufferView": 2,
      "byteOffset": 188688,
      "componentType": 5126,
      "count": 23586,
      "max": [
        0.9925802946090698,
        0.9932870268821716
      ],
      "min": [
        -1.0423469543457031,
        -0.7529414892196655
      ],
      "type": "VEC2"
    },
    {
      "bufferView": 2,
      "byteOffset": 377376,
      "componentType": 5126,
      "count": 23586,
      "max": [
        0.0,
        0.0
      ],
      "min": [
        0.0,
        0.0
      ],
      "type": "VEC2"
    },
    {
      "bufferView": 1,
      "componentType": 5125,
      "count": 72006,
      "type": "SCALAR"
    },
    {
      "bufferView": 3,
      "byteOffset": 566064,
      "componentType": 5126,
      "count": 2713,
      "max": [
        3.489926815032959,
        -1.5074305534362793,
        0.5968168377876282
      ],
      "min": [
        -2.120604991912842,
        -6.311188697814941,
        -0.4809713065624237
      ],
      "type": "VEC3"
    },
    {
      "bufferView": 3,
      "byteOffset": 598620,
      "componentType": 5126,
      "count": 2713,
      "max": [
        0.9999261498451233,
        0.999116063117981,
        0.9998085498809814
      ],
      "min": [
        -0.9998594522476196,
        -0.9947398900985718,
        -0.9999944567680359
      ],
      "type": "VEC3"
    },
    {
      "bufferView": 4,
      "byteOffset": 377376,
      "componentType": 5126,
      "count": 2713,
      "max": [
        0.9982861876487732,
        0.9988868236541748,
        0.9973408579826355,
        1.0
      ],
      "min": [
        -1.0,
        -0.998873770236969,
        -0.9990874528884888,
        1.0
      ],
      "type": "VEC4"
    },
    {
      "bufferView": 2,
      "byteOffset": 566064,
      "componentType": 5126,
      "count": 2713,
      "max": [
        0.9976515173912048,
        0.9661875367164612
      ],
      "min": [
        0.0015955835115164518,
        0.0015955835115164518
      ],
      "type": "VEC2"
    },
    {
      "bufferView": 1,
      "byteOffset": 288024,
      "componentType": 5125,
      "count": 13347,
      "type": "SCALAR"
    },
    {
      "bufferView": 3,
      "byteOffset": 631176,
      "componentType": 5126,
      "count": 4160,
      "max": [
        3.8522541522979736,
        -19.83582878112793,
        1.5280522108078003
      ],
      "min": [
        0.7248197793960571,
        -24.22933006286621,
        -2.0027053356170654
      ],
      "type": "VEC3"
    },
    {
      "bufferView": 3,
      "byteOffset": 681096,
      "componentType": 5126,
      "count": 4160,
      "max": [
        1.0,
        0.9999952912330627,
        0.9997957944869995
      ],
      "min": [
        -1.0,
        -0.9999582171440125,
        -0.9999969005584717
      ],
      "type": "VEC3"
    },
    {
      "bufferView": 4,
      "byteOffset": 420784,
      "componentType": 5126,
      "count": 4160,
      "max": [
        0.9966953992843628,
        0.9997941851615906,
        0.9999170899391174,
        1.0
      ],
      "min": [
        -1.0,
        -0.9988735318183899,
        -0.9999924898147583,
        -1.0
      ],
      "type": "VEC4"
    },
    {
      "bufferView": 2,
      "byteOffset": 587768,
      "componentType": 5126,
      "count": 4160,
      "max": [
        0.9815433025360107,
        0.9949491024017334
      ],
      "min": [
        0.007409095764160156,
        0.005103245377540588
      ],
      "type": "VEC2"
    },
    {
      "bufferView": 1,
      "byteOffset": 341412,
      "componentType": 5125,
      "count": 14388,
      "type": "SCALAR"
    },
    {
      "bufferView": 5,
      "componentType": 5126,
      "count": 66,
      "max": [
        283.63848876953125,
        276.14483642578125,
        229.9239501953125,
        0.0,
        141.8076629638672,
        283.63848876953125,
        283.20440673828125,
        0.0,
        282.8858337402344,
        282.28643798828125,
        283.6384582519531,
        0.0,
        117.50057220458984,
        301.7215576171875,
        428.8336181640625,
        1.0
      ],
      "min": [
        -282.71044921875,
        -276.1448059082031,
        -232.07330322265625,
        0.0,
        -148.6201629638672,
        -282.4131164550781,
        -275.4078063964844,
        0.0,
        -282.8764343261719,
        -74.22185516357422,
        -57.171173095703125,
        0.0,
        -102.42692565917969,
        -448.0770263671875,
        -18.25806999206543,
        1.0
      ],
      "type": "MAT4"
    },
    {
      "bufferView": 0,
      "componentType": 5123,
      "count": 23586,
      "type": "VEC4"
    },
    {
      "bufferView": 4,
      "byteOffset": 487344,
      "componentType": 5126,
      "count": 23586,
      "max": [
        1.0,
        0.4996865391731262,
        0.1889933943748474,
        0.0
      ],
      "min": [
        0.47124189138412476,
        0.0,
        0.0,
        0.0
      ],
      "type": "VEC4"
    },
    {
      "bufferView": 0,
      "byteOffset": 188688,
      "componentType": 5123,
      "count": 2713,
      "type": "VEC4"
    },
    {
      "bufferView": 4,
      "byteOffset": 864720,
      "componentType": 5126,
      "count": 2713,
      "max": [
        1.0,
        0.4998106062412262,
        0.310720294713974,
        0.1926804929971695
      ],
      "min": [
        0.0,
        0.0,
        0.0,
        0.0
      ],
      "type": "VEC4"
    },
    {
      "bufferView": 0,
      "byteOffset": 210392,
      "componentType": 5123,
      "count": 4160,
      "type": "VEC4"
    },
    {
      "bufferView": 4,
      "byteOffset": 908128,
      "componentType": 5126,
      "count": 4160,
      "max": [
        1.0,
        0.0,
        0.0,
        0.0
      ],
      "min": [
        1.0,
        0.0,
        0.0,
        0.0
      ],
      "type": "VEC4"
    },
    {
      "bufferView": 6,
      "componentType": 5126,
      "count": 1,
      "max": [
        0.0
      ],
      "min": [
        0.0
      ],
      "type": "SCALAR"
    },
    {
      "bufferView": 7,
      "componentType": 5126,
      "count": 1,
      "max": [
        3.814697265625e-06,
        10.786964416503906,
        -1.621246337890625e-05
      ],
      "min": [
        3.814697265625e-06,
        10.786964416503906,
        -1.621246337890625e-05
      ],
      "type": "VEC3"
    },
    {
      "bufferView": 6,
      "byteOffset": 4,
      "componentType": 5126,
      "count": 1,
      "max": [
        0.0
      ],
      "min": [
        0.0
      ],
      "type": "SCALAR"
    },
    {
      "bufferView": 7,
      "byteOffset": 12,
      "componentType": 5126,
      "count": 1,
      "max": [
        -2.384185791015625e-06,
        12.447799682617188,
        4.151463508605957e-05
      ],
      "min": [
        -2.384185791015625e-06,
        12.447799682617188,
        4.151463508605957e-05
      ],
      "type": "VEC3"
    },
    {
      "bufferView": 6,
      "byteOffset": 8,
      "componentType": 5126,
      "count": 1,
      "max": [
        0.0
      ],
      "min": [
        0.0
      ],
      "type": "SCALAR"
    },
    {
      "bufferView": 7,
      "byteOffset": 24,
      "componentType": 5126,
      "count": 1,
      "max": [
        -8.659523010253906,
        12.679508209228516,
        2.51908802986145
      ],
      "min": [
        -8.659523010253906,
        12.679508209228516,
        2.51908802986145
      ],
      "type": "VEC3"
    },
    {
      "bufferView": 6,
      "byteOffset": 12,
      "componentType": 5126,
      "count": 1,
      "max": [
        0.0
      ],
      "min": [
        0.0
      ],
      "type": "SCALAR"
    },
    {
      "bufferView": 7,
      "byteOffset": 36,
      "componentType": 5126,
      "count": 1,
      "max": [
        1.430511474609375e-06,
        7.591535568237305,
        -1.5407800674438477e-05
      ],
      "min": [
        1.430511474609375e-06,
        7.591535568237305,
        -1.5407800674438477e-05
      ],
      "type": "VEC3"
    },
    {
      "bufferView": 6,
      "byteOffset": 16,
      "componentType": 5126,
      "count": 1,
      "max": [
        0.0
      ],
      "min": [
        0.0
      ],
      "type": "SCALAR"
    },
    {
      "bufferView": 7,
      "byteOffset": 48,
      "componentType": 5126,
      "count": 1,
      "max": [
        -4.76837158203125e-07,
        8.353708267211914,
        -1.9371509552001953e-06
      ],
      "min": [
        -4.76837158203125e-07,
        8.353708267211914,
        -1.9371509552001953e-06
      ],
      "type": "VEC3"
    },
    {
      "bufferView": 6,
      "byteOffset": 20,
      "componentType": 5126,
      "count": 1,
      "max": [
        0.0
      ],
      "min": [
        0.0
      ],
      "type": "SCALAR"
    },
    {
      "bufferView": 7,
      "byteOffset": 60,
      "componentType": 5126,
      "count": 1,
      "max": [
        -9.463944435119629,
        37.214111328125,
        -0.16557778418064117
      ],
      "min": [
        -9.463944435119629,
        37.214111328125,
        -0.16557778418064117
      ],
      "type": "VEC3"
    },
    {
      "bufferView": 6,
      "byteOffset": 24,
      "componentType": 5126,
      "count": 1,
      "max": [
        0.0
      ],
      "min": [
        0.0
      ],
      "type": "SCALAR"
    },
    {
      "bufferView": 7,
      "byteOffset": 72,
      "componentType": 5126,
      "count": 1,
      "max": [
        -3.814697265625e-06,
        8.48265552520752,
        -2.5391578674316406e-05
      ],
      "min": [
        -3.814697265625e-06,
        8.48265552520752,
        -2.5391578674316406e-05
      ],
      "type": "VEC3"
    },
    {
      "bufferView": 6,
      "byteOffset": 28,
      "componentType": 5126,
      "count": 1,
      "max": [
        0.0
      ],
      "min": [
        0.0
      ],
      "type": "SCALAR"
    },
    {
      "bufferView": 7,
      "byteOffset": 84,
      "componentType": 5126,
      "count": 1,
      "max": [
        -1.9073486328125e-06,
        9.022578239440918,
        8.344650268554688e-07
      ],
      "min": [
        -1.9073486328125e-06,
        9.022578239440918,
        8.344650268554688e-07
      ],
      "type": "VEC3"
    },
    {
      "bufferView": 6,
      "byteOffset": 32,
      "componentType": 5126,
      "count": 1,
      "max": [
        0.0
      ],
      "min": [
        0.0
      ],
      "type": "SCALAR"
    },
    {
      "bufferView": 7,
      "byteOffset": 96,
      "componentType": 5126,
      "count": 1,
      "max": [
        -3.7172975540161133,
        37.604312896728516,
        0.2585689425468445
      ],
      "min": [
        -3.7172975540161133,
        37.604312896728516,
        0.2585689425468445
      ],
      "type": "VEC3"
    },
    {
      "bufferView": 6,
      "byteOffset": 36,
      "componentType": 5126,
      "count": 1,
      "max": [
        0.0
      ],
      "min": [
        0.0
      ],
      "type": "SCALAR"
    },
    {
      "bufferView": 7,
      "byteOffset": 108,
      "componentType": 5126,
      "count": 1,
      "max": [
        4.76837158203125e-06,
        7.610650062561035,
        -2.6345252990722656e-05
      ],
      "min": [
        4.76837158203125e-06,
        7.610650062561035,
        -2.6345252990722656e-05
      ],
      "type": "VEC3"
    },
    {
      "bufferView": 6,
      "byteOffset": 40,
      "componentType": 5126,
      "count": 1,
      "max": [
        0.0
      ],
      "min": [
        0.0
      ],
      "type": "SCALAR"
    },
    {
      "bufferView": 7,
      "byteOffset": 120,
      "componentType": 5126,
      "count": 1,
      "max": [
        -1.9073486328125e-06,
        7.987085342407227,
        -1.0371208190917969e-05
      ],
      "min": [
        -1.9073486328125e-06,
        7.987085342407227,
        -1.0371208190917969e-05
      ],
      "type": "VEC3"
    },
    {
      "bufferView": 6,
      "byteOffset": 44,
      "componentType": 5126,
      "count": 1,
      "max": [
        0.0
      ],
      "min": [
        0.0
      ],
      "type": "SCALAR"
    },
    {
      "bufferView": 7,
      "byteOffset": 132,
      "componentType": 5126,
      "count": 1,
      "max": [
        -4.76837158203125e-06,
        5.517033100128174,
        2.3841863594498136e-07
      ],
      "min": [
        -4.76837158203125e-06,
        5.517033100128174,
        2.3841863594498136e-07
      ],
      "type": "VEC3"
    },
    {
      "bufferView": 6,
      "byteOffset": 48,
      "componentType": 5126,
      "count": 1,
      "max": [
        0.0
      ],
      "min": [
        0.0
      ],
      "type": "SCALAR"
    },
    {
      "bufferView": 7,
      "byteOffset": 144,
      "componentType": 5126,
      "count": 1,
      "max": [
        9.5367431640625e-07,
        6.716296672821045,
        -3.707408905029297e-05
      ],
      "min": [
        9.5367431640625e-07,
        6.716296672821045,
        -3.707408905029297e-05
      ],
      "type": "VEC3"
    },
    {
      "bufferView": 6,
      "byteOffset": 52,
      "componentType": 5126,
      "count": 1,
      "max": [
        0.0
      ],
      "min": [
        0.0
      ],
      "type": "SCALAR"
    },
    {
      "bufferView": 7,
      "byteOffset": 156,
      "componentType": 5126,
      "count": 1,
      "max": [
        9.5367431640625e-07,
        75.6554946899414,
        -3.337860107421875e-06
      ],
      "min": [
        9.5367431640625e-07,
        75.6554946899414,
        -3.337860107421875e-06
      ],
      "type": "VEC3"
    },
    {
      "bufferView": 6,
      "byteOffset": 56,
      "componentType": 5126,
      "count": 1,
      "max": [
        0.0
      ],
      "min": [
        0.0
      ],
      "type": "SCALAR"
    },
    {
      "bufferView": 7,
      "byteOffset": 168,
      "componentType": 5126,
      "count": 1,
      "max": [
        -1.1324882507324219e-06,
        35.75400161743164,
        -1.4841556549072266e-05
      ],
      "min": [
        -1.1324882507324219e-06,
        35.75400161743164,
        -1.4841556549072266e-05
      ],
      "type": "VEC3"
    },
    {
      "bufferView": 6,
      "byteOffset": 60,
      "componentType": 5126,
      "count": 1,
      "max": [
        0.0
      ],
      "min": [
        0.0
      ],
      "type": "SCALAR"
    },
    {
      "bufferView": 8,
      "componentType": 5126,
      "count": 1,
      "max": [
        -0.5154321193695068,
        -0.48286792635917664,
        0.5195659399032593,
        -0.4808529317378998
      ],
      "min": [
        -0.5154321193695068,
        -0.48286792635917664,
        0.5195659399032593,
        -0.4808529317378998
      ],
      "type": "VEC4"
    },
    {
      "bufferView": 6,
      "byteOffset": 64,
      "componentType": 5126,
      "count": 1,
      "max": [
        0.0
      ],
      "min": [
        0.0
      ],
      "type": "SCALAR"
    },
    {
      "bufferView": 7,
      "byteOffset": 180,
      "componentType": 5126,
      "count": 1,
      "max": [
        1.430511474609375e-06,
        10.685006141662598,
        1.3947486877441406e-05
      ],
      "min": [
        1.430511474609375e-06,
        10.685006141662598,
        1.3947486877441406e-05
      ],
      "type": "VEC3"
    },
    {
      "bufferView": 6,
      "byteOffset": 68,
      "componentType": 5126,
      "count": 1,
      "max": [
        0.0
      ],
      "min": [
        0.0
      ],
      "type": "SCALAR"
    },
    {
      "bufferView": 7,
      "byteOffset": 192,
      "componentType": 5126,
      "count": 1,
      "max": [
        8.821487426757813e-06,
        12.376193046569824,
        -2.9802322387695313e-06
      ],
      "min": [
        8.821487426757813e-06,
        12.376193046569824,
        -2.9802322387695313e-06
      ],
      "type": "VEC3"
    },
    {
      "bufferView": 6,
      "byteOffset": 72,
      "componentType": 5126,
      "count": 1,
      "max": [
        0.0
      ],
      "min": [
        0.0
      ],
      "type": "SCALAR"
    },
    {
      "bufferView": 7,
      "byteOffset": 204,
      "componentType": 5126,
      "count": 1,
      "max": [
        8.767007827758789,
        12.573402404785156,
        2.0925421714782715
      ],
      "min": [
        8.767007827758789,
        12.573402404785156,
        2.0925421714782715
      ],
      "type": "VEC3"
    },
    {
      "bufferView": 6,
      "byteOffset": 76,
      "componentType": 5126,
      "count": 1,
      "max": [
        0.0
      ],
      "min": [
        0.0
      ],
      "type": "SCALAR"
    },
    {
      "bufferView": 7,
      "byteOffset": 216,
      "componentType": 5126,
      "count": 1,
      "max": [
        1.1920928955078125e-06,
        7.006885051727295,
        6.254762411117554e-06
      ],
      "min": [
        1.1920928955078125e-06,
        7.006885051727295,
        6.254762411117554e-06
      ],
      "type": "VEC3"
    },
    {
      "bufferView": 6,
      "byteOffset": 80,
      "componentType": 5126,
      "count": 1,
      "max": [
        0.0
      ],
      "min": [
        0.0
      ],
      "type": "SCALAR"
    },
    {
      "bufferView": 7,
      "byteOffset": 228,
      "componentType": 5126,
      "count": 1,
      "max": [
        -2.384185791015625e-07,
        7.552356243133545,
        -5.345791578292847e-06
      ],
      "min": [
        -2.384185791015625e-07,
        7.552356243133545,
        -5.345791578292847e-06
      ],
      "type": "VEC3"
    },
    {
      "bufferView": 6,
      "byteOffset": 84,
      "componentType": 5126,
      "count": 1,
      "max": [
        0.0
      ],
      "min": [
        0.0
      ],
      "type": "SCALAR"
    },
    {
      "bufferView": 7,
      "byteOffset": 240,
      "componentType": 5126,
      "count": 1,
      "max": [
        10.525626182556152,
        38.96633529663086,
        0.2141995131969452
      ],
      "min": [
        10.525626182556152,
        38.96633529663086,
        0.2141995131969452
      ],
      "type": "VEC3"
    },
    {
      "bufferView": 6,
      "byteOffset": 88,
      "componentType": 5126,
      "count": 1,
      "max": [
        0.0
      ],
      "min": [
        0.0
      ],
      "type": "SCALAR"
    },
    {
      "bufferView": 7,
      "byteOffset": 252,
      "componentType": 5126,
      "count": 1,
      "max": [
        -1.6689300537109375e-06,
        8.129243850708008,
        -5.677342414855957e-06
      ],
      "min": [
        -1.6689300537109375e-06,
        8.129243850708008,
        -5.677342414855957e-06
      ],
      "type": "VEC3"
    },
    {
      "bufferView": 6,
      "byteOffset": 92,
      "componentType": 5126,
      "count": 1,
      "max": [
        0.0
      ],
      "min": [
        0.0
      ],
      "type": "SCALAR"
    },
    {
      "bufferView": 7,
      "byteOffset": 264,
      "componentType": 5126,
      "count": 1,
      "max": [
        7.152557373046875e-07,
        8.65678596496582,
        4.112720489501953e-06
      ],
      "min": [
        7.152557373046875e-07,
        8.65678596496582,
        4.112720489501953e-06
      ],
      "type": "VEC3"
    },
    {
      "bufferView": 6,
      "byteOffset": 96,
      "componentType": 5126,
      "count": 1,
      "max": [
        0.0
      ],
      "min": [
        0.0
      ],
      "type": "SCALAR"
    },
    {
      "bufferView": 7,
      "byteOffset": 276,
      "componentType": 5126,
      "count": 1,
      "max": [
        3.3954057693481445,
        38.66248321533203,
        0.3220164179801941
      ],
      "min": [
        3.3954057693481445,
        38.66248321533203,
        0.3220164179801941
      ],
      "type": "VEC3"
    },
    {
      "bufferView": 6,
      "byteOffset": 100,
      "componentType": 5126,
      "count": 1,
      "max": [
        0.0
      ],
      "min": [
        0.0
      ],
      "type": "SCALAR"
    },
    {
      "bufferView": 7,
      "byteOffset": 288,
      "componentType": 5126,
      "count": 1,
      "max": [
        7.152557373046875e-07,
        7.276230812072754,
        -5.900859832763672e-06
      ],
      "min": [
        7.152557373046875e-07,
        7.276230812072754,
        -5.900859832763672e-06
      ],
      "type": "VEC3"
    },
    {
      "bufferView": 6,
      "byteOffset": 104,
      "componentType": 5126,
      "count": 1,
      "max": [
        0.0
      ],
      "min": [
        0.0
      ],
      "type": "SCALAR"
    },
    {
      "bufferView": 7,
      "byteOffset": 300,
      "componentType": 5126,
      "count": 1,
      "max": [
        4.76837158203125e-07,
        6.9947028160095215,
        6.008148193359375e-05
      ],
      "min": [
        4.76837158203125e-07,
        6.9947028160095215,
        6.008148193359375e-05
      ],
      "type": "VEC3"
    },
    {
      "bufferView": 6,
      "byteOffset": 108,
      "componentType": 5126,
      "count": 1,
      "max": [
        0.0
      ],
      "min": [
        0.0
      ],
      "type": "SCALAR"
    },
    {
      "bufferView": 7,
      "byteOffset": 312,
      "componentType": 5126,
      "count": 1,
      "max": [
        -3.9285993576049805,
        38.9591178894043,
        0.2456558346748352
      ],
      "min": [
        -3.9285993576049805,
        38.9591178894043,
        0.2456558346748352
      ],
      "type": "VEC3"
    },
    {
      "bufferView": 6,
      "byteOffset": 112,
      "componentType": 5126,
      "count": 1,
      "max": [
        0.0
      ],
      "min": [
        0.0
      ],
      "type": "SCALAR"
    },
    {
      "bufferView": 7,
      "byteOffset": 324,
      "componentType": 5126,
      "count": 1,
      "max": [
        4.76837158203125e-07,
        4.930539608001709,
        7.152557941481064e-07
      ],
      "min": [
        4.76837158203125e-07,
        4.930539608001709,
        7.152557941481064e-07
      ],
      "type": "VEC3"
    },
    {
      "bufferView": 6,
      "byteOffset": 116,
      "componentType": 5126,
      "count": 1,
      "max": [
        0.0
      ],
      "min": [
        0.0
      ],
      "type": "SCALAR"
    },
    {
      "bufferView": 7,
      "byteOffset": 336,
      "componentType": 5126,
      "count": 1,
      "max": [
        -1.9073486328125e-06,
        4.856516361236572,
        -3.3915042877197266e-05
      ],
      "min": [
        -1.9073486328125e-06,
        4.856516361236572,
        -3.3915042877197266e-05
      ],
      "type": "VEC3"
    },
    {
      "bufferView": 6,
      "byteOffset": 120,
      "componentType": 5126,
      "count": 1,
      "max": [
        0.0
      ],
      "min": [
        0.0
      ],
      "type": "SCALAR"
    },
    {
      "bufferView": 7,
      "byteOffset": 348,
      "componentType": 5126,
      "count": 1,
      "max": [
        -9.992427825927734,
        39.17473220825195,
        0.5226477384567261
      ],
      "min": [
        -9.992427825927734,
        39.17473220825195,
        0.5226477384567261
      ],
      "type": "VEC3"
    },
    {
      "bufferView": 6,
      "byteOffset": 124,
      "componentType": 5126,
      "count": 1,
      "max": [
        0.0
      ],
      "min": [
        0.0
      ],
      "type": "SCALAR"
    },
    {
      "bufferView": 7,
      "byteOffset": 360,
      "componentType": 5126,
      "count": 1,
      "max": [
        -1.1444091796875e-05,
        75.74488067626953,
        5.9604644775390625e-06
      ],
      "min": [
        -1.1444091796875e-05,
        75.74488067626953,
        5.9604644775390625e-06
      ],
      "type": "VEC3"
    },
    {
      "bufferView": 6,
      "byteOffset": 128,
      "componentType": 5126,
      "count": 1,
      "max": [
        0.0
      ],
      "min": [
        0.0
      ],
      "type": "SCALAR"
    },
    {
      "bufferView": 7,
      "byteOffset": 372,
      "componentType": 5126,
      "count": 1,
      "max": [
        -9.5367431640625e-07,
        75.3979263305664,
        -2.8848648071289063e-05
      ],
      "min": [
        -9.5367431640625e-07,
        75.3979263305664,
        -2.8848648071289063e-05
      ],
      "type": "VEC3"
    },
    {
      "bufferView": 6,
      "byteOffset": 132,
      "componentType": 5126,
      "count": 1,
      "max": [
        0.0
      ],
      "min": [
        0.0
      ],
      "type": "SCALAR"
    },
    {
      "bufferView": 7,
      "byteOffset": 384,
      "componentType": 5126,
      "count": 1,
      "max": [
        5.066394805908203e-07,
        45.4227409362793,
        -1.6689300537109375e-06
      ],
      "min": [
        5.066394805908203e-07,
        45.4227409362793,
        -1.6689300537109375e-06
      ],
      "type": "VEC3"
    }
  ],
  "animations": [
    {
      "channels": [
        {
          "sampler": 0,
          "target": {
            "node": 20,
            "path": "translation"
          }
        },
        {
          "sampler": 1,
          "target": {
            "node": 19,
            "path": "translation"
          }
        },
        {
          "sampler": 2,
          "target": {
            "node": 18,
            "path": "translation"
          }
        },
        {
          "sampler": 3,
          "target": {
            "node": 24,
            "path": "translation"
          }
        },
        {
          "sampler": 4,
          "target": {
            "node": 23,
            "path": "translation"
          }
        },
        {
          "sampler": 5,
          "target": {
            "node": 22,
            "path": "translation"
          }
        },
        {
          "sampler": 6,
          "target": {
            "node": 28,
            "path": "translation"
          }
        },
        {
          "sampler": 7,
          "target": {
            "node": 27,
            "path": "translation"
          }
        },
        {
          "sampler": 8,
          "target": {
            "node": 26,
            "path": "translation"
          }
        },
        {
          "sampler": 9,
          "target": {
            "node": 32,
            "path": "translation"
          }
        },
        {
          "sampler": 10,
          "target": {
            "node": 31,
            "path": "translation"
          }
        },
        {
          "sampler": 11,
          "target": {
            "node": 36,
            "path": "translation"
          }
        },
        {
          "sampler": 12,
          "target": {
            "node": 35,
            "path": "translation"
          }
        },
        {
          "sampler": 13,
          "target": {
            "node": 17,
            "path": "translation"
          }
        },
        {
          "sampler": 14,
          "target": {
            "node": 15,
            "path": "translation"
          }
        },
        {
          "sampler": 15,
          "target": {
            "node": 14,
            "path": "rotation"
          }
        },
        {
          "sampler": 16,
          "target": {
            "node": 44,
            "path": "translation"
          }
        },
        {
          "sampler": 17,
          "target": {
            "node": 43,
            "path": "translation"
          }
        },
        {
          "sampler": 18,
          "target": {
            "node": 42,
            "path": "translation"
          }
        },
        {
          "sampler": 19,
          "target": {
            "node": 48,
            "path": "translation"
          }
        },
        {
          "sampler": 20,
          "target": {
            "node": 47,
            "path": "translation"
          }
        },
        {
          "sampler": 21,
          "target": {
            "node": 46,
            "path": "translation"
          }
        },
        {
          "sampler": 22,
          "target": {
            "node": 52,
            "path": "translation"
          }
        },
        {
          "sampler": 23,
          "target": {
            "node": 51,
            "path": "translation"
          }
        },
        {
          "sampler": 24,
          "target": {
            "node": 50,
            "path": "translation"
          }
        },
        {
          "sampler": 25,
          "target": {
            "node": 56,
            "path": "translation"
          }
        },
        {
          "sampler": 26,
          "target": {
            "node": 55,
            "path": "translation"
          }
        },
        {
          "sampler": 27,
          "target": {
            "node": 54,
            "path": "translation"
          }
        },
        {
          "sampler": 28,
          "target": {
            "node": 60,
            "path": "translation"
          }
        },
        {
          "sampler": 29,
          "target": {
            "node": 59,
            "path": "translation"
          }
        },
        {
          "sampler": 30,
          "target": {
            "node": 58,
            "path": "translation"
          }
        },
        {
          "sampler": 31,
          "target": {
            "node": 41,
            "path": "translation"
          }
        },
        {
          "sampler": 32,
          "target": {
            "node": 40,
            "path": "translation"
          }
        },
        {
          "sampler": 33,
          "target": {
            "node": 65,
            "path": "translation"
          }
        }
      ],
      "name": "Armature|T-Pose",
      "samplers": [
        {
          "input": 24,
          "interpolation": "LINEAR",
          "output": 25
        },
        {
          "input": 26,
          "interpolation": "LINEAR",
          "output": 27
        },
        {
          "input": 28,
          "interpolation": "LINEAR",
          "output": 29
        },
        {
          "input": 30,
          "interpolation": "LINEAR",
          "output": 31
        },
        {
          "input": 32,
          "interpolation": "LINEAR",
          "output": 33
        },
        {
          "input": 34,
          "interpolation": "LINEAR",
          "output": 35
        },
        {
          "input": 36,
          "interpolation": "LINEAR",
          "output": 37
        },
        {
          "input": 38,
          "interpolation": "LINEAR",
          "output": 39
        },
        {
          "input": 40,
          "interpolation": "LINEAR",
          "output": 41
        },
        {
          "input": 42,
          "interpolation": "LINEAR",
          "output": 43
        },
        {
          "input": 44,
          "interpolation": "LINEAR",
          "output": 45
        },
        {
          "input": 46,
          "interpolation": "LINEAR",
          "output": 47
        },
        {
          "input": 48,
          "interpolation": "LINEAR",
          "output": 49
        },
        {
          "input": 50,
          "interpolation": "LINEAR",
          "output": 51
        },
        {
          "input": 52,
          "interpolation": "LINEAR",
          "output": 53
        },
        {
          "input": 54,
          "interpolation": "LINEAR",
          "output": 55
        },
        {
          "input": 56,
          "interpolation": "LINEAR",
          "output": 57
        },
        {
          "input": 58,
          "interpolation": "LINEAR",
          "output": 59
        },
        {
          "input": 60,
          "interpolation": "LINEAR",
          "output": 61
        },
        {
          "input": 62,
          "interpolation": "LINEAR",
          "output": 63
        },
        {
          "input": 64,
          "interpolation": "LINEAR",
          "output": 65
        },
        {
          "input": 66,
          "interpolation": "LINEAR",
          "output": 67
        },
        {
          "input": 68,
          "interpolation": "LINEAR",
          "output": 69
        },
        {
          "input": 70,
          "interpolation": "LINEAR",
          "output": 71
        },
        {
          "input": 72,
          "interpolation": "LINEAR",
          "output": 73
        },
        {
          "input": 74,
          "interpolation": "LINEAR",
          "output": 75
        },
        {
          "input": 76,
          "interpolation": "LINEAR",
          "output": 77
        },
        {
          "input": 78,
          "interpolation": "LINEAR",
          "output": 79
        },
        {
          "input": 80,
          "interpolation": "LINEAR",
          "output": 81
        },
        {
          "input": 82,
          "interpolation": "LINEAR",
          "output": 83
        },
        {
          "input": 84,
          "interpolation": "LINEAR",
          "output": 85
        },
        {
          "input": 86,
          "interpolation": "LINEAR",
          "output": 87
        },
        {
          "input": 88,
          "interpolation": "LINEAR",
          "output": 89
        },
        {
          "input": 90,
          "interpolation": "LINEAR",
          "output": 91
        }
      ]
    }
  ],
  "asset": {
    "extras": {
      "author": "Admiral Tributon (https://sketchfab.com/doctor10)",
      "license": "CC-BY-4.0 (http://creativecommons.org/licenses/by/4.0/)",
      "source": "https://sketchfab.com/3d-models/clone-trooper-phase1-shiny-updated-aae018747b054186bd48e460b0ad1192",
      "title": "Clone Trooper Phase1 (Shiny) [Updated]"
    },
    "generator": "Sketchfab-12.66.0",
    "version": "2.0"
  },
  "bufferViews": [
    {
      "buffer": 0,
      "byteLength": 243672,
      "byteStride": 8,
      "name": "shortBufferViews",
      "target": 34962
    },
    {
      "buffer": 0,
      "byteLength": 398964,
      "byteOffset": 243672,
      "name": "floatBufferViews",
      "target": 34963
    },
    {
      "buffer": 0,
      "byteLength": 621048,
      "byteOffset": 642636,
      "byteStride": 8,
      "name": "floatBufferViews",
      "target": 34962
    },
    {
      "buffer": 0,
      "byteLength": 731016,
      "byteOffset": 1263684,
      "byteStride": 12,
      "name": "floatBufferViews",
      "target": 34962
    },
    {
      "buffer": 0,
      "byteLength": 974688,
      "byteOffset": 1994700,
      "byteStride": 16,
      "name": "floatBufferViews",
      "target": 34962
    },
    {
      "buffer": 0,
      "byteLength": 4224,
      "byteOffset": 2969388,
      "name": "floatBufferViews"
    },
    {
      "buffer": 0,
      "byteLength": 136,
      "byteOffset": 2973612,
      "name": "floatBufferViews"
    },
    {
      "buffer": 0,
      "byteLength": 396,
      "byteOffset": 2973748,
      "byteStride": 12,
      "name": "floatBufferViews"
    },
    {
      "buffer": 0,
      "byteLength": 16,
      "byteOffset": 2974144,
      "byteStride": 16,
      "name": "floatBufferViews"
    }
  ],
  "buffers": [
    {
      "byteLength": 2974160,
      "uri": "scene.bin"
    }
  ],
  "images": [
    {
      "uri": "textures/Clone_P1_Armor_baseColor.png"
    },
    {
      "uri": "textures/Clone_P1_Armor_metallicRoughness.png"
    },
    {
      "uri": "textures/Clone_P1_Armor_normal.png"
    },
    {
      "uri": "textures/Undersuit_baseColor.png"
    },
    {
      "uri": "textures/Undersuit_metallicRoughness.png"
    },
    {
      "uri": "textures/Undersuit_normal.png"
    },
    {
      "uri": "textures/Helmet_Phase1_baseColor.png"
    },
    {
      "uri": "textures/Helmet_Phase1_metallicRoughness.png"
    },
    {
      "uri": "textures/Helmet_Phase1_emissive.png"
    },
    {
      "uri": "textures/Helmet_Phase1_normal.png"
    }
  ],
  "materials": [
    {
      "doubleSided": true,
      "name": "Clone_P1_Armor",
      "normalTexture": {
        "index": 2
      },
      "pbrMetallicRoughness": {
        "baseColorTexture": {
          "index": 0
        },
        "metallicRoughnessTexture": {
          "index": 1
        }
      }
    },
    {
      "doubleSided": true,
      "name": "Undersuit",
      "normalTexture": {
        "index": 5
      },
      "pbrMetallicRoughness": {
        "baseColorTexture": {
          "index": 3
        },
        "metallicRoughnessTexture": {
          "index": 4
        }
      }
    },
    {
      "doubleSided": true,
      "emissiveFactor": [
        1.0,
        1.0,
        1.0
      ],
      "emissiveTexture": {
        "index": 8
      },
      "name": "Helmet_Phase1",
      "normalTexture": {
        "index": 9
      },
      "pbrMetallicRoughness": {
        "baseColorTexture": {
          "index": 6
        },
        "metallicRoughnessTexture": {
          "index": 7
        }
      }
    }
  ],
  "meshes": [
    {
      "name": "Clone_P1_Armor_Clone_P1_Armor_0",
      "primitives": [
        {
          "attributes": {
            "JOINTS_0": 18,
            "NORMAL": 1,
            "POSITION": 0,
            "TANGENT": 2,
            "TEXCOORD_0": 3,
            "TEXCOORD_1": 4,
            "TEXCOORD_2": 5,
            "WEIGHTS_0": 19
          },
          "indices": 6,
          "material": 0,
          "mode": 4
        }
      ]
    },
    {
      "name": "Undersuit_Undersuit_0",
      "primitives": [
        {
          "attributes": {
            "JOINTS_0": 20,
            "NORMAL": 8,
            "POSITION": 7,
            "TANGENT": 9,
            "TEXCOORD_0": 10,
            "WEIGHTS_0": 21
          },
          "indices": 11,
          "material": 1,
          "mode": 4
        }
      ]
    },
    {
      "name": "Helmet_Phase1_Helmet_Phase1_0",
      "primitives": [
        {
          "attributes": {
            "JOINTS_0": 22,
            "NORMAL": 13,
            "POSITION": 12,
            "TANGENT": 14,
            "TEXCOORD_0": 15,
            "WEIGHTS_0": 23
          },
          "indices": 16,
          "material": 2,
          "mode": 4
        }
      ]
    }
  ],
  "nodes": [
    {
      "children": [
        1
      ],
      "matrix": [
        1.0,
        0.0,
        0.0,
        0.0,
        0.0,
        2.220446049250313e-16,
        -1.0,
        0.0,
        0.0,
        1.0,
        2.220446049250313e-16,
        0.0,
        0.0,
        0.0,
        0.0,
        1.0
      ],
      "name": "Sketchfab_model"
    },
    {
      "children": [
        2
      ],
      "matrix": [
        1.0,
        0.0,
        0.0,
        0.0,
        0.0,
        0.0,
        1.0,
        0.0,
        0.0,
        -1.0,
        0.0,
        0.0,
        0.0,
        0.0,
        0.0,
        1.0
      ],
      "name": "Clone Trooper (Phase1) [Rigged].fbx"
    },
    {
      "children": [
        3
      ],
      "name": "Object_2"
    },
    {
      "children": [
        4,
        78,
        79,
        80
      ],
      "name": "RootNode"
    },
    {
      "children": [
        5
      ],
      "name": "Armature",
      "rotation": [
        8.146033536604591e-08,
        0.0,
        0.0,
        1.0
      ],
      "translation": [
        -49.451656341552734,
        0.0,
        0.0
      ]
    },
    {
      "children": [
        6,
        73,
        75,
        77,
        72,
        74,
        76
      ],
      "name": "Object_5"
    },
    {
      "children": [
        7
      ],
      "name": "_rootJoint"
    },
    {
      "children": [
        8,
        62,
        67
      ],
      "name": "Hips_01",
      "rotation": [
        -1.7065631254808977e-06,
        3.275212293374352e-06,
        -0.00010409211972728372,
        1.0
      ],
      "scale": [
        1.0,
        0.9999999403953552,
        1.0
      ],
      "translation": [
        0.0032947659492492676,
        285.75469970703125,
        -3.182265043258667
      ]
    },
    {
      "children": [
        9
      ],
      "name": "Spine_02",
      "rotation": [
        -0.03556978330016136,
        -6.9759366851940285e-06,
        0.00010390973329776898,
        0.9993671774864197
      ],
      "scale": [
        0.9999999403953552,
        0.9999999403953552,
        1.0
      ],
      "translation": [
        -6.648399164532748e-09,
        30.32978630065918,
        7.796366929824217e-08
      ]
    },
    {
      "children": [
        10
      ],
      "name": "Spine1_03",
      "rotation": [
        -7.078051567077637e-08,
        -1.3785887362227633e-11,
        3.601587361679037e-10,
        1.0
      ],
      "translation": [
        4.157882926847378e-10,
        33.4435920715332,
        -2.384187382631353e-06
      ]
    },
    {
      "children": [
        11,
        14,
        38
      ],
      "name": "Spine2_04",
      "rotation": [
        -5.587936335871291e-09,
        1.3876939528034704e-11,
        -3.4926744829633094e-10,
        1.0
      ],
      "scale": [
        1.0,
        0.9999997615814209,
        1.0
      ],
      "translation": [
        -1.4281908988778014e-09,
        38.2211799621582,
        -1.879385536085465e-12
      ]
    },
    {
      "children": [
        12
      ],
      "name": "Neck_05",
      "rotation": [
        0.03557156026363373,
        -1.891772112225243e-12,
        2.8827409209730703e-11,
        0.9993671178817749
      ],
      "scale": [
        0.9999998211860657,
        0.9999999403953552,
        0.9999997019767761
      ],
      "translation": [
        1.3879102311875613e-09,
        42.9989013671875,
        4.7683697630418465e-06
      ]
    },
    {
      "children": [
        13
      ],
      "name": "Head_06",
      "rotation": [
        1.2107191693644381e-08,
        -3.1573211011546924e-18,
        -2.9103825252563276e-11,
        1.0
      ],
      "scale": [
        1.0,
        1.0,
        0.9999998807907104
      ],
      "translation": [
        1.389821591146756e-11,
        18.886627197265625,
        4.868554128734104e-07
      ]
    },
    {
      "name": "Head_end_053",
      "rotation": [
        0.0,
        0.0,
        3.6273734944566955e-29,
        1.0
      ],
      "translation": [
        0.0,
        77.7760009765625,
        0.0
      ]
    },
    {
      "children": [
        15
      ],
      "name": "LeftShoulder_07",
      "rotation": [
        -0.5154306888580322,
        -0.4828695058822632,
        0.5195644497871399,
        -0.48085445165634155
      ],
      "scale": [
        0.9999997615814209,
        0.9999997615814209,
        0.9999997019767761
      ],
      "translation": [
        17.597543716430664,
        38.880226135253906,
        -0.31130409240722656
      ]
    },
    {
      "children": [
        16
      ],
      "name": "LeftArm_08",
      "rotation": [
        0.2866448163986206,
        0.12402191758155823,
        0.01665164902806282,
        0.9498294591903687
      ],
      "scale": [
        1.0,
        0.9999996423721313,
        0.9999997615814209
      ],
      "translation": [
        2.682209014892578e-06,
        35.754005432128906,
        -1.4841556549072266e-05
      ]
    },
    {
      "children": [
        17
      ],
      "name": "LeftForeArm_09",
      "rotation": [
        3.964736947636993e-07,
        -0.0038048909045755863,
        2.927432376509387e-07,
        0.9999927878379822
      ],
      "scale": [
        1.0,
        0.9999999403953552,
        1.0
      ],
      "translation": [
        -6.67572021484375e-06,
        75.26495361328125,
        -8.106231689453125e-06
      ]
    },
    {
      "children": [
        18,
        22,
        26,
        30,
        34
      ],
      "name": "LeftHand_010",
      "rotation": [
        3.282450961705763e-06,
        -0.06937394291162491,
        -0.049365002661943436,
        0.9963685870170593
      ],
      "scale": [
        0.9999998807907104,
        1.000000238418579,
        1.0000001192092896
      ],
      "translation": [
        1.049041748046875e-05,
        75.6554946899414,
        -1.0728836059570313e-05
      ]
    },
    {
      "children": [
        19
      ],
      "name": "LeftHandThumb1_011",
      "rotation": [
        0.21352405846118927,
        0.06372424215078354,
        0.3147865831851959,
        0.9226354360580444
      ],
      "scale": [
        0.9999999403953552,
        0.9999998211860657,
        0.9999997019767761
      ],
      "translation": [
        -8.659521102905273,
        12.679496765136719,
        2.5190727710723877
      ]
    },
    {
      "children": [
        20
      ],
      "name": "LeftHandThumb2_012",
      "rotation": [
        -1.1399931736377766e-06,
        -5.462281114887446e-05,
        -0.009746881201863289,
        0.999952495098114
      ],
      "scale": [
        0.9999999403953552,
        0.9999999403953552,
        0.9999997615814209
      ],
      "translation": [
        5.245208740234375e-06,
        12.447799682617188,
        5.677342414855957e-05
      ]
    },
    {
      "children": [
        21
      ],
      "name": "LeftHandThumb3_013",
      "rotation": [
        -6.119257250247756e-06,
        0.0004775107081513852,
        -0.012358314357697964,
        0.9999235272407532
      ],
      "scale": [
        1.0,
        1.0,
        1.0000001192092896
      ],
      "translation": [
        4.76837158203125e-06,
        10.786949157714844,
        2.9206275939941406e-05
      ]
    },
    {
      "name": "LeftHandThumb3_end_060",
      "rotation": [
        -1.3877787807814457e-17,
        -1.3877787807814457e-17,
        2.7755575615628914e-17,
        1.0
      ],
      "translation": [
        1.4210854715202004e-14,
        9.46194076538086,
        0.0
      ]
    },
    {
      "children": [
        23
      ],
      "name": "LeftHandIndex1_014",
      "rotation": [
        0.003254919545724988,
        0.0038340569008141756,
        0.054536107927560806,
        0.9984991550445557
      ],
      "scale": [
        0.9999995231628418,
        0.9999998211860657,
        0.9999998211860657
      ],
      "translation": [
        -9.463942527770996,
        37.214115142822266,
        -0.16558538377285004
      ]
    },
    {
      "children": [
        24
      ],
      "name": "LeftHandIndex2_015",
      "rotation": [
        -1.0105061392096104e-06,
        -0.0003304084821138531,
        -0.004685886204242706,
        0.9999889731407166
      ],
      "scale": [
        1.0,
        0.9999998807907104,
        0.9999998807907104
      ],
      "translation": [
        -1.9073486328125e-06,
        8.353729248046875,
        -9.5367431640625e-06
      ]
    },
    {
      "children": [
        25
      ],
      "name": "LeftHandIndex3_016",
      "rotation": [
        -5.04900299347355e-06,
        0.0007131195743568242,
        -0.008336971513926983,
        0.9999650120735168
      ],
      "scale": [
        1.0000001192092896,
        1.0,
        0.9999999403953552
      ],
      "translation": [
        2.384185791015625e-06,
        7.591552734375,
        1.5139579772949219e-05
      ]
    },
    {
      "name": "LeftHandIndex3_end_063",
      "rotation": [
        -3.9410748969848086e-17,
        3.469446951953614e-18,
        -4.336808689942018e-18,
        1.0
      ],
      "translation": [
        0.0,
        6.293909072875977,
        0.0
      ]
    },
    {
      "children": [
        27
      ],
      "name": "LeftHandMiddle1_017",
      "rotation": [
        -0.03550538793206215,
        0.001103247981518507,
        -0.03104304149746895,
        0.9988866448402405
      ],
      "scale": [
        1.0,
        0.9999999403953552,
        1.0
      ],
      "translation": [
        -3.7172956466674805,
        37.60431671142578,
        0.25855371356010437
      ]
    },
    {
      "children": [
        28
      ],
      "name": "LeftHandMiddle2_018",
      "rotation": [
        0.024541663005948067,
        -2.51532874528948e-08,
        -4.471695547181298e-08,
        0.99969881772995
      ],
      "scale": [
        1.0,
        1.0,
        0.9999999403953552
      ],
      "translation": [
        1.9073486328125e-06,
        9.022577285766602,
        9.5367431640625e-07
      ]
    },
    {
      "children": [
        29
      ],
      "name": "LeftHandMiddle3_019",
      "rotation": [
        -8.224768066611432e-07,
        -7.938616363389883e-06,
        -0.0023811308201402426,
        0.9999972581863403
      ],
      "scale": [
        1.0,
        0.9999997615814209,
        0.9999999403953552
      ],
      "translation": [
        -1.9073486328125e-06,
        8.482656478881836,
        -1.0073184967041016e-05
      ]
    },
    {
      "name": "LeftHandMiddle3_end_00",
      "rotation": [
        -6.678685382510707e-17,
        6.938893903907228e-18,
        4.634268928681786e-34,
        1.0
      ],
      "translation": [
        7.105427357601002e-15,
        7.232440948486328,
        0.0
      ]
    },
    {
      "children": [
        31
      ],
      "name": "LeftHandRing1_020",
      "rotation": [
        0.002890620846301317,
        0.011104107834398746,
        0.05047446861863136,
        0.9986594319343567
      ],
      "scale": [
        1.0,
        0.9999997615814209,
        1.0000001192092896
      ],
      "translation": [
        3.810617446899414,
        37.10399627685547,
        0.23435676097869873
      ]
    },
    {
      "children": [
        32
      ],
      "name": "LeftHandRing2_021",
      "rotation": [
        3.1236450581673125e-07,
        4.80763083032798e-05,
        0.0008935619844123721,
        0.9999997019767761
      ],
      "scale": [
        1.0,
        0.9999992847442627,
        0.9999994039535522
      ],
      "translation": [
        -5.7220458984375e-06,
        7.987089157104492,
        -9.894371032714844e-06
      ]
    },
    {
      "children": [
        33
      ],
      "name": "LeftHandRing3_022",
      "rotation": [
        -3.375678261363646e-07,
        0.0002333985612494871,
        -0.006444968283176422,
        0.9999791979789734
      ],
      "scale": [
        0.9999994039535522,
        0.9999999403953552,
        1.0
      ],
      "translation": [
        2.86102294921875e-06,
        7.610622882843018,
        4.291534423828125e-06
      ]
    },
    {
      "name": "LeftHandRing3_end_055",
      "rotation": [
        -8.673617379884035e-18,
        3.469446951953614e-18,
        3.009265538105056e-35,
        1.0
      ],
      "translation": [
        0.0,
        5.842989921569824,
        -5.684341886080802e-14
      ]
    },
    {
      "children": [
        35
      ],
      "name": "LeftHandPinky1_023",
      "rotation": [
        0.0027708602137863636,
        0.01357651874423027,
        0.05042506009340286,
        0.9986318349838257
      ],
      "scale": [
        0.9999999403953552,
        0.9999998807907104,
        1.0000001192092896
      ],
      "translation": [
        9.370640754699707,
        35.42409896850586,
        0.6851774454116821
      ]
    },
    {
      "children": [
        36
      ],
      "name": "LeftHandPinky2_024",
      "rotation": [
        -3.283748810645193e-07,
        2.6563648134469986e-05,
        -2.428609695925843e-05,
        1.0
      ],
      "scale": [
        1.0,
        1.0000001192092896,
        1.0
      ],
      "translation": [
        1.9073486328125e-06,
        6.716296672821045,
        8.344650836988876e-07
      ]
    },
    {
      "children": [
        37
      ],
      "name": "LeftHandPinky3_025",
      "rotation": [
        1.2526986665761797e-06,
        0.00020097705419175327,
        -0.0042673321440815926,
        0.9999908804893494
      ],
      "scale": [
        1.0,
        0.9999998211860657,
        0.9999998807907104
      ],
      "translation": [
        -1.9073486328125e-06,
        5.517033100128174,
        2.288818359375e-05
      ]
    },
    {
      "name": "LeftHandPinky3_end_061",
      "rotation": [
        4.1904413966564746e-17,
        -1.0903885598227539e-34,
        -2.6020852139652106e-18,
        1.0
      ],
      "translation": [
        -7.105427357601002e-15,
        4.377231121063232,
        5.684341886080802e-14
      ]
    },
    {
      "children": [
        39
      ],
      "name": "RightShoulder_026",
      "rotation": [
        0.5160566568374634,
        -0.48243457078933716,
        0.519005537033081,
        0.48122310638427734
      ],
      "scale": [
        0.9999995231628418,
        0.9999997019767761,
        0.9999997615814209
      ],
      "translation": [
        -17.59754753112793,
        38.877708435058594,
        -0.2760133743286133
      ]
    },
    {
      "children": [
        40
      ],
      "name": "RightArm_027",
      "rotation": [
        0.3006168305873871,
        -0.13316863775253296,
        -0.019822686910629272,
        0.9441941976547241
      ],
      "scale": [
        0.9999998211860657,
        0.9999999403953552,
        1.000000238418579
      ],
      "translation": [
        2.205371856689453e-06,
        35.753997802734375,
        1.5914440155029297e-05
      ]
    },
    {
      "children": [
        41
      ],
      "name": "RightForeArm_028",
      "rotation": [
        7.141924243114772e-07,
        0.005196965299546719,
        -2.1283844375830085e-07,
        0.9999865889549255
      ],
      "scale": [
        1.0,
        1.0,
        0.9999998211860657
      ],
      "translation": [
        -5.7220458984375e-06,
        75.3979263305664,
        3.981590270996094e-05
      ]
    },
    {
      "children": [
        42,
        46,
        50,
        54,
        58
      ],
      "name": "RightHand_029",
      "rotation": [
        -8.863470429787412e-05,
        0.09233781695365906,
        0.04397975280880928,
        0.9947561025619507
      ],
      "scale": [
        0.9999997615814209,
        0.9999997019767761,
        0.9999998807907104
      ],
      "translation": [
        5.7220458984375e-06,
        75.74486541748047,
        -1.71661376953125e-05
      ]
    },
    {
      "children": [
        43
      ],
      "name": "RightHandThumb1_030",
      "rotation": [
        0.2198488712310791,
        -0.06816539168357849,
        -0.3015432059764862,
        0.9252523183822632
      ],
      "translation": [
        8.76700496673584,
        12.5733642578125,
        2.0925190448760986
      ]
    },
    {
      "children": [
        44
      ],
      "name": "RightHandThumb2_031",
      "rotation": [
        2.2538982591413514e-07,
        2.1663499865098856e-05,
        0.009293784387409687,
        0.9999569058418274
      ],
      "translation": [
        7.033348083496094e-06,
        12.376168251037598,
        1.33514404296875e-05
      ]
    },
    {
      "children": [
        45
      ],
      "name": "RightHandThumb3_032",
      "rotation": [
        2.7008360348190763e-07,
        -1.8253926725719793e-07,
        0.00068813213147223,
        0.9999997615814209
      ],
      "scale": [
        0.9999998807907104,
        0.9999999403953552,
        1.0000001192092896
      ],
      "translation": [
        -9.5367431640625e-07,
        10.684988021850586,
        -1.4901161193847656e-05
      ]
    },
    {
      "name": "RightHandThumb3_end_057",
      "rotation": [
        2.7755575615628914e-17,
        5.551115123125783e-17,
        2.7755575615628914e-17,
        1.0
      ],
      "translation": [
        7.993605777301127e-15,
        8.833658218383789,
        0.0
      ]
    },
    {
      "children": [
        47
      ],
      "name": "RightHandIndex1_033",
      "rotation": [
        0.0041848039254546165,
        0.0007148637087084353,
        -0.042609989643096924,
        0.9990828633308411
      ],
      "scale": [
        1.000000238418579,
        1.0,
        0.9999998807907104
      ],
      "translation": [
        10.52562427520752,
        38.96632766723633,
        0.21416890621185303
      ]
    },
    {
      "children": [
        48
      ],
      "name": "RightHandIndex2_034",
      "rotation": [
        -7.450626782201653e-08,
        -1.923262607306242e-05,
        0.00015544792404398322,
        1.0
      ],
      "scale": [
        1.0,
        0.9999999403953552,
        0.9999999403953552
      ],
      "translation": [
        3.5762786865234375e-07,
        7.552348613739014,
        9.816139936447144e-06
      ]
    },
    {
      "children": [
        49
      ],
      "name": "RightHandIndex3_035",
      "rotation": [
        5.94922255459096e-07,
        -0.00010903683869400993,
        -0.0046182363294065,
        0.9999893307685852
      ],
      "scale": [
        1.0,
        0.9999995231628418,
        0.9999991655349731
      ],
      "translation": [
        -3.5762786865234375e-07,
        7.0068888664245605,
        -2.434849739074707e-05
      ]
    },
    {
      "name": "RightHandIndex3_end_056",
      "rotation": [
        1.870248747537495e-17,
        -1.734723475976807e-18,
        3.2443644082695135e-35,
        1.0
      ],
      "translation": [
        1.7763568394002505e-15,
        5.514767169952393,
        1.1368683772161603e-13
      ]
    },
    {
      "children": [
        51
      ],
      "name": "RightHandMiddle1_036",
      "rotation": [
        0.004042839165776968,
        -0.0024173224810510874,
        -0.04175597056746483,
        0.999116837978363
      ],
      "scale": [
        1.0,
        0.9999998211860657,
        0.9999999403953552
      ],
      "translation": [
        3.395401954650879,
        38.662445068359375,
        0.3219626843929291
      ]
    },
    {
      "children": [
        52
      ],
      "name": "RightHandMiddle2_037",
      "rotation": [
        2.3427014639310073e-07,
        7.500067295040935e-05,
        -0.0023402883671224117,
        0.9999972581863403
      ],
      "scale": [
        0.9999998807907104,
        0.9999999403953552,
        0.9999997615814209
      ],
      "translation": [
        5.960464477539063e-07,
        8.656789779663086,
        -1.1458992958068848e-05
      ]
    },
    {
      "children": [
        53
      ],
      "name": "RightHandMiddle3_038",
      "rotation": [
        -1.3998749182064785e-07,
        -7.404483767459169e-05,
        -0.001960003050044179,
        0.9999980926513672
      ],
      "scale": [
        1.0,
        1.0000001192092896,
        0.9999995827674866
      ],
      "translation": [
        -1.9073486328125e-06,
        8.12923812866211,
        9.28342342376709e-06
      ]
    },
    {
      "name": "RightHandMiddle3_end_059",
      "rotation": [
        -6.277530578691071e-17,
        1.734723475976807e-18,
        8.673617379884035e-19,
        1.0
      ],
      "translation": [
        0.0,
        6.721481800079346,
        5.684341886080802e-14
      ]
    },
    {
      "children": [
        55
      ],
      "name": "RightHandRing1_039",
      "rotation": [
        0.003782976884394884,
        -0.008410587906837463,
        -0.043595749884843826,
        0.9990066885948181
      ],
      "scale": [
        1.000000238418579,
        1.0,
        1.000000238418579
      ],
      "translation": [
        -3.928603172302246,
        38.959110260009766,
        0.24562478065490723
      ]
    },
    {
      "children": [
        56
      ],
      "name": "RightHandRing2_040",
      "rotation": [
        -4.962467983204988e-07,
        1.572538394611911e-06,
        -0.0001665135205257684,
        1.0
      ],
      "scale": [
        0.9999998807907104,
        1.0,
        0.9999999403953552
      ],
      "translation": [
        4.76837158203125e-07,
        6.994710922241211,
        2.8908252716064453e-05
      ]
    },
    {
      "children": [
        57
      ],
      "name": "RightHandRing3_041",
      "rotation": [
        1.8799046586082113e-07,
        -3.575113396436791e-06,
        -0.0003871342050842941,
        0.9999999403953552
      ],
      "scale": [
        1.0,
        1.0000004768371582,
        1.0000007152557373
      ],
      "translation": [
        -7.152557373046875e-07,
        7.276192665100098,
        -3.707408905029297e-05
      ]
    },
    {
      "name": "RightHandRing3_end_064",
      "rotation": [
        -6.923139091088298e-17,
        -3.469446951953614e-18,
        -5.963111948670274e-19,
        1.0
      ],
      "translation": [
        -3.552713678800501e-15,
        5.873905658721924,
        0.0
      ]
    },
    {
      "children": [
        59
      ],
      "name": "RightHandPinky1_042",
      "rotation": [
        0.0037489822134375572,
        -0.009523197077214718,
        -0.04517854377627373,
        0.9989265203475952
      ],
      "scale": [
        1.0,
        1.0,
        0.9999999403953552
      ],
      "translation": [
        -9.992430686950684,
        39.17472457885742,
        0.5226165056228638
      ]
    },
    {
      "children": [
        60
      ],
      "name": "RightHandPinky2_043",
      "rotation": [
        4.948378773406148e-07,
        -7.460221968358383e-05,
        -0.00020259761367924511,
        1.0
      ],
      "scale": [
        0.9999994039535522,
        0.9999998807907104,
        1.0000001192092896
      ],
      "translation": [
        -1.430511474609375e-06,
        4.856516361236572,
        -6.562471389770508e-05
      ]
    },
    {
      "children": [
        61
      ],
      "name": "RightHandPinky3_044",
      "rotation": [
        -3.598122475523269e-06,
        -0.00032894490868784487,
        0.005712425336241722,
        0.9999837279319763
      ],
      "scale": [
        0.999999463558197,
        1.0,
        1.0
      ],
      "translation": [
        -9.5367431640625e-07,
        4.930527687072754,
        1.4722347259521484e-05
      ]
    },
    {
      "name": "RightHandPinky3_end_054",
      "rotation": [
        -7.196391919872536e-17,
        -3.469446951953614e-18,
        1.734723475976807e-18,
        1.0
      ],
      "translation": [
        0.0,
        3.4451844692230225,
        5.684341886080802e-14
      ]
    },
    {
      "children": [
        63
      ],
      "name": "LeftUpLeg_045",
      "rotation": [
        0.0013139394577592611,
        0.0311387050896883,
        0.9995124936103821,
        -0.0018554145935922861
      ],
      "scale": [
        0.9999772906303406,
        0.9999998807907104,
        0.9999972581863403
      ],
      "translation": [
        26.648818969726563,
        -15.865604400634766,
        2.5608534812927246
      ]
    },
    {
      "children": [
        64
      ],
      "name": "LeftLeg_046",
      "rotation": [
        -0.09395457059144974,
        0.00025543259107507765,
        -0.003437337465584278,
        0.9955705404281616
      ],
      "scale": [
        0.9999998807907104,
        0.9999998211860657,
        1.0
      ],
      "translation": [
        -1.778826117515564e-06,
        123.74675750732422,
        1.3336539268493652e-06
      ]
    },
    {
      "children": [
        65
      ],
      "name": "LeftFoot_047",
      "rotation": [
        0.5370405912399292,
        0.06804544478654861,
        0.004487214609980583,
        0.840795636177063
      ],
      "scale": [
        0.9999999403953552,
        0.9999998211860657,
        1.0000001192092896
      ],
      "translation": [
        -8.754432201385498e-08,
        117.27948760986328,
        -1.5050172805786133e-06
      ]
    },
    {
      "children": [
        66
      ],
      "name": "LeftToeBase_048",
      "rotation": [
        0.30385926365852356,
        -0.031040692701935768,
        0.009906291030347347,
        0.952159583568573
      ],
      "scale": [
        1.0,
        1.000000238418579,
        1.0000001192092896
      ],
      "translation": [
        2.473592758178711e-06,
        45.42274475097656,
        -3.5762786865234375e-06
      ]
    },
    {
      "name": "LeftToeBase_end_058",
      "rotation": [
        3.469446951953614e-18,
        8.673617379884035e-19,
        -3.009265538105056e-36,
        1.0
      ],
      "translation": [
        0.0,
        20.406707763671875,
        -8.881784197001252e-16
      ]
    },
    {
      "children": [
        68
      ],
      "name": "RightUpLeg_049",
      "rotation": [
        -0.0011481550754979253,
        0.03146206960082054,
        0.9995030164718628,
        0.001653372193686664
      ],
      "scale": [
        0.9999877214431763,
        0.9999997019767761,
        0.9999991059303284
      ],
      "translation": [
        -26.648818969726563,
        -15.865594863891602,
        3.434664011001587
      ]
    },
    {
      "children": [
        69
      ],
      "name": "RightLeg_050",
      "rotation": [
        -0.09826560318470001,
        -0.00027201842749491334,
        0.003461361862719059,
        0.9951542615890503
      ],
      "scale": [
        0.9999998211860657,
        0.9999995231628418,
        0.9999999403953552
      ],
      "translation": [
        7.953494787216187e-07,
        123.73189544677734,
        5.103647708892822e-07
      ]
    },
    {
      "children": [
        70
      ],
      "name": "RightFoot_051",
      "rotation": [
        0.5458516478538513,
        -0.06621434539556503,
        -0.005010800436139107,
        0.8352463841438293
      ],
      "scale": [
        0.9999998807907104,
        1.0000001192092896,
        1.000000238418579
      ],
      "translation": [
        -1.9725412130355835e-06,
        117.43994140625,
        4.023313522338867e-07
      ]
    },
    {
      "children": [
        71
      ],
      "name": "RightToeBase_052",
      "rotation": [
        0.2972107529640198,
        0.029942214488983154,
        -0.009325589053332806,
        0.9542967677116394
      ],
      "scale": [
        0.9999998807907104,
        0.9999999403953552,
        0.9999997615814209
      ],
      "translation": [
        2.384185791015625e-06,
        46.3820686340332,
        4.76837158203125e-07
      ]
    },
    {
      "name": "RightToeBase_end_062",
      "rotation": [
        3.469446951953614e-18,
        4.336808689942018e-19,
        6.938893903907228e-18,
        1.0
      ],
      "translation": [
        0.0,
        20.78360939025879,
        0.0
      ]
    },
    {
      "matrix": [
        283.63848876953125,
        -2.562999226422661e-06,
        2.0861576809399633e-07,
        0.0,
        2.5629988516547938e-06,
        283.6384549571807,
        9.413268904528855e-05,
        0.0,
        -2.0861659624522246e-07,
        -9.413269013685531e-05,
        283.6384582519447,
        0.0,
        -49.5519905090332,
        373.5653585555947,
        -7.340542347272389,
        1.0
      ],
      "name": "Object_72"
    },
    {
      "mesh": 0,
      "name": "Object_73",
      "skin": 0
    },
    {
      "matrix": [
        278.75872802734375,
        -1.490115844640783e-07,
        -5.960467615788975e-08,
        0.0,
        -5.96046763428013e-08,
        -3.4591442573619473e-07,
        -278.7587280273513,
        0.0,
        1.4901156662655315e-07,
        278.7586947967213,
        -3.4591438453184354e-07,
        0.0,
        -49.36660385131836,
        280.98345921659484,
        4.568239530833296e-05,
        1.0
      ],
      "name": "Object_74"
    },
    {
      "mesh": 1,
      "name": "Object_75",
      "skin": 0
    },
    {
      "matrix": [
        270.21112060546875,
        -1.674369802460093e-06,
        6.440160332210023e-05,
        0.0,
        6.442336430967535e-05,
        7.022695247496368,
        -270.11984138705037,
        0.0,
        2.839217890996534e-11,
        270.1198397019405,
        7.022695203686136,
        0.0,
        -49.76018524169922,
        478.8485164331143,
        6.035125926672237,
        1.0
      ],
      "name": "Object_76"
    },
    {
      "mesh": 2,
      "name": "Object_77",
      "skin": 0
    },
    {
      "name": "Clone_P1_Armor",
      "rotation": [
        1.6259522794825898e-07,
        2.364113627084663e-10,
        -4.071520010029417e-09,
        1.0
      ],
      "scale": [
        283.63848876953125,
        283.6384582519531,
        283.6384582519531
      ],
      "translation": [
        -49.5519905090332,
        373.56536865234375,
        -7.340542316436768
      ]
    },
    {
      "name": "Undersuit",
      "rotation": [
        -0.7071068286895752,
        3.7042717782043155e-09,
        1.8899373732672586e-10,
        0.7071067094802856
      ],
      "scale": [
        278.75872802734375,
        278.75872802734375,
        278.7586975097656
      ],
      "translation": [
        -49.36660385131836,
        280.98345947265625,
        4.555449413601309e-05
      ]
    },
    {
      "name": "Helmet_Phase1",
      "rotation": [
        -0.6978575587272644,
        -8.319108957266508e-08,
        -8.538211915265492e-08,
        0.7162365913391113
      ],
      "scale": [
        270.21112060546875,
        270.21112060546875,
        270.21112060546875
      ],
      "translation": [
        -49.76018524169922,
        478.8485107421875,
        6.035126209259033
      ]
    }
  ],
  "samplers": [
    {
      "magFilter": 9729,
      "minFilter": 9987,
      "wrapS": 10497,
      "wrapT": 10497
    }
  ],
  "scene": 0,
  "scenes": [
    {
      "name": "Sketchfab_Scene",
      "nodes": [
        0
      ]
    }
  ],
  "skins": [
    {
      "inverseBindMatrices": 17,
      "joints": [
        6,
        7,
        8,
        9,
        10,
        11,
        12,
        13,
        14,
        15,
        16,
        17,
        18,
        19,
        20,
        21,
        22,
        23,
        24,
        25,
        26,
        27,
        28,
        29,
        30,
        31,
        32,
        33,
        34,
        35,
        36,
        37,
        38,
        39,
        40,
        41,
        42,
        43,
        44,
        45,
        46,
        47,
        48,
        49,
        50,
        51,
        52,
        53,
        54,
        55,
        56,
        57,
        58,
        59,
        60,
        61,
        62,
        63,
        64,
        65,
        66,
        67,
        68,
        69,
        70,
        71
      ],
      "skeleton": 6
    }
  ],
  "textures": [
    {
      "sampler": 0,
      "source": 0
    },
    {
      "sampler": 0,
      "source": 1
    },
    {
      "sampler": 0,
      "source": 2
    },
    {
      "sampler": 0,
      "source": 3
    },
    {
      "sampler": 0,
      "source": 4
    },
    {
      "sampler": 0,
      "source": 5
    },
    {
      "sampler": 0,
      "source": 6
    },
    {
      "sampler": 0,
      "source": 7
    },
    {
      "sampler": 0,
      "source": 8
    },
    {
      "sampler": 0,
      "source": 9
    }
  ]
}
