{
  "accessors": [
    {
      "bufferView": 3,
      "componentType": 5126,
      "count": 6051,
      "max": [
        2808.724365234375,
        1297.5478515625,
        1448.1702880859375
      ],
      "min": [
        -4155.5009765625,
        -544.7388305664063,
        -1448.1702880859375
      ],
      "type": "VEC3"
    },
    {
      "bufferView": 3,
      "byteOffset": 72612,
      "componentType": 5126,
      "count": 6051,
      "max": [
        0.9999985098838806,
        0.9999932050704956,
        0.9999850392341614
      ],
      "min": [
        -0.9999954104423523,
        -0.9999659657478333,
        -0.9999850392341614
      ],
      "type": "VEC3"
    },
    {
      "bufferView": 4,
      "componentType": 5126,
      "count": 6051,
      "max": [
        0.9995420575141907,
        0.9994087219238281,
        1.0,
        1.0
      ],
      "min": [
        -0.9999964833259583,
        -0.9979041814804077,
        -1.0,
        -1.0
      ],
      "type": "VEC4"
    },
    {
      "bufferView": 2,
      "componentType": 5126,
      "count": 6051,
      "max": [
        0.99859619140625,
        1.0
      ],
      "min": [
        0.0005187990027479827,
        0.00128173828125
      ],
      "type": "VEC2"
    },
    {
      "bufferView": 1,
      "componentType": 5125,
      "count": 23676,
      "type": "SCALAR"
    },
    {
      "bufferView": 5,
      "componentType": 5126,
      "count": 56,
      "max": [
        1.0000005960464478,
        7.74860836827429e-07,
        2.7958014925388852e-06,
        0.0,
        1.5377739828181802e-06,
        1.0,
        1.000001072883606,
        0.0,
        7.748607231405913e-07,
        0.0,
        1.0,
        0.0,
        3785.61669921875,
        1010.4117431640625,
        241.3000030517578,
        1.0
      ],
      "min": [
        0.9999985694885254,
        -3.2782546099952015e-07,
        -1.5377734143839916e-06,
        0.0,
        -2.795801947286236e-06,
        -5.103634066472296e-07,
        0.0,
        0.0,
        -3.2782537573439186e-07,
        -1.0000009536743164,
        -5.103632929603918e-07,
        0.0,
        -2195.017822265625,
        -1010.4119262695313,
        -2.6288838386535645,
        1.0
      ],
      "type": "MAT4"
    },
    {
      "bufferView": 0,
      "componentType": 5123,
      "count": 6051,
      "type": "VEC4"
    },
    {
      "bufferView": 4,
      "byteOffset": 96816,
      "componentType": 5126,
      "count": 6051,
      "max": [
        1.0,
        0.5,
        0.3000030517578125,
        0.14999619126319885
      ],
      "min": [
        0.3499908447265625,
        0.0,
        0.0,
        0.0
      ],
      "type": "VEC4"
    },
    {
      "bufferView": 6,
      "componentType": 5126,
      "count": 14,
      "max": [
        5.0
      ],
      "min": [
        0.0
      ],
      "type": "SCALAR"
    },
    {
      "bufferView": 7,
      "componentType": 5126,
      "count": 14,
      "max": [
        -345.6431884765625,
        0.0001550294109620154,
        3.875738912029192e-05
      ],
      "min": [
        -345.6431884765625,
        0.0001550294109620154,
        3.875738548231311e-05
      ],
      "type": "VEC3"
    },
    {
      "bufferView": 6,
      "byteOffset": 56,
      "componentType": 5126,
      "count": 27,
      "max": [
        5.0
      ],
      "min": [
        0.0
      ],
      "type": "SCALAR"
    },
    {
      "bufferView": 7,
      "byteOffset": 168,
      "componentType": 5126,
      "count": 27,
      "max": [
        1.0,
        0.9999998807907104,
        1.0
      ],
      "min": [
        0.9999999403953552,
        0.9999998211860657,
        1.0
      ],
      "type": "VEC3"
    },
    {
      "bufferView": 6,
      "byteOffset": 164,
      "componentType": 5126,
      "count": 151,
      "max": [
        5.0
      ],
      "min": [
        0.0
      ],
      "type": "SCALAR"
    },
    {
      "bufferView": 8,
      "componentType": 5126,
      "count": 151,
      "max": [
        0.01553711574524641,
        0.2799282968044281,
        0.3237580955028534,
        0.998987078666687
      ],
      "min": [
        -0.0223374105989933,
        -0.19362205266952515,
        -0.31583380699157715,
        0.9388399124145508
      ],
      "type": "VEC4"
    },
    {
      "bufferView": 6,
      "byteOffset": 768,
      "componentType": 5126,
      "count": 135,
      "max": [
        5.0
      ],
      "min": [
        0.0
      ],
      "type": "SCALAR"
    },
    {
      "bufferView": 7,
      "byteOffset": 492,
      "componentType": 5126,
      "count": 135,
      "max": [
        -345.64398193359375,
        2.2737367544323206e-13,
        -1.9378650904400274e-05
      ],
      "min": [
        -345.64398193359375,
        -1.1368683772161603e-12,
        -1.9378650904400274e-05
      ],
      "type": "VEC3"
    },
    {
      "bufferView": 6,
      "byteOffset": 1308,
      "componentType": 5126,
      "count": 31,
      "max": [
        5.0
      ],
      "min": [
        0.0
      ],
      "type": "SCALAR"
    },
    {
      "bufferView": 7,
      "byteOffset": 2112,
      "componentType": 5126,
      "count": 31,
      "max": [
        1.0000001192092896,
        1.0000001192092896,
        1.0
      ],
      "min": [
        1.0,
        1.0,
        1.0
      ],
      "type": "VEC3"
    },
    {
      "bufferView": 6,
      "byteOffset": 1432,
      "componentType": 5126,
      "count": 151,
      "max": [
        5.0
      ],
      "min": [
        0.0
      ],
      "type": "SCALAR"
    },
    {
      "bufferView": 8,
      "byteOffset": 2416,
      "componentType": 5126,
      "count": 151,
      "max": [
        0.014761136844754219,
        0.271405428647995,
        0.347987562417984,
        0.9991897940635681
      ],
      "min": [
        -0.026216311380267143,
        -0.1919936090707779,
        -0.3165128231048584,
        0.9371188879013062
      ],
      "type": "VEC4"
    },
    {
      "bufferView": 6,
      "byteOffset": 2036,
      "componentType": 5126,
      "count": 51,
      "max": [
        5.0
      ],
      "min": [
        0.0
      ],
      "type": "SCALAR"
    },
    {
      "bufferView": 7,
      "byteOffset": 2484,
      "componentType": 5126,
      "count": 51,
      "max": [
        1.0,
        1.0000001192092896,
        1.0
      ],
      "min": [
        0.9999998807907104,
        1.0,
        1.0
      ],
      "type": "VEC3"
    },
    {
      "bufferView": 6,
      "byteOffset": 2240,
      "componentType": 5126,
      "count": 151,
      "max": [
        5.0
      ],
      "min": [
        0.0
      ],
      "type": "SCALAR"
    },
    {
      "bufferView": 8,
      "byteOffset": 4832,
      "componentType": 5126,
      "count": 151,
      "max": [
        0.01028966624289751,
        0.21452878415584564,
        0.3396967649459839,
        0.9999579787254333
      ],
      "min": [
        -0.022630074992775917,
        -0.17831028997898102,
        -0.31068286299705505,
        0.9383795857429504
      ],
      "type": "VEC4"
    },
    {
      "bufferView": 6,
      "byteOffset": 2844,
      "componentType": 5126,
      "count": 151,
      "max": [
        5.0
      ],
      "min": [
        0.0
      ],
      "type": "SCALAR"
    },
    {
      "bufferView": 7,
      "byteOffset": 3096,
      "componentType": 5126,
      "count": 151,
      "max": [
        -345.6434326171875,
        6.821210263296962e-13,
        2.2737367544323206e-13
      ],
      "min": [
        -345.6434326171875,
        -2.2737367544323206e-13,
        -4.547473508864641e-13
      ],
      "type": "VEC3"
    },
    {
      "bufferView": 6,
      "byteOffset": 3448,
      "componentType": 5126,
      "count": 151,
      "max": [
        5.0
      ],
      "min": [
        0.0
      ],
      "type": "SCALAR"
    },
    {
      "bufferView": 8,
      "byteOffset": 7248,
      "componentType": 5126,
      "count": 151,
      "max": [
        0.006764701567590237,
        0.1331440657377243,
        0.25374045968055725,
        0.9999181628227234
      ],
      "min": [
        -0.012402728199958801,
        -0.13645830750465393,
        -0.20689657330513,
        0.9646382331848145
      ],
      "type": "VEC4"
    },
    {
      "bufferView": 6,
      "byteOffset": 4052,
      "componentType": 5126,
      "count": 151,
      "max": [
        5.0
      ],
      "min": [
        0.0
      ],
      "type": "SCALAR"
    },
    {
      "bufferView": 8,
      "byteOffset": 9664,
      "componentType": 5126,
      "count": 151,
      "max": [
        0.025465039536356926,
        0.17113704979419708,
        0.3869880735874176,
        0.9991116523742676
      ],
      "min": [
        -0.04447952285408974,
        -0.16794201731681824,
        -0.34403395652770996,
        0.9196802973747253
      ],
      "type": "VEC4"
    },
    {
      "bufferView": 6,
      "byteOffset": 4656,
      "componentType": 5126,
      "count": 109,
      "max": [
        5.0
      ],
      "min": [
        0.0
      ],
      "type": "SCALAR"
    },
    {
      "bufferView": 7,
      "byteOffset": 4908,
      "componentType": 5126,
      "count": 109,
      "max": [
        -345.6434326171875,
        -2.4223309083026834e-06,
        -7.75147054810077e-05
      ],
      "min": [
        -345.6434326171875,
        -2.422331135676359e-06,
        -7.75147054810077e-05
      ],
      "type": "VEC3"
    },
    {
      "bufferView": 6,
      "byteOffset": 5092,
      "componentType": 5126,
      "count": 151,
      "max": [
        5.0
      ],
      "min": [
        0.0
      ],
      "type": "SCALAR"
    },
    {
      "bufferView": 8,
      "byteOffset": 12080,
      "componentType": 5126,
      "count": 151,
      "max": [
        0.0039929114282131195,
        0.10058951377868652,
        0.12757368385791779,
        0.9999673366546631
      ],
      "min": [
        -0.009121145121753216,
        -0.10185283422470093,
        -0.1259385347366333,
        0.9883314967155457
      ],
      "type": "VEC4"
    },
    {
      "bufferView": 6,
      "byteOffset": 5696,
      "componentType": 5126,
      "count": 19,
      "max": [
        5.0
      ],
      "min": [
        0.0
      ],
      "type": "SCALAR"
    },
    {
      "bufferView": 7,
      "byteOffset": 6216,
      "componentType": 5126,
      "count": 19,
      "max": [
        1.0,
        1.0,
        0.9999998807907104
      ],
      "min": [
        0.9999999403953552,
        0.9999999403953552,
        0.9999998211860657
      ],
      "type": "VEC3"
    },
    {
      "bufferView": 6,
      "byteOffset": 5772,
      "componentType": 5126,
      "count": 151,
      "max": [
        5.0
      ],
      "min": [
        0.0
      ],
      "type": "SCALAR"
    },
    {
      "bufferView": 8,
      "byteOffset": 14496,
      "componentType": 5126,
      "count": 151,
      "max": [
        0.01745595596730709,
        0.21371234953403473,
        0.21896685659885406,
        0.9995645880699158
      ],
      "min": [
        -0.03391120582818985,
        -0.09728647023439407,
        -0.21131524443626404,
        0.9641419053077698
      ],
      "type": "VEC4"
    },
    {
      "bufferView": 6,
      "byteOffset": 6376,
      "componentType": 5126,
      "count": 88,
      "max": [
        5.0
      ],
      "min": [
        0.0
      ],
      "type": "SCALAR"
    },
    {
      "bufferView": 7,
      "byteOffset": 6444,
      "componentType": 5126,
      "count": 88,
      "max": [
        -345.6431884765625,
        -7.75147054810077e-05,
        9.689336366136558e-06
      ],
      "min": [
        -345.6431884765625,
        -7.75147054810077e-05,
        9.689335456641857e-06
      ],
      "type": "VEC3"
    },
    {
      "bufferView": 6,
      "byteOffset": 6728,
      "componentType": 5126,
      "count": 151,
      "max": [
        5.0
      ],
      "min": [
        0.0
      ],
      "type": "SCALAR"
    },
    {
      "bufferView": 8,
      "byteOffset": 16912,
      "componentType": 5126,
      "count": 151,
      "max": [
        0.015754809603095055,
        0.205285906791687,
        0.05470280349254608,
        0.9965322613716125
      ],
      "min": [
        -0.006041388027369976,
        0.05796690285205841,
        -0.12261182069778442,
        0.9785256385803223
      ],
      "type": "VEC4"
    },
    {
      "bufferView": 6,
      "byteOffset": 7332,
      "componentType": 5126,
      "count": 151,
      "max": [
        5.0
      ],
      "min": [
        0.0
      ],
      "type": "SCALAR"
    },
    {
      "bufferView": 8,
      "byteOffset": 19328,
      "componentType": 5126,
      "count": 151,
      "max": [
        0.024532213807106018,
        0.24504704773426056,
        0.05847626551985741,
        0.9889472723007202
      ],
      "min": [
        -0.014249037019908428,
        0.14221490919589996,
        -0.13088509440422058,
        0.9689316153526306
      ],
      "type": "VEC4"
    },
    {
      "bufferView": 6,
      "byteOffset": 7936,
      "componentType": 5126,
      "count": 151,
      "max": [
        5.0
      ],
      "min": [
        0.0
      ],
      "type": "SCALAR"
    },
    {
      "bufferView": 8,
      "byteOffset": 21744,
      "componentType": 5126,
      "count": 151,
      "max": [
        0.023597516119480133,
        0.075641930103302,
        0.19978131353855133,
        0.9999430179595947
      ],
      "min": [
        -0.01407553069293499,
        -0.13783732056617737,
        -0.03301692008972168,
        0.9758284687995911
      ],
      "type": "VEC4"
    },
    {
      "bufferView": 6,
      "byteOffset": 8540,
      "componentType": 5126,
      "count": 10,
      "max": [
        5.0
      ],
      "min": [
        0.0
      ],
      "type": "SCALAR"
    },
    {
      "bufferView": 7,
      "byteOffset": 7500,
      "componentType": 5126,
      "count": 10,
      "max": [
        1.0000001192092896,
        1.0,
        1.0
      ],
      "min": [
        1.0000001192092896,
        0.9999999403953552,
        0.9999999403953552
      ],
      "type": "VEC3"
    },
    {
      "bufferView": 6,
      "byteOffset": 8580,
      "componentType": 5126,
      "count": 151,
      "max": [
        5.0
      ],
      "min": [
        0.0
      ],
      "type": "SCALAR"
    },
    {
      "bufferView": 8,
      "byteOffset": 24160,
      "componentType": 5126,
      "count": 151,
      "max": [
        -0.18216706812381744,
        0.058159083127975464,
        0.23121875524520874,
        0.9599713683128357
      ],
      "min": [
        -0.36134618520736694,
        -0.06845089048147202,
        0.16968005895614624,
        0.9114189147949219
      ],
      "type": "VEC4"
    },
    {
      "bufferView": 6,
      "byteOffset": 9184,
      "componentType": 5126,
      "count": 18,
      "max": [
        5.0
      ],
      "min": [
        0.0
      ],
      "type": "SCALAR"
    },
    {
      "bufferView": 7,
      "byteOffset": 7620,
      "componentType": 5126,
      "count": 18,
      "max": [
        0.9999999403953552,
        1.0000001192092896,
        1.0
      ],
      "min": [
        0.9999998807907104,
        1.0,
        1.0
      ],
      "type": "VEC3"
    },
    {
      "bufferView": 6,
      "byteOffset": 9256,
      "componentType": 5126,
      "count": 151,
      "max": [
        5.0
      ],
      "min": [
        0.0
      ],
      "type": "SCALAR"
    },
    {
      "bufferView": 8,
      "byteOffset": 26576,
      "componentType": 5126,
      "count": 151,
      "max": [
        -0.008347127586603165,
        0.1693873107433319,
        0.9218766689300537,
        0.6121360063552856
      ],
      "min": [
        -0.26205459237098694,
        -0.004636190831661224,
        0.7897430658340454,
        0.34075069427490234
      ],
      "type": "VEC4"
    },
    {
      "bufferView": 6,
      "byteOffset": 9860,
      "componentType": 5126,
      "count": 151,
      "max": [
        5.0
      ],
      "min": [
        0.0
      ],
      "type": "SCALAR"
    },
    {
      "bufferView": 8,
      "byteOffset": 28992,
      "componentType": 5126,
      "count": 151,
      "max": [
        -1.0442384024145213e-07,
        -2.6976303857395578e-08,
        -0.553032398223877,
        0.8331597447395325
      ],
      "min": [
        -1.1345942141360865e-07,
        -5.192709195966927e-08,
        -0.7270634770393372,
        0.6865702271461487
      ],
      "type": "VEC4"
    },
    {
      "bufferView": 6,
      "byteOffset": 10464,
      "componentType": 5126,
      "count": 151,
      "max": [
        5.0
      ],
      "min": [
        0.0
      ],
      "type": "SCALAR"
    },
    {
      "bufferView": 8,
      "byteOffset": 31408,
      "componentType": 5126,
      "count": 151,
      "max": [
        0.3572932481765747,
        0.279861181974411,
        -0.07759474217891693,
        0.9678558707237244
      ],
      "min": [
        -0.027198785915970802,
        0.009003491140902042,
        -0.3067631423473358,
        0.8920990824699402
      ],
      "type": "VEC4"
    },
    {
      "bufferView": 6,
      "byteOffset": 11068,
      "componentType": 5126,
      "count": 12,
      "max": [
        5.0
      ],
      "min": [
        0.0
      ],
      "type": "SCALAR"
    },
    {
      "bufferView": 7,
      "byteOffset": 7836,
      "componentType": 5126,
      "count": 12,
      "max": [
        0.9999996423721313,
        1.0,
        1.0
      ],
      "min": [
        0.9999996423721313,
        0.9999999403953552,
        0.9999999403953552
      ],
      "type": "VEC3"
    },
    {
      "bufferView": 6,
      "byteOffset": 11116,
      "componentType": 5126,
      "count": 151,
      "max": [
        5.0
      ],
      "min": [
        0.0
      ],
      "type": "SCALAR"
    },
    {
      "bufferView": 8,
      "byteOffset": 33824,
      "componentType": 5126,
      "count": 151,
      "max": [
        0.4162370562553406,
        0.07896459102630615,
        -0.14543409645557404,
        0.9460707902908325
      ],
      "min": [
        0.2700129449367523,
        -0.08834391832351685,
        -0.23696774244308472,
        0.8929382562637329
      ],
      "type": "VEC4"
    },
    {
      "bufferView": 6,
      "byteOffset": 11720,
      "componentType": 5126,
      "count": 6,
      "max": [
        5.0
      ],
      "min": [
        0.0
      ],
      "type": "SCALAR"
    },
    {
      "bufferView": 7,
      "byteOffset": 7980,
      "componentType": 5126,
      "count": 6,
      "max": [
        1.0000001192092896,
        1.000000238418579,
        1.0000003576278687
      ],
      "min": [
        1.0,
        1.000000238418579,
        1.0000003576278687
      ],
      "type": "VEC3"
    },
    {
      "bufferView": 6,
      "byteOffset": 11744,
      "componentType": 5126,
      "count": 151,
      "max": [
        5.0
      ],
      "min": [
        0.0
      ],
      "type": "SCALAR"
    },
    {
      "bufferView": 8,
      "byteOffset": 36240,
      "componentType": 5126,
      "count": 151,
      "max": [
        0.22952809929847717,
        0.3101835548877716,
        0.8272939324378967,
        0.6787336468696594
      ],
      "min": [
        -0.17469589412212372,
        -0.3192872703075409,
        -0.8172363638877869,
        -0.49958091974258423
      ],
      "type": "VEC4"
    },
    {
      "bufferView": 6,
      "byteOffset": 12348,
      "componentType": 5126,
      "count": 18,
      "max": [
        5.0
      ],
      "min": [
        0.0
      ],
      "type": "SCALAR"
    },
    {
      "bufferView": 7,
      "byteOffset": 8052,
      "componentType": 5126,
      "count": 18,
      "max": [
        0.9999999403953552,
        1.0,
        1.0000001192092896
      ],
      "min": [
        0.9999998807907104,
        1.0,
        1.0000001192092896
      ],
      "type": "VEC3"
    },
    {
      "bufferView": 6,
      "byteOffset": 12420,
      "componentType": 5126,
      "count": 151,
      "max": [
        5.0
      ],
      "min": [
        0.0
      ],
      "type": "SCALAR"
    },
    {
      "bufferView": 8,
      "byteOffset": 38656,
      "componentType": 5126,
      "count": 151,
      "max": [
        -4.2048302617558875e-08,
        1.6321777707162255e-07,
        0.8072632551193237,
        0.8645170331001282
      ],
      "min": [
        -1.0400757588513443e-07,
        1.3262928177937283e-07,
        0.5026035308837891,
        0.5901915431022644
      ],
      "type": "VEC4"
    },
    {
      "bufferView": 6,
      "byteOffset": 13024,
      "componentType": 5126,
      "count": 151,
      "max": [
        5.0
      ],
      "min": [
        0.0
      ],
      "type": "SCALAR"
    },
    {
      "bufferView": 8,
      "byteOffset": 41072,
      "componentType": 5126,
      "count": 151,
      "max": [
        -0.04539242759346962,
        0.11628945171833038,
        0.046449024230241776,
        0.9922451972961426
      ],
      "min": [
        -0.40846437215805054,
        -0.041943445801734924,
        -0.2631165385246277,
        0.9041917324066162
      ],
      "type": "VEC4"
    },
    {
      "bufferView": 6,
      "byteOffset": 13628,
      "componentType": 5126,
      "count": 151,
      "max": [
        5.0
      ],
      "min": [
        0.0
      ],
      "type": "SCALAR"
    },
    {
      "bufferView": 7,
      "byteOffset": 8268,
      "componentType": 5126,
      "count": 151,
      "max": [
        -212.59791564941406,
        2.842170943040401e-14,
        3.907985046680551e-14
      ],
      "min": [
        -212.59791564941406,
        -1.7763568394002505e-14,
        -3.730349362740526e-14
      ],
      "type": "VEC3"
    },
    {
      "bufferView": 6,
      "byteOffset": 14232,
      "componentType": 5126,
      "count": 151,
      "max": [
        5.0
      ],
      "min": [
        0.0
      ],
      "type": "SCALAR"
    },
    {
      "bufferView": 8,
      "byteOffset": 43488,
      "componentType": 5126,
      "count": 151,
      "max": [
        0.007427074946463108,
        0.1001800000667572,
        0.05579172447323799,
        0.999890923500061
      ],
      "min": [
        -0.0039944518357515335,
        -0.044900696724653244,
        -0.11272750049829483,
        0.9917751550674438
      ],
      "type": "VEC4"
    },
    {
      "bufferView": 6,
      "byteOffset": 14836,
      "componentType": 5126,
      "count": 151,
      "max": [
        5.0
      ],
      "min": [
        0.0
      ],
      "type": "SCALAR"
    },
    {
      "bufferView": 8,
      "byteOffset": 45904,
      "componentType": 5126,
      "count": 151,
      "max": [
        0.01086401380598545,
        0.1910923421382904,
        0.11347899585962296,
        0.9999282956123352
      ],
      "min": [
        -0.022221505641937256,
        -0.17792022228240967,
        -0.13286292552947998,
        0.9747520089149475
      ],
      "type": "VEC4"
    },
    {
      "bufferView": 6,
      "byteOffset": 15440,
      "componentType": 5126,
      "count": 151,
      "max": [
        5.0
      ],
      "min": [
        0.0
      ],
      "type": "SCALAR"
    },
    {
      "bufferView": 8,
      "byteOffset": 48320,
      "componentType": 5126,
      "count": 151,
      "max": [
        0.14556168019771576,
        -0.025675205513834953,
        0.12426333874464035,
        0.9970622658729553
      ],
      "min": [
        -0.07417996972799301,
        -0.27403008937835693,
        -0.09814296662807465,
        0.9508823156356812
      ],
      "type": "VEC4"
    },
    {
      "bufferView": 6,
      "byteOffset": 16044,
      "componentType": 5126,
      "count": 127,
      "max": [
        4.900000095367432
      ],
      "min": [
        0.0
      ],
      "type": "SCALAR"
    },
    {
      "bufferView": 7,
      "byteOffset": 10080,
      "componentType": 5126,
      "count": 127,
      "max": [
        125.72975158691406,
        2.3680222511757165e-06,
        -160.02000427246094
      ],
      "min": [
        125.7296371459961,
        2.368022023802041e-06,
        -160.02000427246094
      ],
      "type": "VEC3"
    },
    {
      "bufferView": 6,
      "byteOffset": 16552,
      "componentType": 5126,
      "count": 148,
      "max": [
        4.900000095367432
      ],
      "min": [
        0.0
      ],
      "type": "SCALAR"
    },
    {
      "bufferView": 8,
      "byteOffset": 50736,
      "componentType": 5126,
      "count": 148,
      "max": [
        8.742270551920228e-08,
        8.742278367890322e-08,
        -2.1073436329288597e-08,
        1.0
      ],
      "min": [
        8.742270551920228e-08,
        8.742278367890322e-08,
        -2.1073436329288597e-08,
        1.0
      ],
      "type": "VEC4"
    },
    {
      "bufferView": 6,
      "byteOffset": 17144,
      "componentType": 5126,
      "count": 146,
      "max": [
        5.0
      ],
      "min": [
        0.0
      ],
      "type": "SCALAR"
    },
    {
      "bufferView": 7,
      "byteOffset": 11604,
      "componentType": 5126,
      "count": 146,
      "max": [
        52.578025817871094,
        8.612801138951909e-09,
        2.628948211669922
      ],
      "min": [
        52.578025817871094,
        8.612659030404757e-09,
        2.628948211669922
      ],
      "type": "VEC3"
    },
    {
      "bufferView": 6,
      "byteOffset": 17728,
      "componentType": 5126,
      "count": 34,
      "max": [
        5.0
      ],
      "min": [
        0.0
      ],
      "type": "SCALAR"
    },
    {
      "bufferView": 7,
      "byteOffset": 13356,
      "componentType": 5126,
      "count": 34,
      "max": [
        1.0000003576278687,
        1.0,
        0.9999998211860657
      ],
      "min": [
        1.0000001192092896,
        1.0,
        0.9999996423721313
      ],
      "type": "VEC3"
    },
    {
      "bufferView": 6,
      "byteOffset": 17864,
      "componentType": 5126,
      "count": 151,
      "max": [
        5.0
      ],
      "min": [
        0.0
      ],
      "type": "SCALAR"
    },
    {
      "bufferView": 8,
      "byteOffset": 53104,
      "componentType": 5126,
      "count": 151,
      "max": [
        4.912101871923369e-07,
        0.06499073654413223,
        1.3177760820326512e-06,
        0.9999982118606567
      ],
      "min": [
        4.4725560144343035e-08,
        -0.3033992350101471,
        -9.829209091094526e-08,
        0.9528635144233704
      ],
      "type": "VEC4"
    },
    {
      "bufferView": 6,
      "byteOffset": 18468,
      "componentType": 5126,
      "count": 150,
      "max": [
        5.0
      ],
      "min": [
        0.0
      ],
      "type": "SCALAR"
    },
    {
      "bufferView": 7,
      "byteOffset": 13764,
      "componentType": 5126,
      "count": 150,
      "max": [
        86.86817169189453,
        1.1368683772161603e-13,
        2.2737367544323206e-13
      ],
      "min": [
        86.86817169189453,
        -1.1368683772161603e-13,
        -2.2737367544323206e-13
      ],
      "type": "VEC3"
    },
    {
      "bufferView": 6,
      "byteOffset": 19068,
      "componentType": 5126,
      "count": 19,
      "max": [
        5.0
      ],
      "min": [
        0.0
      ],
      "type": "SCALAR"
    },
    {
      "bufferView": 7,
      "byteOffset": 15564,
      "componentType": 5126,
      "count": 19,
      "max": [
        1.0000003576278687,
        1.0000001192092896,
        0.9999998807907104
      ],
      "min": [
        1.000000238418579,
        1.0000001192092896,
        0.9999997615814209
      ],
      "type": "VEC3"
    },
    {
      "bufferView": 6,
      "byteOffset": 19144,
      "componentType": 5126,
      "count": 151,
      "max": [
        5.0
      ],
      "min": [
        0.0
      ],
      "type": "SCALAR"
    },
    {
      "bufferView": 8,
      "byteOffset": 55520,
      "componentType": 5126,
      "count": 151,
      "max": [
        0.09464205801486969,
        0.0702994093298912,
        0.07787411659955978,
        0.9998202323913574
      ],
      "min": [
        -0.04647761955857277,
        -0.37677112221717834,
        -0.05379275605082512,
        0.9208734631538391
      ],
      "type": "VEC4"
    },
    {
      "bufferView": 6,
      "byteOffset": 19748,
      "componentType": 5126,
      "count": 150,
      "max": [
        5.0
      ],
      "min": [
        0.0
      ],
      "type": "SCALAR"
    },
    {
      "bufferView": 7,
      "byteOffset": 15792,
      "componentType": 5126,
      "count": 150,
      "max": [
        256.03173828125,
        1.1368683772161603e-13,
        4.547473508864641e-13
      ],
      "min": [
        256.03173828125,
        -1.1368683772161603e-13,
        -2.2737367544323206e-13
      ],
      "type": "VEC3"
    },
    {
      "bufferView": 6,
      "byteOffset": 20348,
      "componentType": 5126,
      "count": 151,
      "max": [
        5.0
      ],
      "min": [
        0.0
      ],
      "type": "SCALAR"
    },
    {
      "bufferView": 8,
      "byteOffset": 57936,
      "componentType": 5126,
      "count": 151,
      "max": [
        0.06081114336848259,
        0.24918271601200104,
        0.025967208668589592,
        0.9998945593833923
      ],
      "min": [
        -0.10088898986577988,
        -0.21530552208423615,
        -0.07533933222293854,
        0.9679175615310669
      ],
      "type": "VEC4"
    },
    {
      "bufferView": 6,
      "byteOffset": 20952,
      "componentType": 5126,
      "count": 4,
      "max": [
        5.0
      ],
      "min": [
        0.0
      ],
      "type": "SCALAR"
    },
    {
      "bufferView": 7,
      "byteOffset": 17592,
      "componentType": 5126,
      "count": 4,
      "max": [
        257.3121643066406,
        -2.422331817797385e-06,
        7.75147054810077e-05
      ],
      "min": [
        257.3121643066406,
        -2.422331817797385e-06,
        7.75147054810077e-05
      ],
      "type": "VEC3"
    },
    {
      "bufferView": 6,
      "byteOffset": 20968,
      "componentType": 5126,
      "count": 151,
      "max": [
        5.0
      ],
      "min": [
        0.0
      ],
      "type": "SCALAR"
    },
    {
      "bufferView": 8,
      "byteOffset": 60352,
      "componentType": 5126,
      "count": 151,
      "max": [
        0.10216762870550156,
        0.10617663711309433,
        0.09779524803161621,
        0.9998653531074524
      ],
      "min": [
        -0.06276098638772964,
        -0.13733762502670288,
        -0.053635019809007645,
        0.9905224442481995
      ],
      "type": "VEC4"
    },
    {
      "bufferView": 6,
      "byteOffset": 21572,
      "componentType": 5126,
      "count": 145,
      "max": [
        5.0
      ],
      "min": [
        0.0
      ],
      "type": "SCALAR"
    },
    {
      "bufferView": 7,
      "byteOffset": 17640,
      "componentType": 5126,
      "count": 145,
      "max": [
        257.3121643066406,
        -2.422331817797385e-06,
        4.547473508864641e-13
      ],
      "min": [
        257.3121643066406,
        -2.422331817797385e-06,
        -1.1368683772161603e-13
      ],
      "type": "VEC3"
    },
    {
      "bufferView": 6,
      "byteOffset": 22152,
      "componentType": 5126,
      "count": 33,
      "max": [
        5.0
      ],
      "min": [
        0.0
      ],
      "type": "SCALAR"
    },
    {
      "bufferView": 7,
      "byteOffset": 19380,
      "componentType": 5126,
      "count": 33,
      "max": [
        0.9999997615814209,
        0.9999999403953552,
        1.0000001192092896
      ],
      "min": [
        0.9999997019767761,
        0.9999999403953552,
        1.0
      ],
      "type": "VEC3"
    },
    {
      "bufferView": 6,
      "byteOffset": 22284,
      "componentType": 5126,
      "count": 151,
      "max": [
        5.0
      ],
      "min": [
        0.0
      ],
      "type": "SCALAR"
    },
    {
      "bufferView": 8,
      "byteOffset": 62768,
      "componentType": 5126,
      "count": 151,
      "max": [
        0.06296725571155548,
        0.21100184321403503,
        0.10262512415647507,
        0.999761164188385
      ],
      "min": [
        -0.049623940140008926,
        -0.20055295526981354,
        -0.0678914487361908,
        0.973017692565918
      ],
      "type": "VEC4"
    },
    {
      "bufferView": 6,
      "byteOffset": 22888,
      "componentType": 5126,
      "count": 9,
      "max": [
        5.0
      ],
      "min": [
        0.0
      ],
      "type": "SCALAR"
    },
    {
      "bufferView": 7,
      "byteOffset": 19776,
      "componentType": 5126,
      "count": 9,
      "max": [
        1.0000003576278687,
        1.000000238418579,
        1.0000001192092896
      ],
      "min": [
        1.000000238418579,
        1.0000001192092896,
        1.0000001192092896
      ],
      "type": "VEC3"
    },
    {
      "bufferView": 6,
      "byteOffset": 22924,
      "componentType": 5126,
      "count": 151,
      "max": [
        5.0
      ],
      "min": [
        0.0
      ],
      "type": "SCALAR"
    },
    {
      "bufferView": 8,
      "byteOffset": 65184,
      "componentType": 5126,
      "count": 151,
      "max": [
        0.037441641092300415,
        0.2693166434764862,
        0.19903208315372467,
        0.998928427696228
      ],
      "min": [
        -0.04437442123889923,
        -0.1312023103237152,
        -0.1391986608505249,
        0.9493696689605713
      ],
      "type": "VEC4"
    },
    {
      "bufferView": 6,
      "byteOffset": 23528,
      "componentType": 5126,
      "count": 150,
      "max": [
        5.0
      ],
      "min": [
        0.0
      ],
      "type": "SCALAR"
    },
    {
      "bufferView": 7,
      "byteOffset": 19884,
      "componentType": 5126,
      "count": 150,
      "max": [
        257.3121643066406,
        -2.422331817797385e-06,
        1.7053025658242404e-13
      ],
      "min": [
        257.3121643066406,
        -2.422331817797385e-06,
        -8.526512829121202e-14
      ],
      "type": "VEC3"
    },
    {
      "bufferView": 6,
      "byteOffset": 24128,
      "componentType": 5126,
      "count": 24,
      "max": [
        5.0
      ],
      "min": [
        0.0
      ],
      "type": "SCALAR"
    },
    {
      "bufferView": 7,
      "byteOffset": 21684,
      "componentType": 5126,
      "count": 24,
      "max": [
        1.000000238418579,
        1.0,
        1.0
      ],
      "min": [
        1.0000001192092896,
        0.9999999403953552,
        0.9999998807907104
      ],
      "type": "VEC3"
    },
    {
      "bufferView": 6,
      "byteOffset": 24224,
      "componentType": 5126,
      "count": 151,
      "max": [
        5.0
      ],
      "min": [
        0.0
      ],
      "type": "SCALAR"
    },
    {
      "bufferView": 8,
      "byteOffset": 67600,
      "componentType": 5126,
      "count": 151,
      "max": [
        0.06858708709478378,
        0.4113329350948334,
        0.14297407865524292,
        0.9979773759841919
      ],
      "min": [
        -0.03539016842842102,
        -0.0653577670454979,
        -0.16373158991336823,
        0.9090240597724915
      ],
      "type": "VEC4"
    },
    {
      "bufferView": 6,
      "byteOffset": 24828,
      "componentType": 5126,
      "count": 151,
      "max": [
        5.0
      ],
      "min": [
        0.0
      ],
      "type": "SCALAR"
    },
    {
      "bufferView": 8,
      "byteOffset": 70016,
      "componentType": 5126,
      "count": 151,
      "max": [
        0.025227004662156105,
        0.08013080060482025,
        0.10034052282571793,
        0.9998624324798584
      ],
      "min": [
        -0.07977234572172165,
        -0.05804237723350525,
        -0.04329877346754074,
        0.9897671341896057
      ],
      "type": "VEC4"
    },
    {
      "bufferView": 6,
      "byteOffset": 25432,
      "componentType": 5126,
      "count": 146,
      "max": [
        5.0
      ],
      "min": [
        0.0
      ],
      "type": "SCALAR"
    },
    {
      "bufferView": 7,
      "byteOffset": 21972,
      "componentType": 5126,
      "count": 146,
      "max": [
        183.79440307617188,
        2.842170943040401e-14,
        -3.875735274050385e-05
      ],
      "min": [
        183.79440307617188,
        -4.973799150320701e-14,
        -3.875735274050385e-05
      ],
      "type": "VEC3"
    },
    {
      "bufferView": 6,
      "byteOffset": 26016,
      "componentType": 5126,
      "count": 151,
      "max": [
        5.0
      ],
      "min": [
        0.0
      ],
      "type": "SCALAR"
    },
    {
      "bufferView": 8,
      "byteOffset": 72432,
      "componentType": 5126,
      "count": 151,
      "max": [
        0.05181856080889702,
        0.13295498490333557,
        0.081085205078125,
        0.9998125433921814
      ],
      "min": [
        -0.04606716334819794,
        -0.13434158265590668,
        -0.03764686360955238,
        0.989527702331543
      ],
      "type": "VEC4"
    },
    {
      "bufferView": 6,
      "byteOffset": 26620,
      "componentType": 5126,
      "count": 6,
      "max": [
        5.0
      ],
      "min": [
        0.0
      ],
      "type": "SCALAR"
    },
    {
      "bufferView": 7,
      "byteOffset": 23724,
      "componentType": 5126,
      "count": 6,
      "max": [
        329.18402099609375,
        -3.765981773540261e-06,
        6.055842618479801e-07
      ],
      "min": [
        329.18402099609375,
        -3.765981773540261e-06,
        6.055842618479801e-07
      ],
      "type": "VEC3"
    },
    {
      "bufferView": 6,
      "byteOffset": 26644,
      "componentType": 5126,
      "count": 151,
      "max": [
        5.0
      ],
      "min": [
        0.0
      ],
      "type": "SCALAR"
    },
    {
      "bufferView": 8,
      "byteOffset": 74848,
      "componentType": 5126,
      "count": 151,
      "max": [
        0.034867897629737854,
        0.04723219946026802,
        0.03608362749218941,
        0.9997063279151917
      ],
      "min": [
        -0.08097612857818604,
        -0.34068241715431213,
        -0.07669858634471893,
        0.9395380020141602
      ],
      "type": "VEC4"
    },
    {
      "bufferView": 6,
      "byteOffset": 27248,
      "componentType": 5126,
      "count": 8,
      "max": [
        5.0
      ],
      "min": [
        0.0
      ],
      "type": "SCALAR"
    },
    {
      "bufferView": 7,
      "byteOffset": 23796,
      "componentType": 5126,
      "count": 8,
      "max": [
        8.386839181184769e-05,
        -148.59014892578125,
        -2.89683225673798e-06
      ],
      "min": [
        8.386839181184769e-05,
        -148.59014892578125,
        -2.8968324841116555e-06
      ],
      "type": "VEC3"
    },
    {
      "bufferView": 6,
      "byteOffset": 27280,
      "componentType": 5126,
      "count": 151,
      "max": [
        5.0
      ],
      "min": [
        0.0
      ],
      "type": "SCALAR"
    },
    {
      "bufferView": 8,
      "byteOffset": 77264,
      "componentType": 5126,
      "count": 151,
      "max": [
        -0.14618612825870514,
        0.05080491676926613,
        0.13842488825321198,
        0.9832549691200256
      ],
      "min": [
        -0.26147231459617615,
        -0.017045196145772934,
        0.011098823510110378,
        0.9560231566429138
      ],
      "type": "VEC4"
    },
    {
      "bufferView": 6,
      "byteOffset": 27884,
      "componentType": 5126,
      "count": 76,
      "max": [
        5.0
      ],
      "min": [
        0.0
      ],
      "type": "SCALAR"
    },
    {
      "bufferView": 7,
      "byteOffset": 23892,
      "componentType": 5126,
      "count": 76,
      "max": [
        148.59005737304688,
        -262.8899841308594,
        2.068564981527743e-06
      ],
      "min": [
        148.59005737304688,
        -262.8899841308594,
        2.0685647541540675e-06
      ],
      "type": "VEC3"
    },
    {
      "bufferView": 6,
      "byteOffset": 28188,
      "componentType": 5126,
      "count": 21,
      "max": [
        5.0
      ],
      "min": [
        0.0
      ],
      "type": "SCALAR"
    },
    {
      "bufferView": 7,
      "byteOffset": 24804,
      "componentType": 5126,
      "count": 21,
      "max": [
        1.0,
        1.0,
        1.0000001192092896
      ],
      "min": [
        0.9999999403953552,
        1.0,
        1.0
      ],
      "type": "VEC3"
    },
    {
      "bufferView": 6,
      "byteOffset": 28272,
      "componentType": 5126,
      "count": 151,
      "max": [
        5.0
      ],
      "min": [
        0.0
      ],
      "type": "SCALAR"
    },
    {
      "bufferView": 8,
      "byteOffset": 79680,
      "componentType": 5126,
      "count": 151,
      "max": [
        -0.1098945289850235,
        0.005021372344344854,
        0.3072434663772583,
        0.987256646156311
      ],
      "min": [
        -0.2535710632801056,
        -0.2347051054239273,
        0.048207931220531464,
        0.920096218585968
      ],
      "type": "VEC4"
    },
    {
      "bufferView": 6,
      "byteOffset": 28876,
      "componentType": 5126,
      "count": 6,
      "max": [
        5.0
      ],
      "min": [
        0.0
      ],
      "type": "SCALAR"
    },
    {
      "bufferView": 7,
      "byteOffset": 25056,
      "componentType": 5126,
      "count": 6,
      "max": [
        0.9999997615814209,
        0.9999999403953552,
        0.9999998807907104
      ],
      "min": [
        0.9999997019767761,
        0.9999998807907104,
        0.9999998807907104
      ],
      "type": "VEC3"
    },
    {
      "bufferView": 6,
      "byteOffset": 28900,
      "componentType": 5126,
      "count": 151,
      "max": [
        5.0
      ],
      "min": [
        0.0
      ],
      "type": "SCALAR"
    },
    {
      "bufferView": 8,
      "byteOffset": 82096,
      "componentType": 5126,
      "count": 151,
      "max": [
        -8.972281761998602e-08,
        1.3538198118112632e-07,
        0.11161239445209503,
        0.9999995827674866
      ],
      "min": [
        -1.264589002403227e-07,
        1.0191472199494456e-07,
        -0.19409772753715515,
        0.9809821844100952
      ],
      "type": "VEC4"
    },
    {
      "bufferView": 6,
      "byteOffset": 29504,
      "componentType": 5126,
      "count": 14,
      "max": [
        5.0
      ],
      "min": [
        0.0
      ],
      "type": "SCALAR"
    },
    {
      "bufferView": 7,
      "byteOffset": 25128,
      "componentType": 5126,
      "count": 14,
      "max": [
        1.000000238418579,
        0.9999999403953552,
        0.9999998807907104
      ],
      "min": [
        1.0000001192092896,
        0.9999999403953552,
        0.9999997615814209
      ],
      "type": "VEC3"
    },
    {
      "bufferView": 6,
      "byteOffset": 29560,
      "componentType": 5126,
      "count": 151,
      "max": [
        5.0
      ],
      "min": [
        0.0
      ],
      "type": "SCALAR"
    },
    {
      "bufferView": 8,
      "byteOffset": 84512,
      "componentType": 5126,
      "count": 151,
      "max": [
        0.3025272786617279,
        0.43304768204689026,
        0.418329119682312,
        0.9385063648223877
      ],
      "min": [
        0.07758457213640213,
        0.17511123418807983,
        0.21189181506633759,
        0.7593978643417358
      ],
      "type": "VEC4"
    },
    {
      "bufferView": 6,
      "byteOffset": 30164,
      "componentType": 5126,
      "count": 151,
      "max": [
        5.0
      ],
      "min": [
        0.0
      ],
      "type": "SCALAR"
    },
    {
      "bufferView": 8,
      "byteOffset": 86928,
      "componentType": 5126,
      "count": 151,
      "max": [
        0.09971798211336136,
        0.06938307732343674,
        0.09766416251659393,
        0.9997625350952148
      ],
      "min": [
        -0.02125495672225952,
        -0.017607487738132477,
        -0.1369590163230896,
        0.98548424243927
      ],
      "type": "VEC4"
    },
    {
      "bufferView": 6,
      "byteOffset": 30768,
      "componentType": 5126,
      "count": 111,
      "max": [
        5.0
      ],
      "min": [
        0.0
      ],
      "type": "SCALAR"
    },
    {
      "bufferView": 7,
      "byteOffset": 25296,
      "componentType": 5126,
      "count": 111,
      "max": [
        -2.3953800337039866e-05,
        148.58995056152344,
        -4.1104682168224826e-05
      ],
      "min": [
        -2.395380215602927e-05,
        148.58995056152344,
        -4.1104682168224826e-05
      ],
      "type": "VEC3"
    },
    {
      "bufferView": 6,
      "byteOffset": 31212,
      "componentType": 5126,
      "count": 22,
      "max": [
        5.0
      ],
      "min": [
        0.0
      ],
      "type": "SCALAR"
    },
    {
      "bufferView": 7,
      "byteOffset": 26628,
      "componentType": 5126,
      "count": 22,
      "max": [
        1.000000238418579,
        1.0000001192092896,
        0.9999997615814209
      ],
      "min": [
        1.0000001192092896,
        1.0000001192092896,
        0.9999996423721313
      ],
      "type": "VEC3"
    },
    {
      "bufferView": 6,
      "byteOffset": 31300,
      "componentType": 5126,
      "count": 151,
      "max": [
        5.0
      ],
      "min": [
        0.0
      ],
      "type": "SCALAR"
    },
    {
      "bufferView": 8,
      "byteOffset": 89344,
      "componentType": 5126,
      "count": 151,
      "max": [
        0.2908518314361572,
        0.14627064764499664,
        0.037656184285879135,
        0.9775436520576477
      ],
      "min": [
        0.1859552413225174,
        0.052624739706516266,
        -0.09838724136352539,
        0.9474952220916748
      ],
      "type": "VEC4"
    },
    {
      "bufferView": 6,
      "byteOffset": 31904,
      "componentType": 5126,
      "count": 18,
      "max": [
        5.0
      ],
      "min": [
        0.0
      ],
      "type": "SCALAR"
    },
    {
      "bufferView": 7,
      "byteOffset": 26892,
      "componentType": 5126,
      "count": 18,
      "max": [
        1.000000238418579,
        1.0,
        0.9999997019767761
      ],
      "min": [
        1.0000001192092896,
        0.9999999403953552,
        0.9999996423721313
      ],
      "type": "VEC3"
    },
    {
      "bufferView": 6,
      "byteOffset": 31976,
      "componentType": 5126,
      "count": 151,
      "max": [
        5.0
      ],
      "min": [
        0.0
      ],
      "type": "SCALAR"
    },
    {
      "bufferView": 8,
      "byteOffset": 91760,
      "componentType": 5126,
      "count": 151,
      "max": [
        0.32321038842201233,
        0.20267514884471893,
        -0.07585509121417999,
        0.9787269234657288
      ],
      "min": [
        0.1264590471982956,
        -0.19941221177577972,
        -0.2183038890361786,
        0.9278237223625183
      ],
      "type": "VEC4"
    },
    {
      "bufferView": 6,
      "byteOffset": 32580,
      "componentType": 5126,
      "count": 6,
      "max": [
        5.0
      ],
      "min": [
        0.0
      ],
      "type": "SCALAR"
    },
    {
      "bufferView": 7,
      "byteOffset": 27108,
      "componentType": 5126,
      "count": 6,
      "max": [
        1.0000001192092896,
        0.9999999403953552,
        0.9999999403953552
      ],
      "min": [
        1.0000001192092896,
        0.9999998807907104,
        0.9999999403953552
      ],
      "type": "VEC3"
    },
    {
      "bufferView": 6,
      "byteOffset": 32604,
      "componentType": 5126,
      "count": 151,
      "max": [
        5.0
      ],
      "min": [
        0.0
      ],
      "type": "SCALAR"
    },
    {
      "bufferView": 8,
      "byteOffset": 94176,
      "componentType": 5126,
      "count": 151,
      "max": [
        -1.2350837153007888e-07,
        -3.827982908433114e-08,
        -0.11926351487636566,
        0.9928626418113708
      ],
      "min": [
        -1.4099593670380273e-07,
        -7.80440885250755e-08,
        -0.4059181213378906,
        0.9139094352722168
      ],
      "type": "VEC4"
    },
    {
      "bufferView": 6,
      "byteOffset": 33208,
      "componentType": 5126,
      "count": 13,
      "max": [
        5.0
      ],
      "min": [
        0.0
      ],
      "type": "SCALAR"
    },
    {
      "bufferView": 7,
      "byteOffset": 27180,
      "componentType": 5126,
      "count": 13,
      "max": [
        1.0000001192092896,
        1.0,
        0.9999997615814209
      ],
      "min": [
        1.0,
        0.9999999403953552,
        0.9999997019767761
      ],
      "type": "VEC3"
    },
    {
      "bufferView": 6,
      "byteOffset": 33260,
      "componentType": 5126,
      "count": 151,
      "max": [
        5.0
      ],
      "min": [
        0.0
      ],
      "type": "SCALAR"
    },
    {
      "bufferView": 8,
      "byteOffset": 96592,
      "componentType": 5126,
      "count": 151,
      "max": [
        -0.3337792754173279,
        0.44806498289108276,
        0.175038143992424,
        0.8695723414421082
      ],
      "min": [
        -0.5852843523025513,
        0.26056233048439026,
        -0.3523305058479309,
        0.7198878526687622
      ],
      "type": "VEC4"
    },
    {
      "bufferView": 6,
      "byteOffset": 33864,
      "componentType": 5126,
      "count": 151,
      "max": [
        5.0
      ],
      "min": [
        0.0
      ],
      "type": "SCALAR"
    },
    {
      "bufferView": 8,
      "byteOffset": 99008,
      "componentType": 5126,
      "count": 151,
      "max": [
        0.1901417374610901,
        0.1628277450799942,
        0.27173641324043274,
        0.9973336458206177
      ],
      "min": [
        -0.016054341569542885,
        -0.035068776458501816,
        0.06203712895512581,
        0.9537694454193115
      ],
      "type": "VEC4"
    },
    {
      "bufferView": 6,
      "byteOffset": 34468,
      "componentType": 5126,
      "count": 151,
      "max": [
        5.0
      ],
      "min": [
        0.0
      ],
      "type": "SCALAR"
    },
    {
      "bufferView": 8,
      "byteOffset": 101424,
      "componentType": 5126,
      "count": 151,
      "max": [
        0.16015712916851044,
        0.02269786223769188,
        0.1379052698612213,
        0.9999324679374695
      ],
      "min": [
        -0.07230404764413834,
        -0.11765934526920319,
        -0.15000253915786743,
        0.9801300764083862
      ],
      "type": "VEC4"
    }
  ],
  "animations": [
    {
      "channels": [
        {
          "sampler": 0,
          "target": {
            "node": 27,
            "path": "translation"
          }
        },
        {
          "sampler": 1,
          "target": {
            "node": 27,
            "path": "scale"
          }
        },
        {
          "sampler": 2,
          "target": {
            "node": 27,
            "path": "rotation"
          }
        },
        {
          "sampler": 3,
          "target": {
            "node": 25,
            "path": "translation"
          }
        },
        {
          "sampler": 4,
          "target": {
            "node": 25,
            "path": "scale"
          }
        },
        {
          "sampler": 5,
          "target": {
            "node": 25,
            "path": "rotation"
          }
        },
        {
          "sampler": 6,
          "target": {
            "node": 23,
            "path": "scale"
          }
        },
        {
          "sampler": 7,
          "target": {
            "node": 23,
            "path": "rotation"
          }
        },
        {
          "sampler": 8,
          "target": {
            "node": 21,
            "path": "translation"
          }
        },
        {
          "sampler": 9,
          "target": {
            "node": 21,
            "path": "rotation"
          }
        },
        {
          "sampler": 10,
          "target": {
            "node": 19,
            "path": "rotation"
          }
        },
        {
          "sampler": 11,
          "target": {
            "node": 18,
            "path": "translation"
          }
        },
        {
          "sampler": 12,
          "target": {
            "node": 18,
            "path": "rotation"
          }
        },
        {
          "sampler": 13,
          "target": {
            "node": 17,
            "path": "scale"
          }
        },
        {
          "sampler": 14,
          "target": {
            "node": 17,
            "path": "rotation"
          }
        },
        {
          "sampler": 15,
          "target": {
            "node": 16,
            "path": "translation"
          }
        },
        {
          "sampler": 16,
          "target": {
            "node": 16,
            "path": "rotation"
          }
        },
        {
          "sampler": 17,
          "target": {
            "node": 15,
            "path": "rotation"
          }
        },
        {
          "sampler": 18,
          "target": {
            "node": 14,
            "path": "rotation"
          }
        },
        {
          "sampler": 19,
          "target": {
            "node": 32,
            "path": "scale"
          }
        },
        {
          "sampler": 20,
          "target": {
            "node": 32,
            "path": "rotation"
          }
        },
        {
          "sampler": 21,
          "target": {
            "node": 31,
            "path": "scale"
          }
        },
        {
          "sampler": 22,
          "target": {
            "node": 31,
            "path": "rotation"
          }
        },
        {
          "sampler": 23,
          "target": {
            "node": 30,
            "path": "rotation"
          }
        },
        {
          "sampler": 24,
          "target": {
            "node": 29,
            "path": "rotation"
          }
        },
        {
          "sampler": 25,
          "target": {
            "node": 36,
            "path": "scale"
          }
        },
        {
          "sampler": 26,
          "target": {
            "node": 36,
            "path": "rotation"
          }
        },
        {
          "sampler": 27,
          "target": {
            "node": 35,
            "path": "scale"
          }
        },
        {
          "sampler": 28,
          "target": {
            "node": 35,
            "path": "rotation"
          }
        },
        {
          "sampler": 29,
          "target": {
            "node": 34,
            "path": "scale"
          }
        },
        {
          "sampler": 30,
          "target": {
            "node": 34,
            "path": "rotation"
          }
        },
        {
          "sampler": 31,
          "target": {
            "node": 33,
            "path": "rotation"
          }
        },
        {
          "sampler": 32,
          "target": {
            "node": 13,
            "path": "translation"
          }
        },
        {
          "sampler": 33,
          "target": {
            "node": 13,
            "path": "rotation"
          }
        },
        {
          "sampler": 34,
          "target": {
            "node": 12,
            "path": "rotation"
          }
        },
        {
          "sampler": 35,
          "target": {
            "node": 11,
            "path": "rotation"
          }
        },
        {
          "sampler": 36,
          "target": {
            "node": 46,
            "path": "translation"
          }
        },
        {
          "sampler": 37,
          "target": {
            "node": 46,
            "path": "rotation"
          }
        },
        {
          "sampler": 38,
          "target": {
            "node": 49,
            "path": "translation"
          }
        },
        {
          "sampler": 39,
          "target": {
            "node": 49,
            "path": "scale"
          }
        },
        {
          "sampler": 40,
          "target": {
            "node": 49,
            "path": "rotation"
          }
        },
        {
          "sampler": 41,
          "target": {
            "node": 48,
            "path": "translation"
          }
        },
        {
          "sampler": 42,
          "target": {
            "node": 48,
            "path": "scale"
          }
        },
        {
          "sampler": 43,
          "target": {
            "node": 48,
            "path": "rotation"
          }
        },
        {
          "sampler": 44,
          "target": {
            "node": 47,
            "path": "translation"
          }
        },
        {
          "sampler": 45,
          "target": {
            "node": 47,
            "path": "rotation"
          }
        },
        {
          "sampler": 46,
          "target": {
            "node": 45,
            "path": "translation"
          }
        },
        {
          "sampler": 47,
          "target": {
            "node": 45,
            "path": "rotation"
          }
        },
        {
          "sampler": 48,
          "target": {
            "node": 44,
            "path": "translation"
          }
        },
        {
          "sampler": 49,
          "target": {
            "node": 44,
            "path": "scale"
          }
        },
        {
          "sampler": 50,
          "target": {
            "node": 44,
            "path": "rotation"
          }
        },
        {
          "sampler": 51,
          "target": {
            "node": 43,
            "path": "scale"
          }
        },
        {
          "sampler": 52,
          "target": {
            "node": 43,
            "path": "rotation"
          }
        },
        {
          "sampler": 53,
          "target": {
            "node": 42,
            "path": "translation"
          }
        },
        {
          "sampler": 54,
          "target": {
            "node": 42,
            "path": "scale"
          }
        },
        {
          "sampler": 55,
          "target": {
            "node": 42,
            "path": "rotation"
          }
        },
        {
          "sampler": 56,
          "target": {
            "node": 41,
            "path": "rotation"
          }
        },
        {
          "sampler": 57,
          "target": {
            "node": 39,
            "path": "translation"
          }
        },
        {
          "sampler": 58,
          "target": {
            "node": 39,
            "path": "rotation"
          }
        },
        {
          "sampler": 59,
          "target": {
            "node": 38,
            "path": "translation"
          }
        },
        {
          "sampler": 60,
          "target": {
            "node": 38,
            "path": "rotation"
          }
        },
        {
          "sampler": 61,
          "target": {
            "node": 56,
            "path": "translation"
          }
        },
        {
          "sampler": 62,
          "target": {
            "node": 56,
            "path": "rotation"
          }
        },
        {
          "sampler": 63,
          "target": {
            "node": 55,
            "path": "translation"
          }
        },
        {
          "sampler": 64,
          "target": {
            "node": 55,
            "path": "scale"
          }
        },
        {
          "sampler": 65,
          "target": {
            "node": 55,
            "path": "rotation"
          }
        },
        {
          "sampler": 66,
          "target": {
            "node": 54,
            "path": "scale"
          }
        },
        {
          "sampler": 67,
          "target": {
            "node": 54,
            "path": "rotation"
          }
        },
        {
          "sampler": 68,
          "target": {
            "node": 53,
            "path": "scale"
          }
        },
        {
          "sampler": 69,
          "target": {
            "node": 53,
            "path": "rotation"
          }
        },
        {
          "sampler": 70,
          "target": {
            "node": 51,
            "path": "rotation"
          }
        },
        {
          "sampler": 71,
          "target": {
            "node": 62,
            "path": "translation"
          }
        },
        {
          "sampler": 72,
          "target": {
            "node": 62,
            "path": "scale"
          }
        },
        {
          "sampler": 73,
          "target": {
            "node": 62,
            "path": "rotation"
          }
        },
        {
          "sampler": 74,
          "target": {
            "node": 61,
            "path": "scale"
          }
        },
        {
          "sampler": 75,
          "target": {
            "node": 61,
            "path": "rotation"
          }
        },
        {
          "sampler": 76,
          "target": {
            "node": 60,
            "path": "scale"
          }
        },
        {
          "sampler": 77,
          "target": {
            "node": 60,
            "path": "rotation"
          }
        },
        {
          "sampler": 78,
          "target": {
            "node": 59,
            "path": "scale"
          }
        },
        {
          "sampler": 79,
          "target": {
            "node": 59,
            "path": "rotation"
          }
        },
        {
          "sampler": 80,
          "target": {
            "node": 57,
            "path": "rotation"
          }
        },
        {
          "sampler": 81,
          "target": {
            "node": 37,
            "path": "rotation"
          }
        }
      ],
      "name": "idle",
      "samplers": [
        {
          "input": 8,
          "interpolation": "LINEAR",
          "output": 9
        },
        {
          "input": 10,
          "interpolation": "LINEAR",
          "output": 11
        },
        {
          "input": 12,
          "interpolation": "LINEAR",
          "output": 13
        },
        {
          "input": 14,
          "interpolation": "LINEAR",
          "output": 15
        },
        {
          "input": 16,
          "interpolation": "LINEAR",
          "output": 17
        },
        {
          "input": 18,
          "interpolation": "LINEAR",
          "output": 19
        },
        {
          "input": 20,
          "interpolation": "LINEAR",
          "output": 21
        },
        {
          "input": 22,
          "interpolation": "LINEAR",
          "output": 23
        },
        {
          "input": 24,
          "interpolation": "LINEAR",
          "output": 25
        },
        {
          "input": 26,
          "interpolation": "LINEAR",
          "output": 27
        },
        {
          "input": 28,
          "interpolation": "LINEAR",
          "output": 29
        },
        {
          "input": 30,
          "interpolation": "LINEAR",
          "output": 31
        },
        {
          "input": 32,
          "interpolation": "LINEAR",
          "output": 33
        },
        {
          "input": 34,
          "interpolation": "LINEAR",
          "output": 35
        },
        {
          "input": 36,
          "interpolation": "LINEAR",
          "output": 37
        },
        {
          "input": 38,
          "interpolation": "LINEAR",
          "output": 39
        },
        {
          "input": 40,
          "interpolation": "LINEAR",
          "output": 41
        },
        {
          "input": 42,
          "interpolation": "LINEAR",
          "output": 43
        },
        {
          "input": 44,
          "interpolation": "LINEAR",
          "output": 45
        },
        {
          "input": 46,
          "interpolation": "LINEAR",
          "output": 47
        },
        {
          "input": 48,
          "interpolation": "LINEAR",
          "output": 49
        },
        {
          "input": 50,
          "interpolation": "LINEAR",
          "output": 51
        },
        {
          "input": 52,
          "interpolation": "LINEAR",
          "output": 53
        },
        {
          "input": 54,
          "interpolation": "LINEAR",
          "output": 55
        },
        {
          "input": 56,
          "interpolation": "LINEAR",
          "output": 57
        },
        {
          "input": 58,
          "interpolation": "LINEAR",
          "output": 59
        },
        {
          "input": 60,
          "interpolation": "LINEAR",
          "output": 61
        },
        {
          "input": 62,
          "interpolation": "LINEAR",
          "output": 63
        },
        {
          "input": 64,
          "interpolation": "LINEAR",
          "output": 65
        },
        {
          "input": 66,
          "interpolation": "LINEAR",
          "output": 67
        },
        {
          "input": 68,
          "interpolation": "LINEAR",
          "output": 69
        },
        {
          "input": 70,
          "interpolation": "LINEAR",
          "output": 71
        },
        {
          "input": 72,
          "interpolation": "LINEAR",
          "output": 73
        },
        {
          "input": 74,
          "interpolation": "LINEAR",
          "output": 75
        },
        {
          "input": 76,
          "interpolation": "LINEAR",
          "output": 77
        },
        {
          "input": 78,
          "interpolation": "LINEAR",
          "output": 79
        },
        {
          "input": 80,
          "interpolation": "LINEAR",
          "output": 81
        },
        {
          "input": 82,
          "interpolation": "LINEAR",
          "output": 83
        },
        {
          "input": 84,
          "interpolation": "LINEAR",
          "output": 85
        },
        {
          "input": 86,
          "interpolation": "LINEAR",
          "output": 87
        },
        {
          "input": 88,
          "interpolation": "LINEAR",
          "output": 89
        },
        {
          "input": 90,
          "interpolation": "LINEAR",
          "output": 91
        },
        {
          "input": 92,
          "interpolation": "LINEAR",
          "output": 93
        },
        {
          "input": 94,
          "interpolation": "LINEAR",
          "output": 95
        },
        {
          "input": 96,
          "interpolation": "LINEAR",
          "output": 97
        },
        {
          "input": 98,
          "interpolation": "LINEAR",
          "output": 99
        },
        {
          "input": 100,
          "interpolation": "LINEAR",
          "output": 101
        },
        {
          "input": 102,
          "interpolation": "LINEAR",
          "output": 103
        },
        {
          "input": 104,
          "interpolation": "LINEAR",
          "output": 105
        },
        {
          "input": 106,
          "interpolation": "LINEAR",
          "output": 107
        },
        {
          "input": 108,
          "interpolation": "LINEAR",
          "output": 109
        },
        {
          "input": 110,
          "interpolation": "LINEAR",
          "output": 111
        },
        {
          "input": 112,
          "interpolation": "LINEAR",
          "output": 113
        },
        {
          "input": 114,
          "interpolation": "LINEAR",
          "output": 115
        },
        {
          "input": 116,
          "interpolation": "LINEAR",
          "output": 117
        },
        {
          "input": 118,
          "interpolation": "LINEAR",
          "output": 119
        },
        {
          "input": 120,
          "interpolation": "LINEAR",
          "output": 121
        },
        {
          "input": 122,
          "interpolation": "LINEAR",
          "output": 123
        },
        {
          "input": 124,
          "interpolation": "LINEAR",
          "output": 125
        },
        {
          "input": 126,
          "interpolation": "LINEAR",
          "output": 127
        },
        {
          "input": 128,
          "interpolation": "LINEAR",
          "output": 129
        },
        {
          "input": 130,
          "interpolation": "LINEAR",
          "output": 131
        },
        {
          "input": 132,
          "interpolation": "LINEAR",
          "output": 133
        },
        {
          "input": 134,
          "interpolation": "LINEAR",
          "output": 135
        },
        {
          "input": 136,
          "interpolation": "LINEAR",
          "output": 137
        },
        {
          "input": 138,
          "interpolation": "LINEAR",
          "output": 139
        },
        {
          "input": 140,
          "interpolation": "LINEAR",
          "output": 141
        },
        {
          "input": 142,
          "interpolation": "LINEAR",
          "output": 143
        },
        {
          "input": 144,
          "interpolation": "LINEAR",
          "output": 145
        },
        {
          "input": 146,
          "interpolation": "LINEAR",
          "output": 147
        },
        {
          "input": 148,
          "interpolation": "LINEAR",
          "output": 149
        },
        {
          "input": 150,
          "interpolation": "LINEAR",
          "output": 151
        },
        {
          "input": 152,
          "interpolation": "LINEAR",
          "output": 153
        },
        {
          "input": 154,
          "interpolation": "LINEAR",
          "output": 155
        },
        {
          "input": 156,
          "interpolation": "LINEAR",
          "output": 157
        },
        {
          "input": 158,
          "interpolation": "LINEAR",
          "output": 159
        },
        {
          "input": 160,
          "interpolation": "LINEAR",
          "output": 161
        },
        {
          "input": 162,
          "interpolation": "LINEAR",
          "output": 163
        },
        {
          "input": 164,
          "interpolation": "LINEAR",
          "output": 165
        },
        {
          "input": 166,
          "interpolation": "LINEAR",
          "output": 167
        },
        {
          "input": 168,
          "interpolation": "LINEAR",
          "output": 169
        },
        {
          "input": 170,
          "interpolation": "LINEAR",
          "output": 171
        }
      ]
    }
  ],
  "asset": {
    "extras": {
      "author": "That_Noodle_Guy (https://sketchfab.com/Elfredy)",
      "license": "CC-BY-4.0 (http://creativecommons.org/licenses/by/4.0/)",
      "source": "https://sketchfab.com/3d-models/agnaktor-ea76eb689ca14ff49190cdc42216183d",
      "title": "Agnaktor"
    },
    "generator": "Sketchfab-12.68.0",
    "version": "2.0"
  },
  "bufferViews": [
    {
      "buffer": 0,
      "byteLength": 48408,
      "byteStride": 8,
      "name": "shortBufferViews",
      "target": 34962
    },
    {
      "buffer": 0,
      "byteLength": 94704,
      "byteOffset": 48408,
      "name": "floatBufferViews",
      "target": 34963
    },
    {
      "buffer": 0,
      "byteLength": 48408,
      "byteOffset": 143112,
      "byteStride": 8,
      "name": "floatBufferViews",
      "target": 34962
    },
    {
      "buffer": 0,
      "byteLength": 145224,
      "byteOffset": 191520,
      "byteStride": 12,
      "name": "floatBufferViews",
      "target": 34962
    },
    {
      "buffer": 0,
      "byteLength": 193632,
      "byteOffset": 336744,
      "byteStride": 16,
      "name": "floatBufferViews",
      "target": 34962
    },
    {
      "buffer": 0,
      "byteLength": 3584,
      "byteOffset": 530376,
      "name": "floatBufferViews"
    },
    {
      "buffer": 0,
      "byteLength": 35072,
      "byteOffset": 533960,
      "name": "floatBufferViews"
    },
    {
      "buffer": 0,
      "byteLength": 27336,
      "byteOffset": 569032,
      "byteStride": 12,
      "name": "floatBufferViews"
    },
    {
      "buffer": 0,
      "byteLength": 103840,
      "byteOffset": 596368,
      "byteStride": 16,
      "name": "floatBufferViews"
    }
  ],
  "buffers": [
    {
      "byteLength": 700208,
      "uri": "scene.bin"
    }
  ],
  "images": [
    {
      "uri": "textures/em019_BM_01.6_baseColor.png"
    },
    {
      "uri": "textures/em019_BM_01.6_normal.png"
    }
  ],
  "materials": [
    {
      "alphaMode": "BLEND",
      "doubleSided": true,
      "name": "em019_BM_01.6",
      "normalTexture": {
        "index": 1
      },
      "pbrMetallicRoughness": {
        "baseColorTexture": {
          "index": 0
        },
        "metallicFactor": 0.0
      }
    }
  ],
  "meshes": [
    {
      "name": "em019_em019_BM_01.6_0",
      "primitives": [
        {
          "attributes": {
            "JOINTS_0": 6,
            "NORMAL": 1,
            "POSITION": 0,
            "TANGENT": 2,
            "TEXCOORD_0": 3,
            "TEXCOORD_1": 3,
            "TEXCOORD_2": 3,
            "WEIGHTS_0": 7
          },
          "indices": 4,
          "material": 0,
          "mode": 4
        }
      ]
    }
  ],
  "nodes": [
    {
      "children": [
        1
      ],
      "matrix": [
        0.002161637647077441,
        0.0,
        0.0,
        0.0,
        0.0,
        4.799799773363847e-19,
        -0.002161637647077441,
        0.0,
        0.0,
        0.002161637647077441,
        4.799799773363847e-19,
        0.0,
        0.0,
        0.0,
        0.0,
        1.0
      ],
      "name": "Sketchfab_model"
    },
    {
      "children": [
        2
      ],
      "matrix": [
        1.0,
        0.0,
        0.0,
        0.0,
        0.0,
        0.0,
        1.0,
        0.0,
        0.0,
        -1.0,
        0.0,
        0.0,
        0.0,
        0.0,
        0.0,
        1.0
      ],
      "name": "72cc0f0aeced402a87b8f79f04b88b0e.fbx"
    },
    {
      "children": [
        3
      ],
      "name": "Object_2"
    },
    {
      "children": [
        4
      ],
      "name": "RootNode"
    },
    {
      "children": [
        5,
        7,
        6,
        63,
        65
      ],
      "name": "Object_4"
    },
    {
      "children": [
        8
      ],
      "name": "_rootJoint"
    },
    {
      "matrix": [
        1.0,
        0.0,
        0.0,
        0.0,
        0.0,
        2.83276944882399e-16,
        -1.0,
        0.0,
        0.0,
        1.0,
        2.83276944882399e-16,
        0.0,
        0.0,
        0.0,
        0.0,
        1.0
      ],
      "name": "Object_6"
    },
    {
      "mesh": 0,
      "name": "Object_7",
      "skin": 0
    },
    {
      "children": [
        9
      ],
      "name": "Agnaktor_01",
      "rotation": [
        -0.7071068286895752,
        0.0,
        0.0,
        0.7071068286895752
      ]
    },
    {
      "children": [
        10
      ],
      "name": "NULL_02",
      "rotation": [
        -3.308722450212111e-24,
        -0.0,
        0.0,
        1.0
      ]
    },
    {
      "children": [
        11,
        37
      ],
      "name": "COG_03",
      "rotation": [
        -3.308722450212111e-24,
        -0.0,
        0.0,
        1.0
      ]
    },
    {
      "children": [
        12
      ],
      "name": "WST_00_04",
      "rotation": [
        0.004020896274596453,
        -0.14820018410682678,
        -0.07977842539548874,
        0.9857261180877686
      ],
      "scale": [
        0.9999996423721313,
        0.9999998807907104,
        0.9999999403953552
      ]
    },
    {
      "children": [
        13
      ],
      "name": "TL_00_00",
      "rotation": [
        -0.011275453492999077,
        0.12866760790348053,
        0.08656750619411469,
        0.9878378510475159
      ],
      "scale": [
        1.000000238418579,
        1.0,
        1.0
      ],
      "translation": [
        -201.62518310546875,
        -4.541875568975229e-07,
        9.689338185125962e-06
      ]
    },
    {
      "children": [
        14,
        29,
        33
      ],
      "name": "TL_01_05",
      "rotation": [
        0.0005854567280039191,
        -0.044900696724653244,
        0.013066178187727928,
        0.9989058375358582
      ],
      "scale": [
        1.0000001192092896,
        1.0000001192092896,
        1.0000001192092896
      ],
      "translation": [
        -212.59791564941406,
        0.0,
        -1.4210854715202004e-14
      ]
    },
    {
      "children": [
        15
      ],
      "name": "TL_02_06",
      "rotation": [
        0.021342802792787552,
        -0.13783733546733856,
        0.1515197902917862,
        0.9785639047622681
      ],
      "scale": [
        0.9999999403953552,
        0.9999998807907104,
        0.9999999403953552
      ],
      "translation": [
        -260.60400390625,
        -9.689338185125962e-06,
        1.9378650904400274e-05
      ]
    },
    {
      "children": [
        16
      ],
      "name": "TL_03_07",
      "rotation": [
        0.005167563911527395,
        0.15864932537078857,
        -0.032137688249349594,
        0.9867982864379883
      ],
      "scale": [
        1.0000001192092896,
        1.0,
        1.0
      ],
      "translation": [
        -345.6431884765625,
        1.9378650904400274e-05,
        -9.689338185125962e-06
      ]
    },
    {
      "children": [
        17
      ],
      "name": "TL_04_08",
      "rotation": [
        0.004015314858406782,
        0.2017950862646103,
        -0.01948232203722,
        0.979225754737854
      ],
      "scale": [
        1.0,
        1.0,
        0.9999998807907104
      ],
      "translation": [
        -345.6431884765625,
        -7.75147054810077e-05,
        9.689335456641857e-06
      ]
    },
    {
      "children": [
        18
      ],
      "name": "TL_05_09",
      "rotation": [
        0.0015632517170161009,
        0.04939672723412514,
        -0.03155084326863289,
        0.9982795715332031
      ],
      "scale": [
        0.9999999403953552,
        1.0,
        0.9999998807907104
      ],
      "translation": [
        -345.6431884765625,
        -1.9378650904400274e-05,
        7.75147054810077e-05
      ]
    },
    {
      "children": [
        19
      ],
      "name": "TL_06_010",
      "rotation": [
        0.0014391816221177578,
        -0.015383235178887844,
        0.07516952604055405,
        0.9970510601997375
      ],
      "scale": [
        1.0,
        1.0000001192092896,
        1.0000004768371582
      ],
      "translation": [
        -345.6434326171875,
        -2.422331135676359e-06,
        -7.75147054810077e-05
      ]
    },
    {
      "children": [
        20,
        21
      ],
      "name": "TL_07_011",
      "rotation": [
        0.014360763132572174,
        -0.09134030342102051,
        0.12638619542121887,
        0.9876624941825867
      ],
      "scale": [
        1.000000238418579,
        1.0000003576278687,
        1.0000003576278687
      ],
      "translation": [
        -345.6431884765625,
        5.813602183479816e-05,
        0.0001550294109620154
      ]
    },
    {
      "name": "TL_07_T_012",
      "rotation": [
        -1.9081958235744878e-17,
        -1.5395670849294163e-17,
        -2.7755575615628914e-17,
        1.0
      ]
    },
    {
      "children": [
        22,
        23
      ],
      "name": "TL_08_013",
      "rotation": [
        -0.0017477067885920405,
        -0.0629548579454422,
        -0.11621846258640289,
        0.9912249445915222
      ],
      "scale": [
        1.0,
        1.000000238418579,
        1.0
      ],
      "translation": [
        -345.6434326171875,
        3.410605131648481e-13,
        1.1368683772161603e-13
      ]
    },
    {
      "name": "TL_08_T_014",
      "rotation": [
        3.469446951953614e-18,
        -8.673617379884035e-18,
        -5.551115123125783e-17,
        1.0
      ]
    },
    {
      "children": [
        24,
        25
      ],
      "name": "TL_09_015",
      "rotation": [
        0.005389110185205936,
        -0.04378103092312813,
        -0.2253207415342331,
        0.9732855558395386
      ],
      "scale": [
        0.9999999403953552,
        1.0,
        1.0
      ],
      "translation": [
        -345.6431884765625,
        9.689338185125962e-05,
        -1.9378634533495642e-05
      ]
    },
    {
      "name": "TL_09_T_016",
      "rotation": [
        0.0,
        -0.0,
        -2.7755575615628914e-17,
        1.0
      ]
    },
    {
      "children": [
        26,
        27
      ],
      "name": "TL_10_017",
      "rotation": [
        0.004779461305588484,
        0.0035777755547314882,
        -0.26587480306625366,
        0.9639891982078552
      ],
      "scale": [
        1.0,
        1.0000001192092896,
        1.0
      ],
      "translation": [
        -345.64398193359375,
        -4.547473508864641e-13,
        -1.9378650904400274e-05
      ]
    },
    {
      "name": "TL_10_T_018",
      "rotation": [
        -1.0408340855860843e-17,
        -3.469446951953614e-18,
        -2.7755575615628914e-17,
        1.0
      ]
    },
    {
      "children": [
        28
      ],
      "name": "TL_11_019",
      "rotation": [
        -0.0014951458433642983,
        0.004654796794056892,
        -0.2252551019191742,
        0.9742875695228577
      ],
      "scale": [
        1.0,
        0.9999998211860657,
        1.0
      ],
      "translation": [
        -345.6431884765625,
        0.0001550294109620154,
        3.875738912029192e-05
      ]
    },
    {
      "name": "TL_11_T_020",
      "rotation": [
        3.469446951953614e-18,
        -6.938893903907228e-18,
        2.7755575615628914e-17,
        1.0
      ]
    },
    {
      "children": [
        30
      ],
      "name": "LR_00_021",
      "rotation": [
        0.3255215585231781,
        0.0763380154967308,
        -0.21663495898246765,
        0.9172118306159973
      ],
      "scale": [
        1.0000001192092896,
        1.0,
        1.0
      ],
      "translation": [
        -192.0239715576172,
        -178.3079833984375,
        -54.8640022277832
      ]
    },
    {
      "children": [
        31
      ],
      "name": "LR_01_022",
      "rotation": [
        -1.0726554222628693e-07,
        -4.5769695589115145e-08,
        -0.6005246043205261,
        0.7996063232421875
      ],
      "scale": [
        1.0000001192092896,
        0.9999998807907104,
        1.0000001192092896
      ],
      "translation": [
        68.58000946044922,
        -349.75799560546875,
        1.477004298067186e-05
      ]
    },
    {
      "children": [
        32
      ],
      "name": "LR_02_023",
      "rotation": [
        -0.18952009081840515,
        0.005783956032246351,
        0.8521258234977722,
        0.48778092861175537
      ],
      "scale": [
        0.9999999403953552,
        1.0,
        1.0
      ],
      "translation": [
        -68.5801010131836,
        -253.74591064453125,
        5.087601675768383e-05
      ]
    },
    {
      "name": "LR_03_024",
      "rotation": [
        -0.18216705322265625,
        0.058159079402685165,
        0.2046646773815155,
        0.9599713683128357
      ],
      "scale": [
        1.0000001192092896,
        1.0,
        0.9999999403953552
      ],
      "translation": [
        3.0682753276778385e-05,
        -228.6000518798828,
        1.4947210729587823e-05
      ]
    },
    {
      "children": [
        34
      ],
      "name": "LL_00_025",
      "rotation": [
        -0.17415516078472137,
        -0.041943445801734924,
        -0.1965877115726471,
        0.963983416557312
      ],
      "scale": [
        1.0000001192092896,
        1.0000001192092896,
        1.0
      ],
      "translation": [
        -192.02395629882813,
        178.3080291748047,
        -54.86399459838867
      ]
    },
    {
      "children": [
        35
      ],
      "name": "LL_01_026",
      "rotation": [
        -8.029287101862792e-08,
        1.4819298144175264e-07,
        0.6968565583229065,
        0.7172105312347412
      ],
      "scale": [
        0.9999998807907104,
        1.0,
        1.0000001192092896
      ],
      "translation": [
        68.58016204833984,
        349.75799560546875,
        -3.521842518239282e-05
      ]
    },
    {
      "children": [
        36
      ],
      "name": "LL_02_027",
      "rotation": [
        0.11921614408493042,
        0.3068956136703491,
        -0.7317951917648315,
        0.5967230796813965
      ],
      "scale": [
        1.0000001192092896,
        1.000000238418579,
        1.0000003576278687
      ],
      "translation": [
        -68.58004760742188,
        253.74595642089844,
        1.8830587578122504e-05
      ]
    },
    {
      "name": "LL_03_028",
      "rotation": [
        0.2967035174369812,
        -0.035871610045433044,
        -0.22650957107543945,
        0.9270240664482117
      ],
      "scale": [
        0.9999996423721313,
        1.0,
        1.0
      ],
      "translation": [
        2.3968132154550403e-05,
        228.5999755859375,
        7.621726399520412e-05
      ]
    },
    {
      "children": [
        38,
        51,
        57
      ],
      "name": "BD_00_029",
      "rotation": [
        0.01873490773141384,
        0.013116160407662392,
        0.041628461331129074,
        0.998871386051178
      ],
      "scale": [
        0.9999998211860657,
        0.9999997615814209,
        0.9999997615814209
      ]
    },
    {
      "children": [
        39,
        50
      ],
      "name": "NK_00_030",
      "rotation": [
        -0.03152156621217728,
        -0.33193597197532654,
        -0.034189723432064056,
        0.9421550631523132
      ],
      "scale": [
        1.0,
        1.0000001192092896,
        1.0
      ],
      "translation": [
        329.18402099609375,
        -3.765981773540261e-06,
        6.055842618479801e-07
      ]
    },
    {
      "children": [
        40,
        41
      ],
      "name": "NK_01_031",
      "rotation": [
        0.004107043147087097,
        -0.029454078525304794,
        0.0013147072168067098,
        0.999556839466095
      ],
      "scale": [
        1.0,
        0.9999998807907104,
        1.0
      ],
      "translation": [
        183.79440307617188,
        -1.4210854715202004e-14,
        -3.875735274050385e-05
      ]
    },
    {
      "name": "NK_101_032",
      "rotation": [
        -8.673617379884035e-19,
        -8.657354347296753e-17,
        1.6263032587282567e-18,
        1.0
      ],
      "translation": [
        108.39337921142578,
        -5.671410008289968e-10,
        -7.058657646179199
      ]
    },
    {
      "children": [
        42
      ],
      "name": "NK_02_033",
      "rotation": [
        0.003349718637764454,
        0.06872148811817169,
        0.001098611974157393,
        0.9976297616958618
      ],
      "scale": [
        0.9999998211860657,
        0.999999463558197,
        0.9999997019767761
      ],
      "translation": [
        257.3121643066406,
        2.422331817797385e-06,
        9.689338185125962e-05
      ]
    },
    {
      "children": [
        43
      ],
      "name": "NK_03_034",
      "rotation": [
        -0.00272411503829062,
        0.2765958905220032,
        -0.004774780943989754,
        0.9609705805778503
      ],
      "scale": [
        1.000000238418579,
        1.0,
        0.9999999403953552
      ],
      "translation": [
        257.3121643066406,
        -2.422331817797385e-06,
        2.842170943040401e-14
      ]
    },
    {
      "children": [
        44
      ],
      "name": "NK_04_035",
      "rotation": [
        0.0010849839309230447,
        0.24546320736408234,
        -0.002180245937779546,
        0.9694028496742249
      ],
      "scale": [
        1.000000238418579,
        1.000000238418579,
        1.0000001192092896
      ],
      "translation": [
        257.3124084472656,
        7.266990451171296e-06,
        -7.75147054810077e-05
      ]
    },
    {
      "children": [
        45
      ],
      "name": "NK_05_036",
      "rotation": [
        0.0003229727444704622,
        0.14811928570270538,
        -0.001202219515107572,
        0.9889687299728394
      ],
      "scale": [
        0.9999997019767761,
        0.9999999403953552,
        1.0
      ],
      "translation": [
        257.3121643066406,
        -2.422331817797385e-06,
        2.2737367544323206e-13
      ]
    },
    {
      "children": [
        46,
        47
      ],
      "name": "NK_06_037",
      "rotation": [
        -0.0017815452301874757,
        -0.13733762502670288,
        0.0006795863155275583,
        0.9905224442481995
      ],
      "scale": [
        0.9999999403953552,
        1.0,
        0.9999999403953552
      ],
      "translation": [
        257.3121643066406,
        -2.422331817797385e-06,
        7.75147054810077e-05
      ]
    },
    {
      "name": "NK_100_038",
      "rotation": [
        8.742270551920228e-08,
        8.742278367890322e-08,
        -2.1073436329288597e-08,
        1.0
      ],
      "scale": [
        1.0,
        1.0000001192092896,
        1.0
      ],
      "translation": [
        125.7296371459961,
        2.368022023802041e-06,
        -160.02000427246094
      ]
    },
    {
      "children": [
        48
      ],
      "name": "NK_07_039",
      "rotation": [
        -0.0032158049289137125,
        -0.025348324328660965,
        0.0005980717251077294,
        0.9996734261512756
      ],
      "scale": [
        1.0,
        1.0000001192092896,
        0.9999998807907104
      ],
      "translation": [
        256.03173828125,
        -7.105427357601002e-15,
        1.1368683772161603e-13
      ]
    },
    {
      "children": [
        49
      ],
      "name": "HD_00_040",
      "rotation": [
        0.019034747034311295,
        -0.10338138788938522,
        -0.0027214069850742817,
        0.9944559335708618
      ],
      "scale": [
        1.000000238418579,
        1.0000001192092896,
        0.9999998807907104
      ],
      "translation": [
        86.86817169189453,
        -3.552713678800501e-15,
        0.0
      ]
    },
    {
      "name": "HD_01_041",
      "rotation": [
        8.16850018736659e-08,
        -0.3007059693336487,
        1.8928188794120615e-08,
        0.9537169933319092
      ],
      "scale": [
        1.0000003576278687,
        1.0,
        0.9999996423721313
      ],
      "translation": [
        52.578025817871094,
        8.612722979250975e-09,
        2.628948211669922
      ]
    },
    {
      "name": "BD_100_042",
      "rotation": [
        8.742280499518529e-08,
        9.005421297558769e-09,
        -1.053671194739536e-08,
        1.0
      ],
      "scale": [
        0.9999996423721313,
        0.9999997019767761,
        0.9999998211860657
      ],
      "translation": [
        63.50006103515625,
        -4.829374120163266e-06,
        -241.30007934570313
      ]
    },
    {
      "children": [
        52,
        53
      ],
      "name": "AR_00_043",
      "rotation": [
        -0.02125495858490467,
        -0.003525295527651906,
        -0.03090381622314453,
        0.9992902278900146
      ],
      "scale": [
        0.9999997019767761,
        0.9999997019767761,
        0.9999996423721313
      ],
      "translation": [
        237.74403381347656,
        -150.8760223388672,
        -114.3000259399414
      ]
    },
    {
      "name": "AR_100_044",
      "rotation": [
        5.9715113021772205e-36,
        -3.4423418976414766e-18,
        1.734723475976807e-18,
        1.0
      ]
    },
    {
      "children": [
        54
      ],
      "name": "AR_01_045",
      "rotation": [
        0.22206351161003113,
        0.23585465550422668,
        0.2516271770000458,
        0.9120000600814819
      ],
      "scale": [
        1.0000001192092896,
        0.9999999403953552,
        0.9999998211860657
      ],
      "translation": [
        22.859960556030273,
        -98.29800415039063,
        43.434024810791016
      ]
    },
    {
      "children": [
        55
      ],
      "name": "AR_02_046",
      "rotation": [
        -1.2475229027586465e-07,
        1.0399678984640559e-07,
        0.09512556344270706,
        0.9954652786254883
      ],
      "scale": [
        0.9999997019767761,
        0.9999999403953552,
        0.9999998807907104
      ],
      "translation": [
        -148.5900421142578,
        -308.6099853515625,
        -6.577592557732714e-06
      ]
    },
    {
      "children": [
        56
      ],
      "name": "AR_03_047",
      "rotation": [
        -0.15771931409835815,
        -0.022602777928113937,
        0.19867029786109924,
        0.9670283794403076
      ],
      "scale": [
        0.9999999403953552,
        1.0,
        1.0000001192092896
      ],
      "translation": [
        148.59005737304688,
        -262.8899841308594,
        2.0685647541540675e-06
      ]
    },
    {
      "name": "AR_04_048",
      "rotation": [
        -0.18860232830047607,
        -0.012946944683790207,
        0.016608400270342827,
        0.9818277359008789
      ],
      "scale": [
        0.9999997019767761,
        0.9999998807907104,
        0.9999999403953552
      ],
      "translation": [
        8.386839181184769e-05,
        -148.59014892578125,
        -2.8968324841116555e-06
      ]
    },
    {
      "children": [
        58,
        59
      ],
      "name": "AL_00_049",
      "rotation": [
        0.028849182650446892,
        -0.028305767104029655,
        0.06878215819597244,
        0.9968127012252808
      ],
      "scale": [
        1.0,
        1.0,
        0.9999998807907104
      ],
      "translation": [
        237.74403381347656,
        150.8760223388672,
        -114.29999542236328
      ]
    },
    {
      "name": "AL_100_050",
      "rotation": [
        -1.3877787807814457e-17,
        -1.734723475976807e-18,
        -2.407412430484045e-35,
        1.0
      ]
    },
    {
      "children": [
        60
      ],
      "name": "AL_01_051",
      "rotation": [
        -0.3337792754173279,
        0.3589652180671692,
        0.05982733145356178,
        0.8695723414421082
      ],
      "scale": [
        1.0,
        1.0,
        0.9999997615814209
      ],
      "translation": [
        22.860017776489258,
        98.29800415039063,
        43.43400192260742
      ]
    },
    {
      "children": [
        61
      ],
      "name": "AL_02_052",
      "rotation": [
        -1.4099593670380273e-07,
        -3.827982908433114e-08,
        -0.4059181213378906,
        0.9139094352722168
      ],
      "scale": [
        1.0000001192092896,
        0.9999998807907104,
        0.9999999403953552
      ],
      "translation": [
        -148.5900421142578,
        308.6099853515625,
        -4.580501263262704e-05
      ]
    },
    {
      "children": [
        62
      ],
      "name": "AL_03_053",
      "rotation": [
        0.1264590471982956,
        -0.016617301851511,
        -0.20731930434703827,
        0.9699230194091797
      ],
      "scale": [
        1.0000001192092896,
        0.9999999403953552,
        0.9999997019767761
      ],
      "translation": [
        148.59002685546875,
        262.8899841308594,
        4.924883978674188e-05
      ]
    },
    {
      "name": "AL_04_054",
      "rotation": [
        0.2908518612384796,
        0.12743617594242096,
        0.037656184285879135,
        0.9474953413009644
      ],
      "scale": [
        1.0000001192092896,
        1.0000001192092896,
        0.9999996423721313
      ],
      "translation": [
        -2.395380215602927e-05,
        148.58995056152344,
        -4.1104682168224826e-05
      ]
    },
    {
      "children": [
        64
      ],
      "name": "Cinema_4D_Editor",
      "rotation": [
        -0.0235920250415802,
        0.9320253729820251,
        0.009150735102593899,
        -0.36150848865509033
      ],
      "translation": [
        5631.7158203125,
        641.793212890625,
        -5524.47607421875
      ]
    },
    {
      "name": "Object_64"
    },
    {
      "name": "em019",
      "rotation": [
        -0.7071068286895752,
        0.0,
        0.0,
        0.7071068286895752
      ]
    }
  ],
  "samplers": [
    {
      "magFilter": 9729,
      "minFilter": 9987,
      "wrapS": 10497,
      "wrapT": 10497
    }
  ],
  "scene": 0,
  "scenes": [
    {
      "name": "Sketchfab_Scene",
      "nodes": [
        0
      ]
    }
  ],
  "skins": [
    {
      "inverseBindMatrices": 5,
      "joints": [
        5,
        8,
        9,
        10,
        11,
        12,
        13,
        14,
        15,
        16,
        17,
        18,
        19,
        20,
        21,
        22,
        23,
        24,
        25,
        26,
        27,
        28,
        29,
        30,
        31,
        32,
        33,
        34,
        35,
        36,
        37,
        38,
        39,
        40,
        41,
        42,
        43,
        44,
        45,
        46,
        47,
        48,
        49,
        50,
        51,
        52,
        53,
        54,
        55,
        56,
        57,
        58,
        59,
        60,
        61,
        62
      ],
      "skeleton": 5
    }
  ],
  "textures": [
    {
      "sampler": 0,
      "source": 0
    },
    {
      "sampler": 0,
      "source": 1
    }
  ]
}
