{
  "accessors": [
    {
      "bufferView": 2,
      "componentType": 5126,
      "count": 65532,
      "max": [
        0.7513034343719482,
        0.01330472156405449,
        1.0330421924591064
      ],
      "min": [
        -0.7513034343719482,
        -0.2575656473636627,
        -1.0330421924591064
      ],
      "type": "VEC3"
    },
    {
      "bufferView": 2,
      "byteOffset": 786384,
      "componentType": 5126,
      "count": 65532,
      "max": [
        0.607534646987915,
        0.9999140501022339,
        0.8919951915740967
      ],
      "min": [
        -0.6075226068496704,
        -0.9999139904975891,
        -0.892026424407959
      ],
      "type": "VEC3"
    },
    {
      "bufferView": 1,
      "componentType": 5126,
      "count": 65532,
      "max": [
        1.0012712478637695,
        1.001271367073059
      ],
      "min": [
        -0.0012711200397461653,
        -0.001271120272576809
      ],
      "type": "VEC2"
    },
    {
      "bufferView": 0,
      "componentType": 5125,
      "count": 98298,
      "type": "SCALAR"
    },
    {
      "bufferView": 2,
      "byteOffset": 1572768,
      "componentType": 5126,
      "count": 65532,
      "max": [
        1.0830568075180054,
        0.01330472156405449,
        1.0759538412094116
      ],
      "min": [
        -1.0830568075180054,
        -0.278104692697525,
        -1.0759538412094116
      ],
      "type": "VEC3"
    },
    {
      "bufferView": 2,
      "byteOffset": 2359152,
      "componentType": 5126,
      "count": 65532,
      "max": [
        0.999732494354248,
        0.9999813437461853,
        0.8901382088661194
      ],
      "min": [
        -0.999732494354248,
        -0.9999814629554749,
        -0.8859735131263733
      ],
      "type": "VEC3"
    },
    {
      "bufferView": 1,
      "byteOffset": 524256,
      "componentType": 5126,
      "count": 65532,
      "max": [
        1.001271367073059,
        1.0012712478637695
      ],
      "min": [
        0.0,
        -0.0012711200397461653
      ],
      "type": "VEC2"
    },
    {
      "bufferView": 0,
      "byteOffset": 393192,
      "componentType": 5125,
      "count": 98298,
      "type": "SCALAR"
    },
    {
      "bufferView": 2,
      "byteOffset": 3145536,
      "componentType": 5126,
      "count": 65532,
      "max": [
        1.0759538412094116,
        0.01617186889052391,
        1.0830568075180054
      ],
      "min": [
        -1.075953722000122,
        -0.280971884727478,
        -1.0830568075180054
      ],
      "type": "VEC3"
    },
    {
      "bufferView": 2,
      "byteOffset": 3931920,
      "componentType": 5126,
      "count": 65532,
      "max": [
        0.8901506662368774,
        1.0,
        0.999732494354248
      ],
      "min": [
        -0.8859562277793884,
        -0.9999999403953552,
        -0.999732494354248
      ],
      "type": "VEC3"
    },
    {
      "bufferView": 1,
      "byteOffset": 1048512,
      "componentType": 5126,
      "count": 65532,
      "max": [
        1.0000001192092896,
        1.0012712478637695
      ],
      "min": [
        -0.0012711132876574993,
        -0.0012711130548268557
      ],
      "type": "VEC2"
    },
    {
      "bufferView": 0,
      "byteOffset": 786384,
      "componentType": 5125,
      "count": 98298,
      "type": "SCALAR"
    },
    {
      "bufferView": 2,
      "byteOffset": 4718304,
      "componentType": 5126,
      "count": 24588,
      "max": [
        1.0330421924591064,
        -0.007234347518533468,
        0.7513034343719482
      ],
      "min": [
        -1.0330421924591064,
        -0.2575656473636627,
        -0.7513034343719482
      ],
      "type": "VEC3"
    },
    {
      "bufferView": 2,
      "byteOffset": 5013360,
      "componentType": 5126,
      "count": 24588,
      "max": [
        0.8920378684997559,
        0.9999141693115234,
        0.6075215935707092
      ],
      "min": [
        -0.4167499840259552,
        -0.9999138712882996,
        -0.6075337529182434
      ],
      "type": "VEC3"
    },
    {
      "bufferView": 1,
      "byteOffset": 1572768,
      "componentType": 5126,
      "count": 24588,
      "max": [
        1.0000001192092896,
        1.0012712478637695
      ],
      "min": [
        -0.001271120272576809,
        -0.0012711199233308434
      ],
      "type": "VEC2"
    },
    {
      "bufferView": 0,
      "byteOffset": 1179576,
      "componentType": 5125,
      "count": 36882,
      "type": "SCALAR"
    },
    {
      "bufferView": 2,
      "byteOffset": 5308416,
      "componentType": 5126,
      "count": 9455,
      "max": [
        1.388597846031189,
        8.491762161254883,
        1.9401158094406128
      ],
      "min": [
        -2.8001255989074707,
        -0.708709716796875,
        -1.4734687805175781
      ],
      "type": "VEC3"
    },
    {
      "bufferView": 2,
      "byteOffset": 5421876,
      "componentType": 5126,
      "count": 9455,
      "max": [
        0.9999790787696838,
        0.9987968802452087,
        0.9999569058418274
      ],
      "min": [
        -0.9999438524246216,
        -0.9971429705619812,
        -0.9998716115951538
      ],
      "type": "VEC3"
    },
    {
      "bufferView": 1,
      "byteOffset": 1769472,
      "componentType": 5126,
      "count": 9455,
      "max": [
        0.4763455390930176,
        1.0000001192092896
      ],
      "min": [
        0.0,
        0.0
      ],
      "type": "VEC2"
    },
    {
      "bufferView": 0,
      "byteOffset": 1327104,
      "componentType": 5125,
      "count": 56166,
      "type": "SCALAR"
    },
    {
      "bufferView": 2,
      "byteOffset": 5535336,
      "componentType": 5126,
      "count": 44783,
      "max": [
        2.518256664276123,
        2.7338147163391113,
        3.2861104011535645
      ],
      "min": [
        -2.4454610347747803,
        -0.8349791765213013,
        -2.6682422161102295
      ],
      "type": "VEC3"
    },
    {
      "bufferView": 2,
      "byteOffset": 6072732,
      "componentType": 5126,
      "count": 44783,
      "max": [
        0.9998511672019958,
        0.9999574422836304,
        0.9999969601631165
      ],
      "min": [
        -0.99993896484375,
        -0.9999904632568359,
        -0.9999160766601563
      ],
      "type": "VEC3"
    },
    {
      "bufferView": 1,
      "byteOffset": 1845112,
      "componentType": 5126,
      "count": 44783,
      "max": [
        0.0,
        0.0
      ],
      "min": [
        0.0,
        0.0
      ],
      "type": "VEC2"
    },
    {
      "bufferView": 0,
      "byteOffset": 1551768,
      "componentType": 5125,
      "count": 268686,
      "type": "SCALAR"
    }
  ],
  "asset": {
    "extras": {
      "author": "Hello1297 (https://sketchfab.com/zarinakismo)",
      "license": "CC-BY-4.0 (http://creativecommons.org/licenses/by/4.0/)",
      "source": "https://sketchfab.com/3d-models/tree-monster-1f0078b18e834ddc8bd604238ff75ed3",
      "title": "Tree Monster"
    },
    "generator": "Sketchfab-15.27.0",
    "version": "2.0"
  },
  "bufferViews": [
    {
      "buffer": 0,
      "byteLength": 2626512,
      "name": "floatBufferViews",
      "target": 34963
    },
    {
      "buffer": 0,
      "byteLength": 2203376,
      "byteOffset": 2626512,
      "byteStride": 8,
      "name": "floatBufferViews",
      "target": 34962
    },
    {
      "buffer": 0,
      "byteLength": 6610128,
      "byteOffset": 4829888,
      "byteStride": 12,
      "name": "floatBufferViews",
      "target": 34962
    }
  ],
  "buffers": [
    {
      "byteLength": 11440016,
      "uri": "scene.bin"
    }
  ],
  "materials": [
    {
      "doubleSided": true,
      "name": "Material.002",
      "pbrMetallicRoughness": {
        "baseColorFactor": [
          0.8,
          0.482187,
          0.00682566,
          1.0
        ],
        "metallicFactor": 0.0,
        "roughnessFactor": 0.5
      }
    },
    {
      "doubleSided": true,
      "name": "Material.001"
    },
    {
      "doubleSided": true,
      "name": "Material",
      "pbrMetallicRoughness": {
        "baseColorFactor": [
          0.0668065,
          0.0280258,
          0.0087468,
          1.0
        ],
        "metallicFactor": 0.0,
        "roughnessFactor": 0.5
      }
    }
  ],
  "meshes": [
    {
      "name": "Object_0",
      "primitives": [
        {
          "attributes": {
            "NORMAL": 1,
            "POSITION": 0,
            "TEXCOORD_0": 2
          },
          "indices": 3,
          "material": 0,
          "mode": 4
        }
      ]
    },
    {
      "name": "Object_1",
      "primitives": [
        {
          "attributes": {
            "NORMAL": 5,
            "POSITION": 4,
            "TEXCOORD_0": 6
          },
          "indices": 7,
          "material": 0,
          "mode": 4
        }
      ]
    },
    {
      "name": "Object_2",
      "primitives": [
        {
          "attributes": {
            "NORMAL": 9,
            "POSITION": 8,
            "TEXCOORD_0": 10
          },
          "indices": 11,
          "material": 0,
          "mode": 4
        }
      ]
    },
    {
      "name": "Object_3",
      "primitives": [
        {
          "attributes": {
            "NORMAL": 13,
            "POSITION": 12,
            "TEXCOORD_0": 14
          },
          "indices": 15,
          "material": 0,
          "mode": 4
        }
      ]
    },
    {
      "name": "Object_4",
      "primitives": [
        {
          "attributes": {
            "NORMAL": 17,
            "POSITION": 16,
            "TEXCOORD_0": 18
          },
          "indices": 19,
          "material": 1,
          "mode": 4
        }
      ]
    },
    {
      "name": "Object_5",
      "primitives": [
        {
          "attributes": {
            "NORMAL": 21,
            "POSITION": 20,
            "TEXCOORD_0": 22
          },
          "indices": 23,
          "material": 2,
          "mode": 4
        }
      ]
    }
  ],
  "nodes": [
    {
      "children": [
        1
      ],
      "matrix": [
        1.0,
        0.0,
        0.0,
        0.0,
        0.0,
        2.220446049250313e-16,
        -1.0,
        0.0,
        0.0,
        1.0,
        2.220446049250313e-16,
        0.0,
        0.0,
        0.0,
        0.0,
        1.0
      ],
      "name": "Sketchfab_model"
    },
    {
      "children": [
        2
      ],
      "name": "root"
    },
    {
      "children": [
        3,
        8,
        10
      ],
      "matrix": [
        1.0,
        0.0,
        0.0,
        0.0,
        0.0,
        2.220446049250313e-16,
        1.0,
        0.0,
        0.0,
        -1.0,
        2.220446049250313e-16,
        0.0,
        0.0,
        0.0,
        0.0,
        1.0
      ],
      "name": "GLTF_SceneRootNode"
    },
    {
      "children": [
        4,
        5,
        6,
        7
      ],
      "matrix": [
        5.061537742614746,
        0.0,
        0.0,
        0.0,
        0.0,
        14.342824935913086,
        0.0,
        0.0,
        0.0,
        0.0,
        5.061537742614746,
        0.0,
        0.0,
        -1.313450574874878,
        0.0,
        1.0
      ],
      "name": "Plane_0"
    },
    {
      "mesh": 0,
      "name": "Object_4"
    },
    {
      "mesh": 1,
      "name": "Object_5"
    },
    {
      "mesh": 2,
      "name": "Object_6"
    },
    {
      "mesh": 3,
      "name": "Object_7"
    },
    {
      "children": [
        9
      ],
      "matrix": [
        0.38264191150665283,
        0.0,
        0.0,
        0.0,
        0.0,
        0.38264191150665283,
        0.0,
        0.0,
        0.0,
        0.0,
        0.38264191150665283,
        0.0,
        -0.15622210502624512,
        1.8713319301605225,
        0.0,
        1.0
      ],
      "name": "Cube.001_1"
    },
    {
      "mesh": 4,
      "name": "Object_9"
    },
    {
      "children": [
        11
      ],
      "matrix": [
        1.3192459344863892,
        0.0,
        0.0,
        0.0,
        0.0,
        1.3192459344863892,
        0.0,
        0.0,
        0.0,
        0.0,
        1.3192459344863892,
        0.0,
        0.0,
        -0.5348210334777832,
        0.0,
        1.0
      ],
      "name": "Cube_2"
    },
    {
      "mesh": 5,
      "name": "Object_11"
    }
  ],
  "scene": 0,
  "scenes": [
    {
      "name": "Sketchfab_Scene",
      "nodes": [
        0
      ]
    }
  ]
}
