{
  "accessors": [
    {
      "bufferView": 3,
      "componentType": 5126,
      "count": 266,
      "max": [
        2.1101691722869873,
        4.057783126831055,
        2.468020439147949
      ],
      "min": [
        -2.1101691722869873,
        -0.8354612588882446,
        -3.1647984981536865
      ],
      "type": "VEC3"
    },
    {
      "bufferView": 3,
      "byteOffset": 3192,
      "componentType": 5126,
      "count": 266,
      "max": [
        0.9917009472846985,
        0.9997923970222473,
        0.9954373240470886
      ],
      "min": [
        -0.9917010068893433,
        -0.9986623525619507,
        -0.9993815422058105
      ],
      "type": "VEC3"
    },
    {
      "bufferView": 4,
      "componentType": 5126,
      "count": 266,
      "max": [
        1.0,
        0.9826303720474243,
        0.9916027188301086,
        1.0
      ],
      "min": [
        -1.0,
        -0.9618212580680847,
        -0.9951748251914978,
        1.0
      ],
      "type": "VEC4"
    },
    {
      "bufferView": 2,
      "componentType": 5126,
      "count": 266,
      "max": [
        0.9954333901405334,
        0.992936909198761
      ],
      "min": [
        0.004337377846240997,
        0.011788558214902878
      ],
      "type": "VEC2"
    },
    {
      "bufferView": 1,
      "componentType": 5125,
      "count": 1224,
      "type": "SCALAR"
    },
    {
      "bufferView": 5,
      "componentType": 5126,
      "count": 4,
      "max": [
        100.0,
        1.6298375982159996e-09,
        0.010069605894386768,
        0.0,
        0.010069605894386768,
        100.00000762939453,
        1.000000238418579,
        0.0,
        1.6298148386439948e-09,
        1.000000238418579,
        100.00000762939453,
        0.0,
        0.0,
        0.3103480041027069,
        0.0,
        1.0
      ],
      "min": [
        -1.0000001192092896,
        -0.012186951003968716,
        -1.1187515269739379e-07,
        0.0,
        -1.1187515269739379e-07,
        -2.0326122296410176e-07,
        0.0,
        0.0,
        -0.012186950072646141,
        -0.188486248254776,
        2.0326122296410176e-07,
        0.0,
        -0.02006596513092518,
        0.0,
        -1.6168898344039917,
        1.0
      ],
      "type": "MAT4"
    },
    {
      "bufferView": 0,
      "componentType": 5123,
      "count": 266,
      "type": "VEC4"
    },
    {
      "bufferView": 4,
      "byteOffset": 4256,
      "componentType": 5126,
      "count": 266,
      "max": [
        1.0,
        0.0,
        0.0,
        0.0
      ],
      "min": [
        1.0,
        0.0,
        0.0,
        0.0
      ],
      "type": "VEC4"
    },
    {
      "bufferView": 6,
      "componentType": 5126,
      "count": 4,
      "max": [
        2.0833332538604736
      ],
      "min": [
        0.0416666679084301
      ],
      "type": "SCALAR"
    },
    {
      "bufferView": 7,
      "componentType": 5126,
      "count": 4,
      "max": [
        0.9999999403953552,
        0.9999999403953552,
        0.9999999403953552
      ],
      "min": [
        0.9999999403953552,
        0.9999999403953552,
        0.9999998807907104
      ],
      "type": "VEC3"
    },
    {
      "bufferView": 6,
      "byteOffset": 16,
      "componentType": 5126,
      "count": 57,
      "max": [
        2.0833332538604736
      ],
      "min": [
        0.0416666679084301
      ],
      "type": "SCALAR"
    },
    {
      "bufferView": 8,
      "componentType": 5126,
      "count": 57,
      "max": [
        0.004055728204548359,
        0.942233681678772,
        0.7845935225486755,
        0.007904558442533016
      ],
      "min": [
        -0.00017256681167054921,
        0.6199601292610168,
        0.33486291766166687,
        0.006784799043089151
      ],
      "type": "VEC4"
    },
    {
      "bufferView": 6,
      "byteOffset": 244,
      "componentType": 5126,
      "count": 1,
      "max": [
        0.0416666679084301
      ],
      "min": [
        0.0416666679084301
      ],
      "type": "SCALAR"
    },
    {
      "bufferView": 8,
      "byteOffset": 912,
      "componentType": 5126,
      "count": 1,
      "max": [
        0.6369414329528809,
        -5.7866093861047574e-11,
        0.007904655300080776,
        0.7708716988563538
      ],
      "min": [
        0.6369414329528809,
        -5.7866093861047574e-11,
        0.007904655300080776,
        0.7708716988563538
      ],
      "type": "VEC4"
    }
  ],
  "animations": [
    {
      "channels": [
        {
          "sampler": 0,
          "target": {
            "node": 8,
            "path": "scale"
          }
        },
        {
          "sampler": 1,
          "target": {
            "node": 8,
            "path": "rotation"
          }
        },
        {
          "sampler": 2,
          "target": {
            "node": 7,
            "path": "rotation"
          }
        }
      ],
      "name": "Scene",
      "samplers": [
        {
          "input": 8,
          "interpolation": "LINEAR",
          "output": 9
        },
        {
          "input": 10,
          "interpolation": "LINEAR",
          "output": 11
        },
        {
          "input": 12,
          "interpolation": "LINEAR",
          "output": 13
        }
      ]
    }
  ],
  "asset": {
    "extras": {
      "author": "ArtLeaving (https://sketchfab.com/aptyphawk22)",
      "license": "CC-BY-4.0 (http://creativecommons.org/licenses/by/4.0/)",
      "source": "https://sketchfab.com/3d-models/helmet-no11-859e173fa35d44ca853a2ef1a3c4e90b",
      "title": "Helmet №11"
    },
    "generator": "Sketchfab-12.68.0",
    "version": "2.0"
  },
  "bufferViews": [
    {
      "buffer": 0,
      "byteLength": 2128,
      "byteStride": 8,
      "name": "shortBufferViews",
      "target": 34962
    },
    {
      "buffer": 0,
      "byteLength": 4896,
      "byteOffset": 2128,
      "name": "floatBufferViews",
      "target": 34963
    },
    {
      "buffer": 0,
      "byteLength": 2128,
      "byteOffset": 7024,
      "byteStride": 8,
      "name": "floatBufferViews",
      "target": 34962
    },
    {
      "buffer": 0,
      "byteLength": 6384,
      "byteOffset": 9152,
      "byteStride": 12,
      "name": "floatBufferViews",
      "target": 34962
    },
    {
      "buffer": 0,
      "byteLength": 8512,
      "byteOffset": 15536,
      "byteStride": 16,
      "name": "floatBufferViews",
      "target": 34962
    },
    {
      "buffer": 0,
      "byteLength": 256,
      "byteOffset": 24048,
      "name": "floatBufferViews"
    },
    {
      "buffer": 0,
      "byteLength": 248,
      "byteOffset": 24304,
      "name": "floatBufferViews"
    },
    {
      "buffer": 0,
      "byteLength": 48,
      "byteOffset": 24552,
      "byteStride": 12,
      "name": "floatBufferViews"
    },
    {
      "buffer": 0,
      "byteLength": 928,
      "byteOffset": 24600,
      "byteStride": 16,
      "name": "floatBufferViews"
    }
  ],
  "buffers": [
    {
      "byteLength": 25528,
      "uri": "scene.bin"
    }
  ],
  "images": [
    {
      "uri": "textures/Mesh_0170.rip_baseColor.png"
    },
    {
      "uri": "textures/Mesh_0170.rip_metallicRoughness.png"
    },
    {
      "uri": "textures/Mesh_0170.rip_normal.png"
    }
  ],
  "materials": [
    {
      "doubleSided": true,
      "name": "Mesh_0170.rip",
      "normalTexture": {
        "index": 2
      },
      "occlusionTexture": {
        "index": 1
      },
      "pbrMetallicRoughness": {
        "baseColorTexture": {
          "index": 0
        },
        "metallicRoughnessTexture": {
          "index": 1
        }
      }
    }
  ],
  "meshes": [
    {
      "name": "helm 11_Mesh_0170.rip_0",
      "primitives": [
        {
          "attributes": {
            "JOINTS_0": 6,
            "NORMAL": 1,
            "POSITION": 0,
            "TANGENT": 2,
            "TEXCOORD_0": 3,
            "WEIGHTS_0": 7
          },
          "indices": 4,
          "material": 0,
          "mode": 4
        }
      ]
    }
  ],
  "nodes": [
    {
      "children": [
        1
      ],
      "matrix": [
        1.6437708139419556,
        0.0,
        0.0,
        0.0,
        0.0,
        3.6499044096903867e-16,
        -1.6437708139419556,
        0.0,
        0.0,
        1.6437708139419556,
        3.6499044096903867e-16,
        0.0,
        0.0,
        0.0,
        0.0,
        1.0
      ],
      "name": "Sketchfab_model"
    },
    {
      "children": [
        2
      ],
      "matrix": [
        1.0,
        0.0,
        0.0,
        0.0,
        0.0,
        0.0,
        1.0,
        0.0,
        0.0,
        -1.0,
        0.0,
        0.0,
        0.0,
        0.0,
        0.0,
        1.0
      ],
      "name": "Helm11.fbx"
    },
    {
      "children": [
        3
      ],
      "name": "Object_2"
    },
    {
      "children": [
        4,
        12
      ],
      "name": "RootNode"
    },
    {
      "children": [
        5
      ],
      "name": "Armature",
      "rotation": [
        -0.7071068286895752,
        0.0,
        0.0,
        0.7071067094802856
      ],
      "scale": [
        100.0,
        100.0,
        100.0
      ]
    },
    {
      "children": [
        6,
        11,
        10
      ],
      "name": "Object_5"
    },
    {
      "children": [
        7
      ],
      "name": "_rootJoint"
    },
    {
      "children": [
        8
      ],
      "name": "Bone_00",
      "rotation": [
        0.6369414329528809,
        -1.3415357713597587e-10,
        0.007904655300080776,
        0.7708716988563538
      ],
      "scale": [
        0.9999999403953552,
        0.9999998807907104,
        0.9999999403953552
      ]
    },
    {
      "children": [
        9
      ],
      "name": "Bone.001_01",
      "rotation": [
        0.004055712837725878,
        0.942233681678772,
        0.33486291766166687,
        0.006784837692975998
      ],
      "scale": [
        0.9999999403953552,
        0.9999999403953552,
        0.9999998807907104
      ],
      "translation": [
        -1.6298145055770874e-09,
        1.6465269327163696,
        -2.820161171257496e-08
      ]
    },
    {
      "name": "Bone.001_end_02",
      "rotation": [
        2.7755575615628914e-17,
        9.926167350636332e-24,
        -1.6543612251060553e-24,
        1.0
      ],
      "translation": [
        -3.469446951953614e-18,
        2.5956482887268066,
        0.0
      ]
    },
    {
      "matrix": [
        100.00000335491112,
        -1.0204585265682908e-07,
        9.5607777694795e-08,
        0.0,
        1.0204584416439942e-07,
        100.00001045206776,
        1.6457640089839773e-05,
        0.0,
        -9.560780147108724e-08,
        -1.6457640123570593e-05,
        100.000010657616,
        0.0,
        0.0,
        0.0,
        0.0,
        1.0
      ],
      "name": "Object_10"
    },
    {
      "mesh": 0,
      "name": "Object_11",
      "skin": 0
    },
    {
      "name": "helm 11",
      "rotation": [
        8.146033536604591e-08,
        0.0,
        0.0,
        1.0
      ],
      "scale": [
        100.0,
        100.0,
        100.0
      ]
    }
  ],
  "samplers": [
    {
      "magFilter": 9729,
      "minFilter": 9987,
      "wrapS": 10497,
      "wrapT": 10497
    }
  ],
  "scene": 0,
  "scenes": [
    {
      "name": "Sketchfab_Scene",
      "nodes": [
        0
      ]
    }
  ],
  "skins": [
    {
      "inverseBindMatrices": 5,
      "joints": [
        6,
        7,
        8,
        9
      ],
      "skeleton": 6
    }
  ],
  "textures": [
    {
      "sampler": 0,
      "source": 0
    },
    {
      "sampler": 0,
      "source": 1
    },
    {
      "sampler": 0,
      "source": 2
    }
  ]
}
