{
  "accessors": [
    {
      "bufferView": 2,
      "componentType": 5126,
      "count": 2331,
      "max": [
        0.5806363821029663,
        0.5806363821029663,
        0.6785064935684204
      ],
      "min": [
        -0.5806363821029663,
        -0.5806363821029663,
        -0.7560701370239258
      ],
      "type": "VEC3"
    },
    {
      "bufferView": 2,
      "byteOffset": 27972,
      "componentType": 5126,
      "count": 2331,
      "max": [
        1.0,
        1.0,
        1.0
      ],
      "min": [
        -1.0,
        -1.0,
        -1.0
      ],
      "type": "VEC3"
    },
    {
      "bufferView": 1,
      "componentType": 5126,
      "count": 2331,
      "max": [
        1.0,
        1.0
      ],
      "min": [
        0.0,
        -1.1102230246251565e-16
      ],
      "type": "VEC2"
    },
    {
      "bufferView": 0,
      "componentType": 5125,
      "count": 3540,
      "type": "SCALAR"
    },
    {
      "bufferView": 2,
      "byteOffset": 55944,
      "componentType": 5126,
      "count": 2050,
      "max": [
        0.3765484392642975,
        0.20190118253231049,
        2.556774377822876
      ],
      "min": [
        -0.2719516456127167,
        -0.20190124213695526,
        0.21961098909378052
      ],
      "type": "VEC3"
    },
    {
      "bufferView": 2,
      "byteOffset": 80544,
      "componentType": 5126,
      "count": 2050,
      "max": [
        0.9930258393287659,
        0.999869167804718,
        0.9562511444091797
      ],
      "min": [
        -0.9986242651939392,
        -0.9929761290550232,
        -0.9394866824150085
      ],
      "type": "VEC3"
    },
    {
      "bufferView": 1,
      "byteOffset": 18648,
      "componentType": 5126,
      "count": 2050,
      "max": [
        0.19318224489688873,
        0.8065264225006104
      ],
      "min": [
        0.06399205327033997,
        0.2617920935153961
      ],
      "type": "VEC2"
    },
    {
      "bufferView": 0,
      "byteOffset": 14160,
      "componentType": 5125,
      "count": 2874,
      "type": "SCALAR"
    }
  ],
  "asset": {
    "extras": {
      "author": "Liberi Arcano (https://sketchfab.com/LiberiArcano)",
      "license": "CC-BY-4.0 (http://creativecommons.org/licenses/by/4.0/)",
      "source": "https://sketchfab.com/3d-models/swordtember-2022-day-17-b-fire-stone-cb3b3d3c91a84cc1a15addbfbf41f8c8",
      "title": "Swordtember 2022 Day 17-B: Fire & Stone"
    },
    "generator": "Sketchfab-14.1.2",
    "version": "2.0"
  },
  "bufferViews": [
    {
      "buffer": 0,
      "byteLength": 25656,
      "name": "floatBufferViews",
      "target": 34963
    },
    {
      "buffer": 0,
      "byteLength": 35048,
      "byteOffset": 25656,
      "byteStride": 8,
      "name": "floatBufferViews",
      "target": 34962
    },
    {
      "buffer": 0,
      "byteLength": 105144,
      "byteOffset": 60704,
      "byteStride": 12,
      "name": "floatBufferViews",
      "target": 34962
    }
  ],
  "buffers": [
    {
      "byteLength": 165848,
      "uri": "scene.bin"
    }
  ],
  "images": [
    {
      "uri": "textures/Sword_Flame_baseColor.png"
    }
  ],
  "materials": [
    {
      "doubleSided": true,
      "name": "Sword_Stone",
      "pbrMetallicRoughness": {
        "baseColorFactor": [
          0.02911849717972865,
          0.01731027173334704,
          0.024179783722147793,
          1.0
        ],
        "metallicFactor": 0.0
      }
    },
    {
      "doubleSided": true,
      "emissiveFactor": [
        1.0,
        0.18328630399150878,
        0.0
      ],
      "name": "Sword_Flame",
      "pbrMetallicRoughness": {
        "baseColorTexture": {
          "index": 0
        },
        "metallicFactor": 0.0
      }
    }
  ],
  "meshes": [
    {
      "name": "Cylinder.002_Sword_Stone_0",
      "primitives": [
        {
          "attributes": {
            "NORMAL": 1,
            "POSITION": 0,
            "TEXCOORD_0": 2
          },
          "indices": 3,
          "material": 0,
          "mode": 4
        }
      ]
    },
    {
      "name": "Cylinder.002_Sword_Flame_0",
      "primitives": [
        {
          "attributes": {
            "NORMAL": 5,
            "POSITION": 4,
            "TEXCOORD_0": 6
          },
          "indices": 7,
          "material": 1,
          "mode": 4
        }
      ]
    }
  ],
  "nodes": [
    {
      "children": [
        1
      ],
      "matrix": [
        1.0,
        0.0,
        0.0,
        0.0,
        0.0,
        2.220446049250313e-16,
        -1.0,
        0.0,
        0.0,
        1.0,
        2.220446049250313e-16,
        0.0,
        0.0,
        0.0,
        0.0,
        1.0
      ],
      "name": "Sketchfab_model"
    },
    {
      "children": [
        2
      ],
      "matrix": [
        1.0,
        0.0,
        0.0,
        0.0,
        0.0,
        0.0,
        1.0,
        0.0,
        0.0,
        -1.0,
        0.0,
        0.0,
        0.0,
        0.0,
        0.0,
        1.0
      ],
      "name": "e64422d6dded4f3a925f86a7e0b74da1.fbx"
    },
    {
      "children": [
        3
      ],
      "name": "RootNode"
    },
    {
      "children": [
        4,
        5
      ],
      "matrix": [
        70.71068618270486,
        -70.7106808441968,
        -1.1681584946856942e-05,
        0.0,
        -1.9780358900822748e-05,
        -3.2601051858094365e-06,
        -99.999999999998,
        0.0,
        70.710680844195,
        70.71068618270577,
        -1.6292069204373744e-05,
        0.0,
        0.0,
        -6.290888786315918,
        0.0,
        1.0
      ],
      "name": "Cylinder.002"
    },
    {
      "mesh": 0,
      "name": "Cylinder.002_Sword_Stone_0"
    },
    {
      "mesh": 1,
      "name": "Cylinder.002_Sword_Flame_0"
    }
  ],
  "samplers": [
    {
      "magFilter": 9729,
      "minFilter": 9987,
      "wrapS": 10497,
      "wrapT": 10497
    }
  ],
  "scene": 0,
  "scenes": [
    {
      "name": "Sketchfab_Scene",
      "nodes": [
        0
      ]
    }
  ],
  "textures": [
    {
      "sampler": 0,
      "source": 0
    }
  ]
}
