{
  "accessors": [
    {
      "bufferView": 2,
      "componentType": 5126,
      "count": 1476,
      "max": [
        0.06522399932146072,
        0.06148200109601021,
        0.2803730070590973
      ],
      "min": [
        -0.06488200277090073,
        -0.06108900159597397,
        0.0
      ],
      "type": "VEC3"
    },
    {
      "bufferView": 2,
      "byteOffset": 17712,
      "componentType": 5126,
      "count": 1476,
      "max": [
        0.9999687671661377,
        0.9966580271720886,
        0.9999998807907104
      ],
      "min": [
        -0.9998779296875,
        -0.9959125518798828,
        -0.9999982118606567
      ],
      "type": "VEC3"
    },
    {
      "bufferView": 3,
      "componentType": 5126,
      "count": 1476,
      "max": [
        0.9990543723106384,
        0.9999994039535522,
        0.9965137243270874,
        1.0
      ],
      "min": [
        -0.9969043731689453,
        -0.9998742341995239,
        -0.9885792136192322,
        1.0
      ],
      "type": "VEC4"
    },
    {
      "bufferView": 1,
      "componentType": 5126,
      "count": 1476,
      "max": [
        0.9701189994812012,
        0.989005982875824
      ],
      "min": [
        0.009650999680161476,
        0.009650000371038914
      ],
      "type": "VEC2"
    },
    {
      "bufferView": 0,
      "componentType": 5125,
      "count": 8136,
      "type": "SCALAR"
    }
  ],
  "asset": {
    "extras": {
      "author": "Eleanie (https://sketchfab.com/Eleanie)",
      "license": "CC-BY-4.0 (http://creativecommons.org/licenses/by/4.0/)",
      "source": "https://sketchfab.com/3d-models/ancient-vase-4bb5d53be21d4cbd9bf39fc4a8043cac",
      "title": "Ancient vase"
    },
    "generator": "Sketchfab-16.65.0",
    "version": "2.0"
  },
  "bufferViews": [
    {
      "buffer": 0,
      "byteLength": 32544,
      "name": "floatBufferViews",
      "target": 34963
    },
    {
      "buffer": 0,
      "byteLength": 11808,
      "byteOffset": 32544,
      "byteStride": 8,
      "name": "floatBufferViews",
      "target": 34962
    },
    {
      "buffer": 0,
      "byteLength": 35424,
      "byteOffset": 44352,
      "byteStride": 12,
      "name": "floatBufferViews",
      "target": 34962
    },
    {
      "buffer": 0,
      "byteLength": 23616,
      "byteOffset": 79776,
      "byteStride": 16,
      "name": "floatBufferViews",
      "target": 34962
    }
  ],
  "buffers": [
    {
      "byteLength": 103392,
      "uri": "scene.bin"
    }
  ],
  "images": [
    {
      "uri": "textures/NOMAL_VASE_baseColor.png"
    },
    {
      "uri": "textures/NOMAL_VASE_metallicRoughness.png"
    },
    {
      "uri": "textures/NOMAL_VASE_normal.png"
    }
  ],
  "materials": [
    {
      "doubleSided": true,
      "name": "NOMAL_VASE",
      "normalTexture": {
        "index": 2
      },
      "pbrMetallicRoughness": {
        "baseColorTexture": {
          "index": 0
        },
        "metallicFactor": 0.0,
        "metallicRoughnessTexture": {
          "index": 1
        }
      }
    }
  ],
  "meshes": [
    {
      "name": "Object_0",
      "primitives": [
        {
          "attributes": {
            "NORMAL": 1,
            "POSITION": 0,
            "TANGENT": 2,
            "TEXCOORD_0": 3
          },
          "indices": 4,
          "material": 0,
          "mode": 4
        }
      ]
    }
  ],
  "nodes": [
    {
      "children": [
        1
      ],
      "matrix": [
        1.0,
        0.0,
        0.0,
        0.0,
        0.0,
        2.220446049250313e-16,
        -1.0,
        0.0,
        0.0,
        1.0,
        2.220446049250313e-16,
        0.0,
        0.0,
        0.0,
        0.0,
        1.0
      ],
      "name": "Sketchfab_model"
    },
    {
      "children": [
        2
      ],
      "name": "vase.obj.cleaner.materialmerger.gles"
    },
    {
      "mesh": 0,
      "name": "Object_2"
    }
  ],
  "samplers": [
    {
      "magFilter": 9729,
      "minFilter": 9987,
      "wrapS": 10497,
      "wrapT": 10497
    }
  ],
  "scene": 0,
  "scenes": [
    {
      "name": "Sketchfab_Scene",
      "nodes": [
        0
      ]
    }
  ],
  "textures": [
    {
      "sampler": 0,
      "source": 0
    },
    {
      "sampler": 0,
      "source": 1
    },
    {
      "sampler": 0,
      "source": 2
    }
  ]
}
