{
  "accessors": [
    {
      "bufferView": 3,
      "componentType": 5126,
      "count": 1967,
      "max": [
        217.63035583496094,
        377.5152893066406,
        97.83238983154297
      ],
      "min": [
        -217.63035583496094,
        -2.6894845962524414,
        -47.554664611816406
      ],
      "type": "VEC3"
    },
    {
      "bufferView": 3,
      "byteOffset": 23604,
      "componentType": 5126,
      "count": 1967,
      "max": [
        1.0,
        0.99677574634552,
        1.0
      ],
      "min": [
        -1.0,
        -0.9999586939811707,
        -0.9999181628227234
      ],
      "type": "VEC3"
    },
    {
      "bufferView": 4,
      "componentType": 5126,
      "count": 1967,
      "max": [
        1.0,
        0.9976223707199097,
        0.9992949962615967,
        1.0
      ],
      "min": [
        -0.9999791979789734,
        -0.997768223285675,
        -0.9988600611686707,
        -1.0
      ],
      "type": "VEC4"
    },
    {
      "bufferView": 2,
      "componentType": 5126,
      "count": 1967,
      "max": [
        0.9957082867622375,
        0.9957082867622375
      ],
      "min": [
        0.0042917197570204735,
        0.009878993034362793
      ],
      "type": "VEC2"
    },
    {
      "bufferView": 1,
      "componentType": 5125,
      "count": 9594,
      "type": "SCALAR"
    },
    {
      "bufferView": 5,
      "componentType": 5126,
      "count": 47,
      "max": [
        1.0,
        0.9132960438728333,
        0.9634778499603271,
        0.0,
        0.7574007511138916,
        1.0,
        0.9763737916946411,
        0.0,
        0.9992564916610718,
        0.9943081140518188,
        1.0,
        0.0,
        183.04031372070313,
        264.2523498535156,
        331.6003112792969,
        1.0
      ],
      "min": [
        -1.0,
        -2.1920323334256864e-08,
        -0.9634778499603271,
        0.0,
        -0.6418511867523193,
        -0.779285192489624,
        -0.9997185468673706,
        0.0,
        -0.020658869296312332,
        -0.9997185468673706,
        -0.9991308450698853,
        0.0,
        -231.90875244140625,
        -347.1922607421875,
        -209.98779296875,
        1.0
      ],
      "type": "MAT4"
    },
    {
      "bufferView": 0,
      "componentType": 5123,
      "count": 1967,
      "type": "VEC4"
    },
    {
      "bufferView": 4,
      "byteOffset": 31472,
      "componentType": 5126,
      "count": 1967,
      "max": [
        1.0,
        0.4986165761947632,
        0.31270384788513184,
        0.18060468137264252
      ],
      "min": [
        0.32665130496025085,
        0.0,
        0.0,
        0.0
      ],
      "type": "VEC4"
    },
    {
      "bufferView": 6,
      "componentType": 5126,
      "count": 61,
      "max": [
        2.0
      ],
      "min": [
        0.0
      ],
      "type": "SCALAR"
    },
    {
      "bufferView": 7,
      "componentType": 5126,
      "count": 61,
      "max": [
        0.0,
        157.01715087890625,
        19.304231643676758
      ],
      "min": [
        0.0,
        154.00888061523438,
        19.304231643676758
      ],
      "type": "VEC3"
    },
    {
      "bufferView": 6,
      "byteOffset": 244,
      "componentType": 5126,
      "count": 61,
      "max": [
        2.0
      ],
      "min": [
        0.0
      ],
      "type": "SCALAR"
    },
    {
      "bufferView": 7,
      "byteOffset": 732,
      "componentType": 5126,
      "count": 61,
      "max": [
        -7.105427357601002e-15,
        1.4210854715202004e-14,
        -33.06502914428711
      ],
      "min": [
        -2.842170943040401e-14,
        -7.105427357601002e-15,
        -33.06502914428711
      ],
      "type": "VEC3"
    },
    {
      "bufferView": 6,
      "byteOffset": 488,
      "componentType": 5126,
      "count": 61,
      "max": [
        2.0
      ],
      "min": [
        0.0
      ],
      "type": "SCALAR"
    },
    {
      "bufferView": 8,
      "componentType": 5126,
      "count": 61,
      "max": [
        0.2694421708583832,
        -0.059533778578042984,
        0.01957552693784237,
        0.9610123634338379
      ],
      "min": [
        0.2683368921279907,
        -0.06417948752641678,
        0.01820768602192402,
        0.9609616994857788
      ],
      "type": "VEC4"
    },
    {
      "bufferView": 6,
      "byteOffset": 732,
      "componentType": 5126,
      "count": 61,
      "max": [
        2.0
      ],
      "min": [
        0.0
      ],
      "type": "SCALAR"
    },
    {
      "bufferView": 7,
      "byteOffset": 1464,
      "componentType": 5126,
      "count": 61,
      "max": [
        2.842170943040401e-14,
        -2.398081733190338e-14,
        -64.86222076416016
      ],
      "min": [
        -2.842170943040401e-14,
        -3.907985046680551e-14,
        -64.86222076416016
      ],
      "type": "VEC3"
    },
    {
      "bufferView": 6,
      "byteOffset": 976,
      "componentType": 5126,
      "count": 61,
      "max": [
        2.0
      ],
      "min": [
        0.0
      ],
      "type": "SCALAR"
    },
    {
      "bufferView": 8,
      "byteOffset": 976,
      "componentType": 5126,
      "count": 61,
      "max": [
        0.6136819124221802,
        -0.14546900987625122,
        0.11753015965223312,
        0.7949909567832947
      ],
      "min": [
        0.5770743489265442,
        -0.15449199080467224,
        0.11303664743900299,
        0.7659956812858582
      ],
      "type": "VEC4"
    },
    {
      "bufferView": 6,
      "byteOffset": 1220,
      "componentType": 5126,
      "count": 58,
      "max": [
        2.0
      ],
      "min": [
        0.0
      ],
      "type": "SCALAR"
    },
    {
      "bufferView": 7,
      "byteOffset": 2196,
      "componentType": 5126,
      "count": 58,
      "max": [
        1.4210854715202004e-14,
        -7.105427357601002e-15,
        -72.89128875732422
      ],
      "min": [
        -4.263256414560601e-14,
        -2.1316282072803006e-14,
        -72.89128875732422
      ],
      "type": "VEC3"
    },
    {
      "bufferView": 6,
      "byteOffset": 1452,
      "componentType": 5126,
      "count": 61,
      "max": [
        2.0
      ],
      "min": [
        0.0
      ],
      "type": "SCALAR"
    },
    {
      "bufferView": 8,
      "byteOffset": 1952,
      "componentType": 5126,
      "count": 61,
      "max": [
        -0.19315555691719055,
        -0.0240208487957716,
        -0.0091771325096488,
        0.9808292388916016
      ],
      "min": [
        -0.27903133630752563,
        -0.03470037132501602,
        -0.00938005093485117,
        0.9596109390258789
      ],
      "type": "VEC4"
    },
    {
      "bufferView": 6,
      "byteOffset": 1696,
      "componentType": 5126,
      "count": 61,
      "max": [
        2.0
      ],
      "min": [
        0.0
      ],
      "type": "SCALAR"
    },
    {
      "bufferView": 8,
      "byteOffset": 2928,
      "componentType": 5126,
      "count": 61,
      "max": [
        0.9932152032852173,
        -0.01181664876639843,
        0.11885709315538406,
        -0.031104035675525665
      ],
      "min": [
        0.9903111457824707,
        -0.014837218448519707,
        0.11106734722852707,
        -0.07083185762166977
      ],
      "type": "VEC4"
    },
    {
      "bufferView": 6,
      "byteOffset": 1940,
      "componentType": 5126,
      "count": 61,
      "max": [
        2.0
      ],
      "min": [
        0.0
      ],
      "type": "SCALAR"
    },
    {
      "bufferView": 7,
      "byteOffset": 2892,
      "componentType": 5126,
      "count": 61,
      "max": [
        3.126388037344441e-13,
        -8.393286066166183e-14,
        -33.06502914428711
      ],
      "min": [
        2.8421709430404007e-13,
        -9.636735853746359e-14,
        -33.06502914428711
      ],
      "type": "VEC3"
    },
    {
      "bufferView": 6,
      "byteOffset": 2184,
      "componentType": 5126,
      "count": 61,
      "max": [
        2.0
      ],
      "min": [
        0.0
      ],
      "type": "SCALAR"
    },
    {
      "bufferView": 8,
      "byteOffset": 3904,
      "componentType": 5126,
      "count": 61,
      "max": [
        0.2641666531562805,
        -0.0796937495470047,
        1.1498395906528458e-05,
        0.96120285987854
      ],
      "min": [
        0.26303595304489136,
        -0.08336202800273895,
        -0.0010883861687034369,
        0.9611552357673645
      ],
      "type": "VEC4"
    },
    {
      "bufferView": 6,
      "byteOffset": 2428,
      "componentType": 5126,
      "count": 59,
      "max": [
        2.0
      ],
      "min": [
        0.0
      ],
      "type": "SCALAR"
    },
    {
      "bufferView": 7,
      "byteOffset": 3624,
      "componentType": 5126,
      "count": 59,
      "max": [
        -1.4210854715202004e-14,
        -3.197442310920451e-14,
        -64.86222076416016
      ],
      "min": [
        -4.263256414560601e-14,
        -5.3290705182007514e-14,
        -64.86222076416016
      ],
      "type": "VEC3"
    },
    {
      "bufferView": 6,
      "byteOffset": 2664,
      "componentType": 5126,
      "count": 61,
      "max": [
        2.0
      ],
      "min": [
        0.0
      ],
      "type": "SCALAR"
    },
    {
      "bufferView": 8,
      "byteOffset": 4880,
      "componentType": 5126,
      "count": 61,
      "max": [
        0.6466380953788757,
        -0.06690802425146103,
        0.018391545861959457,
        0.7850379347801208
      ],
      "min": [
        0.6155489087104797,
        -0.06946863979101181,
        0.01825597882270813,
        0.7594054937362671
      ],
      "type": "VEC4"
    },
    {
      "bufferView": 6,
      "byteOffset": 2908,
      "componentType": 5126,
      "count": 59,
      "max": [
        2.0
      ],
      "min": [
        0.0
      ],
      "type": "SCALAR"
    },
    {
      "bufferView": 7,
      "byteOffset": 4332,
      "componentType": 5126,
      "count": 59,
      "max": [
        1.1368683772161603e-13,
        -2.842170943040401e-14,
        -72.89128875732422
      ],
      "min": [
        7.105427357601002e-14,
        -4.263256414560601e-14,
        -72.89128875732422
      ],
      "type": "VEC3"
    },
    {
      "bufferView": 6,
      "byteOffset": 3144,
      "componentType": 5126,
      "count": 61,
      "max": [
        2.0
      ],
      "min": [
        0.0
      ],
      "type": "SCALAR"
    },
    {
      "bufferView": 8,
      "byteOffset": 5856,
      "componentType": 5126,
      "count": 61,
      "max": [
        -0.24441857635974884,
        0.06722558289766312,
        0.0870397686958313,
        0.9643383622169495
      ],
      "min": [
        -0.3141777813434601,
        0.05229899659752846,
        0.08512707054615021,
        0.9431470632553101
      ],
      "type": "VEC4"
    },
    {
      "bufferView": 6,
      "byteOffset": 3388,
      "componentType": 5126,
      "count": 61,
      "max": [
        2.0
      ],
      "min": [
        0.0
      ],
      "type": "SCALAR"
    },
    {
      "bufferView": 8,
      "byteOffset": 6832,
      "componentType": 5126,
      "count": 61,
      "max": [
        0.9924238324165344,
        0.004415444564074278,
        -0.10946831107139587,
        -0.05560651421546936
      ],
      "min": [
        0.9892799854278564,
        0.0022489677648991346,
        -0.11621135473251343,
        -0.08840237557888031
      ],
      "type": "VEC4"
    },
    {
      "bufferView": 6,
      "byteOffset": 3632,
      "componentType": 5126,
      "count": 61,
      "max": [
        2.0
      ],
      "min": [
        0.0
      ],
      "type": "SCALAR"
    },
    {
      "bufferView": 8,
      "byteOffset": 7808,
      "componentType": 5126,
      "count": 61,
      "max": [
        0.02754361741244793,
        0.055837232619524,
        0.04712192341685295,
        0.9987455010414124
      ],
      "min": [
        0.015238710679113865,
        -0.04934563487768173,
        0.0432242788374424,
        0.99728924036026
      ],
      "type": "VEC4"
    },
    {
      "bufferView": 6,
      "byteOffset": 3876,
      "componentType": 5126,
      "count": 58,
      "max": [
        2.0
      ],
      "min": [
        0.0
      ],
      "type": "SCALAR"
    },
    {
      "bufferView": 7,
      "byteOffset": 5040,
      "componentType": 5126,
      "count": 58,
      "max": [
        -2.842170943040401e-14,
        -2.842170943040401e-14,
        -73.29608917236328
      ],
      "min": [
        -5.684341886080802e-14,
        -8.526512829121202e-14,
        -73.29608917236328
      ],
      "type": "VEC3"
    },
    {
      "bufferView": 6,
      "byteOffset": 4108,
      "componentType": 5126,
      "count": 61,
      "max": [
        2.0
      ],
      "min": [
        0.0
      ],
      "type": "SCALAR"
    },
    {
      "bufferView": 8,
      "byteOffset": 8784,
      "componentType": 5126,
      "count": 61,
      "max": [
        -0.06753481179475784,
        -0.27198082208633423,
        -0.015510092489421368,
        0.9598045945167542
      ],
      "min": [
        -0.081705741584301,
        -0.3404361307621002,
        -0.015935812145471573,
        0.9365754127502441
      ],
      "type": "VEC4"
    },
    {
      "bufferView": 6,
      "byteOffset": 4352,
      "componentType": 5126,
      "count": 61,
      "max": [
        2.0
      ],
      "min": [
        0.0
      ],
      "type": "SCALAR"
    },
    {
      "bufferView": 8,
      "byteOffset": 9760,
      "componentType": 5126,
      "count": 61,
      "max": [
        -0.43733450770378113,
        0.027012724429368973,
        -0.11566666513681412,
        0.8917010426521301
      ],
      "min": [
        -0.5180003643035889,
        0.015133408829569817,
        -0.15230903029441833,
        0.8413673639297485
      ],
      "type": "VEC4"
    },
    {
      "bufferView": 6,
      "byteOffset": 4596,
      "componentType": 5126,
      "count": 61,
      "max": [
        2.0
      ],
      "min": [
        0.0
      ],
      "type": "SCALAR"
    },
    {
      "bufferView": 8,
      "byteOffset": 10736,
      "componentType": 5126,
      "count": 61,
      "max": [
        -0.4217657148838043,
        0.627037763595581,
        -0.39809638261795044,
        0.5216419696807861
      ],
      "min": [
        -0.4597875475883484,
        0.5946733355522156,
        -0.4431331157684326,
        0.4867630898952484
      ],
      "type": "VEC4"
    },
    {
      "bufferView": 6,
      "byteOffset": 4840,
      "componentType": 5126,
      "count": 61,
      "max": [
        2.0
      ],
      "min": [
        0.0
      ],
      "type": "SCALAR"
    },
    {
      "bufferView": 8,
      "byteOffset": 11712,
      "componentType": 5126,
      "count": 61,
      "max": [
        0.05611247569322586,
        -0.030972717329859734,
        -0.016334043815732002,
        0.9992054104804993
      ],
      "min": [
        -0.018998166546225548,
        -0.1028524786233902,
        -0.01968962699174881,
        0.9929174780845642
      ],
      "type": "VEC4"
    },
    {
      "bufferView": 6,
      "byteOffset": 5084,
      "componentType": 5126,
      "count": 59,
      "max": [
        2.0
      ],
      "min": [
        0.0
      ],
      "type": "SCALAR"
    },
    {
      "bufferView": 7,
      "byteOffset": 5736,
      "componentType": 5126,
      "count": 59,
      "max": [
        -1.4210854715202004e-14,
        8.526512829121202e-14,
        -73.29608917236328
      ],
      "min": [
        -5.684341886080802e-14,
        0.0,
        -73.29608917236328
      ],
      "type": "VEC3"
    },
    {
      "bufferView": 6,
      "byteOffset": 5320,
      "componentType": 5126,
      "count": 61,
      "max": [
        2.0
      ],
      "min": [
        0.0
      ],
      "type": "SCALAR"
    },
    {
      "bufferView": 8,
      "byteOffset": 12688,
      "componentType": 5126,
      "count": 61,
      "max": [
        0.2150166928768158,
        -0.23164252936840057,
        -0.44076818227767944,
        0.8429552912712097
      ],
      "min": [
        0.17770732939243317,
        -0.2842820882797241,
        -0.4518719017505646,
        0.8238173127174377
      ],
      "type": "VEC4"
    },
    {
      "bufferView": 6,
      "byteOffset": 5564,
      "componentType": 5126,
      "count": 61,
      "max": [
        2.0
      ],
      "min": [
        0.0
      ],
      "type": "SCALAR"
    },
    {
      "bufferView": 8,
      "byteOffset": 13664,
      "componentType": 5126,
      "count": 61,
      "max": [
        0.4957674741744995,
        -0.14030469954013824,
        -0.1155257448554039,
        0.8823005557060242
      ],
      "min": [
        0.4175649583339691,
        -0.15709738433361053,
        -0.16511908173561096,
        0.8462793827056885
      ],
      "type": "VEC4"
    },
    {
      "bufferView": 6,
      "byteOffset": 5808,
      "componentType": 5126,
      "count": 61,
      "max": [
        2.0
      ],
      "min": [
        0.0
      ],
      "type": "SCALAR"
    },
    {
      "bufferView": 8,
      "byteOffset": 14640,
      "componentType": 5126,
      "count": 61,
      "max": [
        0.4371756613254547,
        -0.5963197350502014,
        -0.325607031583786,
        0.592039942741394
      ],
      "min": [
        0.4194357991218567,
        -0.6430075168609619,
        -0.34346050024032593,
        0.537958025932312
      ],
      "type": "VEC4"
    },
    {
      "bufferView": 6,
      "byteOffset": 6052,
      "componentType": 5126,
      "count": 61,
      "max": [
        2.0
      ],
      "min": [
        0.0
      ],
      "type": "SCALAR"
    },
    {
      "bufferView": 8,
      "byteOffset": 15616,
      "componentType": 5126,
      "count": 61,
      "max": [
        -0.6736490726470947,
        0.0378253273665905,
        0.008699755184352398,
        0.7385278940200806
      ],
      "min": [
        -0.7115839719772339,
        0.026414621621370316,
        -0.0032465988770127296,
        0.7020504474639893
      ],
      "type": "VEC4"
    },
    {
      "bufferView": 6,
      "byteOffset": 6296,
      "componentType": 5126,
      "count": 39,
      "max": [
        2.0
      ],
      "min": [
        0.0
      ],
      "type": "SCALAR"
    },
    {
      "bufferView": 7,
      "byteOffset": 6444,
      "componentType": 5126,
      "count": 39,
      "max": [
        1.1946383438043995e-08,
        5.684341886080802e-14,
        -32.11480712890625
      ],
      "min": [
        1.1946383438043995e-08,
        -5.684341886080802e-14,
        -32.11480712890625
      ],
      "type": "VEC3"
    },
    {
      "bufferView": 6,
      "byteOffset": 6452,
      "componentType": 5126,
      "count": 61,
      "max": [
        2.0
      ],
      "min": [
        0.0
      ],
      "type": "SCALAR"
    },
    {
      "bufferView": 8,
      "byteOffset": 16592,
      "componentType": 5126,
      "count": 61,
      "max": [
        0.26072514057159424,
        4.4938393339401044e-17,
        -7.416835553117918e-17,
        0.9708380103111267
      ],
      "min": [
        0.23973654210567474,
        4.33200839541125e-17,
        -7.512506601021311e-17,
        0.9654130935668945
      ],
      "type": "VEC4"
    },
    {
      "bufferView": 6,
      "byteOffset": 6696,
      "componentType": 5126,
      "count": 60,
      "max": [
        2.0
      ],
      "min": [
        0.0
      ],
      "type": "SCALAR"
    },
    {
      "bufferView": 7,
      "byteOffset": 6912,
      "componentType": 5126,
      "count": 60,
      "max": [
        6.588907513398277e-15,
        8.526512829121202e-14,
        -60.98456954956055
      ],
      "min": [
        6.588907513398277e-15,
        5.684341886080802e-14,
        -60.98456954956055
      ],
      "type": "VEC3"
    },
    {
      "bufferView": 6,
      "byteOffset": 6936,
      "componentType": 5126,
      "count": 61,
      "max": [
        2.0
      ],
      "min": [
        0.0
      ],
      "type": "SCALAR"
    },
    {
      "bufferView": 8,
      "byteOffset": 17568,
      "componentType": 5126,
      "count": 61,
      "max": [
        -0.24343682825565338,
        1.2857374695413365e-24,
        2.583287490188872e-25,
        0.9699167609214783
      ],
      "min": [
        -0.2647036015987396,
        -7.891292411883034e-26,
        -6.035394531129118e-24,
        0.9643298387527466
      ],
      "type": "VEC4"
    },
    {
      "bufferView": 6,
      "byteOffset": 7180,
      "componentType": 5126,
      "count": 34,
      "max": [
        2.0
      ],
      "min": [
        0.0
      ],
      "type": "SCALAR"
    },
    {
      "bufferView": 7,
      "byteOffset": 7632,
      "componentType": 5126,
      "count": 34,
      "max": [
        6.468724126094732e-15,
        -8.007816632016329e-12,
        -57.49721908569336
      ],
      "min": [
        6.468724126094732e-15,
        -8.022027486731531e-12,
        -57.49721908569336
      ],
      "type": "VEC3"
    },
    {
      "bufferView": 6,
      "byteOffset": 7316,
      "componentType": 5126,
      "count": 61,
      "max": [
        2.0
      ],
      "min": [
        0.0
      ],
      "type": "SCALAR"
    },
    {
      "bufferView": 8,
      "byteOffset": 18544,
      "componentType": 5126,
      "count": 61,
      "max": [
        -0.14358952641487122,
        1.7358571448365396e-26,
        2.21379958680629e-25,
        0.9896373152732849
      ],
      "min": [
        -0.18653960525989532,
        -2.739838908982245e-25,
        -3.483858643071585e-24,
        0.9824474453926086
      ],
      "type": "VEC4"
    },
    {
      "bufferView": 6,
      "byteOffset": 7560,
      "componentType": 5126,
      "count": 49,
      "max": [
        2.0
      ],
      "min": [
        0.0
      ],
      "type": "SCALAR"
    },
    {
      "bufferView": 7,
      "byteOffset": 8040,
      "componentType": 5126,
      "count": 49,
      "max": [
        -4.262531100247867e-15,
        -4.1389114358025836e-13,
        -35.633949279785156
      ],
      "min": [
        -4.262531100247867e-15,
        -4.2099657093785936e-13,
        -35.633949279785156
      ],
      "type": "VEC3"
    },
    {
      "bufferView": 6,
      "byteOffset": 7756,
      "componentType": 5126,
      "count": 61,
      "max": [
        2.0
      ],
      "min": [
        0.0
      ],
      "type": "SCALAR"
    },
    {
      "bufferView": 8,
      "byteOffset": 19520,
      "componentType": 5126,
      "count": 61,
      "max": [
        0.050701696425676346,
        1.224150676566534e-16,
        -3.487347553999568e-18,
        0.9987173676490784
      ],
      "min": [
        0.05063217133283615,
        1.22414829428637e-16,
        -3.495869168670089e-18,
        0.9987138509750366
      ],
      "type": "VEC4"
    },
    {
      "bufferView": 6,
      "byteOffset": 8000,
      "componentType": 5126,
      "count": 61,
      "max": [
        2.0
      ],
      "min": [
        0.0
      ],
      "type": "SCALAR"
    },
    {
      "bufferView": 7,
      "byteOffset": 8628,
      "componentType": 5126,
      "count": 61,
      "max": [
        0.0,
        157.01715087890625,
        19.304231643676758
      ],
      "min": [
        0.0,
        154.00888061523438,
        19.304231643676758
      ],
      "type": "VEC3"
    },
    {
      "bufferView": 6,
      "byteOffset": 8244,
      "componentType": 5126,
      "count": 59,
      "max": [
        2.0
      ],
      "min": [
        0.0
      ],
      "type": "SCALAR"
    },
    {
      "bufferView": 8,
      "byteOffset": 20496,
      "componentType": 5126,
      "count": 59,
      "max": [
        -8.658983562231237e-17,
        0.7152215242385864,
        -0.6988978385925293,
        -9.942417313769936e-19
      ],
      "min": [
        -8.658989517931648e-17,
        0.7151787877082825,
        -0.6989415884017944,
        -9.995398232003958e-19
      ],
      "type": "VEC4"
    }
  ],
  "animations": [
    {
      "channels": [
        {
          "sampler": 0,
          "target": {
            "node": 54,
            "path": "translation"
          }
        },
        {
          "sampler": 1,
          "target": {
            "node": 12,
            "path": "translation"
          }
        },
        {
          "sampler": 2,
          "target": {
            "node": 12,
            "path": "rotation"
          }
        },
        {
          "sampler": 3,
          "target": {
            "node": 11,
            "path": "translation"
          }
        },
        {
          "sampler": 4,
          "target": {
            "node": 11,
            "path": "rotation"
          }
        },
        {
          "sampler": 5,
          "target": {
            "node": 10,
            "path": "translation"
          }
        },
        {
          "sampler": 6,
          "target": {
            "node": 10,
            "path": "rotation"
          }
        },
        {
          "sampler": 7,
          "target": {
            "node": 9,
            "path": "rotation"
          }
        },
        {
          "sampler": 8,
          "target": {
            "node": 17,
            "path": "translation"
          }
        },
        {
          "sampler": 9,
          "target": {
            "node": 17,
            "path": "rotation"
          }
        },
        {
          "sampler": 10,
          "target": {
            "node": 16,
            "path": "translation"
          }
        },
        {
          "sampler": 11,
          "target": {
            "node": 16,
            "path": "rotation"
          }
        },
        {
          "sampler": 12,
          "target": {
            "node": 15,
            "path": "translation"
          }
        },
        {
          "sampler": 13,
          "target": {
            "node": 15,
            "path": "rotation"
          }
        },
        {
          "sampler": 14,
          "target": {
            "node": 14,
            "path": "rotation"
          }
        },
        {
          "sampler": 15,
          "target": {
            "node": 24,
            "path": "rotation"
          }
        },
        {
          "sampler": 16,
          "target": {
            "node": 23,
            "path": "translation"
          }
        },
        {
          "sampler": 17,
          "target": {
            "node": 23,
            "path": "rotation"
          }
        },
        {
          "sampler": 18,
          "target": {
            "node": 22,
            "path": "rotation"
          }
        },
        {
          "sampler": 19,
          "target": {
            "node": 21,
            "path": "rotation"
          }
        },
        {
          "sampler": 20,
          "target": {
            "node": 37,
            "path": "rotation"
          }
        },
        {
          "sampler": 21,
          "target": {
            "node": 36,
            "path": "translation"
          }
        },
        {
          "sampler": 22,
          "target": {
            "node": 36,
            "path": "rotation"
          }
        },
        {
          "sampler": 23,
          "target": {
            "node": 35,
            "path": "rotation"
          }
        },
        {
          "sampler": 24,
          "target": {
            "node": 34,
            "path": "rotation"
          }
        },
        {
          "sampler": 25,
          "target": {
            "node": 51,
            "path": "rotation"
          }
        },
        {
          "sampler": 26,
          "target": {
            "node": 48,
            "path": "translation"
          }
        },
        {
          "sampler": 27,
          "target": {
            "node": 48,
            "path": "rotation"
          }
        },
        {
          "sampler": 28,
          "target": {
            "node": 47,
            "path": "translation"
          }
        },
        {
          "sampler": 29,
          "target": {
            "node": 47,
            "path": "rotation"
          }
        },
        {
          "sampler": 30,
          "target": {
            "node": 20,
            "path": "translation"
          }
        },
        {
          "sampler": 31,
          "target": {
            "node": 20,
            "path": "rotation"
          }
        },
        {
          "sampler": 32,
          "target": {
            "node": 19,
            "path": "translation"
          }
        },
        {
          "sampler": 33,
          "target": {
            "node": 19,
            "path": "rotation"
          }
        },
        {
          "sampler": 34,
          "target": {
            "node": 8,
            "path": "translation"
          }
        },
        {
          "sampler": 35,
          "target": {
            "node": 8,
            "path": "rotation"
          }
        }
      ],
      "name": "CINEMA_4D_Main",
      "samplers": [
        {
          "input": 8,
          "interpolation": "LINEAR",
          "output": 9
        },
        {
          "input": 10,
          "interpolation": "LINEAR",
          "output": 11
        },
        {
          "input": 12,
          "interpolation": "LINEAR",
          "output": 13
        },
        {
          "input": 14,
          "interpolation": "LINEAR",
          "output": 15
        },
        {
          "input": 16,
          "interpolation": "LINEAR",
          "output": 17
        },
        {
          "input": 18,
          "interpolation": "LINEAR",
          "output": 19
        },
        {
          "input": 20,
          "interpolation": "LINEAR",
          "output": 21
        },
        {
          "input": 22,
          "interpolation": "LINEAR",
          "output": 23
        },
        {
          "input": 24,
          "interpolation": "LINEAR",
          "output": 25
        },
        {
          "input": 26,
          "interpolation": "LINEAR",
          "output": 27
        },
        {
          "input": 28,
          "interpolation": "LINEAR",
          "output": 29
        },
        {
          "input": 30,
          "interpolation": "LINEAR",
          "output": 31
        },
        {
          "input": 32,
          "interpolation": "LINEAR",
          "output": 33
        },
        {
          "input": 34,
          "interpolation": "LINEAR",
          "output": 35
        },
        {
          "input": 36,
          "interpolation": "LINEAR",
          "output": 37
        },
        {
          "input": 38,
          "interpolation": "LINEAR",
          "output": 39
        },
        {
          "input": 40,
          "interpolation": "LINEAR",
          "output": 41
        },
        {
          "input": 42,
          "interpolation": "LINEAR",
          "output": 43
        },
        {
          "input": 44,
          "interpolation": "LINEAR",
          "output": 45
        },
        {
          "input": 46,
          "interpolation": "LINEAR",
          "output": 47
        },
        {
          "input": 48,
          "interpolation": "LINEAR",
          "output": 49
        },
        {
          "input": 50,
          "interpolation": "LINEAR",
          "output": 51
        },
        {
          "input": 52,
          "interpolation": "LINEAR",
          "output": 53
        },
        {
          "input": 54,
          "interpolation": "LINEAR",
          "output": 55
        },
        {
          "input": 56,
          "interpolation": "LINEAR",
          "output": 57
        },
        {
          "input": 58,
          "interpolation": "LINEAR",
          "output": 59
        },
        {
          "input": 60,
          "interpolation": "LINEAR",
          "output": 61
        },
        {
          "input": 62,
          "interpolation": "LINEAR",
          "output": 63
        },
        {
          "input": 64,
          "interpolation": "LINEAR",
          "output": 65
        },
        {
          "input": 66,
          "interpolation": "LINEAR",
          "output": 67
        },
        {
          "input": 68,
          "interpolation": "LINEAR",
          "output": 69
        },
        {
          "input": 70,
          "interpolation": "LINEAR",
          "output": 71
        },
        {
          "input": 72,
          "interpolation": "LINEAR",
          "output": 73
        },
        {
          "input": 74,
          "interpolation": "LINEAR",
          "output": 75
        },
        {
          "input": 76,
          "interpolation": "LINEAR",
          "output": 77
        },
        {
          "input": 78,
          "interpolation": "LINEAR",
          "output": 79
        }
      ]
    }
  ],
  "asset": {
    "extras": {
      "author": "DJMaesen (https://sketchfab.com/bumstrum)",
      "license": "CC-BY-4.0 (http://creativecommons.org/licenses/by/4.0/)",
      "source": "https://sketchfab.com/3d-models/troll-8621813ed6c24f569f109ca1ac7ba609",
      "title": "Troll"
    },
    "generator": "Sketchfab-12.66.0",
    "version": "2.0"
  },
  "bufferViews": [
    {
      "buffer": 0,
      "byteLength": 15736,
      "byteStride": 8,
      "name": "shortBufferViews",
      "target": 34962
    },
    {
      "buffer": 0,
      "byteLength": 38376,
      "byteOffset": 15736,
      "name": "floatBufferViews",
      "target": 34963
    },
    {
      "buffer": 0,
      "byteLength": 15736,
      "byteOffset": 54112,
      "byteStride": 8,
      "name": "floatBufferViews",
      "target": 34962
    },
    {
      "buffer": 0,
      "byteLength": 47208,
      "byteOffset": 69848,
      "byteStride": 12,
      "name": "floatBufferViews",
      "target": 34962
    },
    {
      "buffer": 0,
      "byteLength": 62944,
      "byteOffset": 117056,
      "byteStride": 16,
      "name": "floatBufferViews",
      "target": 34962
    },
    {
      "buffer": 0,
      "byteLength": 3008,
      "byteOffset": 180000,
      "name": "floatBufferViews"
    },
    {
      "buffer": 0,
      "byteLength": 8480,
      "byteOffset": 183008,
      "name": "floatBufferViews"
    },
    {
      "buffer": 0,
      "byteLength": 9360,
      "byteOffset": 191488,
      "byteStride": 12,
      "name": "floatBufferViews"
    },
    {
      "buffer": 0,
      "byteLength": 21440,
      "byteOffset": 200848,
      "byteStride": 16,
      "name": "floatBufferViews"
    }
  ],
  "buffers": [
    {
      "byteLength": 222288,
      "uri": "scene.bin"
    }
  ],
  "extensionsRequired": [
    "KHR_materials_pbrSpecularGlossiness"
  ],
  "extensionsUsed": [
    "KHR_materials_pbrSpecularGlossiness"
  ],
  "images": [
    {
      "uri": "textures/troll_diffuse.png"
    },
    {
      "uri": "textures/troll_specularGlossiness.png"
    },
    {
      "uri": "textures/troll_normal.png"
    }
  ],
  "materials": [
    {
      "extensions": {
        "KHR_materials_pbrSpecularGlossiness": {
          "diffuseFactor": [
            1.0,
            1.0,
            1.0,
            1.0
          ],
          "diffuseTexture": {
            "index": 0
          },
          "glossinessFactor": 0.6236661585,
          "specularFactor": [
            1.0,
            1.0,
            1.0
          ],
          "specularGlossinessTexture": {
            "index": 1
          }
        }
      },
      "name": "troll",
      "normalTexture": {
        "index": 2
      }
    }
  ],
  "meshes": [
    {
      "name": "mesh_troll_0",
      "primitives": [
        {
          "attributes": {
            "JOINTS_0": 6,
            "NORMAL": 1,
            "POSITION": 0,
            "TANGENT": 2,
            "TEXCOORD_0": 3,
            "TEXCOORD_1": 3,
            "TEXCOORD_2": 3,
            "WEIGHTS_0": 7
          },
          "indices": 4,
          "material": 0,
          "mode": 4
        }
      ]
    }
  ],
  "nodes": [
    {
      "children": [
        1
      ],
      "matrix": [
        1.0,
        0.0,
        0.0,
        0.0,
        0.0,
        2.220446049250313e-16,
        -1.0,
        0.0,
        0.0,
        1.0,
        2.220446049250313e-16,
        0.0,
        0.0,
        0.0,
        0.0,
        1.0
      ],
      "name": "Sketchfab_model"
    },
    {
      "children": [
        2
      ],
      "matrix": [
        1.0,
        0.0,
        0.0,
        0.0,
        0.0,
        0.0,
        1.0,
        0.0,
        0.0,
        -1.0,
        0.0,
        0.0,
        0.0,
        0.0,
        0.0,
        1.0
      ],
      "name": "2f6164e7f6344c768cb49fc7320e7376.fbx"
    },
    {
      "children": [
        3
      ],
      "name": "Object_2"
    },
    {
      "children": [
        4
      ],
      "name": "RootNode"
    },
    {
      "children": [
        5,
        7,
        6,
        54,
        55,
        59,
        63,
        64,
        65
      ],
      "name": "Object_4"
    },
    {
      "children": [
        8
      ],
      "name": "_rootJoint"
    },
    {
      "matrix": [
        1.0,
        0.0,
        9.583427403270886e-31,
        0.0,
        0.0,
        1.0,
        0.0,
        0.0,
        -9.583427403270886e-31,
        0.0,
        1.0,
        0.0,
        -1.8932661725304283e-29,
        -2.842170943040401e-14,
        -3.552713678800501e-15,
        1.0
      ],
      "name": "Object_6"
    },
    {
      "mesh": 0,
      "name": "Object_7",
      "skin": 0
    },
    {
      "children": [
        9,
        14,
        19
      ],
      "name": "hips_01",
      "rotation": [
        -8.658984223975727e-17,
        0.7152196764945984,
        -0.6988997459411621,
        -9.99308419424034e-19
      ],
      "translation": [
        0.0,
        154.15505981445313,
        19.304231643676758
      ]
    },
    {
      "children": [
        10
      ],
      "name": "L_leg_02",
      "rotation": [
        0.9904640316963196,
        -0.01193181425333023,
        0.11851812154054642,
        -0.06922470033168793
      ],
      "translation": [
        -38.395530700683594,
        -0.12697026133537292,
        2.264634609222412
      ]
    },
    {
      "children": [
        11
      ],
      "name": "L_knee_03",
      "rotation": [
        -0.27555736899375916,
        -0.034268349409103394,
        -0.009186875075101852,
        0.9606297016143799
      ],
      "translation": [
        -1.4210854715202004e-14,
        -1.4210854715202004e-14,
        -72.89128875732422
      ]
    },
    {
      "children": [
        12
      ],
      "name": "L_ankle_04",
      "rotation": [
        0.6121910214424133,
        -0.1540885865688324,
        0.11325712502002716,
        0.7672364115715027
      ],
      "translation": [
        0.0,
        -3.019806626980426e-14,
        -64.86222076416016
      ]
    },
    {
      "children": [
        13
      ],
      "name": "L_foot_05",
      "rotation": [
        0.26839667558670044,
        -0.06399881094694138,
        0.01826193369925022,
        0.9610068202018738
      ],
      "translation": [
        -1.4210854715202004e-14,
        7.105427357601002e-15,
        -33.06502914428711
      ]
    },
    {
      "name": "L_toes_00",
      "rotation": [
        9.08995101411847e-16,
        3.191891195797325e-16,
        -1.8431436932253575e-16,
        1.0
      ],
      "translation": [
        -5.684341886080802e-14,
        5.684341886080802e-14,
        -28.065031051635742
      ]
    },
    {
      "children": [
        15
      ],
      "name": "R_leg_06",
      "rotation": [
        0.9894406199455261,
        0.0023376871831715107,
        -0.11590427905321121,
        -0.08699395507574081
      ],
      "translation": [
        38.395530700683594,
        -0.12697026133537292,
        2.264634609222412
      ]
    },
    {
      "children": [
        16
      ],
      "name": "R_knee_07",
      "rotation": [
        -0.3111850619316101,
        0.0665852278470993,
        0.08521991968154907,
        0.9441758394241333
      ],
      "translation": [
        8.526512829121202e-14,
        -3.552713678800501e-14,
        -72.89128875732422
      ]
    },
    {
      "children": [
        17
      ],
      "name": "R_ankle_08",
      "rotation": [
        0.6452990770339966,
        -0.06938322633504868,
        0.018330033868551254,
        0.7605518102645874
      ],
      "translation": [
        -2.842170943040401e-14,
        -3.552713678800501e-14,
        -64.86222076416016
      ]
    },
    {
      "children": [
        18
      ],
      "name": "R_foot_09",
      "rotation": [
        0.26411932706832886,
        -0.07985313981771469,
        -3.614326851675287e-05,
        0.9611786603927612
      ],
      "translation": [
        2.984279490192421e-13,
        -9.459100169806334e-14,
        -33.06502914428711
      ]
    },
    {
      "name": "R_toes_010",
      "rotation": [
        6.938893903907228e-18,
        -2.0261570199409107e-15,
        2.177077962350893e-16,
        1.0
      ],
      "translation": [
        6.394884621840902e-14,
        -1.4210854715202004e-14,
        -28.065031051635742
      ]
    },
    {
      "children": [
        20
      ],
      "name": "spine_011",
      "rotation": [
        0.050647471100091934,
        1.224150147170942e-16,
        -3.4892223588579194e-18,
        0.9987165927886963
      ],
      "translation": [
        -4.262531100247867e-15,
        -4.156675004196586e-13,
        -35.633949279785156
      ]
    },
    {
      "children": [
        21,
        34,
        47
      ],
      "name": "chest_012",
      "rotation": [
        -0.1844501495361328,
        2.6504511772411315e-32,
        -2.010816505690341e-32,
        0.982841968536377
      ],
      "translation": [
        6.468724126094732e-15,
        -8.01492205937393e-12,
        -57.49721908569336
      ]
    },
    {
      "children": [
        22
      ],
      "name": "L_shoulder_013",
      "rotation": [
        -0.45804351568222046,
        0.6255742311477661,
        -0.40028414130210876,
        0.4884932041168213
      ],
      "translation": [
        -29.313283920288086,
        16.193246841430664,
        -47.77616882324219
      ]
    },
    {
      "children": [
        23
      ],
      "name": "L_arm_014",
      "rotation": [
        -0.4409720301628113,
        0.016756312921643257,
        -0.11786646395921707,
        0.8895901441574097
      ],
      "translation": [
        0.15315496921539307,
        -0.6017149090766907,
        -34.59694290161133
      ]
    },
    {
      "children": [
        24
      ],
      "name": "L_elbow_015",
      "rotation": [
        -0.08140463382005692,
        -0.33897846937179565,
        -0.01592753827571869,
        0.937130331993103
      ],
      "translation": [
        -4.263256414560601e-14,
        -8.526512829121202e-14,
        -73.29608917236328
      ]
    },
    {
      "children": [
        25,
        28,
        31
      ],
      "name": "L_wrist_016",
      "rotation": [
        0.016029777005314827,
        0.05151700973510742,
        0.043236684054136276,
        0.9976070523262024
      ],
      "translation": [
        2.4355111122131348,
        1.4939898252487183,
        -92.68368530273438
      ]
    },
    {
      "children": [
        26
      ],
      "name": "L_thumb1_017",
      "rotation": [
        -0.46912917494773865,
        -0.11087188869714737,
        -0.311000794172287,
        0.8190871477127075
      ],
      "translation": [
        7.405486106872559,
        -8.365399360656738,
        -21.9970703125
      ]
    },
    {
      "children": [
        27
      ],
      "name": "L_thumb2_018",
      "rotation": [
        -0.036293111741542816,
        0.16927668452262878,
        0.006237891968339682,
        0.9848804473876953
      ],
      "translation": [
        -7.105427357601002e-15,
        5.684341886080802e-14,
        -23.337078094482422
      ]
    },
    {
      "name": "Joint_2_019",
      "rotation": [
        -3.622102617839573e-15,
        -1.9567680809018384e-15,
        -7.087614788339467e-30,
        1.0
      ],
      "translation": [
        2.1316282072803006e-14,
        -9.947598300641403e-14,
        -13.584667205810547
      ]
    },
    {
      "children": [
        29
      ],
      "name": "L_pink1_020",
      "rotation": [
        -0.060378339141607285,
        0.33954036235809326,
        0.5264483094215393,
        0.7771222591400146
      ],
      "translation": [
        -22.513635635375977,
        -6.920897960662842,
        -39.785457611083984
      ]
    },
    {
      "children": [
        30
      ],
      "name": "L_pink2_021",
      "rotation": [
        0.11038877815008163,
        0.465085506439209,
        -0.005428794771432877,
        0.8783395290374756
      ],
      "translation": [
        -1.4210854715202004e-14,
        -4.263256414560601e-14,
        -13.607258796691895
      ]
    },
    {
      "name": "Joint_2_2_022",
      "rotation": [
        8.604228440844963e-16,
        -4.071395998117566e-15,
        -3.382710778154774e-17,
        1.0
      ],
      "translation": [
        1.9895196601282805e-13,
        5.684341886080802e-14,
        -15.176548957824707
      ]
    },
    {
      "children": [
        32
      ],
      "name": "L_finger1_023",
      "rotation": [
        -0.07664654403924942,
        0.3466539680957794,
        0.47378435730934143,
        0.8059061169624329
      ],
      "translation": [
        -6.796241283416748,
        -13.57059097290039,
        -44.58567810058594
      ]
    },
    {
      "children": [
        33
      ],
      "name": "L_finger2_024",
      "rotation": [
        0.1163240596652031,
        0.45635661482810974,
        -0.01759638451039791,
        0.8819851279258728
      ],
      "translation": [
        1.8474111129762605e-13,
        -6.394884621840902e-14,
        -17.928466796875
      ]
    },
    {
      "name": "Joint_2_3_025",
      "rotation": [
        -2.220446049250313e-16,
        4.440892098500626e-15,
        9.860761315262648e-31,
        1.0
      ],
      "translation": [
        -1.2079226507921703e-13,
        -8.526512829121202e-14,
        -14.987024307250977
      ]
    },
    {
      "children": [
        35
      ],
      "name": "R_shoulder_026",
      "rotation": [
        0.4363820254802704,
        -0.6408729553222656,
        -0.3265078067779541,
        0.5405972599983215
      ],
      "translation": [
        29.313282012939453,
        16.193246841430664,
        -47.77616882324219
      ]
    },
    {
      "children": [
        36
      ],
      "name": "R_arm_027",
      "rotation": [
        0.42157578468322754,
        -0.14075446128845215,
        -0.16242553293704987,
        0.8809540271759033
      ],
      "translation": [
        0.49820005893707275,
        0.3705589771270752,
        -34.59694290161133
      ]
    },
    {
      "children": [
        37
      ],
      "name": "R_elbow_028",
      "rotation": [
        0.2142632007598877,
        -0.283218115568161,
        -0.44101595878601074,
        0.8242473602294922
      ],
      "translation": [
        -4.263256414560601e-14,
        5.684341886080802e-14,
        -73.29608917236328
      ]
    },
    {
      "children": [
        38,
        41,
        44
      ],
      "name": "R_wrist_029",
      "rotation": [
        -0.016045087948441505,
        -0.034140828996896744,
        -0.016349252313375473,
        0.9991545677185059
      ],
      "translation": [
        2.663126230239868,
        1.0351226329803467,
        -92.68368530273438
      ]
    },
    {
      "children": [
        39
      ],
      "name": "R_thumb1_030",
      "rotation": [
        0.20317211747169495,
        0.5024635195732117,
        -0.13498742878437042,
        0.8294757008552551
      ],
      "translation": [
        -2.702331781387329,
        10.840597152709961,
        -21.9970703125
      ]
    },
    {
      "children": [
        40
      ],
      "name": "R_thumb2_031",
      "rotation": [
        -0.16939513385295868,
        -0.035736121237277985,
        -0.006146453320980072,
        0.9848809242248535
      ],
      "translation": [
        -1.4210854715202004e-14,
        -7.105427357601002e-15,
        -23.337078094482422
      ]
    },
    {
      "name": "Joint_2_4_032",
      "rotation": [
        1.214306433183765e-15,
        1.9914625504213745e-15,
        8.326672684688674e-17,
        1.0
      ],
      "translation": [
        -6.394884621840902e-14,
        2.842170943040401e-14,
        -13.584667205810547
      ]
    },
    {
      "children": [
        42
      ],
      "name": "R_pink1_033",
      "rotation": [
        0.2503945529460907,
        0.3394177258014679,
        0.5415903925895691,
        0.7271713614463806
      ],
      "translation": [
        -18.4519100189209,
        -14.638633728027344,
        -39.785457611083984
      ]
    },
    {
      "children": [
        43
      ],
      "name": "R_pink2_034",
      "rotation": [
        0.482186496257782,
        0.047880351543426514,
        -0.05763981491327286,
        0.8728581070899963
      ],
      "translation": [
        5.684341886080802e-14,
        0.0,
        -13.607258796691895
      ]
    },
    {
      "name": "Joint_2_5_035",
      "rotation": [
        -1.3149203947904198e-15,
        1.1102230246251565e-15,
        5.377642775528102e-17,
        1.0
      ],
      "translation": [
        -9.237055564881302e-14,
        -9.237055564881302e-14,
        -15.176548957824707
      ]
    },
    {
      "children": [
        45
      ],
      "name": "R_finger1_036",
      "rotation": [
        0.19473561644554138,
        0.3185940384864807,
        0.6336895227432251,
        0.6775053143501282
      ],
      "translation": [
        -15.033831596374512,
        2.0817618370056152,
        -44.58567810058594
      ]
    },
    {
      "children": [
        46
      ],
      "name": "R_finger2_037",
      "rotation": [
        0.4360973834991455,
        0.04731918126344681,
        -0.12080223858356476,
        0.8904980421066284
      ],
      "translation": [
        8.526512829121202e-14,
        2.842170943040401e-14,
        -17.928466796875
      ]
    },
    {
      "name": "Joint_2_6_038",
      "rotation": [
        -1.2455314557513475e-15,
        1.2212453270876722e-15,
        9.71445146547012e-17,
        1.0
      ],
      "translation": [
        -7.105427357601002e-14,
        -7.105427357601002e-14,
        -14.987024307250977
      ]
    },
    {
      "children": [
        48
      ],
      "name": "neck_039",
      "rotation": [
        -0.24453102052211761,
        1.499196989300738e-32,
        -2.164294925605453e-32,
        0.9696414470672607
      ],
      "translation": [
        6.588907513398277e-15,
        6.394884621840902e-14,
        -60.98456954956055
      ]
    },
    {
      "children": [
        49,
        50,
        51,
        53
      ],
      "name": "head_040",
      "rotation": [
        0.2597578763961792,
        4.3395320993907873e-17,
        -7.508162910188672e-17,
        0.9656738042831421
      ],
      "translation": [
        1.1946383438043995e-08,
        2.842170943040401e-14,
        -32.11480712890625
      ]
    },
    {
      "name": "L_eye_041",
      "rotation": [
        -1.177064046231635e-08,
        0.7406232953071594,
        -0.6719204783439636,
        -2.210509286726392e-08
      ],
      "translation": [
        -22.583621978759766,
        -21.42391586303711,
        -21.666606903076172
      ]
    },
    {
      "name": "R_eye_042",
      "rotation": [
        -1.1770639574137931e-08,
        0.7406232953071594,
        -0.6719204783439636,
        -2.210509286726392e-08
      ],
      "translation": [
        22.583616256713867,
        -21.42391586303711,
        -21.666608810424805
      ]
    },
    {
      "children": [
        52
      ],
      "name": "jaw_043",
      "rotation": [
        -0.6736491322517395,
        0.02683587744832039,
        0.007297504227608442,
        0.7385278940200806
      ],
      "translation": [
        -1.545901682220574e-06,
        -11.909822463989258,
        -0.09395438432693481
      ]
    },
    {
      "name": "lip_044",
      "rotation": [
        -1.3877787807814457e-17,
        1.1449174941446927e-16,
        1.1275702593849246e-17,
        1.0
      ],
      "translation": [
        -5.3290705182007514e-15,
        -5.684341886080802e-14,
        -25.136760711669922
      ]
    },
    {
      "name": "tip_045",
      "rotation": [
        -2.7755575615628914e-17,
        -1.3386815747850342e-16,
        2.655281860902986e-17,
        1.0
      ],
      "translation": [
        -2.5562304500908887e-15,
        -3.552713678800501e-14,
        -44.02922439575195
      ]
    },
    {
      "name": "hipcontrol",
      "rotation": [
        -8.658951136751225e-17,
        0.7154452800750732,
        -0.6986687779426575,
        -1.0272645391889122e-18
      ],
      "translation": [
        0.0,
        154.00888061523438,
        19.304231643676758
      ]
    },
    {
      "children": [
        56,
        57,
        58
      ],
      "name": "L_FOOT",
      "translation": [
        65.47029876708984,
        24.0978946685791,
        -0.14569905400276184
      ]
    },
    {
      "name": "L_foot_Goal",
      "rotation": [
        0.137672558426857,
        0.989164412021637,
        0.04266207292675972,
        -0.027928752824664116
      ],
      "translation": [
        -0.13566462695598602,
        -20.49951934814453,
        26.11968231201172
      ]
    },
    {
      "name": "L_ankle_Goal",
      "rotation": [
        0.11917427182197571,
        0.9398313164710999,
        0.31573936343193054,
        -0.05313390493392944
      ],
      "translation": [
        -0.9496528506278992,
        -0.45722272992134094,
        -0.16605305671691895
      ]
    },
    {
      "name": "L_toes_Goal",
      "rotation": [
        0.137672558426857,
        0.989164412021637,
        0.04266207292675972,
        -0.027928752824664116
      ],
      "translation": [
        1.0853174924850464,
        -23.084016799926758,
        54.03876876831055
      ]
    },
    {
      "children": [
        60,
        61,
        62
      ],
      "name": "R_FOOT",
      "translation": [
        -63.99308776855469,
        25.595203399658203,
        -0.14569905400276184
      ]
    },
    {
      "name": "R_foot_Goal",
      "rotation": [
        0.1396608203649521,
        0.9888856410980225,
        0.048697687685489655,
        0.015119616873562336
      ],
      "translation": [
        0.13566462695598602,
        -20.49951934814453,
        26.11968231201172
      ]
    },
    {
      "name": "R_ankle_Goal",
      "rotation": [
        0.126985564827919,
        0.9388078451156616,
        0.31876978278160095,
        -0.030006418004631996
      ],
      "translation": [
        0.9496528506278992,
        -0.45722272992134094,
        -0.16605305671691895
      ]
    },
    {
      "name": "R_toes_Goal",
      "rotation": [
        0.1396608203649521,
        0.9888856410980225,
        0.048697687685489655,
        0.015119616873562336
      ],
      "translation": [
        -1.0853174924850464,
        -23.084016799926758,
        54.03876876831055
      ]
    },
    {
      "name": "L_leg_Pole",
      "rotation": [
        -0.03322996199131012,
        0.5370197296142578,
        0.8399462699890137,
        -0.07068134099245071
      ],
      "translation": [
        67.97443389892578,
        92.03855895996094,
        123.83700561523438
      ]
    },
    {
      "name": "R_leg_Pole",
      "rotation": [
        0.0780419260263443,
        0.5323569178581238,
        0.8429149389266968,
        0.00016145914560183883
      ],
      "translation": [
        -65.84690856933594,
        94.16609191894531,
        123.83700561523438
      ]
    },
    {
      "name": "mesh"
    }
  ],
  "samplers": [
    {
      "magFilter": 9729,
      "minFilter": 9987,
      "wrapS": 10497,
      "wrapT": 10497
    }
  ],
  "scene": 0,
  "scenes": [
    {
      "name": "Sketchfab_Scene",
      "nodes": [
        0
      ]
    }
  ],
  "skins": [
    {
      "inverseBindMatrices": 5,
      "joints": [
        5,
        8,
        9,
        10,
        11,
        12,
        13,
        14,
        15,
        16,
        17,
        18,
        19,
        20,
        21,
        22,
        23,
        24,
        25,
        26,
        27,
        28,
        29,
        30,
        31,
        32,
        33,
        34,
        35,
        36,
        37,
        38,
        39,
        40,
        41,
        42,
        43,
        44,
        45,
        46,
        47,
        48,
        49,
        50,
        51,
        52,
        53
      ],
      "skeleton": 5
    }
  ],
  "textures": [
    {
      "sampler": 0,
      "source": 0
    },
    {
      "sampler": 0,
      "source": 1
    },
    {
      "sampler": 0,
      "source": 2
    }
  ]
}
