{
  "accessors": [
    {
      "bufferView": 2,
      "componentType": 5126,
      "count": 4842,
      "max": [
        1.2870759963989258,
        2.2013943195343018,
        3.722383975982666
      ],
      "min": [
        -1.2870759963989258,
        -2.2013943195343018,
        -3.722383975982666
      ],
      "type": "VEC3"
    },
    {
      "bufferView": 2,
      "byteOffset": 58104,
      "componentType": 5126,
      "count": 4842,
      "max": [
        0.9993649125099182,
        0.993123471736908,
        0.9960376620292664
      ],
      "min": [
        -0.9993649125099182,
        -1.0,
        -0.9989285469055176
      ],
      "type": "VEC3"
    },
    {
      "bufferView": 3,
      "componentType": 5126,
      "count": 4842,
      "max": [
        0.9977940917015076,
        0.9996561408042908,
        0.9999954104423523,
        1.0
      ],
      "min": [
        -0.9999977350234985,
        -0.9982699751853943,
        -0.9932546615600586,
        -1.0
      ],
      "type": "VEC4"
    },
    {
      "bufferView": 1,
      "componentType": 5126,
      "count": 4842,
      "max": [
        0.9917010068893433,
        0.9860661029815674
      ],
      "min": [
        0.009098906069993973,
        0.008744597434997559
      ],
      "type": "VEC2"
    },
    {
      "bufferView": 0,
      "componentType": 5125,
      "count": 7416,
      "type": "SCALAR"
    },
    {
      "bufferView": 2,
      "byteOffset": 116208,
      "componentType": 5126,
      "count": 5642,
      "max": [
        1.0209708213806152,
        2.1503264904022217,
        3.044483184814453
      ],
      "min": [
        -1.0209708213806152,
        -2.1503264904022217,
        -3.044483184814453
      ],
      "type": "VEC3"
    },
    {
      "bufferView": 2,
      "byteOffset": 183912,
      "componentType": 5126,
      "count": 5642,
      "max": [
        0.9995830059051514,
        0.9729243516921997,
        0.998367428779602
      ],
      "min": [
        -0.9995830059051514,
        -1.0,
        -0.9979721307754517
      ],
      "type": "VEC3"
    },
    {
      "bufferView": 3,
      "byteOffset": 77472,
      "componentType": 5126,
      "count": 5642,
      "max": [
        0.9989060759544373,
        0.9999653100967407,
        0.9989578723907471,
        -1.0
      ],
      "min": [
        -0.9997265934944153,
        -0.9997745752334595,
        -0.9995335936546326,
        -1.0
      ],
      "type": "VEC4"
    },
    {
      "bufferView": 1,
      "byteOffset": 38736,
      "componentType": 5126,
      "count": 5642,
      "max": [
        1.0092639923095703,
        0.9907456040382385
      ],
      "min": [
        0.008199869655072689,
        0.009754538536071777
      ],
      "type": "VEC2"
    },
    {
      "bufferView": 0,
      "byteOffset": 29664,
      "componentType": 5125,
      "count": 8526,
      "type": "SCALAR"
    },
    {
      "bufferView": 2,
      "byteOffset": 251616,
      "componentType": 5126,
      "count": 3350,
      "max": [
        1.396932601928711,
        1.8026657104492188,
        2.690375804901123
      ],
      "min": [
        -1.396932601928711,
        -1.8026657104492188,
        -2.690375804901123
      ],
      "type": "VEC3"
    },
    {
      "bufferView": 2,
      "byteOffset": 291816,
      "componentType": 5126,
      "count": 3350,
      "max": [
        0.9990812540054321,
        0.9981534481048584,
        0.9898133873939514
      ],
      "min": [
        -0.9990813732147217,
        -1.0,
        -0.9999439716339111
      ],
      "type": "VEC3"
    },
    {
      "bufferView": 3,
      "byteOffset": 167744,
      "componentType": 5126,
      "count": 3350,
      "max": [
        0.9981465339660645,
        0.9999426603317261,
        0.9950814843177795,
        -1.0
      ],
      "min": [
        -0.9999377727508545,
        -0.9998639225959778,
        -0.994157612323761,
        -1.0
      ],
      "type": "VEC4"
    },
    {
      "bufferView": 1,
      "byteOffset": 83872,
      "componentType": 5126,
      "count": 3350,
      "max": [
        0.9878266453742981,
        0.9895220994949341
      ],
      "min": [
        0.013390658423304558,
        0.0148698091506958
      ],
      "type": "VEC2"
    },
    {
      "bufferView": 0,
      "byteOffset": 63768,
      "componentType": 5125,
      "count": 5082,
      "type": "SCALAR"
    },
    {
      "bufferView": 2,
      "byteOffset": 332016,
      "componentType": 5126,
      "count": 1850,
      "max": [
        0.4358205795288086,
        1.9782025814056396,
        1.3504347801208496
      ],
      "min": [
        -0.4358205795288086,
        -1.9782025814056396,
        -1.3504347801208496
      ],
      "type": "VEC3"
    },
    {
      "bufferView": 2,
      "byteOffset": 354216,
      "componentType": 5126,
      "count": 1850,
      "max": [
        0.9998639822006226,
        0.9892638921737671,
        0.9987698197364807
      ],
      "min": [
        -0.9998639822006226,
        -1.0,
        -0.9997992515563965
      ],
      "type": "VEC3"
    },
    {
      "bufferView": 3,
      "byteOffset": 221344,
      "componentType": 5126,
      "count": 1850,
      "max": [
        1.0,
        0.9999875426292419,
        0.9997950792312622,
        -1.0
      ],
      "min": [
        -0.9998804330825806,
        -0.9991610050201416,
        -0.999983012676239,
        -1.0
      ],
      "type": "VEC4"
    },
    {
      "bufferView": 1,
      "byteOffset": 110672,
      "componentType": 5126,
      "count": 1850,
      "max": [
        0.993699312210083,
        0.9880436062812805
      ],
      "min": [
        0.012133240699768066,
        0.00764620304107666
      ],
      "type": "VEC2"
    },
    {
      "bufferView": 0,
      "byteOffset": 84096,
      "componentType": 5125,
      "count": 2856,
      "type": "SCALAR"
    },
    {
      "bufferView": 2,
      "byteOffset": 376416,
      "componentType": 5126,
      "count": 1332,
      "max": [
        1.145323634147644,
        1.6708979606628418,
        1.6813302040100098
      ],
      "min": [
        -1.1453235149383545,
        -1.6708979606628418,
        -1.6813302040100098
      ],
      "type": "VEC3"
    },
    {
      "bufferView": 2,
      "byteOffset": 392400,
      "componentType": 5126,
      "count": 1332,
      "max": [
        0.9983383417129517,
        0.9819596409797668,
        0.9844335913658142
      ],
      "min": [
        -0.9983383417129517,
        -1.0,
        -0.9999883770942688
      ],
      "type": "VEC3"
    },
    {
      "bufferView": 3,
      "byteOffset": 250944,
      "componentType": 5126,
      "count": 1332,
      "max": [
        0.9969454407691956,
        0.9921983480453491,
        0.9585116505622864,
        -1.0
      ],
      "min": [
        -0.9698541164398193,
        -0.9983766674995422,
        -0.9764236211776733,
        -1.0
      ],
      "type": "VEC4"
    },
    {
      "bufferView": 1,
      "byteOffset": 125472,
      "componentType": 5126,
      "count": 1332,
      "max": [
        0.9884263277053833,
        0.9889490604400635
      ],
      "min": [
        0.00814710184931755,
        0.01292353868484497
      ],
      "type": "VEC2"
    },
    {
      "bufferView": 0,
      "byteOffset": 95520,
      "componentType": 5125,
      "count": 2010,
      "type": "SCALAR"
    },
    {
      "bufferView": 2,
      "byteOffset": 408384,
      "componentType": 5126,
      "count": 2150,
      "max": [
        0.7742395401000977,
        1.7844641208648682,
        1.4322000741958618
      ],
      "min": [
        -0.7742395401000977,
        -1.7844641208648682,
        -1.4322000741958618
      ],
      "type": "VEC3"
    },
    {
      "bufferView": 2,
      "byteOffset": 434184,
      "componentType": 5126,
      "count": 2150,
      "max": [
        0.9999568462371826,
        0.9913514852523804,
        0.9997192025184631
      ],
      "min": [
        -0.9999307990074158,
        -1.0,
        -0.9949573278427124
      ],
      "type": "VEC3"
    },
    {
      "bufferView": 3,
      "byteOffset": 272256,
      "componentType": 5126,
      "count": 2150,
      "max": [
        0.9973339438438416,
        0.9966127872467041,
        0.9993356466293335,
        -1.0
      ],
      "min": [
        -0.9780844449996948,
        -0.9979733228683472,
        -0.999940812587738,
        -1.0
      ],
      "type": "VEC4"
    },
    {
      "bufferView": 1,
      "byteOffset": 136128,
      "componentType": 5126,
      "count": 2150,
      "max": [
        0.9858701229095459,
        0.9804714322090149
      ],
      "min": [
        0.01697468012571335,
        0.011949777603149414
      ],
      "type": "VEC2"
    },
    {
      "bufferView": 0,
      "byteOffset": 103560,
      "componentType": 5125,
      "count": 3222,
      "type": "SCALAR"
    },
    {
      "bufferView": 2,
      "byteOffset": 459984,
      "componentType": 5126,
      "count": 3442,
      "max": [
        0.9023971557617188,
        1.7175469398498535,
        2.463947296142578
      ],
      "min": [
        -0.9023971557617188,
        -1.7175469398498535,
        -2.463947296142578
      ],
      "type": "VEC3"
    },
    {
      "bufferView": 2,
      "byteOffset": 501288,
      "componentType": 5126,
      "count": 3442,
      "max": [
        0.9938778877258301,
        0.9949759840965271,
        0.9834524393081665
      ],
      "min": [
        -0.9938778877258301,
        -0.9987807869911194,
        -0.9960277676582336
      ],
      "type": "VEC3"
    },
    {
      "bufferView": 3,
      "byteOffset": 306656,
      "componentType": 5126,
      "count": 3442,
      "max": [
        0.9996773600578308,
        0.999785840511322,
        0.9946050643920898,
        1.0
      ],
      "min": [
        -0.9947006702423096,
        -0.9998184442520142,
        -0.9988871812820435,
        -1.0
      ],
      "type": "VEC4"
    },
    {
      "bufferView": 1,
      "byteOffset": 153328,
      "componentType": 5126,
      "count": 3442,
      "max": [
        0.9929157495498657,
        0.9938395023345947
      ],
      "min": [
        0.00576950516551733,
        0.005272269248962402
      ],
      "type": "VEC2"
    },
    {
      "bufferView": 0,
      "byteOffset": 116448,
      "componentType": 5125,
      "count": 5178,
      "type": "SCALAR"
    },
    {
      "bufferView": 2,
      "byteOffset": 542592,
      "componentType": 5126,
      "count": 2644,
      "max": [
        1.0683064460754395,
        1.8675017356872559,
        0.9900532960891724
      ],
      "min": [
        -1.0683064460754395,
        -1.8675017356872559,
        -0.9900532960891724
      ],
      "type": "VEC3"
    },
    {
      "bufferView": 2,
      "byteOffset": 574320,
      "componentType": 5126,
      "count": 2644,
      "max": [
        0.9946600198745728,
        0.9965830445289612,
        0.9881284832954407
      ],
      "min": [
        -0.9946600198745728,
        -0.9965659379959106,
        -0.9833290576934814
      ],
      "type": "VEC3"
    },
    {
      "bufferView": 3,
      "byteOffset": 361728,
      "componentType": 5126,
      "count": 2644,
      "max": [
        0.9965524077415466,
        0.9968980550765991,
        0.9924760460853577,
        -1.0
      ],
      "min": [
        -0.9965524077415466,
        -0.9999677538871765,
        -0.9924764633178711,
        -1.0
      ],
      "type": "VEC4"
    },
    {
      "bufferView": 1,
      "byteOffset": 180864,
      "componentType": 5126,
      "count": 2644,
      "max": [
        0.9719669818878174,
        0.9866301417350769
      ],
      "min": [
        0.013369844295084476,
        0.013369858264923096
      ],
      "type": "VEC2"
    },
    {
      "bufferView": 0,
      "byteOffset": 137160,
      "componentType": 5125,
      "count": 3984,
      "type": "SCALAR"
    },
    {
      "bufferView": 2,
      "byteOffset": 606048,
      "componentType": 5126,
      "count": 1523,
      "max": [
        0.6480827331542969,
        1.0309092998504639,
        2.0469722747802734
      ],
      "min": [
        -0.6480827331542969,
        -1.0309092998504639,
        -2.0469722747802734
      ],
      "type": "VEC3"
    },
    {
      "bufferView": 2,
      "byteOffset": 624324,
      "componentType": 5126,
      "count": 1523,
      "max": [
        0.997452974319458,
        0.9950113296508789,
        0.9968597292900085
      ],
      "min": [
        -0.9974527359008789,
        -1.0,
        -0.9993914365768433
      ],
      "type": "VEC3"
    },
    {
      "bufferView": 3,
      "byteOffset": 404032,
      "componentType": 5126,
      "count": 1523,
      "max": [
        1.0,
        0.9920393824577332,
        0.9997408390045166,
        -1.0
      ],
      "min": [
        -1.0,
        -0.9957132339477539,
        -1.0,
        -1.0
      ],
      "type": "VEC4"
    },
    {
      "bufferView": 1,
      "byteOffset": 202016,
      "componentType": 5126,
      "count": 1523,
      "max": [
        0.9843964576721191,
        0.988680899143219
      ],
      "min": [
        0.013848512433469296,
        0.01398313045501709
      ],
      "type": "VEC2"
    },
    {
      "bufferView": 0,
      "byteOffset": 153096,
      "componentType": 5125,
      "count": 2316,
      "type": "SCALAR"
    },
    {
      "bufferView": 2,
      "byteOffset": 642600,
      "componentType": 5126,
      "count": 2156,
      "max": [
        0.6377277374267578,
        2.2131848335266113,
        1.8880720138549805
      ],
      "min": [
        -0.6377277374267578,
        -2.2131848335266113,
        -1.8880720138549805
      ],
      "type": "VEC3"
    },
    {
      "bufferView": 2,
      "byteOffset": 668472,
      "componentType": 5126,
      "count": 2156,
      "max": [
        0.9967582821846008,
        0.9791229963302612,
        0.9968476295471191
      ],
      "min": [
        -0.9967583417892456,
        -1.0,
        -0.9993629455566406
      ],
      "type": "VEC3"
    },
    {
      "bufferView": 3,
      "byteOffset": 428400,
      "componentType": 5126,
      "count": 2156,
      "max": [
        0.9998381733894348,
        0.9933006167411804,
        0.9928674697875977,
        -1.0
      ],
      "min": [
        -0.9984726309776306,
        -0.9739128351211548,
        -0.9892538189888,
        -1.0
      ],
      "type": "VEC4"
    },
    {
      "bufferView": 1,
      "byteOffset": 214200,
      "componentType": 5126,
      "count": 2156,
      "max": [
        0.9865905046463013,
        0.9940884113311768
      ],
      "min": [
        0.010513834655284882,
        0.013885021209716797
      ],
      "type": "VEC2"
    },
    {
      "bufferView": 0,
      "byteOffset": 162360,
      "componentType": 5125,
      "count": 3288,
      "type": "SCALAR"
    },
    {
      "bufferView": 2,
      "byteOffset": 694344,
      "componentType": 5126,
      "count": 1577,
      "max": [
        0.5087907314300537,
        1.5218664407730103,
        1.9611271619796753
      ],
      "min": [
        -0.5087908506393433,
        -1.5218664407730103,
        -1.9611271619796753
      ],
      "type": "VEC3"
    },
    {
      "bufferView": 2,
      "byteOffset": 713268,
      "componentType": 5126,
      "count": 1577,
      "max": [
        0.9938119649887085,
        0.9997063279151917,
        0.9999933838844299
      ],
      "min": [
        -0.9938120245933533,
        -1.0,
        -0.999999463558197
      ],
      "type": "VEC3"
    },
    {
      "bufferView": 3,
      "byteOffset": 462896,
      "componentType": 5126,
      "count": 1577,
      "max": [
        1.0,
        0.999413013458252,
        0.9998987317085266,
        -1.0
      ],
      "min": [
        -1.0,
        -0.9992880821228027,
        -0.9922877550125122,
        -1.0
      ],
      "type": "VEC4"
    },
    {
      "bufferView": 1,
      "byteOffset": 231448,
      "componentType": 5126,
      "count": 1577,
      "max": [
        0.9892742037773132,
        0.9940891861915588
      ],
      "min": [
        0.011793022975325584,
        0.009976685047149658
      ],
      "type": "VEC2"
    },
    {
      "bufferView": 0,
      "byteOffset": 175512,
      "componentType": 5125,
      "count": 2496,
      "type": "SCALAR"
    }
  ],
  "asset": {
    "extras": {
      "author": "SlagPerch 3D (https://sketchfab.com/slagperch3d)",
      "license": "CC-BY-4.0 (http://creativecommons.org/licenses/by/4.0/)",
      "source": "https://sketchfab.com/3d-models/low-poly-animal-toys-zoo-5754f759d22c44b79e4d8e1292ff01a5",
      "title": "Low poly animal toys (Zoo)"
    },
    "generator": "Sketchfab-15.55.0",
    "version": "2.0"
  },
  "bufferViews": [
    {
      "buffer": 0,
      "byteLength": 185496,
      "name": "floatBufferViews",
      "target": 34963
    },
    {
      "buffer": 0,
      "byteLength": 244064,
      "byteOffset": 185496,
      "byteStride": 8,
      "name": "floatBufferViews",
      "target": 34962
    },
    {
      "buffer": 0,
      "byteLength": 732192,
      "byteOffset": 429560,
      "byteStride": 12,
      "name": "floatBufferViews",
      "target": 34962
    },
    {
      "buffer": 0,
      "byteLength": 488128,
      "byteOffset": 1161752,
      "byteStride": 16,
      "name": "floatBufferViews",
      "target": 34962
    }
  ],
  "buffers": [
    {
      "byteLength": 1649880,
      "uri": "scene.bin"
    }
  ],
  "images": [
    {
      "uri": "textures/Main.002_baseColor.png"
    },
    {
      "uri": "textures/Main.002_metallicRoughness.png"
    },
    {
      "uri": "textures/Main.002_normal.png"
    },
    {
      "uri": "textures/Main.003_baseColor.png"
    },
    {
      "uri": "textures/Main.003_metallicRoughness.png"
    },
    {
      "uri": "textures/Main.003_normal.png"
    },
    {
      "uri": "textures/Main.004_baseColor.png"
    },
    {
      "uri": "textures/Main.004_metallicRoughness.png"
    },
    {
      "uri": "textures/Main.004_normal.png"
    },
    {
      "uri": "textures/Main.005_baseColor.png"
    },
    {
      "uri": "textures/Main.005_metallicRoughness.png"
    },
    {
      "uri": "textures/Main.005_normal.png"
    },
    {
      "uri": "textures/Main.006_baseColor.png"
    },
    {
      "uri": "textures/Main.006_metallicRoughness.png"
    },
    {
      "uri": "textures/Main.006_normal.png"
    },
    {
      "uri": "textures/Main.007_baseColor.png"
    },
    {
      "uri": "textures/Main.007_metallicRoughness.png"
    },
    {
      "uri": "textures/Main.007_normal.png"
    },
    {
      "uri": "textures/Main.008_baseColor.png"
    },
    {
      "uri": "textures/Main.008_metallicRoughness.png"
    },
    {
      "uri": "textures/Main.008_normal.png"
    },
    {
      "uri": "textures/Owl_1_baseColor.png"
    },
    {
      "uri": "textures/Owl_1_metallicRoughness.png"
    },
    {
      "uri": "textures/Owl_1_normal.png"
    },
    {
      "uri": "textures/Main.009_baseColor.png"
    },
    {
      "uri": "textures/Main.009_metallicRoughness.png"
    },
    {
      "uri": "textures/Main.009_normal.png"
    },
    {
      "uri": "textures/Main.010_baseColor.png"
    },
    {
      "uri": "textures/Main.010_metallicRoughness.png"
    },
    {
      "uri": "textures/Main.010_normal.png"
    },
    {
      "uri": "textures/Main.011_baseColor.png"
    },
    {
      "uri": "textures/Main.011_metallicRoughness.png"
    },
    {
      "uri": "textures/Main.011_normal.png"
    }
  ],
  "materials": [
    {
      "doubleSided": true,
      "name": "Main.002",
      "normalTexture": {
        "index": 2
      },
      "pbrMetallicRoughness": {
        "baseColorTexture": {
          "index": 0
        },
        "metallicRoughnessTexture": {
          "index": 1
        }
      }
    },
    {
      "doubleSided": true,
      "name": "Main.003",
      "normalTexture": {
        "index": 5
      },
      "pbrMetallicRoughness": {
        "baseColorTexture": {
          "index": 3
        },
        "metallicRoughnessTexture": {
          "index": 4
        }
      }
    },
    {
      "doubleSided": true,
      "name": "Main.004",
      "normalTexture": {
        "index": 8
      },
      "pbrMetallicRoughness": {
        "baseColorTexture": {
          "index": 6
        },
        "metallicRoughnessTexture": {
          "index": 7
        }
      }
    },
    {
      "doubleSided": true,
      "name": "Main.005",
      "normalTexture": {
        "index": 11
      },
      "pbrMetallicRoughness": {
        "baseColorTexture": {
          "index": 9
        },
        "metallicRoughnessTexture": {
          "index": 10
        }
      }
    },
    {
      "doubleSided": true,
      "name": "Main.006",
      "normalTexture": {
        "index": 14
      },
      "pbrMetallicRoughness": {
        "baseColorTexture": {
          "index": 12
        },
        "metallicRoughnessTexture": {
          "index": 13
        }
      }
    },
    {
      "doubleSided": true,
      "name": "Main.007",
      "normalTexture": {
        "index": 17
      },
      "pbrMetallicRoughness": {
        "baseColorTexture": {
          "index": 15
        },
        "metallicRoughnessTexture": {
          "index": 16
        }
      }
    },
    {
      "doubleSided": true,
      "name": "Main.008",
      "normalTexture": {
        "index": 20
      },
      "pbrMetallicRoughness": {
        "baseColorTexture": {
          "index": 18
        },
        "metallicRoughnessTexture": {
          "index": 19
        }
      }
    },
    {
      "doubleSided": true,
      "name": "Owl_1",
      "normalTexture": {
        "index": 23
      },
      "pbrMetallicRoughness": {
        "baseColorTexture": {
          "index": 21
        },
        "metallicRoughnessTexture": {
          "index": 22
        }
      }
    },
    {
      "doubleSided": true,
      "name": "Main.009",
      "normalTexture": {
        "index": 26
      },
      "pbrMetallicRoughness": {
        "baseColorTexture": {
          "index": 24
        },
        "metallicRoughnessTexture": {
          "index": 25
        }
      }
    },
    {
      "doubleSided": true,
      "name": "Main.010",
      "normalTexture": {
        "index": 29
      },
      "pbrMetallicRoughness": {
        "baseColorTexture": {
          "index": 27
        },
        "metallicRoughnessTexture": {
          "index": 28
        }
      }
    },
    {
      "doubleSided": true,
      "name": "Main.011",
      "normalTexture": {
        "index": 32
      },
      "pbrMetallicRoughness": {
        "baseColorTexture": {
          "index": 30
        },
        "metallicRoughnessTexture": {
          "index": 31
        }
      }
    }
  ],
  "meshes": [
    {
      "name": "Object_0",
      "primitives": [
        {
          "attributes": {
            "NORMAL": 1,
            "POSITION": 0,
            "TANGENT": 2,
            "TEXCOORD_0": 3
          },
          "indices": 4,
          "material": 0,
          "mode": 4
        }
      ]
    },
    {
      "name": "Object_1",
      "primitives": [
        {
          "attributes": {
            "NORMAL": 6,
            "POSITION": 5,
            "TANGENT": 7,
            "TEXCOORD_0": 8
          },
          "indices": 9,
          "material": 1,
          "mode": 4
        }
      ]
    },
    {
      "name": "Object_2",
      "primitives": [
        {
          "attributes": {
            "NORMAL": 11,
            "POSITION": 10,
            "TANGENT": 12,
            "TEXCOORD_0": 13
          },
          "indices": 14,
          "material": 2,
          "mode": 4
        }
      ]
    },
    {
      "name": "Object_3",
      "primitives": [
        {
          "attributes": {
            "NORMAL": 16,
            "POSITION": 15,
            "TANGENT": 17,
            "TEXCOORD_0": 18
          },
          "indices": 19,
          "material": 3,
          "mode": 4
        }
      ]
    },
    {
      "name": "Object_4",
      "primitives": [
        {
          "attributes": {
            "NORMAL": 21,
            "POSITION": 20,
            "TANGENT": 22,
            "TEXCOORD_0": 23
          },
          "indices": 24,
          "material": 4,
          "mode": 4
        }
      ]
    },
    {
      "name": "Object_5",
      "primitives": [
        {
          "attributes": {
            "NORMAL": 26,
            "POSITION": 25,
            "TANGENT": 27,
            "TEXCOORD_0": 28
          },
          "indices": 29,
          "material": 5,
          "mode": 4
        }
      ]
    },
    {
      "name": "Object_6",
      "primitives": [
        {
          "attributes": {
            "NORMAL": 31,
            "POSITION": 30,
            "TANGENT": 32,
            "TEXCOORD_0": 33
          },
          "indices": 34,
          "material": 6,
          "mode": 4
        }
      ]
    },
    {
      "name": "Object_7",
      "primitives": [
        {
          "attributes": {
            "NORMAL": 36,
            "POSITION": 35,
            "TANGENT": 37,
            "TEXCOORD_0": 38
          },
          "indices": 39,
          "material": 7,
          "mode": 4
        }
      ]
    },
    {
      "name": "Object_8",
      "primitives": [
        {
          "attributes": {
            "NORMAL": 41,
            "POSITION": 40,
            "TANGENT": 42,
            "TEXCOORD_0": 43
          },
          "indices": 44,
          "material": 8,
          "mode": 4
        }
      ]
    },
    {
      "name": "Object_9",
      "primitives": [
        {
          "attributes": {
            "NORMAL": 46,
            "POSITION": 45,
            "TANGENT": 47,
            "TEXCOORD_0": 48
          },
          "indices": 49,
          "material": 9,
          "mode": 4
        }
      ]
    },
    {
      "name": "Object_10",
      "primitives": [
        {
          "attributes": {
            "NORMAL": 51,
            "POSITION": 50,
            "TANGENT": 52,
            "TEXCOORD_0": 53
          },
          "indices": 54,
          "material": 10,
          "mode": 4
        }
      ]
    }
  ],
  "nodes": [
    {
      "children": [
        1
      ],
      "matrix": [
        1.0,
        0.0,
        0.0,
        0.0,
        0.0,
        2.220446049250313e-16,
        -1.0,
        0.0,
        0.0,
        1.0,
        2.220446049250313e-16,
        0.0,
        0.0,
        0.0,
        0.0,
        1.0
      ],
      "name": "Sketchfab_model"
    },
    {
      "children": [
        2
      ],
      "name": "root"
    },
    {
      "children": [
        3,
        5,
        7,
        9,
        11,
        13,
        15,
        17,
        19,
        21,
        23
      ],
      "matrix": [
        1.0,
        0.0,
        0.0,
        0.0,
        0.0,
        2.220446049250313e-16,
        1.0,
        0.0,
        0.0,
        -1.0,
        2.220446049250313e-16,
        0.0,
        0.0,
        0.0,
        0.0,
        1.0
      ],
      "name": "GLTF_SceneRootNode"
    },
    {
      "children": [
        4
      ],
      "matrix": [
        1.0,
        0.0,
        0.0,
        0.0,
        0.0,
        1.0,
        0.0,
        0.0,
        0.0,
        0.0,
        1.0,
        0.0,
        -10.95356559753418,
        0.0,
        0.0,
        1.0
      ],
      "name": "Boar_0"
    },
    {
      "mesh": 0,
      "name": "Object_4"
    },
    {
      "children": [
        6
      ],
      "matrix": [
        1.0,
        0.0,
        0.0,
        0.0,
        0.0,
        1.0,
        0.0,
        0.0,
        0.0,
        0.0,
        1.0,
        0.0,
        -7.714475154876709,
        0.0,
        0.0,
        1.0
      ],
      "name": "Camel_1"
    },
    {
      "mesh": 1,
      "name": "Object_6"
    },
    {
      "children": [
        8
      ],
      "matrix": [
        1.0,
        0.0,
        0.0,
        0.0,
        0.0,
        1.0,
        0.0,
        0.0,
        0.0,
        0.0,
        1.0,
        0.0,
        9.915079116821289,
        0.0,
        0.0,
        1.0
      ],
      "name": "Elephant_2"
    },
    {
      "mesh": 2,
      "name": "Object_8"
    },
    {
      "children": [
        10
      ],
      "matrix": [
        1.0,
        0.0,
        0.0,
        0.0,
        0.0,
        1.0,
        0.0,
        0.0,
        0.0,
        0.0,
        1.0,
        0.0,
        3.807785987854004,
        0.0,
        0.0,
        1.0
      ],
      "name": "Giraffe_3"
    },
    {
      "mesh": 3,
      "name": "Object_10"
    },
    {
      "children": [
        12
      ],
      "matrix": [
        1.0,
        0.0,
        0.0,
        0.0,
        0.0,
        1.0,
        0.0,
        0.0,
        0.0,
        0.0,
        1.0,
        0.0,
        -2.620943307876587,
        0.0,
        0.0,
        1.0
      ],
      "name": "Guerilla_4"
    },
    {
      "mesh": 4,
      "name": "Object_12"
    },
    {
      "children": [
        14
      ],
      "matrix": [
        1.0,
        0.0,
        0.0,
        0.0,
        0.0,
        1.0,
        0.0,
        0.0,
        0.0,
        0.0,
        1.0,
        0.0,
        12.659650802612305,
        0.0,
        0.0,
        1.0
      ],
      "name": "Hare_5"
    },
    {
      "mesh": 5,
      "name": "Object_14"
    },
    {
      "children": [
        16
      ],
      "matrix": [
        1.0,
        0.0,
        0.0,
        0.0,
        0.0,
        1.0,
        0.0,
        0.0,
        0.0,
        0.0,
        1.0,
        0.0,
        -5.1429829597473145,
        0.0,
        0.0,
        1.0
      ],
      "name": "Hog_6"
    },
    {
      "mesh": 6,
      "name": "Object_16"
    },
    {
      "children": [
        18
      ],
      "name": "Owl_7"
    },
    {
      "mesh": 7,
      "name": "Object_18"
    },
    {
      "children": [
        20
      ],
      "matrix": [
        1.0,
        0.0,
        0.0,
        0.0,
        0.0,
        1.0,
        0.0,
        0.0,
        0.0,
        0.0,
        1.0,
        0.0,
        7.467216491699219,
        0.0,
        0.0,
        1.0
      ],
      "name": "Rhino_8"
    },
    {
      "mesh": 8,
      "name": "Object_20"
    },
    {
      "children": [
        22
      ],
      "matrix": [
        1.0,
        0.0,
        0.0,
        0.0,
        0.0,
        1.0,
        0.0,
        0.0,
        0.0,
        0.0,
        1.0,
        0.0,
        5.6127753257751465,
        0.0,
        0.0,
        1.0
      ],
      "name": "Stag_9"
    },
    {
      "mesh": 9,
      "name": "Object_22"
    },
    {
      "children": [
        24
      ],
      "matrix": [
        1.0,
        0.0,
        0.0,
        0.0,
        0.0,
        1.0,
        0.0,
        0.0,
        0.0,
        0.0,
        1.0,
        0.0,
        2.1264259815216064,
        0.0,
        0.0,
        1.0
      ],
      "name": "Wolf_10"
    },
    {
      "mesh": 10,
      "name": "Object_24"
    }
  ],
  "samplers": [
    {
      "magFilter": 9729,
      "minFilter": 9987,
      "wrapS": 10497,
      "wrapT": 10497
    }
  ],
  "scene": 0,
  "scenes": [
    {
      "name": "Sketchfab_Scene",
      "nodes": [
        0
      ]
    }
  ],
  "textures": [
    {
      "sampler": 0,
      "source": 0
    },
    {
      "sampler": 0,
      "source": 1
    },
    {
      "sampler": 0,
      "source": 2
    },
    {
      "sampler": 0,
      "source": 3
    },
    {
      "sampler": 0,
      "source": 4
    },
    {
      "sampler": 0,
      "source": 5
    },
    {
      "sampler": 0,
      "source": 6
    },
    {
      "sampler": 0,
      "source": 7
    },
    {
      "sampler": 0,
      "source": 8
    },
    {
      "sampler": 0,
      "source": 9
    },
    {
      "sampler": 0,
      "source": 10
    },
    {
      "sampler": 0,
      "source": 11
    },
    {
      "sampler": 0,
      "source": 12
    },
    {
      "sampler": 0,
      "source": 13
    },
    {
      "sampler": 0,
      "source": 14
    },
    {
      "sampler": 0,
      "source": 15
    },
    {
      "sampler": 0,
      "source": 16
    },
    {
      "sampler": 0,
      "source": 17
    },
    {
      "sampler": 0,
      "source": 18
    },
    {
      "sampler": 0,
      "source": 19
    },
    {
      "sampler": 0,
      "source": 20
    },
    {
      "sampler": 0,
      "source": 21
    },
    {
      "sampler": 0,
      "source": 22
    },
    {
      "sampler": 0,
      "source": 23
    },
    {
      "sampler": 0,
      "source": 24
    },
    {
      "sampler": 0,
      "source": 25
    },
    {
      "sampler": 0,
      "source": 26
    },
    {
      "sampler": 0,
      "source": 27
    },
    {
      "sampler": 0,
      "source": 28
    },
    {
      "sampler": 0,
      "source": 29
    },
    {
      "sampler": 0,
      "source": 30
    },
    {
      "sampler": 0,
      "source": 31
    },
    {
      "sampler": 0,
      "source": 32
    }
  ]
}
