{
  "accessors": [
    {
      "bufferView": 2,
      "componentType": 5126,
      "count": 130,
      "max": [
        0.019634176045656204,
        0.019634176045656204,
        0.0036883067805320024
      ],
      "min": [
        -0.019634176045656204,
        -0.019634176045656204,
        0.0
      ],
      "type": "VEC3"
    },
    {
      "bufferView": 2,
      "byteOffset": 1560,
      "componentType": 5126,
      "count": 130,
      "max": [
        1.0,
        1.0,
        1.0
      ],
      "min": [
        -1.0,
        -1.0,
        -1.0
      ],
      "type": "VEC3"
    },
    {
      "bufferView": 3,
      "componentType": 5126,
      "count": 130,
      "max": [
        0.9569424390792847,
        0.956942081451416,
        0.0,
        1.0
      ],
      "min": [
        -6.050329375284491e-06,
        -5.695138497685548e-06,
        -1.0,
        1.0
      ],
      "type": "VEC4"
    },
    {
      "bufferView": 1,
      "componentType": 5126,
      "count": 130,
      "max": [
        0.924556314945221,
        0.8491186499595642
      ],
      "min": [
        0.5825778841972351,
        0.4218335449695587
      ],
      "type": "VEC2"
    },
    {
      "bufferView": 1,
      "byteOffset": 1040,
      "componentType": 5126,
      "count": 130,
      "max": [
        0.924556314945221,
        0.8491186499595642
      ],
      "min": [
        0.5825778841972351,
        0.4218335449695587
      ],
      "type": "VEC2"
    },
    {
      "bufferView": 1,
      "byteOffset": 2080,
      "componentType": 5126,
      "count": 130,
      "max": [
        0.924556314945221,
        0.8491186499595642
      ],
      "min": [
        0.5825778841972351,
        0.4218335449695587
      ],
      "type": "VEC2"
    },
    {
      "bufferView": 0,
      "componentType": 5125,
      "count": 372,
      "type": "SCALAR"
    },
    {
      "bufferView": 2,
      "byteOffset": 3120,
      "componentType": 5126,
      "count": 130,
      "max": [
        0.02598896622657776,
        0.02598896622657776,
        0.004882063250988722
      ],
      "min": [
        -0.02598896622657776,
        -0.02598896622657776,
        0.0
      ],
      "type": "VEC3"
    },
    {
      "bufferView": 2,
      "byteOffset": 4680,
      "componentType": 5126,
      "count": 130,
      "max": [
        1.0,
        1.0,
        1.0
      ],
      "min": [
        -1.0,
        -1.0,
        -1.0
      ],
      "type": "VEC3"
    },
    {
      "bufferView": 3,
      "byteOffset": 2080,
      "componentType": 5126,
      "count": 130,
      "max": [
        1.7894166148835211e-06,
        0.8819330334663391,
        0.0,
        1.0
      ],
      "min": [
        -0.9569494128227234,
        -0.29029160737991333,
        -1.0,
        1.0
      ],
      "type": "VEC4"
    },
    {
      "bufferView": 1,
      "byteOffset": 3120,
      "componentType": 5126,
      "count": 130,
      "max": [
        0.8444784879684448,
        0.9874135851860046
      ],
      "min": [
        0.012586347758769989,
        0.012586347758769989
      ],
      "type": "VEC2"
    },
    {
      "bufferView": 1,
      "byteOffset": 4160,
      "componentType": 5126,
      "count": 130,
      "max": [
        0.8444784879684448,
        0.9874135851860046
      ],
      "min": [
        0.012586347758769989,
        0.012586347758769989
      ],
      "type": "VEC2"
    },
    {
      "bufferView": 1,
      "byteOffset": 5200,
      "componentType": 5126,
      "count": 130,
      "max": [
        0.8444784879684448,
        0.9874135851860046
      ],
      "min": [
        0.012586347758769989,
        0.012586347758769989
      ],
      "type": "VEC2"
    },
    {
      "bufferView": 0,
      "byteOffset": 1488,
      "componentType": 5125,
      "count": 372,
      "type": "SCALAR"
    },
    {
      "bufferView": 2,
      "byteOffset": 6240,
      "componentType": 5126,
      "count": 130,
      "max": [
        0.02598896622657776,
        0.02598896622657776,
        0.004882063250988722
      ],
      "min": [
        -0.02598896622657776,
        -0.02598896622657776,
        0.0
      ],
      "type": "VEC3"
    },
    {
      "bufferView": 2,
      "byteOffset": 7800,
      "componentType": 5126,
      "count": 130,
      "max": [
        1.0,
        1.0,
        1.0
      ],
      "min": [
        -1.0,
        -1.0,
        -1.0
      ],
      "type": "VEC3"
    },
    {
      "bufferView": 3,
      "byteOffset": 4160,
      "componentType": 5126,
      "count": 130,
      "max": [
        1.7894166148835211e-06,
        1.1368999274993796e-12,
        0.0,
        1.0
      ],
      "min": [
        -0.9569463133811951,
        -0.47140827775001526,
        -1.0,
        1.0
      ],
      "type": "VEC4"
    },
    {
      "bufferView": 1,
      "byteOffset": 6240,
      "componentType": 5126,
      "count": 130,
      "max": [
        0.8023688793182373,
        0.9874135851860046
      ],
      "min": [
        0.012586347758769989,
        0.21720996499061584
      ],
      "type": "VEC2"
    },
    {
      "bufferView": 1,
      "byteOffset": 7280,
      "componentType": 5126,
      "count": 130,
      "max": [
        0.8023688793182373,
        0.9874135851860046
      ],
      "min": [
        0.012586347758769989,
        0.21720996499061584
      ],
      "type": "VEC2"
    },
    {
      "bufferView": 1,
      "byteOffset": 8320,
      "componentType": 5126,
      "count": 130,
      "max": [
        0.8023688793182373,
        0.9874135851860046
      ],
      "min": [
        0.012586347758769989,
        0.21720996499061584
      ],
      "type": "VEC2"
    },
    {
      "bufferView": 0,
      "byteOffset": 2976,
      "componentType": 5125,
      "count": 372,
      "type": "SCALAR"
    },
    {
      "bufferView": 2,
      "byteOffset": 9360,
      "componentType": 5126,
      "count": 130,
      "max": [
        0.019634176045656204,
        0.019634176045656204,
        0.0036883067805320024
      ],
      "min": [
        -0.019634176045656204,
        -0.019634176045656204,
        0.0
      ],
      "type": "VEC3"
    },
    {
      "bufferView": 2,
      "byteOffset": 10920,
      "componentType": 5126,
      "count": 130,
      "max": [
        1.0,
        1.0,
        1.0
      ],
      "min": [
        -1.0,
        -1.0,
        -1.0
      ],
      "type": "VEC3"
    },
    {
      "bufferView": 3,
      "byteOffset": 6240,
      "componentType": 5126,
      "count": 130,
      "max": [
        0.7730417847633362,
        0.634406328201294,
        1.3664958942172234e-08,
        1.0
      ],
      "min": [
        -0.8819326162338257,
        -0.4714047908782959,
        -1.0,
        1.0
      ],
      "type": "VEC4"
    },
    {
      "bufferView": 1,
      "byteOffset": 9360,
      "componentType": 5126,
      "count": 130,
      "max": [
        0.9625244736671448,
        0.8491186499595642
      ],
      "min": [
        0.42183348536491394,
        0.4218335449695587
      ],
      "type": "VEC2"
    },
    {
      "bufferView": 1,
      "byteOffset": 10400,
      "componentType": 5126,
      "count": 130,
      "max": [
        0.9625244736671448,
        0.8491186499595642
      ],
      "min": [
        0.42183348536491394,
        0.4218335449695587
      ],
      "type": "VEC2"
    },
    {
      "bufferView": 1,
      "byteOffset": 11440,
      "componentType": 5126,
      "count": 130,
      "max": [
        0.9625244736671448,
        0.8491186499595642
      ],
      "min": [
        0.42183348536491394,
        0.4218335449695587
      ],
      "type": "VEC2"
    },
    {
      "bufferView": 0,
      "byteOffset": 4464,
      "componentType": 5125,
      "count": 372,
      "type": "SCALAR"
    },
    {
      "bufferView": 2,
      "byteOffset": 12480,
      "componentType": 5126,
      "count": 130,
      "max": [
        0.02598896622657776,
        0.02598896622657776,
        0.004882063250988722
      ],
      "min": [
        -0.02598896622657776,
        -0.02598896622657776,
        0.0
      ],
      "type": "VEC3"
    },
    {
      "bufferView": 2,
      "byteOffset": 14040,
      "componentType": 5126,
      "count": 130,
      "max": [
        1.0,
        1.0,
        1.0
      ],
      "min": [
        -1.0,
        -1.0,
        -1.0
      ],
      "type": "VEC3"
    },
    {
      "bufferView": 3,
      "byteOffset": 8320,
      "componentType": 5126,
      "count": 130,
      "max": [
        1.7894166148835211e-06,
        1.1368999274993796e-12,
        0.0,
        1.0
      ],
      "min": [
        -0.9569470286369324,
        -0.4714023172855377,
        -1.0,
        1.0
      ],
      "type": "VEC4"
    },
    {
      "bufferView": 1,
      "byteOffset": 12480,
      "componentType": 5126,
      "count": 130,
      "max": [
        0.7602592706680298,
        0.9874135851860046
      ],
      "min": [
        0.42183348536491394,
        0.012586347758769989
      ],
      "type": "VEC2"
    },
    {
      "bufferView": 1,
      "byteOffset": 13520,
      "componentType": 5126,
      "count": 130,
      "max": [
        0.7602592706680298,
        0.9874135851860046
      ],
      "min": [
        0.42183348536491394,
        0.012586347758769989
      ],
      "type": "VEC2"
    },
    {
      "bufferView": 1,
      "byteOffset": 14560,
      "componentType": 5126,
      "count": 130,
      "max": [
        0.7602592706680298,
        0.9874135851860046
      ],
      "min": [
        0.42183348536491394,
        0.012586347758769989
      ],
      "type": "VEC2"
    },
    {
      "bufferView": 0,
      "byteOffset": 5952,
      "componentType": 5125,
      "count": 372,
      "type": "SCALAR"
    },
    {
      "bufferView": 2,
      "byteOffset": 15600,
      "componentType": 5126,
      "count": 130,
      "max": [
        0.02598896622657776,
        0.02598896622657776,
        0.004882063250988722
      ],
      "min": [
        -0.02598896622657776,
        -0.02598896622657776,
        0.0
      ],
      "type": "VEC3"
    },
    {
      "bufferView": 2,
      "byteOffset": 17160,
      "componentType": 5126,
      "count": 130,
      "max": [
        1.0,
        1.0,
        1.0
      ],
      "min": [
        -1.0,
        -1.0,
        -1.0
      ],
      "type": "VEC3"
    },
    {
      "bufferView": 3,
      "byteOffset": 10400,
      "componentType": 5126,
      "count": 130,
      "max": [
        1.7894166148835211e-06,
        2.1649971131409984e-06,
        0.0,
        1.0
      ],
      "min": [
        -0.9569494128227234,
        -0.47140827775001526,
        -1.0,
        1.0
      ],
      "type": "VEC4"
    },
    {
      "bufferView": 1,
      "byteOffset": 15600,
      "componentType": 5126,
      "count": 130,
      "max": [
        0.8865880966186523,
        0.9874135851860046
      ],
      "min": [
        0.21720992028713226,
        0.012586347758769989
      ],
      "type": "VEC2"
    },
    {
      "bufferView": 1,
      "byteOffset": 16640,
      "componentType": 5126,
      "count": 130,
      "max": [
        0.8865880966186523,
        0.9874135851860046
      ],
      "min": [
        0.21720992028713226,
        0.012586347758769989
      ],
      "type": "VEC2"
    },
    {
      "bufferView": 1,
      "byteOffset": 17680,
      "componentType": 5126,
      "count": 130,
      "max": [
        0.8865880966186523,
        0.9874135851860046
      ],
      "min": [
        0.21720992028713226,
        0.012586347758769989
      ],
      "type": "VEC2"
    },
    {
      "bufferView": 0,
      "byteOffset": 7440,
      "componentType": 5125,
      "count": 372,
      "type": "SCALAR"
    }
  ],
  "asset": {
    "extras": {
      "author": "Kigha (https://sketchfab.com/Kigha)",
      "license": "CC-BY-4.0 (http://creativecommons.org/licenses/by/4.0/)",
      "source": "https://sketchfab.com/3d-models/fantasy-designed-coins-gold-silver-copper-71a3526b3403419f97717865afb27a41",
      "title": "Fantasy Designed Coins - (Gold, Silver, Copper)"
    },
    "generator": "Sketchfab-12.67.0",
    "version": "2.0"
  },
  "bufferViews": [
    {
      "buffer": 0,
      "byteLength": 8928,
      "name": "floatBufferViews",
      "target": 34963
    },
    {
      "buffer": 0,
      "byteLength": 18720,
      "byteOffset": 8928,
      "byteStride": 8,
      "name": "floatBufferViews",
      "target": 34962
    },
    {
      "buffer": 0,
      "byteLength": 18720,
      "byteOffset": 27648,
      "byteStride": 12,
      "name": "floatBufferViews",
      "target": 34962
    },
    {
      "buffer": 0,
      "byteLength": 12480,
      "byteOffset": 46368,
      "byteStride": 16,
      "name": "floatBufferViews",
      "target": 34962
    }
  ],
  "buffers": [
    {
      "byteLength": 58848,
      "uri": "scene.bin"
    }
  ],
  "images": [
    {
      "uri": "textures/Coins_baseColor.png"
    },
    {
      "uri": "textures/Coins_metallicRoughness.png"
    },
    {
      "uri": "textures/Coins_normal.png"
    }
  ],
  "materials": [
    {
      "doubleSided": true,
      "name": "Coins",
      "normalTexture": {
        "index": 2
      },
      "pbrMetallicRoughness": {
        "baseColorTexture": {
          "index": 0
        },
        "metallicRoughnessTexture": {
          "index": 1
        }
      }
    }
  ],
  "meshes": [
    {
      "name": "Coin_Copper-Old_Coins_0",
      "primitives": [
        {
          "attributes": {
            "NORMAL": 1,
            "POSITION": 0,
            "TANGENT": 2,
            "TEXCOORD_0": 3,
            "TEXCOORD_1": 4,
            "TEXCOORD_2": 5
          },
          "indices": 6,
          "material": 0,
          "mode": 4
        }
      ]
    },
    {
      "name": "Coin_Gold-Old_Coins_0",
      "primitives": [
        {
          "attributes": {
            "NORMAL": 8,
            "POSITION": 7,
            "TANGENT": 9,
            "TEXCOORD_0": 10,
            "TEXCOORD_1": 11,
            "TEXCOORD_2": 12
          },
          "indices": 13,
          "material": 0,
          "mode": 4
        }
      ]
    },
    {
      "name": "Coin_Silver-Old_Coins_0",
      "primitives": [
        {
          "attributes": {
            "NORMAL": 15,
            "POSITION": 14,
            "TANGENT": 16,
            "TEXCOORD_0": 17,
            "TEXCOORD_1": 18,
            "TEXCOORD_2": 19
          },
          "indices": 20,
          "material": 0,
          "mode": 4
        }
      ]
    },
    {
      "name": "Coin_Copper-New_Coins_0",
      "primitives": [
        {
          "attributes": {
            "NORMAL": 22,
            "POSITION": 21,
            "TANGENT": 23,
            "TEXCOORD_0": 24,
            "TEXCOORD_1": 25,
            "TEXCOORD_2": 26
          },
          "indices": 27,
          "material": 0,
          "mode": 4
        }
      ]
    },
    {
      "name": "Coin_Gold-New_Coins_0",
      "primitives": [
        {
          "attributes": {
            "NORMAL": 29,
            "POSITION": 28,
            "TANGENT": 30,
            "TEXCOORD_0": 31,
            "TEXCOORD_1": 32,
            "TEXCOORD_2": 33
          },
          "indices": 34,
          "material": 0,
          "mode": 4
        }
      ]
    },
    {
      "name": "Coin_Silver-New_Coins_0",
      "primitives": [
        {
          "attributes": {
            "NORMAL": 36,
            "POSITION": 35,
            "TANGENT": 37,
            "TEXCOORD_0": 38,
            "TEXCOORD_1": 39,
            "TEXCOORD_2": 40
          },
          "indices": 41,
          "material": 0,
          "mode": 4
        }
      ]
    }
  ],
  "nodes": [
    {
      "children": [
        1
      ],
      "matrix": [
        1.0,
        0.0,
        0.0,
        0.0,
        0.0,
        3.828568672208042e-16,
        -1.0,
        0.0,
        0.0,
        1.0,
        3.828568672208042e-16,
        0.0,
        0.0,
        -8.936314941956774e-32,
        4.0245584642661925e-16,
        1.0
      ],
      "name": "Sketchfab_model"
    },
    {
      "children": [
        2
      ],
      "matrix": [
        1.0,
        0.0,
        0.0,
        0.0,
        0.0,
        0.0,
        1.0,
        0.0,
        0.0,
        -1.0,
        0.0,
        0.0,
        0.0,
        0.0,
        0.0,
        1.0
      ],
      "name": "Coins.fbx"
    },
    {
      "children": [
        3,
        5,
        7,
        9,
        11,
        13
      ],
      "name": "RootNode"
    },
    {
      "children": [
        4
      ],
      "matrix": [
        100.0,
        0.0,
        0.0,
        0.0,
        0.0,
        -1.629206793918314e-05,
        -99.99999999999868,
        0.0,
        0.0,
        99.99999999999868,
        -1.629206793918314e-05,
        0.0,
        7.796687602996826,
        0.0,
        -3.8629446029663086,
        1.0
      ],
      "name": "Coin_Copper-Old"
    },
    {
      "mesh": 0,
      "name": "Coin_Copper-Old_Coins_0"
    },
    {
      "children": [
        6
      ],
      "matrix": [
        100.0,
        0.0,
        0.0,
        0.0,
        0.0,
        -1.629206793918314e-05,
        -99.99999999999868,
        0.0,
        0.0,
        99.99999999999868,
        -1.629206793918314e-05,
        0.0,
        0.0,
        0.0,
        -3.8629446029663086,
        1.0
      ],
      "name": "Coin_Gold-Old"
    },
    {
      "mesh": 1,
      "name": "Coin_Gold-Old_Coins_0"
    },
    {
      "children": [
        8
      ],
      "matrix": [
        100.0,
        0.0,
        0.0,
        0.0,
        -0.0,
        -1.629206793918314e-05,
        -99.99999999999868,
        0.0,
        0.0,
        99.99999999999868,
        -1.629206793918314e-05,
        0.0,
        -7.796687602996826,
        0.0,
        -3.8629446029663086,
        1.0
      ],
      "name": "Coin_Silver-Old"
    },
    {
      "mesh": 2,
      "name": "Coin_Silver-Old_Coins_0"
    },
    {
      "children": [
        10
      ],
      "matrix": [
        100.0,
        0.0,
        0.0,
        0.0,
        0.0,
        -1.629206793918314e-05,
        -99.99999999999868,
        0.0,
        0.0,
        99.99999999999868,
        -1.629206793918314e-05,
        0.0,
        7.796687602996826,
        0.0,
        3.9337496757507324,
        1.0
      ],
      "name": "Coin_Copper-New"
    },
    {
      "mesh": 3,
      "name": "Coin_Copper-New_Coins_0"
    },
    {
      "children": [
        12
      ],
      "matrix": [
        100.0,
        0.0,
        0.0,
        0.0,
        0.0,
        -1.629206793918314e-05,
        -99.99999999999868,
        0.0,
        0.0,
        99.99999999999868,
        -1.629206793918314e-05,
        0.0,
        0.0,
        0.0,
        3.9337496757507324,
        1.0
      ],
      "name": "Coin_Gold-New"
    },
    {
      "mesh": 4,
      "name": "Coin_Gold-New_Coins_0"
    },
    {
      "children": [
        14
      ],
      "matrix": [
        100.0,
        0.0,
        0.0,
        0.0,
        -0.0,
        -1.629206793918314e-05,
        -99.99999999999868,
        0.0,
        0.0,
        99.99999999999868,
        -1.629206793918314e-05,
        0.0,
        -7.796687602996826,
        0.0,
        3.9337496757507324,
        1.0
      ],
      "name": "Coin_Silver-New"
    },
    {
      "mesh": 5,
      "name": "Coin_Silver-New_Coins_0"
    }
  ],
  "samplers": [
    {
      "magFilter": 9729,
      "minFilter": 9987,
      "wrapS": 10497,
      "wrapT": 10497
    }
  ],
  "scene": 0,
  "scenes": [
    {
      "name": "Sketchfab_Scene",
      "nodes": [
        0
      ]
    }
  ],
  "textures": [
    {
      "sampler": 0,
      "source": 0
    },
    {
      "sampler": 0,
      "source": 1
    },
    {
      "sampler": 0,
      "source": 2
    }
  ]
}
