{
  "accessors": [
    {
      "bufferView": 3,
      "componentType": 5126,
      "count": 1107,
      "max": [
        0.11655178666114807,
        0.22524426877498627,
        0.10637721419334412
      ],
      "min": [
        -0.11655178666114807,
        -0.14986807107925415,
        -0.2736375331878662
      ],
      "type": "VEC3"
    },
    {
      "bufferView": 3,
      "byteOffset": 13284,
      "componentType": 5126,
      "count": 1107,
      "max": [
        0.990382969379425,
        0.9985325336456299,
        0.9984295964241028
      ],
      "min": [
        -0.9903830885887146,
        -0.6766847372055054,
        -0.9997236132621765
      ],
      "type": "VEC3"
    },
    {
      "bufferView": 4,
      "componentType": 5126,
      "count": 1107,
      "max": [
        0.9996821880340576,
        0.9968485236167908,
        0.9171350002288818,
        1.0
      ],
      "min": [
        -0.9996822476387024,
        -0.9994721412658691,
        -0.9404208064079285,
        -1.0
      ],
      "type": "VEC4"
    },
    {
      "bufferView": 2,
      "componentType": 5126,
      "count": 1107,
      "max": [
        0.8473621606826782,
        0.9989885091781616
      ],
      "min": [
        0.008655022829771042,
        0.08868378400802612
      ],
      "type": "VEC2"
    },
    {
      "bufferView": 2,
      "byteOffset": 8856,
      "componentType": 5126,
      "count": 1107,
      "max": [
        1.0,
        1.1241300106048584
      ],
      "min": [
        0.0,
        0.0
      ],
      "type": "VEC2"
    },
    {
      "bufferView": 1,
      "componentType": 5125,
      "count": 3648,
      "type": "SCALAR"
    },
    {
      "bufferView": 3,
      "byteOffset": 26568,
      "componentType": 5126,
      "count": 233,
      "max": [
        0.09222358465194702,
        0.19655615091323853,
        -0.14012718200683594
      ],
      "min": [
        -0.07740841060876846,
        0.058612000197172165,
        -0.2511027455329895
      ],
      "type": "VEC3"
    },
    {
      "bufferView": 3,
      "byteOffset": 29364,
      "componentType": 5126,
      "count": 233,
      "max": [
        0.8846948146820068,
        0.9950839877128601,
        0.7989566922187805
      ],
      "min": [
        -0.8561559915542603,
        -0.958319902420044,
        -0.9947368502616882
      ],
      "type": "VEC3"
    },
    {
      "bufferView": 2,
      "byteOffset": 17712,
      "componentType": 5126,
      "count": 233,
      "max": [
        1.0,
        1.0
      ],
      "min": [
        0.0,
        0.0
      ],
      "type": "VEC2"
    },
    {
      "bufferView": 2,
      "byteOffset": 19576,
      "componentType": 5126,
      "count": 233,
      "max": [
        0.9998226165771484,
        0.7555427551269531
      ],
      "min": [
        0.0001780986785888672,
        0.00017833709716796875
      ],
      "type": "VEC2"
    },
    {
      "bufferView": 1,
      "byteOffset": 14592,
      "componentType": 5125,
      "count": 852,
      "type": "SCALAR"
    },
    {
      "bufferView": 3,
      "byteOffset": 32160,
      "componentType": 5126,
      "count": 4905,
      "max": [
        0.20297996699810028,
        0.2420242875814438,
        0.18432468175888062
      ],
      "min": [
        -0.20297996699810028,
        -0.3306463956832886,
        -0.21198363602161407
      ],
      "type": "VEC3"
    },
    {
      "bufferView": 3,
      "byteOffset": 91020,
      "componentType": 5126,
      "count": 4905,
      "max": [
        0.9999518394470215,
        0.9999737739562988,
        0.999804675579071
      ],
      "min": [
        -0.99997878074646,
        -0.9495108127593994,
        -0.9998681545257568
      ],
      "type": "VEC3"
    },
    {
      "bufferView": 4,
      "byteOffset": 17712,
      "componentType": 5126,
      "count": 4905,
      "max": [
        1.0,
        0.9998167157173157,
        0.9999738335609436,
        1.0
      ],
      "min": [
        -1.0,
        -0.9980242848396301,
        -0.9998111128807068,
        -1.0
      ],
      "type": "VEC4"
    },
    {
      "bufferView": 2,
      "byteOffset": 21440,
      "componentType": 5126,
      "count": 4905,
      "max": [
        0.9367012977600098,
        0.9975672960281372
      ],
      "min": [
        0.005272784270346165,
        0.06669418513774872
      ],
      "type": "VEC2"
    },
    {
      "bufferView": 2,
      "byteOffset": 60680,
      "componentType": 5126,
      "count": 4905,
      "max": [
        1.0,
        1.1241300106048584
      ],
      "min": [
        0.0,
        -0.09640064835548401
      ],
      "type": "VEC2"
    },
    {
      "bufferView": 1,
      "byteOffset": 18000,
      "componentType": 5125,
      "count": 18654,
      "type": "SCALAR"
    },
    {
      "bufferView": 5,
      "componentType": 5126,
      "count": 21,
      "max": [
        1.0,
        0.35108324885368347,
        0.38148656487464905,
        0.0,
        0.3945921063423157,
        1.0,
        0.5494144558906555,
        0.0,
        0.3123781979084015,
        0.5900455713272095,
        1.0,
        0.0,
        0.1348259001970291,
        0.020030809566378593,
        0.125773623585701,
        1.0
      ],
      "min": [
        0.9023531079292297,
        -0.25153666734695435,
        -0.10808782279491425,
        0.0,
        -0.30180954933166504,
        -0.99079430103302,
        -0.637205958366394,
        0.0,
        -0.0809970274567604,
        -0.5540564060211182,
        -0.957295298576355,
        0.0,
        -0.13100412487983704,
        -0.25710371136665344,
        -0.2598959505558014,
        1.0
      ],
      "type": "MAT4"
    },
    {
      "bufferView": 0,
      "componentType": 5123,
      "count": 1107,
      "type": "VEC4"
    },
    {
      "bufferView": 4,
      "byteOffset": 96192,
      "componentType": 5126,
      "count": 1107,
      "max": [
        1.0,
        0.49329209327697754,
        0.3134959936141968,
        0.10692012310028076
      ],
      "min": [
        0.32856595516204834,
        0.0,
        0.0,
        0.0
      ],
      "type": "VEC4"
    },
    {
      "bufferView": 0,
      "byteOffset": 8856,
      "componentType": 5123,
      "count": 233,
      "type": "VEC4"
    },
    {
      "bufferView": 4,
      "byteOffset": 113904,
      "componentType": 5126,
      "count": 233,
      "max": [
        0.9254656434059143,
        0.4992647171020508,
        0.0,
        0.0
      ],
      "min": [
        0.5007352828979492,
        0.07453438639640808,
        0.0,
        0.0
      ],
      "type": "VEC4"
    },
    {
      "bufferView": 0,
      "byteOffset": 10720,
      "componentType": 5123,
      "count": 4905,
      "type": "VEC4"
    },
    {
      "bufferView": 4,
      "byteOffset": 117632,
      "componentType": 5126,
      "count": 4905,
      "max": [
        1.0,
        0.4998762607574463,
        0.2880479693412781,
        0.0
      ],
      "min": [
        0.37809473276138306,
        0.0,
        0.0,
        0.0
      ],
      "type": "VEC4"
    }
  ],
  "asset": {
    "extras": {
      "author": "zHairezt (https://sketchfab.com/zHairezt)",
      "license": "CC-BY-4.0 (http://creativecommons.org/licenses/by/4.0/)",
      "source": "https://sketchfab.com/3d-models/long-hair-with-bow-with-bones-77f06c2005f248f2bb00f7e99350fedb",
      "title": "Long Hair With Bow (With Bones)"
    },
    "generator": "Sketchfab-16.14.0",
    "version": "2.0"
  },
  "bufferViews": [
    {
      "buffer": 0,
      "byteLength": 49960,
      "byteStride": 8,
      "name": "shortBufferViews",
      "target": 34962
    },
    {
      "buffer": 0,
      "byteLength": 92616,
      "byteOffset": 49960,
      "name": "floatBufferViews",
      "target": 34963
    },
    {
      "buffer": 0,
      "byteLength": 99920,
      "byteOffset": 142576,
      "byteStride": 8,
      "name": "floatBufferViews",
      "target": 34962
    },
    {
      "buffer": 0,
      "byteLength": 149880,
      "byteOffset": 242496,
      "byteStride": 12,
      "name": "floatBufferViews",
      "target": 34962
    },
    {
      "buffer": 0,
      "byteLength": 196112,
      "byteOffset": 392376,
      "byteStride": 16,
      "name": "floatBufferViews",
      "target": 34962
    },
    {
      "buffer": 0,
      "byteLength": 1344,
      "byteOffset": 588488,
      "name": "floatBufferViews"
    }
  ],
  "buffers": [
    {
      "byteLength": 589832,
      "uri": "scene.bin"
    }
  ],
  "extensionsUsed": [
    "KHR_materials_specular"
  ],
  "images": [
    {
      "uri": "textures/IP_VCHA_F_HAIR_2-1_shd_baseColor.png"
    },
    {
      "uri": "textures/IP_VCHA_F_HAIR_2-1_shd_normal.png"
    },
    {
      "uri": "textures/IP_VCHA_F_HAIR_2-1_shd_specularf0.png"
    }
  ],
  "materials": [
    {
      "alphaMode": "BLEND",
      "doubleSided": true,
      "extensions": {
        "KHR_materials_specular": {
          "specularColorFactor": [
            1.0,
            1.0,
            1.0
          ],
          "specularFactor": 1.0,
          "specularTexture": {
            "index": 2
          }
        }
      },
      "name": "IP_VCHA_F_HAIR_2-1_shd",
      "normalTexture": {
        "index": 1
      },
      "pbrMetallicRoughness": {
        "baseColorTexture": {
          "index": 0
        },
        "metallicFactor": 0.0,
        "roughnessFactor": 0.8097327425937588
      }
    },
    {
      "doubleSided": true,
      "name": "NoColor",
      "pbrMetallicRoughness": {
        "baseColorFactor": [
          0.933962,
          0.550685,
          0.550685,
          1.0
        ],
        "metallicFactor": 0.0,
        "roughnessFactor": 0.9577051494623774
      }
    },
    {
      "alphaMode": "BLEND",
      "doubleSided": true,
      "extensions": {
        "KHR_materials_specular": {
          "specularColorFactor": [
            1.0,
            1.0,
            1.0
          ],
          "specularFactor": 1.0,
          "specularTexture": {
            "index": 2
          }
        }
      },
      "name": "IP_VCHA_F_HAIR_2_shd",
      "normalTexture": {
        "index": 1
      },
      "pbrMetallicRoughness": {
        "baseColorTexture": {
          "index": 0
        },
        "metallicFactor": 0.0,
        "roughnessFactor": 0.8097327425937588
      }
    }
  ],
  "meshes": [
    {
      "name": "IP_VCHA_F_HAIR_2_IP_VCHA_F_HAIR_2-1_shd_0",
      "primitives": [
        {
          "attributes": {
            "JOINTS_0": 18,
            "NORMAL": 1,
            "POSITION": 0,
            "TANGENT": 2,
            "TEXCOORD_0": 3,
            "TEXCOORD_1": 4,
            "TEXCOORD_2": 3,
            "TEXCOORD_3": 3,
            "WEIGHTS_0": 19
          },
          "indices": 5,
          "material": 0,
          "mode": 4
        }
      ]
    },
    {
      "name": "IP_VCHA_F_HAIR_2_NoColor_0",
      "primitives": [
        {
          "attributes": {
            "JOINTS_0": 20,
            "NORMAL": 7,
            "POSITION": 6,
            "TEXCOORD_0": 8,
            "TEXCOORD_1": 9,
            "WEIGHTS_0": 21
          },
          "indices": 10,
          "material": 1,
          "mode": 4
        }
      ]
    },
    {
      "name": "IP_VCHA_F_HAIR_2_IP_VCHA_F_HAIR_2_shd_0",
      "primitives": [
        {
          "attributes": {
            "JOINTS_0": 22,
            "NORMAL": 12,
            "POSITION": 11,
            "TANGENT": 13,
            "TEXCOORD_0": 14,
            "TEXCOORD_1": 15,
            "TEXCOORD_2": 14,
            "TEXCOORD_3": 14,
            "WEIGHTS_0": 23
          },
          "indices": 16,
          "material": 2,
          "mode": 4
        }
      ]
    }
  ],
  "nodes": [
    {
      "children": [
        1
      ],
      "matrix": [
        1.0,
        0.0,
        0.0,
        0.0,
        0.0,
        2.220446049250313e-16,
        -1.0,
        0.0,
        0.0,
        1.0,
        2.220446049250313e-16,
        0.0,
        0.0,
        0.0,
        0.0,
        1.0
      ],
      "name": "Sketchfab_model"
    },
    {
      "children": [
        2
      ],
      "matrix": [
        0.009999999776482582,
        0.0,
        0.0,
        0.0,
        0.0,
        0.0,
        0.009999999776482582,
        0.0,
        0.0,
        -0.009999999776482582,
        0.0,
        0.0,
        0.0,
        0.0,
        0.0,
        1.0
      ],
      "name": "81ee396c4f73428c8527e69e8777ee6e.fbx"
    },
    {
      "children": [
        3
      ],
      "name": "RootNode"
    },
    {
      "children": [
        4
      ],
      "name": "IP_VCHA_F_HAIR_2"
    },
    {
      "children": [
        5,
        6,
        7,
        8
      ],
      "name": "Object_4"
    },
    {
      "children": [
        9
      ],
      "name": "_rootJoint"
    },
    {
      "mesh": 0,
      "name": "Object_6",
      "skin": 0
    },
    {
      "mesh": 1,
      "name": "Object_7",
      "skin": 0
    },
    {
      "mesh": 2,
      "name": "Object_8",
      "skin": 0
    },
    {
      "children": [
        10
      ],
      "name": "head_00",
      "rotation": [
        8.146033536604591e-08,
        0.0,
        0.0,
        1.0
      ],
      "translation": [
        4.3840572465310467e-23,
        -1.776356799695581e-17,
        -2.8940523905715756e-24
      ]
    },
    {
      "children": [
        11,
        14,
        16,
        17,
        20,
        23,
        26
      ],
      "name": "hairAll_01",
      "translation": [
        5.334663266687301e-10,
        0.07999999821186066,
        0.003819387871772051
      ]
    },
    {
      "children": [
        12
      ],
      "name": "B._physics_10_15_20_02",
      "rotation": [
        0.9558838605880737,
        0.02346743457019329,
        -0.04945286363363266,
        -0.28859958052635193
      ],
      "scale": [
        1.0,
        0.9999999403953552,
        0.9999995827674866
      ],
      "translation": [
        -0.004126110579818487,
        0.003643474541604519,
        -0.2202891707420349
      ]
    },
    {
      "children": [
        13
      ],
      "name": "B._physics_10_15_20.001_03",
      "rotation": [
        -0.2580612301826477,
        0.17652206122875214,
        -0.07780291140079498,
        0.9466736912727356
      ],
      "scale": [
        0.9999998807907104,
        1.0,
        0.9999998807907104
      ],
      "translation": [
        1.19209286886246e-09,
        0.07551749050617218,
        -1.9371508841459217e-09
      ]
    },
    {
      "name": "B._physics_10_15_20.002_04",
      "rotation": [
        -0.20802736282348633,
        -0.0006444049067795277,
        0.0477144755423069,
        0.9769583344459534
      ],
      "scale": [
        0.9999998807907104,
        1.0,
        0.9999998807907104
      ],
      "translation": [
        -1.19209286886246e-09,
        0.08831658959388733,
        1.7434357957313296e-08
      ]
    },
    {
      "children": [
        15
      ],
      "name": "headUpper_05",
      "rotation": [
        1.3234889800848443e-23,
        0.0,
        0.0,
        1.0
      ],
      "translation": [
        -4.668265557103424e-14,
        0.021219559013843536,
        2.98023217215615e-10
      ]
    },
    {
      "name": "foreHead_06",
      "rotation": [
        -1.3234889800848443e-23,
        -0.0,
        0.0,
        1.0
      ],
      "translation": [
        0.0,
        1.3877787807814457e-17,
        0.009999999776482582
      ]
    },
    {
      "name": "jBone_07",
      "rotation": [
        1.3234889800848443e-23,
        0.0,
        0.0,
        1.0
      ],
      "translation": [
        0.0,
        -0.019576143473386765,
        4.336808689942018e-19
      ]
    },
    {
      "children": [
        18
      ],
      "name": "L.F._physics_10_15_20_08",
      "rotation": [
        0.9326184988021851,
        0.19988764822483063,
        0.03647330030798912,
        0.29822400212287903
      ],
      "scale": [
        0.9999998807907104,
        0.9999999403953552,
        0.9999998211860657
      ],
      "translation": [
        0.0922451838850975,
        -0.13069289922714233,
        0.049553487449884415
      ]
    },
    {
      "children": [
        19
      ],
      "name": "L.F._physics_10_15_20.001_09",
      "rotation": [
        0.25453484058380127,
        0.12166834622621536,
        0.16207580268383026,
        0.9455900192260742
      ],
      "translation": [
        -3.5762786065873797e-09,
        0.10129018872976303,
        3.799796033376879e-09
      ]
    },
    {
      "name": "L.F._physics_10_15_20.002_010",
      "rotation": [
        -0.06127537041902542,
        -0.019078562036156654,
        -0.024367308244109154,
        0.9976410269737244
      ],
      "scale": [
        1.0,
        1.0000001192092896,
        1.0
      ],
      "translation": [
        -1.192092824453539e-08,
        0.09377748519182205,
        -1.7881393032936899e-09
      ]
    },
    {
      "children": [
        21
      ],
      "name": "R.B._physics_10_15_20_011",
      "rotation": [
        0.9649258852005005,
        -0.13015872240066528,
        0.17855556309223175,
        -0.14175556600093842
      ],
      "scale": [
        1.000000238418579,
        1.0000001192092896,
        1.0000008344650269
      ],
      "translation": [
        -0.059579890221357346,
        -0.13069291412830353,
        -0.15752093493938446
      ]
    },
    {
      "children": [
        22
      ],
      "name": "R.B._physics_10_15_20.001_012",
      "rotation": [
        -0.05536048114299774,
        -0.02353750355541706,
        -0.05991922691464424,
        0.9963889122009277
      ],
      "translation": [
        -4.76837147544984e-09,
        0.08119326084852219,
        2.38418573772492e-09
      ]
    },
    {
      "name": "R.B._physics_10_15_20.002_013",
      "rotation": [
        -0.16841410100460052,
        -0.003463907167315483,
        -0.07598622143268585,
        0.9827770590782166
      ],
      "scale": [
        1.0000001192092896,
        0.9999999403953552,
        1.0000001192092896
      ],
      "translation": [
        1.192092824453539e-08,
        0.09481894224882126,
        -2.38418573772492e-09
      ]
    },
    {
      "children": [
        24
      ],
      "name": "R.F._physics_10_15_20_014",
      "rotation": [
        0.9302521347999573,
        -0.08733538538217545,
        0.1349974274635315,
        0.3298169672489166
      ],
      "scale": [
        0.9999999403953552,
        0.9999999403953552,
        0.9999997019767761
      ],
      "translation": [
        -0.09224585443735123,
        -0.13069289922714233,
        0.04955349490046501
      ]
    },
    {
      "children": [
        25
      ],
      "name": "R.F._physics_10_15_20.001_015",
      "rotation": [
        0.28688347339630127,
        -0.020550163462758064,
        0.04488157108426094,
        0.9566928744316101
      ],
      "scale": [
        1.0000001192092896,
        1.0000001192092896,
        1.0000001192092896
      ],
      "translation": [
        7.748603536583687e-09,
        0.09799320250749588,
        2.38418573772492e-09
      ]
    },
    {
      "name": "R.F._physics_10_15_20.002_016",
      "rotation": [
        -0.053093358874320984,
        0.0027503666933625937,
        -0.052041634917259216,
        0.997228741645813
      ],
      "translation": [
        -7.1525572131747595e-09,
        0.09439293295145035,
        7.1525572131747595e-09
      ]
    },
    {
      "children": [
        27
      ],
      "name": "R.L._physics_10_15_20_017",
      "rotation": [
        0.976211428642273,
        0.14750006794929504,
        -0.014918782748281956,
        -0.15821649134159088
      ],
      "scale": [
        0.9999998211860657,
        0.9999999403953552,
        0.9999997019767761
      ],
      "translation": [
        0.062305647879838943,
        -0.13069291412830353,
        -0.15752093493938446
      ]
    },
    {
      "children": [
        28
      ],
      "name": "R.L._physics_10_15_20.001_018",
      "rotation": [
        -0.08104564249515533,
        0.1592094600200653,
        0.08319530636072159,
        0.9803890585899353
      ],
      "scale": [
        0.9999999403953552,
        1.0,
        1.0
      ],
      "translation": [
        -2.6822088994293836e-09,
        0.08294045925140381,
        8.940696183401542e-09
      ]
    },
    {
      "name": "R.L._physics_10_15_20.002_019",
      "rotation": [
        -0.17513832449913025,
        -0.015723643824458122,
        -0.054593026638031006,
        0.9829034209251404
      ],
      "scale": [
        0.9999999403953552,
        1.0000001192092896,
        1.0
      ],
      "translation": [
        -7.1525572131747595e-09,
        0.09455204010009766,
        -2.384185648907078e-08
      ]
    }
  ],
  "samplers": [
    {
      "magFilter": 9729,
      "minFilter": 9987,
      "wrapS": 10497,
      "wrapT": 10497
    }
  ],
  "scene": 0,
  "scenes": [
    {
      "name": "Sketchfab_Scene",
      "nodes": [
        0
      ]
    }
  ],
  "skins": [
    {
      "inverseBindMatrices": 17,
      "joints": [
        5,
        9,
        10,
        11,
        12,
        13,
        14,
        15,
        16,
        17,
        18,
        19,
        20,
        21,
        22,
        23,
        24,
        25,
        26,
        27,
        28
      ],
      "skeleton": 5
    }
  ],
  "textures": [
    {
      "sampler": 0,
      "source": 0
    },
    {
      "sampler": 0,
      "source": 1
    },
    {
      "sampler": 0,
      "source": 2
    }
  ]
}
