{
  "accessors": [
    {
      "bufferView": 2,
      "componentType": 5126,
      "count": 1411,
      "max": [
        0.032812945544719696,
        0.06235361844301224,
        0.2922993302345276
      ],
      "min": [
        -0.03577082231640816,
        -0.3964223861694336,
        0.18190382421016693
      ],
      "type": "VEC3"
    },
    {
      "bufferView": 2,
      "byteOffset": 16932,
      "componentType": 5126,
      "count": 1411,
      "max": [
        1.0,
        0.999996542930603,
        0.9999325275421143
      ],
      "min": [
        -0.9999974966049194,
        -1.0,
        -0.9999992847442627
      ],
      "type": "VEC3"
    },
    {
      "bufferView": 1,
      "componentType": 5126,
      "count": 1411,
      "max": [
        1.0,
        1.0000001192092896
      ],
      "min": [
        0.0,
        0.0
      ],
      "type": "VEC2"
    },
    {
      "bufferView": 0,
      "componentType": 5125,
      "count": 2088,
      "type": "SCALAR"
    },
    {
      "bufferView": 2,
      "byteOffset": 33864,
      "componentType": 5126,
      "count": 4484,
      "max": [
        0.04317554086446762,
        0.4031795859336853,
        0.30207565426826477
      ],
      "min": [
        -0.04317554086446762,
        -0.3952450156211853,
        0.12209784239530563
      ],
      "type": "VEC3"
    },
    {
      "bufferView": 2,
      "byteOffset": 87672,
      "componentType": 5126,
      "count": 4484,
      "max": [
        1.0,
        1.0,
        1.0
      ],
      "min": [
        -1.0,
        -0.9999910593032837,
        -0.999999463558197
      ],
      "type": "VEC3"
    },
    {
      "bufferView": 1,
      "byteOffset": 11288,
      "componentType": 5126,
      "count": 4484,
      "max": [
        1.0,
        1.0
      ],
      "min": [
        0.0,
        0.0
      ],
      "type": "VEC2"
    },
    {
      "bufferView": 0,
      "byteOffset": 8352,
      "componentType": 5125,
      "count": 7050,
      "type": "SCALAR"
    },
    {
      "bufferView": 2,
      "byteOffset": 141480,
      "componentType": 5126,
      "count": 538,
      "max": [
        0.04210611432790756,
        0.3561176657676697,
        0.29921039938926697
      ],
      "min": [
        -0.04210611432790756,
        -0.3949345350265503,
        0.1585039347410202
      ],
      "type": "VEC3"
    },
    {
      "bufferView": 2,
      "byteOffset": 147936,
      "componentType": 5126,
      "count": 538,
      "max": [
        1.0,
        1.0,
        1.0
      ],
      "min": [
        -1.0,
        -0.9999953508377075,
        -1.0
      ],
      "type": "VEC3"
    },
    {
      "bufferView": 1,
      "byteOffset": 47160,
      "componentType": 5126,
      "count": 538,
      "max": [
        0.75,
        0.75
      ],
      "min": [
        0.3749999403953552,
        0.5050745010375977
      ],
      "type": "VEC2"
    },
    {
      "bufferView": 0,
      "byteOffset": 36552,
      "componentType": 5125,
      "count": 858,
      "type": "SCALAR"
    },
    {
      "bufferView": 2,
      "byteOffset": 154392,
      "componentType": 5126,
      "count": 582,
      "max": [
        0.04317554086446762,
        0.37628427147865295,
        0.3146601617336273
      ],
      "min": [
        -0.04317554086446762,
        -0.37787216901779175,
        0.1802235245704651
      ],
      "type": "VEC3"
    },
    {
      "bufferView": 2,
      "byteOffset": 161376,
      "componentType": 5126,
      "count": 582,
      "max": [
        1.0,
        1.0,
        0.9997135996818542
      ],
      "min": [
        -1.0,
        -0.9961617588996887,
        -0.9279164671897888
      ],
      "type": "VEC3"
    },
    {
      "bufferView": 1,
      "byteOffset": 51464,
      "componentType": 5126,
      "count": 582,
      "max": [
        1.0,
        1.0
      ],
      "min": [
        7.450580596923828e-08,
        0.375
      ],
      "type": "VEC2"
    },
    {
      "bufferView": 0,
      "byteOffset": 39984,
      "componentType": 5125,
      "count": 894,
      "type": "SCALAR"
    },
    {
      "bufferView": 2,
      "byteOffset": 168360,
      "componentType": 5126,
      "count": 750,
      "max": [
        0.01064382866024971,
        0.07812865078449249,
        0.11432527750730515
      ],
      "min": [
        -0.01064382866024971,
        -0.02136014774441719,
        -0.011397077701985836
      ],
      "type": "VEC3"
    },
    {
      "bufferView": 2,
      "byteOffset": 177360,
      "componentType": 5126,
      "count": 750,
      "max": [
        1.0,
        0.9991267919540405,
        0.9839970469474792
      ],
      "min": [
        -1.0,
        -0.995879590511322,
        -0.999824583530426
      ],
      "type": "VEC3"
    },
    {
      "bufferView": 1,
      "byteOffset": 56120,
      "componentType": 5126,
      "count": 750,
      "max": [
        0.6297862529754639,
        0.875
      ],
      "min": [
        0.25,
        0.375
      ],
      "type": "VEC2"
    },
    {
      "bufferView": 0,
      "byteOffset": 43560,
      "componentType": 5125,
      "count": 1164,
      "type": "SCALAR"
    },
    {
      "bufferView": 2,
      "byteOffset": 186360,
      "componentType": 5126,
      "count": 592,
      "max": [
        0.010564576834440231,
        0.47077929973602295,
        0.1998622715473175
      ],
      "min": [
        -0.010564576834440231,
        0.3748874068260193,
        0.13740821182727814
      ],
      "type": "VEC3"
    },
    {
      "bufferView": 2,
      "byteOffset": 193464,
      "componentType": 5126,
      "count": 592,
      "max": [
        0.9999569654464722,
        0.9863110184669495,
        0.9960507750511169
      ],
      "min": [
        -0.9999569058418274,
        -0.9838926196098328,
        -0.9998553395271301
      ],
      "type": "VEC3"
    },
    {
      "bufferView": 1,
      "byteOffset": 62120,
      "componentType": 5126,
      "count": 592,
      "max": [
        0.75,
        0.875
      ],
      "min": [
        0.25,
        0.375
      ],
      "type": "VEC2"
    },
    {
      "bufferView": 0,
      "byteOffset": 48216,
      "componentType": 5125,
      "count": 888,
      "type": "SCALAR"
    },
    {
      "bufferView": 2,
      "byteOffset": 200568,
      "componentType": 5126,
      "count": 926,
      "max": [
        0.03230569139122963,
        0.3904511332511902,
        0.12684443593025208
      ],
      "min": [
        -0.03230569139122963,
        0.13960297405719757,
        -0.3215460181236267
      ],
      "type": "VEC3"
    },
    {
      "bufferView": 2,
      "byteOffset": 211680,
      "componentType": 5126,
      "count": 926,
      "max": [
        0.9999777674674988,
        1.0,
        0.9999337196350098
      ],
      "min": [
        -1.0,
        -0.9403191208839417,
        -0.9983056783676147
      ],
      "type": "VEC3"
    },
    {
      "bufferView": 1,
      "byteOffset": 66856,
      "componentType": 5126,
      "count": 926,
      "max": [
        0.8435462713241577,
        0.7008170485496521
      ],
      "min": [
        0.0,
        0.0
      ],
      "type": "VEC2"
    },
    {
      "bufferView": 0,
      "byteOffset": 51768,
      "componentType": 5125,
      "count": 1362,
      "type": "SCALAR"
    },
    {
      "bufferView": 2,
      "byteOffset": 222792,
      "componentType": 5126,
      "count": 5846,
      "max": [
        0.0506659597158432,
        0.4460632801055908,
        0.19235028326511383
      ],
      "min": [
        -0.0506659597158432,
        -0.32961520552635193,
        -0.3109470307826996
      ],
      "type": "VEC3"
    },
    {
      "bufferView": 2,
      "byteOffset": 292944,
      "componentType": 5126,
      "count": 5846,
      "max": [
        1.0,
        0.9999827742576599,
        0.9999998211860657
      ],
      "min": [
        -1.0,
        -0.9999982118606567,
        -0.9999948740005493
      ],
      "type": "VEC3"
    },
    {
      "bufferView": 1,
      "byteOffset": 74264,
      "componentType": 5126,
      "count": 5846,
      "max": [
        1.0,
        1.0
      ],
      "min": [
        0.0,
        0.0
      ],
      "type": "VEC2"
    },
    {
      "bufferView": 0,
      "byteOffset": 57216,
      "componentType": 5125,
      "count": 8883,
      "type": "SCALAR"
    },
    {
      "bufferView": 2,
      "byteOffset": 363096,
      "componentType": 5126,
      "count": 4073,
      "max": [
        0.05222707614302635,
        0.45760655403137207,
        0.1819196343421936
      ],
      "min": [
        -0.047525059431791306,
        -0.4010595679283142,
        -0.3109470307826996
      ],
      "type": "VEC3"
    },
    {
      "bufferView": 2,
      "byteOffset": 411972,
      "componentType": 5126,
      "count": 4073,
      "max": [
        1.0,
        0.9998692274093628,
        1.0
      ],
      "min": [
        -1.0,
        -0.9987896084785461,
        -0.9999341368675232
      ],
      "type": "VEC3"
    },
    {
      "bufferView": 1,
      "byteOffset": 121032,
      "componentType": 5126,
      "count": 4073,
      "max": [
        1.0,
        1.001617431640625
      ],
      "min": [
        7.450580596923828e-08,
        0.0
      ],
      "type": "VEC2"
    },
    {
      "bufferView": 0,
      "byteOffset": 92748,
      "componentType": 5125,
      "count": 6135,
      "type": "SCALAR"
    },
    {
      "bufferView": 2,
      "byteOffset": 460848,
      "componentType": 5126,
      "count": 60,
      "max": [
        -0.04631064087152481,
        0.3742925822734833,
        -0.08583831787109375
      ],
      "min": [
        -0.04664628952741623,
        0.23132719099521637,
        -0.17007313668727875
      ],
      "type": "VEC3"
    },
    {
      "bufferView": 2,
      "byteOffset": 461568,
      "componentType": 5126,
      "count": 60,
      "max": [
        -0.9999823570251465,
        -0.0006602748762816191,
        -0.002407994819805026
      ],
      "min": [
        -0.9999969005584717,
        -0.0013534019235521555,
        -0.005800085142254829
      ],
      "type": "VEC3"
    },
    {
      "bufferView": 1,
      "byteOffset": 153616,
      "componentType": 5126,
      "count": 60,
      "max": [
        0.3750000298023224,
        0.20540682971477509
      ],
      "min": [
        0.3749999403953552,
        0.05684827268123627
      ],
      "type": "VEC2"
    },
    {
      "bufferView": 0,
      "byteOffset": 117288,
      "componentType": 5125,
      "count": 90,
      "type": "SCALAR"
    },
    {
      "bufferView": 3,
      "componentType": 5126,
      "count": 7,
      "max": [
        1.0,
        0.0,
        0.0,
        0.0,
        0.0,
        1.0,
        0.0,
        0.0,
        0.0,
        0.0,
        1.0,
        0.0,
        0.0,
        0.0,
        0.0,
        1.0
      ],
      "min": [
        1.0,
        0.0,
        0.0,
        0.0,
        0.0,
        1.0,
        0.0,
        0.0,
        0.0,
        0.0,
        1.0,
        0.0,
        0.0,
        0.0,
        0.0,
        1.0
      ],
      "type": "MAT4"
    },
    {
      "bufferView": 4,
      "componentType": 5126,
      "count": 8,
      "max": [
        0.46666666865348816
      ],
      "min": [
        0.0
      ],
      "type": "SCALAR"
    },
    {
      "bufferView": 6,
      "componentType": 5126,
      "count": 8,
      "max": [
        6.938894731087841e-18,
        1.4955513405084566e-32,
        1.3234889800848443e-23,
        1.0
      ],
      "min": [
        -5.551115784870273e-17,
        -7.703719777548943e-33,
        1.3234889800848443e-23,
        1.0
      ],
      "type": "VEC4"
    },
    {
      "bufferView": 4,
      "byteOffset": 32,
      "componentType": 5126,
      "count": 9,
      "max": [
        0.46666666865348816
      ],
      "min": [
        0.0
      ],
      "type": "SCALAR"
    },
    {
      "bufferView": 5,
      "componentType": 5126,
      "count": 9,
      "max": [
        4.829399376928776e-17,
        -0.023392319679260254,
        0.09490221738815308
      ],
      "min": [
        4.829399376928776e-17,
        -0.21531124413013458,
        0.09490221738815308
      ],
      "type": "VEC3"
    },
    {
      "bufferView": 4,
      "byteOffset": 68,
      "componentType": 5126,
      "count": 7,
      "max": [
        0.46666666865348816
      ],
      "min": [
        0.0
      ],
      "type": "SCALAR"
    },
    {
      "bufferView": 6,
      "byteOffset": 128,
      "componentType": 5126,
      "count": 7,
      "max": [
        6.938893903907228e-18,
        7.846808971725748e-40,
        1.1102227599273605e-16,
        1.0
      ],
      "min": [
        -2.7755575615628914e-17,
        -9.244462998374763e-33,
        1.1102227599273605e-16,
        1.0
      ],
      "type": "VEC4"
    },
    {
      "bufferView": 4,
      "byteOffset": 96,
      "componentType": 5126,
      "count": 15,
      "max": [
        0.46666666865348816
      ],
      "min": [
        0.0
      ],
      "type": "SCALAR"
    },
    {
      "bufferView": 6,
      "byteOffset": 240,
      "componentType": 5126,
      "count": 15,
      "max": [
        -0.5088798403739929,
        -1.5663559338463529e-07,
        1.156554603198856e-07,
        0.8608375787734985
      ],
      "min": [
        -0.7798252701759338,
        -1.8736389506557316e-07,
        5.2968541552900206e-08,
        0.6259972453117371
      ],
      "type": "VEC4"
    },
    {
      "bufferView": 4,
      "byteOffset": 156,
      "componentType": 5126,
      "count": 13,
      "max": [
        0.46666666865348816
      ],
      "min": [
        0.0
      ],
      "type": "SCALAR"
    },
    {
      "bufferView": 6,
      "byteOffset": 480,
      "componentType": 5126,
      "count": 13,
      "max": [
        0.9994549751281738,
        1.0695031704699431e-07,
        -2.610726426155452e-07,
        0.700583815574646
      ],
      "min": [
        0.7135701179504395,
        -9.790549171384555e-08,
        -2.820975737449771e-07,
        0.033010806888341904
      ],
      "type": "VEC4"
    },
    {
      "bufferView": 4,
      "byteOffset": 208,
      "componentType": 5126,
      "count": 6,
      "max": [
        0.46666666865348816
      ],
      "min": [
        0.0
      ],
      "type": "SCALAR"
    },
    {
      "bufferView": 6,
      "byteOffset": 688,
      "componentType": 5126,
      "count": 6,
      "max": [
        -9.639605025313358e-08,
        -0.6148265600204468,
        0.788662314414978,
        9.369180986595893e-08
      ],
      "min": [
        -9.639605025313358e-08,
        -0.6148265600204468,
        0.788662314414978,
        9.369180986595893e-08
      ],
      "type": "VEC4"
    },
    {
      "bufferView": 4,
      "byteOffset": 232,
      "componentType": 5126,
      "count": 7,
      "max": [
        0.46666666865348816
      ],
      "min": [
        0.0
      ],
      "type": "SCALAR"
    },
    {
      "bufferView": 5,
      "byteOffset": 108,
      "componentType": 5126,
      "count": 7,
      "max": [
        -5.0630011376141614e-17,
        0.4907686710357666,
        0.14539654552936554
      ],
      "min": [
        -5.0630011376141614e-17,
        0.2587342858314514,
        0.14539654552936554
      ],
      "type": "VEC3"
    },
    {
      "bufferView": 4,
      "byteOffset": 260,
      "componentType": 5126,
      "count": 7,
      "max": [
        0.46666666865348816
      ],
      "min": [
        0.0
      ],
      "type": "SCALAR"
    },
    {
      "bufferView": 6,
      "byteOffset": 784,
      "componentType": 5126,
      "count": 7,
      "max": [
        1.1314661973519881e-17,
        0.18478244543075562,
        1.0,
        6.123234262925839e-17
      ],
      "min": [
        8.104031317837212e-40,
        1.3234889800848443e-23,
        0.9827794432640076,
        6.01778858716003e-17
      ],
      "type": "VEC4"
    }
  ],
  "animations": [
    {
      "channels": [
        {
          "sampler": 0,
          "target": {
            "node": 9,
            "path": "rotation"
          }
        },
        {
          "sampler": 1,
          "target": {
            "node": 8,
            "path": "translation"
          }
        },
        {
          "sampler": 2,
          "target": {
            "node": 8,
            "path": "rotation"
          }
        },
        {
          "sampler": 3,
          "target": {
            "node": 16,
            "path": "rotation"
          }
        },
        {
          "sampler": 4,
          "target": {
            "node": 19,
            "path": "rotation"
          }
        },
        {
          "sampler": 5,
          "target": {
            "node": 22,
            "path": "rotation"
          }
        },
        {
          "sampler": 6,
          "target": {
            "node": 7,
            "path": "translation"
          }
        },
        {
          "sampler": 7,
          "target": {
            "node": 7,
            "path": "rotation"
          }
        }
      ],
      "name": "sig_p228|shoot",
      "samplers": [
        {
          "input": 41,
          "interpolation": "LINEAR",
          "output": 42
        },
        {
          "input": 43,
          "interpolation": "LINEAR",
          "output": 44
        },
        {
          "input": 45,
          "interpolation": "LINEAR",
          "output": 46
        },
        {
          "input": 47,
          "interpolation": "LINEAR",
          "output": 48
        },
        {
          "input": 49,
          "interpolation": "LINEAR",
          "output": 50
        },
        {
          "input": 51,
          "interpolation": "LINEAR",
          "output": 52
        },
        {
          "input": 53,
          "interpolation": "LINEAR",
          "output": 54
        },
        {
          "input": 55,
          "interpolation": "LINEAR",
          "output": 56
        }
      ]
    }
  ],
  "asset": {
    "extras": {
      "author": "SuperPanther6492 (https://sketchfab.com/SuperPanther6492)",
      "license": "CC-BY-4.0 (http://creativecommons.org/licenses/by/4.0/)",
      "source": "https://sketchfab.com/3d-models/sea-of-stars-a9243f12c4ae4addac2d33d5c61cb817",
      "title": "Sea Of Stars"
    },
    "generator": "Sketchfab-0.16.0",
    "version": "2.0"
  },
  "bufferViews": [
    {
      "buffer": 0,
      "byteLength": 117648,
      "name": "floatBufferViews",
      "target": 34963
    },
    {
      "buffer": 0,
      "byteLength": 154096,
      "byteOffset": 117648,
      "byteStride": 8,
      "name": "floatBufferViews",
      "target": 34962
    },
    {
      "buffer": 0,
      "byteLength": 462288,
      "byteOffset": 271744,
      "byteStride": 12,
      "name": "floatBufferViews",
      "target": 34962
    },
    {
      "buffer": 0,
      "byteLength": 448,
      "byteOffset": 734032,
      "name": "floatBufferViews"
    },
    {
      "buffer": 0,
      "byteLength": 288,
      "byteOffset": 734480,
      "name": "floatBufferViews"
    },
    {
      "buffer": 0,
      "byteLength": 192,
      "byteOffset": 734768,
      "byteStride": 12,
      "name": "floatBufferViews"
    },
    {
      "buffer": 0,
      "byteLength": 896,
      "byteOffset": 734960,
      "byteStride": 16,
      "name": "floatBufferViews"
    }
  ],
  "buffers": [
    {
      "byteLength": 735856,
      "uri": "scene.bin"
    }
  ],
  "materials": [
    {
      "doubleSided": true,
      "name": "dark_metal",
      "pbrMetallicRoughness": {
        "baseColorFactor": [
          0.0221507,
          0.0184843,
          0.0193542,
          1.0
        ],
        "metallicFactor": 0.0,
        "roughnessFactor": 0.995678444570006
      }
    },
    {
      "doubleSided": true,
      "name": "soft_metal",
      "pbrMetallicRoughness": {
        "baseColorFactor": [
          0.0607223,
          0.0607223,
          0.065256,
          1.0
        ],
        "metallicFactor": 0.0,
        "roughnessFactor": 0.9863488870297537
      }
    },
    {
      "doubleSided": true,
      "name": "mid_metal",
      "pbrMetallicRoughness": {
        "baseColorFactor": [
          0.0368895,
          0.0356013,
          0.0368895,
          1.0
        ],
        "metallicFactor": 0.0,
        "roughnessFactor": 0.9919572705924136
      }
    }
  ],
  "meshes": [
    {
      "name": "barrel_dark_metal_0",
      "primitives": [
        {
          "attributes": {
            "NORMAL": 1,
            "POSITION": 0,
            "TEXCOORD_0": 2
          },
          "indices": 3,
          "material": 0,
          "mode": 4
        }
      ]
    },
    {
      "name": "slide_gun_soft_metal_0",
      "primitives": [
        {
          "attributes": {
            "NORMAL": 5,
            "POSITION": 4,
            "TEXCOORD_0": 6
          },
          "indices": 7,
          "material": 1,
          "mode": 4
        }
      ]
    },
    {
      "name": "slide_gun_mid_metal_0",
      "primitives": [
        {
          "attributes": {
            "NORMAL": 9,
            "POSITION": 8,
            "TEXCOORD_0": 10
          },
          "indices": 11,
          "material": 2,
          "mode": 4
        }
      ]
    },
    {
      "name": "slide_gun_dark_metal_0",
      "primitives": [
        {
          "attributes": {
            "NORMAL": 13,
            "POSITION": 12,
            "TEXCOORD_0": 14
          },
          "indices": 15,
          "material": 0,
          "mode": 4
        }
      ]
    },
    {
      "name": "trigger_dark_metal_0",
      "primitives": [
        {
          "attributes": {
            "NORMAL": 17,
            "POSITION": 16,
            "TEXCOORD_0": 18
          },
          "indices": 19,
          "material": 0,
          "mode": 4
        }
      ]
    },
    {
      "name": "back_trigger_dark_metal_0",
      "primitives": [
        {
          "attributes": {
            "NORMAL": 21,
            "POSITION": 20,
            "TEXCOORD_0": 22
          },
          "indices": 23,
          "material": 0,
          "mode": 4
        }
      ]
    },
    {
      "name": "magazine_mid_metal_0",
      "primitives": [
        {
          "attributes": {
            "NORMAL": 25,
            "POSITION": 24,
            "TEXCOORD_0": 26
          },
          "indices": 27,
          "material": 2,
          "mode": 4
        }
      ]
    },
    {
      "name": "base_gun_mid_metal_0",
      "primitives": [
        {
          "attributes": {
            "NORMAL": 29,
            "POSITION": 28,
            "TEXCOORD_0": 30
          },
          "indices": 31,
          "material": 2,
          "mode": 4
        }
      ]
    },
    {
      "name": "base_gun_dark_metal_0",
      "primitives": [
        {
          "attributes": {
            "NORMAL": 33,
            "POSITION": 32,
            "TEXCOORD_0": 34
          },
          "indices": 35,
          "material": 0,
          "mode": 4
        }
      ]
    },
    {
      "name": "base_gun_soft_metal_0",
      "primitives": [
        {
          "attributes": {
            "NORMAL": 37,
            "POSITION": 36,
            "TEXCOORD_0": 38
          },
          "indices": 39,
          "material": 1,
          "mode": 4
        }
      ]
    }
  ],
  "nodes": [
    {
      "children": [
        1
      ],
      "matrix": [
        1.0,
        0.0,
        0.0,
        0.0,
        0.0,
        2.220446049250313e-16,
        -1.0,
        0.0,
        0.0,
        1.0,
        2.220446049250313e-16,
        0.0,
        0.0,
        0.0,
        0.0,
        1.0
      ],
      "name": "Sketchfab_model"
    },
    {
      "children": [
        2
      ],
      "matrix": [
        0.009999999776482582,
        0.0,
        0.0,
        0.0,
        0.0,
        0.0,
        0.009999999776482582,
        0.0,
        0.0,
        -0.009999999776482582,
        0.0,
        0.0,
        0.0,
        0.0,
        0.0,
        1.0
      ],
      "name": "sig_p228 low poly.fbx"
    },
    {
      "children": [
        3
      ],
      "name": "Object_2"
    },
    {
      "children": [
        4
      ],
      "name": "RootNode"
    },
    {
      "children": [
        5
      ],
      "name": "sig_p228",
      "rotation": [
        -0.7071068286895752,
        0.0,
        0.0,
        0.7071067094802856
      ],
      "scale": [
        100.0,
        100.0,
        100.0
      ]
    },
    {
      "children": [
        6
      ],
      "name": "Object_5"
    },
    {
      "children": [
        7
      ],
      "name": "_rootJoint"
    },
    {
      "children": [
        8,
        16,
        19,
        22,
        25
      ],
      "name": "main_00",
      "rotation": [
        -5.785154070170739e-31,
        1.3234889800848443e-23,
        1.0,
        -4.371138828673793e-08
      ],
      "translation": [
        -5.0630011376141614e-17,
        0.2587342858314514,
        0.14539654552936554
      ]
    },
    {
      "children": [
        9,
        12
      ],
      "name": "slider_01",
      "rotation": [
        0.0,
        -4.733165431326071e-30,
        1.1102228261018095e-16,
        1.0
      ],
      "translation": [
        4.829399376928776e-17,
        -0.023392319679260254,
        0.09490221738815308
      ]
    },
    {
      "children": [
        10
      ],
      "name": "barrel_02",
      "rotation": [
        -2.6469782757140506e-23,
        3.1554436208840472e-30,
        2.6469779601696886e-23,
        1.0
      ],
      "scale": [
        1.0,
        0.9999999403953552,
        1.0
      ],
      "translation": [
        7.707903205318587e-17,
        0.3786735236644745,
        0.004643544554710388
      ]
    },
    {
      "children": [
        11
      ],
      "name": "barrel",
      "rotation": [
        0.0,
        0.0,
        1.0,
        -4.371138828673793e-08
      ],
      "scale": [
        1.0,
        1.0000001192092896,
        1.0
      ],
      "translation": [
        -1.133583663914838e-16,
        -0.0965469479560852,
        -0.2449423372745514
      ]
    },
    {
      "mesh": 0,
      "name": "barrel_dark_metal_0"
    },
    {
      "children": [
        13,
        14,
        15
      ],
      "name": "slide_gun",
      "rotation": [
        -3.733959121940669e-30,
        1.3234889800848443e-23,
        1.0,
        -4.371138828673793e-08
      ],
      "translation": [
        -3.627932772085304e-17,
        0.28212660551071167,
        -0.24029876291751862
      ]
    },
    {
      "mesh": 1,
      "name": "slide_gun_soft_metal_0"
    },
    {
      "mesh": 2,
      "name": "slide_gun_mid_metal_0"
    },
    {
      "mesh": 3,
      "name": "slide_gun_dark_metal_0"
    },
    {
      "children": [
        17
      ],
      "name": "trigger_03",
      "rotation": [
        -0.5521581768989563,
        -1.6233506983098778e-07,
        1.0750916601409699e-07,
        0.8337393999099731
      ],
      "translation": [
        9.011027660466866e-17,
        0.20375922322273254,
        -0.04716089367866516
      ]
    },
    {
      "children": [
        18
      ],
      "name": "trigger",
      "rotation": [
        1.3819946786952642e-07,
        -0.5521581768989563,
        0.8337393999099731,
        1.4395308767234383e-07
      ],
      "translation": [
        4.7821826498761766e-09,
        0.11190036684274673,
        0.012280439957976341
      ]
    },
    {
      "mesh": 4,
      "name": "trigger_dark_metal_0"
    },
    {
      "children": [
        20
      ],
      "name": "back_trigger_04",
      "rotation": [
        0.9812976121902466,
        -5.430903016190314e-08,
        -2.768534272945544e-07,
        0.19249677658081055
      ],
      "scale": [
        1.0,
        0.9999999403953552,
        0.9999986886978149
      ],
      "translation": [
        7.78985364296544e-17,
        -0.12711673974990845,
        0.00783596932888031
      ]
    },
    {
      "children": [
        21
      ],
      "name": "back_trigger",
      "rotation": [
        6.042778721848663e-08,
        0.9812976121902466,
        0.19249673187732697,
        -3.0804551442997763e-07
      ],
      "scale": [
        1.0,
        1.0,
        1.0000011920928955
      ],
      "translation": [
        -2.1979524866821976e-09,
        -0.4151458442211151,
        -0.0038952890317887068
      ]
    },
    {
      "mesh": 5,
      "name": "back_trigger_dark_metal_0"
    },
    {
      "children": [
        23
      ],
      "name": "magazine_05",
      "rotation": [
        -6.094506233011998e-08,
        -0.6148266196250916,
        0.7886624336242676,
        4.821741939053936e-08
      ],
      "scale": [
        1.0,
        0.9999997615814209,
        0.9999999403953552
      ],
      "translation": [
        1.8862848017646932e-17,
        0.03027564287185669,
        -0.09970483183860779
      ]
    },
    {
      "children": [
        24
      ],
      "name": "magazine",
      "rotation": [
        0.6148266196250916,
        -5.9542355046460216e-08,
        4.641811557348774e-08,
        0.7886624336242676
      ],
      "scale": [
        1.0,
        1.0,
        1.0000001192092896
      ],
      "translation": [
        3.5137105669491575e-08,
        -0.01142767071723938,
        -0.2327026128768921
      ]
    },
    {
      "mesh": 6,
      "name": "magazine_mid_metal_0"
    },
    {
      "children": [
        26,
        27,
        28
      ],
      "name": "base_gun",
      "rotation": [
        -6.310887241768095e-30,
        -2.758576426587457e-37,
        1.0,
        -4.371138828673793e-08
      ],
      "translation": [
        -5.0630014684864064e-17,
        0.2587342858314514,
        -0.14539654552936554
      ]
    },
    {
      "mesh": 7,
      "name": "base_gun_mid_metal_0"
    },
    {
      "mesh": 8,
      "name": "base_gun_dark_metal_0"
    },
    {
      "mesh": 9,
      "name": "base_gun_soft_metal_0"
    }
  ],
  "scene": 0,
  "scenes": [
    {
      "name": "Sketchfab_Scene",
      "nodes": [
        0
      ]
    }
  ],
  "skins": [
    {
      "inverseBindMatrices": 40,
      "joints": [
        6,
        7,
        8,
        9,
        16,
        19,
        22
      ],
      "skeleton": 6
    }
  ]
}
