{
  "accessors": [
    {
      "bufferView": 3,
      "componentType": 5126,
      "count": 6609,
      "max": [
        104.76716613769531,
        169.37200927734375,
        13.805197715759277
      ],
      "min": [
        -104.76718139648438,
        4.449604034423828,
        -10.675644874572754
      ],
      "type": "VEC3"
    },
    {
      "bufferView": 3,
      "byteOffset": 79308,
      "componentType": 5126,
      "count": 6609,
      "max": [
        0.999970555305481,
        0.9999167323112488,
        0.9999932646751404
      ],
      "min": [
        -0.9999988079071045,
        -0.999910295009613,
        -0.9997254610061646
      ],
      "type": "VEC3"
    },
    {
      "bufferView": 4,
      "componentType": 5126,
      "count": 6609,
      "max": [
        0.9999993443489075,
        0.9989546537399292,
        0.9999167323112488,
        1.0
      ],
      "min": [
        -0.9998442530632019,
        -0.9947126507759094,
        -0.9998745918273926,
        -1.0
      ],
      "type": "VEC4"
    },
    {
      "bufferView": 2,
      "componentType": 5126,
      "count": 6609,
      "max": [
        0.4962350130081177,
        0.9989280104637146
      ],
      "min": [
        0.0024949999060481787,
        0.5487250089645386
      ],
      "type": "VEC2"
    },
    {
      "bufferView": 1,
      "componentType": 5125,
      "count": 34224,
      "type": "SCALAR"
    },
    {
      "bufferView": 3,
      "byteOffset": 158616,
      "componentType": 5126,
      "count": 804,
      "max": [
        4.684370040893555,
        165.30523681640625,
        10.766799926757813
      ],
      "min": [
        -4.67942476272583,
        161.6863250732422,
        7.110614776611328
      ],
      "type": "VEC3"
    },
    {
      "bufferView": 3,
      "byteOffset": 168264,
      "componentType": 5126,
      "count": 804,
      "max": [
        0.9997714757919312,
        0.9994238018989563,
        0.998898446559906
      ],
      "min": [
        -0.9997920393943787,
        -0.9992095232009888,
        -0.999541699886322
      ],
      "type": "VEC3"
    },
    {
      "bufferView": 4,
      "byteOffset": 105744,
      "componentType": 5126,
      "count": 804,
      "max": [
        0.9997073411941528,
        0.6638191938400269,
        0.9977654218673706,
        1.0
      ],
      "min": [
        -0.9999909400939941,
        -0.6637849807739258,
        -0.9977194666862488,
        1.0
      ],
      "type": "VEC4"
    },
    {
      "bufferView": 2,
      "byteOffset": 52872,
      "componentType": 5126,
      "count": 804,
      "max": [
        0.29916301369667053,
        0.9991490244865417
      ],
      "min": [
        0.2508380115032196,
        0.8519589900970459
      ],
      "type": "VEC2"
    },
    {
      "bufferView": 1,
      "byteOffset": 136896,
      "componentType": 5125,
      "count": 4560,
      "type": "SCALAR"
    },
    {
      "bufferView": 3,
      "byteOffset": 177912,
      "componentType": 5126,
      "count": 98,
      "max": [
        5.172083854675293,
        163.93260192871094,
        11.743292808532715
      ],
      "min": [
        -5.298905849456787,
        162.3003692626953,
        9.711780548095703
      ],
      "type": "VEC3"
    },
    {
      "bufferView": 3,
      "byteOffset": 179088,
      "componentType": 5126,
      "count": 98,
      "max": [
        0.5932859182357788,
        0.9338358640670776,
        0.7301452159881592
      ],
      "min": [
        -0.6894441246986389,
        -0.9742830991744995,
        0.16775202751159668
      ],
      "type": "VEC3"
    },
    {
      "bufferView": 4,
      "byteOffset": 118608,
      "componentType": 5126,
      "count": 98,
      "max": [
        0.4301271438598633,
        0.6913241744041443,
        0.9428467750549316,
        1.0
      ],
      "min": [
        -0.6614109873771667,
        -0.7285791039466858,
        -0.9823931455612183,
        1.0
      ],
      "type": "VEC4"
    },
    {
      "bufferView": 2,
      "byteOffset": 59304,
      "componentType": 5126,
      "count": 98,
      "max": [
        0.2981700003147125,
        0.8480799794197083
      ],
      "min": [
        0.25178900361061096,
        0.8013250231742859
      ],
      "type": "VEC2"
    },
    {
      "bufferView": 1,
      "byteOffset": 155136,
      "componentType": 5125,
      "count": 318,
      "type": "SCALAR"
    },
    {
      "bufferView": 3,
      "byteOffset": 180264,
      "componentType": 5126,
      "count": 963,
      "max": [
        18.260923385620117,
        101.99678039550781,
        15.177338600158691
      ],
      "min": [
        -18.273670196533203,
        8.725513458251953,
        -14.999309539794922
      ],
      "type": "VEC3"
    },
    {
      "bufferView": 3,
      "byteOffset": 191820,
      "componentType": 5126,
      "count": 963,
      "max": [
        0.9998898506164551,
        0.9848859906196594,
        0.9939740896224976
      ],
      "min": [
        -0.9998438954353333,
        -0.9974169731140137,
        -0.9999985694885254
      ],
      "type": "VEC3"
    },
    {
      "bufferView": 4,
      "byteOffset": 120176,
      "componentType": 5126,
      "count": 963,
      "max": [
        0.9998378157615662,
        0.9992057085037231,
        0.9997718334197998,
        1.0
      ],
      "min": [
        -0.9999833106994629,
        -0.9993357062339783,
        -0.9998716711997986,
        -1.0
      ],
      "type": "VEC4"
    },
    {
      "bufferView": 2,
      "byteOffset": 60088,
      "componentType": 5126,
      "count": 963,
      "max": [
        0.9994999766349792,
        0.8735820055007935
      ],
      "min": [
        0.7518749833106995,
        0.6306549906730652
      ],
      "type": "VEC2"
    },
    {
      "bufferView": 1,
      "byteOffset": 156408,
      "componentType": 5125,
      "count": 4296,
      "type": "SCALAR"
    },
    {
      "bufferView": 3,
      "byteOffset": 203376,
      "componentType": 5126,
      "count": 1109,
      "max": [
        9.015097618103027,
        166.78399658203125,
        5.2225542068481445
      ],
      "min": [
        -8.776092529296875,
        156.62203979492188,
        -9.907052040100098
      ],
      "type": "VEC3"
    },
    {
      "bufferView": 3,
      "byteOffset": 216684,
      "componentType": 5126,
      "count": 1109,
      "max": [
        0.9999455213546753,
        0.47464999556541443,
        0.6457000970840454
      ],
      "min": [
        -0.9995834231376648,
        -0.9142471551895142,
        -0.9998347163200378
      ],
      "type": "VEC3"
    },
    {
      "bufferView": 4,
      "byteOffset": 135584,
      "componentType": 5126,
      "count": 1109,
      "max": [
        0.9999986886978149,
        0.9780822396278381,
        0.9941157102584839,
        1.0
      ],
      "min": [
        -0.9999681711196899,
        -0.6228379011154175,
        -0.9987789392471313,
        -1.0
      ],
      "type": "VEC4"
    },
    {
      "bufferView": 2,
      "byteOffset": 67792,
      "componentType": 5126,
      "count": 1109,
      "max": [
        0.7463539838790894,
        0.8748869895935059
      ],
      "min": [
        0.5626270174980164,
        0.6251969933509827
      ],
      "type": "VEC2"
    },
    {
      "bufferView": 1,
      "byteOffset": 173592,
      "componentType": 5125,
      "count": 2958,
      "type": "SCALAR"
    },
    {
      "bufferView": 3,
      "byteOffset": 229992,
      "componentType": 5126,
      "count": 1554,
      "max": [
        79.64256286621094,
        153.60699462890625,
        16.91143035888672
      ],
      "min": [
        -79.76742553710938,
        82.82498168945313,
        -17.753093719482422
      ],
      "type": "VEC3"
    },
    {
      "bufferView": 3,
      "byteOffset": 248640,
      "componentType": 5126,
      "count": 1554,
      "max": [
        0.9993064999580383,
        0.9980718493461609,
        0.9997191429138184
      ],
      "min": [
        -0.9994540214538574,
        -0.9999808669090271,
        -0.9995574355125427
      ],
      "type": "VEC3"
    },
    {
      "bufferView": 4,
      "byteOffset": 153328,
      "componentType": 5126,
      "count": 1554,
      "max": [
        0.9999659061431885,
        0.996694803237915,
        0.9992319941520691,
        1.0
      ],
      "min": [
        -0.999994158744812,
        -0.9993924498558044,
        -0.9996954798698425,
        -1.0
      ],
      "type": "VEC4"
    },
    {
      "bufferView": 2,
      "byteOffset": 76664,
      "componentType": 5126,
      "count": 1554,
      "max": [
        0.24651400744915009,
        0.49748799204826355
      ],
      "min": [
        0.0021540001034736633,
        0.25491300225257874
      ],
      "type": "VEC2"
    },
    {
      "bufferView": 1,
      "byteOffset": 185424,
      "componentType": 5125,
      "count": 7527,
      "type": "SCALAR"
    },
    {
      "bufferView": 3,
      "byteOffset": 267288,
      "componentType": 5126,
      "count": 719,
      "max": [
        13.420859336853027,
        178.57125854492188,
        18.387056350708008
      ],
      "min": [
        -13.389666557312012,
        164.25437927246094,
        -14.090882301330566
      ],
      "type": "VEC3"
    },
    {
      "bufferView": 3,
      "byteOffset": 275916,
      "componentType": 5126,
      "count": 719,
      "max": [
        0.9999401569366455,
        0.9999919533729553,
        0.9947258234024048
      ],
      "min": [
        -0.9999428391456604,
        -0.9994367957115173,
        -0.9893069863319397
      ],
      "type": "VEC3"
    },
    {
      "bufferView": 4,
      "byteOffset": 178192,
      "componentType": 5126,
      "count": 719,
      "max": [
        1.0,
        0.9982555508613586,
        0.9995040893554688,
        1.0
      ],
      "min": [
        -0.999962329864502,
        -0.998878002166748,
        -0.9999983906745911,
        1.0
      ],
      "type": "VEC4"
    },
    {
      "bufferView": 2,
      "byteOffset": 89096,
      "componentType": 5126,
      "count": 719,
      "max": [
        0.6227149963378906,
        0.9953380227088928
      ],
      "min": [
        0.5023599863052368,
        0.8797720074653625
      ],
      "type": "VEC2"
    },
    {
      "bufferView": 1,
      "byteOffset": 215532,
      "componentType": 5125,
      "count": 3642,
      "type": "SCALAR"
    },
    {
      "bufferView": 3,
      "byteOffset": 284544,
      "componentType": 5126,
      "count": 1226,
      "max": [
        16.45356559753418,
        11.001692771911621,
        20.23065185546875
      ],
      "min": [
        -16.44426918029785,
        -1.2277929782867432,
        -11.734411239624023
      ],
      "type": "VEC3"
    },
    {
      "bufferView": 3,
      "byteOffset": 299256,
      "componentType": 5126,
      "count": 1226,
      "max": [
        0.9997245073318481,
        0.9997532367706299,
        0.9997389912605286
      ],
      "min": [
        -0.9997187852859497,
        -0.8218921422958374,
        -0.9974494576454163
      ],
      "type": "VEC3"
    },
    {
      "bufferView": 4,
      "byteOffset": 189696,
      "componentType": 5126,
      "count": 1226,
      "max": [
        0.9999609589576721,
        0.9997377395629883,
        0.9986516833305359,
        1.0
      ],
      "min": [
        -0.9997363686561584,
        -0.9962642192840576,
        -0.9837604761123657,
        -1.0
      ],
      "type": "VEC4"
    },
    {
      "bufferView": 2,
      "byteOffset": 94848,
      "componentType": 5126,
      "count": 1226,
      "max": [
        0.7472699880599976,
        0.9985960125923157
      ],
      "min": [
        0.6270909905433655,
        0.8767750263214111
      ],
      "type": "VEC2"
    },
    {
      "bufferView": 1,
      "byteOffset": 230100,
      "componentType": 5125,
      "count": 5292,
      "type": "SCALAR"
    },
    {
      "bufferView": 5,
      "componentType": 5126,
      "count": 34,
      "max": [
        1.0,
        0.9991871118545532,
        0.339378297328949,
        0.0,
        0.15433941781520844,
        1.0,
        0.9909712672233582,
        0.0,
        0.9911311268806458,
        0.969907820224762,
        1.0,
        0.0,
        14.813984870910645,
        94.6271743774414,
        148.6451416015625,
        1.0
      ],
      "min": [
        -0.9992173910140991,
        -0.9992615580558777,
        -0.3351200520992279,
        0.0,
        -0.14357717335224152,
        -0.9978398084640503,
        -0.9916191697120667,
        0.0,
        -0.9890479445457458,
        -0.13705459237098694,
        -0.06699037551879883,
        0.0,
        -14.646145820617676,
        -152.2444610595703,
        -14.801891326904297,
        1.0
      ],
      "type": "MAT4"
    },
    {
      "bufferView": 0,
      "componentType": 5123,
      "count": 6609,
      "type": "VEC4"
    },
    {
      "bufferView": 4,
      "byteOffset": 209312,
      "componentType": 5126,
      "count": 6609,
      "max": [
        1.0,
        0.49982431530952454,
        0.3205396831035614,
        0.04812632501125336
      ],
      "min": [
        0.344040185213089,
        0.0,
        0.0,
        0.0
      ],
      "type": "VEC4"
    },
    {
      "bufferView": 0,
      "byteOffset": 52872,
      "componentType": 5123,
      "count": 804,
      "type": "VEC4"
    },
    {
      "bufferView": 4,
      "byteOffset": 315056,
      "componentType": 5126,
      "count": 804,
      "max": [
        1.0,
        0.0,
        0.0,
        0.0
      ],
      "min": [
        1.0,
        0.0,
        0.0,
        0.0
      ],
      "type": "VEC4"
    },
    {
      "bufferView": 0,
      "byteOffset": 59304,
      "componentType": 5123,
      "count": 98,
      "type": "VEC4"
    },
    {
      "bufferView": 4,
      "byteOffset": 327920,
      "componentType": 5126,
      "count": 98,
      "max": [
        1.0,
        0.0,
        0.0,
        0.0
      ],
      "min": [
        1.0,
        0.0,
        0.0,
        0.0
      ],
      "type": "VEC4"
    },
    {
      "bufferView": 0,
      "byteOffset": 60088,
      "componentType": 5123,
      "count": 963,
      "type": "VEC4"
    },
    {
      "bufferView": 4,
      "byteOffset": 329488,
      "componentType": 5126,
      "count": 963,
      "max": [
        1.0,
        0.49953919649124146,
        0.2432994544506073,
        0.0
      ],
      "min": [
        0.44965654611587524,
        0.0,
        0.0,
        0.0
      ],
      "type": "VEC4"
    },
    {
      "bufferView": 0,
      "byteOffset": 67792,
      "componentType": 5123,
      "count": 1109,
      "type": "VEC4"
    },
    {
      "bufferView": 4,
      "byteOffset": 344896,
      "componentType": 5126,
      "count": 1109,
      "max": [
        1.0,
        0.15475177764892578,
        0.0,
        0.0
      ],
      "min": [
        0.8452482223510742,
        0.0,
        0.0,
        0.0
      ],
      "type": "VEC4"
    },
    {
      "bufferView": 0,
      "byteOffset": 76664,
      "componentType": 5123,
      "count": 1554,
      "type": "VEC4"
    },
    {
      "bufferView": 4,
      "byteOffset": 362640,
      "componentType": 5126,
      "count": 1554,
      "max": [
        1.0,
        0.49622848629951477,
        0.31973424553871155,
        0.2117927372455597
      ],
      "min": [
        0.2993040382862091,
        0.0,
        0.0,
        0.0
      ],
      "type": "VEC4"
    },
    {
      "bufferView": 0,
      "byteOffset": 89096,
      "componentType": 5123,
      "count": 719,
      "type": "VEC4"
    },
    {
      "bufferView": 4,
      "byteOffset": 387504,
      "componentType": 5126,
      "count": 719,
      "max": [
        1.0,
        0.0,
        0.0,
        0.0
      ],
      "min": [
        1.0,
        0.0,
        0.0,
        0.0
      ],
      "type": "VEC4"
    },
    {
      "bufferView": 0,
      "byteOffset": 94848,
      "componentType": 5123,
      "count": 1226,
      "type": "VEC4"
    },
    {
      "bufferView": 4,
      "byteOffset": 399008,
      "componentType": 5126,
      "count": 1226,
      "max": [
        0.9166146516799927,
        0.49988800287246704,
        0.17308512330055237,
        0.0
      ],
      "min": [
        0.5001119375228882,
        0.04469047114253044,
        0.0,
        0.0
      ],
      "type": "VEC4"
    },
    {
      "bufferView": 6,
      "componentType": 5126,
      "count": 1,
      "max": [
        0.0
      ],
      "min": [
        0.0
      ],
      "type": "SCALAR"
    },
    {
      "bufferView": 8,
      "componentType": 5126,
      "count": 1,
      "max": [
        -0.08603157848119736,
        -0.10416248440742493,
        0.008262633346021175,
        0.9907978773117065
      ],
      "min": [
        -0.08603157848119736,
        -0.10416248440742493,
        0.008262633346021175,
        0.9907978773117065
      ],
      "type": "VEC4"
    },
    {
      "bufferView": 6,
      "byteOffset": 4,
      "componentType": 5126,
      "count": 1,
      "max": [
        0.0
      ],
      "min": [
        0.0
      ],
      "type": "SCALAR"
    },
    {
      "bufferView": 8,
      "byteOffset": 16,
      "componentType": 5126,
      "count": 1,
      "max": [
        0.0590561106801033,
        -0.12486095726490021,
        -0.03549978509545326,
        0.9897786974906921
      ],
      "min": [
        0.0590561106801033,
        -0.12486095726490021,
        -0.03549978509545326,
        0.9897786974906921
      ],
      "type": "VEC4"
    },
    {
      "bufferView": 6,
      "byteOffset": 8,
      "componentType": 5126,
      "count": 1,
      "max": [
        0.0
      ],
      "min": [
        0.0
      ],
      "type": "SCALAR"
    },
    {
      "bufferView": 8,
      "byteOffset": 32,
      "componentType": 5126,
      "count": 1,
      "max": [
        0.2624008357524872,
        -0.04384934902191162,
        0.0350661464035511,
        0.9633241295814514
      ],
      "min": [
        0.2624008357524872,
        -0.04384934902191162,
        0.0350661464035511,
        0.9633241295814514
      ],
      "type": "VEC4"
    },
    {
      "bufferView": 6,
      "byteOffset": 12,
      "componentType": 5126,
      "count": 1,
      "max": [
        0.0
      ],
      "min": [
        0.0
      ],
      "type": "SCALAR"
    },
    {
      "bufferView": 8,
      "byteOffset": 48,
      "componentType": 5126,
      "count": 1,
      "max": [
        0.662566065788269,
        -0.058820731937885284,
        -0.13582393527030945,
        0.734233021736145
      ],
      "min": [
        0.662566065788269,
        -0.058820731937885284,
        -0.13582393527030945,
        0.734233021736145
      ],
      "type": "VEC4"
    },
    {
      "bufferView": 6,
      "byteOffset": 16,
      "componentType": 5126,
      "count": 1,
      "max": [
        0.0
      ],
      "min": [
        0.0
      ],
      "type": "SCALAR"
    },
    {
      "bufferView": 8,
      "byteOffset": 64,
      "componentType": 5126,
      "count": 1,
      "max": [
        0.49215129017829895,
        0.033034488558769226,
        -0.13875237107276917,
        0.8587453961372375
      ],
      "min": [
        0.49215129017829895,
        0.033034488558769226,
        -0.13875237107276917,
        0.8587453961372375
      ],
      "type": "VEC4"
    },
    {
      "bufferView": 6,
      "byteOffset": 20,
      "componentType": 5126,
      "count": 1,
      "max": [
        0.0
      ],
      "min": [
        0.0
      ],
      "type": "SCALAR"
    },
    {
      "bufferView": 8,
      "byteOffset": 80,
      "componentType": 5126,
      "count": 1,
      "max": [
        -0.07799217104911804,
        -0.08994282782077789,
        0.3487417995929718,
        0.9296271800994873
      ],
      "min": [
        -0.07799217104911804,
        -0.08994282782077789,
        0.3487417995929718,
        0.9296271800994873
      ],
      "type": "VEC4"
    },
    {
      "bufferView": 6,
      "byteOffset": 24,
      "componentType": 5126,
      "count": 1,
      "max": [
        0.0
      ],
      "min": [
        0.0
      ],
      "type": "SCALAR"
    },
    {
      "bufferView": 8,
      "byteOffset": 96,
      "componentType": 5126,
      "count": 1,
      "max": [
        -0.14128275215625763,
        0.24804046750068665,
        0.6409423351287842,
        0.7125363349914551
      ],
      "min": [
        -0.14128275215625763,
        0.24804046750068665,
        0.6409423351287842,
        0.7125363349914551
      ],
      "type": "VEC4"
    },
    {
      "bufferView": 6,
      "byteOffset": 28,
      "componentType": 5126,
      "count": 1,
      "max": [
        0.0
      ],
      "min": [
        0.0
      ],
      "type": "SCALAR"
    },
    {
      "bufferView": 8,
      "byteOffset": 112,
      "componentType": 5126,
      "count": 1,
      "max": [
        0.16744038462638855,
        0.45168566703796387,
        -0.021032027900218964,
        0.876071572303772
      ],
      "min": [
        0.16744038462638855,
        0.45168566703796387,
        -0.021032027900218964,
        0.876071572303772
      ],
      "type": "VEC4"
    },
    {
      "bufferView": 6,
      "byteOffset": 32,
      "componentType": 5126,
      "count": 1,
      "max": [
        0.0
      ],
      "min": [
        0.0
      ],
      "type": "SCALAR"
    },
    {
      "bufferView": 8,
      "byteOffset": 128,
      "componentType": 5126,
      "count": 1,
      "max": [
        -0.5759813785552979,
        -0.4058232605457306,
        0.6172897219657898,
        -0.3500089943408966
      ],
      "min": [
        -0.5759813785552979,
        -0.4058232605457306,
        0.6172897219657898,
        -0.3500089943408966
      ],
      "type": "VEC4"
    },
    {
      "bufferView": 6,
      "byteOffset": 36,
      "componentType": 5126,
      "count": 1,
      "max": [
        0.0
      ],
      "min": [
        0.0
      ],
      "type": "SCALAR"
    },
    {
      "bufferView": 8,
      "byteOffset": 144,
      "componentType": 5126,
      "count": 1,
      "max": [
        0.5584716796875,
        0.09065859764814377,
        -0.014138980768620968,
        0.824433445930481
      ],
      "min": [
        0.5584716796875,
        0.09065859764814377,
        -0.014138980768620968,
        0.824433445930481
      ],
      "type": "VEC4"
    },
    {
      "bufferView": 6,
      "byteOffset": 40,
      "componentType": 5126,
      "count": 1,
      "max": [
        0.0
      ],
      "min": [
        0.0
      ],
      "type": "SCALAR"
    },
    {
      "bufferView": 8,
      "byteOffset": 160,
      "componentType": 5126,
      "count": 1,
      "max": [
        0.7206007838249207,
        0.015557138249278069,
        0.08004658669233322,
        0.6885383129119873
      ],
      "min": [
        0.7206007838249207,
        0.015557138249278069,
        0.08004658669233322,
        0.6885383129119873
      ],
      "type": "VEC4"
    },
    {
      "bufferView": 6,
      "byteOffset": 44,
      "componentType": 5126,
      "count": 1,
      "max": [
        0.0
      ],
      "min": [
        0.0
      ],
      "type": "SCALAR"
    },
    {
      "bufferView": 8,
      "byteOffset": 176,
      "componentType": 5126,
      "count": 1,
      "max": [
        0.5448658466339111,
        -0.10091651231050491,
        0.11783916503190994,
        0.8240454792976379
      ],
      "min": [
        0.5448658466339111,
        -0.10091651231050491,
        0.11783916503190994,
        0.8240454792976379
      ],
      "type": "VEC4"
    },
    {
      "bufferView": 6,
      "byteOffset": 48,
      "componentType": 5126,
      "count": 1,
      "max": [
        0.0
      ],
      "min": [
        0.0
      ],
      "type": "SCALAR"
    },
    {
      "bufferView": 8,
      "byteOffset": 192,
      "componentType": 5126,
      "count": 1,
      "max": [
        0.29679226875305176,
        0.26989513635635376,
        -0.09189487248659134,
        0.911387026309967
      ],
      "min": [
        0.29679226875305176,
        0.26989513635635376,
        -0.09189487248659134,
        0.911387026309967
      ],
      "type": "VEC4"
    },
    {
      "bufferView": 6,
      "byteOffset": 52,
      "componentType": 5126,
      "count": 1,
      "max": [
        0.0
      ],
      "min": [
        0.0
      ],
      "type": "SCALAR"
    },
    {
      "bufferView": 8,
      "byteOffset": 208,
      "componentType": 5126,
      "count": 1,
      "max": [
        -0.1839691698551178,
        -0.06669608503580093,
        0.8842076063156128,
        -0.4241272509098053
      ],
      "min": [
        -0.1839691698551178,
        -0.06669608503580093,
        0.8842076063156128,
        -0.4241272509098053
      ],
      "type": "VEC4"
    },
    {
      "bufferView": 6,
      "byteOffset": 56,
      "componentType": 5126,
      "count": 1,
      "max": [
        0.0
      ],
      "min": [
        0.0
      ],
      "type": "SCALAR"
    },
    {
      "bufferView": 8,
      "byteOffset": 224,
      "componentType": 5126,
      "count": 1,
      "max": [
        0.3242666721343994,
        0.2452545315027237,
        -0.24107645452022552,
        0.8812397718429565
      ],
      "min": [
        0.3242666721343994,
        0.2452545315027237,
        -0.24107645452022552,
        0.8812397718429565
      ],
      "type": "VEC4"
    },
    {
      "bufferView": 6,
      "byteOffset": 60,
      "componentType": 5126,
      "count": 1,
      "max": [
        0.0
      ],
      "min": [
        0.0
      ],
      "type": "SCALAR"
    },
    {
      "bufferView": 8,
      "byteOffset": 240,
      "componentType": 5126,
      "count": 1,
      "max": [
        0.7124820947647095,
        -0.2979793846607208,
        0.4960150122642517,
        0.3969214856624603
      ],
      "min": [
        0.7124820947647095,
        -0.2979793846607208,
        0.4960150122642517,
        0.3969214856624603
      ],
      "type": "VEC4"
    },
    {
      "bufferView": 6,
      "byteOffset": 64,
      "componentType": 5126,
      "count": 1,
      "max": [
        0.0
      ],
      "min": [
        0.0
      ],
      "type": "SCALAR"
    },
    {
      "bufferView": 8,
      "byteOffset": 256,
      "componentType": 5126,
      "count": 1,
      "max": [
        -0.07501309365034103,
        0.004423821810632944,
        -0.03061012737452984,
        0.9967027902603149
      ],
      "min": [
        -0.07501309365034103,
        0.004423821810632944,
        -0.03061012737452984,
        0.9967027902603149
      ],
      "type": "VEC4"
    },
    {
      "bufferView": 6,
      "byteOffset": 68,
      "componentType": 5126,
      "count": 1,
      "max": [
        0.0
      ],
      "min": [
        0.0
      ],
      "type": "SCALAR"
    },
    {
      "bufferView": 8,
      "byteOffset": 272,
      "componentType": 5126,
      "count": 1,
      "max": [
        0.08964598923921585,
        0.009551234543323517,
        0.03739491477608681,
        0.9952256083488464
      ],
      "min": [
        0.08964598923921585,
        0.009551234543323517,
        0.03739491477608681,
        0.9952256083488464
      ],
      "type": "VEC4"
    },
    {
      "bufferView": 6,
      "byteOffset": 72,
      "componentType": 5126,
      "count": 1,
      "max": [
        0.0
      ],
      "min": [
        0.0
      ],
      "type": "SCALAR"
    },
    {
      "bufferView": 8,
      "byteOffset": 288,
      "componentType": 5126,
      "count": 1,
      "max": [
        0.12587659060955048,
        -0.0020144551526755095,
        0.08848528563976288,
        0.9880897402763367
      ],
      "min": [
        0.12587659060955048,
        -0.0020144551526755095,
        0.08848528563976288,
        0.9880897402763367
      ],
      "type": "VEC4"
    },
    {
      "bufferView": 6,
      "byteOffset": 76,
      "componentType": 5126,
      "count": 1,
      "max": [
        0.0
      ],
      "min": [
        0.0
      ],
      "type": "SCALAR"
    },
    {
      "bufferView": 8,
      "byteOffset": 304,
      "componentType": 5126,
      "count": 1,
      "max": [
        0.27070626616477966,
        -0.06786122173070908,
        0.015209408476948738,
        0.9601466655731201
      ],
      "min": [
        0.27070626616477966,
        -0.06786122173070908,
        0.015209408476948738,
        0.9601466655731201
      ],
      "type": "VEC4"
    },
    {
      "bufferView": 6,
      "byteOffset": 80,
      "componentType": 5126,
      "count": 1,
      "max": [
        0.0
      ],
      "min": [
        0.0
      ],
      "type": "SCALAR"
    },
    {
      "bufferView": 8,
      "byteOffset": 320,
      "componentType": 5126,
      "count": 1,
      "max": [
        0.6092197895050049,
        -0.06375394016504288,
        0.02211017720401287,
        0.7901251912117004
      ],
      "min": [
        0.6092197895050049,
        -0.06375394016504288,
        0.02211017720401287,
        0.7901251912117004
      ],
      "type": "VEC4"
    },
    {
      "bufferView": 6,
      "byteOffset": 84,
      "componentType": 5126,
      "count": 1,
      "max": [
        0.0
      ],
      "min": [
        0.0
      ],
      "type": "SCALAR"
    },
    {
      "bufferView": 8,
      "byteOffset": 336,
      "componentType": 5126,
      "count": 1,
      "max": [
        -0.19703391194343567,
        -0.00046657590428367257,
        -0.037619736045598984,
        0.9796745181083679
      ],
      "min": [
        -0.19703391194343567,
        -0.00046657590428367257,
        -0.037619736045598984,
        0.9796745181083679
      ],
      "type": "VEC4"
    },
    {
      "bufferView": 6,
      "byteOffset": 88,
      "componentType": 5126,
      "count": 1,
      "max": [
        0.0
      ],
      "min": [
        0.0
      ],
      "type": "SCALAR"
    },
    {
      "bufferView": 8,
      "byteOffset": 352,
      "componentType": 5126,
      "count": 1,
      "max": [
        0.11477222293615341,
        0.19877944886684418,
        0.9722257852554321,
        -0.04572804644703865
      ],
      "min": [
        0.11477222293615341,
        0.19877944886684418,
        0.9722257852554321,
        -0.04572804644703865
      ],
      "type": "VEC4"
    },
    {
      "bufferView": 6,
      "byteOffset": 92,
      "componentType": 5126,
      "count": 1,
      "max": [
        0.0
      ],
      "min": [
        0.0
      ],
      "type": "SCALAR"
    },
    {
      "bufferView": 8,
      "byteOffset": 368,
      "componentType": 5126,
      "count": 1,
      "max": [
        0.2650773227214813,
        0.049838099628686905,
        -0.015457089059054852,
        0.962814211845398
      ],
      "min": [
        0.2650773227214813,
        0.049838099628686905,
        -0.015457089059054852,
        0.962814211845398
      ],
      "type": "VEC4"
    },
    {
      "bufferView": 6,
      "byteOffset": 96,
      "componentType": 5126,
      "count": 1,
      "max": [
        0.0
      ],
      "min": [
        0.0
      ],
      "type": "SCALAR"
    },
    {
      "bufferView": 8,
      "byteOffset": 384,
      "componentType": 5126,
      "count": 1,
      "max": [
        0.541206419467926,
        0.08123011887073517,
        -0.05339866504073143,
        0.8352519869804382
      ],
      "min": [
        0.541206419467926,
        0.08123011887073517,
        -0.05339866504073143,
        0.8352519869804382
      ],
      "type": "VEC4"
    },
    {
      "bufferView": 6,
      "byteOffset": 100,
      "componentType": 5126,
      "count": 1,
      "max": [
        0.0
      ],
      "min": [
        0.0
      ],
      "type": "SCALAR"
    },
    {
      "bufferView": 8,
      "byteOffset": 400,
      "componentType": 5126,
      "count": 1,
      "max": [
        -0.7242302894592285,
        -0.06669528782367706,
        0.09698963910341263,
        0.6794374585151672
      ],
      "min": [
        -0.7242302894592285,
        -0.06669528782367706,
        0.09698963910341263,
        0.6794374585151672
      ],
      "type": "VEC4"
    },
    {
      "bufferView": 6,
      "byteOffset": 104,
      "componentType": 5126,
      "count": 1,
      "max": [
        0.0
      ],
      "min": [
        0.0
      ],
      "type": "SCALAR"
    },
    {
      "bufferView": 8,
      "byteOffset": 416,
      "componentType": 5126,
      "count": 1,
      "max": [
        -0.22110971808433533,
        0.742725670337677,
        0.6285969614982605,
        0.06584017723798752
      ],
      "min": [
        -0.22110971808433533,
        0.742725670337677,
        0.6285969614982605,
        0.06584017723798752
      ],
      "type": "VEC4"
    },
    {
      "bufferView": 6,
      "byteOffset": 108,
      "componentType": 5126,
      "count": 1,
      "max": [
        0.0
      ],
      "min": [
        0.0
      ],
      "type": "SCALAR"
    },
    {
      "bufferView": 7,
      "componentType": 5126,
      "count": 1,
      "max": [
        0.12999685108661652,
        98.71713256835938,
        -0.46781373023986816
      ],
      "min": [
        0.12999685108661652,
        98.71713256835938,
        -0.46781373023986816
      ],
      "type": "VEC3"
    },
    {
      "bufferView": 6,
      "byteOffset": 112,
      "componentType": 5126,
      "count": 1,
      "max": [
        0.0
      ],
      "min": [
        0.0
      ],
      "type": "SCALAR"
    },
    {
      "bufferView": 8,
      "byteOffset": 432,
      "componentType": 5126,
      "count": 1,
      "max": [
        0.11466040462255478,
        -0.032770074903964996,
        -0.01893696002662182,
        0.992683470249176
      ],
      "min": [
        0.11466040462255478,
        -0.032770074903964996,
        -0.01893696002662182,
        0.992683470249176
      ],
      "type": "VEC4"
    }
  ],
  "animations": [
    {
      "channels": [
        {
          "sampler": 0,
          "target": {
            "node": 21,
            "path": "rotation"
          }
        },
        {
          "sampler": 1,
          "target": {
            "node": 20,
            "path": "rotation"
          }
        },
        {
          "sampler": 2,
          "target": {
            "node": 29,
            "path": "rotation"
          }
        },
        {
          "sampler": 3,
          "target": {
            "node": 28,
            "path": "rotation"
          }
        },
        {
          "sampler": 4,
          "target": {
            "node": 27,
            "path": "rotation"
          }
        },
        {
          "sampler": 5,
          "target": {
            "node": 26,
            "path": "rotation"
          }
        },
        {
          "sampler": 6,
          "target": {
            "node": 25,
            "path": "rotation"
          }
        },
        {
          "sampler": 7,
          "target": {
            "node": 24,
            "path": "rotation"
          }
        },
        {
          "sampler": 8,
          "target": {
            "node": 23,
            "path": "rotation"
          }
        },
        {
          "sampler": 9,
          "target": {
            "node": 37,
            "path": "rotation"
          }
        },
        {
          "sampler": 10,
          "target": {
            "node": 36,
            "path": "rotation"
          }
        },
        {
          "sampler": 11,
          "target": {
            "node": 35,
            "path": "rotation"
          }
        },
        {
          "sampler": 12,
          "target": {
            "node": 34,
            "path": "rotation"
          }
        },
        {
          "sampler": 13,
          "target": {
            "node": 33,
            "path": "rotation"
          }
        },
        {
          "sampler": 14,
          "target": {
            "node": 32,
            "path": "rotation"
          }
        },
        {
          "sampler": 15,
          "target": {
            "node": 31,
            "path": "rotation"
          }
        },
        {
          "sampler": 16,
          "target": {
            "node": 19,
            "path": "rotation"
          }
        },
        {
          "sampler": 17,
          "target": {
            "node": 18,
            "path": "rotation"
          }
        },
        {
          "sampler": 18,
          "target": {
            "node": 17,
            "path": "rotation"
          }
        },
        {
          "sampler": 19,
          "target": {
            "node": 42,
            "path": "rotation"
          }
        },
        {
          "sampler": 20,
          "target": {
            "node": 41,
            "path": "rotation"
          }
        },
        {
          "sampler": 21,
          "target": {
            "node": 40,
            "path": "rotation"
          }
        },
        {
          "sampler": 22,
          "target": {
            "node": 39,
            "path": "rotation"
          }
        },
        {
          "sampler": 23,
          "target": {
            "node": 47,
            "path": "rotation"
          }
        },
        {
          "sampler": 24,
          "target": {
            "node": 46,
            "path": "rotation"
          }
        },
        {
          "sampler": 25,
          "target": {
            "node": 45,
            "path": "rotation"
          }
        },
        {
          "sampler": 26,
          "target": {
            "node": 44,
            "path": "rotation"
          }
        },
        {
          "sampler": 27,
          "target": {
            "node": 16,
            "path": "translation"
          }
        },
        {
          "sampler": 28,
          "target": {
            "node": 16,
            "path": "rotation"
          }
        }
      ],
      "name": "mixamo.com",
      "samplers": [
        {
          "input": 57,
          "interpolation": "LINEAR",
          "output": 58
        },
        {
          "input": 59,
          "interpolation": "LINEAR",
          "output": 60
        },
        {
          "input": 61,
          "interpolation": "LINEAR",
          "output": 62
        },
        {
          "input": 63,
          "interpolation": "LINEAR",
          "output": 64
        },
        {
          "input": 65,
          "interpolation": "LINEAR",
          "output": 66
        },
        {
          "input": 67,
          "interpolation": "LINEAR",
          "output": 68
        },
        {
          "input": 69,
          "interpolation": "LINEAR",
          "output": 70
        },
        {
          "input": 71,
          "interpolation": "LINEAR",
          "output": 72
        },
        {
          "input": 73,
          "interpolation": "LINEAR",
          "output": 74
        },
        {
          "input": 75,
          "interpolation": "LINEAR",
          "output": 76
        },
        {
          "input": 77,
          "interpolation": "LINEAR",
          "output": 78
        },
        {
          "input": 79,
          "interpolation": "LINEAR",
          "output": 80
        },
        {
          "input": 81,
          "interpolation": "LINEAR",
          "output": 82
        },
        {
          "input": 83,
          "interpolation": "LINEAR",
          "output": 84
        },
        {
          "input": 85,
          "interpolation": "LINEAR",
          "output": 86
        },
        {
          "input": 87,
          "interpolation": "LINEAR",
          "output": 88
        },
        {
          "input": 89,
          "interpolation": "LINEAR",
          "output": 90
        },
        {
          "input": 91,
          "interpolation": "LINEAR",
          "output": 92
        },
        {
          "input": 93,
          "interpolation": "LINEAR",
          "output": 94
        },
        {
          "input": 95,
          "interpolation": "LINEAR",
          "output": 96
        },
        {
          "input": 97,
          "interpolation": "LINEAR",
          "output": 98
        },
        {
          "input": 99,
          "interpolation": "LINEAR",
          "output": 100
        },
        {
          "input": 101,
          "interpolation": "LINEAR",
          "output": 102
        },
        {
          "input": 103,
          "interpolation": "LINEAR",
          "output": 104
        },
        {
          "input": 105,
          "interpolation": "LINEAR",
          "output": 106
        },
        {
          "input": 107,
          "interpolation": "LINEAR",
          "output": 108
        },
        {
          "input": 109,
          "interpolation": "LINEAR",
          "output": 110
        },
        {
          "input": 111,
          "interpolation": "LINEAR",
          "output": 112
        },
        {
          "input": 113,
          "interpolation": "LINEAR",
          "output": 114
        }
      ]
    }
  ],
  "asset": {
    "extras": {
      "author": "mohsenmousavi2313 (https://sketchfab.com/mohsenmousavi2313)",
      "license": "CC-BY-4.0 (http://creativecommons.org/licenses/by/4.0/)",
      "source": "https://sketchfab.com/3d-models/old-man-in-coat-human-riged-model-e8052f5928ef42f1ae5b5af02eb1a36b",
      "title": "old man in coat - human riged model"
    },
    "generator": "Sketchfab-15.30.0",
    "version": "2.0"
  },
  "bufferViews": [
    {
      "buffer": 0,
      "byteLength": 104656,
      "byteStride": 8,
      "name": "shortBufferViews",
      "target": 34962
    },
    {
      "buffer": 0,
      "byteLength": 251268,
      "byteOffset": 104656,
      "name": "floatBufferViews",
      "target": 34963
    },
    {
      "buffer": 0,
      "byteLength": 104656,
      "byteOffset": 355924,
      "byteStride": 8,
      "name": "floatBufferViews",
      "target": 34962
    },
    {
      "buffer": 0,
      "byteLength": 313968,
      "byteOffset": 460580,
      "byteStride": 12,
      "name": "floatBufferViews",
      "target": 34962
    },
    {
      "buffer": 0,
      "byteLength": 418624,
      "byteOffset": 774548,
      "byteStride": 16,
      "name": "floatBufferViews",
      "target": 34962
    },
    {
      "buffer": 0,
      "byteLength": 2176,
      "byteOffset": 1193172,
      "name": "floatBufferViews"
    },
    {
      "buffer": 0,
      "byteLength": 116,
      "byteOffset": 1195348,
      "name": "floatBufferViews"
    },
    {
      "buffer": 0,
      "byteLength": 12,
      "byteOffset": 1195464,
      "byteStride": 12,
      "name": "floatBufferViews"
    },
    {
      "buffer": 0,
      "byteLength": 448,
      "byteOffset": 1195476,
      "byteStride": 16,
      "name": "floatBufferViews"
    }
  ],
  "buffers": [
    {
      "byteLength": 1195924,
      "uri": "scene.bin"
    }
  ],
  "extensionsUsed": [
    "KHR_materials_specular"
  ],
  "images": [
    {
      "uri": "textures/Scene_-_Root_baseColor.png"
    },
    {
      "uri": "textures/Scene_-_Root_normal.png"
    },
    {
      "uri": "textures/Scene_-_Root_specularf0.png"
    }
  ],
  "materials": [
    {
      "alphaMode": "BLEND",
      "doubleSided": true,
      "extensions": {
        "KHR_materials_specular": {
          "specularColorFactor": [
            1.0,
            1.0,
            1.0
          ],
          "specularFactor": 1.0,
          "specularTexture": {
            "index": 2
          }
        }
      },
      "name": "Scene_-_Root",
      "normalTexture": {
        "index": 1
      },
      "pbrMetallicRoughness": {
        "baseColorTexture": {
          "index": 0
        },
        "metallicFactor": 0.0,
        "roughnessFactor": 0.5165730028891516
      }
    }
  ],
  "meshes": [
    {
      "name": "Body__0",
      "primitives": [
        {
          "attributes": {
            "JOINTS_0": 41,
            "NORMAL": 1,
            "POSITION": 0,
            "TANGENT": 2,
            "TEXCOORD_0": 3,
            "WEIGHTS_0": 42
          },
          "indices": 4,
          "material": 0,
          "mode": 4
        }
      ]
    },
    {
      "name": "Eyes__0",
      "primitives": [
        {
          "attributes": {
            "JOINTS_0": 43,
            "NORMAL": 6,
            "POSITION": 5,
            "TANGENT": 7,
            "TEXCOORD_0": 8,
            "WEIGHTS_0": 44
          },
          "indices": 9,
          "material": 0,
          "mode": 4
        }
      ]
    },
    {
      "name": "Eyelashes__0",
      "primitives": [
        {
          "attributes": {
            "JOINTS_0": 45,
            "NORMAL": 11,
            "POSITION": 10,
            "TANGENT": 12,
            "TEXCOORD_0": 13,
            "WEIGHTS_0": 46
          },
          "indices": 14,
          "material": 0,
          "mode": 4
        }
      ]
    },
    {
      "name": "Bottoms__0",
      "primitives": [
        {
          "attributes": {
            "JOINTS_0": 47,
            "NORMAL": 16,
            "POSITION": 15,
            "TANGENT": 17,
            "TEXCOORD_0": 18,
            "WEIGHTS_0": 48
          },
          "indices": 19,
          "material": 0,
          "mode": 4
        }
      ]
    },
    {
      "name": "Hair__0",
      "primitives": [
        {
          "attributes": {
            "JOINTS_0": 49,
            "NORMAL": 21,
            "POSITION": 20,
            "TANGENT": 22,
            "TEXCOORD_0": 23,
            "WEIGHTS_0": 50
          },
          "indices": 24,
          "material": 0,
          "mode": 4
        }
      ]
    },
    {
      "name": "Tops__0",
      "primitives": [
        {
          "attributes": {
            "JOINTS_0": 51,
            "NORMAL": 26,
            "POSITION": 25,
            "TANGENT": 27,
            "TEXCOORD_0": 28,
            "WEIGHTS_0": 52
          },
          "indices": 29,
          "material": 0,
          "mode": 4
        }
      ]
    },
    {
      "name": "Hats__0",
      "primitives": [
        {
          "attributes": {
            "JOINTS_0": 53,
            "NORMAL": 31,
            "POSITION": 30,
            "TANGENT": 32,
            "TEXCOORD_0": 33,
            "WEIGHTS_0": 54
          },
          "indices": 34,
          "material": 0,
          "mode": 4
        }
      ]
    },
    {
      "name": "Shoes__0",
      "primitives": [
        {
          "attributes": {
            "JOINTS_0": 55,
            "NORMAL": 36,
            "POSITION": 35,
            "TANGENT": 37,
            "TEXCOORD_0": 38,
            "WEIGHTS_0": 56
          },
          "indices": 39,
          "material": 0,
          "mode": 4
        }
      ]
    }
  ],
  "nodes": [
    {
      "children": [
        1
      ],
      "matrix": [
        1.7222307767294183,
        1.2899930207745617e-17,
        -0.05809612087670857,
        0.0,
        -0.05809612087670857,
        3.824120524086135e-16,
        -1.7222307767294183,
        0.0,
        0.0,
        1.723210334777832,
        3.8262955798847465e-16,
        0.0,
        0.0,
        0.0,
        0.0,
        1.0
      ],
      "name": "Sketchfab_model"
    },
    {
      "children": [
        2
      ],
      "matrix": [
        0.009999999776482582,
        0.0,
        0.0,
        0.0,
        0.0,
        0.0,
        0.009999999776482582,
        0.0,
        0.0,
        -0.009999999776482582,
        0.0,
        0.0,
        0.0,
        0.0,
        0.0,
        1.0
      ],
      "name": "4f5302fcad1f4a6797c96485292733ad.fbx"
    },
    {
      "children": [
        3
      ],
      "name": "Object_2"
    },
    {
      "children": [
        4
      ],
      "name": "RootNode"
    },
    {
      "children": [
        5,
        6,
        7,
        8,
        10,
        11,
        12,
        13,
        15,
        9,
        14,
        49,
        50,
        51,
        52,
        53,
        54,
        55,
        56
      ],
      "name": "Object_4"
    },
    {
      "children": [
        16
      ],
      "name": "_rootJoint"
    },
    {
      "mesh": 0,
      "name": "Object_6",
      "skin": 0
    },
    {
      "mesh": 1,
      "name": "Object_7",
      "skin": 0
    },
    {
      "mesh": 2,
      "name": "Object_8",
      "skin": 0
    },
    {
      "matrix": [
        0.9999999999999998,
        3.705160557007091e-18,
        -6.841650912987012e-19,
        0.0,
        -3.705160557007091e-18,
        0.9999999999999998,
        1.3877787807814457e-17,
        0.0,
        6.841650912987013e-19,
        -1.3877787807814457e-17,
        0.9999999999999998,
        0.0,
        -3.552713678800501e-15,
        2.842170943040401e-14,
        0.0,
        1.0
      ],
      "name": "Object_9"
    },
    {
      "mesh": 3,
      "name": "Object_10",
      "skin": 0
    },
    {
      "mesh": 4,
      "name": "Object_11",
      "skin": 0
    },
    {
      "mesh": 5,
      "name": "Object_12",
      "skin": 0
    },
    {
      "mesh": 6,
      "name": "Object_13",
      "skin": 0
    },
    {
      "matrix": [
        1.0,
        3.713392440762853e-18,
        -6.505213034913027e-19,
        0.0,
        -3.713392440762853e-18,
        1.0,
        -1.3877787807814457e-17,
        0.0,
        6.505213034913026e-19,
        1.3877787807814457e-17,
        1.0,
        0.0,
        1.7763568394002505e-15,
        0.0,
        -4.440892098500626e-16,
        1.0
      ],
      "name": "Object_14"
    },
    {
      "mesh": 7,
      "name": "Object_15",
      "skin": 0
    },
    {
      "children": [
        17,
        39,
        44
      ],
      "name": "mixamorig:Hips_01",
      "translation": [
        -7.62939453125e-06,
        100.19197845458984,
        1.0803132057189941
      ]
    },
    {
      "children": [
        18
      ],
      "name": "mixamorig:Spine_02",
      "rotation": [
        -0.0686895027756691,
        -0.0,
        0.0,
        0.9976381063461304
      ],
      "translation": [
        0.0,
        9.083229064941406,
        -1.256756067276001
      ]
    },
    {
      "children": [
        19
      ],
      "name": "mixamorig:Spine1_03",
      "rotation": [
        -2.9521093125595144e-08,
        -0.0,
        0.0,
        1.0
      ],
      "translation": [
        0.0,
        10.698043823242188,
        5.911537215297358e-08
      ]
    },
    {
      "children": [
        20,
        23,
        31
      ],
      "name": "mixamorig:Spine2_04",
      "translation": [
        0.0,
        12.226335525512695,
        4.718538093584357e-08
      ]
    },
    {
      "children": [
        21
      ],
      "name": "mixamorig:Neck_05",
      "rotation": [
        0.06868953257799149,
        0.0,
        0.0,
        0.9976381063461304
      ],
      "translation": [
        0.0,
        13.754627227783203,
        1.1158429060742492e-06
      ]
    },
    {
      "children": [
        22
      ],
      "name": "mixamorig:Head_06",
      "translation": [
        0.0,
        6.6363677978515625,
        2.3084354400634766
      ]
    },
    {
      "name": "mixamorig:HeadTop_End_07",
      "translation": [
        0.0,
        24.982254028320313,
        8.689982414245605
      ]
    },
    {
      "children": [
        24
      ],
      "name": "mixamorig:LeftShoulder_08",
      "rotation": [
        -0.5594126582145691,
        -0.4206797480583191,
        0.5957512259483337,
        -0.39391183853149414
      ],
      "translation": [
        6.383059501647949,
        11.59725284576416,
        -0.39261311292648315
      ]
    },
    {
      "children": [
        25
      ],
      "name": "mixamorig:LeftArm_09",
      "rotation": [
        -0.14692071080207825,
        -0.0005387042183429003,
        0.0036268304102122784,
        0.989141583442688
      ],
      "translation": [
        3.0047996091298046e-08,
        13.37716293334961,
        1.6757454091020918e-07
      ]
    },
    {
      "children": [
        26
      ],
      "name": "mixamorig:LeftForeArm_010",
      "rotation": [
        -0.02999507449567318,
        -0.0014302368508651853,
        0.04760704189538956,
        0.9984147548675537
      ],
      "translation": [
        5.666491986744404e-08,
        28.376596450805664,
        7.035748694761423e-08
      ]
    },
    {
      "children": [
        27
      ],
      "name": "mixamorig:LeftHand_011",
      "rotation": [
        0.032992176711559296,
        4.5062974095344543e-05,
        0.0013654610374942422,
        0.99945467710495
      ],
      "translation": [
        -5.192205776438641e-09,
        30.7867374420166,
        1.726223786135961e-08
      ]
    },
    {
      "children": [
        28
      ],
      "name": "mixamorig:LeftHandIndex1_012",
      "rotation": [
        0.04445286840200424,
        0.000530053221154958,
        0.011911199428141117,
        0.9989403486251831
      ],
      "translation": [
        -6.168253463556539e-09,
        18.08030891418457,
        2.1895715462960652e-08
      ]
    },
    {
      "children": [
        29
      ],
      "name": "mixamorig:LeftHandIndex2_013",
      "rotation": [
        -4.336808689942018e-18,
        -4.163336342344337e-17,
        -1.8055593228630336e-34,
        1.0
      ],
      "translation": [
        -3.771248202610877e-09,
        2.2081732749938965,
        -2.484526362422912e-08
      ]
    },
    {
      "children": [
        30
      ],
      "name": "mixamorig:LeftHandIndex3_014",
      "rotation": [
        -2.6020852139652106e-18,
        -1.3877787807814457e-17,
        -6.938893903907228e-18,
        1.0
      ],
      "translation": [
        0.1889326274394989,
        3.506713628768921,
        0.1850404441356659
      ]
    },
    {
      "name": "mixamorig:LeftHandIndex4_015",
      "rotation": [
        8.673617379884035e-19,
        -1.3877787807814457e-17,
        1.2037062152420224e-35,
        1.0
      ],
      "translation": [
        0.6316959857940674,
        2.4951412677764893,
        0.6021327376365662
      ]
    },
    {
      "children": [
        32
      ],
      "name": "mixamorig:RightShoulder_016",
      "rotation": [
        0.5688305497169495,
        -0.41362664103507996,
        0.5883913040161133,
        0.39892444014549255
      ],
      "translation": [
        -6.383059501647949,
        11.571697235107422,
        -0.20791074633598328
      ]
    },
    {
      "children": [
        33
      ],
      "name": "mixamorig:RightArm_017",
      "rotation": [
        -0.1497521698474884,
        -0.0028468032833188772,
        0.01879224367439747,
        0.9885408878326416
      ],
      "translation": [
        -2.4632676343117055e-08,
        13.37716293334961,
        1.6839180716488045e-07
      ]
    },
    {
      "children": [
        34
      ],
      "name": "mixamorig:RightForeArm_018",
      "rotation": [
        -0.02991507761180401,
        0.0015933156246319413,
        -0.05316225811839104,
        0.9981365203857422
      ],
      "translation": [
        -3.8080450792676857e-08,
        28.399627685546875,
        3.939717885259597e-08
      ]
    },
    {
      "children": [
        35
      ],
      "name": "mixamorig:RightHand_019",
      "rotation": [
        0.05953185260295868,
        -3.168769762851298e-05,
        -0.000531413999851793,
        0.9982262849807739
      ],
      "translation": [
        1.2412520788984693e-08,
        30.78444480895996,
        2.109212005052541e-08
      ]
    },
    {
      "children": [
        36
      ],
      "name": "mixamorig:RightHandIndex1_020",
      "rotation": [
        0.008845556527376175,
        -3.3247099054278806e-05,
        -0.0037584668025374413,
        0.9999538064002991
      ],
      "translation": [
        -6.149161180246665e-10,
        17.731470108032227,
        9.723035532260837e-08
      ]
    },
    {
      "children": [
        37
      ],
      "name": "mixamorig:RightHandIndex2_00",
      "rotation": [
        -7.41594285980085e-17,
        -1.3877787807814457e-17,
        -3.469446951953614e-18,
        1.0
      ],
      "translation": [
        8.305963916654946e-09,
        2.3461697101593018,
        1.4260763236961793e-08
      ]
    },
    {
      "children": [
        38
      ],
      "name": "mixamorig:RightHandIndex3_021",
      "rotation": [
        1.734723475976807e-18,
        1.3877787807814457e-17,
        -6.938893903907228e-18,
        1.0
      ],
      "translation": [
        -0.18205071985721588,
        3.6600501537323,
        0.19842614233493805
      ]
    },
    {
      "name": "mixamorig:RightHandIndex4_022",
      "rotation": [
        2.6020852139652106e-18,
        1.3877787807814457e-17,
        -1.0408340855860843e-17,
        1.0
      ],
      "translation": [
        -0.7743955850601196,
        2.7550690174102783,
        0.11602108925580978
      ]
    },
    {
      "children": [
        40
      ],
      "name": "mixamorig:LeftUpLeg_023",
      "rotation": [
        -0.000557074963580817,
        -0.02814391441643238,
        0.9994080662727356,
        -0.019782081246376038
      ],
      "translation": [
        8.055960655212402,
        -5.042518615722656,
        -0.6942316293716431
      ]
    },
    {
      "children": [
        41
      ],
      "name": "mixamorig:LeftLeg_024",
      "rotation": [
        -0.003871362656354904,
        0.0001686652540229261,
        -0.04352579638361931,
        0.9990448951721191
      ],
      "translation": [
        5.788545820450963e-08,
        43.97194290161133,
        7.073564489701312e-08
      ]
    },
    {
      "children": [
        42
      ],
      "name": "mixamorig:LeftFoot_025",
      "rotation": [
        0.5458970069885254,
        -0.07252215594053268,
        0.04750632867217064,
        0.8333548903465271
      ],
      "translation": [
        3.66150487707273e-08,
        42.517024993896484,
        -4.551288412812937e-08
      ]
    },
    {
      "children": [
        43
      ],
      "name": "mixamorig:LeftToeBase_026",
      "rotation": [
        0.2563264071941376,
        -0.06511040031909943,
        0.01730847917497158,
        0.9642395377159119
      ],
      "translation": [
        -3.793922687123086e-08,
        18.99989128112793,
        3.885279795667884e-07
      ]
    },
    {
      "name": "mixamorig:LeftToe_End_027",
      "rotation": [
        -2.688010092288806e-10,
        1.214306433183765e-16,
        1.3877787807814457e-17,
        1.0
      ],
      "translation": [
        3.855958397025461e-08,
        7.748844146728516,
        -1.8636722387554983e-08
      ]
    },
    {
      "children": [
        45
      ],
      "name": "mixamorig:RightUpLeg_028",
      "rotation": [
        0.0006290327291935682,
        -0.03179321065545082,
        0.9992988109588623,
        0.019771255552768707
      ],
      "translation": [
        -8.055960655212402,
        -5.042518615722656,
        -0.2527846097946167
      ]
    },
    {
      "children": [
        46
      ],
      "name": "mixamorig:RightLeg_029",
      "rotation": [
        0.009075697511434555,
        0.0003955755673814565,
        0.04354311525821686,
        0.9990102648735046
      ],
      "translation": [
        -3.3500484164505906e-08,
        43.99119567871094,
        1.2688893491485942e-07
      ]
    },
    {
      "children": [
        47
      ],
      "name": "mixamorig:RightFoot_030",
      "rotation": [
        0.5242560505867004,
        0.0801747739315033,
        -0.04966443404555321,
        0.8463220596313477
      ],
      "translation": [
        -7.694683290537796e-08,
        42.473751068115234,
        -1.2058922038704623e-07
      ]
    },
    {
      "children": [
        48
      ],
      "name": "mixamorig:RightToeBase_031",
      "rotation": [
        0.2718951106071472,
        0.05122700333595276,
        -0.014495830051600933,
        0.960853099822998
      ],
      "translation": [
        -1.715407336178032e-07,
        17.886051177978516,
        5.732795784751943e-07
      ]
    },
    {
      "name": "mixamorig:RightToe_End_032",
      "rotation": [
        -1.983159636509413e-09,
        1.0321604682062002e-16,
        -1.3877787807814457e-17,
        1.0
      ],
      "translation": [
        -9.200067552228575e-08,
        7.600813388824463,
        -8.89802365122705e-09
      ]
    },
    {
      "name": "Body"
    },
    {
      "name": "Eyes"
    },
    {
      "name": "Eyelashes"
    },
    {
      "name": "Bottoms"
    },
    {
      "name": "Hair"
    },
    {
      "name": "Tops"
    },
    {
      "name": "Hats"
    },
    {
      "name": "Shoes"
    }
  ],
  "samplers": [
    {
      "magFilter": 9729,
      "minFilter": 9987,
      "wrapS": 10497,
      "wrapT": 10497
    }
  ],
  "scene": 0,
  "scenes": [
    {
      "name": "Sketchfab_Scene",
      "nodes": [
        0
      ]
    }
  ],
  "skins": [
    {
      "inverseBindMatrices": 40,
      "joints": [
        5,
        16,
        17,
        18,
        19,
        20,
        21,
        22,
        23,
        24,
        25,
        26,
        27,
        28,
        29,
        30,
        31,
        32,
        33,
        34,
        35,
        36,
        37,
        38,
        39,
        40,
        41,
        42,
        43,
        44,
        45,
        46,
        47,
        48
      ],
      "skeleton": 5
    }
  ],
  "textures": [
    {
      "sampler": 0,
      "source": 0
    },
    {
      "sampler": 0,
      "source": 1
    },
    {
      "sampler": 0,
      "source": 2
    }
  ]
}
