{
  "accessors": [
    {
      "bufferView": 2,
      "componentType": 5126,
      "count": 1094,
      "max": [
        10.21963119506836,
        113.9593505859375,
        1.0
      ],
      "min": [
        -3.4069297313690186,
        -0.03145408630371094,
        -5.600724697113037
      ],
      "type": "VEC3"
    },
    {
      "bufferView": 2,
      "byteOffset": 13128,
      "componentType": 5126,
      "count": 1094,
      "max": [
        1.0,
        1.0,
        1.0
      ],
      "min": [
        -1.0,
        -1.0,
        -1.0
      ],
      "type": "VEC3"
    },
    {
      "bufferView": 3,
      "componentType": 5126,
      "count": 1094,
      "max": [
        1.0,
        1.0,
        1.0,
        1.0
      ],
      "min": [
        -1.0,
        -1.0,
        -1.0,
        1.0
      ],
      "type": "VEC4"
    },
    {
      "bufferView": 1,
      "componentType": 5126,
      "count": 1094,
      "max": [
        0.3412620723247528,
        0.994064450263977
      ],
      "min": [
        0.023280378431081772,
        0.5145549774169922
      ],
      "type": "VEC2"
    },
    {
      "bufferView": 0,
      "componentType": 5125,
      "count": 2688,
      "type": "SCALAR"
    },
    {
      "bufferView": 2,
      "byteOffset": 26256,
      "componentType": 5126,
      "count": 552,
      "max": [
        10.488348960876465,
        8.927389144897461,
        4.478427886962891
      ],
      "min": [
        -10.477306365966797,
        -0.028299689292907715,
        -5.8554768562316895
      ],
      "type": "VEC3"
    },
    {
      "bufferView": 2,
      "byteOffset": 32880,
      "componentType": 5126,
      "count": 552,
      "max": [
        1.0,
        1.0,
        1.0
      ],
      "min": [
        -1.0,
        -1.0,
        -1.0
      ],
      "type": "VEC3"
    },
    {
      "bufferView": 3,
      "byteOffset": 17504,
      "componentType": 5126,
      "count": 552,
      "max": [
        1.0,
        1.0,
        0.99228435754776,
        1.0
      ],
      "min": [
        -1.0,
        -1.0,
        -1.0,
        1.0
      ],
      "type": "VEC4"
    },
    {
      "bufferView": 1,
      "byteOffset": 8752,
      "componentType": 5126,
      "count": 552,
      "max": [
        0.9930122494697571,
        0.9784253835678101
      ],
      "min": [
        0.2798682153224945,
        0.006806092336773872
      ],
      "type": "VEC2"
    },
    {
      "bufferView": 0,
      "byteOffset": 10752,
      "componentType": 5125,
      "count": 1428,
      "type": "SCALAR"
    },
    {
      "bufferView": 2,
      "byteOffset": 39504,
      "componentType": 5126,
      "count": 461,
      "max": [
        1.1726508140563965,
        2.924527168273926,
        1.2542970180511475
      ],
      "min": [
        -1.1726508140563965,
        -0.012644052505493164,
        -1.1936780214309692
      ],
      "type": "VEC3"
    },
    {
      "bufferView": 2,
      "byteOffset": 45036,
      "componentType": 5126,
      "count": 461,
      "max": [
        1.0,
        1.0,
        1.0
      ],
      "min": [
        -1.0,
        -1.0,
        -1.0
      ],
      "type": "VEC3"
    },
    {
      "bufferView": 3,
      "byteOffset": 26336,
      "componentType": 5126,
      "count": 461,
      "max": [
        0.9999765753746033,
        1.0,
        1.0,
        1.0
      ],
      "min": [
        -0.99993497133255,
        -0.8198623657226563,
        -0.9999974370002747,
        1.0
      ],
      "type": "VEC4"
    },
    {
      "bufferView": 1,
      "byteOffset": 13168,
      "componentType": 5126,
      "count": 461,
      "max": [
        0.7909553647041321,
        0.9921345114707947
      ],
      "min": [
        0.3671231269836426,
        0.01930605061352253
      ],
      "type": "VEC2"
    },
    {
      "bufferView": 0,
      "byteOffset": 16464,
      "componentType": 5125,
      "count": 1125,
      "type": "SCALAR"
    },
    {
      "bufferView": 2,
      "byteOffset": 50568,
      "componentType": 5126,
      "count": 924,
      "max": [
        1.0860133171081543,
        2.5877034664154053,
        1.0709916353225708
      ],
      "min": [
        -1.1427820920944214,
        -0.008304178714752197,
        -1.0709916353225708
      ],
      "type": "VEC3"
    },
    {
      "bufferView": 2,
      "byteOffset": 61656,
      "componentType": 5126,
      "count": 924,
      "max": [
        1.0,
        1.0,
        1.0
      ],
      "min": [
        -1.0,
        -1.0,
        -1.0
      ],
      "type": "VEC3"
    },
    {
      "bufferView": 3,
      "byteOffset": 33712,
      "componentType": 5126,
      "count": 924,
      "max": [
        1.0,
        1.0,
        1.0,
        1.0
      ],
      "min": [
        -1.0,
        -1.0,
        -1.0,
        1.0
      ],
      "type": "VEC4"
    },
    {
      "bufferView": 1,
      "byteOffset": 16856,
      "componentType": 5126,
      "count": 924,
      "max": [
        0.7964332103729248,
        0.8318034410476685
      ],
      "min": [
        0.0035264405887573957,
        0.010323332622647285
      ],
      "type": "VEC2"
    },
    {
      "bufferView": 0,
      "byteOffset": 20964,
      "componentType": 5125,
      "count": 2376,
      "type": "SCALAR"
    },
    {
      "bufferView": 2,
      "byteOffset": 72744,
      "componentType": 5126,
      "count": 465,
      "max": [
        18.208051681518555,
        121.43851470947266,
        1.4350967407226563
      ],
      "min": [
        -18.208051681518555,
        -0.17247962951660156,
        -18.222213745117188
      ],
      "type": "VEC3"
    },
    {
      "bufferView": 2,
      "byteOffset": 78324,
      "componentType": 5126,
      "count": 465,
      "max": [
        1.0,
        1.0,
        0.9992594718933105
      ],
      "min": [
        -1.0,
        -1.0,
        -1.0
      ],
      "type": "VEC3"
    },
    {
      "bufferView": 3,
      "byteOffset": 48496,
      "componentType": 5126,
      "count": 465,
      "max": [
        0.9999998807907104,
        0.9627624154090881,
        1.0,
        1.0
      ],
      "min": [
        -0.9999999403953552,
        -0.9627636075019836,
        -1.0,
        1.0
      ],
      "type": "VEC4"
    },
    {
      "bufferView": 1,
      "byteOffset": 24248,
      "componentType": 5126,
      "count": 465,
      "max": [
        0.9996788501739502,
        0.9435138702392578
      ],
      "min": [
        0.1443243771791458,
        -0.0008651149109937251
      ],
      "type": "VEC2"
    },
    {
      "bufferView": 0,
      "byteOffset": 30468,
      "componentType": 5125,
      "count": 1662,
      "type": "SCALAR"
    },
    {
      "bufferView": 2,
      "byteOffset": 83904,
      "componentType": 5126,
      "count": 404,
      "max": [
        1.1726508140563965,
        2.924527168273926,
        1.2542970180511475
      ],
      "min": [
        -1.1726508140563965,
        -0.012644052505493164,
        -1.1936780214309692
      ],
      "type": "VEC3"
    },
    {
      "bufferView": 2,
      "byteOffset": 88752,
      "componentType": 5126,
      "count": 404,
      "max": [
        1.0,
        1.0,
        1.0
      ],
      "min": [
        -1.0,
        -1.0,
        -1.0
      ],
      "type": "VEC3"
    },
    {
      "bufferView": 3,
      "byteOffset": 55936,
      "componentType": 5126,
      "count": 404,
      "max": [
        0.9999765753746033,
        1.0,
        1.0,
        1.0
      ],
      "min": [
        -0.99993497133255,
        -0.8198623657226563,
        -0.9999974370002747,
        1.0
      ],
      "type": "VEC4"
    },
    {
      "bufferView": 1,
      "byteOffset": 27968,
      "componentType": 5126,
      "count": 404,
      "max": [
        0.677539050579071,
        0.9921345114707947
      ],
      "min": [
        0.3671231269836426,
        0.49027884006500244
      ],
      "type": "VEC2"
    },
    {
      "bufferView": 0,
      "byteOffset": 37116,
      "componentType": 5125,
      "count": 1068,
      "type": "SCALAR"
    },
    {
      "bufferView": 2,
      "byteOffset": 93600,
      "componentType": 5126,
      "count": 780,
      "max": [
        1.0860133171081543,
        2.5877034664154053,
        1.0709916353225708
      ],
      "min": [
        -1.1427820920944214,
        -0.008304178714752197,
        -1.0709916353225708
      ],
      "type": "VEC3"
    },
    {
      "bufferView": 2,
      "byteOffset": 102960,
      "componentType": 5126,
      "count": 780,
      "max": [
        1.0,
        1.0,
        1.0
      ],
      "min": [
        -1.0,
        -1.0,
        -1.0
      ],
      "type": "VEC3"
    },
    {
      "bufferView": 3,
      "byteOffset": 62400,
      "componentType": 5126,
      "count": 780,
      "max": [
        1.0,
        1.0,
        1.0,
        1.0
      ],
      "min": [
        -1.0,
        -1.0,
        -1.0,
        1.0
      ],
      "type": "VEC4"
    },
    {
      "bufferView": 1,
      "byteOffset": 31200,
      "componentType": 5126,
      "count": 780,
      "max": [
        0.6195628046989441,
        0.8318034410476685
      ],
      "min": [
        0.001712904078885913,
        0.010323332622647285
      ],
      "type": "VEC2"
    },
    {
      "bufferView": 0,
      "byteOffset": 41388,
      "componentType": 5125,
      "count": 2232,
      "type": "SCALAR"
    }
  ],
  "asset": {
    "extras": {
      "author": "FrodoUndead (https://sketchfab.com/FrodoUndead)",
      "license": "CC-BY-4.0 (http://creativecommons.org/licenses/by/4.0/)",
      "source": "https://sketchfab.com/3d-models/fishing-supplies-set-8742c7af23584443a42c24e52d25b60c",
      "title": "Fishing Supplies Set"
    },
    "generator": "Sketchfab-15.20.0",
    "version": "2.0"
  },
  "bufferViews": [
    {
      "buffer": 0,
      "byteLength": 50316,
      "name": "floatBufferViews",
      "target": 34963
    },
    {
      "buffer": 0,
      "byteLength": 37440,
      "byteOffset": 50316,
      "byteStride": 8,
      "name": "floatBufferViews",
      "target": 34962
    },
    {
      "buffer": 0,
      "byteLength": 112320,
      "byteOffset": 87756,
      "byteStride": 12,
      "name": "floatBufferViews",
      "target": 34962
    },
    {
      "buffer": 0,
      "byteLength": 74880,
      "byteOffset": 200076,
      "byteStride": 16,
      "name": "floatBufferViews",
      "target": 34962
    }
  ],
  "buffers": [
    {
      "byteLength": 274956,
      "uri": "scene.bin"
    }
  ],
  "extensionsUsed": [
    "KHR_materials_specular"
  ],
  "images": [
    {
      "uri": "textures/Material_baseColor.png"
    },
    {
      "uri": "textures/Material_metallicRoughness.png"
    },
    {
      "uri": "textures/Material_normal.png"
    }
  ],
  "materials": [
    {
      "alphaCutoff": 0.6689544196706123,
      "alphaMode": "MASK",
      "extensions": {
        "KHR_materials_specular": {
          "specularColorFactor": [
            1.0,
            1.0,
            1.0
          ],
          "specularFactor": 0.15085760261364606
        }
      },
      "name": "Material",
      "normalTexture": {
        "index": 2
      },
      "occlusionTexture": {
        "index": 1
      },
      "pbrMetallicRoughness": {
        "baseColorTexture": {
          "index": 0
        },
        "metallicFactor": 0.0,
        "metallicRoughnessTexture": {
          "index": 1
        },
        "roughnessFactor": 0.4373346661627921
      }
    }
  ],
  "meshes": [
    {
      "name": "Object_0",
      "primitives": [
        {
          "attributes": {
            "NORMAL": 1,
            "POSITION": 0,
            "TANGENT": 2,
            "TEXCOORD_0": 3
          },
          "indices": 4,
          "material": 0,
          "mode": 4
        }
      ]
    },
    {
      "name": "Object_1",
      "primitives": [
        {
          "attributes": {
            "NORMAL": 6,
            "POSITION": 5,
            "TANGENT": 7,
            "TEXCOORD_0": 8
          },
          "indices": 9,
          "material": 0,
          "mode": 4
        }
      ]
    },
    {
      "name": "Object_2",
      "primitives": [
        {
          "attributes": {
            "NORMAL": 11,
            "POSITION": 10,
            "TANGENT": 12,
            "TEXCOORD_0": 13
          },
          "indices": 14,
          "material": 0,
          "mode": 4
        }
      ]
    },
    {
      "name": "Object_3",
      "primitives": [
        {
          "attributes": {
            "NORMAL": 16,
            "POSITION": 15,
            "TANGENT": 17,
            "TEXCOORD_0": 18
          },
          "indices": 19,
          "material": 0,
          "mode": 4
        }
      ]
    },
    {
      "name": "Object_4",
      "primitives": [
        {
          "attributes": {
            "NORMAL": 21,
            "POSITION": 20,
            "TANGENT": 22,
            "TEXCOORD_0": 23
          },
          "indices": 24,
          "material": 0,
          "mode": 4
        }
      ]
    },
    {
      "name": "Object_5",
      "primitives": [
        {
          "attributes": {
            "NORMAL": 26,
            "POSITION": 25,
            "TANGENT": 27,
            "TEXCOORD_0": 28
          },
          "indices": 29,
          "material": 0,
          "mode": 4
        }
      ]
    },
    {
      "name": "Object_6",
      "primitives": [
        {
          "attributes": {
            "NORMAL": 31,
            "POSITION": 30,
            "TANGENT": 32,
            "TEXCOORD_0": 33
          },
          "indices": 34,
          "material": 0,
          "mode": 4
        }
      ]
    }
  ],
  "nodes": [
    {
      "children": [
        1
      ],
      "matrix": [
        1.0,
        0.0,
        0.0,
        0.0,
        0.0,
        2.220446049250313e-16,
        -1.0,
        0.0,
        0.0,
        1.0,
        2.220446049250313e-16,
        0.0,
        0.0,
        0.0,
        0.0,
        1.0
      ],
      "name": "Sketchfab_model"
    },
    {
      "children": [
        2
      ],
      "name": "root"
    },
    {
      "children": [
        3,
        5,
        7,
        9,
        11,
        13,
        15
      ],
      "matrix": [
        1.0,
        0.0,
        0.0,
        0.0,
        0.0,
        2.220446049250313e-16,
        1.0,
        0.0,
        0.0,
        -1.0,
        2.220446049250313e-16,
        0.0,
        0.0,
        0.0,
        0.0,
        1.0
      ],
      "name": "GLTF_SceneRootNode"
    },
    {
      "children": [
        4
      ],
      "matrix": [
        1.9008160118519685e-07,
        9.724147669743795e-08,
        1.1327655315398968,
        0.0,
        1.0814222929586348,
        0.33716994785561033,
        -2.1041016685343425e-07,
        0.0,
        -0.3371699478556224,
        1.081422292958651,
        -3.625577912679572e-08,
        0.0,
        -144.4095458984375,
        35.603023529052734,
        9.80594253540039,
        1.0
      ],
      "name": "Fishing Pole_0"
    },
    {
      "mesh": 0,
      "name": "Object_4"
    },
    {
      "children": [
        6
      ],
      "matrix": [
        1.7175464630126953,
        0.0,
        0.0,
        0.0,
        0.0,
        1.7175464630126953,
        0.0,
        0.0,
        0.0,
        0.0,
        1.7175464630126953,
        0.0,
        -69.91700744628906,
        0.0,
        10.183089256286621,
        1.0
      ],
      "name": "Tackle Box_1"
    },
    {
      "mesh": 1,
      "name": "Object_6"
    },
    {
      "children": [
        8
      ],
      "matrix": [
        6.68464517782017,
        0.0,
        -1.32965882555831,
        0.0,
        0.0,
        6.815605163574219,
        0.0,
        0.0,
        1.32965882555831,
        0.0,
        6.68464517782017,
        0.0,
        -99.55928039550781,
        0.0,
        -0.3273887634277344,
        1.0
      ],
      "name": "Metal Bucket (Full)_2"
    },
    {
      "mesh": 2,
      "name": "Object_8"
    },
    {
      "children": [
        10
      ],
      "matrix": [
        -2.3341217458447705,
        0.0,
        11.734412860053721,
        0.0,
        -0.0,
        11.964303970336914,
        0.0,
        0.0,
        -11.734412860053721,
        -0.0,
        -2.3341217458447705,
        0.0,
        -123.07976531982422,
        0.0,
        -4.334781169891357,
        1.0
      ],
      "name": "Plastic Bucket (Full)_3"
    },
    {
      "mesh": 3,
      "name": "Object_10"
    },
    {
      "children": [
        12
      ],
      "matrix": [
        0.5336294174194336,
        0.0,
        0.0,
        0.0,
        -0.0,
        0.507596641800324,
        -0.1646390122918552,
        0.0,
        0.0,
        0.1646390122918552,
        0.507596641800324,
        0.0,
        -43.1746940612793,
        0.14409446716308594,
        17.883102416992188,
        1.0
      ],
      "name": "Fishing Net_4"
    },
    {
      "mesh": 4,
      "name": "Object_12"
    },
    {
      "children": [
        14
      ],
      "matrix": [
        6.68464517782017,
        0.0,
        -1.32965882555831,
        0.0,
        0.0,
        6.815605163574219,
        0.0,
        0.0,
        1.32965882555831,
        0.0,
        6.68464517782017,
        0.0,
        -99.55928039550781,
        0.0,
        31.155193328857422,
        1.0
      ],
      "name": "Metal Bucket (Empty)_5"
    },
    {
      "mesh": 5,
      "name": "Object_14"
    },
    {
      "children": [
        16
      ],
      "matrix": [
        -2.3341217458447705,
        0.0,
        11.734412860053721,
        0.0,
        -0.0,
        11.964303970336914,
        0.0,
        0.0,
        -11.734412860053721,
        -0.0,
        -2.3341217458447705,
        0.0,
        -123.07976531982422,
        0.0,
        27.14780044555664,
        1.0
      ],
      "name": "Plastic Bucket Empty_6"
    },
    {
      "mesh": 6,
      "name": "Object_16"
    }
  ],
  "samplers": [
    {
      "magFilter": 9729,
      "minFilter": 9987,
      "wrapS": 10497,
      "wrapT": 10497
    }
  ],
  "scene": 0,
  "scenes": [
    {
      "name": "Sketchfab_Scene",
      "nodes": [
        0
      ]
    }
  ],
  "textures": [
    {
      "sampler": 0,
      "source": 0
    },
    {
      "sampler": 0,
      "source": 1
    },
    {
      "sampler": 0,
      "source": 2
    }
  ]
}
