{
  "accessors": [
    {
      "bufferView": 3,
      "componentType": 5126,
      "count": 749,
      "max": [
        0.3330002427101135,
        0.958836555480957,
        -0.06384455412626266
      ],
      "min": [
        -0.31607410311698914,
        0.5769609808921814,
        -0.48150601983070374
      ],
      "type": "VEC3"
    },
    {
      "bufferView": 3,
      "byteOffset": 8988,
      "componentType": 5126,
      "count": 749,
      "max": [
        0.9990649223327637,
        0.9870945811271667,
        0.9906822443008423
      ],
      "min": [
        -0.9989686608314514,
        -0.9875202775001526,
        -0.9493193626403809
      ],
      "type": "VEC3"
    },
    {
      "bufferView": 4,
      "componentType": 5126,
      "count": 749,
      "max": [
        0.9256893992424011,
        0.9992370009422302,
        0.9988967180252075,
        1.0
      ],
      "min": [
        -0.6367756724357605,
        -0.9988940358161926,
        -0.9959220886230469,
        -1.0
      ],
      "type": "VEC4"
    },
    {
      "bufferView": 4,
      "byteOffset": 11984,
      "componentType": 5126,
      "count": 749,
      "max": [
        0.47058823704719543,
        0.19607843458652496,
        0.10588235408067703,
        1.0
      ],
      "min": [
        0.46666666865348816,
        0.19607843458652496,
        0.10588235408067703,
        1.0
      ],
      "type": "VEC4"
    },
    {
      "bufferView": 2,
      "componentType": 5126,
      "count": 749,
      "max": [
        0.8680896162986755,
        0.9980468153953552
      ],
      "min": [
        0.0019531268626451492,
        0.0019531020661816
      ],
      "type": "VEC2"
    },
    {
      "bufferView": 1,
      "componentType": 5125,
      "count": 4110,
      "type": "SCALAR"
    },
    {
      "bufferView": 3,
      "byteOffset": 17976,
      "componentType": 5126,
      "count": 3364,
      "max": [
        0.2164870798587799,
        0.5297899842262268,
        0.6860166192054749
      ],
      "min": [
        -0.2073679268360138,
        0.22540651261806488,
        0.3393497169017792
      ],
      "type": "VEC3"
    },
    {
      "bufferView": 3,
      "byteOffset": 58344,
      "componentType": 5126,
      "count": 3364,
      "max": [
        0.999994695186615,
        0.9995518326759338,
        0.9993790984153748
      ],
      "min": [
        -0.9991042017936707,
        -0.9992091059684753,
        -0.9994065761566162
      ],
      "type": "VEC3"
    },
    {
      "bufferView": 4,
      "byteOffset": 23968,
      "componentType": 5126,
      "count": 3364,
      "max": [
        0.6901960968971252,
        0.6078431606292725,
        0.5764706134796143,
        1.0
      ],
      "min": [
        0.6784313917160034,
        0.5882353186607361,
        0.5568627715110779,
        1.0
      ],
      "type": "VEC4"
    },
    {
      "bufferView": 1,
      "byteOffset": 16440,
      "componentType": 5125,
      "count": 19848,
      "type": "SCALAR"
    },
    {
      "bufferView": 3,
      "byteOffset": 98712,
      "componentType": 5126,
      "count": 478,
      "max": [
        0.22058376669883728,
        0.716945469379425,
        0.6295912861824036
      ],
      "min": [
        -0.22096866369247437,
        0.5435588359832764,
        0.4589962065219879
      ],
      "type": "VEC3"
    },
    {
      "bufferView": 3,
      "byteOffset": 104448,
      "componentType": 5126,
      "count": 478,
      "max": [
        0.9979650378227234,
        0.9890775680541992,
        0.9960653781890869
      ],
      "min": [
        -0.9978156089782715,
        -0.9977007508277893,
        -0.9918676614761353
      ],
      "type": "VEC3"
    },
    {
      "bufferView": 4,
      "byteOffset": 77792,
      "componentType": 5126,
      "count": 478,
      "max": [
        0.9865913391113281,
        0.9963637590408325,
        0.9936885833740234,
        1.0
      ],
      "min": [
        -0.999259352684021,
        -0.9908741116523743,
        -0.9908381104469299,
        1.0
      ],
      "type": "VEC4"
    },
    {
      "bufferView": 4,
      "byteOffset": 85440,
      "componentType": 5126,
      "count": 478,
      "max": [
        1.0,
        1.0,
        1.0,
        1.0
      ],
      "min": [
        0.0,
        0.0,
        0.0,
        1.0
      ],
      "type": "VEC4"
    },
    {
      "bufferView": 2,
      "byteOffset": 5992,
      "componentType": 5126,
      "count": 478,
      "max": [
        0.9980469346046448,
        0.6709737777709961
      ],
      "min": [
        0.0019531198777258396,
        0.00195313710719347
      ],
      "type": "VEC2"
    },
    {
      "bufferView": 1,
      "byteOffset": 95832,
      "componentType": 5125,
      "count": 2664,
      "type": "SCALAR"
    },
    {
      "bufferView": 3,
      "byteOffset": 110184,
      "componentType": 5126,
      "count": 6618,
      "max": [
        0.33563151955604553,
        1.2762832641601563,
        0.7640894651412964
      ],
      "min": [
        -0.32822534441947937,
        -0.027691364288330078,
        -1.0936086177825928
      ],
      "type": "VEC3"
    },
    {
      "bufferView": 3,
      "byteOffset": 189600,
      "componentType": 5126,
      "count": 6618,
      "max": [
        0.9997147917747498,
        0.9995264410972595,
        0.9979400634765625
      ],
      "min": [
        -0.9998453259468079,
        -0.999983012676239,
        -0.9994487762451172
      ],
      "type": "VEC3"
    },
    {
      "bufferView": 4,
      "byteOffset": 93088,
      "componentType": 5126,
      "count": 6618,
      "max": [
        0.9993216395378113,
        0.9980191588401794,
        0.9997490048408508,
        1.0
      ],
      "min": [
        -0.999360203742981,
        -0.9999393820762634,
        -0.9999173283576965,
        1.0
      ],
      "type": "VEC4"
    },
    {
      "bufferView": 2,
      "byteOffset": 9816,
      "componentType": 5126,
      "count": 6618,
      "max": [
        0.8381564021110535,
        0.9980468153953552
      ],
      "min": [
        0.0019531163852661848,
        0.0019531163852661848
      ],
      "type": "VEC2"
    },
    {
      "bufferView": 1,
      "byteOffset": 106488,
      "componentType": 5125,
      "count": 37116,
      "type": "SCALAR"
    },
    {
      "bufferView": 5,
      "componentType": 5126,
      "count": 27,
      "max": [
        138.39999389648438,
        129.99583435058594,
        133.88409423828125,
        0.0,
        75.52852630615234,
        138.20803833007813,
        133.56271362304688,
        0.0,
        136.2251434326172,
        138.0810546875,
        138.20803833007813,
        0.0,
        75.80232238769531,
        78.30224609375,
        86.32613372802734,
        1.0
      ],
      "min": [
        -138.39437866210938,
        -130.67947387695313,
        -100.88616943359375,
        0.0,
        -134.5262908935547,
        -138.1734619140625,
        -136.1893310546875,
        0.0,
        -136.32684326171875,
        -137.7578125,
        -50.00361633300781,
        0.0,
        -47.03268051147461,
        -130.91860961914063,
        -79.67953491210938,
        1.0
      ],
      "type": "MAT4"
    },
    {
      "bufferView": 0,
      "componentType": 5123,
      "count": 749,
      "type": "VEC4"
    },
    {
      "bufferView": 4,
      "byteOffset": 198976,
      "componentType": 5126,
      "count": 749,
      "max": [
        1.0,
        0.0,
        0.0,
        0.0
      ],
      "min": [
        1.0,
        0.0,
        0.0,
        0.0
      ],
      "type": "VEC4"
    },
    {
      "bufferView": 0,
      "byteOffset": 5992,
      "componentType": 5123,
      "count": 3364,
      "type": "VEC4"
    },
    {
      "bufferView": 4,
      "byteOffset": 210960,
      "componentType": 5126,
      "count": 3364,
      "max": [
        1.0,
        0.19167163968086243,
        0.0,
        0.0
      ],
      "min": [
        0.8083283305168152,
        0.0,
        0.0,
        0.0
      ],
      "type": "VEC4"
    },
    {
      "bufferView": 0,
      "byteOffset": 32904,
      "componentType": 5123,
      "count": 478,
      "type": "VEC4"
    },
    {
      "bufferView": 4,
      "byteOffset": 264784,
      "componentType": 5126,
      "count": 478,
      "max": [
        1.0,
        0.0,
        0.0,
        0.0
      ],
      "min": [
        1.0,
        0.0,
        0.0,
        0.0
      ],
      "type": "VEC4"
    },
    {
      "bufferView": 0,
      "byteOffset": 36728,
      "componentType": 5123,
      "count": 6618,
      "type": "VEC4"
    },
    {
      "bufferView": 4,
      "byteOffset": 272432,
      "componentType": 5126,
      "count": 6618,
      "max": [
        1.0,
        0.49975714087486267,
        0.32536011934280396,
        0.2452508807182312
      ],
      "min": [
        0.254897803068161,
        0.0,
        0.0,
        0.0
      ],
      "type": "VEC4"
    },
    {
      "bufferView": 6,
      "componentType": 5126,
      "count": 41,
      "max": [
        0.800000011920929
      ],
      "min": [
        0.0
      ],
      "type": "SCALAR"
    },
    {
      "bufferView": 8,
      "componentType": 5126,
      "count": 41,
      "max": [
        0.06737399846315384,
        0.007488023489713669,
        -0.011119087226688862,
        0.9999163150787354
      ],
      "min": [
        -0.06778410822153091,
        0.00548522500321269,
        -0.011183446273207664,
        0.9976099729537964
      ],
      "type": "VEC4"
    },
    {
      "bufferView": 6,
      "byteOffset": 164,
      "componentType": 5126,
      "count": 37,
      "max": [
        0.800000011920929
      ],
      "min": [
        0.0
      ],
      "type": "SCALAR"
    },
    {
      "bufferView": 7,
      "componentType": 5126,
      "count": 37,
      "max": [
        2.9802322387695313e-06,
        51.948150634765625,
        3.552713678800501e-15
      ],
      "min": [
        2.9802322387695313e-06,
        51.948150634765625,
        -3.552713678800501e-15
      ],
      "type": "VEC3"
    },
    {
      "bufferView": 6,
      "byteOffset": 312,
      "componentType": 5126,
      "count": 41,
      "max": [
        0.800000011920929
      ],
      "min": [
        0.0
      ],
      "type": "SCALAR"
    },
    {
      "bufferView": 8,
      "byteOffset": 656,
      "componentType": 5126,
      "count": 41,
      "max": [
        0.0708792582154274,
        0.6092236638069153,
        -0.05869593098759651,
        0.7912643551826477
      ],
      "min": [
        0.022843658924102783,
        0.6035637259483337,
        -0.09648613631725311,
        0.7882749438285828
      ],
      "type": "VEC4"
    },
    {
      "bufferView": 6,
      "byteOffset": 476,
      "componentType": 5126,
      "count": 36,
      "max": [
        0.800000011920929
      ],
      "min": [
        0.0
      ],
      "type": "SCALAR"
    },
    {
      "bufferView": 7,
      "byteOffset": 444,
      "componentType": 5126,
      "count": 36,
      "max": [
        1.1102230246251565e-16,
        50.213802337646484,
        -2.1657906472682953e-06
      ],
      "min": [
        -2.220446049250313e-16,
        50.213802337646484,
        -2.1657906472682953e-06
      ],
      "type": "VEC3"
    },
    {
      "bufferView": 6,
      "byteOffset": 620,
      "componentType": 5126,
      "count": 41,
      "max": [
        0.800000011920929
      ],
      "min": [
        0.0
      ],
      "type": "SCALAR"
    },
    {
      "bufferView": 8,
      "byteOffset": 1312,
      "componentType": 5126,
      "count": 41,
      "max": [
        0.2669062614440918,
        0.7715641856193542,
        0.2603513300418854,
        0.5995481014251709
      ],
      "min": [
        0.1641571968793869,
        0.7198119163513184,
        0.13521528244018555,
        0.5855331420898438
      ],
      "type": "VEC4"
    },
    {
      "bufferView": 6,
      "byteOffset": 784,
      "componentType": 5126,
      "count": 5,
      "max": [
        0.800000011920929
      ],
      "min": [
        0.0
      ],
      "type": "SCALAR"
    },
    {
      "bufferView": 7,
      "byteOffset": 876,
      "componentType": 5126,
      "count": 5,
      "max": [
        -1.3113021850585938e-06,
        27.428016662597656,
        -3.576278402306343e-07
      ],
      "min": [
        -1.3113021850585938e-06,
        27.428016662597656,
        -3.5762786865234375e-07
      ],
      "type": "VEC3"
    },
    {
      "bufferView": 6,
      "byteOffset": 804,
      "componentType": 5126,
      "count": 41,
      "max": [
        0.800000011920929
      ],
      "min": [
        0.0
      ],
      "type": "SCALAR"
    },
    {
      "bufferView": 8,
      "byteOffset": 1968,
      "componentType": 5126,
      "count": 41,
      "max": [
        0.5430604219436646,
        0.029533740133047104,
        -0.0517253577709198,
        0.9308856725692749
      ],
      "min": [
        0.32602933049201965,
        -0.014909893274307251,
        -0.16500087082386017,
        0.8290472626686096
      ],
      "type": "VEC4"
    },
    {
      "bufferView": 6,
      "byteOffset": 968,
      "componentType": 5126,
      "count": 8,
      "max": [
        0.800000011920929
      ],
      "min": [
        0.0
      ],
      "type": "SCALAR"
    },
    {
      "bufferView": 7,
      "byteOffset": 936,
      "componentType": 5126,
      "count": 8,
      "max": [
        1.1920928955078125e-07,
        27.01841926574707,
        4.76837158203125e-07
      ],
      "min": [
        1.1920928244535389e-07,
        27.01841926574707,
        4.76837158203125e-07
      ],
      "type": "VEC3"
    },
    {
      "bufferView": 6,
      "byteOffset": 1000,
      "componentType": 5126,
      "count": 41,
      "max": [
        0.800000011920929
      ],
      "min": [
        0.0
      ],
      "type": "SCALAR"
    },
    {
      "bufferView": 8,
      "byteOffset": 2624,
      "componentType": 5126,
      "count": 41,
      "max": [
        0.5603175759315491,
        0.15948376059532166,
        0.023792197927832603,
        0.9462670683860779
      ],
      "min": [
        0.2803168296813965,
        0.13398368656635284,
        0.0062856972217559814,
        0.817344605922699
      ],
      "type": "VEC4"
    },
    {
      "bufferView": 6,
      "byteOffset": 1164,
      "componentType": 5126,
      "count": 28,
      "max": [
        0.7599999904632568
      ],
      "min": [
        0.20000000298023224
      ],
      "type": "SCALAR"
    },
    {
      "bufferView": 8,
      "byteOffset": 3280,
      "componentType": 5126,
      "count": 28,
      "max": [
        0.8324570655822754,
        0.07537055015563965,
        0.22638142108917236,
        0.6935495138168335
      ],
      "min": [
        -0.8261600136756897,
        -0.07454423606395721,
        -0.2272127866744995,
        -0.49970874190330505
      ],
      "type": "VEC4"
    },
    {
      "bufferView": 6,
      "byteOffset": 1276,
      "componentType": 5126,
      "count": 41,
      "max": [
        0.800000011920929
      ],
      "min": [
        0.0
      ],
      "type": "SCALAR"
    },
    {
      "bufferView": 8,
      "byteOffset": 3728,
      "componentType": 5126,
      "count": 41,
      "max": [
        0.6702222228050232,
        0.488491952419281,
        0.22763589024543762,
        0.7378362417221069
      ],
      "min": [
        0.5180829167366028,
        0.36792615056037903,
        0.08241021633148193,
        0.5526177287101746
      ],
      "type": "VEC4"
    },
    {
      "bufferView": 6,
      "byteOffset": 1440,
      "componentType": 5126,
      "count": 36,
      "max": [
        0.800000011920929
      ],
      "min": [
        0.0
      ],
      "type": "SCALAR"
    },
    {
      "bufferView": 7,
      "byteOffset": 1032,
      "componentType": 5126,
      "count": 36,
      "max": [
        1.1102230246251565e-16,
        50.213802337646484,
        -2.1657906472682953e-06
      ],
      "min": [
        -2.220446049250313e-16,
        50.213802337646484,
        -2.1657906472682953e-06
      ],
      "type": "VEC3"
    },
    {
      "bufferView": 6,
      "byteOffset": 1584,
      "componentType": 5126,
      "count": 41,
      "max": [
        0.800000011920929
      ],
      "min": [
        0.0
      ],
      "type": "SCALAR"
    },
    {
      "bufferView": 8,
      "byteOffset": 4384,
      "componentType": 5126,
      "count": 41,
      "max": [
        -0.46368879079818726,
        0.8445934057235718,
        0.2696547210216522,
        0.27520817518234253
      ],
      "min": [
        -0.5378795862197876,
        0.7615299224853516,
        -0.36364132165908813,
        -0.11983445286750793
      ],
      "type": "VEC4"
    },
    {
      "bufferView": 6,
      "byteOffset": 1748,
      "componentType": 5126,
      "count": 41,
      "max": [
        0.800000011920929
      ],
      "min": [
        0.0
      ],
      "type": "SCALAR"
    },
    {
      "bufferView": 8,
      "byteOffset": 5040,
      "componentType": 5126,
      "count": 41,
      "max": [
        0.6845157742500305,
        -0.2308874875307083,
        -0.0715361088514328,
        0.8467384576797485
      ],
      "min": [
        0.45656925439834595,
        -0.26355472207069397,
        -0.10969378799200058,
        0.6827125549316406
      ],
      "type": "VEC4"
    },
    {
      "bufferView": 6,
      "byteOffset": 1912,
      "componentType": 5126,
      "count": 36,
      "max": [
        0.800000011920929
      ],
      "min": [
        0.0
      ],
      "type": "SCALAR"
    },
    {
      "bufferView": 7,
      "byteOffset": 1464,
      "componentType": 5126,
      "count": 36,
      "max": [
        9.5367431640625e-07,
        28.669940948486328,
        1.4210854715202004e-14
      ],
      "min": [
        9.5367431640625e-07,
        28.669940948486328,
        -1.4210854715202004e-14
      ],
      "type": "VEC3"
    },
    {
      "bufferView": 6,
      "byteOffset": 2056,
      "componentType": 5126,
      "count": 41,
      "max": [
        0.800000011920929
      ],
      "min": [
        0.0
      ],
      "type": "SCALAR"
    },
    {
      "bufferView": 8,
      "byteOffset": 5696,
      "componentType": 5126,
      "count": 41,
      "max": [
        0.4218837320804596,
        0.186891108751297,
        0.06324460357427597,
        0.9384326338768005
      ],
      "min": [
        0.2835771441459656,
        0.18241257965564728,
        0.04804735630750656,
        0.8867930173873901
      ],
      "type": "VEC4"
    },
    {
      "bufferView": 6,
      "byteOffset": 2220,
      "componentType": 5126,
      "count": 41,
      "max": [
        0.800000011920929
      ],
      "min": [
        0.0
      ],
      "type": "SCALAR"
    },
    {
      "bufferView": 8,
      "byteOffset": 6352,
      "componentType": 5126,
      "count": 41,
      "max": [
        -0.5498518943786621,
        -0.18046967685222626,
        -0.4150416851043701,
        0.6759687662124634
      ],
      "min": [
        -0.6607701182365417,
        -0.2539230287075043,
        -0.4198240637779236,
        0.5987937450408936
      ],
      "type": "VEC4"
    },
    {
      "bufferView": 6,
      "byteOffset": 2384,
      "componentType": 5126,
      "count": 38,
      "max": [
        0.800000011920929
      ],
      "min": [
        0.03999999910593033
      ],
      "type": "SCALAR"
    },
    {
      "bufferView": 8,
      "byteOffset": 7008,
      "componentType": 5126,
      "count": 38,
      "max": [
        0.5104581713676453,
        -0.24619416892528534,
        0.22729578614234924,
        0.8860448598861694
      ],
      "min": [
        0.3898884356021881,
        -0.5341593027114868,
        -0.04795796051621437,
        0.6343839168548584
      ],
      "type": "VEC4"
    },
    {
      "bufferView": 6,
      "byteOffset": 2536,
      "componentType": 5126,
      "count": 36,
      "max": [
        0.800000011920929
      ],
      "min": [
        0.0
      ],
      "type": "SCALAR"
    },
    {
      "bufferView": 7,
      "byteOffset": 1896,
      "componentType": 5126,
      "count": 36,
      "max": [
        1.1102230246251565e-16,
        50.213802337646484,
        -2.1657906472682953e-06
      ],
      "min": [
        -2.220446049250313e-16,
        50.213802337646484,
        -2.1657906472682953e-06
      ],
      "type": "VEC3"
    },
    {
      "bufferView": 6,
      "byteOffset": 2680,
      "componentType": 5126,
      "count": 41,
      "max": [
        0.800000011920929
      ],
      "min": [
        0.0
      ],
      "type": "SCALAR"
    },
    {
      "bufferView": 8,
      "byteOffset": 7616,
      "componentType": 5126,
      "count": 41,
      "max": [
        0.6002649664878845,
        0.7940378785133362,
        0.17723709344863892,
        -0.09415356814861298
      ],
      "min": [
        0.5443845987319946,
        0.7742581963539124,
        -0.059245720505714417,
        -0.2697344422340393
      ],
      "type": "VEC4"
    },
    {
      "bufferView": 6,
      "byteOffset": 2844,
      "componentType": 5126,
      "count": 41,
      "max": [
        0.800000011920929
      ],
      "min": [
        0.0
      ],
      "type": "SCALAR"
    },
    {
      "bufferView": 8,
      "byteOffset": 8272,
      "componentType": 5126,
      "count": 41,
      "max": [
        -0.7531880140304565,
        -0.0006846094038337469,
        -0.003956756088882685,
        0.6577922701835632
      ],
      "min": [
        -0.8340619802474976,
        -0.001221472048200667,
        -0.004083638545125723,
        0.5516552329063416
      ],
      "type": "VEC4"
    },
    {
      "bufferView": 6,
      "byteOffset": 3008,
      "componentType": 5126,
      "count": 41,
      "max": [
        0.800000011920929
      ],
      "min": [
        0.0
      ],
      "type": "SCALAR"
    },
    {
      "bufferView": 8,
      "byteOffset": 8928,
      "componentType": 5126,
      "count": 41,
      "max": [
        -0.17379671335220337,
        0.7925606369972229,
        0.5660789608955383,
        -0.39123961329460144
      ],
      "min": [
        -0.220368891954422,
        0.6913203001022339,
        0.3787895143032074,
        -0.4451525807380676
      ],
      "type": "VEC4"
    },
    {
      "bufferView": 6,
      "byteOffset": 3172,
      "componentType": 5126,
      "count": 41,
      "max": [
        0.800000011920929
      ],
      "min": [
        0.0
      ],
      "type": "SCALAR"
    },
    {
      "bufferView": 8,
      "byteOffset": 9584,
      "componentType": 5126,
      "count": 41,
      "max": [
        0.16660131514072418,
        0.8182520270347595,
        0.8082564473152161,
        0.012065871618688107
      ],
      "min": [
        0.0742940679192543,
        0.5646926164627075,
        0.5699834227561951,
        0.007142301183193922
      ],
      "type": "VEC4"
    },
    {
      "bufferView": 6,
      "byteOffset": 3336,
      "componentType": 5126,
      "count": 41,
      "max": [
        0.800000011920929
      ],
      "min": [
        0.0
      ],
      "type": "SCALAR"
    },
    {
      "bufferView": 8,
      "byteOffset": 10240,
      "componentType": 5126,
      "count": 41,
      "max": [
        0.5360440015792847,
        -0.02998979762196541,
        -0.0534539557993412,
        0.9425292015075684
      ],
      "min": [
        0.3264825940132141,
        -0.04680270701646805,
        -0.0747622400522232,
        0.8403380513191223
      ],
      "type": "VEC4"
    },
    {
      "bufferView": 6,
      "byteOffset": 3500,
      "componentType": 5126,
      "count": 38,
      "max": [
        0.800000011920929
      ],
      "min": [
        0.0
      ],
      "type": "SCALAR"
    },
    {
      "bufferView": 7,
      "byteOffset": 2328,
      "componentType": 5126,
      "count": 38,
      "max": [
        7.105427357601002e-15,
        32.03815841674805,
        7.3909759521484375e-06
      ],
      "min": [
        -3.552713678800501e-15,
        32.03815841674805,
        7.3909759521484375e-06
      ],
      "type": "VEC3"
    },
    {
      "bufferView": 6,
      "byteOffset": 3652,
      "componentType": 5126,
      "count": 41,
      "max": [
        0.800000011920929
      ],
      "min": [
        0.0
      ],
      "type": "SCALAR"
    },
    {
      "bufferView": 8,
      "byteOffset": 10896,
      "componentType": 5126,
      "count": 41,
      "max": [
        0.488475501537323,
        -0.12002256512641907,
        -0.1413491815328598,
        0.9620969891548157
      ],
      "min": [
        0.16477297246456146,
        -0.16504451632499695,
        -0.21578927338123322,
        0.8369117379188538
      ],
      "type": "VEC4"
    },
    {
      "bufferView": 6,
      "byteOffset": 3816,
      "componentType": 5126,
      "count": 41,
      "max": [
        0.800000011920929
      ],
      "min": [
        0.0
      ],
      "type": "SCALAR"
    },
    {
      "bufferView": 8,
      "byteOffset": 11552,
      "componentType": 5126,
      "count": 41,
      "max": [
        0.34986886382102966,
        0.23674547672271729,
        -0.07251763343811035,
        0.9480510354042053
      ],
      "min": [
        0.20013341307640076,
        0.21883337199687958,
        -0.12400664389133453,
        0.9024001955986023
      ],
      "type": "VEC4"
    },
    {
      "bufferView": 6,
      "byteOffset": 3980,
      "componentType": 5126,
      "count": 41,
      "max": [
        0.800000011920929
      ],
      "min": [
        0.0
      ],
      "type": "SCALAR"
    },
    {
      "bufferView": 8,
      "byteOffset": 12208,
      "componentType": 5126,
      "count": 41,
      "max": [
        -0.10037247836589813,
        0.7777305245399475,
        0.6327142119407654,
        -0.2958691120147705
      ],
      "min": [
        -0.2670523226261139,
        0.6430221199989319,
        0.4860861897468567,
        -0.4196672737598419
      ],
      "type": "VEC4"
    },
    {
      "bufferView": 6,
      "byteOffset": 4144,
      "componentType": 5126,
      "count": 41,
      "max": [
        0.800000011920929
      ],
      "min": [
        0.0
      ],
      "type": "SCALAR"
    },
    {
      "bufferView": 8,
      "byteOffset": 12864,
      "componentType": 5126,
      "count": 41,
      "max": [
        0.6634827256202698,
        0.4223181903362274,
        -0.4877907633781433,
        0.534119188785553
      ],
      "min": [
        0.5462819933891296,
        0.2854084372520447,
        -0.5786490440368652,
        0.3788115978240967
      ],
      "type": "VEC4"
    },
    {
      "bufferView": 6,
      "byteOffset": 4308,
      "componentType": 5126,
      "count": 41,
      "max": [
        0.800000011920929
      ],
      "min": [
        0.0
      ],
      "type": "SCALAR"
    },
    {
      "bufferView": 8,
      "byteOffset": 13520,
      "componentType": 5126,
      "count": 41,
      "max": [
        0.5676451921463013,
        -0.14234496653079987,
        0.007424887269735336,
        0.9462499022483826
      ],
      "min": [
        0.28539031744003296,
        -0.1462576538324356,
        -0.04385632276535034,
        0.8108401298522949
      ],
      "type": "VEC4"
    },
    {
      "bufferView": 6,
      "byteOffset": 4472,
      "componentType": 5126,
      "count": 41,
      "max": [
        0.800000011920929
      ],
      "min": [
        0.0
      ],
      "type": "SCALAR"
    },
    {
      "bufferView": 8,
      "byteOffset": 14176,
      "componentType": 5126,
      "count": 41,
      "max": [
        0.27403634786605835,
        0.12134215235710144,
        0.10917515307664871,
        0.9902468919754028
      ],
      "min": [
        -0.008305924013257027,
        0.0962265208363533,
        0.0682060495018959,
        0.9506446719169617
      ],
      "type": "VEC4"
    },
    {
      "bufferView": 6,
      "byteOffset": 4636,
      "componentType": 5126,
      "count": 41,
      "max": [
        0.800000011920929
      ],
      "min": [
        0.0
      ],
      "type": "SCALAR"
    },
    {
      "bufferView": 8,
      "byteOffset": 14832,
      "componentType": 5126,
      "count": 41,
      "max": [
        0.49860578775405884,
        0.6923332810401917,
        0.6215760111808777,
        0.6371850371360779
      ],
      "min": [
        0.16824989020824432,
        0.4234743118286133,
        0.29711484909057617,
        0.4287070035934448
      ],
      "type": "VEC4"
    },
    {
      "bufferView": 6,
      "byteOffset": 4800,
      "componentType": 5126,
      "count": 32,
      "max": [
        0.800000011920929
      ],
      "min": [
        0.1599999964237213
      ],
      "type": "SCALAR"
    },
    {
      "bufferView": 8,
      "byteOffset": 15488,
      "componentType": 5126,
      "count": 32,
      "max": [
        0.6194977164268494,
        -0.39835765957832336,
        0.5369990468025208,
        0.4260789752006531
      ],
      "min": [
        0.6093675494194031,
        -0.41483017802238464,
        0.5262284278869629,
        0.408847838640213
      ],
      "type": "VEC4"
    }
  ],
  "animations": [
    {
      "channels": [
        {
          "sampler": 0,
          "target": {
            "node": 11,
            "path": "rotation"
          }
        },
        {
          "sampler": 1,
          "target": {
            "node": 10,
            "path": "translation"
          }
        },
        {
          "sampler": 2,
          "target": {
            "node": 10,
            "path": "rotation"
          }
        },
        {
          "sampler": 3,
          "target": {
            "node": 9,
            "path": "translation"
          }
        },
        {
          "sampler": 4,
          "target": {
            "node": 9,
            "path": "rotation"
          }
        },
        {
          "sampler": 5,
          "target": {
            "node": 16,
            "path": "translation"
          }
        },
        {
          "sampler": 6,
          "target": {
            "node": 16,
            "path": "rotation"
          }
        },
        {
          "sampler": 7,
          "target": {
            "node": 15,
            "path": "translation"
          }
        },
        {
          "sampler": 8,
          "target": {
            "node": 15,
            "path": "rotation"
          }
        },
        {
          "sampler": 9,
          "target": {
            "node": 14,
            "path": "rotation"
          }
        },
        {
          "sampler": 10,
          "target": {
            "node": 13,
            "path": "rotation"
          }
        },
        {
          "sampler": 11,
          "target": {
            "node": 12,
            "path": "translation"
          }
        },
        {
          "sampler": 12,
          "target": {
            "node": 12,
            "path": "rotation"
          }
        },
        {
          "sampler": 13,
          "target": {
            "node": 21,
            "path": "rotation"
          }
        },
        {
          "sampler": 14,
          "target": {
            "node": 20,
            "path": "translation"
          }
        },
        {
          "sampler": 15,
          "target": {
            "node": 20,
            "path": "rotation"
          }
        },
        {
          "sampler": 16,
          "target": {
            "node": 19,
            "path": "rotation"
          }
        },
        {
          "sampler": 17,
          "target": {
            "node": 18,
            "path": "rotation"
          }
        },
        {
          "sampler": 18,
          "target": {
            "node": 17,
            "path": "translation"
          }
        },
        {
          "sampler": 19,
          "target": {
            "node": 17,
            "path": "rotation"
          }
        },
        {
          "sampler": 20,
          "target": {
            "node": 8,
            "path": "rotation"
          }
        },
        {
          "sampler": 21,
          "target": {
            "node": 23,
            "path": "rotation"
          }
        },
        {
          "sampler": 22,
          "target": {
            "node": 24,
            "path": "rotation"
          }
        },
        {
          "sampler": 23,
          "target": {
            "node": 22,
            "path": "rotation"
          }
        },
        {
          "sampler": 24,
          "target": {
            "node": 28,
            "path": "translation"
          }
        },
        {
          "sampler": 25,
          "target": {
            "node": 28,
            "path": "rotation"
          }
        },
        {
          "sampler": 26,
          "target": {
            "node": 27,
            "path": "rotation"
          }
        },
        {
          "sampler": 27,
          "target": {
            "node": 26,
            "path": "rotation"
          }
        },
        {
          "sampler": 28,
          "target": {
            "node": 25,
            "path": "rotation"
          }
        },
        {
          "sampler": 29,
          "target": {
            "node": 32,
            "path": "rotation"
          }
        },
        {
          "sampler": 30,
          "target": {
            "node": 31,
            "path": "rotation"
          }
        },
        {
          "sampler": 31,
          "target": {
            "node": 30,
            "path": "rotation"
          }
        },
        {
          "sampler": 32,
          "target": {
            "node": 29,
            "path": "rotation"
          }
        }
      ],
      "name": "Scene",
      "samplers": [
        {
          "input": 30,
          "interpolation": "LINEAR",
          "output": 31
        },
        {
          "input": 32,
          "interpolation": "LINEAR",
          "output": 33
        },
        {
          "input": 34,
          "interpolation": "LINEAR",
          "output": 35
        },
        {
          "input": 36,
          "interpolation": "LINEAR",
          "output": 37
        },
        {
          "input": 38,
          "interpolation": "LINEAR",
          "output": 39
        },
        {
          "input": 40,
          "interpolation": "LINEAR",
          "output": 41
        },
        {
          "input": 42,
          "interpolation": "LINEAR",
          "output": 43
        },
        {
          "input": 44,
          "interpolation": "LINEAR",
          "output": 45
        },
        {
          "input": 46,
          "interpolation": "LINEAR",
          "output": 47
        },
        {
          "input": 48,
          "interpolation": "LINEAR",
          "output": 49
        },
        {
          "input": 50,
          "interpolation": "LINEAR",
          "output": 51
        },
        {
          "input": 52,
          "interpolation": "LINEAR",
          "output": 53
        },
        {
          "input": 54,
          "interpolation": "LINEAR",
          "output": 55
        },
        {
          "input": 56,
          "interpolation": "LINEAR",
          "output": 57
        },
        {
          "input": 58,
          "interpolation": "LINEAR",
          "output": 59
        },
        {
          "input": 60,
          "interpolation": "LINEAR",
          "output": 61
        },
        {
          "input": 62,
          "interpolation": "LINEAR",
          "output": 63
        },
        {
          "input": 64,
          "interpolation": "LINEAR",
          "output": 65
        },
        {
          "input": 66,
          "interpolation": "LINEAR",
          "output": 67
        },
        {
          "input": 68,
          "interpolation": "LINEAR",
          "output": 69
        },
        {
          "input": 70,
          "interpolation": "LINEAR",
          "output": 71
        },
        {
          "input": 72,
          "interpolation": "LINEAR",
          "output": 73
        },
        {
          "input": 74,
          "interpolation": "LINEAR",
          "output": 75
        },
        {
          "input": 76,
          "interpolation": "LINEAR",
          "output": 77
        },
        {
          "input": 78,
          "interpolation": "LINEAR",
          "output": 79
        },
        {
          "input": 80,
          "interpolation": "LINEAR",
          "output": 81
        },
        {
          "input": 82,
          "interpolation": "LINEAR",
          "output": 83
        },
        {
          "input": 84,
          "interpolation": "LINEAR",
          "output": 85
        },
        {
          "input": 86,
          "interpolation": "LINEAR",
          "output": 87
        },
        {
          "input": 88,
          "interpolation": "LINEAR",
          "output": 89
        },
        {
          "input": 90,
          "interpolation": "LINEAR",
          "output": 91
        },
        {
          "input": 92,
          "interpolation": "LINEAR",
          "output": 93
        },
        {
          "input": 94,
          "interpolation": "LINEAR",
          "output": 95
        }
      ]
    }
  ],
  "asset": {
    "extras": {
      "author": "Terricks (https://sketchfab.com/talgat.shalabayev)",
      "license": "CC-BY-4.0 (http://creativecommons.org/licenses/by/4.0/)",
      "source": "https://sketchfab.com/3d-models/baby-dragon-53e2fef6b64847c8ac52cd0fbd477cd0",
      "title": "Baby Dragon"
    },
    "generator": "Sketchfab-13.31.0",
    "version": "2.0"
  },
  "bufferViews": [
    {
      "buffer": 0,
      "byteLength": 89672,
      "byteStride": 8,
      "name": "shortBufferViews",
      "target": 34962
    },
    {
      "buffer": 0,
      "byteLength": 254952,
      "byteOffset": 89672,
      "name": "floatBufferViews",
      "target": 34963
    },
    {
      "buffer": 0,
      "byteLength": 62760,
      "byteOffset": 344624,
      "byteStride": 8,
      "name": "floatBufferViews",
      "target": 34962
    },
    {
      "buffer": 0,
      "byteLength": 269016,
      "byteOffset": 407384,
      "byteStride": 12,
      "name": "floatBufferViews",
      "target": 34962
    },
    {
      "buffer": 0,
      "byteLength": 378320,
      "byteOffset": 676400,
      "byteStride": 16,
      "name": "floatBufferViews",
      "target": 34962
    },
    {
      "buffer": 0,
      "byteLength": 1728,
      "byteOffset": 1054720,
      "name": "floatBufferViews"
    },
    {
      "buffer": 0,
      "byteLength": 4928,
      "byteOffset": 1056448,
      "name": "floatBufferViews"
    },
    {
      "buffer": 0,
      "byteLength": 2784,
      "byteOffset": 1061376,
      "byteStride": 12,
      "name": "floatBufferViews"
    },
    {
      "buffer": 0,
      "byteLength": 16000,
      "byteOffset": 1064160,
      "byteStride": 16,
      "name": "floatBufferViews"
    }
  ],
  "buffers": [
    {
      "byteLength": 1080160,
      "uri": "scene.bin"
    }
  ],
  "images": [
    {
      "uri": "textures/Wings0_baseColor.png"
    },
    {
      "uri": "textures/Wings0_normal.png"
    },
    {
      "uri": "textures/Eyes1_baseColor.png"
    },
    {
      "uri": "textures/Eyes1_normal.png"
    },
    {
      "uri": "textures/BabyDragon_230_baseColor.png"
    },
    {
      "uri": "textures/BabyDragon_230_normal.png"
    }
  ],
  "materials": [
    {
      "doubleSided": true,
      "name": "Wings0",
      "normalTexture": {
        "index": 1
      },
      "pbrMetallicRoughness": {
        "baseColorTexture": {
          "index": 0
        },
        "metallicFactor": 0.0,
        "roughnessFactor": 0.3774242517
      }
    },
    {
      "doubleSided": true,
      "name": "Teeth1",
      "pbrMetallicRoughness": {
        "metallicFactor": 0.0
      }
    },
    {
      "doubleSided": true,
      "name": "Eyes1",
      "normalTexture": {
        "index": 3
      },
      "pbrMetallicRoughness": {
        "baseColorTexture": {
          "index": 2
        },
        "metallicFactor": 0.0,
        "roughnessFactor": 0.004393930099999999
      }
    },
    {
      "doubleSided": true,
      "name": "BabyDragon_230",
      "normalTexture": {
        "index": 5
      },
      "pbrMetallicRoughness": {
        "baseColorTexture": {
          "index": 4
        },
        "metallicFactor": 0.0,
        "roughnessFactor": 0.42863635440000003
      }
    }
  ],
  "meshes": [
    {
      "name": "Wings_Wings0_0",
      "primitives": [
        {
          "attributes": {
            "COLOR_0": 3,
            "JOINTS_0": 22,
            "NORMAL": 1,
            "POSITION": 0,
            "TANGENT": 2,
            "TEXCOORD_0": 4,
            "TEXCOORD_1": 4,
            "WEIGHTS_0": 23
          },
          "indices": 5,
          "material": 0,
          "mode": 4
        }
      ]
    },
    {
      "name": "Teeth_Teeth1_0",
      "primitives": [
        {
          "attributes": {
            "COLOR_0": 8,
            "JOINTS_0": 24,
            "NORMAL": 7,
            "POSITION": 6,
            "WEIGHTS_0": 25
          },
          "indices": 9,
          "material": 1,
          "mode": 4
        }
      ]
    },
    {
      "name": "Eyes_Eyes1_0",
      "primitives": [
        {
          "attributes": {
            "COLOR_0": 13,
            "JOINTS_0": 26,
            "NORMAL": 11,
            "POSITION": 10,
            "TANGENT": 12,
            "TEXCOORD_0": 14,
            "TEXCOORD_1": 14,
            "WEIGHTS_0": 27
          },
          "indices": 15,
          "material": 2,
          "mode": 4
        }
      ]
    },
    {
      "name": "BabyDragon_BabyDragon_230_0",
      "primitives": [
        {
          "attributes": {
            "JOINTS_0": 28,
            "NORMAL": 17,
            "POSITION": 16,
            "TANGENT": 18,
            "TEXCOORD_0": 19,
            "TEXCOORD_1": 19,
            "WEIGHTS_0": 29
          },
          "indices": 20,
          "material": 3,
          "mode": 4
        }
      ]
    }
  ],
  "nodes": [
    {
      "children": [
        1
      ],
      "matrix": [
        1.0,
        0.0,
        0.0,
        0.0,
        0.0,
        2.220446049250313e-16,
        -1.0,
        0.0,
        0.0,
        1.0,
        2.220446049250313e-16,
        0.0,
        0.0,
        0.0,
        0.0,
        1.0
      ],
      "name": "Sketchfab_model"
    },
    {
      "children": [
        2
      ],
      "matrix": [
        1.0,
        0.0,
        0.0,
        0.0,
        0.0,
        0.0,
        1.0,
        0.0,
        0.0,
        -1.0,
        0.0,
        0.0,
        0.0,
        0.0,
        0.0,
        1.0
      ],
      "name": "36e3e064816c4837a44204cded56de3d.fbx"
    },
    {
      "children": [
        3
      ],
      "name": "Object_2"
    },
    {
      "children": [
        4,
        41,
        42,
        43,
        44
      ],
      "name": "RootNode"
    },
    {
      "children": [
        5
      ],
      "name": "Armature",
      "rotation": [
        -0.7071068286895752,
        0.0,
        0.0,
        0.7071067094802856
      ]
    },
    {
      "children": [
        6,
        34,
        36,
        38,
        40,
        33,
        35,
        37,
        39
      ],
      "name": "Object_5"
    },
    {
      "children": [
        7
      ],
      "name": "_rootJoint"
    },
    {
      "children": [
        8,
        22,
        25,
        29
      ],
      "name": "Root_00",
      "rotation": [
        0.6882403492927551,
        2.594528723420808e-06,
        2.565328713899362e-06,
        0.7254827618598938
      ],
      "translation": [
        -0.20766893029212952,
        26.418581008911133,
        129.70755004882813
      ]
    },
    {
      "children": [
        9,
        12,
        17
      ],
      "name": "Base_01",
      "rotation": [
        -0.8002592921257019,
        -0.0009875840041786432,
        -0.004021374974399805,
        0.5996398329734802
      ],
      "scale": [
        1.0,
        0.9999998211860657,
        0.9999997019767761
      ],
      "translation": [
        -0.48112359642982483,
        -43.336669921875,
        30.90675163269043
      ]
    },
    {
      "children": [
        10
      ],
      "name": "Bottom1_02",
      "rotation": [
        0.24821217358112335,
        0.7313395142555237,
        0.23537291586399078,
        0.5900278091430664
      ],
      "scale": [
        0.9999999403953552,
        0.9999995827674866,
        0.9999998211860657
      ],
      "translation": [
        0.0,
        50.213802337646484,
        -2.1657906472682953e-06
      ]
    },
    {
      "children": [
        11
      ],
      "name": "Tail1_03",
      "rotation": [
        0.03233661130070686,
        0.608264148235321,
        -0.06618452072143555,
        0.7903092503547668
      ],
      "scale": [
        1.0000003576278687,
        1.0,
        1.0000001192092896
      ],
      "translation": [
        2.9802322387695313e-06,
        51.948150634765625,
        1.7763568394002505e-15
      ]
    },
    {
      "name": "Tail2_04",
      "rotation": [
        -0.041167180985212326,
        0.007111141923815012,
        -0.01116023026406765,
        0.9990646243095398
      ],
      "scale": [
        0.9999997615814209,
        1.0,
        0.9999997019767761
      ],
      "translation": [
        9.5367431640625e-07,
        27.736143112182617,
        -6.854534149169922e-06
      ]
    },
    {
      "children": [
        13
      ],
      "name": "RightLeg1_05",
      "rotation": [
        -0.5275411605834961,
        0.7752094864845276,
        -0.3330543339252472,
        -0.0991235077381134
      ],
      "scale": [
        0.9999999403953552,
        0.9999998807907104,
        1.000000238418579
      ],
      "translation": [
        0.0,
        50.213802337646484,
        -2.1657906472682953e-06
      ]
    },
    {
      "children": [
        14
      ],
      "name": "RightLeg2_06",
      "rotation": [
        0.5873881578445435,
        0.42186036705970764,
        0.17006097733974457,
        0.6693939566612244
      ],
      "scale": [
        1.0000001192092896,
        0.9999998807907104,
        0.9999999403953552
      ],
      "translation": [
        -4.76837158203125e-06,
        30.575435638427734,
        9.5367431640625e-07
      ]
    },
    {
      "children": [
        15
      ],
      "name": "RightLeg3_07",
      "rotation": [
        -0.6869882345199585,
        -0.05872117727994919,
        0.20709550380706787,
        0.6940536499023438
      ],
      "scale": [
        0.9999998807907104,
        0.9999999403953552,
        1.0000001192092896
      ],
      "translation": [
        3.0994415283203125e-06,
        22.95744514465332,
        2.384185791015625e-06
      ]
    },
    {
      "children": [
        16
      ],
      "name": "RightLeg4_08",
      "rotation": [
        0.5299012064933777,
        0.13771499693393707,
        0.008439291268587112,
        0.8367604613304138
      ],
      "scale": [
        0.9999997615814209,
        0.9999999403953552,
        1.0000001192092896
      ],
      "translation": [
        1.1920928955078125e-07,
        27.01841926574707,
        4.76837158203125e-07
      ]
    },
    {
      "name": "RightLeg5_09",
      "rotation": [
        0.5174363851547241,
        0.018113987520337105,
        -0.10545048862695694,
        0.8490062952041626
      ],
      "scale": [
        1.0000001192092896,
        1.0,
        0.9999998807907104
      ],
      "translation": [
        -1.3113021850585938e-06,
        27.428016662597656,
        -3.5762786865234375e-07
      ]
    },
    {
      "children": [
        18
      ],
      "name": "LftLeg1_010",
      "rotation": [
        0.5502552390098572,
        0.7779474258422852,
        0.1602569967508316,
        -0.25755512714385986
      ],
      "scale": [
        1.0000001192092896,
        1.0000007152557373,
        1.0
      ],
      "translation": [
        0.0,
        50.213802337646484,
        -2.1657906472682953e-06
      ]
    },
    {
      "children": [
        19
      ],
      "name": "LftLeg2_011",
      "rotation": [
        0.4581559896469116,
        -0.4196428954601288,
        0.0779038593173027,
        0.7796949148178101
      ],
      "scale": [
        0.9999998211860657,
        0.9999995231628418,
        0.9999997019767761
      ],
      "translation": [
        3.814697265625e-06,
        28.47132682800293,
        -9.059906005859375e-06
      ]
    },
    {
      "children": [
        20
      ],
      "name": "LftLeg3_012",
      "rotation": [
        -0.6248000860214233,
        -0.20593684911727905,
        -0.4177742004394531,
        0.6266415119171143
      ],
      "scale": [
        0.9999997019767761,
        0.9999995231628418,
        0.999999463558197
      ],
      "translation": [
        -1.9073486328125e-06,
        19.527008056640625,
        9.5367431640625e-07
      ]
    },
    {
      "children": [
        21
      ],
      "name": "LftLeg4_013",
      "rotation": [
        0.33131885528564453,
        0.18583136796951294,
        0.058270927518606186,
        0.9232004284858704
      ],
      "scale": [
        0.9999996423721313,
        1.0000003576278687,
        1.0
      ],
      "translation": [
        9.5367431640625e-07,
        28.669940948486328,
        0.0
      ]
    },
    {
      "name": "LftLeg5_014",
      "rotation": [
        0.5388407111167908,
        -0.2548070251941681,
        -0.08526290953159332,
        0.7984073758125305
      ],
      "scale": [
        1.0000001192092896,
        0.999999463558197,
        0.9999997615814209
      ],
      "translation": [
        -4.291534423828125e-06,
        30.91412353515625,
        8.344650268554688e-06
      ]
    },
    {
      "children": [
        23,
        24
      ],
      "name": "Neck_015",
      "rotation": [
        0.36945950984954834,
        -0.043684158474206924,
        -0.0579267218708992,
        0.9264103174209595
      ],
      "scale": [
        1.0,
        1.0,
        0.9999999403953552
      ],
      "translation": [
        -0.4811237156391144,
        -43.336669921875,
        30.90676498413086
      ]
    },
    {
      "name": "Head_016",
      "rotation": [
        -0.21184827387332916,
        0.7141517996788025,
        0.5304896831512451,
        -0.40458399057388306
      ],
      "scale": [
        0.9999996423721313,
        0.9999999403953552,
        0.9999998807907104
      ],
      "translation": [
        -1.5497207641601563e-06,
        23.188753128051758,
        -5.364418029785156e-06
      ]
    },
    {
      "name": "Jaw_017",
      "rotation": [
        0.14979742467403412,
        0.6211151480674744,
        0.769187867641449,
        0.011268489994108677
      ],
      "scale": [
        0.9999997019767761,
        0.9999998807907104,
        0.9999998807907104
      ],
      "translation": [
        -1.5497207641601563e-06,
        23.188753128051758,
        -5.364418029785156e-06
      ]
    },
    {
      "children": [
        26
      ],
      "name": "LftHand1_018",
      "rotation": [
        0.5598715543746948,
        0.300232857465744,
        -0.5710980296134949,
        0.5198569893836975
      ],
      "scale": [
        0.9999999403953552,
        1.0,
        0.9999997615814209
      ],
      "translation": [
        -0.48112329840660095,
        -43.336669921875,
        30.906749725341797
      ]
    },
    {
      "children": [
        27
      ],
      "name": "LftHand2_019",
      "rotation": [
        -0.2198239415884018,
        0.7567083239555359,
        0.5185482501983643,
        -0.33193057775497437
      ],
      "scale": [
        1.0000001192092896,
        1.0,
        1.000000238418579
      ],
      "translation": [
        4.291534423828125e-06,
        30.736085891723633,
        -1.1920928955078125e-05
      ]
    },
    {
      "children": [
        28
      ],
      "name": "LftHand3_020",
      "rotation": [
        0.21703024208545685,
        0.2343142181634903,
        -0.07836004346609116,
        0.9443804621696472
      ],
      "scale": [
        1.0000001192092896,
        0.9999997615814209,
        0.9999998211860657
      ],
      "translation": [
        4.76837158203125e-07,
        43.90239715576172,
        6.67572021484375e-06
      ]
    },
    {
      "name": "LftHand4_021",
      "rotation": [
        0.21415184438228607,
        -0.15970560908317566,
        -0.15354607999324799,
        0.9513447880744934
      ],
      "scale": [
        0.9999999403953552,
        0.9999997019767761,
        0.9999994039535522
      ],
      "translation": [
        -3.552713678800501e-15,
        32.03815841674805,
        7.3909759521484375e-06
      ]
    },
    {
      "children": [
        30
      ],
      "name": "RightHand1_022",
      "rotation": [
        0.6084285974502563,
        -0.3999682366847992,
        0.5370104312896729,
        0.4259810745716095
      ],
      "scale": [
        0.9999997615814209,
        1.0000001192092896,
        0.9999998211860657
      ],
      "translation": [
        -0.48112645745277405,
        -43.33666229248047,
        30.90674591064453
      ]
    },
    {
      "children": [
        31
      ],
      "name": "RightHand2_023",
      "rotation": [
        0.45628800988197327,
        0.6624563932418823,
        0.3577713072299957,
        0.4742915630340576
      ],
      "scale": [
        1.0000003576278687,
        1.0000001192092896,
        1.0
      ],
      "translation": [
        3.5762786865234375e-07,
        28.354366302490234,
        6.3478946685791016e-06
      ]
    },
    {
      "children": [
        32
      ],
      "name": "RightHand3_024",
      "rotation": [
        0.23130515217781067,
        0.1006963923573494,
        0.10335955023765564,
        0.9621200561523438
      ],
      "scale": [
        0.9999995231628418,
        0.9999996423721313,
        0.9999997019767761
      ],
      "translation": [
        1.7285346984863281e-06,
        34.759098052978516,
        4.172325134277344e-06
      ]
    },
    {
      "name": "RightHand4_025",
      "rotation": [
        0.3385697603225708,
        -0.14620137214660645,
        -0.034924544394016266,
        0.9288573265075684
      ],
      "scale": [
        0.9999995827674866,
        0.999999463558197,
        0.9999998211860657
      ],
      "translation": [
        -5.245208740234375e-06,
        37.11418914794922,
        4.76837158203125e-07
      ]
    },
    {
      "matrix": [
        -138.39999390400658,
        1.737883541164001e-12,
        -2.089778449147262e-05,
        0.0,
        5.104025727048302e-12,
        138.39999093598598,
        -2.2292988204303746e-05,
        0.0,
        2.0897784044542875e-05,
        -2.2292988205615004e-05,
        -138.39999094412175,
        0.0,
        -7.0006528907207155e-09,
        73.64358128228716,
        4.770897952255382e-07,
        1.0
      ],
      "name": "Object_33"
    },
    {
      "mesh": 0,
      "name": "Object_34",
      "skin": 0
    },
    {
      "matrix": [
        -138.39999390400658,
        1.737883541164001e-12,
        -2.089778449147262e-05,
        0.0,
        5.104025727048302e-12,
        138.39999093598598,
        -2.2292988204303746e-05,
        0.0,
        2.0897784044542875e-05,
        -2.2292988205615004e-05,
        -138.39999094412175,
        0.0,
        -7.0006528907207155e-09,
        73.64358128228716,
        4.770897952255382e-07,
        1.0
      ],
      "name": "Object_35"
    },
    {
      "mesh": 1,
      "name": "Object_36",
      "skin": 0
    },
    {
      "matrix": [
        -138.39999390400658,
        1.737883541164001e-12,
        -2.089778449147262e-05,
        0.0,
        5.104025727048302e-12,
        138.39999093598598,
        -2.2292988204303746e-05,
        0.0,
        2.0897784044542875e-05,
        -2.2292988205615004e-05,
        -138.39999094412175,
        0.0,
        -7.0006528907207155e-09,
        73.64358128228716,
        4.770897952255382e-07,
        1.0
      ],
      "name": "Object_37"
    },
    {
      "mesh": 2,
      "name": "Object_38",
      "skin": 0
    },
    {
      "matrix": [
        -138.39999390400658,
        1.737883541164001e-12,
        -2.089778449147262e-05,
        0.0,
        5.104025727048302e-12,
        138.39999093598598,
        -2.2292988204303746e-05,
        0.0,
        2.0897784044542875e-05,
        -2.2292988205615004e-05,
        -138.39999094412175,
        0.0,
        -6.989039763594107e-09,
        73.64359662033445,
        1.5784088667203378e-06,
        1.0
      ],
      "name": "Object_39"
    },
    {
      "mesh": 3,
      "name": "Object_40",
      "skin": 0
    },
    {
      "name": "Wings",
      "rotation": [
        6.211316742654781e-15,
        1.0,
        -8.146033536604591e-08,
        7.549790126404332e-08
      ],
      "scale": [
        138.39999389648438,
        138.39999389648438,
        138.39999389648438
      ],
      "translation": [
        0.0,
        73.64358520507813,
        1.4210854715202004e-12
      ]
    },
    {
      "name": "Teeth",
      "rotation": [
        6.211316742654781e-15,
        1.0,
        -8.146033536604591e-08,
        7.549790126404332e-08
      ],
      "scale": [
        138.39999389648438,
        138.39999389648438,
        138.39999389648438
      ],
      "translation": [
        0.0,
        73.64358520507813,
        1.4210854715202004e-12
      ]
    },
    {
      "name": "Eyes",
      "rotation": [
        6.211316742654781e-15,
        1.0,
        -8.146033536604591e-08,
        7.549790126404332e-08
      ],
      "scale": [
        138.39999389648438,
        138.39999389648438,
        138.39999389648438
      ],
      "translation": [
        0.0,
        73.64358520507813,
        1.4210854715202004e-12
      ]
    },
    {
      "name": "BabyDragon",
      "rotation": [
        6.211316742654781e-15,
        1.0,
        -8.146033536604591e-08,
        7.549790126404332e-08
      ],
      "scale": [
        138.39999389648438,
        138.39999389648438,
        138.39999389648438
      ],
      "translation": [
        0.0,
        73.64360046386719,
        0.0
      ]
    }
  ],
  "samplers": [
    {
      "magFilter": 9729,
      "minFilter": 9987,
      "wrapS": 10497,
      "wrapT": 10497
    }
  ],
  "scene": 0,
  "scenes": [
    {
      "name": "Sketchfab_Scene",
      "nodes": [
        0
      ]
    }
  ],
  "skins": [
    {
      "inverseBindMatrices": 21,
      "joints": [
        6,
        7,
        8,
        9,
        10,
        11,
        12,
        13,
        14,
        15,
        16,
        17,
        18,
        19,
        20,
        21,
        22,
        23,
        24,
        25,
        26,
        27,
        28,
        29,
        30,
        31,
        32
      ],
      "skeleton": 6
    }
  ],
  "textures": [
    {
      "sampler": 0,
      "source": 0
    },
    {
      "sampler": 0,
      "source": 1
    },
    {
      "sampler": 0,
      "source": 2
    },
    {
      "sampler": 0,
      "source": 3
    },
    {
      "sampler": 0,
      "source": 4
    },
    {
      "sampler": 0,
      "source": 5
    }
  ]
}
