{
  "accessors": [
    {
      "bufferView": 2,
      "componentType": 5126,
      "count": 1055,
      "max": [
        2.1161694526672363,
        0.59554523229599,
        0.3300001919269562
      ],
      "min": [
        -2.1161694526672363,
        -0.5955451726913452,
        -0.3300001621246338
      ],
      "type": "VEC3"
    },
    {
      "bufferView": 2,
      "byteOffset": 12660,
      "componentType": 5126,
      "count": 1055,
      "max": [
        1.0,
        1.0,
        1.0
      ],
      "min": [
        -1.0,
        -1.0,
        -1.0
      ],
      "type": "VEC3"
    },
    {
      "bufferView": 1,
      "componentType": 5126,
      "count": 1055,
      "max": [
        0.9692056775093079,
        0.993411660194397
      ],
      "min": [
        0.011073529720306396,
        0.009765625
      ],
      "type": "VEC2"
    },
    {
      "bufferView": 0,
      "componentType": 5125,
      "count": 4128,
      "type": "SCALAR"
    },
    {
      "bufferView": 2,
      "byteOffset": 25320,
      "componentType": 5126,
      "count": 1047,
      "max": [
        2.13616943359375,
        0.611566960811615,
        0.35000020265579224
      ],
      "min": [
        -2.13616943359375,
        -0.6115668416023254,
        -0.35000017285346985
      ],
      "type": "VEC3"
    },
    {
      "bufferView": 2,
      "byteOffset": 37884,
      "componentType": 5126,
      "count": 1047,
      "max": [
        1.0,
        1.0,
        1.0
      ],
      "min": [
        -1.0,
        -1.0,
        -1.0
      ],
      "type": "VEC3"
    },
    {
      "bufferView": 1,
      "byteOffset": 8440,
      "componentType": 5126,
      "count": 1047,
      "max": [
        0.9692056775093079,
        0.993411660194397
      ],
      "min": [
        0.011073529720306396,
        0.009765625
      ],
      "type": "VEC2"
    },
    {
      "bufferView": 0,
      "byteOffset": 16512,
      "componentType": 5125,
      "count": 4128,
      "type": "SCALAR"
    },
    {
      "bufferView": 2,
      "byteOffset": 50448,
      "componentType": 5126,
      "count": 122,
      "max": [
        1.3116923570632935,
        3.079427719116211,
        0.07000000774860382
      ],
      "min": [
        -1.3116923570632935,
        -2.9977240562438965,
        -0.07000000774860382
      ],
      "type": "VEC3"
    },
    {
      "bufferView": 2,
      "byteOffset": 51912,
      "componentType": 5126,
      "count": 122,
      "max": [
        0.9997805953025818,
        1.0,
        1.0
      ],
      "min": [
        -0.9997805953025818,
        -0.25298911333084106,
        -1.0
      ],
      "type": "VEC3"
    },
    {
      "bufferView": 1,
      "byteOffset": 16816,
      "componentType": 5126,
      "count": 122,
      "max": [
        0.9262694716453552,
        1.0
      ],
      "min": [
        0.06045764684677124,
        0.0
      ],
      "type": "VEC2"
    },
    {
      "bufferView": 0,
      "byteOffset": 33024,
      "componentType": 5125,
      "count": 552,
      "type": "SCALAR"
    },
    {
      "bufferView": 2,
      "byteOffset": 53376,
      "componentType": 5126,
      "count": 112,
      "max": [
        1.3316922187805176,
        3.0994277000427246,
        0.07000000774860382
      ],
      "min": [
        -1.3316922187805176,
        -2.9977240562438965,
        -0.07000000774860382
      ],
      "type": "VEC3"
    },
    {
      "bufferView": 2,
      "byteOffset": 54720,
      "componentType": 5126,
      "count": 112,
      "max": [
        0.9998283386230469,
        0.7142027020454407,
        1.0
      ],
      "min": [
        -0.9998283386230469,
        -1.0,
        -1.0
      ],
      "type": "VEC3"
    },
    {
      "bufferView": 1,
      "byteOffset": 17792,
      "componentType": 5126,
      "count": 112,
      "max": [
        0.9262694716453552,
        1.0
      ],
      "min": [
        0.06045764684677124,
        0.0
      ],
      "type": "VEC2"
    },
    {
      "bufferView": 0,
      "byteOffset": 35232,
      "componentType": 5125,
      "count": 504,
      "type": "SCALAR"
    },
    {
      "bufferView": 2,
      "byteOffset": 56064,
      "componentType": 5126,
      "count": 70,
      "max": [
        0.4913721978664398,
        0.5884529948234558,
        0.07845301926136017
      ],
      "min": [
        -0.4913721978664398,
        -0.5858578681945801,
        -0.07845301926136017
      ],
      "type": "VEC3"
    },
    {
      "bufferView": 2,
      "byteOffset": 56904,
      "componentType": 5126,
      "count": 70,
      "max": [
        0.7131710052490234,
        0.7069491147994995,
        0.7072644233703613
      ],
      "min": [
        -0.7131710052490234,
        -0.7265487909317017,
        -0.7072644233703613
      ],
      "type": "VEC3"
    },
    {
      "bufferView": 1,
      "byteOffset": 18688,
      "componentType": 5126,
      "count": 70,
      "max": [
        1.0,
        0.9275798797607422
      ],
      "min": [
        0.0,
        0.0
      ],
      "type": "VEC2"
    },
    {
      "bufferView": 0,
      "byteOffset": 37248,
      "componentType": 5125,
      "count": 180,
      "type": "SCALAR"
    },
    {
      "bufferView": 2,
      "byteOffset": 57744,
      "componentType": 5126,
      "count": 70,
      "max": [
        0.5029191970825195,
        0.6000000238418579,
        0.09000002592802048
      ],
      "min": [
        -0.5029191970825195,
        -0.6000000238418579,
        -0.09000002592802048
      ],
      "type": "VEC3"
    },
    {
      "bufferView": 2,
      "byteOffset": 58584,
      "componentType": 5126,
      "count": 70,
      "max": [
        0.7136445045471191,
        0.7277984023094177,
        0.7071068286895752
      ],
      "min": [
        -0.7136445045471191,
        -0.7071068286895752,
        -0.7071068286895752
      ],
      "type": "VEC3"
    },
    {
      "bufferView": 1,
      "byteOffset": 19248,
      "componentType": 5126,
      "count": 70,
      "max": [
        1.0,
        0.9275798797607422
      ],
      "min": [
        0.0,
        0.0
      ],
      "type": "VEC2"
    },
    {
      "bufferView": 0,
      "byteOffset": 37968,
      "componentType": 5125,
      "count": 180,
      "type": "SCALAR"
    },
    {
      "bufferView": 2,
      "byteOffset": 59424,
      "componentType": 5126,
      "count": 130,
      "max": [
        0.585302472114563,
        0.10643602162599564,
        0.585302472114563
      ],
      "min": [
        -0.585302472114563,
        -0.10643602162599564,
        -0.585302472114563
      ],
      "type": "VEC3"
    },
    {
      "bufferView": 2,
      "byteOffset": 60984,
      "componentType": 5126,
      "count": 130,
      "max": [
        0.7278876900672913,
        0.6856966018676758,
        0.7278875708580017
      ],
      "min": [
        -0.7278876900672913,
        -0.6856966018676758,
        -0.7278876304626465
      ],
      "type": "VEC3"
    },
    {
      "bufferView": 1,
      "byteOffset": 19808,
      "componentType": 5126,
      "count": 130,
      "max": [
        1.0,
        1.0
      ],
      "min": [
        0.0,
        0.01000000536441803
      ],
      "type": "VEC2"
    },
    {
      "bufferView": 0,
      "byteOffset": 38688,
      "componentType": 5125,
      "count": 372,
      "type": "SCALAR"
    },
    {
      "bufferView": 2,
      "byteOffset": 62544,
      "componentType": 5126,
      "count": 130,
      "max": [
        0.6000000238418579,
        0.11999999731779099,
        0.6000000238418579
      ],
      "min": [
        -0.6000000238418579,
        -0.11999999731779099,
        -0.6000000238418579
      ],
      "type": "VEC3"
    },
    {
      "bufferView": 2,
      "byteOffset": 64104,
      "componentType": 5126,
      "count": 130,
      "max": [
        0.7278876304626465,
        0.6856966018676758,
        0.7278875708580017
      ],
      "min": [
        -0.7278876304626465,
        -0.6856966018676758,
        -0.7278876304626465
      ],
      "type": "VEC3"
    },
    {
      "bufferView": 1,
      "byteOffset": 20848,
      "componentType": 5126,
      "count": 130,
      "max": [
        1.0,
        1.0
      ],
      "min": [
        0.0,
        0.01000000536441803
      ],
      "type": "VEC2"
    },
    {
      "bufferView": 0,
      "byteOffset": 40176,
      "componentType": 5125,
      "count": 372,
      "type": "SCALAR"
    },
    {
      "bufferView": 2,
      "byteOffset": 65664,
      "componentType": 5126,
      "count": 6396,
      "max": [
        0.20902086794376373,
        0.20494531095027924,
        0.3249998390674591
      ],
      "min": [
        -0.20491500198841095,
        -0.21489116549491882,
        -2.4250004291534424
      ],
      "type": "VEC3"
    },
    {
      "bufferView": 2,
      "byteOffset": 142416,
      "componentType": 5126,
      "count": 6396,
      "max": [
        0.9999940991401672,
        1.0,
        1.0
      ],
      "min": [
        -0.9999940991401672,
        -1.0,
        -1.0
      ],
      "type": "VEC3"
    },
    {
      "bufferView": 1,
      "byteOffset": 21888,
      "componentType": 5126,
      "count": 6396,
      "max": [
        11.00000286102295,
        -0.450000137090683
      ],
      "min": [
        0.0,
        -0.850000262260437
      ],
      "type": "VEC2"
    },
    {
      "bufferView": 0,
      "byteOffset": 41664,
      "componentType": 5125,
      "count": 33891,
      "type": "SCALAR"
    },
    {
      "bufferView": 2,
      "byteOffset": 219168,
      "componentType": 5126,
      "count": 6377,
      "max": [
        0.22900667786598206,
        0.22492565214633942,
        0.3449998199939728
      ],
      "min": [
        -0.2249128222465515,
        -0.23423491418361664,
        -2.445000410079956
      ],
      "type": "VEC3"
    },
    {
      "bufferView": 2,
      "byteOffset": 295692,
      "componentType": 5126,
      "count": 6377,
      "max": [
        0.9999481439590454,
        0.999998152256012,
        1.0
      ],
      "min": [
        -0.9998523592948914,
        -0.9999858736991882,
        -1.0
      ],
      "type": "VEC3"
    },
    {
      "bufferView": 1,
      "byteOffset": 73056,
      "componentType": 5126,
      "count": 6377,
      "max": [
        11.00000286102295,
        -0.450000137090683
      ],
      "min": [
        0.0,
        -0.850000262260437
      ],
      "type": "VEC2"
    },
    {
      "bufferView": 0,
      "byteOffset": 177228,
      "componentType": 5125,
      "count": 33930,
      "type": "SCALAR"
    },
    {
      "bufferView": 2,
      "byteOffset": 372216,
      "componentType": 5126,
      "count": 1300,
      "max": [
        1.4278901815414429,
        6.079561710357666,
        0.02000001259148121
      ],
      "min": [
        -1.4278901815414429,
        0.5510582327842712,
        -0.019999995827674866
      ],
      "type": "VEC3"
    },
    {
      "bufferView": 2,
      "byteOffset": 387816,
      "componentType": 5126,
      "count": 1300,
      "max": [
        0.9993297457695007,
        0.9994626641273499,
        0.8837453126907349
      ],
      "min": [
        -0.9993297457695007,
        -0.9946990609169006,
        -0.8837453722953796
      ],
      "type": "VEC3"
    },
    {
      "bufferView": 1,
      "byteOffset": 124072,
      "componentType": 5126,
      "count": 1300,
      "max": [
        0.49000000953674316,
        0.49000000953674316
      ],
      "min": [
        0.01000000536441803,
        0.01000000536441803
      ],
      "type": "VEC2"
    },
    {
      "bufferView": 0,
      "byteOffset": 312948,
      "componentType": 5125,
      "count": 5616,
      "type": "SCALAR"
    },
    {
      "bufferView": 2,
      "byteOffset": 403416,
      "componentType": 5126,
      "count": 676,
      "max": [
        1.4478627443313599,
        6.099452018737793,
        0.02000001259148121
      ],
      "min": [
        -1.4478627443313599,
        0.5510582327842712,
        -0.019999995827674866
      ],
      "type": "VEC3"
    },
    {
      "bufferView": 2,
      "byteOffset": 411528,
      "componentType": 5126,
      "count": 676,
      "max": [
        0.9993297457695007,
        0.9927495718002319,
        0.8837453126907349
      ],
      "min": [
        -0.9993297457695007,
        -0.9946990609169006,
        -0.8837453722953796
      ],
      "type": "VEC3"
    },
    {
      "bufferView": 1,
      "byteOffset": 134472,
      "componentType": 5126,
      "count": 676,
      "max": [
        0.49000000953674316,
        0.49000000953674316
      ],
      "min": [
        0.01000000536441803,
        0.01000000536441803
      ],
      "type": "VEC2"
    },
    {
      "bufferView": 0,
      "byteOffset": 335412,
      "componentType": 5125,
      "count": 1872,
      "type": "SCALAR"
    },
    {
      "bufferView": 2,
      "byteOffset": 419640,
      "componentType": 5126,
      "count": 4220,
      "max": [
        0.3319096863269806,
        0.04999999701976776,
        -0.0
      ],
      "min": [
        -0.33794882893562317,
        -0.04999999701976776,
        -0.2213275283575058
      ],
      "type": "VEC3"
    },
    {
      "bufferView": 2,
      "byteOffset": 470280,
      "componentType": 5126,
      "count": 4220,
      "max": [
        0.9999996423721313,
        1.0,
        0.9999998807907104
      ],
      "min": [
        -0.9999964237213135,
        -1.0,
        -0.9999974370002747
      ],
      "type": "VEC3"
    },
    {
      "bufferView": 1,
      "byteOffset": 139880,
      "componentType": 5126,
      "count": 4220,
      "max": [
        1.0,
        1.0
      ],
      "min": [
        0.0,
        0.0
      ],
      "type": "VEC2"
    },
    {
      "bufferView": 0,
      "byteOffset": 342900,
      "componentType": 5125,
      "count": 8208,
      "type": "SCALAR"
    }
  ],
  "asset": {
    "extras": {
      "author": "Platrium (https://sketchfab.com/Platrium)",
      "license": "CC-BY-4.0 (http://creativecommons.org/licenses/by/4.0/)",
      "source": "https://sketchfab.com/3d-models/swordtember-2022-day-9-floral-mortuary-a3563b9b57d6485db4a6b18e44798f81",
      "title": "Swordtember 2022: Day 9: Floral × Mortuary"
    },
    "generator": "Sketchfab-14.10.0",
    "version": "2.0"
  },
  "bufferViews": [
    {
      "buffer": 0,
      "byteLength": 375732,
      "name": "floatBufferViews",
      "target": 34963
    },
    {
      "buffer": 0,
      "byteLength": 173640,
      "byteOffset": 375732,
      "byteStride": 8,
      "name": "floatBufferViews",
      "target": 34962
    },
    {
      "buffer": 0,
      "byteLength": 520920,
      "byteOffset": 549372,
      "byteStride": 12,
      "name": "floatBufferViews",
      "target": 34962
    }
  ],
  "buffers": [
    {
      "byteLength": 1070292,
      "uri": "scene.bin"
    }
  ],
  "images": [
    {
      "uri": "textures/Gray_Guard_baseColor.png"
    },
    {
      "uri": "textures/Gray_Guard_metallicRoughness.png"
    },
    {
      "uri": "textures/Cactus_baseColor.png"
    },
    {
      "uri": "textures/Tombstone_baseColor.png"
    },
    {
      "uri": "textures/Tombstone_metallicRoughness.png"
    },
    {
      "uri": "textures/Gray_Pommel_baseColor.png"
    },
    {
      "uri": "textures/Gray_Pommel_metallicRoughness.png"
    }
  ],
  "materials": [
    {
      "doubleSided": true,
      "name": "Gray_Guard",
      "pbrMetallicRoughness": {
        "baseColorTexture": {
          "index": 0
        },
        "metallicFactor": 0.0,
        "metallicRoughnessTexture": {
          "index": 1
        }
      }
    },
    {
      "name": "Outline",
      "pbrMetallicRoughness": {
        "baseColorFactor": [
          0.0,
          0.0,
          0.0,
          1.0
        ]
      }
    },
    {
      "doubleSided": true,
      "name": "Cactus",
      "pbrMetallicRoughness": {
        "baseColorTexture": {
          "index": 2
        },
        "metallicFactor": 0.5,
        "roughnessFactor": 0.5
      }
    },
    {
      "doubleSided": true,
      "name": "Tombstone",
      "pbrMetallicRoughness": {
        "baseColorTexture": {
          "index": 3
        },
        "metallicFactor": 0.0,
        "metallicRoughnessTexture": {
          "index": 4
        }
      }
    },
    {
      "doubleSided": true,
      "name": "Gray_Pommel",
      "pbrMetallicRoughness": {
        "baseColorTexture": {
          "index": 5
        },
        "metallicFactor": 0.0,
        "metallicRoughnessTexture": {
          "index": 6
        }
      }
    },
    {
      "doubleSided": true,
      "name": "Silver",
      "pbrMetallicRoughness": {
        "baseColorFactor": [
          0.434153,
          0.434153,
          0.434154,
          1.0
        ],
        "roughnessFactor": 0.35
      }
    },
    {
      "doubleSided": true,
      "name": "Needle",
      "pbrMetallicRoughness": {
        "baseColorFactor": [
          0.955972,
          0.93011,
          0.730461,
          1.0
        ],
        "metallicFactor": 0.5,
        "roughnessFactor": 0.2
      }
    },
    {
      "doubleSided": true,
      "name": "Dark",
      "pbrMetallicRoughness": {
        "baseColorFactor": [
          0.0144438,
          0.0144438,
          0.0144438,
          1.0
        ],
        "metallicFactor": 0.0,
        "roughnessFactor": 0.5
      }
    }
  ],
  "meshes": [
    {
      "name": "Object_0",
      "primitives": [
        {
          "attributes": {
            "NORMAL": 1,
            "POSITION": 0,
            "TEXCOORD_0": 2
          },
          "indices": 3,
          "material": 0,
          "mode": 4
        }
      ]
    },
    {
      "name": "Object_1",
      "primitives": [
        {
          "attributes": {
            "NORMAL": 5,
            "POSITION": 4,
            "TEXCOORD_0": 6
          },
          "indices": 7,
          "material": 1,
          "mode": 4
        }
      ]
    },
    {
      "name": "Object_2",
      "primitives": [
        {
          "attributes": {
            "NORMAL": 9,
            "POSITION": 8,
            "TEXCOORD_0": 10
          },
          "indices": 11,
          "material": 2,
          "mode": 4
        }
      ]
    },
    {
      "name": "Object_3",
      "primitives": [
        {
          "attributes": {
            "NORMAL": 13,
            "POSITION": 12,
            "TEXCOORD_0": 14
          },
          "indices": 15,
          "material": 1,
          "mode": 4
        }
      ]
    },
    {
      "name": "Object_4",
      "primitives": [
        {
          "attributes": {
            "NORMAL": 17,
            "POSITION": 16,
            "TEXCOORD_0": 18
          },
          "indices": 19,
          "material": 3,
          "mode": 4
        }
      ]
    },
    {
      "name": "Object_5",
      "primitives": [
        {
          "attributes": {
            "NORMAL": 21,
            "POSITION": 20,
            "TEXCOORD_0": 22
          },
          "indices": 23,
          "material": 1,
          "mode": 4
        }
      ]
    },
    {
      "name": "Object_6",
      "primitives": [
        {
          "attributes": {
            "NORMAL": 25,
            "POSITION": 24,
            "TEXCOORD_0": 26
          },
          "indices": 27,
          "material": 4,
          "mode": 4
        }
      ]
    },
    {
      "name": "Object_7",
      "primitives": [
        {
          "attributes": {
            "NORMAL": 29,
            "POSITION": 28,
            "TEXCOORD_0": 30
          },
          "indices": 31,
          "material": 1,
          "mode": 4
        }
      ]
    },
    {
      "name": "Object_8",
      "primitives": [
        {
          "attributes": {
            "NORMAL": 33,
            "POSITION": 32,
            "TEXCOORD_0": 34
          },
          "indices": 35,
          "material": 5,
          "mode": 4
        }
      ]
    },
    {
      "name": "Object_9",
      "primitives": [
        {
          "attributes": {
            "NORMAL": 37,
            "POSITION": 36,
            "TEXCOORD_0": 38
          },
          "indices": 39,
          "material": 1,
          "mode": 4
        }
      ]
    },
    {
      "name": "Object_10",
      "primitives": [
        {
          "attributes": {
            "NORMAL": 41,
            "POSITION": 40,
            "TEXCOORD_0": 42
          },
          "indices": 43,
          "material": 6,
          "mode": 4
        }
      ]
    },
    {
      "name": "Object_11",
      "primitives": [
        {
          "attributes": {
            "NORMAL": 45,
            "POSITION": 44,
            "TEXCOORD_0": 46
          },
          "indices": 47,
          "material": 1,
          "mode": 4
        }
      ]
    },
    {
      "name": "Object_12",
      "primitives": [
        {
          "attributes": {
            "NORMAL": 49,
            "POSITION": 48,
            "TEXCOORD_0": 50
          },
          "indices": 51,
          "material": 7,
          "mode": 4
        }
      ]
    }
  ],
  "nodes": [
    {
      "children": [
        1
      ],
      "matrix": [
        1.0,
        0.0,
        0.0,
        0.0,
        0.0,
        2.220446049250313e-16,
        -1.0,
        0.0,
        0.0,
        1.0,
        2.220446049250313e-16,
        0.0,
        0.0,
        0.0,
        0.0,
        1.0
      ],
      "name": "Sketchfab_model"
    },
    {
      "children": [
        2
      ],
      "name": "root"
    },
    {
      "children": [
        3,
        6,
        9,
        12,
        15,
        18,
        21
      ],
      "matrix": [
        1.0,
        0.0,
        0.0,
        0.0,
        0.0,
        2.220446049250313e-16,
        1.0,
        0.0,
        0.0,
        -1.0,
        2.220446049250313e-16,
        0.0,
        0.0,
        0.0,
        0.0,
        1.0
      ],
      "name": "GLTF_SceneRootNode"
    },
    {
      "children": [
        4,
        5
      ],
      "matrix": [
        1.0,
        0.0,
        0.0,
        0.0,
        0.0,
        1.0,
        0.0,
        0.0,
        0.0,
        0.0,
        1.0,
        0.0,
        0.0,
        0.09072667360305786,
        0.0,
        1.0
      ],
      "name": "Cube_0"
    },
    {
      "mesh": 0,
      "name": "Object_4"
    },
    {
      "mesh": 1,
      "name": "Object_5"
    },
    {
      "children": [
        7,
        8
      ],
      "matrix": [
        1.0,
        0.0,
        0.0,
        0.0,
        0.0,
        1.0,
        0.0,
        0.0,
        0.0,
        0.0,
        1.0,
        0.0,
        0.0,
        2.9000000953674316,
        0.0,
        1.0
      ],
      "name": "Cube.001_4"
    },
    {
      "mesh": 2,
      "name": "Object_7"
    },
    {
      "mesh": 3,
      "name": "Object_8"
    },
    {
      "children": [
        10,
        11
      ],
      "matrix": [
        1.0,
        0.0,
        0.0,
        0.0,
        0.0,
        1.0,
        0.0,
        0.0,
        0.0,
        0.0,
        1.0,
        0.0,
        0.0,
        -3.559999942779541,
        0.0,
        1.0
      ],
      "name": "Cube.002_5"
    },
    {
      "mesh": 4,
      "name": "Object_10"
    },
    {
      "mesh": 5,
      "name": "Object_11"
    },
    {
      "children": [
        13,
        14
      ],
      "matrix": [
        1.0,
        0.0,
        0.0,
        0.0,
        0.0,
        1.0,
        0.0,
        0.0,
        0.0,
        0.0,
        1.0,
        0.0,
        0.0,
        -2.8400001525878906,
        0.0,
        1.0
      ],
      "name": "Cylinder_6"
    },
    {
      "mesh": 6,
      "name": "Object_13"
    },
    {
      "mesh": 7,
      "name": "Object_14"
    },
    {
      "children": [
        16,
        17
      ],
      "matrix": [
        1.0,
        0.0,
        0.0,
        0.0,
        0.0,
        8.429369480200677e-08,
        0.9999999999999966,
        0.0,
        0.0,
        -0.9999999999999966,
        8.429369480200677e-08,
        0.0,
        0.0,
        -2.5,
        0.0,
        1.0
      ],
      "name": "Plane_7"
    },
    {
      "mesh": 8,
      "name": "Object_16"
    },
    {
      "mesh": 9,
      "name": "Object_17"
    },
    {
      "children": [
        19,
        20
      ],
      "name": "Cone_8"
    },
    {
      "mesh": 10,
      "name": "Object_19"
    },
    {
      "mesh": 11,
      "name": "Object_20"
    },
    {
      "children": [
        22
      ],
      "matrix": [
        -0.9999999999999942,
        -7.549791743233759e-08,
        7.549789197634713e-08,
        0.0,
        7.549791743233759e-08,
        -3.3717479097639114e-07,
        0.9999999999999403,
        0.0,
        -7.549789197634713e-08,
        0.9999999999999403,
        3.3717479686057317e-07,
        0.0,
        0.0,
        -3.559999942779541,
        0.09000000357627869,
        1.0
      ],
      "name": "Text_9"
    },
    {
      "mesh": 12,
      "name": "Object_22"
    }
  ],
  "samplers": [
    {
      "magFilter": 9729,
      "minFilter": 9987,
      "wrapS": 10497,
      "wrapT": 10497
    }
  ],
  "scene": 0,
  "scenes": [
    {
      "name": "Sketchfab_Scene",
      "nodes": [
        0
      ]
    }
  ],
  "textures": [
    {
      "sampler": 0,
      "source": 0
    },
    {
      "sampler": 0,
      "source": 1
    },
    {
      "sampler": 0,
      "source": 2
    },
    {
      "sampler": 0,
      "source": 3
    },
    {
      "sampler": 0,
      "source": 4
    },
    {
      "sampler": 0,
      "source": 5
    },
    {
      "sampler": 0,
      "source": 6
    }
  ]
}
