{
  "accessors": [
    {
      "bufferView": 3,
      "componentType": 5126,
      "count": 6046,
      "max": [
        69.24950408935547,
        181.06533813476563,
        28.156042098999023
      ],
      "min": [
        -69.24950408935547,
        -0.5553207397460938,
        -13.631093978881836
      ],
      "type": "VEC3"
    },
    {
      "bufferView": 3,
      "byteOffset": 72552,
      "componentType": 5126,
      "count": 6046,
      "max": [
        1.0,
        1.0,
        1.0
      ],
      "min": [
        -1.0,
        -1.0,
        -1.0
      ],
      "type": "VEC3"
    },
    {
      "bufferView": 4,
      "componentType": 5126,
      "count": 6046,
      "max": [
        0.9999997019767761,
        0.9999964833259583,
        0.9999074339866638,
        1.0
      ],
      "min": [
        -1.0,
        -0.9999167919158936,
        -0.9996738433837891,
        -1.0
      ],
      "type": "VEC4"
    },
    {
      "bufferView": 2,
      "componentType": 5126,
      "count": 6046,
      "max": [
        0.990912139415741,
        0.9957561492919922
      ],
      "min": [
        0.004243876319378614,
        0.0030748844146728516
      ],
      "type": "VEC2"
    },
    {
      "bufferView": 1,
      "componentType": 5125,
      "count": 23172,
      "type": "SCALAR"
    },
    {
      "bufferView": 5,
      "componentType": 5126,
      "count": 65,
      "max": [
        1.0,
        0.9961105585098267,
        0.9852675199508667,
        0.0,
        0.9737070202827454,
        1.0,
        0.9964155554771423,
        0.0,
        0.9992384910583496,
        0.9363208413124084,
        1.0,
        0.0,
        94.03630065917969,
        39.54964828491211,
        159.71820068359375,
        1.0
      ],
      "min": [
        -1.0,
        -0.9961105585098267,
        -0.9852675199508667,
        0.0,
        -0.9737070202827454,
        -0.7904425859451294,
        -0.9998611211776733,
        0.0,
        -0.9992384910583496,
        -0.9998611211776733,
        -0.9704321622848511,
        0.0,
        -94.03630065917969,
        -141.70223999023438,
        -113.29411315917969,
        1.0
      ],
      "type": "MAT4"
    },
    {
      "bufferView": 0,
      "componentType": 5123,
      "count": 6046,
      "type": "VEC4"
    },
    {
      "bufferView": 4,
      "byteOffset": 96736,
      "componentType": 5126,
      "count": 6046,
      "max": [
        1.0,
        0.49997663497924805,
        0.30910995602607727,
        0.15512362122535706
      ],
      "min": [
        0.33496177196502686,
        0.0,
        0.0,
        0.0
      ],
      "type": "VEC4"
    },
    {
      "bufferView": 6,
      "componentType": 5126,
      "count": 71,
      "max": [
        2.3333332538604736
      ],
      "min": [
        0.0
      ],
      "type": "SCALAR"
    },
    {
      "bufferView": 8,
      "componentType": 5126,
      "count": 71,
      "max": [
        0.04691985249519348,
        0.016520462930202484,
        0.16478078067302704,
        0.9991635084152222
      ],
      "min": [
        0.027737298980355263,
        -0.05147711932659149,
        -0.11879382282495499,
        0.9858003258705139
      ],
      "type": "VEC4"
    },
    {
      "bufferView": 6,
      "byteOffset": 284,
      "componentType": 5126,
      "count": 71,
      "max": [
        2.3333332538604736
      ],
      "min": [
        0.0
      ],
      "type": "SCALAR"
    },
    {
      "bufferView": 8,
      "byteOffset": 1136,
      "componentType": 5126,
      "count": 71,
      "max": [
        -0.2963709533214569,
        0.09310922026634216,
        -0.01120475772768259,
        0.9453627467155457
      ],
      "min": [
        -0.3639116883277893,
        0.0420890673995018,
        -0.12915898859500885,
        0.9267002940177917
      ],
      "type": "VEC4"
    },
    {
      "bufferView": 6,
      "byteOffset": 568,
      "componentType": 5126,
      "count": 71,
      "max": [
        2.3333332538604736
      ],
      "min": [
        0.0
      ],
      "type": "SCALAR"
    },
    {
      "bufferView": 7,
      "componentType": 5126,
      "count": 71,
      "max": [
        19.695934295654297,
        0.7372239232063293,
        -12.485367774963379
      ],
      "min": [
        19.69257354736328,
        0.7351857423782349,
        -12.735843658447266
      ],
      "type": "VEC3"
    },
    {
      "bufferView": 6,
      "byteOffset": 852,
      "componentType": 5126,
      "count": 70,
      "max": [
        2.3333332538604736
      ],
      "min": [
        0.0
      ],
      "type": "SCALAR"
    },
    {
      "bufferView": 8,
      "byteOffset": 2272,
      "componentType": 5126,
      "count": 70,
      "max": [
        0.6697879433631897,
        0.5807051658630371,
        -0.2867637574672699,
        -0.36322468519210815
      ],
      "min": [
        0.6697879433631897,
        0.5807051658630371,
        -0.2867637574672699,
        -0.36322468519210815
      ],
      "type": "VEC4"
    },
    {
      "bufferView": 6,
      "byteOffset": 1132,
      "componentType": 5126,
      "count": 71,
      "max": [
        2.3333332538604736
      ],
      "min": [
        0.0
      ],
      "type": "SCALAR"
    },
    {
      "bufferView": 8,
      "byteOffset": 3392,
      "componentType": 5126,
      "count": 71,
      "max": [
        -0.27550265192985535,
        -0.10837794840335846,
        -0.04036690294742584,
        0.9320370554924011
      ],
      "min": [
        -0.3498762845993042,
        -0.24871951341629028,
        -0.07379504293203354,
        0.927574872970581
      ],
      "type": "VEC4"
    },
    {
      "bufferView": 6,
      "byteOffset": 1416,
      "componentType": 5126,
      "count": 71,
      "max": [
        2.3333332538604736
      ],
      "min": [
        0.0
      ],
      "type": "SCALAR"
    },
    {
      "bufferView": 7,
      "byteOffset": 852,
      "componentType": 5126,
      "count": 71,
      "max": [
        -19.689212799072266,
        0.7372239232063293,
        -12.485367774963379
      ],
      "min": [
        -19.69257354736328,
        0.7351857423782349,
        -12.735843658447266
      ],
      "type": "VEC3"
    },
    {
      "bufferView": 6,
      "byteOffset": 1700,
      "componentType": 5126,
      "count": 71,
      "max": [
        2.3333332538604736
      ],
      "min": [
        0.0
      ],
      "type": "SCALAR"
    },
    {
      "bufferView": 8,
      "byteOffset": 4528,
      "componentType": 5126,
      "count": 71,
      "max": [
        0.6697879433631897,
        -0.5807051658630371,
        0.2867637574672699,
        -0.36322468519210815
      ],
      "min": [
        0.6697879433631897,
        -0.5807051658630371,
        0.2867637574672699,
        -0.36322468519210815
      ],
      "type": "VEC4"
    },
    {
      "bufferView": 6,
      "byteOffset": 1984,
      "componentType": 5126,
      "count": 71,
      "max": [
        2.3333332538604736
      ],
      "min": [
        0.0
      ],
      "type": "SCALAR"
    },
    {
      "bufferView": 8,
      "byteOffset": 5664,
      "componentType": 5126,
      "count": 71,
      "max": [
        -0.025601834058761597,
        0.006745708175003529,
        0.0016255771042779088,
        0.9995467662811279
      ],
      "min": [
        -0.029693303629755974,
        -0.005787871778011322,
        -0.054265256971120834,
        0.9981815218925476
      ],
      "type": "VEC4"
    },
    {
      "bufferView": 6,
      "byteOffset": 2268,
      "componentType": 5126,
      "count": 71,
      "max": [
        2.3333332538604736
      ],
      "min": [
        0.0
      ],
      "type": "SCALAR"
    },
    {
      "bufferView": 7,
      "byteOffset": 1704,
      "componentType": 5126,
      "count": 71,
      "max": [
        -6.202239090559057e-15,
        89.64053344726563,
        5.511014461517334
      ],
      "min": [
        -6.202239090559057e-15,
        89.2614974975586,
        5.499931335449219
      ],
      "type": "VEC3"
    },
    {
      "bufferView": 6,
      "byteOffset": 2552,
      "componentType": 5126,
      "count": 71,
      "max": [
        2.3333332538604736
      ],
      "min": [
        0.0
      ],
      "type": "SCALAR"
    },
    {
      "bufferView": 7,
      "byteOffset": 2556,
      "componentType": 5126,
      "count": 71,
      "max": [
        3.197442310920451e-14,
        0.0,
        -40.972957611083984
      ],
      "min": [
        2.7533531010703882e-14,
        -1.0658141036401503e-14,
        -40.972957611083984
      ],
      "type": "VEC3"
    },
    {
      "bufferView": 6,
      "byteOffset": 2836,
      "componentType": 5126,
      "count": 71,
      "max": [
        2.3333332538604736
      ],
      "min": [
        0.0
      ],
      "type": "SCALAR"
    },
    {
      "bufferView": 8,
      "byteOffset": 6800,
      "componentType": 5126,
      "count": 71,
      "max": [
        0.001785505679436028,
        0.4453498423099518,
        -0.15186771750450134,
        0.8976892828941345
      ],
      "min": [
        0.0014964704168960452,
        0.41261881589889526,
        -0.1545848697423935,
        0.8823817372322083
      ],
      "type": "VEC4"
    },
    {
      "bufferView": 6,
      "byteOffset": 3120,
      "componentType": 5126,
      "count": 71,
      "max": [
        2.3333332538604736
      ],
      "min": [
        0.0
      ],
      "type": "SCALAR"
    },
    {
      "bufferView": 7,
      "byteOffset": 3408,
      "componentType": 5126,
      "count": 71,
      "max": [
        -1.2878587085651816e-14,
        -1.2079226507921703e-13,
        -34.75106430053711
      ],
      "min": [
        -1.6431300764452317e-14,
        -1.2789769243681803e-13,
        -34.75106430053711
      ],
      "type": "VEC3"
    },
    {
      "bufferView": 6,
      "byteOffset": 3404,
      "componentType": 5126,
      "count": 71,
      "max": [
        2.3333332538604736
      ],
      "min": [
        0.0
      ],
      "type": "SCALAR"
    },
    {
      "bufferView": 8,
      "byteOffset": 7936,
      "componentType": 5126,
      "count": 71,
      "max": [
        -0.0041212583892047405,
        -0.023027870804071426,
        -0.002872551791369915,
        0.9997221827507019
      ],
      "min": [
        -0.017929736524820328,
        -0.1001838818192482,
        -0.0028867556247860193,
        0.994803249835968
      ],
      "type": "VEC4"
    },
    {
      "bufferView": 6,
      "byteOffset": 3688,
      "componentType": 5126,
      "count": 71,
      "max": [
        2.3333332538604736
      ],
      "min": [
        0.0
      ],
      "type": "SCALAR"
    },
    {
      "bufferView": 8,
      "byteOffset": 9072,
      "componentType": 5126,
      "count": 71,
      "max": [
        0.6840440034866333,
        0.727671205997467,
        -0.05026363581418991,
        -0.014451432973146439
      ],
      "min": [
        0.6818888783454895,
        0.7259806394577026,
        -0.07289301604032516,
        -0.05009429156780243
      ],
      "type": "VEC4"
    },
    {
      "bufferView": 6,
      "byteOffset": 3972,
      "componentType": 5126,
      "count": 71,
      "max": [
        2.3333332538604736
      ],
      "min": [
        0.0
      ],
      "type": "SCALAR"
    },
    {
      "bufferView": 7,
      "byteOffset": 4260,
      "componentType": 5126,
      "count": 71,
      "max": [
        -1.1546319456101628e-14,
        -2.4868995751603507e-14,
        -40.972957611083984
      ],
      "min": [
        -1.687538997430238e-14,
        -3.019806626980426e-14,
        -40.972957611083984
      ],
      "type": "VEC3"
    },
    {
      "bufferView": 6,
      "byteOffset": 4256,
      "componentType": 5126,
      "count": 71,
      "max": [
        2.3333332538604736
      ],
      "min": [
        0.0
      ],
      "type": "SCALAR"
    },
    {
      "bufferView": 8,
      "byteOffset": 10208,
      "componentType": 5126,
      "count": 71,
      "max": [
        0.05862389877438545,
        -0.43586018681526184,
        0.17887891829013824,
        0.8801087737083435
      ],
      "min": [
        0.058145180344581604,
        -0.44838058948516846,
        0.178574338555336,
        0.8738908171653748
      ],
      "type": "VEC4"
    },
    {
      "bufferView": 6,
      "byteOffset": 4540,
      "componentType": 5126,
      "count": 60,
      "max": [
        2.3333332538604736
      ],
      "min": [
        0.0
      ],
      "type": "SCALAR"
    },
    {
      "bufferView": 7,
      "byteOffset": 5112,
      "componentType": 5126,
      "count": 60,
      "max": [
        2.4868995751603507e-14,
        -2.842170943040401e-14,
        -34.75106430053711
      ],
      "min": [
        1.7763568394002505e-14,
        -3.552713678800501e-14,
        -34.75106430053711
      ],
      "type": "VEC3"
    },
    {
      "bufferView": 6,
      "byteOffset": 4780,
      "componentType": 5126,
      "count": 71,
      "max": [
        2.3333332538604736
      ],
      "min": [
        0.0
      ],
      "type": "SCALAR"
    },
    {
      "bufferView": 8,
      "byteOffset": 11344,
      "componentType": 5126,
      "count": 71,
      "max": [
        -0.026777923107147217,
        0.17916370928287506,
        0.0028539933264255524,
        0.9883762001991272
      ],
      "min": [
        -0.032064616680145264,
        0.14962385594844818,
        0.002839314052835107,
        0.9832925200462341
      ],
      "type": "VEC4"
    },
    {
      "bufferView": 6,
      "byteOffset": 5064,
      "componentType": 5126,
      "count": 71,
      "max": [
        2.3333332538604736
      ],
      "min": [
        0.0
      ],
      "type": "SCALAR"
    },
    {
      "bufferView": 8,
      "byteOffset": 12480,
      "componentType": 5126,
      "count": 71,
      "max": [
        0.7613334059715271,
        -0.6429016590118408,
        -0.026118187233805656,
        -0.07036254554986954
      ],
      "min": [
        0.7605563402175903,
        -0.644001841545105,
        -0.036429423838853836,
        -0.08309251815080643
      ],
      "type": "VEC4"
    },
    {
      "bufferView": 6,
      "byteOffset": 5348,
      "componentType": 5126,
      "count": 71,
      "max": [
        2.3333332538604736
      ],
      "min": [
        0.0
      ],
      "type": "SCALAR"
    },
    {
      "bufferView": 7,
      "byteOffset": 5832,
      "componentType": 5126,
      "count": 71,
      "max": [
        -4.440892098500626e-15,
        -2.842170943040401e-14,
        -28.225561141967773
      ],
      "min": [
        -1.1546319456101628e-14,
        -7.105427357601002e-14,
        -28.225561141967773
      ],
      "type": "VEC3"
    },
    {
      "bufferView": 6,
      "byteOffset": 5632,
      "componentType": 5126,
      "count": 71,
      "max": [
        2.3333332538604736
      ],
      "min": [
        0.0
      ],
      "type": "SCALAR"
    },
    {
      "bufferView": 8,
      "byteOffset": 13616,
      "componentType": 5126,
      "count": 71,
      "max": [
        0.016516368836164474,
        -0.0028728509787470102,
        1.4403438164389826e-10,
        0.9983140230178833
      ],
      "min": [
        -0.06976144015789032,
        -0.13948574662208557,
        -1.630988677447931e-10,
        0.9900863170623779
      ],
      "type": "VEC4"
    },
    {
      "bufferView": 6,
      "byteOffset": 5916,
      "componentType": 5126,
      "count": 71,
      "max": [
        2.3333332538604736
      ],
      "min": [
        0.0
      ],
      "type": "SCALAR"
    },
    {
      "bufferView": 7,
      "byteOffset": 6684,
      "componentType": 5126,
      "count": 71,
      "max": [
        0.0,
        1.4210854715202004e-14,
        -21.18256950378418
      ],
      "min": [
        -7.105427357601002e-15,
        -2.842170943040401e-14,
        -21.18256950378418
      ],
      "type": "VEC3"
    },
    {
      "bufferView": 6,
      "byteOffset": 6200,
      "componentType": 5126,
      "count": 71,
      "max": [
        2.3333332538604736
      ],
      "min": [
        0.0
      ],
      "type": "SCALAR"
    },
    {
      "bufferView": 8,
      "byteOffset": 14752,
      "componentType": 5126,
      "count": 71,
      "max": [
        -0.026001861318945885,
        -0.20428666472434998,
        -0.28244584798812866,
        0.9368243217468262
      ],
      "min": [
        -0.029181068763136864,
        -0.20662419497966766,
        -0.2979290187358856,
        0.9315946698188782
      ],
      "type": "VEC4"
    },
    {
      "bufferView": 6,
      "byteOffset": 6484,
      "componentType": 5126,
      "count": 70,
      "max": [
        2.3333332538604736
      ],
      "min": [
        0.0
      ],
      "type": "SCALAR"
    },
    {
      "bufferView": 7,
      "byteOffset": 7536,
      "componentType": 5126,
      "count": 70,
      "max": [
        -5.3290705182007514e-15,
        2.842170943040401e-14,
        -11.892090797424316
      ],
      "min": [
        -7.105427357601002e-15,
        -5.684341886080802e-14,
        -11.892090797424316
      ],
      "type": "VEC3"
    },
    {
      "bufferView": 6,
      "byteOffset": 6764,
      "componentType": 5126,
      "count": 71,
      "max": [
        2.3333332538604736
      ],
      "min": [
        0.0
      ],
      "type": "SCALAR"
    },
    {
      "bufferView": 8,
      "byteOffset": 15888,
      "componentType": 5126,
      "count": 71,
      "max": [
        -0.46690431237220764,
        0.1092991977930069,
        0.06135275959968567,
        0.8763232231140137
      ],
      "min": [
        -0.47526007890701294,
        0.10145845264196396,
        0.06114352494478226,
        0.8708863258361816
      ],
      "type": "VEC4"
    },
    {
      "bufferView": 6,
      "byteOffset": 7048,
      "componentType": 5126,
      "count": 71,
      "max": [
        2.3333332538604736
      ],
      "min": [
        0.0
      ],
      "type": "SCALAR"
    },
    {
      "bufferView": 8,
      "byteOffset": 17024,
      "componentType": 5126,
      "count": 71,
      "max": [
        -0.5181407332420349,
        0.5615292191505432,
        -0.46674636006355286,
        0.45654016733169556
      ],
      "min": [
        -0.520632266998291,
        0.5501463413238525,
        -0.4691125154495239,
        0.4428866505622864
      ],
      "type": "VEC4"
    },
    {
      "bufferView": 6,
      "byteOffset": 7332,
      "componentType": 5126,
      "count": 71,
      "max": [
        2.3333332538604736
      ],
      "min": [
        0.0
      ],
      "type": "SCALAR"
    },
    {
      "bufferView": 7,
      "byteOffset": 8376,
      "componentType": 5126,
      "count": 71,
      "max": [
        4.528921238033945e-09,
        1.0010893447542912e-08,
        -28.225561141967773
      ],
      "min": [
        4.528896369038193e-09,
        1.0010865025833482e-08,
        -28.225561141967773
      ],
      "type": "VEC3"
    },
    {
      "bufferView": 6,
      "byteOffset": 7616,
      "componentType": 5126,
      "count": 71,
      "max": [
        2.3333332538604736
      ],
      "min": [
        0.0
      ],
      "type": "SCALAR"
    },
    {
      "bufferView": 8,
      "byteOffset": 18160,
      "componentType": 5126,
      "count": 71,
      "max": [
        0.008915736339986324,
        -0.03582555800676346,
        6.144738051716558e-10,
        0.9986931085586548
      ],
      "min": [
        -0.08336997032165527,
        -0.0511016845703125,
        -2.6561117194567885e-10,
        0.9958744645118713
      ],
      "type": "VEC4"
    },
    {
      "bufferView": 6,
      "byteOffset": 7900,
      "componentType": 5126,
      "count": 70,
      "max": [
        2.3333332538604736
      ],
      "min": [
        0.0
      ],
      "type": "SCALAR"
    },
    {
      "bufferView": 7,
      "byteOffset": 9228,
      "componentType": 5126,
      "count": 70,
      "max": [
        -4.701547595686861e-09,
        -2.2528467980009736e-09,
        -21.18256950378418
      ],
      "min": [
        -4.70155114840054e-09,
        -2.252875219710404e-09,
        -21.18256950378418
      ],
      "type": "VEC3"
    },
    {
      "bufferView": 6,
      "byteOffset": 8180,
      "componentType": 5126,
      "count": 71,
      "max": [
        2.3333332538604736
      ],
      "min": [
        0.0
      ],
      "type": "SCALAR"
    },
    {
      "bufferView": 8,
      "byteOffset": 19296,
      "componentType": 5126,
      "count": 71,
      "max": [
        -0.04423273354768753,
        0.23327037692070007,
        0.23780113458633423,
        0.9628681540489197
      ],
      "min": [
        -0.07181896269321442,
        0.2280084639787674,
        0.1254555732011795,
        0.9418487548828125
      ],
      "type": "VEC4"
    },
    {
      "bufferView": 6,
      "byteOffset": 8464,
      "componentType": 5126,
      "count": 69,
      "max": [
        2.3333332538604736
      ],
      "min": [
        0.0
      ],
      "type": "SCALAR"
    },
    {
      "bufferView": 7,
      "byteOffset": 10068,
      "componentType": 5126,
      "count": 69,
      "max": [
        -1.7763568394002505e-15,
        0.0,
        -11.892090797424316
      ],
      "min": [
        -3.552713678800501e-15,
        -1.1368683772161603e-13,
        -11.892090797424316
      ],
      "type": "VEC3"
    },
    {
      "bufferView": 6,
      "byteOffset": 8740,
      "componentType": 5126,
      "count": 71,
      "max": [
        2.3333332538604736
      ],
      "min": [
        0.0
      ],
      "type": "SCALAR"
    },
    {
      "bufferView": 8,
      "byteOffset": 20432,
      "componentType": 5126,
      "count": 71,
      "max": [
        -0.4745902121067047,
        -0.12443152815103531,
        -0.10256414860486984,
        0.8643475770950317
      ],
      "min": [
        -0.48461028933525085,
        -0.12819792330265045,
        -0.10598433017730713,
        0.8597384691238403
      ],
      "type": "VEC4"
    },
    {
      "bufferView": 6,
      "byteOffset": 9024,
      "componentType": 5126,
      "count": 71,
      "max": [
        2.3333332538604736
      ],
      "min": [
        0.0
      ],
      "type": "SCALAR"
    },
    {
      "bufferView": 8,
      "byteOffset": 21568,
      "componentType": 5126,
      "count": 71,
      "max": [
        0.5317196846008301,
        0.5502928495407104,
        -0.45365309715270996,
        -0.4563419222831726
      ],
      "min": [
        0.5199618339538574,
        0.5485957860946655,
        -0.46751418709754944,
        -0.4588199257850647
      ],
      "type": "VEC4"
    },
    {
      "bufferView": 6,
      "byteOffset": 9308,
      "componentType": 5126,
      "count": 71,
      "max": [
        2.3333332538604736
      ],
      "min": [
        0.0
      ],
      "type": "SCALAR"
    },
    {
      "bufferView": 7,
      "byteOffset": 10896,
      "componentType": 5126,
      "count": 71,
      "max": [
        4.440892098500626e-16,
        7.105427357601002e-15,
        -11.837754249572754
      ],
      "min": [
        -1.3322676295501878e-15,
        -2.1316282072803006e-14,
        -11.837754249572754
      ],
      "type": "VEC3"
    },
    {
      "bufferView": 6,
      "byteOffset": 9592,
      "componentType": 5126,
      "count": 71,
      "max": [
        2.3333332538604736
      ],
      "min": [
        0.0
      ],
      "type": "SCALAR"
    },
    {
      "bufferView": 8,
      "byteOffset": 22704,
      "componentType": 5126,
      "count": 71,
      "max": [
        0.19883225858211517,
        -0.006436105817556381,
        0.21778257191181183,
        0.9812433123588562
      ],
      "min": [
        0.18609952926635742,
        -0.021925730630755424,
        -0.13019919395446777,
        0.9580690264701843
      ],
      "type": "VEC4"
    },
    {
      "bufferView": 6,
      "byteOffset": 9876,
      "componentType": 5126,
      "count": 71,
      "max": [
        2.3333332538604736
      ],
      "min": [
        0.0
      ],
      "type": "SCALAR"
    },
    {
      "bufferView": 7,
      "byteOffset": 11748,
      "componentType": 5126,
      "count": 71,
      "max": [
        -3.774758283725532e-15,
        3.1086244689504383e-15,
        -20.41215705871582
      ],
      "min": [
        -4.6629367034256575e-15,
        4.440892098500626e-16,
        -20.41215705871582
      ],
      "type": "VEC3"
    },
    {
      "bufferView": 6,
      "byteOffset": 10160,
      "componentType": 5126,
      "count": 71,
      "max": [
        2.3333332538604736
      ],
      "min": [
        0.0
      ],
      "type": "SCALAR"
    },
    {
      "bufferView": 8,
      "byteOffset": 23840,
      "componentType": 5126,
      "count": 71,
      "max": [
        -0.15869557857513428,
        -0.006964307278394699,
        0.0017629398498684168,
        0.9871812462806702
      ],
      "min": [
        -0.1683216094970703,
        -0.01690587028861046,
        -0.007905985228717327,
        0.9856758117675781
      ],
      "type": "VEC4"
    },
    {
      "bufferView": 6,
      "byteOffset": 10444,
      "componentType": 5126,
      "count": 71,
      "max": [
        2.3333332538604736
      ],
      "min": [
        0.0
      ],
      "type": "SCALAR"
    },
    {
      "bufferView": 7,
      "byteOffset": 12600,
      "componentType": 5126,
      "count": 71,
      "max": [
        2.5734622766115933e-15,
        8.046896482483135e-13,
        -19.30879020690918
      ],
      "min": [
        2.570860191397628e-15,
        7.993605777301127e-13,
        -19.30879020690918
      ],
      "type": "VEC3"
    },
    {
      "bufferView": 6,
      "byteOffset": 10728,
      "componentType": 5126,
      "count": 71,
      "max": [
        2.3333332538604736
      ],
      "min": [
        0.0
      ],
      "type": "SCALAR"
    },
    {
      "bufferView": 8,
      "byteOffset": 24976,
      "componentType": 5126,
      "count": 71,
      "max": [
        -0.036570895463228226,
        0.0065305172465741634,
        0.0013867858797311783,
        0.9991763830184937
      ],
      "min": [
        -0.04043850302696228,
        -0.005255052354186773,
        -0.04553357511758804,
        0.998279333114624
      ],
      "type": "VEC4"
    },
    {
      "bufferView": 6,
      "byteOffset": 11012,
      "componentType": 5126,
      "count": 61,
      "max": [
        2.3333332538604736
      ],
      "min": [
        0.0
      ],
      "type": "SCALAR"
    },
    {
      "bufferView": 7,
      "byteOffset": 13452,
      "componentType": 5126,
      "count": 61,
      "max": [
        -2.326600665123195e-15,
        2.311040248059726e-12,
        -19.39714241027832
      ],
      "min": [
        -2.326600665123195e-15,
        2.3088198020104755e-12,
        -19.39714241027832
      ],
      "type": "VEC3"
    },
    {
      "bufferView": 6,
      "byteOffset": 11256,
      "componentType": 5126,
      "count": 71,
      "max": [
        2.3333332538604736
      ],
      "min": [
        0.0
      ],
      "type": "SCALAR"
    },
    {
      "bufferView": 8,
      "byteOffset": 26112,
      "componentType": 5126,
      "count": 71,
      "max": [
        0.04354262724518776,
        3.486310743028298e-05,
        1.402662292093737e-06,
        0.9990524053573608
      ],
      "min": [
        0.04352366179227829,
        -2.117184158123564e-05,
        -8.523732049070532e-07,
        0.999051570892334
      ],
      "type": "VEC4"
    },
    {
      "bufferView": 6,
      "byteOffset": 11540,
      "componentType": 5126,
      "count": 71,
      "max": [
        2.3333332538604736
      ],
      "min": [
        0.0
      ],
      "type": "SCALAR"
    },
    {
      "bufferView": 7,
      "byteOffset": 14184,
      "componentType": 5126,
      "count": 71,
      "max": [
        -6.202239090559057e-15,
        89.64053344726563,
        5.511014461517334
      ],
      "min": [
        -6.202239090559057e-15,
        89.2614974975586,
        5.499931335449219
      ],
      "type": "VEC3"
    },
    {
      "bufferView": 6,
      "byteOffset": 11824,
      "componentType": 5126,
      "count": 57,
      "max": [
        2.3333332538604736
      ],
      "min": [
        0.0
      ],
      "type": "SCALAR"
    },
    {
      "bufferView": 8,
      "byteOffset": 27248,
      "componentType": 5126,
      "count": 57,
      "max": [
        -6.894093907810475e-15,
        0.7172856330871582,
        -0.6967792510986328,
        -7.0090350082034625e-15
      ],
      "min": [
        -6.8941692937427804e-15,
        0.7172781229019165,
        -0.6967869997024536,
        -7.009109547102821e-15
      ],
      "type": "VEC4"
    }
  ],
  "animations": [
    {
      "channels": [
        {
          "sampler": 0,
          "target": {
            "node": 77,
            "path": "rotation"
          }
        },
        {
          "sampler": 1,
          "target": {
            "node": 82,
            "path": "rotation"
          }
        },
        {
          "sampler": 2,
          "target": {
            "node": 80,
            "path": "translation"
          }
        },
        {
          "sampler": 3,
          "target": {
            "node": 80,
            "path": "rotation"
          }
        },
        {
          "sampler": 4,
          "target": {
            "node": 85,
            "path": "rotation"
          }
        },
        {
          "sampler": 5,
          "target": {
            "node": 83,
            "path": "translation"
          }
        },
        {
          "sampler": 6,
          "target": {
            "node": 83,
            "path": "rotation"
          }
        },
        {
          "sampler": 7,
          "target": {
            "node": 79,
            "path": "rotation"
          }
        },
        {
          "sampler": 8,
          "target": {
            "node": 76,
            "path": "translation"
          }
        },
        {
          "sampler": 9,
          "target": {
            "node": 11,
            "path": "translation"
          }
        },
        {
          "sampler": 10,
          "target": {
            "node": 11,
            "path": "rotation"
          }
        },
        {
          "sampler": 11,
          "target": {
            "node": 10,
            "path": "translation"
          }
        },
        {
          "sampler": 12,
          "target": {
            "node": 10,
            "path": "rotation"
          }
        },
        {
          "sampler": 13,
          "target": {
            "node": 9,
            "path": "rotation"
          }
        },
        {
          "sampler": 14,
          "target": {
            "node": 16,
            "path": "translation"
          }
        },
        {
          "sampler": 15,
          "target": {
            "node": 16,
            "path": "rotation"
          }
        },
        {
          "sampler": 16,
          "target": {
            "node": 15,
            "path": "translation"
          }
        },
        {
          "sampler": 17,
          "target": {
            "node": 15,
            "path": "rotation"
          }
        },
        {
          "sampler": 18,
          "target": {
            "node": 14,
            "path": "rotation"
          }
        },
        {
          "sampler": 19,
          "target": {
            "node": 24,
            "path": "translation"
          }
        },
        {
          "sampler": 20,
          "target": {
            "node": 24,
            "path": "rotation"
          }
        },
        {
          "sampler": 21,
          "target": {
            "node": 23,
            "path": "translation"
          }
        },
        {
          "sampler": 22,
          "target": {
            "node": 23,
            "path": "rotation"
          }
        },
        {
          "sampler": 23,
          "target": {
            "node": 22,
            "path": "translation"
          }
        },
        {
          "sampler": 24,
          "target": {
            "node": 22,
            "path": "rotation"
          }
        },
        {
          "sampler": 25,
          "target": {
            "node": 21,
            "path": "rotation"
          }
        },
        {
          "sampler": 26,
          "target": {
            "node": 48,
            "path": "translation"
          }
        },
        {
          "sampler": 27,
          "target": {
            "node": 48,
            "path": "rotation"
          }
        },
        {
          "sampler": 28,
          "target": {
            "node": 47,
            "path": "translation"
          }
        },
        {
          "sampler": 29,
          "target": {
            "node": 47,
            "path": "rotation"
          }
        },
        {
          "sampler": 30,
          "target": {
            "node": 46,
            "path": "translation"
          }
        },
        {
          "sampler": 31,
          "target": {
            "node": 46,
            "path": "rotation"
          }
        },
        {
          "sampler": 32,
          "target": {
            "node": 45,
            "path": "rotation"
          }
        },
        {
          "sampler": 33,
          "target": {
            "node": 70,
            "path": "translation"
          }
        },
        {
          "sampler": 34,
          "target": {
            "node": 70,
            "path": "rotation"
          }
        },
        {
          "sampler": 35,
          "target": {
            "node": 69,
            "path": "translation"
          }
        },
        {
          "sampler": 36,
          "target": {
            "node": 69,
            "path": "rotation"
          }
        },
        {
          "sampler": 37,
          "target": {
            "node": 20,
            "path": "translation"
          }
        },
        {
          "sampler": 38,
          "target": {
            "node": 20,
            "path": "rotation"
          }
        },
        {
          "sampler": 39,
          "target": {
            "node": 19,
            "path": "translation"
          }
        },
        {
          "sampler": 40,
          "target": {
            "node": 19,
            "path": "rotation"
          }
        },
        {
          "sampler": 41,
          "target": {
            "node": 8,
            "path": "translation"
          }
        },
        {
          "sampler": 42,
          "target": {
            "node": 8,
            "path": "rotation"
          }
        }
      ],
      "name": "idle",
      "samplers": [
        {
          "input": 8,
          "interpolation": "LINEAR",
          "output": 9
        },
        {
          "input": 10,
          "interpolation": "LINEAR",
          "output": 11
        },
        {
          "input": 12,
          "interpolation": "LINEAR",
          "output": 13
        },
        {
          "input": 14,
          "interpolation": "LINEAR",
          "output": 15
        },
        {
          "input": 16,
          "interpolation": "LINEAR",
          "output": 17
        },
        {
          "input": 18,
          "interpolation": "LINEAR",
          "output": 19
        },
        {
          "input": 20,
          "interpolation": "LINEAR",
          "output": 21
        },
        {
          "input": 22,
          "interpolation": "LINEAR",
          "output": 23
        },
        {
          "input": 24,
          "interpolation": "LINEAR",
          "output": 25
        },
        {
          "input": 26,
          "interpolation": "LINEAR",
          "output": 27
        },
        {
          "input": 28,
          "interpolation": "LINEAR",
          "output": 29
        },
        {
          "input": 30,
          "interpolation": "LINEAR",
          "output": 31
        },
        {
          "input": 32,
          "interpolation": "LINEAR",
          "output": 33
        },
        {
          "input": 34,
          "interpolation": "LINEAR",
          "output": 35
        },
        {
          "input": 36,
          "interpolation": "LINEAR",
          "output": 37
        },
        {
          "input": 38,
          "interpolation": "LINEAR",
          "output": 39
        },
        {
          "input": 40,
          "interpolation": "LINEAR",
          "output": 41
        },
        {
          "input": 42,
          "interpolation": "LINEAR",
          "output": 43
        },
        {
          "input": 44,
          "interpolation": "LINEAR",
          "output": 45
        },
        {
          "input": 46,
          "interpolation": "LINEAR",
          "output": 47
        },
        {
          "input": 48,
          "interpolation": "LINEAR",
          "output": 49
        },
        {
          "input": 50,
          "interpolation": "LINEAR",
          "output": 51
        },
        {
          "input": 52,
          "interpolation": "LINEAR",
          "output": 53
        },
        {
          "input": 54,
          "interpolation": "LINEAR",
          "output": 55
        },
        {
          "input": 56,
          "interpolation": "LINEAR",
          "output": 57
        },
        {
          "input": 58,
          "interpolation": "LINEAR",
          "output": 59
        },
        {
          "input": 60,
          "interpolation": "LINEAR",
          "output": 61
        },
        {
          "input": 62,
          "interpolation": "LINEAR",
          "output": 63
        },
        {
          "input": 64,
          "interpolation": "LINEAR",
          "output": 65
        },
        {
          "input": 66,
          "interpolation": "LINEAR",
          "output": 67
        },
        {
          "input": 68,
          "interpolation": "LINEAR",
          "output": 69
        },
        {
          "input": 70,
          "interpolation": "LINEAR",
          "output": 71
        },
        {
          "input": 72,
          "interpolation": "LINEAR",
          "output": 73
        },
        {
          "input": 74,
          "interpolation": "LINEAR",
          "output": 75
        },
        {
          "input": 76,
          "interpolation": "LINEAR",
          "output": 77
        },
        {
          "input": 78,
          "interpolation": "LINEAR",
          "output": 79
        },
        {
          "input": 80,
          "interpolation": "LINEAR",
          "output": 81
        },
        {
          "input": 82,
          "interpolation": "LINEAR",
          "output": 83
        },
        {
          "input": 84,
          "interpolation": "LINEAR",
          "output": 85
        },
        {
          "input": 86,
          "interpolation": "LINEAR",
          "output": 87
        },
        {
          "input": 88,
          "interpolation": "LINEAR",
          "output": 89
        },
        {
          "input": 90,
          "interpolation": "LINEAR",
          "output": 91
        },
        {
          "input": 92,
          "interpolation": "LINEAR",
          "output": 93
        }
      ]
    }
  ],
  "asset": {
    "extras": {
      "author": "DJMaesen (https://sketchfab.com/bumstrum)",
      "license": "CC-BY-4.0 (http://creativecommons.org/licenses/by/4.0/)",
      "source": "https://sketchfab.com/3d-models/knight-of-the-blood-order-98a655cb943d41d68974848ac2409559",
      "title": "knight of the blood order"
    },
    "generator": "Sketchfab-12.66.0",
    "version": "2.0"
  },
  "bufferViews": [
    {
      "buffer": 0,
      "byteLength": 48368,
      "byteStride": 8,
      "name": "shortBufferViews",
      "target": 34962
    },
    {
      "buffer": 0,
      "byteLength": 92688,
      "byteOffset": 48368,
      "name": "floatBufferViews",
      "target": 34963
    },
    {
      "buffer": 0,
      "byteLength": 48368,
      "byteOffset": 141056,
      "byteStride": 8,
      "name": "floatBufferViews",
      "target": 34962
    },
    {
      "buffer": 0,
      "byteLength": 145104,
      "byteOffset": 189424,
      "byteStride": 12,
      "name": "floatBufferViews",
      "target": 34962
    },
    {
      "buffer": 0,
      "byteLength": 193472,
      "byteOffset": 334528,
      "byteStride": 16,
      "name": "floatBufferViews",
      "target": 34962
    },
    {
      "buffer": 0,
      "byteLength": 4160,
      "byteOffset": 528000,
      "name": "floatBufferViews"
    },
    {
      "buffer": 0,
      "byteLength": 12052,
      "byteOffset": 532160,
      "name": "floatBufferViews"
    },
    {
      "buffer": 0,
      "byteLength": 15036,
      "byteOffset": 544212,
      "byteStride": 12,
      "name": "floatBufferViews"
    },
    {
      "buffer": 0,
      "byteLength": 28160,
      "byteOffset": 559248,
      "byteStride": 16,
      "name": "floatBufferViews"
    }
  ],
  "buffers": [
    {
      "byteLength": 587408,
      "uri": "scene.bin"
    }
  ],
  "images": [
    {
      "uri": "textures/material_baseColor.png"
    },
    {
      "uri": "textures/material_metallicRoughness.png"
    },
    {
      "uri": "textures/material_emissive.png"
    },
    {
      "uri": "textures/material_normal.png"
    }
  ],
  "materials": [
    {
      "emissiveFactor": [
        1.0,
        1.0,
        1.0
      ],
      "emissiveTexture": {
        "index": 2
      },
      "name": "material",
      "normalTexture": {
        "index": 3
      },
      "occlusionTexture": {
        "index": 1
      },
      "pbrMetallicRoughness": {
        "baseColorTexture": {
          "index": 0
        },
        "metallicRoughnessTexture": {
          "index": 1
        }
      }
    }
  ],
  "meshes": [
    {
      "name": "mesh_Mat_0",
      "primitives": [
        {
          "attributes": {
            "JOINTS_0": 6,
            "NORMAL": 1,
            "POSITION": 0,
            "TANGENT": 2,
            "TEXCOORD_0": 3,
            "TEXCOORD_1": 3,
            "TEXCOORD_2": 3,
            "TEXCOORD_3": 3,
            "WEIGHTS_0": 7
          },
          "indices": 4,
          "material": 0,
          "mode": 4
        }
      ]
    }
  ],
  "nodes": [
    {
      "children": [
        1
      ],
      "matrix": [
        1.0,
        0.0,
        0.0,
        0.0,
        0.0,
        2.220446049250313e-16,
        -1.0,
        0.0,
        0.0,
        1.0,
        2.220446049250313e-16,
        0.0,
        0.0,
        0.0,
        0.0,
        1.0
      ],
      "name": "Sketchfab_model"
    },
    {
      "children": [
        2
      ],
      "matrix": [
        1.0,
        0.0,
        0.0,
        0.0,
        0.0,
        0.0,
        1.0,
        0.0,
        0.0,
        -1.0,
        0.0,
        0.0,
        0.0,
        0.0,
        0.0,
        1.0
      ],
      "name": "7cb42ec3b97449759d917382b57986f0.fbx"
    },
    {
      "children": [
        3
      ],
      "name": "Object_2"
    },
    {
      "children": [
        4
      ],
      "name": "RootNode"
    },
    {
      "children": [
        5,
        7,
        6,
        72,
        73,
        74,
        75,
        76,
        87
      ],
      "name": "Object_4"
    },
    {
      "children": [
        8
      ],
      "name": "_rootJoint"
    },
    {
      "matrix": [
        0.9999999999999999,
        0.0,
        -1.09392820841195e-31,
        0.0,
        0.0,
        1.0,
        0.0,
        0.0,
        1.0939282084119502e-31,
        0.0,
        1.0,
        0.0,
        7.105427357600998e-15,
        90.25500419887186,
        7.262473725170377,
        1.0
      ],
      "name": "Object_6"
    },
    {
      "mesh": 0,
      "name": "Object_7",
      "skin": 0
    },
    {
      "children": [
        9,
        14,
        19
      ],
      "name": "hips_01",
      "rotation": [
        -6.8941692937427804e-15,
        0.7172781229019165,
        -0.6967869997024536,
        -7.009035431719936e-15
      ],
      "translation": [
        -6.202239090559057e-15,
        89.2614974975586,
        5.499931335449219
      ]
    },
    {
      "children": [
        10
      ],
      "name": "R_leg_02",
      "rotation": [
        0.6840440034866333,
        0.7259806990623474,
        -0.05026362091302872,
        -0.05009427294135094
      ],
      "translation": [
        9.96707820892334,
        -1.3858275413513184,
        0.8421609997749329
      ]
    },
    {
      "children": [
        11
      ],
      "name": "R_knee_03",
      "rotation": [
        -0.017929736524820328,
        -0.1001838818192482,
        -0.002872551791369915,
        0.994803249835968
      ],
      "translation": [
        -1.509903313490213e-14,
        -1.2434497875801753e-13,
        -34.75106430053711
      ]
    },
    {
      "children": [
        12
      ],
      "name": "R_ankle_04",
      "rotation": [
        0.0014964686706662178,
        0.4453498423099518,
        -0.15186771750450134,
        0.8823817372322083
      ],
      "translation": [
        2.7533531010703882e-14,
        -1.0658141036401503e-14,
        -40.972957611083984
      ]
    },
    {
      "children": [
        13
      ],
      "name": "R_foot_05",
      "rotation": [
        -0.000928154680877924,
        0.30123335123062134,
        0.00029321081819944084,
        0.9535499811172485
      ],
      "translation": [
        -4.973799150320701e-14,
        -1.4210854715202004e-14,
        -12.985694885253906
      ]
    },
    {
      "name": "R_toes_06",
      "rotation": [
        2.7755575615628914e-17,
        4.0245584642661925e-16,
        6.245004513516506e-17,
        1.0
      ],
      "translation": [
        -2.930988785010413e-14,
        7.105427357601002e-15,
        -12.151341438293457
      ]
    },
    {
      "children": [
        15
      ],
      "name": "L_leg_07",
      "rotation": [
        0.7605564594268799,
        -0.6429017186164856,
        -0.03642943874001503,
        -0.08309251815080643
      ],
      "translation": [
        -9.96707820892334,
        -1.3858275413513184,
        0.8421609997749329
      ]
    },
    {
      "children": [
        16
      ],
      "name": "L_knee_08",
      "rotation": [
        -0.032064616680145264,
        0.17916369438171387,
        0.002839313820004463,
        0.9832925200462341
      ],
      "translation": [
        2.4868995751603507e-14,
        -3.552713678800501e-14,
        -34.75106430053711
      ]
    },
    {
      "children": [
        17
      ],
      "name": "L_ankle_09",
      "rotation": [
        0.058145180344581604,
        -0.44838058948516846,
        0.178574338555336,
        0.8738908171653748
      ],
      "translation": [
        -1.4654943925052066e-14,
        -2.6645352591003757e-14,
        -40.972957611083984
      ]
    },
    {
      "children": [
        18
      ],
      "name": "L_foot_010",
      "rotation": [
        -0.000928154680877924,
        -0.30123335123062134,
        -0.00029321081819944084,
        0.9535499811172485
      ],
      "translation": [
        1.9539925233402755e-14,
        -3.197442310920451e-14,
        -12.985694885253906
      ]
    },
    {
      "name": "L_toes_011",
      "rotation": [
        1.3877787807814457e-17,
        -3.885780586188048e-16,
        9.367506770274758e-17,
        1.0
      ],
      "translation": [
        2.398081733190338e-14,
        -8.881784197001252e-15,
        -12.151341438293457
      ]
    },
    {
      "children": [
        20
      ],
      "name": "spine_012",
      "rotation": [
        0.04352366179227829,
        -2.117184158123564e-05,
        -8.523732049070532e-07,
        0.9990524053573608
      ],
      "translation": [
        -2.326600665123195e-15,
        2.3101520696400257e-12,
        -19.39714241027832
      ]
    },
    {
      "children": [
        21,
        45,
        69
      ],
      "name": "chest_013",
      "rotation": [
        -0.036570899188518524,
        -0.005255052354186773,
        -0.04553357511758804,
        0.998279333114624
      ],
      "translation": [
        2.5717275531356165e-15,
        8.029132914089132e-13,
        -19.30879020690918
      ]
    },
    {
      "children": [
        22
      ],
      "name": "L_shoulder_014",
      "rotation": [
        -0.5181407332420349,
        0.5615292191505432,
        -0.4691125154495239,
        0.44288668036460876
      ],
      "translation": [
        -7.975682735443115,
        0.4680839776992798,
        -14.464112281799316
      ]
    },
    {
      "children": [
        23
      ],
      "name": "L_arm_015",
      "rotation": [
        -0.46690431237220764,
        0.10145845264196396,
        0.06135275959968567,
        0.8763232231140137
      ],
      "translation": [
        -6.217248937900877e-15,
        0.0,
        -11.892090797424316
      ]
    },
    {
      "children": [
        24
      ],
      "name": "L_elbow_016",
      "rotation": [
        -0.029181068763136864,
        -0.20428664982318878,
        -0.28244584798812866,
        0.9368243217468262
      ],
      "translation": [
        -3.552713678800501e-15,
        0.0,
        -21.18256950378418
      ]
    },
    {
      "children": [
        25,
        29,
        33,
        37,
        41
      ],
      "name": "L_wrist_017",
      "rotation": [
        -0.06976144760847092,
        -0.0028728514444082975,
        -2.0728758336543973e-13,
        0.997559666633606
      ],
      "translation": [
        -7.993605777301127e-15,
        -4.263256414560601e-14,
        -28.225561141967773
      ]
    },
    {
      "children": [
        26
      ],
      "name": "L_thumb_018",
      "rotation": [
        0.02072015218436718,
        -0.397597998380661,
        -0.601491391658783,
        0.692599892616272
      ],
      "translation": [
        3.094385862350464,
        -1.8146355152130127,
        -3.5379505157470703
      ]
    },
    {
      "children": [
        27
      ],
      "name": "L_thumb_2_019",
      "rotation": [
        -0.22259919345378876,
        0.018929222598671913,
        0.0043229274451732635,
        0.9747166633605957
      ],
      "translation": [
        -2.3092638912203256e-14,
        5.684341886080802e-14,
        -5.579753875732422
      ]
    },
    {
      "children": [
        28
      ],
      "name": "L_thumb_3_020",
      "rotation": [
        -0.10134289413690567,
        -0.01760665327310562,
        -0.0017938268138095737,
        0.9946942329406738
      ],
      "translation": [
        -8.881784197001252e-15,
        -7.105427357601002e-15,
        -2.726592540740967
      ]
    },
    {
      "name": "L_thumb_4_021",
      "rotation": [
        1.218860082308204e-15,
        -5.696940315325083e-16,
        -2.7755575615628914e-17,
        1.0
      ],
      "translation": [
        -4.263256414560601e-14,
        1.4210854715202004e-14,
        -2.7748007774353027
      ]
    },
    {
      "children": [
        30
      ],
      "name": "L_point_022",
      "rotation": [
        -0.15087731182575226,
        0.01657990552484989,
        -0.04253445193171501,
        0.9874979257583618
      ],
      "translation": [
        3.568040609359741,
        0.20811177790164948,
        -13.076821327209473
      ]
    },
    {
      "children": [
        31
      ],
      "name": "L_point_2_023",
      "rotation": [
        -0.18107357621192932,
        0.03299880772829056,
        0.006079184357076883,
        0.9828969836235046
      ],
      "translation": [
        1.4210854715202004e-14,
        0.0,
        -3.248708724975586
      ]
    },
    {
      "children": [
        32
      ],
      "name": "L_point_3_024",
      "rotation": [
        -0.12737609446048737,
        0.04978755861520767,
        0.0064020296558737755,
        0.9905834197998047
      ],
      "translation": [
        3.552713678800501e-15,
        5.3290705182007514e-15,
        -2.999971866607666
      ]
    },
    {
      "name": "L_point_4_025",
      "rotation": [
        5.488665077990618e-15,
        9.992007221626409e-16,
        1.1102230246251565e-16,
        1.0
      ],
      "translation": [
        -3.552713678800501e-15,
        6.039613253960852e-14,
        -2.691826105117798
      ]
    },
    {
      "children": [
        34
      ],
      "name": "L_middle_026",
      "rotation": [
        -0.2263369858264923,
        0.028126072138547897,
        -0.019462700933218002,
        0.9734484553337097
      ],
      "translation": [
        0.25366654992103577,
        0.7305945158004761,
        -13.17193603515625
      ]
    },
    {
      "children": [
        35
      ],
      "name": "L_middle_2_027",
      "rotation": [
        -0.2591349184513092,
        -0.017589060589671135,
        -0.004719979595392942,
        0.9656694531440735
      ],
      "translation": [
        -9.769962616701378e-15,
        -2.4868995751603507e-14,
        -4.325644493103027
      ]
    },
    {
      "children": [
        36
      ],
      "name": "L_middle_3_028",
      "rotation": [
        -0.09644466638565063,
        -0.009032636880874634,
        -0.0008752659196034074,
        0.9952970743179321
      ],
      "translation": [
        -1.687538997430238e-14,
        6.394884621840902e-14,
        -3.1103522777557373
      ]
    },
    {
      "name": "L_middle_4_029",
      "rotation": [
        1.1900203045200897e-15,
        1.817990202823694e-15,
        -1.1102230246251565e-16,
        1.0
      ],
      "translation": [
        -7.105427357601002e-15,
        -1.4210854715202004e-14,
        -2.8941872119903564
      ]
    },
    {
      "children": [
        38
      ],
      "name": "L_ring_030",
      "rotation": [
        -0.3583173155784607,
        0.10642653703689575,
        0.14116524159908295,
        0.9167085289955139
      ],
      "translation": [
        -2.411142587661743,
        -0.8036350011825562,
        -12.643804550170898
      ]
    },
    {
      "children": [
        39
      ],
      "name": "L_ring_2_031",
      "rotation": [
        -0.15385261178016663,
        -0.014313646592199802,
        -0.00222896714694798,
        0.9879876375198364
      ],
      "translation": [
        -1.865174681370263e-14,
        -5.861977570020827e-14,
        -3.3094778060913086
      ]
    },
    {
      "children": [
        40
      ],
      "name": "L_ring_3_032",
      "rotation": [
        -0.20488497614860535,
        0.010901697911322117,
        0.002282152185216546,
        0.9787226915359497
      ],
      "translation": [
        8.476638946319781e-09,
        -1.448444919560643e-09,
        -3.030961275100708
      ]
    },
    {
      "name": "L_ring_4_033",
      "rotation": [
        3.706236706424448e-15,
        3.469446951953614e-17,
        -3.469446951953614e-17,
        1.0
      ],
      "translation": [
        -1.865174681370263e-14,
        4.263256414560601e-14,
        -3.301671266555786
      ]
    },
    {
      "children": [
        42
      ],
      "name": "L_pink_034",
      "rotation": [
        -0.4813612699508667,
        0.12495991587638855,
        0.24005185067653656,
        0.833697497844696
      ],
      "translation": [
        -4.459334373474121,
        -2.927109718322754,
        -10.928704261779785
      ]
    },
    {
      "children": [
        43
      ],
      "name": "L_pink_2_035",
      "rotation": [
        -0.17939144372940063,
        -0.0027940066065639257,
        -0.0005094879888929427,
        0.9837737679481506
      ],
      "translation": [
        -1.0658141036401503e-14,
        -7.105427357601002e-15,
        -2.6656038761138916
      ]
    },
    {
      "children": [
        44
      ],
      "name": "L_pink_3_036",
      "rotation": [
        -0.16444317996501923,
        -0.02369076758623123,
        -0.00395073089748621,
        0.9860941171646118
      ],
      "translation": [
        -1.5987211554602254e-14,
        8.526512829121202e-14,
        -1.6605558395385742
      ]
    },
    {
      "name": "L_pink_4_037",
      "rotation": [
        -9.577408310867952e-15,
        -4.558853294867049e-15,
        1.5265566588595902e-16,
        1.0
      ],
      "translation": [
        2.4868995751603507e-14,
        -5.684341886080802e-14,
        -2.4755752086639404
      ]
    },
    {
      "children": [
        46
      ],
      "name": "R_shoulder_038",
      "rotation": [
        0.5317196249961853,
        0.5485957860946655,
        -0.45365312695503235,
        -0.4588199257850647
      ],
      "translation": [
        7.975682735443115,
        0.4680839776992798,
        -14.464112281799316
      ]
    },
    {
      "children": [
        47
      ],
      "name": "R_arm_039",
      "rotation": [
        -0.4745902121067047,
        -0.12819792330265045,
        -0.10598433017730713,
        0.8643475770950317
      ],
      "translation": [
        -2.6645352591003757e-15,
        -8.526512829121202e-14,
        -11.892090797424316
      ]
    },
    {
      "children": [
        48
      ],
      "name": "R_elbow_040",
      "rotation": [
        -0.04423273354768753,
        0.23327036201953888,
        0.23780111968517303,
        0.9418487548828125
      ],
      "translation": [
        -4.701549372043701e-09,
        -2.252875219710404e-09,
        -21.18256950378418
      ]
    },
    {
      "children": [
        49,
        53,
        57,
        61,
        65
      ],
      "name": "R_wrist_041",
      "rotation": [
        -0.08336997032165527,
        -0.03582555800676346,
        -2.6148025666352867e-14,
        0.9958744645118713
      ],
      "translation": [
        4.5289105798929086e-09,
        1.0010865025833482e-08,
        -28.225561141967773
      ]
    },
    {
      "children": [
        50
      ],
      "name": "R_thumb_042",
      "rotation": [
        0.02072015032172203,
        0.397597998380661,
        0.601491391658783,
        0.692599892616272
      ],
      "translation": [
        -3.094385862350464,
        -1.8146355152130127,
        -3.5379505157470703
      ]
    },
    {
      "children": [
        51
      ],
      "name": "R_thumb_2_043",
      "rotation": [
        -0.22259919345378876,
        -0.018929222598671913,
        -0.0043229274451732635,
        0.9747166633605957
      ],
      "translation": [
        -1.4210854715202004e-14,
        2.842170943040401e-14,
        -5.579753875732422
      ]
    },
    {
      "children": [
        52
      ],
      "name": "R_thumb_3_044",
      "rotation": [
        -0.10134289413690567,
        0.01760665327310562,
        0.0017938268138095737,
        0.9946942329406738
      ],
      "translation": [
        2.842170943040401e-14,
        -1.4210854715202004e-14,
        -2.726592540740967
      ]
    },
    {
      "name": "R_thumb_4_045",
      "rotation": [
        1.2923689896027213e-15,
        7.936359902593892e-16,
        2.7755575615628914e-17,
        1.0
      ],
      "translation": [
        4.263256414560601e-14,
        0.0,
        -2.7748007774353027
      ]
    },
    {
      "children": [
        54
      ],
      "name": "R_point_046",
      "rotation": [
        -0.15087731182575226,
        -0.01657990738749504,
        0.04253445565700531,
        0.9874979257583618
      ],
      "translation": [
        -3.568040609359741,
        0.20811176300048828,
        -13.076821327209473
      ]
    },
    {
      "children": [
        55
      ],
      "name": "R_point_2_047",
      "rotation": [
        -0.18107357621192932,
        -0.03299880772829056,
        -0.006079184357076883,
        0.9828969836235046
      ],
      "translation": [
        7.105427357601002e-15,
        -4.263256414560601e-14,
        -3.248708724975586
      ]
    },
    {
      "children": [
        56
      ],
      "name": "R_point_3_00",
      "rotation": [
        -0.12737609446048737,
        -0.04978755861520767,
        -0.0064020296558737755,
        0.9905834197998047
      ],
      "translation": [
        1.5987211554602254e-14,
        2.4868995751603507e-14,
        -2.999971866607666
      ]
    },
    {
      "name": "R_point_4_048",
      "rotation": [
        5.2111093218343285e-15,
        -8.604228440844963e-16,
        2.7755575615628914e-17,
        1.0
      ],
      "translation": [
        -1.7763568394002505e-15,
        4.618527782440651e-14,
        -2.691826105117798
      ]
    },
    {
      "children": [
        58
      ],
      "name": "R_middle_049",
      "rotation": [
        -0.2263369858264923,
        -0.028126074001193047,
        0.0194627046585083,
        0.9734484553337097
      ],
      "translation": [
        -0.25366654992103577,
        0.7305945158004761,
        -13.17193603515625
      ]
    },
    {
      "children": [
        59
      ],
      "name": "R_middle_2_050",
      "rotation": [
        -0.2591349184513092,
        0.017589060589671135,
        0.004719979595392942,
        0.9656694531440735
      ],
      "translation": [
        1.7763568394002505e-14,
        -9.237055564881302e-14,
        -4.325644493103027
      ]
    },
    {
      "children": [
        60
      ],
      "name": "R_middle_3_051",
      "rotation": [
        -0.09644466638565063,
        0.009032636880874634,
        0.0008752659196034074,
        0.9952970743179321
      ],
      "translation": [
        1.0658141036401503e-14,
        7.460698725481052e-14,
        -3.1103522777557373
      ]
    },
    {
      "name": "R_middle_4_052",
      "rotation": [
        1.970645868709653e-15,
        -1.887379141862766e-15,
        3.71935590860063e-30,
        1.0
      ],
      "translation": [
        1.4210854715202004e-14,
        -1.4210854715202004e-14,
        -2.8941872119903564
      ]
    },
    {
      "children": [
        62
      ],
      "name": "R_ring_053",
      "rotation": [
        -0.3583173155784607,
        -0.10642653703689575,
        -0.14116524159908295,
        0.9167085289955139
      ],
      "translation": [
        2.411142587661743,
        -0.8036349415779114,
        -12.643804550170898
      ]
    },
    {
      "children": [
        63
      ],
      "name": "R_ring_2_054",
      "rotation": [
        -0.15385261178016663,
        0.014313646592199802,
        0.00222896714694798,
        0.9879876375198364
      ],
      "translation": [
        -3.552713678800501e-14,
        1.538325022920617e-12,
        -3.3094778060913086
      ]
    },
    {
      "children": [
        64
      ],
      "name": "R_ring_3_055",
      "rotation": [
        -0.20488497614860535,
        -0.010901697911322117,
        -0.002282152185216546,
        0.9787226915359497
      ],
      "translation": [
        -8.4766398344982e-09,
        -1.4484484722743218e-09,
        -3.030961275100708
      ]
    },
    {
      "name": "R_ring_4_056",
      "rotation": [
        3.868595981754153e-15,
        3.3306690738754696e-16,
        -2.168404344971009e-18,
        1.0
      ],
      "translation": [
        1.4210854715202004e-14,
        7.105427357601002e-14,
        -3.301671266555786
      ]
    },
    {
      "children": [
        66
      ],
      "name": "R_pink_057",
      "rotation": [
        -0.4813612699508667,
        -0.12495991587638855,
        -0.24005185067653656,
        0.833697497844696
      ],
      "translation": [
        4.459334373474121,
        -2.927109718322754,
        -10.928704261779785
      ]
    },
    {
      "children": [
        67
      ],
      "name": "R_pink_2_058",
      "rotation": [
        -0.17939144372940063,
        0.0027940066065639257,
        0.0005094879888929427,
        0.9837737679481506
      ],
      "translation": [
        1.1723955140041653e-13,
        8.100187187665142e-13,
        -2.6656038761138916
      ]
    },
    {
      "children": [
        68
      ],
      "name": "R_pink_3_059",
      "rotation": [
        -0.16444317996501923,
        0.02369076758623123,
        0.003950716461986303,
        0.9860941171646118
      ],
      "translation": [
        1.5987211554602254e-14,
        5.684341886080802e-14,
        -1.6605558395385742
      ]
    },
    {
      "name": "R_pink_4_060",
      "rotation": [
        3.3803052024161673e-10,
        -2.2816031286509997e-09,
        1.053671194739536e-08,
        1.0
      ],
      "translation": [
        1.1296549473627238e-08,
        1.6736265706640552e-09,
        -2.4755752086639404
      ]
    },
    {
      "children": [
        70
      ],
      "name": "neck_061",
      "rotation": [
        -0.1683216243982315,
        -0.006964308209717274,
        -0.007905986160039902,
        0.9856759309768677
      ],
      "translation": [
        -4.3298697960381105e-15,
        2.6645352591003757e-15,
        -20.41215705871582
      ]
    },
    {
      "children": [
        71
      ],
      "name": "head_062",
      "rotation": [
        0.18609952926635742,
        -0.006436104886233807,
        0.21778257191181183,
        0.9580690264701843
      ],
      "translation": [
        0.0,
        -7.105427357601002e-15,
        -11.837754249572754
      ]
    },
    {
      "name": "top_063",
      "rotation": [
        2.706168622523819e-16,
        -5.6994452560243936e-12,
        -3.885780586188048e-16,
        1.0
      ],
      "translation": [
        2.213216276913954e-10,
        1.7763568394002505e-14,
        -19.415691375732422
      ]
    },
    {
      "name": "R_ankle_Goal",
      "rotation": [
        0.6750894784927368,
        -0.5932968258857727,
        -0.1640383005142212,
        -0.40662577748298645
      ],
      "translation": [
        -18.611587524414063,
        14.289143562316895,
        -3.6842634677886963
      ]
    },
    {
      "name": "L_ankle_Goal",
      "rotation": [
        0.6620022654533386,
        0.6202163696289063,
        0.21073058247566223,
        -0.36424896121025085
      ],
      "translation": [
        13.601447105407715,
        14.106427192687988,
        2.912795066833496
      ]
    },
    {
      "name": "R_leg_Pole",
      "rotation": [
        -0.4481313228607178,
        0.41625165939331055,
        0.5280588269233704,
        0.5891237258911133
      ],
      "translation": [
        -28.679964065551758,
        45.89743423461914,
        57.65103530883789
      ]
    },
    {
      "name": "L_leg_Pole",
      "rotation": [
        -0.4481313228607178,
        -0.41625165939331055,
        -0.5280588269233704,
        0.5891237258911133
      ],
      "translation": [
        12.89802074432373,
        45.396419525146484,
        57.65103530883789
      ]
    },
    {
      "children": [
        77,
        78
      ],
      "name": "hipcontrol",
      "rotation": [
        -6.893287532444689e-15,
        0.7173657417297363,
        -0.6966967582702637,
        -7.009902369941451e-15
      ],
      "translation": [
        -6.202239090559057e-15,
        89.2614974975586,
        5.499931335449219
      ]
    },
    {
      "name": "headcontrol",
      "rotation": [
        0.02778582274913788,
        0.016520462930202484,
        0.16478078067302704,
        0.9858003258705139
      ],
      "translation": [
        7.653294366522304e-14,
        -1.802119493484497,
        -70.26808166503906
      ]
    },
    {
      "children": [
        79
      ],
      "name": "spinecontrol",
      "rotation": [
        0.040222860872745514,
        1.2111166923928625e-16,
        -1.2364392717466218e-16,
        0.9991907477378845
      ],
      "translation": [
        -2.290098839052455e-15,
        -3.9968028886505635e-15,
        -19.39714241027832
      ]
    },
    {
      "children": [
        80,
        83,
        86
      ],
      "name": "chestcontrol",
      "rotation": [
        -0.025601835921406746,
        -0.005787871778011322,
        -0.054265256971120834,
        0.9981815218925476
      ],
      "translation": [
        -1.0519984880506643e-14,
        0.14519740641117096,
        -19.308244705200195
      ]
    },
    {
      "children": [
        81,
        82
      ],
      "name": "R_arm_Goal",
      "rotation": [
        0.6697879433631897,
        0.5807051658630371,
        -0.2867637574672699,
        -0.36322468519210815
      ],
      "translation": [
        19.69257354736328,
        0.7351857423782349,
        -12.485367774963379
      ]
    },
    {
      "name": "R_arm_Pole",
      "rotation": [
        -0.047248244285583496,
        0.10308342427015305,
        0.00490218959748745,
        0.9935377836227417
      ],
      "translation": [
        82.66504669189453,
        -13.914143562316895,
        -13.49775218963623
      ]
    },
    {
      "name": "R_wrist_Goal",
      "rotation": [
        -0.3639116585254669,
        0.09310922771692276,
        -0.01120475772768259,
        0.9267002940177917
      ],
      "translation": [
        -2.5862655639648438,
        -26.83656120300293,
        -39.73834228515625
      ]
    },
    {
      "children": [
        84,
        85
      ],
      "name": "L_arm_Goal",
      "rotation": [
        0.6697879433631897,
        -0.5807051658630371,
        0.2867637574672699,
        -0.36322468519210815
      ],
      "translation": [
        -19.69257354736328,
        0.7351857423782349,
        -12.485367774963379
      ]
    },
    {
      "name": "L_arm_Pole",
      "rotation": [
        -0.047248244285583496,
        -0.10308342427015305,
        -0.004902200307697058,
        0.9935377836227417
      ],
      "translation": [
        -84.88185119628906,
        -10.03591251373291,
        -21.487714767456055
      ]
    },
    {
      "name": "L_wrist_Goal",
      "rotation": [
        -0.3498762547969818,
        -0.10837794840335846,
        -0.07379504293203354,
        0.927574872970581
      ],
      "translation": [
        -0.22850050032138824,
        -26.92527961730957,
        -40.174705505371094
      ]
    },
    {
      "name": "neckcontrol",
      "rotation": [
        -0.12525208294391632,
        -3.0686557370265865e-15,
        -3.9440037780977364e-16,
        0.9921249747276306
      ],
      "translation": [
        3.9968028886505635e-15,
        -0.25733107328414917,
        -20.410533905029297
      ]
    },
    {
      "name": "mesh",
      "translation": [
        7.105427357601002e-15,
        90.2550048828125,
        7.2624735832214355
      ]
    }
  ],
  "samplers": [
    {
      "magFilter": 9729,
      "minFilter": 9987,
      "wrapS": 10497,
      "wrapT": 10497
    }
  ],
  "scene": 0,
  "scenes": [
    {
      "name": "Sketchfab_Scene",
      "nodes": [
        0
      ]
    }
  ],
  "skins": [
    {
      "inverseBindMatrices": 5,
      "joints": [
        5,
        8,
        9,
        10,
        11,
        12,
        13,
        14,
        15,
        16,
        17,
        18,
        19,
        20,
        21,
        22,
        23,
        24,
        25,
        26,
        27,
        28,
        29,
        30,
        31,
        32,
        33,
        34,
        35,
        36,
        37,
        38,
        39,
        40,
        41,
        42,
        43,
        44,
        45,
        46,
        47,
        48,
        49,
        50,
        51,
        52,
        53,
        54,
        55,
        56,
        57,
        58,
        59,
        60,
        61,
        62,
        63,
        64,
        65,
        66,
        67,
        68,
        69,
        70,
        71
      ],
      "skeleton": 5
    }
  ],
  "textures": [
    {
      "sampler": 0,
      "source": 0
    },
    {
      "sampler": 0,
      "source": 1
    },
    {
      "sampler": 0,
      "source": 2
    },
    {
      "sampler": 0,
      "source": 3
    }
  ]
}
