{
  "accessors": [
    {
      "bufferView": 3,
      "componentType": 5126,
      "count": 62,
      "max": [
        1.6835566759109497,
        -15.933270454406738,
        1.3365265130996704
      ],
      "min": [
        -1.8272100687026978,
        -19.713499069213867,
        -0.5130755305290222
      ],
      "type": "VEC3"
    },
    {
      "bufferView": 3,
      "byteOffset": 744,
      "componentType": 5126,
      "count": 62,
      "max": [
        0.557572603225708,
        0.7531684041023254,
        0.8978488445281982
      ],
      "min": [
        -0.8093872666358948,
        -0.7531684041023254,
        -0.9060198068618774
      ],
      "type": "VEC3"
    },
    {
      "bufferView": 4,
      "componentType": 5126,
      "count": 62,
      "max": [
        0.8056157827377319,
        0.38951197266578674,
        0.5037016868591309,
        1.0
      ],
      "min": [
        -0.308978796005249,
        -0.7514702677726746,
        -0.9293705821037292,
        -1.0
      ],
      "type": "VEC4"
    },
    {
      "bufferView": 2,
      "componentType": 5126,
      "count": 62,
      "max": [
        0.9843854308128357,
        0.9392009973526001
      ],
      "min": [
        0.03964662551879883,
        0.034113168716430664
      ],
      "type": "VEC2"
    },
    {
      "bufferView": 1,
      "componentType": 5125,
      "count": 114,
      "type": "SCALAR"
    },
    {
      "bufferView": 3,
      "byteOffset": 1488,
      "componentType": 5126,
      "count": 31,
      "max": [
        2.5152783393859863,
        -15.170900344848633,
        0.4595015347003937
      ],
      "min": [
        0.30450692772865295,
        -17.718358993530273,
        -0.951842188835144
      ],
      "type": "VEC3"
    },
    {
      "bufferView": 3,
      "byteOffset": 1860,
      "componentType": 5126,
      "count": 31,
      "max": [
        0.9880436658859253,
        0.8884910941123962,
        0.9136757850646973
      ],
      "min": [
        -0.7228755950927734,
        -0.6240873336791992,
        -0.9193446040153503
      ],
      "type": "VEC3"
    },
    {
      "bufferView": 4,
      "byteOffset": 992,
      "componentType": 5126,
      "count": 31,
      "max": [
        0.7398391366004944,
        0.7844664454460144,
        0.9040840268135071,
        1.0
      ],
      "min": [
        -0.8916405439376831,
        -0.7778176665306091,
        -0.9082425832748413,
        1.0
      ],
      "type": "VEC4"
    },
    {
      "bufferView": 2,
      "byteOffset": 496,
      "componentType": 5126,
      "count": 31,
      "max": [
        0.8402885794639587,
        0.910226583480835
      ],
      "min": [
        0.15079200267791748,
        0.026796935126185417
      ],
      "type": "VEC2"
    },
    {
      "bufferView": 1,
      "byteOffset": 456,
      "componentType": 5125,
      "count": 90,
      "type": "SCALAR"
    },
    {
      "bufferView": 3,
      "byteOffset": 2232,
      "componentType": 5126,
      "count": 479,
      "max": [
        2.7534871101379395,
        -14.823752403259277,
        1.073039174079895
      ],
      "min": [
        -0.5434443950653076,
        -19.001544952392578,
        -1.3221105337142944
      ],
      "type": "VEC3"
    },
    {
      "bufferView": 3,
      "byteOffset": 7980,
      "componentType": 5126,
      "count": 479,
      "max": [
        0.9901255965232849,
        0.9968152046203613,
        0.922701358795166
      ],
      "min": [
        -0.9901256561279297,
        -0.9968152642250061,
        -0.922701358795166
      ],
      "type": "VEC3"
    },
    {
      "bufferView": 4,
      "byteOffset": 1488,
      "componentType": 5126,
      "count": 479,
      "max": [
        0.999386727809906,
        0.986075222492218,
        0.9952993392944336,
        1.0
      ],
      "min": [
        -0.9437153339385986,
        -0.9862905144691467,
        -0.9911550879478455,
        1.0
      ],
      "type": "VEC4"
    },
    {
      "bufferView": 2,
      "byteOffset": 744,
      "componentType": 5126,
      "count": 479,
      "max": [
        0.9999272227287292,
        0.5308356285095215
      ],
      "min": [
        7.284816820174456e-05,
        7.284816820174456e-05
      ],
      "type": "VEC2"
    },
    {
      "bufferView": 1,
      "byteOffset": 816,
      "componentType": 5125,
      "count": 2640,
      "type": "SCALAR"
    },
    {
      "bufferView": 3,
      "byteOffset": 13728,
      "componentType": 5126,
      "count": 38,
      "max": [
        1.8138264417648315,
        -15.778959274291992,
        0.4967308044433594
      ],
      "min": [
        0.16637694835662842,
        -17.894487380981445,
        -0.6143866181373596
      ],
      "type": "VEC3"
    },
    {
      "bufferView": 3,
      "byteOffset": 14184,
      "componentType": 5126,
      "count": 38,
      "max": [
        0.7217156887054443,
        0.5986762046813965,
        0.9338918328285217
      ],
      "min": [
        -0.9869136810302734,
        -0.8682286143302917,
        -0.9005441069602966
      ],
      "type": "VEC3"
    },
    {
      "bufferView": 4,
      "byteOffset": 9152,
      "componentType": 5126,
      "count": 38,
      "max": [
        0.9501232504844666,
        0.9641490578651428,
        0.4490830898284912,
        1.0
      ],
      "min": [
        -0.991734504699707,
        -0.7423904538154602,
        -0.9359257221221924,
        1.0
      ],
      "type": "VEC4"
    },
    {
      "bufferView": 2,
      "byteOffset": 4576,
      "componentType": 5126,
      "count": 38,
      "max": [
        0.9172455668449402,
        0.9999042749404907
      ],
      "min": [
        9.575486183166504e-05,
        9.575486183166504e-05
      ],
      "type": "VEC2"
    },
    {
      "bufferView": 1,
      "byteOffset": 11376,
      "componentType": 5125,
      "count": 150,
      "type": "SCALAR"
    },
    {
      "bufferView": 3,
      "byteOffset": 14640,
      "componentType": 5126,
      "count": 20,
      "max": [
        1.840133547782898,
        -15.798357963562012,
        0.5033867955207825
      ],
      "min": [
        0.2412843555212021,
        -17.78989601135254,
        -0.6669474840164185
      ],
      "type": "VEC3"
    },
    {
      "bufferView": 3,
      "byteOffset": 14880,
      "componentType": 5126,
      "count": 20,
      "max": [
        0.9893606305122375,
        0.8775246739387512,
        0.9050185084342957
      ],
      "min": [
        -0.7224668264389038,
        -0.6105623841285706,
        -0.9050185084342957
      ],
      "type": "VEC3"
    },
    {
      "bufferView": 2,
      "byteOffset": 4880,
      "componentType": 5126,
      "count": 20,
      "max": [
        0.9970918297767639,
        0.9999001026153564
      ],
      "min": [
        9.98395262286067e-05,
        9.98395262286067e-05
      ],
      "type": "VEC2"
    },
    {
      "bufferView": 1,
      "byteOffset": 11976,
      "componentType": 5125,
      "count": 90,
      "type": "SCALAR"
    },
    {
      "bufferView": 3,
      "byteOffset": 15120,
      "componentType": 5126,
      "count": 1239,
      "max": [
        13.080859184265137,
        416.9045104980469,
        42.376644134521484
      ],
      "min": [
        -13.080859184265137,
        0.14874491095542908,
        -33.72685241699219
      ],
      "type": "VEC3"
    },
    {
      "bufferView": 3,
      "byteOffset": 29988,
      "componentType": 5126,
      "count": 1239,
      "max": [
        0.959690272808075,
        0.9983316659927368,
        0.9999956488609314
      ],
      "min": [
        -0.9596900939941406,
        -1.0,
        -0.9999865889549255
      ],
      "type": "VEC3"
    },
    {
      "bufferView": 4,
      "byteOffset": 9760,
      "componentType": 5126,
      "count": 1239,
      "max": [
        0.8584132194519043,
        0.999773383140564,
        0.9999817609786987,
        1.0
      ],
      "min": [
        -0.8584131002426147,
        -0.9999961853027344,
        -0.9999099969863892,
        -1.0
      ],
      "type": "VEC4"
    },
    {
      "bufferView": 2,
      "byteOffset": 5040,
      "componentType": 5126,
      "count": 1239,
      "max": [
        0.962165892124176,
        0.9004396796226501
      ],
      "min": [
        0.00020959341782145202,
        0.0002095602685585618
      ],
      "type": "VEC2"
    },
    {
      "bufferView": 1,
      "byteOffset": 12336,
      "componentType": 5125,
      "count": 6270,
      "type": "SCALAR"
    },
    {
      "bufferView": 3,
      "byteOffset": 44856,
      "componentType": 5126,
      "count": 104,
      "max": [
        18.37957000732422,
        1.8966379165649414,
        0.017191622406244278
      ],
      "min": [
        -1.2721234560012817,
        -1.2609655857086182,
        -5.3431220054626465
      ],
      "type": "VEC3"
    },
    {
      "bufferView": 3,
      "byteOffset": 46104,
      "componentType": 5126,
      "count": 104,
      "max": [
        0.9951700568199158,
        0.9951580762863159,
        0.9841310381889343
      ],
      "min": [
        -0.9351961612701416,
        -0.9940654635429382,
        -0.9743652939796448
      ],
      "type": "VEC3"
    },
    {
      "bufferView": 1,
      "byteOffset": 37416,
      "componentType": 5125,
      "count": 546,
      "type": "SCALAR"
    },
    {
      "bufferView": 5,
      "componentType": 5126,
      "count": 69,
      "max": [
        108.03985595703125,
        101.14027404785156,
        87.73522186279297,
        0.0,
        3.15431547164917,
        4.50295352935791,
        4.4045634269714355,
        0.0,
        23.305438995361328,
        23.521638870239258,
        23.584678649902344,
        0.0,
        137.66050720214844,
        260.27984619140625,
        391.76617431640625,
        1.0
      ],
      "min": [
        -107.4533920288086,
        -100.82024383544922,
        -85.3772201538086,
        0.0,
        -3.224708080291748,
        -4.388205051422119,
        -4.222588062286377,
        0.0,
        -23.296934127807617,
        -2.8014087677001953,
        -3.149602174758911,
        0.0,
        -132.19140625,
        -438.410888671875,
        -35.407318115234375,
        1.0
      ],
      "type": "MAT4"
    },
    {
      "bufferView": 0,
      "componentType": 5123,
      "count": 62,
      "type": "VEC4"
    },
    {
      "bufferView": 4,
      "byteOffset": 29584,
      "componentType": 5126,
      "count": 62,
      "max": [
        1.0,
        0.0,
        0.0,
        0.0
      ],
      "min": [
        1.0,
        0.0,
        0.0,
        0.0
      ],
      "type": "VEC4"
    },
    {
      "bufferView": 0,
      "byteOffset": 496,
      "componentType": 5123,
      "count": 31,
      "type": "VEC4"
    },
    {
      "bufferView": 4,
      "byteOffset": 30576,
      "componentType": 5126,
      "count": 31,
      "max": [
        1.0,
        0.0,
        0.0,
        0.0
      ],
      "min": [
        1.0,
        0.0,
        0.0,
        0.0
      ],
      "type": "VEC4"
    },
    {
      "bufferView": 0,
      "byteOffset": 744,
      "componentType": 5123,
      "count": 479,
      "type": "VEC4"
    },
    {
      "bufferView": 4,
      "byteOffset": 31072,
      "componentType": 5126,
      "count": 479,
      "max": [
        1.0,
        0.0,
        0.0,
        0.0
      ],
      "min": [
        1.0,
        0.0,
        0.0,
        0.0
      ],
      "type": "VEC4"
    },
    {
      "bufferView": 0,
      "byteOffset": 4576,
      "componentType": 5123,
      "count": 38,
      "type": "VEC4"
    },
    {
      "bufferView": 4,
      "byteOffset": 38736,
      "componentType": 5126,
      "count": 38,
      "max": [
        1.0,
        0.0,
        0.0,
        0.0
      ],
      "min": [
        1.0,
        0.0,
        0.0,
        0.0
      ],
      "type": "VEC4"
    },
    {
      "bufferView": 0,
      "byteOffset": 4880,
      "componentType": 5123,
      "count": 20,
      "type": "VEC4"
    },
    {
      "bufferView": 4,
      "byteOffset": 39344,
      "componentType": 5126,
      "count": 20,
      "max": [
        1.0,
        0.0,
        0.0,
        0.0
      ],
      "min": [
        1.0,
        0.0,
        0.0,
        0.0
      ],
      "type": "VEC4"
    },
    {
      "bufferView": 0,
      "byteOffset": 5040,
      "componentType": 5123,
      "count": 1239,
      "type": "VEC4"
    },
    {
      "bufferView": 4,
      "byteOffset": 39664,
      "componentType": 5126,
      "count": 1239,
      "max": [
        1.0,
        0.4995957911014557,
        0.3127409517765045,
        0.2056652009487152
      ],
      "min": [
        0.2942999601364136,
        0.0,
        0.0,
        0.0
      ],
      "type": "VEC4"
    },
    {
      "bufferView": 6,
      "componentType": 5126,
      "count": 1,
      "max": [
        0.0
      ],
      "min": [
        0.0
      ],
      "type": "SCALAR"
    },
    {
      "bufferView": 7,
      "componentType": 5126,
      "count": 1,
      "max": [
        9.5367431640625e-07,
        28.009925842285156,
        13.158846855163574
      ],
      "min": [
        9.5367431640625e-07,
        28.009925842285156,
        13.158846855163574
      ],
      "type": "VEC3"
    },
    {
      "bufferView": 6,
      "byteOffset": 4,
      "componentType": 5126,
      "count": 1,
      "max": [
        0.0
      ],
      "min": [
        0.0
      ],
      "type": "SCALAR"
    },
    {
      "bufferView": 7,
      "byteOffset": 12,
      "componentType": 5126,
      "count": 1,
      "max": [
        4.76837158203125e-06,
        39.592140197753906,
        2.86102294921875e-06
      ],
      "min": [
        4.76837158203125e-06,
        39.592140197753906,
        2.86102294921875e-06
      ],
      "type": "VEC3"
    },
    {
      "bufferView": 6,
      "byteOffset": 8,
      "componentType": 5126,
      "count": 1,
      "max": [
        0.0
      ],
      "min": [
        0.0
      ],
      "type": "SCALAR"
    },
    {
      "bufferView": 7,
      "byteOffset": 24,
      "componentType": 5126,
      "count": 1,
      "max": [
        -2.2031681537628174,
        12.74345588684082,
        0.13074088096618652
      ],
      "min": [
        -2.2031681537628174,
        12.74345588684082,
        0.13074088096618652
      ],
      "type": "VEC3"
    },
    {
      "bufferView": 6,
      "byteOffset": 12,
      "componentType": 5126,
      "count": 1,
      "max": [
        0.0
      ],
      "min": [
        0.0
      ],
      "type": "SCALAR"
    },
    {
      "bufferView": 7,
      "byteOffset": 36,
      "componentType": 5126,
      "count": 1,
      "max": [
        2.3830957412719727,
        14.306039810180664,
        1.2671880722045898
      ],
      "min": [
        2.3830957412719727,
        14.306039810180664,
        1.2671880722045898
      ],
      "type": "VEC3"
    },
    {
      "bufferView": 6,
      "byteOffset": 16,
      "componentType": 5126,
      "count": 1,
      "max": [
        0.0
      ],
      "min": [
        0.0
      ],
      "type": "SCALAR"
    },
    {
      "bufferView": 7,
      "byteOffset": 48,
      "componentType": 5126,
      "count": 1,
      "max": [
        -0.016411542892456055,
        9.647022247314453,
        5.340576171875e-05
      ],
      "min": [
        -0.016411542892456055,
        9.647022247314453,
        5.340576171875e-05
      ],
      "type": "VEC3"
    },
    {
      "bufferView": 6,
      "byteOffset": 20,
      "componentType": 5126,
      "count": 1,
      "max": [
        0.0
      ],
      "min": [
        0.0
      ],
      "type": "SCALAR"
    },
    {
      "bufferView": 7,
      "byteOffset": 60,
      "componentType": 5126,
      "count": 1,
      "max": [
        -0.002567499876022339,
        10.04153060913086,
        -5.960464477539063e-08
      ],
      "min": [
        -0.002567499876022339,
        10.04153060913086,
        -5.960464477539063e-08
      ],
      "type": "VEC3"
    },
    {
      "bufferView": 6,
      "byteOffset": 24,
      "componentType": 5126,
      "count": 1,
      "max": [
        0.0
      ],
      "min": [
        0.0
      ],
      "type": "SCALAR"
    },
    {
      "bufferView": 7,
      "byteOffset": 72,
      "componentType": 5126,
      "count": 1,
      "max": [
        -10.545644760131836,
        38.600685119628906,
        -0.15846538543701172
      ],
      "min": [
        -10.545644760131836,
        38.600685119628906,
        -0.15846538543701172
      ],
      "type": "VEC3"
    },
    {
      "bufferView": 6,
      "byteOffset": 28,
      "componentType": 5126,
      "count": 1,
      "max": [
        0.0
      ],
      "min": [
        0.0
      ],
      "type": "SCALAR"
    },
    {
      "bufferView": 7,
      "byteOffset": 84,
      "componentType": 5126,
      "count": 1,
      "max": [
        2.345442771911621e-05,
        10.012422561645508,
        -0.00012046098709106445
      ],
      "min": [
        2.345442771911621e-05,
        10.012422561645508,
        -0.00012046098709106445
      ],
      "type": "VEC3"
    },
    {
      "bufferView": 6,
      "byteOffset": 32,
      "componentType": 5126,
      "count": 1,
      "max": [
        0.0
      ],
      "min": [
        0.0
      ],
      "type": "SCALAR"
    },
    {
      "bufferView": 7,
      "byteOffset": 96,
      "componentType": 5126,
      "count": 1,
      "max": [
        -9.465217590332031e-05,
        10.912303924560547,
        4.214048385620117e-05
      ],
      "min": [
        -9.465217590332031e-05,
        10.912303924560547,
        4.214048385620117e-05
      ],
      "type": "VEC3"
    },
    {
      "bufferView": 6,
      "byteOffset": 36,
      "componentType": 5126,
      "count": 1,
      "max": [
        0.0
      ],
      "min": [
        0.0
      ],
      "type": "SCALAR"
    },
    {
      "bufferView": 7,
      "byteOffset": 108,
      "componentType": 5126,
      "count": 1,
      "max": [
        -4.233262062072754,
        36.845951080322266,
        -0.9229936599731445
      ],
      "min": [
        -4.233262062072754,
        36.845951080322266,
        -0.9229936599731445
      ],
      "type": "VEC3"
    },
    {
      "bufferView": 6,
      "byteOffset": 40,
      "componentType": 5126,
      "count": 1,
      "max": [
        0.0
      ],
      "min": [
        0.0
      ],
      "type": "SCALAR"
    },
    {
      "bufferView": 7,
      "byteOffset": 120,
      "componentType": 5126,
      "count": 1,
      "max": [
        0.006616473197937012,
        9.767987251281738,
        -2.5033950805664063e-05
      ],
      "min": [
        0.006616473197937012,
        9.767987251281738,
        -2.5033950805664063e-05
      ],
      "type": "VEC3"
    },
    {
      "bufferView": 6,
      "byteOffset": 44,
      "componentType": 5126,
      "count": 1,
      "max": [
        0.0
      ],
      "min": [
        0.0
      ],
      "type": "SCALAR"
    },
    {
      "bufferView": 7,
      "byteOffset": 132,
      "componentType": 5126,
      "count": 1,
      "max": [
        0.0005810260772705078,
        9.164358139038086,
        4.9114227294921875e-05
      ],
      "min": [
        0.0005810260772705078,
        9.164358139038086,
        4.9114227294921875e-05
      ],
      "type": "VEC3"
    },
    {
      "bufferView": 6,
      "byteOffset": 48,
      "componentType": 5126,
      "count": 1,
      "max": [
        0.0
      ],
      "min": [
        0.0
      ],
      "type": "SCALAR"
    },
    {
      "bufferView": 7,
      "byteOffset": 144,
      "componentType": 5126,
      "count": 1,
      "max": [
        2.653252601623535,
        35.17876052856445,
        -0.875422477722168
      ],
      "min": [
        2.653252601623535,
        35.17876052856445,
        -0.875422477722168
      ],
      "type": "VEC3"
    },
    {
      "bufferView": 6,
      "byteOffset": 52,
      "componentType": 5126,
      "count": 1,
      "max": [
        0.0
      ],
      "min": [
        0.0
      ],
      "type": "SCALAR"
    },
    {
      "bufferView": 7,
      "byteOffset": 156,
      "componentType": 5126,
      "count": 1,
      "max": [
        0.006400108337402344,
        7.914036273956299,
        6.198883056640625e-05
      ],
      "min": [
        0.006400108337402344,
        7.914036273956299,
        6.198883056640625e-05
      ],
      "type": "VEC3"
    },
    {
      "bufferView": 6,
      "byteOffset": 56,
      "componentType": 5126,
      "count": 1,
      "max": [
        0.0
      ],
      "min": [
        0.0
      ],
      "type": "SCALAR"
    },
    {
      "bufferView": 7,
      "byteOffset": 168,
      "componentType": 5126,
      "count": 1,
      "max": [
        1.5735626220703125e-05,
        9.478404998779297,
        2.765655517578125e-05
      ],
      "min": [
        1.5735626220703125e-05,
        9.478404998779297,
        2.765655517578125e-05
      ],
      "type": "VEC3"
    },
    {
      "bufferView": 6,
      "byteOffset": 60,
      "componentType": 5126,
      "count": 1,
      "max": [
        0.0
      ],
      "min": [
        0.0
      ],
      "type": "SCALAR"
    },
    {
      "bufferView": 7,
      "byteOffset": 180,
      "componentType": 5126,
      "count": 1,
      "max": [
        8.485118865966797,
        31.238033294677734,
        -0.587090015411377
      ],
      "min": [
        8.485118865966797,
        31.238033294677734,
        -0.587090015411377
      ],
      "type": "VEC3"
    },
    {
      "bufferView": 6,
      "byteOffset": 64,
      "componentType": 5126,
      "count": 1,
      "max": [
        0.0
      ],
      "min": [
        0.0
      ],
      "type": "SCALAR"
    },
    {
      "bufferView": 7,
      "byteOffset": 192,
      "componentType": 5126,
      "count": 1,
      "max": [
        1.0967254638671875e-05,
        60.095123291015625,
        3.1948089599609375e-05
      ],
      "min": [
        1.0967254638671875e-05,
        60.095123291015625,
        3.1948089599609375e-05
      ],
      "type": "VEC3"
    },
    {
      "bufferView": 6,
      "byteOffset": 68,
      "componentType": 5126,
      "count": 1,
      "max": [
        0.0
      ],
      "min": [
        0.0
      ],
      "type": "SCALAR"
    },
    {
      "bufferView": 7,
      "byteOffset": 204,
      "componentType": 5126,
      "count": 1,
      "max": [
        1.9073486328125e-06,
        63.38707733154297,
        -1.430511474609375e-06
      ],
      "min": [
        1.9073486328125e-06,
        63.38707733154297,
        -1.430511474609375e-06
      ],
      "type": "VEC3"
    },
    {
      "bufferView": 6,
      "byteOffset": 72,
      "componentType": 5126,
      "count": 1,
      "max": [
        0.0
      ],
      "min": [
        0.0
      ],
      "type": "SCALAR"
    },
    {
      "bufferView": 7,
      "byteOffset": 216,
      "componentType": 5126,
      "count": 1,
      "max": [
        1.9073486328125e-06,
        40.13417053222656,
        1.0013580322265625e-05
      ],
      "min": [
        1.9073486328125e-06,
        40.13417053222656,
        1.0013580322265625e-05
      ],
      "type": "VEC3"
    },
    {
      "bufferView": 6,
      "byteOffset": 76,
      "componentType": 5126,
      "count": 1,
      "max": [
        0.0
      ],
      "min": [
        0.0
      ],
      "type": "SCALAR"
    },
    {
      "bufferView": 7,
      "byteOffset": 228,
      "componentType": 5126,
      "count": 1,
      "max": [
        18.695308685302734,
        32.62032699584961,
        -0.8732921481132507
      ],
      "min": [
        18.695308685302734,
        32.62032699584961,
        -0.8732921481132507
      ],
      "type": "VEC3"
    },
    {
      "bufferView": 6,
      "byteOffset": 80,
      "componentType": 5126,
      "count": 1,
      "max": [
        0.0
      ],
      "min": [
        0.0
      ],
      "type": "SCALAR"
    },
    {
      "bufferView": 7,
      "byteOffset": 240,
      "componentType": 5126,
      "count": 1,
      "max": [
        3.293821334838867,
        9.98356819152832,
        -2.586841583251953e-05
      ],
      "min": [
        3.293821334838867,
        9.98356819152832,
        -2.586841583251953e-05
      ],
      "type": "VEC3"
    },
    {
      "bufferView": 6,
      "byteOffset": 84,
      "componentType": 5126,
      "count": 1,
      "max": [
        0.0
      ],
      "min": [
        0.0
      ],
      "type": "SCALAR"
    },
    {
      "bufferView": 7,
      "byteOffset": 252,
      "componentType": 5126,
      "count": 1,
      "max": [
        -2.539909601211548,
        10.516691207885742,
        -4.744529724121094e-05
      ],
      "min": [
        -2.539909601211548,
        10.516691207885742,
        -4.744529724121094e-05
      ],
      "type": "VEC3"
    },
    {
      "bufferView": 6,
      "byteOffset": 88,
      "componentType": 5126,
      "count": 1,
      "max": [
        0.0
      ],
      "min": [
        0.0
      ],
      "type": "SCALAR"
    },
    {
      "bufferView": 7,
      "byteOffset": 264,
      "componentType": 5126,
      "count": 1,
      "max": [
        7.793267250061035,
        11.008350372314453,
        0.987675666809082
      ],
      "min": [
        7.793267250061035,
        11.008350372314453,
        0.987675666809082
      ],
      "type": "VEC3"
    },
    {
      "bufferView": 6,
      "byteOffset": 92,
      "componentType": 5126,
      "count": 1,
      "max": [
        0.0
      ],
      "min": [
        0.0
      ],
      "type": "SCALAR"
    },
    {
      "bufferView": 7,
      "byteOffset": 276,
      "componentType": 5126,
      "count": 1,
      "max": [
        0.025312423706054688,
        10.492147445678711,
        -0.24478960037231445
      ],
      "min": [
        0.025312423706054688,
        10.492147445678711,
        -0.24478960037231445
      ],
      "type": "VEC3"
    },
    {
      "bufferView": 6,
      "byteOffset": 96,
      "componentType": 5126,
      "count": 1,
      "max": [
        0.0
      ],
      "min": [
        0.0
      ],
      "type": "SCALAR"
    },
    {
      "bufferView": 7,
      "byteOffset": 288,
      "componentType": 5126,
      "count": 1,
      "max": [
        0.06844139099121094,
        11.826714515686035,
        -0.19646739959716797
      ],
      "min": [
        0.06844139099121094,
        11.826714515686035,
        -0.19646739959716797
      ],
      "type": "VEC3"
    },
    {
      "bufferView": 6,
      "byteOffset": 100,
      "componentType": 5126,
      "count": 1,
      "max": [
        0.0
      ],
      "min": [
        0.0
      ],
      "type": "SCALAR"
    },
    {
      "bufferView": 7,
      "byteOffset": 300,
      "componentType": 5126,
      "count": 1,
      "max": [
        7.9294843673706055,
        38.094844818115234,
        -0.9383172988891602
      ],
      "min": [
        7.9294843673706055,
        38.094844818115234,
        -0.9383172988891602
      ],
      "type": "VEC3"
    },
    {
      "bufferView": 6,
      "byteOffset": 104,
      "componentType": 5126,
      "count": 1,
      "max": [
        0.0
      ],
      "min": [
        0.0
      ],
      "type": "SCALAR"
    },
    {
      "bufferView": 7,
      "byteOffset": 312,
      "componentType": 5126,
      "count": 1,
      "max": [
        -0.03342163562774658,
        9.97219467163086,
        0.6323733329772949
      ],
      "min": [
        -0.03342163562774658,
        9.97219467163086,
        0.6323733329772949
      ],
      "type": "VEC3"
    },
    {
      "bufferView": 6,
      "byteOffset": 108,
      "componentType": 5126,
      "count": 1,
      "max": [
        0.0
      ],
      "min": [
        0.0
      ],
      "type": "SCALAR"
    },
    {
      "bufferView": 7,
      "byteOffset": 324,
      "componentType": 5126,
      "count": 1,
      "max": [
        -0.0287172794342041,
        10.51814079284668,
        1.3380165100097656
      ],
      "min": [
        -0.0287172794342041,
        10.51814079284668,
        1.3380165100097656
      ],
      "type": "VEC3"
    },
    {
      "bufferView": 6,
      "byteOffset": 112,
      "componentType": 5126,
      "count": 1,
      "max": [
        0.0
      ],
      "min": [
        0.0
      ],
      "type": "SCALAR"
    },
    {
      "bufferView": 7,
      "byteOffset": 336,
      "componentType": 5126,
      "count": 1,
      "max": [
        2.4149885177612305,
        37.421878814697266,
        -0.07077217102050781
      ],
      "min": [
        2.4149885177612305,
        37.421878814697266,
        -0.07077217102050781
      ],
      "type": "VEC3"
    },
    {
      "bufferView": 6,
      "byteOffset": 116,
      "componentType": 5126,
      "count": 1,
      "max": [
        0.0
      ],
      "min": [
        0.0
      ],
      "type": "SCALAR"
    },
    {
      "bufferView": 7,
      "byteOffset": 348,
      "componentType": 5126,
      "count": 1,
      "max": [
        -0.01882195472717285,
        8.892816543579102,
        0.27341794967651367
      ],
      "min": [
        -0.01882195472717285,
        8.892816543579102,
        0.27341794967651367
      ],
      "type": "VEC3"
    },
    {
      "bufferView": 6,
      "byteOffset": 120,
      "componentType": 5126,
      "count": 1,
      "max": [
        0.0
      ],
      "min": [
        0.0
      ],
      "type": "SCALAR"
    },
    {
      "bufferView": 7,
      "byteOffset": 360,
      "componentType": 5126,
      "count": 1,
      "max": [
        -0.0339963436126709,
        9.880890846252441,
        0.7969093322753906
      ],
      "min": [
        -0.0339963436126709,
        9.880890846252441,
        0.7969093322753906
      ],
      "type": "VEC3"
    },
    {
      "bufferView": 6,
      "byteOffset": 124,
      "componentType": 5126,
      "count": 1,
      "max": [
        0.0
      ],
      "min": [
        0.0
      ],
      "type": "SCALAR"
    },
    {
      "bufferView": 7,
      "byteOffset": 372,
      "componentType": 5126,
      "count": 1,
      "max": [
        -3.6531801223754883,
        36.76612854003906,
        0.05661964416503906
      ],
      "min": [
        -3.6531801223754883,
        36.76612854003906,
        0.05661964416503906
      ],
      "type": "VEC3"
    },
    {
      "bufferView": 6,
      "byteOffset": 128,
      "componentType": 5126,
      "count": 1,
      "max": [
        0.0
      ],
      "min": [
        0.0
      ],
      "type": "SCALAR"
    },
    {
      "bufferView": 7,
      "byteOffset": 384,
      "componentType": 5126,
      "count": 1,
      "max": [
        0.05146026611328125,
        7.473783493041992,
        -0.9928488731384277
      ],
      "min": [
        0.05146026611328125,
        7.473783493041992,
        -0.9928488731384277
      ],
      "type": "VEC3"
    },
    {
      "bufferView": 6,
      "byteOffset": 132,
      "componentType": 5126,
      "count": 1,
      "max": [
        0.0
      ],
      "min": [
        0.0
      ],
      "type": "SCALAR"
    },
    {
      "bufferView": 7,
      "byteOffset": 396,
      "componentType": 5126,
      "count": 1,
      "max": [
        0.008623123168945313,
        9.634954452514648,
        -1.4991846084594727
      ],
      "min": [
        0.008623123168945313,
        9.634954452514648,
        -1.4991846084594727
      ],
      "type": "VEC3"
    },
    {
      "bufferView": 6,
      "byteOffset": 136,
      "componentType": 5126,
      "count": 1,
      "max": [
        0.0
      ],
      "min": [
        0.0
      ],
      "type": "SCALAR"
    },
    {
      "bufferView": 7,
      "byteOffset": 408,
      "componentType": 5126,
      "count": 1,
      "max": [
        -9.971322059631348,
        34.994789123535156,
        -0.9026908874511719
      ],
      "min": [
        -9.971322059631348,
        34.994789123535156,
        -0.9026908874511719
      ],
      "type": "VEC3"
    },
    {
      "bufferView": 6,
      "byteOffset": 140,
      "componentType": 5126,
      "count": 1,
      "max": [
        0.0
      ],
      "min": [
        0.0
      ],
      "type": "SCALAR"
    },
    {
      "bufferView": 7,
      "byteOffset": 420,
      "componentType": 5126,
      "count": 1,
      "max": [
        3.62396240234375e-05,
        59.99174499511719,
        -2.4318695068359375e-05
      ],
      "min": [
        3.62396240234375e-05,
        59.99174499511719,
        -2.4318695068359375e-05
      ],
      "type": "VEC3"
    },
    {
      "bufferView": 6,
      "byteOffset": 144,
      "componentType": 5126,
      "count": 1,
      "max": [
        0.0
      ],
      "min": [
        0.0
      ],
      "type": "SCALAR"
    },
    {
      "bufferView": 7,
      "byteOffset": 432,
      "componentType": 5126,
      "count": 1,
      "max": [
        1.71661376953125e-05,
        63.395301818847656,
        -1.811981201171875e-05
      ],
      "min": [
        1.71661376953125e-05,
        63.395301818847656,
        -1.811981201171875e-05
      ],
      "type": "VEC3"
    },
    {
      "bufferView": 6,
      "byteOffset": 148,
      "componentType": 5126,
      "count": 1,
      "max": [
        0.0
      ],
      "min": [
        0.0
      ],
      "type": "SCALAR"
    },
    {
      "bufferView": 7,
      "byteOffset": 444,
      "componentType": 5126,
      "count": 1,
      "max": [
        -3.6954879760742188e-06,
        40.134178161621094,
        -7.62939453125e-06
      ],
      "min": [
        -3.6954879760742188e-06,
        40.134178161621094,
        -7.62939453125e-06
      ],
      "type": "VEC3"
    },
    {
      "bufferView": 6,
      "byteOffset": 152,
      "componentType": 5126,
      "count": 1,
      "max": [
        0.0
      ],
      "min": [
        0.0
      ],
      "type": "SCALAR"
    },
    {
      "bufferView": 7,
      "byteOffset": 456,
      "componentType": 5126,
      "count": 1,
      "max": [
        -18.69529914855957,
        32.60418701171875,
        -0.7330148220062256
      ],
      "min": [
        -18.69529914855957,
        32.60418701171875,
        -0.7330148220062256
      ],
      "type": "VEC3"
    },
    {
      "bufferView": 6,
      "byteOffset": 156,
      "componentType": 5126,
      "count": 1,
      "max": [
        0.0
      ],
      "min": [
        0.0
      ],
      "type": "SCALAR"
    },
    {
      "bufferView": 8,
      "componentType": 5126,
      "count": 1,
      "max": [
        0.5688630938529968,
        -0.4117863178253174,
        0.5914900302886963,
        0.39618977904319763
      ],
      "min": [
        0.5688630938529968,
        -0.4117863178253174,
        0.5914900302886963,
        0.39618977904319763
      ],
      "type": "VEC4"
    },
    {
      "bufferView": 6,
      "byteOffset": 160,
      "componentType": 5126,
      "count": 1,
      "max": [
        0.0
      ],
      "min": [
        0.0
      ],
      "type": "SCALAR"
    },
    {
      "bufferView": 7,
      "byteOffset": 468,
      "componentType": 5126,
      "count": 1,
      "max": [
        -7.152557373046875e-06,
        35.19301986694336,
        1.633167266845703e-05
      ],
      "min": [
        -7.152557373046875e-06,
        35.19301986694336,
        1.633167266845703e-05
      ],
      "type": "VEC3"
    },
    {
      "bufferView": 6,
      "byteOffset": 164,
      "componentType": 5126,
      "count": 1,
      "max": [
        0.0
      ],
      "min": [
        0.0
      ],
      "type": "SCALAR"
    },
    {
      "bufferView": 7,
      "byteOffset": 480,
      "componentType": 5126,
      "count": 1,
      "max": [
        7.152557373046875e-07,
        30.793865203857422,
        -1.9490718841552734e-05
      ],
      "min": [
        7.152557373046875e-07,
        30.793865203857422,
        -1.9490718841552734e-05
      ],
      "type": "VEC3"
    },
    {
      "bufferView": 6,
      "byteOffset": 168,
      "componentType": 5126,
      "count": 1,
      "max": [
        0.0
      ],
      "min": [
        0.0
      ],
      "type": "SCALAR"
    },
    {
      "bufferView": 7,
      "byteOffset": 492,
      "componentType": 5126,
      "count": 1,
      "max": [
        8.195638656616211e-07,
        43.28972244262695,
        1.1920928955078125e-05
      ],
      "min": [
        8.195638656616211e-07,
        43.28972244262695,
        1.1920928955078125e-05
      ],
      "type": "VEC3"
    },
    {
      "bufferView": 6,
      "byteOffset": 172,
      "componentType": 5126,
      "count": 1,
      "max": [
        0.0
      ],
      "min": [
        0.0
      ],
      "type": "SCALAR"
    },
    {
      "bufferView": 7,
      "byteOffset": 504,
      "componentType": 5126,
      "count": 1,
      "max": [
        -4.291534423828125e-06,
        115.2542724609375,
        -1.9073486328125e-06
      ],
      "min": [
        -4.291534423828125e-06,
        115.2542724609375,
        -1.9073486328125e-06
      ],
      "type": "VEC3"
    },
    {
      "bufferView": 6,
      "byteOffset": 176,
      "componentType": 5126,
      "count": 1,
      "max": [
        0.0
      ],
      "min": [
        0.0
      ],
      "type": "SCALAR"
    },
    {
      "bufferView": 7,
      "byteOffset": 516,
      "componentType": 5126,
      "count": 1,
      "max": [
        -3.814697265625e-06,
        126.01557922363281,
        1.1444091796875e-05
      ],
      "min": [
        -3.814697265625e-06,
        126.01557922363281,
        1.1444091796875e-05
      ],
      "type": "VEC3"
    },
    {
      "bufferView": 6,
      "byteOffset": 180,
      "componentType": 5126,
      "count": 1,
      "max": [
        0.0
      ],
      "min": [
        0.0
      ],
      "type": "SCALAR"
    },
    {
      "bufferView": 7,
      "byteOffset": 528,
      "componentType": 5126,
      "count": 1,
      "max": [
        1.2874603271484375e-05,
        43.01401901245117,
        1.2159347534179688e-05
      ],
      "min": [
        1.2874603271484375e-05,
        43.01401901245117,
        1.2159347534179688e-05
      ],
      "type": "VEC3"
    },
    {
      "bufferView": 6,
      "byteOffset": 184,
      "componentType": 5126,
      "count": 1,
      "max": [
        0.0
      ],
      "min": [
        0.0
      ],
      "type": "SCALAR"
    },
    {
      "bufferView": 7,
      "byteOffset": 540,
      "componentType": 5126,
      "count": 1,
      "max": [
        1.9073486328125e-06,
        115.17219543457031,
        2.86102294921875e-06
      ],
      "min": [
        1.9073486328125e-06,
        115.17219543457031,
        2.86102294921875e-06
      ],
      "type": "VEC3"
    },
    {
      "bufferView": 6,
      "byteOffset": 188,
      "componentType": 5126,
      "count": 1,
      "max": [
        0.0
      ],
      "min": [
        0.0
      ],
      "type": "SCALAR"
    },
    {
      "bufferView": 7,
      "byteOffset": 552,
      "componentType": 5126,
      "count": 1,
      "max": [
        -1.9073486328125e-06,
        126.05146026611328,
        7.62939453125e-06
      ],
      "min": [
        -1.9073486328125e-06,
        126.05146026611328,
        7.62939453125e-06
      ],
      "type": "VEC3"
    }
  ],
  "animations": [
    {
      "channels": [
        {
          "sampler": 0,
          "target": {
            "node": 12,
            "path": "translation"
          }
        },
        {
          "sampler": 1,
          "target": {
            "node": 11,
            "path": "translation"
          }
        },
        {
          "sampler": 2,
          "target": {
            "node": 20,
            "path": "translation"
          }
        },
        {
          "sampler": 3,
          "target": {
            "node": 19,
            "path": "translation"
          }
        },
        {
          "sampler": 4,
          "target": {
            "node": 24,
            "path": "translation"
          }
        },
        {
          "sampler": 5,
          "target": {
            "node": 23,
            "path": "translation"
          }
        },
        {
          "sampler": 6,
          "target": {
            "node": 22,
            "path": "translation"
          }
        },
        {
          "sampler": 7,
          "target": {
            "node": 28,
            "path": "translation"
          }
        },
        {
          "sampler": 8,
          "target": {
            "node": 27,
            "path": "translation"
          }
        },
        {
          "sampler": 9,
          "target": {
            "node": 26,
            "path": "translation"
          }
        },
        {
          "sampler": 10,
          "target": {
            "node": 32,
            "path": "translation"
          }
        },
        {
          "sampler": 11,
          "target": {
            "node": 31,
            "path": "translation"
          }
        },
        {
          "sampler": 12,
          "target": {
            "node": 30,
            "path": "translation"
          }
        },
        {
          "sampler": 13,
          "target": {
            "node": 36,
            "path": "translation"
          }
        },
        {
          "sampler": 14,
          "target": {
            "node": 35,
            "path": "translation"
          }
        },
        {
          "sampler": 15,
          "target": {
            "node": 34,
            "path": "translation"
          }
        },
        {
          "sampler": 16,
          "target": {
            "node": 17,
            "path": "translation"
          }
        },
        {
          "sampler": 17,
          "target": {
            "node": 16,
            "path": "translation"
          }
        },
        {
          "sampler": 18,
          "target": {
            "node": 15,
            "path": "translation"
          }
        },
        {
          "sampler": 19,
          "target": {
            "node": 14,
            "path": "translation"
          }
        },
        {
          "sampler": 20,
          "target": {
            "node": 44,
            "path": "translation"
          }
        },
        {
          "sampler": 21,
          "target": {
            "node": 43,
            "path": "translation"
          }
        },
        {
          "sampler": 22,
          "target": {
            "node": 42,
            "path": "translation"
          }
        },
        {
          "sampler": 23,
          "target": {
            "node": 48,
            "path": "translation"
          }
        },
        {
          "sampler": 24,
          "target": {
            "node": 47,
            "path": "translation"
          }
        },
        {
          "sampler": 25,
          "target": {
            "node": 46,
            "path": "translation"
          }
        },
        {
          "sampler": 26,
          "target": {
            "node": 52,
            "path": "translation"
          }
        },
        {
          "sampler": 27,
          "target": {
            "node": 51,
            "path": "translation"
          }
        },
        {
          "sampler": 28,
          "target": {
            "node": 50,
            "path": "translation"
          }
        },
        {
          "sampler": 29,
          "target": {
            "node": 56,
            "path": "translation"
          }
        },
        {
          "sampler": 30,
          "target": {
            "node": 55,
            "path": "translation"
          }
        },
        {
          "sampler": 31,
          "target": {
            "node": 54,
            "path": "translation"
          }
        },
        {
          "sampler": 32,
          "target": {
            "node": 60,
            "path": "translation"
          }
        },
        {
          "sampler": 33,
          "target": {
            "node": 59,
            "path": "translation"
          }
        },
        {
          "sampler": 34,
          "target": {
            "node": 58,
            "path": "translation"
          }
        },
        {
          "sampler": 35,
          "target": {
            "node": 41,
            "path": "translation"
          }
        },
        {
          "sampler": 36,
          "target": {
            "node": 40,
            "path": "translation"
          }
        },
        {
          "sampler": 37,
          "target": {
            "node": 39,
            "path": "translation"
          }
        },
        {
          "sampler": 38,
          "target": {
            "node": 38,
            "path": "translation"
          }
        },
        {
          "sampler": 39,
          "target": {
            "node": 38,
            "path": "rotation"
          }
        },
        {
          "sampler": 40,
          "target": {
            "node": 10,
            "path": "translation"
          }
        },
        {
          "sampler": 41,
          "target": {
            "node": 9,
            "path": "translation"
          }
        },
        {
          "sampler": 42,
          "target": {
            "node": 68,
            "path": "translation"
          }
        },
        {
          "sampler": 43,
          "target": {
            "node": 67,
            "path": "translation"
          }
        },
        {
          "sampler": 44,
          "target": {
            "node": 66,
            "path": "translation"
          }
        },
        {
          "sampler": 45,
          "target": {
            "node": 73,
            "path": "translation"
          }
        },
        {
          "sampler": 46,
          "target": {
            "node": 72,
            "path": "translation"
          }
        },
        {
          "sampler": 47,
          "target": {
            "node": 71,
            "path": "translation"
          }
        }
      ],
      "name": "Ninja Cyborg |Ninja Cyborg |Ninja Cyborg |Armature.002|mixamo.com|Layer0|Ninj",
      "samplers": [
        {
          "input": 45,
          "interpolation": "LINEAR",
          "output": 46
        },
        {
          "input": 47,
          "interpolation": "LINEAR",
          "output": 48
        },
        {
          "input": 49,
          "interpolation": "LINEAR",
          "output": 50
        },
        {
          "input": 51,
          "interpolation": "LINEAR",
          "output": 52
        },
        {
          "input": 53,
          "interpolation": "LINEAR",
          "output": 54
        },
        {
          "input": 55,
          "interpolation": "LINEAR",
          "output": 56
        },
        {
          "input": 57,
          "interpolation": "LINEAR",
          "output": 58
        },
        {
          "input": 59,
          "interpolation": "LINEAR",
          "output": 60
        },
        {
          "input": 61,
          "interpolation": "LINEAR",
          "output": 62
        },
        {
          "input": 63,
          "interpolation": "LINEAR",
          "output": 64
        },
        {
          "input": 65,
          "interpolation": "LINEAR",
          "output": 66
        },
        {
          "input": 67,
          "interpolation": "LINEAR",
          "output": 68
        },
        {
          "input": 69,
          "interpolation": "LINEAR",
          "output": 70
        },
        {
          "input": 71,
          "interpolation": "LINEAR",
          "output": 72
        },
        {
          "input": 73,
          "interpolation": "LINEAR",
          "output": 74
        },
        {
          "input": 75,
          "interpolation": "LINEAR",
          "output": 76
        },
        {
          "input": 77,
          "interpolation": "LINEAR",
          "output": 78
        },
        {
          "input": 79,
          "interpolation": "LINEAR",
          "output": 80
        },
        {
          "input": 81,
          "interpolation": "LINEAR",
          "output": 82
        },
        {
          "input": 83,
          "interpolation": "LINEAR",
          "output": 84
        },
        {
          "input": 85,
          "interpolation": "LINEAR",
          "output": 86
        },
        {
          "input": 87,
          "interpolation": "LINEAR",
          "output": 88
        },
        {
          "input": 89,
          "interpolation": "LINEAR",
          "output": 90
        },
        {
          "input": 91,
          "interpolation": "LINEAR",
          "output": 92
        },
        {
          "input": 93,
          "interpolation": "LINEAR",
          "output": 94
        },
        {
          "input": 95,
          "interpolation": "LINEAR",
          "output": 96
        },
        {
          "input": 97,
          "interpolation": "LINEAR",
          "output": 98
        },
        {
          "input": 99,
          "interpolation": "LINEAR",
          "output": 100
        },
        {
          "input": 101,
          "interpolation": "LINEAR",
          "output": 102
        },
        {
          "input": 103,
          "interpolation": "LINEAR",
          "output": 104
        },
        {
          "input": 105,
          "interpolation": "LINEAR",
          "output": 106
        },
        {
          "input": 107,
          "interpolation": "LINEAR",
          "output": 108
        },
        {
          "input": 109,
          "interpolation": "LINEAR",
          "output": 110
        },
        {
          "input": 111,
          "interpolation": "LINEAR",
          "output": 112
        },
        {
          "input": 113,
          "interpolation": "LINEAR",
          "output": 114
        },
        {
          "input": 115,
          "interpolation": "LINEAR",
          "output": 116
        },
        {
          "input": 117,
          "interpolation": "LINEAR",
          "output": 118
        },
        {
          "input": 119,
          "interpolation": "LINEAR",
          "output": 120
        },
        {
          "input": 121,
          "interpolation": "LINEAR",
          "output": 122
        },
        {
          "input": 123,
          "interpolation": "LINEAR",
          "output": 124
        },
        {
          "input": 125,
          "interpolation": "LINEAR",
          "output": 126
        },
        {
          "input": 127,
          "interpolation": "LINEAR",
          "output": 128
        },
        {
          "input": 129,
          "interpolation": "LINEAR",
          "output": 130
        },
        {
          "input": 131,
          "interpolation": "LINEAR",
          "output": 132
        },
        {
          "input": 133,
          "interpolation": "LINEAR",
          "output": 134
        },
        {
          "input": 135,
          "interpolation": "LINEAR",
          "output": 136
        },
        {
          "input": 137,
          "interpolation": "LINEAR",
          "output": 138
        },
        {
          "input": 139,
          "interpolation": "LINEAR",
          "output": 140
        }
      ]
    }
  ],
  "asset": {
    "extras": {
      "author": "T-Art (https://sketchfab.com/person-x)",
      "license": "CC-BY-4.0 (http://creativecommons.org/licenses/by/4.0/)",
      "source": "https://sketchfab.com/3d-models/ninja-cyborg-1673131f9e914d60af48d2dd51b85339",
      "title": "Ninja Cyborg"
    },
    "generator": "Sketchfab-12.67.0",
    "version": "2.0"
  },
  "bufferViews": [
    {
      "buffer": 0,
      "byteLength": 14952,
      "byteStride": 8,
      "name": "shortBufferViews",
      "target": 34962
    },
    {
      "buffer": 0,
      "byteLength": 39600,
      "byteOffset": 14952,
      "name": "floatBufferViews",
      "target": 34963
    },
    {
      "buffer": 0,
      "byteLength": 14952,
      "byteOffset": 54552,
      "byteStride": 8,
      "name": "floatBufferViews",
      "target": 34962
    },
    {
      "buffer": 0,
      "byteLength": 47352,
      "byteOffset": 69504,
      "byteStride": 12,
      "name": "floatBufferViews",
      "target": 34962
    },
    {
      "buffer": 0,
      "byteLength": 59488,
      "byteOffset": 116856,
      "byteStride": 16,
      "name": "floatBufferViews",
      "target": 34962
    },
    {
      "buffer": 0,
      "byteLength": 4416,
      "byteOffset": 176344,
      "name": "floatBufferViews"
    },
    {
      "buffer": 0,
      "byteLength": 192,
      "byteOffset": 180760,
      "name": "floatBufferViews"
    },
    {
      "buffer": 0,
      "byteLength": 564,
      "byteOffset": 180952,
      "byteStride": 12,
      "name": "floatBufferViews"
    },
    {
      "buffer": 0,
      "byteLength": 16,
      "byteOffset": 181516,
      "byteStride": 16,
      "name": "floatBufferViews"
    }
  ],
  "buffers": [
    {
      "byteLength": 181532,
      "uri": "scene.bin"
    }
  ],
  "extensionsRequired": [
    "KHR_materials_pbrSpecularGlossiness"
  ],
  "extensionsUsed": [
    "KHR_materials_pbrSpecularGlossiness"
  ],
  "images": [
    {
      "uri": "textures/Blade_diffuse.png"
    },
    {
      "uri": "textures/Blade_normal.png"
    },
    {
      "uri": "textures/Tsuka_diffuse.png"
    },
    {
      "uri": "textures/Tsuka_normal.png"
    },
    {
      "uri": "textures/Tsuka_occlusion.png"
    },
    {
      "uri": "textures/Tsuba_diffuse.png"
    },
    {
      "uri": "textures/Tsuba_normal.png"
    },
    {
      "uri": "textures/Tsuba_occlusion.png"
    },
    {
      "uri": "textures/Habaki_diffuse.png"
    },
    {
      "uri": "textures/Habaki_normal.png"
    },
    {
      "uri": "textures/Habaki_occlusion.png"
    },
    {
      "uri": "textures/Fuchi_diffuse.png"
    },
    {
      "uri": "textures/Armor_diffuse.png"
    },
    {
      "uri": "textures/Armor_emissive.png"
    },
    {
      "uri": "textures/Armor_normal.png"
    }
  ],
  "materials": [
    {
      "doubleSided": true,
      "extensions": {
        "KHR_materials_pbrSpecularGlossiness": {
          "diffuseFactor": [
            1.0,
            1.0,
            1.0,
            1.0
          ],
          "diffuseTexture": {
            "index": 0
          },
          "glossinessFactor": 0.6568216463000001,
          "specularFactor": [
            0.05,
            0.05,
            0.05
          ]
        }
      },
      "name": "Blade",
      "normalTexture": {
        "index": 1
      }
    },
    {
      "doubleSided": true,
      "extensions": {
        "KHR_materials_pbrSpecularGlossiness": {
          "diffuseFactor": [
            1.0,
            1.0,
            1.0,
            1.0
          ],
          "diffuseTexture": {
            "index": 2
          },
          "glossinessFactor": 0.0422948505,
          "specularFactor": [
            0.05,
            0.05,
            0.05
          ]
        }
      },
      "name": "Tsuka",
      "normalTexture": {
        "index": 3
      },
      "occlusionTexture": {
        "index": 4
      }
    },
    {
      "doubleSided": true,
      "extensions": {
        "KHR_materials_pbrSpecularGlossiness": {
          "diffuseFactor": [
            1.0,
            1.0,
            1.0,
            1.0
          ],
          "diffuseTexture": {
            "index": 5
          },
          "glossinessFactor": 0.6463414634,
          "specularFactor": [
            0.05,
            0.05,
            0.05
          ]
        }
      },
      "name": "Tsuba",
      "normalTexture": {
        "index": 6
      },
      "occlusionTexture": {
        "index": 7
      }
    },
    {
      "doubleSided": true,
      "extensions": {
        "KHR_materials_pbrSpecularGlossiness": {
          "diffuseFactor": [
            1.0,
            1.0,
            1.0,
            1.0
          ],
          "diffuseTexture": {
            "index": 8
          },
          "glossinessFactor": 0.8109756098,
          "specularFactor": [
            0.05,
            0.05,
            0.05
          ]
        }
      },
      "name": "Habaki",
      "normalTexture": {
        "index": 9
      },
      "occlusionTexture": {
        "index": 10
      }
    },
    {
      "doubleSided": true,
      "extensions": {
        "KHR_materials_pbrSpecularGlossiness": {
          "diffuseFactor": [
            1.0,
            1.0,
            1.0,
            1.0
          ],
          "diffuseTexture": {
            "index": 11
          },
          "glossinessFactor": 0.6158536585,
          "specularFactor": [
            0.05,
            0.05,
            0.05
          ]
        }
      },
      "name": "Fuchi"
    },
    {
      "doubleSided": true,
      "emissiveFactor": [
        1.0,
        1.0,
        1.0
      ],
      "emissiveTexture": {
        "index": 13
      },
      "extensions": {
        "KHR_materials_pbrSpecularGlossiness": {
          "diffuseFactor": [
            1.0,
            1.0,
            1.0,
            1.0
          ],
          "diffuseTexture": {
            "index": 12
          },
          "glossinessFactor": 0.1968368902,
          "specularFactor": [
            0.05,
            0.05,
            0.05
          ]
        }
      },
      "name": "Armor",
      "normalTexture": {
        "index": 14
      }
    },
    {
      "alphaMode": "BLEND",
      "doubleSided": true,
      "emissiveFactor": [
        1.0,
        0.0,
        0.0
      ],
      "extensions": {
        "KHR_materials_pbrSpecularGlossiness": {
          "diffuseFactor": [
            1.0,
            0.0,
            0.0,
            0.005
          ],
          "glossinessFactor": 1.0,
          "specularFactor": [
            0.05,
            0.05,
            0.05
          ]
        }
      },
      "name": "FlashLight"
    }
  ],
  "meshes": [
    {
      "name": "Blade_Blade_0",
      "primitives": [
        {
          "attributes": {
            "JOINTS_0": 33,
            "NORMAL": 1,
            "POSITION": 0,
            "TANGENT": 2,
            "TEXCOORD_0": 3,
            "WEIGHTS_0": 34
          },
          "indices": 4,
          "material": 0,
          "mode": 4
        }
      ]
    },
    {
      "name": "Blade_Tsuka_0",
      "primitives": [
        {
          "attributes": {
            "JOINTS_0": 35,
            "NORMAL": 6,
            "POSITION": 5,
            "TANGENT": 7,
            "TEXCOORD_0": 8,
            "WEIGHTS_0": 36
          },
          "indices": 9,
          "material": 1,
          "mode": 4
        }
      ]
    },
    {
      "name": "Blade_Tsuba_0",
      "primitives": [
        {
          "attributes": {
            "JOINTS_0": 37,
            "NORMAL": 11,
            "POSITION": 10,
            "TANGENT": 12,
            "TEXCOORD_0": 13,
            "WEIGHTS_0": 38
          },
          "indices": 14,
          "material": 2,
          "mode": 4
        }
      ]
    },
    {
      "name": "Blade_Habaki_0",
      "primitives": [
        {
          "attributes": {
            "JOINTS_0": 39,
            "NORMAL": 16,
            "POSITION": 15,
            "TANGENT": 17,
            "TEXCOORD_0": 18,
            "WEIGHTS_0": 40
          },
          "indices": 19,
          "material": 3,
          "mode": 4
        }
      ]
    },
    {
      "name": "Blade_Fuchi_0",
      "primitives": [
        {
          "attributes": {
            "JOINTS_0": 41,
            "NORMAL": 21,
            "POSITION": 20,
            "TEXCOORD_0": 22,
            "WEIGHTS_0": 42
          },
          "indices": 23,
          "material": 4,
          "mode": 4
        }
      ]
    },
    {
      "name": "Ninja Cyborg.002_Armor_0",
      "primitives": [
        {
          "attributes": {
            "JOINTS_0": 43,
            "NORMAL": 25,
            "POSITION": 24,
            "TANGENT": 26,
            "TEXCOORD_0": 27,
            "WEIGHTS_0": 44
          },
          "indices": 28,
          "material": 5,
          "mode": 4
        }
      ]
    },
    {
      "name": "FlashLight_FlashLight_0",
      "primitives": [
        {
          "attributes": {
            "NORMAL": 30,
            "POSITION": 29
          },
          "indices": 31,
          "material": 6,
          "mode": 4
        }
      ]
    }
  ],
  "nodes": [
    {
      "children": [
        1
      ],
      "matrix": [
        -0.09969722176833251,
        -0.0033608809257429963,
        -0.608413329243831,
        0.0,
        -0.6084226266033816,
        0.0005507199446288338,
        0.09969569670737854,
        0.0,
        0.0,
        0.6165273884880662,
        -0.0034057028461485245,
        0.0,
        -0.04130057618021965,
        7.504999666706208e-05,
        0.06225627288222313,
        1.0
      ],
      "name": "Sketchfab_model"
    },
    {
      "children": [
        2
      ],
      "matrix": [
        1.0,
        0.0,
        0.0,
        0.0,
        0.0,
        0.0,
        1.0,
        0.0,
        0.0,
        -1.0,
        0.0,
        0.0,
        0.0,
        0.0,
        0.0,
        1.0
      ],
      "name": "NC.fbx"
    },
    {
      "children": [
        3
      ],
      "name": "Object_2"
    },
    {
      "children": [
        4,
        83,
        84,
        85
      ],
      "name": "RootNode"
    },
    {
      "children": [
        5
      ],
      "name": "Ninja Cyborg ",
      "rotation": [
        8.146034247147327e-08,
        0.0,
        0.0,
        1.0
      ],
      "scale": [
        0.9105139374732971,
        1.0176892280578613,
        0.8789838552474976
      ]
    },
    {
      "children": [
        6,
        76,
        77,
        78,
        79,
        80,
        82,
        75,
        81
      ],
      "name": "Object_5"
    },
    {
      "children": [
        7
      ],
      "name": "_rootJoint"
    },
    {
      "children": [
        8,
        65,
        70
      ],
      "name": "mixamorig:Hips_02",
      "rotation": [
        0.12511922419071198,
        0.0009875850519165397,
        -0.020741775631904602,
        0.9919244050979614
      ],
      "scale": [
        0.9999998807907104,
        0.9999998807907104,
        0.9999999403953552
      ],
      "translation": [
        0.6116152405738831,
        132.2854766845703,
        22.371919631958008
      ]
    },
    {
      "children": [
        9
      ],
      "name": "mixamorig:Spine_03",
      "rotation": [
        0.17486974596977234,
        -0.2005304992198944,
        -0.02218995802104473,
        0.9636989831924438
      ],
      "scale": [
        1.0,
        0.9999999403953552,
        0.9999999403953552
      ],
      "translation": [
        1.4901161193847656e-08,
        26.22173309326172,
        -3.017256736755371
      ]
    },
    {
      "children": [
        10
      ],
      "name": "mixamorig:Spine1_04",
      "rotation": [
        0.24477925896644592,
        -0.0002855753409676254,
        0.00028442437178455293,
        0.969578742980957
      ],
      "scale": [
        1.0000001192092896,
        1.0,
        0.9999999403953552
      ],
      "translation": [
        -1.9073486328125e-06,
        30.793895721435547,
        -7.927417755126953e-06
      ]
    },
    {
      "children": [
        11,
        14,
        38
      ],
      "name": "mixamorig:Spine2_05",
      "rotation": [
        0.1941617876291275,
        -0.0001275023678317666,
        0.00027379218954592943,
        0.9809694886207581
      ],
      "scale": [
        0.9999999403953552,
        1.0,
        0.9999999403953552
      ],
      "translation": [
        -4.291534423828125e-06,
        35.19301986694336,
        1.33514404296875e-05
      ]
    },
    {
      "children": [
        12
      ],
      "name": "mixamorig:Neck_06",
      "rotation": [
        -0.2226058840751648,
        0.16760186851024628,
        -0.13877183198928833,
        0.9503151178359985
      ],
      "scale": [
        1.0,
        0.9999998807907104,
        1.0
      ],
      "translation": [
        2.86102294921875e-06,
        39.592132568359375,
        9.5367431640625e-07
      ]
    },
    {
      "children": [
        13
      ],
      "name": "mixamorig:Head_07",
      "rotation": [
        -0.3093778192996979,
        0.0003626056422945112,
        -0.00047675706446170807,
        0.9509391188621521
      ],
      "scale": [
        0.9999998807907104,
        0.9999998807907104,
        1.0
      ],
      "translation": [
        -2.384185791015625e-07,
        28.009963989257813,
        13.158846855163574
      ]
    },
    {
      "name": "mixamorig:Head_end_056",
      "rotation": [
        -2.7755575615628914e-17,
        -1.734723475976807e-18,
        -8.673617379884035e-19,
        1.0
      ],
      "translation": [
        0.0,
        57.354736328125,
        -1.4210854715202004e-14
      ]
    },
    {
      "children": [
        15
      ],
      "name": "mixamorig:LeftShoulder_08",
      "rotation": [
        0.5636469125747681,
        0.14749586582183838,
        -0.5362148284912109,
        0.6107543110847473
      ],
      "scale": [
        1.000000238418579,
        1.000000238418579,
        1.0000001192092896
      ],
      "translation": [
        18.6953067779541,
        32.62031555175781,
        -0.8732962608337402
      ]
    },
    {
      "children": [
        16
      ],
      "name": "mixamorig:LeftArm_09",
      "rotation": [
        0.15249592065811157,
        0.034541964530944824,
        0.23159249126911163,
        0.9601649641990662
      ],
      "scale": [
        1.0,
        0.9999997615814209,
        0.9999999403953552
      ],
      "translation": [
        -9.5367431640625e-06,
        40.1341667175293,
        4.291534423828125e-06
      ]
    },
    {
      "children": [
        17
      ],
      "name": "mixamorig:LeftForeArm_010",
      "rotation": [
        -0.02248900942504406,
        -0.002865853253751993,
        0.12639357149600983,
        0.9917210936546326
      ],
      "scale": [
        0.9999998807907104,
        0.9999999403953552,
        0.9999999403953552
      ],
      "translation": [
        3.552713678800501e-15,
        63.38707733154297,
        3.4570693969726563e-06
      ]
    },
    {
      "children": [
        18,
        22,
        26,
        30,
        34
      ],
      "name": "mixamorig:LeftHand_011",
      "rotation": [
        -0.13273178040981293,
        0.03942182660102844,
        -0.0681285485625267,
        0.9880216121673584
      ],
      "scale": [
        1.0000001192092896,
        0.9999999403953552,
        0.9999998807907104
      ],
      "translation": [
        1.2636184692382813e-05,
        60.095115661621094,
        4.4345855712890625e-05
      ]
    },
    {
      "children": [
        19
      ],
      "name": "mixamorig:LeftHandThumb1_012",
      "rotation": [
        -0.134126678109169,
        0.3209126591682434,
        0.3359493613243103,
        0.8753074407577515
      ],
      "scale": [
        1.0,
        0.9999999403953552,
        1.0000001192092896
      ],
      "translation": [
        -12.90585708618164,
        17.65165901184082,
        3.7832512855529785
      ]
    },
    {
      "children": [
        20
      ],
      "name": "mixamorig:LeftHandThumb2_013",
      "rotation": [
        0.10503588616847992,
        1.74189580093298e-07,
        -1.011423336194639e-07,
        0.9944684505462646
      ],
      "scale": [
        0.9999997019767761,
        0.9999999403953552,
        0.9999999403953552
      ],
      "translation": [
        2.383108615875244,
        14.30603313446045,
        1.2671966552734375
      ]
    },
    {
      "children": [
        21
      ],
      "name": "mixamorig:LeftHandThumb3_014",
      "rotation": [
        0.014186316169798374,
        -9.6494727586105e-07,
        -1.0804430417010735e-07,
        0.9998993873596191
      ],
      "scale": [
        1.0,
        0.9999996423721313,
        0.9999998807907104
      ],
      "translation": [
        -2.203176975250244,
        12.743453025817871,
        0.13074111938476563
      ]
    },
    {
      "name": "mixamorig:LeftHandThumb3_end_058",
      "rotation": [
        -4.163336342344337e-17,
        5.551115123125783e-17,
        2.7755575615628914e-17,
        1.0
      ],
      "translation": [
        0.0,
        8.758145332336426,
        -1.4210854715202004e-14
      ]
    },
    {
      "children": [
        23
      ],
      "name": "mixamorig:LeftHandIndex1_015",
      "rotation": [
        0.03352096304297447,
        0.014343691058456898,
        -0.04017241671681404,
        0.9985274076461792
      ],
      "scale": [
        1.0,
        1.0,
        1.000000238418579
      ],
      "translation": [
        -10.545642852783203,
        38.600685119628906,
        -0.1584622859954834
      ]
    },
    {
      "children": [
        24
      ],
      "name": "mixamorig:LeftHandIndex2_016",
      "rotation": [
        -0.13478992879390717,
        -0.0009291484602726996,
        0.0019351642113178968,
        0.9908719658851624
      ],
      "scale": [
        0.9999992847442627,
        0.9999992847442627,
        0.9999995827674866
      ],
      "translation": [
        -0.0025645196437835693,
        10.04153823852539,
        -1.055002212524414e-05
      ]
    },
    {
      "children": [
        25
      ],
      "name": "mixamorig:LeftHandIndex3_017",
      "rotation": [
        -0.28559648990631104,
        -0.0015576027799397707,
        0.001522430800832808,
        0.958347499370575
      ],
      "scale": [
        0.9999998211860657,
        0.9999997615814209,
        1.0000001192092896
      ],
      "translation": [
        -0.016408801078796387,
        9.6470308303833,
        5.340576171875e-05
      ]
    },
    {
      "name": "mixamorig:LeftHandIndex3_end_062",
      "rotation": [
        1.1102230246251565e-16,
        1.3877787807814457e-17,
        -1.5407439555097887e-33,
        1.0
      ],
      "translation": [
        -3.552713678800501e-15,
        6.592294692993164,
        -7.105427357601002e-15
      ]
    },
    {
      "children": [
        27
      ],
      "name": "mixamorig:LeftHandMiddle1_018",
      "rotation": [
        0.25338083505630493,
        -0.020543169230222702,
        -0.12070846557617188,
        0.9595861434936523
      ],
      "scale": [
        1.0000001192092896,
        1.0,
        1.000000238418579
      ],
      "translation": [
        -4.23326301574707,
        36.84595489501953,
        -0.9229974746704102
      ]
    },
    {
      "children": [
        28
      ],
      "name": "mixamorig:LeftHandMiddle2_019",
      "rotation": [
        0.38932710886001587,
        -0.004256649874150753,
        0.010616288520395756,
        0.9210285544395447
      ],
      "scale": [
        0.9999997615814209,
        1.0,
        0.9999998807907104
      ],
      "translation": [
        -0.00010335445404052734,
        10.912299156188965,
        2.5093555450439453e-05
      ]
    },
    {
      "children": [
        29
      ],
      "name": "mixamorig:LeftHandMiddle3_020",
      "rotation": [
        0.35785791277885437,
        0.010077835991978645,
        0.010959387756884098,
        0.9336574673652649
      ],
      "scale": [
        0.9999999403953552,
        0.9999998211860657,
        0.9999998211860657
      ],
      "translation": [
        1.3440847396850586e-05,
        10.012405395507813,
        -0.00011909008026123047
      ]
    },
    {
      "name": "mixamorig:LeftHandMiddle3_end_067",
      "rotation": [
        0.0,
        -0.0,
        -2.7755575615628914e-17,
        1.0
      ],
      "translation": [
        -7.105427357601002e-15,
        7.515840530395508,
        0.0
      ]
    },
    {
      "children": [
        31
      ],
      "name": "mixamorig:LeftHandRing1_021",
      "rotation": [
        0.09074121713638306,
        -0.0016228111926466227,
        -0.16363656520843506,
        0.9823373556137085
      ],
      "scale": [
        1.0000001192092896,
        1.000000238418579,
        1.0000001192092896
      ],
      "translation": [
        2.653254985809326,
        35.17876434326172,
        -0.8754262924194336
      ]
    },
    {
      "children": [
        32
      ],
      "name": "mixamorig:LeftHandRing2_022",
      "rotation": [
        0.5835543274879456,
        -0.006416796240955591,
        0.01762511394917965,
        0.8118574619293213
      ],
      "scale": [
        0.9999996423721313,
        0.9999995827674866,
        0.9999997615814209
      ],
      "translation": [
        0.0005831718444824219,
        9.16435718536377,
        2.8014183044433594e-05
      ]
    },
    {
      "children": [
        33
      ],
      "name": "mixamorig:LeftHandRing3_023",
      "rotation": [
        -0.043565478175878525,
        3.3373041219419974e-07,
        -2.9084884545227396e-07,
        0.9990506768226624
      ],
      "scale": [
        0.9999997615814209,
        0.9999999403953552,
        0.9999999403953552
      ],
      "translation": [
        0.0066127777099609375,
        9.768001556396484,
        -2.7418136596679688e-05
      ]
    },
    {
      "name": "mixamorig:LeftHandRing3_end_061",
      "rotation": [
        -2.7755575615628914e-17,
        -1.3877787807814457e-17,
        -3.851859888774472e-34,
        1.0
      ],
      "translation": [
        7.105427357601002e-15,
        7.093970775604248,
        0.0
      ]
    },
    {
      "children": [
        35
      ],
      "name": "mixamorig:LeftHandPinky1_024",
      "rotation": [
        0.4273717701435089,
        -0.09510059654712677,
        -0.194902703166008,
        0.8776800036430359
      ],
      "scale": [
        0.9999998807907104,
        1.0,
        1.0000001192092896
      ],
      "translation": [
        8.485116958618164,
        31.238033294677734,
        -0.587092399597168
      ]
    },
    {
      "children": [
        36
      ],
      "name": "mixamorig:LeftHandPinky2_025",
      "rotation": [
        0.26612895727157593,
        -0.008501547388732433,
        0.00409579835832119,
        0.9638912677764893
      ],
      "scale": [
        0.9999996423721313,
        1.0000007152557373,
        0.9999999403953552
      ],
      "translation": [
        6.67572021484375e-06,
        9.478415489196777,
        1.6689300537109375e-05
      ]
    },
    {
      "children": [
        37
      ],
      "name": "mixamorig:LeftHandPinky3_026",
      "rotation": [
        -0.02523159235715866,
        1.2111050295970927e-07,
        -1.4905906198237062e-07,
        0.9996816515922546
      ],
      "scale": [
        0.9999998211860657,
        1.000000238418579,
        1.0
      ],
      "translation": [
        0.0064105987548828125,
        7.914032459259033,
        5.7220458984375e-05
      ]
    },
    {
      "name": "mixamorig:LeftHandPinky3_end_059",
      "rotation": [
        2.7755575615628914e-17,
        -5.551115123125783e-17,
        5.551115123125783e-17,
        1.0
      ],
      "translation": [
        -7.105427357601002e-15,
        5.6989827156066895,
        0.0
      ]
    },
    {
      "children": [
        39
      ],
      "name": "mixamorig:RightShoulder_027",
      "rotation": [
        0.5688638687133789,
        -0.4117852747440338,
        0.591490626335144,
        0.3961888253688812
      ],
      "scale": [
        0.9999999403953552,
        0.9999999403953552,
        0.9999999403953552
      ],
      "translation": [
        -18.695295333862305,
        32.60417938232422,
        -0.7330167293548584
      ]
    },
    {
      "children": [
        40
      ],
      "name": "mixamorig:RightArm_028",
      "rotation": [
        0.11182785779237747,
        0.2936265170574188,
        0.0605897381901741,
        0.9474211931228638
      ],
      "scale": [
        0.9999998807907104,
        0.9999998211860657,
        0.9999998807907104
      ],
      "translation": [
        9.5367431640625e-06,
        40.134193420410156,
        -1.1444091796875e-05
      ]
    },
    {
      "children": [
        41
      ],
      "name": "mixamorig:RightForeArm_029",
      "rotation": [
        0.3662870228290558,
        0.16071602702140808,
        -0.2098456770181656,
        0.8921709060668945
      ],
      "scale": [
        1.0000001192092896,
        1.0000001192092896,
        1.0000001192092896
      ],
      "translation": [
        -7.62939453125e-06,
        63.395301818847656,
        -9.5367431640625e-07
      ]
    },
    {
      "children": [
        42,
        46,
        50,
        54,
        58,
        62
      ],
      "name": "mixamorig:RightHand_030",
      "rotation": [
        0.0005786182591691613,
        0.012038394808769226,
        0.1347365528345108,
        0.9908081293106079
      ],
      "scale": [
        1.0,
        1.0,
        0.9999999403953552
      ],
      "translation": [
        2.574920654296875e-05,
        59.99174499511719,
        -4.9591064453125e-05
      ]
    },
    {
      "children": [
        43
      ],
      "name": "mixamorig:RightHandThumb1_031",
      "rotation": [
        0.5070312023162842,
        -0.347628653049469,
        -0.2892206609249115,
        0.7337745428085327
      ],
      "scale": [
        0.9999998211860657,
        0.9999997615814209,
        0.9999997615814209
      ],
      "translation": [
        7.793259620666504,
        11.00836181640625,
        0.9876880645751953
      ]
    },
    {
      "children": [
        44
      ],
      "name": "mixamorig:RightHandThumb2_032",
      "rotation": [
        0.09332194179296494,
        -0.03573846071958542,
        0.4687756597995758,
        0.8776463866233826
      ],
      "scale": [
        1.0000001192092896,
        1.000000238418579,
        1.000000238418579
      ],
      "translation": [
        -2.539907217025757,
        10.516671180725098,
        -4.982948303222656e-05
      ]
    },
    {
      "children": [
        45
      ],
      "name": "mixamorig:RightHandThumb3_033",
      "rotation": [
        -0.017458805814385414,
        0.014921857044100761,
        0.29540058970451355,
        0.955097496509552
      ],
      "scale": [
        1.0000001192092896,
        0.9999998211860657,
        1.0
      ],
      "translation": [
        3.293832778930664,
        9.983589172363281,
        -3.62396240234375e-05
      ]
    },
    {
      "name": "mixamorig:RightHandThumb3_end_065",
      "rotation": [
        -1.3877787807814457e-17,
        9.454242944073599e-17,
        6.938893903907228e-18,
        1.0
      ],
      "translation": [
        0.0,
        8.902926445007324,
        5.3290705182007514e-15
      ]
    },
    {
      "children": [
        47
      ],
      "name": "mixamorig:RightHandIndex1_034",
      "rotation": [
        0.693047285079956,
        0.0025581540539860725,
        0.03657232224941254,
        0.7199593186378479
      ],
      "scale": [
        0.9999999403953552,
        1.0000001192092896,
        1.0
      ],
      "translation": [
        7.9294843673706055,
        38.09485626220703,
        -0.9383049011230469
      ]
    },
    {
      "children": [
        48
      ],
      "name": "mixamorig:RightHandIndex2_035",
      "rotation": [
        0.6617745757102966,
        -0.013750235550105572,
        0.013120010495185852,
        0.7494619488716125
      ],
      "scale": [
        1.0,
        1.0000001192092896,
        1.0
      ],
      "translation": [
        0.06846141815185547,
        11.826744079589844,
        -0.1964712142944336
      ]
    },
    {
      "children": [
        49
      ],
      "name": "mixamorig:RightHandIndex3_036",
      "rotation": [
        0.25302135944366455,
        0.001156490296125412,
        0.0059653217904269695,
        0.9674416184425354
      ],
      "scale": [
        0.9999998211860657,
        1.0,
        1.0000001192092896
      ],
      "translation": [
        0.0253143310546875,
        10.492151260375977,
        -0.2447681427001953
      ]
    },
    {
      "name": "mixamorig:RightHandIndex3_end_054",
      "rotation": [
        2.7755575615628914e-17,
        5.551115123125783e-17,
        -2.7755575615628914e-17,
        1.0
      ],
      "translation": [
        1.7763568394002505e-15,
        7.675360202789307,
        0.0
      ]
    },
    {
      "children": [
        51
      ],
      "name": "mixamorig:RightHandMiddle1_037",
      "rotation": [
        0.6943008899688721,
        0.02895800955593586,
        0.04968380182981491,
        0.7173835635185242
      ],
      "scale": [
        0.9999998807907104,
        0.9999998807907104,
        0.9999995827674866
      ],
      "translation": [
        2.4149789810180664,
        37.42189407348633,
        -0.0707693099975586
      ]
    },
    {
      "children": [
        52
      ],
      "name": "mixamorig:RightHandMiddle2_038",
      "rotation": [
        0.6297480463981628,
        -0.013770166784524918,
        0.014835883863270283,
        0.77653568983078
      ],
      "scale": [
        1.0000001192092896,
        1.0000001192092896,
        1.0000005960464478
      ],
      "translation": [
        -0.028718233108520508,
        10.51815128326416,
        1.3380184173583984
      ]
    },
    {
      "children": [
        53
      ],
      "name": "mixamorig:RightHandMiddle3_039",
      "rotation": [
        0.33328670263290405,
        0.0017949992325156927,
        0.006116785109043121,
        0.9428039789199829
      ],
      "scale": [
        0.9999997615814209,
        1.0,
        1.0
      ],
      "translation": [
        -0.03343832492828369,
        9.972200393676758,
        0.6323673725128174
      ]
    },
    {
      "name": "mixamorig:RightHandMiddle3_end_057",
      "rotation": [
        5.551115123125783e-17,
        -2.7755575615628914e-17,
        -5.551115123125783e-17,
        1.0
      ],
      "translation": [
        -1.4210854715202004e-14,
        7.464389324188232,
        0.0
      ]
    },
    {
      "children": [
        55
      ],
      "name": "mixamorig:RightHandRing1_040",
      "rotation": [
        0.7077053785324097,
        0.02672669291496277,
        0.04374371096491814,
        0.7046455144882202
      ],
      "scale": [
        1.0,
        1.0000001192092896,
        0.9999997615814209
      ],
      "translation": [
        -3.6531801223754883,
        36.766143798828125,
        0.056624412536621094
      ]
    },
    {
      "children": [
        56
      ],
      "name": "mixamorig:RightHandRing2_041",
      "rotation": [
        0.6512484550476074,
        -0.012965451925992966,
        0.015452301129698753,
        0.7585964798927307
      ],
      "scale": [
        0.9999998807907104,
        1.000000238418579,
        1.0000001192092896
      ],
      "translation": [
        -0.03400897979736328,
        9.880898475646973,
        0.7969093322753906
      ]
    },
    {
      "children": [
        57
      ],
      "name": "mixamorig:RightHandRing3_042",
      "rotation": [
        0.1667228490114212,
        0.0013166200369596481,
        0.006213353015482426,
        0.9859833717346191
      ],
      "scale": [
        0.9999997615814209,
        0.9999998211860657,
        0.9999998211860657
      ],
      "translation": [
        -0.01882147789001465,
        8.892831802368164,
        0.27343225479125977
      ]
    },
    {
      "name": "mixamorig:RightHandRing3_end_064",
      "rotation": [
        0.0,
        -0.0,
        -2.7755575615628914e-17,
        1.0
      ],
      "translation": [
        2.1316282072803006e-14,
        6.660869598388672,
        0.0
      ]
    },
    {
      "children": [
        59
      ],
      "name": "mixamorig:RightHandPinky1_043",
      "rotation": [
        0.7152981758117676,
        0.050030071288347244,
        0.05931669473648071,
        0.6944977045059204
      ],
      "scale": [
        0.9999998211860657,
        0.9999998807907104,
        0.9999995827674866
      ],
      "translation": [
        -9.971320152282715,
        34.99480438232422,
        -0.9026851654052734
      ]
    },
    {
      "children": [
        60
      ],
      "name": "mixamorig:RightHandPinky2_044",
      "rotation": [
        0.6282435655593872,
        -0.011696618981659412,
        0.016757244244217873,
        0.7777482867240906
      ],
      "scale": [
        1.0,
        1.000000238418579,
        1.0000001192092896
      ],
      "translation": [
        0.008634567260742188,
        9.634952545166016,
        -1.4991884231567383
      ]
    },
    {
      "children": [
        61
      ],
      "name": "mixamorig:RightHandPinky3_045",
      "rotation": [
        0.21894752979278564,
        0.0020368124824017286,
        0.006114952731877565,
        0.9757153391838074
      ],
      "scale": [
        0.9999999403953552,
        0.9999999403953552,
        0.9999999403953552
      ],
      "translation": [
        0.051459312438964844,
        7.473783493041992,
        -0.9928174018859863
      ]
    },
    {
      "name": "mixamorig:RightHandPinky3_end_055",
      "rotation": [
        2.311115933264683e-33,
        -8.326672684688674e-17,
        2.7755575615628914e-17,
        1.0
      ],
      "translation": [
        0.0,
        5.679537296295166,
        0.0
      ]
    },
    {
      "children": [
        63
      ],
      "name": "Katana_01",
      "rotation": [
        0.3970085680484772,
        -0.6412836909294128,
        -0.20818649232387543,
        0.6227341294288635
      ],
      "scale": [
        109.82811737060547,
        98.26197814941406,
        113.76768493652344
      ],
      "translation": [
        -66.38822937011719,
        71.69111633300781,
        344.51422119140625
      ]
    },
    {
      "children": [
        64
      ],
      "name": "Bone_00",
      "rotation": [
        0.3398337960243225,
        -0.600858747959137,
        0.6625227928161621,
        -0.29076674580574036
      ],
      "scale": [
        1.0000001192092896,
        1.0000001192092896,
        1.0
      ],
      "translation": [
        -1.5900756120681763,
        -3.0325777530670166,
        0.15627790987491608
      ]
    },
    {
      "name": "Bone_end_060",
      "rotation": [
        -5.551115123125783e-17,
        2.7755575615628914e-17,
        3.469446951953614e-17,
        1.0
      ],
      "translation": [
        0.0,
        1.0,
        1.1102230246251565e-16
      ]
    },
    {
      "children": [
        66
      ],
      "name": "mixamorig:LeftUpLeg_046",
      "rotation": [
        0.12623682618141174,
        0.5723186731338501,
        0.6424397826194763,
        -0.49374762177467346
      ],
      "scale": [
        0.9999998211860657,
        0.9999953508377075,
        0.9999998211860657
      ],
      "translation": [
        23.557497024536133,
        -14.568666458129883,
        7.05092191696167
      ]
    },
    {
      "children": [
        67
      ],
      "name": "mixamorig:LeftLeg_047",
      "rotation": [
        0.807624876499176,
        -0.004172642249614,
        0.40125563740730286,
        -0.43210944533348083
      ],
      "scale": [
        1.000000238418579,
        1.0,
        0.9999998807907104
      ],
      "translation": [
        3.814697265625e-06,
        126.01558685302734,
        3.814697265625e-06
      ]
    },
    {
      "children": [
        68
      ],
      "name": "mixamorig:LeftFoot_048",
      "rotation": [
        0.7333590984344482,
        0.28312963247299194,
        0.043258633464574814,
        0.6165637969970703
      ],
      "scale": [
        0.9999997615814209,
        1.0,
        0.9999998211860657
      ],
      "translation": [
        -1.1920928955078125e-06,
        115.25426483154297,
        1.9073486328125e-06
      ]
    },
    {
      "children": [
        69
      ],
      "name": "mixamorig:LeftToeBase_049",
      "rotation": [
        0.2993756830692291,
        -0.08412398397922516,
        0.02650919184088707,
        0.9500498175621033
      ],
      "scale": [
        0.9999999403953552,
        0.9999995231628418,
        0.9999998807907104
      ],
      "translation": [
        -9.417533874511719e-06,
        43.28971862792969,
        1.3470649719238281e-05
      ]
    },
    {
      "name": "mixamorig:LeftToeBase_end_063",
      "rotation": [
        -3.159728815010309e-35,
        -4.553649124439119e-18,
        -6.938893903907228e-18,
        1.0
      ],
      "translation": [
        0.0,
        18.7885799407959,
        1.7763568394002505e-15
      ]
    },
    {
      "children": [
        71
      ],
      "name": "mixamorig:RightUpLeg_050",
      "rotation": [
        0.19097916781902313,
        -0.01021247822791338,
        0.810827910900116,
        0.5531553030014038
      ],
      "scale": [
        0.999997079372406,
        0.9999886751174927,
        0.9999997615814209
      ],
      "translation": [
        -23.5574951171875,
        -14.568671226501465,
        7.467256546020508
      ]
    },
    {
      "children": [
        72
      ],
      "name": "mixamorig:RightLeg_051",
      "rotation": [
        -0.046999070793390274,
        0.039635494351387024,
        0.01554078422486782,
        0.9979872703552246
      ],
      "scale": [
        1.0,
        0.9999999403953552,
        0.9999999403953552
      ],
      "translation": [
        7.62939453125e-06,
        126.05144500732422,
        1.9073486328125e-06
      ]
    },
    {
      "children": [
        73
      ],
      "name": "mixamorig:RightFoot_052",
      "rotation": [
        0.43048954010009766,
        0.5298214554786682,
        0.30732911825180054,
        0.6629606485366821
      ],
      "scale": [
        0.9999998807907104,
        0.9999994039535522,
        0.9999999403953552
      ],
      "translation": [
        -3.814697265625e-06,
        115.17218017578125,
        5.7220458984375e-06
      ]
    },
    {
      "children": [
        74
      ],
      "name": "mixamorig:RightToeBase_053",
      "rotation": [
        0.3013114333152771,
        0.08511650562286377,
        -0.027015987783670425,
        0.9493349194526672
      ],
      "scale": [
        0.9999999403953552,
        1.0000003576278687,
        1.0000001192092896
      ],
      "translation": [
        3.966689109802246e-05,
        43.014007568359375,
        8.344650268554688e-06
      ]
    },
    {
      "name": "mixamorig:RightToeBase_end_066",
      "rotation": [
        6.938893903907228e-18,
        -1.0408340855860843e-17,
        -2.7755575615628914e-17,
        1.0
      ],
      "translation": [
        0.0,
        18.817073822021484,
        0.0
      ]
    },
    {
      "matrix": [
        67.97248067435662,
        64.34800204352663,
        -30.266932347758573,
        0.0,
        2.510723588385386,
        -3.391482521567219,
        -1.5718478863860972,
        0.0,
        -9.537539217106568,
        1.4437929427171527,
        -18.349563890588044,
        0.0,
        102.56006900593363,
        -76.42307623615804,
        -2.0052244071449614,
        1.0
      ],
      "name": "Object_75"
    },
    {
      "mesh": 0,
      "name": "Object_76",
      "skin": 0
    },
    {
      "mesh": 1,
      "name": "Object_77",
      "skin": 0
    },
    {
      "mesh": 2,
      "name": "Object_78",
      "skin": 0
    },
    {
      "mesh": 3,
      "name": "Object_79",
      "skin": 0
    },
    {
      "mesh": 4,
      "name": "Object_80",
      "skin": 0
    },
    {
      "matrix": [
        91.05140069399977,
        2.167354372201447e-14,
        8.382643272853132e-07,
        0.0,
        8.092358597866216e-07,
        7.472403925439158e-06,
        -87.89835870029417,
        0.0,
        -1.038753172301864e-13,
        101.76892641356191,
        8.651566837708015e-06,
        0.0,
        1.947803330182296e-06,
        -6.064840363251278e-08,
        3.894693445527508e-06,
        1.0
      ],
      "name": "Object_81"
    },
    {
      "mesh": 5,
      "name": "Object_82",
      "skin": 0
    },
    {
      "name": "Blade",
      "rotation": [
        0.8586563467979431,
        0.36203593015670776,
        -0.3619503676891327,
        -0.02512412518262863
      ],
      "scale": [
        98.37178802490234,
        4.50295352935791,
        20.730548858642578
      ],
      "translation": [
        102.56006622314453,
        -76.4230728149414,
        -2.0052223205566406
      ]
    },
    {
      "name": "Ninja Cyborg.002",
      "rotation": [
        -0.7071068286895752,
        1.2700042129054623e-09,
        -5.239046529936786e-09,
        0.7071067094802856
      ],
      "scale": [
        91.0513916015625,
        87.89836120605469,
        101.7689208984375
      ],
      "translation": [
        1.953751052496955e-06,
        4.852720394410426e-06,
        3.772189302253537e-06
      ]
    },
    {
      "children": [
        86
      ],
      "name": "FlashLight",
      "rotation": [
        0.08675103634595871,
        0.976948618888855,
        0.18499235808849335,
        0.061834122985601425
      ],
      "scale": [
        3.534944534301758,
        3.534945249557495,
        3.5349457263946533
      ],
      "translation": [
        -13.966165542602539,
        211.59205627441406,
        164.58311462402344
      ]
    },
    {
      "mesh": 6,
      "name": "FlashLight_FlashLight_0"
    }
  ],
  "samplers": [
    {
      "magFilter": 9729,
      "minFilter": 9987,
      "wrapS": 10497,
      "wrapT": 10497
    }
  ],
  "scene": 0,
  "scenes": [
    {
      "name": "Sketchfab_Scene",
      "nodes": [
        0
      ]
    }
  ],
  "skins": [
    {
      "inverseBindMatrices": 32,
      "joints": [
        6,
        7,
        8,
        9,
        10,
        11,
        12,
        13,
        14,
        15,
        16,
        17,
        18,
        19,
        20,
        21,
        22,
        23,
        24,
        25,
        26,
        27,
        28,
        29,
        30,
        31,
        32,
        33,
        34,
        35,
        36,
        37,
        38,
        39,
        40,
        41,
        42,
        43,
        44,
        45,
        46,
        47,
        48,
        49,
        50,
        51,
        52,
        53,
        54,
        55,
        56,
        57,
        58,
        59,
        60,
        61,
        62,
        63,
        64,
        65,
        66,
        67,
        68,
        69,
        70,
        71,
        72,
        73,
        74
      ],
      "skeleton": 6
    }
  ],
  "textures": [
    {
      "sampler": 0,
      "source": 0
    },
    {
      "sampler": 0,
      "source": 1
    },
    {
      "sampler": 0,
      "source": 2
    },
    {
      "sampler": 0,
      "source": 3
    },
    {
      "sampler": 0,
      "source": 4
    },
    {
      "sampler": 0,
      "source": 5
    },
    {
      "sampler": 0,
      "source": 6
    },
    {
      "sampler": 0,
      "source": 7
    },
    {
      "sampler": 0,
      "source": 8
    },
    {
      "sampler": 0,
      "source": 9
    },
    {
      "sampler": 0,
      "source": 10
    },
    {
      "sampler": 0,
      "source": 11
    },
    {
      "sampler": 0,
      "source": 12
    },
    {
      "sampler": 0,
      "source": 13
    },
    {
      "sampler": 0,
      "source": 14
    }
  ]
}
