{
  "accessors": [
    {
      "bufferView": 2,
      "componentType": 5126,
      "count": 3035,
      "max": [
        49.49574661254883,
        -527.0128173828125,
        153.9886932373047
      ],
      "min": [
        -49.316680908203125,
        -696.9542236328125,
        -20.759937286376953
      ],
      "type": "VEC3"
    },
    {
      "bufferView": 2,
      "byteOffset": 36420,
      "componentType": 5126,
      "count": 3035,
      "max": [
        1.0,
        1.0,
        1.0
      ],
      "min": [
        -1.0,
        -1.0,
        -1.0
      ],
      "type": "VEC3"
    },
    {
      "bufferView": 1,
      "componentType": 5126,
      "count": 3035,
      "max": [
        0.997623085975647,
        0.9959151744842529
      ],
      "min": [
        0.007962137460708618,
        0.010615047067403793
      ],
      "type": "VEC2"
    },
    {
      "bufferView": 0,
      "componentType": 5125,
      "count": 10998,
      "type": "SCALAR"
    },
    {
      "bufferView": 2,
      "byteOffset": 72840,
      "componentType": 5126,
      "count": 1867,
      "max": [
        42.83916473388672,
        161.3504638671875,
        92.38858032226563
      ],
      "min": [
        -42.83915710449219,
        -2.0048141479492188,
        -35.12519836425781
      ],
      "type": "VEC3"
    },
    {
      "bufferView": 2,
      "byteOffset": 95244,
      "componentType": 5126,
      "count": 1867,
      "max": [
        1.0,
        1.0,
        1.0
      ],
      "min": [
        -1.0,
        -1.0,
        -1.0
      ],
      "type": "VEC3"
    },
    {
      "bufferView": 1,
      "byteOffset": 24280,
      "componentType": 5126,
      "count": 1867,
      "max": [
        0.9891150593757629,
        0.9959151744842529
      ],
      "min": [
        0.0033359117805957794,
        0.018673554062843323
      ],
      "type": "VEC2"
    },
    {
      "bufferView": 0,
      "byteOffset": 43992,
      "componentType": 5125,
      "count": 6054,
      "type": "SCALAR"
    },
    {
      "bufferView": 2,
      "byteOffset": 117648,
      "componentType": 5126,
      "count": 1867,
      "max": [
        42.83916473388672,
        161.3504638671875,
        92.38858032226563
      ],
      "min": [
        -42.83915710449219,
        -2.0048141479492188,
        -35.12519836425781
      ],
      "type": "VEC3"
    },
    {
      "bufferView": 2,
      "byteOffset": 140052,
      "componentType": 5126,
      "count": 1867,
      "max": [
        1.0,
        1.0,
        1.0
      ],
      "min": [
        -1.0,
        -1.0,
        -1.0
      ],
      "type": "VEC3"
    },
    {
      "bufferView": 1,
      "byteOffset": 39216,
      "componentType": 5126,
      "count": 1867,
      "max": [
        0.9891150593757629,
        0.9959151744842529
      ],
      "min": [
        0.0033359117805957794,
        0.018673554062843323
      ],
      "type": "VEC2"
    },
    {
      "bufferView": 0,
      "byteOffset": 68208,
      "componentType": 5125,
      "count": 6054,
      "type": "SCALAR"
    },
    {
      "bufferView": 2,
      "byteOffset": 162456,
      "componentType": 5126,
      "count": 1867,
      "max": [
        42.83916473388672,
        161.3504638671875,
        92.38858032226563
      ],
      "min": [
        -42.83915710449219,
        -2.0048141479492188,
        -35.12519836425781
      ],
      "type": "VEC3"
    },
    {
      "bufferView": 2,
      "byteOffset": 184860,
      "componentType": 5126,
      "count": 1867,
      "max": [
        1.0,
        1.0,
        1.0
      ],
      "min": [
        -1.0,
        -1.0,
        -1.0
      ],
      "type": "VEC3"
    },
    {
      "bufferView": 1,
      "byteOffset": 54152,
      "componentType": 5126,
      "count": 1867,
      "max": [
        0.9891150593757629,
        0.9959151744842529
      ],
      "min": [
        0.0033359117805957794,
        0.018673554062843323
      ],
      "type": "VEC2"
    },
    {
      "bufferView": 0,
      "byteOffset": 92424,
      "componentType": 5125,
      "count": 6054,
      "type": "SCALAR"
    },
    {
      "bufferView": 2,
      "byteOffset": 207264,
      "componentType": 5126,
      "count": 6680,
      "max": [
        1140.8765869140625,
        1742.9127197265625,
        217.93511962890625
      ],
      "min": [
        -30.42730712890625,
        -385.220703125,
        -55.221275329589844
      ],
      "type": "VEC3"
    },
    {
      "bufferView": 2,
      "byteOffset": 287424,
      "componentType": 5126,
      "count": 6680,
      "max": [
        0.9999921321868896,
        1.0,
        1.0
      ],
      "min": [
        -0.999968945980072,
        -1.0,
        -1.0
      ],
      "type": "VEC3"
    },
    {
      "bufferView": 1,
      "byteOffset": 69088,
      "componentType": 5126,
      "count": 6680,
      "max": [
        0.07854965329170227,
        0.33496516942977905
      ],
      "min": [
        0.004180258139967918,
        0.052431367337703705
      ],
      "type": "VEC2"
    },
    {
      "bufferView": 0,
      "byteOffset": 116640,
      "componentType": 5125,
      "count": 15600,
      "type": "SCALAR"
    },
    {
      "bufferView": 2,
      "byteOffset": 367584,
      "componentType": 5126,
      "count": 1867,
      "max": [
        42.83916473388672,
        161.3504638671875,
        92.38858032226563
      ],
      "min": [
        -42.83915710449219,
        -2.0048141479492188,
        -35.12519836425781
      ],
      "type": "VEC3"
    },
    {
      "bufferView": 2,
      "byteOffset": 389988,
      "componentType": 5126,
      "count": 1867,
      "max": [
        1.0,
        1.0,
        1.0
      ],
      "min": [
        -1.0,
        -1.0,
        -1.0
      ],
      "type": "VEC3"
    },
    {
      "bufferView": 1,
      "byteOffset": 122528,
      "componentType": 5126,
      "count": 1867,
      "max": [
        0.9891150593757629,
        0.9959151744842529
      ],
      "min": [
        0.0033359117805957794,
        0.018673554062843323
      ],
      "type": "VEC2"
    },
    {
      "bufferView": 0,
      "byteOffset": 179040,
      "componentType": 5125,
      "count": 6054,
      "type": "SCALAR"
    },
    {
      "bufferView": 3,
      "componentType": 5126,
      "count": 201,
      "max": [
        6.666666507720947
      ],
      "min": [
        0.0
      ],
      "type": "SCALAR"
    },
    {
      "bufferView": 4,
      "componentType": 5126,
      "count": 201,
      "max": [
        30.062938690185547,
        2.0202929973602295,
        10.467663764953613
      ],
      "min": [
        21.63152313232422,
        0.25679874420166016,
        -10.466903686523438
      ],
      "type": "VEC3"
    },
    {
      "bufferView": 3,
      "byteOffset": 804,
      "componentType": 5126,
      "count": 196,
      "max": [
        6.666666507720947
      ],
      "min": [
        0.0
      ],
      "type": "SCALAR"
    },
    {
      "bufferView": 4,
      "byteOffset": 2412,
      "componentType": 5126,
      "count": 196,
      "max": [
        0.010000002570450306,
        0.01000000350177288,
        0.01000000350177288
      ],
      "min": [
        0.009999996982514858,
        0.009999996982514858,
        0.009999997913837433
      ],
      "type": "VEC3"
    },
    {
      "bufferView": 3,
      "byteOffset": 1588,
      "componentType": 5126,
      "count": 201,
      "max": [
        6.666666507720947
      ],
      "min": [
        0.0
      ],
      "type": "SCALAR"
    },
    {
      "bufferView": 5,
      "componentType": 5126,
      "count": 201,
      "max": [
        0.7735221982002258,
        0.7814669013023376,
        0.7802640199661255,
        0.7709039449691772
      ],
      "min": [
        -0.7763518691062927,
        -0.5108097791671753,
        -0.5313444137573242,
        -0.4964337646961212
      ],
      "type": "VEC4"
    },
    {
      "bufferView": 3,
      "byteOffset": 2392,
      "componentType": 5126,
      "count": 201,
      "max": [
        6.666666507720947
      ],
      "min": [
        0.0
      ],
      "type": "SCALAR"
    },
    {
      "bufferView": 4,
      "byteOffset": 4764,
      "componentType": 5126,
      "count": 201,
      "max": [
        30.06281089782715,
        2.0202248096466064,
        10.46754264831543
      ],
      "min": [
        21.631376266479492,
        0.25683829188346863,
        -10.466710090637207
      ],
      "type": "VEC3"
    },
    {
      "bufferView": 3,
      "byteOffset": 3196,
      "componentType": 5126,
      "count": 193,
      "max": [
        6.666666507720947
      ],
      "min": [
        0.0
      ],
      "type": "SCALAR"
    },
    {
      "bufferView": 4,
      "byteOffset": 7176,
      "componentType": 5126,
      "count": 193,
      "max": [
        0.010000002570450306,
        0.010000002570450306,
        0.010000001639127731
      ],
      "min": [
        0.009999996982514858,
        0.009999996982514858,
        0.009999996982514858
      ],
      "type": "VEC3"
    },
    {
      "bufferView": 3,
      "byteOffset": 3968,
      "componentType": 5126,
      "count": 201,
      "max": [
        6.666666507720947
      ],
      "min": [
        0.0
      ],
      "type": "SCALAR"
    },
    {
      "bufferView": 5,
      "byteOffset": 3216,
      "componentType": 5126,
      "count": 201,
      "max": [
        0.7561875581741333,
        0.7882815003395081,
        0.7744340300559998,
        0.7737136483192444
      ],
      "min": [
        -0.7680166363716125,
        -0.5216411352157593,
        -0.5111225247383118,
        -0.4919208884239197
      ],
      "type": "VEC4"
    },
    {
      "bufferView": 3,
      "byteOffset": 4772,
      "componentType": 5126,
      "count": 201,
      "max": [
        6.666666507720947
      ],
      "min": [
        0.0
      ],
      "type": "SCALAR"
    },
    {
      "bufferView": 4,
      "byteOffset": 9492,
      "componentType": 5126,
      "count": 201,
      "max": [
        30.062950134277344,
        2.0196475982666016,
        10.467422485351563
      ],
      "min": [
        21.63134765625,
        0.2567359507083893,
        -10.466780662536621
      ],
      "type": "VEC3"
    },
    {
      "bufferView": 3,
      "byteOffset": 5576,
      "componentType": 5126,
      "count": 187,
      "max": [
        6.666666507720947
      ],
      "min": [
        0.0
      ],
      "type": "SCALAR"
    },
    {
      "bufferView": 4,
      "byteOffset": 11904,
      "componentType": 5126,
      "count": 187,
      "max": [
        0.01000000350177288,
        0.01000000350177288,
        0.010000001639127731
      ],
      "min": [
        0.009999996982514858,
        0.009999996982514858,
        0.009999997913837433
      ],
      "type": "VEC3"
    },
    {
      "bufferView": 3,
      "byteOffset": 6324,
      "componentType": 5126,
      "count": 201,
      "max": [
        6.666666507720947
      ],
      "min": [
        0.0
      ],
      "type": "SCALAR"
    },
    {
      "bufferView": 5,
      "byteOffset": 6432,
      "componentType": 5126,
      "count": 201,
      "max": [
        0.7613430023193359,
        0.788261890411377,
        0.7744665145874023,
        0.7733268737792969
      ],
      "min": [
        -0.7684645056724548,
        -0.5090797543525696,
        -0.5374524593353271,
        -0.4922179579734802
      ],
      "type": "VEC4"
    },
    {
      "bufferView": 3,
      "byteOffset": 7128,
      "componentType": 5126,
      "count": 201,
      "max": [
        6.666666507720947
      ],
      "min": [
        0.0
      ],
      "type": "SCALAR"
    },
    {
      "bufferView": 4,
      "byteOffset": 14148,
      "componentType": 5126,
      "count": 201,
      "max": [
        30.062885284423828,
        2.0198159217834473,
        10.467241287231445
      ],
      "min": [
        21.631322860717773,
        0.256767600774765,
        -10.466484069824219
      ],
      "type": "VEC3"
    },
    {
      "bufferView": 3,
      "byteOffset": 7932,
      "componentType": 5126,
      "count": 183,
      "max": [
        6.666666507720947
      ],
      "min": [
        0.0
      ],
      "type": "SCALAR"
    },
    {
      "bufferView": 4,
      "byteOffset": 16560,
      "componentType": 5126,
      "count": 183,
      "max": [
        0.010000002570450306,
        0.010000002570450306,
        0.010000001639127731
      ],
      "min": [
        0.009999997913837433,
        0.009999997913837433,
        0.009999997913837433
      ],
      "type": "VEC3"
    },
    {
      "bufferView": 3,
      "byteOffset": 8664,
      "componentType": 5126,
      "count": 201,
      "max": [
        6.666666507720947
      ],
      "min": [
        0.0
      ],
      "type": "SCALAR"
    },
    {
      "bufferView": 5,
      "byteOffset": 9648,
      "componentType": 5126,
      "count": 201,
      "max": [
        0.7627151012420654,
        0.7882775664329529,
        0.7744526863098145,
        0.7734994292259216
      ],
      "min": [
        -0.7682979106903076,
        -0.5090575218200684,
        -0.5463083982467651,
        -0.49643605947494507
      ],
      "type": "VEC4"
    },
    {
      "bufferView": 3,
      "byteOffset": 9468,
      "componentType": 5126,
      "count": 201,
      "max": [
        6.666666507720947
      ],
      "min": [
        0.0
      ],
      "type": "SCALAR"
    },
    {
      "bufferView": 4,
      "byteOffset": 18756,
      "componentType": 5126,
      "count": 201,
      "max": [
        30.062955856323242,
        2.02026629447937,
        10.467649459838867
      ],
      "min": [
        21.63148307800293,
        0.25677430629730225,
        -10.466917037963867
      ],
      "type": "VEC3"
    },
    {
      "bufferView": 3,
      "byteOffset": 10272,
      "componentType": 5126,
      "count": 188,
      "max": [
        6.666666507720947
      ],
      "min": [
        0.0
      ],
      "type": "SCALAR"
    },
    {
      "bufferView": 4,
      "byteOffset": 21168,
      "componentType": 5126,
      "count": 188,
      "max": [
        0.010000002570450306,
        0.010000002570450306,
        0.010000001639127731
      ],
      "min": [
        0.009999996982514858,
        0.009999996982514858,
        0.009999997913837433
      ],
      "type": "VEC3"
    },
    {
      "bufferView": 3,
      "byteOffset": 11024,
      "componentType": 5126,
      "count": 201,
      "max": [
        6.666666507720947
      ],
      "min": [
        0.0
      ],
      "type": "SCALAR"
    },
    {
      "bufferView": 5,
      "byteOffset": 12864,
      "componentType": 5126,
      "count": 201,
      "max": [
        0.7589742541313171,
        0.7882609367370605,
        0.774466335773468,
        0.7737007737159729
      ],
      "min": [
        -0.7684361934661865,
        -0.5090107321739197,
        -0.5241283774375916,
        -0.48594871163368225
      ],
      "type": "VEC4"
    }
  ],
  "animations": [
    {
      "channels": [
        {
          "sampler": 0,
          "target": {
            "node": 4,
            "path": "translation"
          }
        },
        {
          "sampler": 1,
          "target": {
            "node": 4,
            "path": "scale"
          }
        },
        {
          "sampler": 2,
          "target": {
            "node": 4,
            "path": "rotation"
          }
        },
        {
          "sampler": 3,
          "target": {
            "node": 7,
            "path": "translation"
          }
        },
        {
          "sampler": 4,
          "target": {
            "node": 7,
            "path": "scale"
          }
        },
        {
          "sampler": 5,
          "target": {
            "node": 7,
            "path": "rotation"
          }
        },
        {
          "sampler": 6,
          "target": {
            "node": 10,
            "path": "translation"
          }
        },
        {
          "sampler": 7,
          "target": {
            "node": 10,
            "path": "scale"
          }
        },
        {
          "sampler": 8,
          "target": {
            "node": 10,
            "path": "rotation"
          }
        },
        {
          "sampler": 9,
          "target": {
            "node": 13,
            "path": "translation"
          }
        },
        {
          "sampler": 10,
          "target": {
            "node": 13,
            "path": "scale"
          }
        },
        {
          "sampler": 11,
          "target": {
            "node": 13,
            "path": "rotation"
          }
        },
        {
          "sampler": 12,
          "target": {
            "node": 19,
            "path": "translation"
          }
        },
        {
          "sampler": 13,
          "target": {
            "node": 19,
            "path": "scale"
          }
        },
        {
          "sampler": 14,
          "target": {
            "node": 19,
            "path": "rotation"
          }
        }
      ],
      "name": "Take 001",
      "samplers": [
        {
          "input": 24,
          "interpolation": "LINEAR",
          "output": 25
        },
        {
          "input": 26,
          "interpolation": "LINEAR",
          "output": 27
        },
        {
          "input": 28,
          "interpolation": "LINEAR",
          "output": 29
        },
        {
          "input": 30,
          "interpolation": "LINEAR",
          "output": 31
        },
        {
          "input": 32,
          "interpolation": "LINEAR",
          "output": 33
        },
        {
          "input": 34,
          "interpolation": "LINEAR",
          "output": 35
        },
        {
          "input": 36,
          "interpolation": "LINEAR",
          "output": 37
        },
        {
          "input": 38,
          "interpolation": "LINEAR",
          "output": 39
        },
        {
          "input": 40,
          "interpolation": "LINEAR",
          "output": 41
        },
        {
          "input": 42,
          "interpolation": "LINEAR",
          "output": 43
        },
        {
          "input": 44,
          "interpolation": "LINEAR",
          "output": 45
        },
        {
          "input": 46,
          "interpolation": "LINEAR",
          "output": 47
        },
        {
          "input": 48,
          "interpolation": "LINEAR",
          "output": 49
        },
        {
          "input": 50,
          "interpolation": "LINEAR",
          "output": 51
        },
        {
          "input": 52,
          "interpolation": "LINEAR",
          "output": 53
        }
      ]
    }
  ],
  "asset": {
    "extras": {
      "author": "ansonweese (https://sketchfab.com/ansonweese)",
      "license": "CC-BY-4.0 (http://creativecommons.org/licenses/by/4.0/)",
      "source": "https://sketchfab.com/3d-models/animated-kiddie-coaster-cb700fbf73dd4f32aff34a2996fb5b0c",
      "title": "Animated Kiddie-coaster"
    },
    "generator": "Sketchfab-12.68.0",
    "version": "2.0"
  },
  "bufferViews": [
    {
      "buffer": 0,
      "byteLength": 203256,
      "name": "floatBufferViews",
      "target": 34963
    },
    {
      "buffer": 0,
      "byteLength": 137464,
      "byteOffset": 203256,
      "byteStride": 8,
      "name": "floatBufferViews",
      "target": 34962
    },
    {
      "buffer": 0,
      "byteLength": 412392,
      "byteOffset": 340720,
      "byteStride": 12,
      "name": "floatBufferViews",
      "target": 34962
    },
    {
      "buffer": 0,
      "byteLength": 11828,
      "byteOffset": 753112,
      "name": "floatBufferViews"
    },
    {
      "buffer": 0,
      "byteLength": 23424,
      "byteOffset": 764940,
      "byteStride": 12,
      "name": "floatBufferViews"
    },
    {
      "buffer": 0,
      "byteLength": 16080,
      "byteOffset": 788364,
      "byteStride": 16,
      "name": "floatBufferViews"
    }
  ],
  "buffers": [
    {
      "byteLength": 804444,
      "uri": "scene.bin"
    }
  ],
  "images": [
    {
      "uri": "textures/coaster_baseColor.png"
    }
  ],
  "materials": [
    {
      "doubleSided": true,
      "name": "coaster",
      "pbrMetallicRoughness": {
        "baseColorTexture": {
          "index": 0
        },
        "metallicFactor": 0.0,
        "roughnessFactor": 0.6
      }
    }
  ],
  "meshes": [
    {
      "name": "coaster front_coaster_0",
      "primitives": [
        {
          "attributes": {
            "NORMAL": 1,
            "POSITION": 0,
            "TEXCOORD_0": 2
          },
          "indices": 3,
          "material": 0,
          "mode": 4
        }
      ]
    },
    {
      "name": "coaster back_coaster_0",
      "primitives": [
        {
          "attributes": {
            "NORMAL": 5,
            "POSITION": 4,
            "TEXCOORD_0": 6
          },
          "indices": 7,
          "material": 0,
          "mode": 4
        }
      ]
    },
    {
      "name": "coaster back001_coaster_0",
      "primitives": [
        {
          "attributes": {
            "NORMAL": 9,
            "POSITION": 8,
            "TEXCOORD_0": 10
          },
          "indices": 11,
          "material": 0,
          "mode": 4
        }
      ]
    },
    {
      "name": "coaster back002_coaster_0",
      "primitives": [
        {
          "attributes": {
            "NORMAL": 13,
            "POSITION": 12,
            "TEXCOORD_0": 14
          },
          "indices": 15,
          "material": 0,
          "mode": 4
        }
      ]
    },
    {
      "name": "track_coaster_0",
      "primitives": [
        {
          "attributes": {
            "NORMAL": 17,
            "POSITION": 16,
            "TEXCOORD_0": 18
          },
          "indices": 19,
          "material": 0,
          "mode": 4
        }
      ]
    },
    {
      "name": "coaster back003_coaster_0",
      "primitives": [
        {
          "attributes": {
            "NORMAL": 21,
            "POSITION": 20,
            "TEXCOORD_0": 22
          },
          "indices": 23,
          "material": 0,
          "mode": 4
        }
      ]
    }
  ],
  "nodes": [
    {
      "children": [
        1
      ],
      "matrix": [
        1.0,
        0.0,
        0.0,
        0.0,
        0.0,
        2.220446049250313e-16,
        -1.0,
        0.0,
        0.0,
        1.0,
        2.220446049250313e-16,
        0.0,
        0.0,
        0.0,
        0.0,
        1.0
      ],
      "name": "Sketchfab_model"
    },
    {
      "children": [
        2
      ],
      "matrix": [
        1.0,
        0.0,
        0.0,
        0.0,
        0.0,
        0.0,
        1.0,
        0.0,
        0.0,
        -1.0,
        0.0,
        0.0,
        0.0,
        0.0,
        0.0,
        1.0
      ],
      "name": "c9adbc2157bd4c5d867a12fc9fb7a438.fbx"
    },
    {
      "children": [
        3
      ],
      "name": "Object_2"
    },
    {
      "children": [
        4,
        7,
        10,
        13,
        16,
        19
      ],
      "name": "RootNode"
    },
    {
      "children": [
        5
      ],
      "name": "coaster front",
      "rotation": [
        -0.7067722678184509,
        0.030980505049228668,
        0.00870572216808796,
        0.7067089080810547
      ],
      "scale": [
        0.009999999776482582,
        0.009999999776482582,
        0.009999999776482582
      ],
      "translation": [
        21.712804794311523,
        0.3097684383392334,
        2.87813138961792
      ]
    },
    {
      "children": [
        6
      ],
      "matrix": [
        1.0,
        0.0,
        -0.0,
        0.0,
        0.0,
        1.0,
        0.0,
        0.0,
        0.0,
        0.0,
        1.0,
        0.0,
        -0.08953960239887238,
        588.4119873046875,
        10.784239768981934,
        1.0
      ],
      "name": "Object_5"
    },
    {
      "mesh": 0,
      "name": "coaster front_coaster_0"
    },
    {
      "children": [
        8
      ],
      "name": "coaster back",
      "rotation": [
        -0.7017791271209717,
        0.012752044014632702,
        0.005564641207456589,
        0.7122587561607361
      ],
      "scale": [
        0.009999999776482582,
        0.009999999776482582,
        0.009999999776482582
      ],
      "translation": [
        21.64862823486328,
        0.3395569622516632,
        1.3036919832229614
      ]
    },
    {
      "children": [
        9
      ],
      "matrix": [
        1.0,
        0.0,
        -0.0,
        0.0,
        0.0,
        1.0,
        0.0,
        0.0,
        0.0,
        0.0,
        1.0,
        0.0,
        -4.410219844430685e-06,
        -100.8940658569336,
        26.68453598022461,
        1.0
      ],
      "name": "Object_8"
    },
    {
      "mesh": 1,
      "name": "coaster back_coaster_0"
    },
    {
      "children": [
        11
      ],
      "name": "coaster back001",
      "rotation": [
        -0.7135237455368042,
        -0.009289632551372051,
        -0.016799960285425186,
        0.7003679871559143
      ],
      "scale": [
        0.009999999776482582,
        0.009999999776482582,
        0.009999999776482582
      ],
      "translation": [
        21.666765213012695,
        0.3294200897216797,
        -1.8816778659820557
      ]
    },
    {
      "children": [
        12
      ],
      "matrix": [
        1.0,
        0.0,
        -0.0,
        0.0,
        0.0,
        1.0,
        0.0,
        0.0,
        0.0,
        0.0,
        1.0,
        0.0,
        -4.410219844430685e-06,
        -100.8940658569336,
        26.68453598022461,
        1.0
      ],
      "name": "Object_11"
    },
    {
      "mesh": 2,
      "name": "coaster back001_coaster_0"
    },
    {
      "children": [
        14
      ],
      "name": "coaster back002",
      "rotation": [
        -0.7086432576179504,
        0.0013184595154598355,
        -0.005560095421969891,
        0.7055438160896301
      ],
      "scale": [
        0.009999999776482582,
        0.009999999776482582,
        0.009999999776482582
      ],
      "translation": [
        21.632204055786133,
        0.34997573494911194,
        -0.2871088683605194
      ]
    },
    {
      "children": [
        15
      ],
      "matrix": [
        1.0,
        0.0,
        -0.0,
        0.0,
        0.0,
        1.0,
        0.0,
        0.0,
        0.0,
        0.0,
        1.0,
        0.0,
        -4.410219844430685e-06,
        -100.8940658569336,
        26.68453598022461,
        1.0
      ],
      "name": "Object_14"
    },
    {
      "mesh": 3,
      "name": "coaster back002_coaster_0"
    },
    {
      "children": [
        17
      ],
      "name": "track",
      "rotation": [
        -0.7195655107498169,
        0.088309645652771,
        0.10977651923894882,
        0.6799823641777039
      ],
      "scale": [
        0.009999999776482582,
        0.009999999776482582,
        0.009999999776482582
      ],
      "translation": [
        25.849580764770508,
        8.489665646542043e-17,
        1.8341994488188258e-15
      ]
    },
    {
      "children": [
        18
      ],
      "matrix": [
        1.0,
        0.0,
        -0.0,
        0.0,
        0.0,
        1.0,
        0.0,
        0.0,
        0.0,
        0.0,
        1.0,
        0.0,
        -555.1181640625,
        -683.7943115234375,
        -5.905433654785156,
        1.0
      ],
      "name": "Object_17"
    },
    {
      "mesh": 4,
      "name": "track_coaster_0"
    },
    {
      "children": [
        20
      ],
      "name": "coaster back003",
      "rotation": [
        -0.7140774130821228,
        -0.019423814490437508,
        -0.028482288122177124,
        0.6992173790931702
      ],
      "scale": [
        0.009999999776482582,
        0.009999999776482582,
        0.009999999776482582
      ],
      "translation": [
        21.748008728027344,
        0.29666298627853394,
        -3.4474823474884033
      ]
    },
    {
      "children": [
        21
      ],
      "matrix": [
        1.0,
        0.0,
        -0.0,
        0.0,
        0.0,
        1.0,
        0.0,
        0.0,
        0.0,
        0.0,
        1.0,
        0.0,
        -4.410219844430685e-06,
        -100.8940658569336,
        26.68453598022461,
        1.0
      ],
      "name": "Object_20"
    },
    {
      "mesh": 5,
      "name": "coaster back003_coaster_0"
    }
  ],
  "samplers": [
    {
      "magFilter": 9729,
      "minFilter": 9987,
      "wrapS": 10497,
      "wrapT": 10497
    }
  ],
  "scene": 0,
  "scenes": [
    {
      "name": "Sketchfab_Scene",
      "nodes": [
        0
      ]
    }
  ],
  "textures": [
    {
      "sampler": 0,
      "source": 0
    }
  ]
}
