{
  "accessors": [
    {
      "bufferView": 3,
      "componentType": 5126,
      "count": 371,
      "max": [
        88.81338500976563,
        147.0572509765625,
        60.305572509765625
      ],
      "min": [
        62.2397346496582,
        130.73370361328125,
        -75.79679107666016
      ],
      "type": "VEC3"
    },
    {
      "bufferView": 3,
      "byteOffset": 4452,
      "componentType": 5126,
      "count": 371,
      "max": [
        0.999767005443573,
        0.9433005452156067,
        0.989249587059021
      ],
      "min": [
        -0.999767005443573,
        -0.9433006644248962,
        -0.8965204954147339
      ],
      "type": "VEC3"
    },
    {
      "bufferView": 4,
      "componentType": 5126,
      "count": 371,
      "max": [
        0.8873409032821655,
        0.9980069398880005,
        0.9771420359611511,
        1.0
      ],
      "min": [
        -0.9971048831939697,
        -0.9999982714653015,
        -0.998445987701416,
        -1.0
      ],
      "type": "VEC4"
    },
    {
      "bufferView": 2,
      "componentType": 5126,
      "count": 371,
      "max": [
        0.982450008392334,
        0.9926199913024902
      ],
      "min": [
        0.006020000204443932,
        0.005179999861866236
      ],
      "type": "VEC2"
    },
    {
      "bufferView": 2,
      "byteOffset": 2968,
      "componentType": 5126,
      "count": 371,
      "max": [
        0.982450008392334,
        0.9926199913024902
      ],
      "min": [
        0.006020000204443932,
        0.005179999861866236
      ],
      "type": "VEC2"
    },
    {
      "bufferView": 2,
      "byteOffset": 5936,
      "componentType": 5126,
      "count": 371,
      "max": [
        0.982450008392334,
        0.9926199913024902
      ],
      "min": [
        0.006020000204443932,
        0.005179999861866236
      ],
      "type": "VEC2"
    },
    {
      "bufferView": 1,
      "componentType": 5125,
      "count": 1200,
      "type": "SCALAR"
    },
    {
      "bufferView": 3,
      "byteOffset": 8904,
      "componentType": 5126,
      "count": 3909,
      "max": [
        71.78184509277344,
        179.47470092773438,
        18.738758087158203
      ],
      "min": [
        -71.80228424072266,
        -0.6175454258918762,
        -25.64101791381836
      ],
      "type": "VEC3"
    },
    {
      "bufferView": 3,
      "byteOffset": 55812,
      "componentType": 5126,
      "count": 3909,
      "max": [
        0.9999008774757385,
        0.9998796582221985,
        0.9999985694885254
      ],
      "min": [
        -0.9999792575836182,
        -0.9999814629554749,
        -0.9998065233230591
      ],
      "type": "VEC3"
    },
    {
      "bufferView": 4,
      "byteOffset": 5936,
      "componentType": 5126,
      "count": 3909,
      "max": [
        0.9999997615814209,
        0.9993686079978943,
        0.9999710917472839,
        1.0
      ],
      "min": [
        -0.9999971985816956,
        -0.9998172521591187,
        -0.9999350905418396,
        -1.0
      ],
      "type": "VEC4"
    },
    {
      "bufferView": 2,
      "byteOffset": 8904,
      "componentType": 5126,
      "count": 3909,
      "max": [
        0.9970920085906982,
        0.9943400025367737
      ],
      "min": [
        0.005861000157892704,
        0.005249999929219484
      ],
      "type": "VEC2"
    },
    {
      "bufferView": 2,
      "byteOffset": 40176,
      "componentType": 5126,
      "count": 3909,
      "max": [
        0.9970920085906982,
        0.9943400025367737
      ],
      "min": [
        0.005861000157892704,
        0.005249999929219484
      ],
      "type": "VEC2"
    },
    {
      "bufferView": 2,
      "byteOffset": 71448,
      "componentType": 5126,
      "count": 3909,
      "max": [
        0.9970920085906982,
        0.9943400025367737
      ],
      "min": [
        0.005861000157892704,
        0.005249999929219484
      ],
      "type": "VEC2"
    },
    {
      "bufferView": 2,
      "byteOffset": 102720,
      "componentType": 5126,
      "count": 3909,
      "max": [
        0.9970920085906982,
        0.9943400025367737
      ],
      "min": [
        0.005861000157892704,
        0.005249999929219484
      ],
      "type": "VEC2"
    },
    {
      "bufferView": 2,
      "byteOffset": 133992,
      "componentType": 5126,
      "count": 3909,
      "max": [
        0.9970920085906982,
        0.9943400025367737
      ],
      "min": [
        0.005861000157892704,
        0.005249999929219484
      ],
      "type": "VEC2"
    },
    {
      "bufferView": 2,
      "byteOffset": 165264,
      "componentType": 5126,
      "count": 3909,
      "max": [
        0.9970920085906982,
        0.9943400025367737
      ],
      "min": [
        0.005861000157892704,
        0.005249999929219484
      ],
      "type": "VEC2"
    },
    {
      "bufferView": 2,
      "byteOffset": 196536,
      "componentType": 5126,
      "count": 3909,
      "max": [
        0.9970920085906982,
        0.9943400025367737
      ],
      "min": [
        0.005861000157892704,
        0.005249999929219484
      ],
      "type": "VEC2"
    },
    {
      "bufferView": 2,
      "byteOffset": 227808,
      "componentType": 5126,
      "count": 3909,
      "max": [
        0.9970920085906982,
        0.9943400025367737
      ],
      "min": [
        0.005861000157892704,
        0.005249999929219484
      ],
      "type": "VEC2"
    },
    {
      "bufferView": 2,
      "byteOffset": 259080,
      "componentType": 5126,
      "count": 3909,
      "max": [
        0.9970920085906982,
        0.9943400025367737
      ],
      "min": [
        0.005861000157892704,
        0.005249999929219484
      ],
      "type": "VEC2"
    },
    {
      "bufferView": 1,
      "byteOffset": 4800,
      "componentType": 5125,
      "count": 18990,
      "type": "SCALAR"
    },
    {
      "bufferView": 3,
      "byteOffset": 102720,
      "componentType": 5126,
      "count": 804,
      "max": [
        4.774604797363281,
        168.0005340576172,
        7.9022216796875
      ],
      "min": [
        -4.774601936340332,
        164.5884552001953,
        4.5171589851379395
      ],
      "type": "VEC3"
    },
    {
      "bufferView": 3,
      "byteOffset": 112368,
      "componentType": 5126,
      "count": 804,
      "max": [
        0.9997977614402771,
        0.9992626309394836,
        0.9999648332595825
      ],
      "min": [
        -0.9997971653938293,
        -0.9992642998695374,
        -0.9998293519020081
      ],
      "type": "VEC3"
    },
    {
      "bufferView": 4,
      "byteOffset": 68480,
      "componentType": 5126,
      "count": 804,
      "max": [
        0.9999695420265198,
        0.652960479259491,
        0.9977594614028931,
        1.0
      ],
      "min": [
        -0.9999492764472961,
        -0.6529617309570313,
        -0.9977587461471558,
        1.0
      ],
      "type": "VEC4"
    },
    {
      "bufferView": 2,
      "byteOffset": 290352,
      "componentType": 5126,
      "count": 804,
      "max": [
        0.5983253717422485,
        0.9982977509498596
      ],
      "min": [
        0.5016746520996094,
        0.703918993473053
      ],
      "type": "VEC2"
    },
    {
      "bufferView": 2,
      "byteOffset": 296784,
      "componentType": 5126,
      "count": 804,
      "max": [
        0.5983253717422485,
        0.9982977509498596
      ],
      "min": [
        0.5016746520996094,
        0.703918993473053
      ],
      "type": "VEC2"
    },
    {
      "bufferView": 1,
      "byteOffset": 80760,
      "componentType": 5125,
      "count": 4560,
      "type": "SCALAR"
    },
    {
      "bufferView": 3,
      "byteOffset": 122016,
      "componentType": 5126,
      "count": 102,
      "max": [
        5.8851141929626465,
        166.8545684814453,
        9.293800354003906
      ],
      "min": [
        -5.738246917724609,
        164.89352416992188,
        6.958497047424316
      ],
      "type": "VEC3"
    },
    {
      "bufferView": 3,
      "byteOffset": 123240,
      "componentType": 5126,
      "count": 102,
      "max": [
        0.6828994154930115,
        0.8813780546188354,
        0.7332478165626526
      ],
      "min": [
        -0.6423226594924927,
        -0.9950568675994873,
        -0.1571921557188034
      ],
      "type": "VEC3"
    },
    {
      "bufferView": 2,
      "byteOffset": 303216,
      "componentType": 5126,
      "count": 102,
      "max": [
        0.596340000629425,
        0.6961590051651001
      ],
      "min": [
        0.5035780072212219,
        0.602649986743927
      ],
      "type": "VEC2"
    },
    {
      "bufferView": 2,
      "byteOffset": 304032,
      "componentType": 5126,
      "count": 102,
      "max": [
        0.596340000629425,
        0.6961590051651001
      ],
      "min": [
        0.5035780072212219,
        0.602649986743927
      ],
      "type": "VEC2"
    },
    {
      "bufferView": 1,
      "byteOffset": 99000,
      "componentType": 5125,
      "count": 318,
      "type": "SCALAR"
    },
    {
      "bufferView": 3,
      "byteOffset": 124464,
      "componentType": 5126,
      "count": 7156,
      "max": [
        90.49071502685547,
        177.64686584472656,
        11.11632251739502
      ],
      "min": [
        -90.49093627929688,
        137.49998474121094,
        -12.670317649841309
      ],
      "type": "VEC3"
    },
    {
      "bufferView": 3,
      "byteOffset": 210336,
      "componentType": 5126,
      "count": 7156,
      "max": [
        0.9992957711219788,
        0.9999971985816956,
        0.9999792575836182
      ],
      "min": [
        -0.999322235584259,
        -0.9999901056289673,
        -0.9999975562095642
      ],
      "type": "VEC3"
    },
    {
      "bufferView": 4,
      "byteOffset": 81344,
      "componentType": 5126,
      "count": 7156,
      "max": [
        1.0,
        0.9843258857727051,
        0.9999972581863403,
        1.0
      ],
      "min": [
        -0.9999992251396179,
        -0.9999379515647888,
        -0.9999217391014099,
        -1.0
      ],
      "type": "VEC4"
    },
    {
      "bufferView": 2,
      "byteOffset": 304848,
      "componentType": 5126,
      "count": 7156,
      "max": [
        0.9924700260162354,
        0.9978560209274292
      ],
      "min": [
        0.004989999812096357,
        0.40540000796318054
      ],
      "type": "VEC2"
    },
    {
      "bufferView": 2,
      "byteOffset": 362096,
      "componentType": 5126,
      "count": 7156,
      "max": [
        0.9924700260162354,
        0.9978560209274292
      ],
      "min": [
        0.004989999812096357,
        0.40540000796318054
      ],
      "type": "VEC2"
    },
    {
      "bufferView": 1,
      "byteOffset": 100272,
      "componentType": 5125,
      "count": 37710,
      "type": "SCALAR"
    },
    {
      "bufferView": 3,
      "byteOffset": 296208,
      "componentType": 5126,
      "count": 82,
      "max": [
        2.3066720962524414,
        2.663515567779541,
        44.479339599609375
      ],
      "min": [
        -2.3066720962524414,
        -1.3317580223083496,
        -30.560901641845703
      ],
      "type": "VEC3"
    },
    {
      "bufferView": 3,
      "byteOffset": 297192,
      "componentType": 5126,
      "count": 82,
      "max": [
        1.0,
        0.9790171384811401,
        1.0
      ],
      "min": [
        -1.0,
        -0.9790171384811401,
        -1.0
      ],
      "type": "VEC3"
    },
    {
      "bufferView": 4,
      "byteOffset": 195840,
      "componentType": 5126,
      "count": 82,
      "max": [
        1.0,
        0.9999868869781494,
        0.5881713032722473,
        1.0
      ],
      "min": [
        -0.9510565400123596,
        -1.0,
        -0.5638892650604248,
        -1.0
      ],
      "type": "VEC4"
    },
    {
      "bufferView": 2,
      "byteOffset": 419344,
      "componentType": 5126,
      "count": 82,
      "max": [
        0.9919670820236206,
        0.9991788268089294
      ],
      "min": [
        0.026948049664497375,
        0.008474588394165039
      ],
      "type": "VEC2"
    },
    {
      "bufferView": 2,
      "byteOffset": 420000,
      "componentType": 5126,
      "count": 82,
      "max": [
        0.9919670820236206,
        0.9991788268089294
      ],
      "min": [
        0.026948049664497375,
        0.008474588394165039
      ],
      "type": "VEC2"
    },
    {
      "bufferView": 2,
      "byteOffset": 420656,
      "componentType": 5126,
      "count": 82,
      "max": [
        0.9919670820236206,
        0.9991788268089294
      ],
      "min": [
        0.026948049664497375,
        0.008474588394165039
      ],
      "type": "VEC2"
    },
    {
      "bufferView": 2,
      "byteOffset": 421312,
      "componentType": 5126,
      "count": 82,
      "max": [
        0.9919670820236206,
        0.9991788268089294
      ],
      "min": [
        0.026948049664497375,
        0.008474588394165039
      ],
      "type": "VEC2"
    },
    {
      "bufferView": 2,
      "byteOffset": 421968,
      "componentType": 5126,
      "count": 82,
      "max": [
        0.9919670820236206,
        0.9991788268089294
      ],
      "min": [
        0.026948049664497375,
        0.008474588394165039
      ],
      "type": "VEC2"
    },
    {
      "bufferView": 2,
      "byteOffset": 422624,
      "componentType": 5126,
      "count": 82,
      "max": [
        0.9919670820236206,
        0.9991788268089294
      ],
      "min": [
        0.026948049664497375,
        0.008474588394165039
      ],
      "type": "VEC2"
    },
    {
      "bufferView": 2,
      "byteOffset": 423280,
      "componentType": 5126,
      "count": 82,
      "max": [
        0.9919670820236206,
        0.9991788268089294
      ],
      "min": [
        0.026948049664497375,
        0.008474588394165039
      ],
      "type": "VEC2"
    },
    {
      "bufferView": 1,
      "byteOffset": 251112,
      "componentType": 5125,
      "count": 240,
      "type": "SCALAR"
    },
    {
      "bufferView": 5,
      "componentType": 5126,
      "count": 68,
      "max": [
        1.0,
        0.0,
        0.0,
        0.0,
        0.0,
        1.0,
        0.0,
        0.0,
        0.0,
        0.0,
        1.0,
        0.0,
        87.51482391357422,
        0.0,
        10.908838272094727,
        1.0
      ],
      "min": [
        1.0,
        0.0,
        0.0,
        0.0,
        0.0,
        1.0,
        0.0,
        0.0,
        0.0,
        0.0,
        1.0,
        0.0,
        -87.51573944091797,
        -166.29449462890625,
        -15.692658424377441,
        1.0
      ],
      "type": "MAT4"
    },
    {
      "bufferView": 0,
      "componentType": 5123,
      "count": 371,
      "type": "VEC4"
    },
    {
      "bufferView": 4,
      "byteOffset": 197152,
      "componentType": 5126,
      "count": 371,
      "max": [
        1.0,
        0.0,
        0.0,
        0.0
      ],
      "min": [
        1.0,
        0.0,
        0.0,
        0.0
      ],
      "type": "VEC4"
    },
    {
      "bufferView": 0,
      "byteOffset": 2968,
      "componentType": 5123,
      "count": 3909,
      "type": "VEC4"
    },
    {
      "bufferView": 4,
      "byteOffset": 203088,
      "componentType": 5126,
      "count": 3909,
      "max": [
        1.0,
        0.4994370639324188,
        0.2928643822669983,
        0.18256619572639465
      ],
      "min": [
        0.28920185565948486,
        0.0,
        0.0,
        0.0
      ],
      "type": "VEC4"
    },
    {
      "bufferView": 0,
      "byteOffset": 34240,
      "componentType": 5123,
      "count": 804,
      "type": "VEC4"
    },
    {
      "bufferView": 4,
      "byteOffset": 265632,
      "componentType": 5126,
      "count": 804,
      "max": [
        1.0,
        0.0,
        0.0,
        0.0
      ],
      "min": [
        1.0,
        0.0,
        0.0,
        0.0
      ],
      "type": "VEC4"
    },
    {
      "bufferView": 0,
      "byteOffset": 40672,
      "componentType": 5123,
      "count": 102,
      "type": "VEC4"
    },
    {
      "bufferView": 4,
      "byteOffset": 278496,
      "componentType": 5126,
      "count": 102,
      "max": [
        1.0,
        0.0,
        0.0,
        0.0
      ],
      "min": [
        1.0,
        0.0,
        0.0,
        0.0
      ],
      "type": "VEC4"
    },
    {
      "bufferView": 0,
      "byteOffset": 41488,
      "componentType": 5123,
      "count": 7156,
      "type": "VEC4"
    },
    {
      "bufferView": 4,
      "byteOffset": 280128,
      "componentType": 5126,
      "count": 7156,
      "max": [
        1.0,
        0.4960295259952545,
        0.29281896352767944,
        0.05650791898369789
      ],
      "min": [
        0.38036876916885376,
        0.0,
        0.0,
        0.0
      ],
      "type": "VEC4"
    },
    {
      "bufferView": 6,
      "componentType": 5126,
      "count": 14,
      "max": [
        5.800000190734863
      ],
      "min": [
        0.0
      ],
      "type": "SCALAR"
    },
    {
      "bufferView": 7,
      "componentType": 5126,
      "count": 14,
      "max": [
        -4.234207153785974e-07,
        9.617875099182129,
        1.6850072145462036
      ],
      "min": [
        -4.234207438003068e-07,
        9.617875099182129,
        1.6850072145462036
      ],
      "type": "VEC3"
    },
    {
      "bufferView": 6,
      "byteOffset": 56,
      "componentType": 5126,
      "count": 175,
      "max": [
        5.800000190734863
      ],
      "min": [
        0.0
      ],
      "type": "SCALAR"
    },
    {
      "bufferView": 8,
      "componentType": 5126,
      "count": 175,
      "max": [
        0.2208280712366104,
        0.4971344769001007,
        0.05931449308991432,
        0.9887028932571411
      ],
      "min": [
        -0.08258979022502899,
        0.09115666896104813,
        -0.11069481074810028,
        0.8635077476501465
      ],
      "type": "VEC4"
    },
    {
      "bufferView": 6,
      "byteOffset": 756,
      "componentType": 5126,
      "count": 175,
      "max": [
        5.800000190734863
      ],
      "min": [
        0.0
      ],
      "type": "SCALAR"
    },
    {
      "bufferView": 8,
      "byteOffset": 2800,
      "componentType": 5126,
      "count": 175,
      "max": [
        0.11621377617120743,
        0.08547665178775787,
        0.004553757607936859,
        0.9985512495040894
      ],
      "min": [
        -0.009806091897189617,
        0.017049742862582207,
        -0.057440634816884995,
        0.9925354719161987
      ],
      "type": "VEC4"
    },
    {
      "bufferView": 6,
      "byteOffset": 1456,
      "componentType": 5126,
      "count": 1,
      "max": [
        0.0
      ],
      "min": [
        0.0
      ],
      "type": "SCALAR"
    },
    {
      "bufferView": 8,
      "byteOffset": 5600,
      "componentType": 5126,
      "count": 1,
      "max": [
        0.12647365033626556,
        0.34831833839416504,
        0.2656595706939697,
        0.8900021314620972
      ],
      "min": [
        0.12647365033626556,
        0.34831833839416504,
        0.2656595706939697,
        0.8900021314620972
      ],
      "type": "VEC4"
    },
    {
      "bufferView": 6,
      "byteOffset": 1460,
      "componentType": 5126,
      "count": 1,
      "max": [
        0.0
      ],
      "min": [
        0.0
      ],
      "type": "SCALAR"
    },
    {
      "bufferView": 8,
      "byteOffset": 5616,
      "componentType": 5126,
      "count": 1,
      "max": [
        0.029686084017157555,
        0.2527894377708435,
        0.03439722955226898,
        0.9664538502693176
      ],
      "min": [
        0.029686084017157555,
        0.2527894377708435,
        0.03439722955226898,
        0.9664538502693176
      ],
      "type": "VEC4"
    },
    {
      "bufferView": 6,
      "byteOffset": 1464,
      "componentType": 5126,
      "count": 1,
      "max": [
        0.0
      ],
      "min": [
        0.0
      ],
      "type": "SCALAR"
    },
    {
      "bufferView": 8,
      "byteOffset": 5632,
      "componentType": 5126,
      "count": 1,
      "max": [
        0.06338682025671005,
        -0.020945144817233086,
        -0.11913742870092392,
        0.9906309247016907
      ],
      "min": [
        0.06338682025671005,
        -0.020945144817233086,
        -0.11913742870092392,
        0.9906309247016907
      ],
      "type": "VEC4"
    },
    {
      "bufferView": 6,
      "byteOffset": 1468,
      "componentType": 5126,
      "count": 1,
      "max": [
        0.0
      ],
      "min": [
        0.0
      ],
      "type": "SCALAR"
    },
    {
      "bufferView": 8,
      "byteOffset": 5648,
      "componentType": 5126,
      "count": 1,
      "max": [
        -5.179801831900477e-08,
        0.05950132757425308,
        -0.58322674036026,
        0.8101272583007813
      ],
      "min": [
        -5.179801831900477e-08,
        0.05950132757425308,
        -0.58322674036026,
        0.8101272583007813
      ],
      "type": "VEC4"
    },
    {
      "bufferView": 6,
      "byteOffset": 1472,
      "componentType": 5126,
      "count": 1,
      "max": [
        0.0
      ],
      "min": [
        0.0
      ],
      "type": "SCALAR"
    },
    {
      "bufferView": 8,
      "byteOffset": 5664,
      "componentType": 5126,
      "count": 1,
      "max": [
        -5.687076409799374e-08,
        0.07097191363573074,
        -0.6956618428230286,
        0.7148549556732178
      ],
      "min": [
        -5.687076409799374e-08,
        0.07097191363573074,
        -0.6956618428230286,
        0.7148549556732178
      ],
      "type": "VEC4"
    },
    {
      "bufferView": 6,
      "byteOffset": 1476,
      "componentType": 5126,
      "count": 1,
      "max": [
        0.0
      ],
      "min": [
        0.0
      ],
      "type": "SCALAR"
    },
    {
      "bufferView": 8,
      "byteOffset": 5680,
      "componentType": 5126,
      "count": 1,
      "max": [
        -0.0077447593212127686,
        0.07901506125926971,
        -0.5633525848388672,
        0.8223931193351746
      ],
      "min": [
        -0.0077447593212127686,
        0.07901506125926971,
        -0.5633525848388672,
        0.8223931193351746
      ],
      "type": "VEC4"
    },
    {
      "bufferView": 6,
      "byteOffset": 1480,
      "componentType": 5126,
      "count": 1,
      "max": [
        0.0
      ],
      "min": [
        0.0
      ],
      "type": "SCALAR"
    },
    {
      "bufferView": 8,
      "byteOffset": 5696,
      "componentType": 5126,
      "count": 1,
      "max": [
        6.729899837409903e-08,
        0.043534621596336365,
        -0.4267203211784363,
        0.9033352136611938
      ],
      "min": [
        6.729899837409903e-08,
        0.043534621596336365,
        -0.4267203211784363,
        0.9033352136611938
      ],
      "type": "VEC4"
    },
    {
      "bufferView": 6,
      "byteOffset": 1484,
      "componentType": 5126,
      "count": 1,
      "max": [
        0.0
      ],
      "min": [
        0.0
      ],
      "type": "SCALAR"
    },
    {
      "bufferView": 8,
      "byteOffset": 5712,
      "componentType": 5126,
      "count": 1,
      "max": [
        3.3040730151867592e-09,
        0.07478424161672592,
        -0.7330285310745239,
        0.6760743260383606
      ],
      "min": [
        3.3040730151867592e-09,
        0.07478424161672592,
        -0.7330285310745239,
        0.6760743260383606
      ],
      "type": "VEC4"
    },
    {
      "bufferView": 6,
      "byteOffset": 1488,
      "componentType": 5126,
      "count": 1,
      "max": [
        0.0
      ],
      "min": [
        0.0
      ],
      "type": "SCALAR"
    },
    {
      "bufferView": 8,
      "byteOffset": 5728,
      "componentType": 5126,
      "count": 1,
      "max": [
        -0.010627323761582375,
        0.07226937264204025,
        -0.5360634922981262,
        0.8410113453865051
      ],
      "min": [
        -0.010627323761582375,
        0.07226937264204025,
        -0.5360634922981262,
        0.8410113453865051
      ],
      "type": "VEC4"
    },
    {
      "bufferView": 6,
      "byteOffset": 1492,
      "componentType": 5126,
      "count": 1,
      "max": [
        0.0
      ],
      "min": [
        0.0
      ],
      "type": "SCALAR"
    },
    {
      "bufferView": 8,
      "byteOffset": 5744,
      "componentType": 5126,
      "count": 1,
      "max": [
        1.0644397434589337e-06,
        0.047320034354925156,
        -0.46380966901779175,
        0.8846701979637146
      ],
      "min": [
        1.0644397434589337e-06,
        0.047320034354925156,
        -0.46380966901779175,
        0.8846701979637146
      ],
      "type": "VEC4"
    },
    {
      "bufferView": 6,
      "byteOffset": 1496,
      "componentType": 5126,
      "count": 1,
      "max": [
        0.0
      ],
      "min": [
        0.0
      ],
      "type": "SCALAR"
    },
    {
      "bufferView": 8,
      "byteOffset": 5760,
      "componentType": 5126,
      "count": 1,
      "max": [
        2.1602947697374475e-07,
        0.07801298052072525,
        -0.764676570892334,
        0.639674723148346
      ],
      "min": [
        2.1602947697374475e-07,
        0.07801298052072525,
        -0.764676570892334,
        0.639674723148346
      ],
      "type": "VEC4"
    },
    {
      "bufferView": 6,
      "byteOffset": 1500,
      "componentType": 5126,
      "count": 1,
      "max": [
        0.0
      ],
      "min": [
        0.0
      ],
      "type": "SCALAR"
    },
    {
      "bufferView": 8,
      "byteOffset": 5776,
      "componentType": 5126,
      "count": 1,
      "max": [
        -0.015614718198776245,
        0.06923592835664749,
        -0.5638636946678162,
        0.8228124380111694
      ],
      "min": [
        -0.015614718198776245,
        0.06923592835664749,
        -0.5638636946678162,
        0.8228124380111694
      ],
      "type": "VEC4"
    },
    {
      "bufferView": 6,
      "byteOffset": 1504,
      "componentType": 5126,
      "count": 1,
      "max": [
        0.0
      ],
      "min": [
        0.0
      ],
      "type": "SCALAR"
    },
    {
      "bufferView": 8,
      "byteOffset": 5792,
      "componentType": 5126,
      "count": 1,
      "max": [
        -4.729766445166206e-08,
        0.0435350276529789,
        -0.4267268180847168,
        0.9033321142196655
      ],
      "min": [
        -4.729766445166206e-08,
        0.0435350276529789,
        -0.4267268180847168,
        0.9033321142196655
      ],
      "type": "VEC4"
    },
    {
      "bufferView": 6,
      "byteOffset": 1508,
      "componentType": 5126,
      "count": 1,
      "max": [
        0.0
      ],
      "min": [
        0.0
      ],
      "type": "SCALAR"
    },
    {
      "bufferView": 8,
      "byteOffset": 5808,
      "componentType": 5126,
      "count": 1,
      "max": [
        2.591538645901892e-07,
        0.07746553421020508,
        -0.759311854839325,
        0.6460995078086853
      ],
      "min": [
        2.591538645901892e-07,
        0.07746553421020508,
        -0.759311854839325,
        0.6460995078086853
      ],
      "type": "VEC4"
    },
    {
      "bufferView": 6,
      "byteOffset": 1512,
      "componentType": 5126,
      "count": 1,
      "max": [
        0.0
      ],
      "min": [
        0.0
      ],
      "type": "SCALAR"
    },
    {
      "bufferView": 8,
      "byteOffset": 5824,
      "componentType": 5126,
      "count": 1,
      "max": [
        -0.021679973229765892,
        0.0609312430024147,
        -0.5591587424278259,
        0.8265342712402344
      ],
      "min": [
        -0.021679973229765892,
        0.0609312430024147,
        -0.5591587424278259,
        0.8265342712402344
      ],
      "type": "VEC4"
    },
    {
      "bufferView": 6,
      "byteOffset": 1516,
      "componentType": 5126,
      "count": 175,
      "max": [
        5.800000190734863
      ],
      "min": [
        0.0
      ],
      "type": "SCALAR"
    },
    {
      "bufferView": 8,
      "byteOffset": 5840,
      "componentType": 5126,
      "count": 175,
      "max": [
        0.08882557600736618,
        0.04206801950931549,
        0.12088615447282791,
        0.9979099035263062
      ],
      "min": [
        -0.43099844455718994,
        -0.14750659465789795,
        -0.22450363636016846,
        0.8952387571334839
      ],
      "type": "VEC4"
    },
    {
      "bufferView": 6,
      "byteOffset": 2216,
      "componentType": 5126,
      "count": 175,
      "max": [
        5.800000190734863
      ],
      "min": [
        0.0
      ],
      "type": "SCALAR"
    },
    {
      "bufferView": 8,
      "byteOffset": 8640,
      "componentType": 5126,
      "count": 175,
      "max": [
        -7.726248441031203e-07,
        -9.523944754619151e-06,
        -1.457171833862958e-06,
        1.0
      ],
      "min": [
        -0.019183512777090073,
        -0.26122406125068665,
        -2.0434451926121255e-06,
        0.9650875329971313
      ],
      "type": "VEC4"
    },
    {
      "bufferView": 6,
      "byteOffset": 2916,
      "componentType": 5126,
      "count": 175,
      "max": [
        5.800000190734863
      ],
      "min": [
        0.0
      ],
      "type": "SCALAR"
    },
    {
      "bufferView": 8,
      "byteOffset": 11440,
      "componentType": 5126,
      "count": 175,
      "max": [
        -0.10527698695659637,
        0.1304645538330078,
        -0.1749938726425171,
        0.9228181838989258
      ],
      "min": [
        -0.40264010429382324,
        -0.2876668870449066,
        -0.5329925417900085,
        0.83466637134552
      ],
      "type": "VEC4"
    },
    {
      "bufferView": 6,
      "byteOffset": 3616,
      "componentType": 5126,
      "count": 175,
      "max": [
        5.800000190734863
      ],
      "min": [
        0.0
      ],
      "type": "SCALAR"
    },
    {
      "bufferView": 8,
      "byteOffset": 14240,
      "componentType": 5126,
      "count": 175,
      "max": [
        0.01590963639318943,
        0.17216642200946808,
        0.24668121337890625,
        0.999085545539856
      ],
      "min": [
        -0.030124222859740257,
        -0.12105376273393631,
        -0.1264733076095581,
        0.9554820656776428
      ],
      "type": "VEC4"
    },
    {
      "bufferView": 6,
      "byteOffset": 4316,
      "componentType": 5126,
      "count": 175,
      "max": [
        5.800000190734863
      ],
      "min": [
        0.0
      ],
      "type": "SCALAR"
    },
    {
      "bufferView": 8,
      "byteOffset": 17040,
      "componentType": 5126,
      "count": 175,
      "max": [
        2.3844901875236246e-07,
        0.006184332072734833,
        0.47754332423210144,
        0.9999639987945557
      ],
      "min": [
        -2.709662965116877e-07,
        -0.038678206503391266,
        -0.07635586708784103,
        0.8777564167976379
      ],
      "type": "VEC4"
    },
    {
      "bufferView": 6,
      "byteOffset": 5016,
      "componentType": 5126,
      "count": 58,
      "max": [
        5.800000190734863
      ],
      "min": [
        0.0
      ],
      "type": "SCALAR"
    },
    {
      "bufferView": 7,
      "byteOffset": 168,
      "componentType": 5126,
      "count": 58,
      "max": [
        -3.600034475326538,
        3.9386759453918785e-05,
        5.076487650512718e-05
      ],
      "min": [
        -3.600034475326538,
        3.938675581593998e-05,
        5.076487650512718e-05
      ],
      "type": "VEC3"
    },
    {
      "bufferView": 6,
      "byteOffset": 5248,
      "componentType": 5126,
      "count": 175,
      "max": [
        5.800000190734863
      ],
      "min": [
        0.0
      ],
      "type": "SCALAR"
    },
    {
      "bufferView": 8,
      "byteOffset": 19840,
      "componentType": 5126,
      "count": 175,
      "max": [
        8.052207704167813e-06,
        1.4003545402374584e-05,
        0.568713366985321,
        1.0
      ],
      "min": [
        -1.664244706489626e-07,
        -0.0460515059530735,
        -9.871377493197997e-09,
        0.8212456107139587
      ],
      "type": "VEC4"
    },
    {
      "bufferView": 6,
      "byteOffset": 5948,
      "componentType": 5126,
      "count": 175,
      "max": [
        5.800000190734863
      ],
      "min": [
        0.0
      ],
      "type": "SCALAR"
    },
    {
      "bufferView": 8,
      "byteOffset": 22640,
      "componentType": 5126,
      "count": 175,
      "max": [
        0.06360448896884918,
        -0.03223181143403053,
        0.6578934192657471,
        0.9968670010566711
      ],
      "min": [
        -0.005178753286600113,
        -0.1588483601808548,
        0.061319224536418915,
        0.7433817386627197
      ],
      "type": "VEC4"
    },
    {
      "bufferView": 6,
      "byteOffset": 6648,
      "componentType": 5126,
      "count": 175,
      "max": [
        5.800000190734863
      ],
      "min": [
        0.0
      ],
      "type": "SCALAR"
    },
    {
      "bufferView": 8,
      "byteOffset": 25440,
      "componentType": 5126,
      "count": 175,
      "max": [
        2.0025790092859097e-07,
        -0.0019361641025170684,
        0.3728049397468567,
        0.999712347984314
      ],
      "min": [
        -2.4838084300427e-07,
        -0.0301950853317976,
        0.023905185982584953,
        0.9274182915687561
      ],
      "type": "VEC4"
    },
    {
      "bufferView": 6,
      "byteOffset": 7348,
      "componentType": 5126,
      "count": 175,
      "max": [
        5.800000190734863
      ],
      "min": [
        0.0
      ],
      "type": "SCALAR"
    },
    {
      "bufferView": 8,
      "byteOffset": 28240,
      "componentType": 5126,
      "count": 175,
      "max": [
        3.000098161010101e-07,
        -0.004392078146338463,
        0.6030442714691162,
        0.9985189437866211
      ],
      "min": [
        -1.9797302286406193e-07,
        -0.0488428995013237,
        0.05422763153910637,
        0.7962110042572021
      ],
      "type": "VEC4"
    },
    {
      "bufferView": 6,
      "byteOffset": 8048,
      "componentType": 5126,
      "count": 175,
      "max": [
        5.800000190734863
      ],
      "min": [
        0.0
      ],
      "type": "SCALAR"
    },
    {
      "bufferView": 8,
      "byteOffset": 31040,
      "componentType": 5126,
      "count": 175,
      "max": [
        0.03526122868061066,
        -0.03724415972828865,
        0.6635429263114929,
        0.9990187287330627
      ],
      "min": [
        -0.001999413827434182,
        -0.12902815639972687,
        -0.06972473859786987,
        0.7430720925331116
      ],
      "type": "VEC4"
    },
    {
      "bufferView": 6,
      "byteOffset": 8748,
      "componentType": 5126,
      "count": 145,
      "max": [
        5.800000190734863
      ],
      "min": [
        0.0
      ],
      "type": "SCALAR"
    },
    {
      "bufferView": 7,
      "byteOffset": 864,
      "componentType": 5126,
      "count": 145,
      "max": [
        -2.9509215354919434,
        -5.27572410646826e-07,
        -3.4711183616309427e-07
      ],
      "min": [
        -2.9509215354919434,
        -5.275724674902449e-07,
        -3.4711189300651313e-07
      ],
      "type": "VEC3"
    },
    {
      "bufferView": 6,
      "byteOffset": 9328,
      "componentType": 5126,
      "count": 175,
      "max": [
        5.800000190734863
      ],
      "min": [
        0.0
      ],
      "type": "SCALAR"
    },
    {
      "bufferView": 8,
      "byteOffset": 33840,
      "componentType": 5126,
      "count": 175,
      "max": [
        7.281000762304757e-06,
        -0.0032968311570584774,
        0.39558523893356323,
        0.9991746544837952
      ],
      "min": [
        5.95645929024613e-07,
        -0.032056037336587906,
        0.040485966950654984,
        0.9178696870803833
      ],
      "type": "VEC4"
    },
    {
      "bufferView": 6,
      "byteOffset": 10028,
      "componentType": 5126,
      "count": 175,
      "max": [
        5.800000190734863
      ],
      "min": [
        0.0
      ],
      "type": "SCALAR"
    },
    {
      "bufferView": 8,
      "byteOffset": 36640,
      "componentType": 5126,
      "count": 175,
      "max": [
        2.557936511493608e-07,
        -0.008682696148753166,
        0.5665231943130493,
        0.9941994547843933
      ],
      "min": [
        -2.016131048776515e-07,
        -0.045885130763053894,
        0.10720092058181763,
        0.8227673172950745
      ],
      "type": "VEC4"
    },
    {
      "bufferView": 6,
      "byteOffset": 10728,
      "componentType": 5126,
      "count": 175,
      "max": [
        5.800000190734863
      ],
      "min": [
        0.0
      ],
      "type": "SCALAR"
    },
    {
      "bufferView": 8,
      "byteOffset": 39440,
      "componentType": 5126,
      "count": 175,
      "max": [
        0.026687562465667725,
        0.013332217000424862,
        0.5398578643798828,
        0.9998959898948669
      ],
      "min": [
        -0.007725593168288469,
        -0.12623901665210724,
        -0.1759754717350006,
        0.839102566242218
      ],
      "type": "VEC4"
    },
    {
      "bufferView": 6,
      "byteOffset": 11428,
      "componentType": 5126,
      "count": 175,
      "max": [
        5.800000190734863
      ],
      "min": [
        0.0
      ],
      "type": "SCALAR"
    },
    {
      "bufferView": 8,
      "byteOffset": 42240,
      "componentType": 5126,
      "count": 175,
      "max": [
        3.158778838496801e-07,
        -0.0030134059488773346,
        0.4270614683628082,
        0.9993030428886414
      ],
      "min": [
        -2.1945147921087482e-07,
        -0.034589603543281555,
        0.0372064933180809,
        0.9035607576370239
      ],
      "type": "VEC4"
    },
    {
      "bufferView": 6,
      "byteOffset": 12128,
      "componentType": 5126,
      "count": 175,
      "max": [
        5.800000190734863
      ],
      "min": [
        0.0
      ],
      "type": "SCALAR"
    },
    {
      "bufferView": 8,
      "byteOffset": 45040,
      "componentType": 5126,
      "count": 175,
      "max": [
        2.491066197762848e-07,
        -0.0008146679610945284,
        0.4418545663356781,
        0.9999490976333618
      ],
      "min": [
        -2.8012209440930746e-07,
        -0.03578769415616989,
        0.010057463310658932,
        0.8963725566864014
      ],
      "type": "VEC4"
    },
    {
      "bufferView": 6,
      "byteOffset": 12828,
      "componentType": 5126,
      "count": 175,
      "max": [
        5.800000190734863
      ],
      "min": [
        0.0
      ],
      "type": "SCALAR"
    },
    {
      "bufferView": 8,
      "byteOffset": 47840,
      "componentType": 5126,
      "count": 175,
      "max": [
        0.016791239380836487,
        0.05265120044350624,
        0.5673863291740417,
        0.9999132752418518
      ],
      "min": [
        -0.020713839679956436,
        -0.06030093505978584,
        -0.3128714859485626,
        0.8211414217948914
      ],
      "type": "VEC4"
    },
    {
      "bufferView": 6,
      "byteOffset": 13528,
      "componentType": 5126,
      "count": 175,
      "max": [
        5.800000190734863
      ],
      "min": [
        0.0
      ],
      "type": "SCALAR"
    },
    {
      "bufferView": 8,
      "byteOffset": 50640,
      "componentType": 5126,
      "count": 175,
      "max": [
        0.039729345589876175,
        0.007060883566737175,
        -0.12284596264362335,
        0.9901484251022339
      ],
      "min": [
        -0.08492948859930038,
        -0.23298679292201996,
        -0.19000586867332458,
        0.9563015699386597
      ],
      "type": "VEC4"
    },
    {
      "bufferView": 6,
      "byteOffset": 14228,
      "componentType": 5126,
      "count": 175,
      "max": [
        5.800000190734863
      ],
      "min": [
        0.0
      ],
      "type": "SCALAR"
    },
    {
      "bufferView": 8,
      "byteOffset": 53440,
      "componentType": 5126,
      "count": 175,
      "max": [
        0.1943303793668747,
        -0.10804863274097443,
        0.03304446116089821,
        0.9855530261993408
      ],
      "min": [
        0.12501661479473114,
        -0.2934662699699402,
        -0.10227590054273605,
        0.9421849250793457
      ],
      "type": "VEC4"
    },
    {
      "bufferView": 6,
      "byteOffset": 14928,
      "componentType": 5126,
      "count": 175,
      "max": [
        5.800000190734863
      ],
      "min": [
        0.0
      ],
      "type": "SCALAR"
    },
    {
      "bufferView": 8,
      "byteOffset": 56240,
      "componentType": 5126,
      "count": 175,
      "max": [
        -0.03965243324637413,
        0.1404794305562973,
        0.13671529293060303,
        0.997831404209137
      ],
      "min": [
        -0.23914174735546112,
        -0.046096496284008026,
        -0.0656188502907753,
        0.9606961607933044
      ],
      "type": "VEC4"
    },
    {
      "bufferView": 6,
      "byteOffset": 15628,
      "componentType": 5126,
      "count": 175,
      "max": [
        5.800000190734863
      ],
      "min": [
        0.0
      ],
      "type": "SCALAR"
    },
    {
      "bufferView": 8,
      "byteOffset": 59040,
      "componentType": 5126,
      "count": 175,
      "max": [
        0.18844759464263916,
        0.06724554300308228,
        0.14097456634044647,
        0.9895740151405334
      ],
      "min": [
        -0.5537056922912598,
        -0.375521183013916,
        -0.5632713437080383,
        0.721965491771698
      ],
      "type": "VEC4"
    },
    {
      "bufferView": 6,
      "byteOffset": 16328,
      "componentType": 5126,
      "count": 112,
      "max": [
        5.800000190734863
      ],
      "min": [
        0.0
      ],
      "type": "SCALAR"
    },
    {
      "bufferView": 7,
      "byteOffset": 2604,
      "componentType": 5126,
      "count": 112,
      "max": [
        -27.841520309448242,
        -3.5280390875414014e-05,
        1.1121186616946943e-05
      ],
      "min": [
        -27.841520309448242,
        -3.5280390875414014e-05,
        1.1121185707452241e-05
      ],
      "type": "VEC3"
    },
    {
      "bufferView": 6,
      "byteOffset": 16776,
      "componentType": 5126,
      "count": 231,
      "max": [
        5.800000190734863
      ],
      "min": [
        0.0
      ],
      "type": "SCALAR"
    },
    {
      "bufferView": 8,
      "byteOffset": 61840,
      "componentType": 5126,
      "count": 231,
      "max": [
        -0.02446908876299858,
        0.8991315960884094,
        6.860712460365903e-07,
        0.9425373673439026
      ],
      "min": [
        -0.06602823734283447,
        0.3332034647464752,
        -7.883229500293965e-07,
        0.4326692521572113
      ],
      "type": "VEC4"
    },
    {
      "bufferView": 6,
      "byteOffset": 17700,
      "componentType": 5126,
      "count": 200,
      "max": [
        5.800000190734863
      ],
      "min": [
        0.0
      ],
      "type": "SCALAR"
    },
    {
      "bufferView": 8,
      "byteOffset": 65536,
      "componentType": 5126,
      "count": 200,
      "max": [
        0.24885410070419312,
        0.7208000421524048,
        0.420207142829895,
        0.984761655330658
      ],
      "min": [
        -0.7598940134048462,
        0.04929550737142563,
        -0.19805637001991272,
        0.6288782954216003
      ],
      "type": "VEC4"
    },
    {
      "bufferView": 6,
      "byteOffset": 18500,
      "componentType": 5126,
      "count": 175,
      "max": [
        5.800000190734863
      ],
      "min": [
        0.0
      ],
      "type": "SCALAR"
    },
    {
      "bufferView": 8,
      "byteOffset": 68736,
      "componentType": 5126,
      "count": 175,
      "max": [
        0.032619159668684006,
        0.20219607651233673,
        0.09490379691123962,
        0.9995367527008057
      ],
      "min": [
        -0.07757962495088577,
        -0.06134287640452385,
        -0.3102620542049408,
        0.9498450756072998
      ],
      "type": "VEC4"
    },
    {
      "bufferView": 6,
      "byteOffset": 19200,
      "componentType": 5126,
      "count": 175,
      "max": [
        5.800000190734863
      ],
      "min": [
        0.0
      ],
      "type": "SCALAR"
    },
    {
      "bufferView": 8,
      "byteOffset": 71536,
      "componentType": 5126,
      "count": 175,
      "max": [
        0.13416388630867004,
        0.054838184267282486,
        0.02109776809811592,
        0.999799907207489
      ],
      "min": [
        0.009756907820701599,
        -0.0011330493725836277,
        -0.05445531755685806,
        0.9894564747810364
      ],
      "type": "VEC4"
    },
    {
      "bufferView": 6,
      "byteOffset": 19900,
      "componentType": 5126,
      "count": 175,
      "max": [
        5.800000190734863
      ],
      "min": [
        0.0
      ],
      "type": "SCALAR"
    },
    {
      "bufferView": 8,
      "byteOffset": 74336,
      "componentType": 5126,
      "count": 175,
      "max": [
        0.13441812992095947,
        0.05123979598283768,
        0.02105097286403179,
        0.9997994303703308
      ],
      "min": [
        0.010086221620440483,
        -0.001500162878073752,
        -0.05672910064458847,
        0.9894590377807617
      ],
      "type": "VEC4"
    },
    {
      "bufferView": 6,
      "byteOffset": 20600,
      "componentType": 5126,
      "count": 175,
      "max": [
        5.800000190734863
      ],
      "min": [
        0.0
      ],
      "type": "SCALAR"
    },
    {
      "bufferView": 8,
      "byteOffset": 77136,
      "componentType": 5126,
      "count": 175,
      "max": [
        0.09604204446077347,
        0.01967422477900982,
        0.024736637249588966,
        0.999891459941864
      ],
      "min": [
        0.00287337857298553,
        -0.00135441729798913,
        -0.020469224080443382,
        0.9952191710472107
      ],
      "type": "VEC4"
    },
    {
      "bufferView": 6,
      "byteOffset": 21300,
      "componentType": 5126,
      "count": 175,
      "max": [
        5.800000190734863
      ],
      "min": [
        0.0
      ],
      "type": "SCALAR"
    },
    {
      "bufferView": 8,
      "byteOffset": 79936,
      "componentType": 5126,
      "count": 175,
      "max": [
        -8.432240065303631e-06,
        1.280650621993118e-06,
        0.00028054334688931704,
        1.0
      ],
      "min": [
        -0.015158446505665779,
        -1.4817152987234294e-05,
        -0.001100284280255437,
        0.9998845458030701
      ],
      "type": "VEC4"
    },
    {
      "bufferView": 6,
      "byteOffset": 22000,
      "componentType": 5126,
      "count": 175,
      "max": [
        5.800000190734863
      ],
      "min": [
        0.0
      ],
      "type": "SCALAR"
    },
    {
      "bufferView": 8,
      "byteOffset": 82736,
      "componentType": 5126,
      "count": 175,
      "max": [
        -0.10990314930677414,
        0.007091266568750143,
        -0.048834264278411865,
        0.989605188369751
      ],
      "min": [
        -0.23178671300411224,
        -0.13240715861320496,
        -0.12157946079969406,
        0.9695394039154053
      ],
      "type": "VEC4"
    },
    {
      "bufferView": 6,
      "byteOffset": 22700,
      "componentType": 5126,
      "count": 175,
      "max": [
        5.800000190734863
      ],
      "min": [
        0.0
      ],
      "type": "SCALAR"
    },
    {
      "bufferView": 8,
      "byteOffset": 85536,
      "componentType": 5126,
      "count": 175,
      "max": [
        0.43369030952453613,
        0.049591321498155594,
        0.02830776385962963,
        0.9816277027130127
      ],
      "min": [
        0.1833350956439972,
        -0.09459652751684189,
        -0.016070852056145668,
        0.8967586755752563
      ],
      "type": "VEC4"
    },
    {
      "bufferView": 6,
      "byteOffset": 23400,
      "componentType": 5126,
      "count": 175,
      "max": [
        5.800000190734863
      ],
      "min": [
        0.0
      ],
      "type": "SCALAR"
    },
    {
      "bufferView": 8,
      "byteOffset": 88336,
      "componentType": 5126,
      "count": 175,
      "max": [
        0.016112856566905975,
        0.14308558404445648,
        0.18758496642112732,
        0.9901089072227478
      ],
      "min": [
        -0.23739978671073914,
        0.0851452425122261,
        0.07680711150169373,
        0.9500425457954407
      ],
      "type": "VEC4"
    },
    {
      "bufferView": 6,
      "byteOffset": 24100,
      "componentType": 5126,
      "count": 175,
      "max": [
        5.800000190734863
      ],
      "min": [
        0.0
      ],
      "type": "SCALAR"
    },
    {
      "bufferView": 8,
      "byteOffset": 91136,
      "componentType": 5126,
      "count": 175,
      "max": [
        -0.001438627135939896,
        2.7159720048075542e-05,
        0.0009414796950295568,
        0.9999989867210388
      ],
      "min": [
        -0.09178122133016586,
        -0.0008630796801298857,
        -0.011519350111484528,
        0.9957141876220703
      ],
      "type": "VEC4"
    },
    {
      "bufferView": 6,
      "byteOffset": 24800,
      "componentType": 5126,
      "count": 175,
      "max": [
        5.800000190734863
      ],
      "min": [
        0.0
      ],
      "type": "SCALAR"
    },
    {
      "bufferView": 8,
      "byteOffset": 93936,
      "componentType": 5126,
      "count": 175,
      "max": [
        -0.0544104240834713,
        0.042380690574645996,
        0.13280576467514038,
        0.9908370971679688
      ],
      "min": [
        -0.2315770536661148,
        -0.012829422019422054,
        0.06859470903873444,
        0.9692452549934387
      ],
      "type": "VEC4"
    },
    {
      "bufferView": 6,
      "byteOffset": 25500,
      "componentType": 5126,
      "count": 175,
      "max": [
        5.800000190734863
      ],
      "min": [
        0.0
      ],
      "type": "SCALAR"
    },
    {
      "bufferView": 8,
      "byteOffset": 96736,
      "componentType": 5126,
      "count": 175,
      "max": [
        0.39585593342781067,
        0.10402299463748932,
        -0.014182872138917446,
        0.9779284596443176
      ],
      "min": [
        0.1891143023967743,
        -0.07956097275018692,
        -0.05529075115919113,
        0.91777104139328
      ],
      "type": "VEC4"
    },
    {
      "bufferView": 6,
      "byteOffset": 26200,
      "componentType": 5126,
      "count": 175,
      "max": [
        5.800000190734863
      ],
      "min": [
        0.0
      ],
      "type": "SCALAR"
    },
    {
      "bufferView": 8,
      "byteOffset": 99536,
      "componentType": 5126,
      "count": 175,
      "max": [
        0.007147329859435558,
        -0.02666197530925274,
        -0.00937382597476244,
        0.9968693256378174
      ],
      "min": [
        -0.13542024791240692,
        -0.08049985021352768,
        -0.08043026924133301,
        0.9893068075180054
      ],
      "type": "VEC4"
    },
    {
      "bufferView": 6,
      "byteOffset": 26900,
      "componentType": 5126,
      "count": 175,
      "max": [
        5.800000190734863
      ],
      "min": [
        0.0
      ],
      "type": "SCALAR"
    },
    {
      "bufferView": 7,
      "byteOffset": 3948,
      "componentType": 5126,
      "count": 175,
      "max": [
        6.022144317626953,
        100.19261932373047,
        2.210542678833008
      ],
      "min": [
        -4.798667907714844,
        93.306640625,
        -3.14862060546875
      ],
      "type": "VEC3"
    },
    {
      "bufferView": 6,
      "byteOffset": 27600,
      "componentType": 5126,
      "count": 175,
      "max": [
        5.800000190734863
      ],
      "min": [
        0.0
      ],
      "type": "SCALAR"
    },
    {
      "bufferView": 8,
      "byteOffset": 102336,
      "componentType": 5126,
      "count": 175,
      "max": [
        0.027981825172901154,
        -0.567598283290863,
        -0.011724218726158142,
        0.8189699649810791
      ],
      "min": [
        -0.06756079941987991,
        -0.7862731218338013,
        -0.09666800498962402,
        0.6165242791175842
      ],
      "type": "VEC4"
    }
  ],
  "animations": [
    {
      "channels": [
        {
          "sampler": 0,
          "target": {
            "node": 16,
            "path": "translation"
          }
        },
        {
          "sampler": 1,
          "target": {
            "node": 16,
            "path": "rotation"
          }
        },
        {
          "sampler": 2,
          "target": {
            "node": 15,
            "path": "rotation"
          }
        },
        {
          "sampler": 3,
          "target": {
            "node": 26,
            "path": "rotation"
          }
        },
        {
          "sampler": 4,
          "target": {
            "node": 25,
            "path": "rotation"
          }
        },
        {
          "sampler": 5,
          "target": {
            "node": 24,
            "path": "rotation"
          }
        },
        {
          "sampler": 6,
          "target": {
            "node": 30,
            "path": "rotation"
          }
        },
        {
          "sampler": 7,
          "target": {
            "node": 29,
            "path": "rotation"
          }
        },
        {
          "sampler": 8,
          "target": {
            "node": 28,
            "path": "rotation"
          }
        },
        {
          "sampler": 9,
          "target": {
            "node": 34,
            "path": "rotation"
          }
        },
        {
          "sampler": 10,
          "target": {
            "node": 33,
            "path": "rotation"
          }
        },
        {
          "sampler": 11,
          "target": {
            "node": 32,
            "path": "rotation"
          }
        },
        {
          "sampler": 12,
          "target": {
            "node": 38,
            "path": "rotation"
          }
        },
        {
          "sampler": 13,
          "target": {
            "node": 37,
            "path": "rotation"
          }
        },
        {
          "sampler": 14,
          "target": {
            "node": 36,
            "path": "rotation"
          }
        },
        {
          "sampler": 15,
          "target": {
            "node": 42,
            "path": "rotation"
          }
        },
        {
          "sampler": 16,
          "target": {
            "node": 41,
            "path": "rotation"
          }
        },
        {
          "sampler": 17,
          "target": {
            "node": 40,
            "path": "rotation"
          }
        },
        {
          "sampler": 18,
          "target": {
            "node": 23,
            "path": "rotation"
          }
        },
        {
          "sampler": 19,
          "target": {
            "node": 22,
            "path": "rotation"
          }
        },
        {
          "sampler": 20,
          "target": {
            "node": 21,
            "path": "rotation"
          }
        },
        {
          "sampler": 21,
          "target": {
            "node": 20,
            "path": "rotation"
          }
        },
        {
          "sampler": 22,
          "target": {
            "node": 50,
            "path": "rotation"
          }
        },
        {
          "sampler": 23,
          "target": {
            "node": 49,
            "path": "translation"
          }
        },
        {
          "sampler": 24,
          "target": {
            "node": 49,
            "path": "rotation"
          }
        },
        {
          "sampler": 25,
          "target": {
            "node": 48,
            "path": "rotation"
          }
        },
        {
          "sampler": 26,
          "target": {
            "node": 54,
            "path": "rotation"
          }
        },
        {
          "sampler": 27,
          "target": {
            "node": 53,
            "path": "rotation"
          }
        },
        {
          "sampler": 28,
          "target": {
            "node": 52,
            "path": "rotation"
          }
        },
        {
          "sampler": 29,
          "target": {
            "node": 58,
            "path": "translation"
          }
        },
        {
          "sampler": 30,
          "target": {
            "node": 58,
            "path": "rotation"
          }
        },
        {
          "sampler": 31,
          "target": {
            "node": 57,
            "path": "rotation"
          }
        },
        {
          "sampler": 32,
          "target": {
            "node": 56,
            "path": "rotation"
          }
        },
        {
          "sampler": 33,
          "target": {
            "node": 62,
            "path": "rotation"
          }
        },
        {
          "sampler": 34,
          "target": {
            "node": 61,
            "path": "rotation"
          }
        },
        {
          "sampler": 35,
          "target": {
            "node": 60,
            "path": "rotation"
          }
        },
        {
          "sampler": 36,
          "target": {
            "node": 66,
            "path": "rotation"
          }
        },
        {
          "sampler": 37,
          "target": {
            "node": 65,
            "path": "rotation"
          }
        },
        {
          "sampler": 38,
          "target": {
            "node": 64,
            "path": "rotation"
          }
        },
        {
          "sampler": 39,
          "target": {
            "node": 47,
            "path": "rotation"
          }
        },
        {
          "sampler": 40,
          "target": {
            "node": 46,
            "path": "translation"
          }
        },
        {
          "sampler": 41,
          "target": {
            "node": 46,
            "path": "rotation"
          }
        },
        {
          "sampler": 42,
          "target": {
            "node": 45,
            "path": "rotation"
          }
        },
        {
          "sampler": 43,
          "target": {
            "node": 44,
            "path": "rotation"
          }
        },
        {
          "sampler": 44,
          "target": {
            "node": 14,
            "path": "rotation"
          }
        },
        {
          "sampler": 45,
          "target": {
            "node": 13,
            "path": "rotation"
          }
        },
        {
          "sampler": 46,
          "target": {
            "node": 12,
            "path": "rotation"
          }
        },
        {
          "sampler": 47,
          "target": {
            "node": 71,
            "path": "rotation"
          }
        },
        {
          "sampler": 48,
          "target": {
            "node": 70,
            "path": "rotation"
          }
        },
        {
          "sampler": 49,
          "target": {
            "node": 69,
            "path": "rotation"
          }
        },
        {
          "sampler": 50,
          "target": {
            "node": 68,
            "path": "rotation"
          }
        },
        {
          "sampler": 51,
          "target": {
            "node": 76,
            "path": "rotation"
          }
        },
        {
          "sampler": 52,
          "target": {
            "node": 75,
            "path": "rotation"
          }
        },
        {
          "sampler": 53,
          "target": {
            "node": 74,
            "path": "rotation"
          }
        },
        {
          "sampler": 54,
          "target": {
            "node": 73,
            "path": "rotation"
          }
        },
        {
          "sampler": 55,
          "target": {
            "node": 11,
            "path": "translation"
          }
        },
        {
          "sampler": 56,
          "target": {
            "node": 11,
            "path": "rotation"
          }
        }
      ],
      "name": "Animation",
      "samplers": [
        {
          "input": 59,
          "interpolation": "LINEAR",
          "output": 60
        },
        {
          "input": 61,
          "interpolation": "LINEAR",
          "output": 62
        },
        {
          "input": 63,
          "interpolation": "LINEAR",
          "output": 64
        },
        {
          "input": 65,
          "interpolation": "LINEAR",
          "output": 66
        },
        {
          "input": 67,
          "interpolation": "LINEAR",
          "output": 68
        },
        {
          "input": 69,
          "interpolation": "LINEAR",
          "output": 70
        },
        {
          "input": 71,
          "interpolation": "LINEAR",
          "output": 72
        },
        {
          "input": 73,
          "interpolation": "LINEAR",
          "output": 74
        },
        {
          "input": 75,
          "interpolation": "LINEAR",
          "output": 76
        },
        {
          "input": 77,
          "interpolation": "LINEAR",
          "output": 78
        },
        {
          "input": 79,
          "interpolation": "LINEAR",
          "output": 80
        },
        {
          "input": 81,
          "interpolation": "LINEAR",
          "output": 82
        },
        {
          "input": 83,
          "interpolation": "LINEAR",
          "output": 84
        },
        {
          "input": 85,
          "interpolation": "LINEAR",
          "output": 86
        },
        {
          "input": 87,
          "interpolation": "LINEAR",
          "output": 88
        },
        {
          "input": 89,
          "interpolation": "LINEAR",
          "output": 90
        },
        {
          "input": 91,
          "interpolation": "LINEAR",
          "output": 92
        },
        {
          "input": 93,
          "interpolation": "LINEAR",
          "output": 94
        },
        {
          "input": 95,
          "interpolation": "LINEAR",
          "output": 96
        },
        {
          "input": 97,
          "interpolation": "LINEAR",
          "output": 98
        },
        {
          "input": 99,
          "interpolation": "LINEAR",
          "output": 100
        },
        {
          "input": 101,
          "interpolation": "LINEAR",
          "output": 102
        },
        {
          "input": 103,
          "interpolation": "LINEAR",
          "output": 104
        },
        {
          "input": 105,
          "interpolation": "LINEAR",
          "output": 106
        },
        {
          "input": 107,
          "interpolation": "LINEAR",
          "output": 108
        },
        {
          "input": 109,
          "interpolation": "LINEAR",
          "output": 110
        },
        {
          "input": 111,
          "interpolation": "LINEAR",
          "output": 112
        },
        {
          "input": 113,
          "interpolation": "LINEAR",
          "output": 114
        },
        {
          "input": 115,
          "interpolation": "LINEAR",
          "output": 116
        },
        {
          "input": 117,
          "interpolation": "LINEAR",
          "output": 118
        },
        {
          "input": 119,
          "interpolation": "LINEAR",
          "output": 120
        },
        {
          "input": 121,
          "interpolation": "LINEAR",
          "output": 122
        },
        {
          "input": 123,
          "interpolation": "LINEAR",
          "output": 124
        },
        {
          "input": 125,
          "interpolation": "LINEAR",
          "output": 126
        },
        {
          "input": 127,
          "interpolation": "LINEAR",
          "output": 128
        },
        {
          "input": 129,
          "interpolation": "LINEAR",
          "output": 130
        },
        {
          "input": 131,
          "interpolation": "LINEAR",
          "output": 132
        },
        {
          "input": 133,
          "interpolation": "LINEAR",
          "output": 134
        },
        {
          "input": 135,
          "interpolation": "LINEAR",
          "output": 136
        },
        {
          "input": 137,
          "interpolation": "LINEAR",
          "output": 138
        },
        {
          "input": 139,
          "interpolation": "LINEAR",
          "output": 140
        },
        {
          "input": 141,
          "interpolation": "LINEAR",
          "output": 142
        },
        {
          "input": 143,
          "interpolation": "LINEAR",
          "output": 144
        },
        {
          "input": 145,
          "interpolation": "LINEAR",
          "output": 146
        },
        {
          "input": 147,
          "interpolation": "LINEAR",
          "output": 148
        },
        {
          "input": 149,
          "interpolation": "LINEAR",
          "output": 150
        },
        {
          "input": 151,
          "interpolation": "LINEAR",
          "output": 152
        },
        {
          "input": 153,
          "interpolation": "LINEAR",
          "output": 154
        },
        {
          "input": 155,
          "interpolation": "LINEAR",
          "output": 156
        },
        {
          "input": 157,
          "interpolation": "LINEAR",
          "output": 158
        },
        {
          "input": 159,
          "interpolation": "LINEAR",
          "output": 160
        },
        {
          "input": 161,
          "interpolation": "LINEAR",
          "output": 162
        },
        {
          "input": 163,
          "interpolation": "LINEAR",
          "output": 164
        },
        {
          "input": 165,
          "interpolation": "LINEAR",
          "output": 166
        },
        {
          "input": 167,
          "interpolation": "LINEAR",
          "output": 168
        },
        {
          "input": 169,
          "interpolation": "LINEAR",
          "output": 170
        },
        {
          "input": 171,
          "interpolation": "LINEAR",
          "output": 172
        }
      ]
    }
  ],
  "asset": {
    "extras": {
      "author": "LasquetiSpice (https://sketchfab.com/LasquetiSpice)",
      "license": "CC-BY-4.0 (http://creativecommons.org/licenses/by/4.0/)",
      "source": "https://sketchfab.com/3d-models/archer-shooting-arrow-from-bow-in-battle-56ef54cd228e45e1928ed2cf441131ff",
      "title": "Archer Shooting Arrow from Bow in Battle"
    },
    "generator": "Sketchfab-16.75.0",
    "version": "2.0"
  },
  "bufferViews": [
    {
      "buffer": 0,
      "byteLength": 98736,
      "byteStride": 8,
      "name": "shortBufferViews",
      "target": 34962
    },
    {
      "buffer": 0,
      "byteLength": 252072,
      "byteOffset": 98736,
      "name": "floatBufferViews",
      "target": 34963
    },
    {
      "buffer": 0,
      "byteLength": 423936,
      "byteOffset": 350808,
      "byteStride": 8,
      "name": "floatBufferViews",
      "target": 34962
    },
    {
      "buffer": 0,
      "byteLength": 298176,
      "byteOffset": 774744,
      "byteStride": 12,
      "name": "floatBufferViews",
      "target": 34962
    },
    {
      "buffer": 0,
      "byteLength": 394624,
      "byteOffset": 1072920,
      "byteStride": 16,
      "name": "floatBufferViews",
      "target": 34962
    },
    {
      "buffer": 0,
      "byteLength": 4352,
      "byteOffset": 1467544,
      "name": "floatBufferViews"
    },
    {
      "buffer": 0,
      "byteLength": 28300,
      "byteOffset": 1471896,
      "name": "floatBufferViews"
    },
    {
      "buffer": 0,
      "byteLength": 6048,
      "byteOffset": 1500196,
      "byteStride": 12,
      "name": "floatBufferViews"
    },
    {
      "buffer": 0,
      "byteLength": 105136,
      "byteOffset": 1506244,
      "byteStride": 16,
      "name": "floatBufferViews"
    }
  ],
  "buffers": [
    {
      "byteLength": 1611380,
      "uri": "scene.bin"
    }
  ],
  "images": [
    {
      "uri": "textures/Bow_MAT_baseColor.jpeg"
    },
    {
      "uri": "textures/Bow_MAT_normal.png"
    },
    {
      "uri": "textures/Akai_MAT_baseColor.png"
    },
    {
      "uri": "textures/Akai_MAT_normal.png"
    },
    {
      "uri": "textures/EyeSpec_MAT_baseColor.png"
    },
    {
      "uri": "textures/EyeSpec_MAT_normal.png"
    },
    {
      "uri": "textures/Lashes_MAT_baseColor.png"
    },
    {
      "uri": "textures/Arrow_MAT_baseColor.png"
    },
    {
      "uri": "textures/Arrow_MAT_normal.png"
    }
  ],
  "materials": [
    {
      "doubleSided": true,
      "name": "Bow_MAT",
      "normalTexture": {
        "index": 1
      },
      "pbrMetallicRoughness": {
        "baseColorTexture": {
          "index": 0
        },
        "metallicFactor": 0.0,
        "roughnessFactor": 0.978366470235654
      }
    },
    {
      "doubleSided": true,
      "name": "Akai_MAT",
      "normalTexture": {
        "index": 3
      },
      "pbrMetallicRoughness": {
        "baseColorTexture": {
          "index": 2
        },
        "metallicFactor": 0.0,
        "roughnessFactor": 0.9700930243755755
      }
    },
    {
      "doubleSided": true,
      "name": "EyeSpec_MAT",
      "normalTexture": {
        "index": 5
      },
      "pbrMetallicRoughness": {
        "baseColorTexture": {
          "index": 4
        },
        "metallicFactor": 0.0,
        "roughnessFactor": 0.7322185528582095
      }
    },
    {
      "alphaMode": "BLEND",
      "doubleSided": true,
      "name": "Lashes_MAT",
      "pbrMetallicRoughness": {
        "baseColorTexture": {
          "index": 6
        },
        "metallicFactor": 0.0,
        "roughnessFactor": 0.6
      }
    },
    {
      "doubleSided": true,
      "name": "Body_MAT",
      "normalTexture": {
        "index": 5
      },
      "pbrMetallicRoughness": {
        "baseColorTexture": {
          "index": 4
        },
        "metallicFactor": 0.0,
        "roughnessFactor": 0.9525856587650475
      }
    },
    {
      "alphaMode": "BLEND",
      "doubleSided": true,
      "name": "Arrow_MAT",
      "normalTexture": {
        "index": 8
      },
      "pbrMetallicRoughness": {
        "baseColorTexture": {
          "index": 7
        },
        "metallicFactor": 0.0
      }
    }
  ],
  "meshes": [
    {
      "name": "Erika_Archer_Bow_Mesh_Bow_MAT_0",
      "primitives": [
        {
          "attributes": {
            "JOINTS_0": 49,
            "NORMAL": 1,
            "POSITION": 0,
            "TANGENT": 2,
            "TEXCOORD_0": 3,
            "TEXCOORD_1": 4,
            "TEXCOORD_2": 5,
            "TEXCOORD_3": 3,
            "WEIGHTS_0": 50
          },
          "indices": 6,
          "material": 0,
          "mode": 4
        }
      ]
    },
    {
      "name": "Erika_Archer_Clothes_Mesh_Akai_MAT_0",
      "primitives": [
        {
          "attributes": {
            "JOINTS_0": 51,
            "NORMAL": 8,
            "POSITION": 7,
            "TANGENT": 9,
            "TEXCOORD_0": 10,
            "TEXCOORD_1": 11,
            "TEXCOORD_2": 12,
            "TEXCOORD_3": 13,
            "TEXCOORD_4": 14,
            "TEXCOORD_5": 15,
            "TEXCOORD_6": 10,
            "TEXCOORD_7": 16,
            "TEXCOORD_8": 17,
            "TEXCOORD_9": 18,
            "WEIGHTS_0": 52
          },
          "indices": 19,
          "material": 1,
          "mode": 4
        }
      ]
    },
    {
      "name": "Erika_Archer_Eyes_Mesh_EyeSpec_MAT_0",
      "primitives": [
        {
          "attributes": {
            "JOINTS_0": 53,
            "NORMAL": 21,
            "POSITION": 20,
            "TANGENT": 22,
            "TEXCOORD_0": 23,
            "TEXCOORD_1": 24,
            "TEXCOORD_2": 23,
            "WEIGHTS_0": 54
          },
          "indices": 25,
          "material": 2,
          "mode": 4
        }
      ]
    },
    {
      "name": "Erika_Archer_Eyelashes_Mesh_Lashes_MAT_0",
      "primitives": [
        {
          "attributes": {
            "JOINTS_0": 55,
            "NORMAL": 27,
            "POSITION": 26,
            "TEXCOORD_0": 28,
            "TEXCOORD_1": 28,
            "TEXCOORD_2": 29,
            "WEIGHTS_0": 56
          },
          "indices": 30,
          "material": 3,
          "mode": 4
        }
      ]
    },
    {
      "name": "Erika_Archer_Body_Mesh_Body_MAT_0",
      "primitives": [
        {
          "attributes": {
            "JOINTS_0": 57,
            "NORMAL": 32,
            "POSITION": 31,
            "TANGENT": 33,
            "TEXCOORD_0": 34,
            "TEXCOORD_1": 35,
            "TEXCOORD_2": 34,
            "WEIGHTS_0": 58
          },
          "indices": 36,
          "material": 4,
          "mode": 4
        }
      ]
    },
    {
      "name": "Erika_Archer_Arrow_Mesh_Arrow_MAT_0",
      "primitives": [
        {
          "attributes": {
            "NORMAL": 38,
            "POSITION": 37,
            "TANGENT": 39,
            "TEXCOORD_0": 40,
            "TEXCOORD_1": 41,
            "TEXCOORD_2": 42,
            "TEXCOORD_3": 43,
            "TEXCOORD_4": 44,
            "TEXCOORD_5": 45,
            "TEXCOORD_6": 46
          },
          "indices": 47,
          "material": 5,
          "mode": 4
        }
      ]
    }
  ],
  "nodes": [
    {
      "children": [
        1
      ],
      "matrix": [
        1.650305151939392,
        0.0,
        0.0,
        0.0,
        0.0,
        3.664413554681261e-16,
        -1.650305151939392,
        0.0,
        0.0,
        1.650305151939392,
        3.664413554681261e-16,
        0.0,
        0.0,
        0.0,
        0.0,
        1.0
      ],
      "name": "Sketchfab_model"
    },
    {
      "children": [
        2
      ],
      "matrix": [
        0.009999999776482582,
        0.0,
        0.0,
        0.0,
        0.0,
        0.0,
        0.009999999776482582,
        0.0,
        0.0,
        -0.009999999776482582,
        0.0,
        0.0,
        0.0,
        0.0,
        0.0,
        1.0
      ],
      "name": "e79dc56019914a359138fbfe8d3c207f.fbx"
    },
    {
      "children": [
        3
      ],
      "name": "Object_2"
    },
    {
      "children": [
        4
      ],
      "name": "RootNode"
    },
    {
      "children": [
        5,
        6,
        7,
        8,
        9,
        10,
        78
      ],
      "name": "Object_4"
    },
    {
      "children": [
        11
      ],
      "name": "_rootJoint"
    },
    {
      "mesh": 0,
      "name": "Object_6",
      "skin": 0
    },
    {
      "mesh": 1,
      "name": "Object_7",
      "skin": 0
    },
    {
      "mesh": 2,
      "name": "Object_8",
      "skin": 0
    },
    {
      "mesh": 3,
      "name": "Object_9",
      "skin": 0
    },
    {
      "mesh": 4,
      "name": "Object_10",
      "skin": 0
    },
    {
      "children": [
        12,
        68,
        73
      ],
      "name": "Hips_01",
      "translation": [
        0.0,
        104.23038482666016,
        0.0
      ]
    },
    {
      "children": [
        13
      ],
      "name": "Spine_02",
      "translation": [
        8.094229087873828e-06,
        10.181588172912598,
        0.1315208375453949
      ]
    },
    {
      "children": [
        14
      ],
      "name": "Spine1_03",
      "translation": [
        2.523129012388381e-07,
        10.083451271057129,
        -1.0008044242858887
      ]
    },
    {
      "children": [
        15,
        20,
        44
      ],
      "name": "Spine2_04",
      "translation": [
        3.46321513688963e-07,
        9.100010871887207,
        -1.3734173774719238
      ]
    },
    {
      "children": [
        16
      ],
      "name": "Neck_05",
      "translation": [
        6.349070531541656e-07,
        16.671669006347656,
        -2.5161688327789307
      ]
    },
    {
      "children": [
        17,
        18,
        19
      ],
      "name": "Head_06",
      "translation": [
        -4.234207153785974e-07,
        9.617875099182129,
        1.6850072145462036
      ]
    },
    {
      "name": "RightEye_07",
      "translation": [
        -3.0675504207611084,
        6.409500598907471,
        9.283547401428223
      ]
    },
    {
      "name": "LeftEye_08",
      "translation": [
        3.0675606727600098,
        6.409508228302002,
        9.283554077148438
      ]
    },
    {
      "name": "HeadTop_End_09",
      "translation": [
        -6.493177693300822e-07,
        17.815155029296875,
        2.584984540939331
      ]
    },
    {
      "children": [
        21
      ],
      "name": "LeftShoulder_010",
      "translation": [
        4.570446491241455,
        10.945984840393066,
        -2.627988576889038
      ]
    },
    {
      "children": [
        22
      ],
      "name": "LeftArm_011",
      "translation": [
        10.59237003326416,
        -0.5245853662490845,
        -2.2321197986602783
      ]
    },
    {
      "children": [
        23
      ],
      "name": "LeftForeArm_012",
      "translation": [
        27.841520309448242,
        -9.898605640046299e-05,
        3.1699659302830696e-05
      ]
    },
    {
      "children": [
        24,
        28,
        32,
        36,
        40
      ],
      "name": "LeftHand_013",
      "translation": [
        28.328838348388672,
        -2.2208208974916488e-05,
        3.7411373341456056e-05
      ]
    },
    {
      "children": [
        25
      ],
      "name": "LeftHandThumb1_014",
      "translation": [
        2.4661405086517334,
        -1.5750494003295898,
        2.6824135780334473
      ]
    },
    {
      "children": [
        26
      ],
      "name": "LeftHandThumb2_015",
      "translation": [
        3.2298035621643066,
        -1.8646914958953857,
        1.8646807670593262
      ]
    },
    {
      "children": [
        27
      ],
      "name": "LeftHandThumb3_016",
      "translation": [
        2.652564764022827,
        -1.5314933061599731,
        1.531471610069275
      ]
    },
    {
      "name": "LeftHandThumb4_017",
      "translation": [
        1.9545669555664063,
        -1.1285001039505005,
        1.1284922361373901
      ]
    },
    {
      "children": [
        29
      ],
      "name": "LeftHandIndex1_018",
      "translation": [
        9.109302520751953,
        -0.5170847177505493,
        2.2600719928741455
      ]
    },
    {
      "children": [
        30
      ],
      "name": "LeftHandIndex2_019",
      "translation": [
        3.6764094829559326,
        -7.990351150510833e-06,
        2.8753480364684947e-05
      ]
    },
    {
      "children": [
        31
      ],
      "name": "LeftHandIndex3_020",
      "translation": [
        2.8830626010894775,
        3.8048783608246595e-05,
        -4.331155651016161e-05
      ]
    },
    {
      "name": "LeftHandIndex4_021",
      "translation": [
        2.3927199840545654,
        3.656972330645658e-05,
        3.352115163579583e-05
      ]
    },
    {
      "children": [
        33
      ],
      "name": "LeftHandMiddle1_022",
      "translation": [
        9.533401489257813,
        -3.5459557693684474e-05,
        1.2600660738826264e-05
      ]
    },
    {
      "children": [
        34
      ],
      "name": "LeftHandMiddle2_023",
      "translation": [
        3.6982367038726807,
        1.3261289950605715e-06,
        1.7890863091452047e-05
      ]
    },
    {
      "children": [
        35
      ],
      "name": "LeftHandMiddle3_024",
      "translation": [
        2.9509215354919434,
        -3.9882954297354445e-05,
        1.6427133232355118e-05
      ]
    },
    {
      "name": "LeftHandMiddle4_025",
      "translation": [
        2.833902597427368,
        -3.942121475120075e-05,
        -9.521935680822935e-06
      ]
    },
    {
      "children": [
        37
      ],
      "name": "LeftHandRing1_026",
      "translation": [
        9.104527473449707,
        -0.04394112154841423,
        -1.8650859594345093
      ]
    },
    {
      "children": [
        38
      ],
      "name": "LeftHandRing2_027",
      "translation": [
        3.154026746749878,
        -7.084285243763588e-06,
        1.0403302439954132e-05
      ]
    },
    {
      "children": [
        39
      ],
      "name": "LeftHandRing3_028",
      "translation": [
        2.9376723766326904,
        -4.6611821744591e-05,
        -7.609925887663849e-06
      ]
    },
    {
      "name": "LeftHandRing4_029",
      "translation": [
        2.6474525928497314,
        -5.104754018248059e-05,
        -5.979460411253967e-07
      ]
    },
    {
      "children": [
        41
      ],
      "name": "LeftHandPinky1_030",
      "translation": [
        8.077776908874512,
        -0.48866981267929077,
        -3.806068181991577
      ]
    },
    {
      "children": [
        42
      ],
      "name": "LeftHandPinky2_031",
      "translation": [
        3.600034475326538,
        -2.8652614219026873e-06,
        -2.6383802833152004e-05
      ]
    },
    {
      "children": [
        43
      ],
      "name": "LeftHandPinky3_032",
      "translation": [
        2.1142115592956543,
        1.881134267023299e-05,
        -3.206809651601361e-06
      ]
    },
    {
      "name": "LeftHandPinky4_033",
      "translation": [
        1.9756826162338257,
        1.2078299732820597e-05,
        -4.43803146481514e-05
      ]
    },
    {
      "children": [
        45
      ],
      "name": "RightShoulder_034",
      "translation": [
        -4.569969654083252,
        10.946176528930664,
        -2.6280181407928467
      ]
    },
    {
      "children": [
        46
      ],
      "name": "RightArm_035",
      "translation": [
        -10.592844009399414,
        -0.5247979760169983,
        -2.232097864151001
      ]
    },
    {
      "children": [
        47
      ],
      "name": "RightForeArm_036",
      "translation": [
        -27.841520309448242,
        -3.5280390875414014e-05,
        1.1121185707452241e-05
      ]
    },
    {
      "children": [
        48,
        52,
        56,
        60,
        64
      ],
      "name": "RightHand_037",
      "translation": [
        -28.328838348388672,
        -2.2985839223110816e-06,
        5.523445361177437e-05
      ]
    },
    {
      "children": [
        49
      ],
      "name": "RightHandPinky1_038",
      "translation": [
        -8.076674461364746,
        -0.48846009373664856,
        -3.806011438369751
      ]
    },
    {
      "children": [
        50
      ],
      "name": "RightHandPinky2_039",
      "translation": [
        -3.600034475326538,
        3.938675581593998e-05,
        5.076487650512718e-05
      ]
    },
    {
      "children": [
        51
      ],
      "name": "RightHandPinky3_040",
      "translation": [
        -2.1142115592956543,
        1.459231771150371e-05,
        1.4508663298329338e-05
      ]
    },
    {
      "name": "RightHandPinky4_041",
      "translation": [
        -1.9756826162338257,
        -1.8672360965865664e-05,
        -1.00720740192628e-06
      ]
    },
    {
      "children": [
        53
      ],
      "name": "RightHandRing1_042",
      "translation": [
        -9.103588104248047,
        -0.04391508921980858,
        -1.865073800086975
      ]
    },
    {
      "children": [
        54
      ],
      "name": "RightHandRing2_043",
      "translation": [
        -3.154026746749878,
        2.412745561741758e-05,
        4.918238482787274e-05
      ]
    },
    {
      "children": [
        55
      ],
      "name": "RightHandRing3_044",
      "translation": [
        -2.9376723766326904,
        -4.249812991474755e-05,
        -4.0434624679619446e-05
      ]
    },
    {
      "name": "RightHandRing4_045",
      "translation": [
        -2.6474525928497314,
        2.5363384338561445e-05,
        -1.6942718730206252e-06
      ]
    },
    {
      "children": [
        57
      ],
      "name": "RightHandMiddle1_046",
      "translation": [
        -9.532503128051758,
        -1.696356775937602e-05,
        1.539220829727128e-05
      ]
    },
    {
      "children": [
        58
      ],
      "name": "RightHandMiddle2_047",
      "translation": [
        -3.6982367038726807,
        1.4796064533584286e-05,
        -2.293493162142113e-05
      ]
    },
    {
      "children": [
        59
      ],
      "name": "RightHandMiddle3_048",
      "translation": [
        -2.9509215354919434,
        -5.27572410646826e-07,
        -3.471118645848037e-07
      ]
    },
    {
      "name": "RightHandMiddle4_049",
      "translation": [
        -2.833902597427368,
        7.522239684476517e-06,
        5.339924246072769e-05
      ]
    },
    {
      "children": [
        61
      ],
      "name": "RightHandIndex1_050",
      "translation": [
        -9.108282089233398,
        -0.516789436340332,
        2.260115146636963
      ]
    },
    {
      "children": [
        62
      ],
      "name": "RightHandIndex2_051",
      "translation": [
        -3.6764094829559326,
        1.8934233594336547e-05,
        3.229154390282929e-05
      ]
    },
    {
      "children": [
        63
      ],
      "name": "RightHandIndex3_052",
      "translation": [
        -2.8830626010894775,
        -4.982153404853307e-05,
        3.9883241697680205e-05
      ]
    },
    {
      "name": "RightHandIndex4_053",
      "translation": [
        -2.3927199840545654,
        2.609136026876513e-05,
        2.7417427190812305e-05
      ]
    },
    {
      "children": [
        65
      ],
      "name": "RightHandThumb1_054",
      "translation": [
        -2.464806318283081,
        -1.5727142095565796,
        2.6826260089874268
      ]
    },
    {
      "children": [
        66
      ],
      "name": "RightHandThumb2_055",
      "translation": [
        -3.229771614074707,
        -1.864709496498108,
        1.864717960357666
      ]
    },
    {
      "children": [
        67
      ],
      "name": "RightHandThumb3_056",
      "translation": [
        -2.6526052951812744,
        -1.531449317932129,
        1.5314455032348633
      ]
    },
    {
      "name": "RightHandThumb4_00",
      "translation": [
        -1.9545807838439941,
        -1.128461480140686,
        1.1285068988800049
      ]
    },
    {
      "children": [
        69
      ],
      "name": "LeftUpLeg_057",
      "translation": [
        8.207782745361328,
        -6.751713275909424,
        -1.5995556116104126
      ]
    },
    {
      "children": [
        70
      ],
      "name": "LeftLeg_058",
      "translation": [
        0.006566663738340139,
        -44.3631591796875,
        0.8544331789016724
      ]
    },
    {
      "children": [
        71
      ],
      "name": "LeftFoot_059",
      "translation": [
        0.00660804333165288,
        -44.38603591918945,
        -3.5509157180786133
      ]
    },
    {
      "children": [
        72
      ],
      "name": "LeftToeBase_060",
      "translation": [
        -3.016622713403194e-06,
        -8.728669166564941,
        10.71056079864502
      ]
    },
    {
      "name": "LeftToe_End_061",
      "translation": [
        -2.6132879611395765e-06,
        -0.0006760830874554813,
        9.278136253356934
      ]
    },
    {
      "children": [
        74
      ],
      "name": "RightUpLeg_062",
      "translation": [
        -8.207795143127441,
        -6.7516632080078125,
        -1.5995594263076782
      ]
    },
    {
      "children": [
        75
      ],
      "name": "RightLeg_063",
      "translation": [
        0.006566190160810947,
        -44.36320877075195,
        0.8555582761764526
      ]
    },
    {
      "children": [
        76
      ],
      "name": "RightFoot_064",
      "translation": [
        0.006607565097510815,
        -44.38591003417969,
        -3.5520458221435547
      ]
    },
    {
      "children": [
        77
      ],
      "name": "RightToeBase_065",
      "translation": [
        -2.3783420601830585e-06,
        -8.728669166564941,
        10.71056079864502
      ]
    },
    {
      "name": "RightToe_End_066",
      "translation": [
        -2.060266979242442e-06,
        -0.000676507770549506,
        9.278120040893555
      ]
    },
    {
      "children": [
        79,
        80,
        82,
        83,
        84,
        85
      ],
      "name": "Erika_Archer_Meshes"
    },
    {
      "name": "Erika_Archer_Bow_Mesh"
    },
    {
      "children": [
        81
      ],
      "name": "Erika_Archer_Arrow_Mesh"
    },
    {
      "mesh": 5,
      "name": "Erika_Archer_Arrow_Mesh_Arrow_MAT_0"
    },
    {
      "name": "Erika_Archer_Clothes_Mesh"
    },
    {
      "name": "Erika_Archer_Eyes_Mesh"
    },
    {
      "name": "Erika_Archer_Eyelashes_Mesh"
    },
    {
      "name": "Erika_Archer_Body_Mesh"
    }
  ],
  "samplers": [
    {
      "magFilter": 9729,
      "minFilter": 9987,
      "wrapS": 10497,
      "wrapT": 10497
    }
  ],
  "scene": 0,
  "scenes": [
    {
      "name": "Sketchfab_Scene",
      "nodes": [
        0
      ]
    }
  ],
  "skins": [
    {
      "inverseBindMatrices": 48,
      "joints": [
        5,
        11,
        12,
        13,
        14,
        15,
        16,
        17,
        18,
        19,
        20,
        21,
        22,
        23,
        24,
        25,
        26,
        27,
        28,
        29,
        30,
        31,
        32,
        33,
        34,
        35,
        36,
        37,
        38,
        39,
        40,
        41,
        42,
        43,
        44,
        45,
        46,
        47,
        48,
        49,
        50,
        51,
        52,
        53,
        54,
        55,
        56,
        57,
        58,
        59,
        60,
        61,
        62,
        63,
        64,
        65,
        66,
        67,
        68,
        69,
        70,
        71,
        72,
        73,
        74,
        75,
        76,
        77
      ],
      "skeleton": 5
    }
  ],
  "textures": [
    {
      "sampler": 0,
      "source": 0
    },
    {
      "sampler": 0,
      "source": 1
    },
    {
      "sampler": 0,
      "source": 2
    },
    {
      "sampler": 0,
      "source": 3
    },
    {
      "sampler": 0,
      "source": 4
    },
    {
      "sampler": 0,
      "source": 5
    },
    {
      "sampler": 0,
      "source": 6
    },
    {
      "sampler": 0,
      "source": 7
    },
    {
      "sampler": 0,
      "source": 8
    }
  ]
}
