{
  "accessors": [
    {
      "bufferView": 2,
      "componentType": 5126,
      "count": 2604,
      "max": [
        125.3759994506836,
        58.61050033569336,
        100.95700073242188
      ],
      "min": [
        -124.95800018310547,
        -130.3939971923828,
        -119.37300109863281
      ],
      "type": "VEC3"
    },
    {
      "bufferView": 2,
      "byteOffset": 31248,
      "componentType": 5126,
      "count": 2604,
      "max": [
        1.0,
        1.0,
        1.0
      ],
      "min": [
        -1.0,
        -1.0,
        -1.0
      ],
      "type": "VEC3"
    },
    {
      "bufferView": 3,
      "componentType": 5126,
      "count": 2604,
      "max": [
        1.0,
        0.837317705154419,
        1.0,
        1.0
      ],
      "min": [
        -1.0,
        -0.8819210529327393,
        -1.0,
        1.0
      ],
      "type": "VEC4"
    },
    {
      "bufferView": 1,
      "componentType": 5126,
      "count": 2604,
      "max": [
        1.0,
        0.9959629774093628
      ],
      "min": [
        0.0,
        0.0
      ],
      "type": "VEC2"
    },
    {
      "bufferView": 0,
      "componentType": 5125,
      "count": 4332,
      "type": "SCALAR"
    },
    {
      "bufferView": 2,
      "byteOffset": 62496,
      "componentType": 5126,
      "count": 278,
      "max": [
        100.0,
        74.85440063476563,
        -25.548900604248047
      ],
      "min": [
        -100.0,
        -74.85440063476563,
        -38.04890060424805
      ],
      "type": "VEC3"
    },
    {
      "bufferView": 2,
      "byteOffset": 65832,
      "componentType": 5126,
      "count": 278,
      "max": [
        1.0,
        1.0,
        1.0
      ],
      "min": [
        -1.0,
        -1.0,
        -1.0
      ],
      "type": "VEC3"
    },
    {
      "bufferView": 3,
      "byteOffset": 41664,
      "componentType": 5126,
      "count": 278,
      "max": [
        1.8016402464127168e-05,
        1.0,
        1.0,
        1.0
      ],
      "min": [
        -0.00023106792650651187,
        -1.0,
        -1.0,
        1.0
      ],
      "type": "VEC4"
    },
    {
      "bufferView": 1,
      "byteOffset": 20832,
      "componentType": 5126,
      "count": 278,
      "max": [
        0.9987509846687317,
        1.0
      ],
      "min": [
        0.0,
        0.0
      ],
      "type": "VEC2"
    },
    {
      "bufferView": 0,
      "byteOffset": 17328,
      "componentType": 5125,
      "count": 588,
      "type": "SCALAR"
    },
    {
      "bufferView": 2,
      "byteOffset": 69168,
      "componentType": 5126,
      "count": 336,
      "max": [
        134.9149932861328,
        125.0,
        125.0
      ],
      "min": [
        -135.0850067138672,
        -125.0,
        -124.93399810791016
      ],
      "type": "VEC3"
    },
    {
      "bufferView": 2,
      "byteOffset": 73200,
      "componentType": 5126,
      "count": 336,
      "max": [
        1.0,
        1.0,
        1.0
      ],
      "min": [
        -1.0,
        -1.0,
        -1.0
      ],
      "type": "VEC3"
    },
    {
      "bufferView": 3,
      "byteOffset": 46112,
      "componentType": 5126,
      "count": 336,
      "max": [
        1.0,
        1.0,
        1.0,
        1.0
      ],
      "min": [
        -1.0,
        -1.0,
        -1.0,
        1.0
      ],
      "type": "VEC4"
    },
    {
      "bufferView": 1,
      "byteOffset": 23056,
      "componentType": 5126,
      "count": 336,
      "max": [
        1.0,
        0.9734150171279907
      ],
      "min": [
        0.0,
        0.0
      ],
      "type": "VEC2"
    },
    {
      "bufferView": 0,
      "byteOffset": 19680,
      "componentType": 5125,
      "count": 504,
      "type": "SCALAR"
    },
    {
      "bufferView": 2,
      "byteOffset": 77232,
      "componentType": 5126,
      "count": 1920,
      "max": [
        57.23939895629883,
        57.23939895629883,
        34.2224006652832
      ],
      "min": [
        -57.23939895629883,
        -129.55499267578125,
        -124.13700103759766
      ],
      "type": "VEC3"
    },
    {
      "bufferView": 2,
      "byteOffset": 100272,
      "componentType": 5126,
      "count": 1920,
      "max": [
        0.9951848983764648,
        0.9951848983764648,
        1.0
      ],
      "min": [
        -0.9951848983764648,
        -0.9951848983764648,
        -1.0
      ],
      "type": "VEC3"
    },
    {
      "bufferView": 3,
      "byteOffset": 51488,
      "componentType": 5126,
      "count": 1920,
      "max": [
        0.21845169365406036,
        0.7730617523193359,
        1.0,
        1.0
      ],
      "min": [
        -0.8819409012794495,
        -0.6344767808914185,
        -1.0,
        1.0
      ],
      "type": "VEC4"
    },
    {
      "bufferView": 1,
      "byteOffset": 25744,
      "componentType": 5126,
      "count": 1920,
      "max": [
        1.0,
        0.9900019764900208
      ],
      "min": [
        0.0,
        0.0
      ],
      "type": "VEC2"
    },
    {
      "bufferView": 0,
      "byteOffset": 21696,
      "componentType": 5125,
      "count": 3444,
      "type": "SCALAR"
    },
    {
      "bufferView": 2,
      "byteOffset": 123312,
      "componentType": 5126,
      "count": 3221,
      "max": [
        87.85489654541016,
        85.28900146484375,
        175.3000030517578
      ],
      "min": [
        -84.92890167236328,
        -85.26959991455078,
        38.8577995300293
      ],
      "type": "VEC3"
    },
    {
      "bufferView": 2,
      "byteOffset": 161964,
      "componentType": 5126,
      "count": 3221,
      "max": [
        1.0,
        1.0,
        1.0
      ],
      "min": [
        -1.0,
        -1.0,
        -1.0
      ],
      "type": "VEC3"
    },
    {
      "bufferView": 3,
      "byteOffset": 82208,
      "componentType": 5126,
      "count": 3221,
      "max": [
        1.0,
        1.0,
        1.0,
        1.0
      ],
      "min": [
        -1.0,
        -1.0,
        -1.0,
        1.0
      ],
      "type": "VEC4"
    },
    {
      "bufferView": 1,
      "byteOffset": 41104,
      "componentType": 5126,
      "count": 3221,
      "max": [
        0.9960560202598572,
        1.0
      ],
      "min": [
        0.0,
        0.0
      ],
      "type": "VEC2"
    },
    {
      "bufferView": 0,
      "byteOffset": 35472,
      "componentType": 5125,
      "count": 9756,
      "type": "SCALAR"
    }
  ],
  "asset": {
    "extras": {
      "author": "wolfgar74 (https://sketchfab.com/wolfgar74)",
      "license": "CC-BY-4.0 (http://creativecommons.org/licenses/by/4.0/)",
      "source": "https://sketchfab.com/3d-models/medieval-wine-press-free-706ee74b7c1843559f8b9a440e359423",
      "title": "Medieval Wine Press (Free)"
    },
    "generator": "Sketchfab-12.68.0",
    "version": "2.0"
  },
  "bufferViews": [
    {
      "buffer": 0,
      "byteLength": 74496,
      "name": "floatBufferViews",
      "target": 34963
    },
    {
      "buffer": 0,
      "byteLength": 66872,
      "byteOffset": 74496,
      "byteStride": 8,
      "name": "floatBufferViews",
      "target": 34962
    },
    {
      "buffer": 0,
      "byteLength": 200616,
      "byteOffset": 141368,
      "byteStride": 12,
      "name": "floatBufferViews",
      "target": 34962
    },
    {
      "buffer": 0,
      "byteLength": 133744,
      "byteOffset": 341984,
      "byteStride": 16,
      "name": "floatBufferViews",
      "target": 34962
    }
  ],
  "buffers": [
    {
      "byteLength": 475728,
      "uri": "scene.bin"
    }
  ],
  "images": [
    {
      "uri": "textures/BoltsBracket_baseColor.png"
    },
    {
      "uri": "textures/BoltsBracket_metallicRoughness.png"
    },
    {
      "uri": "textures/BoltsBracket_normal.png"
    },
    {
      "uri": "textures/Platform_baseColor.png"
    },
    {
      "uri": "textures/Platform_metallicRoughness.png"
    },
    {
      "uri": "textures/Platform_normal.png"
    },
    {
      "uri": "textures/PressFrame_baseColor.png"
    },
    {
      "uri": "textures/PressFrame_metallicRoughness.png"
    },
    {
      "uri": "textures/PressFrame_normal.png"
    },
    {
      "uri": "textures/Tubs_baseColor.png"
    },
    {
      "uri": "textures/Tubs_metallicRoughness.png"
    },
    {
      "uri": "textures/Tubs_normal.png"
    },
    {
      "uri": "textures/UpperLowerTwist_baseColor.png"
    },
    {
      "uri": "textures/UpperLowerTwist_metallicRoughness.png"
    },
    {
      "uri": "textures/UpperLowerTwist_normal.png"
    }
  ],
  "materials": [
    {
      "doubleSided": true,
      "name": "BoltsBracket",
      "normalTexture": {
        "index": 2
      },
      "occlusionTexture": {
        "index": 1
      },
      "pbrMetallicRoughness": {
        "baseColorTexture": {
          "index": 0
        },
        "metallicRoughnessTexture": {
          "index": 1
        }
      }
    },
    {
      "doubleSided": true,
      "name": "Platform",
      "normalTexture": {
        "index": 5
      },
      "occlusionTexture": {
        "index": 4
      },
      "pbrMetallicRoughness": {
        "baseColorTexture": {
          "index": 3
        },
        "metallicRoughnessTexture": {
          "index": 4
        }
      }
    },
    {
      "doubleSided": true,
      "name": "PressFrame",
      "normalTexture": {
        "index": 8
      },
      "occlusionTexture": {
        "index": 7
      },
      "pbrMetallicRoughness": {
        "baseColorTexture": {
          "index": 6
        },
        "metallicRoughnessTexture": {
          "index": 7
        }
      }
    },
    {
      "doubleSided": true,
      "name": "Tubs",
      "normalTexture": {
        "index": 11
      },
      "occlusionTexture": {
        "index": 10
      },
      "pbrMetallicRoughness": {
        "baseColorTexture": {
          "index": 9
        },
        "metallicRoughnessTexture": {
          "index": 10
        }
      }
    },
    {
      "doubleSided": true,
      "name": "UpperLowerTwist",
      "normalTexture": {
        "index": 14
      },
      "occlusionTexture": {
        "index": 13
      },
      "pbrMetallicRoughness": {
        "baseColorTexture": {
          "index": 12
        },
        "metallicRoughnessTexture": {
          "index": 13
        }
      }
    }
  ],
  "meshes": [
    {
      "name": "Object_0",
      "primitives": [
        {
          "attributes": {
            "NORMAL": 1,
            "POSITION": 0,
            "TANGENT": 2,
            "TEXCOORD_0": 3
          },
          "indices": 4,
          "material": 0,
          "mode": 4
        }
      ]
    },
    {
      "name": "Object_1",
      "primitives": [
        {
          "attributes": {
            "NORMAL": 6,
            "POSITION": 5,
            "TANGENT": 7,
            "TEXCOORD_0": 8
          },
          "indices": 9,
          "material": 1,
          "mode": 4
        }
      ]
    },
    {
      "name": "Object_2",
      "primitives": [
        {
          "attributes": {
            "NORMAL": 11,
            "POSITION": 10,
            "TANGENT": 12,
            "TEXCOORD_0": 13
          },
          "indices": 14,
          "material": 2,
          "mode": 4
        }
      ]
    },
    {
      "name": "Object_3",
      "primitives": [
        {
          "attributes": {
            "NORMAL": 16,
            "POSITION": 15,
            "TANGENT": 17,
            "TEXCOORD_0": 18
          },
          "indices": 19,
          "material": 3,
          "mode": 4
        }
      ]
    },
    {
      "name": "Object_4",
      "primitives": [
        {
          "attributes": {
            "NORMAL": 21,
            "POSITION": 20,
            "TANGENT": 22,
            "TEXCOORD_0": 23
          },
          "indices": 24,
          "material": 4,
          "mode": 4
        }
      ]
    }
  ],
  "nodes": [
    {
      "children": [
        1
      ],
      "matrix": [
        1.0,
        0.0,
        0.0,
        0.0,
        0.0,
        2.220446049250313e-16,
        -1.0,
        0.0,
        0.0,
        1.0,
        2.220446049250313e-16,
        0.0,
        0.0,
        0.0,
        0.0,
        1.0
      ],
      "name": "Sketchfab_model"
    },
    {
      "children": [
        2,
        3,
        4,
        5,
        6
      ],
      "name": "WinePress.obj.cleaner.materialmerger.gles"
    },
    {
      "mesh": 0,
      "name": "Object_2"
    },
    {
      "mesh": 1,
      "name": "Object_3"
    },
    {
      "mesh": 2,
      "name": "Object_4"
    },
    {
      "mesh": 3,
      "name": "Object_5"
    },
    {
      "mesh": 4,
      "name": "Object_6"
    }
  ],
  "samplers": [
    {
      "magFilter": 9729,
      "minFilter": 9987,
      "wrapS": 10497,
      "wrapT": 10497
    }
  ],
  "scene": 0,
  "scenes": [
    {
      "name": "Sketchfab_Scene",
      "nodes": [
        0
      ]
    }
  ],
  "textures": [
    {
      "sampler": 0,
      "source": 0
    },
    {
      "sampler": 0,
      "source": 1
    },
    {
      "sampler": 0,
      "source": 2
    },
    {
      "sampler": 0,
      "source": 3
    },
    {
      "sampler": 0,
      "source": 4
    },
    {
      "sampler": 0,
      "source": 5
    },
    {
      "sampler": 0,
      "source": 6
    },
    {
      "sampler": 0,
      "source": 7
    },
    {
      "sampler": 0,
      "source": 8
    },
    {
      "sampler": 0,
      "source": 9
    },
    {
      "sampler": 0,
      "source": 10
    },
    {
      "sampler": 0,
      "source": 11
    },
    {
      "sampler": 0,
      "source": 12
    },
    {
      "sampler": 0,
      "source": 13
    },
    {
      "sampler": 0,
      "source": 14
    }
  ]
}
