{
  "accessors": [
    {
      "bufferView": 2,
      "componentType": 5126,
      "count": 9360,
      "max": [
        3.9143290519714355,
        3.9143309593200684,
        4.064570903778076
      ],
      "min": [
        1.1712689399719238,
        1.1712708473205566,
        1.894840955734253
      ],
      "type": "VEC3"
    },
    {
      "bufferView": 2,
      "byteOffset": 112320,
      "componentType": 5126,
      "count": 9360,
      "max": [
        1.0,
        1.0,
        0.9006292223930359
      ],
      "min": [
        -1.0,
        -1.0,
        -0.9006369709968567
      ],
      "type": "VEC3"
    },
    {
      "bufferView": 0,
      "componentType": 5125,
      "count": 51840,
      "type": "SCALAR"
    },
    {
      "bufferView": 2,
      "byteOffset": 224640,
      "componentType": 5126,
      "count": 4896,
      "max": [
        3.455134868621826,
        3.455136775970459,
        2.019728899002075
      ],
      "min": [
        1.6304630041122437,
        1.6304649114608765,
        1.4437239170074463
      ],
      "type": "VEC3"
    },
    {
      "bufferView": 2,
      "byteOffset": 283392,
      "componentType": 5126,
      "count": 4896,
      "max": [
        0.9952060580253601,
        0.9952060580253601,
        1.0
      ],
      "min": [
        -0.9952060580253601,
        -0.9952060580253601,
        -1.0
      ],
      "type": "VEC3"
    },
    {
      "bufferView": 0,
      "byteOffset": 207360,
      "componentType": 5125,
      "count": 13824,
      "type": "SCALAR"
    },
    {
      "bufferView": 2,
      "byteOffset": 342144,
      "componentType": 5126,
      "count": 4896,
      "max": [
        3.4319660663604736,
        3.431966781616211,
        2.0683209896087646
      ],
      "min": [
        1.6536329984664917,
        1.6536349058151245,
        1.8558299541473389
      ],
      "type": "VEC3"
    },
    {
      "bufferView": 2,
      "byteOffset": 400896,
      "componentType": 5126,
      "count": 4896,
      "max": [
        0.9995529055595398,
        0.9995529055595398,
        1.0
      ],
      "min": [
        -0.9995529055595398,
        -0.9995529055595398,
        -1.0
      ],
      "type": "VEC3"
    },
    {
      "bufferView": 0,
      "byteOffset": 262656,
      "componentType": 5125,
      "count": 13824,
      "type": "SCALAR"
    },
    {
      "bufferView": 2,
      "byteOffset": 459648,
      "componentType": 5126,
      "count": 4896,
      "max": [
        3.4570820331573486,
        3.4570839405059814,
        1.9674508571624756
      ],
      "min": [
        1.6285159587860107,
        1.6285178661346436,
        1.3914458751678467
      ],
      "type": "VEC3"
    },
    {
      "bufferView": 2,
      "byteOffset": 518400,
      "componentType": 5126,
      "count": 4896,
      "max": [
        0.9952060580253601,
        0.9952060580253601,
        1.0
      ],
      "min": [
        -0.9952060580253601,
        -0.9952060580253601,
        -1.0
      ],
      "type": "VEC3"
    },
    {
      "bufferView": 0,
      "byteOffset": 317952,
      "componentType": 5125,
      "count": 13824,
      "type": "SCALAR"
    },
    {
      "bufferView": 2,
      "byteOffset": 577152,
      "componentType": 5126,
      "count": 4896,
      "max": [
        4.125266075134277,
        4.12526798248291,
        1.555344820022583
      ],
      "min": [
        0.9603320360183716,
        0.9603348970413208,
        0.4653940200805664
      ],
      "type": "VEC3"
    },
    {
      "bufferView": 2,
      "byteOffset": 635904,
      "componentType": 5126,
      "count": 4896,
      "max": [
        0.9995529055595398,
        0.9995529055595398,
        1.0
      ],
      "min": [
        -0.9995529055595398,
        -0.9995529055595398,
        -1.0
      ],
      "type": "VEC3"
    },
    {
      "bufferView": 0,
      "byteOffset": 373248,
      "componentType": 5125,
      "count": 13824,
      "type": "SCALAR"
    },
    {
      "bufferView": 2,
      "byteOffset": 694656,
      "componentType": 5126,
      "count": 4896,
      "max": [
        4.240849018096924,
        4.240850925445557,
        0.49034786224365234
      ],
      "min": [
        0.8447489738464355,
        0.8447508811950684,
        0.4653940200805664
      ],
      "type": "VEC3"
    },
    {
      "bufferView": 2,
      "byteOffset": 753408,
      "componentType": 5126,
      "count": 4896,
      "max": [
        1.0,
        1.0,
        0.9999021291732788
      ],
      "min": [
        -1.0,
        -1.0,
        -0.532630205154419
      ],
      "type": "VEC3"
    },
    {
      "bufferView": 0,
      "byteOffset": 428544,
      "componentType": 5125,
      "count": 13824,
      "type": "SCALAR"
    },
    {
      "bufferView": 2,
      "byteOffset": 812160,
      "componentType": 5126,
      "count": 4896,
      "max": [
        4.240850925445557,
        4.2408528327941895,
        0.49034786224365234
      ],
      "min": [
        0.8447469472885132,
        0.844748854637146,
        0.4653940200805664
      ],
      "type": "VEC3"
    },
    {
      "bufferView": 2,
      "byteOffset": 870912,
      "componentType": 5126,
      "count": 4896,
      "max": [
        1.0,
        1.0,
        0.9999034404754639
      ],
      "min": [
        -1.0,
        -1.0,
        -0.532630205154419
      ],
      "type": "VEC3"
    },
    {
      "bufferView": 0,
      "byteOffset": 483840,
      "componentType": 5125,
      "count": 13824,
      "type": "SCALAR"
    },
    {
      "bufferView": 2,
      "byteOffset": 929664,
      "componentType": 5126,
      "count": 4896,
      "max": [
        4.044913291931152,
        4.044915199279785,
        1.3952958583831787
      ],
      "min": [
        1.0406839847564697,
        1.0406858921051025,
        0.4653940200805664
      ],
      "type": "VEC3"
    },
    {
      "bufferView": 2,
      "byteOffset": 988416,
      "componentType": 5126,
      "count": 4896,
      "max": [
        1.0,
        1.0,
        0.9999020099639893
      ],
      "min": [
        -1.0,
        -1.0,
        -0.9660059809684753
      ],
      "type": "VEC3"
    },
    {
      "bufferView": 0,
      "byteOffset": 539136,
      "componentType": 5125,
      "count": 13824,
      "type": "SCALAR"
    },
    {
      "bufferView": 2,
      "byteOffset": 1047168,
      "componentType": 5126,
      "count": 4896,
      "max": [
        4.044911861419678,
        4.0449137687683105,
        0.49034786224365234
      ],
      "min": [
        1.040686011314392,
        1.040687918663025,
        0.4653940200805664
      ],
      "type": "VEC3"
    },
    {
      "bufferView": 2,
      "byteOffset": 1105920,
      "componentType": 5126,
      "count": 4896,
      "max": [
        1.0,
        1.0,
        0.9999034404754639
      ],
      "min": [
        -1.0,
        -1.0,
        -0.532630205154419
      ],
      "type": "VEC3"
    },
    {
      "bufferView": 0,
      "byteOffset": 594432,
      "componentType": 5125,
      "count": 13824,
      "type": "SCALAR"
    },
    {
      "bufferView": 2,
      "byteOffset": 1164672,
      "componentType": 5126,
      "count": 2304,
      "max": [
        3.4515249729156494,
        3.4515268802642822,
        2.016925811767578
      ],
      "min": [
        1.63407301902771,
        1.6340749263763428,
        1.4485948085784912
      ],
      "type": "VEC3"
    },
    {
      "bufferView": 2,
      "byteOffset": 1192320,
      "componentType": 5126,
      "count": 2304,
      "max": [
        0.9999998807907104,
        0.9999998807907104,
        0.9816473722457886
      ],
      "min": [
        -0.9999998807907104,
        -0.9999998807907104,
        -0.9816843271255493
      ],
      "type": "VEC3"
    },
    {
      "bufferView": 0,
      "byteOffset": 649728,
      "componentType": 5125,
      "count": 12576,
      "type": "SCALAR"
    },
    {
      "bufferView": 2,
      "byteOffset": 1219968,
      "componentType": 5126,
      "count": 2304,
      "max": [
        3.457456111907959,
        3.4574568271636963,
        1.9625799655914307
      ],
      "min": [
        1.628143072128296,
        1.6281439065933228,
        1.690415859222412
      ],
      "type": "VEC3"
    },
    {
      "bufferView": 2,
      "byteOffset": 1247616,
      "componentType": 5126,
      "count": 2304,
      "max": [
        0.9999998807907104,
        0.9999998807907104,
        0.9808865189552307
      ],
      "min": [
        -0.9999998807907104,
        -0.9999998807907104,
        -0.9808940291404724
      ],
      "type": "VEC3"
    },
    {
      "bufferView": 0,
      "byteOffset": 700032,
      "componentType": 5125,
      "count": 12576,
      "type": "SCALAR"
    },
    {
      "bufferView": 2,
      "byteOffset": 1275264,
      "componentType": 5126,
      "count": 2304,
      "max": [
        3.370582103729248,
        3.370584011077881,
        2.062743902206421
      ],
      "min": [
        1.7150160074234009,
        1.7150179147720337,
        1.9865849018096924
      ],
      "type": "VEC3"
    },
    {
      "bufferView": 2,
      "byteOffset": 1302912,
      "componentType": 5126,
      "count": 2304,
      "max": [
        0.9999061822891235,
        0.9999061822891235,
        0.9821106791496277
      ],
      "min": [
        -0.9999061822891235,
        -0.9999061822891235,
        -0.9824116826057434
      ],
      "type": "VEC3"
    },
    {
      "bufferView": 0,
      "byteOffset": 750336,
      "componentType": 5125,
      "count": 12576,
      "type": "SCALAR"
    },
    {
      "bufferView": 2,
      "byteOffset": 1330560,
      "componentType": 5126,
      "count": 2304,
      "max": [
        3.4534709453582764,
        3.453472852706909,
        1.9625799655914307
      ],
      "min": [
        1.632125973701477,
        1.6321278810501099,
        1.3942489624023438
      ],
      "type": "VEC3"
    },
    {
      "bufferView": 2,
      "byteOffset": 1358208,
      "componentType": 5126,
      "count": 2304,
      "max": [
        0.9999998807907104,
        0.9999998807907104,
        0.9816843271255493
      ],
      "min": [
        -0.9999998807907104,
        -0.9999998807907104,
        -0.9816473722457886
      ],
      "type": "VEC3"
    },
    {
      "bufferView": 0,
      "byteOffset": 800640,
      "componentType": 5125,
      "count": 12576,
      "type": "SCALAR"
    },
    {
      "bufferView": 2,
      "byteOffset": 1385856,
      "componentType": 5126,
      "count": 2304,
      "max": [
        3.459402084350586,
        3.4594039916992188,
        1.7207589149475098
      ],
      "min": [
        1.6261959075927734,
        1.6261978149414063,
        1.4485948085784912
      ],
      "type": "VEC3"
    },
    {
      "bufferView": 2,
      "byteOffset": 1413504,
      "componentType": 5126,
      "count": 2304,
      "max": [
        0.9999998807907104,
        0.9999998807907104,
        0.9808940291404724
      ],
      "min": [
        -0.9999998807907104,
        -0.9999998807907104,
        -0.9808865189552307
      ],
      "type": "VEC3"
    },
    {
      "bufferView": 0,
      "byteOffset": 850944,
      "componentType": 5125,
      "count": 12576,
      "type": "SCALAR"
    },
    {
      "bufferView": 2,
      "byteOffset": 1441152,
      "componentType": 5126,
      "count": 2304,
      "max": [
        4.119683265686035,
        4.119685173034668,
        1.4245898723602295
      ],
      "min": [
        0.9659149646759033,
        0.9659168720245361,
        0.4903268814086914
      ],
      "type": "VEC3"
    },
    {
      "bufferView": 2,
      "byteOffset": 1468800,
      "componentType": 5126,
      "count": 2304,
      "max": [
        0.9999061822891235,
        0.9999061822891235,
        0.9884341359138489
      ],
      "min": [
        -0.9999061822891235,
        -0.9999061822891235,
        -0.9821106791496277
      ],
      "type": "VEC3"
    },
    {
      "bufferView": 0,
      "byteOffset": 901248,
      "componentType": 5125,
      "count": 12576,
      "type": "SCALAR"
    },
    {
      "bufferView": 2,
      "byteOffset": 1496448,
      "componentType": 5126,
      "count": 2304,
      "max": [
        4.234458923339844,
        4.234460830688477,
        0.5020461082458496
      ],
      "min": [
        0.8511389493942261,
        0.8511408567428589,
        0.4903268814086914
      ],
      "type": "VEC3"
    },
    {
      "bufferView": 2,
      "byteOffset": 1524096,
      "componentType": 5126,
      "count": 2304,
      "max": [
        0.983646810054779,
        0.9836291074752808,
        0.9884330034255981
      ],
      "min": [
        -0.983646810054779,
        -0.9836291074752808,
        0.18009668588638306
      ],
      "type": "VEC3"
    },
    {
      "bufferView": 0,
      "byteOffset": 951552,
      "componentType": 5125,
      "count": 12576,
      "type": "SCALAR"
    },
    {
      "bufferView": 2,
      "byteOffset": 1551744,
      "componentType": 5126,
      "count": 2304,
      "max": [
        4.221108913421631,
        4.221110820770264,
        0.5020461082458496
      ],
      "min": [
        0.864488959312439,
        0.8644908666610718,
        0.4903268814086914
      ],
      "type": "VEC3"
    },
    {
      "bufferView": 2,
      "byteOffset": 1579392,
      "componentType": 5126,
      "count": 2304,
      "max": [
        0.9835370779037476,
        0.9835192561149597,
        0.9884395599365234
      ],
      "min": [
        -0.9835192561149597,
        -0.9835370779037476,
        0.18009668588638306
      ],
      "type": "VEC3"
    },
    {
      "bufferView": 0,
      "byteOffset": 1001856,
      "componentType": 5125,
      "count": 12576,
      "type": "SCALAR"
    },
    {
      "bufferView": 2,
      "byteOffset": 1607040,
      "componentType": 5126,
      "count": 2304,
      "max": [
        4.234460830688477,
        4.234462738037109,
        0.5020461082458496
      ],
      "min": [
        0.8511370420455933,
        0.8511389493942261,
        0.4903268814086914
      ],
      "type": "VEC3"
    },
    {
      "bufferView": 2,
      "byteOffset": 1634688,
      "componentType": 5126,
      "count": 2304,
      "max": [
        0.983646810054779,
        0.9836291074752808,
        0.9884330034255981
      ],
      "min": [
        -0.983646810054779,
        -0.9836291074752808,
        0.18009668588638306
      ],
      "type": "VEC3"
    },
    {
      "bufferView": 0,
      "byteOffset": 1052160,
      "componentType": 5125,
      "count": 12576,
      "type": "SCALAR"
    },
    {
      "bufferView": 2,
      "byteOffset": 1662336,
      "componentType": 5126,
      "count": 2304,
      "max": [
        4.038519859313965,
        4.038521766662598,
        1.390429973602295
      ],
      "min": [
        1.047078013420105,
        1.0470799207687378,
        0.4903268814086914
      ],
      "type": "VEC3"
    },
    {
      "bufferView": 2,
      "byteOffset": 1689984,
      "componentType": 5126,
      "count": 2304,
      "max": [
        0.9978653192520142,
        0.9978653192520142,
        0.9884341359138489
      ],
      "min": [
        -0.9978653192520142,
        -0.9978653192520142,
        -0.9819303154945374
      ],
      "type": "VEC3"
    },
    {
      "bufferView": 0,
      "byteOffset": 1102464,
      "componentType": 5125,
      "count": 12576,
      "type": "SCALAR"
    },
    {
      "bufferView": 2,
      "byteOffset": 1717632,
      "componentType": 5126,
      "count": 2304,
      "max": [
        3.7411551475524902,
        3.741157054901123,
        0.5020461082458496
      ],
      "min": [
        1.3444429636001587,
        1.3444448709487915,
        0.4903268814086914
      ],
      "type": "VEC3"
    },
    {
      "bufferView": 2,
      "byteOffset": 1745280,
      "componentType": 5126,
      "count": 2304,
      "max": [
        0.9835370779037476,
        0.9835370779037476,
        0.9884395599365234
      ],
      "min": [
        -0.9835370779037476,
        -0.9835370779037476,
        0.18009668588638306
      ],
      "type": "VEC3"
    },
    {
      "bufferView": 0,
      "byteOffset": 1152768,
      "componentType": 5125,
      "count": 12576,
      "type": "SCALAR"
    },
    {
      "bufferView": 2,
      "byteOffset": 1772928,
      "componentType": 5126,
      "count": 2304,
      "max": [
        4.038517951965332,
        4.038519859313965,
        0.5020461082458496
      ],
      "min": [
        1.0470800399780273,
        1.0470819473266602,
        0.4903268814086914
      ],
      "type": "VEC3"
    },
    {
      "bufferView": 2,
      "byteOffset": 1800576,
      "componentType": 5126,
      "count": 2304,
      "max": [
        0.983646810054779,
        0.9836291074752808,
        0.9884395599365234
      ],
      "min": [
        -0.983646810054779,
        -0.9836291074752808,
        0.18009668588638306
      ],
      "type": "VEC3"
    },
    {
      "bufferView": 0,
      "byteOffset": 1203072,
      "componentType": 5125,
      "count": 12576,
      "type": "SCALAR"
    },
    {
      "bufferView": 2,
      "byteOffset": 1828224,
      "componentType": 5126,
      "count": 5280,
      "max": [
        3.450408935546875,
        3.4504098892211914,
        2.064182996749878
      ],
      "min": [
        1.6351900100708008,
        1.6351909637451172,
        1.4471218585968018
      ],
      "type": "VEC3"
    },
    {
      "bufferView": 2,
      "byteOffset": 1891584,
      "componentType": 5126,
      "count": 5280,
      "max": [
        0.8846690058708191,
        0.8846690058708191,
        0.9999744892120361
      ],
      "min": [
        -0.8846690058708191,
        -0.8846690058708191,
        -0.9999736547470093
      ],
      "type": "VEC3"
    },
    {
      "bufferView": 0,
      "byteOffset": 1253376,
      "componentType": 5125,
      "count": 15576,
      "type": "SCALAR"
    },
    {
      "bufferView": 2,
      "byteOffset": 1954944,
      "componentType": 5126,
      "count": 5280,
      "max": [
        3.452354907989502,
        3.4523568153381348,
        2.0525429248809814
      ],
      "min": [
        1.6332430839538574,
        1.6332449913024902,
        1.358656883239746
      ],
      "type": "VEC3"
    },
    {
      "bufferView": 2,
      "byteOffset": 2018304,
      "componentType": 5126,
      "count": 5280,
      "max": [
        0.8847102522850037,
        0.8847102522850037,
        0.9999744892120361
      ],
      "min": [
        -0.8847102522850037,
        -0.8846690058708191,
        -0.9999744892120361
      ],
      "type": "VEC3"
    },
    {
      "bufferView": 0,
      "byteOffset": 1315680,
      "componentType": 5125,
      "count": 15576,
      "type": "SCALAR"
    },
    {
      "bufferView": 2,
      "byteOffset": 2081664,
      "componentType": 5126,
      "count": 5280,
      "max": [
        4.23610782623291,
        4.236109733581543,
        1.3802099227905273
      ],
      "min": [
        0.8494900465011597,
        0.8494919538497925,
        0.4653658866882324
      ],
      "type": "VEC3"
    },
    {
      "bufferView": 2,
      "byteOffset": 2145024,
      "componentType": 5126,
      "count": 5280,
      "max": [
        0.9999768733978271,
        0.9999768733978271,
        0.999972939491272
      ],
      "min": [
        -0.9999768733978271,
        -0.9999768733978271,
        -1.0
      ],
      "type": "VEC3"
    },
    {
      "bufferView": 0,
      "byteOffset": 1377984,
      "componentType": 5125,
      "count": 15576,
      "type": "SCALAR"
    },
    {
      "bufferView": 2,
      "byteOffset": 2208384,
      "componentType": 5126,
      "count": 5280,
      "max": [
        4.236108779907227,
        4.236111640930176,
        1.391852855682373
      ],
      "min": [
        0.8494889736175537,
        0.8494908809661865,
        0.4653658866882324
      ],
      "type": "VEC3"
    },
    {
      "bufferView": 2,
      "byteOffset": 2271744,
      "componentType": 5126,
      "count": 5280,
      "max": [
        0.9999768733978271,
        0.9999768733978271,
        0.9999736547470093
      ],
      "min": [
        -0.9999768733978271,
        -0.9999768733978271,
        -1.0
      ],
      "type": "VEC3"
    },
    {
      "bufferView": 0,
      "byteOffset": 1440288,
      "componentType": 5125,
      "count": 15576,
      "type": "SCALAR"
    },
    {
      "bufferView": 2,
      "byteOffset": 2335104,
      "componentType": 5126,
      "count": 1920,
      "max": [
        4.040217876434326,
        4.040218830108643,
        0.4884676933288574
      ],
      "min": [
        1.04538094997406,
        1.0453828573226929,
        0.4653658866882324
      ],
      "type": "VEC3"
    },
    {
      "bufferView": 2,
      "byteOffset": 2358144,
      "componentType": 5126,
      "count": 1920,
      "max": [
        0.9999768733978271,
        0.9999768733978271,
        0.007300023455172777
      ],
      "min": [
        -0.9999768733978271,
        -0.9999768733978271,
        -1.0
      ],
      "type": "VEC3"
    },
    {
      "bufferView": 0,
      "byteOffset": 1502592,
      "componentType": 5125,
      "count": 5664,
      "type": "SCALAR"
    },
    {
      "bufferView": 2,
      "byteOffset": 2381184,
      "componentType": 5126,
      "count": 2160,
      "max": [
        4.111169815063477,
        2.280007839202881,
        3.8517470359802246
      ],
      "min": [
        2.8063859939575195,
        0.9744619131088257,
        3.61873197555542
      ],
      "type": "VEC3"
    },
    {
      "bufferView": 2,
      "byteOffset": 2407104,
      "componentType": 5126,
      "count": 2160,
      "max": [
        0.9759484529495239,
        0.9572352766990662,
        0.9999998807907104
      ],
      "min": [
        -0.9573267102241516,
        -0.9754756689071655,
        -0.9999998807907104
      ],
      "type": "VEC3"
    },
    {
      "bufferView": 0,
      "byteOffset": 1525248,
      "componentType": 5125,
      "count": 11520,
      "type": "SCALAR"
    },
    {
      "bufferView": 2,
      "byteOffset": 2433024,
      "componentType": 5126,
      "count": 2160,
      "max": [
        4.111137866973877,
        4.111171722412109,
        3.8517489433288574
      ],
      "min": [
        2.8055920600891113,
        2.8063879013061523,
        3.6187338829040527
      ],
      "type": "VEC3"
    },
    {
      "bufferView": 2,
      "byteOffset": 2458944,
      "componentType": 5126,
      "count": 2160,
      "max": [
        0.9754756689071655,
        0.9759484529495239,
        0.9999998807907104
      ],
      "min": [
        -0.9572352766990662,
        -0.9573267102241516,
        -0.9999998807907104
      ],
      "type": "VEC3"
    },
    {
      "bufferView": 0,
      "byteOffset": 1571328,
      "componentType": 5125,
      "count": 11520,
      "type": "SCALAR"
    },
    {
      "bufferView": 2,
      "byteOffset": 2484864,
      "componentType": 5126,
      "count": 2160,
      "max": [
        2.27921199798584,
        4.11113977432251,
        3.8517489433288574
      ],
      "min": [
        0.9744279384613037,
        2.8055930137634277,
        3.6187338829040527
      ],
      "type": "VEC3"
    },
    {
      "bufferView": 2,
      "byteOffset": 2510784,
      "componentType": 5126,
      "count": 2160,
      "max": [
        0.9573267102241516,
        0.9754756689071655,
        0.9999998807907104
      ],
      "min": [
        -0.9759484529495239,
        -0.9572352766990662,
        -0.9999998807907104
      ],
      "type": "VEC3"
    },
    {
      "bufferView": 0,
      "byteOffset": 1617408,
      "componentType": 5125,
      "count": 11520,
      "type": "SCALAR"
    },
    {
      "bufferView": 2,
      "byteOffset": 2536704,
      "componentType": 5126,
      "count": 2160,
      "max": [
        2.2800068855285645,
        2.2792139053344727,
        3.851749897003174
      ],
      "min": [
        0.9744600057601929,
        0.9744298458099365,
        3.6187338829040527
      ],
      "type": "VEC3"
    },
    {
      "bufferView": 2,
      "byteOffset": 2562624,
      "componentType": 5126,
      "count": 2160,
      "max": [
        0.9572352766990662,
        0.9573267102241516,
        0.9999998807907104
      ],
      "min": [
        -0.9754756689071655,
        -0.9759484529495239,
        -0.9999998807907104
      ],
      "type": "VEC3"
    },
    {
      "bufferView": 0,
      "byteOffset": 1663488,
      "componentType": 5125,
      "count": 11520,
      "type": "SCALAR"
    },
    {
      "bufferView": 2,
      "byteOffset": 2588544,
      "componentType": 5126,
      "count": 1483,
      "max": [
        5.085599899291992,
        5.085600852966309,
        9.506246566772461
      ],
      "min": [
        0.0,
        0.0,
        0.0
      ],
      "type": "VEC3"
    },
    {
      "bufferView": 2,
      "byteOffset": 2606340,
      "componentType": 5126,
      "count": 1483,
      "max": [
        1.0,
        1.0,
        1.0
      ],
      "min": [
        -1.0,
        -1.0,
        -1.0
      ],
      "type": "VEC3"
    },
    {
      "bufferView": 3,
      "componentType": 5126,
      "count": 1483,
      "max": [
        1.0,
        1.0,
        1.0,
        1.0
      ],
      "min": [
        -1.0,
        -1.0,
        -1.0,
        1.0
      ],
      "type": "VEC4"
    },
    {
      "bufferView": 1,
      "componentType": 5126,
      "count": 1483,
      "max": [
        0.88919997215271,
        0.8805999755859375
      ],
      "min": [
        0.0005000000237487257,
        0.0005000000237487257
      ],
      "type": "VEC2"
    },
    {
      "bufferView": 0,
      "byteOffset": 1709568,
      "componentType": 5125,
      "count": 5904,
      "type": "SCALAR"
    },
    {
      "bufferView": 2,
      "byteOffset": 2624136,
      "componentType": 5126,
      "count": 2107,
      "max": [
        3.5437099933624268,
        3.5437140464782715,
        8.460018157958984
      ],
      "min": [
        1.5418879985809326,
        1.541888952255249,
        0.40198469161987305
      ],
      "type": "VEC3"
    },
    {
      "bufferView": 2,
      "byteOffset": 2649420,
      "componentType": 5126,
      "count": 2107,
      "max": [
        1.0,
        1.0,
        0.99940025806427
      ],
      "min": [
        -1.0,
        -1.0,
        -0.8141147494316101
      ],
      "type": "VEC3"
    },
    {
      "bufferView": 3,
      "byteOffset": 23728,
      "componentType": 5126,
      "count": 2107,
      "max": [
        0.9983389377593994,
        0.998271644115448,
        0.9999934434890747,
        1.0
      ],
      "min": [
        -0.9983391165733337,
        -0.999792754650116,
        -1.0,
        1.0
      ],
      "type": "VEC4"
    },
    {
      "bufferView": 1,
      "byteOffset": 11864,
      "componentType": 5126,
      "count": 2107,
      "max": [
        0.9158999919891357,
        0.868399977684021
      ],
      "min": [
        0.0005000000237487257,
        0.10859999805688858
      ],
      "type": "VEC2"
    },
    {
      "bufferView": 0,
      "byteOffset": 1733184,
      "componentType": 5125,
      "count": 10368,
      "type": "SCALAR"
    },
    {
      "bufferView": 2,
      "byteOffset": 2674704,
      "componentType": 5126,
      "count": 2640,
      "max": [
        4.268269062042236,
        4.268270969390869,
        2.087754964828491
      ],
      "min": [
        0.8173290491104126,
        0.8173309564590454,
        0.3984079360961914
      ],
      "type": "VEC3"
    },
    {
      "bufferView": 2,
      "byteOffset": 2706384,
      "componentType": 5126,
      "count": 2640,
      "max": [
        1.0,
        1.0,
        0.9999998807907104
      ],
      "min": [
        -1.0,
        -1.0,
        -0.9999998807907104
      ],
      "type": "VEC3"
    },
    {
      "bufferView": 3,
      "byteOffset": 57440,
      "componentType": 5126,
      "count": 2640,
      "max": [
        0.9984016418457031,
        0.9984015226364136,
        0.9999407529830933,
        1.0
      ],
      "min": [
        -0.9984014630317688,
        -0.9984016418457031,
        -0.8827216029167175,
        1.0
      ],
      "type": "VEC4"
    },
    {
      "bufferView": 1,
      "byteOffset": 28720,
      "componentType": 5126,
      "count": 2640,
      "max": [
        0.8116999864578247,
        0.7283999919891357
      ],
      "min": [
        0.0005000000237487257,
        0.0005000000237487257
      ],
      "type": "VEC2"
    },
    {
      "bufferView": 0,
      "byteOffset": 1774656,
      "componentType": 5125,
      "count": 13056,
      "type": "SCALAR"
    },
    {
      "bufferView": 2,
      "byteOffset": 2738064,
      "componentType": 5126,
      "count": 3732,
      "max": [
        4.309321880340576,
        4.309323787689209,
        4.344162940979004
      ],
      "min": [
        0.7762759923934937,
        0.7762778997421265,
        1.210359811782837
      ],
      "type": "VEC3"
    },
    {
      "bufferView": 2,
      "byteOffset": 2782848,
      "componentType": 5126,
      "count": 3732,
      "max": [
        1.0,
        1.0,
        1.0
      ],
      "min": [
        -1.0,
        -1.0,
        -0.9999998807907104
      ],
      "type": "VEC3"
    },
    {
      "bufferView": 3,
      "byteOffset": 99680,
      "componentType": 5126,
      "count": 3732,
      "max": [
        1.0,
        1.0,
        1.0,
        1.0
      ],
      "min": [
        -1.0,
        -1.0,
        -1.0,
        -1.0
      ],
      "type": "VEC4"
    },
    {
      "bufferView": 1,
      "byteOffset": 49840,
      "componentType": 5126,
      "count": 3732,
      "max": [
        0.9836999773979187,
        0.9994999766349792
      ],
      "min": [
        0.23669999837875366,
        0.0005000000237487257
      ],
      "type": "VEC2"
    },
    {
      "bufferView": 0,
      "byteOffset": 1826880,
      "componentType": 5125,
      "count": 15648,
      "type": "SCALAR"
    },
    {
      "bufferView": 2,
      "byteOffset": 2827632,
      "componentType": 5126,
      "count": 6205,
      "max": [
        3.390058994293213,
        3.3900609016418457,
        7.822403907775879
      ],
      "min": [
        1.6955389976501465,
        1.6955409049987793,
        5.160303115844727
      ],
      "type": "VEC3"
    },
    {
      "bufferView": 2,
      "byteOffset": 2902092,
      "componentType": 5126,
      "count": 6205,
      "max": [
        1.0,
        1.0,
        0.9999501705169678
      ],
      "min": [
        -1.0,
        -1.0,
        -0.9999501705169678
      ],
      "type": "VEC3"
    },
    {
      "bufferView": 3,
      "byteOffset": 159392,
      "componentType": 5126,
      "count": 6205,
      "max": [
        0.9998661279678345,
        0.9997847080230713,
        1.0,
        1.0
      ],
      "min": [
        -0.9998851418495178,
        -0.9998869299888611,
        -1.0,
        1.0
      ],
      "type": "VEC4"
    },
    {
      "bufferView": 1,
      "byteOffset": 79696,
      "componentType": 5126,
      "count": 6205,
      "max": [
        0.18050000071525574,
        0.5503000020980835
      ],
      "min": [
        0.0005000000237487257,
        0.0005000000237487257
      ],
      "type": "VEC2"
    },
    {
      "bufferView": 0,
      "byteOffset": 1889472,
      "componentType": 5125,
      "count": 34560,
      "type": "SCALAR"
    }
  ],
  "asset": {
    "extras": {
      "author": "N-GONE (https://sketchfab.com/fdfxd2)",
      "license": "CC-BY-4.0 (http://creativecommons.org/licenses/by/4.0/)",
      "source": "https://sketchfab.com/3d-models/tesla-coil-old-5a2c8c1ac0a44efca9500af608af710e",
      "title": "Tesla Coil (Old)"
    },
    "generator": "Sketchfab-12.67.0",
    "version": "2.0"
  },
  "bufferViews": [
    {
      "buffer": 0,
      "byteLength": 2027712,
      "name": "floatBufferViews",
      "target": 34963
    },
    {
      "buffer": 0,
      "byteLength": 129336,
      "byteOffset": 2027712,
      "byteStride": 8,
      "name": "floatBufferViews",
      "target": 34962
    },
    {
      "buffer": 0,
      "byteLength": 2976552,
      "byteOffset": 2157048,
      "byteStride": 12,
      "name": "floatBufferViews",
      "target": 34962
    },
    {
      "buffer": 0,
      "byteLength": 258672,
      "byteOffset": 5133600,
      "byteStride": 16,
      "name": "floatBufferViews",
      "target": 34962
    }
  ],
  "buffers": [
    {
      "byteLength": 5392272,
      "uri": "scene.bin"
    }
  ],
  "images": [
    {
      "uri": "textures/None.001_baseColor.png"
    },
    {
      "uri": "textures/None.001_metallicRoughness.png"
    },
    {
      "uri": "textures/None.001_emissive.png"
    },
    {
      "uri": "textures/None.001_normal.png"
    }
  ],
  "materials": [
    {
      "doubleSided": true,
      "name": "1M.001",
      "pbrMetallicRoughness": {
        "baseColorFactor": [
          0.09001585088471749,
          0.09001585088471749,
          0.09001585088471749,
          1.0
        ],
        "roughnessFactor": 0.22
      }
    },
    {
      "doubleSided": true,
      "name": "1Ma.001",
      "pbrMetallicRoughness": {
        "baseColorFactor": [
          0.3636653735842167,
          0.3636653735842167,
          0.3636653735842167,
          1.0
        ],
        "roughnessFactor": 0.28
      }
    },
    {
      "doubleSided": true,
      "name": "1Mb.001",
      "pbrMetallicRoughness": {
        "roughnessFactor": 0.6
      }
    },
    {
      "emissiveFactor": [
        0.2432318129194802,
        0.644279997960443,
        1.0
      ],
      "name": "Light",
      "pbrMetallicRoughness": {
        "metallicFactor": 0.0,
        "roughnessFactor": 0.6
      }
    },
    {
      "doubleSided": true,
      "name": "None",
      "pbrMetallicRoughness": {
        "baseColorFactor": [
          0.061168677160403105,
          0.061168677160403105,
          0.061168677160403105,
          1.0
        ],
        "metallicFactor": 0.0,
        "roughnessFactor": 0.6
      }
    },
    {
      "emissiveFactor": [
        1.0,
        1.0,
        1.0
      ],
      "emissiveTexture": {
        "index": 2
      },
      "name": "None.001",
      "normalTexture": {
        "index": 3
      },
      "occlusionTexture": {
        "index": 1
      },
      "pbrMetallicRoughness": {
        "baseColorTexture": {
          "index": 0
        },
        "metallicRoughnessTexture": {
          "index": 1
        }
      }
    }
  ],
  "meshes": [
    {
      "name": "Object_0",
      "primitives": [
        {
          "attributes": {
            "NORMAL": 1,
            "POSITION": 0
          },
          "indices": 2,
          "material": 3,
          "mode": 4
        }
      ]
    },
    {
      "name": "Object_1",
      "primitives": [
        {
          "attributes": {
            "NORMAL": 4,
            "POSITION": 3
          },
          "indices": 5,
          "material": 0,
          "mode": 4
        }
      ]
    },
    {
      "name": "Object_2",
      "primitives": [
        {
          "attributes": {
            "NORMAL": 7,
            "POSITION": 6
          },
          "indices": 8,
          "material": 0,
          "mode": 4
        }
      ]
    },
    {
      "name": "Object_3",
      "primitives": [
        {
          "attributes": {
            "NORMAL": 10,
            "POSITION": 9
          },
          "indices": 11,
          "material": 0,
          "mode": 4
        }
      ]
    },
    {
      "name": "Object_4",
      "primitives": [
        {
          "attributes": {
            "NORMAL": 13,
            "POSITION": 12
          },
          "indices": 14,
          "material": 0,
          "mode": 4
        }
      ]
    },
    {
      "name": "Object_5",
      "primitives": [
        {
          "attributes": {
            "NORMAL": 16,
            "POSITION": 15
          },
          "indices": 17,
          "material": 0,
          "mode": 4
        }
      ]
    },
    {
      "name": "Object_6",
      "primitives": [
        {
          "attributes": {
            "NORMAL": 19,
            "POSITION": 18
          },
          "indices": 20,
          "material": 0,
          "mode": 4
        }
      ]
    },
    {
      "name": "Object_7",
      "primitives": [
        {
          "attributes": {
            "NORMAL": 22,
            "POSITION": 21
          },
          "indices": 23,
          "material": 0,
          "mode": 4
        }
      ]
    },
    {
      "name": "Object_8",
      "primitives": [
        {
          "attributes": {
            "NORMAL": 25,
            "POSITION": 24
          },
          "indices": 26,
          "material": 0,
          "mode": 4
        }
      ]
    },
    {
      "name": "Object_9",
      "primitives": [
        {
          "attributes": {
            "NORMAL": 28,
            "POSITION": 27
          },
          "indices": 29,
          "material": 1,
          "mode": 4
        }
      ]
    },
    {
      "name": "Object_10",
      "primitives": [
        {
          "attributes": {
            "NORMAL": 31,
            "POSITION": 30
          },
          "indices": 32,
          "material": 1,
          "mode": 4
        }
      ]
    },
    {
      "name": "Object_11",
      "primitives": [
        {
          "attributes": {
            "NORMAL": 34,
            "POSITION": 33
          },
          "indices": 35,
          "material": 1,
          "mode": 4
        }
      ]
    },
    {
      "name": "Object_12",
      "primitives": [
        {
          "attributes": {
            "NORMAL": 37,
            "POSITION": 36
          },
          "indices": 38,
          "material": 1,
          "mode": 4
        }
      ]
    },
    {
      "name": "Object_13",
      "primitives": [
        {
          "attributes": {
            "NORMAL": 40,
            "POSITION": 39
          },
          "indices": 41,
          "material": 1,
          "mode": 4
        }
      ]
    },
    {
      "name": "Object_14",
      "primitives": [
        {
          "attributes": {
            "NORMAL": 43,
            "POSITION": 42
          },
          "indices": 44,
          "material": 1,
          "mode": 4
        }
      ]
    },
    {
      "name": "Object_15",
      "primitives": [
        {
          "attributes": {
            "NORMAL": 46,
            "POSITION": 45
          },
          "indices": 47,
          "material": 1,
          "mode": 4
        }
      ]
    },
    {
      "name": "Object_16",
      "primitives": [
        {
          "attributes": {
            "NORMAL": 49,
            "POSITION": 48
          },
          "indices": 50,
          "material": 1,
          "mode": 4
        }
      ]
    },
    {
      "name": "Object_17",
      "primitives": [
        {
          "attributes": {
            "NORMAL": 52,
            "POSITION": 51
          },
          "indices": 53,
          "material": 1,
          "mode": 4
        }
      ]
    },
    {
      "name": "Object_18",
      "primitives": [
        {
          "attributes": {
            "NORMAL": 55,
            "POSITION": 54
          },
          "indices": 56,
          "material": 1,
          "mode": 4
        }
      ]
    },
    {
      "name": "Object_19",
      "primitives": [
        {
          "attributes": {
            "NORMAL": 58,
            "POSITION": 57
          },
          "indices": 59,
          "material": 1,
          "mode": 4
        }
      ]
    },
    {
      "name": "Object_20",
      "primitives": [
        {
          "attributes": {
            "NORMAL": 61,
            "POSITION": 60
          },
          "indices": 62,
          "material": 1,
          "mode": 4
        }
      ]
    },
    {
      "name": "Object_21",
      "primitives": [
        {
          "attributes": {
            "NORMAL": 64,
            "POSITION": 63
          },
          "indices": 65,
          "material": 2,
          "mode": 4
        }
      ]
    },
    {
      "name": "Object_22",
      "primitives": [
        {
          "attributes": {
            "NORMAL": 67,
            "POSITION": 66
          },
          "indices": 68,
          "material": 2,
          "mode": 4
        }
      ]
    },
    {
      "name": "Object_23",
      "primitives": [
        {
          "attributes": {
            "NORMAL": 70,
            "POSITION": 69
          },
          "indices": 71,
          "material": 2,
          "mode": 4
        }
      ]
    },
    {
      "name": "Object_24",
      "primitives": [
        {
          "attributes": {
            "NORMAL": 73,
            "POSITION": 72
          },
          "indices": 74,
          "material": 2,
          "mode": 4
        }
      ]
    },
    {
      "name": "Object_25",
      "primitives": [
        {
          "attributes": {
            "NORMAL": 76,
            "POSITION": 75
          },
          "indices": 77,
          "material": 2,
          "mode": 4
        }
      ]
    },
    {
      "name": "Object_26",
      "primitives": [
        {
          "attributes": {
            "NORMAL": 79,
            "POSITION": 78
          },
          "indices": 80,
          "material": 4,
          "mode": 4
        }
      ]
    },
    {
      "name": "Object_27",
      "primitives": [
        {
          "attributes": {
            "NORMAL": 82,
            "POSITION": 81
          },
          "indices": 83,
          "material": 4,
          "mode": 4
        }
      ]
    },
    {
      "name": "Object_28",
      "primitives": [
        {
          "attributes": {
            "NORMAL": 85,
            "POSITION": 84
          },
          "indices": 86,
          "material": 4,
          "mode": 4
        }
      ]
    },
    {
      "name": "Object_29",
      "primitives": [
        {
          "attributes": {
            "NORMAL": 88,
            "POSITION": 87
          },
          "indices": 89,
          "material": 4,
          "mode": 4
        }
      ]
    },
    {
      "name": "Object_30",
      "primitives": [
        {
          "attributes": {
            "NORMAL": 91,
            "POSITION": 90,
            "TANGENT": 92,
            "TEXCOORD_0": 93
          },
          "indices": 94,
          "material": 5,
          "mode": 4
        }
      ]
    },
    {
      "name": "Object_31",
      "primitives": [
        {
          "attributes": {
            "NORMAL": 96,
            "POSITION": 95,
            "TANGENT": 97,
            "TEXCOORD_0": 98
          },
          "indices": 99,
          "material": 5,
          "mode": 4
        }
      ]
    },
    {
      "name": "Object_32",
      "primitives": [
        {
          "attributes": {
            "NORMAL": 101,
            "POSITION": 100,
            "TANGENT": 102,
            "TEXCOORD_0": 103
          },
          "indices": 104,
          "material": 5,
          "mode": 4
        }
      ]
    },
    {
      "name": "Object_33",
      "primitives": [
        {
          "attributes": {
            "NORMAL": 106,
            "POSITION": 105,
            "TANGENT": 107,
            "TEXCOORD_0": 108
          },
          "indices": 109,
          "material": 5,
          "mode": 4
        }
      ]
    },
    {
      "name": "Object_34",
      "primitives": [
        {
          "attributes": {
            "NORMAL": 111,
            "POSITION": 110,
            "TANGENT": 112,
            "TEXCOORD_0": 113
          },
          "indices": 114,
          "material": 5,
          "mode": 4
        }
      ]
    }
  ],
  "nodes": [
    {
      "children": [
        1
      ],
      "matrix": [
        1.0,
        0.0,
        0.0,
        0.0,
        0.0,
        2.220446049250313e-16,
        -1.0,
        0.0,
        0.0,
        1.0,
        2.220446049250313e-16,
        0.0,
        0.0,
        0.0,
        0.0,
        1.0
      ],
      "name": "Sketchfab_model"
    },
    {
      "children": [
        2
      ],
      "matrix": [
        1.0,
        0.0,
        0.0,
        0.0,
        0.0,
        1.0,
        0.0,
        0.0,
        0.0,
        0.0,
        1.0,
        0.0,
        -2.5427989959716797,
        -2.5428009033203125,
        -4.594657897949219,
        1.0
      ],
      "name": "Sketchfab.obj.cleaner.gles"
    },
    {
      "children": [
        3,
        4,
        5,
        6,
        7,
        8,
        9,
        10,
        11,
        12,
        13,
        14,
        15,
        16,
        17,
        18,
        19,
        20,
        21,
        22,
        23,
        24,
        25,
        26,
        27,
        28,
        29,
        30,
        31,
        32,
        33,
        34,
        35,
        36,
        37
      ],
      "name": "Object_2"
    },
    {
      "mesh": 0,
      "name": "Object_3"
    },
    {
      "mesh": 1,
      "name": "Object_4"
    },
    {
      "mesh": 2,
      "name": "Object_5"
    },
    {
      "mesh": 3,
      "name": "Object_6"
    },
    {
      "mesh": 4,
      "name": "Object_7"
    },
    {
      "mesh": 5,
      "name": "Object_8"
    },
    {
      "mesh": 6,
      "name": "Object_9"
    },
    {
      "mesh": 7,
      "name": "Object_10"
    },
    {
      "mesh": 8,
      "name": "Object_11"
    },
    {
      "mesh": 9,
      "name": "Object_12"
    },
    {
      "mesh": 10,
      "name": "Object_13"
    },
    {
      "mesh": 11,
      "name": "Object_14"
    },
    {
      "mesh": 12,
      "name": "Object_15"
    },
    {
      "mesh": 13,
      "name": "Object_16"
    },
    {
      "mesh": 14,
      "name": "Object_17"
    },
    {
      "mesh": 15,
      "name": "Object_18"
    },
    {
      "mesh": 16,
      "name": "Object_19"
    },
    {
      "mesh": 17,
      "name": "Object_20"
    },
    {
      "mesh": 18,
      "name": "Object_21"
    },
    {
      "mesh": 19,
      "name": "Object_22"
    },
    {
      "mesh": 20,
      "name": "Object_23"
    },
    {
      "mesh": 21,
      "name": "Object_24"
    },
    {
      "mesh": 22,
      "name": "Object_25"
    },
    {
      "mesh": 23,
      "name": "Object_26"
    },
    {
      "mesh": 24,
      "name": "Object_27"
    },
    {
      "mesh": 25,
      "name": "Object_28"
    },
    {
      "mesh": 26,
      "name": "Object_29"
    },
    {
      "mesh": 27,
      "name": "Object_30"
    },
    {
      "mesh": 28,
      "name": "Object_31"
    },
    {
      "mesh": 29,
      "name": "Object_32"
    },
    {
      "mesh": 30,
      "name": "Object_33"
    },
    {
      "mesh": 31,
      "name": "Object_34"
    },
    {
      "mesh": 32,
      "name": "Object_35"
    },
    {
      "mesh": 33,
      "name": "Object_36"
    },
    {
      "mesh": 34,
      "name": "Object_37"
    }
  ],
  "samplers": [
    {
      "magFilter": 9729,
      "minFilter": 9987,
      "wrapS": 10497,
      "wrapT": 10497
    }
  ],
  "scene": 0,
  "scenes": [
    {
      "name": "Sketchfab_Scene",
      "nodes": [
        0
      ]
    }
  ],
  "textures": [
    {
      "sampler": 0,
      "source": 0
    },
    {
      "sampler": 0,
      "source": 1
    },
    {
      "sampler": 0,
      "source": 2
    },
    {
      "sampler": 0,
      "source": 3
    }
  ]
}
