{
  "accessors": [
    {
      "bufferView": 2,
      "componentType": 5126,
      "count": 2121,
      "max": [
        2.5367319583892822,
        10.479782104492188,
        1.5216261148452759
      ],
      "min": [
        -3.0760483741760254,
        -0.03689063712954521,
        -2.74666428565979
      ],
      "type": "VEC3"
    },
    {
      "bufferView": 2,
      "byteOffset": 25452,
      "componentType": 5126,
      "count": 2121,
      "max": [
        0.9995474815368652,
        0.9926095008850098,
        0.9985755681991577
      ],
      "min": [
        -0.9992770552635193,
        -0.9969949722290039,
        -0.9999678730964661
      ],
      "type": "VEC3"
    },
    {
      "bufferView": 1,
      "componentType": 5126,
      "count": 2121,
      "max": [
        0.9927745461463928,
        0.991509735584259
      ],
      "min": [
        0.010290801525115967,
        0.01061677373945713
      ],
      "type": "VEC2"
    },
    {
      "bufferView": 0,
      "componentType": 5125,
      "count": 8670,
      "type": "SCALAR"
    },
    {
      "bufferView": 2,
      "byteOffset": 50904,
      "componentType": 5126,
      "count": 82,
      "max": [
        1.7377787828445435,
        10.27253246307373,
        1.7281032800674438
      ],
      "min": [
        -1.430000901222229,
        6.679935455322266,
        -0.6673671007156372
      ],
      "type": "VEC3"
    },
    {
      "bufferView": 2,
      "byteOffset": 51888,
      "componentType": 5126,
      "count": 82,
      "max": [
        0.9984652400016785,
        0.9821720123291016,
        0.9873502850532532
      ],
      "min": [
        -0.9932557940483093,
        -0.714142382144928,
        -0.8877382278442383
      ],
      "type": "VEC3"
    },
    {
      "bufferView": 1,
      "byteOffset": 16968,
      "componentType": 5126,
      "count": 82,
      "max": [
        0.9884662628173828,
        0.9824630618095398
      ],
      "min": [
        0.36665862798690796,
        0.25572556257247925
      ],
      "type": "VEC2"
    },
    {
      "bufferView": 1,
      "byteOffset": 17624,
      "componentType": 5126,
      "count": 82,
      "max": [
        0.9884662628173828,
        0.9824630618095398
      ],
      "min": [
        0.36665862798690796,
        0.25572556257247925
      ],
      "type": "VEC2"
    },
    {
      "bufferView": 0,
      "byteOffset": 34680,
      "componentType": 5125,
      "count": 312,
      "type": "SCALAR"
    }
  ],
  "asset": {
    "extras": {
      "author": "Kanna-Nakajima (https://sketchfab.com/Kanna-nakajima)",
      "license": "CC-BY-4.0 (http://creativecommons.org/licenses/by/4.0/)",
      "source": "https://sketchfab.com/3d-models/landmine-girl-0cb14e0dfc2d4c50abb695a40c96ee57",
      "title": "地雷系女子 - Landmine girl"
    },
    "generator": "Sketchfab-14.33.0",
    "version": "2.0"
  },
  "bufferViews": [
    {
      "buffer": 0,
      "byteLength": 35928,
      "name": "floatBufferViews",
      "target": 34963
    },
    {
      "buffer": 0,
      "byteLength": 18280,
      "byteOffset": 35928,
      "byteStride": 8,
      "name": "floatBufferViews",
      "target": 34962
    },
    {
      "buffer": 0,
      "byteLength": 52872,
      "byteOffset": 54208,
      "byteStride": 12,
      "name": "floatBufferViews",
      "target": 34962
    }
  ],
  "buffers": [
    {
      "byteLength": 107080,
      "uri": "scene.bin"
    }
  ],
  "extensionsUsed": [
    "KHR_materials_unlit"
  ],
  "images": [
    {
      "uri": "textures/M_Jirai_baseColor.png"
    },
    {
      "uri": "textures/M_Jirai_alpha_baseColor.png"
    }
  ],
  "materials": [
    {
      "doubleSided": true,
      "extensions": {
        "KHR_materials_unlit": {}
      },
      "name": "M_Jirai",
      "pbrMetallicRoughness": {
        "baseColorTexture": {
          "index": 0
        },
        "metallicFactor": 0.0
      }
    },
    {
      "alphaCutoff": 0.42524216358748723,
      "alphaMode": "MASK",
      "doubleSided": true,
      "extensions": {
        "KHR_materials_unlit": {}
      },
      "name": "M_Jirai_alpha",
      "pbrMetallicRoughness": {
        "baseColorTexture": {
          "index": 1
        },
        "metallicFactor": 0.0
      }
    }
  ],
  "meshes": [
    {
      "name": "pCylinder4_M_Jirai_0",
      "primitives": [
        {
          "attributes": {
            "NORMAL": 1,
            "POSITION": 0,
            "TEXCOORD_0": 2
          },
          "indices": 3,
          "material": 0,
          "mode": 4
        }
      ]
    },
    {
      "name": "pCylinder4_M_Jirai_alpha_0",
      "primitives": [
        {
          "attributes": {
            "NORMAL": 5,
            "POSITION": 4,
            "TEXCOORD_0": 6,
            "TEXCOORD_1": 7
          },
          "indices": 8,
          "material": 1,
          "mode": 4
        }
      ]
    }
  ],
  "nodes": [
    {
      "children": [
        1
      ],
      "matrix": [
        1.0,
        0.0,
        0.0,
        0.0,
        0.0,
        2.220446049250313e-16,
        -1.0,
        0.0,
        0.0,
        1.0,
        2.220446049250313e-16,
        0.0,
        0.0,
        0.0,
        0.0,
        1.0
      ],
      "name": "Sketchfab_model"
    },
    {
      "children": [
        2
      ],
      "matrix": [
        0.009999999776482582,
        0.0,
        0.0,
        0.0,
        0.0,
        0.0,
        0.009999999776482582,
        0.0,
        0.0,
        -0.009999999776482582,
        0.0,
        0.0,
        0.0,
        0.0,
        0.0,
        1.0
      ],
      "name": "9d21e2ecf98f446c9ece684083d79048.fbx"
    },
    {
      "children": [
        3
      ],
      "name": "RootNode"
    },
    {
      "children": [
        4,
        5
      ],
      "name": "pCylinder4"
    },
    {
      "mesh": 0,
      "name": "pCylinder4_M_Jirai_0"
    },
    {
      "mesh": 1,
      "name": "pCylinder4_M_Jirai_alpha_0"
    }
  ],
  "samplers": [
    {
      "magFilter": 9729,
      "minFilter": 9987,
      "wrapS": 10497,
      "wrapT": 10497
    }
  ],
  "scene": 0,
  "scenes": [
    {
      "name": "Sketchfab_Scene",
      "nodes": [
        0
      ]
    }
  ],
  "textures": [
    {
      "sampler": 0,
      "source": 0
    },
    {
      "sampler": 0,
      "source": 1
    }
  ]
}
