{
  "accessors": [
    {
      "bufferView": 2,
      "componentType": 5126,
      "count": 14881,
      "max": [
        1.142950177192688,
        1.3699113130569458,
        1.0242736339569092
      ],
      "min": [
        -1.142950177192688,
        -1.182256817817688,
        -0.5715410709381104
      ],
      "type": "VEC3"
    },
    {
      "bufferView": 2,
      "byteOffset": 178572,
      "componentType": 5126,
      "count": 14881,
      "max": [
        0.9999980926513672,
        0.9999738335609436,
        1.0
      ],
      "min": [
        -0.9999980926513672,
        -0.999973714351654,
        -1.0
      ],
      "type": "VEC3"
    },
    {
      "bufferView": 3,
      "componentType": 5126,
      "count": 14881,
      "max": [
        0.9997416138648987,
        0.9997286200523376,
        0.9999986290931702,
        1.0
      ],
      "min": [
        -0.9997416138648987,
        -0.9997283816337585,
        -0.9999951124191284,
        -1.0
      ],
      "type": "VEC4"
    },
    {
      "bufferView": 1,
      "componentType": 5126,
      "count": 14881,
      "max": [
        0.9909436106681824,
        0.9998441934585571
      ],
      "min": [
        0.0001556873321533203,
        0.0001556873321533203
      ],
      "type": "VEC2"
    },
    {
      "bufferView": 0,
      "componentType": 5125,
      "count": 74676,
      "type": "SCALAR"
    }
  ],
  "asset": {
    "extras": {
      "author": "Pratas (https://sketchfab.com/ernst52)",
      "license": "CC-BY-4.0 (http://creativecommons.org/licenses/by/4.0/)",
      "source": "https://sketchfab.com/3d-models/15th-century-italian-sallet-1d9ad0c80a6945f1bdac705d51fdad11",
      "title": "15th century Italian Sallet"
    },
    "generator": "Sketchfab-14.97.0",
    "version": "2.0"
  },
  "bufferViews": [
    {
      "buffer": 0,
      "byteLength": 298704,
      "name": "floatBufferViews",
      "target": 34963
    },
    {
      "buffer": 0,
      "byteLength": 119048,
      "byteOffset": 298704,
      "byteStride": 8,
      "name": "floatBufferViews",
      "target": 34962
    },
    {
      "buffer": 0,
      "byteLength": 357144,
      "byteOffset": 417752,
      "byteStride": 12,
      "name": "floatBufferViews",
      "target": 34962
    },
    {
      "buffer": 0,
      "byteLength": 238096,
      "byteOffset": 774896,
      "byteStride": 16,
      "name": "floatBufferViews",
      "target": 34962
    }
  ],
  "buffers": [
    {
      "byteLength": 1012992,
      "uri": "scene.bin"
    }
  ],
  "images": [
    {
      "uri": "textures/Scene_-_Root_baseColor.jpeg"
    },
    {
      "uri": "textures/Scene_-_Root_metallicRoughness.png"
    },
    {
      "uri": "textures/Scene_-_Root_normal.png"
    }
  ],
  "materials": [
    {
      "doubleSided": true,
      "name": "Scene_-_Root",
      "normalTexture": {
        "index": 2
      },
      "occlusionTexture": {
        "index": 1
      },
      "pbrMetallicRoughness": {
        "baseColorTexture": {
          "index": 0
        },
        "metallicRoughnessTexture": {
          "index": 1
        }
      }
    }
  ],
  "meshes": [
    {
      "name": "base__0",
      "primitives": [
        {
          "attributes": {
            "NORMAL": 1,
            "POSITION": 0,
            "TANGENT": 2,
            "TEXCOORD_0": 3
          },
          "indices": 4,
          "material": 0,
          "mode": 4
        }
      ]
    }
  ],
  "nodes": [
    {
      "children": [
        1
      ],
      "matrix": [
        1.0,
        0.0,
        0.0,
        0.0,
        0.0,
        2.220446049250313e-16,
        -1.0,
        0.0,
        0.0,
        1.0,
        2.220446049250313e-16,
        0.0,
        0.0,
        0.0,
        0.0,
        1.0
      ],
      "name": "Sketchfab_model"
    },
    {
      "children": [
        2
      ],
      "matrix": [
        0.009999999776482582,
        0.0,
        0.0,
        0.0,
        0.0,
        0.0,
        0.009999999776482582,
        0.0,
        0.0,
        -0.009999999776482582,
        0.0,
        0.0,
        0.0,
        0.0,
        0.0,
        1.0
      ],
      "name": "Sallet.fbx"
    },
    {
      "children": [
        3
      ],
      "name": "RootNode"
    },
    {
      "children": [
        4
      ],
      "matrix": [
        65.31444549560547,
        0.0,
        0.0,
        0.0,
        0.0,
        -1.3431111599594285e-05,
        -82.4395751953114,
        0.0,
        0.0,
        104.48127746581893,
        -1.702216070845789e-05,
        0.0,
        0.0,
        160.42849731445313,
        -4.747528553009033,
        1.0
      ],
      "name": "base"
    },
    {
      "mesh": 0,
      "name": "base__0"
    }
  ],
  "samplers": [
    {
      "magFilter": 9729,
      "minFilter": 9987,
      "wrapS": 10497,
      "wrapT": 10497
    }
  ],
  "scene": 0,
  "scenes": [
    {
      "name": "Sketchfab_Scene",
      "nodes": [
        0
      ]
    }
  ],
  "textures": [
    {
      "sampler": 0,
      "source": 0
    },
    {
      "sampler": 0,
      "source": 1
    },
    {
      "sampler": 0,
      "source": 2
    }
  ]
}
