{
  "accessors": [
    {
      "bufferView": 2,
      "componentType": 5126,
      "count": 688,
      "max": [
        15.449347496032715,
        7.006403923034668,
        3.470640182495117
      ],
      "min": [
        -15.449347496032715,
        -10.173877716064453,
        -3.470640182495117
      ],
      "type": "VEC3"
    },
    {
      "bufferView": 2,
      "byteOffset": 8256,
      "componentType": 5126,
      "count": 688,
      "max": [
        1.0,
        1.0,
        0.9916620850563049
      ],
      "min": [
        -1.0,
        -1.0,
        -0.9916689395904541
      ],
      "type": "VEC3"
    },
    {
      "bufferView": 1,
      "componentType": 5126,
      "count": 688,
      "max": [
        0.6012142896652222,
        0.9943118095397949
      ],
      "min": [
        0.16793863475322723,
        0.003717435523867607
      ],
      "type": "VEC2"
    },
    {
      "bufferView": 0,
      "componentType": 5125,
      "count": 1872,
      "type": "SCALAR"
    },
    {
      "bufferView": 2,
      "byteOffset": 16512,
      "componentType": 5126,
      "count": 822,
      "max": [
        22.98717498779297,
        78.55523681640625,
        1.8973455429077148
      ],
      "min": [
        -15.79056167602539,
        -98.15773010253906,
        -1.8972835540771484
      ],
      "type": "VEC3"
    },
    {
      "bufferView": 2,
      "byteOffset": 26376,
      "componentType": 5126,
      "count": 822,
      "max": [
        0.9999998807907104,
        0.9992666244506836,
        1.0
      ],
      "min": [
        -0.9999998807907104,
        -0.9992470145225525,
        -1.0
      ],
      "type": "VEC3"
    },
    {
      "bufferView": 1,
      "byteOffset": 5504,
      "componentType": 5126,
      "count": 822,
      "max": [
        0.9135337471961975,
        0.9977800250053406
      ],
      "min": [
        0.006316067185252905,
        0.006817243993282318
      ],
      "type": "VEC2"
    },
    {
      "bufferView": 0,
      "byteOffset": 7488,
      "componentType": 5125,
      "count": 2064,
      "type": "SCALAR"
    },
    {
      "bufferView": 2,
      "byteOffset": 36240,
      "componentType": 5126,
      "count": 290,
      "max": [
        3.11160945892334,
        3.033594846725464,
        6.813000202178955
      ],
      "min": [
        -3.11160945892334,
        -3.033594846725464,
        -0.8130000233650208
      ],
      "type": "VEC3"
    },
    {
      "bufferView": 2,
      "byteOffset": 39720,
      "componentType": 5126,
      "count": 290,
      "max": [
        1.0,
        0.9749280214309692,
        1.0
      ],
      "min": [
        -1.0,
        -0.9749279022216797,
        -1.0
      ],
      "type": "VEC3"
    },
    {
      "bufferView": 1,
      "byteOffset": 12080,
      "componentType": 5126,
      "count": 290,
      "max": [
        0.9981768727302551,
        0.9987162947654724
      ],
      "min": [
        0.362852543592453,
        0.002862426917999983
      ],
      "type": "VEC2"
    },
    {
      "bufferView": 0,
      "byteOffset": 15744,
      "componentType": 5125,
      "count": 828,
      "type": "SCALAR"
    },
    {
      "bufferView": 2,
      "byteOffset": 43200,
      "componentType": 5126,
      "count": 296,
      "max": [
        20.23004913330078,
        41.178321838378906,
        6.283476829528809
      ],
      "min": [
        -10.055889129638672,
        -27.866363525390625,
        -0.28348493576049805
      ],
      "type": "VEC3"
    },
    {
      "bufferView": 2,
      "byteOffset": 46752,
      "componentType": 5126,
      "count": 296,
      "max": [
        0.9951433539390564,
        0.9851831197738647,
        0.975077211856842
      ],
      "min": [
        -0.9998525381088257,
        -0.9954223036766052,
        -0.975077211856842
      ],
      "type": "VEC3"
    },
    {
      "bufferView": 1,
      "byteOffset": 14400,
      "componentType": 5126,
      "count": 296,
      "max": [
        0.9975915551185608,
        0.9984951019287109
      ],
      "min": [
        0.08117438107728958,
        0.008207470178604126
      ],
      "type": "VEC2"
    },
    {
      "bufferView": 0,
      "byteOffset": 19056,
      "componentType": 5125,
      "count": 792,
      "type": "SCALAR"
    },
    {
      "bufferView": 2,
      "byteOffset": 50304,
      "componentType": 5126,
      "count": 296,
      "max": [
        20.23004913330078,
        41.178321838378906,
        6.283476829528809
      ],
      "min": [
        -10.055889129638672,
        -27.866363525390625,
        -0.28348493576049805
      ],
      "type": "VEC3"
    },
    {
      "bufferView": 2,
      "byteOffset": 53856,
      "componentType": 5126,
      "count": 296,
      "max": [
        0.9951433539390564,
        0.9851831197738647,
        0.975077211856842
      ],
      "min": [
        -0.9998525381088257,
        -0.9954223036766052,
        -0.975077211856842
      ],
      "type": "VEC3"
    },
    {
      "bufferView": 1,
      "byteOffset": 16768,
      "componentType": 5126,
      "count": 296,
      "max": [
        0.9975915551185608,
        0.9984951019287109
      ],
      "min": [
        0.08117438107728958,
        0.008207470178604126
      ],
      "type": "VEC2"
    },
    {
      "bufferView": 0,
      "byteOffset": 22224,
      "componentType": 5125,
      "count": 792,
      "type": "SCALAR"
    },
    {
      "bufferView": 2,
      "byteOffset": 57408,
      "componentType": 5126,
      "count": 60,
      "max": [
        2.944814682006836,
        9.585201263427734,
        0.7623921632766724
      ],
      "min": [
        -4.039407730102539,
        -13.072975158691406,
        -0.7681385278701782
      ],
      "type": "VEC3"
    },
    {
      "bufferView": 2,
      "byteOffset": 58128,
      "componentType": 5126,
      "count": 60,
      "max": [
        0.9677308797836304,
        0.2598131000995636,
        0.9871912002563477
      ],
      "min": [
        -0.9714621305465698,
        -0.26546597480773926,
        -0.9897879362106323
      ],
      "type": "VEC3"
    },
    {
      "bufferView": 1,
      "byteOffset": 19136,
      "componentType": 5126,
      "count": 60,
      "max": [
        0.5962402820587158,
        0.7585431337356567
      ],
      "min": [
        0.5586607456207275,
        0.4887426495552063
      ],
      "type": "VEC2"
    },
    {
      "bufferView": 0,
      "byteOffset": 25392,
      "componentType": 5125,
      "count": 150,
      "type": "SCALAR"
    },
    {
      "bufferView": 2,
      "byteOffset": 58848,
      "componentType": 5126,
      "count": 60,
      "max": [
        2.944814682006836,
        9.585201263427734,
        0.7623921632766724
      ],
      "min": [
        -4.039407730102539,
        -13.072975158691406,
        -0.7681385278701782
      ],
      "type": "VEC3"
    },
    {
      "bufferView": 2,
      "byteOffset": 59568,
      "componentType": 5126,
      "count": 60,
      "max": [
        0.9677308797836304,
        0.2598131000995636,
        0.9871912002563477
      ],
      "min": [
        -0.9714621305465698,
        -0.26546597480773926,
        -0.9897879362106323
      ],
      "type": "VEC3"
    },
    {
      "bufferView": 1,
      "byteOffset": 19616,
      "componentType": 5126,
      "count": 60,
      "max": [
        0.5962402820587158,
        0.7585431337356567
      ],
      "min": [
        0.5586607456207275,
        0.4887426495552063
      ],
      "type": "VEC2"
    },
    {
      "bufferView": 0,
      "byteOffset": 25992,
      "componentType": 5125,
      "count": 150,
      "type": "SCALAR"
    },
    {
      "bufferView": 2,
      "byteOffset": 60288,
      "componentType": 5126,
      "count": 93,
      "max": [
        0.9563019275665283,
        0.9023863673210144,
        1.3622297048568726
      ],
      "min": [
        -0.8471182584762573,
        -0.9584038853645325,
        -0.8568452596664429
      ],
      "type": "VEC3"
    },
    {
      "bufferView": 2,
      "byteOffset": 61404,
      "componentType": 5126,
      "count": 93,
      "max": [
        0.9998487830162048,
        0.9751948118209839,
        0.9975701570510864
      ],
      "min": [
        -0.9092988967895508,
        -0.9765688180923462,
        -0.9986522793769836
      ],
      "type": "VEC3"
    },
    {
      "bufferView": 1,
      "byteOffset": 20096,
      "componentType": 5126,
      "count": 93,
      "max": [
        0.4770384430885315,
        0.9968245029449463
      ],
      "min": [
        0.2507239282131195,
        0.897740364074707
      ],
      "type": "VEC2"
    },
    {
      "bufferView": 0,
      "byteOffset": 26592,
      "componentType": 5125,
      "count": 183,
      "type": "SCALAR"
    },
    {
      "bufferView": 2,
      "byteOffset": 62520,
      "componentType": 5126,
      "count": 1584,
      "max": [
        4.501331329345703,
        4.431102752685547,
        39.8195915222168
      ],
      "min": [
        -4.156704425811768,
        -4.4892578125,
        -1.6706275939941406
      ],
      "type": "VEC3"
    },
    {
      "bufferView": 2,
      "byteOffset": 81528,
      "componentType": 5126,
      "count": 1584,
      "max": [
        0.9999438524246216,
        0.995236337184906,
        0.9942977428436279
      ],
      "min": [
        -0.9999438524246216,
        -0.9996076822280884,
        -0.9944495558738708
      ],
      "type": "VEC3"
    },
    {
      "bufferView": 1,
      "byteOffset": 20840,
      "componentType": 5126,
      "count": 1584,
      "max": [
        0.1953476518392563,
        0.4731840193271637
      ],
      "min": [
        0.15330922603607178,
        0.27075815200805664
      ],
      "type": "VEC2"
    },
    {
      "bufferView": 0,
      "byteOffset": 27324,
      "componentType": 5125,
      "count": 4320,
      "type": "SCALAR"
    },
    {
      "bufferView": 2,
      "byteOffset": 100536,
      "componentType": 5126,
      "count": 93,
      "max": [
        0.9563019275665283,
        0.9023863673210144,
        1.3622297048568726
      ],
      "min": [
        -0.8471182584762573,
        -0.9584038853645325,
        -0.8568452596664429
      ],
      "type": "VEC3"
    },
    {
      "bufferView": 2,
      "byteOffset": 101652,
      "componentType": 5126,
      "count": 93,
      "max": [
        0.9998487830162048,
        0.9751948118209839,
        0.9975701570510864
      ],
      "min": [
        -0.9092988967895508,
        -0.9765688180923462,
        -0.9986522793769836
      ],
      "type": "VEC3"
    },
    {
      "bufferView": 1,
      "byteOffset": 33512,
      "componentType": 5126,
      "count": 93,
      "max": [
        0.4770384430885315,
        0.9968245029449463
      ],
      "min": [
        0.2507239282131195,
        0.897740364074707
      ],
      "type": "VEC2"
    },
    {
      "bufferView": 0,
      "byteOffset": 44604,
      "componentType": 5125,
      "count": 183,
      "type": "SCALAR"
    },
    {
      "bufferView": 2,
      "byteOffset": 102768,
      "componentType": 5126,
      "count": 60,
      "max": [
        7.700222969055176,
        0.18105003237724304,
        2.9074721336364746
      ],
      "min": [
        -6.639415740966797,
        -0.3037859797477722,
        -1.5790410041809082
      ],
      "type": "VEC3"
    },
    {
      "bufferView": 2,
      "byteOffset": 103488,
      "componentType": 5126,
      "count": 60,
      "max": [
        0.7744001150131226,
        0.8871577978134155,
        0.8473132848739624
      ],
      "min": [
        -0.7263783812522888,
        -0.9995563626289368,
        -0.9874287247657776
      ],
      "type": "VEC3"
    },
    {
      "bufferView": 1,
      "byteOffset": 34256,
      "componentType": 5126,
      "count": 60,
      "max": [
        0.5465485453605652,
        0.8662722706794739
      ],
      "min": [
        0.5292752981185913,
        0.6738190054893494
      ],
      "type": "VEC2"
    },
    {
      "bufferView": 0,
      "byteOffset": 45336,
      "componentType": 5125,
      "count": 252,
      "type": "SCALAR"
    },
    {
      "bufferView": 2,
      "byteOffset": 104208,
      "componentType": 5126,
      "count": 60,
      "max": [
        7.700222969055176,
        0.18114890158176422,
        1.506572961807251
      ],
      "min": [
        -6.639416217803955,
        -0.3037821054458618,
        -1.0363882780075073
      ],
      "type": "VEC3"
    },
    {
      "bufferView": 2,
      "byteOffset": 104928,
      "componentType": 5126,
      "count": 60,
      "max": [
        0.5057322382926941,
        0.8865354657173157,
        0.9770575761795044
      ],
      "min": [
        -0.48816484212875366,
        -0.9971135258674622,
        -0.9157329201698303
      ],
      "type": "VEC3"
    },
    {
      "bufferView": 1,
      "byteOffset": 34736,
      "componentType": 5126,
      "count": 60,
      "max": [
        0.5466171503067017,
        0.8655033111572266
      ],
      "min": [
        0.5287129282951355,
        0.6730915904045105
      ],
      "type": "VEC2"
    },
    {
      "bufferView": 0,
      "byteOffset": 46344,
      "componentType": 5125,
      "count": 252,
      "type": "SCALAR"
    },
    {
      "bufferView": 3,
      "componentType": 5126,
      "count": 23,
      "max": [
        33.33333206176758
      ],
      "min": [
        0.0
      ],
      "type": "SCALAR"
    },
    {
      "bufferView": 4,
      "componentType": 5126,
      "count": 23,
      "max": [
        1.6423661708831787,
        -2.1506903171539307,
        1.1405138969421387
      ],
      "min": [
        1.6419912576675415,
        -2.151637554168701,
        -0.03701208531856537
      ],
      "type": "VEC3"
    },
    {
      "bufferView": 3,
      "byteOffset": 92,
      "componentType": 5126,
      "count": 789,
      "max": [
        33.33333206176758
      ],
      "min": [
        0.0
      ],
      "type": "SCALAR"
    },
    {
      "bufferView": 5,
      "componentType": 5126,
      "count": 789,
      "max": [
        0.9999998807907104,
        0.7071065902709961,
        0.949262797832489,
        0.7071065306663513
      ],
      "min": [
        -0.000432471715612337,
        -6.740212484146468e-06,
        -0.8511335253715515,
        -0.3826475143432617
      ],
      "type": "VEC4"
    },
    {
      "bufferView": 3,
      "byteOffset": 3248,
      "componentType": 5126,
      "count": 23,
      "max": [
        33.33333206176758
      ],
      "min": [
        0.0
      ],
      "type": "SCALAR"
    },
    {
      "bufferView": 4,
      "byteOffset": 276,
      "componentType": 5126,
      "count": 23,
      "max": [
        -1.6033926010131836,
        -2.1506669521331787,
        -0.011741399765014648
      ],
      "min": [
        -1.603751540184021,
        -2.1515979766845703,
        -1.1690292358398438
      ],
      "type": "VEC3"
    },
    {
      "bufferView": 3,
      "byteOffset": 3340,
      "componentType": 5126,
      "count": 789,
      "max": [
        33.33333206176758
      ],
      "min": [
        0.0
      ],
      "type": "SCALAR"
    },
    {
      "bufferView": 5,
      "byteOffset": 12624,
      "componentType": 5126,
      "count": 789,
      "max": [
        0.7071070075035095,
        0.9511018395423889,
        -2.3410926530686993e-07,
        0.9999998807907104
      ],
      "min": [
        -0.00017204352479893714,
        -0.00043240629020147026,
        -0.70710688829422,
        0.00017199033754877746
      ],
      "type": "VEC4"
    },
    {
      "bufferView": 3,
      "byteOffset": 6496,
      "componentType": 5126,
      "count": 1,
      "max": [
        0.0
      ],
      "min": [
        0.0
      ],
      "type": "SCALAR"
    },
    {
      "bufferView": 4,
      "byteOffset": 552,
      "componentType": 5126,
      "count": 1,
      "max": [
        -0.3839530944824219,
        20.985069274902344,
        -0.0034208297729492188
      ],
      "min": [
        -0.3839530944824219,
        20.985069274902344,
        -0.0034208297729492188
      ],
      "type": "VEC3"
    },
    {
      "bufferView": 3,
      "byteOffset": 6500,
      "componentType": 5126,
      "count": 37,
      "max": [
        33.33333206176758
      ],
      "min": [
        0.0
      ],
      "type": "SCALAR"
    },
    {
      "bufferView": 4,
      "byteOffset": 564,
      "componentType": 5126,
      "count": 37,
      "max": [
        -0.794791579246521,
        -0.6782363057136536,
        -0.7947912216186523
      ],
      "min": [
        -0.794791579246521,
        -1.1956655979156494,
        -0.7947912812232971
      ],
      "type": "VEC3"
    },
    {
      "bufferView": 3,
      "byteOffset": 6648,
      "componentType": 5126,
      "count": 778,
      "max": [
        33.33333206176758
      ],
      "min": [
        0.0
      ],
      "type": "SCALAR"
    },
    {
      "bufferView": 5,
      "byteOffset": 25248,
      "componentType": 5126,
      "count": 778,
      "max": [
        0.9938475489616394,
        0.13867905735969543,
        0.00042302277870476246,
        -8.961466664914042e-05
      ],
      "min": [
        0.9903373122215271,
        0.1107558012008667,
        0.00042033346835523844,
        -0.00010148313594982028
      ],
      "type": "VEC4"
    },
    {
      "bufferView": 3,
      "byteOffset": 9760,
      "componentType": 5126,
      "count": 1,
      "max": [
        0.0
      ],
      "min": [
        0.0
      ],
      "type": "SCALAR"
    },
    {
      "bufferView": 4,
      "byteOffset": 1008,
      "componentType": 5126,
      "count": 1,
      "max": [
        0.1512831449508667,
        20.985092163085938,
        -0.0029926300048828125
      ],
      "min": [
        0.1512831449508667,
        20.985092163085938,
        -0.0029926300048828125
      ],
      "type": "VEC3"
    },
    {
      "bufferView": 3,
      "byteOffset": 9764,
      "componentType": 5126,
      "count": 37,
      "max": [
        33.33333206176758
      ],
      "min": [
        0.0
      ],
      "type": "SCALAR"
    },
    {
      "bufferView": 4,
      "byteOffset": 1020,
      "componentType": 5126,
      "count": 37,
      "max": [
        0.7947942018508911,
        1.2184813022613525,
        0.7947912216186523
      ],
      "min": [
        0.7947915196418762,
        0.7137859463691711,
        0.7947887182235718
      ],
      "type": "VEC3"
    },
    {
      "bufferView": 3,
      "byteOffset": 9912,
      "componentType": 5126,
      "count": 789,
      "max": [
        33.33333206176758
      ],
      "min": [
        0.0
      ],
      "type": "SCALAR"
    },
    {
      "bufferView": 5,
      "byteOffset": 37696,
      "componentType": 5126,
      "count": 789,
      "max": [
        0.0009064514888450503,
        0.003639556933194399,
        -0.1053120568394661,
        0.9944387078285217
      ],
      "min": [
        -0.028463786467909813,
        -0.00047121651004999876,
        -0.13867948949337006,
        0.9899281859397888
      ],
      "type": "VEC4"
    },
    {
      "bufferView": 3,
      "byteOffset": 13068,
      "componentType": 5126,
      "count": 773,
      "max": [
        33.33333206176758
      ],
      "min": [
        0.0
      ],
      "type": "SCALAR"
    },
    {
      "bufferView": 5,
      "byteOffset": 50320,
      "componentType": 5126,
      "count": 773,
      "max": [
        -0.0001587867591297254,
        0.0004022677312605083,
        6.38747934544881e-08,
        0.9999998807907104
      ],
      "min": [
        -0.0001587867591297254,
        0.0004022677312605083,
        6.38747934544881e-08,
        0.9999998807907104
      ],
      "type": "VEC4"
    },
    {
      "bufferView": 3,
      "byteOffset": 16160,
      "componentType": 5126,
      "count": 716,
      "max": [
        33.33333206176758
      ],
      "min": [
        0.0
      ],
      "type": "SCALAR"
    },
    {
      "bufferView": 4,
      "byteOffset": 1464,
      "componentType": 5126,
      "count": 716,
      "max": [
        5.959358215332031,
        -5.44551944732666,
        123.08589172363281
      ],
      "min": [
        -5.7745747566223145,
        -9.560040473937988,
        -48.198707580566406
      ],
      "type": "VEC3"
    },
    {
      "bufferView": 3,
      "byteOffset": 19024,
      "componentType": 5126,
      "count": 773,
      "max": [
        33.33333206176758
      ],
      "min": [
        0.0
      ],
      "type": "SCALAR"
    },
    {
      "bufferView": 5,
      "byteOffset": 62688,
      "componentType": 5126,
      "count": 773,
      "max": [
        0.7071071863174438,
        0.7071071863174438,
        0.707106351852417,
        0.707106351852417
      ],
      "min": [
        -0.4999994933605194,
        -0.5000002980232239,
        -0.4999997019767761,
        -0.49999889731407166
      ],
      "type": "VEC4"
    },
    {
      "bufferView": 3,
      "byteOffset": 22116,
      "componentType": 5126,
      "count": 235,
      "max": [
        33.33333206176758
      ],
      "min": [
        0.0
      ],
      "type": "SCALAR"
    },
    {
      "bufferView": 4,
      "byteOffset": 10056,
      "componentType": 5126,
      "count": 235,
      "max": [
        -0.6838798522949219,
        -6.628623962402344,
        -0.1113128811120987
      ],
      "min": [
        -0.6838912963867188,
        -6.628631591796875,
        -0.1113739013671875
      ],
      "type": "VEC3"
    },
    {
      "bufferView": 3,
      "byteOffset": 23056,
      "componentType": 5126,
      "count": 228,
      "max": [
        33.33333206176758
      ],
      "min": [
        0.0
      ],
      "type": "SCALAR"
    },
    {
      "bufferView": 5,
      "byteOffset": 75056,
      "componentType": 5126,
      "count": 228,
      "max": [
        0.7071068286895752,
        2.1887471390868996e-08,
        1.5910282868958348e-08,
        0.7071067690849304
      ],
      "min": [
        0.7071067690849304,
        -9.053025936271898e-17,
        -2.1887474943582674e-08,
        0.7071067094802856
      ],
      "type": "VEC4"
    },
    {
      "bufferView": 3,
      "byteOffset": 23968,
      "componentType": 5126,
      "count": 235,
      "max": [
        33.33333206176758
      ],
      "min": [
        0.0
      ],
      "type": "SCALAR"
    },
    {
      "bufferView": 4,
      "byteOffset": 12876,
      "componentType": 5126,
      "count": 235,
      "max": [
        -0.6838798522949219,
        -6.628623962402344,
        -0.1113128811120987
      ],
      "min": [
        -0.6838912963867188,
        -6.628631591796875,
        -0.1113739013671875
      ],
      "type": "VEC3"
    },
    {
      "bufferView": 3,
      "byteOffset": 24908,
      "componentType": 5126,
      "count": 228,
      "max": [
        33.33333206176758
      ],
      "min": [
        0.0
      ],
      "type": "SCALAR"
    },
    {
      "bufferView": 5,
      "byteOffset": 78704,
      "componentType": 5126,
      "count": 228,
      "max": [
        0.7071068286895752,
        2.1887471390868996e-08,
        1.5910282868958348e-08,
        0.7071067690849304
      ],
      "min": [
        0.7071067690849304,
        -9.053025936271898e-17,
        -2.1887474943582674e-08,
        0.7071067094802856
      ],
      "type": "VEC4"
    },
    {
      "bufferView": 3,
      "byteOffset": 25820,
      "componentType": 5126,
      "count": 62,
      "max": [
        33.33333206176758
      ],
      "min": [
        0.0
      ],
      "type": "SCALAR"
    },
    {
      "bufferView": 4,
      "byteOffset": 15696,
      "componentType": 5126,
      "count": 62,
      "max": [
        0.0,
        46.78245544433594,
        51.14617156982422
      ],
      "min": [
        -13.915992736816406,
        37.764015197753906,
        0.0
      ],
      "type": "VEC3"
    },
    {
      "bufferView": 3,
      "byteOffset": 26068,
      "componentType": 5126,
      "count": 228,
      "max": [
        33.33333206176758
      ],
      "min": [
        0.0
      ],
      "type": "SCALAR"
    },
    {
      "bufferView": 5,
      "byteOffset": 82352,
      "componentType": 5126,
      "count": 228,
      "max": [
        1.0,
        0.9906277060508728,
        0.7071067690849304,
        0.7071067690849304
      ],
      "min": [
        -0.698478639125824,
        -0.7071067690849304,
        -0.565430760383606,
        -0.49688228964805603
      ],
      "type": "VEC4"
    }
  ],
  "animations": [
    {
      "channels": [
        {
          "sampler": 0,
          "target": {
            "node": 12,
            "path": "translation"
          }
        },
        {
          "sampler": 1,
          "target": {
            "node": 12,
            "path": "rotation"
          }
        },
        {
          "sampler": 2,
          "target": {
            "node": 15,
            "path": "translation"
          }
        },
        {
          "sampler": 3,
          "target": {
            "node": 15,
            "path": "rotation"
          }
        },
        {
          "sampler": 4,
          "target": {
            "node": 18,
            "path": "translation"
          }
        },
        {
          "sampler": 5,
          "target": {
            "node": 18,
            "path": "scale"
          }
        },
        {
          "sampler": 6,
          "target": {
            "node": 18,
            "path": "rotation"
          }
        },
        {
          "sampler": 7,
          "target": {
            "node": 21,
            "path": "translation"
          }
        },
        {
          "sampler": 8,
          "target": {
            "node": 21,
            "path": "scale"
          }
        },
        {
          "sampler": 9,
          "target": {
            "node": 21,
            "path": "rotation"
          }
        },
        {
          "sampler": 10,
          "target": {
            "node": 9,
            "path": "rotation"
          }
        },
        {
          "sampler": 11,
          "target": {
            "node": 7,
            "path": "translation"
          }
        },
        {
          "sampler": 12,
          "target": {
            "node": 7,
            "path": "rotation"
          }
        },
        {
          "sampler": 13,
          "target": {
            "node": 30,
            "path": "translation"
          }
        },
        {
          "sampler": 14,
          "target": {
            "node": 30,
            "path": "rotation"
          }
        },
        {
          "sampler": 15,
          "target": {
            "node": 32,
            "path": "translation"
          }
        },
        {
          "sampler": 16,
          "target": {
            "node": 32,
            "path": "rotation"
          }
        },
        {
          "sampler": 17,
          "target": {
            "node": 4,
            "path": "translation"
          }
        },
        {
          "sampler": 18,
          "target": {
            "node": 4,
            "path": "rotation"
          }
        }
      ],
      "name": "Take 001",
      "samplers": [
        {
          "input": 48,
          "interpolation": "LINEAR",
          "output": 49
        },
        {
          "input": 50,
          "interpolation": "LINEAR",
          "output": 51
        },
        {
          "input": 52,
          "interpolation": "LINEAR",
          "output": 53
        },
        {
          "input": 54,
          "interpolation": "LINEAR",
          "output": 55
        },
        {
          "input": 56,
          "interpolation": "LINEAR",
          "output": 57
        },
        {
          "input": 58,
          "interpolation": "LINEAR",
          "output": 59
        },
        {
          "input": 60,
          "interpolation": "LINEAR",
          "output": 61
        },
        {
          "input": 62,
          "interpolation": "LINEAR",
          "output": 63
        },
        {
          "input": 64,
          "interpolation": "LINEAR",
          "output": 65
        },
        {
          "input": 66,
          "interpolation": "LINEAR",
          "output": 67
        },
        {
          "input": 68,
          "interpolation": "LINEAR",
          "output": 69
        },
        {
          "input": 70,
          "interpolation": "LINEAR",
          "output": 71
        },
        {
          "input": 72,
          "interpolation": "LINEAR",
          "output": 73
        },
        {
          "input": 74,
          "interpolation": "LINEAR",
          "output": 75
        },
        {
          "input": 76,
          "interpolation": "LINEAR",
          "output": 77
        },
        {
          "input": 78,
          "interpolation": "LINEAR",
          "output": 79
        },
        {
          "input": 80,
          "interpolation": "LINEAR",
          "output": 81
        },
        {
          "input": 82,
          "interpolation": "LINEAR",
          "output": 83
        },
        {
          "input": 84,
          "interpolation": "LINEAR",
          "output": 85
        }
      ]
    }
  ],
  "asset": {
    "extras": {
      "author": "Robin Vandenberghe (https://sketchfab.com/RobinVandenberghe)",
      "license": "CC-BY-4.0 (http://creativecommons.org/licenses/by/4.0/)",
      "source": "https://sketchfab.com/3d-models/xolotl-weapon-concept-b6c122ff7a2642b294af3e2c5267b49f",
      "title": "Xolotl ~ Weapon Concept"
    },
    "generator": "Sketchfab-12.63.0",
    "version": "2.0"
  },
  "bufferViews": [
    {
      "buffer": 0,
      "byteLength": 47352,
      "name": "floatBufferViews",
      "target": 34963
    },
    {
      "buffer": 0,
      "byteLength": 35216,
      "byteOffset": 47352,
      "byteStride": 8,
      "name": "floatBufferViews",
      "target": 34962
    },
    {
      "buffer": 0,
      "byteLength": 105648,
      "byteOffset": 82568,
      "byteStride": 12,
      "name": "floatBufferViews",
      "target": 34962
    },
    {
      "buffer": 0,
      "byteLength": 26980,
      "byteOffset": 188216,
      "name": "floatBufferViews"
    },
    {
      "buffer": 0,
      "byteLength": 16440,
      "byteOffset": 215196,
      "byteStride": 12,
      "name": "floatBufferViews"
    },
    {
      "buffer": 0,
      "byteLength": 86000,
      "byteOffset": 231636,
      "byteStride": 16,
      "name": "floatBufferViews"
    }
  ],
  "buffers": [
    {
      "byteLength": 317636,
      "uri": "scene.bin"
    }
  ],
  "images": [
    {
      "uri": "textures/Material_26_baseColor.png"
    }
  ],
  "materials": [
    {
      "doubleSided": true,
      "name": "Material_26",
      "pbrMetallicRoughness": {
        "baseColorTexture": {
          "index": 0
        },
        "metallicFactor": 0.0,
        "roughnessFactor": 0.6
      }
    }
  ],
  "meshes": [
    {
      "name": "Handvat_Material #26_0",
      "primitives": [
        {
          "attributes": {
            "NORMAL": 1,
            "POSITION": 0,
            "TEXCOORD_0": 2
          },
          "indices": 3,
          "material": 0,
          "mode": 4
        }
      ]
    },
    {
      "name": "Weapon_Material #26_0",
      "primitives": [
        {
          "attributes": {
            "NORMAL": 5,
            "POSITION": 4,
            "TEXCOORD_0": 6
          },
          "indices": 7,
          "material": 0,
          "mode": 4
        }
      ]
    },
    {
      "name": "Rotator_Material #26_0",
      "primitives": [
        {
          "attributes": {
            "NORMAL": 9,
            "POSITION": 8,
            "TEXCOORD_0": 10
          },
          "indices": 11,
          "material": 0,
          "mode": 4
        }
      ]
    },
    {
      "name": "Blade2_Material #26_0",
      "primitives": [
        {
          "attributes": {
            "NORMAL": 13,
            "POSITION": 12,
            "TEXCOORD_0": 14
          },
          "indices": 15,
          "material": 0,
          "mode": 4
        }
      ]
    },
    {
      "name": "Blade 1_Material #26_0",
      "primitives": [
        {
          "attributes": {
            "NORMAL": 17,
            "POSITION": 16,
            "TEXCOORD_0": 18
          },
          "indices": 19,
          "material": 0,
          "mode": 4
        }
      ]
    },
    {
      "name": "String 2_Material #26_0",
      "primitives": [
        {
          "attributes": {
            "NORMAL": 21,
            "POSITION": 20,
            "TEXCOORD_0": 22
          },
          "indices": 23,
          "material": 0,
          "mode": 4
        }
      ]
    },
    {
      "name": "String1_Material #26_0",
      "primitives": [
        {
          "attributes": {
            "NORMAL": 25,
            "POSITION": 24,
            "TEXCOORD_0": 26
          },
          "indices": 27,
          "material": 0,
          "mode": 4
        }
      ]
    },
    {
      "name": "Cylinder002_Material #26_0",
      "primitives": [
        {
          "attributes": {
            "NORMAL": 29,
            "POSITION": 28,
            "TEXCOORD_0": 30
          },
          "indices": 31,
          "material": 0,
          "mode": 4
        }
      ]
    },
    {
      "name": "Torus001_Material #26_0",
      "primitives": [
        {
          "attributes": {
            "NORMAL": 33,
            "POSITION": 32,
            "TEXCOORD_0": 34
          },
          "indices": 35,
          "material": 0,
          "mode": 4
        }
      ]
    },
    {
      "name": "Cylinder001_Material #26_0",
      "primitives": [
        {
          "attributes": {
            "NORMAL": 37,
            "POSITION": 36,
            "TEXCOORD_0": 38
          },
          "indices": 39,
          "material": 0,
          "mode": 4
        }
      ]
    },
    {
      "name": "Line012_Material #26_0",
      "primitives": [
        {
          "attributes": {
            "NORMAL": 41,
            "POSITION": 40,
            "TEXCOORD_0": 42
          },
          "indices": 43,
          "material": 0,
          "mode": 4
        }
      ]
    },
    {
      "name": "Line013_Material #26_0",
      "primitives": [
        {
          "attributes": {
            "NORMAL": 45,
            "POSITION": 44,
            "TEXCOORD_0": 46
          },
          "indices": 47,
          "material": 0,
          "mode": 4
        }
      ]
    }
  ],
  "nodes": [
    {
      "children": [
        1
      ],
      "matrix": [
        1.0,
        0.0,
        0.0,
        0.0,
        0.0,
        2.220446049250313e-16,
        -1.0,
        0.0,
        0.0,
        1.0,
        2.220446049250313e-16,
        0.0,
        0.0,
        0.0,
        0.0,
        1.0
      ],
      "name": "Sketchfab_model"
    },
    {
      "children": [
        2
      ],
      "matrix": [
        1.0,
        0.0,
        0.0,
        0.0,
        0.0,
        0.0,
        1.0,
        0.0,
        0.0,
        -1.0,
        0.0,
        0.0,
        0.0,
        0.0,
        0.0,
        1.0
      ],
      "name": "7769ab5787d349cd88ddb49f588b9d00.fbx"
    },
    {
      "children": [
        3
      ],
      "name": "Object_2"
    },
    {
      "children": [
        4
      ],
      "name": "RootNode"
    },
    {
      "children": [
        5,
        7,
        30,
        32
      ],
      "name": "Handvat",
      "rotation": [
        1.0,
        -4.371138828673793e-08,
        4.371138828673793e-08,
        5.962438098805478e-09
      ],
      "scale": [
        0.7307299971580505,
        0.7307299971580505,
        0.29023000597953796
      ],
      "translation": [
        0.0,
        46.78245544433594,
        0.0
      ]
    },
    {
      "children": [
        6
      ],
      "matrix": [
        1.0,
        0.0,
        -0.0,
        0.0,
        0.0,
        1.0,
        0.0,
        0.0,
        0.0,
        0.0,
        1.0,
        0.0,
        0.0,
        -6.587226867675781,
        0.0,
        1.0
      ],
      "name": "Object_5"
    },
    {
      "mesh": 0,
      "name": "Handvat_Material #26_0"
    },
    {
      "children": [
        8,
        9,
        24,
        26,
        28
      ],
      "name": "Weapon",
      "rotation": [
        0.7071074843406677,
        1.3899954964813332e-08,
        -2.3033695839558277e-08,
        0.7071061730384827
      ],
      "scale": [
        1.3684940338134766,
        3.445544958114624,
        1.3684940338134766
      ],
      "translation": [
        -0.6263008713722229,
        -8.208450317382813,
        123.08589935302734
      ]
    },
    {
      "mesh": 1,
      "name": "Weapon_Material #26_0"
    },
    {
      "children": [
        10,
        12,
        15,
        18,
        21
      ],
      "name": "Rotator",
      "rotation": [
        -0.00015890189388301224,
        0.0004022678767796606,
        6.396634688599079e-08,
        1.0
      ],
      "translation": [
        0.3951742351055145,
        -95.31814575195313,
        0.0098114013671875
      ]
    },
    {
      "children": [
        11
      ],
      "matrix": [
        1.0,
        0.0,
        -0.0,
        0.0,
        0.0,
        1.0,
        0.0,
        0.0,
        0.0,
        0.0,
        1.0,
        0.0,
        5.960464477539063e-07,
        -1.6391277313232422e-06,
        -2.999999761581421,
        1.0
      ],
      "name": "Object_10"
    },
    {
      "mesh": 2,
      "name": "Rotator_Material #26_0"
    },
    {
      "children": [
        13
      ],
      "name": "Blade2",
      "rotation": [
        1.0,
        -1.7439116106743313e-07,
        0.0004022122302558273,
        -0.00015918804274406284
      ],
      "scale": [
        -1.0,
        -1.0,
        -1.0
      ],
      "translation": [
        1.641991376876831,
        -2.1507110595703125,
        -0.0091552734375
      ]
    },
    {
      "children": [
        14
      ],
      "matrix": [
        1.0,
        0.0,
        -0.0,
        0.0,
        0.0,
        1.0,
        0.0,
        0.0,
        0.0,
        0.0,
        1.0,
        0.0,
        -18.598247528076172,
        -36.73191833496094,
        -2.9999632835388184,
        1.0
      ],
      "name": "Object_13"
    },
    {
      "mesh": 3,
      "name": "Blade2_Material #26_0"
    },
    {
      "children": [
        16
      ],
      "name": "Blade 1",
      "rotation": [
        0.00015890596841927618,
        -0.0004022122302558273,
        -2.3410925109601521e-07,
        1.0
      ],
      "translation": [
        -1.6037516593933105,
        -2.150665283203125,
        -0.01174163818359375
      ]
    },
    {
      "children": [
        17
      ],
      "matrix": [
        0.9999999999999999,
        5.003680747848195e-18,
        -1.5674246149235318e-08,
        0.0,
        4.829461016166454e-18,
        1.0,
        6.273438397223567e-10,
        0.0,
        1.5674246149235318e-08,
        -6.273438397223567e-10,
        0.9999999999999999,
        0.0,
        -18.598234176635742,
        -36.73191833496094,
        -2.999981164932251,
        1.0
      ],
      "name": "Object_16"
    },
    {
      "mesh": 4,
      "name": "Blade 1_Material #26_0"
    },
    {
      "children": [
        19
      ],
      "name": "String 2",
      "rotation": [
        0.9903373718261719,
        0.13867907226085663,
        0.0004203344869893044,
        -0.0001016096503008157
      ],
      "scale": [
        -0.7947919964790344,
        -1.0,
        -0.7947909832000732
      ],
      "translation": [
        -0.38395312428474426,
        20.985065460205078,
        -0.00341796875
      ]
    },
    {
      "children": [
        20
      ],
      "matrix": [
        0.9615361714938155,
        0.2746783408079599,
        -4.475078468472817e-08,
        0.0,
        -0.2746783408079599,
        0.9615361714938166,
        6.266553189792115e-09,
        0.0,
        4.475078460985458e-08,
        6.266553724480329e-09,
        0.999999999999999,
        0.0,
        0.2133440226316452,
        -13.282614707946777,
        0.0028759038541465998,
        1.0
      ],
      "name": "Object_19"
    },
    {
      "mesh": 5,
      "name": "String 2_Material #26_0"
    },
    {
      "children": [
        22
      ],
      "name": "String1",
      "rotation": [
        0.00021321735403034836,
        -0.00037629276630468667,
        -0.13867896795272827,
        0.9903373122215271
      ],
      "scale": [
        0.7947919964790344,
        1.0,
        0.7947909832000732
      ],
      "translation": [
        0.1512831449508667,
        20.985092163085938,
        -0.002994537353515625
      ]
    },
    {
      "children": [
        23
      ],
      "matrix": [
        0.9615361714938155,
        0.2746783408079599,
        -4.475078468472817e-08,
        0.0,
        -0.2746783408079599,
        0.9615361714938166,
        6.266553189792115e-09,
        0.0,
        4.475078460985458e-08,
        6.266553724480329e-09,
        0.999999999999999,
        0.0,
        0.2133440226316452,
        -13.282614707946777,
        0.0028759038541465998,
        1.0
      ],
      "name": "Object_22"
    },
    {
      "mesh": 6,
      "name": "String1_Material #26_0"
    },
    {
      "children": [
        25
      ],
      "name": "Cylinder002",
      "rotation": [
        0.5070017576217651,
        0.5284475684165955,
        -0.4983651041984558,
        -0.46403083205223083
      ],
      "translation": [
        -1.3640893697738647,
        -22.154754638671875,
        0.43536376953125
      ]
    },
    {
      "mesh": 7,
      "name": "Cylinder002_Material #26_0"
    },
    {
      "children": [
        27
      ],
      "name": "Torus001",
      "rotation": [
        0.7071061730384827,
        4.6145846255285505e-08,
        3.0340654433302916e-08,
        0.7071074843406677
      ],
      "scale": [
        0.9999989867210388,
        1.0,
        1.0
      ],
      "translation": [
        0.4206215441226959,
        16.165077209472656,
        0.12627029418945313
      ]
    },
    {
      "mesh": 8,
      "name": "Torus001_Material #26_0"
    },
    {
      "children": [
        29
      ],
      "name": "Cylinder001",
      "rotation": [
        0.5219863057136536,
        0.5275678038597107,
        0.48592373728752136,
        0.46160656213760376
      ],
      "translation": [
        1.6286308765411377,
        16.16065216064453,
        0.21258926391601563
      ]
    },
    {
      "mesh": 9,
      "name": "Cylinder001_Material #26_0"
    },
    {
      "children": [
        31
      ],
      "name": "Line012",
      "rotation": [
        0.7071068286895752,
        2.7434048261598286e-15,
        4.5994075383156904e-15,
        0.7071067094802856
      ],
      "scale": [
        1.3684940338134766,
        3.4455440044403076,
        1.3684940338134766
      ],
      "translation": [
        -0.6838865876197815,
        -6.628631591796875,
        -0.11134332418441772
      ]
    },
    {
      "mesh": 10,
      "name": "Line012_Material #26_0"
    },
    {
      "children": [
        33
      ],
      "name": "Line013",
      "rotation": [
        0.7071068286895752,
        2.7434048261598286e-15,
        4.5994075383156904e-15,
        0.7071067094802856
      ],
      "scale": [
        1.3684940338134766,
        3.4455440044403076,
        1.3684940338134766
      ],
      "translation": [
        -0.6838865876197815,
        -6.628631591796875,
        -0.11134332418441772
      ]
    },
    {
      "mesh": 11,
      "name": "Line013_Material #26_0"
    }
  ],
  "samplers": [
    {
      "magFilter": 9729,
      "minFilter": 9987,
      "wrapS": 10497,
      "wrapT": 10497
    }
  ],
  "scene": 0,
  "scenes": [
    {
      "name": "Sketchfab_Scene",
      "nodes": [
        0
      ]
    }
  ],
  "textures": [
    {
      "sampler": 0,
      "source": 0
    }
  ]
}
