{
  "accessors": [
    {
      "bufferView": 2,
      "componentType": 5126,
      "count": 58,
      "max": [
        -0.3624019920825958,
        -12.04255199432373,
        2.8369479179382324
      ],
      "min": [
        -3.635185956954956,
        -12.619975090026855,
        1.0584909915924072
      ],
      "type": "VEC3"
    },
    {
      "bufferView": 2,
      "byteOffset": 696,
      "componentType": 5126,
      "count": 58,
      "max": [
        0.9045636653900146,
        1.0,
        0.9571617245674133
      ],
      "min": [
        -0.9045637845993042,
        -1.0,
        -0.9571617245674133
      ],
      "type": "VEC3"
    },
    {
      "bufferView": 1,
      "componentType": 5126,
      "count": 58,
      "max": [
        0.9997830390930176,
        0.9730968475341797
      ],
      "min": [
        4.8533082008361816e-05,
        6.616115570068359e-06
      ],
      "type": "VEC2"
    },
    {
      "bufferView": 1,
      "byteOffset": 464,
      "componentType": 5126,
      "count": 58,
      "max": [
        0.9997830390930176,
        0.9730968475341797
      ],
      "min": [
        4.8533082008361816e-05,
        6.616115570068359e-06
      ],
      "type": "VEC2"
    },
    {
      "bufferView": 1,
      "byteOffset": 928,
      "componentType": 5126,
      "count": 58,
      "max": [
        0.9997830390930176,
        0.9730968475341797
      ],
      "min": [
        4.8533082008361816e-05,
        6.616115570068359e-06
      ],
      "type": "VEC2"
    },
    {
      "bufferView": 0,
      "componentType": 5125,
      "count": 84,
      "type": "SCALAR"
    },
    {
      "bufferView": 2,
      "byteOffset": 1392,
      "componentType": 5126,
      "count": 58,
      "max": [
        -0.3608439862728119,
        -12.04255199432373,
        1.0266900062561035
      ],
      "min": [
        -3.633629083633423,
        -12.619975090026855,
        -0.7517669796943665
      ],
      "type": "VEC3"
    },
    {
      "bufferView": 2,
      "byteOffset": 2088,
      "componentType": 5126,
      "count": 58,
      "max": [
        0.9045637845993042,
        1.0,
        0.9571616649627686
      ],
      "min": [
        -0.9045636057853699,
        -1.0,
        -0.9571617245674133
      ],
      "type": "VEC3"
    },
    {
      "bufferView": 1,
      "byteOffset": 1392,
      "componentType": 5126,
      "count": 58,
      "max": [
        0.9998169541358948,
        0.9734925031661987
      ],
      "min": [
        0.00010165572166442871,
        0.0001761317253112793
      ],
      "type": "VEC2"
    },
    {
      "bufferView": 1,
      "byteOffset": 1856,
      "componentType": 5126,
      "count": 58,
      "max": [
        0.9998169541358948,
        0.9734925031661987
      ],
      "min": [
        0.00010165572166442871,
        0.0001761317253112793
      ],
      "type": "VEC2"
    },
    {
      "bufferView": 1,
      "byteOffset": 2320,
      "componentType": 5126,
      "count": 58,
      "max": [
        0.9998169541358948,
        0.9734925031661987
      ],
      "min": [
        0.00010165572166442871,
        0.0001761317253112793
      ],
      "type": "VEC2"
    },
    {
      "bufferView": 0,
      "byteOffset": 336,
      "componentType": 5125,
      "count": 84,
      "type": "SCALAR"
    },
    {
      "bufferView": 2,
      "byteOffset": 2784,
      "componentType": 5126,
      "count": 58,
      "max": [
        -0.36167800426483154,
        -11.45036792755127,
        1.9955569505691528
      ],
      "min": [
        -3.6344621181488037,
        -12.027791023254395,
        0.21709999442100525
      ],
      "type": "VEC3"
    },
    {
      "bufferView": 2,
      "byteOffset": 3480,
      "componentType": 5126,
      "count": 58,
      "max": [
        0.9045637249946594,
        1.0,
        0.9571617245674133
      ],
      "min": [
        -0.9045636653900146,
        -1.0,
        -0.9571616649627686
      ],
      "type": "VEC3"
    },
    {
      "bufferView": 1,
      "byteOffset": 2784,
      "componentType": 5126,
      "count": 58,
      "max": [
        0.9998477697372437,
        0.9761391282081604
      ],
      "min": [
        0.00015103816986083984,
        5.8710575103759766e-05
      ],
      "type": "VEC2"
    },
    {
      "bufferView": 1,
      "byteOffset": 3248,
      "componentType": 5126,
      "count": 58,
      "max": [
        0.9998477697372437,
        0.9761391282081604
      ],
      "min": [
        0.00015103816986083984,
        5.8710575103759766e-05
      ],
      "type": "VEC2"
    },
    {
      "bufferView": 1,
      "byteOffset": 3712,
      "componentType": 5126,
      "count": 58,
      "max": [
        0.9998477697372437,
        0.9761391282081604
      ],
      "min": [
        0.00015103816986083984,
        5.8710575103759766e-05
      ],
      "type": "VEC2"
    },
    {
      "bufferView": 0,
      "byteOffset": 672,
      "componentType": 5125,
      "count": 84,
      "type": "SCALAR"
    },
    {
      "bufferView": 2,
      "byteOffset": 4176,
      "componentType": 5126,
      "count": 58,
      "max": [
        -0.35929998755455017,
        -12.04255199432373,
        -0.7674769759178162
      ],
      "min": [
        -3.632085084915161,
        -12.619975090026855,
        -2.545933961868286
      ],
      "type": "VEC3"
    },
    {
      "bufferView": 2,
      "byteOffset": 4872,
      "componentType": 5126,
      "count": 58,
      "max": [
        0.9045637845993042,
        1.0,
        0.9571616649627686
      ],
      "min": [
        -0.9045636057853699,
        -1.0,
        -0.9571617245674133
      ],
      "type": "VEC3"
    },
    {
      "bufferView": 1,
      "byteOffset": 4176,
      "componentType": 5126,
      "count": 58,
      "max": [
        0.9998180270195007,
        0.973495602607727
      ],
      "min": [
        0.00010037422180175781,
        0.00014159083366394043
      ],
      "type": "VEC2"
    },
    {
      "bufferView": 1,
      "byteOffset": 4640,
      "componentType": 5126,
      "count": 58,
      "max": [
        0.9998180270195007,
        0.973495602607727
      ],
      "min": [
        0.00010037422180175781,
        0.00014159083366394043
      ],
      "type": "VEC2"
    },
    {
      "bufferView": 1,
      "byteOffset": 5104,
      "componentType": 5126,
      "count": 58,
      "max": [
        0.9998180270195007,
        0.973495602607727
      ],
      "min": [
        0.00010037422180175781,
        0.00014159083366394043
      ],
      "type": "VEC2"
    },
    {
      "bufferView": 0,
      "byteOffset": 1008,
      "componentType": 5125,
      "count": 84,
      "type": "SCALAR"
    },
    {
      "bufferView": 2,
      "byteOffset": 5568,
      "componentType": 5126,
      "count": 58,
      "max": [
        3.6166749000549316,
        -11.45036792755127,
        1.9955569505691528
      ],
      "min": [
        0.3438900113105774,
        -12.027791023254395,
        0.21709999442100525
      ],
      "type": "VEC3"
    },
    {
      "bufferView": 2,
      "byteOffset": 6264,
      "componentType": 5126,
      "count": 58,
      "max": [
        0.9045636653900146,
        1.0,
        0.9571617245674133
      ],
      "min": [
        -0.9045636653900146,
        -1.0,
        -0.9571617245674133
      ],
      "type": "VEC3"
    },
    {
      "bufferView": 1,
      "byteOffset": 5568,
      "componentType": 5126,
      "count": 58,
      "max": [
        0.9998572468757629,
        0.9766666889190674
      ],
      "min": [
        2.4691224098205566e-05,
        0.00013753771781921387
      ],
      "type": "VEC2"
    },
    {
      "bufferView": 1,
      "byteOffset": 6032,
      "componentType": 5126,
      "count": 58,
      "max": [
        0.9998572468757629,
        0.9766666889190674
      ],
      "min": [
        2.4691224098205566e-05,
        0.00013753771781921387
      ],
      "type": "VEC2"
    },
    {
      "bufferView": 1,
      "byteOffset": 6496,
      "componentType": 5126,
      "count": 58,
      "max": [
        0.9998572468757629,
        0.9766666889190674
      ],
      "min": [
        2.4691224098205566e-05,
        0.00013753771781921387
      ],
      "type": "VEC2"
    },
    {
      "bufferView": 0,
      "byteOffset": 1344,
      "componentType": 5125,
      "count": 84,
      "type": "SCALAR"
    },
    {
      "bufferView": 2,
      "byteOffset": 6960,
      "componentType": 5126,
      "count": 58,
      "max": [
        3.6159510612487793,
        -12.04255199432373,
        2.8369479179382324
      ],
      "min": [
        0.3431659936904907,
        -12.619975090026855,
        1.0584909915924072
      ],
      "type": "VEC3"
    },
    {
      "bufferView": 2,
      "byteOffset": 7656,
      "componentType": 5126,
      "count": 58,
      "max": [
        0.9045636653900146,
        1.0,
        0.9571617245674133
      ],
      "min": [
        -0.9045637249946594,
        -1.0,
        -0.9571617245674133
      ],
      "type": "VEC3"
    },
    {
      "bufferView": 1,
      "byteOffset": 6960,
      "componentType": 5126,
      "count": 58,
      "max": [
        0.9998170137405396,
        0.9735102653503418
      ],
      "min": [
        0.00012111663818359375,
        0.00020140409469604492
      ],
      "type": "VEC2"
    },
    {
      "bufferView": 1,
      "byteOffset": 7424,
      "componentType": 5126,
      "count": 58,
      "max": [
        0.9998170137405396,
        0.9735102653503418
      ],
      "min": [
        0.00012111663818359375,
        0.00020140409469604492
      ],
      "type": "VEC2"
    },
    {
      "bufferView": 1,
      "byteOffset": 7888,
      "componentType": 5126,
      "count": 58,
      "max": [
        0.9998170137405396,
        0.9735102653503418
      ],
      "min": [
        0.00012111663818359375,
        0.00020140409469604492
      ],
      "type": "VEC2"
    },
    {
      "bufferView": 0,
      "byteOffset": 1680,
      "componentType": 5125,
      "count": 84,
      "type": "SCALAR"
    },
    {
      "bufferView": 2,
      "byteOffset": 8352,
      "componentType": 5126,
      "count": 58,
      "max": [
        3.6182470321655273,
        -11.45036792755127,
        0.16877399384975433
      ],
      "min": [
        0.34546199440956116,
        -12.027791023254395,
        -1.6096830368041992
      ],
      "type": "VEC3"
    },
    {
      "bufferView": 2,
      "byteOffset": 9048,
      "componentType": 5126,
      "count": 58,
      "max": [
        0.904563844203949,
        1.0,
        0.9571621417999268
      ],
      "min": [
        -0.9045637249946594,
        -1.0,
        -0.9571616649627686
      ],
      "type": "VEC3"
    },
    {
      "bufferView": 1,
      "byteOffset": 8352,
      "componentType": 5126,
      "count": 58,
      "max": [
        0.9998486042022705,
        0.976715087890625
      ],
      "min": [
        6.9588422775268555e-06,
        0.00011491775512695313
      ],
      "type": "VEC2"
    },
    {
      "bufferView": 1,
      "byteOffset": 8816,
      "componentType": 5126,
      "count": 58,
      "max": [
        0.9998486042022705,
        0.976715087890625
      ],
      "min": [
        6.9588422775268555e-06,
        0.00011491775512695313
      ],
      "type": "VEC2"
    },
    {
      "bufferView": 1,
      "byteOffset": 9280,
      "componentType": 5126,
      "count": 58,
      "max": [
        0.9998486042022705,
        0.976715087890625
      ],
      "min": [
        6.9588422775268555e-06,
        0.00011491775512695313
      ],
      "type": "VEC2"
    },
    {
      "bufferView": 0,
      "byteOffset": 2016,
      "componentType": 5125,
      "count": 84,
      "type": "SCALAR"
    },
    {
      "bufferView": 2,
      "byteOffset": 9744,
      "componentType": 5126,
      "count": 58,
      "max": [
        -0.3601059913635254,
        -11.45036792755127,
        0.16877399384975433
      ],
      "min": [
        -3.632889986038208,
        -12.027791023254395,
        -1.6096830368041992
      ],
      "type": "VEC3"
    },
    {
      "bufferView": 2,
      "byteOffset": 10440,
      "componentType": 5126,
      "count": 58,
      "max": [
        0.9045636653900146,
        1.0,
        0.9571621417999268
      ],
      "min": [
        -0.9045637845993042,
        -1.0,
        -0.9571616649627686
      ],
      "type": "VEC3"
    },
    {
      "bufferView": 1,
      "byteOffset": 9744,
      "componentType": 5126,
      "count": 58,
      "max": [
        0.9997828006744385,
        0.973691463470459
      ],
      "min": [
        9.581446647644043e-05,
        1.3768672943115234e-05
      ],
      "type": "VEC2"
    },
    {
      "bufferView": 1,
      "byteOffset": 10208,
      "componentType": 5126,
      "count": 58,
      "max": [
        0.9997828006744385,
        0.973691463470459
      ],
      "min": [
        9.581446647644043e-05,
        1.3768672943115234e-05
      ],
      "type": "VEC2"
    },
    {
      "bufferView": 1,
      "byteOffset": 10672,
      "componentType": 5126,
      "count": 58,
      "max": [
        0.9997828006744385,
        0.973691463470459
      ],
      "min": [
        9.581446647644043e-05,
        1.3768672943115234e-05
      ],
      "type": "VEC2"
    },
    {
      "bufferView": 0,
      "byteOffset": 2352,
      "componentType": 5125,
      "count": 84,
      "type": "SCALAR"
    },
    {
      "bufferView": 2,
      "byteOffset": 11136,
      "componentType": 5126,
      "count": 58,
      "max": [
        3.617508888244629,
        -12.04255199432373,
        1.0266900062561035
      ],
      "min": [
        0.34472399950027466,
        -12.619975090026855,
        -0.7517669796943665
      ],
      "type": "VEC3"
    },
    {
      "bufferView": 2,
      "byteOffset": 11832,
      "componentType": 5126,
      "count": 58,
      "max": [
        0.9045637845993042,
        1.0,
        0.9571616649627686
      ],
      "min": [
        -0.9045637845993042,
        -1.0,
        -0.9571617245674133
      ],
      "type": "VEC3"
    },
    {
      "bufferView": 1,
      "byteOffset": 11136,
      "componentType": 5126,
      "count": 58,
      "max": [
        0.9998080134391785,
        0.9735355377197266
      ],
      "min": [
        7.323920726776123e-05,
        0.000152587890625
      ],
      "type": "VEC2"
    },
    {
      "bufferView": 1,
      "byteOffset": 11600,
      "componentType": 5126,
      "count": 58,
      "max": [
        0.9998080134391785,
        0.9735355377197266
      ],
      "min": [
        7.323920726776123e-05,
        0.000152587890625
      ],
      "type": "VEC2"
    },
    {
      "bufferView": 1,
      "byteOffset": 12064,
      "componentType": 5126,
      "count": 58,
      "max": [
        0.9998080134391785,
        0.9735355377197266
      ],
      "min": [
        7.323920726776123e-05,
        0.000152587890625
      ],
      "type": "VEC2"
    },
    {
      "bufferView": 0,
      "byteOffset": 2688,
      "componentType": 5125,
      "count": 84,
      "type": "SCALAR"
    },
    {
      "bufferView": 2,
      "byteOffset": 12528,
      "componentType": 5126,
      "count": 58,
      "max": [
        3.6190528869628906,
        -12.04255199432373,
        -0.7674769759178162
      ],
      "min": [
        0.3462679982185364,
        -12.619975090026855,
        -2.545933961868286
      ],
      "type": "VEC3"
    },
    {
      "bufferView": 2,
      "byteOffset": 13224,
      "componentType": 5126,
      "count": 58,
      "max": [
        0.9045637845993042,
        1.0,
        0.9571616649627686
      ],
      "min": [
        -0.9045637845993042,
        -1.0,
        -0.9571617245674133
      ],
      "type": "VEC3"
    },
    {
      "bufferView": 1,
      "byteOffset": 12528,
      "componentType": 5126,
      "count": 58,
      "max": [
        0.9998099207878113,
        0.9730316996574402
      ],
      "min": [
        7.010996341705322e-05,
        0.00016838312149047852
      ],
      "type": "VEC2"
    },
    {
      "bufferView": 1,
      "byteOffset": 12992,
      "componentType": 5126,
      "count": 58,
      "max": [
        0.9998099207878113,
        0.9730316996574402
      ],
      "min": [
        7.010996341705322e-05,
        0.00016838312149047852
      ],
      "type": "VEC2"
    },
    {
      "bufferView": 1,
      "byteOffset": 13456,
      "componentType": 5126,
      "count": 58,
      "max": [
        0.9998099207878113,
        0.9730316996574402
      ],
      "min": [
        7.010996341705322e-05,
        0.00016838312149047852
      ],
      "type": "VEC2"
    },
    {
      "bufferView": 0,
      "byteOffset": 3024,
      "componentType": 5125,
      "count": 84,
      "type": "SCALAR"
    }
  ],
  "asset": {
    "extras": {
      "author": "pooiloui2 (https://sketchfab.com/pooiloui2)",
      "license": "CC-BY-4.0 (http://creativecommons.org/licenses/by/4.0/)",
      "source": "https://sketchfab.com/3d-models/gold-bar-pile-ac639a7c53244a0db904c1745a947a6c",
      "title": "Gold Bar pile"
    },
    "generator": "Sketchfab-12.68.0",
    "version": "2.0"
  },
  "bufferViews": [
    {
      "buffer": 0,
      "byteLength": 3360,
      "name": "floatBufferViews",
      "target": 34963
    },
    {
      "buffer": 0,
      "byteLength": 13920,
      "byteOffset": 3360,
      "byteStride": 8,
      "name": "floatBufferViews",
      "target": 34962
    },
    {
      "buffer": 0,
      "byteLength": 13920,
      "byteOffset": 17280,
      "byteStride": 12,
      "name": "floatBufferViews",
      "target": 34962
    }
  ],
  "buffers": [
    {
      "byteLength": 31200,
      "uri": "scene.bin"
    }
  ],
  "images": [
    {
      "uri": "textures/material_baseColor.png"
    },
    {
      "uri": "textures/material_metallicRoughness.png"
    },
    {
      "uri": "textures/material_1_baseColor.png"
    },
    {
      "uri": "textures/material_1_metallicRoughness.png"
    },
    {
      "uri": "textures/material_2_baseColor.png"
    },
    {
      "uri": "textures/material_2_metallicRoughness.png"
    },
    {
      "uri": "textures/material_3_baseColor.png"
    },
    {
      "uri": "textures/material_3_metallicRoughness.png"
    },
    {
      "uri": "textures/material_4_baseColor.png"
    },
    {
      "uri": "textures/material_4_metallicRoughness.png"
    },
    {
      "uri": "textures/material_5_baseColor.png"
    },
    {
      "uri": "textures/material_5_metallicRoughness.png"
    },
    {
      "uri": "textures/material_6_baseColor.png"
    },
    {
      "uri": "textures/material_6_metallicRoughness.png"
    },
    {
      "uri": "textures/material_7_baseColor.png"
    },
    {
      "uri": "textures/material_7_metallicRoughness.png"
    },
    {
      "uri": "textures/material_8_baseColor.png"
    },
    {
      "uri": "textures/material_8_metallicRoughness.png"
    },
    {
      "uri": "textures/material_9_baseColor.png"
    },
    {
      "uri": "textures/material_9_metallicRoughness.png"
    }
  ],
  "materials": [
    {
      "doubleSided": true,
      "name": "material",
      "pbrMetallicRoughness": {
        "baseColorTexture": {
          "index": 0
        },
        "metallicRoughnessTexture": {
          "index": 1
        }
      }
    },
    {
      "doubleSided": true,
      "name": "material_1",
      "pbrMetallicRoughness": {
        "baseColorTexture": {
          "index": 2
        },
        "metallicRoughnessTexture": {
          "index": 3
        }
      }
    },
    {
      "doubleSided": true,
      "name": "material_2",
      "pbrMetallicRoughness": {
        "baseColorTexture": {
          "index": 4
        },
        "metallicRoughnessTexture": {
          "index": 5
        }
      }
    },
    {
      "doubleSided": true,
      "name": "material_3",
      "pbrMetallicRoughness": {
        "baseColorTexture": {
          "index": 6
        },
        "metallicRoughnessTexture": {
          "index": 7
        }
      }
    },
    {
      "doubleSided": true,
      "name": "material_4",
      "pbrMetallicRoughness": {
        "baseColorTexture": {
          "index": 8
        },
        "metallicRoughnessTexture": {
          "index": 9
        }
      }
    },
    {
      "doubleSided": true,
      "name": "material_5",
      "pbrMetallicRoughness": {
        "baseColorTexture": {
          "index": 10
        },
        "metallicRoughnessTexture": {
          "index": 11
        }
      }
    },
    {
      "doubleSided": true,
      "name": "material_6",
      "pbrMetallicRoughness": {
        "baseColorTexture": {
          "index": 12
        },
        "metallicRoughnessTexture": {
          "index": 13
        }
      }
    },
    {
      "doubleSided": true,
      "name": "material_7",
      "pbrMetallicRoughness": {
        "baseColorTexture": {
          "index": 14
        },
        "metallicRoughnessTexture": {
          "index": 15
        }
      }
    },
    {
      "doubleSided": true,
      "name": "material_8",
      "pbrMetallicRoughness": {
        "baseColorTexture": {
          "index": 16
        },
        "metallicRoughnessTexture": {
          "index": 17
        }
      }
    },
    {
      "doubleSided": true,
      "name": "material_9",
      "pbrMetallicRoughness": {
        "baseColorTexture": {
          "index": 18
        },
        "metallicRoughnessTexture": {
          "index": 19
        }
      }
    }
  ],
  "meshes": [
    {
      "name": "Object_0",
      "primitives": [
        {
          "attributes": {
            "NORMAL": 1,
            "POSITION": 0,
            "TEXCOORD_0": 2,
            "TEXCOORD_1": 3,
            "TEXCOORD_2": 4
          },
          "indices": 5,
          "material": 0,
          "mode": 4
        }
      ]
    },
    {
      "name": "Object_1",
      "primitives": [
        {
          "attributes": {
            "NORMAL": 7,
            "POSITION": 6,
            "TEXCOORD_0": 8,
            "TEXCOORD_1": 9,
            "TEXCOORD_2": 10
          },
          "indices": 11,
          "material": 1,
          "mode": 4
        }
      ]
    },
    {
      "name": "Object_2",
      "primitives": [
        {
          "attributes": {
            "NORMAL": 13,
            "POSITION": 12,
            "TEXCOORD_0": 14,
            "TEXCOORD_1": 15,
            "TEXCOORD_2": 16
          },
          "indices": 17,
          "material": 2,
          "mode": 4
        }
      ]
    },
    {
      "name": "Object_3",
      "primitives": [
        {
          "attributes": {
            "NORMAL": 19,
            "POSITION": 18,
            "TEXCOORD_0": 20,
            "TEXCOORD_1": 21,
            "TEXCOORD_2": 22
          },
          "indices": 23,
          "material": 3,
          "mode": 4
        }
      ]
    },
    {
      "name": "Object_4",
      "primitives": [
        {
          "attributes": {
            "NORMAL": 25,
            "POSITION": 24,
            "TEXCOORD_0": 26,
            "TEXCOORD_1": 27,
            "TEXCOORD_2": 28
          },
          "indices": 29,
          "material": 4,
          "mode": 4
        }
      ]
    },
    {
      "name": "Object_5",
      "primitives": [
        {
          "attributes": {
            "NORMAL": 31,
            "POSITION": 30,
            "TEXCOORD_0": 32,
            "TEXCOORD_1": 33,
            "TEXCOORD_2": 34
          },
          "indices": 35,
          "material": 5,
          "mode": 4
        }
      ]
    },
    {
      "name": "Object_6",
      "primitives": [
        {
          "attributes": {
            "NORMAL": 37,
            "POSITION": 36,
            "TEXCOORD_0": 38,
            "TEXCOORD_1": 39,
            "TEXCOORD_2": 40
          },
          "indices": 41,
          "material": 6,
          "mode": 4
        }
      ]
    },
    {
      "name": "Object_7",
      "primitives": [
        {
          "attributes": {
            "NORMAL": 43,
            "POSITION": 42,
            "TEXCOORD_0": 44,
            "TEXCOORD_1": 45,
            "TEXCOORD_2": 46
          },
          "indices": 47,
          "material": 7,
          "mode": 4
        }
      ]
    },
    {
      "name": "Object_8",
      "primitives": [
        {
          "attributes": {
            "NORMAL": 49,
            "POSITION": 48,
            "TEXCOORD_0": 50,
            "TEXCOORD_1": 51,
            "TEXCOORD_2": 52
          },
          "indices": 53,
          "material": 8,
          "mode": 4
        }
      ]
    },
    {
      "name": "Object_9",
      "primitives": [
        {
          "attributes": {
            "NORMAL": 55,
            "POSITION": 54,
            "TEXCOORD_0": 56,
            "TEXCOORD_1": 57,
            "TEXCOORD_2": 58
          },
          "indices": 59,
          "material": 9,
          "mode": 4
        }
      ]
    }
  ],
  "nodes": [
    {
      "children": [
        1
      ],
      "matrix": [
        1.0,
        0.0,
        0.0,
        0.0,
        0.0,
        2.220446049250313e-16,
        -1.0,
        0.0,
        0.0,
        1.0,
        2.220446049250313e-16,
        0.0,
        0.0,
        0.0,
        0.0,
        1.0
      ],
      "name": "Sketchfab_model"
    },
    {
      "children": [
        2
      ],
      "name": "root"
    },
    {
      "children": [
        3
      ],
      "matrix": [
        1.0,
        0.0,
        0.0,
        0.0,
        0.0,
        2.220446049250313e-16,
        1.0,
        0.0,
        0.0,
        -1.0,
        2.220446049250313e-16,
        0.0,
        0.0,
        0.0,
        0.0,
        1.0
      ],
      "name": "GLTF_SceneRootNode"
    },
    {
      "children": [
        4,
        6,
        8,
        10,
        12,
        14,
        16,
        18,
        20,
        22
      ],
      "name": "root_10"
    },
    {
      "children": [
        5
      ],
      "matrix": [
        0.003272623522207141,
        0.0,
        0.0,
        0.0,
        0.0,
        0.003272623522207141,
        0.0,
        0.0,
        0.0,
        0.0,
        0.003272623522207141,
        0.0,
        0.14972637593746185,
        0.07390750199556351,
        0.11773219704627991,
        1.0
      ],
      "name": "_0"
    },
    {
      "mesh": 0,
      "name": "Object_5"
    },
    {
      "children": [
        7
      ],
      "matrix": [
        0.003272623522207141,
        0.0,
        0.0,
        0.0,
        0.0,
        0.003272623522207141,
        0.0,
        0.0,
        0.0,
        0.0,
        0.003272623522207141,
        0.0,
        0.14972637593746185,
        0.07390750199556351,
        0.11773219704627991,
        1.0
      ],
      "name": "_1"
    },
    {
      "mesh": 1,
      "name": "Object_7"
    },
    {
      "children": [
        9
      ],
      "matrix": [
        0.0006456475626578445,
        0.0019036629726555925,
        -0.002582494104790999,
        0.0,
        2.6703889990849315e-10,
        0.0026342676777171355,
        0.0019418274764861098,
        0.0,
        0.003208302601922339,
        -0.00038309843696082355,
        0.0005197078449803647,
        0.0,
        0.14000004529953003,
        0.07056883722543716,
        0.14363953471183777,
        1.0
      ],
      "name": "_2"
    },
    {
      "mesh": 2,
      "name": "Object_9"
    },
    {
      "children": [
        11
      ],
      "matrix": [
        0.003264160588233387,
        0.0,
        -0.0011090168268915969,
        0.0,
        0.0,
        0.0034474146086722612,
        0.0,
        0.0,
        0.0011090168268915969,
        0.0,
        0.003264160588233387,
        0.0,
        0.15388891100883484,
        0.07573805749416351,
        0.11323179304599762,
        1.0
      ],
      "name": "_3"
    },
    {
      "mesh": 3,
      "name": "Object_11"
    },
    {
      "children": [
        13
      ],
      "matrix": [
        0.003163980772928517,
        -0.0008362367550976663,
        0.0,
        0.0,
        0.0008362367550976663,
        0.003163980772928517,
        0.0,
        0.0,
        0.0,
        0.0,
        0.003272623522207141,
        0.0,
        0.16726040840148926,
        0.07353466749191284,
        0.11773219704627991,
        1.0
      ],
      "name": "_4"
    },
    {
      "mesh": 4,
      "name": "Object_13"
    },
    {
      "children": [
        15
      ],
      "matrix": [
        0.002608510782175815,
        0.0,
        -0.0019762939410194343,
        0.0,
        0.0,
        0.003272623522207141,
        0.0,
        0.0,
        0.0019762939410194343,
        0.0,
        0.002608510782175815,
        0.0,
        0.14938047528266907,
        0.07390750199556351,
        0.1246948391199112,
        1.0
      ],
      "name": "_5"
    },
    {
      "mesh": 5,
      "name": "Object_15"
    },
    {
      "children": [
        17
      ],
      "matrix": [
        0.003272623522207141,
        0.0,
        0.0,
        0.0,
        0.0,
        0.003272623522207141,
        0.0,
        0.0,
        0.0,
        0.0,
        0.003272623522207141,
        0.0,
        0.14972637593746185,
        0.07390750199556351,
        0.11773219704627991,
        1.0
      ],
      "name": "_6"
    },
    {
      "mesh": 6,
      "name": "Object_17"
    },
    {
      "children": [
        19
      ],
      "matrix": [
        0.0031680708827089327,
        0.0008206034829936363,
        0.0,
        0.0,
        -0.0008206034829936363,
        0.0031680708827089327,
        0.0,
        0.0,
        0.0,
        0.0,
        0.003272623522207141,
        0.0,
        0.14570249617099762,
        0.07538032531738281,
        0.1177322193980217,
        1.0
      ],
      "name": "_7"
    },
    {
      "mesh": 7,
      "name": "Object_19"
    },
    {
      "children": [
        21
      ],
      "matrix": [
        0.003272623522207141,
        0.0,
        0.0,
        0.0,
        0.0,
        0.003272623522207141,
        0.0,
        0.0,
        0.0,
        0.0,
        0.003272623522207141,
        0.0,
        0.14972637593746185,
        0.07390750199556351,
        0.11773219704627991,
        1.0
      ],
      "name": "_8"
    },
    {
      "mesh": 8,
      "name": "Object_21"
    },
    {
      "children": [
        23
      ],
      "matrix": [
        0.0034474146086722612,
        0.0,
        0.0,
        0.0,
        0.0,
        0.0034474146086722612,
        0.0,
        0.0,
        0.0,
        0.0,
        0.0034474146086722612,
        0.0,
        0.15036176145076752,
        0.07573805749416351,
        0.11697932332754135,
        1.0
      ],
      "name": "_9"
    },
    {
      "mesh": 9,
      "name": "Object_23"
    }
  ],
  "samplers": [
    {
      "magFilter": 9729,
      "minFilter": 9987,
      "wrapS": 10497,
      "wrapT": 10497
    }
  ],
  "scene": 0,
  "scenes": [
    {
      "name": "Sketchfab_Scene",
      "nodes": [
        0
      ]
    }
  ],
  "textures": [
    {
      "sampler": 0,
      "source": 0
    },
    {
      "sampler": 0,
      "source": 1
    },
    {
      "sampler": 0,
      "source": 2
    },
    {
      "sampler": 0,
      "source": 3
    },
    {
      "sampler": 0,
      "source": 4
    },
    {
      "sampler": 0,
      "source": 5
    },
    {
      "sampler": 0,
      "source": 6
    },
    {
      "sampler": 0,
      "source": 7
    },
    {
      "sampler": 0,
      "source": 8
    },
    {
      "sampler": 0,
      "source": 9
    },
    {
      "sampler": 0,
      "source": 10
    },
    {
      "sampler": 0,
      "source": 11
    },
    {
      "sampler": 0,
      "source": 12
    },
    {
      "sampler": 0,
      "source": 13
    },
    {
      "sampler": 0,
      "source": 14
    },
    {
      "sampler": 0,
      "source": 15
    },
    {
      "sampler": 0,
      "source": 16
    },
    {
      "sampler": 0,
      "source": 17
    },
    {
      "sampler": 0,
      "source": 18
    },
    {
      "sampler": 0,
      "source": 19
    }
  ]
}
