{
  "accessors": [
    {
      "bufferView": 2,
      "componentType": 5126,
      "count": 576,
      "max": [
        1.270002841949463,
        0.5007769465446472,
        -0.030000001192092896
      ],
      "min": [
        -1.270002841949463,
        0.3992229998111725,
        -8.609999656677246
      ],
      "type": "VEC3"
    },
    {
      "bufferView": 2,
      "byteOffset": 6912,
      "componentType": 5126,
      "count": 576,
      "max": [
        1.0,
        1.0,
        1.0
      ],
      "min": [
        -1.0,
        -1.0,
        -1.0
      ],
      "type": "VEC3"
    },
    {
      "bufferView": 3,
      "componentType": 5126,
      "count": 576,
      "max": [
        1.0,
        0.010200491175055504,
        0.0,
        1.0
      ],
      "min": [
        0.0,
        -0.010500471107661724,
        -1.0,
        -1.0
      ],
      "type": "VEC4"
    },
    {
      "bufferView": 3,
      "byteOffset": 9216,
      "componentType": 5126,
      "count": 576,
      "max": [
        1.0,
        1.0,
        1.0,
        1.0
      ],
      "min": [
        0.7882353067398071,
        0.7882353067398071,
        0.7882353067398071,
        1.0
      ],
      "type": "VEC4"
    },
    {
      "bufferView": 1,
      "componentType": 5126,
      "count": 576,
      "max": [
        7.174999713897705,
        0.9750000238418579
      ],
      "min": [
        -1.0583356618881226,
        -6.174999713897705
      ],
      "type": "VEC2"
    },
    {
      "bufferView": 1,
      "byteOffset": 4608,
      "componentType": 5126,
      "count": 576,
      "max": [
        7.174999713897705,
        0.9750000238418579
      ],
      "min": [
        -1.0583356618881226,
        -6.174999713897705
      ],
      "type": "VEC2"
    },
    {
      "bufferView": 1,
      "byteOffset": 9216,
      "componentType": 5126,
      "count": 576,
      "max": [
        7.174999713897705,
        0.9750000238418579
      ],
      "min": [
        -1.0583356618881226,
        -6.174999713897705
      ],
      "type": "VEC2"
    },
    {
      "bufferView": 1,
      "byteOffset": 13824,
      "componentType": 5126,
      "count": 576,
      "max": [
        7.174999713897705,
        0.9750000238418579
      ],
      "min": [
        -1.0583356618881226,
        -6.174999713897705
      ],
      "type": "VEC2"
    },
    {
      "bufferView": 0,
      "componentType": 5125,
      "count": 864,
      "type": "SCALAR"
    },
    {
      "bufferView": 2,
      "byteOffset": 13824,
      "componentType": 5126,
      "count": 168,
      "max": [
        1.2692368030548096,
        0.5005366206169128,
        -8.670000076293945
      ],
      "min": [
        -1.2692368030548096,
        0.39946335554122925,
        -11.129999160766602
      ],
      "type": "VEC3"
    },
    {
      "bufferView": 2,
      "byteOffset": 15840,
      "componentType": 5126,
      "count": 168,
      "max": [
        1.0,
        1.0,
        1.0
      ],
      "min": [
        -1.0,
        -1.0,
        -1.0
      ],
      "type": "VEC3"
    },
    {
      "bufferView": 3,
      "byteOffset": 18432,
      "componentType": 5126,
      "count": 168,
      "max": [
        1.0,
        0.010400477796792984,
        0.0,
        1.0
      ],
      "min": [
        0.0,
        -0.009799529798328876,
        -1.0,
        -1.0
      ],
      "type": "VEC4"
    },
    {
      "bufferView": 3,
      "byteOffset": 21120,
      "componentType": 5126,
      "count": 168,
      "max": [
        0.9882352948188782,
        0.9882352948188782,
        0.9882352948188782,
        1.0
      ],
      "min": [
        0.7960784435272217,
        0.7960784435272217,
        0.7960784435272217,
        1.0
      ],
      "type": "VEC4"
    },
    {
      "bufferView": 1,
      "byteOffset": 18432,
      "componentType": 5126,
      "count": 168,
      "max": [
        9.274999618530273,
        0.6671139001846313
      ],
      "min": [
        -1.0576972961425781,
        -8.274999618530273
      ],
      "type": "VEC2"
    },
    {
      "bufferView": 1,
      "byteOffset": 19776,
      "componentType": 5126,
      "count": 168,
      "max": [
        9.274999618530273,
        0.6671139001846313
      ],
      "min": [
        -1.0576972961425781,
        -8.274999618530273
      ],
      "type": "VEC2"
    },
    {
      "bufferView": 1,
      "byteOffset": 21120,
      "componentType": 5126,
      "count": 168,
      "max": [
        9.274999618530273,
        0.6671139001846313
      ],
      "min": [
        -1.0576972961425781,
        -8.274999618530273
      ],
      "type": "VEC2"
    },
    {
      "bufferView": 1,
      "byteOffset": 22464,
      "componentType": 5126,
      "count": 168,
      "max": [
        9.274999618530273,
        0.6671139001846313
      ],
      "min": [
        -1.0576972961425781,
        -8.274999618530273
      ],
      "type": "VEC2"
    },
    {
      "bufferView": 0,
      "byteOffset": 3456,
      "componentType": 5125,
      "count": 252,
      "type": "SCALAR"
    },
    {
      "bufferView": 2,
      "byteOffset": 17856,
      "componentType": 5126,
      "count": 312,
      "max": [
        1.1100000143051147,
        0.5,
        0.15000009536743164
      ],
      "min": [
        -1.1100000143051147,
        -1.0,
        -11.149999618530273
      ],
      "type": "VEC3"
    },
    {
      "bufferView": 2,
      "byteOffset": 21600,
      "componentType": 5126,
      "count": 312,
      "max": [
        1.0,
        1.0,
        1.0
      ],
      "min": [
        -1.0,
        -1.0,
        -1.0
      ],
      "type": "VEC3"
    },
    {
      "bufferView": 3,
      "byteOffset": 23808,
      "componentType": 5126,
      "count": 312,
      "max": [
        1.0,
        2.517100483601098e-06,
        1.3334972948086943e-07,
        1.0
      ],
      "min": [
        0.0,
        -3.6329288377601188e-06,
        -1.0,
        -1.0
      ],
      "type": "VEC4"
    },
    {
      "bufferView": 3,
      "byteOffset": 28800,
      "componentType": 5126,
      "count": 312,
      "max": [
        1.0,
        1.0,
        1.0,
        1.0
      ],
      "min": [
        0.7843137383460999,
        0.7843137383460999,
        0.7843137383460999,
        1.0
      ],
      "type": "VEC4"
    },
    {
      "bufferView": 1,
      "byteOffset": 23808,
      "componentType": 5126,
      "count": 312,
      "max": [
        9.291666030883789,
        1.8333332538604736
      ],
      "min": [
        -0.925000011920929,
        -8.291666030883789
      ],
      "type": "VEC2"
    },
    {
      "bufferView": 1,
      "byteOffset": 26304,
      "componentType": 5126,
      "count": 312,
      "max": [
        9.291666030883789,
        1.8333332538604736
      ],
      "min": [
        -0.925000011920929,
        -8.291666030883789
      ],
      "type": "VEC2"
    },
    {
      "bufferView": 1,
      "byteOffset": 28800,
      "componentType": 5126,
      "count": 312,
      "max": [
        9.291666030883789,
        1.8333332538604736
      ],
      "min": [
        -0.925000011920929,
        -8.291666030883789
      ],
      "type": "VEC2"
    },
    {
      "bufferView": 1,
      "byteOffset": 31296,
      "componentType": 5126,
      "count": 312,
      "max": [
        9.291666030883789,
        1.8333332538604736
      ],
      "min": [
        -0.925000011920929,
        -8.291666030883789
      ],
      "type": "VEC2"
    },
    {
      "bufferView": 0,
      "byteOffset": 4464,
      "componentType": 5125,
      "count": 480,
      "type": "SCALAR"
    },
    {
      "bufferView": 2,
      "byteOffset": 25344,
      "componentType": 5126,
      "count": 462,
      "max": [
        1.2432315349578857,
        1.2950000762939453,
        -0.11935952305793762
      ],
      "min": [
        -1.2464931011199951,
        -2.053403854370117,
        -10.895000457763672
      ],
      "type": "VEC3"
    },
    {
      "bufferView": 2,
      "byteOffset": 30888,
      "componentType": 5126,
      "count": 462,
      "max": [
        0.9748688340187073,
        1.0,
        0.9999459981918335
      ],
      "min": [
        -0.9748597741127014,
        -1.0,
        -0.9009348154067993
      ],
      "type": "VEC3"
    },
    {
      "bufferView": 3,
      "byteOffset": 33792,
      "componentType": 5126,
      "count": 462,
      "max": [
        1.0,
        0.02760053239762783,
        0.43400511145591736,
        1.0
      ],
      "min": [
        -0.6238039135932922,
        -0.02710089273750782,
        -0.9749311208724976,
        -1.0
      ],
      "type": "VEC4"
    },
    {
      "bufferView": 3,
      "byteOffset": 41184,
      "componentType": 5126,
      "count": 462,
      "max": [
        0.9960784316062927,
        0.9960784316062927,
        0.9960784316062927,
        1.0
      ],
      "min": [
        0.8313725590705872,
        0.8313725590705872,
        0.8313725590705872,
        1.0
      ],
      "type": "VEC4"
    },
    {
      "bufferView": 1,
      "byteOffset": 33792,
      "componentType": 5126,
      "count": 462,
      "max": [
        9.033672332763672,
        2.711169719696045
      ],
      "min": [
        -1.0387442111968994,
        -8.079167366027832
      ],
      "type": "VEC2"
    },
    {
      "bufferView": 1,
      "byteOffset": 37488,
      "componentType": 5126,
      "count": 462,
      "max": [
        9.033672332763672,
        2.711169719696045
      ],
      "min": [
        -1.0387442111968994,
        -8.079167366027832
      ],
      "type": "VEC2"
    },
    {
      "bufferView": 1,
      "byteOffset": 41184,
      "componentType": 5126,
      "count": 462,
      "max": [
        9.033672332763672,
        2.711169719696045
      ],
      "min": [
        -1.0387442111968994,
        -8.079167366027832
      ],
      "type": "VEC2"
    },
    {
      "bufferView": 1,
      "byteOffset": 44880,
      "componentType": 5126,
      "count": 462,
      "max": [
        9.033672332763672,
        2.711169719696045
      ],
      "min": [
        -1.0387442111968994,
        -8.079167366027832
      ],
      "type": "VEC2"
    },
    {
      "bufferView": 0,
      "byteOffset": 6384,
      "componentType": 5125,
      "count": 792,
      "type": "SCALAR"
    },
    {
      "bufferView": 2,
      "byteOffset": 36432,
      "componentType": 5126,
      "count": 420,
      "max": [
        1.2181891202926636,
        -0.30000001192092896,
        -0.11305274069309235
      ],
      "min": [
        -1.2181891202926636,
        -0.699999988079071,
        -10.902000427246094
      ],
      "type": "VEC3"
    },
    {
      "bufferView": 2,
      "byteOffset": 41472,
      "componentType": 5126,
      "count": 420,
      "max": [
        0.9749311208724976,
        1.0,
        1.0
      ],
      "min": [
        -0.9749311208724976,
        -1.0,
        -0.9009684324264526
      ],
      "type": "VEC3"
    },
    {
      "bufferView": 3,
      "byteOffset": 48576,
      "componentType": 5126,
      "count": 420,
      "max": [
        1.0,
        0.0,
        0.4338848292827606,
        1.0
      ],
      "min": [
        -0.6235113739967346,
        0.0,
        -0.9749311208724976,
        -1.0
      ],
      "type": "VEC4"
    },
    {
      "bufferView": 3,
      "byteOffset": 55296,
      "componentType": 5126,
      "count": 420,
      "max": [
        0.9647058844566345,
        0.9647058844566345,
        0.9647058844566345,
        1.0
      ],
      "min": [
        0.8039215803146362,
        0.8039215803146362,
        0.8039215803146362,
        1.0
      ],
      "type": "VEC4"
    },
    {
      "bufferView": 1,
      "byteOffset": 48576,
      "componentType": 5126,
      "count": 420,
      "max": [
        9.037308692932129,
        1.5833332538604736
      ],
      "min": [
        -1.0151575803756714,
        -8.085000038146973
      ],
      "type": "VEC2"
    },
    {
      "bufferView": 1,
      "byteOffset": 51936,
      "componentType": 5126,
      "count": 420,
      "max": [
        9.037308692932129,
        1.5833332538604736
      ],
      "min": [
        -1.0151575803756714,
        -8.085000038146973
      ],
      "type": "VEC2"
    },
    {
      "bufferView": 1,
      "byteOffset": 55296,
      "componentType": 5126,
      "count": 420,
      "max": [
        9.037308692932129,
        1.5833332538604736
      ],
      "min": [
        -1.0151575803756714,
        -8.085000038146973
      ],
      "type": "VEC2"
    },
    {
      "bufferView": 1,
      "byteOffset": 58656,
      "componentType": 5126,
      "count": 420,
      "max": [
        9.037308692932129,
        1.5833332538604736
      ],
      "min": [
        -1.0151575803756714,
        -8.085000038146973
      ],
      "type": "VEC2"
    },
    {
      "bufferView": 0,
      "byteOffset": 9552,
      "componentType": 5125,
      "count": 720,
      "type": "SCALAR"
    },
    {
      "bufferView": 2,
      "byteOffset": 46512,
      "componentType": 5126,
      "count": 414,
      "max": [
        1.150621771812439,
        2.75,
        -3.700000047683716
      ],
      "min": [
        -1.0718660354614258,
        0.44999998807907104,
        -10.225000381469727
      ],
      "type": "VEC3"
    },
    {
      "bufferView": 2,
      "byteOffset": 51480,
      "componentType": 5126,
      "count": 414,
      "max": [
        1.0,
        1.0,
        1.0
      ],
      "min": [
        -1.0,
        -1.0,
        -1.0
      ],
      "type": "VEC3"
    },
    {
      "bufferView": 3,
      "byteOffset": 62016,
      "componentType": 5126,
      "count": 414,
      "max": [
        1.0,
        0.500007688999176,
        0.6428167819976807,
        1.0
      ],
      "min": [
        -0.6235113739967346,
        -0.5000059604644775,
        -1.0,
        -1.0
      ],
      "type": "VEC4"
    },
    {
      "bufferView": 3,
      "byteOffset": 68640,
      "componentType": 5126,
      "count": 414,
      "max": [
        0.9921568632125854,
        0.9921568632125854,
        0.9921568632125854,
        1.0
      ],
      "min": [
        0.7843137383460999,
        0.7843137383460999,
        0.7843137383460999,
        1.0
      ],
      "type": "VEC4"
    },
    {
      "bufferView": 1,
      "byteOffset": 62016,
      "componentType": 5126,
      "count": 414,
      "max": [
        8.481614112854004,
        0.625
      ],
      "min": [
        -0.8932216763496399,
        -7.520833969116211
      ],
      "type": "VEC2"
    },
    {
      "bufferView": 1,
      "byteOffset": 65328,
      "componentType": 5126,
      "count": 414,
      "max": [
        8.481614112854004,
        0.625
      ],
      "min": [
        -0.8932216763496399,
        -7.520833969116211
      ],
      "type": "VEC2"
    },
    {
      "bufferView": 1,
      "byteOffset": 68640,
      "componentType": 5126,
      "count": 414,
      "max": [
        8.481614112854004,
        0.625
      ],
      "min": [
        -0.8932216763496399,
        -7.520833969116211
      ],
      "type": "VEC2"
    },
    {
      "bufferView": 1,
      "byteOffset": 71952,
      "componentType": 5126,
      "count": 414,
      "max": [
        8.481614112854004,
        0.625
      ],
      "min": [
        -0.8932216763496399,
        -7.520833969116211
      ],
      "type": "VEC2"
    },
    {
      "bufferView": 0,
      "byteOffset": 12432,
      "componentType": 5125,
      "count": 684,
      "type": "SCALAR"
    },
    {
      "bufferView": 2,
      "byteOffset": 56448,
      "componentType": 5126,
      "count": 528,
      "max": [
        -0.6185309886932373,
        0.5900000333786011,
        -5.069624423980713
      ],
      "min": [
        -1.034999966621399,
        0.4650000035762787,
        -5.490375995635986
      ],
      "type": "VEC3"
    },
    {
      "bufferView": 2,
      "byteOffset": 62784,
      "componentType": 5126,
      "count": 528,
      "max": [
        0.9898231029510498,
        0.7071154713630676,
        1.0
      ],
      "min": [
        -0.9898231029510498,
        -0.7071154713630676,
        -1.0
      ],
      "type": "VEC3"
    },
    {
      "bufferView": 3,
      "byteOffset": 75264,
      "componentType": 5126,
      "count": 528,
      "max": [
        1.0,
        1.0,
        1.0,
        1.0
      ],
      "min": [
        0.7882353067398071,
        0.7882353067398071,
        0.7882353067398071,
        1.0
      ],
      "type": "VEC4"
    },
    {
      "bufferView": 1,
      "byteOffset": 75264,
      "componentType": 5126,
      "count": 528,
      "max": [
        4.575313568115234,
        0.612500011920929
      ],
      "min": [
        -0.8624999523162842,
        -3.5753135681152344
      ],
      "type": "VEC2"
    },
    {
      "bufferView": 0,
      "byteOffset": 15168,
      "componentType": 5125,
      "count": 792,
      "type": "SCALAR"
    },
    {
      "bufferView": 2,
      "byteOffset": 69120,
      "componentType": 5126,
      "count": 36,
      "max": [
        0.8285640478134155,
        2.620000123977661,
        -6.329999923706055
      ],
      "min": [
        0.5514359474182129,
        2.319999933242798,
        -6.649999618530273
      ],
      "type": "VEC3"
    },
    {
      "bufferView": 2,
      "byteOffset": 69552,
      "componentType": 5126,
      "count": 36,
      "max": [
        0.9962694644927979,
        1.0,
        0.8628107905387878
      ],
      "min": [
        -0.9962694644927979,
        -1.0,
        -0.8628107905387878
      ],
      "type": "VEC3"
    },
    {
      "bufferView": 3,
      "byteOffset": 83712,
      "componentType": 5126,
      "count": 36,
      "max": [
        0.8705882430076599,
        0.8705882430076599,
        0.8705882430076599,
        1.0
      ],
      "min": [
        0.8705882430076599,
        0.8705882430076599,
        0.8705882430076599,
        1.0
      ],
      "type": "VEC4"
    },
    {
      "bufferView": 1,
      "byteOffset": 79488,
      "componentType": 5126,
      "count": 36,
      "max": [
        5.474999904632568,
        -0.9333332777023315
      ],
      "min": [
        0.45952996611595154,
        -4.541666507720947
      ],
      "type": "VEC2"
    },
    {
      "bufferView": 0,
      "byteOffset": 18336,
      "componentType": 5125,
      "count": 60,
      "type": "SCALAR"
    },
    {
      "bufferView": 2,
      "byteOffset": 69984,
      "componentType": 5126,
      "count": 240,
      "max": [
        3.5500001907348633,
        2.200000047683716,
        3.760676383972168
      ],
      "min": [
        -4.921329021453857,
        -0.05000007152557373,
        0.5250000357627869
      ],
      "type": "VEC3"
    },
    {
      "bufferView": 2,
      "byteOffset": 72864,
      "componentType": 5126,
      "count": 240,
      "max": [
        1.0,
        1.0,
        1.0
      ],
      "min": [
        -1.0,
        -1.0,
        -0.8090041279792786
      ],
      "type": "VEC3"
    },
    {
      "bufferView": 3,
      "byteOffset": 84288,
      "componentType": 5126,
      "count": 240,
      "max": [
        1.0,
        2.2438739506469574e-06,
        0.5878031253814697,
        1.0
      ],
      "min": [
        -0.30901822447776794,
        -1.2022849205095554e-06,
        -1.0,
        -1.0
      ],
      "type": "VEC4"
    },
    {
      "bufferView": 3,
      "byteOffset": 88128,
      "componentType": 5126,
      "count": 240,
      "max": [
        0.9803921580314636,
        0.9803921580314636,
        0.9803921580314636,
        1.0
      ],
      "min": [
        0.886274516582489,
        0.886274516582489,
        0.886274516582489,
        1.0
      ],
      "type": "VEC4"
    },
    {
      "bufferView": 1,
      "byteOffset": 79776,
      "componentType": 5126,
      "count": 240,
      "max": [
        2.9583334922790527,
        4.133896827697754
      ],
      "min": [
        -4.101107597351074,
        -0.8333333730697632
      ],
      "type": "VEC2"
    },
    {
      "bufferView": 1,
      "byteOffset": 81696,
      "componentType": 5126,
      "count": 240,
      "max": [
        2.9583334922790527,
        4.133896827697754
      ],
      "min": [
        -4.101107597351074,
        -0.8333333730697632
      ],
      "type": "VEC2"
    },
    {
      "bufferView": 1,
      "byteOffset": 83616,
      "componentType": 5126,
      "count": 240,
      "max": [
        2.9583334922790527,
        4.133896827697754
      ],
      "min": [
        -4.101107597351074,
        -0.8333333730697632
      ],
      "type": "VEC2"
    },
    {
      "bufferView": 1,
      "byteOffset": 85536,
      "componentType": 5126,
      "count": 240,
      "max": [
        2.9583334922790527,
        4.133896827697754
      ],
      "min": [
        -4.101107597351074,
        -0.8333333730697632
      ],
      "type": "VEC2"
    },
    {
      "bufferView": 0,
      "byteOffset": 18576,
      "componentType": 5125,
      "count": 384,
      "type": "SCALAR"
    },
    {
      "bufferView": 2,
      "byteOffset": 75744,
      "componentType": 5126,
      "count": 200,
      "max": [
        -1.7000000476837158,
        2.86722469329834,
        3.938303232192993
      ],
      "min": [
        -5.100000381469727,
        0.0,
        1.0616967678070068
      ],
      "type": "VEC3"
    },
    {
      "bufferView": 2,
      "byteOffset": 78144,
      "componentType": 5126,
      "count": 200,
      "max": [
        1.0,
        1.0,
        1.0
      ],
      "min": [
        -1.0,
        -1.0,
        -1.0
      ],
      "type": "VEC3"
    },
    {
      "bufferView": 3,
      "byteOffset": 91968,
      "componentType": 5126,
      "count": 200,
      "max": [
        1.0,
        7.988796824065503e-07,
        1.854363631537126e-06,
        1.0
      ],
      "min": [
        0.0,
        -7.988796824065503e-07,
        -1.0,
        -1.0
      ],
      "type": "VEC4"
    },
    {
      "bufferView": 3,
      "byteOffset": 95168,
      "componentType": 5126,
      "count": 200,
      "max": [
        0.8470588326454163,
        0.8470588326454163,
        0.8470588326454163,
        1.0
      ],
      "min": [
        0.5490196347236633,
        0.5490196347236633,
        0.5490196347236633,
        1.0
      ],
      "type": "VEC4"
    },
    {
      "bufferView": 1,
      "byteOffset": 87456,
      "componentType": 5126,
      "count": 200,
      "max": [
        -0.884747326374054,
        4.281919479370117
      ],
      "min": [
        -4.250000476837158,
        -1.3893539905548096
      ],
      "type": "VEC2"
    },
    {
      "bufferView": 1,
      "byteOffset": 89056,
      "componentType": 5126,
      "count": 200,
      "max": [
        -0.884747326374054,
        4.281919479370117
      ],
      "min": [
        -4.250000476837158,
        -1.3893539905548096
      ],
      "type": "VEC2"
    },
    {
      "bufferView": 1,
      "byteOffset": 90656,
      "componentType": 5126,
      "count": 200,
      "max": [
        -0.884747326374054,
        4.281919479370117
      ],
      "min": [
        -4.250000476837158,
        -1.3893539905548096
      ],
      "type": "VEC2"
    },
    {
      "bufferView": 1,
      "byteOffset": 92256,
      "componentType": 5126,
      "count": 200,
      "max": [
        -0.884747326374054,
        4.281919479370117
      ],
      "min": [
        -4.250000476837158,
        -1.3893539905548096
      ],
      "type": "VEC2"
    },
    {
      "bufferView": 0,
      "byteOffset": 20112,
      "componentType": 5125,
      "count": 360,
      "type": "SCALAR"
    },
    {
      "bufferView": 2,
      "byteOffset": 80544,
      "componentType": 5126,
      "count": 1254,
      "max": [
        -1.9100000858306885,
        2.782224655151367,
        3.9000000953674316
      ],
      "min": [
        -4.889999866485596,
        0.002200007438659668,
        1.100000023841858
      ],
      "type": "VEC3"
    },
    {
      "bufferView": 2,
      "byteOffset": 95592,
      "componentType": 5126,
      "count": 1254,
      "max": [
        1.0,
        1.0,
        1.0
      ],
      "min": [
        -1.0,
        -1.0,
        -1.0
      ],
      "type": "VEC3"
    },
    {
      "bufferView": 3,
      "byteOffset": 98368,
      "componentType": 5126,
      "count": 1254,
      "max": [
        1.0,
        0.0,
        0.0,
        1.0
      ],
      "min": [
        0.0,
        0.0,
        -1.0,
        -1.0
      ],
      "type": "VEC4"
    },
    {
      "bufferView": 3,
      "byteOffset": 118432,
      "componentType": 5126,
      "count": 1254,
      "max": [
        1.0,
        1.0,
        1.0,
        1.0
      ],
      "min": [
        0.7215686440467834,
        0.7215686440467834,
        0.7215686440467834,
        1.0
      ],
      "type": "VEC4"
    },
    {
      "bufferView": 1,
      "byteOffset": 93856,
      "componentType": 5126,
      "count": 1254,
      "max": [
        -0.9166666865348816,
        4.143750190734863
      ],
      "min": [
        -4.074999809265137,
        -1.3185205459594727
      ],
      "type": "VEC2"
    },
    {
      "bufferView": 1,
      "byteOffset": 103888,
      "componentType": 5126,
      "count": 1254,
      "max": [
        -0.9166666865348816,
        4.143750190734863
      ],
      "min": [
        -4.074999809265137,
        -1.3185205459594727
      ],
      "type": "VEC2"
    },
    {
      "bufferView": 1,
      "byteOffset": 113920,
      "componentType": 5126,
      "count": 1254,
      "max": [
        -0.9166666865348816,
        4.143750190734863
      ],
      "min": [
        -4.074999809265137,
        -1.3185205459594727
      ],
      "type": "VEC2"
    },
    {
      "bufferView": 1,
      "byteOffset": 123952,
      "componentType": 5126,
      "count": 1254,
      "max": [
        -0.9166666865348816,
        4.143750190734863
      ],
      "min": [
        -4.074999809265137,
        -1.3185205459594727
      ],
      "type": "VEC2"
    },
    {
      "bufferView": 0,
      "byteOffset": 21552,
      "componentType": 5125,
      "count": 1878,
      "type": "SCALAR"
    },
    {
      "bufferView": 2,
      "byteOffset": 110640,
      "componentType": 5126,
      "count": 1296,
      "max": [
        5.934999942779541,
        2.2932627201080322,
        5.441999912261963
      ],
      "min": [
        -4.880000114440918,
        -0.24799960851669312,
        -0.29477691650390625
      ],
      "type": "VEC3"
    },
    {
      "bufferView": 2,
      "byteOffset": 126192,
      "componentType": 5126,
      "count": 1296,
      "max": [
        1.0,
        1.0,
        1.0
      ],
      "min": [
        -1.0,
        -1.0,
        -1.0
      ],
      "type": "VEC3"
    },
    {
      "bufferView": 3,
      "byteOffset": 138496,
      "componentType": 5126,
      "count": 1296,
      "max": [
        1.0,
        0.15639905631542206,
        0.7033268213272095,
        1.0
      ],
      "min": [
        -0.6984002590179443,
        -0.28229326009750366,
        -1.0,
        -1.0
      ],
      "type": "VEC4"
    },
    {
      "bufferView": 3,
      "byteOffset": 159232,
      "componentType": 5126,
      "count": 1296,
      "max": [
        1.0,
        1.0,
        1.0,
        1.0
      ],
      "min": [
        0.501960813999176,
        0.501960813999176,
        0.501960813999176,
        1.0
      ],
      "type": "VEC4"
    },
    {
      "bufferView": 1,
      "byteOffset": 133984,
      "componentType": 5126,
      "count": 1296,
      "max": [
        4.945833206176758,
        5.534999847412109
      ],
      "min": [
        -4.534999847412109,
        -0.9110522270202637
      ],
      "type": "VEC2"
    },
    {
      "bufferView": 1,
      "byteOffset": 144352,
      "componentType": 5126,
      "count": 1296,
      "max": [
        4.945833206176758,
        5.534999847412109
      ],
      "min": [
        -4.534999847412109,
        -0.9110522270202637
      ],
      "type": "VEC2"
    },
    {
      "bufferView": 1,
      "byteOffset": 154720,
      "componentType": 5126,
      "count": 1296,
      "max": [
        4.945833206176758,
        5.534999847412109
      ],
      "min": [
        -4.534999847412109,
        -0.9110522270202637
      ],
      "type": "VEC2"
    },
    {
      "bufferView": 1,
      "byteOffset": 165088,
      "componentType": 5126,
      "count": 1296,
      "max": [
        4.945833206176758,
        5.534999847412109
      ],
      "min": [
        -4.534999847412109,
        -0.9110522270202637
      ],
      "type": "VEC2"
    },
    {
      "bufferView": 0,
      "byteOffset": 29064,
      "componentType": 5125,
      "count": 1944,
      "type": "SCALAR"
    },
    {
      "bufferView": 2,
      "byteOffset": 141744,
      "componentType": 5126,
      "count": 96,
      "max": [
        3.679999828338623,
        2.1499998569488525,
        4.490189552307129
      ],
      "min": [
        -4.099999904632568,
        0.24094417691230774,
        0.49782440066337585
      ],
      "type": "VEC3"
    },
    {
      "bufferView": 2,
      "byteOffset": 142896,
      "componentType": 5126,
      "count": 96,
      "max": [
        1.0,
        1.0,
        1.0
      ],
      "min": [
        -1.0,
        -1.0,
        -1.0
      ],
      "type": "VEC3"
    },
    {
      "bufferView": 3,
      "byteOffset": 179968,
      "componentType": 5126,
      "count": 96,
      "max": [
        1.0,
        0.0,
        0.06979729235172272,
        1.0
      ],
      "min": [
        0.0,
        -5.055773044659873e-07,
        -1.0,
        -1.0
      ],
      "type": "VEC4"
    },
    {
      "bufferView": 3,
      "byteOffset": 181504,
      "componentType": 5126,
      "count": 96,
      "max": [
        0.9529411792755127,
        0.9529411792755127,
        0.9529411792755127,
        1.0
      ],
      "min": [
        0.8392156958580017,
        0.8392156958580017,
        0.8392156958580017,
        1.0
      ],
      "type": "VEC4"
    },
    {
      "bufferView": 1,
      "byteOffset": 175456,
      "componentType": 5126,
      "count": 96,
      "max": [
        3.066666603088379,
        4.741824626922607
      ],
      "min": [
        -3.7418246269226074,
        -0.7916665077209473
      ],
      "type": "VEC2"
    },
    {
      "bufferView": 1,
      "byteOffset": 176224,
      "componentType": 5126,
      "count": 96,
      "max": [
        3.066666603088379,
        4.741824626922607
      ],
      "min": [
        -3.7418246269226074,
        -0.7916665077209473
      ],
      "type": "VEC2"
    },
    {
      "bufferView": 1,
      "byteOffset": 176992,
      "componentType": 5126,
      "count": 96,
      "max": [
        3.066666603088379,
        4.741824626922607
      ],
      "min": [
        -3.7418246269226074,
        -0.7916665077209473
      ],
      "type": "VEC2"
    },
    {
      "bufferView": 1,
      "byteOffset": 177760,
      "componentType": 5126,
      "count": 96,
      "max": [
        3.066666603088379,
        4.741824626922607
      ],
      "min": [
        -3.7418246269226074,
        -0.7916665077209473
      ],
      "type": "VEC2"
    },
    {
      "bufferView": 0,
      "byteOffset": 36840,
      "componentType": 5125,
      "count": 144,
      "type": "SCALAR"
    },
    {
      "bufferView": 2,
      "byteOffset": 144048,
      "componentType": 5126,
      "count": 378,
      "max": [
        3.0850000381469727,
        2.067631483078003,
        1.934999942779541
      ],
      "min": [
        -4.110676288604736,
        0.0,
        0.5399999618530273
      ],
      "type": "VEC3"
    },
    {
      "bufferView": 2,
      "byteOffset": 148584,
      "componentType": 5126,
      "count": 378,
      "max": [
        1.0,
        1.0,
        0.999846875667572
      ],
      "min": [
        -1.0,
        -1.0,
        -0.999846875667572
      ],
      "type": "VEC3"
    },
    {
      "bufferView": 3,
      "byteOffset": 183040,
      "componentType": 5126,
      "count": 378,
      "max": [
        1.0,
        3.0928879368730122e-06,
        0.642818808555603,
        1.0
      ],
      "min": [
        -0.500014066696167,
        -3.0928879368730122e-06,
        -1.0,
        -1.0
      ],
      "type": "VEC4"
    },
    {
      "bufferView": 3,
      "byteOffset": 189088,
      "componentType": 5126,
      "count": 378,
      "max": [
        0.9843137264251709,
        0.9843137264251709,
        0.9843137264251709,
        1.0
      ],
      "min": [
        0.7960784435272217,
        0.7960784435272217,
        0.7960784435272217,
        1.0
      ],
      "type": "VEC4"
    },
    {
      "bufferView": 1,
      "byteOffset": 178528,
      "componentType": 5126,
      "count": 378,
      "max": [
        2.570833444595337,
        2.589583396911621
      ],
      "min": [
        -3.4255635738372803,
        -0.7230262756347656
      ],
      "type": "VEC2"
    },
    {
      "bufferView": 1,
      "byteOffset": 181552,
      "componentType": 5126,
      "count": 378,
      "max": [
        2.570833444595337,
        2.589583396911621
      ],
      "min": [
        -3.4255635738372803,
        -0.7230262756347656
      ],
      "type": "VEC2"
    },
    {
      "bufferView": 1,
      "byteOffset": 184576,
      "componentType": 5126,
      "count": 378,
      "max": [
        2.570833444595337,
        2.589583396911621
      ],
      "min": [
        -3.4255635738372803,
        -0.7230262756347656
      ],
      "type": "VEC2"
    },
    {
      "bufferView": 1,
      "byteOffset": 187600,
      "componentType": 5126,
      "count": 378,
      "max": [
        2.570833444595337,
        2.589583396911621
      ],
      "min": [
        -3.4255635738372803,
        -0.7230262756347656
      ],
      "type": "VEC2"
    },
    {
      "bufferView": 0,
      "byteOffset": 37416,
      "componentType": 5125,
      "count": 612,
      "type": "SCALAR"
    },
    {
      "bufferView": 2,
      "byteOffset": 153120,
      "componentType": 5126,
      "count": 156,
      "max": [
        -1.8806971311569214,
        1.2549999952316284,
        3.7950000762939453
      ],
      "min": [
        -2.940000057220459,
        0.12999999523162842,
        0.5249999761581421
      ],
      "type": "VEC3"
    },
    {
      "bufferView": 2,
      "byteOffset": 154992,
      "componentType": 5126,
      "count": 156,
      "max": [
        1.0,
        1.0,
        1.0
      ],
      "min": [
        -1.0,
        -1.0,
        -1.0
      ],
      "type": "VEC3"
    },
    {
      "bufferView": 3,
      "byteOffset": 195136,
      "componentType": 5126,
      "count": 156,
      "max": [
        1.0,
        0.0,
        0.6428168416023254,
        1.0
      ],
      "min": [
        -0.5000110864639282,
        0.0,
        -1.0,
        -1.0
      ],
      "type": "VEC4"
    },
    {
      "bufferView": 3,
      "byteOffset": 197632,
      "componentType": 5126,
      "count": 156,
      "max": [
        0.9882352948188782,
        0.9882352948188782,
        0.9882352948188782,
        1.0
      ],
      "min": [
        0.8745098114013672,
        0.8745098114013672,
        0.8745098114013672,
        1.0
      ],
      "type": "VEC4"
    },
    {
      "bufferView": 1,
      "byteOffset": 190624,
      "componentType": 5126,
      "count": 156,
      "max": [
        -0.5106110572814941,
        4.162500381469727
      ],
      "min": [
        -3.1625001430511475,
        -0.04583334922790527
      ],
      "type": "VEC2"
    },
    {
      "bufferView": 1,
      "byteOffset": 191872,
      "componentType": 5126,
      "count": 156,
      "max": [
        -0.5106110572814941,
        4.162500381469727
      ],
      "min": [
        -3.1625001430511475,
        -0.04583334922790527
      ],
      "type": "VEC2"
    },
    {
      "bufferView": 1,
      "byteOffset": 193120,
      "componentType": 5126,
      "count": 156,
      "max": [
        -0.5106110572814941,
        4.162500381469727
      ],
      "min": [
        -3.1625001430511475,
        -0.04583334922790527
      ],
      "type": "VEC2"
    },
    {
      "bufferView": 1,
      "byteOffset": 194368,
      "componentType": 5126,
      "count": 156,
      "max": [
        -0.5106110572814941,
        4.162500381469727
      ],
      "min": [
        -3.1625001430511475,
        -0.04583334922790527
      ],
      "type": "VEC2"
    },
    {
      "bufferView": 0,
      "byteOffset": 39864,
      "componentType": 5125,
      "count": 264,
      "type": "SCALAR"
    },
    {
      "bufferView": 2,
      "byteOffset": 156864,
      "componentType": 5126,
      "count": 280,
      "max": [
        3.2249999046325684,
        1.9900000095367432,
        1.9998657703399658
      ],
      "min": [
        1.1749999523162842,
        0.27804338932037354,
        1.6497195959091187
      ],
      "type": "VEC3"
    },
    {
      "bufferView": 2,
      "byteOffset": 160224,
      "componentType": 5126,
      "count": 280,
      "max": [
        0.2754027247428894,
        0.1601937711238861,
        0.9999605417251587
      ],
      "min": [
        -0.33248424530029297,
        -0.18619228899478912,
        0.9421553015708923
      ],
      "type": "VEC3"
    },
    {
      "bufferView": 3,
      "byteOffset": 200128,
      "componentType": 5126,
      "count": 280,
      "max": [
        1.0,
        1.0,
        1.0,
        1.0
      ],
      "min": [
        0.8039215803146362,
        0.8039215803146362,
        0.8039215803146362,
        1.0
      ],
      "type": "VEC4"
    },
    {
      "bufferView": 1,
      "byteOffset": 195616,
      "componentType": 5126,
      "count": 280,
      "max": [
        2.6875,
        0.7682971954345703
      ],
      "min": [
        0.9791666269302368,
        -0.6583333015441895
      ],
      "type": "VEC2"
    },
    {
      "bufferView": 0,
      "byteOffset": 40920,
      "componentType": 5125,
      "count": 420,
      "type": "SCALAR"
    },
    {
      "bufferView": 2,
      "byteOffset": 163584,
      "componentType": 5126,
      "count": 294,
      "max": [
        5.418474197387695,
        1.5800000429153442,
        5.550000190734863
      ],
      "min": [
        3.9815256595611572,
        1.0206526517868042,
        1.9500000476837158
      ],
      "type": "VEC3"
    },
    {
      "bufferView": 2,
      "byteOffset": 167112,
      "componentType": 5126,
      "count": 294,
      "max": [
        0.945671796798706,
        0.9788436889648438,
        1.0
      ],
      "min": [
        -0.945671796798706,
        -0.9999672174453735,
        -1.0
      ],
      "type": "VEC3"
    },
    {
      "bufferView": 3,
      "byteOffset": 204608,
      "componentType": 5126,
      "count": 294,
      "max": [
        1.0,
        0.6979340314865112,
        0.006808541249483824,
        1.0
      ],
      "min": [
        -0.45093053579330444,
        -0.6979339718818665,
        -0.9998802542686462,
        -1.0
      ],
      "type": "VEC4"
    },
    {
      "bufferView": 3,
      "byteOffset": 209312,
      "componentType": 5126,
      "count": 294,
      "max": [
        0.8823529481887817,
        0.8823529481887817,
        0.8823529481887817,
        1.0
      ],
      "min": [
        0.8823529481887817,
        0.8823529481887817,
        0.8823529481887817,
        1.0
      ],
      "type": "VEC4"
    },
    {
      "bufferView": 1,
      "byteOffset": 197856,
      "componentType": 5126,
      "count": 294,
      "max": [
        4.515395164489746,
        5.625
      ],
      "min": [
        -4.625,
        -0.31666672229766846
      ],
      "type": "VEC2"
    },
    {
      "bufferView": 1,
      "byteOffset": 200208,
      "componentType": 5126,
      "count": 294,
      "max": [
        4.515395164489746,
        5.625
      ],
      "min": [
        -4.625,
        -0.31666672229766846
      ],
      "type": "VEC2"
    },
    {
      "bufferView": 1,
      "byteOffset": 202560,
      "componentType": 5126,
      "count": 294,
      "max": [
        4.515395164489746,
        5.625
      ],
      "min": [
        -4.625,
        -0.31666672229766846
      ],
      "type": "VEC2"
    },
    {
      "bufferView": 1,
      "byteOffset": 204912,
      "componentType": 5126,
      "count": 294,
      "max": [
        4.515395164489746,
        5.625
      ],
      "min": [
        -4.625,
        -0.31666672229766846
      ],
      "type": "VEC2"
    },
    {
      "bufferView": 0,
      "byteOffset": 42600,
      "componentType": 5125,
      "count": 450,
      "type": "SCALAR"
    }
  ],
  "asset": {
    "extras": {
      "author": "floor2727 (https://sketchfab.com/floor2727)",
      "license": "CC-BY-4.0 (http://creativecommons.org/licenses/by/4.0/)",
      "source": "https://sketchfab.com/3d-models/river-jetty-and-boatyard-9cbeb5375253485cb761bb807681a7c2",
      "title": "river jetty and boatyard"
    },
    "generator": "Sketchfab-0.13.0",
    "version": "2.0"
  },
  "bufferViews": [
    {
      "buffer": 0,
      "byteLength": 44400,
      "name": "floatBufferViews",
      "target": 34963
    },
    {
      "buffer": 0,
      "byteLength": 207264,
      "byteOffset": 44400,
      "byteStride": 8,
      "name": "floatBufferViews",
      "target": 34962
    },
    {
      "buffer": 0,
      "byteLength": 170640,
      "byteOffset": 251664,
      "byteStride": 12,
      "name": "floatBufferViews",
      "target": 34962
    },
    {
      "buffer": 0,
      "byteLength": 214016,
      "byteOffset": 422304,
      "byteStride": 16,
      "name": "floatBufferViews",
      "target": 34962
    }
  ],
  "buffers": [
    {
      "byteLength": 636320,
      "uri": "scene.bin"
    }
  ],
  "images": [
    {
      "uri": "textures/jetty_plank_baseColor.jpeg"
    },
    {
      "uri": "textures/jetty_plank_metallicRoughness.png"
    },
    {
      "uri": "textures/jetty_plank_normal.jpeg"
    },
    {
      "uri": "textures/jetty_metal_baseColor.jpeg"
    },
    {
      "uri": "textures/jetty_metal_metallicRoughness.png"
    },
    {
      "uri": "textures/jetty_metal_normal.jpeg"
    }
  ],
  "materials": [
    {
      "doubleSided": true,
      "name": "jetty_plank",
      "normalTexture": {
        "index": 2
      },
      "pbrMetallicRoughness": {
        "baseColorFactor": [
          0.135453,
          0.135453,
          0.135453,
          1.0
        ],
        "baseColorTexture": {
          "index": 0
        },
        "metallicFactor": 0.0,
        "metallicRoughnessTexture": {
          "index": 1
        }
      }
    },
    {
      "doubleSided": true,
      "name": "jetty_plankWet",
      "normalTexture": {
        "index": 2
      },
      "pbrMetallicRoughness": {
        "baseColorFactor": [
          0.0825169,
          0.0825169,
          0.0825169,
          1.0
        ],
        "baseColorTexture": {
          "index": 0
        },
        "metallicFactor": 0.0,
        "metallicRoughnessTexture": {
          "index": 1
        }
      }
    },
    {
      "doubleSided": true,
      "name": "jetty_beam",
      "normalTexture": {
        "index": 2
      },
      "pbrMetallicRoughness": {
        "baseColorFactor": [
          0.0601092,
          0.0601092,
          0.0601092,
          1.0
        ],
        "baseColorTexture": {
          "index": 0
        },
        "metallicFactor": 0.0,
        "metallicRoughnessTexture": {
          "index": 1
        }
      }
    },
    {
      "doubleSided": true,
      "name": "jetty_pile",
      "normalTexture": {
        "index": 2
      },
      "pbrMetallicRoughness": {
        "baseColorFactor": [
          0.0444478,
          0.0444478,
          0.0444478,
          1.0
        ],
        "baseColorTexture": {
          "index": 0
        },
        "metallicFactor": 0.0,
        "metallicRoughnessTexture": {
          "index": 1
        }
      }
    },
    {
      "doubleSided": true,
      "name": "jetty_stain",
      "normalTexture": {
        "index": 2
      },
      "pbrMetallicRoughness": {
        "baseColorFactor": [
          0.0566099,
          0.0566099,
          0.0566099,
          1.0
        ],
        "baseColorTexture": {
          "index": 0
        },
        "metallicFactor": 0.0,
        "metallicRoughnessTexture": {
          "index": 1
        }
      }
    },
    {
      "doubleSided": true,
      "name": "jetty_metal",
      "normalTexture": {
        "index": 5
      },
      "pbrMetallicRoughness": {
        "baseColorFactor": [
          0.0570942,
          0.0570942,
          0.0570942,
          1.0
        ],
        "baseColorTexture": {
          "index": 3
        },
        "metallicFactor": 0.0,
        "metallicRoughnessTexture": {
          "index": 4
        }
      }
    },
    {
      "doubleSided": true,
      "name": "jetty_rope",
      "pbrMetallicRoughness": {
        "baseColorFactor": [
          0.48515,
          0.366253,
          0.194618,
          1.0
        ],
        "metallicFactor": 0.0,
        "roughnessFactor": 0.88
      }
    },
    {
      "doubleSided": true,
      "name": "jetty_glass",
      "pbrMetallicRoughness": {
        "baseColorFactor": [
          1.0,
          0.686685,
          0.351533,
          1.0
        ],
        "metallicFactor": 0.0,
        "roughnessFactor": 0.88
      }
    },
    {
      "doubleSided": true,
      "name": "shore_pile",
      "normalTexture": {
        "index": 2
      },
      "pbrMetallicRoughness": {
        "baseColorFactor": [
          0.0444478,
          0.0444478,
          0.0444478,
          1.0
        ],
        "baseColorTexture": {
          "index": 0
        },
        "metallicFactor": 0.0,
        "metallicRoughnessTexture": {
          "index": 1
        }
      }
    },
    {
      "doubleSided": true,
      "name": "shore_roof",
      "normalTexture": {
        "index": 2
      },
      "pbrMetallicRoughness": {
        "baseColorFactor": [
          0.044784,
          0.044784,
          0.044784,
          1.0
        ],
        "baseColorTexture": {
          "index": 0
        },
        "metallicFactor": 0.0,
        "metallicRoughnessTexture": {
          "index": 1
        }
      }
    },
    {
      "doubleSided": true,
      "name": "shore_wall",
      "normalTexture": {
        "index": 2
      },
      "pbrMetallicRoughness": {
        "baseColorFactor": [
          0.0941178,
          0.0941178,
          0.0941178,
          1.0
        ],
        "baseColorTexture": {
          "index": 0
        },
        "metallicFactor": 0.0,
        "metallicRoughnessTexture": {
          "index": 1
        }
      }
    },
    {
      "doubleSided": true,
      "name": "shore_beam",
      "normalTexture": {
        "index": 2
      },
      "pbrMetallicRoughness": {
        "baseColorFactor": [
          0.0601092,
          0.0601092,
          0.0601092,
          1.0
        ],
        "baseColorTexture": {
          "index": 0
        },
        "metallicFactor": 0.0,
        "metallicRoughnessTexture": {
          "index": 1
        }
      }
    },
    {
      "doubleSided": true,
      "name": "shore_plank",
      "normalTexture": {
        "index": 2
      },
      "pbrMetallicRoughness": {
        "baseColorFactor": [
          0.135453,
          0.135453,
          0.135453,
          1.0
        ],
        "baseColorTexture": {
          "index": 0
        },
        "metallicFactor": 0.0,
        "metallicRoughnessTexture": {
          "index": 1
        }
      }
    },
    {
      "doubleSided": true,
      "name": "shore_crate",
      "normalTexture": {
        "index": 2
      },
      "pbrMetallicRoughness": {
        "baseColorFactor": [
          0.173819,
          0.173819,
          0.173819,
          1.0
        ],
        "baseColorTexture": {
          "index": 0
        },
        "metallicFactor": 0.0,
        "metallicRoughnessTexture": {
          "index": 1
        }
      }
    },
    {
      "doubleSided": true,
      "name": "shore_metal",
      "normalTexture": {
        "index": 5
      },
      "pbrMetallicRoughness": {
        "baseColorFactor": [
          0.0570942,
          0.0570942,
          0.0570942,
          1.0
        ],
        "baseColorTexture": {
          "index": 3
        },
        "metallicFactor": 0.0,
        "metallicRoughnessTexture": {
          "index": 4
        }
      }
    },
    {
      "doubleSided": true,
      "name": "shore_rope",
      "pbrMetallicRoughness": {
        "baseColorFactor": [
          0.48515,
          0.366253,
          0.194618,
          1.0
        ],
        "metallicFactor": 0.0,
        "roughnessFactor": 0.88
      }
    },
    {
      "doubleSided": true,
      "name": "shore_hull",
      "normalTexture": {
        "index": 2
      },
      "pbrMetallicRoughness": {
        "baseColorFactor": [
          0.144072,
          0.144072,
          0.144072,
          1.0
        ],
        "baseColorTexture": {
          "index": 0
        },
        "metallicFactor": 0.0,
        "metallicRoughnessTexture": {
          "index": 1
        }
      }
    }
  ],
  "meshes": [
    {
      "name": "Object_0",
      "primitives": [
        {
          "attributes": {
            "COLOR_0": 3,
            "NORMAL": 1,
            "POSITION": 0,
            "TANGENT": 2,
            "TEXCOORD_0": 4,
            "TEXCOORD_1": 5,
            "TEXCOORD_2": 6,
            "TEXCOORD_3": 7
          },
          "indices": 8,
          "material": 0,
          "mode": 4
        }
      ]
    },
    {
      "name": "Object_1",
      "primitives": [
        {
          "attributes": {
            "COLOR_0": 12,
            "NORMAL": 10,
            "POSITION": 9,
            "TANGENT": 11,
            "TEXCOORD_0": 13,
            "TEXCOORD_1": 14,
            "TEXCOORD_2": 15,
            "TEXCOORD_3": 16
          },
          "indices": 17,
          "material": 1,
          "mode": 4
        }
      ]
    },
    {
      "name": "Object_2",
      "primitives": [
        {
          "attributes": {
            "COLOR_0": 21,
            "NORMAL": 19,
            "POSITION": 18,
            "TANGENT": 20,
            "TEXCOORD_0": 22,
            "TEXCOORD_1": 23,
            "TEXCOORD_2": 24,
            "TEXCOORD_3": 25
          },
          "indices": 26,
          "material": 2,
          "mode": 4
        }
      ]
    },
    {
      "name": "Object_3",
      "primitives": [
        {
          "attributes": {
            "COLOR_0": 30,
            "NORMAL": 28,
            "POSITION": 27,
            "TANGENT": 29,
            "TEXCOORD_0": 31,
            "TEXCOORD_1": 32,
            "TEXCOORD_2": 33,
            "TEXCOORD_3": 34
          },
          "indices": 35,
          "material": 3,
          "mode": 4
        }
      ]
    },
    {
      "name": "Object_4",
      "primitives": [
        {
          "attributes": {
            "COLOR_0": 39,
            "NORMAL": 37,
            "POSITION": 36,
            "TANGENT": 38,
            "TEXCOORD_0": 40,
            "TEXCOORD_1": 41,
            "TEXCOORD_2": 42,
            "TEXCOORD_3": 43
          },
          "indices": 44,
          "material": 4,
          "mode": 4
        }
      ]
    },
    {
      "name": "Object_5",
      "primitives": [
        {
          "attributes": {
            "COLOR_0": 48,
            "NORMAL": 46,
            "POSITION": 45,
            "TANGENT": 47,
            "TEXCOORD_0": 49,
            "TEXCOORD_1": 50,
            "TEXCOORD_2": 51,
            "TEXCOORD_3": 52
          },
          "indices": 53,
          "material": 5,
          "mode": 4
        }
      ]
    },
    {
      "name": "Object_6",
      "primitives": [
        {
          "attributes": {
            "COLOR_0": 56,
            "NORMAL": 55,
            "POSITION": 54,
            "TEXCOORD_0": 57
          },
          "indices": 58,
          "material": 6,
          "mode": 4
        }
      ]
    },
    {
      "name": "Object_7",
      "primitives": [
        {
          "attributes": {
            "COLOR_0": 61,
            "NORMAL": 60,
            "POSITION": 59,
            "TEXCOORD_0": 62
          },
          "indices": 63,
          "material": 7,
          "mode": 4
        }
      ]
    },
    {
      "name": "Object_8",
      "primitives": [
        {
          "attributes": {
            "COLOR_0": 67,
            "NORMAL": 65,
            "POSITION": 64,
            "TANGENT": 66,
            "TEXCOORD_0": 68,
            "TEXCOORD_1": 69,
            "TEXCOORD_2": 70,
            "TEXCOORD_3": 71
          },
          "indices": 72,
          "material": 8,
          "mode": 4
        }
      ]
    },
    {
      "name": "Object_9",
      "primitives": [
        {
          "attributes": {
            "COLOR_0": 76,
            "NORMAL": 74,
            "POSITION": 73,
            "TANGENT": 75,
            "TEXCOORD_0": 77,
            "TEXCOORD_1": 78,
            "TEXCOORD_2": 79,
            "TEXCOORD_3": 80
          },
          "indices": 81,
          "material": 9,
          "mode": 4
        }
      ]
    },
    {
      "name": "Object_10",
      "primitives": [
        {
          "attributes": {
            "COLOR_0": 85,
            "NORMAL": 83,
            "POSITION": 82,
            "TANGENT": 84,
            "TEXCOORD_0": 86,
            "TEXCOORD_1": 87,
            "TEXCOORD_2": 88,
            "TEXCOORD_3": 89
          },
          "indices": 90,
          "material": 10,
          "mode": 4
        }
      ]
    },
    {
      "name": "Object_11",
      "primitives": [
        {
          "attributes": {
            "COLOR_0": 94,
            "NORMAL": 92,
            "POSITION": 91,
            "TANGENT": 93,
            "TEXCOORD_0": 95,
            "TEXCOORD_1": 96,
            "TEXCOORD_2": 97,
            "TEXCOORD_3": 98
          },
          "indices": 99,
          "material": 11,
          "mode": 4
        }
      ]
    },
    {
      "name": "Object_12",
      "primitives": [
        {
          "attributes": {
            "COLOR_0": 103,
            "NORMAL": 101,
            "POSITION": 100,
            "TANGENT": 102,
            "TEXCOORD_0": 104,
            "TEXCOORD_1": 105,
            "TEXCOORD_2": 106,
            "TEXCOORD_3": 107
          },
          "indices": 108,
          "material": 12,
          "mode": 4
        }
      ]
    },
    {
      "name": "Object_13",
      "primitives": [
        {
          "attributes": {
            "COLOR_0": 112,
            "NORMAL": 110,
            "POSITION": 109,
            "TANGENT": 111,
            "TEXCOORD_0": 113,
            "TEXCOORD_1": 114,
            "TEXCOORD_2": 115,
            "TEXCOORD_3": 116
          },
          "indices": 117,
          "material": 13,
          "mode": 4
        }
      ]
    },
    {
      "name": "Object_14",
      "primitives": [
        {
          "attributes": {
            "COLOR_0": 121,
            "NORMAL": 119,
            "POSITION": 118,
            "TANGENT": 120,
            "TEXCOORD_0": 122,
            "TEXCOORD_1": 123,
            "TEXCOORD_2": 124,
            "TEXCOORD_3": 125
          },
          "indices": 126,
          "material": 14,
          "mode": 4
        }
      ]
    },
    {
      "name": "Object_15",
      "primitives": [
        {
          "attributes": {
            "COLOR_0": 129,
            "NORMAL": 128,
            "POSITION": 127,
            "TEXCOORD_0": 130
          },
          "indices": 131,
          "material": 15,
          "mode": 4
        }
      ]
    },
    {
      "name": "Object_16",
      "primitives": [
        {
          "attributes": {
            "COLOR_0": 135,
            "NORMAL": 133,
            "POSITION": 132,
            "TANGENT": 134,
            "TEXCOORD_0": 136,
            "TEXCOORD_1": 137,
            "TEXCOORD_2": 138,
            "TEXCOORD_3": 139
          },
          "indices": 140,
          "material": 16,
          "mode": 4
        }
      ]
    }
  ],
  "nodes": [
    {
      "children": [
        1
      ],
      "matrix": [
        1.0,
        0.0,
        0.0,
        0.0,
        0.0,
        2.220446049250313e-16,
        -1.0,
        0.0,
        0.0,
        1.0,
        2.220446049250313e-16,
        0.0,
        0.0,
        0.0,
        0.0,
        1.0
      ],
      "name": "Sketchfab_model"
    },
    {
      "children": [
        2
      ],
      "name": "root"
    },
    {
      "children": [
        3,
        12
      ],
      "matrix": [
        1.0,
        0.0,
        0.0,
        0.0,
        0.0,
        2.220446049250313e-16,
        1.0,
        0.0,
        0.0,
        -1.0,
        2.220446049250313e-16,
        0.0,
        0.0,
        0.0,
        0.0,
        1.0
      ],
      "name": "GLTF_SceneRootNode"
    },
    {
      "children": [
        4,
        5,
        6,
        7,
        8,
        9,
        10,
        11
      ],
      "name": "jetty_0"
    },
    {
      "mesh": 0,
      "name": "Object_4"
    },
    {
      "mesh": 1,
      "name": "Object_5"
    },
    {
      "mesh": 2,
      "name": "Object_6"
    },
    {
      "mesh": 3,
      "name": "Object_7"
    },
    {
      "mesh": 4,
      "name": "Object_8"
    },
    {
      "mesh": 5,
      "name": "Object_9"
    },
    {
      "mesh": 6,
      "name": "Object_10"
    },
    {
      "mesh": 7,
      "name": "Object_11"
    },
    {
      "children": [
        13,
        14,
        15,
        16,
        17,
        18,
        19,
        20,
        21
      ],
      "name": "shore_1"
    },
    {
      "mesh": 8,
      "name": "Object_13"
    },
    {
      "mesh": 9,
      "name": "Object_14"
    },
    {
      "mesh": 10,
      "name": "Object_15"
    },
    {
      "mesh": 11,
      "name": "Object_16"
    },
    {
      "mesh": 12,
      "name": "Object_17"
    },
    {
      "mesh": 13,
      "name": "Object_18"
    },
    {
      "mesh": 14,
      "name": "Object_19"
    },
    {
      "mesh": 15,
      "name": "Object_20"
    },
    {
      "mesh": 16,
      "name": "Object_21"
    }
  ],
  "samplers": [
    {
      "magFilter": 9729,
      "minFilter": 9987,
      "wrapS": 10497,
      "wrapT": 10497
    }
  ],
  "scene": 0,
  "scenes": [
    {
      "name": "Sketchfab_Scene",
      "nodes": [
        0
      ]
    }
  ],
  "textures": [
    {
      "sampler": 0,
      "source": 0
    },
    {
      "sampler": 0,
      "source": 1
    },
    {
      "sampler": 0,
      "source": 2
    },
    {
      "sampler": 0,
      "source": 3
    },
    {
      "sampler": 0,
      "source": 4
    },
    {
      "sampler": 0,
      "source": 5
    }
  ]
}
