{
  "accessors": [
    {
      "bufferView": 2,
      "componentType": 5126,
      "count": 747,
      "max": [
        76.28947448730469,
        128.0808563232422,
        153.08729553222656
      ],
      "min": [
        -76.2762222290039,
        -128.07925415039063,
        -1.8958040475845337
      ],
      "type": "VEC3"
    },
    {
      "bufferView": 2,
      "byteOffset": 8964,
      "componentType": 5126,
      "count": 747,
      "max": [
        0.9995906949043274,
        0.9999414682388306,
        0.9999696016311646
      ],
      "min": [
        -0.9995221495628357,
        -1.0,
        -0.9999704360961914
      ],
      "type": "VEC3"
    },
    {
      "bufferView": 1,
      "componentType": 5126,
      "count": 747,
      "max": [
        0.9990000128746033,
        0.9943000078201294
      ],
      "min": [
        0.0032999999821186066,
        0.01510000042617321
      ],
      "type": "VEC2"
    },
    {
      "bufferView": 0,
      "componentType": 5125,
      "count": 1872,
      "type": "SCALAR"
    }
  ],
  "asset": {
    "extras": {
      "author": "meng5142 (https://sketchfab.com/meng5142)",
      "license": "CC-BY-4.0 (http://creativecommons.org/licenses/by/4.0/)",
      "source": "https://sketchfab.com/3d-models/trap-woodenspike-reject-the-horse-50435d5bf6d04814a40b9502b52eb124",
      "title": "Trap_WoodenSpike reject the horse"
    },
    "generator": "Sketchfab-14.33.0",
    "version": "2.0"
  },
  "bufferViews": [
    {
      "buffer": 0,
      "byteLength": 7488,
      "name": "floatBufferViews",
      "target": 34963
    },
    {
      "buffer": 0,
      "byteLength": 5976,
      "byteOffset": 7488,
      "byteStride": 8,
      "name": "floatBufferViews",
      "target": 34962
    },
    {
      "buffer": 0,
      "byteLength": 17928,
      "byteOffset": 13464,
      "byteStride": 12,
      "name": "floatBufferViews",
      "target": 34962
    }
  ],
  "buffers": [
    {
      "byteLength": 31392,
      "uri": "scene.bin"
    }
  ],
  "images": [
    {
      "uri": "textures/Trap_WoodenSpike_CM_Mat_baseColor.png"
    }
  ],
  "materials": [
    {
      "doubleSided": true,
      "name": "Trap_WoodenSpike_CM_Mat",
      "pbrMetallicRoughness": {
        "baseColorTexture": {
          "index": 0
        },
        "metallicFactor": 0.0,
        "roughnessFactor": 0.8434915419926713
      }
    }
  ],
  "meshes": [
    {
      "name": "Object_0",
      "primitives": [
        {
          "attributes": {
            "NORMAL": 1,
            "POSITION": 0,
            "TEXCOORD_0": 2
          },
          "indices": 3,
          "material": 0,
          "mode": 4
        }
      ]
    }
  ],
  "nodes": [
    {
      "children": [
        1
      ],
      "matrix": [
        -2.220446049250313e-16,
        2.220446049250313e-16,
        -1.0,
        0.0,
        -1.0,
        -4.930380657631324e-32,
        2.220446049250313e-16,
        0.0,
        0.0,
        1.0,
        2.220446049250313e-16,
        0.0,
        0.0,
        0.0,
        0.0,
        1.0
      ],
      "name": "Sketchfab_model"
    },
    {
      "children": [
        2
      ],
      "name": "Trap_WoodenSpike..obj.cleaner.materialmerger.gles"
    },
    {
      "mesh": 0,
      "name": "Object_2"
    }
  ],
  "samplers": [
    {
      "magFilter": 9729,
      "minFilter": 9987,
      "wrapS": 10497,
      "wrapT": 10497
    }
  ],
  "scene": 0,
  "scenes": [
    {
      "name": "Sketchfab_Scene",
      "nodes": [
        0
      ]
    }
  ],
  "textures": [
    {
      "sampler": 0,
      "source": 0
    }
  ]
}
