{
  "accessors": [
    {
      "bufferView": 3,
      "componentType": 5126,
      "count": 3325,
      "max": [
        0.4368000030517578,
        0.4116300046443939,
        1.5696200132369995
      ],
      "min": [
        -0.4148299992084503,
        -0.25255998969078064,
        0.34332001209259033
      ],
      "type": "VEC3"
    },
    {
      "bufferView": 3,
      "byteOffset": 39900,
      "componentType": 5126,
      "count": 3325,
      "max": [
        0.9998385906219482,
        0.9999935030937195,
        0.999934196472168
      ],
      "min": [
        -0.9998177289962769,
        -0.999997079372406,
        -0.999934196472168
      ],
      "type": "VEC3"
    },
    {
      "bufferView": 2,
      "componentType": 5126,
      "count": 3325,
      "max": [
        0.6634399890899658,
        0.9845200181007385
      ],
      "min": [
        0.4301399886608124,
        0.8226100206375122
      ],
      "type": "VEC2"
    },
    {
      "bufferView": 1,
      "componentType": 5125,
      "count": 19632,
      "type": "SCALAR"
    },
    {
      "bufferView": 3,
      "byteOffset": 79800,
      "componentType": 5126,
      "count": 782,
      "max": [
        0.4607999920845032,
        0.027540000155568123,
        1.030500054359436
      ],
      "min": [
        0.4068000018596649,
        -0.046950001269578934,
        0.9560099840164185
      ],
      "type": "VEC3"
    },
    {
      "bufferView": 3,
      "byteOffset": 89184,
      "componentType": 5126,
      "count": 782,
      "max": [
        0.9956755042076111,
        0.9996452331542969,
        0.9965127110481262
      ],
      "min": [
        -0.9994714856147766,
        -0.9990754127502441,
        -0.9965975880622864
      ],
      "type": "VEC3"
    },
    {
      "bufferView": 2,
      "byteOffset": 26600,
      "componentType": 5126,
      "count": 782,
      "max": [
        0.9525099992752075,
        0.9106600284576416
      ],
      "min": [
        0.9199100136756897,
        0.8655200004577637
      ],
      "type": "VEC2"
    },
    {
      "bufferView": 1,
      "byteOffset": 78528,
      "componentType": 5125,
      "count": 4416,
      "type": "SCALAR"
    },
    {
      "bufferView": 3,
      "byteOffset": 98568,
      "componentType": 5126,
      "count": 10804,
      "max": [
        0.5815200209617615,
        0.2099599987268448,
        1.59607994556427
      ],
      "min": [
        -0.5815200209617615,
        -0.20656000077724457,
        -0.001990000018849969
      ],
      "type": "VEC3"
    },
    {
      "bufferView": 3,
      "byteOffset": 228216,
      "componentType": 5126,
      "count": 10804,
      "max": [
        0.9999244213104248,
        0.9999976754188538,
        0.9999640583992004
      ],
      "min": [
        -0.9999244213104248,
        -1.0,
        -1.0
      ],
      "type": "VEC3"
    },
    {
      "bufferView": 2,
      "byteOffset": 32856,
      "componentType": 5126,
      "count": 10804,
      "max": [
        0.9941700100898743,
        0.9924499988555908
      ],
      "min": [
        0.023679999634623528,
        0.022670000791549683
      ],
      "type": "VEC2"
    },
    {
      "bufferView": 1,
      "byteOffset": 96192,
      "componentType": 5125,
      "count": 58608,
      "type": "SCALAR"
    },
    {
      "bufferView": 3,
      "byteOffset": 357864,
      "componentType": 5126,
      "count": 35,
      "max": [
        0.20452000200748444,
        -0.0711200013756752,
        0.7427899837493896
      ],
      "min": [
        0.04853000119328499,
        -0.1910800039768219,
        0.6245999932289124
      ],
      "type": "VEC3"
    },
    {
      "bufferView": 3,
      "byteOffset": 358284,
      "componentType": 5126,
      "count": 35,
      "max": [
        0.7692478895187378,
        -0.4831855595111847,
        0.46160486340522766
      ],
      "min": [
        0.23270516097545624,
        -0.9159695506095886,
        0.3168167769908905
      ],
      "type": "VEC3"
    },
    {
      "bufferView": 2,
      "byteOffset": 119288,
      "componentType": 5126,
      "count": 35,
      "max": [
        0.3941600024700165,
        0.9784899950027466
      ],
      "min": [
        0.012539999559521675,
        0.7439500093460083
      ],
      "type": "VEC2"
    },
    {
      "bufferView": 1,
      "byteOffset": 330624,
      "componentType": 5125,
      "count": 144,
      "type": "SCALAR"
    },
    {
      "bufferView": 5,
      "componentType": 5126,
      "count": 22,
      "max": [
        1.0,
        0.9876700043678284,
        1.0,
        0.0,
        0.9988700151443481,
        1.0,
        0.9958500266075134,
        0.0,
        0.9537000060081482,
        0.9988700151443481,
        1.0,
        0.0,
        1.0219199657440186,
        0.7616299986839294,
        5.999999848427251e-05,
        1.0
      ],
      "min": [
        -0.999779999256134,
        -0.9876700043678284,
        -1.0,
        0.0,
        -0.9968500137329102,
        -0.9934499859809875,
        -0.917460024356842,
        0.0,
        -0.9537000060081482,
        -0.9986699819564819,
        -0.7633000016212463,
        0.0,
        -1.0219199657440186,
        -1.1420199871063232,
        -0.973550021648407,
        1.0
      ],
      "type": "MAT4"
    },
    {
      "bufferView": 0,
      "componentType": 5123,
      "count": 3325,
      "type": "VEC4"
    },
    {
      "bufferView": 4,
      "componentType": 5126,
      "count": 3325,
      "max": [
        1.0,
        0.0,
        0.0,
        0.0
      ],
      "min": [
        1.0,
        0.0,
        0.0,
        0.0
      ],
      "type": "VEC4"
    },
    {
      "bufferView": 0,
      "byteOffset": 26600,
      "componentType": 5123,
      "count": 782,
      "type": "VEC4"
    },
    {
      "bufferView": 4,
      "byteOffset": 53200,
      "componentType": 5126,
      "count": 782,
      "max": [
        1.0,
        0.07452887296676636,
        0.0,
        0.0
      ],
      "min": [
        0.9254711270332336,
        0.0,
        0.0,
        0.0
      ],
      "type": "VEC4"
    },
    {
      "bufferView": 0,
      "byteOffset": 32856,
      "componentType": 5123,
      "count": 10804,
      "type": "VEC4"
    },
    {
      "bufferView": 4,
      "byteOffset": 65712,
      "componentType": 5126,
      "count": 10804,
      "max": [
        1.0,
        0.4998477101325989,
        0.312235951423645,
        0.21789856255054474
      ],
      "min": [
        0.2874455153942108,
        0.0,
        0.0,
        0.0
      ],
      "type": "VEC4"
    },
    {
      "bufferView": 0,
      "byteOffset": 119288,
      "componentType": 5123,
      "count": 35,
      "type": "VEC4"
    },
    {
      "bufferView": 4,
      "byteOffset": 238576,
      "componentType": 5126,
      "count": 35,
      "max": [
        1.0,
        0.0,
        0.0,
        0.0
      ],
      "min": [
        1.0,
        0.0,
        0.0,
        0.0
      ],
      "type": "VEC4"
    },
    {
      "bufferView": 6,
      "componentType": 5126,
      "count": 50,
      "max": [
        5.0
      ],
      "min": [
        0.10000000149011612
      ],
      "type": "SCALAR"
    },
    {
      "bufferView": 7,
      "componentType": 5126,
      "count": 50,
      "max": [
        0.0,
        0.0,
        0.9994900226593018,
        1.0
      ],
      "min": [
        0.0,
        0.0,
        -0.9994900226593018,
        0.0320499986410141
      ],
      "type": "VEC4"
    },
    {
      "bufferView": 6,
      "byteOffset": 200,
      "componentType": 5126,
      "count": 1,
      "max": [
        0.10000000149011612
      ],
      "min": [
        0.10000000149011612
      ],
      "type": "SCALAR"
    },
    {
      "bufferView": 7,
      "byteOffset": 800,
      "componentType": 5126,
      "count": 1,
      "max": [
        0.6612200140953064,
        0.0,
        -0.0,
        0.750190019607544
      ],
      "min": [
        0.6612200140953064,
        0.0,
        -0.0,
        0.750190019607544
      ],
      "type": "VEC4"
    }
  ],
  "animations": [
    {
      "channels": [
        {
          "sampler": 0,
          "target": {
            "node": 33,
            "path": "rotation"
          }
        },
        {
          "sampler": 1,
          "target": {
            "node": 34,
            "path": "rotation"
          }
        }
      ],
      "name": "Take 01",
      "samplers": [
        {
          "input": 25,
          "interpolation": "LINEAR",
          "output": 26
        },
        {
          "input": 27,
          "interpolation": "LINEAR",
          "output": 28
        }
      ]
    }
  ],
  "asset": {
    "extras": {
      "author": "Miaru3d (https://sketchfab.com/miaru3d)",
      "license": "CC-BY-4.0 (http://creativecommons.org/licenses/by/4.0/)",
      "source": "https://sketchfab.com/3d-models/star-butterfly-abd9c3c9d74344d58dfbd6ab312f3916",
      "title": "Star Butterfly"
    },
    "generator": "Sketchfab-12.67.0",
    "version": "2.0"
  },
  "bufferViews": [
    {
      "buffer": 0,
      "byteLength": 119568,
      "byteStride": 8,
      "name": "shortBufferViews",
      "target": 34962
    },
    {
      "buffer": 0,
      "byteLength": 331200,
      "byteOffset": 119568,
      "name": "floatBufferViews",
      "target": 34963
    },
    {
      "buffer": 0,
      "byteLength": 119568,
      "byteOffset": 450768,
      "byteStride": 8,
      "name": "floatBufferViews",
      "target": 34962
    },
    {
      "buffer": 0,
      "byteLength": 358704,
      "byteOffset": 570336,
      "byteStride": 12,
      "name": "floatBufferViews",
      "target": 34962
    },
    {
      "buffer": 0,
      "byteLength": 239136,
      "byteOffset": 929040,
      "byteStride": 16,
      "name": "floatBufferViews",
      "target": 34962
    },
    {
      "buffer": 0,
      "byteLength": 1408,
      "byteOffset": 1168176,
      "name": "floatBufferViews"
    },
    {
      "buffer": 0,
      "byteLength": 204,
      "byteOffset": 1169584,
      "name": "floatBufferViews"
    },
    {
      "buffer": 0,
      "byteLength": 816,
      "byteOffset": 1169788,
      "byteStride": 16,
      "name": "floatBufferViews"
    }
  ],
  "buffers": [
    {
      "byteLength": 1170604,
      "uri": "scene.bin"
    }
  ],
  "images": [
    {
      "uri": "textures/Star_Toon_baseColor.png"
    }
  ],
  "materials": [
    {
      "doubleSided": true,
      "name": "Star_Toon",
      "pbrMetallicRoughness": {
        "baseColorTexture": {
          "index": 0
        },
        "metallicFactor": 0.0,
        "roughnessFactor": 0.6
      }
    }
  ],
  "meshes": [
    {
      "name": "Star_Hair",
      "primitives": [
        {
          "attributes": {
            "JOINTS_0": 17,
            "NORMAL": 1,
            "POSITION": 0,
            "TEXCOORD_0": 2,
            "WEIGHTS_0": 18
          },
          "indices": 3,
          "material": 0,
          "mode": 4
        }
      ]
    },
    {
      "name": "Star_Bracelet",
      "primitives": [
        {
          "attributes": {
            "JOINTS_0": 19,
            "NORMAL": 5,
            "POSITION": 4,
            "TEXCOORD_0": 6,
            "WEIGHTS_0": 20
          },
          "indices": 7,
          "material": 0,
          "mode": 4
        }
      ]
    },
    {
      "name": "Star_Main",
      "primitives": [
        {
          "attributes": {
            "JOINTS_0": 21,
            "NORMAL": 9,
            "POSITION": 8,
            "TEXCOORD_0": 10,
            "WEIGHTS_0": 22
          },
          "indices": 11,
          "material": 0,
          "mode": 4
        }
      ]
    },
    {
      "name": "Star_Sticker",
      "primitives": [
        {
          "attributes": {
            "JOINTS_0": 23,
            "NORMAL": 13,
            "POSITION": 12,
            "TEXCOORD_0": 14,
            "WEIGHTS_0": 24
          },
          "indices": 15,
          "material": 0,
          "mode": 4
        }
      ]
    }
  ],
  "nodes": [
    {
      "children": [
        1
      ],
      "matrix": [
        1.0,
        0.0,
        0.0,
        0.0,
        0.0,
        2.220446049250313e-16,
        -1.0,
        0.0,
        0.0,
        1.0,
        2.220446049250313e-16,
        0.0,
        0.0,
        0.0,
        0.0,
        1.0
      ],
      "name": "Sketchfab_model"
    },
    {
      "children": [
        2,
        33
      ],
      "name": "Root"
    },
    {
      "children": [
        3,
        26,
        28,
        30,
        32,
        25,
        27,
        29,
        31
      ],
      "name": "Star_Armature"
    },
    {
      "children": [
        4
      ],
      "name": "Star_Armature_rootJoint"
    },
    {
      "children": [
        5,
        8,
        11
      ],
      "name": "hips_Star_Armature",
      "rotation": [
        0.5194565057754517,
        -0.4797552824020386,
        -0.5194514989852905,
        0.4797602891921997
      ],
      "scale": [
        1.0000015497207642,
        1.0000016689300537,
        0.9999998807907104
      ],
      "translation": [
        0.0,
        -0.0063599999994039536,
        0.7127000093460083
      ]
    },
    {
      "children": [
        6
      ],
      "name": "thigh.L_Star_Armature",
      "rotation": [
        0.9979604482650757,
        0.003707540687173605,
        -0.06358490884304047,
        0.004261352587491274
      ],
      "scale": [
        0.9999891519546509,
        0.9999967217445374,
        0.9994493722915649
      ],
      "translation": [
        0.014240000396966934,
        0.04986000061035156,
        -0.07034000009298325
      ]
    },
    {
      "children": [
        7
      ],
      "name": "shin.L_Star_Armature",
      "rotation": [
        0.005271023139357567,
        -0.1526591181755066,
        -0.012270565144717693,
        0.9881886839866638
      ],
      "scale": [
        1.000307559967041,
        1.000036597251892,
        1.000275731086731
      ],
      "translation": [
        0.0,
        0.333979994058609,
        0.0
      ]
    },
    {
      "name": "foot.L_Star_Armature",
      "rotation": [
        -0.4160202741622925,
        -0.16764672100543976,
        -0.5426498651504517,
        0.7101780772209167
      ],
      "scale": [
        1.0001639127731323,
        1.0000008344650269,
        0.9997966289520264
      ],
      "translation": [
        0.0,
        0.40731000900268555,
        0.0
      ]
    },
    {
      "children": [
        9
      ],
      "name": "thigh.R_Star_Armature",
      "rotation": [
        -0.06359574943780899,
        -0.004258987959474325,
        0.9979598522186279,
        -0.0037098198663443327
      ],
      "scale": [
        0.9999992251396179,
        0.9999632239341736,
        0.9994180798530579
      ],
      "translation": [
        0.014240000396966934,
        0.04986000061035156,
        0.07034000009298325
      ]
    },
    {
      "children": [
        10
      ],
      "name": "shin.R_Star_Armature",
      "rotation": [
        0.0052698166109621525,
        0.1526600569486618,
        0.01226981170475483,
        0.9881885647773743
      ],
      "scale": [
        1.0008939504623413,
        0.999987006187439,
        0.9997110366821289
      ],
      "translation": [
        0.0,
        0.333979994058609,
        0.0
      ]
    },
    {
      "name": "foot.R_Star_Armature",
      "rotation": [
        -0.4160209000110626,
        0.16764909029006958,
        0.5426476001739502,
        0.7101789712905884
      ],
      "scale": [
        1.0009163618087769,
        0.9990584850311279,
        0.9999679923057556
      ],
      "translation": [
        0.0,
        0.40731000900268555,
        0.0
      ]
    },
    {
      "children": [
        12
      ],
      "name": "spine_Star_Armature",
      "rotation": [
        0.00011260950122959912,
        -0.0008506227750331163,
        -0.03875434398651123,
        0.9992485046386719
      ],
      "scale": [
        0.9999949932098389,
        0.9999936819076538,
        1.0000017881393433
      ],
      "translation": [
        0.0,
        0.1855500042438507,
        0.0
      ]
    },
    {
      "children": [
        13,
        18,
        23
      ],
      "name": "chest_Star_Armature",
      "rotation": [
        -0.013346092775464058,
        0.04940610006451607,
        0.2631800174713135,
        0.9633885025978088
      ],
      "scale": [
        0.9999992847442627,
        1.0000041723251343,
        1.000008225440979
      ],
      "translation": [
        0.0,
        0.10424000024795532,
        0.0
      ]
    },
    {
      "children": [
        14
      ],
      "name": "clavicle.R_Star_Armature",
      "rotation": [
        -0.48065781593322754,
        0.5449057817459106,
        0.6363357305526733,
        -0.2590803802013397
      ],
      "scale": [
        0.9999988079071045,
        0.9999953508377075,
        1.0000029802322388
      ],
      "translation": [
        -0.0016799999866634607,
        0.0715700015425682,
        0.011599999852478504
      ]
    },
    {
      "children": [
        15
      ],
      "name": "upper_arm.R_Star_Armature",
      "rotation": [
        -0.06190582737326622,
        0.9671423435211182,
        -0.007912983186542988,
        -0.24645628035068512
      ],
      "scale": [
        1.0000054836273193,
        1.0000215768814087,
        1.0000075101852417
      ],
      "translation": [
        0.0,
        0.04696999862790108,
        0.0
      ]
    },
    {
      "children": [
        16,
        17
      ],
      "name": "forearm.R_Star_Armature",
      "rotation": [
        0.005016243550926447,
        0.7417445778846741,
        -0.002223248826339841,
        0.6706600189208984
      ],
      "scale": [
        1.0000008344650269,
        0.9999884366989136,
        0.9999971985816956
      ],
      "translation": [
        0.0,
        0.20630000531673431,
        0.0
      ]
    },
    {
      "name": "hand.R_Star_Armature",
      "rotation": [
        -0.01815439946949482,
        -0.5951902270317078,
        0.02140474133193493,
        0.8030945658683777
      ],
      "scale": [
        0.9999987483024597,
        1.0000057220458984,
        1.0000050067901611
      ],
      "translation": [
        0.0,
        0.2845599949359894,
        0.0
      ]
    },
    {
      "name": "thumb.R_Star_Armature",
      "rotation": [
        -0.16223345696926117,
        -0.2863386571407318,
        0.6776875257492065,
        0.6575942039489746
      ],
      "scale": [
        0.9999945163726807,
        0.9999971389770508,
        1.000003695487976
      ],
      "translation": [
        -0.034210000187158585,
        0.22676999866962433,
        -0.01600000075995922
      ]
    },
    {
      "children": [
        19
      ],
      "name": "clavicle.L_Star_Armature",
      "rotation": [
        -0.6813041567802429,
        -0.31275081634521484,
        0.41410118341445923,
        0.5162671804428101
      ],
      "scale": [
        0.9999926090240479,
        0.9999996423721313,
        1.0000015497207642
      ],
      "translation": [
        0.0006799999973736703,
        0.07158000022172928,
        -0.011710000224411488
      ]
    },
    {
      "children": [
        20
      ],
      "name": "upper_arm.L_Star_Armature",
      "rotation": [
        0.06190584599971771,
        0.967142641544342,
        -0.007913025096058846,
        0.246455118060112
      ],
      "scale": [
        1.0000189542770386,
        1.0000077486038208,
        1.0000066757202148
      ],
      "translation": [
        0.0,
        0.04696999862790108,
        0.0
      ]
    },
    {
      "children": [
        21,
        22
      ],
      "name": "forearm.L_Star_Armature",
      "rotation": [
        0.005016261711716652,
        -0.7417447566986084,
        0.002223266987130046,
        0.6706598401069641
      ],
      "scale": [
        1.0000008344650269,
        0.9999920725822449,
        0.999983549118042
      ],
      "translation": [
        0.0,
        0.20630000531673431,
        0.0
      ]
    },
    {
      "name": "hand.L_Star_Armature",
      "rotation": [
        -0.018154291436076164,
        0.5951902270317078,
        -0.021404650062322617,
        0.8030945658683777
      ],
      "scale": [
        1.0000094175338745,
        1.0000053644180298,
        0.999994695186615
      ],
      "translation": [
        0.0,
        0.2845599949359894,
        0.0
      ]
    },
    {
      "name": "thumb.L_Star_Armature",
      "rotation": [
        -0.16223201155662537,
        0.2863374352455139,
        -0.6776881217956543,
        0.6575944423675537
      ],
      "scale": [
        0.9999940395355225,
        0.9999988675117493,
        0.999996542930603
      ],
      "translation": [
        0.034210000187158585,
        0.22676999866962433,
        -0.01600000075995922
      ]
    },
    {
      "children": [
        24
      ],
      "name": "neck_Star_Armature",
      "rotation": [
        0.22441565990447998,
        0.9739376902580261,
        0.016197150573134422,
        0.028646821156144142
      ],
      "scale": [
        1.0000075101852417,
        0.9999999403953552,
        0.9999945759773254
      ],
      "translation": [
        0.0,
        0.09692999720573425,
        0.0
      ]
    },
    {
      "name": "head_Star_Armature",
      "rotation": [
        0.00031253803172148764,
        -0.020959407091140747,
        -0.014919865876436234,
        0.9996689558029175
      ],
      "scale": [
        1.000008463859558,
        1.0000035762786865,
        0.9999958872795105
      ],
      "translation": [
        0.0,
        0.05243000015616417,
        0.0
      ]
    },
    {
      "name": "Star_Hair"
    },
    {
      "mesh": 0,
      "name": "Star_Hair_0",
      "skin": 0
    },
    {
      "name": "Star_Bracelet"
    },
    {
      "mesh": 1,
      "name": "Star_Bracelet_0",
      "skin": 0
    },
    {
      "name": "Star_Main"
    },
    {
      "mesh": 2,
      "name": "Star_Main_0",
      "skin": 0
    },
    {
      "name": "Star_Sticker"
    },
    {
      "mesh": 3,
      "name": "Star_Sticker_0",
      "skin": 0
    },
    {
      "children": [
        34
      ],
      "name": "Camera_Parent"
    },
    {
      "name": "Camera",
      "rotation": [
        0.6612210273742676,
        0.0,
        -0.0,
        0.7501912117004395
      ],
      "translation": [
        -0.0,
        -7.595590114593506,
        1.8429800271987915
      ]
    }
  ],
  "samplers": [
    {
      "magFilter": 9729,
      "minFilter": 9987,
      "wrapS": 10497,
      "wrapT": 10497
    }
  ],
  "scene": 0,
  "scenes": [
    {
      "name": "Sketchfab_Scene",
      "nodes": [
        0
      ]
    }
  ],
  "skins": [
    {
      "inverseBindMatrices": 16,
      "joints": [
        3,
        4,
        5,
        6,
        7,
        8,
        9,
        10,
        11,
        12,
        13,
        14,
        15,
        16,
        17,
        18,
        19,
        20,
        21,
        22,
        23,
        24
      ],
      "skeleton": 3
    }
  ],
  "textures": [
    {
      "sampler": 0,
      "source": 0
    }
  ]
}
