{
  "accessors": [
    {
      "bufferView": 2,
      "componentType": 5126,
      "count": 715,
      "max": [
        19.48788070678711,
        33.557899475097656,
        2.6814301013946533
      ],
      "min": [
        -6.79986047744751,
        -36.86274719238281,
        -2.6814286708831787
      ],
      "type": "VEC3"
    },
    {
      "bufferView": 2,
      "byteOffset": 8580,
      "componentType": 5126,
      "count": 715,
      "max": [
        0.9999969005584717,
        0.9999994039535522,
        0.9999933242797852
      ],
      "min": [
        -0.9999889135360718,
        -0.9999994039535522,
        -0.9999933242797852
      ],
      "type": "VEC3"
    },
    {
      "bufferView": 1,
      "componentType": 5126,
      "count": 715,
      "max": [
        0.3587595224380493,
        0.9945774078369141
      ],
      "min": [
        0.03885751962661743,
        0.9912477731704712
      ],
      "type": "VEC2"
    },
    {
      "bufferView": 0,
      "componentType": 5125,
      "count": 1134,
      "type": "SCALAR"
    },
    {
      "bufferView": 2,
      "byteOffset": 17160,
      "componentType": 5126,
      "count": 581,
      "max": [
        5.521205902099609,
        0.8831713199615479,
        9.231071472167969
      ],
      "min": [
        -5.521205902099609,
        -0.9152851104736328,
        -6.023971080780029
      ],
      "type": "VEC3"
    },
    {
      "bufferView": 2,
      "byteOffset": 24132,
      "componentType": 5126,
      "count": 581,
      "max": [
        1.0,
        1.0,
        1.0
      ],
      "min": [
        -1.0,
        -1.0,
        -1.0
      ],
      "type": "VEC3"
    },
    {
      "bufferView": 1,
      "byteOffset": 5720,
      "componentType": 5126,
      "count": 581,
      "max": [
        0.6058158874511719,
        0.9946175813674927
      ],
      "min": [
        0.025068864226341248,
        0.9897708892822266
      ],
      "type": "VEC2"
    },
    {
      "bufferView": 0,
      "byteOffset": 4536,
      "componentType": 5125,
      "count": 936,
      "type": "SCALAR"
    },
    {
      "bufferView": 2,
      "byteOffset": 31104,
      "componentType": 5126,
      "count": 75,
      "max": [
        7.276120662689209,
        0.9935703873634338,
        13.253243446350098
      ],
      "min": [
        -7.276121616363525,
        -0.09828327596187592,
        -13.032476425170898
      ],
      "type": "VEC3"
    },
    {
      "bufferView": 2,
      "byteOffset": 32004,
      "componentType": 5126,
      "count": 75,
      "max": [
        0.13097281754016876,
        0.9999999403953552,
        0.08317457139492035
      ],
      "min": [
        -0.006399143952876329,
        -0.9996840953826904,
        -0.05996186286211014
      ],
      "type": "VEC3"
    },
    {
      "bufferView": 1,
      "byteOffset": 10368,
      "componentType": 5126,
      "count": 75,
      "max": [
        0.2906394302845001,
        0.9920793175697327
      ],
      "min": [
        0.005784383974969387,
        0.8699334859848022
      ],
      "type": "VEC2"
    },
    {
      "bufferView": 0,
      "byteOffset": 8280,
      "componentType": 5125,
      "count": 150,
      "type": "SCALAR"
    },
    {
      "bufferView": 2,
      "byteOffset": 32904,
      "componentType": 5126,
      "count": 427,
      "max": [
        3.6101670265197754,
        22.39715576171875,
        14.161009788513184
      ],
      "min": [
        -7.610435962677002,
        -18.544118881225586,
        -18.173107147216797
      ],
      "type": "VEC3"
    },
    {
      "bufferView": 2,
      "byteOffset": 38028,
      "componentType": 5126,
      "count": 427,
      "max": [
        1.0,
        0.9826366901397705,
        0.9855020642280579
      ],
      "min": [
        -1.0,
        -0.9789209365844727,
        -0.9855072498321533
      ],
      "type": "VEC3"
    },
    {
      "bufferView": 1,
      "byteOffset": 10968,
      "componentType": 5126,
      "count": 427,
      "max": [
        0.17873907089233398,
        0.9953174591064453
      ],
      "min": [
        0.1679678112268448,
        0.9933080673217773
      ],
      "type": "VEC2"
    },
    {
      "bufferView": 0,
      "byteOffset": 8880,
      "componentType": 5125,
      "count": 660,
      "type": "SCALAR"
    },
    {
      "bufferView": 2,
      "byteOffset": 43152,
      "componentType": 5126,
      "count": 1654,
      "max": [
        11.522549629211426,
        12.534074783325195,
        3.577692747116089
      ],
      "min": [
        -11.522549629211426,
        -6.178555488586426,
        -3.634690761566162
      ],
      "type": "VEC3"
    },
    {
      "bufferView": 2,
      "byteOffset": 63000,
      "componentType": 5126,
      "count": 1654,
      "max": [
        1.0,
        1.0,
        1.0
      ],
      "min": [
        -1.0,
        -1.0,
        -1.0
      ],
      "type": "VEC3"
    },
    {
      "bufferView": 1,
      "byteOffset": 14384,
      "componentType": 5126,
      "count": 1654,
      "max": [
        0.3338254392147064,
        0.9973971843719482
      ],
      "min": [
        0.005229114089161158,
        0.9904149770736694
      ],
      "type": "VEC2"
    },
    {
      "bufferView": 0,
      "byteOffset": 11520,
      "componentType": 5125,
      "count": 2592,
      "type": "SCALAR"
    },
    {
      "bufferView": 2,
      "byteOffset": 82848,
      "componentType": 5126,
      "count": 1023,
      "max": [
        8.009418487548828,
        16.585004806518555,
        3.251228094100952
      ],
      "min": [
        -6.721859455108643,
        -10.066204071044922,
        -3.5466606616973877
      ],
      "type": "VEC3"
    },
    {
      "bufferView": 2,
      "byteOffset": 95124,
      "componentType": 5126,
      "count": 1023,
      "max": [
        0.9988714456558228,
        0.9999995231628418,
        0.9999998807907104
      ],
      "min": [
        -0.9996278285980225,
        -0.9999986290931702,
        -1.0
      ],
      "type": "VEC3"
    },
    {
      "bufferView": 1,
      "byteOffset": 27616,
      "componentType": 5126,
      "count": 1023,
      "max": [
        0.18453526496887207,
        0.9951779842376709
      ],
      "min": [
        0.007222544401884079,
        0.9896392822265625
      ],
      "type": "VEC2"
    },
    {
      "bufferView": 0,
      "byteOffset": 21888,
      "componentType": 5125,
      "count": 1524,
      "type": "SCALAR"
    },
    {
      "bufferView": 2,
      "byteOffset": 107400,
      "componentType": 5126,
      "count": 2717,
      "max": [
        0.9598283171653748,
        3.667140483856201,
        0.33126211166381836
      ],
      "min": [
        -1.1015733480453491,
        -1.8141839504241943,
        -0.42637157440185547
      ],
      "type": "VEC3"
    },
    {
      "bufferView": 2,
      "byteOffset": 140004,
      "componentType": 5126,
      "count": 2717,
      "max": [
        1.0,
        1.0,
        1.0
      ],
      "min": [
        -1.0,
        -1.0,
        -1.0
      ],
      "type": "VEC3"
    },
    {
      "bufferView": 1,
      "byteOffset": 35800,
      "componentType": 5126,
      "count": 2717,
      "max": [
        0.26985740661621094,
        0.9966068267822266
      ],
      "min": [
        0.005272194743156433,
        0.9904670715332031
      ],
      "type": "VEC2"
    },
    {
      "bufferView": 0,
      "byteOffset": 27984,
      "componentType": 5125,
      "count": 4248,
      "type": "SCALAR"
    },
    {
      "bufferView": 2,
      "byteOffset": 172608,
      "componentType": 5126,
      "count": 1586,
      "max": [
        4.774059295654297,
        12.651753425598145,
        4.774060249328613
      ],
      "min": [
        -4.77406120300293,
        -7.702845573425293,
        -4.774060249328613
      ],
      "type": "VEC3"
    },
    {
      "bufferView": 2,
      "byteOffset": 191640,
      "componentType": 5126,
      "count": 1586,
      "max": [
        1.0,
        1.0,
        1.0
      ],
      "min": [
        -1.0,
        -1.0,
        -1.0
      ],
      "type": "VEC3"
    },
    {
      "bufferView": 1,
      "byteOffset": 57536,
      "componentType": 5126,
      "count": 1586,
      "max": [
        0.5061257481575012,
        0.993809700012207
      ],
      "min": [
        0.11857496201992035,
        0.9915419816970825
      ],
      "type": "VEC2"
    },
    {
      "bufferView": 0,
      "byteOffset": 44976,
      "componentType": 5125,
      "count": 2580,
      "type": "SCALAR"
    },
    {
      "bufferView": 2,
      "byteOffset": 210672,
      "componentType": 5126,
      "count": 798,
      "max": [
        1.7593752145767212,
        2.4403204917907715,
        3.2923216819763184
      ],
      "min": [
        -2.5674805641174316,
        -2.5207252502441406,
        -3.277766704559326
      ],
      "type": "VEC3"
    },
    {
      "bufferView": 2,
      "byteOffset": 220248,
      "componentType": 5126,
      "count": 798,
      "max": [
        0.9997478723526001,
        0.9996359348297119,
        0.9999222159385681
      ],
      "min": [
        -0.9997621178627014,
        -0.9996325969696045,
        -0.9999376535415649
      ],
      "type": "VEC3"
    },
    {
      "bufferView": 1,
      "byteOffset": 70224,
      "componentType": 5126,
      "count": 798,
      "max": [
        0.14664649963378906,
        0.9949325323104858
      ],
      "min": [
        0.11485140770673752,
        0.9947842955589294
      ],
      "type": "VEC2"
    },
    {
      "bufferView": 0,
      "byteOffset": 55296,
      "componentType": 5125,
      "count": 2088,
      "type": "SCALAR"
    },
    {
      "bufferView": 2,
      "byteOffset": 229824,
      "componentType": 5126,
      "count": 1697,
      "max": [
        14.578408241271973,
        10.499149322509766,
        8.073809623718262
      ],
      "min": [
        -14.578408241271973,
        -6.5718607902526855,
        -8.40206527709961
      ],
      "type": "VEC3"
    },
    {
      "bufferView": 2,
      "byteOffset": 250188,
      "componentType": 5126,
      "count": 1697,
      "max": [
        1.0,
        1.0,
        1.0
      ],
      "min": [
        -1.0,
        -1.0,
        -1.0
      ],
      "type": "VEC3"
    },
    {
      "bufferView": 1,
      "byteOffset": 76608,
      "componentType": 5126,
      "count": 1697,
      "max": [
        0.27924346923828125,
        0.9952545166015625
      ],
      "min": [
        0.0063279420137405396,
        0.9930191040039063
      ],
      "type": "VEC2"
    },
    {
      "bufferView": 0,
      "byteOffset": 63648,
      "componentType": 5125,
      "count": 2568,
      "type": "SCALAR"
    },
    {
      "bufferView": 2,
      "byteOffset": 270552,
      "componentType": 5126,
      "count": 210,
      "max": [
        0.3885194659233093,
        0.369815468788147,
        5.945705413818359
      ],
      "min": [
        -0.23626238107681274,
        -0.36840611696243286,
        -6.544024467468262
      ],
      "type": "VEC3"
    },
    {
      "bufferView": 2,
      "byteOffset": 273072,
      "componentType": 5126,
      "count": 210,
      "max": [
        1.0,
        1.0,
        1.0
      ],
      "min": [
        -1.0,
        -1.0,
        -0.9382503628730774
      ],
      "type": "VEC3"
    },
    {
      "bufferView": 1,
      "byteOffset": 90184,
      "componentType": 5126,
      "count": 210,
      "max": [
        0.3514420986175537,
        0.9948244094848633
      ],
      "min": [
        0.32116127014160156,
        0.991607666015625
      ],
      "type": "VEC2"
    },
    {
      "bufferView": 0,
      "byteOffset": 73920,
      "componentType": 5125,
      "count": 324,
      "type": "SCALAR"
    },
    {
      "bufferView": 2,
      "byteOffset": 275592,
      "componentType": 5126,
      "count": 672,
      "max": [
        3.9692788124084473,
        8.937485694885254,
        4.178225517272949
      ],
      "min": [
        -3.8259670734405518,
        -7.169754981994629,
        -5.6098527908325195
      ],
      "type": "VEC3"
    },
    {
      "bufferView": 2,
      "byteOffset": 283656,
      "componentType": 5126,
      "count": 672,
      "max": [
        1.0,
        0.8990026712417603,
        0.8990036249160767
      ],
      "min": [
        -1.0,
        -0.8990030288696289,
        -0.8990042805671692
      ],
      "type": "VEC3"
    },
    {
      "bufferView": 1,
      "byteOffset": 91864,
      "componentType": 5126,
      "count": 672,
      "max": [
        0.3505750298500061,
        0.9938735961914063
      ],
      "min": [
        0.060625843703746796,
        0.9197570085525513
      ],
      "type": "VEC2"
    },
    {
      "bufferView": 0,
      "byteOffset": 75216,
      "componentType": 5125,
      "count": 1008,
      "type": "SCALAR"
    },
    {
      "bufferView": 2,
      "byteOffset": 291720,
      "componentType": 5126,
      "count": 696,
      "max": [
        100.0,
        190.69174194335938,
        111.72789001464844
      ],
      "min": [
        -100.0,
        -190.69168090820313,
        -100.00001525878906
      ],
      "type": "VEC3"
    },
    {
      "bufferView": 2,
      "byteOffset": 300072,
      "componentType": 5126,
      "count": 696,
      "max": [
        1.0,
        1.0,
        1.0
      ],
      "min": [
        -1.0,
        -1.0,
        -1.0
      ],
      "type": "VEC3"
    },
    {
      "bufferView": 1,
      "byteOffset": 97240,
      "componentType": 5126,
      "count": 696,
      "max": [
        0.18117424845695496,
        0.9927003383636475
      ],
      "min": [
        0.001664669020101428,
        0.6350098252296448
      ],
      "type": "VEC2"
    },
    {
      "bufferView": 0,
      "byteOffset": 79248,
      "componentType": 5125,
      "count": 1044,
      "type": "SCALAR"
    },
    {
      "bufferView": 2,
      "byteOffset": 308424,
      "componentType": 5126,
      "count": 693,
      "max": [
        6.015606880187988,
        16.326990127563477,
        6.015606880187988
      ],
      "min": [
        -7.081179141998291,
        -11.471854209899902,
        -6.015606880187988
      ],
      "type": "VEC3"
    },
    {
      "bufferView": 2,
      "byteOffset": 316740,
      "componentType": 5126,
      "count": 693,
      "max": [
        1.0,
        1.0,
        1.0
      ],
      "min": [
        -1.0,
        -1.0,
        -1.0
      ],
      "type": "VEC3"
    },
    {
      "bufferView": 1,
      "byteOffset": 102808,
      "componentType": 5126,
      "count": 693,
      "max": [
        0.7285690903663635,
        0.9948412179946899
      ],
      "min": [
        0.13467752933502197,
        0.989163339138031
      ],
      "type": "VEC2"
    },
    {
      "bufferView": 0,
      "byteOffset": 83424,
      "componentType": 5125,
      "count": 2142,
      "type": "SCALAR"
    },
    {
      "bufferView": 2,
      "byteOffset": 325056,
      "componentType": 5126,
      "count": 1948,
      "max": [
        130.7179718017578,
        515.7452392578125,
        130.7179718017578
      ],
      "min": [
        -130.7179718017578,
        -534.6248779296875,
        -130.7179718017578
      ],
      "type": "VEC3"
    },
    {
      "bufferView": 2,
      "byteOffset": 348432,
      "componentType": 5126,
      "count": 1948,
      "max": [
        1.0,
        1.0,
        1.0
      ],
      "min": [
        -1.0,
        -1.0,
        -1.0
      ],
      "type": "VEC3"
    },
    {
      "bufferView": 1,
      "byteOffset": 108352,
      "componentType": 5126,
      "count": 1948,
      "max": [
        0.150733083486557,
        0.993267834186554
      ],
      "min": [
        0.008790305815637112,
        0.9912626147270203
      ],
      "type": "VEC2"
    },
    {
      "bufferView": 0,
      "byteOffset": 91992,
      "componentType": 5125,
      "count": 4200,
      "type": "SCALAR"
    },
    {
      "bufferView": 2,
      "byteOffset": 371808,
      "componentType": 5126,
      "count": 2808,
      "max": [
        1.1132476329803467,
        2.913320302963257,
        11.360868453979492
      ],
      "min": [
        -1.1132557392120361,
        -3.3082854747772217,
        -15.081840515136719
      ],
      "type": "VEC3"
    },
    {
      "bufferView": 2,
      "byteOffset": 405504,
      "componentType": 5126,
      "count": 2808,
      "max": [
        1.0,
        1.0,
        1.0
      ],
      "min": [
        -1.0,
        -1.0,
        -1.0
      ],
      "type": "VEC3"
    },
    {
      "bufferView": 1,
      "byteOffset": 123936,
      "componentType": 5126,
      "count": 2808,
      "max": [
        0.10405349731445313,
        0.995208740234375
      ],
      "min": [
        0.006788074970245361,
        0.9921722412109375
      ],
      "type": "VEC2"
    },
    {
      "bufferView": 0,
      "byteOffset": 108792,
      "componentType": 5125,
      "count": 4344,
      "type": "SCALAR"
    },
    {
      "bufferView": 2,
      "byteOffset": 439200,
      "componentType": 5126,
      "count": 2877,
      "max": [
        64.89433288574219,
        140.4324951171875,
        167.4103546142578
      ],
      "min": [
        -182.2340087890625,
        -85.76966857910156,
        -173.60328674316406
      ],
      "type": "VEC3"
    },
    {
      "bufferView": 2,
      "byteOffset": 473724,
      "componentType": 5126,
      "count": 2877,
      "max": [
        1.0,
        1.0,
        1.0
      ],
      "min": [
        -1.0,
        -1.0,
        -1.0
      ],
      "type": "VEC3"
    },
    {
      "bufferView": 1,
      "byteOffset": 146400,
      "componentType": 5126,
      "count": 2877,
      "max": [
        0.7583670616149902,
        0.996018648147583
      ],
      "min": [
        0.010304242372512817,
        0.9897475242614746
      ],
      "type": "VEC2"
    },
    {
      "bufferView": 0,
      "byteOffset": 126168,
      "componentType": 5125,
      "count": 6258,
      "type": "SCALAR"
    },
    {
      "bufferView": 2,
      "byteOffset": 508248,
      "componentType": 5126,
      "count": 1320,
      "max": [
        284.5978088378906,
        391.4444580078125,
        100.00001525878906
      ],
      "min": [
        -284.5978088378906,
        -378.68109130859375,
        -137.048095703125
      ],
      "type": "VEC3"
    },
    {
      "bufferView": 2,
      "byteOffset": 524088,
      "componentType": 5126,
      "count": 1320,
      "max": [
        1.0,
        1.0,
        1.0
      ],
      "min": [
        -1.0,
        -1.0,
        -1.0
      ],
      "type": "VEC3"
    },
    {
      "bufferView": 1,
      "byteOffset": 169416,
      "componentType": 5126,
      "count": 1320,
      "max": [
        0.7566536664962769,
        0.9945396184921265
      ],
      "min": [
        0.010093024000525475,
        0.9915353655815125
      ],
      "type": "VEC2"
    },
    {
      "bufferView": 0,
      "byteOffset": 151200,
      "componentType": 5125,
      "count": 3060,
      "type": "SCALAR"
    },
    {
      "bufferView": 2,
      "byteOffset": 539928,
      "componentType": 5126,
      "count": 1692,
      "max": [
        89.44509887695313,
        230.36570739746094,
        89.44509887695313
      ],
      "min": [
        -89.44509887695313,
        -123.55012512207031,
        -89.44509887695313
      ],
      "type": "VEC3"
    },
    {
      "bufferView": 2,
      "byteOffset": 560232,
      "componentType": 5126,
      "count": 1692,
      "max": [
        1.0,
        1.0,
        1.0
      ],
      "min": [
        -1.0,
        -1.0,
        -1.0
      ],
      "type": "VEC3"
    },
    {
      "bufferView": 1,
      "byteOffset": 179976,
      "componentType": 5126,
      "count": 1692,
      "max": [
        0.3071863651275635,
        0.9957046508789063
      ],
      "min": [
        0.009763546288013458,
        0.9896945953369141
      ],
      "type": "VEC2"
    },
    {
      "bufferView": 0,
      "byteOffset": 163440,
      "componentType": 5125,
      "count": 2880,
      "type": "SCALAR"
    },
    {
      "bufferView": 2,
      "byteOffset": 580536,
      "componentType": 5126,
      "count": 478,
      "max": [
        101.73330688476563,
        105.5277099609375,
        101.73330688476563
      ],
      "min": [
        -101.73330688476563,
        -105.5277099609375,
        -101.73330688476563
      ],
      "type": "VEC3"
    },
    {
      "bufferView": 2,
      "byteOffset": 586272,
      "componentType": 5126,
      "count": 478,
      "max": [
        1.0,
        1.0,
        1.0
      ],
      "min": [
        -1.0,
        -1.0,
        -1.0
      ],
      "type": "VEC3"
    },
    {
      "bufferView": 1,
      "byteOffset": 193512,
      "componentType": 5126,
      "count": 478,
      "max": [
        0.1944293975830078,
        0.9955863952636719
      ],
      "min": [
        0.05173242837190628,
        0.4081762433052063
      ],
      "type": "VEC2"
    },
    {
      "bufferView": 0,
      "byteOffset": 174960,
      "componentType": 5125,
      "count": 1140,
      "type": "SCALAR"
    },
    {
      "bufferView": 2,
      "byteOffset": 592008,
      "componentType": 5126,
      "count": 650,
      "max": [
        101.73330688476563,
        44.565792083740234,
        101.73330688476563
      ],
      "min": [
        -101.73330688476563,
        -43.51472091674805,
        -101.73330688476563
      ],
      "type": "VEC3"
    },
    {
      "bufferView": 2,
      "byteOffset": 599808,
      "componentType": 5126,
      "count": 650,
      "max": [
        1.0,
        1.0,
        1.0
      ],
      "min": [
        -1.0,
        -1.0,
        -1.0
      ],
      "type": "VEC3"
    },
    {
      "bufferView": 1,
      "byteOffset": 197336,
      "componentType": 5126,
      "count": 650,
      "max": [
        0.6833411455154419,
        0.9962224960327148
      ],
      "min": [
        0.11791980266571045,
        0.9935281276702881
      ],
      "type": "VEC2"
    },
    {
      "bufferView": 0,
      "byteOffset": 179520,
      "componentType": 5125,
      "count": 1332,
      "type": "SCALAR"
    },
    {
      "bufferView": 2,
      "byteOffset": 607608,
      "componentType": 5126,
      "count": 478,
      "max": [
        101.73330688476563,
        105.5277099609375,
        101.73330688476563
      ],
      "min": [
        -101.73330688476563,
        -105.5277099609375,
        -101.73330688476563
      ],
      "type": "VEC3"
    },
    {
      "bufferView": 2,
      "byteOffset": 613344,
      "componentType": 5126,
      "count": 478,
      "max": [
        1.0,
        1.0,
        1.0
      ],
      "min": [
        -1.0,
        -1.0,
        -1.0
      ],
      "type": "VEC3"
    },
    {
      "bufferView": 1,
      "byteOffset": 202536,
      "componentType": 5126,
      "count": 478,
      "max": [
        0.32407575845718384,
        0.9955863952636719
      ],
      "min": [
        0.11792006343603134,
        0.3672267198562622
      ],
      "type": "VEC2"
    },
    {
      "bufferView": 0,
      "byteOffset": 184848,
      "componentType": 5125,
      "count": 1140,
      "type": "SCALAR"
    },
    {
      "bufferView": 2,
      "byteOffset": 619080,
      "componentType": 5126,
      "count": 480,
      "max": [
        101.73330688476563,
        105.5277099609375,
        101.73330688476563
      ],
      "min": [
        -101.73330688476563,
        -105.5277099609375,
        -101.73330688476563
      ],
      "type": "VEC3"
    },
    {
      "bufferView": 2,
      "byteOffset": 624840,
      "componentType": 5126,
      "count": 480,
      "max": [
        1.0,
        1.0,
        1.0
      ],
      "min": [
        -1.0,
        -1.0,
        -1.0
      ],
      "type": "VEC3"
    },
    {
      "bufferView": 1,
      "byteOffset": 206360,
      "componentType": 5126,
      "count": 480,
      "max": [
        0.2898898422718048,
        0.9955863952636719
      ],
      "min": [
        0.11792006343603134,
        0.5096338987350464
      ],
      "type": "VEC2"
    },
    {
      "bufferView": 0,
      "byteOffset": 189408,
      "componentType": 5125,
      "count": 1140,
      "type": "SCALAR"
    },
    {
      "bufferView": 2,
      "byteOffset": 630600,
      "componentType": 5126,
      "count": 2250,
      "max": [
        193.6002655029297,
        26.775249481201172,
        181.29638671875
      ],
      "min": [
        -217.2447967529297,
        -28.193553924560547,
        -87.62771606445313
      ],
      "type": "VEC3"
    },
    {
      "bufferView": 2,
      "byteOffset": 657600,
      "componentType": 5126,
      "count": 2250,
      "max": [
        1.0,
        1.0,
        1.0
      ],
      "min": [
        -1.0,
        -1.0,
        -1.0
      ],
      "type": "VEC3"
    },
    {
      "bufferView": 1,
      "byteOffset": 210200,
      "componentType": 5126,
      "count": 2250,
      "max": [
        0.506742000579834,
        0.9950892925262451
      ],
      "min": [
        0.006352502852678299,
        0.9901119470596313
      ],
      "type": "VEC2"
    },
    {
      "bufferView": 0,
      "byteOffset": 193968,
      "componentType": 5125,
      "count": 4653,
      "type": "SCALAR"
    },
    {
      "bufferView": 2,
      "byteOffset": 684600,
      "componentType": 5126,
      "count": 1283,
      "max": [
        38.364864349365234,
        114.35594177246094,
        24.44828987121582
      ],
      "min": [
        -48.375423431396484,
        -111.81007385253906,
        -24.44828987121582
      ],
      "type": "VEC3"
    },
    {
      "bufferView": 2,
      "byteOffset": 699996,
      "componentType": 5126,
      "count": 1283,
      "max": [
        1.0,
        1.0,
        1.0
      ],
      "min": [
        -1.0,
        -1.0,
        -1.0
      ],
      "type": "VEC3"
    },
    {
      "bufferView": 1,
      "byteOffset": 228200,
      "componentType": 5126,
      "count": 1283,
      "max": [
        0.3004096746444702,
        0.8899964094161987
      ],
      "min": [
        0.09800369292497635,
        0.857714831829071
      ],
      "type": "VEC2"
    },
    {
      "bufferView": 0,
      "byteOffset": 212580,
      "componentType": 5125,
      "count": 5004,
      "type": "SCALAR"
    }
  ],
  "asset": {
    "extras": {
      "author": "cha (https://sketchfab.com/charlieeoshea)",
      "license": "CC-BY-4.0 (http://creativecommons.org/licenses/by/4.0/)",
      "source": "https://sketchfab.com/3d-models/survival-game-propasset-pack-419ed247481e447095305cd99e8f4a63",
      "title": "Survival Game Prop/Asset Pack"
    },
    "generator": "Sketchfab-15.30.0",
    "version": "2.0"
  },
  "bufferViews": [
    {
      "buffer": 0,
      "byteLength": 232596,
      "name": "floatBufferViews",
      "target": 34963
    },
    {
      "buffer": 0,
      "byteLength": 238464,
      "byteOffset": 232596,
      "byteStride": 8,
      "name": "floatBufferViews",
      "target": 34962
    },
    {
      "buffer": 0,
      "byteLength": 715392,
      "byteOffset": 471060,
      "byteStride": 12,
      "name": "floatBufferViews",
      "target": 34962
    }
  ],
  "buffers": [
    {
      "byteLength": 1186452,
      "uri": "scene.bin"
    }
  ],
  "extensionsUsed": [
    "KHR_materials_specular"
  ],
  "images": [
    {
      "uri": "textures/survivalpropsMAT_baseColor.png"
    }
  ],
  "materials": [
    {
      "doubleSided": true,
      "extensions": {
        "KHR_materials_specular": {
          "specularColorFactor": [
            1.0,
            1.0,
            1.0
          ],
          "specularFactor": 1.0
        }
      },
      "name": "survivalpropsMAT",
      "pbrMetallicRoughness": {
        "baseColorTexture": {
          "index": 0
        },
        "metallicFactor": 0.0
      }
    }
  ],
  "meshes": [
    {
      "name": "axe.001_survivalpropsMAT_0",
      "primitives": [
        {
          "attributes": {
            "NORMAL": 1,
            "POSITION": 0,
            "TEXCOORD_0": 2
          },
          "indices": 3,
          "material": 0,
          "mode": 4
        }
      ]
    },
    {
      "name": "compass.001_survivalpropsMAT_0",
      "primitives": [
        {
          "attributes": {
            "NORMAL": 5,
            "POSITION": 4,
            "TEXCOORD_0": 6
          },
          "indices": 7,
          "material": 0,
          "mode": 4
        }
      ]
    },
    {
      "name": "map.001_survivalpropsMAT_0",
      "primitives": [
        {
          "attributes": {
            "NORMAL": 9,
            "POSITION": 8,
            "TEXCOORD_0": 10
          },
          "indices": 11,
          "material": 0,
          "mode": 4
        }
      ]
    },
    {
      "name": "jerrycan.001_survivalpropsMAT_0",
      "primitives": [
        {
          "attributes": {
            "NORMAL": 13,
            "POSITION": 12,
            "TEXCOORD_0": 14
          },
          "indices": 15,
          "material": 0,
          "mode": 4
        }
      ]
    },
    {
      "name": "radio.001_survivalpropsMAT_0",
      "primitives": [
        {
          "attributes": {
            "NORMAL": 17,
            "POSITION": 16,
            "TEXCOORD_0": 18
          },
          "indices": 19,
          "material": 0,
          "mode": 4
        }
      ]
    },
    {
      "name": "firstaidkit.001_survivalpropsMAT_0",
      "primitives": [
        {
          "attributes": {
            "NORMAL": 21,
            "POSITION": 20,
            "TEXCOORD_0": 22
          },
          "indices": 23,
          "material": 0,
          "mode": 4
        }
      ]
    },
    {
      "name": "walkietalkie.001_survivalpropsMAT_0",
      "primitives": [
        {
          "attributes": {
            "NORMAL": 25,
            "POSITION": 24,
            "TEXCOORD_0": 26
          },
          "indices": 27,
          "material": 0,
          "mode": 4
        }
      ]
    },
    {
      "name": "medpills.001_survivalpropsMAT_0",
      "primitives": [
        {
          "attributes": {
            "NORMAL": 29,
            "POSITION": 28,
            "TEXCOORD_0": 30
          },
          "indices": 31,
          "material": 0,
          "mode": 4
        }
      ]
    },
    {
      "name": "bandage.001_survivalpropsMAT_0",
      "primitives": [
        {
          "attributes": {
            "NORMAL": 33,
            "POSITION": 32,
            "TEXCOORD_0": 34
          },
          "indices": 35,
          "material": 0,
          "mode": 4
        }
      ]
    },
    {
      "name": "toolbox.001_survivalpropsMAT_0",
      "primitives": [
        {
          "attributes": {
            "NORMAL": 37,
            "POSITION": 36,
            "TEXCOORD_0": 38
          },
          "indices": 39,
          "material": 0,
          "mode": 4
        }
      ]
    },
    {
      "name": "match.001_survivalpropsMAT_0",
      "primitives": [
        {
          "attributes": {
            "NORMAL": 41,
            "POSITION": 40,
            "TEXCOORD_0": 42
          },
          "indices": 43,
          "material": 0,
          "mode": 4
        }
      ]
    },
    {
      "name": "matchbox.001_survivalpropsMAT_0",
      "primitives": [
        {
          "attributes": {
            "NORMAL": 45,
            "POSITION": 44,
            "TEXCOORD_0": 46
          },
          "indices": 47,
          "material": 0,
          "mode": 4
        }
      ]
    },
    {
      "name": "notebook.001_survivalpropsMAT_0",
      "primitives": [
        {
          "attributes": {
            "NORMAL": 49,
            "POSITION": 48,
            "TEXCOORD_0": 50
          },
          "indices": 51,
          "material": 0,
          "mode": 4
        }
      ]
    },
    {
      "name": "bottle.001_survivalpropsMAT_0",
      "primitives": [
        {
          "attributes": {
            "NORMAL": 53,
            "POSITION": 52,
            "TEXCOORD_0": 54
          },
          "indices": 55,
          "material": 0,
          "mode": 4
        }
      ]
    },
    {
      "name": "torch.001_survivalpropsMAT_0",
      "primitives": [
        {
          "attributes": {
            "NORMAL": 57,
            "POSITION": 56,
            "TEXCOORD_0": 58
          },
          "indices": 59,
          "material": 0,
          "mode": 4
        }
      ]
    },
    {
      "name": "knife.001_survivalpropsMAT_0",
      "primitives": [
        {
          "attributes": {
            "NORMAL": 61,
            "POSITION": 60,
            "TEXCOORD_0": 62
          },
          "indices": 63,
          "material": 0,
          "mode": 4
        }
      ]
    },
    {
      "name": "camera.001_survivalpropsMAT_0",
      "primitives": [
        {
          "attributes": {
            "NORMAL": 65,
            "POSITION": 64,
            "TEXCOORD_0": 66
          },
          "indices": 67,
          "material": 0,
          "mode": 4
        }
      ]
    },
    {
      "name": "binoculars.001_survivalpropsMAT_0",
      "primitives": [
        {
          "attributes": {
            "NORMAL": 69,
            "POSITION": 68,
            "TEXCOORD_0": 70
          },
          "indices": 71,
          "material": 0,
          "mode": 4
        }
      ]
    },
    {
      "name": "lantern.001_survivalpropsMAT_0",
      "primitives": [
        {
          "attributes": {
            "NORMAL": 73,
            "POSITION": 72,
            "TEXCOORD_0": 74
          },
          "indices": 75,
          "material": 0,
          "mode": 4
        }
      ]
    },
    {
      "name": "can_beans.001_survivalpropsMAT_0",
      "primitives": [
        {
          "attributes": {
            "NORMAL": 77,
            "POSITION": 76,
            "TEXCOORD_0": 78
          },
          "indices": 79,
          "material": 0,
          "mode": 4
        }
      ]
    },
    {
      "name": "can_fish.001_survivalpropsMAT_0",
      "primitives": [
        {
          "attributes": {
            "NORMAL": 81,
            "POSITION": 80,
            "TEXCOORD_0": 82
          },
          "indices": 83,
          "material": 0,
          "mode": 4
        }
      ]
    },
    {
      "name": "can_fruit.001_survivalpropsMAT_0",
      "primitives": [
        {
          "attributes": {
            "NORMAL": 85,
            "POSITION": 84,
            "TEXCOORD_0": 86
          },
          "indices": 87,
          "material": 0,
          "mode": 4
        }
      ]
    },
    {
      "name": "can_soup.001_survivalpropsMAT_0",
      "primitives": [
        {
          "attributes": {
            "NORMAL": 89,
            "POSITION": 88,
            "TEXCOORD_0": 90
          },
          "indices": 91,
          "material": 0,
          "mode": 4
        }
      ]
    },
    {
      "name": "gun.001_survivalpropsMAT_0",
      "primitives": [
        {
          "attributes": {
            "NORMAL": 93,
            "POSITION": 92,
            "TEXCOORD_0": 94
          },
          "indices": 95,
          "material": 0,
          "mode": 4
        }
      ]
    },
    {
      "name": "rope.001_survivalpropsMAT_0",
      "primitives": [
        {
          "attributes": {
            "NORMAL": 97,
            "POSITION": 96,
            "TEXCOORD_0": 98
          },
          "indices": 99,
          "material": 0,
          "mode": 4
        }
      ]
    }
  ],
  "nodes": [
    {
      "children": [
        1
      ],
      "matrix": [
        -1.0,
        -6.290011496532519e-32,
        2.832769343193999e-16,
        0.0,
        2.832769343193999e-16,
        -2.220446049250313e-16,
        1.0,
        0.0,
        0.0,
        1.0,
        2.220446049250313e-16,
        0.0,
        0.0,
        0.0,
        0.0,
        1.0
      ],
      "name": "Sketchfab_model"
    },
    {
      "children": [
        2
      ],
      "matrix": [
        0.009999999776482582,
        0.0,
        0.0,
        0.0,
        0.0,
        0.0,
        0.009999999776482582,
        0.0,
        0.0,
        -0.009999999776482582,
        0.0,
        0.0,
        0.0,
        0.0,
        0.0,
        1.0
      ],
      "name": "23b6e02996c64d5a9124587fb2181ba7.fbx"
    },
    {
      "children": [
        3,
        5,
        7,
        9,
        11,
        13,
        15,
        17,
        19,
        21,
        23,
        25,
        27,
        29,
        31,
        33,
        35,
        37,
        39,
        41,
        43,
        45,
        47,
        49,
        51
      ],
      "name": "RootNode"
    },
    {
      "children": [
        4
      ],
      "matrix": [
        0.8909701108932495,
        -1.5830617665969123e-18,
        6.3319886523884066e-21,
        0.0,
        6.335360641778246e-21,
        0.007129253962655057,
        0.8909416470538252,
        0.0,
        -1.5830618590122103e-18,
        -0.8909416470538252,
        0.007129253962655057,
        0.0,
        80.32540130615234,
        2.2265334129333496,
        -17.875947952270508,
        1.0
      ],
      "name": "axe.001"
    },
    {
      "mesh": 0,
      "name": "axe.001_survivalpropsMAT_0"
    },
    {
      "children": [
        6
      ],
      "matrix": [
        0.7076727151870728,
        0.0,
        0.0,
        0.0,
        0.0,
        0.7076727151870728,
        0.0,
        0.0,
        0.0,
        0.0,
        0.7076727151870728,
        0.0,
        -22.739206314086914,
        0.5933895111083984,
        -26.341365814208984,
        1.0
      ],
      "name": "compass.001"
    },
    {
      "mesh": 1,
      "name": "compass.001_survivalpropsMAT_0"
    },
    {
      "children": [
        8
      ],
      "matrix": [
        0.660630464553833,
        0.0,
        0.0,
        0.0,
        0.0,
        0.660630464553833,
        0.0,
        0.0,
        0.0,
        0.0,
        0.660630464553833,
        0.0,
        -39.73783874511719,
        0.21972382068634033,
        -50.1141357421875,
        1.0
      ],
      "name": "map.001"
    },
    {
      "mesh": 2,
      "name": "map.001_survivalpropsMAT_0"
    },
    {
      "children": [
        10
      ],
      "matrix": [
        7.549789959870878e-08,
        0.0,
        0.9999999999999971,
        0.0,
        0.0,
        1.0,
        0.0,
        0.0,
        -0.9999999999999971,
        0.0,
        7.549789959870878e-08,
        0.0,
        -76.21800231933594,
        18.589710235595703,
        7.239516735076904,
        1.0
      ],
      "name": "jerrycan.001"
    },
    {
      "mesh": 3,
      "name": "jerrycan.001_survivalpropsMAT_0"
    },
    {
      "children": [
        12
      ],
      "matrix": [
        1.1690605878829956,
        0.0,
        0.0,
        0.0,
        0.0,
        1.1690605878829956,
        0.0,
        0.0,
        0.0,
        0.0,
        1.1690605878829956,
        0.0,
        46.79111099243164,
        7.349235534667969,
        -22.57673454284668,
        1.0
      ],
      "name": "radio.001"
    },
    {
      "mesh": 4,
      "name": "radio.001_survivalpropsMAT_0"
    },
    {
      "children": [
        14
      ],
      "matrix": [
        1.083324909210205,
        0.0,
        0.0,
        0.0,
        0.0,
        -1.764960302106207e-07,
        1.0833249092101909,
        0.0,
        0.0,
        -1.0833249092101909,
        -1.764960302106207e-07,
        0.0,
        -5.204648017883301,
        3.682988166809082,
        -22.922266006469727,
        1.0
      ],
      "name": "firstaidkit.001"
    },
    {
      "mesh": 5,
      "name": "firstaidkit.001_survivalpropsMAT_0"
    },
    {
      "children": [
        16
      ],
      "matrix": [
        3.892388105392456,
        0.0,
        0.0,
        0.0,
        0.0,
        -6.341505145872224e-07,
        3.8923881053924045,
        0.0,
        0.0,
        -3.8923881053924045,
        -6.341505145872224e-07,
        0.0,
        -53.10408401489258,
        1.396048665046692,
        -49.649559020996094,
        1.0
      ],
      "name": "walkietalkie.001"
    },
    {
      "mesh": 6,
      "name": "walkietalkie.001_survivalpropsMAT_0"
    },
    {
      "children": [
        18
      ],
      "matrix": [
        0.4453352987766266,
        0.0,
        0.0,
        0.0,
        0.0,
        0.4453352987766266,
        0.0,
        0.0,
        0.0,
        0.0,
        0.4453352987766266,
        0.0,
        22.906692504882813,
        3.5616166591644287,
        -29.564411163330078,
        1.0
      ],
      "name": "medpills.001"
    },
    {
      "mesh": 7,
      "name": "medpills.001_survivalpropsMAT_0"
    },
    {
      "children": [
        20
      ],
      "matrix": [
        1.5049594640731812,
        0.0,
        0.0,
        0.0,
        0.0,
        1.5049594640731812,
        0.0,
        0.0,
        0.0,
        0.0,
        1.5049594640731812,
        0.0,
        12.151924133300781,
        3.833655595779419,
        -28.049468994140625,
        1.0
      ],
      "name": "bandage.001"
    },
    {
      "mesh": 8,
      "name": "bandage.001_survivalpropsMAT_0"
    },
    {
      "children": [
        22
      ],
      "matrix": [
        -1.472962141036876,
        1.8038583712860425e-16,
        5.735926356090345e-07,
        0.0,
        1.8038590737345649e-16,
        1.4729621410369873,
        1.8038583712860425e-16,
        0.0,
        -5.735926356090345e-07,
        1.8038590737345649e-16,
        -1.472962141036876,
        0.0,
        42.00259780883789,
        9.867409706115723,
        7.896935939788818,
        1.0
      ],
      "name": "toolbox.001"
    },
    {
      "mesh": 9,
      "name": "toolbox.001_survivalpropsMAT_0"
    },
    {
      "children": [
        24
      ],
      "matrix": [
        1.0,
        0.0,
        0.0,
        0.0,
        0.0,
        0.8463336825370789,
        0.0,
        0.0,
        0.0,
        0.0,
        0.8463336825370789,
        0.0,
        -15.861383438110352,
        0.34311941266059875,
        -53.00361633300781,
        1.0
      ],
      "name": "match.001"
    },
    {
      "mesh": 10,
      "name": "match.001_survivalpropsMAT_0"
    },
    {
      "children": [
        26
      ],
      "matrix": [
        1.0,
        1.9961828268084068e-16,
        3.192882753741204e-16,
        0.0,
        -1.68943774990941e-16,
        -0.3706487260138311,
        0.7608548634334037,
        0.0,
        2.702243337065126e-16,
        -0.7608548634334037,
        -0.3706487260138311,
        0.0,
        -9.212944984436035,
        1.213708758354187,
        -52.649044036865234,
        1.0
      ],
      "name": "matchbox.001"
    },
    {
      "mesh": 11,
      "name": "matchbox.001_survivalpropsMAT_0"
    },
    {
      "children": [
        28
      ],
      "matrix": [
        0.058725498616695404,
        -4.797354465070148e-19,
        8.82777583616785e-21,
        0.0,
        4.654876056896909e-20,
        0.005694281225715699,
        -0.0002096369551053842,
        0.0,
        1.2139489702992199e-20,
        0.0029710224598038524,
        0.08070064462411304,
        0.0,
        -25.783222198486328,
        0.885870099067688,
        -50.6255989074707,
        1.0
      ],
      "name": "notebook.001"
    },
    {
      "mesh": 12,
      "name": "notebook.001_survivalpropsMAT_0"
    },
    {
      "children": [
        30
      ],
      "matrix": [
        0.9009288549423218,
        0.0,
        0.0,
        0.0,
        0.0,
        0.9009288549423218,
        0.0,
        0.0,
        0.0,
        0.0,
        0.9009288549423218,
        0.0,
        -22.805679321289063,
        10.471404075622559,
        -4.6155571937561035,
        1.0
      ],
      "name": "bottle.001"
    },
    {
      "mesh": 13,
      "name": "bottle.001_survivalpropsMAT_0"
    },
    {
      "children": [
        32
      ],
      "matrix": [
        0.016335176444220837,
        -0.004376997463998628,
        1.8606847960415428e-10,
        0.0,
        1.5072578323473536e-10,
        1.2814297205940337e-09,
        0.016911420971155118,
        0.0,
        -0.004376997463998631,
        -0.01633517644422079,
        1.2767766238035192e-09,
        0.0,
        20.053829193115234,
        2.249552011489868,
        -49.18193435668945,
        1.0
      ],
      "name": "torch.001"
    },
    {
      "mesh": 14,
      "name": "torch.001_survivalpropsMAT_0"
    },
    {
      "children": [
        34
      ],
      "matrix": [
        3.577323083223859e-07,
        1.139577984809819,
        1.1832353262221034e-14,
        0.0,
        1.1395779848098062,
        -3.577323080693488e-07,
        1.7207148845067e-07,
        0.0,
        1.7207148845066523e-07,
        -4.2183722450413243e-14,
        -1.1395779848098624,
        0.0,
        60.374385833740234,
        1.340172290802002,
        -50.76005935668945,
        1.0
      ],
      "name": "knife.001"
    },
    {
      "mesh": 15,
      "name": "knife.001_survivalpropsMAT_0"
    },
    {
      "children": [
        36
      ],
      "matrix": [
        3.319979303421961e-09,
        0.0,
        0.04397445917129504,
        0.0,
        0.0,
        0.043974459171295166,
        0.0,
        0.0,
        -0.04397445917129504,
        0.0,
        3.319979303421961e-09,
        0.0,
        -70.30563354492188,
        3.888760805130005,
        -47.46794509887695,
        1.0
      ],
      "name": "camera.001"
    },
    {
      "mesh": 16,
      "name": "camera.001_survivalpropsMAT_0"
    },
    {
      "children": [
        38
      ],
      "matrix": [
        0.025098787620663643,
        0.0,
        0.0,
        0.0,
        0.0,
        -4.089111531069809e-09,
        0.02509878762066331,
        0.0,
        0.0,
        -0.02509878762066331,
        -4.089111531069809e-09,
        0.0,
        5.457633972167969,
        2.563443183898926,
        -49.1908073425293,
        1.0
      ],
      "name": "binoculars.001"
    },
    {
      "mesh": 17,
      "name": "binoculars.001_survivalpropsMAT_0"
    },
    {
      "children": [
        40
      ],
      "matrix": [
        0.10750498622655869,
        0.0,
        0.0,
        0.0,
        0.0,
        0.10750498622655869,
        0.0,
        0.0,
        0.0,
        0.0,
        0.10750498622655869,
        0.0,
        -42.38759994506836,
        13.382220268249512,
        5.439822673797607,
        1.0
      ],
      "name": "lantern.001"
    },
    {
      "mesh": 18,
      "name": "lantern.001_survivalpropsMAT_0"
    },
    {
      "children": [
        42
      ],
      "matrix": [
        0.04226617515087128,
        0.0,
        0.0,
        0.0,
        0.0,
        0.04226617515087128,
        0.0,
        0.0,
        0.0,
        0.0,
        0.04226617515087128,
        0.0,
        -11.737049102783203,
        4.539793968200684,
        9.007166862487793,
        1.0
      ],
      "name": "can_beans.001"
    },
    {
      "mesh": 19,
      "name": "can_beans.001_survivalpropsMAT_0"
    },
    {
      "children": [
        44
      ],
      "matrix": [
        0.04226617515087128,
        0.0,
        0.0,
        0.0,
        0.0,
        0.04226617515087128,
        0.0,
        0.0,
        0.0,
        0.0,
        0.04226617515087128,
        0.0,
        0.1403840184211731,
        1.8911768198013306,
        3.425544500350952,
        1.0
      ],
      "name": "can_fish.001"
    },
    {
      "mesh": 20,
      "name": "can_fish.001_survivalpropsMAT_0"
    },
    {
      "children": [
        46
      ],
      "matrix": [
        0.04226617515087128,
        0.0,
        0.0,
        0.0,
        0.0,
        0.04226617515087128,
        0.0,
        0.0,
        0.0,
        0.0,
        0.04226617515087128,
        0.0,
        10.885065078735352,
        4.539793968200684,
        9.437481880187988,
        1.0
      ],
      "name": "can_fruit.001"
    },
    {
      "mesh": 21,
      "name": "can_fruit.001_survivalpropsMAT_0"
    },
    {
      "children": [
        48
      ],
      "matrix": [
        0.04226617515087128,
        0.0,
        0.0,
        0.0,
        0.0,
        0.04226617515087128,
        0.0,
        0.0,
        0.0,
        0.0,
        0.04226617515087128,
        0.0,
        -0.15691611170768738,
        4.539793968200684,
        14.306458473205566,
        1.0
      ],
      "name": "can_soup.001"
    },
    {
      "mesh": 22,
      "name": "can_soup.001_survivalpropsMAT_0"
    },
    {
      "children": [
        50
      ],
      "matrix": [
        0.05823386460542679,
        0.0,
        0.0,
        0.0,
        0.0,
        -0.05823386460542239,
        -2.2677104123747697e-08,
        0.0,
        0.0,
        2.2677104123747697e-08,
        -0.05823386460542239,
        0.0,
        41.19655990600586,
        1.5778254270553589,
        -46.549102783203125,
        1.0
      ],
      "name": "gun.001"
    },
    {
      "mesh": 23,
      "name": "gun.001_survivalpropsMAT_0"
    },
    {
      "children": [
        52
      ],
      "matrix": [
        9.87220250741775e-09,
        -2.507434906937708e-17,
        0.22584965825080852,
        0.0,
        -0.2258496582508083,
        -9.87220250741775e-09,
        9.872202519954924e-09,
        0.0,
        9.872202519954924e-09,
        -0.22584965825080852,
        -4.513382832487874e-16,
        0.0,
        -57.18979263305664,
        4.454741477966309,
        -22.90241050720215,
        1.0
      ],
      "name": "rope.001"
    },
    {
      "mesh": 24,
      "name": "rope.001_survivalpropsMAT_0"
    }
  ],
  "samplers": [
    {
      "magFilter": 9728,
      "minFilter": 9728,
      "wrapS": 10497,
      "wrapT": 10497
    }
  ],
  "scene": 0,
  "scenes": [
    {
      "name": "Sketchfab_Scene",
      "nodes": [
        0
      ]
    }
  ],
  "textures": [
    {
      "sampler": 0,
      "source": 0
    }
  ]
}
