{
  "accessors": [
    {
      "bufferView": 2,
      "componentType": 5126,
      "count": 59100,
      "max": [
        1.0000001192092896,
        1.0000001192092896,
        0.0
      ],
      "min": [
        -1.0000001192092896,
        -1.0000001192092896,
        -0.029999999329447746
      ],
      "type": "VEC3"
    },
    {
      "bufferView": 2,
      "byteOffset": 709200,
      "componentType": 5126,
      "count": 59100,
      "max": [
        1.0,
        1.0,
        1.0
      ],
      "min": [
        -1.0,
        -1.0,
        -1.0
      ],
      "type": "VEC3"
    },
    {
      "bufferView": 1,
      "componentType": 5126,
      "count": 59100,
      "max": [
        1.0000001192092896,
        1.0000001192092896
      ],
      "min": [
        0.0,
        0.0
      ],
      "type": "VEC2"
    },
    {
      "bufferView": 0,
      "componentType": 5125,
      "count": 212256,
      "type": "SCALAR"
    },
    {
      "bufferView": 2,
      "byteOffset": 1418400,
      "componentType": 5126,
      "count": 12423,
      "max": [
        1.463779330253601,
        2.3436472415924072,
        2.0879924297332764
      ],
      "min": [
        -0.14333435893058777,
        -2.3436472415924072,
        -0.12111571431159973
      ],
      "type": "VEC3"
    },
    {
      "bufferView": 2,
      "byteOffset": 1567476,
      "componentType": 5126,
      "count": 12423,
      "max": [
        0.9997064471244812,
        1.0,
        0.9999889135360718
      ],
      "min": [
        -0.9999743103981018,
        -1.0,
        -0.9995028972625732
      ],
      "type": "VEC3"
    },
    {
      "bufferView": 1,
      "byteOffset": 472800,
      "componentType": 5126,
      "count": 12423,
      "max": [
        0.9994255304336548,
        1.0000070333480835
      ],
      "min": [
        0.0,
        0.0
      ],
      "type": "VEC2"
    },
    {
      "bufferView": 0,
      "byteOffset": 849024,
      "componentType": 5125,
      "count": 36987,
      "type": "SCALAR"
    },
    {
      "bufferView": 2,
      "byteOffset": 1716552,
      "componentType": 5126,
      "count": 20561,
      "max": [
        31.356204986572266,
        2.8058977127075195,
        36.193115234375
      ],
      "min": [
        -31.930105209350586,
        -3.114210605621338,
        -37.23404312133789
      ],
      "type": "VEC3"
    },
    {
      "bufferView": 2,
      "byteOffset": 1963284,
      "componentType": 5126,
      "count": 20561,
      "max": [
        0.9999802708625793,
        0.9999961853027344,
        0.999996542930603
      ],
      "min": [
        -0.9999895691871643,
        -0.9999936819076538,
        -0.9999319314956665
      ],
      "type": "VEC3"
    },
    {
      "bufferView": 1,
      "byteOffset": 572184,
      "componentType": 5126,
      "count": 20561,
      "max": [
        0.8333333730697632,
        0.9993076324462891
      ],
      "min": [
        0.1666666567325592,
        0.0
      ],
      "type": "VEC2"
    },
    {
      "bufferView": 0,
      "byteOffset": 996972,
      "componentType": 5125,
      "count": 58920,
      "type": "SCALAR"
    },
    {
      "bufferView": 2,
      "byteOffset": 2210016,
      "componentType": 5126,
      "count": 2270,
      "max": [
        1.624000072479248,
        0.38022273778915405,
        0.2800000011920929
      ],
      "min": [
        -1.6239999532699585,
        -0.3802289068698883,
        -0.2800000011920929
      ],
      "type": "VEC3"
    },
    {
      "bufferView": 2,
      "byteOffset": 2237256,
      "componentType": 5126,
      "count": 2270,
      "max": [
        0.9972299337387085,
        0.9972299933433533,
        0.9999802112579346
      ],
      "min": [
        -0.9972298741340637,
        -0.9975289106369019,
        -0.9999802112579346
      ],
      "type": "VEC3"
    },
    {
      "bufferView": 1,
      "byteOffset": 736672,
      "componentType": 5126,
      "count": 2270,
      "max": [
        0.8333332538604736,
        0.9402264356613159
      ],
      "min": [
        0.1666666567325592,
        0.0
      ],
      "type": "VEC2"
    },
    {
      "bufferView": 0,
      "byteOffset": 1232652,
      "componentType": 5125,
      "count": 9168,
      "type": "SCALAR"
    },
    {
      "bufferView": 2,
      "byteOffset": 2264496,
      "componentType": 5126,
      "count": 3480,
      "max": [
        3.592862367630005,
        0.3760000169277191,
        0.2800000011920929
      ],
      "min": [
        -3.592862129211426,
        -0.3760000467300415,
        -0.2800000011920929
      ],
      "type": "VEC3"
    },
    {
      "bufferView": 2,
      "byteOffset": 2306256,
      "componentType": 5126,
      "count": 3480,
      "max": [
        0.9972303509712219,
        0.9975606203079224,
        0.9999802112579346
      ],
      "min": [
        -0.9972303509712219,
        -0.9975285530090332,
        -0.9999802112579346
      ],
      "type": "VEC3"
    },
    {
      "bufferView": 1,
      "byteOffset": 754832,
      "componentType": 5126,
      "count": 3480,
      "max": [
        0.998615026473999,
        1.0
      ],
      "min": [
        0.0,
        0.0
      ],
      "type": "VEC2"
    },
    {
      "bufferView": 0,
      "byteOffset": 1269324,
      "componentType": 5125,
      "count": 12288,
      "type": "SCALAR"
    },
    {
      "bufferView": 2,
      "byteOffset": 2348016,
      "componentType": 5126,
      "count": 2236,
      "max": [
        0.9970006942749023,
        0.3800726532936096,
        0.2800000011920929
      ],
      "min": [
        -1.6249998807907104,
        -0.38007786870002747,
        -0.2800000011920929
      ],
      "type": "VEC3"
    },
    {
      "bufferView": 2,
      "byteOffset": 2374848,
      "componentType": 5126,
      "count": 2236,
      "max": [
        0.9974656105041504,
        0.9976264834403992,
        0.9999769330024719
      ],
      "min": [
        -0.9972298741340637,
        -0.9976828098297119,
        -0.9999769330024719
      ],
      "type": "VEC3"
    },
    {
      "bufferView": 1,
      "byteOffset": 782672,
      "componentType": 5126,
      "count": 2236,
      "max": [
        0.8302561044692993,
        1.0
      ],
      "min": [
        0.1666666567325592,
        0.0
      ],
      "type": "VEC2"
    },
    {
      "bufferView": 0,
      "byteOffset": 1318476,
      "componentType": 5125,
      "count": 9348,
      "type": "SCALAR"
    },
    {
      "bufferView": 2,
      "byteOffset": 2401680,
      "componentType": 5126,
      "count": 6204,
      "max": [
        4.395500659942627,
        0.3802090883255005,
        0.2800000011920929
      ],
      "min": [
        -4.395500659942627,
        -0.3802090585231781,
        -0.2800000011920929
      ],
      "type": "VEC3"
    },
    {
      "bufferView": 2,
      "byteOffset": 2476128,
      "componentType": 5126,
      "count": 6204,
      "max": [
        0.9975892305374146,
        0.9972299933433533,
        0.9999801516532898
      ],
      "min": [
        -0.997736394405365,
        -0.9975287318229675,
        -0.9999801516532898
      ],
      "type": "VEC3"
    },
    {
      "bufferView": 1,
      "byteOffset": 800560,
      "componentType": 5126,
      "count": 6204,
      "max": [
        0.8333333730697632,
        0.9982500076293945
      ],
      "min": [
        0.1666666567325592,
        0.0
      ],
      "type": "VEC2"
    },
    {
      "bufferView": 0,
      "byteOffset": 1355868,
      "componentType": 5125,
      "count": 24384,
      "type": "SCALAR"
    },
    {
      "bufferView": 2,
      "byteOffset": 2550576,
      "componentType": 5126,
      "count": 290,
      "max": [
        0.04589320719242096,
        0.003574371337890625,
        0.06622827798128128
      ],
      "min": [
        -0.04344068467617035,
        -0.0035744905471801758,
        -0.04762749373912811
      ],
      "type": "VEC3"
    },
    {
      "bufferView": 2,
      "byteOffset": 2554056,
      "componentType": 5126,
      "count": 290,
      "max": [
        1.0,
        1.0,
        1.0
      ],
      "min": [
        -1.0,
        -1.0,
        -1.0
      ],
      "type": "VEC3"
    },
    {
      "bufferView": 1,
      "byteOffset": 850192,
      "componentType": 5126,
      "count": 290,
      "max": [
        0.8241217136383057,
        1.0
      ],
      "min": [
        0.1666666567325592,
        0.0
      ],
      "type": "VEC2"
    },
    {
      "bufferView": 0,
      "byteOffset": 1453404,
      "componentType": 5125,
      "count": 804,
      "type": "SCALAR"
    },
    {
      "bufferView": 2,
      "byteOffset": 2557536,
      "componentType": 5126,
      "count": 289,
      "max": [
        1.0662800073623657,
        0.9725459218025208,
        0.080022431910038
      ],
      "min": [
        -1.4827135801315308,
        -1.027454137802124,
        -0.08002475649118423
      ],
      "type": "VEC3"
    },
    {
      "bufferView": 2,
      "byteOffset": 2561004,
      "componentType": 5126,
      "count": 289,
      "max": [
        1.0,
        1.0,
        1.0
      ],
      "min": [
        -1.0,
        -1.0,
        -1.0
      ],
      "type": "VEC3"
    },
    {
      "bufferView": 1,
      "byteOffset": 852512,
      "componentType": 5126,
      "count": 289,
      "max": [
        0.7280130386352539,
        1.0
      ],
      "min": [
        0.1666666567325592,
        0.0
      ],
      "type": "VEC2"
    },
    {
      "bufferView": 0,
      "byteOffset": 1456620,
      "componentType": 5125,
      "count": 804,
      "type": "SCALAR"
    },
    {
      "bufferView": 2,
      "byteOffset": 2564472,
      "componentType": 5126,
      "count": 318,
      "max": [
        0.3285697400569916,
        0.003574968781322241,
        0.08080355077981949
      ],
      "min": [
        -0.0913802981376648,
        -0.003573894500732422,
        -0.18462498486042023
      ],
      "type": "VEC3"
    },
    {
      "bufferView": 2,
      "byteOffset": 2568288,
      "componentType": 5126,
      "count": 318,
      "max": [
        0.9978589415550232,
        1.0,
        0.997859001159668
      ],
      "min": [
        -0.997859001159668,
        -1.0,
        -0.997859001159668
      ],
      "type": "VEC3"
    },
    {
      "bufferView": 1,
      "byteOffset": 854824,
      "componentType": 5126,
      "count": 318,
      "max": [
        0.32475215196609497,
        1.0
      ],
      "min": [
        0.1666666567325592,
        0.0
      ],
      "type": "VEC2"
    },
    {
      "bufferView": 0,
      "byteOffset": 1459836,
      "componentType": 5125,
      "count": 918,
      "type": "SCALAR"
    },
    {
      "bufferView": 2,
      "byteOffset": 2572104,
      "componentType": 5126,
      "count": 322,
      "max": [
        0.05360226333141327,
        0.0035737757571041584,
        0.10312236100435257
      ],
      "min": [
        -0.08356134593486786,
        -0.0035750882234424353,
        -0.37880340218544006
      ],
      "type": "VEC3"
    },
    {
      "bufferView": 2,
      "byteOffset": 2575968,
      "componentType": 5126,
      "count": 322,
      "max": [
        0.9988410472869873,
        1.0,
        0.9988410472869873
      ],
      "min": [
        -0.9988410472869873,
        -1.0,
        -0.9988410472869873
      ],
      "type": "VEC3"
    },
    {
      "bufferView": 1,
      "byteOffset": 857368,
      "componentType": 5126,
      "count": 322,
      "max": [
        0.47071024775505066,
        1.0
      ],
      "min": [
        0.1666666567325592,
        0.0
      ],
      "type": "VEC2"
    },
    {
      "bufferView": 0,
      "byteOffset": 1463508,
      "componentType": 5125,
      "count": 918,
      "type": "SCALAR"
    },
    {
      "bufferView": 2,
      "byteOffset": 2579832,
      "componentType": 5126,
      "count": 478,
      "max": [
        0.02651284635066986,
        0.0231703519821167,
        0.026512905955314636
      ],
      "min": [
        -0.026512905955314636,
        -0.023166298866271973,
        -0.026512861251831055
      ],
      "type": "VEC3"
    },
    {
      "bufferView": 2,
      "byteOffset": 2585568,
      "componentType": 5126,
      "count": 478,
      "max": [
        1.0,
        1.0,
        1.0
      ],
      "min": [
        -1.0,
        -1.0,
        -1.0
      ],
      "type": "VEC3"
    },
    {
      "bufferView": 1,
      "byteOffset": 859944,
      "componentType": 5126,
      "count": 478,
      "max": [
        0.8333333730697632,
        0.997860312461853
      ],
      "min": [
        0.1666666567325592,
        0.0
      ],
      "type": "VEC2"
    },
    {
      "bufferView": 0,
      "byteOffset": 1467180,
      "componentType": 5125,
      "count": 1524,
      "type": "SCALAR"
    },
    {
      "bufferView": 2,
      "byteOffset": 2591304,
      "componentType": 5126,
      "count": 290,
      "max": [
        0.04589320719242096,
        0.003574371337890625,
        0.06622827798128128
      ],
      "min": [
        -0.04344068467617035,
        -0.0035744905471801758,
        -0.04762749373912811
      ],
      "type": "VEC3"
    },
    {
      "bufferView": 2,
      "byteOffset": 2594784,
      "componentType": 5126,
      "count": 290,
      "max": [
        1.0,
        1.0,
        1.0
      ],
      "min": [
        -1.0,
        -1.0,
        -1.0
      ],
      "type": "VEC3"
    },
    {
      "bufferView": 1,
      "byteOffset": 863768,
      "componentType": 5126,
      "count": 290,
      "max": [
        0.8241217136383057,
        1.0
      ],
      "min": [
        0.1666666567325592,
        0.0
      ],
      "type": "VEC2"
    },
    {
      "bufferView": 0,
      "byteOffset": 1473276,
      "componentType": 5125,
      "count": 804,
      "type": "SCALAR"
    },
    {
      "bufferView": 2,
      "byteOffset": 2598264,
      "componentType": 5126,
      "count": 289,
      "max": [
        1.0662800073623657,
        0.9725459218025208,
        0.080022431910038
      ],
      "min": [
        -1.4827135801315308,
        -1.027454137802124,
        -0.08002475649118423
      ],
      "type": "VEC3"
    },
    {
      "bufferView": 2,
      "byteOffset": 2601732,
      "componentType": 5126,
      "count": 289,
      "max": [
        1.0,
        1.0,
        1.0
      ],
      "min": [
        -1.0,
        -1.0,
        -1.0
      ],
      "type": "VEC3"
    },
    {
      "bufferView": 1,
      "byteOffset": 866088,
      "componentType": 5126,
      "count": 289,
      "max": [
        0.7280130386352539,
        1.0
      ],
      "min": [
        0.1666666567325592,
        0.0
      ],
      "type": "VEC2"
    },
    {
      "bufferView": 0,
      "byteOffset": 1476492,
      "componentType": 5125,
      "count": 804,
      "type": "SCALAR"
    },
    {
      "bufferView": 2,
      "byteOffset": 2605200,
      "componentType": 5126,
      "count": 318,
      "max": [
        0.3285697400569916,
        0.003574968781322241,
        0.08080355077981949
      ],
      "min": [
        -0.0913802981376648,
        -0.003573894500732422,
        -0.18462498486042023
      ],
      "type": "VEC3"
    },
    {
      "bufferView": 2,
      "byteOffset": 2609016,
      "componentType": 5126,
      "count": 318,
      "max": [
        0.9978589415550232,
        1.0,
        0.997859001159668
      ],
      "min": [
        -0.997859001159668,
        -1.0,
        -0.997859001159668
      ],
      "type": "VEC3"
    },
    {
      "bufferView": 1,
      "byteOffset": 868400,
      "componentType": 5126,
      "count": 318,
      "max": [
        0.32475215196609497,
        1.0
      ],
      "min": [
        0.1666666567325592,
        0.0
      ],
      "type": "VEC2"
    },
    {
      "bufferView": 0,
      "byteOffset": 1479708,
      "componentType": 5125,
      "count": 918,
      "type": "SCALAR"
    },
    {
      "bufferView": 2,
      "byteOffset": 2612832,
      "componentType": 5126,
      "count": 322,
      "max": [
        0.05360226333141327,
        0.0035737757571041584,
        0.10312236100435257
      ],
      "min": [
        -0.08356134593486786,
        -0.0035750882234424353,
        -0.37880340218544006
      ],
      "type": "VEC3"
    },
    {
      "bufferView": 2,
      "byteOffset": 2616696,
      "componentType": 5126,
      "count": 322,
      "max": [
        0.9988410472869873,
        1.0,
        0.9988410472869873
      ],
      "min": [
        -0.9988410472869873,
        -1.0,
        -0.9988410472869873
      ],
      "type": "VEC3"
    },
    {
      "bufferView": 1,
      "byteOffset": 870944,
      "componentType": 5126,
      "count": 322,
      "max": [
        0.47071024775505066,
        1.0
      ],
      "min": [
        0.1666666567325592,
        0.0
      ],
      "type": "VEC2"
    },
    {
      "bufferView": 0,
      "byteOffset": 1483380,
      "componentType": 5125,
      "count": 918,
      "type": "SCALAR"
    },
    {
      "bufferView": 2,
      "byteOffset": 2620560,
      "componentType": 5126,
      "count": 478,
      "max": [
        0.02651284635066986,
        0.0231703519821167,
        0.026512905955314636
      ],
      "min": [
        -0.026512905955314636,
        -0.023166298866271973,
        -0.026512861251831055
      ],
      "type": "VEC3"
    },
    {
      "bufferView": 2,
      "byteOffset": 2626296,
      "componentType": 5126,
      "count": 478,
      "max": [
        1.0,
        1.0,
        1.0
      ],
      "min": [
        -1.0,
        -1.0,
        -1.0
      ],
      "type": "VEC3"
    },
    {
      "bufferView": 1,
      "byteOffset": 873520,
      "componentType": 5126,
      "count": 478,
      "max": [
        0.8333333730697632,
        0.997860312461853
      ],
      "min": [
        0.1666666567325592,
        0.0
      ],
      "type": "VEC2"
    },
    {
      "bufferView": 0,
      "byteOffset": 1487052,
      "componentType": 5125,
      "count": 1524,
      "type": "SCALAR"
    },
    {
      "bufferView": 2,
      "byteOffset": 2632032,
      "componentType": 5126,
      "count": 290,
      "max": [
        262.7851257324219,
        5.337928295135498,
        198.87615966796875
      ],
      "min": [
        -27.30882453918457,
        -8.054339408874512,
        -97.98925018310547
      ],
      "type": "VEC3"
    },
    {
      "bufferView": 2,
      "byteOffset": 2635512,
      "componentType": 5126,
      "count": 290,
      "max": [
        0.9784538745880127,
        0.9982978105545044,
        0.9997209906578064
      ],
      "min": [
        -0.9804347157478333,
        -0.9988240003585815,
        -0.9994412064552307
      ],
      "type": "VEC3"
    },
    {
      "bufferView": 0,
      "byteOffset": 1493148,
      "componentType": 5125,
      "count": 1296,
      "type": "SCALAR"
    }
  ],
  "asset": {
    "extras": {
      "author": "foxybat (https://sketchfab.com/foxybat)",
      "license": "CC-BY-4.0 (http://creativecommons.org/licenses/by/4.0/)",
      "source": "https://sketchfab.com/3d-models/claymore-0f9ef3d1c6a04a41847713e17544cc26",
      "title": "Claymore"
    },
    "generator": "Sketchfab-15.23.0",
    "version": "2.0"
  },
  "bufferViews": [
    {
      "buffer": 0,
      "byteLength": 1498332,
      "name": "floatBufferViews",
      "target": 34963
    },
    {
      "buffer": 0,
      "byteLength": 877344,
      "byteOffset": 1498332,
      "byteStride": 8,
      "name": "floatBufferViews",
      "target": 34962
    },
    {
      "buffer": 0,
      "byteLength": 2638992,
      "byteOffset": 2375676,
      "byteStride": 12,
      "name": "floatBufferViews",
      "target": 34962
    }
  ],
  "buffers": [
    {
      "byteLength": 5014668,
      "uri": "scene.bin"
    }
  ],
  "extensionsUsed": [
    "KHR_materials_emissive_strength"
  ],
  "images": [
    {
      "uri": "textures/MAIN_baseColor.jpeg"
    }
  ],
  "materials": [
    {
      "doubleSided": true,
      "name": "Material.003",
      "pbrMetallicRoughness": {
        "baseColorFactor": [
          0.11962991858669911,
          0.001824513558014803,
          0.001824513558014803,
          1.0
        ],
        "metallicFactor": 0.0,
        "roughnessFactor": 0.8616253478997769
      }
    },
    {
      "doubleSided": true,
      "name": "MAIN",
      "pbrMetallicRoughness": {
        "baseColorTexture": {
          "index": 0
        },
        "metallicFactor": 0.0,
        "roughnessFactor": 0.7951409846812278
      }
    },
    {
      "doubleSided": true,
      "name": "metal",
      "pbrMetallicRoughness": {
        "baseColorFactor": [
          0.0259537,
          0.0541524,
          0.00391014,
          1.0
        ],
        "metallicFactor": 0.0,
        "roughnessFactor": 0.9900428194366009
      }
    },
    {
      "doubleSided": true,
      "emissiveFactor": [
        1.0,
        0.0023973259541357336,
        0.0023973259541357336
      ],
      "extensions": {
        "KHR_materials_emissive_strength": {
          "emissiveStrength": 9.019799844958529
        }
      },
      "name": "emission",
      "pbrMetallicRoughness": {
        "baseColorFactor": [
          1.0,
          0.0,
          0.0,
          1.0
        ],
        "metallicFactor": 0.0,
        "roughnessFactor": 0.1734016448384596
      }
    }
  ],
  "meshes": [
    {
      "name": "Plane_Material.003_0",
      "primitives": [
        {
          "attributes": {
            "NORMAL": 1,
            "POSITION": 0,
            "TEXCOORD_0": 2
          },
          "indices": 3,
          "material": 0,
          "mode": 4
        }
      ]
    },
    {
      "name": "Cube_MAIN_0",
      "primitives": [
        {
          "attributes": {
            "NORMAL": 5,
            "POSITION": 4,
            "TEXCOORD_0": 6
          },
          "indices": 7,
          "material": 1,
          "mode": 4
        }
      ]
    },
    {
      "name": "Bolt_MAIN_0",
      "primitives": [
        {
          "attributes": {
            "NORMAL": 9,
            "POSITION": 8,
            "TEXCOORD_0": 10
          },
          "indices": 11,
          "material": 1,
          "mode": 4
        }
      ]
    },
    {
      "name": "Text_MAIN_0",
      "primitives": [
        {
          "attributes": {
            "NORMAL": 13,
            "POSITION": 12,
            "TEXCOORD_0": 14
          },
          "indices": 15,
          "material": 1,
          "mode": 4
        }
      ]
    },
    {
      "name": "Text.001_MAIN_0",
      "primitives": [
        {
          "attributes": {
            "NORMAL": 17,
            "POSITION": 16,
            "TEXCOORD_0": 18
          },
          "indices": 19,
          "material": 1,
          "mode": 4
        }
      ]
    },
    {
      "name": "Text.002_MAIN_0",
      "primitives": [
        {
          "attributes": {
            "NORMAL": 21,
            "POSITION": 20,
            "TEXCOORD_0": 22
          },
          "indices": 23,
          "material": 1,
          "mode": 4
        }
      ]
    },
    {
      "name": "Text.003_MAIN_0",
      "primitives": [
        {
          "attributes": {
            "NORMAL": 25,
            "POSITION": 24,
            "TEXCOORD_0": 26
          },
          "indices": 27,
          "material": 1,
          "mode": 4
        }
      ]
    },
    {
      "name": "Circle_metal_0",
      "primitives": [
        {
          "attributes": {
            "NORMAL": 29,
            "POSITION": 28,
            "TEXCOORD_0": 30
          },
          "indices": 31,
          "material": 2,
          "mode": 4
        }
      ]
    },
    {
      "name": "Circle.001_metal_0",
      "primitives": [
        {
          "attributes": {
            "NORMAL": 33,
            "POSITION": 32,
            "TEXCOORD_0": 34
          },
          "indices": 35,
          "material": 2,
          "mode": 4
        }
      ]
    },
    {
      "name": "Circle.002_metal_0",
      "primitives": [
        {
          "attributes": {
            "NORMAL": 37,
            "POSITION": 36,
            "TEXCOORD_0": 38
          },
          "indices": 39,
          "material": 2,
          "mode": 4
        }
      ]
    },
    {
      "name": "Circle.003_metal_0",
      "primitives": [
        {
          "attributes": {
            "NORMAL": 41,
            "POSITION": 40,
            "TEXCOORD_0": 42
          },
          "indices": 43,
          "material": 2,
          "mode": 4
        }
      ]
    },
    {
      "name": "Cylinder_metal_0",
      "primitives": [
        {
          "attributes": {
            "NORMAL": 45,
            "POSITION": 44,
            "TEXCOORD_0": 46
          },
          "indices": 47,
          "material": 2,
          "mode": 4
        }
      ]
    },
    {
      "name": "Circle.004_metal_0",
      "primitives": [
        {
          "attributes": {
            "NORMAL": 49,
            "POSITION": 48,
            "TEXCOORD_0": 50
          },
          "indices": 51,
          "material": 2,
          "mode": 4
        }
      ]
    },
    {
      "name": "Circle.005_metal_0",
      "primitives": [
        {
          "attributes": {
            "NORMAL": 53,
            "POSITION": 52,
            "TEXCOORD_0": 54
          },
          "indices": 55,
          "material": 2,
          "mode": 4
        }
      ]
    },
    {
      "name": "Circle.006_metal_0",
      "primitives": [
        {
          "attributes": {
            "NORMAL": 57,
            "POSITION": 56,
            "TEXCOORD_0": 58
          },
          "indices": 59,
          "material": 2,
          "mode": 4
        }
      ]
    },
    {
      "name": "Circle.007_metal_0",
      "primitives": [
        {
          "attributes": {
            "NORMAL": 61,
            "POSITION": 60,
            "TEXCOORD_0": 62
          },
          "indices": 63,
          "material": 2,
          "mode": 4
        }
      ]
    },
    {
      "name": "Cylinder.001_metal_0",
      "primitives": [
        {
          "attributes": {
            "NORMAL": 65,
            "POSITION": 64,
            "TEXCOORD_0": 66
          },
          "indices": 67,
          "material": 2,
          "mode": 4
        }
      ]
    },
    {
      "name": "emission_emission_0",
      "primitives": [
        {
          "attributes": {
            "NORMAL": 69,
            "POSITION": 68
          },
          "indices": 70,
          "material": 3,
          "mode": 4
        }
      ]
    }
  ],
  "nodes": [
    {
      "children": [
        1
      ],
      "matrix": [
        1.0,
        0.0,
        0.0,
        0.0,
        0.0,
        2.220446049250313e-16,
        -1.0,
        0.0,
        0.0,
        1.0,
        2.220446049250313e-16,
        0.0,
        0.0,
        0.0,
        0.0,
        1.0
      ],
      "name": "Sketchfab_model"
    },
    {
      "children": [
        2
      ],
      "matrix": [
        0.009999999776482582,
        0.0,
        0.0,
        0.0,
        0.0,
        0.0,
        0.009999999776482582,
        0.0,
        0.0,
        -0.009999999776482582,
        0.0,
        0.0,
        0.0,
        0.0,
        0.0,
        1.0
      ],
      "name": "63609514f83241358744ca899d9d3fad.fbx"
    },
    {
      "children": [
        3,
        5,
        7,
        10,
        13,
        16,
        19
      ],
      "name": "RootNode"
    },
    {
      "children": [
        4
      ],
      "matrix": [
        16362.416015625,
        0.0,
        0.0,
        0.0,
        0.0,
        -0.002665775933757408,
        -16362.416015624784,
        0.0,
        0.0,
        16362.416015624784,
        -0.002665775933757408,
        0.0,
        19.907991409301758,
        -8.860650062561035,
        146.01861572265625,
        1.0
      ],
      "name": "Plane"
    },
    {
      "mesh": 0,
      "name": "Plane_Material.003_0"
    },
    {
      "children": [
        6
      ],
      "matrix": [
        -83.4262098203867,
        32.54390356713243,
        44.507997659049956,
        0.0,
        28.713187853872498,
        94.55630249016696,
        -15.318567252072707,
        0.0,
        -47.07038024437332,
        -3.507935371003762e-05,
        -88.2291382114086,
        0.0,
        688.2916259765625,
        39.1657829284668,
        -379.5372314453125,
        1.0
      ],
      "name": "Camera"
    },
    {
      "name": "Object_6"
    },
    {
      "children": [
        8
      ],
      "matrix": [
        1781.3199462890625,
        0.0,
        0.0,
        0.0,
        0.0,
        1781.3199462890573,
        -0.00013448591742460254,
        0.0,
        0.0,
        0.00013448591742460254,
        1781.3199462890573,
        0.0,
        114.79962921142578,
        1374.466064453125,
        -125.58443450927734,
        1.0
      ],
      "name": "Area"
    },
    {
      "children": [
        9
      ],
      "matrix": [
        1.0,
        0.0,
        0.0,
        0.0,
        0.0,
        2.220446049250313e-16,
        1.0,
        0.0,
        0.0,
        -1.0,
        2.220446049250313e-16,
        0.0,
        0.0,
        0.0,
        0.0,
        1.0
      ],
      "name": "Object_8"
    },
    {
      "name": "Object_9"
    },
    {
      "children": [
        11
      ],
      "matrix": [
        1092.4839351801875,
        1406.9751836929927,
        -6.08466528694662e-12,
        0.0,
        -1406.9751836929888,
        1092.4839351801843,
        -0.00013448592086558872,
        0.0,
        -0.00010622368704414376,
        8.248026249153272e-05,
        1781.3199462890573,
        0.0,
        -1639.512451171875,
        1374.466064453125,
        -125.58443450927734,
        1.0
      ],
      "name": "Area.001"
    },
    {
      "children": [
        12
      ],
      "matrix": [
        1.0,
        0.0,
        0.0,
        0.0,
        0.0,
        2.220446049250313e-16,
        1.0,
        0.0,
        0.0,
        -1.0,
        2.220446049250313e-16,
        0.0,
        0.0,
        0.0,
        0.0,
        1.0
      ],
      "name": "Object_11"
    },
    {
      "name": "Object_12"
    },
    {
      "children": [
        14
      ],
      "matrix": [
        1249.9366690598886,
        -1269.157007339643,
        -3.170979296333376e-12,
        0.0,
        1269.1570073396394,
        1249.936669059885,
        -0.00013448592664065488,
        0.0,
        9.58186860874814e-05,
        9.436758650090456e-05,
        1781.3199462890573,
        0.0,
        1481.380615234375,
        1374.466064453125,
        -125.58443450927734,
        1.0
      ],
      "name": "Area.002"
    },
    {
      "children": [
        15
      ],
      "matrix": [
        1.0,
        0.0,
        0.0,
        0.0,
        0.0,
        2.220446049250313e-16,
        1.0,
        0.0,
        0.0,
        -1.0,
        2.220446049250313e-16,
        0.0,
        0.0,
        0.0,
        0.0,
        1.0
      ],
      "name": "Object_14"
    },
    {
      "name": "Object_15"
    },
    {
      "children": [
        17
      ],
      "matrix": [
        1534.2508318044293,
        -905.0831846008756,
        5.2205747551268764e-05,
        0.0,
        774.9928963434522,
        1313.7284662037887,
        920.1110143620152,
        0.0,
        -467.5056142408192,
        -792.4915743626755,
        1525.285806384276,
        0.0,
        1481.380615234375,
        -22.36185073852539,
        -125.58443450927734,
        1.0
      ],
      "name": "Area.003"
    },
    {
      "children": [
        18
      ],
      "matrix": [
        1.0,
        0.0,
        0.0,
        0.0,
        0.0,
        2.220446049250313e-16,
        1.0,
        0.0,
        0.0,
        -1.0,
        2.220446049250313e-16,
        0.0,
        0.0,
        0.0,
        0.0,
        1.0
      ],
      "name": "Object_17"
    },
    {
      "name": "Object_18"
    },
    {
      "children": [
        20
      ],
      "matrix": [
        585.1790161132813,
        0.0,
        0.0,
        0.0,
        0.0,
        -9.533776287101924e-05,
        -585.1790161132735,
        0.0,
        0.0,
        585.1790161132735,
        -9.533776287101924e-05,
        0.0,
        0.0,
        -8.860650062561035,
        0.0,
        1.0
      ],
      "name": "Claymore"
    },
    {
      "children": [
        21,
        22,
        24,
        26,
        28,
        30,
        32,
        34,
        36,
        38,
        40,
        42,
        44,
        46,
        48,
        50,
        52
      ],
      "matrix": [
        0.17088788747787476,
        0.0,
        0.0,
        0.0,
        0.0,
        0.17088788747787476,
        -3.308722450212111e-24,
        0.0,
        0.0,
        3.308722450212111e-24,
        0.17088788747787476,
        0.0,
        0.04098032787442207,
        8.809534698950294e-12,
        0.3466859459877014,
        1.0
      ],
      "name": "Cube"
    },
    {
      "mesh": 1,
      "name": "Cube_MAIN_0"
    },
    {
      "children": [
        23
      ],
      "matrix": [
        -0.016575266993013444,
        -0.01756883619807634,
        0.01279257353718348,
        0.0,
        -0.016699497802504574,
        -1.8001552212427615e-08,
        -0.021637471943195822,
        0.0,
        0.013908297615757938,
        -0.02093775234700449,
        -0.010734211887998526,
        0.0,
        1.1340924501419067,
        1.0728321058195434e-06,
        1.9735733270645142,
        1.0
      ],
      "name": "Bolt"
    },
    {
      "mesh": 2,
      "name": "Bolt_MAIN_0"
    },
    {
      "children": [
        25
      ],
      "matrix": [
        -4.92307239246236e-08,
        -0.3021760284900625,
        -1.2322835711423685e-09,
        0.0,
        0.1706778688224033,
        -2.8823844403050064e-08,
        0.24935801027492815,
        0.0,
        -0.24935801027492496,
        3.992954666071088e-08,
        0.1706778688224057,
        0.0,
        0.37715500593185425,
        -0.07028334587812424,
        1.2884408235549927,
        1.0
      ],
      "name": "Text"
    },
    {
      "mesh": 3,
      "name": "Text_MAIN_0"
    },
    {
      "children": [
        27
      ],
      "matrix": [
        -1.2048486756954467e-08,
        -0.27563723921775785,
        1.7362085024282086e-09,
        0.0,
        0.13449442702830697,
        -4.363441537013908e-09,
        0.24059745788747441,
        0.0,
        -0.24059745788747414,
        1.136401479193536e-08,
        0.13449442702830705,
        0.0,
        0.16741116344928741,
        -0.027554333209991455,
        0.9345632791519165,
        1.0
      ],
      "name": "Text.001"
    },
    {
      "mesh": 4,
      "name": "Text.001_MAIN_0"
    },
    {
      "children": [
        29
      ],
      "matrix": [
        -8.525291353310452e-08,
        0.3021760284900537,
        2.237538127064298e-08,
        0.0,
        0.17634644562908067,
        3.158269855341236e-08,
        0.24538191316398647,
        0.0,
        0.24538191316397365,
        8.2287606045005e-08,
        -0.1763464456290821,
        0.0,
        0.8722057938575745,
        -0.07028334587812424,
        1.035206913948059,
        1.0
      ],
      "name": "Text.002"
    },
    {
      "mesh": 5,
      "name": "Text.002_MAIN_0"
    },
    {
      "children": [
        31
      ],
      "matrix": [
        -1.3208534249046136e-08,
        0.30217602849006536,
        2.215203880696546e-08,
        0.0,
        0.15491972328028458,
        -1.2247530729534456e-08,
        0.2594421545022886,
        0.0,
        0.2594421545022885,
        2.2697493086658885e-08,
        -0.1549197232802835,
        0.0,
        0.6813002228736877,
        -0.28494834899902344,
        0.7470365762710571,
        1.0
      ],
      "name": "Text.003"
    },
    {
      "mesh": 6,
      "name": "Text.003_MAIN_0"
    },
    {
      "children": [
        33
      ],
      "matrix": [
        4.090293196253326,
        5.4094805901050696e-08,
        -2.0923155680105348,
        0.0,
        -5.69630458189675e-08,
        4.594375133514403,
        7.425396326644416e-09,
        0.0,
        2.0923155680105348,
        1.9330728752666964e-08,
        4.090293196253326,
        0.0,
        0.12460957467556,
        -1.5041115283966064,
        -0.32537567615509033,
        1.0
      ],
      "name": "Circle"
    },
    {
      "mesh": 7,
      "name": "Circle_metal_0"
    },
    {
      "children": [
        35
      ],
      "matrix": [
        -0.09345733939581442,
        -1.8053380971980625e-08,
        -0.18270092547117922,
        0.0,
        -0.18270092547117925,
        2.9128129442050566e-08,
        0.09345733939581158,
        0.0,
        1.7710620797221375e-08,
        0.2052167356014223,
        -2.9337801074852302e-08,
        0.0,
        0.12460945546627045,
        -1.3805296421051025,
        -0.3253755569458008,
        1.0
      ],
      "name": "Circle.001"
    },
    {
      "mesh": 8,
      "name": "Circle.001_metal_0"
    },
    {
      "children": [
        37
      ],
      "matrix": [
        4.090293196253326,
        5.4094805901050696e-08,
        -2.0923155680105348,
        0.0,
        -5.69630458189675e-08,
        4.594375133514403,
        7.425396326644416e-09,
        0.0,
        2.0923155680105348,
        1.9330728752666964e-08,
        4.090293196253326,
        0.0,
        0.23908419907093048,
        -1.4638566970825195,
        -0.5861904621124268,
        1.0
      ],
      "name": "Circle.002"
    },
    {
      "mesh": 9,
      "name": "Circle.002_metal_0"
    },
    {
      "children": [
        39
      ],
      "matrix": [
        4.090293196253326,
        5.4094805901050696e-08,
        -2.0923155680105348,
        0.0,
        -5.69630458189675e-08,
        4.594375133514403,
        7.425396326644416e-09,
        0.0,
        2.0923155680105348,
        1.9330728752666964e-08,
        4.090293196253326,
        0.0,
        -0.03574422001838684,
        -1.418304681777954,
        -0.5605587959289551,
        1.0
      ],
      "name": "Circle.003"
    },
    {
      "mesh": 10,
      "name": "Circle.003_metal_0"
    },
    {
      "children": [
        41
      ],
      "matrix": [
        4.090293196253326,
        5.4094805901050696e-08,
        -2.0923155680105348,
        0.0,
        -5.69630458189675e-08,
        4.594375133514403,
        7.425396326644416e-09,
        0.0,
        2.0923155680105348,
        1.9330728752666964e-08,
        4.090293196253326,
        0.0,
        0.12343113124370575,
        -1.4501802921295166,
        -0.3400510549545288,
        1.0
      ],
      "name": "Cylinder"
    },
    {
      "mesh": 11,
      "name": "Cylinder_metal_0"
    },
    {
      "children": [
        43
      ],
      "matrix": [
        4.090293196253326,
        5.4094805901050696e-08,
        -2.0923155680105348,
        0.0,
        -5.69630458189675e-08,
        4.594375133514403,
        7.425396326644416e-09,
        0.0,
        2.0923155680105348,
        1.9330728752666964e-08,
        4.090293196253326,
        0.0,
        0.12460957467556,
        1.3836026191711426,
        -0.32537567615509033,
        1.0
      ],
      "name": "Circle.004"
    },
    {
      "mesh": 12,
      "name": "Circle.004_metal_0"
    },
    {
      "children": [
        45
      ],
      "matrix": [
        -0.09345733939581442,
        -1.8053380971980625e-08,
        -0.18270092547117922,
        0.0,
        -0.18270092547117925,
        2.9128129442050566e-08,
        0.09345733939581158,
        0.0,
        1.7710620797221375e-08,
        0.2052167356014223,
        -2.9337801074852302e-08,
        0.0,
        0.12460945546627045,
        1.5071845054626465,
        -0.3253755569458008,
        1.0
      ],
      "name": "Circle.005"
    },
    {
      "mesh": 13,
      "name": "Circle.005_metal_0"
    },
    {
      "children": [
        47
      ],
      "matrix": [
        4.090293196253326,
        5.4094805901050696e-08,
        -2.0923155680105348,
        0.0,
        -5.69630458189675e-08,
        4.594375133514403,
        7.425396326644416e-09,
        0.0,
        2.0923155680105348,
        1.9330728752666964e-08,
        4.090293196253326,
        0.0,
        0.23908419907093048,
        1.4238574504852295,
        -0.5861904621124268,
        1.0
      ],
      "name": "Circle.006"
    },
    {
      "mesh": 14,
      "name": "Circle.006_metal_0"
    },
    {
      "children": [
        49
      ],
      "matrix": [
        4.090293196253326,
        5.4094805901050696e-08,
        -2.0923155680105348,
        0.0,
        -5.69630458189675e-08,
        4.594375133514403,
        7.425396326644416e-09,
        0.0,
        2.0923155680105348,
        1.9330728752666964e-08,
        4.090293196253326,
        0.0,
        -0.03574422001838684,
        1.469409465789795,
        -0.5605587959289551,
        1.0
      ],
      "name": "Circle.007"
    },
    {
      "mesh": 15,
      "name": "Circle.007_metal_0"
    },
    {
      "children": [
        51
      ],
      "matrix": [
        4.090293196253326,
        5.4094805901050696e-08,
        -2.0923155680105348,
        0.0,
        -5.69630458189675e-08,
        4.594375133514403,
        7.425396326644416e-09,
        0.0,
        2.0923155680105348,
        1.9330728752666964e-08,
        4.090293196253326,
        0.0,
        0.12343113124370575,
        1.4375338554382324,
        -0.3400510549545288,
        1.0
      ],
      "name": "Cylinder.001"
    },
    {
      "mesh": 16,
      "name": "Cylinder.001_metal_0"
    },
    {
      "children": [
        53
      ],
      "matrix": [
        -0.016575266993013444,
        -0.01756883619807634,
        0.01279257353718348,
        0.0,
        -0.016699497802504574,
        -1.8001552212427615e-08,
        -0.021637471943195822,
        0.0,
        0.013908297615757938,
        -0.02093775234700449,
        -0.010734211887998526,
        0.0,
        -1.2336461544036865,
        3.4606966972351074,
        3.5653085708618164,
        1.0
      ],
      "name": "emission"
    },
    {
      "mesh": 17,
      "name": "emission_emission_0"
    }
  ],
  "samplers": [
    {
      "magFilter": 9729,
      "minFilter": 9987,
      "wrapS": 10497,
      "wrapT": 10497
    }
  ],
  "scene": 0,
  "scenes": [
    {
      "name": "Sketchfab_Scene",
      "nodes": [
        0
      ]
    }
  ],
  "textures": [
    {
      "sampler": 0,
      "source": 0
    }
  ]
}
