{
  "accessors": [
    {
      "bufferView": 3,
      "componentType": 5126,
      "count": 933,
      "max": [
        0.110410675406456,
        0.39790186285972595,
        0.061680182814598083
      ],
      "min": [
        -0.10721094161272049,
        -0.15380164980888367,
        -0.08022274076938629
      ],
      "type": "VEC3"
    },
    {
      "bufferView": 3,
      "byteOffset": 11196,
      "componentType": 5126,
      "count": 933,
      "max": [
        0.9989591836929321,
        0.9949748516082764,
        0.9998281002044678
      ],
      "min": [
        -0.9981514811515808,
        -0.9996459484100342,
        -0.9998836517333984
      ],
      "type": "VEC3"
    },
    {
      "bufferView": 4,
      "componentType": 5126,
      "count": 933,
      "max": [
        0.9989891648292542,
        0.9998343586921692,
        0.9991231560707092,
        1.0
      ],
      "min": [
        -0.9998101592063904,
        -0.9996834993362427,
        -0.9990532398223877,
        1.0
      ],
      "type": "VEC4"
    },
    {
      "bufferView": 2,
      "componentType": 5126,
      "count": 933,
      "max": [
        0.9996296763420105,
        0.9732652902603149
      ],
      "min": [
        0.00037028876249678433,
        0.00037028876249678433
      ],
      "type": "VEC2"
    },
    {
      "bufferView": 1,
      "componentType": 5125,
      "count": 3870,
      "type": "SCALAR"
    },
    {
      "bufferView": 5,
      "componentType": 5126,
      "count": 27,
      "max": [
        1.1000001430511475,
        0.33562108874320984,
        0.0,
        0.0,
        0.9941986203193665,
        1.1000001430511475,
        0.40815970301628113,
        0.0,
        0.0,
        0.08192993700504303,
        1.100000023841858,
        0.0,
        0.032358478754758835,
        0.36998647451400757,
        0.09170608967542648,
        1.0
      ],
      "min": [
        -0.4895455837249756,
        -0.9785701632499695,
        -0.9992515444755554,
        0.0,
        -0.08186860382556915,
        -0.9979691505432129,
        -0.33659783005714417,
        0.0,
        -1.0,
        -0.6166492104530334,
        -4.792807430931134e-07,
        0.0,
        -0.06138082221150398,
        -0.12770090997219086,
        -0.048163626343011856,
        1.0
      ],
      "type": "MAT4"
    },
    {
      "bufferView": 0,
      "componentType": 5123,
      "count": 933,
      "type": "VEC4"
    },
    {
      "bufferView": 4,
      "byteOffset": 14928,
      "componentType": 5126,
      "count": 933,
      "max": [
        1.0,
        0.49291256070137024,
        0.2656611204147339,
        0.1196674033999443
      ],
      "min": [
        0.386403352022171,
        0.0,
        0.0,
        0.0
      ],
      "type": "VEC4"
    },
    {
      "bufferView": 6,
      "componentType": 5126,
      "count": 414,
      "max": [
        8.319999694824219
      ],
      "min": [
        0.0
      ],
      "type": "SCALAR"
    },
    {
      "bufferView": 7,
      "componentType": 5126,
      "count": 414,
      "max": [
        -5.153628634957386e-10,
        0.02535301074385643,
        7.917135391721786e-09
      ],
      "min": [
        -1.2344916200390799e-09,
        0.02535300701856613,
        2.4375683693733663e-09
      ],
      "type": "VEC3"
    },
    {
      "bufferView": 6,
      "byteOffset": 1656,
      "componentType": 5126,
      "count": 4,
      "max": [
        8.319999694824219
      ],
      "min": [
        0.0
      ],
      "type": "SCALAR"
    },
    {
      "bufferView": 7,
      "byteOffset": 4968,
      "componentType": 5126,
      "count": 4,
      "max": [
        1.0,
        1.0000001192092896,
        0.9999999403953552
      ],
      "min": [
        1.0,
        1.0,
        0.9999999403953552
      ],
      "type": "VEC3"
    },
    {
      "bufferView": 6,
      "byteOffset": 1672,
      "componentType": 5126,
      "count": 414,
      "max": [
        8.319999694824219
      ],
      "min": [
        0.0
      ],
      "type": "SCALAR"
    },
    {
      "bufferView": 8,
      "componentType": 5126,
      "count": 414,
      "max": [
        0.10839875787496567,
        0.173684224486351,
        0.14286495745182037,
        0.9999962449073792
      ],
      "min": [
        -0.125862255692482,
        -0.0673179179430008,
        -0.6674194931983948,
        0.74467933177948
      ],
      "type": "VEC4"
    },
    {
      "bufferView": 6,
      "byteOffset": 3328,
      "componentType": 5126,
      "count": 414,
      "max": [
        8.319999694824219
      ],
      "min": [
        0.0
      ],
      "type": "SCALAR"
    },
    {
      "bufferView": 7,
      "byteOffset": 5016,
      "componentType": 5126,
      "count": 414,
      "max": [
        -2.3283064365386963e-10,
        0.026441369205713272,
        -3.267450754407264e-10
      ],
      "min": [
        -4.0745362639427185e-10,
        0.026441365480422974,
        -7.864246143185483e-09
      ],
      "type": "VEC3"
    },
    {
      "bufferView": 6,
      "byteOffset": 4984,
      "componentType": 5126,
      "count": 4,
      "max": [
        8.319999694824219
      ],
      "min": [
        0.0
      ],
      "type": "SCALAR"
    },
    {
      "bufferView": 7,
      "byteOffset": 9984,
      "componentType": 5126,
      "count": 4,
      "max": [
        1.0,
        1.0,
        0.9999999403953552
      ],
      "min": [
        0.9999999403953552,
        1.0,
        0.9999999403953552
      ],
      "type": "VEC3"
    },
    {
      "bufferView": 6,
      "byteOffset": 5000,
      "componentType": 5126,
      "count": 414,
      "max": [
        8.319999694824219
      ],
      "min": [
        0.0
      ],
      "type": "SCALAR"
    },
    {
      "bufferView": 8,
      "byteOffset": 6624,
      "componentType": 5126,
      "count": 414,
      "max": [
        0.08842793107032776,
        0.011772318743169308,
        0.07466643303632736,
        0.9999535083770752
      ],
      "min": [
        -0.14343813061714172,
        -0.055879611521959305,
        -0.6193632483482361,
        0.7848573327064514
      ],
      "type": "VEC4"
    },
    {
      "bufferView": 6,
      "byteOffset": 6656,
      "componentType": 5126,
      "count": 414,
      "max": [
        8.319999694824219
      ],
      "min": [
        0.0
      ],
      "type": "SCALAR"
    },
    {
      "bufferView": 7,
      "byteOffset": 10032,
      "componentType": 5126,
      "count": 414,
      "max": [
        8.149072527885437e-10,
        0.10069700330495834,
        9.607372675191073e-09
      ],
      "min": [
        4.656612873077393e-10,
        0.10069700330495834,
        3.236928503014269e-10
      ],
      "type": "VEC3"
    },
    {
      "bufferView": 6,
      "byteOffset": 8312,
      "componentType": 5126,
      "count": 4,
      "max": [
        8.319999694824219
      ],
      "min": [
        0.0
      ],
      "type": "SCALAR"
    },
    {
      "bufferView": 7,
      "byteOffset": 15000,
      "componentType": 5126,
      "count": 4,
      "max": [
        0.9999999403953552,
        1.0,
        0.9999999403953552
      ],
      "min": [
        0.9999999403953552,
        0.9999999403953552,
        0.9999999403953552
      ],
      "type": "VEC3"
    },
    {
      "bufferView": 6,
      "byteOffset": 8328,
      "componentType": 5126,
      "count": 414,
      "max": [
        8.319999694824219
      ],
      "min": [
        0.0
      ],
      "type": "SCALAR"
    },
    {
      "bufferView": 8,
      "byteOffset": 13248,
      "componentType": 5126,
      "count": 414,
      "max": [
        0.025522654876112938,
        0.01835746131837368,
        0.08761759847402573,
        0.9995244145393372
      ],
      "min": [
        -0.2003737837076187,
        -0.0545286200940609,
        -0.6068861484527588,
        0.7909719944000244
      ],
      "type": "VEC4"
    },
    {
      "bufferView": 6,
      "byteOffset": 9984,
      "componentType": 5126,
      "count": 394,
      "max": [
        8.319999694824219
      ],
      "min": [
        0.0
      ],
      "type": "SCALAR"
    },
    {
      "bufferView": 7,
      "byteOffset": 15048,
      "componentType": 5126,
      "count": 394,
      "max": [
        -2.064940541013317e-15,
        1.4447490315205869e-08,
        0.00039791010203771293
      ],
      "min": [
        -0.00012251318548806012,
        -0.0024419797118753195,
        -2.5611386345048004e-09
      ],
      "type": "VEC3"
    },
    {
      "bufferView": 6,
      "byteOffset": 11560,
      "componentType": 5126,
      "count": 394,
      "max": [
        8.319999694824219
      ],
      "min": [
        0.0
      ],
      "type": "SCALAR"
    },
    {
      "bufferView": 8,
      "byteOffset": 19872,
      "componentType": 5126,
      "count": 394,
      "max": [
        0.2644900679588318,
        0.009787718765437603,
        0.09540282189846039,
        0.9957722425460815
      ],
      "min": [
        0.08978769928216934,
        -0.011487865820527077,
        0.015638642013072968,
        0.9596538543701172
      ],
      "type": "VEC4"
    },
    {
      "bufferView": 6,
      "byteOffset": 13136,
      "componentType": 5126,
      "count": 414,
      "max": [
        8.319999694824219
      ],
      "min": [
        0.0
      ],
      "type": "SCALAR"
    },
    {
      "bufferView": 7,
      "byteOffset": 19776,
      "componentType": 5126,
      "count": 414,
      "max": [
        5.961644511387476e-10,
        0.02424679882824421,
        2.9637106102597954e-09
      ],
      "min": [
        -5.940492542322318e-11,
        0.024246782064437866,
        8.807310436509397e-11
      ],
      "type": "VEC3"
    },
    {
      "bufferView": 6,
      "byteOffset": 14792,
      "componentType": 5126,
      "count": 4,
      "max": [
        8.319999694824219
      ],
      "min": [
        0.0
      ],
      "type": "SCALAR"
    },
    {
      "bufferView": 7,
      "byteOffset": 24744,
      "componentType": 5126,
      "count": 4,
      "max": [
        0.9999999403953552,
        0.9999998807907104,
        1.0
      ],
      "min": [
        0.9999999403953552,
        0.9999998807907104,
        0.9999999403953552
      ],
      "type": "VEC3"
    },
    {
      "bufferView": 6,
      "byteOffset": 14808,
      "componentType": 5126,
      "count": 414,
      "max": [
        8.319999694824219
      ],
      "min": [
        0.0
      ],
      "type": "SCALAR"
    },
    {
      "bufferView": 8,
      "byteOffset": 26176,
      "componentType": 5126,
      "count": 414,
      "max": [
        0.09863156825304031,
        0.012891040183603764,
        0.01868838630616665,
        0.9999582171440125
      ],
      "min": [
        -0.1335064321756363,
        -0.06337642669677734,
        -0.6616129279136658,
        0.7497895956039429
      ],
      "type": "VEC4"
    },
    {
      "bufferView": 6,
      "byteOffset": 16464,
      "componentType": 5126,
      "count": 414,
      "max": [
        8.319999694824219
      ],
      "min": [
        0.0
      ],
      "type": "SCALAR"
    },
    {
      "bufferView": 7,
      "byteOffset": 24792,
      "componentType": 5126,
      "count": 414,
      "max": [
        9.89530235528946e-10,
        0.030358362942934036,
        6.698948062933141e-10
      ],
      "min": [
        6.912159733474255e-11,
        0.030358362942934036,
        2.85878876127299e-10
      ],
      "type": "VEC3"
    },
    {
      "bufferView": 6,
      "byteOffset": 18120,
      "componentType": 5126,
      "count": 414,
      "max": [
        8.319999694824219
      ],
      "min": [
        0.0
      ],
      "type": "SCALAR"
    },
    {
      "bufferView": 8,
      "byteOffset": 32800,
      "componentType": 5126,
      "count": 414,
      "max": [
        0.1025555208325386,
        0.01223800890147686,
        0.07848650217056274,
        0.9999826550483704
      ],
      "min": [
        -0.1280384063720703,
        -0.04386655613780022,
        -0.6154579520225525,
        0.7881583571434021
      ],
      "type": "VEC4"
    },
    {
      "bufferView": 6,
      "byteOffset": 19776,
      "componentType": 5126,
      "count": 414,
      "max": [
        8.319999694824219
      ],
      "min": [
        0.0
      ],
      "type": "SCALAR"
    },
    {
      "bufferView": 7,
      "byteOffset": 29760,
      "componentType": 5126,
      "count": 414,
      "max": [
        1.0695657692849636e-09,
        0.09680173546075821,
        2.204748827949743e-09
      ],
      "min": [
        9.076757123693824e-10,
        0.09680172055959702,
        -2.681733723974844e-10
      ],
      "type": "VEC3"
    },
    {
      "bufferView": 6,
      "byteOffset": 21432,
      "componentType": 5126,
      "count": 4,
      "max": [
        8.319999694824219
      ],
      "min": [
        0.0
      ],
      "type": "SCALAR"
    },
    {
      "bufferView": 7,
      "byteOffset": 34728,
      "componentType": 5126,
      "count": 4,
      "max": [
        1.0,
        1.0,
        0.9999999403953552
      ],
      "min": [
        0.9999999403953552,
        0.9999999403953552,
        0.9999999403953552
      ],
      "type": "VEC3"
    },
    {
      "bufferView": 6,
      "byteOffset": 21448,
      "componentType": 5126,
      "count": 414,
      "max": [
        8.319999694824219
      ],
      "min": [
        0.0
      ],
      "type": "SCALAR"
    },
    {
      "bufferView": 8,
      "byteOffset": 39424,
      "componentType": 5126,
      "count": 414,
      "max": [
        0.11939884722232819,
        0.016464734449982643,
        0.08368904143571854,
        0.9999812245368958
      ],
      "min": [
        -0.10661236196756363,
        -0.02173456735908985,
        -0.6112827062606812,
        0.7912349104881287
      ],
      "type": "VEC4"
    },
    {
      "bufferView": 6,
      "byteOffset": 23104,
      "componentType": 5126,
      "count": 309,
      "max": [
        8.319999694824219
      ],
      "min": [
        0.0
      ],
      "type": "SCALAR"
    },
    {
      "bufferView": 7,
      "byteOffset": 34776,
      "componentType": 5126,
      "count": 309,
      "max": [
        -2.064940541013317e-15,
        1.4447490315205869e-08,
        -6.438094501959313e-11
      ],
      "min": [
        -4.6629367034256575e-15,
        1.4435499906539917e-08,
        -2.5611386345048004e-09
      ],
      "type": "VEC3"
    },
    {
      "bufferView": 6,
      "byteOffset": 24340,
      "componentType": 5126,
      "count": 4,
      "max": [
        8.319999694824219
      ],
      "min": [
        0.0
      ],
      "type": "SCALAR"
    },
    {
      "bufferView": 7,
      "byteOffset": 38484,
      "componentType": 5126,
      "count": 4,
      "max": [
        0.9999999403953552,
        1.0,
        0.9999999403953552
      ],
      "min": [
        0.9999999403953552,
        0.9999999403953552,
        0.9999999403953552
      ],
      "type": "VEC3"
    },
    {
      "bufferView": 6,
      "byteOffset": 24356,
      "componentType": 5126,
      "count": 309,
      "max": [
        8.319999694824219
      ],
      "min": [
        0.0
      ],
      "type": "SCALAR"
    },
    {
      "bufferView": 8,
      "byteOffset": 46048,
      "componentType": 5126,
      "count": 309,
      "max": [
        0.009492297656834126,
        0.0016488670371472836,
        0.057444196194410324,
        0.9991400837898254
      ],
      "min": [
        -0.048950742930173874,
        -0.007184414193034172,
        0.028783531859517097,
        0.9971470236778259
      ],
      "type": "VEC4"
    },
    {
      "bufferView": 6,
      "byteOffset": 25592,
      "componentType": 5126,
      "count": 414,
      "max": [
        8.319999694824219
      ],
      "min": [
        0.0
      ],
      "type": "SCALAR"
    },
    {
      "bufferView": 7,
      "byteOffset": 38532,
      "componentType": 5126,
      "count": 414,
      "max": [
        7.868915519182451e-10,
        0.019445061683654785,
        -1.7140633357115576e-10
      ],
      "min": [
        -1.2214403932730988e-09,
        0.019445056095719337,
        -3.2950437933720877e-09
      ],
      "type": "VEC3"
    },
    {
      "bufferView": 6,
      "byteOffset": 27248,
      "componentType": 5126,
      "count": 12,
      "max": [
        8.319999694824219
      ],
      "min": [
        0.0
      ],
      "type": "SCALAR"
    },
    {
      "bufferView": 7,
      "byteOffset": 43500,
      "componentType": 5126,
      "count": 12,
      "max": [
        0.9999998807907104,
        0.9999998807907104,
        1.0
      ],
      "min": [
        0.9999998807907104,
        0.9999997615814209,
        0.9999998211860657
      ],
      "type": "VEC3"
    },
    {
      "bufferView": 6,
      "byteOffset": 27296,
      "componentType": 5126,
      "count": 414,
      "max": [
        8.319999694824219
      ],
      "min": [
        0.0
      ],
      "type": "SCALAR"
    },
    {
      "bufferView": 8,
      "byteOffset": 50992,
      "componentType": 5126,
      "count": 414,
      "max": [
        0.08108048886060715,
        0.021659724414348602,
        0.010201557539403439,
        0.9997263550758362
      ],
      "min": [
        -0.14767859876155853,
        -0.06175824627280235,
        -0.6673670411109924,
        0.7443780899047852
      ],
      "type": "VEC4"
    },
    {
      "bufferView": 6,
      "byteOffset": 28952,
      "componentType": 5126,
      "count": 414,
      "max": [
        8.319999694824219
      ],
      "min": [
        0.0
      ],
      "type": "SCALAR"
    },
    {
      "bufferView": 7,
      "byteOffset": 43644,
      "componentType": 5126,
      "count": 414,
      "max": [
        -9.022187441587448e-10,
        0.020806562155485153,
        -7.797007484100504e-10
      ],
      "min": [
        -9.094947017729282e-10,
        0.020806556567549706,
        -2.616270977640056e-09
      ],
      "type": "VEC3"
    },
    {
      "bufferView": 6,
      "byteOffset": 30608,
      "componentType": 5126,
      "count": 4,
      "max": [
        8.319999694824219
      ],
      "min": [
        0.0
      ],
      "type": "SCALAR"
    },
    {
      "bufferView": 7,
      "byteOffset": 48612,
      "componentType": 5126,
      "count": 4,
      "max": [
        1.0000001192092896,
        1.0,
        1.0
      ],
      "min": [
        1.0000001192092896,
        0.9999999403953552,
        1.0
      ],
      "type": "VEC3"
    },
    {
      "bufferView": 6,
      "byteOffset": 30624,
      "componentType": 5126,
      "count": 414,
      "max": [
        8.319999694824219
      ],
      "min": [
        0.0
      ],
      "type": "SCALAR"
    },
    {
      "bufferView": 8,
      "byteOffset": 57616,
      "componentType": 5126,
      "count": 414,
      "max": [
        0.10844848304986954,
        0.02010209485888481,
        0.06858833879232407,
        0.9999910593032837
      ],
      "min": [
        -0.12007513642311096,
        -0.0317818708717823,
        -0.6227168440818787,
        0.7824395298957825
      ],
      "type": "VEC4"
    },
    {
      "bufferView": 6,
      "byteOffset": 32280,
      "componentType": 5126,
      "count": 413,
      "max": [
        8.319999694824219
      ],
      "min": [
        0.0
      ],
      "type": "SCALAR"
    },
    {
      "bufferView": 7,
      "byteOffset": 48660,
      "componentType": 5126,
      "count": 413,
      "max": [
        4.3655745685100555e-10,
        0.10418384522199631,
        3.7920928619428196e-09
      ],
      "min": [
        -6.984919309616089e-10,
        0.10418383777141571,
        -2.276276500623453e-09
      ],
      "type": "VEC3"
    },
    {
      "bufferView": 6,
      "byteOffset": 33932,
      "componentType": 5126,
      "count": 8,
      "max": [
        8.319999694824219
      ],
      "min": [
        0.0
      ],
      "type": "SCALAR"
    },
    {
      "bufferView": 7,
      "byteOffset": 53616,
      "componentType": 5126,
      "count": 8,
      "max": [
        1.0,
        0.9999999403953552,
        1.0
      ],
      "min": [
        0.9999999403953552,
        0.9999998211860657,
        0.9999999403953552
      ],
      "type": "VEC3"
    },
    {
      "bufferView": 6,
      "byteOffset": 33964,
      "componentType": 5126,
      "count": 413,
      "max": [
        8.319999694824219
      ],
      "min": [
        0.0
      ],
      "type": "SCALAR"
    },
    {
      "bufferView": 8,
      "byteOffset": 64240,
      "componentType": 5126,
      "count": 413,
      "max": [
        0.20925015211105347,
        0.05810510367155075,
        0.09778191149234772,
        0.9997036457061768
      ],
      "min": [
        -0.014696398749947548,
        -0.031186290085315704,
        -0.5959839820861816,
        0.795668363571167
      ],
      "type": "VEC4"
    },
    {
      "bufferView": 6,
      "byteOffset": 35616,
      "componentType": 5126,
      "count": 391,
      "max": [
        8.319999694824219
      ],
      "min": [
        0.0
      ],
      "type": "SCALAR"
    },
    {
      "bufferView": 7,
      "byteOffset": 53712,
      "componentType": 5126,
      "count": 391,
      "max": [
        -2.064940541013317e-15,
        1.525040715932846e-08,
        0.0005178930587135255
      ],
      "min": [
        -0.00033955922117456794,
        -0.004766656085848808,
        -2.5611386345048004e-09
      ],
      "type": "VEC3"
    },
    {
      "bufferView": 6,
      "byteOffset": 37180,
      "componentType": 5126,
      "count": 391,
      "max": [
        8.319999694824219
      ],
      "min": [
        0.0
      ],
      "type": "SCALAR"
    },
    {
      "bufferView": 8,
      "byteOffset": 70848,
      "componentType": 5126,
      "count": 391,
      "max": [
        -0.13727426528930664,
        0.0137179521843791,
        0.04699378088116646,
        0.9898297786712646
      ],
      "min": [
        -0.27520981431007385,
        -0.05652414262294769,
        0.02907685376703739,
        0.960660994052887
      ],
      "type": "VEC4"
    },
    {
      "bufferView": 6,
      "byteOffset": 38744,
      "componentType": 5126,
      "count": 341,
      "max": [
        8.319999694824219
      ],
      "min": [
        0.0
      ],
      "type": "SCALAR"
    },
    {
      "bufferView": 7,
      "byteOffset": 58404,
      "componentType": 5126,
      "count": 341,
      "max": [
        6.51925802230835e-09,
        0.04599332436919212,
        2.3283064365386963e-09
      ],
      "min": [
        -9.313225746154785e-10,
        0.045993320643901825,
        2.240994945168495e-09
      ],
      "type": "VEC3"
    },
    {
      "bufferView": 6,
      "byteOffset": 40108,
      "componentType": 5126,
      "count": 6,
      "max": [
        8.319999694824219
      ],
      "min": [
        0.0
      ],
      "type": "SCALAR"
    },
    {
      "bufferView": 7,
      "byteOffset": 62496,
      "componentType": 5126,
      "count": 6,
      "max": [
        1.0,
        0.9999999403953552,
        1.0
      ],
      "min": [
        0.9999998807907104,
        0.9999999403953552,
        1.0
      ],
      "type": "VEC3"
    },
    {
      "bufferView": 6,
      "byteOffset": 40132,
      "componentType": 5126,
      "count": 341,
      "max": [
        8.319999694824219
      ],
      "min": [
        0.0
      ],
      "type": "SCALAR"
    },
    {
      "bufferView": 8,
      "byteOffset": 77104,
      "componentType": 5126,
      "count": 341,
      "max": [
        0.22623677551746368,
        0.23735955357551575,
        0.6512337327003479,
        0.995032548904419
      ],
      "min": [
        -0.4151375889778137,
        -0.03627101331949234,
        -0.10142280906438828,
        0.6342238187789917
      ],
      "type": "VEC4"
    },
    {
      "bufferView": 6,
      "byteOffset": 41496,
      "componentType": 5126,
      "count": 373,
      "max": [
        8.319999694824219
      ],
      "min": [
        0.0
      ],
      "type": "SCALAR"
    },
    {
      "bufferView": 7,
      "byteOffset": 62568,
      "componentType": 5126,
      "count": 373,
      "max": [
        3.073370447026491e-10,
        0.05662086233496666,
        5.456968210637569e-10
      ],
      "min": [
        -8.009379826035001e-10,
        0.05662085488438606,
        1.7462298274040222e-10
      ],
      "type": "VEC3"
    },
    {
      "bufferView": 6,
      "byteOffset": 42988,
      "componentType": 5126,
      "count": 6,
      "max": [
        8.319999694824219
      ],
      "min": [
        0.0
      ],
      "type": "SCALAR"
    },
    {
      "bufferView": 7,
      "byteOffset": 67044,
      "componentType": 5126,
      "count": 6,
      "max": [
        1.0,
        1.0,
        0.9999999403953552
      ],
      "min": [
        1.0,
        0.9999998807907104,
        0.9999999403953552
      ],
      "type": "VEC3"
    },
    {
      "bufferView": 6,
      "byteOffset": 43012,
      "componentType": 5126,
      "count": 373,
      "max": [
        8.319999694824219
      ],
      "min": [
        0.0
      ],
      "type": "SCALAR"
    },
    {
      "bufferView": 8,
      "byteOffset": 82560,
      "componentType": 5126,
      "count": 373,
      "max": [
        -0.18250985443592072,
        0.2535942494869232,
        0.3091583549976349,
        0.9719359278678894
      ],
      "min": [
        -0.3016103208065033,
        -0.006801956333220005,
        -0.0991712361574173,
        0.9019268155097961
      ],
      "type": "VEC4"
    },
    {
      "bufferView": 6,
      "byteOffset": 44504,
      "componentType": 5126,
      "count": 383,
      "max": [
        8.319999694824219
      ],
      "min": [
        0.0
      ],
      "type": "SCALAR"
    },
    {
      "bufferView": 7,
      "byteOffset": 67116,
      "componentType": 5126,
      "count": 383,
      "max": [
        -6.439293542825908e-15,
        3.725290298461914e-08,
        -8.149088626119294e-10
      ],
      "min": [
        -7.30075400227079e-15,
        3.689519800786911e-08,
        -1.8238714982743431e-09
      ],
      "type": "VEC3"
    },
    {
      "bufferView": 6,
      "byteOffset": 46036,
      "componentType": 5126,
      "count": 383,
      "max": [
        8.319999694824219
      ],
      "min": [
        0.0
      ],
      "type": "SCALAR"
    },
    {
      "bufferView": 8,
      "byteOffset": 88528,
      "componentType": 5126,
      "count": 383,
      "max": [
        0.44473788142204285,
        -0.5031291246414185,
        -0.36876770853996277,
        0.6915642023086548
      ],
      "min": [
        0.22293706238269806,
        -0.6264221668243408,
        -0.4953259527683258,
        0.5493423342704773
      ],
      "type": "VEC4"
    },
    {
      "bufferView": 6,
      "byteOffset": 47568,
      "componentType": 5126,
      "count": 410,
      "max": [
        8.319999694824219
      ],
      "min": [
        0.0
      ],
      "type": "SCALAR"
    },
    {
      "bufferView": 7,
      "byteOffset": 71712,
      "componentType": 5126,
      "count": 410,
      "max": [
        1.4834396378196922e-16,
        0.21095022559165955,
        3.958120498026574e-09
      ],
      "min": [
        -4.718447854656915e-16,
        0.21095022559165955,
        -2.0766055541798778e-10
      ],
      "type": "VEC3"
    },
    {
      "bufferView": 6,
      "byteOffset": 49208,
      "componentType": 5126,
      "count": 410,
      "max": [
        8.319999694824219
      ],
      "min": [
        0.0
      ],
      "type": "SCALAR"
    },
    {
      "bufferView": 8,
      "byteOffset": 94656,
      "componentType": 5126,
      "count": 410,
      "max": [
        0.2973752021789551,
        0.2997135818004608,
        0.2021339237689972,
        1.0
      ],
      "min": [
        -0.38937270641326904,
        -2.3364238188605668e-07,
        -0.13018085062503815,
        0.8979456424713135
      ],
      "type": "VEC4"
    },
    {
      "bufferView": 6,
      "byteOffset": 50848,
      "componentType": 5126,
      "count": 411,
      "max": [
        8.319999694824219
      ],
      "min": [
        0.0
      ],
      "type": "SCALAR"
    },
    {
      "bufferView": 7,
      "byteOffset": 76632,
      "componentType": 5126,
      "count": 411,
      "max": [
        1.6653345369377348e-15,
        0.15811383724212646,
        -1.5716075107974348e-09
      ],
      "min": [
        -4.440892098500626e-15,
        0.15811382234096527,
        -3.725290298461914e-09
      ],
      "type": "VEC3"
    },
    {
      "bufferView": 6,
      "byteOffset": 52492,
      "componentType": 5126,
      "count": 6,
      "max": [
        8.319999694824219
      ],
      "min": [
        0.0
      ],
      "type": "SCALAR"
    },
    {
      "bufferView": 7,
      "byteOffset": 81564,
      "componentType": 5126,
      "count": 6,
      "max": [
        1.0,
        1.0,
        1.0
      ],
      "min": [
        1.0,
        1.0,
        0.9999998807907104
      ],
      "type": "VEC3"
    },
    {
      "bufferView": 6,
      "byteOffset": 52516,
      "componentType": 5126,
      "count": 411,
      "max": [
        8.319999694824219
      ],
      "min": [
        0.0
      ],
      "type": "SCALAR"
    },
    {
      "bufferView": 8,
      "byteOffset": 101216,
      "componentType": 5126,
      "count": 411,
      "max": [
        0.6519013047218323,
        0.22721433639526367,
        0.21472327411174774,
        0.9999998807907104
      ],
      "min": [
        -0.06610424071550369,
        8.650523852793413e-08,
        -4.374162898557188e-08,
        0.70268714427948
      ],
      "type": "VEC4"
    },
    {
      "bufferView": 6,
      "byteOffset": 54160,
      "componentType": 5126,
      "count": 388,
      "max": [
        8.319999694824219
      ],
      "min": [
        0.0
      ],
      "type": "SCALAR"
    },
    {
      "bufferView": 8,
      "byteOffset": 107792,
      "componentType": 5126,
      "count": 388,
      "max": [
        0.6473131775856018,
        0.6473133563995361,
        0.6281936168670654,
        0.6281934380531311
      ],
      "min": [
        -0.49970728158950806,
        -0.49970743060112,
        -0.4999712407588959,
        -0.4999711215496063
      ],
      "type": "VEC4"
    }
  ],
  "animations": [
    {
      "channels": [
        {
          "sampler": 0,
          "target": {
            "node": 16,
            "path": "translation"
          }
        },
        {
          "sampler": 1,
          "target": {
            "node": 16,
            "path": "scale"
          }
        },
        {
          "sampler": 2,
          "target": {
            "node": 16,
            "path": "rotation"
          }
        },
        {
          "sampler": 3,
          "target": {
            "node": 15,
            "path": "translation"
          }
        },
        {
          "sampler": 4,
          "target": {
            "node": 15,
            "path": "scale"
          }
        },
        {
          "sampler": 5,
          "target": {
            "node": 15,
            "path": "rotation"
          }
        },
        {
          "sampler": 6,
          "target": {
            "node": 14,
            "path": "translation"
          }
        },
        {
          "sampler": 7,
          "target": {
            "node": 14,
            "path": "scale"
          }
        },
        {
          "sampler": 8,
          "target": {
            "node": 14,
            "path": "rotation"
          }
        },
        {
          "sampler": 9,
          "target": {
            "node": 13,
            "path": "translation"
          }
        },
        {
          "sampler": 10,
          "target": {
            "node": 13,
            "path": "rotation"
          }
        },
        {
          "sampler": 11,
          "target": {
            "node": 21,
            "path": "translation"
          }
        },
        {
          "sampler": 12,
          "target": {
            "node": 21,
            "path": "scale"
          }
        },
        {
          "sampler": 13,
          "target": {
            "node": 21,
            "path": "rotation"
          }
        },
        {
          "sampler": 14,
          "target": {
            "node": 20,
            "path": "translation"
          }
        },
        {
          "sampler": 15,
          "target": {
            "node": 20,
            "path": "rotation"
          }
        },
        {
          "sampler": 16,
          "target": {
            "node": 19,
            "path": "translation"
          }
        },
        {
          "sampler": 17,
          "target": {
            "node": 19,
            "path": "scale"
          }
        },
        {
          "sampler": 18,
          "target": {
            "node": 19,
            "path": "rotation"
          }
        },
        {
          "sampler": 19,
          "target": {
            "node": 18,
            "path": "translation"
          }
        },
        {
          "sampler": 20,
          "target": {
            "node": 18,
            "path": "scale"
          }
        },
        {
          "sampler": 21,
          "target": {
            "node": 18,
            "path": "rotation"
          }
        },
        {
          "sampler": 22,
          "target": {
            "node": 26,
            "path": "translation"
          }
        },
        {
          "sampler": 23,
          "target": {
            "node": 26,
            "path": "scale"
          }
        },
        {
          "sampler": 24,
          "target": {
            "node": 26,
            "path": "rotation"
          }
        },
        {
          "sampler": 25,
          "target": {
            "node": 25,
            "path": "translation"
          }
        },
        {
          "sampler": 26,
          "target": {
            "node": 25,
            "path": "scale"
          }
        },
        {
          "sampler": 27,
          "target": {
            "node": 25,
            "path": "rotation"
          }
        },
        {
          "sampler": 28,
          "target": {
            "node": 24,
            "path": "translation"
          }
        },
        {
          "sampler": 29,
          "target": {
            "node": 24,
            "path": "scale"
          }
        },
        {
          "sampler": 30,
          "target": {
            "node": 24,
            "path": "rotation"
          }
        },
        {
          "sampler": 31,
          "target": {
            "node": 23,
            "path": "translation"
          }
        },
        {
          "sampler": 32,
          "target": {
            "node": 23,
            "path": "rotation"
          }
        },
        {
          "sampler": 33,
          "target": {
            "node": 30,
            "path": "translation"
          }
        },
        {
          "sampler": 34,
          "target": {
            "node": 30,
            "path": "scale"
          }
        },
        {
          "sampler": 35,
          "target": {
            "node": 30,
            "path": "rotation"
          }
        },
        {
          "sampler": 36,
          "target": {
            "node": 29,
            "path": "translation"
          }
        },
        {
          "sampler": 37,
          "target": {
            "node": 29,
            "path": "scale"
          }
        },
        {
          "sampler": 38,
          "target": {
            "node": 29,
            "path": "rotation"
          }
        },
        {
          "sampler": 39,
          "target": {
            "node": 28,
            "path": "translation"
          }
        },
        {
          "sampler": 40,
          "target": {
            "node": 28,
            "path": "rotation"
          }
        },
        {
          "sampler": 41,
          "target": {
            "node": 12,
            "path": "translation"
          }
        },
        {
          "sampler": 42,
          "target": {
            "node": 12,
            "path": "rotation"
          }
        },
        {
          "sampler": 43,
          "target": {
            "node": 11,
            "path": "translation"
          }
        },
        {
          "sampler": 44,
          "target": {
            "node": 11,
            "path": "scale"
          }
        },
        {
          "sampler": 45,
          "target": {
            "node": 11,
            "path": "rotation"
          }
        },
        {
          "sampler": 46,
          "target": {
            "node": 10,
            "path": "rotation"
          }
        }
      ],
      "name": "Armature|ArmatureAction.007",
      "samplers": [
        {
          "input": 8,
          "interpolation": "LINEAR",
          "output": 9
        },
        {
          "input": 10,
          "interpolation": "LINEAR",
          "output": 11
        },
        {
          "input": 12,
          "interpolation": "LINEAR",
          "output": 13
        },
        {
          "input": 14,
          "interpolation": "LINEAR",
          "output": 15
        },
        {
          "input": 16,
          "interpolation": "LINEAR",
          "output": 17
        },
        {
          "input": 18,
          "interpolation": "LINEAR",
          "output": 19
        },
        {
          "input": 20,
          "interpolation": "LINEAR",
          "output": 21
        },
        {
          "input": 22,
          "interpolation": "LINEAR",
          "output": 23
        },
        {
          "input": 24,
          "interpolation": "LINEAR",
          "output": 25
        },
        {
          "input": 26,
          "interpolation": "LINEAR",
          "output": 27
        },
        {
          "input": 28,
          "interpolation": "LINEAR",
          "output": 29
        },
        {
          "input": 30,
          "interpolation": "LINEAR",
          "output": 31
        },
        {
          "input": 32,
          "interpolation": "LINEAR",
          "output": 33
        },
        {
          "input": 34,
          "interpolation": "LINEAR",
          "output": 35
        },
        {
          "input": 36,
          "interpolation": "LINEAR",
          "output": 37
        },
        {
          "input": 38,
          "interpolation": "LINEAR",
          "output": 39
        },
        {
          "input": 40,
          "interpolation": "LINEAR",
          "output": 41
        },
        {
          "input": 42,
          "interpolation": "LINEAR",
          "output": 43
        },
        {
          "input": 44,
          "interpolation": "LINEAR",
          "output": 45
        },
        {
          "input": 46,
          "interpolation": "LINEAR",
          "output": 47
        },
        {
          "input": 48,
          "interpolation": "LINEAR",
          "output": 49
        },
        {
          "input": 50,
          "interpolation": "LINEAR",
          "output": 51
        },
        {
          "input": 52,
          "interpolation": "LINEAR",
          "output": 53
        },
        {
          "input": 54,
          "interpolation": "LINEAR",
          "output": 55
        },
        {
          "input": 56,
          "interpolation": "LINEAR",
          "output": 57
        },
        {
          "input": 58,
          "interpolation": "LINEAR",
          "output": 59
        },
        {
          "input": 60,
          "interpolation": "LINEAR",
          "output": 61
        },
        {
          "input": 62,
          "interpolation": "LINEAR",
          "output": 63
        },
        {
          "input": 64,
          "interpolation": "LINEAR",
          "output": 65
        },
        {
          "input": 66,
          "interpolation": "LINEAR",
          "output": 67
        },
        {
          "input": 68,
          "interpolation": "LINEAR",
          "output": 69
        },
        {
          "input": 70,
          "interpolation": "LINEAR",
          "output": 71
        },
        {
          "input": 72,
          "interpolation": "LINEAR",
          "output": 73
        },
        {
          "input": 74,
          "interpolation": "LINEAR",
          "output": 75
        },
        {
          "input": 76,
          "interpolation": "LINEAR",
          "output": 77
        },
        {
          "input": 78,
          "interpolation": "LINEAR",
          "output": 79
        },
        {
          "input": 80,
          "interpolation": "LINEAR",
          "output": 81
        },
        {
          "input": 82,
          "interpolation": "LINEAR",
          "output": 83
        },
        {
          "input": 84,
          "interpolation": "LINEAR",
          "output": 85
        },
        {
          "input": 86,
          "interpolation": "LINEAR",
          "output": 87
        },
        {
          "input": 88,
          "interpolation": "LINEAR",
          "output": 89
        },
        {
          "input": 90,
          "interpolation": "LINEAR",
          "output": 91
        },
        {
          "input": 92,
          "interpolation": "LINEAR",
          "output": 93
        },
        {
          "input": 94,
          "interpolation": "LINEAR",
          "output": 95
        },
        {
          "input": 96,
          "interpolation": "LINEAR",
          "output": 97
        },
        {
          "input": 98,
          "interpolation": "LINEAR",
          "output": 99
        },
        {
          "input": 100,
          "interpolation": "LINEAR",
          "output": 101
        }
      ]
    }
  ],
  "asset": {
    "extras": {
      "author": "YiannisART (https://sketchfab.com/YiannisART)",
      "license": "CC-BY-4.0 (http://creativecommons.org/licenses/by/4.0/)",
      "source": "https://sketchfab.com/3d-models/stylized-armored-hand-free-download-9953642493504fe0bdf9053abf04c700",
      "title": "Stylized Armored Hand (FREE download)"
    },
    "generator": "Sketchfab-12.68.0",
    "version": "2.0"
  },
  "bufferViews": [
    {
      "buffer": 0,
      "byteLength": 7464,
      "byteStride": 8,
      "name": "shortBufferViews",
      "target": 34962
    },
    {
      "buffer": 0,
      "byteLength": 15480,
      "byteOffset": 7464,
      "name": "floatBufferViews",
      "target": 34963
    },
    {
      "buffer": 0,
      "byteLength": 7464,
      "byteOffset": 22944,
      "byteStride": 8,
      "name": "floatBufferViews",
      "target": 34962
    },
    {
      "buffer": 0,
      "byteLength": 22392,
      "byteOffset": 30408,
      "byteStride": 12,
      "name": "floatBufferViews",
      "target": 34962
    },
    {
      "buffer": 0,
      "byteLength": 29856,
      "byteOffset": 52800,
      "byteStride": 16,
      "name": "floatBufferViews",
      "target": 34962
    },
    {
      "buffer": 0,
      "byteLength": 1728,
      "byteOffset": 82656,
      "name": "floatBufferViews"
    },
    {
      "buffer": 0,
      "byteLength": 55712,
      "byteOffset": 84384,
      "name": "floatBufferViews"
    },
    {
      "buffer": 0,
      "byteLength": 81636,
      "byteOffset": 140096,
      "byteStride": 12,
      "name": "floatBufferViews"
    },
    {
      "buffer": 0,
      "byteLength": 114000,
      "byteOffset": 221732,
      "byteStride": 16,
      "name": "floatBufferViews"
    }
  ],
  "buffers": [
    {
      "byteLength": 335732,
      "uri": "scene.bin"
    }
  ],
  "images": [
    {
      "uri": "textures/Material_baseColor.png"
    },
    {
      "uri": "textures/Material_metallicRoughness.png"
    },
    {
      "uri": "textures/Material_normal.png"
    }
  ],
  "materials": [
    {
      "doubleSided": true,
      "name": "Material",
      "normalTexture": {
        "index": 2
      },
      "pbrMetallicRoughness": {
        "baseColorTexture": {
          "index": 0
        },
        "metallicRoughnessTexture": {
          "index": 1
        }
      }
    }
  ],
  "meshes": [
    {
      "name": "Plane_Material_0",
      "primitives": [
        {
          "attributes": {
            "JOINTS_0": 6,
            "NORMAL": 1,
            "POSITION": 0,
            "TANGENT": 2,
            "TEXCOORD_0": 3,
            "TEXCOORD_1": 3,
            "TEXCOORD_2": 3,
            "WEIGHTS_0": 7
          },
          "indices": 4,
          "material": 0,
          "mode": 4
        }
      ]
    }
  ],
  "nodes": [
    {
      "children": [
        1
      ],
      "matrix": [
        1.0,
        0.0,
        0.0,
        0.0,
        0.0,
        2.220446049250313e-16,
        -1.0,
        0.0,
        0.0,
        1.0,
        2.220446049250313e-16,
        0.0,
        0.0,
        -1.5407439555097887e-33,
        6.938893903907228e-18,
        1.0
      ],
      "name": "Sketchfab_model"
    },
    {
      "children": [
        2
      ],
      "matrix": [
        1.0,
        0.0,
        0.0,
        0.0,
        0.0,
        0.0,
        1.0,
        0.0,
        0.0,
        -1.0,
        0.0,
        0.0,
        0.0,
        0.0,
        0.0,
        1.0
      ],
      "name": "5f76b61d576d4f498d5f22e79a3c53a4.fbx"
    },
    {
      "children": [
        3
      ],
      "name": "Object_2"
    },
    {
      "children": [
        4,
        5
      ],
      "name": "RootNode"
    },
    {
      "name": "Plane",
      "scale": [
        1.100000023841858,
        1.100000023841858,
        1.100000023841858
      ],
      "translation": [
        0.0,
        0.0,
        0.1611979603767395
      ]
    },
    {
      "children": [
        6
      ],
      "name": "Armature",
      "rotation": [
        -0.7071068286895752,
        0.0,
        0.0,
        0.7071067094802856
      ],
      "scale": [
        1.100000023841858,
        1.100000023841858,
        1.100000023841858
      ]
    },
    {
      "children": [
        7,
        9,
        8
      ],
      "name": "Object_6"
    },
    {
      "children": [
        10,
        32,
        34
      ],
      "name": "_rootJoint"
    },
    {
      "matrix": [
        1.100000101131308,
        2.9215460717324507e-08,
        -9.131580989410125e-15,
        0.0,
        -2.9215460717322565e-08,
        1.100000101131235,
        -1.2730549443394287e-15,
        0.0,
        9.131580313985809e-15,
        1.2730550974210827e-15,
        1.100000023841962,
        0.0,
        -8.674623019899741e-09,
        3.523336933319854e-08,
        0.1611979523988712,
        1.0
      ],
      "name": "Object_8"
    },
    {
      "mesh": 0,
      "name": "Object_9",
      "skin": 0
    },
    {
      "children": [
        11
      ],
      "name": "Bone_00",
      "rotation": [
        0.5736348032951355,
        0.573634922504425,
        -0.41345271468162537,
        -0.41345250606536865
      ],
      "translation": [
        -0.029999999329447746,
        0.0,
        0.37999996542930603
      ]
    },
    {
      "children": [
        12
      ],
      "name": "Bone.001_01",
      "rotation": [
        0.20684705674648285,
        8.650524563336148e-08,
        -4.374162898557188e-08,
        0.9783732891082764
      ],
      "scale": [
        1.0,
        1.0,
        0.9999998807907104
      ],
      "translation": [
        -4.440892098500626e-15,
        0.15811383724212646,
        -3.725290298461914e-09
      ]
    },
    {
      "children": [
        13,
        18,
        23,
        28
      ],
      "name": "Bone.017_02",
      "rotation": [
        0.012096529826521873,
        -2.313665277142718e-07,
        -7.099546195377116e-08,
        0.9999269247055054
      ],
      "translation": [
        1.4834393731218961e-16,
        0.21095022559165955,
        -2.0766055541798778e-10
      ]
    },
    {
      "children": [
        14
      ],
      "name": "Bone.002_03",
      "rotation": [
        0.14996032416820526,
        -0.005914514884352684,
        0.03896455466747284,
        0.9879062175750732
      ],
      "scale": [
        0.9999999403953552,
        1.0,
        0.9999999403953552
      ],
      "translation": [
        -2.064940541013317e-15,
        1.4447490315205869e-08,
        -6.438094501959313e-11
      ]
    },
    {
      "children": [
        15
      ],
      "name": "Bone.003_04",
      "rotation": [
        -0.0776287317276001,
        0.005126529838889837,
        -0.012858949601650238,
        0.9968862533569336
      ],
      "scale": [
        0.9999999403953552,
        0.9999999403953552,
        0.9999999403953552
      ],
      "translation": [
        8.149072527885437e-10,
        0.10069700330495834,
        3.236928503014269e-10
      ]
    },
    {
      "children": [
        16
      ],
      "name": "Bone.004_05",
      "rotation": [
        -0.019695602357387543,
        0.0005225548520684242,
        -0.026514491066336632,
        0.9994542598724365
      ],
      "scale": [
        0.9999999403953552,
        1.0,
        0.9999999403953552
      ],
      "translation": [
        -4.0745362639427185e-10,
        0.026441365480422974,
        -3.267450754407264e-10
      ]
    },
    {
      "children": [
        17
      ],
      "name": "Bone.005_06",
      "rotation": [
        -0.0019733652006834745,
        -0.00017662381287664175,
        -0.08905967324972153,
        0.9960244297981262
      ],
      "scale": [
        1.0,
        1.0,
        0.9999999403953552
      ],
      "translation": [
        -5.153628634957386e-10,
        0.02535301074385643,
        2.4375683693733663e-09
      ]
    },
    {
      "name": "Bone.005_end_020",
      "rotation": [
        -1.492595137537225e-17,
        -2.3657100821220575e-18,
        -3.5310472766259147e-35,
        1.0
      ],
      "translation": [
        0.0,
        0.02144874818623066,
        -3.469446951953614e-18
      ]
    },
    {
      "children": [
        19
      ],
      "name": "Bone.006_07",
      "rotation": [
        -0.04017851874232292,
        0.0016488670371472836,
        0.04096633568406105,
        0.998350977897644
      ],
      "scale": [
        0.9999999403953552,
        1.0,
        0.9999999403953552
      ],
      "translation": [
        -2.064940541013317e-15,
        1.4447490315205869e-08,
        -6.438094501959313e-11
      ]
    },
    {
      "children": [
        20
      ],
      "name": "Bone.007_08",
      "rotation": [
        0.016722621396183968,
        -0.0010738285491243005,
        -0.017909469082951546,
        0.9996991753578186
      ],
      "scale": [
        0.9999999403953552,
        0.9999999403953552,
        0.9999999403953552
      ],
      "translation": [
        9.076757123693824e-10,
        0.09680172055959702,
        -2.681733723974844e-10
      ]
    },
    {
      "children": [
        21
      ],
      "name": "Bone.008_09",
      "rotation": [
        -0.004234532359987497,
        9.798258543014526e-05,
        -0.023095790296792984,
        0.9997243881225586
      ],
      "scale": [
        1.0,
        0.9999999403953552,
        1.0000001192092896
      ],
      "translation": [
        6.912159733474255e-11,
        0.030358362942934036,
        6.698948062933141e-10
      ]
    },
    {
      "children": [
        22
      ],
      "name": "Bone.009_010",
      "rotation": [
        -0.009128311648964882,
        -0.0007607913576066494,
        -0.08302976936101913,
        0.9965049624443054
      ],
      "scale": [
        0.9999999403953552,
        0.9999998807907104,
        1.0
      ],
      "translation": [
        5.961644511387476e-10,
        0.024246782064437866,
        8.807310436509397e-11
      ]
    },
    {
      "name": "Bone.009_end_021",
      "rotation": [
        -8.683186205210049e-18,
        -7.328952576117834e-19,
        -6.363866262610405e-36,
        1.0
      ],
      "translation": [
        3.469446951953614e-18,
        0.022993477061390877,
        -2.168404344971009e-19
      ]
    },
    {
      "children": [
        24
      ],
      "name": "Bone.010_011",
      "rotation": [
        -0.229002445936203,
        0.008729327470064163,
        0.037076372653245926,
        0.9726803302764893
      ],
      "scale": [
        1.0,
        1.0000001192092896,
        1.0
      ],
      "translation": [
        -2.064940541013317e-15,
        1.4447490315205869e-08,
        -6.438094501959313e-11
      ]
    },
    {
      "children": [
        25
      ],
      "name": "Bone.011_012",
      "rotation": [
        0.10795659571886063,
        -0.007766089867800474,
        -0.004358094185590744,
        0.9941157102584839
      ],
      "scale": [
        1.0,
        0.9999999403953552,
        1.0
      ],
      "translation": [
        -6.984919309616089e-10,
        0.10418384522199631,
        3.7920928619428196e-09
      ]
    },
    {
      "children": [
        26
      ],
      "name": "Bone.015_013",
      "rotation": [
        0.0034863590262830257,
        -0.00011770168202929199,
        -0.033708762377500534,
        0.9994255900382996
      ],
      "scale": [
        1.0000001192092896,
        0.9999999403953552,
        1.0
      ],
      "translation": [
        -9.022187441587448e-10,
        0.020806556567549706,
        -2.616270977640056e-09
      ]
    },
    {
      "children": [
        27
      ],
      "name": "Bone.016_014",
      "rotation": [
        -0.022760316729545593,
        -0.0021090018562972546,
        -0.09224680066108704,
        0.9954738020896912
      ],
      "scale": [
        0.9999998807907104,
        0.9999998807907104,
        1.0
      ],
      "translation": [
        7.868915519182451e-10,
        0.019445056095719337,
        -3.2950437933720877e-09
      ]
    },
    {
      "name": "Bone.016_end_022",
      "rotation": [
        5.859244533513216e-18,
        2.3852447794681098e-18,
        -1.3975732435189458e-35,
        1.0
      ],
      "translation": [
        0.0,
        0.020708397030830383,
        3.469446951953614e-18
      ]
    },
    {
      "children": [
        29
      ],
      "name": "Bone.012_015",
      "rotation": [
        0.3893836736679077,
        -0.5121885538101196,
        -0.48750659823417664,
        0.5902377367019653
      ],
      "translation": [
        -7.30075400227079e-15,
        3.689519800786911e-08,
        -1.8238714982743431e-09
      ]
    },
    {
      "children": [
        30
      ],
      "name": "Bone.013_016",
      "rotation": [
        -0.2871566712856293,
        0.09214232861995697,
        0.21628119051456451,
        0.9285867214202881
      ],
      "scale": [
        1.0,
        0.9999998807907104,
        0.9999999403953552
      ],
      "translation": [
        -8.009379826035001e-10,
        0.05662085488438606,
        1.7462298274040222e-10
      ]
    },
    {
      "children": [
        31
      ],
      "name": "Bone.014_017",
      "rotation": [
        -0.07912340015172958,
        0.05970586836338043,
        0.22776049375534058,
        0.9686588048934937
      ],
      "scale": [
        0.9999998807907104,
        0.9999999403953552,
        1.0
      ],
      "translation": [
        -9.313225746154785e-10,
        0.045993320643901825,
        2.240994945168495e-09
      ]
    },
    {
      "name": "Bone.014_end_023",
      "rotation": [
        -1.5407439555097887e-33,
        -2.7755575615628914e-17,
        -5.551115123125783e-17,
        1.0
      ],
      "translation": [
        -6.938893903907228e-18,
        0.048345793038606644,
        -6.938893903907228e-18
      ]
    },
    {
      "children": [
        33
      ],
      "name": "Bone.018_018",
      "rotation": [
        0.7071067690849304,
        0.7071068286895752,
        -1.376787679419067e-07,
        1.3767878215276141e-07
      ],
      "translation": [
        0.0,
        0.0,
        0.020000025629997253
      ]
    },
    {
      "name": "Bone.018_end_024",
      "rotation": [
        -4.1020767071492614e-29,
        0.0,
        -4.632211430296955e-23,
        1.0
      ],
      "translation": [
        -1.6543612251060553e-24,
        0.14000000059604645,
        0.0
      ]
    },
    {
      "children": [
        35
      ],
      "name": "Bone.019_019",
      "rotation": [
        0.7071067690849304,
        0.7071068286895752,
        -1.376787679419067e-07,
        1.3767878215276141e-07
      ],
      "translation": [
        0.23999999463558197,
        0.0,
        0.23000001907348633
      ]
    },
    {
      "name": "Bone.019_end_025",
      "rotation": [
        -4.1020767071492614e-29,
        0.0,
        -4.632211430296955e-23,
        1.0
      ],
      "translation": [
        0.0,
        0.1300000101327896,
        2.7755575615628914e-17
      ]
    }
  ],
  "samplers": [
    {
      "magFilter": 9729,
      "minFilter": 9987,
      "wrapS": 10497,
      "wrapT": 10497
    }
  ],
  "scene": 0,
  "scenes": [
    {
      "name": "Sketchfab_Scene",
      "nodes": [
        0
      ]
    }
  ],
  "skins": [
    {
      "inverseBindMatrices": 5,
      "joints": [
        7,
        10,
        11,
        12,
        13,
        14,
        15,
        16,
        17,
        18,
        19,
        20,
        21,
        22,
        23,
        24,
        25,
        26,
        27,
        28,
        29,
        30,
        31,
        32,
        33,
        34,
        35
      ],
      "skeleton": 7
    }
  ],
  "textures": [
    {
      "sampler": 0,
      "source": 0
    },
    {
      "sampler": 0,
      "source": 1
    },
    {
      "sampler": 0,
      "source": 2
    }
  ]
}
