{
  "accessors": [
    {
      "bufferView": 2,
      "componentType": 5126,
      "count": 199,
      "max": [
        142.240234375,
        45.03104019165039,
        71.54486083984375
      ],
      "min": [
        -60.86283874511719,
        -57.58734130859375,
        -64.30504608154297
      ],
      "type": "VEC3"
    },
    {
      "bufferView": 2,
      "byteOffset": 2388,
      "componentType": 5126,
      "count": 199,
      "max": [
        0.9884776473045349,
        0.999674916267395,
        0.9803679585456848
      ],
      "min": [
        -0.9659462571144104,
        -0.9851384162902832,
        -0.9880661368370056
      ],
      "type": "VEC3"
    },
    {
      "bufferView": 1,
      "componentType": 5126,
      "count": 199,
      "max": [
        0.31457340717315674,
        0.9403254985809326
      ],
      "min": [
        0.007394477725028992,
        -0.0002352595329284668
      ],
      "type": "VEC2"
    },
    {
      "bufferView": 0,
      "componentType": 5125,
      "count": 297,
      "type": "SCALAR"
    },
    {
      "bufferView": 2,
      "byteOffset": 4776,
      "componentType": 5126,
      "count": 120,
      "max": [
        49.56842041015625,
        294.66436767578125,
        50.00001525878906
      ],
      "min": [
        -45.94915771484375,
        -53.99695587158203,
        -49.82487487792969
      ],
      "type": "VEC3"
    },
    {
      "bufferView": 2,
      "byteOffset": 6216,
      "componentType": 5126,
      "count": 120,
      "max": [
        0.9986700415611267,
        0.9683118462562561,
        0.999930739402771
      ],
      "min": [
        -0.9999091029167175,
        -0.44352051615715027,
        -0.9988892078399658
      ],
      "type": "VEC3"
    },
    {
      "bufferView": 1,
      "byteOffset": 1592,
      "componentType": 5126,
      "count": 120,
      "max": [
        0.5703114867210388,
        0.6571502685546875
      ],
      "min": [
        0.32450035214424133,
        0.006605706177651882
      ],
      "type": "VEC2"
    },
    {
      "bufferView": 0,
      "byteOffset": 1188,
      "componentType": 5125,
      "count": 192,
      "type": "SCALAR"
    },
    {
      "bufferView": 2,
      "byteOffset": 7656,
      "componentType": 5126,
      "count": 159,
      "max": [
        73.06294250488281,
        266.2489929199219,
        49.99993896484375
      ],
      "min": [
        -48.67707824707031,
        -53.99695587158203,
        -43.72674560546875
      ],
      "type": "VEC3"
    },
    {
      "bufferView": 2,
      "byteOffset": 9564,
      "componentType": 5126,
      "count": 159,
      "max": [
        0.9984833002090454,
        0.9918745756149292,
        0.9987563490867615
      ],
      "min": [
        -0.9990778565406799,
        -0.5258181095123291,
        -0.9998948574066162
      ],
      "type": "VEC3"
    },
    {
      "bufferView": 1,
      "byteOffset": 2552,
      "componentType": 5126,
      "count": 159,
      "max": [
        0.864044725894928,
        0.4762331247329712
      ],
      "min": [
        0.5594214200973511,
        0.010140419006347656
      ],
      "type": "VEC2"
    },
    {
      "bufferView": 0,
      "byteOffset": 1956,
      "componentType": 5125,
      "count": 291,
      "type": "SCALAR"
    },
    {
      "bufferView": 2,
      "byteOffset": 11472,
      "componentType": 5126,
      "count": 159,
      "max": [
        73.06294250488281,
        266.2489929199219,
        49.99993896484375
      ],
      "min": [
        -48.67707824707031,
        -53.99695587158203,
        -43.72674560546875
      ],
      "type": "VEC3"
    },
    {
      "bufferView": 2,
      "byteOffset": 13380,
      "componentType": 5126,
      "count": 159,
      "max": [
        0.9984833002090454,
        0.9918745756149292,
        0.9987563490867615
      ],
      "min": [
        -0.9990778565406799,
        -0.5258181095123291,
        -0.9998948574066162
      ],
      "type": "VEC3"
    },
    {
      "bufferView": 1,
      "byteOffset": 3824,
      "componentType": 5126,
      "count": 159,
      "max": [
        0.7276386022567749,
        0.9858664274215698
      ],
      "min": [
        0.5006107091903687,
        0.010140419006347656
      ],
      "type": "VEC2"
    },
    {
      "bufferView": 0,
      "byteOffset": 3120,
      "componentType": 5125,
      "count": 291,
      "type": "SCALAR"
    },
    {
      "bufferView": 2,
      "byteOffset": 15288,
      "componentType": 5126,
      "count": 120,
      "max": [
        49.56842041015625,
        294.66436767578125,
        50.00001525878906
      ],
      "min": [
        -45.94915771484375,
        -53.99695587158203,
        -49.82487487792969
      ],
      "type": "VEC3"
    },
    {
      "bufferView": 2,
      "byteOffset": 16728,
      "componentType": 5126,
      "count": 120,
      "max": [
        0.9986700415611267,
        0.9683118462562561,
        0.9999306201934814
      ],
      "min": [
        -0.9999092221260071,
        -0.4435204863548279,
        -0.9988892078399658
      ],
      "type": "VEC3"
    },
    {
      "bufferView": 1,
      "byteOffset": 5096,
      "componentType": 5126,
      "count": 120,
      "max": [
        0.5703114867210388,
        0.6571502685546875
      ],
      "min": [
        0.32450035214424133,
        0.006605706177651882
      ],
      "type": "VEC2"
    },
    {
      "bufferView": 0,
      "byteOffset": 4284,
      "componentType": 5125,
      "count": 192,
      "type": "SCALAR"
    },
    {
      "bufferView": 2,
      "byteOffset": 18168,
      "componentType": 5126,
      "count": 194,
      "max": [
        60.18756103515625,
        119.62353515625,
        50.0
      ],
      "min": [
        -50.20265197753906,
        -77.15393829345703,
        -57.704280853271484
      ],
      "type": "VEC3"
    },
    {
      "bufferView": 2,
      "byteOffset": 20496,
      "componentType": 5126,
      "count": 194,
      "max": [
        0.9970113635063171,
        0.9468349814414978,
        0.9852015376091003
      ],
      "min": [
        -0.9950324892997742,
        -0.9045615792274475,
        -0.9998833537101746
      ],
      "type": "VEC3"
    },
    {
      "bufferView": 1,
      "byteOffset": 6056,
      "componentType": 5126,
      "count": 194,
      "max": [
        0.49735623598098755,
        0.9872584342956543
      ],
      "min": [
        0.35426944494247437,
        0.6676658987998962
      ],
      "type": "VEC2"
    },
    {
      "bufferView": 0,
      "byteOffset": 5052,
      "componentType": 5125,
      "count": 288,
      "type": "SCALAR"
    },
    {
      "bufferView": 2,
      "byteOffset": 22824,
      "componentType": 5126,
      "count": 132,
      "max": [
        50.0,
        119.62353515625,
        50.0
      ],
      "min": [
        -50.20265197753906,
        -77.15393829345703,
        -57.704280853271484
      ],
      "type": "VEC3"
    },
    {
      "bufferView": 2,
      "byteOffset": 24408,
      "componentType": 5126,
      "count": 132,
      "max": [
        0.9970113635063171,
        0.9468349814414978,
        0.9852015376091003
      ],
      "min": [
        -0.9950324892997742,
        -0.9045615792274475,
        -0.9998833537101746
      ],
      "type": "VEC3"
    },
    {
      "bufferView": 1,
      "byteOffset": 7608,
      "componentType": 5126,
      "count": 132,
      "max": [
        0.3440552353858948,
        0.992804765701294
      ],
      "min": [
        0.20640090107917786,
        0.5165224671363831
      ],
      "type": "VEC2"
    },
    {
      "bufferView": 0,
      "byteOffset": 6204,
      "componentType": 5125,
      "count": 186,
      "type": "SCALAR"
    },
    {
      "bufferView": 2,
      "byteOffset": 25992,
      "componentType": 5126,
      "count": 132,
      "max": [
        50.0,
        119.62353515625,
        50.0
      ],
      "min": [
        -50.20265197753906,
        -77.15393829345703,
        -57.704280853271484
      ],
      "type": "VEC3"
    },
    {
      "bufferView": 2,
      "byteOffset": 27576,
      "componentType": 5126,
      "count": 132,
      "max": [
        0.9970113635063171,
        0.9468349814414978,
        0.9852015376091003
      ],
      "min": [
        -0.9950324892997742,
        -0.9045615792274475,
        -0.9998833537101746
      ],
      "type": "VEC3"
    },
    {
      "bufferView": 1,
      "byteOffset": 8664,
      "componentType": 5126,
      "count": 132,
      "max": [
        0.3440552353858948,
        0.992804765701294
      ],
      "min": [
        0.20640090107917786,
        0.5165224671363831
      ],
      "type": "VEC2"
    },
    {
      "bufferView": 0,
      "byteOffset": 6948,
      "componentType": 5125,
      "count": 186,
      "type": "SCALAR"
    },
    {
      "bufferView": 2,
      "byteOffset": 29160,
      "componentType": 5126,
      "count": 132,
      "max": [
        50.0,
        119.62353515625,
        50.0
      ],
      "min": [
        -50.20265197753906,
        -77.15393829345703,
        -57.704280853271484
      ],
      "type": "VEC3"
    },
    {
      "bufferView": 2,
      "byteOffset": 30744,
      "componentType": 5126,
      "count": 132,
      "max": [
        0.9970113635063171,
        0.9468349814414978,
        0.9852015376091003
      ],
      "min": [
        -0.9950324892997742,
        -0.9045615792274475,
        -0.9998833537101746
      ],
      "type": "VEC3"
    },
    {
      "bufferView": 1,
      "byteOffset": 9720,
      "componentType": 5126,
      "count": 132,
      "max": [
        0.3440552353858948,
        0.992804765701294
      ],
      "min": [
        0.20640090107917786,
        0.5165224671363831
      ],
      "type": "VEC2"
    },
    {
      "bufferView": 0,
      "byteOffset": 7692,
      "componentType": 5125,
      "count": 186,
      "type": "SCALAR"
    },
    {
      "bufferView": 2,
      "byteOffset": 32328,
      "componentType": 5126,
      "count": 194,
      "max": [
        60.18756103515625,
        119.62353515625,
        50.0
      ],
      "min": [
        -50.20265197753906,
        -77.15393829345703,
        -57.704280853271484
      ],
      "type": "VEC3"
    },
    {
      "bufferView": 2,
      "byteOffset": 34656,
      "componentType": 5126,
      "count": 194,
      "max": [
        0.9970113635063171,
        0.9468349814414978,
        0.9852015376091003
      ],
      "min": [
        -0.9950324892997742,
        -0.9045615792274475,
        -0.9998833537101746
      ],
      "type": "VEC3"
    },
    {
      "bufferView": 1,
      "byteOffset": 10776,
      "componentType": 5126,
      "count": 194,
      "max": [
        0.49735623598098755,
        0.9872584342956543
      ],
      "min": [
        0.35426944494247437,
        0.6676658987998962
      ],
      "type": "VEC2"
    },
    {
      "bufferView": 0,
      "byteOffset": 8436,
      "componentType": 5125,
      "count": 288,
      "type": "SCALAR"
    },
    {
      "bufferView": 2,
      "byteOffset": 36984,
      "componentType": 5126,
      "count": 65,
      "max": [
        4.861908435821533,
        -345.83648681640625,
        19.757122039794922
      ],
      "min": [
        -5.130329608917236,
        -428.8211364746094,
        -38.87519454956055
      ],
      "type": "VEC3"
    },
    {
      "bufferView": 2,
      "byteOffset": 37764,
      "componentType": 5126,
      "count": 65,
      "max": [
        0.9937843680381775,
        0.9045569896697998,
        0.4263538420200348
      ],
      "min": [
        -0.9999088048934937,
        -0.9828429818153381,
        -0.9959867000579834
      ],
      "type": "VEC3"
    },
    {
      "bufferView": 1,
      "byteOffset": 12328,
      "componentType": 5126,
      "count": 65,
      "max": [
        0.9905499815940857,
        0.7737765312194824
      ],
      "min": [
        0.8170901536941528,
        0.07191359996795654
      ],
      "type": "VEC2"
    },
    {
      "bufferView": 0,
      "byteOffset": 9588,
      "componentType": 5125,
      "count": 150,
      "type": "SCALAR"
    },
    {
      "bufferView": 2,
      "byteOffset": 38544,
      "componentType": 5126,
      "count": 22,
      "max": [
        4.861908435821533,
        -248.61146545410156,
        11.378326416015625
      ],
      "min": [
        -5.0882368087768555,
        -320.931640625,
        -41.11822509765625
      ],
      "type": "VEC3"
    },
    {
      "bufferView": 2,
      "byteOffset": 38808,
      "componentType": 5126,
      "count": 22,
      "max": [
        0.9937843084335327,
        0.8132537007331848,
        0.14398343861103058
      ],
      "min": [
        -0.9999088048934937,
        -0.901511549949646,
        -0.9960930943489075
      ],
      "type": "VEC3"
    },
    {
      "bufferView": 1,
      "byteOffset": 12848,
      "componentType": 5126,
      "count": 22,
      "max": [
        0.9887371063232422,
        0.776857852935791
      ],
      "min": [
        0.8175786733627319,
        0.21510612964630127
      ],
      "type": "VEC2"
    },
    {
      "bufferView": 0,
      "byteOffset": 10188,
      "componentType": 5125,
      "count": 36,
      "type": "SCALAR"
    },
    {
      "bufferView": 2,
      "byteOffset": 39072,
      "componentType": 5126,
      "count": 18,
      "max": [
        4.861908435821533,
        -249.88650512695313,
        3.097503662109375
      ],
      "min": [
        -4.861907958984375,
        -293.8908386230469,
        -26.51434326171875
      ],
      "type": "VEC3"
    },
    {
      "bufferView": 2,
      "byteOffset": 39288,
      "componentType": 5126,
      "count": 18,
      "max": [
        0.9894955158233643,
        0.813252329826355,
        0.8474888205528259
      ],
      "min": [
        -0.9894955158233643,
        -0.5308133959770203,
        -0.9959865808486938
      ],
      "type": "VEC3"
    },
    {
      "bufferView": 1,
      "byteOffset": 13024,
      "componentType": 5126,
      "count": 18,
      "max": [
        0.8572266697883606,
        0.49075180292129517
      ],
      "min": [
        0.7311068177223206,
        0.46197229623794556
      ],
      "type": "VEC2"
    },
    {
      "bufferView": 0,
      "byteOffset": 10332,
      "componentType": 5125,
      "count": 24,
      "type": "SCALAR"
    },
    {
      "bufferView": 2,
      "byteOffset": 39504,
      "componentType": 5126,
      "count": 18,
      "max": [
        4.861908435821533,
        -249.88650512695313,
        3.097501754760742
      ],
      "min": [
        -4.861907958984375,
        -293.89080810546875,
        -26.51436424255371
      ],
      "type": "VEC3"
    },
    {
      "bufferView": 2,
      "byteOffset": 39720,
      "componentType": 5126,
      "count": 18,
      "max": [
        0.9894955158233643,
        0.8132537007331848,
        0.8474884033203125
      ],
      "min": [
        -0.9894955158233643,
        -0.5308141112327576,
        -0.9959867000579834
      ],
      "type": "VEC3"
    },
    {
      "bufferView": 1,
      "byteOffset": 13168,
      "componentType": 5126,
      "count": 18,
      "max": [
        0.8641895055770874,
        0.6350845694541931
      ],
      "min": [
        0.7380699515342712,
        0.6063051223754883
      ],
      "type": "VEC2"
    },
    {
      "bufferView": 0,
      "byteOffset": 10428,
      "componentType": 5125,
      "count": 24,
      "type": "SCALAR"
    },
    {
      "bufferView": 2,
      "byteOffset": 39936,
      "componentType": 5126,
      "count": 28,
      "max": [
        4.861908435821533,
        -296.90704345703125,
        11.378326416015625
      ],
      "min": [
        -4.934783458709717,
        -320.931640625,
        -29.200298309326172
      ],
      "type": "VEC3"
    },
    {
      "bufferView": 2,
      "byteOffset": 40272,
      "componentType": 5126,
      "count": 28,
      "max": [
        0.9937843680381775,
        0.9999521374702454,
        0.14398346841335297
      ],
      "min": [
        -0.9999088048934937,
        -0.9015120267868042,
        -0.8474889993667603
      ],
      "type": "VEC3"
    },
    {
      "bufferView": 1,
      "byteOffset": 13312,
      "componentType": 5126,
      "count": 28,
      "max": [
        0.9950901865959167,
        0.7398034334182739
      ],
      "min": [
        0.8196983337402344,
        -0.010405123233795166
      ],
      "type": "VEC2"
    },
    {
      "bufferView": 0,
      "byteOffset": 10524,
      "componentType": 5125,
      "count": 48,
      "type": "SCALAR"
    },
    {
      "bufferView": 2,
      "byteOffset": 40608,
      "componentType": 5126,
      "count": 28,
      "max": [
        4.861908435821533,
        -296.90704345703125,
        11.37835693359375
      ],
      "min": [
        -4.934783458709717,
        -320.931640625,
        -29.200286865234375
      ],
      "type": "VEC3"
    },
    {
      "bufferView": 2,
      "byteOffset": 40944,
      "componentType": 5126,
      "count": 28,
      "max": [
        0.993784487247467,
        0.9999520778656006,
        0.14398346841335297
      ],
      "min": [
        -0.9999088048934937,
        -0.9015121459960938,
        -0.8474847674369812
      ],
      "type": "VEC3"
    },
    {
      "bufferView": 1,
      "byteOffset": 13536,
      "componentType": 5126,
      "count": 28,
      "max": [
        0.9586785435676575,
        0.774833083152771
      ],
      "min": [
        0.8540945649147034,
        0.7307941913604736
      ],
      "type": "VEC2"
    },
    {
      "bufferView": 0,
      "byteOffset": 10716,
      "componentType": 5125,
      "count": 48,
      "type": "SCALAR"
    },
    {
      "bufferView": 2,
      "byteOffset": 41280,
      "componentType": 5126,
      "count": 14,
      "max": [
        4.861904144287109,
        -249.88648986816406,
        3.0975189208984375
      ],
      "min": [
        -4.861909866333008,
        -293.89080810546875,
        -26.514389038085938
      ],
      "type": "VEC3"
    },
    {
      "bufferView": 2,
      "byteOffset": 41448,
      "componentType": 5126,
      "count": 14,
      "max": [
        0.989495575428009,
        0.8132535219192505,
        0.14398358762264252
      ],
      "min": [
        -0.989495575428009,
        -0.08950261026620865,
        -0.9959866404533386
      ],
      "type": "VEC3"
    },
    {
      "bufferView": 1,
      "byteOffset": 13760,
      "componentType": 5126,
      "count": 14,
      "max": [
        0.8697803616523743,
        0.5862721800804138
      ],
      "min": [
        0.7717519402503967,
        0.5426494479179382
      ],
      "type": "VEC2"
    },
    {
      "bufferView": 0,
      "byteOffset": 10908,
      "componentType": 5125,
      "count": 18,
      "type": "SCALAR"
    },
    {
      "bufferView": 2,
      "byteOffset": 41616,
      "componentType": 5126,
      "count": 18,
      "max": [
        4.861908435821533,
        -249.88650512695313,
        3.097501754760742
      ],
      "min": [
        -4.861907958984375,
        -293.89080810546875,
        -26.51436424255371
      ],
      "type": "VEC3"
    },
    {
      "bufferView": 2,
      "byteOffset": 41832,
      "componentType": 5126,
      "count": 18,
      "max": [
        0.9894955158233643,
        0.8132537007331848,
        0.8474884033203125
      ],
      "min": [
        -0.9894955158233643,
        -0.5308141112327576,
        -0.9959867000579834
      ],
      "type": "VEC3"
    },
    {
      "bufferView": 1,
      "byteOffset": 13872,
      "componentType": 5126,
      "count": 18,
      "max": [
        0.8641895055770874,
        0.6350845694541931
      ],
      "min": [
        0.7380699515342712,
        0.6063051223754883
      ],
      "type": "VEC2"
    },
    {
      "bufferView": 0,
      "byteOffset": 10980,
      "componentType": 5125,
      "count": 24,
      "type": "SCALAR"
    },
    {
      "bufferView": 2,
      "byteOffset": 42048,
      "componentType": 5126,
      "count": 28,
      "max": [
        4.861908435821533,
        -296.90704345703125,
        11.378326416015625
      ],
      "min": [
        -4.934783458709717,
        -320.931640625,
        -29.200298309326172
      ],
      "type": "VEC3"
    },
    {
      "bufferView": 2,
      "byteOffset": 42384,
      "componentType": 5126,
      "count": 28,
      "max": [
        0.9937843680381775,
        0.9999521374702454,
        0.14398346841335297
      ],
      "min": [
        -0.9999088048934937,
        -0.9015120267868042,
        -0.8474889993667603
      ],
      "type": "VEC3"
    },
    {
      "bufferView": 1,
      "byteOffset": 14016,
      "componentType": 5126,
      "count": 28,
      "max": [
        0.9950901865959167,
        0.7398034334182739
      ],
      "min": [
        0.8196983337402344,
        -0.010405123233795166
      ],
      "type": "VEC2"
    },
    {
      "bufferView": 0,
      "byteOffset": 11076,
      "componentType": 5125,
      "count": 48,
      "type": "SCALAR"
    },
    {
      "bufferView": 2,
      "byteOffset": 42720,
      "componentType": 5126,
      "count": 28,
      "max": [
        4.861908435821533,
        -296.90704345703125,
        11.378326416015625
      ],
      "min": [
        -4.934783458709717,
        -320.931640625,
        -29.200298309326172
      ],
      "type": "VEC3"
    },
    {
      "bufferView": 2,
      "byteOffset": 43056,
      "componentType": 5126,
      "count": 28,
      "max": [
        0.9937843680381775,
        0.9999521374702454,
        0.14398346841335297
      ],
      "min": [
        -0.9999088048934937,
        -0.9015120267868042,
        -0.8474889993667603
      ],
      "type": "VEC3"
    },
    {
      "bufferView": 1,
      "byteOffset": 14240,
      "componentType": 5126,
      "count": 28,
      "max": [
        0.9950901865959167,
        0.7398034334182739
      ],
      "min": [
        0.8196983337402344,
        -0.010405123233795166
      ],
      "type": "VEC2"
    },
    {
      "bufferView": 0,
      "byteOffset": 11268,
      "componentType": 5125,
      "count": 48,
      "type": "SCALAR"
    },
    {
      "bufferView": 2,
      "byteOffset": 43392,
      "componentType": 5126,
      "count": 28,
      "max": [
        4.861908435821533,
        -296.90704345703125,
        11.37835693359375
      ],
      "min": [
        -4.934783458709717,
        -320.931640625,
        -29.200286865234375
      ],
      "type": "VEC3"
    },
    {
      "bufferView": 2,
      "byteOffset": 43728,
      "componentType": 5126,
      "count": 28,
      "max": [
        0.993784487247467,
        0.9999520778656006,
        0.14398346841335297
      ],
      "min": [
        -0.9999088048934937,
        -0.9015121459960938,
        -0.8474847674369812
      ],
      "type": "VEC3"
    },
    {
      "bufferView": 1,
      "byteOffset": 14464,
      "componentType": 5126,
      "count": 28,
      "max": [
        0.9586785435676575,
        0.774833083152771
      ],
      "min": [
        0.8540945649147034,
        0.7307941913604736
      ],
      "type": "VEC2"
    },
    {
      "bufferView": 0,
      "byteOffset": 11460,
      "componentType": 5125,
      "count": 48,
      "type": "SCALAR"
    },
    {
      "bufferView": 2,
      "byteOffset": 44064,
      "componentType": 5126,
      "count": 44,
      "max": [
        4.861908435821533,
        -140.43316650390625,
        2.4964675903320313
      ],
      "min": [
        -5.130329608917236,
        -269.8171691894531,
        -57.8582763671875
      ],
      "type": "VEC3"
    },
    {
      "bufferView": 2,
      "byteOffset": 44592,
      "componentType": 5126,
      "count": 44,
      "max": [
        0.9937843680381775,
        0.9972714185714722,
        0.8604071140289307
      ],
      "min": [
        -0.9999088048934937,
        -0.9245606064796448,
        -0.9959867000579834
      ],
      "type": "VEC3"
    },
    {
      "bufferView": 1,
      "byteOffset": 14688,
      "componentType": 5126,
      "count": 44,
      "max": [
        0.979531466960907,
        0.742060661315918
      ],
      "min": [
        0.813840389251709,
        0.3243406116962433
      ],
      "type": "VEC2"
    },
    {
      "bufferView": 0,
      "byteOffset": 11652,
      "componentType": 5125,
      "count": 84,
      "type": "SCALAR"
    },
    {
      "bufferView": 2,
      "byteOffset": 45120,
      "componentType": 5126,
      "count": 46,
      "max": [
        4.861908435821533,
        -88.968017578125,
        -5.909282684326172
      ],
      "min": [
        -5.130329608917236,
        -139.7264404296875,
        -60.387596130371094
      ],
      "type": "VEC3"
    },
    {
      "bufferView": 2,
      "byteOffset": 45672,
      "componentType": 5126,
      "count": 46,
      "max": [
        0.9937843680381775,
        0.8824699521064758,
        0.28933143615722656
      ],
      "min": [
        -0.9999088048934937,
        -0.9989335536956787,
        -0.995986819267273
      ],
      "type": "VEC3"
    },
    {
      "bufferView": 1,
      "byteOffset": 15040,
      "componentType": 5126,
      "count": 46,
      "max": [
        0.986456036567688,
        0.761682391166687
      ],
      "min": [
        0.8160585165023804,
        0.5436185002326965
      ],
      "type": "VEC2"
    },
    {
      "bufferView": 0,
      "byteOffset": 11988,
      "componentType": 5125,
      "count": 90,
      "type": "SCALAR"
    },
    {
      "bufferView": 2,
      "byteOffset": 46224,
      "componentType": 5126,
      "count": 38,
      "max": [
        4.861908435821533,
        -19.734130859375,
        -11.031549453735352
      ],
      "min": [
        -5.130329608917236,
        -105.88400268554688,
        -67.73170471191406
      ],
      "type": "VEC3"
    },
    {
      "bufferView": 2,
      "byteOffset": 46680,
      "componentType": 5126,
      "count": 38,
      "max": [
        0.9937843680381775,
        0.988263726234436,
        0.5639297962188721
      ],
      "min": [
        -0.9999088048934937,
        -0.8258342742919922,
        -0.9959867000579834
      ],
      "type": "VEC3"
    },
    {
      "bufferView": 1,
      "byteOffset": 15408,
      "componentType": 5126,
      "count": 38,
      "max": [
        0.9821857213973999,
        0.7737367153167725
      ],
      "min": [
        0.8184146881103516,
        0.5998421907424927
      ],
      "type": "VEC2"
    },
    {
      "bufferView": 0,
      "byteOffset": 12348,
      "componentType": 5125,
      "count": 60,
      "type": "SCALAR"
    },
    {
      "bufferView": 2,
      "byteOffset": 47136,
      "componentType": 5126,
      "count": 30,
      "max": [
        3.035207748413086,
        183.516845703125,
        -59.9304313659668
      ],
      "min": [
        -3.035207748413086,
        77.9481201171875,
        -158.07337951660156
      ],
      "type": "VEC3"
    },
    {
      "bufferView": 2,
      "byteOffset": 47496,
      "componentType": 5126,
      "count": 30,
      "max": [
        0.9996439218521118,
        0.07213060557842255,
        0.9013192057609558
      ],
      "min": [
        -0.9996439218521118,
        -0.7454106211662292,
        -0.8824734687805176
      ],
      "type": "VEC3"
    },
    {
      "bufferView": 1,
      "byteOffset": 15712,
      "componentType": 5126,
      "count": 30,
      "max": [
        0.8973953127861023,
        0.9907100200653076
      ],
      "min": [
        0.7717943787574768,
        0.6788005232810974
      ],
      "type": "VEC2"
    },
    {
      "bufferView": 0,
      "byteOffset": 12588,
      "componentType": 5125,
      "count": 54,
      "type": "SCALAR"
    },
    {
      "bufferView": 2,
      "byteOffset": 47856,
      "componentType": 5126,
      "count": 53,
      "max": [
        4.861908435821533,
        101.937255859375,
        -15.688167572021484
      ],
      "min": [
        -5.130329608917236,
        -34.383453369140625,
        -85.2852783203125
      ],
      "type": "VEC3"
    },
    {
      "bufferView": 2,
      "byteOffset": 48492,
      "componentType": 5126,
      "count": 53,
      "max": [
        0.996548593044281,
        0.7693951725959778,
        0.27690932154655457
      ],
      "min": [
        -0.9998249411582947,
        -0.9828426837921143,
        -0.9940220713615417
      ],
      "type": "VEC3"
    },
    {
      "bufferView": 1,
      "byteOffset": 15952,
      "componentType": 5126,
      "count": 53,
      "max": [
        0.9937075972557068,
        0.9919289350509644
      ],
      "min": [
        0.8204821348190308,
        0.6692851185798645
      ],
      "type": "VEC2"
    },
    {
      "bufferView": 0,
      "byteOffset": 12804,
      "componentType": 5125,
      "count": 120,
      "type": "SCALAR"
    },
    {
      "bufferView": 2,
      "byteOffset": 49128,
      "componentType": 5126,
      "count": 140,
      "max": [
        54.501564025878906,
        3.4455714225769043,
        118.82246398925781
      ],
      "min": [
        -138.77967834472656,
        -3.4455714225769043,
        -36.06634521484375
      ],
      "type": "VEC3"
    },
    {
      "bufferView": 2,
      "byteOffset": 50808,
      "componentType": 5126,
      "count": 140,
      "max": [
        0.46605026721954346,
        1.0,
        0.3638482689857483
      ],
      "min": [
        -0.546172559261322,
        -1.0,
        -0.974751889705658
      ],
      "type": "VEC3"
    },
    {
      "bufferView": 1,
      "byteOffset": 16376,
      "componentType": 5126,
      "count": 140,
      "max": [
        0.7985482215881348,
        0.9895011782646179
      ],
      "min": [
        0.6134594082832336,
        0.8643735647201538
      ],
      "type": "VEC2"
    },
    {
      "bufferView": 0,
      "byteOffset": 13284,
      "componentType": 5125,
      "count": 408,
      "type": "SCALAR"
    },
    {
      "bufferView": 2,
      "byteOffset": 52488,
      "componentType": 5126,
      "count": 82,
      "max": [
        -51.134063720703125,
        3.4455714225769043,
        118.82245635986328
      ],
      "min": [
        -138.7796630859375,
        -3.4455714225769043,
        55.27111053466797
      ],
      "type": "VEC3"
    },
    {
      "bufferView": 2,
      "byteOffset": 53472,
      "componentType": 5126,
      "count": 82,
      "max": [
        0.8037019371986389,
        1.0,
        0.3862001895904541
      ],
      "min": [
        -0.2768365740776062,
        -1.0,
        -0.6377266645431519
      ],
      "type": "VEC3"
    },
    {
      "bufferView": 1,
      "byteOffset": 17496,
      "componentType": 5126,
      "count": 82,
      "max": [
        0.606755793094635,
        0.5430300235748291
      ],
      "min": [
        0.542904794216156,
        0.43489524722099304
      ],
      "type": "VEC2"
    },
    {
      "bufferView": 0,
      "byteOffset": 14916,
      "componentType": 5125,
      "count": 228,
      "type": "SCALAR"
    },
    {
      "bufferView": 2,
      "byteOffset": 54456,
      "componentType": 5126,
      "count": 60,
      "max": [
        79.64566040039063,
        3.445571184158325,
        -39.99980163574219
      ],
      "min": [
        -47.28884506225586,
        -3.445571184158325,
        -75.78805541992188
      ],
      "type": "VEC3"
    },
    {
      "bufferView": 2,
      "byteOffset": 55176,
      "componentType": 5126,
      "count": 60,
      "max": [
        0.5597458481788635,
        1.0,
        0.9943233728408813
      ],
      "min": [
        -0.6586636900901794,
        -1.0,
        -0.974751889705658
      ],
      "type": "VEC3"
    },
    {
      "bufferView": 1,
      "byteOffset": 18152,
      "componentType": 5126,
      "count": 60,
      "max": [
        0.3573001027107239,
        0.1327528953552246
      ],
      "min": [
        0.3126698136329651,
        0.02270948886871338
      ],
      "type": "VEC2"
    },
    {
      "bufferView": 0,
      "byteOffset": 15828,
      "componentType": 5125,
      "count": 108,
      "type": "SCALAR"
    },
    {
      "bufferView": 2,
      "byteOffset": 55896,
      "componentType": 5126,
      "count": 60,
      "max": [
        79.64566040039063,
        3.445571184158325,
        -39.999778747558594
      ],
      "min": [
        -47.288848876953125,
        -3.445571184158325,
        -75.78807067871094
      ],
      "type": "VEC3"
    },
    {
      "bufferView": 2,
      "byteOffset": 56616,
      "componentType": 5126,
      "count": 60,
      "max": [
        0.5597443580627441,
        1.0,
        0.9943233728408813
      ],
      "min": [
        -0.6586667895317078,
        -1.0,
        -0.974751889705658
      ],
      "type": "VEC3"
    },
    {
      "bufferView": 1,
      "byteOffset": 18632,
      "componentType": 5126,
      "count": 60,
      "max": [
        0.36052393913269043,
        0.2875155806541443
      ],
      "min": [
        0.3187217712402344,
        0.15270453691482544
      ],
      "type": "VEC2"
    },
    {
      "bufferView": 0,
      "byteOffset": 16260,
      "componentType": 5125,
      "count": 108,
      "type": "SCALAR"
    },
    {
      "bufferView": 2,
      "byteOffset": 57336,
      "componentType": 5126,
      "count": 42,
      "max": [
        69.03257751464844,
        227.52157592773438,
        69.0325927734375
      ],
      "min": [
        -69.03260040283203,
        -737.789794921875,
        -69.03262329101563
      ],
      "type": "VEC3"
    },
    {
      "bufferView": 2,
      "byteOffset": 57840,
      "componentType": 5126,
      "count": 42,
      "max": [
        0.9995778203010559,
        0.029054997488856316,
        0.9995778203010559
      ],
      "min": [
        -0.9995778203010559,
        0.02905496396124363,
        -0.9995778799057007
      ],
      "type": "VEC3"
    },
    {
      "bufferView": 1,
      "byteOffset": 19112,
      "componentType": 5126,
      "count": 42,
      "max": [
        0.6975850462913513,
        0.6972613334655762
      ],
      "min": [
        0.6132866740226746,
        0.4867492914199829
      ],
      "type": "VEC2"
    },
    {
      "bufferView": 0,
      "byteOffset": 16692,
      "componentType": 5125,
      "count": 120,
      "type": "SCALAR"
    },
    {
      "bufferView": 2,
      "byteOffset": 58344,
      "componentType": 5126,
      "count": 257,
      "max": [
        100.0,
        0.0,
        100.00001525878906
      ],
      "min": [
        -100.0000228881836,
        -100.0,
        -100.00004577636719
      ],
      "type": "VEC3"
    },
    {
      "bufferView": 2,
      "byteOffset": 61428,
      "componentType": 5126,
      "count": 257,
      "max": [
        0.9969173669815063,
        1.0,
        0.9969173669815063
      ],
      "min": [
        -0.9969173669815063,
        -1.0,
        -0.9969174265861511
      ],
      "type": "VEC3"
    },
    {
      "bufferView": 1,
      "byteOffset": 19448,
      "componentType": 5126,
      "count": 257,
      "max": [
        0.7580744028091431,
        0.8299028277397156
      ],
      "min": [
        0.6351062655448914,
        0.7244264483451843
      ],
      "type": "VEC2"
    },
    {
      "bufferView": 0,
      "byteOffset": 17172,
      "componentType": 5125,
      "count": 1236,
      "type": "SCALAR"
    },
    {
      "bufferView": 2,
      "byteOffset": 64512,
      "componentType": 5126,
      "count": 72,
      "max": [
        97.92750549316406,
        50.000003814697266,
        50.00000762939453
      ],
      "min": [
        -50.00000762939453,
        -50.00000762939453,
        -50.00000762939453
      ],
      "type": "VEC3"
    },
    {
      "bufferView": 2,
      "byteOffset": 65376,
      "componentType": 5126,
      "count": 72,
      "max": [
        0.8944510817527771,
        1.0,
        1.0
      ],
      "min": [
        -1.0,
        -1.0,
        -1.0
      ],
      "type": "VEC3"
    },
    {
      "bufferView": 1,
      "byteOffset": 21504,
      "componentType": 5126,
      "count": 72,
      "max": [
        0.49997544288635254,
        0.7575656771659851
      ],
      "min": [
        0.2881389856338501,
        0.5716246366500854
      ],
      "type": "VEC2"
    },
    {
      "bufferView": 0,
      "byteOffset": 22116,
      "componentType": 5125,
      "count": 108,
      "type": "SCALAR"
    },
    {
      "bufferView": 2,
      "byteOffset": 66240,
      "componentType": 5126,
      "count": 105,
      "max": [
        50.000091552734375,
        117.0577392578125,
        50.000030517578125
      ],
      "min": [
        -49.999969482421875,
        -50.0003662109375,
        -50.00002670288086
      ],
      "type": "VEC3"
    },
    {
      "bufferView": 2,
      "byteOffset": 67500,
      "componentType": 5126,
      "count": 105,
      "max": [
        1.0,
        0.9305460453033447,
        1.0
      ],
      "min": [
        -1.0,
        -1.0,
        -1.0
      ],
      "type": "VEC3"
    },
    {
      "bufferView": 1,
      "byteOffset": 22080,
      "componentType": 5126,
      "count": 105,
      "max": [
        0.11318892240524292,
        0.9661555290222168
      ],
      "min": [
        0.018070034682750702,
        0.9198299646377563
      ],
      "type": "VEC2"
    },
    {
      "bufferView": 0,
      "byteOffset": 22548,
      "componentType": 5125,
      "count": 186,
      "type": "SCALAR"
    },
    {
      "bufferView": 2,
      "byteOffset": 68760,
      "componentType": 5126,
      "count": 105,
      "max": [
        50.000091552734375,
        117.0577392578125,
        50.000030517578125
      ],
      "min": [
        -49.999969482421875,
        -50.0003662109375,
        -50.00002670288086
      ],
      "type": "VEC3"
    },
    {
      "bufferView": 2,
      "byteOffset": 70020,
      "componentType": 5126,
      "count": 105,
      "max": [
        1.0,
        0.9305460453033447,
        1.0
      ],
      "min": [
        -1.0,
        -1.0,
        -1.0
      ],
      "type": "VEC3"
    },
    {
      "bufferView": 1,
      "byteOffset": 22920,
      "componentType": 5126,
      "count": 105,
      "max": [
        0.11318892240524292,
        0.9661555290222168
      ],
      "min": [
        0.018070034682750702,
        0.9198299646377563
      ],
      "type": "VEC2"
    },
    {
      "bufferView": 0,
      "byteOffset": 23292,
      "componentType": 5125,
      "count": 186,
      "type": "SCALAR"
    },
    {
      "bufferView": 2,
      "byteOffset": 71280,
      "componentType": 5126,
      "count": 105,
      "max": [
        50.000091552734375,
        117.0577392578125,
        50.000030517578125
      ],
      "min": [
        -49.999969482421875,
        -50.0003662109375,
        -50.00002670288086
      ],
      "type": "VEC3"
    },
    {
      "bufferView": 2,
      "byteOffset": 72540,
      "componentType": 5126,
      "count": 105,
      "max": [
        1.0,
        0.9305460453033447,
        1.0
      ],
      "min": [
        -1.0,
        -1.0,
        -1.0
      ],
      "type": "VEC3"
    },
    {
      "bufferView": 1,
      "byteOffset": 23760,
      "componentType": 5126,
      "count": 105,
      "max": [
        0.11318892240524292,
        0.9661555290222168
      ],
      "min": [
        0.018070034682750702,
        0.9198299646377563
      ],
      "type": "VEC2"
    },
    {
      "bufferView": 0,
      "byteOffset": 24036,
      "componentType": 5125,
      "count": 186,
      "type": "SCALAR"
    },
    {
      "bufferView": 2,
      "byteOffset": 73800,
      "componentType": 5126,
      "count": 24,
      "max": [
        37.209327697753906,
        1.1518597602844238e-05,
        50.0
      ],
      "min": [
        -19.969005584716797,
        -25.920927047729492,
        -43.09661102294922
      ],
      "type": "VEC3"
    },
    {
      "bufferView": 2,
      "byteOffset": 74088,
      "componentType": 5126,
      "count": 24,
      "max": [
        0.14535531401634216,
        1.0,
        0.07675787806510925
      ],
      "min": [
        -0.026618478819727898,
        0.8261346220970154,
        -0.5590510964393616
      ],
      "type": "VEC3"
    },
    {
      "bufferView": 1,
      "byteOffset": 24600,
      "componentType": 5126,
      "count": 24,
      "max": [
        0.5607462525367737,
        1.0
      ],
      "min": [
        0.3003099858760834,
        0.0
      ],
      "type": "VEC2"
    },
    {
      "bufferView": 0,
      "byteOffset": 24780,
      "componentType": 5125,
      "count": 66,
      "type": "SCALAR"
    },
    {
      "bufferView": 2,
      "byteOffset": 74376,
      "componentType": 5126,
      "count": 24,
      "max": [
        6.0746283531188965,
        3.123418092727661,
        50.0
      ],
      "min": [
        -26.420475006103516,
        -35.09940719604492,
        -48.73406982421875
      ],
      "type": "VEC3"
    },
    {
      "bufferView": 2,
      "byteOffset": 74664,
      "componentType": 5126,
      "count": 24,
      "max": [
        0.458621621131897,
        1.0,
        0.11549922078847885
      ],
      "min": [
        -4.4807737253904634e-07,
        0.3776688873767853,
        -0.8043833374977112
      ],
      "type": "VEC3"
    },
    {
      "bufferView": 1,
      "byteOffset": 24792,
      "componentType": 5126,
      "count": 24,
      "max": [
        0.5607462525367737,
        1.0
      ],
      "min": [
        0.3003099858760834,
        0.0
      ],
      "type": "VEC2"
    },
    {
      "bufferView": 0,
      "byteOffset": 25044,
      "componentType": 5125,
      "count": 66,
      "type": "SCALAR"
    },
    {
      "bufferView": 2,
      "byteOffset": 74952,
      "componentType": 5126,
      "count": 24,
      "max": [
        41.30283737182617,
        1.1518597602844238e-05,
        50.0
      ],
      "min": [
        -22.26805305480957,
        -29.197750091552734,
        -37.834896087646484
      ],
      "type": "VEC3"
    },
    {
      "bufferView": 2,
      "byteOffset": 75240,
      "componentType": 5126,
      "count": 24,
      "max": [
        0.4811554551124573,
        0.9998139142990112,
        0.9221985936164856
      ],
      "min": [
        -0.30210646986961365,
        0.31726861000061035,
        -0.251932829618454
      ],
      "type": "VEC3"
    },
    {
      "bufferView": 1,
      "byteOffset": 24984,
      "componentType": 5126,
      "count": 24,
      "max": [
        0.5607462525367737,
        1.0
      ],
      "min": [
        0.3003099858760834,
        0.0
      ],
      "type": "VEC2"
    },
    {
      "bufferView": 0,
      "byteOffset": 25308,
      "componentType": 5125,
      "count": 66,
      "type": "SCALAR"
    },
    {
      "bufferView": 2,
      "byteOffset": 75528,
      "componentType": 5126,
      "count": 24,
      "max": [
        7.71347713470459,
        16.506656646728516,
        50.071861267089844
      ],
      "min": [
        -21.487720489501953,
        0.041688472032547,
        -49.63889694213867
      ],
      "type": "VEC3"
    },
    {
      "bufferView": 2,
      "byteOffset": 75816,
      "componentType": 5126,
      "count": 24,
      "max": [
        0.42856496572494507,
        0.9983701705932617,
        0.3355357050895691
      ],
      "min": [
        -0.006733841262757778,
        0.885753870010376,
        -0.17824718356132507
      ],
      "type": "VEC3"
    },
    {
      "bufferView": 1,
      "byteOffset": 25176,
      "componentType": 5126,
      "count": 24,
      "max": [
        0.5607462525367737,
        1.0
      ],
      "min": [
        0.3003099858760834,
        0.0
      ],
      "type": "VEC2"
    },
    {
      "bufferView": 0,
      "byteOffset": 25572,
      "componentType": 5125,
      "count": 66,
      "type": "SCALAR"
    },
    {
      "bufferView": 2,
      "byteOffset": 76104,
      "componentType": 5126,
      "count": 24,
      "max": [
        14.319055557250977,
        20.728532791137695,
        46.24394226074219
      ],
      "min": [
        -21.907020568847656,
        -19.70667839050293,
        -19.288618087768555
      ],
      "type": "VEC3"
    },
    {
      "bufferView": 2,
      "byteOffset": 76392,
      "componentType": 5126,
      "count": 24,
      "max": [
        0.15628130733966827,
        0.9920287132263184,
        0.9900327324867249
      ],
      "min": [
        -0.16255053877830505,
        -0.053743936121463776,
        -0.4671053886413574
      ],
      "type": "VEC3"
    },
    {
      "bufferView": 1,
      "byteOffset": 25368,
      "componentType": 5126,
      "count": 24,
      "max": [
        0.5607462525367737,
        1.0
      ],
      "min": [
        0.3003099858760834,
        0.0
      ],
      "type": "VEC2"
    },
    {
      "bufferView": 0,
      "byteOffset": 25836,
      "componentType": 5125,
      "count": 66,
      "type": "SCALAR"
    },
    {
      "bufferView": 2,
      "byteOffset": 76680,
      "componentType": 5126,
      "count": 24,
      "max": [
        15.330018997192383,
        12.076726913452148,
        50.0
      ],
      "min": [
        -19.969005584716797,
        -3.723273754119873,
        -23.636104583740234
      ],
      "type": "VEC3"
    },
    {
      "bufferView": 2,
      "byteOffset": 76968,
      "componentType": 5126,
      "count": 24,
      "max": [
        0.03181608021259308,
        1.0,
        0.9852253198623657
      ],
      "min": [
        -0.020527683198451996,
        -0.9986366629600525,
        -0.5291692614555359
      ],
      "type": "VEC3"
    },
    {
      "bufferView": 1,
      "byteOffset": 25560,
      "componentType": 5126,
      "count": 24,
      "max": [
        0.5607462525367737,
        1.0
      ],
      "min": [
        0.3003099858760834,
        0.0
      ],
      "type": "VEC2"
    },
    {
      "bufferView": 0,
      "byteOffset": 26100,
      "componentType": 5125,
      "count": 66,
      "type": "SCALAR"
    },
    {
      "bufferView": 2,
      "byteOffset": 77256,
      "componentType": 5126,
      "count": 24,
      "max": [
        3.2932486534118652,
        9.003817558288574,
        50.0
      ],
      "min": [
        -61.5821533203125,
        -15.812609672546387,
        -113.40408325195313
      ],
      "type": "VEC3"
    },
    {
      "bufferView": 2,
      "byteOffset": 77544,
      "componentType": 5126,
      "count": 24,
      "max": [
        0.5395742058753967,
        0.9998139142990112,
        0.2717503309249878
      ],
      "min": [
        -0.009527876041829586,
        0.37876173853874207,
        -0.7519303560256958
      ],
      "type": "VEC3"
    },
    {
      "bufferView": 1,
      "byteOffset": 25752,
      "componentType": 5126,
      "count": 24,
      "max": [
        0.5607462525367737,
        1.0
      ],
      "min": [
        0.3003099858760834,
        0.0
      ],
      "type": "VEC2"
    },
    {
      "bufferView": 0,
      "byteOffset": 26364,
      "componentType": 5125,
      "count": 66,
      "type": "SCALAR"
    }
  ],
  "asset": {
    "extras": {
      "author": "WizOfFab (https://sketchfab.com/WizOfFab)",
      "license": "CC-BY-4.0 (http://creativecommons.org/licenses/by/4.0/)",
      "source": "https://sketchfab.com/3d-models/shattered-crystal-sword-24dd0362309142729ad5e8d222724b20",
      "title": "Shattered crystal sword"
    },
    "generator": "Sketchfab-13.46.0",
    "version": "2.0"
  },
  "bufferViews": [
    {
      "buffer": 0,
      "byteLength": 26628,
      "name": "floatBufferViews",
      "target": 34963
    },
    {
      "buffer": 0,
      "byteLength": 25944,
      "byteOffset": 26628,
      "byteStride": 8,
      "name": "floatBufferViews",
      "target": 34962
    },
    {
      "buffer": 0,
      "byteLength": 77832,
      "byteOffset": 52572,
      "byteStride": 12,
      "name": "floatBufferViews",
      "target": 34962
    }
  ],
  "buffers": [
    {
      "byteLength": 130404,
      "uri": "scene.bin"
    }
  ],
  "extensionsUsed": [
    "KHR_materials_unlit"
  ],
  "images": [
    {
      "uri": "textures/lambert2_baseColor.png"
    },
    {
      "uri": "textures/Special_effects_baseColor.png"
    }
  ],
  "materials": [
    {
      "doubleSided": true,
      "extensions": {
        "KHR_materials_unlit": {}
      },
      "name": "lambert2",
      "pbrMetallicRoughness": {
        "baseColorTexture": {
          "index": 0
        },
        "metallicFactor": 0.0
      }
    },
    {
      "alphaMode": "BLEND",
      "doubleSided": true,
      "emissiveFactor": [
        1.0,
        1.0,
        1.0
      ],
      "extensions": {
        "KHR_materials_unlit": {}
      },
      "name": "Special_effects",
      "pbrMetallicRoughness": {
        "baseColorFactor": [
          1.0,
          0.2019596836332689,
          0.2829948213195435,
          0.041142982530994375
        ],
        "baseColorTexture": {
          "index": 1
        },
        "metallicFactor": 0.0
      }
    }
  ],
  "meshes": [
    {
      "name": "pCube1_lambert2_0",
      "primitives": [
        {
          "attributes": {
            "NORMAL": 1,
            "POSITION": 0,
            "TEXCOORD_0": 2
          },
          "indices": 3,
          "material": 0,
          "mode": 4
        }
      ]
    },
    {
      "name": "pCube3_lambert2_0",
      "primitives": [
        {
          "attributes": {
            "NORMAL": 5,
            "POSITION": 4,
            "TEXCOORD_0": 6
          },
          "indices": 7,
          "material": 0,
          "mode": 4
        }
      ]
    },
    {
      "name": "pCube7_lambert2_0",
      "primitives": [
        {
          "attributes": {
            "NORMAL": 9,
            "POSITION": 8,
            "TEXCOORD_0": 10
          },
          "indices": 11,
          "material": 0,
          "mode": 4
        }
      ]
    },
    {
      "name": "pCube8_lambert2_0",
      "primitives": [
        {
          "attributes": {
            "NORMAL": 13,
            "POSITION": 12,
            "TEXCOORD_0": 14
          },
          "indices": 15,
          "material": 0,
          "mode": 4
        }
      ]
    },
    {
      "name": "pCube9_lambert2_0",
      "primitives": [
        {
          "attributes": {
            "NORMAL": 17,
            "POSITION": 16,
            "TEXCOORD_0": 18
          },
          "indices": 19,
          "material": 0,
          "mode": 4
        }
      ]
    },
    {
      "name": "pCube10_lambert2_0",
      "primitives": [
        {
          "attributes": {
            "NORMAL": 21,
            "POSITION": 20,
            "TEXCOORD_0": 22
          },
          "indices": 23,
          "material": 0,
          "mode": 4
        }
      ]
    },
    {
      "name": "pCube11_lambert2_0",
      "primitives": [
        {
          "attributes": {
            "NORMAL": 25,
            "POSITION": 24,
            "TEXCOORD_0": 26
          },
          "indices": 27,
          "material": 0,
          "mode": 4
        }
      ]
    },
    {
      "name": "pCube12_lambert2_0",
      "primitives": [
        {
          "attributes": {
            "NORMAL": 29,
            "POSITION": 28,
            "TEXCOORD_0": 30
          },
          "indices": 31,
          "material": 0,
          "mode": 4
        }
      ]
    },
    {
      "name": "pCube13_lambert2_0",
      "primitives": [
        {
          "attributes": {
            "NORMAL": 33,
            "POSITION": 32,
            "TEXCOORD_0": 34
          },
          "indices": 35,
          "material": 0,
          "mode": 4
        }
      ]
    },
    {
      "name": "pCube14_lambert2_0",
      "primitives": [
        {
          "attributes": {
            "NORMAL": 37,
            "POSITION": 36,
            "TEXCOORD_0": 38
          },
          "indices": 39,
          "material": 0,
          "mode": 4
        }
      ]
    },
    {
      "name": "polySurface9_lambert2_0",
      "primitives": [
        {
          "attributes": {
            "NORMAL": 41,
            "POSITION": 40,
            "TEXCOORD_0": 42
          },
          "indices": 43,
          "material": 0,
          "mode": 4
        }
      ]
    },
    {
      "name": "polySurface10_lambert2_0",
      "primitives": [
        {
          "attributes": {
            "NORMAL": 45,
            "POSITION": 44,
            "TEXCOORD_0": 46
          },
          "indices": 47,
          "material": 0,
          "mode": 4
        }
      ]
    },
    {
      "name": "polySurface14_lambert2_0",
      "primitives": [
        {
          "attributes": {
            "NORMAL": 49,
            "POSITION": 48,
            "TEXCOORD_0": 50
          },
          "indices": 51,
          "material": 0,
          "mode": 4
        }
      ]
    },
    {
      "name": "polySurface15_lambert2_0",
      "primitives": [
        {
          "attributes": {
            "NORMAL": 53,
            "POSITION": 52,
            "TEXCOORD_0": 54
          },
          "indices": 55,
          "material": 0,
          "mode": 4
        }
      ]
    },
    {
      "name": "polySurface16_lambert2_0",
      "primitives": [
        {
          "attributes": {
            "NORMAL": 57,
            "POSITION": 56,
            "TEXCOORD_0": 58
          },
          "indices": 59,
          "material": 0,
          "mode": 4
        }
      ]
    },
    {
      "name": "polySurface17_lambert2_0",
      "primitives": [
        {
          "attributes": {
            "NORMAL": 61,
            "POSITION": 60,
            "TEXCOORD_0": 62
          },
          "indices": 63,
          "material": 0,
          "mode": 4
        }
      ]
    },
    {
      "name": "polySurface19_lambert2_0",
      "primitives": [
        {
          "attributes": {
            "NORMAL": 65,
            "POSITION": 64,
            "TEXCOORD_0": 66
          },
          "indices": 67,
          "material": 0,
          "mode": 4
        }
      ]
    },
    {
      "name": "polySurface20_lambert2_0",
      "primitives": [
        {
          "attributes": {
            "NORMAL": 69,
            "POSITION": 68,
            "TEXCOORD_0": 70
          },
          "indices": 71,
          "material": 0,
          "mode": 4
        }
      ]
    },
    {
      "name": "polySurface21_lambert2_0",
      "primitives": [
        {
          "attributes": {
            "NORMAL": 73,
            "POSITION": 72,
            "TEXCOORD_0": 74
          },
          "indices": 75,
          "material": 0,
          "mode": 4
        }
      ]
    },
    {
      "name": "polySurface22_lambert2_0",
      "primitives": [
        {
          "attributes": {
            "NORMAL": 77,
            "POSITION": 76,
            "TEXCOORD_0": 78
          },
          "indices": 79,
          "material": 0,
          "mode": 4
        }
      ]
    },
    {
      "name": "polySurface23_lambert2_0",
      "primitives": [
        {
          "attributes": {
            "NORMAL": 81,
            "POSITION": 80,
            "TEXCOORD_0": 82
          },
          "indices": 83,
          "material": 0,
          "mode": 4
        }
      ]
    },
    {
      "name": "polySurface8_lambert2_0",
      "primitives": [
        {
          "attributes": {
            "NORMAL": 85,
            "POSITION": 84,
            "TEXCOORD_0": 86
          },
          "indices": 87,
          "material": 0,
          "mode": 4
        }
      ]
    },
    {
      "name": "polySurface4_lambert2_0",
      "primitives": [
        {
          "attributes": {
            "NORMAL": 89,
            "POSITION": 88,
            "TEXCOORD_0": 90
          },
          "indices": 91,
          "material": 0,
          "mode": 4
        }
      ]
    },
    {
      "name": "polySurface2_lambert2_0",
      "primitives": [
        {
          "attributes": {
            "NORMAL": 93,
            "POSITION": 92,
            "TEXCOORD_0": 94
          },
          "indices": 95,
          "material": 0,
          "mode": 4
        }
      ]
    },
    {
      "name": "polySurface5_lambert2_0",
      "primitives": [
        {
          "attributes": {
            "NORMAL": 97,
            "POSITION": 96,
            "TEXCOORD_0": 98
          },
          "indices": 99,
          "material": 0,
          "mode": 4
        }
      ]
    },
    {
      "name": "polySurface6_lambert2_0",
      "primitives": [
        {
          "attributes": {
            "NORMAL": 101,
            "POSITION": 100,
            "TEXCOORD_0": 102
          },
          "indices": 103,
          "material": 0,
          "mode": 4
        }
      ]
    },
    {
      "name": "pPlane1_lambert2_0",
      "primitives": [
        {
          "attributes": {
            "NORMAL": 105,
            "POSITION": 104,
            "TEXCOORD_0": 106
          },
          "indices": 107,
          "material": 0,
          "mode": 4
        }
      ]
    },
    {
      "name": "pPlane2_lambert2_0",
      "primitives": [
        {
          "attributes": {
            "NORMAL": 109,
            "POSITION": 108,
            "TEXCOORD_0": 110
          },
          "indices": 111,
          "material": 0,
          "mode": 4
        }
      ]
    },
    {
      "name": "pPlane3_lambert2_0",
      "primitives": [
        {
          "attributes": {
            "NORMAL": 113,
            "POSITION": 112,
            "TEXCOORD_0": 114
          },
          "indices": 115,
          "material": 0,
          "mode": 4
        }
      ]
    },
    {
      "name": "pPlane4_lambert2_0",
      "primitives": [
        {
          "attributes": {
            "NORMAL": 117,
            "POSITION": 116,
            "TEXCOORD_0": 118
          },
          "indices": 119,
          "material": 0,
          "mode": 4
        }
      ]
    },
    {
      "name": "pCylinder1_lambert2_0",
      "primitives": [
        {
          "attributes": {
            "NORMAL": 121,
            "POSITION": 120,
            "TEXCOORD_0": 122
          },
          "indices": 123,
          "material": 0,
          "mode": 4
        }
      ]
    },
    {
      "name": "pSphere2_lambert2_0",
      "primitives": [
        {
          "attributes": {
            "NORMAL": 125,
            "POSITION": 124,
            "TEXCOORD_0": 126
          },
          "indices": 127,
          "material": 0,
          "mode": 4
        }
      ]
    },
    {
      "name": "pCube17_lambert2_0",
      "primitives": [
        {
          "attributes": {
            "NORMAL": 129,
            "POSITION": 128,
            "TEXCOORD_0": 130
          },
          "indices": 131,
          "material": 0,
          "mode": 4
        }
      ]
    },
    {
      "name": "pCube19_lambert2_0",
      "primitives": [
        {
          "attributes": {
            "NORMAL": 133,
            "POSITION": 132,
            "TEXCOORD_0": 134
          },
          "indices": 135,
          "material": 0,
          "mode": 4
        }
      ]
    },
    {
      "name": "pCube20_lambert2_0",
      "primitives": [
        {
          "attributes": {
            "NORMAL": 137,
            "POSITION": 136,
            "TEXCOORD_0": 138
          },
          "indices": 139,
          "material": 0,
          "mode": 4
        }
      ]
    },
    {
      "name": "pCube21_lambert2_0",
      "primitives": [
        {
          "attributes": {
            "NORMAL": 141,
            "POSITION": 140,
            "TEXCOORD_0": 142
          },
          "indices": 143,
          "material": 0,
          "mode": 4
        }
      ]
    },
    {
      "name": "pPlane8_Special_effects_0",
      "primitives": [
        {
          "attributes": {
            "NORMAL": 145,
            "POSITION": 144,
            "TEXCOORD_0": 146
          },
          "indices": 147,
          "material": 1,
          "mode": 4
        }
      ]
    },
    {
      "name": "pPlane9_Special_effects_0",
      "primitives": [
        {
          "attributes": {
            "NORMAL": 149,
            "POSITION": 148,
            "TEXCOORD_0": 150
          },
          "indices": 151,
          "material": 1,
          "mode": 4
        }
      ]
    },
    {
      "name": "pPlane10_Special_effects_0",
      "primitives": [
        {
          "attributes": {
            "NORMAL": 153,
            "POSITION": 152,
            "TEXCOORD_0": 154
          },
          "indices": 155,
          "material": 1,
          "mode": 4
        }
      ]
    },
    {
      "name": "pPlane11_Special_effects_0",
      "primitives": [
        {
          "attributes": {
            "NORMAL": 157,
            "POSITION": 156,
            "TEXCOORD_0": 158
          },
          "indices": 159,
          "material": 1,
          "mode": 4
        }
      ]
    },
    {
      "name": "pPlane12_Special_effects_0",
      "primitives": [
        {
          "attributes": {
            "NORMAL": 161,
            "POSITION": 160,
            "TEXCOORD_0": 162
          },
          "indices": 163,
          "material": 1,
          "mode": 4
        }
      ]
    },
    {
      "name": "pPlane13_Special_effects_0",
      "primitives": [
        {
          "attributes": {
            "NORMAL": 165,
            "POSITION": 164,
            "TEXCOORD_0": 166
          },
          "indices": 167,
          "material": 1,
          "mode": 4
        }
      ]
    },
    {
      "name": "pPlane21_Special_effects_0",
      "primitives": [
        {
          "attributes": {
            "NORMAL": 169,
            "POSITION": 168,
            "TEXCOORD_0": 170
          },
          "indices": 171,
          "material": 1,
          "mode": 4
        }
      ]
    }
  ],
  "nodes": [
    {
      "children": [
        1
      ],
      "matrix": [
        1.0,
        0.0,
        0.0,
        0.0,
        0.0,
        2.220446049250313e-16,
        -1.0,
        0.0,
        0.0,
        1.0,
        2.220446049250313e-16,
        0.0,
        0.0,
        0.0,
        0.0,
        1.0
      ],
      "name": "Sketchfab_model"
    },
    {
      "children": [
        2
      ],
      "matrix": [
        0.009999999776482582,
        0.0,
        0.0,
        0.0,
        0.0,
        0.0,
        0.009999999776482582,
        0.0,
        0.0,
        -0.009999999776482582,
        0.0,
        0.0,
        0.0,
        0.0,
        0.0,
        1.0
      ],
      "name": "Crystal Sword.fbx"
    },
    {
      "children": [
        3,
        5,
        7,
        9,
        11,
        13,
        15,
        17,
        19,
        21,
        23,
        56,
        61,
        63,
        65,
        67,
        69,
        71,
        73,
        75,
        77,
        79,
        81,
        83,
        85,
        87,
        89,
        91,
        93
      ],
      "name": "RootNode"
    },
    {
      "children": [
        4
      ],
      "matrix": [
        0.10976124554872513,
        0.0,
        0.0,
        0.0,
        0.0,
        2.1871519088745117,
        0.0,
        0.0,
        0.0,
        0.0,
        0.10976124554872513,
        0.0,
        0.0,
        125.39674377441406,
        0.0,
        1.0
      ],
      "name": "pCube1"
    },
    {
      "mesh": 0,
      "name": "pCube1_lambert2_0"
    },
    {
      "children": [
        6
      ],
      "matrix": [
        0.07700265978642877,
        0.006537560406956901,
        -0.044235532323841475,
        0.0,
        0.020564303062040143,
        0.17733729768407733,
        0.062005794535655134,
        0.0,
        0.043653646866162625,
        -0.0300776286382369,
        0.07154458051465121,
        0.0,
        8.501583099365234,
        11.599663734436035,
        2.359320878982544,
        1.0
      ],
      "name": "pCube3"
    },
    {
      "mesh": 1,
      "name": "pCube3_lambert2_0"
    },
    {
      "children": [
        8
      ],
      "matrix": [
        -0.020761548334035047,
        -0.03419700497021489,
        -0.12136664041726819,
        0.0,
        -0.0540404950604043,
        0.2580907484005182,
        -0.06347680243220367,
        0.0,
        0.12349484636634163,
        0.019323164202558273,
        -0.02657022187503328,
        0.0,
        -1.1643798351287842,
        12.94954776763916,
        -4.616565227508545,
        1.0
      ],
      "name": "pCube7"
    },
    {
      "mesh": 2,
      "name": "pCube7_lambert2_0"
    },
    {
      "children": [
        10
      ],
      "matrix": [
        0.0011854483138736503,
        -0.01057223479940847,
        0.12734661757571406,
        0.0,
        -0.06266437275995813,
        0.2629285367008487,
        0.022411491210574473,
        0.0,
        -0.12432692154460678,
        -0.02952087346902317,
        -0.0012934655778042235,
        0.0,
        -2.8151609897613525,
        13.197914123535156,
        -0.20715288817882538,
        1.0
      ],
      "name": "pCube8"
    },
    {
      "mesh": 3,
      "name": "pCube8_lambert2_0"
    },
    {
      "children": [
        12
      ],
      "matrix": [
        -0.08012696207728104,
        0.026543236289560884,
        0.02835591976598953,
        0.0,
        0.052746552540824464,
        0.18039242179464415,
        -0.01981165365227274,
        0.0,
        -0.0298489064140111,
        -0.0004855919062675353,
        -0.08389123086843406,
        0.0,
        9.612411499023438,
        11.773500442504883,
        -4.813360691070557,
        1.0
      ],
      "name": "pCube9"
    },
    {
      "mesh": 4,
      "name": "pCube9_lambert2_0"
    },
    {
      "children": [
        14
      ],
      "matrix": [
        0.13927757679507996,
        0.007665916514931399,
        -0.007604882752206528,
        0.0,
        0.004211030984201578,
        0.02717805871471913,
        0.10451797172059163,
        0.0,
        0.00932597002135705,
        -0.13498886458041512,
        0.03472573452137766,
        0.0,
        4.339395999908447,
        4.919816017150879,
        9.216808319091797,
        1.0
      ],
      "name": "pCube10"
    },
    {
      "mesh": 5,
      "name": "pCube10_lambert2_0"
    },
    {
      "children": [
        16
      ],
      "matrix": [
        0.1034969157098433,
        -0.0393936085604242,
        0.024883075408506504,
        0.0,
        0.0729324018181044,
        0.11451647908009695,
        -0.12205329297226582,
        0.0,
        0.010728189894492802,
        0.07913280995638847,
        0.08065692610459169,
        0.0,
        8.884173393249512,
        10.1776704788208,
        -10.993757247924805,
        1.0
      ],
      "name": "pCube11"
    },
    {
      "mesh": 6,
      "name": "pCube11_lambert2_0"
    },
    {
      "children": [
        18
      ],
      "matrix": [
        0.07286492577083614,
        0.08672015405511141,
        0.007276872385581658,
        0.0,
        -0.13480231108771823,
        0.11658589983538392,
        -0.039575629195469905,
        0.0,
        -0.023445750346378105,
        0.010422209900162373,
        0.11056360038520827,
        0.0,
        -6.851327419281006,
        10.334099769592285,
        -4.0297722816467285,
        1.0
      ],
      "name": "pCube12"
    },
    {
      "mesh": 7,
      "name": "pCube12_lambert2_0"
    },
    {
      "children": [
        20
      ],
      "matrix": [
        0.060984322246926466,
        0.04917873440831095,
        -0.08212794847509343,
        0.0,
        -0.02907792715443625,
        0.16332955048053607,
        0.07621087608380306,
        0.0,
        0.09400392940930911,
        -0.012376697654089087,
        0.06239161810240741,
        0.0,
        1.140443205833435,
        13.867480278015137,
        4.72260046005249,
        1.0
      ],
      "name": "pCube13"
    },
    {
      "mesh": 8,
      "name": "pCube13_lambert2_0"
    },
    {
      "children": [
        22
      ],
      "matrix": [
        0.1328058912397282,
        0.015584648624433478,
        0.04042966602474644,
        0.0,
        0.009826516408357928,
        0.2144261100095343,
        -0.11493478197302624,
        0.0,
        -0.04296108048951732,
        0.06432131625863678,
        0.11632694336879888,
        0.0,
        4.75105094909668,
        18.64641761779785,
        -6.8706254959106445,
        1.0
      ],
      "name": "pCube14"
    },
    {
      "mesh": 9,
      "name": "pCube14_lambert2_0"
    },
    {
      "children": [
        24,
        54
      ],
      "matrix": [
        0.42509013414382935,
        0.0,
        0.0,
        0.0,
        0.0,
        0.4233840886951422,
        0.03804649242969429,
        0.0,
        0.0,
        -0.03804649242969429,
        0.4233840886951422,
        0.0,
        0.0,
        212.09356689453125,
        54.77313232421875,
        1.0
      ],
      "name": "pCube15"
    },
    {
      "children": [
        25,
        52
      ],
      "matrix": [
        1.0,
        0.0,
        0.0,
        0.0,
        0.0,
        1.0,
        1.387778780781446e-17,
        0.0,
        0.0,
        -1.387778780781446e-17,
        1.0,
        0.0,
        0.0,
        0.0,
        0.0,
        1.0
      ],
      "name": "polySurface1"
    },
    {
      "children": [
        26,
        50
      ],
      "name": "polySurface3"
    },
    {
      "children": [
        27,
        29,
        31
      ],
      "name": "polySurface7"
    },
    {
      "children": [
        28
      ],
      "matrix": [
        0.9712540941820027,
        0.01531826720011315,
        0.23755175272913323,
        0.0,
        -0.021305148875485715,
        0.9995162923267139,
        0.022655507163873503,
        0.0,
        -0.23708980401124533,
        -0.027065329546208584,
        0.9711106490871493,
        0.0,
        -4.139784812927246,
        55.6883659362793,
        -24.6481990814209,
        1.0
      ],
      "name": "polySurface9"
    },
    {
      "mesh": 10,
      "name": "polySurface9_lambert2_0"
    },
    {
      "children": [
        30
      ],
      "matrix": [
        0.9954112860457202,
        -0.03743871898692195,
        0.08806085358105334,
        0.0,
        0.07006406808438537,
        0.9119529254549802,
        -0.4042683367734479,
        0.0,
        -0.06517206438553283,
        0.4085831666560941,
        0.9103913432963905,
        0.0,
        23.227325439453125,
        7.16650390625,
        -131.12600708007813,
        1.0
      ],
      "name": "polySurface10"
    },
    {
      "mesh": 11,
      "name": "polySurface10_lambert2_0"
    },
    {
      "children": [
        32,
        34,
        36,
        38,
        40,
        42,
        44,
        46,
        48
      ],
      "matrix": [
        1.0,
        0.0,
        0.0,
        0.0,
        0.0,
        0.9267644450175119,
        -0.3756430000031722,
        0.0,
        0.0,
        0.3756430000031722,
        0.9267644450175119,
        0.0,
        0.0,
        27.333892822265625,
        45.23065185546875,
        1.0
      ],
      "name": "polySurface11"
    },
    {
      "children": [
        33
      ],
      "matrix": [
        1.0,
        0.0,
        0.0,
        0.0,
        0.0,
        0.30184693648611316,
        0.9533564007935063,
        0.0,
        0.0,
        -0.9533564007935063,
        0.30184693648611316,
        0.0,
        -1.3372494030074872e-13,
        -33.80350875854492,
        138.83778381347656,
        1.0
      ],
      "name": "polySurface14"
    },
    {
      "mesh": 12,
      "name": "polySurface14_lambert2_0"
    },
    {
      "children": [
        35
      ],
      "matrix": [
        1.0,
        0.0,
        0.0,
        0.0,
        0.0,
        0.30184693648611316,
        0.9533564007935063,
        0.0,
        0.0,
        -0.9533564007935063,
        0.30184693648611316,
        0.0,
        -2.674457877382963e-13,
        -296.2784423828125,
        69.94889831542969,
        1.0
      ],
      "name": "polySurface15"
    },
    {
      "mesh": 13,
      "name": "polySurface15_lambert2_0"
    },
    {
      "children": [
        37
      ],
      "matrix": [
        1.0,
        0.0,
        0.0,
        0.0,
        0.0,
        0.880012858885501,
        0.4749498586126407,
        0.0,
        0.0,
        -0.4749498586126407,
        0.880012858885501,
        0.0,
        -4.080836822206871e-18,
        -108.85710144042969,
        -67.48484802246094,
        1.0
      ],
      "name": "polySurface16"
    },
    {
      "mesh": 14,
      "name": "polySurface16_lambert2_0"
    },
    {
      "children": [
        39
      ],
      "matrix": [
        1.0,
        0.0,
        0.0,
        0.0,
        0.0,
        0.9728205467933214,
        -0.23156032418517453,
        0.0,
        0.0,
        0.23156032418517453,
        0.9728205467933214,
        0.0,
        -4.080836822206871e-18,
        259.7669372558594,
        -130.98611450195313,
        1.0
      ],
      "name": "polySurface17"
    },
    {
      "mesh": 15,
      "name": "polySurface17_lambert2_0"
    },
    {
      "children": [
        41
      ],
      "matrix": [
        0.9863899147246497,
        -0.07817948849755121,
        -0.1446475153874402,
        0.0,
        -0.0021476922260762685,
        0.8735265675978992,
        -0.4867717361543653,
        0.0,
        0.16440901297556815,
        0.48045738965999285,
        0.8614698910429228,
        0.0,
        1.3410390615463257,
        18.845701217651367,
        -400.1053161621094,
        1.0
      ],
      "name": "polySurface19"
    },
    {
      "mesh": 16,
      "name": "polySurface19_lambert2_0"
    },
    {
      "children": [
        43
      ],
      "matrix": [
        0.9484687680341319,
        -0.17906237775601627,
        -0.26142620552687107,
        0.0,
        0.3167359941910314,
        0.5597961154196759,
        0.7657066142752458,
        0.0,
        0.00923612730721396,
        -0.8090518982323709,
        0.5876646321831545,
        0.0,
        112.4425048828125,
        -195.802490234375,
        4.383288383483887,
        1.0
      ],
      "name": "polySurface20"
    },
    {
      "mesh": 17,
      "name": "polySurface20_lambert2_0"
    },
    {
      "children": [
        45
      ],
      "matrix": [
        0.9690976611387907,
        0.12874652869481967,
        -0.21041400743381994,
        0.0,
        0.025332269514252007,
        0.7965409995639301,
        0.6040535672727647,
        0.0,
        0.24537318373567835,
        -0.5907171635924668,
        0.7686645779146375,
        0.0,
        -4.169492721557617,
        -29.646343231201172,
        -21.020498275756836,
        1.0
      ],
      "name": "polySurface21"
    },
    {
      "mesh": 18,
      "name": "polySurface21_lambert2_0"
    },
    {
      "children": [
        47
      ],
      "matrix": [
        0.9009395453124941,
        0.024426991189122255,
        0.43325657270670803,
        0.0,
        -0.22109093053755993,
        0.884950107657122,
        0.409856203309995,
        0.0,
        -0.3733988967928966,
        -0.46504476027485214,
        0.802687133829086,
        0.0,
        -56.23777770996094,
        76.14441680908203,
        -54.98802947998047,
        1.0
      ],
      "name": "polySurface22"
    },
    {
      "mesh": 19,
      "name": "polySurface22_lambert2_0"
    },
    {
      "children": [
        49
      ],
      "matrix": [
        0.8628597290201343,
        -0.17425762415331836,
        0.4744548118206213,
        0.0,
        -0.1052960921651269,
        0.856122655632006,
        0.505931548224021,
        0.0,
        -0.4943539430509819,
        -0.48650619619696783,
        0.7203651157933066,
        0.0,
        -24.400239944458008,
        265.6597595214844,
        64.5792007446289,
        1.0
      ],
      "name": "polySurface23"
    },
    {
      "mesh": 20,
      "name": "polySurface23_lambert2_0"
    },
    {
      "children": [
        51
      ],
      "matrix": [
        0.9744993836352801,
        -0.020083404969488135,
        -0.22348961528288225,
        0.0,
        0.02008340830475528,
        0.9997957238044767,
        -0.002273185682498402,
        0.0,
        0.22348961498316572,
        -0.002273215149115564,
        0.9747036598308032,
        0.0,
        3.9024670124053955,
        20.783855438232422,
        -39.12110137939453,
        1.0
      ],
      "name": "polySurface8"
    },
    {
      "mesh": 21,
      "name": "polySurface8_lambert2_0"
    },
    {
      "children": [
        53
      ],
      "matrix": [
        0.9917689373632157,
        0.011459905046009496,
        0.12752664606965272,
        0.0,
        -0.011459906139224247,
        0.9999340639199015,
        -0.0007337328605092617,
        0.0,
        -0.12752664597141336,
        -0.0007337499348325479,
        0.9918348734433141,
        0.0,
        -2.226813316345215,
        24.157930374145508,
        -39.84489440917969,
        1.0
      ],
      "name": "polySurface4"
    },
    {
      "mesh": 22,
      "name": "polySurface4_lambert2_0"
    },
    {
      "children": [
        55
      ],
      "matrix": [
        0.9916919191849535,
        0.013882464198366529,
        -0.12788437985557374,
        0.0,
        7.806255641895632e-18,
        0.9941594955421609,
        0.1079207923588227,
        0.0,
        0.12863567710111998,
        -0.10702417769428176,
        0.9858999381101508,
        0.0,
        1.9743372201919556,
        18.180635452270508,
        -22.116117477416992,
        1.0
      ],
      "name": "polySurface2"
    },
    {
      "mesh": 23,
      "name": "polySurface2_lambert2_0"
    },
    {
      "children": [
        57,
        59
      ],
      "matrix": [
        0.42509013414382935,
        0.0,
        0.0,
        0.0,
        0.0,
        0.4233840886951422,
        0.03804649242969429,
        0.0,
        0.0,
        -0.03804649242969429,
        0.4233840886951422,
        0.0,
        0.0,
        226.3217315673828,
        50.033287048339844,
        1.0
      ],
      "name": "pCube16"
    },
    {
      "children": [
        58
      ],
      "matrix": [
        1.0,
        0.0,
        0.0,
        0.0,
        0.0,
        1.0,
        1.387778780781446e-17,
        0.0,
        0.0,
        -1.387778780781446e-17,
        1.0,
        0.0,
        -4.080836822206871e-18,
        -1.100533366203308,
        -12.246813774108887,
        1.0
      ],
      "name": "polySurface5"
    },
    {
      "mesh": 24,
      "name": "polySurface5_lambert2_0"
    },
    {
      "children": [
        60
      ],
      "matrix": [
        1.0,
        0.0,
        0.0,
        0.0,
        0.0,
        1.0,
        1.387778780781446e-17,
        0.0,
        0.0,
        -1.387778780781446e-17,
        1.0,
        0.0,
        -4.080836822206871e-18,
        -0.794030487537384,
        -8.836028099060059,
        1.0
      ],
      "name": "polySurface6"
    },
    {
      "mesh": 25,
      "name": "polySurface6_lambert2_0"
    },
    {
      "children": [
        62
      ],
      "matrix": [
        0.02332453454271651,
        -0.11110026590097695,
        -0.10055448716521762,
        0.0,
        1.315586850925325,
        -0.007920898143384614,
        0.31391403534674545,
        0.0,
        -0.03916587152753176,
        -0.15328229734611645,
        0.16027308898952167,
        0.0,
        8.511515617370605,
        15.296037673950195,
        28.625919342041016,
        1.0
      ],
      "name": "pPlane1"
    },
    {
      "mesh": 26,
      "name": "pPlane1_lambert2_0"
    },
    {
      "children": [
        64
      ],
      "matrix": [
        0.007258877348722107,
        -0.15084002747356542,
        0.013896139585234014,
        0.0,
        -1.251362178679778,
        -0.012947558703500232,
        0.5131262837120187,
        0.0,
        -0.08478234635292721,
        -0.023181534997366793,
        -0.20734382413883382,
        0.0,
        7.761883735656738,
        12.047492027282715,
        -30.109970092773438,
        1.0
      ],
      "name": "pPlane2"
    },
    {
      "mesh": 27,
      "name": "pPlane2_lambert2_0"
    },
    {
      "children": [
        66
      ],
      "matrix": [
        0.021116875848488002,
        -0.11771426529314499,
        -0.04513141401351572,
        0.0,
        1.0192653435203272,
        -0.012881543820142144,
        0.5105100667910556,
        0.0,
        -0.07903537197680409,
        -0.07396255525541989,
        0.15593279907681618,
        0.0,
        4.492206573486328,
        15.628941535949707,
        -29.3669376373291,
        1.0
      ],
      "name": "pPlane3"
    },
    {
      "mesh": 28,
      "name": "pPlane3_lambert2_0"
    },
    {
      "children": [
        68
      ],
      "matrix": [
        -0.03386923049384621,
        -0.14754242848428273,
        0.009089274265700224,
        0.0,
        1.2226078820489743,
        -0.3107144979042177,
        -0.48791391872597867,
        0.0,
        0.08213865012266795,
        -0.005942720186145084,
        0.20960633926308772,
        0.0,
        4.883509159088135,
        19.357189178466797,
        -16.38558578491211,
        1.0
      ],
      "name": "pPlane4"
    },
    {
      "mesh": 29,
      "name": "pPlane4_lambert2_0"
    },
    {
      "children": [
        70
      ],
      "matrix": [
        0.07281384617090225,
        0.0,
        0.0,
        0.0,
        0.0,
        0.07281384617090225,
        0.0,
        0.0,
        0.0,
        0.0,
        0.07281384617090225,
        0.0,
        0.0,
        -16.661296844482422,
        -1.3833955526351929,
        1.0
      ],
      "name": "pCylinder1"
    },
    {
      "mesh": 30,
      "name": "pCylinder1_lambert2_0"
    },
    {
      "children": [
        72
      ],
      "matrix": [
        0.11641909182071686,
        0.0,
        0.0,
        0.0,
        0.0,
        0.11641909182071686,
        0.0,
        0.0,
        0.0,
        0.0,
        0.11641909182071686,
        0.0,
        0.0,
        -66.47541809082031,
        -1.4410037994384766,
        1.0
      ],
      "name": "pSphere2"
    },
    {
      "mesh": 31,
      "name": "pSphere2_lambert2_0"
    },
    {
      "children": [
        74
      ],
      "matrix": [
        0.13470584154129028,
        0.0,
        0.0,
        0.0,
        0.0,
        0.13470584154129028,
        0.0,
        0.0,
        0.0,
        0.0,
        0.20109213888645172,
        0.0,
        0.0,
        2.110074996948242,
        -1.0880422592163086,
        1.0
      ],
      "name": "pCube17"
    },
    {
      "mesh": 32,
      "name": "pCube17_lambert2_0"
    },
    {
      "children": [
        76
      ],
      "matrix": [
        0.03683892429046753,
        -0.019324510851509248,
        -0.00706206351623305,
        0.0,
        0.018920792293001046,
        0.037508732713953205,
        -0.003938831404685383,
        0.0,
        0.008081650806767192,
        0.0002721289755335355,
        0.04141290462759598,
        0.0,
        17.20347785949707,
        55.66789245605469,
        -5.684341886080802e-14,
        1.0
      ],
      "name": "pCube19"
    },
    {
      "mesh": 33,
      "name": "pCube19_lambert2_0"
    },
    {
      "children": [
        78
      ],
      "matrix": [
        0.03502181702655615,
        -0.006542761389599092,
        -0.04164026438014729,
        0.0,
        -0.006389161980685164,
        0.0526881384525848,
        -0.013652314370728235,
        0.0,
        0.041664108696027075,
        0.013579372293718028,
        0.032908201208294775,
        0.0,
        -0.46415066719055176,
        30.88776397705078,
        -24.375106811523438,
        1.0
      ],
      "name": "pCube20"
    },
    {
      "mesh": 34,
      "name": "pCube20_lambert2_0"
    },
    {
      "children": [
        80
      ],
      "matrix": [
        0.02243953964244533,
        -0.011548377070243537,
        -0.031119818893498567,
        0.0,
        0.012001736385115,
        0.03784504520270293,
        -0.005389986793409673,
        0.0,
        0.0309478022590116,
        -0.006303064408238052,
        0.024654532944030222,
        0.0,
        11.911568641662598,
        123.67881774902344,
        -9.442710876464844,
        1.0
      ],
      "name": "pCube21"
    },
    {
      "mesh": 35,
      "name": "pCube21_lambert2_0"
    },
    {
      "children": [
        82
      ],
      "matrix": [
        -0.1524213619433037,
        -0.3569834811535293,
        0.9215912991162927,
        0.0,
        -0.9880011269172944,
        0.07855934966234512,
        -0.1329744403665074,
        0.0,
        -0.0249299344865736,
        -0.9308013873883823,
        -0.36467420473946044,
        0.0,
        1.9114305973052979,
        140.52928161621094,
        24.600608825683594,
        1.0
      ],
      "name": "pPlane8"
    },
    {
      "mesh": 36,
      "name": "pPlane8_Special_effects_0"
    },
    {
      "children": [
        84
      ],
      "matrix": [
        -0.14073538498165283,
        -0.5762234217208977,
        0.8050839208891992,
        0.0,
        -0.8846189258084525,
        -0.29196105909385595,
        -0.36360431250783254,
        0.0,
        0.44457047530798255,
        -0.7633644661844396,
        -0.46864889229718676,
        0.0,
        -17.808799743652344,
        115.61703491210938,
        25.263385772705078,
        1.0
      ],
      "name": "pPlane9"
    },
    {
      "mesh": 37,
      "name": "pPlane9_Special_effects_0"
    },
    {
      "children": [
        86
      ],
      "matrix": [
        -0.1045607074633395,
        -0.2448898557672191,
        0.6322095341432629,
        0.0,
        -0.6777665249013838,
        0.05389153510916742,
        -0.09122016351248396,
        0.0,
        -0.017101878330548274,
        -0.6385276337406651,
        -0.25016567464718076,
        0.0,
        1.9114305973052979,
        216.91693115234375,
        17.006589889526367,
        1.0
      ],
      "name": "pPlane10"
    },
    {
      "mesh": 38,
      "name": "pPlane10_Special_effects_0"
    },
    {
      "children": [
        88
      ],
      "matrix": [
        -0.1524213619433037,
        -0.3569834811535293,
        0.9215912991162927,
        0.0,
        -0.9880011269172944,
        0.07855934966234512,
        -0.1329744403665074,
        0.0,
        -0.0249299344865736,
        -0.9308013873883823,
        -0.36467420473946044,
        0.0,
        -0.7131513357162476,
        180.09169006347656,
        26.890254974365234,
        1.0
      ],
      "name": "pPlane11"
    },
    {
      "mesh": 39,
      "name": "pPlane11_Special_effects_0"
    },
    {
      "children": [
        90
      ],
      "matrix": [
        -0.1524213619433179,
        -0.943368888527096,
        0.2946572052105567,
        0.0,
        -0.9880011269172922,
        0.15296373791610163,
        -0.021351067722602368,
        0.0,
        -0.024929934486580513,
        -0.29437600962355287,
        -0.955364466224597,
        0.0,
        1.1403005123138428,
        15.512301445007324,
        42.79041290283203,
        1.0
      ],
      "name": "pPlane12"
    },
    {
      "mesh": 40,
      "name": "pPlane12_Special_effects_0"
    },
    {
      "children": [
        92
      ],
      "matrix": [
        -0.1439543130311058,
        0.859044689887982,
        0.36510910063901814,
        0.0,
        -0.9331173904103994,
        -0.12312397160510156,
        -0.0782157411542053,
        0.0,
        -0.02354506971444072,
        -0.37264995267123874,
        0.867503845121562,
        0.0,
        2.357088804244995,
        30.68386459350586,
        -39.130802154541016,
        1.0
      ],
      "name": "pPlane13"
    },
    {
      "mesh": 41,
      "name": "pPlane13_Special_effects_0"
    },
    {
      "children": [
        94
      ],
      "matrix": [
        -0.46709985942906307,
        -0.24488985576721486,
        0.43867933382851215,
        0.0,
        -0.4829713873179546,
        0.05389153510917641,
        -0.4841768473815241,
        0.0,
        0.13838077329631004,
        -0.638527633740666,
        -0.20910786832643607,
        0.0,
        -12.182690620422363,
        216.91693115234375,
        17.006589889526367,
        1.0
      ],
      "name": "pPlane21"
    },
    {
      "mesh": 42,
      "name": "pPlane21_Special_effects_0"
    }
  ],
  "samplers": [
    {
      "magFilter": 9729,
      "minFilter": 9987,
      "wrapS": 10497,
      "wrapT": 10497
    }
  ],
  "scene": 0,
  "scenes": [
    {
      "name": "Sketchfab_Scene",
      "nodes": [
        0
      ]
    }
  ],
  "textures": [
    {
      "sampler": 0,
      "source": 0
    },
    {
      "sampler": 0,
      "source": 1
    }
  ]
}
