{
  "accessors": [
    {
      "bufferView": 2,
      "componentType": 5126,
      "count": 108,
      "max": [
        0.6166980266571045,
        -0.942546010017395,
        0.612201988697052
      ],
      "min": [
        -0.6166980266571045,
        -0.9719099998474121,
        -0.612201988697052
      ],
      "type": "VEC3"
    },
    {
      "bufferView": 2,
      "byteOffset": 1296,
      "componentType": 5126,
      "count": 108,
      "max": [
        1.0,
        1.0,
        0.9927089810371399
      ],
      "min": [
        -1.0,
        -1.0,
        -0.9927089810371399
      ],
      "type": "VEC3"
    },
    {
      "bufferView": 3,
      "componentType": 5126,
      "count": 108,
      "max": [
        0.0,
        1.0,
        0.0,
        1.0
      ],
      "min": [
        -0.6631374359130859,
        0.0,
        -0.748523473739624,
        1.0
      ],
      "type": "VEC4"
    },
    {
      "bufferView": 1,
      "componentType": 5126,
      "count": 108,
      "max": [
        0.9747939705848694,
        0.7571110129356384
      ],
      "min": [
        0.5553420186042786,
        0.009765629656612873
      ],
      "type": "VEC2"
    },
    {
      "bufferView": 0,
      "componentType": 5125,
      "count": 312,
      "type": "SCALAR"
    },
    {
      "bufferView": 2,
      "byteOffset": 2592,
      "componentType": 5126,
      "count": 108,
      "max": [
        0.6166980266571045,
        0.9487670063972473,
        0.612201988697052
      ],
      "min": [
        -0.6166980266571045,
        0.9194030165672302,
        -0.612201988697052
      ],
      "type": "VEC3"
    },
    {
      "bufferView": 2,
      "byteOffset": 3888,
      "componentType": 5126,
      "count": 108,
      "max": [
        1.0,
        1.0,
        0.9927089810371399
      ],
      "min": [
        -1.0,
        -1.0,
        -0.9927089810371399
      ],
      "type": "VEC3"
    },
    {
      "bufferView": 3,
      "byteOffset": 1728,
      "componentType": 5126,
      "count": 108,
      "max": [
        0.0,
        1.0,
        0.7485154271125793,
        1.0
      ],
      "min": [
        -0.6631307005882263,
        0.0,
        -0.7485184669494629,
        1.0
      ],
      "type": "VEC4"
    },
    {
      "bufferView": 1,
      "byteOffset": 864,
      "componentType": 5126,
      "count": 108,
      "max": [
        0.9902340173721313,
        0.5712059736251831
      ],
      "min": [
        0.5553420186042786,
        0.009765629656612873
      ],
      "type": "VEC2"
    },
    {
      "bufferView": 0,
      "byteOffset": 1248,
      "componentType": 5125,
      "count": 312,
      "type": "SCALAR"
    },
    {
      "bufferView": 2,
      "byteOffset": 5184,
      "componentType": 5126,
      "count": 328,
      "max": [
        0.8259860277175903,
        0.6165350079536438,
        0.02749289944767952
      ],
      "min": [
        -0.8259860277175903,
        -0.6165350079536438,
        -0.02749289944767952
      ],
      "type": "VEC3"
    },
    {
      "bufferView": 2,
      "byteOffset": 9120,
      "componentType": 5126,
      "count": 328,
      "max": [
        1.0,
        0.8628578186035156,
        0.8628571629524231
      ],
      "min": [
        -1.0,
        -0.8628578186035156,
        -0.8628571629524231
      ],
      "type": "VEC3"
    },
    {
      "bufferView": 3,
      "byteOffset": 3456,
      "componentType": 5126,
      "count": 328,
      "max": [
        0.9339503645896912,
        0.9238799214363098,
        0.3826868236064911,
        1.0
      ],
      "min": [
        -0.9339503645896912,
        -0.9238799214363098,
        -0.3826868534088135,
        1.0
      ],
      "type": "VEC4"
    },
    {
      "bufferView": 1,
      "byteOffset": 1728,
      "componentType": 5126,
      "count": 328,
      "max": [
        0.7333629727363586,
        0.3719579875469208
      ],
      "min": [
        0.009765629656612873,
        0.009765629656612873
      ],
      "type": "VEC2"
    },
    {
      "bufferView": 0,
      "byteOffset": 2496,
      "componentType": 5125,
      "count": 576,
      "type": "SCALAR"
    },
    {
      "bufferView": 2,
      "byteOffset": 13056,
      "componentType": 5126,
      "count": 1150,
      "max": [
        0.8171910047531128,
        1.0,
        0.8171910047531128
      ],
      "min": [
        -0.8171910047531128,
        -1.0,
        -0.8171910047531128
      ],
      "type": "VEC3"
    },
    {
      "bufferView": 2,
      "byteOffset": 26856,
      "componentType": 5126,
      "count": 1150,
      "max": [
        1.0,
        1.0,
        1.0
      ],
      "min": [
        -1.0,
        -1.0,
        -1.0
      ],
      "type": "VEC3"
    },
    {
      "bufferView": 3,
      "byteOffset": 8704,
      "componentType": 5126,
      "count": 1150,
      "max": [
        0.996213972568512,
        0.9999992847442627,
        1.0,
        1.0
      ],
      "min": [
        -0.996213972568512,
        -0.9999901652336121,
        -0.996213972568512,
        1.0
      ],
      "type": "VEC4"
    },
    {
      "bufferView": 1,
      "byteOffset": 4352,
      "componentType": 5126,
      "count": 1150,
      "max": [
        0.9590049982070923,
        0.7408459782600403
      ],
      "min": [
        0.009765629656612873,
        0.009765629656612873
      ],
      "type": "VEC2"
    },
    {
      "bufferView": 0,
      "byteOffset": 4800,
      "componentType": 5125,
      "count": 3744,
      "type": "SCALAR"
    }
  ],
  "asset": {
    "extras": {
      "author": "Reliefy3D (https://sketchfab.com/Krystian.Kulasek)",
      "license": "CC-BY-4.0 (http://creativecommons.org/licenses/by/4.0/)",
      "source": "https://sketchfab.com/3d-models/old-barrel-e7b123784dc14a26b25a384400339b7f",
      "title": "Old barrel"
    },
    "generator": "Sketchfab-12.66.0",
    "version": "2.0"
  },
  "bufferViews": [
    {
      "buffer": 0,
      "byteLength": 19776,
      "name": "floatBufferViews",
      "target": 34963
    },
    {
      "buffer": 0,
      "byteLength": 13552,
      "byteOffset": 19776,
      "byteStride": 8,
      "name": "floatBufferViews",
      "target": 34962
    },
    {
      "buffer": 0,
      "byteLength": 40656,
      "byteOffset": 33328,
      "byteStride": 12,
      "name": "floatBufferViews",
      "target": 34962
    },
    {
      "buffer": 0,
      "byteLength": 27104,
      "byteOffset": 73984,
      "byteStride": 16,
      "name": "floatBufferViews",
      "target": 34962
    }
  ],
  "buffers": [
    {
      "byteLength": 101088,
      "uri": "scene.bin"
    }
  ],
  "images": [
    {
      "uri": "textures/DefaultMaterial_baseColor.jpeg"
    },
    {
      "uri": "textures/DefaultMaterial_metallicRoughness.png"
    },
    {
      "uri": "textures/DefaultMaterial_normal.png"
    }
  ],
  "materials": [
    {
      "doubleSided": true,
      "name": "DefaultMaterial",
      "normalTexture": {
        "index": 2,
        "scale": 0.8797637195121951
      },
      "occlusionTexture": {
        "index": 1,
        "strength": 0.6
      },
      "pbrMetallicRoughness": {
        "baseColorTexture": {
          "index": 0
        },
        "metallicRoughnessTexture": {
          "index": 1
        }
      }
    }
  ],
  "meshes": [
    {
      "name": "defaultMaterial",
      "primitives": [
        {
          "attributes": {
            "NORMAL": 1,
            "POSITION": 0,
            "TANGENT": 2,
            "TEXCOORD_0": 3
          },
          "indices": 4,
          "material": 0,
          "mode": 4
        }
      ]
    },
    {
      "name": "defaultMaterial",
      "primitives": [
        {
          "attributes": {
            "NORMAL": 6,
            "POSITION": 5,
            "TANGENT": 7,
            "TEXCOORD_0": 8
          },
          "indices": 9,
          "material": 0,
          "mode": 4
        }
      ]
    },
    {
      "name": "defaultMaterial",
      "primitives": [
        {
          "attributes": {
            "NORMAL": 11,
            "POSITION": 10,
            "TANGENT": 12,
            "TEXCOORD_0": 13
          },
          "indices": 14,
          "material": 0,
          "mode": 4
        }
      ]
    },
    {
      "name": "defaultMaterial",
      "primitives": [
        {
          "attributes": {
            "NORMAL": 16,
            "POSITION": 15,
            "TANGENT": 17,
            "TEXCOORD_0": 18
          },
          "indices": 19,
          "material": 0,
          "mode": 4
        }
      ]
    }
  ],
  "nodes": [
    {
      "children": [
        1
      ],
      "matrix": [
        0.47418665885925293,
        0.0,
        0.0,
        0.0,
        0.0,
        1.0529058932712341e-16,
        -0.47418665885925293,
        0.0,
        0.0,
        0.47418665885925293,
        1.0529058932712341e-16,
        0.0,
        0.0,
        -2.9582283945787943e-31,
        1.3322676295501878e-15,
        1.0
      ],
      "name": "Sketchfab_model"
    },
    {
      "children": [
        2,
        4,
        6,
        8
      ],
      "matrix": [
        1.0,
        0.0,
        0.0,
        0.0,
        0.0,
        -4.371139006309477e-08,
        0.999999999999999,
        0.0,
        0.0,
        -0.999999999999999,
        -4.371139006309477e-08,
        0.0,
        0.0,
        0.0,
        0.0,
        1.0
      ],
      "name": "Collada visual scene group"
    },
    {
      "children": [
        3
      ],
      "name": "Cylinder_1"
    },
    {
      "mesh": 0,
      "name": "defaultMaterial"
    },
    {
      "children": [
        5
      ],
      "name": "Cylinder"
    },
    {
      "mesh": 1,
      "name": "defaultMaterial"
    },
    {
      "children": [
        7
      ],
      "name": "Symmetry_1"
    },
    {
      "mesh": 2,
      "name": "defaultMaterial"
    },
    {
      "children": [
        9
      ],
      "name": "Tube"
    },
    {
      "mesh": 3,
      "name": "defaultMaterial"
    }
  ],
  "samplers": [
    {
      "magFilter": 9729,
      "minFilter": 9987,
      "wrapS": 10497,
      "wrapT": 10497
    }
  ],
  "scene": 0,
  "scenes": [
    {
      "name": "Sketchfab_Scene",
      "nodes": [
        0
      ]
    }
  ],
  "textures": [
    {
      "sampler": 0,
      "source": 0
    },
    {
      "sampler": 0,
      "source": 1
    },
    {
      "sampler": 0,
      "source": 2
    }
  ]
}
