{
  "accessors": [
    {
      "bufferView": 2,
      "componentType": 5126,
      "count": 721,
      "max": [
        223.08172607421875,
        219.692626953125,
        815.2922973632813
      ],
      "min": [
        -223.08172607421875,
        -249.56497192382813,
        3.19140625
      ],
      "type": "VEC3"
    },
    {
      "bufferView": 2,
      "byteOffset": 8652,
      "componentType": 5126,
      "count": 721,
      "max": [
        1.0,
        1.0,
        1.0
      ],
      "min": [
        -1.0,
        -1.0,
        -1.0
      ],
      "type": "VEC3"
    },
    {
      "bufferView": 3,
      "componentType": 5126,
      "count": 721,
      "max": [
        0.999457836151123,
        1.0,
        1.0,
        1.0
      ],
      "min": [
        -0.9981671571731567,
        -1.0,
        -0.9997990727424622,
        1.0
      ],
      "type": "VEC4"
    },
    {
      "bufferView": 1,
      "componentType": 5126,
      "count": 721,
      "max": [
        1.2247107028961182,
        0.9151470065116882
      ],
      "min": [
        -0.06688462197780609,
        0.43597838282585144
      ],
      "type": "VEC2"
    },
    {
      "bufferView": 1,
      "byteOffset": 5768,
      "componentType": 5126,
      "count": 721,
      "max": [
        1.2247107028961182,
        0.9151470065116882
      ],
      "min": [
        -0.06688462197780609,
        0.43597838282585144
      ],
      "type": "VEC2"
    },
    {
      "bufferView": 0,
      "componentType": 5125,
      "count": 1683,
      "type": "SCALAR"
    },
    {
      "bufferView": 2,
      "byteOffset": 17304,
      "componentType": 5126,
      "count": 1165,
      "max": [
        230.63613891601563,
        227.1322784423828,
        768.8012084960938
      ],
      "min": [
        -230.63613891601563,
        -249.56497192382813,
        -8.187255859375
      ],
      "type": "VEC3"
    },
    {
      "bufferView": 2,
      "byteOffset": 31284,
      "componentType": 5126,
      "count": 1165,
      "max": [
        0.999788224697113,
        0.9961947202682495,
        1.0
      ],
      "min": [
        -0.9999068975448608,
        -0.9961947202682495,
        -1.0
      ],
      "type": "VEC3"
    },
    {
      "bufferView": 3,
      "byteOffset": 11536,
      "componentType": 5126,
      "count": 1165,
      "max": [
        1.0,
        1.0,
        1.0,
        1.0
      ],
      "min": [
        -0.999995231628418,
        -1.0,
        -1.0,
        1.0
      ],
      "type": "VEC4"
    },
    {
      "bufferView": 1,
      "byteOffset": 11536,
      "componentType": 5126,
      "count": 1165,
      "max": [
        6.9113359451293945,
        4.062012672424316
      ],
      "min": [
        -0.5990734696388245,
        0.0033643804490566254
      ],
      "type": "VEC2"
    },
    {
      "bufferView": 1,
      "byteOffset": 20856,
      "componentType": 5126,
      "count": 1165,
      "max": [
        6.9113359451293945,
        4.062012672424316
      ],
      "min": [
        -0.5990734696388245,
        0.0033643804490566254
      ],
      "type": "VEC2"
    },
    {
      "bufferView": 0,
      "byteOffset": 6732,
      "componentType": 5125,
      "count": 2808,
      "type": "SCALAR"
    },
    {
      "bufferView": 2,
      "byteOffset": 45264,
      "componentType": 5126,
      "count": 713,
      "max": [
        220.95748901367188,
        217.60067749023438,
        776.4566650390625
      ],
      "min": [
        -220.95748901367188,
        -217.60067749023438,
        378.5418395996094
      ],
      "type": "VEC3"
    },
    {
      "bufferView": 2,
      "byteOffset": 53820,
      "componentType": 5126,
      "count": 713,
      "max": [
        1.0,
        0.9979388117790222,
        1.0
      ],
      "min": [
        -1.0,
        -0.9979389905929565,
        -1.0
      ],
      "type": "VEC3"
    },
    {
      "bufferView": 3,
      "byteOffset": 30176,
      "componentType": 5126,
      "count": 713,
      "max": [
        1.0,
        1.0,
        0.9999997615814209,
        1.0
      ],
      "min": [
        -1.0,
        -1.0,
        -1.0,
        -1.0
      ],
      "type": "VEC4"
    },
    {
      "bufferView": 1,
      "byteOffset": 30176,
      "componentType": 5126,
      "count": 713,
      "max": [
        1.4354981184005737,
        0.8121618032455444
      ],
      "min": [
        -1.1418378353118896,
        0.709276020526886
      ],
      "type": "VEC2"
    },
    {
      "bufferView": 1,
      "byteOffset": 35880,
      "componentType": 5126,
      "count": 713,
      "max": [
        1.4354981184005737,
        0.8121618032455444
      ],
      "min": [
        -1.1418378353118896,
        0.709276020526886
      ],
      "type": "VEC2"
    },
    {
      "bufferView": 0,
      "byteOffset": 17964,
      "componentType": 5125,
      "count": 1572,
      "type": "SCALAR"
    },
    {
      "bufferView": 2,
      "byteOffset": 62376,
      "componentType": 5126,
      "count": 1848,
      "max": [
        423.6219482421875,
        254.1448211669922,
        704.1422729492188
      ],
      "min": [
        -422.5402526855469,
        -269.4163513183594,
        -30.335063934326172
      ],
      "type": "VEC3"
    },
    {
      "bufferView": 2,
      "byteOffset": 84552,
      "componentType": 5126,
      "count": 1848,
      "max": [
        1.0,
        1.0,
        1.0
      ],
      "min": [
        -1.0,
        -1.0,
        -1.0
      ],
      "type": "VEC3"
    },
    {
      "bufferView": 3,
      "byteOffset": 41584,
      "componentType": 5126,
      "count": 1848,
      "max": [
        1.0,
        1.0,
        1.0,
        1.0
      ],
      "min": [
        -1.0,
        -1.0,
        -1.0,
        -1.0
      ],
      "type": "VEC4"
    },
    {
      "bufferView": 1,
      "byteOffset": 41584,
      "componentType": 5126,
      "count": 1848,
      "max": [
        1.4719300270080566,
        1.0
      ],
      "min": [
        -0.8293297290802002,
        0.0
      ],
      "type": "VEC2"
    },
    {
      "bufferView": 1,
      "byteOffset": 56368,
      "componentType": 5126,
      "count": 1848,
      "max": [
        1.4719300270080566,
        1.0
      ],
      "min": [
        -0.8293297290802002,
        0.0
      ],
      "type": "VEC2"
    },
    {
      "bufferView": 0,
      "byteOffset": 24252,
      "componentType": 5125,
      "count": 3747,
      "type": "SCALAR"
    },
    {
      "bufferView": 2,
      "byteOffset": 106728,
      "componentType": 5126,
      "count": 1356,
      "max": [
        235.774658203125,
        230.07666015625,
        679.0023193359375
      ],
      "min": [
        -234.11228942871094,
        -231.38319396972656,
        2.1693263053894043
      ],
      "type": "VEC3"
    },
    {
      "bufferView": 2,
      "byteOffset": 123000,
      "componentType": 5126,
      "count": 1356,
      "max": [
        1.0,
        1.0,
        1.0
      ],
      "min": [
        -1.0,
        -1.0,
        -1.0
      ],
      "type": "VEC3"
    },
    {
      "bufferView": 3,
      "byteOffset": 71152,
      "componentType": 5126,
      "count": 1356,
      "max": [
        1.0,
        1.0,
        1.0,
        1.0
      ],
      "min": [
        -1.0,
        -1.0,
        -1.0,
        1.0
      ],
      "type": "VEC4"
    },
    {
      "bufferView": 1,
      "byteOffset": 71152,
      "componentType": 5126,
      "count": 1356,
      "max": [
        4.1635518074035645,
        0.9990442991256714
      ],
      "min": [
        -0.22486141324043274,
        0.1046745628118515
      ],
      "type": "VEC2"
    },
    {
      "bufferView": 1,
      "byteOffset": 82000,
      "componentType": 5126,
      "count": 1356,
      "max": [
        4.1635518074035645,
        0.9990442991256714
      ],
      "min": [
        -0.22486141324043274,
        0.1046745628118515
      ],
      "type": "VEC2"
    },
    {
      "bufferView": 0,
      "byteOffset": 39240,
      "componentType": 5125,
      "count": 3564,
      "type": "SCALAR"
    },
    {
      "bufferView": 2,
      "byteOffset": 139272,
      "componentType": 5126,
      "count": 152,
      "max": [
        -309.0558776855469,
        107.5667724609375,
        142.7218017578125
      ],
      "min": [
        -326.1246032714844,
        -107.337646484375,
        105.25018310546875
      ],
      "type": "VEC3"
    },
    {
      "bufferView": 2,
      "byteOffset": 141096,
      "componentType": 5126,
      "count": 152,
      "max": [
        1.0,
        1.0,
        1.0
      ],
      "min": [
        -1.0,
        -1.0,
        -1.0
      ],
      "type": "VEC3"
    },
    {
      "bufferView": 3,
      "byteOffset": 92848,
      "componentType": 5126,
      "count": 152,
      "max": [
        1.0,
        1.0,
        0.466750830411911,
        1.0
      ],
      "min": [
        -1.0,
        -1.0,
        -0.4667511582374573,
        1.0
      ],
      "type": "VEC4"
    },
    {
      "bufferView": 1,
      "byteOffset": 92848,
      "componentType": 5126,
      "count": 152,
      "max": [
        1.396850347518921,
        0.8543963432312012
      ],
      "min": [
        0.7877244353294373,
        0.8195356726646423
      ],
      "type": "VEC2"
    },
    {
      "bufferView": 1,
      "byteOffset": 94064,
      "componentType": 5126,
      "count": 152,
      "max": [
        1.396850347518921,
        0.8543963432312012
      ],
      "min": [
        0.7877244353294373,
        0.8195356726646423
      ],
      "type": "VEC2"
    },
    {
      "bufferView": 0,
      "byteOffset": 53496,
      "componentType": 5125,
      "count": 420,
      "type": "SCALAR"
    },
    {
      "bufferView": 2,
      "byteOffset": 142920,
      "componentType": 5126,
      "count": 118,
      "max": [
        572.5,
        308.033935546875,
        80.76300048828125
      ],
      "min": [
        -572.5,
        -308.033935546875,
        0.0
      ],
      "type": "VEC3"
    },
    {
      "bufferView": 2,
      "byteOffset": 144336,
      "componentType": 5126,
      "count": 118,
      "max": [
        1.0,
        1.0,
        1.0
      ],
      "min": [
        -1.0,
        -1.0,
        0.0
      ],
      "type": "VEC3"
    },
    {
      "bufferView": 3,
      "byteOffset": 95280,
      "componentType": 5126,
      "count": 118,
      "max": [
        1.0,
        1.0,
        0.13038398325443268,
        1.0
      ],
      "min": [
        -1.0,
        -1.0,
        -0.13038398325443268,
        1.0
      ],
      "type": "VEC4"
    },
    {
      "bufferView": 1,
      "byteOffset": 95280,
      "componentType": 5126,
      "count": 118,
      "max": [
        2.205310821533203,
        0.4261852204799652
      ],
      "min": [
        -2.486879348754883,
        0.15136706829071045
      ],
      "type": "VEC2"
    },
    {
      "bufferView": 0,
      "byteOffset": 55176,
      "componentType": 5125,
      "count": 228,
      "type": "SCALAR"
    },
    {
      "bufferView": 2,
      "byteOffset": 145752,
      "componentType": 5126,
      "count": 2327,
      "max": [
        56.073760986328125,
        223.76446533203125,
        1282.846435546875
      ],
      "min": [
        -170.94915771484375,
        -576.8419189453125,
        -6.319120407104492
      ],
      "type": "VEC3"
    },
    {
      "bufferView": 2,
      "byteOffset": 173676,
      "componentType": 5126,
      "count": 2327,
      "max": [
        1.0,
        1.0,
        1.0
      ],
      "min": [
        -1.0,
        -1.0,
        -1.0
      ],
      "type": "VEC3"
    },
    {
      "bufferView": 3,
      "byteOffset": 97168,
      "componentType": 5126,
      "count": 2327,
      "max": [
        1.0,
        1.0,
        1.0,
        1.0
      ],
      "min": [
        -1.0,
        -1.0,
        -1.0,
        -1.0
      ],
      "type": "VEC4"
    },
    {
      "bufferView": 1,
      "byteOffset": 96224,
      "componentType": 5126,
      "count": 2327,
      "max": [
        2.091836452484131,
        0.9548263549804688
      ],
      "min": [
        -0.8731080293655396,
        -0.1719852238893509
      ],
      "type": "VEC2"
    },
    {
      "bufferView": 1,
      "byteOffset": 114840,
      "componentType": 5126,
      "count": 2327,
      "max": [
        2.091836452484131,
        0.9548263549804688
      ],
      "min": [
        -0.8731080293655396,
        -0.1719852238893509
      ],
      "type": "VEC2"
    },
    {
      "bufferView": 0,
      "byteOffset": 56088,
      "componentType": 5125,
      "count": 6258,
      "type": "SCALAR"
    },
    {
      "bufferView": 2,
      "byteOffset": 201600,
      "componentType": 5126,
      "count": 298,
      "max": [
        61.98150634765625,
        202.59361267089844,
        1255.1123046875
      ],
      "min": [
        -170.94915771484375,
        -454.0202331542969,
        561.6500854492188
      ],
      "type": "VEC3"
    },
    {
      "bufferView": 2,
      "byteOffset": 205176,
      "componentType": 5126,
      "count": 298,
      "max": [
        1.0,
        0.9875611066818237,
        1.0
      ],
      "min": [
        -1.0,
        -1.0,
        -1.0
      ],
      "type": "VEC3"
    },
    {
      "bufferView": 3,
      "byteOffset": 134400,
      "componentType": 5126,
      "count": 298,
      "max": [
        0.32082974910736084,
        0.9998615980148315,
        0.9875611662864685,
        1.0
      ],
      "min": [
        -1.0,
        -1.0,
        -1.0,
        1.0
      ],
      "type": "VEC4"
    },
    {
      "bufferView": 1,
      "byteOffset": 133456,
      "componentType": 5126,
      "count": 298,
      "max": [
        0.9938561916351318,
        0.9950277805328369
      ],
      "min": [
        -0.4355248510837555,
        0.6291871070861816
      ],
      "type": "VEC2"
    },
    {
      "bufferView": 1,
      "byteOffset": 135840,
      "componentType": 5126,
      "count": 298,
      "max": [
        0.9938561916351318,
        0.9950277805328369
      ],
      "min": [
        -0.4355248510837555,
        0.6291871070861816
      ],
      "type": "VEC2"
    },
    {
      "bufferView": 0,
      "byteOffset": 81120,
      "componentType": 5125,
      "count": 540,
      "type": "SCALAR"
    },
    {
      "bufferView": 2,
      "byteOffset": 208752,
      "componentType": 5126,
      "count": 943,
      "max": [
        113.58757019042969,
        87.2730712890625,
        180.92015075683594
      ],
      "min": [
        -72.75882720947266,
        -87.27312469482422,
        -85.62464904785156
      ],
      "type": "VEC3"
    },
    {
      "bufferView": 2,
      "byteOffset": 220068,
      "componentType": 5126,
      "count": 943,
      "max": [
        1.0,
        0.9999895095825195,
        1.0
      ],
      "min": [
        -1.0,
        -0.9999895095825195,
        -1.0
      ],
      "type": "VEC3"
    },
    {
      "bufferView": 3,
      "byteOffset": 139168,
      "componentType": 5126,
      "count": 943,
      "max": [
        0.9982210397720337,
        1.0,
        1.0,
        1.0
      ],
      "min": [
        -0.9996605515480042,
        -1.0,
        -1.0,
        1.0
      ],
      "type": "VEC4"
    },
    {
      "bufferView": 1,
      "byteOffset": 138224,
      "componentType": 5126,
      "count": 943,
      "max": [
        0.9863412380218506,
        0.9897139668464661
      ],
      "min": [
        0.0056924968957901,
        0.44729116559028625
      ],
      "type": "VEC2"
    },
    {
      "bufferView": 1,
      "byteOffset": 145768,
      "componentType": 5126,
      "count": 943,
      "max": [
        0.9863412380218506,
        0.9897139668464661
      ],
      "min": [
        0.0056924968957901,
        0.44729116559028625
      ],
      "type": "VEC2"
    },
    {
      "bufferView": 0,
      "byteOffset": 83280,
      "componentType": 5125,
      "count": 2478,
      "type": "SCALAR"
    },
    {
      "bufferView": 2,
      "byteOffset": 231384,
      "componentType": 5126,
      "count": 576,
      "max": [
        75.98178100585938,
        74.82743835449219,
        165.904541015625
      ],
      "min": [
        -75.98179626464844,
        -74.8275146484375,
        -77.61895751953125
      ],
      "type": "VEC3"
    },
    {
      "bufferView": 2,
      "byteOffset": 238296,
      "componentType": 5126,
      "count": 576,
      "max": [
        1.0,
        0.9848079085350037,
        1.0
      ],
      "min": [
        -0.981261134147644,
        -0.9848076701164246,
        -1.0
      ],
      "type": "VEC3"
    },
    {
      "bufferView": 3,
      "byteOffset": 154256,
      "componentType": 5126,
      "count": 576,
      "max": [
        0.9989925622940063,
        1.0,
        0.040025658905506134,
        1.0
      ],
      "min": [
        -0.9989926218986511,
        -0.999941349029541,
        -0.04002603515982628,
        1.0
      ],
      "type": "VEC4"
    },
    {
      "bufferView": 1,
      "byteOffset": 153312,
      "componentType": 5126,
      "count": 576,
      "max": [
        0.9855868220329285,
        0.9939853549003601
      ],
      "min": [
        0.012175746262073517,
        0.9649250507354736
      ],
      "type": "VEC2"
    },
    {
      "bufferView": 1,
      "byteOffset": 157920,
      "componentType": 5126,
      "count": 576,
      "max": [
        0.9855868220329285,
        0.9939853549003601
      ],
      "min": [
        0.012175746262073517,
        0.9649250507354736
      ],
      "type": "VEC2"
    },
    {
      "bufferView": 0,
      "byteOffset": 93192,
      "componentType": 5125,
      "count": 1620,
      "type": "SCALAR"
    },
    {
      "bufferView": 2,
      "byteOffset": 245208,
      "componentType": 5126,
      "count": 308,
      "max": [
        18.732894897460938,
        18.386674880981445,
        52.161956787109375
      ],
      "min": [
        -18.732892990112305,
        -18.38667106628418,
        1.1842936277389526
      ],
      "type": "VEC3"
    },
    {
      "bufferView": 2,
      "byteOffset": 248904,
      "componentType": 5126,
      "count": 308,
      "max": [
        1.0,
        0.9849011898040771,
        1.0
      ],
      "min": [
        -1.0,
        -0.9849013090133667,
        -1.0
      ],
      "type": "VEC3"
    },
    {
      "bufferView": 3,
      "byteOffset": 163472,
      "componentType": 5126,
      "count": 308,
      "max": [
        1.0,
        1.0,
        0.021352507174015045,
        1.0
      ],
      "min": [
        -1.0,
        -1.0,
        -0.02138187177479267,
        -1.0
      ],
      "type": "VEC4"
    },
    {
      "bufferView": 1,
      "byteOffset": 162528,
      "componentType": 5126,
      "count": 308,
      "max": [
        1.0899779796600342,
        0.6957286596298218
      ],
      "min": [
        0.39099663496017456,
        0.4833647906780243
      ],
      "type": "VEC2"
    },
    {
      "bufferView": 1,
      "byteOffset": 164992,
      "componentType": 5126,
      "count": 308,
      "max": [
        1.0899779796600342,
        0.6957286596298218
      ],
      "min": [
        0.39099663496017456,
        0.4833647906780243
      ],
      "type": "VEC2"
    },
    {
      "bufferView": 0,
      "byteOffset": 99672,
      "componentType": 5125,
      "count": 852,
      "type": "SCALAR"
    },
    {
      "bufferView": 2,
      "byteOffset": 252600,
      "componentType": 5126,
      "count": 228,
      "max": [
        19.607994079589844,
        19.245664596557617,
        42.40222930908203
      ],
      "min": [
        -19.607990264892578,
        -19.24565887451172,
        10.944014549255371
      ],
      "type": "VEC3"
    },
    {
      "bufferView": 2,
      "byteOffset": 255336,
      "componentType": 5126,
      "count": 228,
      "max": [
        0.9943351149559021,
        0.9767346382141113,
        0.9999998807907104
      ],
      "min": [
        -0.9943351745605469,
        -0.9767348170280457,
        -0.9999998807907104
      ],
      "type": "VEC3"
    },
    {
      "bufferView": 3,
      "byteOffset": 168400,
      "componentType": 5126,
      "count": 228,
      "max": [
        1.0,
        0.9998229146003723,
        0.018816271796822548,
        1.0
      ],
      "min": [
        -0.9999999403953552,
        -0.9999816417694092,
        -0.018923524767160416,
        1.0
      ],
      "type": "VEC4"
    },
    {
      "bufferView": 1,
      "byteOffset": 167456,
      "componentType": 5126,
      "count": 228,
      "max": [
        1.128303050994873,
        0.9861339926719666
      ],
      "min": [
        -0.14288285374641418,
        0.9731329679489136
      ],
      "type": "VEC2"
    },
    {
      "bufferView": 1,
      "byteOffset": 169280,
      "componentType": 5126,
      "count": 228,
      "max": [
        1.128303050994873,
        0.9861339926719666
      ],
      "min": [
        -0.14288285374641418,
        0.9731329679489136
      ],
      "type": "VEC2"
    },
    {
      "bufferView": 0,
      "byteOffset": 103080,
      "componentType": 5125,
      "count": 648,
      "type": "SCALAR"
    },
    {
      "bufferView": 2,
      "byteOffset": 258072,
      "componentType": 5126,
      "count": 1256,
      "max": [
        -22.353839874267578,
        510.0223083496094,
        703.4290771484375
      ],
      "min": [
        -199.42108154296875,
        -132.17311096191406,
        188.25697326660156
      ],
      "type": "VEC3"
    },
    {
      "bufferView": 2,
      "byteOffset": 273144,
      "componentType": 5126,
      "count": 1256,
      "max": [
        1.0,
        1.0,
        1.0
      ],
      "min": [
        -1.0,
        -1.0,
        -1.0
      ],
      "type": "VEC3"
    },
    {
      "bufferView": 3,
      "byteOffset": 172048,
      "componentType": 5126,
      "count": 1256,
      "max": [
        1.0,
        1.0,
        1.0,
        1.0
      ],
      "min": [
        -1.0,
        -1.0,
        -1.0,
        1.0
      ],
      "type": "VEC4"
    },
    {
      "bufferView": 1,
      "byteOffset": 171104,
      "componentType": 5126,
      "count": 1256,
      "max": [
        1.1870768070220947,
        0.9053534269332886
      ],
      "min": [
        -0.3700284957885742,
        0.43902647495269775
      ],
      "type": "VEC2"
    },
    {
      "bufferView": 1,
      "byteOffset": 181152,
      "componentType": 5126,
      "count": 1256,
      "max": [
        1.1870768070220947,
        0.9053534269332886
      ],
      "min": [
        -0.3700284957885742,
        0.43902647495269775
      ],
      "type": "VEC2"
    },
    {
      "bufferView": 1,
      "byteOffset": 191200,
      "componentType": 5126,
      "count": 1256,
      "max": [
        1.1870768070220947,
        0.9053534269332886
      ],
      "min": [
        -0.3700284957885742,
        0.43902647495269775
      ],
      "type": "VEC2"
    },
    {
      "bufferView": 1,
      "byteOffset": 201248,
      "componentType": 5126,
      "count": 1256,
      "max": [
        1.1870768070220947,
        0.9053534269332886
      ],
      "min": [
        -0.3700284957885742,
        0.43902647495269775
      ],
      "type": "VEC2"
    },
    {
      "bufferView": 1,
      "byteOffset": 211296,
      "componentType": 5126,
      "count": 1256,
      "max": [
        1.1870768070220947,
        0.9053534269332886
      ],
      "min": [
        -0.3700284957885742,
        0.43902647495269775
      ],
      "type": "VEC2"
    },
    {
      "bufferView": 1,
      "byteOffset": 221344,
      "componentType": 5126,
      "count": 1256,
      "max": [
        1.1870768070220947,
        0.9053534269332886
      ],
      "min": [
        -0.3700284957885742,
        0.43902647495269775
      ],
      "type": "VEC2"
    },
    {
      "bufferView": 0,
      "byteOffset": 105672,
      "componentType": 5125,
      "count": 1884,
      "type": "SCALAR"
    },
    {
      "bufferView": 2,
      "byteOffset": 288216,
      "componentType": 5126,
      "count": 216,
      "max": [
        122.49171447753906,
        502.04254150390625,
        703.4290771484375
      ],
      "min": [
        -49.36405563354492,
        398.85601806640625,
        608.5061645507813
      ],
      "type": "VEC3"
    },
    {
      "bufferView": 2,
      "byteOffset": 290808,
      "componentType": 5126,
      "count": 216,
      "max": [
        1.0,
        1.0,
        1.0
      ],
      "min": [
        -1.0,
        -1.0,
        -1.0
      ],
      "type": "VEC3"
    },
    {
      "bufferView": 3,
      "byteOffset": 192144,
      "componentType": 5126,
      "count": 216,
      "max": [
        1.0,
        1.0,
        1.0,
        1.0
      ],
      "min": [
        -1.0,
        -1.0,
        -1.0,
        1.0
      ],
      "type": "VEC4"
    },
    {
      "bufferView": 1,
      "byteOffset": 231392,
      "componentType": 5126,
      "count": 216,
      "max": [
        0.987892746925354,
        0.90860515832901
      ],
      "min": [
        -0.03985820338129997,
        0.5212773084640503
      ],
      "type": "VEC2"
    },
    {
      "bufferView": 1,
      "byteOffset": 233120,
      "componentType": 5126,
      "count": 216,
      "max": [
        0.987892746925354,
        0.90860515832901
      ],
      "min": [
        -0.03985820338129997,
        0.5212773084640503
      ],
      "type": "VEC2"
    },
    {
      "bufferView": 1,
      "byteOffset": 234848,
      "componentType": 5126,
      "count": 216,
      "max": [
        0.987892746925354,
        0.90860515832901
      ],
      "min": [
        -0.03985820338129997,
        0.5212773084640503
      ],
      "type": "VEC2"
    },
    {
      "bufferView": 1,
      "byteOffset": 236576,
      "componentType": 5126,
      "count": 216,
      "max": [
        0.987892746925354,
        0.90860515832901
      ],
      "min": [
        -0.03985820338129997,
        0.5212773084640503
      ],
      "type": "VEC2"
    },
    {
      "bufferView": 1,
      "byteOffset": 238304,
      "componentType": 5126,
      "count": 216,
      "max": [
        0.987892746925354,
        0.90860515832901
      ],
      "min": [
        -0.03985820338129997,
        0.5212773084640503
      ],
      "type": "VEC2"
    },
    {
      "bufferView": 1,
      "byteOffset": 240032,
      "componentType": 5126,
      "count": 216,
      "max": [
        0.987892746925354,
        0.90860515832901
      ],
      "min": [
        -0.03985820338129997,
        0.5212773084640503
      ],
      "type": "VEC2"
    },
    {
      "bufferView": 0,
      "byteOffset": 113208,
      "componentType": 5125,
      "count": 324,
      "type": "SCALAR"
    },
    {
      "bufferView": 2,
      "byteOffset": 293400,
      "componentType": 5126,
      "count": 2327,
      "max": [
        56.073760986328125,
        223.76446533203125,
        1282.846435546875
      ],
      "min": [
        -170.94915771484375,
        -576.8419189453125,
        -6.319120407104492
      ],
      "type": "VEC3"
    },
    {
      "bufferView": 2,
      "byteOffset": 321324,
      "componentType": 5126,
      "count": 2327,
      "max": [
        1.0,
        1.0,
        1.0
      ],
      "min": [
        -1.0,
        -1.0,
        -1.0
      ],
      "type": "VEC3"
    },
    {
      "bufferView": 3,
      "byteOffset": 195600,
      "componentType": 5126,
      "count": 2327,
      "max": [
        1.0,
        1.0,
        1.0,
        1.0
      ],
      "min": [
        -1.0,
        -1.0,
        -1.0,
        -1.0
      ],
      "type": "VEC4"
    },
    {
      "bufferView": 1,
      "byteOffset": 241760,
      "componentType": 5126,
      "count": 2327,
      "max": [
        2.091836452484131,
        0.9548263549804688
      ],
      "min": [
        -0.8731080293655396,
        -0.1719852238893509
      ],
      "type": "VEC2"
    },
    {
      "bufferView": 1,
      "byteOffset": 260376,
      "componentType": 5126,
      "count": 2327,
      "max": [
        2.091836452484131,
        0.9548263549804688
      ],
      "min": [
        -0.8731080293655396,
        -0.1719852238893509
      ],
      "type": "VEC2"
    },
    {
      "bufferView": 0,
      "byteOffset": 114504,
      "componentType": 5125,
      "count": 6258,
      "type": "SCALAR"
    },
    {
      "bufferView": 2,
      "byteOffset": 349248,
      "componentType": 5126,
      "count": 298,
      "max": [
        61.98150634765625,
        202.59361267089844,
        1255.1123046875
      ],
      "min": [
        -170.94915771484375,
        -454.0202331542969,
        561.6500854492188
      ],
      "type": "VEC3"
    },
    {
      "bufferView": 2,
      "byteOffset": 352824,
      "componentType": 5126,
      "count": 298,
      "max": [
        1.0,
        0.9875611066818237,
        1.0
      ],
      "min": [
        -1.0,
        -1.0,
        -1.0
      ],
      "type": "VEC3"
    },
    {
      "bufferView": 3,
      "byteOffset": 232832,
      "componentType": 5126,
      "count": 298,
      "max": [
        0.32082974910736084,
        0.9998615980148315,
        0.9875611662864685,
        1.0
      ],
      "min": [
        -1.0,
        -1.0,
        -1.0,
        1.0
      ],
      "type": "VEC4"
    },
    {
      "bufferView": 1,
      "byteOffset": 278992,
      "componentType": 5126,
      "count": 298,
      "max": [
        0.9938561916351318,
        0.9950277805328369
      ],
      "min": [
        -0.4355248510837555,
        0.6291871070861816
      ],
      "type": "VEC2"
    },
    {
      "bufferView": 1,
      "byteOffset": 281376,
      "componentType": 5126,
      "count": 298,
      "max": [
        0.9938561916351318,
        0.9950277805328369
      ],
      "min": [
        -0.4355248510837555,
        0.6291871070861816
      ],
      "type": "VEC2"
    },
    {
      "bufferView": 0,
      "byteOffset": 139536,
      "componentType": 5125,
      "count": 540,
      "type": "SCALAR"
    },
    {
      "bufferView": 2,
      "byteOffset": 356400,
      "componentType": 5126,
      "count": 721,
      "max": [
        223.08172607421875,
        219.692626953125,
        815.2922973632813
      ],
      "min": [
        -223.08172607421875,
        -249.56497192382813,
        3.19140625
      ],
      "type": "VEC3"
    },
    {
      "bufferView": 2,
      "byteOffset": 365052,
      "componentType": 5126,
      "count": 721,
      "max": [
        1.0,
        1.0,
        1.0
      ],
      "min": [
        -1.0,
        -1.0,
        -1.0
      ],
      "type": "VEC3"
    },
    {
      "bufferView": 3,
      "byteOffset": 237600,
      "componentType": 5126,
      "count": 721,
      "max": [
        0.999457836151123,
        1.0,
        1.0,
        1.0
      ],
      "min": [
        -0.9981671571731567,
        -1.0,
        -0.9997990727424622,
        1.0
      ],
      "type": "VEC4"
    },
    {
      "bufferView": 1,
      "byteOffset": 283760,
      "componentType": 5126,
      "count": 721,
      "max": [
        1.2247107028961182,
        0.9151470065116882
      ],
      "min": [
        -0.06688462197780609,
        0.43597838282585144
      ],
      "type": "VEC2"
    },
    {
      "bufferView": 1,
      "byteOffset": 289528,
      "componentType": 5126,
      "count": 721,
      "max": [
        1.2247107028961182,
        0.9151470065116882
      ],
      "min": [
        -0.06688462197780609,
        0.43597838282585144
      ],
      "type": "VEC2"
    },
    {
      "bufferView": 0,
      "byteOffset": 141696,
      "componentType": 5125,
      "count": 1683,
      "type": "SCALAR"
    },
    {
      "bufferView": 2,
      "byteOffset": 373704,
      "componentType": 5126,
      "count": 1165,
      "max": [
        230.63613891601563,
        227.1322784423828,
        768.8012084960938
      ],
      "min": [
        -230.63613891601563,
        -249.56497192382813,
        -8.187255859375
      ],
      "type": "VEC3"
    },
    {
      "bufferView": 2,
      "byteOffset": 387684,
      "componentType": 5126,
      "count": 1165,
      "max": [
        0.999788224697113,
        0.9961947202682495,
        1.0
      ],
      "min": [
        -0.9999068975448608,
        -0.9961947202682495,
        -1.0
      ],
      "type": "VEC3"
    },
    {
      "bufferView": 3,
      "byteOffset": 249136,
      "componentType": 5126,
      "count": 1165,
      "max": [
        1.0,
        1.0,
        1.0,
        1.0
      ],
      "min": [
        -0.999995231628418,
        -1.0,
        -1.0,
        1.0
      ],
      "type": "VEC4"
    },
    {
      "bufferView": 1,
      "byteOffset": 295296,
      "componentType": 5126,
      "count": 1165,
      "max": [
        6.9113359451293945,
        4.062012672424316
      ],
      "min": [
        -0.5990734696388245,
        0.0033643804490566254
      ],
      "type": "VEC2"
    },
    {
      "bufferView": 1,
      "byteOffset": 304616,
      "componentType": 5126,
      "count": 1165,
      "max": [
        6.9113359451293945,
        4.062012672424316
      ],
      "min": [
        -0.5990734696388245,
        0.0033643804490566254
      ],
      "type": "VEC2"
    },
    {
      "bufferView": 0,
      "byteOffset": 148428,
      "componentType": 5125,
      "count": 2808,
      "type": "SCALAR"
    },
    {
      "bufferView": 2,
      "byteOffset": 401664,
      "componentType": 5126,
      "count": 713,
      "max": [
        220.95748901367188,
        217.60067749023438,
        776.4566650390625
      ],
      "min": [
        -220.95748901367188,
        -217.60067749023438,
        378.5418395996094
      ],
      "type": "VEC3"
    },
    {
      "bufferView": 2,
      "byteOffset": 410220,
      "componentType": 5126,
      "count": 713,
      "max": [
        1.0,
        0.9979388117790222,
        1.0
      ],
      "min": [
        -1.0,
        -0.9979389905929565,
        -1.0
      ],
      "type": "VEC3"
    },
    {
      "bufferView": 3,
      "byteOffset": 267776,
      "componentType": 5126,
      "count": 713,
      "max": [
        1.0,
        1.0,
        0.9999997615814209,
        1.0
      ],
      "min": [
        -1.0,
        -1.0,
        -1.0,
        -1.0
      ],
      "type": "VEC4"
    },
    {
      "bufferView": 1,
      "byteOffset": 313936,
      "componentType": 5126,
      "count": 713,
      "max": [
        1.4354981184005737,
        0.8121618032455444
      ],
      "min": [
        -1.1418378353118896,
        0.709276020526886
      ],
      "type": "VEC2"
    },
    {
      "bufferView": 1,
      "byteOffset": 319640,
      "componentType": 5126,
      "count": 713,
      "max": [
        1.4354981184005737,
        0.8121618032455444
      ],
      "min": [
        -1.1418378353118896,
        0.709276020526886
      ],
      "type": "VEC2"
    },
    {
      "bufferView": 0,
      "byteOffset": 159660,
      "componentType": 5125,
      "count": 1572,
      "type": "SCALAR"
    },
    {
      "bufferView": 2,
      "byteOffset": 418776,
      "componentType": 5126,
      "count": 943,
      "max": [
        113.58757019042969,
        87.2730712890625,
        180.92015075683594
      ],
      "min": [
        -72.75882720947266,
        -87.27312469482422,
        -85.62464904785156
      ],
      "type": "VEC3"
    },
    {
      "bufferView": 2,
      "byteOffset": 430092,
      "componentType": 5126,
      "count": 943,
      "max": [
        1.0,
        0.9999895095825195,
        1.0
      ],
      "min": [
        -1.0,
        -0.9999895095825195,
        -1.0
      ],
      "type": "VEC3"
    },
    {
      "bufferView": 3,
      "byteOffset": 279184,
      "componentType": 5126,
      "count": 943,
      "max": [
        0.9982210397720337,
        1.0,
        1.0,
        1.0
      ],
      "min": [
        -0.9996605515480042,
        -1.0,
        -1.0,
        1.0
      ],
      "type": "VEC4"
    },
    {
      "bufferView": 1,
      "byteOffset": 325344,
      "componentType": 5126,
      "count": 943,
      "max": [
        0.9863412380218506,
        0.9897139668464661
      ],
      "min": [
        0.0056924968957901,
        0.44729116559028625
      ],
      "type": "VEC2"
    },
    {
      "bufferView": 1,
      "byteOffset": 332888,
      "componentType": 5126,
      "count": 943,
      "max": [
        0.9863412380218506,
        0.9897139668464661
      ],
      "min": [
        0.0056924968957901,
        0.44729116559028625
      ],
      "type": "VEC2"
    },
    {
      "bufferView": 0,
      "byteOffset": 165948,
      "componentType": 5125,
      "count": 2478,
      "type": "SCALAR"
    },
    {
      "bufferView": 2,
      "byteOffset": 441408,
      "componentType": 5126,
      "count": 576,
      "max": [
        75.98178100585938,
        74.82743835449219,
        165.904541015625
      ],
      "min": [
        -75.98179626464844,
        -74.8275146484375,
        -77.61895751953125
      ],
      "type": "VEC3"
    },
    {
      "bufferView": 2,
      "byteOffset": 448320,
      "componentType": 5126,
      "count": 576,
      "max": [
        1.0,
        0.9848079085350037,
        1.0
      ],
      "min": [
        -0.981261134147644,
        -0.9848076701164246,
        -1.0
      ],
      "type": "VEC3"
    },
    {
      "bufferView": 3,
      "byteOffset": 294272,
      "componentType": 5126,
      "count": 576,
      "max": [
        0.9989925622940063,
        1.0,
        0.040025658905506134,
        1.0
      ],
      "min": [
        -0.9989926218986511,
        -0.999941349029541,
        -0.04002603515982628,
        1.0
      ],
      "type": "VEC4"
    },
    {
      "bufferView": 1,
      "byteOffset": 340432,
      "componentType": 5126,
      "count": 576,
      "max": [
        0.9855868220329285,
        0.9939853549003601
      ],
      "min": [
        0.012175746262073517,
        0.9649250507354736
      ],
      "type": "VEC2"
    },
    {
      "bufferView": 1,
      "byteOffset": 345040,
      "componentType": 5126,
      "count": 576,
      "max": [
        0.9855868220329285,
        0.9939853549003601
      ],
      "min": [
        0.012175746262073517,
        0.9649250507354736
      ],
      "type": "VEC2"
    },
    {
      "bufferView": 0,
      "byteOffset": 175860,
      "componentType": 5125,
      "count": 1620,
      "type": "SCALAR"
    },
    {
      "bufferView": 2,
      "byteOffset": 455232,
      "componentType": 5126,
      "count": 308,
      "max": [
        18.732894897460938,
        18.386674880981445,
        52.161956787109375
      ],
      "min": [
        -18.732892990112305,
        -18.38667106628418,
        1.1842936277389526
      ],
      "type": "VEC3"
    },
    {
      "bufferView": 2,
      "byteOffset": 458928,
      "componentType": 5126,
      "count": 308,
      "max": [
        1.0,
        0.9849011898040771,
        1.0
      ],
      "min": [
        -1.0,
        -0.9849013090133667,
        -1.0
      ],
      "type": "VEC3"
    },
    {
      "bufferView": 3,
      "byteOffset": 303488,
      "componentType": 5126,
      "count": 308,
      "max": [
        1.0,
        1.0,
        0.021352507174015045,
        1.0
      ],
      "min": [
        -1.0,
        -1.0,
        -0.02138187177479267,
        -1.0
      ],
      "type": "VEC4"
    },
    {
      "bufferView": 1,
      "byteOffset": 349648,
      "componentType": 5126,
      "count": 308,
      "max": [
        1.0899779796600342,
        0.6957286596298218
      ],
      "min": [
        0.39099663496017456,
        0.4833647906780243
      ],
      "type": "VEC2"
    },
    {
      "bufferView": 1,
      "byteOffset": 352112,
      "componentType": 5126,
      "count": 308,
      "max": [
        1.0899779796600342,
        0.6957286596298218
      ],
      "min": [
        0.39099663496017456,
        0.4833647906780243
      ],
      "type": "VEC2"
    },
    {
      "bufferView": 0,
      "byteOffset": 182340,
      "componentType": 5125,
      "count": 852,
      "type": "SCALAR"
    },
    {
      "bufferView": 2,
      "byteOffset": 462624,
      "componentType": 5126,
      "count": 228,
      "max": [
        19.607994079589844,
        19.245664596557617,
        42.40222930908203
      ],
      "min": [
        -19.607990264892578,
        -19.24565887451172,
        10.944014549255371
      ],
      "type": "VEC3"
    },
    {
      "bufferView": 2,
      "byteOffset": 465360,
      "componentType": 5126,
      "count": 228,
      "max": [
        0.9943351149559021,
        0.9767346382141113,
        0.9999998807907104
      ],
      "min": [
        -0.9943351745605469,
        -0.9767348170280457,
        -0.9999998807907104
      ],
      "type": "VEC3"
    },
    {
      "bufferView": 3,
      "byteOffset": 308416,
      "componentType": 5126,
      "count": 228,
      "max": [
        1.0,
        0.9998229146003723,
        0.018816271796822548,
        1.0
      ],
      "min": [
        -0.9999999403953552,
        -0.9999816417694092,
        -0.018923524767160416,
        1.0
      ],
      "type": "VEC4"
    },
    {
      "bufferView": 1,
      "byteOffset": 354576,
      "componentType": 5126,
      "count": 228,
      "max": [
        1.128303050994873,
        0.9861339926719666
      ],
      "min": [
        -0.14288285374641418,
        0.9731329679489136
      ],
      "type": "VEC2"
    },
    {
      "bufferView": 1,
      "byteOffset": 356400,
      "componentType": 5126,
      "count": 228,
      "max": [
        1.128303050994873,
        0.9861339926719666
      ],
      "min": [
        -0.14288285374641418,
        0.9731329679489136
      ],
      "type": "VEC2"
    },
    {
      "bufferView": 0,
      "byteOffset": 185748,
      "componentType": 5125,
      "count": 648,
      "type": "SCALAR"
    },
    {
      "bufferView": 2,
      "byteOffset": 468096,
      "componentType": 5126,
      "count": 216,
      "max": [
        122.49171447753906,
        502.04254150390625,
        703.4290771484375
      ],
      "min": [
        -49.36405563354492,
        398.85601806640625,
        608.5061645507813
      ],
      "type": "VEC3"
    },
    {
      "bufferView": 2,
      "byteOffset": 470688,
      "componentType": 5126,
      "count": 216,
      "max": [
        1.0,
        1.0,
        1.0
      ],
      "min": [
        -1.0,
        -1.0,
        -1.0
      ],
      "type": "VEC3"
    },
    {
      "bufferView": 3,
      "byteOffset": 312064,
      "componentType": 5126,
      "count": 216,
      "max": [
        1.0,
        1.0,
        1.0,
        1.0
      ],
      "min": [
        -1.0,
        -1.0,
        -1.0,
        1.0
      ],
      "type": "VEC4"
    },
    {
      "bufferView": 1,
      "byteOffset": 358224,
      "componentType": 5126,
      "count": 216,
      "max": [
        0.987892746925354,
        0.90860515832901
      ],
      "min": [
        -0.03985820338129997,
        0.5212773084640503
      ],
      "type": "VEC2"
    },
    {
      "bufferView": 1,
      "byteOffset": 359952,
      "componentType": 5126,
      "count": 216,
      "max": [
        0.987892746925354,
        0.90860515832901
      ],
      "min": [
        -0.03985820338129997,
        0.5212773084640503
      ],
      "type": "VEC2"
    },
    {
      "bufferView": 1,
      "byteOffset": 361680,
      "componentType": 5126,
      "count": 216,
      "max": [
        0.987892746925354,
        0.90860515832901
      ],
      "min": [
        -0.03985820338129997,
        0.5212773084640503
      ],
      "type": "VEC2"
    },
    {
      "bufferView": 1,
      "byteOffset": 363408,
      "componentType": 5126,
      "count": 216,
      "max": [
        0.987892746925354,
        0.90860515832901
      ],
      "min": [
        -0.03985820338129997,
        0.5212773084640503
      ],
      "type": "VEC2"
    },
    {
      "bufferView": 1,
      "byteOffset": 365136,
      "componentType": 5126,
      "count": 216,
      "max": [
        0.987892746925354,
        0.90860515832901
      ],
      "min": [
        -0.03985820338129997,
        0.5212773084640503
      ],
      "type": "VEC2"
    },
    {
      "bufferView": 1,
      "byteOffset": 366864,
      "componentType": 5126,
      "count": 216,
      "max": [
        0.987892746925354,
        0.90860515832901
      ],
      "min": [
        -0.03985820338129997,
        0.5212773084640503
      ],
      "type": "VEC2"
    },
    {
      "bufferView": 0,
      "byteOffset": 188340,
      "componentType": 5125,
      "count": 324,
      "type": "SCALAR"
    },
    {
      "bufferView": 2,
      "byteOffset": 473280,
      "componentType": 5126,
      "count": 216,
      "max": [
        122.49171447753906,
        502.04254150390625,
        703.4290771484375
      ],
      "min": [
        -49.36405563354492,
        398.85601806640625,
        608.5061645507813
      ],
      "type": "VEC3"
    },
    {
      "bufferView": 2,
      "byteOffset": 475872,
      "componentType": 5126,
      "count": 216,
      "max": [
        1.0,
        1.0,
        1.0
      ],
      "min": [
        -1.0,
        -1.0,
        -1.0
      ],
      "type": "VEC3"
    },
    {
      "bufferView": 3,
      "byteOffset": 315520,
      "componentType": 5126,
      "count": 216,
      "max": [
        1.0,
        1.0,
        1.0,
        1.0
      ],
      "min": [
        -1.0,
        -1.0,
        -1.0,
        1.0
      ],
      "type": "VEC4"
    },
    {
      "bufferView": 1,
      "byteOffset": 368592,
      "componentType": 5126,
      "count": 216,
      "max": [
        0.987892746925354,
        0.90860515832901
      ],
      "min": [
        -0.03985820338129997,
        0.5212773084640503
      ],
      "type": "VEC2"
    },
    {
      "bufferView": 1,
      "byteOffset": 370320,
      "componentType": 5126,
      "count": 216,
      "max": [
        0.987892746925354,
        0.90860515832901
      ],
      "min": [
        -0.03985820338129997,
        0.5212773084640503
      ],
      "type": "VEC2"
    },
    {
      "bufferView": 1,
      "byteOffset": 372048,
      "componentType": 5126,
      "count": 216,
      "max": [
        0.987892746925354,
        0.90860515832901
      ],
      "min": [
        -0.03985820338129997,
        0.5212773084640503
      ],
      "type": "VEC2"
    },
    {
      "bufferView": 1,
      "byteOffset": 373776,
      "componentType": 5126,
      "count": 216,
      "max": [
        0.987892746925354,
        0.90860515832901
      ],
      "min": [
        -0.03985820338129997,
        0.5212773084640503
      ],
      "type": "VEC2"
    },
    {
      "bufferView": 1,
      "byteOffset": 375504,
      "componentType": 5126,
      "count": 216,
      "max": [
        0.987892746925354,
        0.90860515832901
      ],
      "min": [
        -0.03985820338129997,
        0.5212773084640503
      ],
      "type": "VEC2"
    },
    {
      "bufferView": 1,
      "byteOffset": 377232,
      "componentType": 5126,
      "count": 216,
      "max": [
        0.987892746925354,
        0.90860515832901
      ],
      "min": [
        -0.03985820338129997,
        0.5212773084640503
      ],
      "type": "VEC2"
    },
    {
      "bufferView": 0,
      "byteOffset": 189636,
      "componentType": 5125,
      "count": 324,
      "type": "SCALAR"
    },
    {
      "bufferView": 2,
      "byteOffset": 478464,
      "componentType": 5126,
      "count": 1256,
      "max": [
        -22.353839874267578,
        510.0223083496094,
        703.4290771484375
      ],
      "min": [
        -199.42108154296875,
        -132.17311096191406,
        188.25697326660156
      ],
      "type": "VEC3"
    },
    {
      "bufferView": 2,
      "byteOffset": 493536,
      "componentType": 5126,
      "count": 1256,
      "max": [
        1.0,
        1.0,
        1.0
      ],
      "min": [
        -1.0,
        -1.0,
        -1.0
      ],
      "type": "VEC3"
    },
    {
      "bufferView": 3,
      "byteOffset": 318976,
      "componentType": 5126,
      "count": 1256,
      "max": [
        1.0,
        1.0,
        1.0,
        1.0
      ],
      "min": [
        -1.0,
        -1.0,
        -1.0,
        1.0
      ],
      "type": "VEC4"
    },
    {
      "bufferView": 1,
      "byteOffset": 378960,
      "componentType": 5126,
      "count": 1256,
      "max": [
        1.1870768070220947,
        0.9053534269332886
      ],
      "min": [
        -0.3700284957885742,
        0.43902647495269775
      ],
      "type": "VEC2"
    },
    {
      "bufferView": 1,
      "byteOffset": 389008,
      "componentType": 5126,
      "count": 1256,
      "max": [
        1.1870768070220947,
        0.9053534269332886
      ],
      "min": [
        -0.3700284957885742,
        0.43902647495269775
      ],
      "type": "VEC2"
    },
    {
      "bufferView": 1,
      "byteOffset": 399056,
      "componentType": 5126,
      "count": 1256,
      "max": [
        1.1870768070220947,
        0.9053534269332886
      ],
      "min": [
        -0.3700284957885742,
        0.43902647495269775
      ],
      "type": "VEC2"
    },
    {
      "bufferView": 1,
      "byteOffset": 409104,
      "componentType": 5126,
      "count": 1256,
      "max": [
        1.1870768070220947,
        0.9053534269332886
      ],
      "min": [
        -0.3700284957885742,
        0.43902647495269775
      ],
      "type": "VEC2"
    },
    {
      "bufferView": 1,
      "byteOffset": 419152,
      "componentType": 5126,
      "count": 1256,
      "max": [
        1.1870768070220947,
        0.9053534269332886
      ],
      "min": [
        -0.3700284957885742,
        0.43902647495269775
      ],
      "type": "VEC2"
    },
    {
      "bufferView": 1,
      "byteOffset": 429200,
      "componentType": 5126,
      "count": 1256,
      "max": [
        1.1870768070220947,
        0.9053534269332886
      ],
      "min": [
        -0.3700284957885742,
        0.43902647495269775
      ],
      "type": "VEC2"
    },
    {
      "bufferView": 0,
      "byteOffset": 190932,
      "componentType": 5125,
      "count": 1884,
      "type": "SCALAR"
    }
  ],
  "asset": {
    "extras": {
      "author": "amanmelle (https://sketchfab.com/amanmelle)",
      "license": "CC-BY-4.0 (http://creativecommons.org/licenses/by/4.0/)",
      "source": "https://sketchfab.com/3d-models/winery-vineyard-wine-press-064044e22c11442ab804349e7da6a0be",
      "title": "Winery / Vineyard Wine Press"
    },
    "generator": "Sketchfab-13.31.0",
    "version": "2.0"
  },
  "bufferViews": [
    {
      "buffer": 0,
      "byteLength": 198468,
      "name": "floatBufferViews",
      "target": 34963
    },
    {
      "buffer": 0,
      "byteLength": 439248,
      "byteOffset": 198468,
      "byteStride": 8,
      "name": "floatBufferViews",
      "target": 34962
    },
    {
      "buffer": 0,
      "byteLength": 508608,
      "byteOffset": 637716,
      "byteStride": 12,
      "name": "floatBufferViews",
      "target": 34962
    },
    {
      "buffer": 0,
      "byteLength": 339072,
      "byteOffset": 1146324,
      "byteStride": 16,
      "name": "floatBufferViews",
      "target": 34962
    }
  ],
  "buffers": [
    {
      "byteLength": 1485396,
      "uri": "scene.bin"
    }
  ],
  "images": [
    {
      "uri": "textures/03_-_Default_baseColor.png"
    },
    {
      "uri": "textures/03_-_Default_metallicRoughness.png"
    },
    {
      "uri": "textures/03_-_Default_normal.png"
    }
  ],
  "materials": [
    {
      "doubleSided": true,
      "name": "03_-_Default",
      "normalTexture": {
        "index": 2
      },
      "pbrMetallicRoughness": {
        "baseColorTexture": {
          "index": 0
        },
        "metallicRoughnessTexture": {
          "index": 1
        }
      }
    },
    {
      "doubleSided": true,
      "name": "02_-_Default",
      "normalTexture": {
        "index": 2
      },
      "pbrMetallicRoughness": {
        "baseColorTexture": {
          "index": 0
        },
        "metallicRoughnessTexture": {
          "index": 1
        }
      }
    },
    {
      "doubleSided": true,
      "name": "04_-_Default",
      "normalTexture": {
        "index": 2
      },
      "pbrMetallicRoughness": {
        "baseColorTexture": {
          "index": 0
        },
        "metallicRoughnessTexture": {
          "index": 1
        },
        "roughnessFactor": 0.8
      }
    },
    {
      "doubleSided": true,
      "name": "03_-_Default_0",
      "normalTexture": {
        "index": 2
      },
      "pbrMetallicRoughness": {
        "baseColorTexture": {
          "index": 0
        },
        "metallicRoughnessTexture": {
          "index": 1
        }
      }
    },
    {
      "doubleSided": true,
      "name": "02_-_Default_0",
      "normalTexture": {
        "index": 2
      },
      "pbrMetallicRoughness": {
        "baseColorTexture": {
          "index": 0
        },
        "metallicRoughnessTexture": {
          "index": 1
        }
      }
    },
    {
      "doubleSided": true,
      "name": "04_-_Default_0",
      "normalTexture": {
        "index": 2
      },
      "pbrMetallicRoughness": {
        "baseColorTexture": {
          "index": 0
        },
        "metallicRoughnessTexture": {
          "index": 1
        }
      }
    },
    {
      "doubleSided": true,
      "name": "01_-_Default",
      "normalTexture": {
        "index": 2
      },
      "pbrMetallicRoughness": {
        "baseColorTexture": {
          "index": 0
        },
        "metallicRoughnessTexture": {
          "index": 1
        },
        "roughnessFactor": 0.8651367193437958
      }
    },
    {
      "doubleSided": true,
      "name": "03_-_Default_1",
      "normalTexture": {
        "index": 2
      },
      "pbrMetallicRoughness": {
        "baseColorTexture": {
          "index": 0
        },
        "metallicRoughnessTexture": {
          "index": 1
        }
      }
    },
    {
      "doubleSided": true,
      "name": "02_-_Default_1",
      "normalTexture": {
        "index": 2
      },
      "pbrMetallicRoughness": {
        "baseColorTexture": {
          "index": 0
        },
        "metallicRoughnessTexture": {
          "index": 1
        }
      }
    },
    {
      "doubleSided": true,
      "name": "02_-_Default_2",
      "normalTexture": {
        "index": 2
      },
      "pbrMetallicRoughness": {
        "baseColorTexture": {
          "index": 0
        },
        "metallicRoughnessTexture": {
          "index": 1
        }
      }
    },
    {
      "doubleSided": true,
      "name": "01_-_Default_0",
      "normalTexture": {
        "index": 2
      },
      "pbrMetallicRoughness": {
        "baseColorTexture": {
          "index": 0
        },
        "metallicRoughnessTexture": {
          "index": 1
        },
        "roughnessFactor": 0.725285934051234
      }
    },
    {
      "doubleSided": true,
      "name": "03_-_Default_2",
      "normalTexture": {
        "index": 2
      },
      "pbrMetallicRoughness": {
        "baseColorTexture": {
          "index": 0
        },
        "metallicRoughnessTexture": {
          "index": 1
        },
        "roughnessFactor": 0.7739296854573424
      }
    },
    {
      "doubleSided": true,
      "name": "02_-_Default_3",
      "normalTexture": {
        "index": 2
      },
      "pbrMetallicRoughness": {
        "baseColorTexture": {
          "index": 0
        },
        "metallicRoughnessTexture": {
          "index": 1
        }
      }
    },
    {
      "doubleSided": true,
      "name": "Material_0",
      "normalTexture": {
        "index": 2
      },
      "pbrMetallicRoughness": {
        "baseColorTexture": {
          "index": 0
        },
        "metallicRoughnessTexture": {
          "index": 1
        }
      }
    },
    {
      "doubleSided": true,
      "name": "Material_0_0",
      "normalTexture": {
        "index": 2
      },
      "pbrMetallicRoughness": {
        "baseColorTexture": {
          "index": 0
        },
        "metallicRoughnessTexture": {
          "index": 1
        }
      }
    },
    {
      "doubleSided": true,
      "name": "03_-_Default_3",
      "normalTexture": {
        "index": 2
      },
      "pbrMetallicRoughness": {
        "baseColorTexture": {
          "index": 0
        },
        "metallicRoughnessTexture": {
          "index": 1
        }
      }
    },
    {
      "doubleSided": true,
      "name": "02_-_Default_4",
      "normalTexture": {
        "index": 2
      },
      "pbrMetallicRoughness": {
        "baseColorTexture": {
          "index": 0
        },
        "metallicRoughnessTexture": {
          "index": 1
        }
      }
    },
    {
      "doubleSided": true,
      "name": "03_-_Default_4",
      "normalTexture": {
        "index": 2
      },
      "pbrMetallicRoughness": {
        "baseColorTexture": {
          "index": 0
        },
        "metallicRoughnessTexture": {
          "index": 1
        }
      }
    },
    {
      "doubleSided": true,
      "name": "02_-_Default_5",
      "normalTexture": {
        "index": 2
      },
      "pbrMetallicRoughness": {
        "baseColorTexture": {
          "index": 0
        },
        "metallicRoughnessTexture": {
          "index": 1
        }
      }
    },
    {
      "doubleSided": true,
      "name": "04_-_Default_1",
      "normalTexture": {
        "index": 2
      },
      "pbrMetallicRoughness": {
        "baseColorTexture": {
          "index": 0
        },
        "metallicRoughnessTexture": {
          "index": 1
        },
        "roughnessFactor": 0.8
      }
    },
    {
      "doubleSided": true,
      "name": "02_-_Default_6",
      "normalTexture": {
        "index": 2
      },
      "pbrMetallicRoughness": {
        "baseColorTexture": {
          "index": 0
        },
        "metallicRoughnessTexture": {
          "index": 1
        }
      }
    },
    {
      "doubleSided": true,
      "name": "01_-_Default_1",
      "normalTexture": {
        "index": 2
      },
      "pbrMetallicRoughness": {
        "baseColorTexture": {
          "index": 0
        },
        "metallicRoughnessTexture": {
          "index": 1
        }
      }
    },
    {
      "doubleSided": true,
      "name": "03_-_Default_5",
      "normalTexture": {
        "index": 2
      },
      "pbrMetallicRoughness": {
        "baseColorTexture": {
          "index": 0
        },
        "metallicRoughnessTexture": {
          "index": 1
        }
      }
    },
    {
      "doubleSided": true,
      "name": "02_-_Default_7",
      "normalTexture": {
        "index": 2
      },
      "pbrMetallicRoughness": {
        "baseColorTexture": {
          "index": 0
        },
        "metallicRoughnessTexture": {
          "index": 1
        }
      }
    },
    {
      "doubleSided": true,
      "name": "Material_0_1",
      "normalTexture": {
        "index": 2
      },
      "pbrMetallicRoughness": {
        "baseColorTexture": {
          "index": 0
        },
        "metallicRoughnessTexture": {
          "index": 1
        }
      }
    },
    {
      "doubleSided": true,
      "name": "Material_0_2",
      "normalTexture": {
        "index": 2
      },
      "pbrMetallicRoughness": {
        "baseColorTexture": {
          "index": 0
        },
        "metallicRoughnessTexture": {
          "index": 1
        },
        "roughnessFactor": 0.8
      }
    },
    {
      "doubleSided": true,
      "name": "Material_0_3",
      "normalTexture": {
        "index": 2
      },
      "pbrMetallicRoughness": {
        "baseColorTexture": {
          "index": 0
        },
        "metallicRoughnessTexture": {
          "index": 1
        }
      }
    }
  ],
  "meshes": [
    {
      "name": "Cylinder001_03 - Default_0",
      "primitives": [
        {
          "attributes": {
            "NORMAL": 1,
            "POSITION": 0,
            "TANGENT": 2,
            "TEXCOORD_0": 3,
            "TEXCOORD_1": 4
          },
          "indices": 5,
          "material": 0,
          "mode": 4
        }
      ]
    },
    {
      "name": "Cylinder001_02 - Default_0",
      "primitives": [
        {
          "attributes": {
            "NORMAL": 7,
            "POSITION": 6,
            "TANGENT": 8,
            "TEXCOORD_0": 9,
            "TEXCOORD_1": 10
          },
          "indices": 11,
          "material": 1,
          "mode": 4
        }
      ]
    },
    {
      "name": "Cylinder001_04 - Default_0",
      "primitives": [
        {
          "attributes": {
            "NORMAL": 13,
            "POSITION": 12,
            "TANGENT": 14,
            "TEXCOORD_0": 15,
            "TEXCOORD_1": 16
          },
          "indices": 17,
          "material": 2,
          "mode": 4
        }
      ]
    },
    {
      "name": "Box003_03 - Default_0",
      "primitives": [
        {
          "attributes": {
            "NORMAL": 19,
            "POSITION": 18,
            "TANGENT": 20,
            "TEXCOORD_0": 21,
            "TEXCOORD_1": 22
          },
          "indices": 23,
          "material": 3,
          "mode": 4
        }
      ]
    },
    {
      "name": "Box003_02 - Default_0",
      "primitives": [
        {
          "attributes": {
            "NORMAL": 25,
            "POSITION": 24,
            "TANGENT": 26,
            "TEXCOORD_0": 27,
            "TEXCOORD_1": 28
          },
          "indices": 29,
          "material": 4,
          "mode": 4
        }
      ]
    },
    {
      "name": "Box003_04 - Default_0",
      "primitives": [
        {
          "attributes": {
            "NORMAL": 31,
            "POSITION": 30,
            "TANGENT": 32,
            "TEXCOORD_0": 33,
            "TEXCOORD_1": 34
          },
          "indices": 35,
          "material": 5,
          "mode": 4
        }
      ]
    },
    {
      "name": "Box006_01 - Default_0",
      "primitives": [
        {
          "attributes": {
            "NORMAL": 37,
            "POSITION": 36,
            "TANGENT": 38,
            "TEXCOORD_0": 39
          },
          "indices": 40,
          "material": 6,
          "mode": 4
        }
      ]
    },
    {
      "name": "Box007_03 - Default_0",
      "primitives": [
        {
          "attributes": {
            "NORMAL": 42,
            "POSITION": 41,
            "TANGENT": 43,
            "TEXCOORD_0": 44,
            "TEXCOORD_1": 45
          },
          "indices": 46,
          "material": 7,
          "mode": 4
        }
      ]
    },
    {
      "name": "Box007_02 - Default_0",
      "primitives": [
        {
          "attributes": {
            "NORMAL": 48,
            "POSITION": 47,
            "TANGENT": 49,
            "TEXCOORD_0": 50,
            "TEXCOORD_1": 51
          },
          "indices": 52,
          "material": 8,
          "mode": 4
        }
      ]
    },
    {
      "name": "Cylinder016_02 - Default_0",
      "primitives": [
        {
          "attributes": {
            "NORMAL": 54,
            "POSITION": 53,
            "TANGENT": 55,
            "TEXCOORD_0": 56,
            "TEXCOORD_1": 57
          },
          "indices": 58,
          "material": 9,
          "mode": 4
        }
      ]
    },
    {
      "name": "Cylinder016_01 - Default_0",
      "primitives": [
        {
          "attributes": {
            "NORMAL": 60,
            "POSITION": 59,
            "TANGENT": 61,
            "TEXCOORD_0": 62,
            "TEXCOORD_1": 63
          },
          "indices": 64,
          "material": 10,
          "mode": 4
        }
      ]
    },
    {
      "name": "Cylinder020_03 - Default_0",
      "primitives": [
        {
          "attributes": {
            "NORMAL": 66,
            "POSITION": 65,
            "TANGENT": 67,
            "TEXCOORD_0": 68,
            "TEXCOORD_1": 69
          },
          "indices": 70,
          "material": 11,
          "mode": 4
        }
      ]
    },
    {
      "name": "Cylinder020_02 - Default_0",
      "primitives": [
        {
          "attributes": {
            "NORMAL": 72,
            "POSITION": 71,
            "TANGENT": 73,
            "TEXCOORD_0": 74,
            "TEXCOORD_1": 75
          },
          "indices": 76,
          "material": 12,
          "mode": 4
        }
      ]
    },
    {
      "name": "Box018_Material #0_0",
      "primitives": [
        {
          "attributes": {
            "NORMAL": 78,
            "POSITION": 77,
            "TANGENT": 79,
            "TEXCOORD_0": 80,
            "TEXCOORD_1": 81,
            "TEXCOORD_2": 82,
            "TEXCOORD_3": 83,
            "TEXCOORD_4": 84,
            "TEXCOORD_5": 85
          },
          "indices": 86,
          "material": 13,
          "mode": 4
        }
      ]
    },
    {
      "name": "Object001_Material #0_0",
      "primitives": [
        {
          "attributes": {
            "NORMAL": 88,
            "POSITION": 87,
            "TANGENT": 89,
            "TEXCOORD_0": 90,
            "TEXCOORD_1": 91,
            "TEXCOORD_2": 92,
            "TEXCOORD_3": 93,
            "TEXCOORD_4": 94,
            "TEXCOORD_5": 95
          },
          "indices": 96,
          "material": 14,
          "mode": 4
        }
      ]
    },
    {
      "name": "Box019_03 - Default_0",
      "primitives": [
        {
          "attributes": {
            "NORMAL": 98,
            "POSITION": 97,
            "TANGENT": 99,
            "TEXCOORD_0": 100,
            "TEXCOORD_1": 101
          },
          "indices": 102,
          "material": 15,
          "mode": 4
        }
      ]
    },
    {
      "name": "Box019_02 - Default_0",
      "primitives": [
        {
          "attributes": {
            "NORMAL": 104,
            "POSITION": 103,
            "TANGENT": 105,
            "TEXCOORD_0": 106,
            "TEXCOORD_1": 107
          },
          "indices": 108,
          "material": 16,
          "mode": 4
        }
      ]
    },
    {
      "name": "Cylinder021_03 - Default_0",
      "primitives": [
        {
          "attributes": {
            "NORMAL": 110,
            "POSITION": 109,
            "TANGENT": 111,
            "TEXCOORD_0": 112,
            "TEXCOORD_1": 113
          },
          "indices": 114,
          "material": 17,
          "mode": 4
        }
      ]
    },
    {
      "name": "Cylinder021_02 - Default_0",
      "primitives": [
        {
          "attributes": {
            "NORMAL": 116,
            "POSITION": 115,
            "TANGENT": 117,
            "TEXCOORD_0": 118,
            "TEXCOORD_1": 119
          },
          "indices": 120,
          "material": 18,
          "mode": 4
        }
      ]
    },
    {
      "name": "Cylinder021_04 - Default_0",
      "primitives": [
        {
          "attributes": {
            "NORMAL": 122,
            "POSITION": 121,
            "TANGENT": 123,
            "TEXCOORD_0": 124,
            "TEXCOORD_1": 125
          },
          "indices": 126,
          "material": 19,
          "mode": 4
        }
      ]
    },
    {
      "name": "Cylinder022_02 - Default_0",
      "primitives": [
        {
          "attributes": {
            "NORMAL": 128,
            "POSITION": 127,
            "TANGENT": 129,
            "TEXCOORD_0": 130,
            "TEXCOORD_1": 131
          },
          "indices": 132,
          "material": 20,
          "mode": 4
        }
      ]
    },
    {
      "name": "Cylinder022_01 - Default_0",
      "primitives": [
        {
          "attributes": {
            "NORMAL": 134,
            "POSITION": 133,
            "TANGENT": 135,
            "TEXCOORD_0": 136,
            "TEXCOORD_1": 137
          },
          "indices": 138,
          "material": 21,
          "mode": 4
        }
      ]
    },
    {
      "name": "Cylinder023_03 - Default_0",
      "primitives": [
        {
          "attributes": {
            "NORMAL": 140,
            "POSITION": 139,
            "TANGENT": 141,
            "TEXCOORD_0": 142,
            "TEXCOORD_1": 143
          },
          "indices": 144,
          "material": 22,
          "mode": 4
        }
      ]
    },
    {
      "name": "Cylinder023_02 - Default_0",
      "primitives": [
        {
          "attributes": {
            "NORMAL": 146,
            "POSITION": 145,
            "TANGENT": 147,
            "TEXCOORD_0": 148,
            "TEXCOORD_1": 149
          },
          "indices": 150,
          "material": 23,
          "mode": 4
        }
      ]
    },
    {
      "name": "Object002_Material #0_0",
      "primitives": [
        {
          "attributes": {
            "NORMAL": 152,
            "POSITION": 151,
            "TANGENT": 153,
            "TEXCOORD_0": 154,
            "TEXCOORD_1": 155,
            "TEXCOORD_2": 156,
            "TEXCOORD_3": 157,
            "TEXCOORD_4": 158,
            "TEXCOORD_5": 159
          },
          "indices": 160,
          "material": 24,
          "mode": 4
        }
      ]
    },
    {
      "name": "Object003_Material #0_0",
      "primitives": [
        {
          "attributes": {
            "NORMAL": 162,
            "POSITION": 161,
            "TANGENT": 163,
            "TEXCOORD_0": 164,
            "TEXCOORD_1": 165,
            "TEXCOORD_2": 166,
            "TEXCOORD_3": 167,
            "TEXCOORD_4": 168,
            "TEXCOORD_5": 169
          },
          "indices": 170,
          "material": 25,
          "mode": 4
        }
      ]
    },
    {
      "name": "Box020_Material #0_0",
      "primitives": [
        {
          "attributes": {
            "NORMAL": 172,
            "POSITION": 171,
            "TANGENT": 173,
            "TEXCOORD_0": 174,
            "TEXCOORD_1": 175,
            "TEXCOORD_2": 176,
            "TEXCOORD_3": 177,
            "TEXCOORD_4": 178,
            "TEXCOORD_5": 179
          },
          "indices": 180,
          "material": 26,
          "mode": 4
        }
      ]
    }
  ],
  "nodes": [
    {
      "children": [
        1
      ],
      "matrix": [
        1.0,
        0.0,
        0.0,
        0.0,
        0.0,
        -2.220446049250313e-16,
        1.0,
        0.0,
        0.0,
        -1.0,
        -2.220446049250313e-16,
        0.0,
        0.0,
        0.0,
        0.0,
        1.0
      ],
      "name": "Sketchfab_model"
    },
    {
      "children": [
        2
      ],
      "matrix": [
        0.009999999776482582,
        0.0,
        0.0,
        0.0,
        0.0,
        -0.009999999776482582,
        0.0,
        0.0,
        0.0,
        0.0,
        -0.009999999776482582,
        0.0,
        0.0,
        0.0,
        0.0,
        1.0
      ],
      "name": "Winery.FBX"
    },
    {
      "children": [
        3,
        7,
        11,
        14,
        17,
        21,
        24,
        27,
        30,
        33,
        37,
        41,
        44,
        47,
        50
      ],
      "name": "RootNode"
    },
    {
      "children": [
        4,
        5,
        6
      ],
      "matrix": [
        0.7660442124242826,
        -0.6427878846176712,
        0.0,
        0.0,
        0.6427878846176712,
        0.7660442124242826,
        0.0,
        0.0,
        0.0,
        0.0,
        1.0,
        0.0,
        289.6953430175781,
        132.41952514648438,
        85.21405029296875,
        1.0
      ],
      "name": "Cylinder001"
    },
    {
      "mesh": 0,
      "name": "Cylinder001_03 - Default_0"
    },
    {
      "mesh": 1,
      "name": "Cylinder001_02 - Default_0"
    },
    {
      "mesh": 2,
      "name": "Cylinder001_04 - Default_0"
    },
    {
      "children": [
        8,
        9,
        10
      ],
      "matrix": [
        1.0,
        0.0,
        0.0,
        0.0,
        0.0,
        1.0,
        0.0,
        0.0,
        0.0,
        0.0,
        1.2923129796981812,
        0.0,
        -71.47607421875,
        680.9085693359375,
        39.76068878173828,
        1.0
      ],
      "name": "Box003"
    },
    {
      "mesh": 3,
      "name": "Box003_03 - Default_0"
    },
    {
      "mesh": 4,
      "name": "Box003_02 - Default_0"
    },
    {
      "mesh": 5,
      "name": "Box003_04 - Default_0"
    },
    {
      "children": [
        12
      ],
      "matrix": [
        1.0,
        0.0,
        0.0,
        0.0,
        0.0,
        1.0,
        0.0,
        0.0,
        0.0,
        0.0,
        1.0,
        0.0,
        598.189697265625,
        167.84521484375,
        0.0,
        1.0
      ],
      "name": "Box006"
    },
    {
      "children": [
        13
      ],
      "matrix": [
        1.0,
        0.0,
        -0.0,
        0.0,
        0.0,
        1.0,
        0.0,
        0.0,
        0.0,
        0.0,
        1.0,
        0.0,
        12.2315673828125,
        0.0,
        0.0,
        1.0
      ],
      "name": "Object_12"
    },
    {
      "mesh": 6,
      "name": "Box006_01 - Default_0"
    },
    {
      "children": [
        15,
        16
      ],
      "matrix": [
        1.0,
        0.0,
        0.0,
        0.0,
        0.0,
        1.0,
        0.0,
        0.0,
        0.0,
        0.0,
        1.0,
        0.0,
        348.1626281738281,
        545.776123046875,
        0.0,
        1.0
      ],
      "name": "Box007"
    },
    {
      "mesh": 7,
      "name": "Box007_03 - Default_0"
    },
    {
      "mesh": 8,
      "name": "Box007_02 - Default_0"
    },
    {
      "children": [
        18
      ],
      "matrix": [
        1.0,
        0.0,
        0.0,
        0.0,
        0.0,
        1.0,
        0.0,
        0.0,
        0.0,
        0.0,
        1.0,
        0.0,
        288.34765625,
        -242.7996826171875,
        -3.9636688232421875,
        1.0
      ],
      "name": "Cylinder016"
    },
    {
      "children": [
        19,
        20
      ],
      "matrix": [
        6.123233995736766e-17,
        0.0,
        -1.0,
        0.0,
        1.4901157399366725e-08,
        0.9999999999999999,
        9.124327356362678e-25,
        0.0,
        0.9999999999999999,
        -1.4901157399366725e-08,
        6.123233995736765e-17,
        0.0,
        -61.1043701171875,
        -3.14673447608948,
        116.156784057617,
        1.0
      ],
      "name": "Object_18"
    },
    {
      "mesh": 9,
      "name": "Cylinder016_02 - Default_0"
    },
    {
      "mesh": 10,
      "name": "Cylinder016_01 - Default_0"
    },
    {
      "children": [
        22,
        23
      ],
      "matrix": [
        1.0,
        0.0,
        0.0,
        0.0,
        0.0,
        1.0,
        0.0,
        0.0,
        0.0,
        0.0,
        1.0,
        0.0,
        126.30147552490234,
        -248.3502197265625,
        0.0,
        1.0
      ],
      "name": "Cylinder020"
    },
    {
      "mesh": 11,
      "name": "Cylinder020_03 - Default_0"
    },
    {
      "mesh": 12,
      "name": "Cylinder020_02 - Default_0"
    },
    {
      "children": [
        25
      ],
      "matrix": [
        1.0,
        0.0,
        0.0,
        0.0,
        0.0,
        1.0,
        0.0,
        0.0,
        0.0,
        0.0,
        1.0,
        0.0,
        -145.29351806640625,
        -61.860870361328125,
        -27.6114501953125,
        1.0
      ],
      "name": "Box018"
    },
    {
      "children": [
        26
      ],
      "matrix": [
        1.0,
        0.0,
        -0.0,
        0.0,
        0.0,
        1.0,
        0.0,
        0.0,
        0.0,
        0.0,
        1.0,
        0.0,
        115.894409179688,
        -254.703643798828,
        -187.99365234375,
        1.0
      ],
      "name": "Object_25"
    },
    {
      "mesh": 13,
      "name": "Box018_Material #0_0"
    },
    {
      "children": [
        28
      ],
      "matrix": [
        1.0,
        0.0,
        0.0,
        0.0,
        0.0,
        1.0,
        0.0,
        0.0,
        0.0,
        0.0,
        1.0,
        0.0,
        113.45475769042969,
        237.04132080078125,
        347.069091796875,
        1.0
      ],
      "name": "Object001"
    },
    {
      "children": [
        29
      ],
      "matrix": [
        1.0,
        0.0,
        -0.0,
        0.0,
        0.0,
        1.0,
        0.0,
        0.0,
        0.0,
        0.0,
        1.0,
        0.0,
        -142.853881835938,
        -553.605834960938,
        -562.674194335938,
        1.0
      ],
      "name": "Object_28"
    },
    {
      "mesh": 14,
      "name": "Object001_Material #0_0"
    },
    {
      "children": [
        31,
        32
      ],
      "matrix": [
        1.0,
        0.0,
        0.0,
        0.0,
        0.0,
        1.0,
        0.0,
        0.0,
        0.0,
        0.0,
        1.0,
        0.0,
        926.234375,
        545.776123046875,
        0.0,
        1.0
      ],
      "name": "Box019"
    },
    {
      "mesh": 15,
      "name": "Box019_03 - Default_0"
    },
    {
      "mesh": 16,
      "name": "Box019_02 - Default_0"
    },
    {
      "children": [
        34,
        35,
        36
      ],
      "matrix": [
        0.7660442124242826,
        -0.6427878846176712,
        0.0,
        0.0,
        0.6427878846176712,
        0.7660442124242826,
        0.0,
        0.0,
        0.0,
        0.0,
        1.0,
        0.0,
        867.76708984375,
        132.41952514648438,
        85.21405029296875,
        1.0
      ],
      "name": "Cylinder021"
    },
    {
      "mesh": 17,
      "name": "Cylinder021_03 - Default_0"
    },
    {
      "mesh": 18,
      "name": "Cylinder021_02 - Default_0"
    },
    {
      "mesh": 19,
      "name": "Cylinder021_04 - Default_0"
    },
    {
      "children": [
        38
      ],
      "matrix": [
        1.0,
        0.0,
        0.0,
        0.0,
        0.0,
        1.0,
        0.0,
        0.0,
        0.0,
        0.0,
        1.0,
        0.0,
        866.41943359375,
        -242.7996826171875,
        -3.9636688232421875,
        1.0
      ],
      "name": "Cylinder022"
    },
    {
      "children": [
        39,
        40
      ],
      "matrix": [
        6.123233995736766e-17,
        0.0,
        -1.0,
        0.0,
        1.4901157399366725e-08,
        0.9999999999999999,
        9.124327356362678e-25,
        0.0,
        0.9999999999999999,
        -1.4901157399366725e-08,
        6.123233995736765e-17,
        0.0,
        -61.1043701171875,
        -3.14673447608948,
        116.156784057617,
        1.0
      ],
      "name": "Object_38"
    },
    {
      "mesh": 20,
      "name": "Cylinder022_02 - Default_0"
    },
    {
      "mesh": 21,
      "name": "Cylinder022_01 - Default_0"
    },
    {
      "children": [
        42,
        43
      ],
      "matrix": [
        1.0,
        0.0,
        0.0,
        0.0,
        0.0,
        1.0,
        0.0,
        0.0,
        0.0,
        0.0,
        1.0,
        0.0,
        704.3732299804688,
        -248.3502197265625,
        0.0,
        1.0
      ],
      "name": "Cylinder023"
    },
    {
      "mesh": 22,
      "name": "Cylinder023_03 - Default_0"
    },
    {
      "mesh": 23,
      "name": "Cylinder023_02 - Default_0"
    },
    {
      "children": [
        45
      ],
      "matrix": [
        1.0,
        0.0,
        0.0,
        0.0,
        0.0,
        1.0,
        0.0,
        0.0,
        0.0,
        0.0,
        1.0,
        0.0,
        691.5265502929688,
        237.04132080078125,
        347.069091796875,
        1.0
      ],
      "name": "Object002"
    },
    {
      "children": [
        46
      ],
      "matrix": [
        1.0,
        0.0,
        -0.0,
        0.0,
        0.0,
        1.0,
        0.0,
        0.0,
        0.0,
        0.0,
        1.0,
        0.0,
        -142.853881835938,
        -553.605834960938,
        -562.674194335938,
        1.0
      ],
      "name": "Object_45"
    },
    {
      "mesh": 24,
      "name": "Object002_Material #0_0"
    },
    {
      "children": [
        48
      ],
      "matrix": [
        1.0,
        0.0,
        0.0,
        0.0,
        0.0,
        1.0,
        0.0,
        0.0,
        0.0,
        0.0,
        1.0,
        0.0,
        1287.324951171875,
        237.04132080078125,
        347.069091796875,
        1.0
      ],
      "name": "Object003"
    },
    {
      "children": [
        49
      ],
      "matrix": [
        1.0,
        0.0,
        -0.0,
        0.0,
        0.0,
        1.0,
        0.0,
        0.0,
        0.0,
        0.0,
        1.0,
        0.0,
        -142.853881835938,
        -553.605834960938,
        -562.674194335938,
        1.0
      ],
      "name": "Object_48"
    },
    {
      "mesh": 25,
      "name": "Object003_Material #0_0"
    },
    {
      "children": [
        51
      ],
      "matrix": [
        1.0,
        0.0,
        0.0,
        0.0,
        0.0,
        1.0,
        0.0,
        0.0,
        0.0,
        0.0,
        1.0,
        0.0,
        1330.540771484375,
        -61.860870361328125,
        -27.6114501953125,
        1.0
      ],
      "name": "Box020"
    },
    {
      "children": [
        52
      ],
      "matrix": [
        1.0,
        0.0,
        -0.0,
        0.0,
        0.0,
        1.0,
        0.0,
        0.0,
        0.0,
        0.0,
        1.0,
        0.0,
        115.894409179688,
        -254.703643798828,
        -187.99365234375,
        1.0
      ],
      "name": "Object_51"
    },
    {
      "mesh": 26,
      "name": "Box020_Material #0_0"
    }
  ],
  "samplers": [
    {
      "magFilter": 9729,
      "minFilter": 9987,
      "wrapS": 10497,
      "wrapT": 10497
    }
  ],
  "scene": 0,
  "scenes": [
    {
      "name": "Sketchfab_Scene",
      "nodes": [
        0
      ]
    }
  ],
  "textures": [
    {
      "sampler": 0,
      "source": 0
    },
    {
      "sampler": 0,
      "source": 1
    },
    {
      "sampler": 0,
      "source": 2
    }
  ]
}
