{
  "accessors": [
    {
      "bufferView": 3,
      "componentType": 5126,
      "count": 4104,
      "max": [
        105.27469635009766,
        177.37966918945313,
        15.582015037536621
      ],
      "min": [
        -105.27376556396484,
        130.99880981445313,
        -9.598587989807129
      ],
      "type": "VEC3"
    },
    {
      "bufferView": 3,
      "byteOffset": 49248,
      "componentType": 5126,
      "count": 4104,
      "max": [
        0.9996042251586914,
        0.9997648596763611,
        0.9999714493751526
      ],
      "min": [
        -0.9996032118797302,
        -0.9996496438980103,
        -0.9990288615226746
      ],
      "type": "VEC3"
    },
    {
      "bufferView": 4,
      "componentType": 5126,
      "count": 4104,
      "max": [
        1.0,
        0.9982430934906006,
        0.9987255334854126,
        1.0
      ],
      "min": [
        -0.9999594688415527,
        -0.9859172105789185,
        -0.9992240071296692,
        -1.0
      ],
      "type": "VEC4"
    },
    {
      "bufferView": 2,
      "componentType": 5126,
      "count": 4104,
      "max": [
        0.9924700260162354,
        0.9982979893684387
      ],
      "min": [
        0.004989999812096357,
        0.40540096163749695
      ],
      "type": "VEC2"
    },
    {
      "bufferView": 1,
      "componentType": 5125,
      "count": 21741,
      "type": "SCALAR"
    },
    {
      "bufferView": 3,
      "byteOffset": 98496,
      "componentType": 5126,
      "count": 1115,
      "max": [
        6.100560188293457,
        159.93649291992188,
        13.415477752685547
      ],
      "min": [
        -6.1051201820373535,
        151.70033264160156,
        5.6348676681518555
      ],
      "type": "VEC3"
    },
    {
      "bufferView": 3,
      "byteOffset": 111876,
      "componentType": 5126,
      "count": 1115,
      "max": [
        0.9157293438911438,
        0.5891809463500977,
        0.9997218251228333
      ],
      "min": [
        -0.8728455901145935,
        -0.941834032535553,
        -0.9957884550094604
      ],
      "type": "VEC3"
    },
    {
      "bufferView": 4,
      "byteOffset": 65664,
      "componentType": 5126,
      "count": 1115,
      "max": [
        0.9942798614501953,
        0.9990378022193909,
        0.9359709024429321,
        1.0
      ],
      "min": [
        -0.9964610934257507,
        -0.9995231032371521,
        -0.9420375227928162,
        -1.0
      ],
      "type": "VEC4"
    },
    {
      "bufferView": 2,
      "byteOffset": 32832,
      "componentType": 5126,
      "count": 1115,
      "max": [
        0.9897469878196716,
        0.33712899684906006
      ],
      "min": [
        0.6475890278816223,
        0.20732800662517548
      ],
      "type": "VEC2"
    },
    {
      "bufferView": 1,
      "byteOffset": 86964,
      "componentType": 5125,
      "count": 3042,
      "type": "SCALAR"
    },
    {
      "bufferView": 3,
      "byteOffset": 125256,
      "componentType": 5126,
      "count": 2922,
      "max": [
        8.37938404083252,
        165.833984375,
        12.164813041687012
      ],
      "min": [
        -8.379229545593262,
        150.1715850830078,
        -0.1643381416797638
      ],
      "type": "VEC3"
    },
    {
      "bufferView": 3,
      "byteOffset": 160320,
      "componentType": 5126,
      "count": 2922,
      "max": [
        0.9976292848587036,
        0.3869103789329529,
        0.9927427768707275
      ],
      "min": [
        -0.9972289800643921,
        -0.9985092878341675,
        -0.6937353014945984
      ],
      "type": "VEC3"
    },
    {
      "bufferView": 4,
      "byteOffset": 83504,
      "componentType": 5126,
      "count": 2922,
      "max": [
        0.9998489022254944,
        0.9711582660675049,
        0.9913590550422668,
        1.0
      ],
      "min": [
        -0.9999971985816956,
        -0.999906063079834,
        -0.9860250949859619,
        -1.0
      ],
      "type": "VEC4"
    },
    {
      "bufferView": 2,
      "byteOffset": 41752,
      "componentType": 5126,
      "count": 2922,
      "max": [
        0.9900149703025818,
        0.3500699996948242
      ],
      "min": [
        0.6362339854240417,
        0.19231900572776794
      ],
      "type": "VEC2"
    },
    {
      "bufferView": 1,
      "byteOffset": 99132,
      "componentType": 5125,
      "count": 8163,
      "type": "SCALAR"
    },
    {
      "bufferView": 3,
      "byteOffset": 195384,
      "componentType": 5126,
      "count": 4610,
      "max": [
        8.64019775390625,
        177.8189697265625,
        12.877472877502441
      ],
      "min": [
        -8.848766326904297,
        158.4653778076172,
        -9.82464599609375
      ],
      "type": "VEC3"
    },
    {
      "bufferView": 3,
      "byteOffset": 250704,
      "componentType": 5126,
      "count": 4610,
      "max": [
        0.9998526573181152,
        0.9994726181030273,
        0.9954181909561157
      ],
      "min": [
        -0.9998287558555603,
        -0.9549797177314758,
        -0.9999746084213257
      ],
      "type": "VEC3"
    },
    {
      "bufferView": 4,
      "byteOffset": 130256,
      "componentType": 5126,
      "count": 4610,
      "max": [
        0.9999170303344727,
        0.9995463490486145,
        0.9999386668205261,
        1.0
      ],
      "min": [
        -0.9999654293060303,
        -0.9948920607566833,
        -0.9999213814735413,
        -1.0
      ],
      "type": "VEC4"
    },
    {
      "bufferView": 2,
      "byteOffset": 65128,
      "componentType": 5126,
      "count": 4610,
      "max": [
        0.9854140281677246,
        0.9995539784431458
      ],
      "min": [
        0.25051000714302063,
        0.0007880000048317015
      ],
      "type": "VEC2"
    },
    {
      "bufferView": 1,
      "byteOffset": 131784,
      "componentType": 5125,
      "count": 13530,
      "type": "SCALAR"
    },
    {
      "bufferView": 3,
      "byteOffset": 306024,
      "componentType": 5126,
      "count": 1172,
      "max": [
        18.79849624633789,
        44.72798156738281,
        20.91780662536621
      ],
      "min": [
        -18.403438568115234,
        -1.482216715812683,
        -16.13208770751953
      ],
      "type": "VEC3"
    },
    {
      "bufferView": 3,
      "byteOffset": 320088,
      "componentType": 5126,
      "count": 1172,
      "max": [
        0.9999759793281555,
        0.9669063091278076,
        0.9963997006416321
      ],
      "min": [
        -0.9999236464500427,
        -0.9999987483024597,
        -0.9988289475440979
      ],
      "type": "VEC3"
    },
    {
      "bufferView": 4,
      "byteOffset": 204016,
      "componentType": 5126,
      "count": 1172,
      "max": [
        0.9990143179893494,
        0.9893835783004761,
        0.9997419118881226,
        1.0
      ],
      "min": [
        -0.9992910027503967,
        -0.9830169081687927,
        -0.999886155128479,
        -1.0
      ],
      "type": "VEC4"
    },
    {
      "bufferView": 2,
      "byteOffset": 102008,
      "componentType": 5126,
      "count": 1172,
      "max": [
        0.9881970286369324,
        0.9791269898414612
      ],
      "min": [
        0.007834999822080135,
        0.019391000270843506
      ],
      "type": "VEC2"
    },
    {
      "bufferView": 1,
      "byteOffset": 185904,
      "componentType": 5125,
      "count": 6216,
      "type": "SCALAR"
    },
    {
      "bufferView": 3,
      "byteOffset": 334152,
      "componentType": 5126,
      "count": 2010,
      "max": [
        87.39395141601563,
        155.5207977294922,
        24.386260986328125
      ],
      "min": [
        -87.07997131347656,
        62.71162796020508,
        -19.049318313598633
      ],
      "type": "VEC3"
    },
    {
      "bufferView": 3,
      "byteOffset": 358272,
      "componentType": 5126,
      "count": 2010,
      "max": [
        0.9994022250175476,
        0.9997916221618652,
        0.9997907280921936
      ],
      "min": [
        -0.9997990727424622,
        -0.9999960660934448,
        -0.9999642372131348
      ],
      "type": "VEC3"
    },
    {
      "bufferView": 4,
      "byteOffset": 222768,
      "componentType": 5126,
      "count": 2010,
      "max": [
        0.9999701976776123,
        0.9999840259552002,
        0.9999939799308777,
        1.0
      ],
      "min": [
        -0.9999890327453613,
        -0.9998125433921814,
        -0.9999973773956299,
        -1.0
      ],
      "type": "VEC4"
    },
    {
      "bufferView": 2,
      "byteOffset": 111384,
      "componentType": 5126,
      "count": 2010,
      "max": [
        0.9933570027351379,
        0.9942290186882019
      ],
      "min": [
        0.006916999816894531,
        0.008440000005066395
      ],
      "type": "VEC2"
    },
    {
      "bufferView": 1,
      "byteOffset": 210768,
      "componentType": 5125,
      "count": 9075,
      "type": "SCALAR"
    },
    {
      "bufferView": 3,
      "byteOffset": 382392,
      "componentType": 5126,
      "count": 916,
      "max": [
        21.232568740844727,
        109.17733764648438,
        20.30246925354004
      ],
      "min": [
        -20.737024307250977,
        10.014870643615723,
        -14.580164909362793
      ],
      "type": "VEC3"
    },
    {
      "bufferView": 3,
      "byteOffset": 393384,
      "componentType": 5126,
      "count": 916,
      "max": [
        0.9998361468315125,
        0.9959100484848022,
        0.9996310472488403
      ],
      "min": [
        -0.9999024868011475,
        -0.9978311657905579,
        -0.9995551705360413
      ],
      "type": "VEC3"
    },
    {
      "bufferView": 4,
      "byteOffset": 254928,
      "componentType": 5126,
      "count": 916,
      "max": [
        0.9998042583465576,
        0.9997796416282654,
        0.999743640422821,
        1.0
      ],
      "min": [
        -0.9999991655349731,
        -0.9998140931129456,
        -0.999580979347229,
        -1.0
      ],
      "type": "VEC4"
    },
    {
      "bufferView": 2,
      "byteOffset": 127464,
      "componentType": 5126,
      "count": 916,
      "max": [
        0.9927600026130676,
        0.9961180090904236
      ],
      "min": [
        0.015208999626338482,
        0.0031240000389516354
      ],
      "type": "VEC2"
    },
    {
      "bufferView": 1,
      "byteOffset": 247068,
      "componentType": 5125,
      "count": 4308,
      "type": "SCALAR"
    },
    {
      "bufferView": 5,
      "componentType": 5126,
      "count": 66,
      "max": [
        1.0,
        0.9996953010559082,
        0.4149779975414276,
        0.0,
        0.15171514451503754,
        1.0,
        0.9989058971405029,
        0.0,
        0.9912778735160828,
        0.9944132566452026,
        1.0,
        0.0,
        24.788835525512695,
        97.60126495361328,
        161.64642333984375,
        1.0
      ],
      "min": [
        -0.9996649026870728,
        -0.9993801712989807,
        -0.3922485411167145,
        0.0,
        -0.15450964868068695,
        -0.9986393451690674,
        -0.9906738996505737,
        0.0,
        -0.9883458614349365,
        -0.14744578301906586,
        -0.1299494057893753,
        0.0,
        -32.116397857666016,
        -154.63851928710938,
        -16.774784088134766,
        1.0
      ],
      "type": "MAT4"
    },
    {
      "bufferView": 0,
      "componentType": 5123,
      "count": 4104,
      "type": "VEC4"
    },
    {
      "bufferView": 4,
      "byteOffset": 269584,
      "componentType": 5126,
      "count": 4104,
      "max": [
        1.0,
        0.4979309141635895,
        0.31684550642967224,
        0.13870681822299957
      ],
      "min": [
        0.3530866205692291,
        0.0,
        0.0,
        0.0
      ],
      "type": "VEC4"
    },
    {
      "bufferView": 0,
      "byteOffset": 32832,
      "componentType": 5123,
      "count": 1115,
      "type": "VEC4"
    },
    {
      "bufferView": 4,
      "byteOffset": 335248,
      "componentType": 5126,
      "count": 1115,
      "max": [
        0.9610038995742798,
        0.3474843502044678,
        0.1141834408044815,
        0.0
      ],
      "min": [
        0.5460694432258606,
        0.03899611160159111,
        0.0,
        0.0
      ],
      "type": "VEC4"
    },
    {
      "bufferView": 0,
      "byteOffset": 41752,
      "componentType": 5123,
      "count": 2922,
      "type": "VEC4"
    },
    {
      "bufferView": 4,
      "byteOffset": 353088,
      "componentType": 5126,
      "count": 2922,
      "max": [
        1.0,
        0.3584635853767395,
        0.22955825924873352,
        0.0
      ],
      "min": [
        0.41693761944770813,
        0.0,
        0.0,
        0.0
      ],
      "type": "VEC4"
    },
    {
      "bufferView": 0,
      "byteOffset": 65128,
      "componentType": 5123,
      "count": 4610,
      "type": "VEC4"
    },
    {
      "bufferView": 4,
      "byteOffset": 399840,
      "componentType": 5126,
      "count": 4610,
      "max": [
        1.0,
        0.1891288310289383,
        0.0,
        0.0
      ],
      "min": [
        0.8108711838722229,
        0.0,
        0.0,
        0.0
      ],
      "type": "VEC4"
    },
    {
      "bufferView": 0,
      "byteOffset": 102008,
      "componentType": 5123,
      "count": 1172,
      "type": "VEC4"
    },
    {
      "bufferView": 4,
      "byteOffset": 473600,
      "componentType": 5126,
      "count": 1172,
      "max": [
        1.0,
        0.4875596761703491,
        0.16410940885543823,
        0.0
      ],
      "min": [
        0.4815150797367096,
        0.0,
        0.0,
        0.0
      ],
      "type": "VEC4"
    },
    {
      "bufferView": 0,
      "byteOffset": 111384,
      "componentType": 5123,
      "count": 2010,
      "type": "VEC4"
    },
    {
      "bufferView": 4,
      "byteOffset": 492352,
      "componentType": 5126,
      "count": 2010,
      "max": [
        1.0,
        0.49780890345573425,
        0.3269136846065521,
        0.16680292785167694
      ],
      "min": [
        0.3351617455482483,
        0.0,
        0.0,
        0.0
      ],
      "type": "VEC4"
    },
    {
      "bufferView": 0,
      "byteOffset": 127464,
      "componentType": 5123,
      "count": 916,
      "type": "VEC4"
    },
    {
      "bufferView": 4,
      "byteOffset": 524512,
      "componentType": 5126,
      "count": 916,
      "max": [
        1.0,
        0.4947860538959503,
        0.32154691219329834,
        0.0
      ],
      "min": [
        0.34098783135414124,
        0.0,
        0.0,
        0.0
      ],
      "type": "VEC4"
    },
    {
      "bufferView": 6,
      "componentType": 5126,
      "count": 1,
      "max": [
        0.0
      ],
      "min": [
        0.0
      ],
      "type": "SCALAR"
    },
    {
      "bufferView": 8,
      "componentType": 5126,
      "count": 1,
      "max": [
        -0.00035557852243073285,
        -0.003520189318805933,
        0.05552984029054642,
        0.998450756072998
      ],
      "min": [
        -0.00035557852243073285,
        -0.003520189318805933,
        0.05552984029054642,
        0.998450756072998
      ],
      "type": "VEC4"
    },
    {
      "bufferView": 6,
      "byteOffset": 4,
      "componentType": 5126,
      "count": 1,
      "max": [
        0.0
      ],
      "min": [
        0.0
      ],
      "type": "SCALAR"
    },
    {
      "bufferView": 8,
      "byteOffset": 16,
      "componentType": 5126,
      "count": 1,
      "max": [
        0.0004432828282006085,
        -0.006567471195012331,
        0.11246281117200851,
        0.9936341047286987
      ],
      "min": [
        0.0004432828282006085,
        -0.006567471195012331,
        0.11246281117200851,
        0.9936341047286987
      ],
      "type": "VEC4"
    },
    {
      "bufferView": 6,
      "byteOffset": 8,
      "componentType": 5126,
      "count": 1,
      "max": [
        0.0
      ],
      "min": [
        0.0
      ],
      "type": "SCALAR"
    },
    {
      "bufferView": 8,
      "byteOffset": 32,
      "componentType": 5126,
      "count": 1,
      "max": [
        0.20378540456295013,
        0.0841534435749054,
        0.20143704116344452,
        0.9543651342391968
      ],
      "min": [
        0.20378540456295013,
        0.0841534435749054,
        0.20143704116344452,
        0.9543651342391968
      ],
      "type": "VEC4"
    },
    {
      "bufferView": 6,
      "byteOffset": 12,
      "componentType": 5126,
      "count": 1,
      "max": [
        0.0
      ],
      "min": [
        0.0
      ],
      "type": "SCALAR"
    },
    {
      "bufferView": 8,
      "byteOffset": 48,
      "componentType": 5126,
      "count": 1,
      "max": [
        -3.067744387408311e-07,
        -2.8447328077163547e-05,
        -0.0015552358236163855,
        0.9999988079071045
      ],
      "min": [
        -3.067744387408311e-07,
        -2.8447328077163547e-05,
        -0.0015552358236163855,
        0.9999988079071045
      ],
      "type": "VEC4"
    },
    {
      "bufferView": 6,
      "byteOffset": 16,
      "componentType": 5126,
      "count": 1,
      "max": [
        0.0
      ],
      "min": [
        0.0
      ],
      "type": "SCALAR"
    },
    {
      "bufferView": 8,
      "byteOffset": 64,
      "componentType": 5126,
      "count": 1,
      "max": [
        -4.6138436005094263e-07,
        6.662020496150944e-06,
        0.0028296855743974447,
        0.9999960064888
      ],
      "min": [
        -4.6138436005094263e-07,
        6.662020496150944e-06,
        0.0028296855743974447,
        0.9999960064888
      ],
      "type": "VEC4"
    },
    {
      "bufferView": 6,
      "byteOffset": 20,
      "componentType": 5126,
      "count": 1,
      "max": [
        0.0
      ],
      "min": [
        0.0
      ],
      "type": "SCALAR"
    },
    {
      "bufferView": 8,
      "byteOffset": 80,
      "componentType": 5126,
      "count": 1,
      "max": [
        -0.008322881534695625,
        -0.004461429547518492,
        0.035002462565898895,
        0.9993426203727722
      ],
      "min": [
        -0.008322881534695625,
        -0.004461429547518492,
        0.035002462565898895,
        0.9993426203727722
      ],
      "type": "VEC4"
    },
    {
      "bufferView": 6,
      "byteOffset": 24,
      "componentType": 5126,
      "count": 1,
      "max": [
        0.0
      ],
      "min": [
        0.0
      ],
      "type": "SCALAR"
    },
    {
      "bufferView": 8,
      "byteOffset": 96,
      "componentType": 5126,
      "count": 1,
      "max": [
        -2.2023694157269347e-07,
        8.343988611159148e-07,
        -0.0035330650862306356,
        0.9999937415122986
      ],
      "min": [
        -2.2023694157269347e-07,
        8.343988611159148e-07,
        -0.0035330650862306356,
        0.9999937415122986
      ],
      "type": "VEC4"
    },
    {
      "bufferView": 6,
      "byteOffset": 28,
      "componentType": 5126,
      "count": 1,
      "max": [
        0.0
      ],
      "min": [
        0.0
      ],
      "type": "SCALAR"
    },
    {
      "bufferView": 8,
      "byteOffset": 112,
      "componentType": 5126,
      "count": 1,
      "max": [
        4.05592771812735e-07,
        3.873807145282626e-05,
        0.0020406863186508417,
        0.9999979138374329
      ],
      "min": [
        4.05592771812735e-07,
        3.873807145282626e-05,
        0.0020406863186508417,
        0.9999979138374329
      ],
      "type": "VEC4"
    },
    {
      "bufferView": 6,
      "byteOffset": 32,
      "componentType": 5126,
      "count": 1,
      "max": [
        0.0
      ],
      "min": [
        0.0
      ],
      "type": "SCALAR"
    },
    {
      "bufferView": 8,
      "byteOffset": 128,
      "componentType": 5126,
      "count": 1,
      "max": [
        -0.00838389527052641,
        -0.0029056032653898,
        0.03602755814790726,
        0.9993113875389099
      ],
      "min": [
        -0.00838389527052641,
        -0.0029056032653898,
        0.03602755814790726,
        0.9993113875389099
      ],
      "type": "VEC4"
    },
    {
      "bufferView": 6,
      "byteOffset": 36,
      "componentType": 5126,
      "count": 1,
      "max": [
        0.0
      ],
      "min": [
        0.0
      ],
      "type": "SCALAR"
    },
    {
      "bufferView": 8,
      "byteOffset": 144,
      "componentType": 5126,
      "count": 1,
      "max": [
        7.290802983561662e-08,
        2.713008325372357e-05,
        -0.0026974682696163654,
        0.9999963641166687
      ],
      "min": [
        7.290802983561662e-08,
        2.713008325372357e-05,
        -0.0026974682696163654,
        0.9999963641166687
      ],
      "type": "VEC4"
    },
    {
      "bufferView": 6,
      "byteOffset": 40,
      "componentType": 5126,
      "count": 1,
      "max": [
        0.0
      ],
      "min": [
        0.0
      ],
      "type": "SCALAR"
    },
    {
      "bufferView": 8,
      "byteOffset": 160,
      "componentType": 5126,
      "count": 1,
      "max": [
        -1.7502134141977876e-07,
        1.156735834229039e-05,
        0.0006045406335033476,
        0.9999998211860657
      ],
      "min": [
        -1.7502134141977876e-07,
        1.156735834229039e-05,
        0.0006045406335033476,
        0.9999998211860657
      ],
      "type": "VEC4"
    },
    {
      "bufferView": 6,
      "byteOffset": 44,
      "componentType": 5126,
      "count": 1,
      "max": [
        0.0
      ],
      "min": [
        0.0
      ],
      "type": "SCALAR"
    },
    {
      "bufferView": 8,
      "byteOffset": 176,
      "componentType": 5126,
      "count": 1,
      "max": [
        -0.008406102657318115,
        -0.0023315250873565674,
        0.03668318688869476,
        0.9992888569831848
      ],
      "min": [
        -0.008406102657318115,
        -0.0023315250873565674,
        0.03668318688869476,
        0.9992888569831848
      ],
      "type": "VEC4"
    },
    {
      "bufferView": 6,
      "byteOffset": 48,
      "componentType": 5126,
      "count": 1,
      "max": [
        0.0
      ],
      "min": [
        0.0
      ],
      "type": "SCALAR"
    },
    {
      "bufferView": 8,
      "byteOffset": 192,
      "componentType": 5126,
      "count": 1,
      "max": [
        2.7266713686913135e-07,
        1.9082208382315002e-06,
        -0.000874161662068218,
        0.9999996423721313
      ],
      "min": [
        2.7266713686913135e-07,
        1.9082208382315002e-06,
        -0.000874161662068218,
        0.9999996423721313
      ],
      "type": "VEC4"
    },
    {
      "bufferView": 6,
      "byteOffset": 52,
      "componentType": 5126,
      "count": 1,
      "max": [
        0.0
      ],
      "min": [
        0.0
      ],
      "type": "SCALAR"
    },
    {
      "bufferView": 8,
      "byteOffset": 208,
      "componentType": 5126,
      "count": 1,
      "max": [
        4.5151145400268433e-07,
        2.101696509271278e-06,
        0.0002590418152976781,
        0.9999999403953552
      ],
      "min": [
        4.5151145400268433e-07,
        2.101696509271278e-06,
        0.0002590418152976781,
        0.9999999403953552
      ],
      "type": "VEC4"
    },
    {
      "bufferView": 6,
      "byteOffset": 56,
      "componentType": 5126,
      "count": 1,
      "max": [
        0.0
      ],
      "min": [
        0.0
      ],
      "type": "SCALAR"
    },
    {
      "bufferView": 8,
      "byteOffset": 224,
      "componentType": 5126,
      "count": 1,
      "max": [
        -0.00841654371470213,
        -0.002041254425421357,
        0.03639785200357437,
        0.9992998242378235
      ],
      "min": [
        -0.00841654371470213,
        -0.002041254425421357,
        0.03639785200357437,
        0.9992998242378235
      ],
      "type": "VEC4"
    },
    {
      "bufferView": 6,
      "byteOffset": 60,
      "componentType": 5126,
      "count": 1,
      "max": [
        0.0
      ],
      "min": [
        0.0
      ],
      "type": "SCALAR"
    },
    {
      "bufferView": 8,
      "byteOffset": 240,
      "componentType": 5126,
      "count": 1,
      "max": [
        0.0055261715315282345,
        0.0808514803647995,
        -0.03685412555932999,
        0.996029257774353
      ],
      "min": [
        0.0055261715315282345,
        0.0808514803647995,
        -0.03685412555932999,
        0.996029257774353
      ],
      "type": "VEC4"
    },
    {
      "bufferView": 6,
      "byteOffset": 64,
      "componentType": 5126,
      "count": 1,
      "max": [
        0.0
      ],
      "min": [
        0.0
      ],
      "type": "SCALAR"
    },
    {
      "bufferView": 8,
      "byteOffset": 256,
      "componentType": 5126,
      "count": 1,
      "max": [
        -1.223406371764213e-07,
        -0.00103721022605896,
        1.9867691491981532e-07,
        0.999999463558197
      ],
      "min": [
        -1.223406371764213e-07,
        -0.00103721022605896,
        1.9867691491981532e-07,
        0.999999463558197
      ],
      "type": "VEC4"
    },
    {
      "bufferView": 6,
      "byteOffset": 68,
      "componentType": 5126,
      "count": 1,
      "max": [
        0.0
      ],
      "min": [
        0.0
      ],
      "type": "SCALAR"
    },
    {
      "bufferView": 8,
      "byteOffset": 272,
      "componentType": 5126,
      "count": 1,
      "max": [
        -0.12639296054840088,
        0.0010627730516716838,
        0.021523751318454742,
        0.9917461276054382
      ],
      "min": [
        -0.12639296054840088,
        0.0010627730516716838,
        0.021523751318454742,
        0.9917461276054382
      ],
      "type": "VEC4"
    },
    {
      "bufferView": 6,
      "byteOffset": 72,
      "componentType": 5126,
      "count": 1,
      "max": [
        0.0
      ],
      "min": [
        0.0
      ],
      "type": "SCALAR"
    },
    {
      "bufferView": 8,
      "byteOffset": 288,
      "componentType": 5126,
      "count": 1,
      "max": [
        -0.5472217202186584,
        -0.4421581029891968,
        0.5709435343742371,
        -0.42316439747810364
      ],
      "min": [
        -0.5472217202186584,
        -0.4421581029891968,
        0.5709435343742371,
        -0.42316439747810364
      ],
      "type": "VEC4"
    },
    {
      "bufferView": 6,
      "byteOffset": 76,
      "componentType": 5126,
      "count": 1,
      "max": [
        0.0
      ],
      "min": [
        0.0
      ],
      "type": "SCALAR"
    },
    {
      "bufferView": 8,
      "byteOffset": 304,
      "componentType": 5126,
      "count": 1,
      "max": [
        -0.0001785813074093312,
        0.0015001333085820079,
        -0.09027861803770065,
        0.995915412902832
      ],
      "min": [
        -0.0001785813074093312,
        0.0015001333085820079,
        -0.09027861803770065,
        0.995915412902832
      ],
      "type": "VEC4"
    },
    {
      "bufferView": 6,
      "byteOffset": 80,
      "componentType": 5126,
      "count": 1,
      "max": [
        0.0
      ],
      "min": [
        0.0
      ],
      "type": "SCALAR"
    },
    {
      "bufferView": 8,
      "byteOffset": 320,
      "componentType": 5126,
      "count": 1,
      "max": [
        0.00030593774863518775,
        0.0036921377759426832,
        -0.11055730283260345,
        0.9938628673553467
      ],
      "min": [
        0.00030593774863518775,
        0.0036921377759426832,
        -0.11055730283260345,
        0.9938628673553467
      ],
      "type": "VEC4"
    },
    {
      "bufferView": 6,
      "byteOffset": 84,
      "componentType": 5126,
      "count": 1,
      "max": [
        0.0
      ],
      "min": [
        0.0
      ],
      "type": "SCALAR"
    },
    {
      "bufferView": 8,
      "byteOffset": 336,
      "componentType": 5126,
      "count": 1,
      "max": [
        0.20871207118034363,
        -0.07850228995084763,
        -0.2044173628091812,
        0.9531475305557251
      ],
      "min": [
        0.20871207118034363,
        -0.07850228995084763,
        -0.2044173628091812,
        0.9531475305557251
      ],
      "type": "VEC4"
    },
    {
      "bufferView": 6,
      "byteOffset": 88,
      "componentType": 5126,
      "count": 1,
      "max": [
        0.0
      ],
      "min": [
        0.0
      ],
      "type": "SCALAR"
    },
    {
      "bufferView": 8,
      "byteOffset": 352,
      "componentType": 5126,
      "count": 1,
      "max": [
        3.5311313695274293e-07,
        -2.426834726065863e-05,
        -0.0004367392975836992,
        0.9999998807907104
      ],
      "min": [
        3.5311313695274293e-07,
        -2.426834726065863e-05,
        -0.0004367392975836992,
        0.9999998807907104
      ],
      "type": "VEC4"
    },
    {
      "bufferView": 6,
      "byteOffset": 92,
      "componentType": 5126,
      "count": 1,
      "max": [
        0.0
      ],
      "min": [
        0.0
      ],
      "type": "SCALAR"
    },
    {
      "bufferView": 8,
      "byteOffset": 368,
      "componentType": 5126,
      "count": 1,
      "max": [
        3.1796002986084204e-07,
        8.804990648059174e-05,
        -0.003009931882843375,
        0.9999954700469971
      ],
      "min": [
        3.1796002986084204e-07,
        8.804990648059174e-05,
        -0.003009931882843375,
        0.9999954700469971
      ],
      "type": "VEC4"
    },
    {
      "bufferView": 6,
      "byteOffset": 96,
      "componentType": 5126,
      "count": 1,
      "max": [
        0.0
      ],
      "min": [
        0.0
      ],
      "type": "SCALAR"
    },
    {
      "bufferView": 8,
      "byteOffset": 384,
      "componentType": 5126,
      "count": 1,
      "max": [
        -0.009274397045373917,
        0.001501442864537239,
        -0.04974951967597008,
        0.9987175464630127
      ],
      "min": [
        -0.009274397045373917,
        0.001501442864537239,
        -0.04974951967597008,
        0.9987175464630127
      ],
      "type": "VEC4"
    },
    {
      "bufferView": 6,
      "byteOffset": 100,
      "componentType": 5126,
      "count": 1,
      "max": [
        0.0
      ],
      "min": [
        0.0
      ],
      "type": "SCALAR"
    },
    {
      "bufferView": 8,
      "byteOffset": 400,
      "componentType": 5126,
      "count": 1,
      "max": [
        3.401606818442815e-08,
        -0.00020741220214404166,
        -0.004462963901460171,
        0.9999900460243225
      ],
      "min": [
        3.401606818442815e-08,
        -0.00020741220214404166,
        -0.004462963901460171,
        0.9999900460243225
      ],
      "type": "VEC4"
    },
    {
      "bufferView": 6,
      "byteOffset": 104,
      "componentType": 5126,
      "count": 1,
      "max": [
        0.0
      ],
      "min": [
        0.0
      ],
      "type": "SCALAR"
    },
    {
      "bufferView": 8,
      "byteOffset": 416,
      "componentType": 5126,
      "count": 1,
      "max": [
        1.7436137511595007e-07,
        -4.409701887198025e-06,
        4.567236828734167e-05,
        1.0
      ],
      "min": [
        1.7436137511595007e-07,
        -4.409701887198025e-06,
        4.567236828734167e-05,
        1.0
      ],
      "type": "VEC4"
    },
    {
      "bufferView": 6,
      "byteOffset": 108,
      "componentType": 5126,
      "count": 1,
      "max": [
        0.0
      ],
      "min": [
        0.0
      ],
      "type": "SCALAR"
    },
    {
      "bufferView": 8,
      "byteOffset": 432,
      "componentType": 5126,
      "count": 1,
      "max": [
        -0.009256110526621342,
        0.0018649921985343099,
        -0.050498634576797485,
        0.998679518699646
      ],
      "min": [
        -0.009256110526621342,
        0.0018649921985343099,
        -0.050498634576797485,
        0.998679518699646
      ],
      "type": "VEC4"
    },
    {
      "bufferView": 6,
      "byteOffset": 112,
      "componentType": 5126,
      "count": 1,
      "max": [
        0.0
      ],
      "min": [
        0.0
      ],
      "type": "SCALAR"
    },
    {
      "bufferView": 8,
      "byteOffset": 448,
      "componentType": 5126,
      "count": 1,
      "max": [
        4.3375135305723234e-07,
        -3.0424873330048285e-05,
        -0.0007705099415034056,
        0.9999997019767761
      ],
      "min": [
        4.3375135305723234e-07,
        -3.0424873330048285e-05,
        -0.0007705099415034056,
        0.9999997019767761
      ],
      "type": "VEC4"
    },
    {
      "bufferView": 6,
      "byteOffset": 116,
      "componentType": 5126,
      "count": 1,
      "max": [
        0.0
      ],
      "min": [
        0.0
      ],
      "type": "SCALAR"
    },
    {
      "bufferView": 8,
      "byteOffset": 464,
      "componentType": 5126,
      "count": 1,
      "max": [
        -2.4075328042272304e-07,
        3.605692108976655e-05,
        -0.0013690745690837502,
        0.9999990463256836
      ],
      "min": [
        -2.4075328042272304e-07,
        3.605692108976655e-05,
        -0.0013690745690837502,
        0.9999990463256836
      ],
      "type": "VEC4"
    },
    {
      "bufferView": 6,
      "byteOffset": 120,
      "componentType": 5126,
      "count": 1,
      "max": [
        0.0
      ],
      "min": [
        0.0
      ],
      "type": "SCALAR"
    },
    {
      "bufferView": 8,
      "byteOffset": 480,
      "componentType": 5126,
      "count": 1,
      "max": [
        -0.009345567785203457,
        0.00018699641805142164,
        -0.050658151507377625,
        0.9986723065376282
      ],
      "min": [
        -0.009345567785203457,
        0.00018699641805142164,
        -0.050658151507377625,
        0.9986723065376282
      ],
      "type": "VEC4"
    },
    {
      "bufferView": 6,
      "byteOffset": 124,
      "componentType": 5126,
      "count": 1,
      "max": [
        0.0
      ],
      "min": [
        0.0
      ],
      "type": "SCALAR"
    },
    {
      "bufferView": 8,
      "byteOffset": 496,
      "componentType": 5126,
      "count": 1,
      "max": [
        -2.889852623866318e-07,
        -6.559785106219351e-07,
        0.0007030068663880229,
        0.9999997615814209
      ],
      "min": [
        -2.889852623866318e-07,
        -6.559785106219351e-07,
        0.0007030068663880229,
        0.9999997615814209
      ],
      "type": "VEC4"
    },
    {
      "bufferView": 6,
      "byteOffset": 128,
      "componentType": 5126,
      "count": 1,
      "max": [
        0.0
      ],
      "min": [
        0.0
      ],
      "type": "SCALAR"
    },
    {
      "bufferView": 8,
      "byteOffset": 512,
      "componentType": 5126,
      "count": 1,
      "max": [
        1.9701552389506105e-07,
        -3.1577787922287825e-06,
        -0.0003471523232292384,
        0.9999999403953552
      ],
      "min": [
        1.9701552389506105e-07,
        -3.1577787922287825e-06,
        -0.0003471523232292384,
        0.9999999403953552
      ],
      "type": "VEC4"
    },
    {
      "bufferView": 6,
      "byteOffset": 132,
      "componentType": 5126,
      "count": 1,
      "max": [
        0.0
      ],
      "min": [
        0.0
      ],
      "type": "SCALAR"
    },
    {
      "bufferView": 8,
      "byteOffset": 528,
      "componentType": 5126,
      "count": 1,
      "max": [
        -0.009263048879802227,
        0.0017779299523681402,
        -0.051782261580228806,
        0.9986138343811035
      ],
      "min": [
        -0.009263048879802227,
        0.0017779299523681402,
        -0.051782261580228806,
        0.9986138343811035
      ],
      "type": "VEC4"
    },
    {
      "bufferView": 6,
      "byteOffset": 136,
      "componentType": 5126,
      "count": 1,
      "max": [
        0.0
      ],
      "min": [
        0.0
      ],
      "type": "SCALAR"
    },
    {
      "bufferView": 8,
      "byteOffset": 544,
      "componentType": 5126,
      "count": 1,
      "max": [
        0.0055530923418700695,
        -0.07284659147262573,
        0.0523226335644722,
        0.9959542751312256
      ],
      "min": [
        0.0055530923418700695,
        -0.07284659147262573,
        0.0523226335644722,
        0.9959542751312256
      ],
      "type": "VEC4"
    },
    {
      "bufferView": 6,
      "byteOffset": 140,
      "componentType": 5126,
      "count": 1,
      "max": [
        0.0
      ],
      "min": [
        0.0
      ],
      "type": "SCALAR"
    },
    {
      "bufferView": 8,
      "byteOffset": 560,
      "componentType": 5126,
      "count": 1,
      "max": [
        2.7875111641151307e-07,
        0.0013129791477695107,
        -3.136658790481306e-07,
        0.9999991655349731
      ],
      "min": [
        2.7875111641151307e-07,
        0.0013129791477695107,
        -3.136658790481306e-07,
        0.9999991655349731
      ],
      "type": "VEC4"
    },
    {
      "bufferView": 6,
      "byteOffset": 144,
      "componentType": 5126,
      "count": 1,
      "max": [
        0.0
      ],
      "min": [
        0.0
      ],
      "type": "SCALAR"
    },
    {
      "bufferView": 8,
      "byteOffset": 576,
      "componentType": 5126,
      "count": 1,
      "max": [
        -0.1271003633737564,
        -0.0026413295418024063,
        -0.016847163438796997,
        0.991743266582489
      ],
      "min": [
        -0.1271003633737564,
        -0.0026413295418024063,
        -0.016847163438796997,
        0.991743266582489
      ],
      "type": "VEC4"
    },
    {
      "bufferView": 6,
      "byteOffset": 148,
      "componentType": 5126,
      "count": 1,
      "max": [
        0.0
      ],
      "min": [
        0.0
      ],
      "type": "SCALAR"
    },
    {
      "bufferView": 8,
      "byteOffset": 592,
      "componentType": 5126,
      "count": 1,
      "max": [
        0.5500778555870056,
        -0.43995678424835205,
        0.5687540173530579,
        0.42470139265060425
      ],
      "min": [
        0.5500778555870056,
        -0.43995678424835205,
        0.5687540173530579,
        0.42470139265060425
      ],
      "type": "VEC4"
    },
    {
      "bufferView": 6,
      "byteOffset": 152,
      "componentType": 5126,
      "count": 1,
      "max": [
        0.0
      ],
      "min": [
        0.0
      ],
      "type": "SCALAR"
    },
    {
      "bufferView": 8,
      "byteOffset": 608,
      "componentType": 5126,
      "count": 1,
      "max": [
        -0.07391597330570221,
        -8.491504559060559e-05,
        0.0008087665191851556,
        0.9972641468048096
      ],
      "min": [
        -0.07391597330570221,
        -8.491504559060559e-05,
        0.0008087665191851556,
        0.9972641468048096
      ],
      "type": "VEC4"
    },
    {
      "bufferView": 6,
      "byteOffset": 156,
      "componentType": 5126,
      "count": 1,
      "max": [
        0.0
      ],
      "min": [
        0.0
      ],
      "type": "SCALAR"
    },
    {
      "bufferView": 8,
      "byteOffset": 624,
      "componentType": 5126,
      "count": 1,
      "max": [
        0.5036386251449585,
        -0.04312073439359665,
        0.020787842571735382,
        0.8625871539115906
      ],
      "min": [
        0.5036386251449585,
        -0.04312073439359665,
        0.020787842571735382,
        0.8625871539115906
      ],
      "type": "VEC4"
    },
    {
      "bufferView": 6,
      "byteOffset": 160,
      "componentType": 5126,
      "count": 1,
      "max": [
        0.0
      ],
      "min": [
        0.0
      ],
      "type": "SCALAR"
    },
    {
      "bufferView": 8,
      "byteOffset": 640,
      "componentType": 5126,
      "count": 1,
      "max": [
        -0.04361729323863983,
        -0.00024687708355486393,
        -0.03184334933757782,
        0.9985406994819641
      ],
      "min": [
        -0.04361729323863983,
        -0.00024687708355486393,
        -0.03184334933757782,
        0.9985406994819641
      ],
      "type": "VEC4"
    },
    {
      "bufferView": 6,
      "byteOffset": 164,
      "componentType": 5126,
      "count": 1,
      "max": [
        0.0
      ],
      "min": [
        0.0
      ],
      "type": "SCALAR"
    },
    {
      "bufferView": 8,
      "byteOffset": 656,
      "componentType": 5126,
      "count": 1,
      "max": [
        0.0001572402543388307,
        0.004684246610850096,
        0.9998713731765747,
        -0.01533843856304884
      ],
      "min": [
        0.0001572402543388307,
        0.004684246610850096,
        0.9998713731765747,
        -0.01533843856304884
      ],
      "type": "VEC4"
    },
    {
      "bufferView": 6,
      "byteOffset": 168,
      "componentType": 5126,
      "count": 1,
      "max": [
        0.0
      ],
      "min": [
        0.0
      ],
      "type": "SCALAR"
    },
    {
      "bufferView": 8,
      "byteOffset": 672,
      "componentType": 5126,
      "count": 1,
      "max": [
        0.4936995208263397,
        0.044519003480672836,
        -0.021677130833268166,
        0.8682217001914978
      ],
      "min": [
        0.4936995208263397,
        0.044519003480672836,
        -0.021677130833268166,
        0.8682217001914978
      ],
      "type": "VEC4"
    },
    {
      "bufferView": 6,
      "byteOffset": 172,
      "componentType": 5126,
      "count": 1,
      "max": [
        0.0
      ],
      "min": [
        0.0
      ],
      "type": "SCALAR"
    },
    {
      "bufferView": 8,
      "byteOffset": 688,
      "componentType": 5126,
      "count": 1,
      "max": [
        -0.03754451870918274,
        0.00025863145128823817,
        0.0318928100168705,
        0.9987858533859253
      ],
      "min": [
        -0.03754451870918274,
        0.00025863145128823817,
        0.0318928100168705,
        0.9987858533859253
      ],
      "type": "VEC4"
    },
    {
      "bufferView": 6,
      "byteOffset": 176,
      "componentType": 5126,
      "count": 1,
      "max": [
        0.0
      ],
      "min": [
        0.0
      ],
      "type": "SCALAR"
    },
    {
      "bufferView": 8,
      "byteOffset": 704,
      "componentType": 5126,
      "count": 1,
      "max": [
        -0.00019786630582530051,
        0.0007742680609226227,
        0.9999053478240967,
        0.013736129738390446
      ],
      "min": [
        -0.00019786630582530051,
        0.0007742680609226227,
        0.9999053478240967,
        0.013736129738390446
      ],
      "type": "VEC4"
    },
    {
      "bufferView": 6,
      "byteOffset": 180,
      "componentType": 5126,
      "count": 1,
      "max": [
        0.0
      ],
      "min": [
        0.0
      ],
      "type": "SCALAR"
    },
    {
      "bufferView": 7,
      "componentType": 5126,
      "count": 1,
      "max": [
        0.008105052635073662,
        103.16603088378906,
        0.21311938762664795
      ],
      "min": [
        0.008105052635073662,
        103.16603088378906,
        0.21311938762664795
      ],
      "type": "VEC3"
    },
    {
      "bufferView": 6,
      "byteOffset": 184,
      "componentType": 5126,
      "count": 1,
      "max": [
        0.0
      ],
      "min": [
        0.0
      ],
      "type": "SCALAR"
    },
    {
      "bufferView": 8,
      "byteOffset": 720,
      "componentType": 5126,
      "count": 1,
      "max": [
        -9.19675858312985e-06,
        2.4894989110180177e-05,
        -0.0008128309273160994,
        0.9999996423721313
      ],
      "min": [
        -9.19675858312985e-06,
        2.4894989110180177e-05,
        -0.0008128309273160994,
        0.9999996423721313
      ],
      "type": "VEC4"
    }
  ],
  "animations": [
    {
      "channels": [
        {
          "sampler": 0,
          "target": {
            "node": 27,
            "path": "rotation"
          }
        },
        {
          "sampler": 1,
          "target": {
            "node": 26,
            "path": "rotation"
          }
        },
        {
          "sampler": 2,
          "target": {
            "node": 25,
            "path": "rotation"
          }
        },
        {
          "sampler": 3,
          "target": {
            "node": 31,
            "path": "rotation"
          }
        },
        {
          "sampler": 4,
          "target": {
            "node": 30,
            "path": "rotation"
          }
        },
        {
          "sampler": 5,
          "target": {
            "node": 29,
            "path": "rotation"
          }
        },
        {
          "sampler": 6,
          "target": {
            "node": 35,
            "path": "rotation"
          }
        },
        {
          "sampler": 7,
          "target": {
            "node": 34,
            "path": "rotation"
          }
        },
        {
          "sampler": 8,
          "target": {
            "node": 33,
            "path": "rotation"
          }
        },
        {
          "sampler": 9,
          "target": {
            "node": 39,
            "path": "rotation"
          }
        },
        {
          "sampler": 10,
          "target": {
            "node": 38,
            "path": "rotation"
          }
        },
        {
          "sampler": 11,
          "target": {
            "node": 37,
            "path": "rotation"
          }
        },
        {
          "sampler": 12,
          "target": {
            "node": 43,
            "path": "rotation"
          }
        },
        {
          "sampler": 13,
          "target": {
            "node": 42,
            "path": "rotation"
          }
        },
        {
          "sampler": 14,
          "target": {
            "node": 41,
            "path": "rotation"
          }
        },
        {
          "sampler": 15,
          "target": {
            "node": 24,
            "path": "rotation"
          }
        },
        {
          "sampler": 16,
          "target": {
            "node": 23,
            "path": "rotation"
          }
        },
        {
          "sampler": 17,
          "target": {
            "node": 22,
            "path": "rotation"
          }
        },
        {
          "sampler": 18,
          "target": {
            "node": 21,
            "path": "rotation"
          }
        },
        {
          "sampler": 19,
          "target": {
            "node": 51,
            "path": "rotation"
          }
        },
        {
          "sampler": 20,
          "target": {
            "node": 50,
            "path": "rotation"
          }
        },
        {
          "sampler": 21,
          "target": {
            "node": 49,
            "path": "rotation"
          }
        },
        {
          "sampler": 22,
          "target": {
            "node": 55,
            "path": "rotation"
          }
        },
        {
          "sampler": 23,
          "target": {
            "node": 54,
            "path": "rotation"
          }
        },
        {
          "sampler": 24,
          "target": {
            "node": 53,
            "path": "rotation"
          }
        },
        {
          "sampler": 25,
          "target": {
            "node": 59,
            "path": "rotation"
          }
        },
        {
          "sampler": 26,
          "target": {
            "node": 58,
            "path": "rotation"
          }
        },
        {
          "sampler": 27,
          "target": {
            "node": 57,
            "path": "rotation"
          }
        },
        {
          "sampler": 28,
          "target": {
            "node": 63,
            "path": "rotation"
          }
        },
        {
          "sampler": 29,
          "target": {
            "node": 62,
            "path": "rotation"
          }
        },
        {
          "sampler": 30,
          "target": {
            "node": 61,
            "path": "rotation"
          }
        },
        {
          "sampler": 31,
          "target": {
            "node": 67,
            "path": "rotation"
          }
        },
        {
          "sampler": 32,
          "target": {
            "node": 66,
            "path": "rotation"
          }
        },
        {
          "sampler": 33,
          "target": {
            "node": 65,
            "path": "rotation"
          }
        },
        {
          "sampler": 34,
          "target": {
            "node": 48,
            "path": "rotation"
          }
        },
        {
          "sampler": 35,
          "target": {
            "node": 47,
            "path": "rotation"
          }
        },
        {
          "sampler": 36,
          "target": {
            "node": 46,
            "path": "rotation"
          }
        },
        {
          "sampler": 37,
          "target": {
            "node": 45,
            "path": "rotation"
          }
        },
        {
          "sampler": 38,
          "target": {
            "node": 15,
            "path": "rotation"
          }
        },
        {
          "sampler": 39,
          "target": {
            "node": 71,
            "path": "rotation"
          }
        },
        {
          "sampler": 40,
          "target": {
            "node": 70,
            "path": "rotation"
          }
        },
        {
          "sampler": 41,
          "target": {
            "node": 69,
            "path": "rotation"
          }
        },
        {
          "sampler": 42,
          "target": {
            "node": 76,
            "path": "rotation"
          }
        },
        {
          "sampler": 43,
          "target": {
            "node": 75,
            "path": "rotation"
          }
        },
        {
          "sampler": 44,
          "target": {
            "node": 74,
            "path": "rotation"
          }
        },
        {
          "sampler": 45,
          "target": {
            "node": 14,
            "path": "translation"
          }
        },
        {
          "sampler": 46,
          "target": {
            "node": 14,
            "path": "rotation"
          }
        }
      ],
      "name": "mixamo.com",
      "samplers": [
        {
          "input": 50,
          "interpolation": "LINEAR",
          "output": 51
        },
        {
          "input": 52,
          "interpolation": "LINEAR",
          "output": 53
        },
        {
          "input": 54,
          "interpolation": "LINEAR",
          "output": 55
        },
        {
          "input": 56,
          "interpolation": "LINEAR",
          "output": 57
        },
        {
          "input": 58,
          "interpolation": "LINEAR",
          "output": 59
        },
        {
          "input": 60,
          "interpolation": "LINEAR",
          "output": 61
        },
        {
          "input": 62,
          "interpolation": "LINEAR",
          "output": 63
        },
        {
          "input": 64,
          "interpolation": "LINEAR",
          "output": 65
        },
        {
          "input": 66,
          "interpolation": "LINEAR",
          "output": 67
        },
        {
          "input": 68,
          "interpolation": "LINEAR",
          "output": 69
        },
        {
          "input": 70,
          "interpolation": "LINEAR",
          "output": 71
        },
        {
          "input": 72,
          "interpolation": "LINEAR",
          "output": 73
        },
        {
          "input": 74,
          "interpolation": "LINEAR",
          "output": 75
        },
        {
          "input": 76,
          "interpolation": "LINEAR",
          "output": 77
        },
        {
          "input": 78,
          "interpolation": "LINEAR",
          "output": 79
        },
        {
          "input": 80,
          "interpolation": "LINEAR",
          "output": 81
        },
        {
          "input": 82,
          "interpolation": "LINEAR",
          "output": 83
        },
        {
          "input": 84,
          "interpolation": "LINEAR",
          "output": 85
        },
        {
          "input": 86,
          "interpolation": "LINEAR",
          "output": 87
        },
        {
          "input": 88,
          "interpolation": "LINEAR",
          "output": 89
        },
        {
          "input": 90,
          "interpolation": "LINEAR",
          "output": 91
        },
        {
          "input": 92,
          "interpolation": "LINEAR",
          "output": 93
        },
        {
          "input": 94,
          "interpolation": "LINEAR",
          "output": 95
        },
        {
          "input": 96,
          "interpolation": "LINEAR",
          "output": 97
        },
        {
          "input": 98,
          "interpolation": "LINEAR",
          "output": 99
        },
        {
          "input": 100,
          "interpolation": "LINEAR",
          "output": 101
        },
        {
          "input": 102,
          "interpolation": "LINEAR",
          "output": 103
        },
        {
          "input": 104,
          "interpolation": "LINEAR",
          "output": 105
        },
        {
          "input": 106,
          "interpolation": "LINEAR",
          "output": 107
        },
        {
          "input": 108,
          "interpolation": "LINEAR",
          "output": 109
        },
        {
          "input": 110,
          "interpolation": "LINEAR",
          "output": 111
        },
        {
          "input": 112,
          "interpolation": "LINEAR",
          "output": 113
        },
        {
          "input": 114,
          "interpolation": "LINEAR",
          "output": 115
        },
        {
          "input": 116,
          "interpolation": "LINEAR",
          "output": 117
        },
        {
          "input": 118,
          "interpolation": "LINEAR",
          "output": 119
        },
        {
          "input": 120,
          "interpolation": "LINEAR",
          "output": 121
        },
        {
          "input": 122,
          "interpolation": "LINEAR",
          "output": 123
        },
        {
          "input": 124,
          "interpolation": "LINEAR",
          "output": 125
        },
        {
          "input": 126,
          "interpolation": "LINEAR",
          "output": 127
        },
        {
          "input": 128,
          "interpolation": "LINEAR",
          "output": 129
        },
        {
          "input": 130,
          "interpolation": "LINEAR",
          "output": 131
        },
        {
          "input": 132,
          "interpolation": "LINEAR",
          "output": 133
        },
        {
          "input": 134,
          "interpolation": "LINEAR",
          "output": 135
        },
        {
          "input": 136,
          "interpolation": "LINEAR",
          "output": 137
        },
        {
          "input": 138,
          "interpolation": "LINEAR",
          "output": 139
        },
        {
          "input": 140,
          "interpolation": "LINEAR",
          "output": 141
        },
        {
          "input": 142,
          "interpolation": "LINEAR",
          "output": 143
        }
      ]
    }
  ],
  "asset": {
    "extras": {
      "author": "Leonardo Carvalho (https://sketchfab.com/livrosparacriancas)",
      "license": "CC-BY-4.0 (http://creativecommons.org/licenses/by/4.0/)",
      "source": "https://sketchfab.com/3d-models/fuse-civilian-1-6fc4bddf4d364e6b9fa2f050011e03ce",
      "title": ".Fuse Civilian 1"
    },
    "generator": "Sketchfab-12.68.0",
    "version": "2.0"
  },
  "bufferViews": [
    {
      "buffer": 0,
      "byteLength": 134792,
      "byteStride": 8,
      "name": "shortBufferViews",
      "target": 34962
    },
    {
      "buffer": 0,
      "byteLength": 264300,
      "byteOffset": 134792,
      "name": "floatBufferViews",
      "target": 34963
    },
    {
      "buffer": 0,
      "byteLength": 134792,
      "byteOffset": 399092,
      "byteStride": 8,
      "name": "floatBufferViews",
      "target": 34962
    },
    {
      "buffer": 0,
      "byteLength": 404376,
      "byteOffset": 533884,
      "byteStride": 12,
      "name": "floatBufferViews",
      "target": 34962
    },
    {
      "buffer": 0,
      "byteLength": 539168,
      "byteOffset": 938260,
      "byteStride": 16,
      "name": "floatBufferViews",
      "target": 34962
    },
    {
      "buffer": 0,
      "byteLength": 4224,
      "byteOffset": 1477428,
      "name": "floatBufferViews"
    },
    {
      "buffer": 0,
      "byteLength": 188,
      "byteOffset": 1481652,
      "name": "floatBufferViews"
    },
    {
      "buffer": 0,
      "byteLength": 12,
      "byteOffset": 1481840,
      "byteStride": 12,
      "name": "floatBufferViews"
    },
    {
      "buffer": 0,
      "byteLength": 736,
      "byteOffset": 1481852,
      "byteStride": 16,
      "name": "floatBufferViews"
    }
  ],
  "buffers": [
    {
      "byteLength": 1482588,
      "uri": "scene.bin"
    }
  ],
  "extensionsRequired": [
    "KHR_materials_pbrSpecularGlossiness"
  ],
  "extensionsUsed": [
    "KHR_materials_pbrSpecularGlossiness"
  ],
  "images": [
    {
      "uri": "textures/Body_diffuse.png"
    },
    {
      "uri": "textures/Body_specularGlossiness.png"
    },
    {
      "uri": "textures/Body_normal.png"
    },
    {
      "uri": "textures/Moustache_diffuse.png"
    },
    {
      "uri": "textures/Moustache_specularGlossiness.png"
    },
    {
      "uri": "textures/Moustache_normal.png"
    },
    {
      "uri": "textures/Beard_diffuse.png"
    },
    {
      "uri": "textures/Beard_specularGlossiness.png"
    },
    {
      "uri": "textures/Beard_normal.png"
    },
    {
      "uri": "textures/Hair_diffuse.png"
    },
    {
      "uri": "textures/Hair_specularGlossiness.png"
    },
    {
      "uri": "textures/Hair_normal.png"
    },
    {
      "uri": "textures/Shoes_diffuse.png"
    },
    {
      "uri": "textures/Shoes_specularGlossiness.png"
    },
    {
      "uri": "textures/Shoes_normal.png"
    },
    {
      "uri": "textures/material_diffuse.png"
    },
    {
      "uri": "textures/material_specularGlossiness.png"
    },
    {
      "uri": "textures/material_normal.png"
    },
    {
      "uri": "textures/Bottom_diffuse.png"
    },
    {
      "uri": "textures/Bottom_specularGlossiness.png"
    },
    {
      "uri": "textures/Bottom_normal.png"
    }
  ],
  "materials": [
    {
      "alphaMode": "BLEND",
      "doubleSided": true,
      "extensions": {
        "KHR_materials_pbrSpecularGlossiness": {
          "diffuseFactor": [
            1.0,
            1.0,
            1.0,
            1.0
          ],
          "diffuseTexture": {
            "index": 0
          },
          "glossinessFactor": 1.0,
          "specularFactor": [
            1.0,
            1.0,
            1.0
          ],
          "specularGlossinessTexture": {
            "index": 1
          }
        }
      },
      "name": "Body",
      "normalTexture": {
        "index": 2
      }
    },
    {
      "alphaMode": "BLEND",
      "doubleSided": true,
      "extensions": {
        "KHR_materials_pbrSpecularGlossiness": {
          "diffuseFactor": [
            1.0,
            1.0,
            1.0,
            1.0
          ],
          "diffuseTexture": {
            "index": 3
          },
          "glossinessFactor": 1.0,
          "specularFactor": [
            1.0,
            1.0,
            1.0
          ],
          "specularGlossinessTexture": {
            "index": 4
          }
        }
      },
      "name": "Moustache",
      "normalTexture": {
        "index": 5
      }
    },
    {
      "alphaMode": "BLEND",
      "doubleSided": true,
      "extensions": {
        "KHR_materials_pbrSpecularGlossiness": {
          "diffuseFactor": [
            1.0,
            1.0,
            1.0,
            1.0
          ],
          "diffuseTexture": {
            "index": 6
          },
          "glossinessFactor": 1.0,
          "specularFactor": [
            1.0,
            1.0,
            1.0
          ],
          "specularGlossinessTexture": {
            "index": 7
          }
        }
      },
      "name": "Beard",
      "normalTexture": {
        "index": 8
      }
    },
    {
      "alphaMode": "BLEND",
      "doubleSided": true,
      "extensions": {
        "KHR_materials_pbrSpecularGlossiness": {
          "diffuseFactor": [
            1.0,
            1.0,
            1.0,
            1.0
          ],
          "diffuseTexture": {
            "index": 9
          },
          "glossinessFactor": 1.0,
          "specularFactor": [
            1.0,
            1.0,
            1.0
          ],
          "specularGlossinessTexture": {
            "index": 10
          }
        }
      },
      "name": "Hair",
      "normalTexture": {
        "index": 11
      }
    },
    {
      "doubleSided": true,
      "extensions": {
        "KHR_materials_pbrSpecularGlossiness": {
          "diffuseFactor": [
            1.0,
            1.0,
            1.0,
            1.0
          ],
          "diffuseTexture": {
            "index": 12
          },
          "glossinessFactor": 1.0,
          "specularFactor": [
            1.0,
            1.0,
            1.0
          ],
          "specularGlossinessTexture": {
            "index": 13
          }
        }
      },
      "name": "Shoes",
      "normalTexture": {
        "index": 14
      }
    },
    {
      "doubleSided": true,
      "extensions": {
        "KHR_materials_pbrSpecularGlossiness": {
          "diffuseFactor": [
            1.0,
            1.0,
            1.0,
            1.0
          ],
          "diffuseTexture": {
            "index": 15
          },
          "glossinessFactor": 1.0,
          "specularFactor": [
            1.0,
            1.0,
            1.0
          ],
          "specularGlossinessTexture": {
            "index": 16
          }
        }
      },
      "name": "material",
      "normalTexture": {
        "index": 17
      }
    },
    {
      "doubleSided": true,
      "extensions": {
        "KHR_materials_pbrSpecularGlossiness": {
          "diffuseFactor": [
            1.0,
            1.0,
            1.0,
            1.0
          ],
          "diffuseTexture": {
            "index": 18
          },
          "glossinessFactor": 1.0,
          "specularFactor": [
            1.0,
            1.0,
            1.0
          ],
          "specularGlossinessTexture": {
            "index": 19
          }
        }
      },
      "name": "Bottom",
      "normalTexture": {
        "index": 20
      }
    }
  ],
  "meshes": [
    {
      "name": "Civilian 1_Body_0",
      "primitives": [
        {
          "attributes": {
            "JOINTS_0": 36,
            "NORMAL": 1,
            "POSITION": 0,
            "TANGENT": 2,
            "TEXCOORD_0": 3,
            "WEIGHTS_0": 37
          },
          "indices": 4,
          "material": 0,
          "mode": 4
        }
      ]
    },
    {
      "name": "Civilian 1_Moustache_0",
      "primitives": [
        {
          "attributes": {
            "JOINTS_0": 38,
            "NORMAL": 6,
            "POSITION": 5,
            "TANGENT": 7,
            "TEXCOORD_0": 8,
            "WEIGHTS_0": 39
          },
          "indices": 9,
          "material": 1,
          "mode": 4
        }
      ]
    },
    {
      "name": "Civilian 1_Beard_0",
      "primitives": [
        {
          "attributes": {
            "JOINTS_0": 40,
            "NORMAL": 11,
            "POSITION": 10,
            "TANGENT": 12,
            "TEXCOORD_0": 13,
            "WEIGHTS_0": 41
          },
          "indices": 14,
          "material": 2,
          "mode": 4
        }
      ]
    },
    {
      "name": "Civilian 1_Hair_0",
      "primitives": [
        {
          "attributes": {
            "JOINTS_0": 42,
            "NORMAL": 16,
            "POSITION": 15,
            "TANGENT": 17,
            "TEXCOORD_0": 18,
            "WEIGHTS_0": 43
          },
          "indices": 19,
          "material": 3,
          "mode": 4
        }
      ]
    },
    {
      "name": "Civilian 1_Shoes_0",
      "primitives": [
        {
          "attributes": {
            "JOINTS_0": 44,
            "NORMAL": 21,
            "POSITION": 20,
            "TANGENT": 22,
            "TEXCOORD_0": 23,
            "WEIGHTS_0": 45
          },
          "indices": 24,
          "material": 4,
          "mode": 4
        }
      ]
    },
    {
      "name": "Civilian 1_Top_0",
      "primitives": [
        {
          "attributes": {
            "JOINTS_0": 46,
            "NORMAL": 26,
            "POSITION": 25,
            "TANGENT": 27,
            "TEXCOORD_0": 28,
            "WEIGHTS_0": 47
          },
          "indices": 29,
          "material": 5,
          "mode": 4
        }
      ]
    },
    {
      "name": "Civilian 1_Bottom_0",
      "primitives": [
        {
          "attributes": {
            "JOINTS_0": 48,
            "NORMAL": 31,
            "POSITION": 30,
            "TANGENT": 32,
            "TEXCOORD_0": 33,
            "WEIGHTS_0": 49
          },
          "indices": 34,
          "material": 6,
          "mode": 4
        }
      ]
    }
  ],
  "nodes": [
    {
      "children": [
        1
      ],
      "matrix": [
        1.0,
        0.0,
        0.0,
        0.0,
        0.0,
        2.220446049250313e-16,
        -1.0,
        0.0,
        0.0,
        1.0,
        2.220446049250313e-16,
        0.0,
        0.0,
        0.0,
        0.0,
        1.0
      ],
      "name": "Sketchfab_model"
    },
    {
      "children": [
        2
      ],
      "matrix": [
        1.0,
        0.0,
        0.0,
        0.0,
        0.0,
        0.0,
        1.0,
        0.0,
        0.0,
        -1.0,
        0.0,
        0.0,
        0.0,
        0.0,
        0.0,
        1.0
      ],
      "name": "civilian 1.fbx"
    },
    {
      "children": [
        3
      ],
      "name": "Object_2"
    },
    {
      "children": [
        4
      ],
      "name": "RootNode"
    },
    {
      "children": [
        5,
        7,
        8,
        9,
        10,
        11,
        12,
        13,
        6,
        79
      ],
      "name": "Object_4"
    },
    {
      "children": [
        14
      ],
      "name": "_rootJoint"
    },
    {
      "matrix": [
        1.0000000000000002,
        0.0,
        4.336808689942018e-18,
        0.0,
        0.0,
        0.9999999999999999,
        0.0,
        0.0,
        -4.336808689942016e-18,
        0.0,
        0.9999999999999999,
        0.0,
        2.1316282072803006e-14,
        -2.842170943040401e-14,
        8.881784197001252e-16,
        1.0
      ],
      "name": "Object_6"
    },
    {
      "mesh": 0,
      "name": "Object_7",
      "skin": 0
    },
    {
      "mesh": 1,
      "name": "Object_8",
      "skin": 0
    },
    {
      "mesh": 2,
      "name": "Object_9",
      "skin": 0
    },
    {
      "mesh": 3,
      "name": "Object_10",
      "skin": 0
    },
    {
      "mesh": 4,
      "name": "Object_11",
      "skin": 0
    },
    {
      "mesh": 5,
      "name": "Object_12",
      "skin": 0
    },
    {
      "mesh": 6,
      "name": "Object_13",
      "skin": 0
    },
    {
      "children": [
        15,
        69,
        74
      ],
      "name": "mixamorig:Hips_01",
      "translation": [
        0.00046539306640625,
        103.08271026611328,
        1.5930832624435425
      ]
    },
    {
      "children": [
        16
      ],
      "name": "mixamorig:Spine_02",
      "rotation": [
        -0.07392516732215881,
        -0.0,
        0.0,
        0.9972637891769409
      ],
      "translation": [
        0.0,
        8.993553161621094,
        -1.340713620185852
      ]
    },
    {
      "children": [
        17
      ],
      "name": "mixamorig:Spine1_03",
      "rotation": [
        1.0316806253740651e-07,
        0.0,
        0.0,
        1.0
      ],
      "translation": [
        0.0,
        10.608410835266113,
        -2.939857068895435e-08
      ]
    },
    {
      "children": [
        18,
        21,
        45
      ],
      "name": "mixamorig:Spine2_04",
      "rotation": [
        -2.7755575615628914e-17,
        -0.0,
        0.0,
        1.0
      ],
      "translation": [
        0.0,
        12.123922348022461,
        -6.088910708967887e-08
      ]
    },
    {
      "children": [
        19
      ],
      "name": "mixamorig:Neck_05",
      "rotation": [
        0.07392506301403046,
        0.0,
        0.0,
        0.9972637891769409
      ],
      "translation": [
        0.0,
        13.639387130737305,
        -2.648596364451805e-06
      ]
    },
    {
      "children": [
        20
      ],
      "name": "mixamorig:Head_06",
      "translation": [
        0.0,
        6.58807373046875,
        2.911905288696289
      ]
    },
    {
      "name": "mixamorig:HeadTop_End_07",
      "translation": [
        0.0,
        22.23809814453125,
        9.829160690307617
      ]
    },
    {
      "children": [
        22
      ],
      "name": "mixamorig:LeftShoulder_08",
      "rotation": [
        -0.5497139692306519,
        -0.438748836517334,
        0.5744721293449402,
        -0.41868337988853455
      ],
      "translation": [
        7.811985015869141,
        11.622203826904297,
        -0.33672988414764404
      ]
    },
    {
      "children": [
        23
      ],
      "name": "mixamorig:LeftArm_09",
      "rotation": [
        -0.08497289568185806,
        -0.00015939722652547061,
        0.0018690744182094932,
        0.9963815212249756
      ],
      "translation": [
        -1.43601397439852e-08,
        16.486404418945313,
        -9.311483495366701e-08
      ]
    },
    {
      "children": [
        24
      ],
      "name": "mixamorig:LeftForeArm_010",
      "rotation": [
        -0.026554785668849945,
        -0.0010359996231272817,
        0.038969941437244415,
        0.9988869428634644
      ],
      "translation": [
        5.743111941569623e-08,
        30.145416259765625,
        1.1360160101503425e-07
      ]
    },
    {
      "children": [
        25,
        29,
        33,
        37,
        41
      ],
      "name": "mixamorig:LeftHand_011",
      "rotation": [
        -0.034366294741630554,
        0.001055113272741437,
        -0.01668999344110489,
        0.9992693662643433
      ],
      "translation": [
        -4.925152552459622e-08,
        29.016193389892578,
        5.044881845606142e-08
      ]
    },
    {
      "children": [
        26
      ],
      "name": "mixamorig:LeftHandThumb1_012",
      "rotation": [
        0.15353572368621826,
        0.045019809156656265,
        0.27774888277053833,
        0.9472357630729675
      ],
      "translation": [
        -3.2981345653533936,
        3.4694972038269043,
        1.565111517906189
      ]
    },
    {
      "children": [
        27
      ],
      "name": "mixamorig:LeftHandThumb2_013",
      "rotation": [
        0.09660543501377106,
        2.0902165864945365e-17,
        5.3743257812717644e-17,
        0.9953227639198303
      ],
      "translation": [
        -0.7218590378761292,
        3.963883399963379,
        -5.392715252128255e-08
      ]
    },
    {
      "children": [
        28
      ],
      "name": "mixamorig:LeftHandThumb3_014",
      "rotation": [
        -0.035076141357421875,
        4.854236963745783e-17,
        1.7037272606656435e-18,
        0.9993846416473389
      ],
      "translation": [
        0.18720342218875885,
        4.133040428161621,
        4.924464747091406e-08
      ]
    },
    {
      "name": "mixamorig:LeftHandThumb4_015",
      "rotation": [
        8.678699980890769e-10,
        2.0816681711721685e-17,
        -2.7755575615628914e-17,
        1.0
      ],
      "translation": [
        0.5346566438674927,
        3.3913023471832275,
        -2.6969019017997198e-08
      ]
    },
    {
      "children": [
        30
      ],
      "name": "mixamorig:LeftHandIndex1_016",
      "rotation": [
        0.10460145026445389,
        -0.0005189059302210808,
        -0.004933547228574753,
        0.9945019483566284
      ],
      "translation": [
        -3.7072417736053467,
        11.29546070098877,
        -0.30533725023269653
      ]
    },
    {
      "children": [
        31
      ],
      "name": "mixamorig:LeftHandIndex2_017",
      "rotation": [
        0.03673053905367851,
        -1.274346567633981e-19,
        -3.467105824024936e-18,
        0.9993252158164978
      ],
      "translation": [
        -0.010039971210062504,
        3.78214168548584,
        -3.609372356550011e-08
      ]
    },
    {
      "children": [
        32
      ],
      "name": "mixamorig:LeftHandIndex3_018",
      "rotation": [
        -0.019537940621376038,
        -1.355716970725676e-19,
        6.937569587746531e-18,
        0.9998091459274292
      ],
      "translation": [
        0.01036432571709156,
        3.449073314666748,
        -9.758969099493697e-08
      ]
    },
    {
      "name": "mixamorig:LeftHandIndex4_019",
      "rotation": [
        -6.212423908635856e-10,
        4.163336342344337e-17,
        -1.0408340855860843e-17,
        1.0
      ],
      "translation": [
        -0.00032434184686280787,
        3.150188446044922,
        1.0738034461610368e-08
      ]
    },
    {
      "children": [
        34
      ],
      "name": "mixamorig:LeftHandMiddle1_020",
      "rotation": [
        0.09837877005338669,
        0.0007799747982062399,
        0.007889539934694767,
        0.9951174855232239
      ],
      "translation": [
        -1.0689202547073364,
        14.698237419128418,
        -0.25007203221321106
      ]
    },
    {
      "children": [
        35
      ],
      "name": "mixamorig:LeftHandMiddle2_021",
      "rotation": [
        0.026247963309288025,
        -2.77460134077478e-17,
        7.285273303871971e-19,
        0.9996554851531982
      ],
      "translation": [
        -0.0016659590182825923,
        3.0054385662078857,
        -2.1836854102730285e-08
      ]
    },
    {
      "children": [
        36
      ],
      "name": "mixamorig:LeftHandMiddle3_022",
      "rotation": [
        -0.047174666076898575,
        -4.158701153063835e-17,
        -1.964040068857892e-18,
        0.9988866448402405
      ],
      "translation": [
        0.009466933086514473,
        2.7021546363830566,
        -1.827115170272009e-08
      ]
    },
    {
      "name": "mixamorig:LeftHandMiddle4_023",
      "rotation": [
        -1.8967520887258615e-08,
        -5.551115123125783e-17,
        -1.0529089204546546e-24,
        1.0
      ],
      "translation": [
        -0.00780098233371973,
        2.1968517303466797,
        -1.7501264437669306e-08
      ]
    },
    {
      "children": [
        38
      ],
      "name": "mixamorig:LeftHandRing1_024",
      "rotation": [
        0.09708999842405319,
        0.001272123190574348,
        0.013039431534707546,
        0.995189368724823
      ],
      "translation": [
        1.229248046875,
        14.978096961975098,
        -0.16922087967395782
      ]
    },
    {
      "children": [
        39
      ],
      "name": "mixamorig:LeftHandRing2_025",
      "rotation": [
        0.008517870679497719,
        0.0,
        0.0,
        0.9999638199806213
      ],
      "translation": [
        0.001796497032046318,
        2.3839762210845947,
        7.166633508859377e-08
      ]
    },
    {
      "children": [
        40
      ],
      "name": "mixamorig:LeftHandRing3_026",
      "rotation": [
        -0.03693139925599098,
        1.3740188794458098e-17,
        3.979606045252325e-18,
        0.9993178248405457
      ],
      "translation": [
        0.004775408189743757,
        2.4440338611602783,
        -2.2719689241057495e-08
      ]
    },
    {
      "name": "mixamorig:LeftHandRing4_027",
      "rotation": [
        1.2711010910493314e-08,
        4.4100178059660164e-26,
        3.469446951953614e-18,
        1.0
      ],
      "translation": [
        -0.006571892183274031,
        1.923707127571106,
        -7.314298500205041e-09
      ]
    },
    {
      "children": [
        42
      ],
      "name": "mixamorig:LeftHandPinky1_028",
      "rotation": [
        0.06498899310827255,
        0.00036163453478366137,
        0.005552589427679777,
        0.9978705644607544
      ],
      "translation": [
        3.5469141006469727,
        10.264259338378906,
        -0.24017369747161865
      ]
    },
    {
      "children": [
        43
      ],
      "name": "mixamorig:LeftHandPinky2_029",
      "rotation": [
        0.004627256188541651,
        0.0,
        0.0,
        0.99998939037323
      ],
      "translation": [
        0.0006758911185897887,
        3.698702812194824,
        5.251052925814292e-09
      ]
    },
    {
      "children": [
        44
      ],
      "name": "mixamorig:LeftHandPinky3_030",
      "rotation": [
        -0.011694892309606075,
        1.3937700499581673e-17,
        -5.041515286639219e-18,
        0.9999316334724426
      ],
      "translation": [
        0.002082660561427474,
        2.9689040184020996,
        2.7767384835897246e-08
      ]
    },
    {
      "name": "mixamorig:LeftHandPinky4_031",
      "rotation": [
        -4.511593765244015e-09,
        6.938893903907228e-17,
        -1.214306433183765e-17,
        1.0
      ],
      "translation": [
        -0.00275856489315629,
        2.6894752979278564,
        -1.4817544524703408e-08
      ]
    },
    {
      "children": [
        46
      ],
      "name": "mixamorig:RightShoulder_032",
      "rotation": [
        0.5525563359260559,
        -0.43652987480163574,
        0.5722959041595459,
        0.4202387034893036
      ],
      "translation": [
        -7.811985015869141,
        11.611699104309082,
        -0.26626431941986084
      ]
    },
    {
      "children": [
        47
      ],
      "name": "mixamorig:RightArm_033",
      "rotation": [
        -0.0864131897687912,
        -0.0006937520229257643,
        0.007998109795153141,
        0.9962270259857178
      ],
      "translation": [
        1.249178893658609e-08,
        16.486404418945313,
        -9.339913731309935e-08
      ]
    },
    {
      "children": [
        48
      ],
      "name": "mixamorig:RightForeArm_034",
      "rotation": [
        -0.024548670276999474,
        0.0013107148697599769,
        -0.05330047011375427,
        0.998275876045227
      ],
      "translation": [
        5.3455295301318984e-08,
        30.155797958374023,
        -3.078054078287096e-08
      ]
    },
    {
      "children": [
        49,
        53,
        57,
        61,
        65
      ],
      "name": "mixamorig:RightHand_035",
      "rotation": [
        -0.005044837016612291,
        -0.008904024958610535,
        0.04556760936975479,
        0.9989089369773865
      ],
      "translation": [
        -7.674604773910687e-08,
        29.043922424316406,
        4.117197249797755e-09
      ]
    },
    {
      "children": [
        50
      ],
      "name": "mixamorig:RightHandThumb1_036",
      "rotation": [
        0.17442922294139862,
        -0.04875737428665161,
        -0.2647537589073181,
        0.9471549987792969
      ],
      "translation": [
        3.2911980152130127,
        3.51943039894104,
        1.7979531288146973
      ]
    },
    {
      "children": [
        51
      ],
      "name": "mixamorig:RightHandThumb2_037",
      "rotation": [
        0.04449431970715523,
        2.4262079214545933e-17,
        -1.0805947344365841e-18,
        0.9990097284317017
      ],
      "translation": [
        0.7913663983345032,
        4.037625789642334,
        -1.1472337746454286e-08
      ]
    },
    {
      "children": [
        52
      ],
      "name": "mixamorig:RightHandThumb3_038",
      "rotation": [
        -0.012733724899590015,
        -1.4230093956868142e-17,
        2.757661012701939e-17,
        0.9999189376831055
      ],
      "translation": [
        -0.1120021790266037,
        3.9967422485351563,
        4.012051135759975e-08
      ]
    },
    {
      "name": "mixamorig:RightHandThumb4_039",
      "rotation": [
        -1.233676805156847e-08,
        -1.3877786980633844e-17,
        -5.551115123125783e-17,
        1.0
      ],
      "translation": [
        -0.6793645620346069,
        3.206080436706543,
        -6.135647367955244e-08
      ]
    },
    {
      "children": [
        54
      ],
      "name": "mixamorig:RightHandIndex1_040",
      "rotation": [
        0.032179102301597595,
        -0.00037977140164002776,
        -0.011795319616794586,
        0.9994125366210938
      ],
      "translation": [
        3.6024763584136963,
        10.648319244384766,
        0.032540686428546906
      ]
    },
    {
      "children": [
        55
      ],
      "name": "mixamorig:RightHandIndex2_041",
      "rotation": [
        0.08115772902965546,
        -1.298729148245417e-17,
        1.1500296192227807e-17,
        0.9967013001441956
      ],
      "translation": [
        0.01630544289946556,
        3.9846341609954834,
        -8.726686928639538e-09
      ]
    },
    {
      "children": [
        56
      ],
      "name": "mixamorig:RightHandIndex3_042",
      "rotation": [
        0.010233916342258453,
        -5.3259044790295307e-20,
        -5.203898285508891e-18,
        0.999947726726532
      ],
      "translation": [
        -0.00694281654432416,
        3.5768778324127197,
        6.621874604206823e-08
      ]
    },
    {
      "name": "mixamorig:RightHandIndex4_043",
      "rotation": [
        -8.895704617373212e-09,
        -2.7755575615628914e-17,
        1.0408340855860843e-17,
        1.0
      ],
      "translation": [
        -0.009362640790641308,
        3.3540611267089844,
        -1.4739268294761132e-07
      ]
    },
    {
      "children": [
        58
      ],
      "name": "mixamorig:RightHandMiddle1_044",
      "rotation": [
        0.035383645445108414,
        -5.2706378482980654e-05,
        -0.0014888118021190166,
        0.9993727207183838
      ],
      "translation": [
        1.2104582786560059,
        11.64057445526123,
        -0.21873514354228973
      ]
    },
    {
      "children": [
        59
      ],
      "name": "mixamorig:RightHandMiddle2_045",
      "rotation": [
        -0.001676263869740069,
        -1.3880677976874717e-17,
        1.7114584008632938e-18,
        0.9999986886978149
      ],
      "translation": [
        0.010274937376379967,
        3.9643568992614746,
        3.81575659957889e-09
      ]
    },
    {
      "children": [
        60
      ],
      "name": "mixamorig:RightHandMiddle3_046",
      "rotation": [
        0.1161271259188652,
        1.418679436052344e-17,
        1.834386745670565e-18,
        0.9932344555854797
      ],
      "translation": [
        0.00980176031589508,
        3.644010543823242,
        4.5092917844158364e-08
      ]
    },
    {
      "name": "mixamorig:RightHandMiddle4_047",
      "rotation": [
        8.021560304882769e-09,
        1.3877787807814457e-17,
        3.469446745158461e-18,
        1.0
      ],
      "translation": [
        -0.020076686516404152,
        3.222999095916748,
        1.1359333029759e-08
      ]
    },
    {
      "children": [
        62
      ],
      "name": "mixamorig:RightHandRing1_048",
      "rotation": [
        -0.0010131087619811296,
        2.148648491129279e-05,
        -0.021200312301516533,
        0.9997747540473938
      ],
      "translation": [
        -1.2094008922576904,
        11.670374870300293,
        -0.04361974447965622
      ]
    },
    {
      "children": [
        63
      ],
      "name": "mixamorig:RightHandRing2_049",
      "rotation": [
        0.04098782315850258,
        2.7838905790537506e-17,
        1.4622579370200825e-18,
        0.9991596341133118
      ],
      "translation": [
        0.008090312592685223,
        3.6056971549987793,
        2.4645316898386227e-09
      ]
    },
    {
      "children": [
        64
      ],
      "name": "mixamorig:RightHandRing3_050",
      "rotation": [
        0.024067793041467667,
        4.17509656039852e-20,
        1.7342211705498343e-18,
        0.9997104406356812
      ],
      "translation": [
        -0.001736892038024962,
        3.457857131958008,
        -3.158680783599266e-08
      ]
    },
    {
      "name": "mixamorig:RightHandRing4_051",
      "rotation": [
        6.554312204087864e-09,
        -8.326672684688674e-17,
        1.0408341683041455e-17,
        1.0
      ],
      "translation": [
        -0.006353405304253101,
        3.1485064029693604,
        3.3006273270075326e-08
      ]
    },
    {
      "children": [
        66
      ],
      "name": "mixamorig:RightHandPinky1_052",
      "rotation": [
        0.043830666691064835,
        -0.0006284912815317512,
        -0.014323924668133259,
        0.9989361763000488
      ],
      "translation": [
        -3.603533983230591,
        10.006467819213867,
        -0.045831840485334396
      ]
    },
    {
      "children": [
        67
      ],
      "name": "mixamorig:RightHandPinky2_053",
      "rotation": [
        0.010042592883110046,
        0.0,
        0.0,
        0.99994957447052
      ],
      "translation": [
        6.367239257087931e-05,
        3.7599241733551025,
        -2.4385485630773474e-08
      ]
    },
    {
      "children": [
        68
      ],
      "name": "mixamorig:RightHandPinky3_054",
      "rotation": [
        -0.02017570286989212,
        1.3944961490998663e-17,
        -3.1887467266013476e-18,
        0.999796450138092
      ],
      "translation": [
        -0.002136863535270095,
        3.1441473960876465,
        -1.5166307321123895e-08
      ]
    },
    {
      "name": "mixamorig:RightHandPinky4_055",
      "rotation": [
        -3.3421545531098218e-09,
        -2.029199848749235e-26,
        6.071532165918825e-18,
        1.0
      ],
      "translation": [
        0.0020731878466904163,
        2.844550848007202,
        -3.9930796447151806e-08
      ]
    },
    {
      "children": [
        70
      ],
      "name": "mixamorig:LeftUpLeg_056",
      "rotation": [
        -0.0005408686120063066,
        -0.04178022965788841,
        0.9990429878234863,
        -0.012933176010847092
      ],
      "translation": [
        8.771730422973633,
        -5.004066467285156,
        -0.30425727367401123
      ]
    },
    {
      "children": [
        71
      ],
      "name": "mixamorig:LeftLeg_057",
      "rotation": [
        0.024009590968489647,
        -0.0007705682655796409,
        -0.03206842020153999,
        0.9991969466209412
      ],
      "translation": [
        1.3873791004925806e-09,
        47.17858123779297,
        -8.266899698128327e-08
      ]
    },
    {
      "children": [
        72
      ],
      "name": "mixamorig:LeftFoot_058",
      "rotation": [
        0.4853503406047821,
        -0.041859377175569534,
        0.023271821439266205,
        0.8730069994926453
      ],
      "translation": [
        -2.9658764333362342e-08,
        39.44643783569336,
        8.79362147543361e-08
      ]
    },
    {
      "children": [
        73
      ],
      "name": "mixamorig:LeftToeBase_059",
      "rotation": [
        0.3076851963996887,
        -0.0010108532151207328,
        0.000326884794048965,
        0.9514877200126648
      ],
      "translation": [
        4.306593481828713e-08,
        19.960296630859375,
        -1.0075728340552814e-07
      ]
    },
    {
      "name": "mixamorig:LeftToe_End_060",
      "rotation": [
        2.0895314645219543e-10,
        -3.469446951953614e-18,
        2.7755575615628914e-17,
        1.0
      ],
      "translation": [
        5.627857291301552e-09,
        7.920287132263184,
        -1.6163967941906776e-09
      ]
    },
    {
      "children": [
        75
      ],
      "name": "mixamorig:RightUpLeg_00",
      "rotation": [
        0.0005401372909545898,
        -0.041723333299160004,
        0.9990453720092773,
        0.012933329679071903
      ],
      "translation": [
        -8.771730422973633,
        -5.004066467285156,
        -0.10579860210418701
      ]
    },
    {
      "children": [
        76
      ],
      "name": "mixamorig:RightLeg_061",
      "rotation": [
        0.01944713667035103,
        0.0006238601636141539,
        0.032057225704193115,
        0.9992967247962952
      ],
      "translation": [
        1.8014288727385974e-08,
        47.178131103515625,
        3.7130384100692027e-08
      ]
    },
    {
      "children": [
        77
      ],
      "name": "mixamorig:RightFoot_062",
      "rotation": [
        0.4811517596244812,
        0.04342851787805557,
        -0.02387438341975212,
        0.875235378742218
      ],
      "translation": [
        -5.0650378113914485e-08,
        39.46067428588867,
        -2.44729605469729e-08
      ]
    },
    {
      "children": [
        78
      ],
      "name": "mixamorig:RightToeBase_063",
      "rotation": [
        0.31693577766418457,
        0.0007435431471094489,
        -0.0002484612341504544,
        0.9484466910362244
      ],
      "translation": [
        -3.576829499252199e-08,
        19.42921257019043,
        5.689049089596665e-07
      ]
    },
    {
      "name": "mixamorig:RightToe_End_064",
      "rotation": [
        2.888457181771109e-11,
        -6.700369425960417e-17,
        6.938893903907228e-18,
        1.0
      ],
      "translation": [
        -2.5063240371991924e-08,
        7.694742679595947,
        -1.1677512290475534e-08
      ]
    },
    {
      "name": "Civilian 1"
    }
  ],
  "samplers": [
    {
      "magFilter": 9729,
      "minFilter": 9987,
      "wrapS": 10497,
      "wrapT": 10497
    }
  ],
  "scene": 0,
  "scenes": [
    {
      "name": "Sketchfab_Scene",
      "nodes": [
        0
      ]
    }
  ],
  "skins": [
    {
      "inverseBindMatrices": 35,
      "joints": [
        5,
        14,
        15,
        16,
        17,
        18,
        19,
        20,
        21,
        22,
        23,
        24,
        25,
        26,
        27,
        28,
        29,
        30,
        31,
        32,
        33,
        34,
        35,
        36,
        37,
        38,
        39,
        40,
        41,
        42,
        43,
        44,
        45,
        46,
        47,
        48,
        49,
        50,
        51,
        52,
        53,
        54,
        55,
        56,
        57,
        58,
        59,
        60,
        61,
        62,
        63,
        64,
        65,
        66,
        67,
        68,
        69,
        70,
        71,
        72,
        73,
        74,
        75,
        76,
        77,
        78
      ],
      "skeleton": 5
    }
  ],
  "textures": [
    {
      "sampler": 0,
      "source": 0
    },
    {
      "sampler": 0,
      "source": 1
    },
    {
      "sampler": 0,
      "source": 2
    },
    {
      "sampler": 0,
      "source": 3
    },
    {
      "sampler": 0,
      "source": 4
    },
    {
      "sampler": 0,
      "source": 5
    },
    {
      "sampler": 0,
      "source": 6
    },
    {
      "sampler": 0,
      "source": 7
    },
    {
      "sampler": 0,
      "source": 8
    },
    {
      "sampler": 0,
      "source": 9
    },
    {
      "sampler": 0,
      "source": 10
    },
    {
      "sampler": 0,
      "source": 11
    },
    {
      "sampler": 0,
      "source": 12
    },
    {
      "sampler": 0,
      "source": 13
    },
    {
      "sampler": 0,
      "source": 14
    },
    {
      "sampler": 0,
      "source": 15
    },
    {
      "sampler": 0,
      "source": 16
    },
    {
      "sampler": 0,
      "source": 17
    },
    {
      "sampler": 0,
      "source": 18
    },
    {
      "sampler": 0,
      "source": 19
    },
    {
      "sampler": 0,
      "source": 20
    }
  ]
}
