{
  "accessors": [
    {
      "bufferView": 3,
      "componentType": 5126,
      "count": 512,
      "max": [
        0.1662815511226654,
        0.11636665463447571,
        0.18810966610908508
      ],
      "min": [
        -0.1662815511226654,
        -0.006018102169036865,
        -0.07631723582744598
      ],
      "type": "VEC3"
    },
    {
      "bufferView": 3,
      "byteOffset": 6144,
      "componentType": 5126,
      "count": 512,
      "max": [
        0.9992261528968811,
        0.98191237449646,
        0.9932274222373962
      ],
      "min": [
        -0.9992261528968811,
        -0.9999971389770508,
        -0.9437810778617859
      ],
      "type": "VEC3"
    },
    {
      "bufferView": 2,
      "componentType": 5126,
      "count": 512,
      "max": [
        0.7207034826278687,
        0.9140632748603821
      ],
      "min": [
        0.2909263074398041,
        0.7927603721618652
      ],
      "type": "VEC2"
    },
    {
      "bufferView": 1,
      "componentType": 5125,
      "count": 768,
      "type": "SCALAR"
    },
    {
      "bufferView": 3,
      "byteOffset": 12288,
      "componentType": 5126,
      "count": 2302,
      "max": [
        0.800585150718689,
        1.791459083557129,
        0.18945734202861786
      ],
      "min": [
        -0.800585150718689,
        0.0023784928489476442,
        -0.11042404174804688
      ],
      "type": "VEC3"
    },
    {
      "bufferView": 3,
      "byteOffset": 39912,
      "componentType": 5126,
      "count": 2302,
      "max": [
        0.9998692870140076,
        0.9883514642715454,
        0.9986984729766846
      ],
      "min": [
        -0.9998692870140076,
        -0.9999972581863403,
        -0.9980534315109253
      ],
      "type": "VEC3"
    },
    {
      "bufferView": 2,
      "byteOffset": 4096,
      "componentType": 5126,
      "count": 2302,
      "max": [
        0.5846708416938782,
        0.8632819652557373
      ],
      "min": [
        0.10351607203483582,
        0.005858737975358963
      ],
      "type": "VEC2"
    },
    {
      "bufferView": 1,
      "byteOffset": 3072,
      "componentType": 5125,
      "count": 3450,
      "type": "SCALAR"
    },
    {
      "bufferView": 3,
      "byteOffset": 67536,
      "componentType": 5126,
      "count": 304,
      "max": [
        0.13036684691905975,
        1.8047796487808228,
        0.18431983888149261
      ],
      "min": [
        -0.13036684691905975,
        1.5288084745407104,
        -0.10223028063774109
      ],
      "type": "VEC3"
    },
    {
      "bufferView": 3,
      "byteOffset": 71184,
      "componentType": 5126,
      "count": 304,
      "max": [
        0.988378643989563,
        0.979093611240387,
        0.9762091040611267
      ],
      "min": [
        -1.0,
        -0.9999986886978149,
        -0.911555826663971
      ],
      "type": "VEC3"
    },
    {
      "bufferView": 2,
      "byteOffset": 22512,
      "componentType": 5126,
      "count": 304,
      "max": [
        0.9199313521385193,
        0.9355635046958923
      ],
      "min": [
        0.7324075698852539,
        0.558596134185791
      ],
      "type": "VEC2"
    },
    {
      "bufferView": 1,
      "byteOffset": 16872,
      "componentType": 5125,
      "count": 462,
      "type": "SCALAR"
    },
    {
      "bufferView": 3,
      "byteOffset": 74832,
      "componentType": 5126,
      "count": 320,
      "max": [
        0.18499283492565155,
        0.7990039587020874,
        0.10566981881856918
      ],
      "min": [
        -0.18499283492565155,
        0.11210997402667999,
        -0.10036211460828781
      ],
      "type": "VEC3"
    },
    {
      "bufferView": 3,
      "byteOffset": 78672,
      "componentType": 5126,
      "count": 320,
      "max": [
        0.999982476234436,
        0.9916029572486877,
        0.9919145703315735
      ],
      "min": [
        -0.999982476234436,
        -0.9917638897895813,
        -0.9735449552536011
      ],
      "type": "VEC3"
    },
    {
      "bufferView": 2,
      "byteOffset": 24944,
      "componentType": 5126,
      "count": 320,
      "max": [
        0.8652342557907104,
        0.9142165184020996
      ],
      "min": [
        0.3319219946861267,
        0.79271399974823
      ],
      "type": "VEC2"
    },
    {
      "bufferView": 1,
      "byteOffset": 18720,
      "componentType": 5125,
      "count": 480,
      "type": "SCALAR"
    },
    {
      "bufferView": 3,
      "byteOffset": 82512,
      "componentType": 5126,
      "count": 353,
      "max": [
        0.9012859463691711,
        1.5516502857208252,
        0.019676771014928818
      ],
      "min": [
        0.8619323968887329,
        0.007908105850219727,
        -0.019676772877573967
      ],
      "type": "VEC3"
    },
    {
      "bufferView": 3,
      "byteOffset": 86748,
      "componentType": 5126,
      "count": 353,
      "max": [
        0.9200521111488342,
        0.9939262866973877,
        0.9200515747070313
      ],
      "min": [
        -0.9200489521026611,
        -1.0,
        -0.9200515747070313
      ],
      "type": "VEC3"
    },
    {
      "bufferView": 2,
      "byteOffset": 27504,
      "componentType": 5126,
      "count": 353,
      "max": [
        0.9605984091758728,
        1.0
      ],
      "min": [
        0.375,
        0.0
      ],
      "type": "VEC2"
    },
    {
      "bufferView": 1,
      "byteOffset": 20640,
      "componentType": 5125,
      "count": 528,
      "type": "SCALAR"
    },
    {
      "bufferView": 3,
      "byteOffset": 90984,
      "componentType": 5126,
      "count": 808,
      "max": [
        0.6429752707481384,
        1.5162183046340942,
        0.2482304871082306
      ],
      "min": [
        -0.6429752707481384,
        0.7926834225654602,
        -0.1747441440820694
      ],
      "type": "VEC3"
    },
    {
      "bufferView": 3,
      "byteOffset": 100680,
      "componentType": 5126,
      "count": 808,
      "max": [
        0.994742751121521,
        0.9848598837852478,
        0.963783323764801
      ],
      "min": [
        -0.994742751121521,
        -1.0,
        -0.996899425983429
      ],
      "type": "VEC3"
    },
    {
      "bufferView": 2,
      "byteOffset": 30328,
      "componentType": 5126,
      "count": 808,
      "max": [
        0.8579627275466919,
        0.9245853424072266
      ],
      "min": [
        0.3690633177757263,
        0.1891237199306488
      ],
      "type": "VEC2"
    },
    {
      "bufferView": 1,
      "byteOffset": 22752,
      "componentType": 5125,
      "count": 1248,
      "type": "SCALAR"
    },
    {
      "bufferView": 5,
      "componentType": 5126,
      "count": 30,
      "max": [
        1.0,
        0.8687000870704651,
        0.34983760118484497,
        0.0,
        0.8039543628692627,
        1.0000001192092896,
        0.8941383361816406,
        0.0,
        0.6074825525283813,
        0.9999973773956299,
        1.0000001192092896,
        0.0,
        1.3225576877593994,
        0.8245020508766174,
        0.46799808740615845,
        1.0
      ],
      "min": [
        -0.9070461392402649,
        -0.8687000274658203,
        -1.0,
        0.0,
        -1.0,
        -1.0,
        -0.3435005843639374,
        0.0,
        -0.9999973773956299,
        -0.10515515506267548,
        -3.8113904565761914e-07,
        0.0,
        -1.3053656816482544,
        -1.5524587631225586,
        -1.121748685836792,
        1.0
      ],
      "type": "MAT4"
    },
    {
      "bufferView": 0,
      "componentType": 5123,
      "count": 512,
      "type": "VEC4"
    },
    {
      "bufferView": 4,
      "componentType": 5126,
      "count": 512,
      "max": [
        1.0,
        0.499899685382843,
        0.18646210432052612,
        0.0
      ],
      "min": [
        0.46303659677505493,
        0.0,
        0.0,
        0.0
      ],
      "type": "VEC4"
    },
    {
      "bufferView": 0,
      "byteOffset": 4096,
      "componentType": 5123,
      "count": 2302,
      "type": "VEC4"
    },
    {
      "bufferView": 4,
      "byteOffset": 8192,
      "componentType": 5126,
      "count": 2302,
      "max": [
        1.0,
        0.4954042434692383,
        0.24375301599502563,
        0.14628556370735168
      ],
      "min": [
        0.43118560314178467,
        0.0,
        0.0,
        0.0
      ],
      "type": "VEC4"
    },
    {
      "bufferView": 0,
      "byteOffset": 22512,
      "componentType": 5123,
      "count": 304,
      "type": "VEC4"
    },
    {
      "bufferView": 4,
      "byteOffset": 45024,
      "componentType": 5126,
      "count": 304,
      "max": [
        1.0,
        0.2206372171640396,
        0.15046654641628265,
        0.0
      ],
      "min": [
        0.6518687009811401,
        0.0,
        0.0,
        0.0
      ],
      "type": "VEC4"
    },
    {
      "bufferView": 0,
      "byteOffset": 24944,
      "componentType": 5123,
      "count": 320,
      "type": "VEC4"
    },
    {
      "bufferView": 4,
      "byteOffset": 49888,
      "componentType": 5126,
      "count": 320,
      "max": [
        1.0,
        0.360150009393692,
        0.27896952629089355,
        0.0
      ],
      "min": [
        0.3608805239200592,
        0.0,
        0.0,
        0.0
      ],
      "type": "VEC4"
    },
    {
      "bufferView": 0,
      "byteOffset": 27504,
      "componentType": 5123,
      "count": 353,
      "type": "VEC4"
    },
    {
      "bufferView": 4,
      "byteOffset": 55008,
      "componentType": 5126,
      "count": 353,
      "max": [
        1.0,
        0.0,
        0.0,
        0.0
      ],
      "min": [
        1.0,
        0.0,
        0.0,
        0.0
      ],
      "type": "VEC4"
    },
    {
      "bufferView": 0,
      "byteOffset": 30328,
      "componentType": 5123,
      "count": 808,
      "type": "VEC4"
    },
    {
      "bufferView": 4,
      "byteOffset": 60656,
      "componentType": 5126,
      "count": 808,
      "max": [
        1.0,
        0.49694204330444336,
        0.1297975778579712,
        0.04628433287143707
      ],
      "min": [
        0.46304088830947876,
        0.0,
        0.0,
        0.0
      ],
      "type": "VEC4"
    },
    {
      "bufferView": 6,
      "componentType": 5126,
      "count": 7,
      "max": [
        2.0
      ],
      "min": [
        0.0
      ],
      "type": "SCALAR"
    },
    {
      "bufferView": 7,
      "componentType": 5126,
      "count": 7,
      "max": [
        0.0,
        0.8467757105827332,
        0.0
      ],
      "min": [
        0.0,
        0.8260630965232849,
        0.0
      ],
      "type": "VEC3"
    },
    {
      "bufferView": 6,
      "byteOffset": 28,
      "componentType": 5126,
      "count": 7,
      "max": [
        2.0
      ],
      "min": [
        0.0
      ],
      "type": "SCALAR"
    },
    {
      "bufferView": 8,
      "componentType": 5126,
      "count": 7,
      "max": [
        0.043619394302368164,
        2.778201892545101e-17,
        1.0399674010841409e-08,
        1.0
      ],
      "min": [
        -3.5527119847346064e-15,
        -1.8820662550220727e-37,
        -3.0312798803343743e-28,
        0.9990482330322266
      ],
      "type": "VEC4"
    },
    {
      "bufferView": 6,
      "byteOffset": 56,
      "componentType": 5126,
      "count": 5,
      "max": [
        2.0
      ],
      "min": [
        0.0
      ],
      "type": "SCALAR"
    },
    {
      "bufferView": 7,
      "byteOffset": 84,
      "componentType": 5126,
      "count": 5,
      "max": [
        1.0,
        0.9999999403953552,
        0.9999999403953552
      ],
      "min": [
        1.0,
        0.9999998807907104,
        0.9999998807907104
      ],
      "type": "VEC3"
    },
    {
      "bufferView": 6,
      "byteOffset": 76,
      "componentType": 5126,
      "count": 6,
      "max": [
        2.0
      ],
      "min": [
        0.0
      ],
      "type": "SCALAR"
    },
    {
      "bufferView": 7,
      "byteOffset": 144,
      "componentType": 5126,
      "count": 6,
      "max": [
        0.0,
        0.2475733757019043,
        7.450580596923828e-09
      ],
      "min": [
        0.0,
        0.2475733757019043,
        0.0
      ],
      "type": "VEC3"
    },
    {
      "bufferView": 6,
      "byteOffset": 100,
      "componentType": 5126,
      "count": 7,
      "max": [
        2.0
      ],
      "min": [
        0.0
      ],
      "type": "SCALAR"
    },
    {
      "bufferView": 8,
      "byteOffset": 112,
      "componentType": 5126,
      "count": 7,
      "max": [
        0.043523140251636505,
        0.06583676487207413,
        -3.0292258760486853e-28,
        1.0
      ],
      "min": [
        -3.5527119847346064e-15,
        0.0,
        -0.008667562156915665,
        0.9968430995941162
      ],
      "type": "VEC4"
    },
    {
      "bufferView": 6,
      "byteOffset": 128,
      "componentType": 5126,
      "count": 7,
      "max": [
        2.0
      ],
      "min": [
        0.0
      ],
      "type": "SCALAR"
    },
    {
      "bufferView": 7,
      "byteOffset": 216,
      "componentType": 5126,
      "count": 7,
      "max": [
        1.0,
        1.0000001192092896,
        1.0
      ],
      "min": [
        0.9999999403953552,
        0.9999999403953552,
        0.9999999403953552
      ],
      "type": "VEC3"
    },
    {
      "bufferView": 6,
      "byteOffset": 156,
      "componentType": 5126,
      "count": 7,
      "max": [
        2.0
      ],
      "min": [
        0.0
      ],
      "type": "SCALAR"
    },
    {
      "bufferView": 7,
      "byteOffset": 300,
      "componentType": 5126,
      "count": 7,
      "max": [
        1.862645149230957e-09,
        0.13490331172943115,
        0.0
      ],
      "min": [
        0.0,
        0.1349031925201416,
        0.0
      ],
      "type": "VEC3"
    },
    {
      "bufferView": 6,
      "byteOffset": 184,
      "componentType": 5126,
      "count": 7,
      "max": [
        2.0
      ],
      "min": [
        0.0
      ],
      "type": "SCALAR"
    },
    {
      "bufferView": 8,
      "byteOffset": 224,
      "componentType": 5126,
      "count": 7,
      "max": [
        7.450577044210149e-09,
        1.5861587598919868e-09,
        4.656613428188905e-10,
        1.0
      ],
      "min": [
        -1.3969874146368966e-09,
        -8.086114000604994e-10,
        -1.1641532182693481e-10,
        1.0
      ],
      "type": "VEC4"
    },
    {
      "bufferView": 6,
      "byteOffset": 212,
      "componentType": 5126,
      "count": 7,
      "max": [
        2.0
      ],
      "min": [
        0.0
      ],
      "type": "SCALAR"
    },
    {
      "bufferView": 7,
      "byteOffset": 384,
      "componentType": 5126,
      "count": 7,
      "max": [
        1.0,
        1.0,
        1.0
      ],
      "min": [
        0.9999999403953552,
        0.9999999403953552,
        0.9999999403953552
      ],
      "type": "VEC3"
    },
    {
      "bufferView": 6,
      "byteOffset": 240,
      "componentType": 5126,
      "count": 7,
      "max": [
        2.0
      ],
      "min": [
        0.0
      ],
      "type": "SCALAR"
    },
    {
      "bufferView": 7,
      "byteOffset": 468,
      "componentType": 5126,
      "count": 7,
      "max": [
        2.3283064365386963e-09,
        0.05119907855987549,
        7.450580596923828e-09
      ],
      "min": [
        -1.1641532182693481e-09,
        0.05119884014129639,
        -2.9802322387695313e-08
      ],
      "type": "VEC3"
    },
    {
      "bufferView": 6,
      "byteOffset": 268,
      "componentType": 5126,
      "count": 32,
      "max": [
        2.0
      ],
      "min": [
        0.0
      ],
      "type": "SCALAR"
    },
    {
      "bufferView": 8,
      "byteOffset": 336,
      "componentType": 5126,
      "count": 32,
      "max": [
        -3.5527119847346064e-15,
        0.00010079349885927513,
        0.0011519918916746974,
        1.0
      ],
      "min": [
        -0.08715575933456421,
        -5.158158344897856e-10,
        -2.0635944508740067e-08,
        0.9961947202682495
      ],
      "type": "VEC4"
    },
    {
      "bufferView": 6,
      "byteOffset": 396,
      "componentType": 5126,
      "count": 23,
      "max": [
        2.0
      ],
      "min": [
        0.0
      ],
      "type": "SCALAR"
    },
    {
      "bufferView": 7,
      "byteOffset": 552,
      "componentType": 5126,
      "count": 23,
      "max": [
        1.0,
        1.0000001192092896,
        1.0000001192092896
      ],
      "min": [
        0.9999999403953552,
        0.9999999403953552,
        0.9999999403953552
      ],
      "type": "VEC3"
    },
    {
      "bufferView": 6,
      "byteOffset": 488,
      "componentType": 5126,
      "count": 32,
      "max": [
        2.0
      ],
      "min": [
        0.0
      ],
      "type": "SCALAR"
    },
    {
      "bufferView": 7,
      "byteOffset": 828,
      "componentType": 5126,
      "count": 32,
      "max": [
        0.208088681101799,
        0.041305601596832275,
        0.06869591027498245
      ],
      "min": [
        0.19798506796360016,
        0.03806142136454582,
        0.03385651856660843
      ],
      "type": "VEC3"
    },
    {
      "bufferView": 6,
      "byteOffset": 616,
      "componentType": 5126,
      "count": 32,
      "max": [
        2.0
      ],
      "min": [
        0.0
      ],
      "type": "SCALAR"
    },
    {
      "bufferView": 8,
      "byteOffset": 848,
      "componentType": 5126,
      "count": 32,
      "max": [
        0.25971925258636475,
        0.16634972393512726,
        -0.840479850769043,
        0.5054362416267395
      ],
      "min": [
        -0.024944035336375237,
        0.04251491278409958,
        -0.8639732003211975,
        0.44549673795700073
      ],
      "type": "VEC4"
    },
    {
      "bufferView": 6,
      "byteOffset": 744,
      "componentType": 5126,
      "count": 32,
      "max": [
        2.0
      ],
      "min": [
        0.0
      ],
      "type": "SCALAR"
    },
    {
      "bufferView": 7,
      "byteOffset": 1212,
      "componentType": 5126,
      "count": 32,
      "max": [
        1.000000238418579,
        1.0000001192092896,
        1.000000238418579
      ],
      "min": [
        0.9999999403953552,
        0.9999999403953552,
        1.0000001192092896
      ],
      "type": "VEC3"
    },
    {
      "bufferView": 6,
      "byteOffset": 872,
      "componentType": 5126,
      "count": 32,
      "max": [
        2.0
      ],
      "min": [
        0.0
      ],
      "type": "SCALAR"
    },
    {
      "bufferView": 7,
      "byteOffset": 1596,
      "componentType": 5126,
      "count": 32,
      "max": [
        2.2143674982544326e-07,
        0.28548020124435425,
        9.333736272765236e-08
      ],
      "min": [
        -2.2084705619818124e-08,
        0.28547993302345276,
        -7.117715483673237e-08
      ],
      "type": "VEC3"
    },
    {
      "bufferView": 6,
      "byteOffset": 1000,
      "componentType": 5126,
      "count": 32,
      "max": [
        2.0
      ],
      "min": [
        0.0
      ],
      "type": "SCALAR"
    },
    {
      "bufferView": 8,
      "byteOffset": 1360,
      "componentType": 5126,
      "count": 32,
      "max": [
        0.4830206334590912,
        -4.2212643165839836e-05,
        -0.03133082017302513,
        0.9945178627967834
      ],
      "min": [
        0.09976290911436081,
        -0.10706831514835358,
        -0.3052099645137787,
        0.8136795163154602
      ],
      "type": "VEC4"
    },
    {
      "bufferView": 6,
      "byteOffset": 1128,
      "componentType": 5126,
      "count": 30,
      "max": [
        2.0
      ],
      "min": [
        0.0
      ],
      "type": "SCALAR"
    },
    {
      "bufferView": 7,
      "byteOffset": 1980,
      "componentType": 5126,
      "count": 30,
      "max": [
        1.000000238418579,
        1.0000003576278687,
        1.000000238418579
      ],
      "min": [
        1.0,
        1.0,
        0.9999999403953552
      ],
      "type": "VEC3"
    },
    {
      "bufferView": 6,
      "byteOffset": 1248,
      "componentType": 5126,
      "count": 32,
      "max": [
        2.0
      ],
      "min": [
        0.0
      ],
      "type": "SCALAR"
    },
    {
      "bufferView": 7,
      "byteOffset": 2340,
      "componentType": 5126,
      "count": 32,
      "max": [
        1.1528935317528521e-07,
        0.2622278332710266,
        2.0702792369320377e-08
      ],
      "min": [
        -2.4241080609499477e-07,
        0.26222771406173706,
        -2.7498820998062e-08
      ],
      "type": "VEC3"
    },
    {
      "bufferView": 6,
      "byteOffset": 1376,
      "componentType": 5126,
      "count": 32,
      "max": [
        2.0
      ],
      "min": [
        0.0
      ],
      "type": "SCALAR"
    },
    {
      "bufferView": 8,
      "byteOffset": 1872,
      "componentType": 5126,
      "count": 32,
      "max": [
        0.05703636631369591,
        0.18785208463668823,
        0.08198019862174988,
        0.9963085055351257
      ],
      "min": [
        -0.10315492004156113,
        -1.3381976714299526e-05,
        0.006673534866422415,
        0.9771067500114441
      ],
      "type": "VEC4"
    },
    {
      "bufferView": 6,
      "byteOffset": 1504,
      "componentType": 5126,
      "count": 29,
      "max": [
        2.0
      ],
      "min": [
        0.0
      ],
      "type": "SCALAR"
    },
    {
      "bufferView": 7,
      "byteOffset": 2724,
      "componentType": 5126,
      "count": 29,
      "max": [
        1.0000001192092896,
        1.0,
        1.0
      ],
      "min": [
        0.9999999403953552,
        0.9999998807907104,
        0.9999997615814209
      ],
      "type": "VEC3"
    },
    {
      "bufferView": 6,
      "byteOffset": 1620,
      "componentType": 5126,
      "count": 32,
      "max": [
        2.0
      ],
      "min": [
        0.0
      ],
      "type": "SCALAR"
    },
    {
      "bufferView": 7,
      "byteOffset": 3072,
      "componentType": 5126,
      "count": 32,
      "max": [
        -6.191435630853448e-08,
        0.05465007945895195,
        5.186394957945595e-08
      ],
      "min": [
        -2.473008748893335e-07,
        0.05464979261159897,
        -3.240104717860959e-08
      ],
      "type": "VEC3"
    },
    {
      "bufferView": 6,
      "byteOffset": 1748,
      "componentType": 5126,
      "count": 32,
      "max": [
        2.0
      ],
      "min": [
        0.0
      ],
      "type": "SCALAR"
    },
    {
      "bufferView": 8,
      "byteOffset": 2384,
      "componentType": 5126,
      "count": 32,
      "max": [
        0.25976166129112244,
        0.0021052283700555563,
        -0.03993077576160431,
        0.9978143572807312
      ],
      "min": [
        0.05260854959487915,
        -0.3406359553337097,
        -0.46549463272094727,
        0.7744713425636292
      ],
      "type": "VEC4"
    },
    {
      "bufferView": 6,
      "byteOffset": 1876,
      "componentType": 5126,
      "count": 31,
      "max": [
        2.0
      ],
      "min": [
        0.0
      ],
      "type": "SCALAR"
    },
    {
      "bufferView": 7,
      "byteOffset": 3456,
      "componentType": 5126,
      "count": 31,
      "max": [
        1.0000001192092896,
        1.0000001192092896,
        1.000000238418579
      ],
      "min": [
        0.9999998807907104,
        1.0,
        1.0
      ],
      "type": "VEC3"
    },
    {
      "bufferView": 6,
      "byteOffset": 2000,
      "componentType": 5126,
      "count": 32,
      "max": [
        2.0
      ],
      "min": [
        0.0
      ],
      "type": "SCALAR"
    },
    {
      "bufferView": 7,
      "byteOffset": 3828,
      "componentType": 5126,
      "count": 32,
      "max": [
        1.4605342357754125e-07,
        0.058664798736572266,
        5.806539249419984e-08
      ],
      "min": [
        -5.747537912270673e-08,
        0.05866463482379913,
        -1.2074853827925836e-07
      ],
      "type": "VEC3"
    },
    {
      "bufferView": 6,
      "byteOffset": 2128,
      "componentType": 5126,
      "count": 32,
      "max": [
        2.0
      ],
      "min": [
        0.0
      ],
      "type": "SCALAR"
    },
    {
      "bufferView": 8,
      "byteOffset": 2896,
      "componentType": 5126,
      "count": 32,
      "max": [
        1.6441443051462556e-07,
        0.030090032145380974,
        -0.17409668862819672,
        0.9847285747528076
      ],
      "min": [
        -0.07797615230083466,
        -9.535392564430367e-08,
        -0.6493088006973267,
        0.7559182643890381
      ],
      "type": "VEC4"
    },
    {
      "bufferView": 6,
      "byteOffset": 2256,
      "componentType": 5126,
      "count": 31,
      "max": [
        2.0
      ],
      "min": [
        0.0
      ],
      "type": "SCALAR"
    },
    {
      "bufferView": 7,
      "byteOffset": 4212,
      "componentType": 5126,
      "count": 31,
      "max": [
        0.9999999403953552,
        1.0000001192092896,
        0.9999998807907104
      ],
      "min": [
        0.9999997019767761,
        0.9999998211860657,
        0.9999997019767761
      ],
      "type": "VEC3"
    },
    {
      "bufferView": 6,
      "byteOffset": 2380,
      "componentType": 5126,
      "count": 32,
      "max": [
        2.0
      ],
      "min": [
        0.0
      ],
      "type": "SCALAR"
    },
    {
      "bufferView": 7,
      "byteOffset": 4584,
      "componentType": 5126,
      "count": 32,
      "max": [
        -0.002749878913164139,
        0.009382592514157295,
        0.02643694542348385
      ],
      "min": [
        -0.0027500190772116184,
        0.009382443502545357,
        0.02643682435154915
      ],
      "type": "VEC3"
    },
    {
      "bufferView": 6,
      "byteOffset": 2508,
      "componentType": 5126,
      "count": 30,
      "max": [
        2.0
      ],
      "min": [
        0.0
      ],
      "type": "SCALAR"
    },
    {
      "bufferView": 8,
      "byteOffset": 3408,
      "componentType": 5126,
      "count": 30,
      "max": [
        0.7528442144393921,
        -0.2467738389968872,
        -0.23953139781951904,
        0.8230053186416626
      ],
      "min": [
        0.4476388990879059,
        -0.25640541315078735,
        -0.2689288556575775,
        0.5477277040481567
      ],
      "type": "VEC4"
    },
    {
      "bufferView": 6,
      "byteOffset": 2628,
      "componentType": 5126,
      "count": 32,
      "max": [
        2.0
      ],
      "min": [
        0.0
      ],
      "type": "SCALAR"
    },
    {
      "bufferView": 7,
      "byteOffset": 4968,
      "componentType": 5126,
      "count": 32,
      "max": [
        1.0000001192092896,
        1.0,
        1.0
      ],
      "min": [
        0.9999998807907104,
        0.9999997019767761,
        0.9999997615814209
      ],
      "type": "VEC3"
    },
    {
      "bufferView": 6,
      "byteOffset": 2756,
      "componentType": 5126,
      "count": 32,
      "max": [
        2.0
      ],
      "min": [
        0.0
      ],
      "type": "SCALAR"
    },
    {
      "bufferView": 7,
      "byteOffset": 5352,
      "componentType": 5126,
      "count": 32,
      "max": [
        1.249356529342549e-07,
        0.049909528344869614,
        7.86360132565278e-08
      ],
      "min": [
        -3.9549142627492984e-08,
        0.049909427762031555,
        -2.8928431206054483e-08
      ],
      "type": "VEC3"
    },
    {
      "bufferView": 6,
      "byteOffset": 2884,
      "componentType": 5126,
      "count": 30,
      "max": [
        2.0
      ],
      "min": [
        0.0
      ],
      "type": "SCALAR"
    },
    {
      "bufferView": 8,
      "byteOffset": 3888,
      "componentType": 5126,
      "count": 30,
      "max": [
        -0.1882406622171402,
        0.3753025233745575,
        0.09309857338666916,
        0.9679549336433411
      ],
      "min": [
        -0.3908487558364868,
        -0.1772000789642334,
        -0.4974631369113922,
        0.6774332523345947
      ],
      "type": "VEC4"
    },
    {
      "bufferView": 6,
      "byteOffset": 3004,
      "componentType": 5126,
      "count": 31,
      "max": [
        2.0
      ],
      "min": [
        0.0
      ],
      "type": "SCALAR"
    },
    {
      "bufferView": 7,
      "byteOffset": 5736,
      "componentType": 5126,
      "count": 31,
      "max": [
        1.000000238418579,
        1.0000001192092896,
        1.0000001192092896
      ],
      "min": [
        0.9999999403953552,
        0.9999998807907104,
        0.9999999403953552
      ],
      "type": "VEC3"
    },
    {
      "bufferView": 6,
      "byteOffset": 3128,
      "componentType": 5126,
      "count": 32,
      "max": [
        2.0
      ],
      "min": [
        0.0
      ],
      "type": "SCALAR"
    },
    {
      "bufferView": 7,
      "byteOffset": 6108,
      "componentType": 5126,
      "count": 32,
      "max": [
        -0.20060250163078308,
        0.04005089029669762,
        0.03544382378458977
      ],
      "min": [
        -0.2008577585220337,
        0.03806126490235329,
        0.0338563546538353
      ],
      "type": "VEC3"
    },
    {
      "bufferView": 6,
      "byteOffset": 3256,
      "componentType": 5126,
      "count": 32,
      "max": [
        2.0
      ],
      "min": [
        0.0
      ],
      "type": "SCALAR"
    },
    {
      "bufferView": 8,
      "byteOffset": 4368,
      "componentType": 5126,
      "count": 32,
      "max": [
        0.5637893676757813,
        0.45760634541511536,
        0.8527145385742188,
        0.4995076060295105
      ],
      "min": [
        0.12491845339536667,
        -0.12957605719566345,
        0.5529125332832336,
        0.40739908814430237
      ],
      "type": "VEC4"
    },
    {
      "bufferView": 6,
      "byteOffset": 3384,
      "componentType": 5126,
      "count": 32,
      "max": [
        2.0
      ],
      "min": [
        0.0
      ],
      "type": "SCALAR"
    },
    {
      "bufferView": 7,
      "byteOffset": 6492,
      "componentType": 5126,
      "count": 32,
      "max": [
        1.0000001192092896,
        1.0000003576278687,
        1.000000238418579
      ],
      "min": [
        0.9999998211860657,
        0.9999998807907104,
        0.9999998807907104
      ],
      "type": "VEC3"
    },
    {
      "bufferView": 6,
      "byteOffset": 3512,
      "componentType": 5126,
      "count": 32,
      "max": [
        2.0
      ],
      "min": [
        0.0
      ],
      "type": "SCALAR"
    },
    {
      "bufferView": 7,
      "byteOffset": 6876,
      "componentType": 5126,
      "count": 32,
      "max": [
        2.782554133773374e-07,
        0.28548020124435425,
        8.10224207725696e-08
      ],
      "min": [
        -7.754726283337732e-08,
        0.28547999262809753,
        -1.0738948219568556e-07
      ],
      "type": "VEC3"
    },
    {
      "bufferView": 6,
      "byteOffset": 3640,
      "componentType": 5126,
      "count": 32,
      "max": [
        2.0
      ],
      "min": [
        0.0
      ],
      "type": "SCALAR"
    },
    {
      "bufferView": 8,
      "byteOffset": 4880,
      "componentType": 5126,
      "count": 32,
      "max": [
        0.18446993827819824,
        0.7052817344665527,
        0.35096901655197144,
        0.9407861232757568
      ],
      "min": [
        0.10032965987920761,
        0.3224705755710602,
        0.029465753585100174,
        0.5876813530921936
      ],
      "type": "VEC4"
    },
    {
      "bufferView": 6,
      "byteOffset": 3768,
      "componentType": 5126,
      "count": 32,
      "max": [
        2.0
      ],
      "min": [
        0.0
      ],
      "type": "SCALAR"
    },
    {
      "bufferView": 7,
      "byteOffset": 7260,
      "componentType": 5126,
      "count": 32,
      "max": [
        1.0,
        1.0,
        1.000000238418579
      ],
      "min": [
        0.9999998211860657,
        0.9999997019767761,
        0.9999998807907104
      ],
      "type": "VEC3"
    },
    {
      "bufferView": 6,
      "byteOffset": 3896,
      "componentType": 5126,
      "count": 32,
      "max": [
        2.0
      ],
      "min": [
        0.0
      ],
      "type": "SCALAR"
    },
    {
      "bufferView": 7,
      "byteOffset": 7644,
      "componentType": 5126,
      "count": 32,
      "max": [
        6.985844436258049e-08,
        0.2622280716896057,
        1.4241744850096438e-07
      ],
      "min": [
        -1.4550757043707563e-07,
        0.262227863073349,
        -6.703599808588478e-08
      ],
      "type": "VEC3"
    },
    {
      "bufferView": 6,
      "byteOffset": 4024,
      "componentType": 5126,
      "count": 32,
      "max": [
        2.0
      ],
      "min": [
        0.0
      ],
      "type": "SCALAR"
    },
    {
      "bufferView": 8,
      "byteOffset": 5392,
      "componentType": 5126,
      "count": 32,
      "max": [
        -0.10322097688913345,
        -0.3150728940963745,
        -0.005558736622333527,
        0.9434212446212769
      ],
      "min": [
        -0.10322102159261703,
        -0.3150728940963745,
        -0.005558772012591362,
        0.9434212446212769
      ],
      "type": "VEC4"
    },
    {
      "bufferView": 6,
      "byteOffset": 4152,
      "componentType": 5126,
      "count": 32,
      "max": [
        2.0
      ],
      "min": [
        0.0
      ],
      "type": "SCALAR"
    },
    {
      "bufferView": 7,
      "byteOffset": 8028,
      "componentType": 5126,
      "count": 32,
      "max": [
        1.0000001192092896,
        1.0000003576278687,
        1.0000001192092896
      ],
      "min": [
        0.9999998807907104,
        0.9999999403953552,
        0.9999998807907104
      ],
      "type": "VEC3"
    },
    {
      "bufferView": 6,
      "byteOffset": 4280,
      "componentType": 5126,
      "count": 32,
      "max": [
        2.0
      ],
      "min": [
        0.0
      ],
      "type": "SCALAR"
    },
    {
      "bufferView": 7,
      "byteOffset": 8412,
      "componentType": 5126,
      "count": 32,
      "max": [
        -3.543861382127034e-08,
        0.05465001240372658,
        1.277007868338842e-07
      ],
      "min": [
        -2.573039239450736e-07,
        0.05464989319443703,
        -1.0974584085943206e-07
      ],
      "type": "VEC3"
    },
    {
      "bufferView": 6,
      "byteOffset": 4408,
      "componentType": 5126,
      "count": 32,
      "max": [
        2.0
      ],
      "min": [
        0.0
      ],
      "type": "SCALAR"
    },
    {
      "bufferView": 8,
      "byteOffset": 5904,
      "componentType": 5126,
      "count": 32,
      "max": [
        0.11273489147424698,
        0.38923949003219604,
        0.18957121670246124,
        0.9843529462814331
      ],
      "min": [
        0.05850087106227875,
        0.16336233913898468,
        0.030655303969979286,
        0.894341230392456
      ],
      "type": "VEC4"
    },
    {
      "bufferView": 6,
      "byteOffset": 4536,
      "componentType": 5126,
      "count": 32,
      "max": [
        2.0
      ],
      "min": [
        0.0
      ],
      "type": "SCALAR"
    },
    {
      "bufferView": 7,
      "byteOffset": 8796,
      "componentType": 5126,
      "count": 32,
      "max": [
        1.0000001192092896,
        1.0,
        1.0000001192092896
      ],
      "min": [
        0.9999998211860657,
        0.9999997615814209,
        0.9999998807907104
      ],
      "type": "VEC3"
    },
    {
      "bufferView": 6,
      "byteOffset": 4664,
      "componentType": 5126,
      "count": 32,
      "max": [
        2.0
      ],
      "min": [
        0.0
      ],
      "type": "SCALAR"
    },
    {
      "bufferView": 7,
      "byteOffset": 9180,
      "componentType": 5126,
      "count": 32,
      "max": [
        -8.05659539082626e-08,
        0.05866474658250809,
        1.212336400158165e-07
      ],
      "min": [
        -3.096409955105628e-07,
        0.05866466090083122,
        -1.171850243508743e-07
      ],
      "type": "VEC3"
    },
    {
      "bufferView": 6,
      "byteOffset": 4792,
      "componentType": 5126,
      "count": 32,
      "max": [
        2.0
      ],
      "min": [
        0.0
      ],
      "type": "SCALAR"
    },
    {
      "bufferView": 8,
      "byteOffset": 6416,
      "componentType": 5126,
      "count": 32,
      "max": [
        -1.1238974906291332e-07,
        4.5741663257103937e-07,
        0.17409741878509521,
        0.9847284555435181
      ],
      "min": [
        -1.277119281439809e-07,
        4.125851660319313e-07,
        0.17409740388393402,
        0.9847284555435181
      ],
      "type": "VEC4"
    },
    {
      "bufferView": 6,
      "byteOffset": 4920,
      "componentType": 5126,
      "count": 31,
      "max": [
        2.0
      ],
      "min": [
        0.0
      ],
      "type": "SCALAR"
    },
    {
      "bufferView": 7,
      "byteOffset": 9564,
      "componentType": 5126,
      "count": 31,
      "max": [
        1.0000001192092896,
        1.0000001192092896,
        1.0000001192092896
      ],
      "min": [
        0.9999998807907104,
        0.9999998807907104,
        0.9999998807907104
      ],
      "type": "VEC3"
    },
    {
      "bufferView": 6,
      "byteOffset": 5044,
      "componentType": 5126,
      "count": 31,
      "max": [
        2.0
      ],
      "min": [
        0.0
      ],
      "type": "SCALAR"
    },
    {
      "bufferView": 7,
      "byteOffset": 9936,
      "componentType": 5126,
      "count": 31,
      "max": [
        0.01124364510178566,
        0.009382600896060467,
        0.024084411561489105
      ],
      "min": [
        0.011243441142141819,
        0.009382356889545918,
        0.024084117263555527
      ],
      "type": "VEC3"
    },
    {
      "bufferView": 6,
      "byteOffset": 5168,
      "componentType": 5126,
      "count": 28,
      "max": [
        2.0
      ],
      "min": [
        0.0
      ],
      "type": "SCALAR"
    },
    {
      "bufferView": 8,
      "byteOffset": 6928,
      "componentType": 5126,
      "count": 28,
      "max": [
        0.45071613788604736,
        0.5008172392845154,
        0.23368889093399048,
        0.7010183334350586
      ],
      "min": [
        0.4507160782814026,
        0.5008171796798706,
        0.23368887603282928,
        0.7010182738304138
      ],
      "type": "VEC4"
    },
    {
      "bufferView": 6,
      "byteOffset": 5280,
      "componentType": 5126,
      "count": 29,
      "max": [
        2.0
      ],
      "min": [
        0.0
      ],
      "type": "SCALAR"
    },
    {
      "bufferView": 7,
      "byteOffset": 10308,
      "componentType": 5126,
      "count": 29,
      "max": [
        1.0,
        1.0,
        1.0000001192092896
      ],
      "min": [
        0.9999997615814209,
        0.9999997019767761,
        0.9999999403953552
      ],
      "type": "VEC3"
    },
    {
      "bufferView": 6,
      "byteOffset": 5396,
      "componentType": 5126,
      "count": 32,
      "max": [
        2.0
      ],
      "min": [
        0.0
      ],
      "type": "SCALAR"
    },
    {
      "bufferView": 7,
      "byteOffset": 10656,
      "componentType": 5126,
      "count": 32,
      "max": [
        1.0874892097945121e-07,
        0.04990960285067558,
        1.8533795298480982e-07
      ],
      "min": [
        -1.81230888074424e-07,
        0.049909401684999466,
        -5.3084352913401744e-08
      ],
      "type": "VEC3"
    },
    {
      "bufferView": 6,
      "byteOffset": 5524,
      "componentType": 5126,
      "count": 31,
      "max": [
        2.0
      ],
      "min": [
        0.0
      ],
      "type": "SCALAR"
    },
    {
      "bufferView": 8,
      "byteOffset": 7376,
      "componentType": 5126,
      "count": 31,
      "max": [
        -0.20618055760860443,
        -0.29356518387794495,
        -0.03989125415682793,
        0.9274157881736755
      ],
      "min": [
        -0.21534816920757294,
        -0.37447038292884827,
        -0.08570118993520737,
        0.9031446576118469
      ],
      "type": "VEC4"
    },
    {
      "bufferView": 6,
      "byteOffset": 5648,
      "componentType": 5126,
      "count": 31,
      "max": [
        2.0
      ],
      "min": [
        0.0
      ],
      "type": "SCALAR"
    },
    {
      "bufferView": 7,
      "byteOffset": 11040,
      "componentType": 5126,
      "count": 31,
      "max": [
        1.0,
        0.9999999403953552,
        1.0
      ],
      "min": [
        0.9999997615814209,
        0.9999997615814209,
        0.9999999403953552
      ],
      "type": "VEC3"
    },
    {
      "bufferView": 6,
      "byteOffset": 5772,
      "componentType": 5126,
      "count": 6,
      "max": [
        2.0
      ],
      "min": [
        0.0
      ],
      "type": "SCALAR"
    },
    {
      "bufferView": 7,
      "byteOffset": 11412,
      "componentType": 5126,
      "count": 6,
      "max": [
        0.08529049903154373,
        -0.015986144542694092,
        3.1156613289340385e-08
      ],
      "min": [
        0.08529048413038254,
        -0.015986144542694092,
        3.115659907848567e-08
      ],
      "type": "VEC3"
    },
    {
      "bufferView": 6,
      "byteOffset": 5796,
      "componentType": 5126,
      "count": 7,
      "max": [
        2.0
      ],
      "min": [
        0.0
      ],
      "type": "SCALAR"
    },
    {
      "bufferView": 8,
      "byteOffset": 7872,
      "componentType": 5126,
      "count": 7,
      "max": [
        0.7070821523666382,
        0.034788113087415695,
        0.703968346118927,
        0.07207140326499939
      ],
      "min": [
        -0.706632137298584,
        -0.11244409531354904,
        -0.706813395023346,
        0.005924890283495188
      ],
      "type": "VEC4"
    },
    {
      "bufferView": 6,
      "byteOffset": 5824,
      "componentType": 5126,
      "count": 5,
      "max": [
        2.0
      ],
      "min": [
        0.0
      ],
      "type": "SCALAR"
    },
    {
      "bufferView": 7,
      "byteOffset": 11484,
      "componentType": 5126,
      "count": 5,
      "max": [
        1.0000027418136597,
        1.0000001192092896,
        1.0
      ],
      "min": [
        1.0000026226043701,
        1.0000001192092896,
        0.9999999403953552
      ],
      "type": "VEC3"
    },
    {
      "bufferView": 6,
      "byteOffset": 5844,
      "componentType": 5126,
      "count": 7,
      "max": [
        2.0
      ],
      "min": [
        0.0
      ],
      "type": "SCALAR"
    },
    {
      "bufferView": 7,
      "byteOffset": 11544,
      "componentType": 5126,
      "count": 7,
      "max": [
        1.4901161193847656e-08,
        0.27269306778907776,
        1.117587622445626e-08
      ],
      "min": [
        -7.4505797087454084e-09,
        0.272693008184433,
        3.0650637583562457e-10
      ],
      "type": "VEC3"
    },
    {
      "bufferView": 6,
      "byteOffset": 5872,
      "componentType": 5126,
      "count": 7,
      "max": [
        2.0
      ],
      "min": [
        0.0
      ],
      "type": "SCALAR"
    },
    {
      "bufferView": 8,
      "byteOffset": 7984,
      "componentType": 5126,
      "count": 7,
      "max": [
        0.028794456273317337,
        0.0006726578576490283,
        5.0476721469294716e-08,
        0.9995853900909424
      ],
      "min": [
        0.02878660522401333,
        -3.579935992092942e-08,
        -0.023352183401584625,
        0.9993125796318054
      ],
      "type": "VEC4"
    },
    {
      "bufferView": 6,
      "byteOffset": 5900,
      "componentType": 5126,
      "count": 7,
      "max": [
        2.0
      ],
      "min": [
        0.0
      ],
      "type": "SCALAR"
    },
    {
      "bufferView": 7,
      "byteOffset": 11628,
      "componentType": 5126,
      "count": 7,
      "max": [
        1.0,
        1.0,
        0.9999999403953552
      ],
      "min": [
        0.9999998807907104,
        0.9999998807907104,
        0.9999999403953552
      ],
      "type": "VEC3"
    },
    {
      "bufferView": 6,
      "byteOffset": 5928,
      "componentType": 5126,
      "count": 7,
      "max": [
        2.0
      ],
      "min": [
        0.0
      ],
      "type": "SCALAR"
    },
    {
      "bufferView": 7,
      "byteOffset": 11712,
      "componentType": 5126,
      "count": 7,
      "max": [
        1.4901166522918174e-08,
        0.4810188114643097,
        2.8882429781162955e-10
      ],
      "min": [
        -1.4901154976598718e-08,
        0.4810188114643097,
        -7.1617565211568035e-09
      ],
      "type": "VEC3"
    },
    {
      "bufferView": 6,
      "byteOffset": 5956,
      "componentType": 5126,
      "count": 7,
      "max": [
        2.0
      ],
      "min": [
        0.0
      ],
      "type": "SCALAR"
    },
    {
      "bufferView": 8,
      "byteOffset": 8096,
      "componentType": 5126,
      "count": 7,
      "max": [
        -1.8626433728741176e-09,
        8.835937352884987e-14,
        7.450578820566989e-09,
        1.0
      ],
      "min": [
        -1.8626460374093767e-09,
        7.856165533653287e-14,
        -7.450582373280668e-09,
        1.0
      ],
      "type": "VEC4"
    },
    {
      "bufferView": 6,
      "byteOffset": 5984,
      "componentType": 5126,
      "count": 6,
      "max": [
        2.0
      ],
      "min": [
        0.0
      ],
      "type": "SCALAR"
    },
    {
      "bufferView": 7,
      "byteOffset": 11796,
      "componentType": 5126,
      "count": 6,
      "max": [
        1.4901161193847656e-08,
        0.0707821175456047,
        1.1024710637951799e-14
      ],
      "min": [
        -1.4901158529312397e-08,
        0.07078211009502411,
        -7.450578820566989e-09
      ],
      "type": "VEC3"
    },
    {
      "bufferView": 6,
      "byteOffset": 6008,
      "componentType": 5126,
      "count": 7,
      "max": [
        2.0
      ],
      "min": [
        0.0
      ],
      "type": "SCALAR"
    },
    {
      "bufferView": 8,
      "byteOffset": 8208,
      "componentType": 5126,
      "count": 7,
      "max": [
        -2.478376472936361e-07,
        6.06200458719286e-08,
        0.7829140424728394,
        0.7071067094802856
      ],
      "min": [
        -2.7973106853096397e-07,
        3.26588747157075e-08,
        0.7071068286895752,
        0.6221299171447754
      ],
      "type": "VEC4"
    },
    {
      "bufferView": 6,
      "byteOffset": 6036,
      "componentType": 5126,
      "count": 7,
      "max": [
        2.0
      ],
      "min": [
        0.0
      ],
      "type": "SCALAR"
    },
    {
      "bufferView": 7,
      "byteOffset": 11868,
      "componentType": 5126,
      "count": 7,
      "max": [
        1.0,
        1.0000001192092896,
        1.0
      ],
      "min": [
        0.9999999403953552,
        0.9999999403953552,
        1.0
      ],
      "type": "VEC3"
    },
    {
      "bufferView": 6,
      "byteOffset": 6064,
      "componentType": 5126,
      "count": 7,
      "max": [
        2.0
      ],
      "min": [
        0.0
      ],
      "type": "SCALAR"
    },
    {
      "bufferView": 7,
      "byteOffset": 11952,
      "componentType": 5126,
      "count": 7,
      "max": [
        -0.08790788054466248,
        -0.015986084938049316,
        -9.782993970475218e-09
      ],
      "min": [
        -0.08790789544582367,
        -0.015986204147338867,
        -9.783011734043612e-09
      ],
      "type": "VEC3"
    },
    {
      "bufferView": 6,
      "byteOffset": 6092,
      "componentType": 5126,
      "count": 7,
      "max": [
        2.0
      ],
      "min": [
        0.0
      ],
      "type": "SCALAR"
    },
    {
      "bufferView": 8,
      "byteOffset": 8320,
      "componentType": 5126,
      "count": 7,
      "max": [
        0.7060534358024597,
        0.03872055560350418,
        0.706813633441925,
        0.09725350886583328
      ],
      "min": [
        -0.707103967666626,
        -0.13740961253643036,
        -0.70266193151474,
        0.001987192314118147
      ],
      "type": "VEC4"
    },
    {
      "bufferView": 6,
      "byteOffset": 6120,
      "componentType": 5126,
      "count": 7,
      "max": [
        2.0
      ],
      "min": [
        0.0
      ],
      "type": "SCALAR"
    },
    {
      "bufferView": 7,
      "byteOffset": 12036,
      "componentType": 5126,
      "count": 7,
      "max": [
        1.0000027418136597,
        1.0000001192092896,
        1.0
      ],
      "min": [
        1.0000026226043701,
        1.0,
        0.9999999403953552
      ],
      "type": "VEC3"
    },
    {
      "bufferView": 6,
      "byteOffset": 6148,
      "componentType": 5126,
      "count": 7,
      "max": [
        2.0
      ],
      "min": [
        0.0
      ],
      "type": "SCALAR"
    },
    {
      "bufferView": 7,
      "byteOffset": 12120,
      "componentType": 5126,
      "count": 7,
      "max": [
        7.993605777301127e-15,
        0.27269306778907776,
        3.725296071621642e-09
      ],
      "min": [
        -1.4901153200241879e-08,
        0.272693008184433,
        2.9413960156432495e-10
      ],
      "type": "VEC3"
    },
    {
      "bufferView": 6,
      "byteOffset": 6176,
      "componentType": 5126,
      "count": 7,
      "max": [
        2.0
      ],
      "min": [
        0.0
      ],
      "type": "SCALAR"
    },
    {
      "bufferView": 8,
      "byteOffset": 8432,
      "componentType": 5126,
      "count": 7,
      "max": [
        -0.028728343546390533,
        3.203803089490975e-07,
        4.177369561375599e-08,
        0.9995853900909424
      ],
      "min": [
        -0.028794487938284874,
        -0.0019502906361594796,
        -0.06771441549062729,
        0.9972891211509705
      ],
      "type": "VEC4"
    },
    {
      "bufferView": 6,
      "byteOffset": 6204,
      "componentType": 5126,
      "count": 6,
      "max": [
        2.0
      ],
      "min": [
        0.0
      ],
      "type": "SCALAR"
    },
    {
      "bufferView": 7,
      "byteOffset": 12204,
      "componentType": 5126,
      "count": 6,
      "max": [
        1.0,
        0.9999998807907104,
        0.9999998807907104
      ],
      "min": [
        0.9999999403953552,
        0.9999998211860657,
        0.9999998807907104
      ],
      "type": "VEC3"
    },
    {
      "bufferView": 6,
      "byteOffset": 6228,
      "componentType": 5126,
      "count": 7,
      "max": [
        2.0
      ],
      "min": [
        0.0
      ],
      "type": "SCALAR"
    },
    {
      "bufferView": 8,
      "byteOffset": 8544,
      "componentType": 5126,
      "count": 7,
      "max": [
        4.949160015144116e-08,
        1.093958035269793e-09,
        1.5622876849483288e-15,
        1.0
      ],
      "min": [
        3.696229544658536e-09,
        -8.389518463616796e-13,
        -0.14780940115451813,
        0.9890158772468567
      ],
      "type": "VEC4"
    },
    {
      "bufferView": 6,
      "byteOffset": 6256,
      "componentType": 5126,
      "count": 6,
      "max": [
        2.0
      ],
      "min": [
        0.0
      ],
      "type": "SCALAR"
    },
    {
      "bufferView": 7,
      "byteOffset": 12276,
      "componentType": 5126,
      "count": 6,
      "max": [
        1.0,
        1.0,
        1.0
      ],
      "min": [
        0.9999998807907104,
        0.9999999403953552,
        1.0
      ],
      "type": "VEC3"
    },
    {
      "bufferView": 6,
      "byteOffset": 6280,
      "componentType": 5126,
      "count": 7,
      "max": [
        2.0
      ],
      "min": [
        0.0
      ],
      "type": "SCALAR"
    },
    {
      "bufferView": 7,
      "byteOffset": 12348,
      "componentType": 5126,
      "count": 7,
      "max": [
        1.862645149230957e-09,
        0.07078206539154053,
        4.079746472428073e-15
      ],
      "min": [
        -1.4901161193847656e-08,
        0.07078206539154053,
        -3.1151378346774687e-16
      ],
      "type": "VEC3"
    },
    {
      "bufferView": 6,
      "byteOffset": 6308,
      "componentType": 5126,
      "count": 7,
      "max": [
        2.0
      ],
      "min": [
        0.0
      ],
      "type": "SCALAR"
    },
    {
      "bufferView": 8,
      "byteOffset": 8656,
      "componentType": 5126,
      "count": 7,
      "max": [
        -2.4514770302630495e-07,
        3.551837224335941e-08,
        0.7256770730018616,
        0.70710688829422
      ],
      "min": [
        -2.526674052205635e-07,
        2.9058355721645057e-08,
        0.7071066498756409,
        0.6880354881286621
      ],
      "type": "VEC4"
    },
    {
      "bufferView": 6,
      "byteOffset": 6336,
      "componentType": 5126,
      "count": 6,
      "max": [
        2.0
      ],
      "min": [
        0.0
      ],
      "type": "SCALAR"
    },
    {
      "bufferView": 7,
      "byteOffset": 12432,
      "componentType": 5126,
      "count": 6,
      "max": [
        1.0,
        1.0,
        1.0
      ],
      "min": [
        0.9999999403953552,
        0.9999999403953552,
        1.0
      ],
      "type": "VEC3"
    },
    {
      "bufferView": 6,
      "byteOffset": 6360,
      "componentType": 5126,
      "count": 32,
      "max": [
        2.0
      ],
      "min": [
        0.0
      ],
      "type": "SCALAR"
    },
    {
      "bufferView": 7,
      "byteOffset": 12504,
      "componentType": 5126,
      "count": 32,
      "max": [
        0.8869109749794006,
        0.22668027877807617,
        0.4014380872249603
      ],
      "min": [
        0.20113927125930786,
        -0.05126053839921951,
        0.05471774563193321
      ],
      "type": "VEC3"
    },
    {
      "bufferView": 6,
      "byteOffset": 6488,
      "componentType": 5126,
      "count": 32,
      "max": [
        2.0
      ],
      "min": [
        0.0
      ],
      "type": "SCALAR"
    },
    {
      "bufferView": 8,
      "byteOffset": 8768,
      "componentType": 5126,
      "count": 32,
      "max": [
        0.5369518995285034,
        0.0,
        0.0735534280538559,
        1.0
      ],
      "min": [
        -3.5527119847346064e-15,
        -0.26926809549331665,
        -3.0292258760486853e-28,
        0.7963083982467651
      ],
      "type": "VEC4"
    },
    {
      "bufferView": 6,
      "byteOffset": 6616,
      "componentType": 5126,
      "count": 29,
      "max": [
        2.0
      ],
      "min": [
        0.0
      ],
      "type": "SCALAR"
    },
    {
      "bufferView": 7,
      "byteOffset": 12888,
      "componentType": 5126,
      "count": 29,
      "max": [
        1.0,
        1.0000001192092896,
        1.0000001192092896
      ],
      "min": [
        0.9999999403953552,
        0.9999998807907104,
        0.9999998807907104
      ],
      "type": "VEC3"
    }
  ],
  "animations": [
    {
      "channels": [
        {
          "sampler": 0,
          "target": {
            "node": 19,
            "path": "translation"
          }
        },
        {
          "sampler": 1,
          "target": {
            "node": 20,
            "path": "rotation"
          }
        },
        {
          "sampler": 2,
          "target": {
            "node": 20,
            "path": "scale"
          }
        },
        {
          "sampler": 3,
          "target": {
            "node": 21,
            "path": "translation"
          }
        },
        {
          "sampler": 4,
          "target": {
            "node": 21,
            "path": "rotation"
          }
        },
        {
          "sampler": 5,
          "target": {
            "node": 21,
            "path": "scale"
          }
        },
        {
          "sampler": 6,
          "target": {
            "node": 22,
            "path": "translation"
          }
        },
        {
          "sampler": 7,
          "target": {
            "node": 22,
            "path": "rotation"
          }
        },
        {
          "sampler": 8,
          "target": {
            "node": 22,
            "path": "scale"
          }
        },
        {
          "sampler": 9,
          "target": {
            "node": 23,
            "path": "translation"
          }
        },
        {
          "sampler": 10,
          "target": {
            "node": 23,
            "path": "rotation"
          }
        },
        {
          "sampler": 11,
          "target": {
            "node": 23,
            "path": "scale"
          }
        },
        {
          "sampler": 12,
          "target": {
            "node": 24,
            "path": "translation"
          }
        },
        {
          "sampler": 13,
          "target": {
            "node": 24,
            "path": "rotation"
          }
        },
        {
          "sampler": 14,
          "target": {
            "node": 24,
            "path": "scale"
          }
        },
        {
          "sampler": 15,
          "target": {
            "node": 25,
            "path": "translation"
          }
        },
        {
          "sampler": 16,
          "target": {
            "node": 25,
            "path": "rotation"
          }
        },
        {
          "sampler": 17,
          "target": {
            "node": 25,
            "path": "scale"
          }
        },
        {
          "sampler": 18,
          "target": {
            "node": 26,
            "path": "translation"
          }
        },
        {
          "sampler": 19,
          "target": {
            "node": 26,
            "path": "rotation"
          }
        },
        {
          "sampler": 20,
          "target": {
            "node": 26,
            "path": "scale"
          }
        },
        {
          "sampler": 21,
          "target": {
            "node": 27,
            "path": "translation"
          }
        },
        {
          "sampler": 22,
          "target": {
            "node": 27,
            "path": "rotation"
          }
        },
        {
          "sampler": 23,
          "target": {
            "node": 27,
            "path": "scale"
          }
        },
        {
          "sampler": 24,
          "target": {
            "node": 28,
            "path": "translation"
          }
        },
        {
          "sampler": 25,
          "target": {
            "node": 28,
            "path": "rotation"
          }
        },
        {
          "sampler": 26,
          "target": {
            "node": 28,
            "path": "scale"
          }
        },
        {
          "sampler": 27,
          "target": {
            "node": 29,
            "path": "translation"
          }
        },
        {
          "sampler": 28,
          "target": {
            "node": 29,
            "path": "rotation"
          }
        },
        {
          "sampler": 29,
          "target": {
            "node": 29,
            "path": "scale"
          }
        },
        {
          "sampler": 30,
          "target": {
            "node": 30,
            "path": "translation"
          }
        },
        {
          "sampler": 31,
          "target": {
            "node": 30,
            "path": "rotation"
          }
        },
        {
          "sampler": 32,
          "target": {
            "node": 30,
            "path": "scale"
          }
        },
        {
          "sampler": 33,
          "target": {
            "node": 31,
            "path": "translation"
          }
        },
        {
          "sampler": 34,
          "target": {
            "node": 31,
            "path": "rotation"
          }
        },
        {
          "sampler": 35,
          "target": {
            "node": 31,
            "path": "scale"
          }
        },
        {
          "sampler": 36,
          "target": {
            "node": 32,
            "path": "translation"
          }
        },
        {
          "sampler": 37,
          "target": {
            "node": 32,
            "path": "rotation"
          }
        },
        {
          "sampler": 38,
          "target": {
            "node": 32,
            "path": "scale"
          }
        },
        {
          "sampler": 39,
          "target": {
            "node": 33,
            "path": "translation"
          }
        },
        {
          "sampler": 40,
          "target": {
            "node": 33,
            "path": "rotation"
          }
        },
        {
          "sampler": 41,
          "target": {
            "node": 33,
            "path": "scale"
          }
        },
        {
          "sampler": 42,
          "target": {
            "node": 34,
            "path": "translation"
          }
        },
        {
          "sampler": 43,
          "target": {
            "node": 34,
            "path": "rotation"
          }
        },
        {
          "sampler": 44,
          "target": {
            "node": 34,
            "path": "scale"
          }
        },
        {
          "sampler": 45,
          "target": {
            "node": 35,
            "path": "translation"
          }
        },
        {
          "sampler": 46,
          "target": {
            "node": 35,
            "path": "rotation"
          }
        },
        {
          "sampler": 47,
          "target": {
            "node": 35,
            "path": "scale"
          }
        },
        {
          "sampler": 48,
          "target": {
            "node": 36,
            "path": "translation"
          }
        },
        {
          "sampler": 49,
          "target": {
            "node": 36,
            "path": "rotation"
          }
        },
        {
          "sampler": 50,
          "target": {
            "node": 36,
            "path": "scale"
          }
        },
        {
          "sampler": 51,
          "target": {
            "node": 37,
            "path": "translation"
          }
        },
        {
          "sampler": 52,
          "target": {
            "node": 37,
            "path": "rotation"
          }
        },
        {
          "sampler": 53,
          "target": {
            "node": 37,
            "path": "scale"
          }
        },
        {
          "sampler": 54,
          "target": {
            "node": 38,
            "path": "translation"
          }
        },
        {
          "sampler": 55,
          "target": {
            "node": 38,
            "path": "rotation"
          }
        },
        {
          "sampler": 56,
          "target": {
            "node": 38,
            "path": "scale"
          }
        },
        {
          "sampler": 57,
          "target": {
            "node": 39,
            "path": "translation"
          }
        },
        {
          "sampler": 58,
          "target": {
            "node": 39,
            "path": "rotation"
          }
        },
        {
          "sampler": 59,
          "target": {
            "node": 39,
            "path": "scale"
          }
        },
        {
          "sampler": 60,
          "target": {
            "node": 40,
            "path": "translation"
          }
        },
        {
          "sampler": 61,
          "target": {
            "node": 40,
            "path": "rotation"
          }
        },
        {
          "sampler": 62,
          "target": {
            "node": 41,
            "path": "translation"
          }
        },
        {
          "sampler": 63,
          "target": {
            "node": 41,
            "path": "rotation"
          }
        },
        {
          "sampler": 64,
          "target": {
            "node": 41,
            "path": "scale"
          }
        },
        {
          "sampler": 65,
          "target": {
            "node": 42,
            "path": "translation"
          }
        },
        {
          "sampler": 66,
          "target": {
            "node": 42,
            "path": "rotation"
          }
        },
        {
          "sampler": 67,
          "target": {
            "node": 42,
            "path": "scale"
          }
        },
        {
          "sampler": 68,
          "target": {
            "node": 43,
            "path": "translation"
          }
        },
        {
          "sampler": 69,
          "target": {
            "node": 43,
            "path": "rotation"
          }
        },
        {
          "sampler": 70,
          "target": {
            "node": 43,
            "path": "scale"
          }
        },
        {
          "sampler": 71,
          "target": {
            "node": 44,
            "path": "rotation"
          }
        },
        {
          "sampler": 72,
          "target": {
            "node": 44,
            "path": "scale"
          }
        },
        {
          "sampler": 73,
          "target": {
            "node": 45,
            "path": "translation"
          }
        },
        {
          "sampler": 74,
          "target": {
            "node": 45,
            "path": "rotation"
          }
        },
        {
          "sampler": 75,
          "target": {
            "node": 45,
            "path": "scale"
          }
        },
        {
          "sampler": 76,
          "target": {
            "node": 46,
            "path": "translation"
          }
        },
        {
          "sampler": 77,
          "target": {
            "node": 46,
            "path": "rotation"
          }
        },
        {
          "sampler": 78,
          "target": {
            "node": 46,
            "path": "scale"
          }
        }
      ],
      "name": "ArmatureAction",
      "samplers": [
        {
          "input": 37,
          "interpolation": "LINEAR",
          "output": 38
        },
        {
          "input": 39,
          "interpolation": "LINEAR",
          "output": 40
        },
        {
          "input": 41,
          "interpolation": "LINEAR",
          "output": 42
        },
        {
          "input": 43,
          "interpolation": "LINEAR",
          "output": 44
        },
        {
          "input": 45,
          "interpolation": "LINEAR",
          "output": 46
        },
        {
          "input": 47,
          "interpolation": "LINEAR",
          "output": 48
        },
        {
          "input": 49,
          "interpolation": "LINEAR",
          "output": 50
        },
        {
          "input": 51,
          "interpolation": "LINEAR",
          "output": 52
        },
        {
          "input": 53,
          "interpolation": "LINEAR",
          "output": 54
        },
        {
          "input": 55,
          "interpolation": "LINEAR",
          "output": 56
        },
        {
          "input": 57,
          "interpolation": "LINEAR",
          "output": 58
        },
        {
          "input": 59,
          "interpolation": "LINEAR",
          "output": 60
        },
        {
          "input": 61,
          "interpolation": "LINEAR",
          "output": 62
        },
        {
          "input": 63,
          "interpolation": "LINEAR",
          "output": 64
        },
        {
          "input": 65,
          "interpolation": "LINEAR",
          "output": 66
        },
        {
          "input": 67,
          "interpolation": "LINEAR",
          "output": 68
        },
        {
          "input": 69,
          "interpolation": "LINEAR",
          "output": 70
        },
        {
          "input": 71,
          "interpolation": "LINEAR",
          "output": 72
        },
        {
          "input": 73,
          "interpolation": "LINEAR",
          "output": 74
        },
        {
          "input": 75,
          "interpolation": "LINEAR",
          "output": 76
        },
        {
          "input": 77,
          "interpolation": "LINEAR",
          "output": 78
        },
        {
          "input": 79,
          "interpolation": "LINEAR",
          "output": 80
        },
        {
          "input": 81,
          "interpolation": "LINEAR",
          "output": 82
        },
        {
          "input": 83,
          "interpolation": "LINEAR",
          "output": 84
        },
        {
          "input": 85,
          "interpolation": "LINEAR",
          "output": 86
        },
        {
          "input": 87,
          "interpolation": "LINEAR",
          "output": 88
        },
        {
          "input": 89,
          "interpolation": "LINEAR",
          "output": 90
        },
        {
          "input": 91,
          "interpolation": "LINEAR",
          "output": 92
        },
        {
          "input": 93,
          "interpolation": "LINEAR",
          "output": 94
        },
        {
          "input": 95,
          "interpolation": "LINEAR",
          "output": 96
        },
        {
          "input": 97,
          "interpolation": "LINEAR",
          "output": 98
        },
        {
          "input": 99,
          "interpolation": "LINEAR",
          "output": 100
        },
        {
          "input": 101,
          "interpolation": "LINEAR",
          "output": 102
        },
        {
          "input": 103,
          "interpolation": "LINEAR",
          "output": 104
        },
        {
          "input": 105,
          "interpolation": "LINEAR",
          "output": 106
        },
        {
          "input": 107,
          "interpolation": "LINEAR",
          "output": 108
        },
        {
          "input": 109,
          "interpolation": "LINEAR",
          "output": 110
        },
        {
          "input": 111,
          "interpolation": "LINEAR",
          "output": 112
        },
        {
          "input": 113,
          "interpolation": "LINEAR",
          "output": 114
        },
        {
          "input": 115,
          "interpolation": "LINEAR",
          "output": 116
        },
        {
          "input": 117,
          "interpolation": "LINEAR",
          "output": 118
        },
        {
          "input": 119,
          "interpolation": "LINEAR",
          "output": 120
        },
        {
          "input": 121,
          "interpolation": "LINEAR",
          "output": 122
        },
        {
          "input": 123,
          "interpolation": "LINEAR",
          "output": 124
        },
        {
          "input": 125,
          "interpolation": "LINEAR",
          "output": 126
        },
        {
          "input": 127,
          "interpolation": "LINEAR",
          "output": 128
        },
        {
          "input": 129,
          "interpolation": "LINEAR",
          "output": 130
        },
        {
          "input": 131,
          "interpolation": "LINEAR",
          "output": 132
        },
        {
          "input": 133,
          "interpolation": "LINEAR",
          "output": 134
        },
        {
          "input": 135,
          "interpolation": "LINEAR",
          "output": 136
        },
        {
          "input": 137,
          "interpolation": "LINEAR",
          "output": 138
        },
        {
          "input": 139,
          "interpolation": "LINEAR",
          "output": 140
        },
        {
          "input": 141,
          "interpolation": "LINEAR",
          "output": 142
        },
        {
          "input": 143,
          "interpolation": "LINEAR",
          "output": 144
        },
        {
          "input": 145,
          "interpolation": "LINEAR",
          "output": 146
        },
        {
          "input": 147,
          "interpolation": "LINEAR",
          "output": 148
        },
        {
          "input": 149,
          "interpolation": "LINEAR",
          "output": 150
        },
        {
          "input": 151,
          "interpolation": "LINEAR",
          "output": 152
        },
        {
          "input": 153,
          "interpolation": "LINEAR",
          "output": 154
        },
        {
          "input": 155,
          "interpolation": "LINEAR",
          "output": 156
        },
        {
          "input": 157,
          "interpolation": "LINEAR",
          "output": 158
        },
        {
          "input": 159,
          "interpolation": "LINEAR",
          "output": 160
        },
        {
          "input": 161,
          "interpolation": "LINEAR",
          "output": 162
        },
        {
          "input": 163,
          "interpolation": "LINEAR",
          "output": 164
        },
        {
          "input": 165,
          "interpolation": "LINEAR",
          "output": 166
        },
        {
          "input": 167,
          "interpolation": "LINEAR",
          "output": 168
        },
        {
          "input": 169,
          "interpolation": "LINEAR",
          "output": 170
        },
        {
          "input": 171,
          "interpolation": "LINEAR",
          "output": 172
        },
        {
          "input": 173,
          "interpolation": "LINEAR",
          "output": 174
        },
        {
          "input": 175,
          "interpolation": "LINEAR",
          "output": 176
        },
        {
          "input": 177,
          "interpolation": "LINEAR",
          "output": 178
        },
        {
          "input": 179,
          "interpolation": "LINEAR",
          "output": 180
        },
        {
          "input": 181,
          "interpolation": "LINEAR",
          "output": 182
        },
        {
          "input": 183,
          "interpolation": "LINEAR",
          "output": 184
        },
        {
          "input": 185,
          "interpolation": "LINEAR",
          "output": 186
        },
        {
          "input": 187,
          "interpolation": "LINEAR",
          "output": 188
        },
        {
          "input": 189,
          "interpolation": "LINEAR",
          "output": 190
        },
        {
          "input": 191,
          "interpolation": "LINEAR",
          "output": 192
        },
        {
          "input": 193,
          "interpolation": "LINEAR",
          "output": 194
        }
      ]
    }
  ],
  "asset": {
    "extras": {
      "author": "jezusek (https://sketchfab.com/jezusek)",
      "license": "CC-BY-4.0 (http://creativecommons.org/licenses/by/4.0/)",
      "source": "https://sketchfab.com/3d-models/pikeman-672b99e3296249fb830f4996b8937dcc",
      "title": "Pikeman"
    },
    "generator": "Sketchfab-12.65.0",
    "version": "2.0"
  },
  "bufferViews": [
    {
      "buffer": 0,
      "byteLength": 36792,
      "byteStride": 8,
      "name": "shortBufferViews",
      "target": 34962
    },
    {
      "buffer": 0,
      "byteLength": 27744,
      "byteOffset": 36792,
      "name": "floatBufferViews",
      "target": 34963
    },
    {
      "buffer": 0,
      "byteLength": 36792,
      "byteOffset": 64536,
      "byteStride": 8,
      "name": "floatBufferViews",
      "target": 34962
    },
    {
      "buffer": 0,
      "byteLength": 110376,
      "byteOffset": 101328,
      "byteStride": 12,
      "name": "floatBufferViews",
      "target": 34962
    },
    {
      "buffer": 0,
      "byteLength": 73584,
      "byteOffset": 211704,
      "byteStride": 16,
      "name": "floatBufferViews",
      "target": 34962
    },
    {
      "buffer": 0,
      "byteLength": 1920,
      "byteOffset": 285288,
      "name": "floatBufferViews"
    },
    {
      "buffer": 0,
      "byteLength": 6732,
      "byteOffset": 287208,
      "name": "floatBufferViews"
    },
    {
      "buffer": 0,
      "byteLength": 13236,
      "byteOffset": 293940,
      "byteStride": 12,
      "name": "floatBufferViews"
    },
    {
      "buffer": 0,
      "byteLength": 9280,
      "byteOffset": 307176,
      "byteStride": 16,
      "name": "floatBufferViews"
    }
  ],
  "buffers": [
    {
      "byteLength": 316456,
      "uri": "scene.bin"
    }
  ],
  "images": [
    {
      "uri": "textures/gloy_baseColor.png"
    }
  ],
  "materials": [
    {
      "doubleSided": true,
      "name": "gloy",
      "pbrMetallicRoughness": {
        "baseColorTexture": {
          "index": 0
        },
        "metallicFactor": 0.0
      }
    }
  ],
  "meshes": [
    {
      "name": "Object_0",
      "primitives": [
        {
          "attributes": {
            "JOINTS_0": 25,
            "NORMAL": 1,
            "POSITION": 0,
            "TEXCOORD_0": 2,
            "WEIGHTS_0": 26
          },
          "indices": 3,
          "material": 0,
          "mode": 4
        }
      ]
    },
    {
      "name": "Object_1",
      "primitives": [
        {
          "attributes": {
            "JOINTS_0": 27,
            "NORMAL": 5,
            "POSITION": 4,
            "TEXCOORD_0": 6,
            "WEIGHTS_0": 28
          },
          "indices": 7,
          "material": 0,
          "mode": 4
        }
      ]
    },
    {
      "name": "Object_2",
      "primitives": [
        {
          "attributes": {
            "JOINTS_0": 29,
            "NORMAL": 9,
            "POSITION": 8,
            "TEXCOORD_0": 10,
            "WEIGHTS_0": 30
          },
          "indices": 11,
          "material": 0,
          "mode": 4
        }
      ]
    },
    {
      "name": "Object_3",
      "primitives": [
        {
          "attributes": {
            "JOINTS_0": 31,
            "NORMAL": 13,
            "POSITION": 12,
            "TEXCOORD_0": 14,
            "WEIGHTS_0": 32
          },
          "indices": 15,
          "material": 0,
          "mode": 4
        }
      ]
    },
    {
      "name": "Object_4",
      "primitives": [
        {
          "attributes": {
            "JOINTS_0": 33,
            "NORMAL": 17,
            "POSITION": 16,
            "TEXCOORD_0": 18,
            "WEIGHTS_0": 34
          },
          "indices": 19,
          "material": 0,
          "mode": 4
        }
      ]
    },
    {
      "name": "Object_5",
      "primitives": [
        {
          "attributes": {
            "JOINTS_0": 35,
            "NORMAL": 21,
            "POSITION": 20,
            "TEXCOORD_0": 22,
            "WEIGHTS_0": 36
          },
          "indices": 23,
          "material": 0,
          "mode": 4
        }
      ]
    }
  ],
  "nodes": [
    {
      "children": [
        1
      ],
      "matrix": [
        1.2368017435073853,
        0.0,
        0.0,
        0.0,
        0.0,
        2.7462515450768726e-16,
        -1.2368017435073853,
        0.0,
        0.0,
        1.2368017435073853,
        2.7462515450768726e-16,
        0.0,
        0.0,
        0.0,
        0.0,
        1.0
      ],
      "name": "Sketchfab_model"
    },
    {
      "children": [
        2
      ],
      "name": "root"
    },
    {
      "children": [
        3
      ],
      "matrix": [
        1.0,
        0.0,
        0.0,
        0.0,
        0.0,
        2.220446049250313e-16,
        1.0,
        0.0,
        0.0,
        -1.0,
        2.220446049250313e-16,
        0.0,
        0.0,
        0.0,
        0.0,
        1.0
      ],
      "name": "GLTF_SceneRootNode"
    },
    {
      "children": [
        4
      ],
      "name": "Armature_35"
    },
    {
      "children": [
        5,
        7,
        9,
        11,
        13,
        15,
        17,
        6,
        8,
        10,
        12,
        14,
        16
      ],
      "name": "GLTF_created_0"
    },
    {
      "children": [
        18
      ],
      "name": "GLTF_created_0_rootJoint"
    },
    {
      "name": "Buty_29"
    },
    {
      "mesh": 0,
      "name": "Object_7",
      "skin": 0
    },
    {
      "name": "Cialo_30"
    },
    {
      "mesh": 1,
      "name": "Object_9",
      "skin": 0
    },
    {
      "name": "Helm_31"
    },
    {
      "mesh": 2,
      "name": "Object_11",
      "skin": 0
    },
    {
      "name": "Spodnie_32"
    },
    {
      "mesh": 3,
      "name": "Object_13",
      "skin": 0
    },
    {
      "name": "Wlocznia_33"
    },
    {
      "mesh": 4,
      "name": "Object_15",
      "skin": 0
    },
    {
      "name": "Zbroja_34"
    },
    {
      "mesh": 5,
      "name": "Object_17",
      "skin": 0
    },
    {
      "children": [
        19
      ],
      "name": "Root_28",
      "rotation": [
        -2.9802322387695313e-08,
        1.1920927533992653e-07,
        4.235164736271502e-22,
        1.0
      ],
      "scale": [
        1.0,
        0.9999998807907104,
        0.9999998807907104
      ]
    },
    {
      "children": [
        20,
        38,
        42,
        46
      ],
      "name": "Calosc_27",
      "rotation": [
        -3.5527121964928432e-15,
        1.7763568394002505e-14,
        -3.0292258760486853e-28,
        1.0
      ],
      "scale": [
        1.0,
        0.9999999403953552,
        0.9999999403953552
      ],
      "translation": [
        0.0,
        0.8260630965232849,
        0.0
      ]
    },
    {
      "children": [
        21
      ],
      "name": "Brzuch_17",
      "rotation": [
        0.043619390577077866,
        2.778201892545101e-17,
        1.0399673122662989e-08,
        0.9990482330322266
      ],
      "scale": [
        1.0,
        0.9999999403953552,
        0.9999999403953552
      ],
      "translation": [
        0.0,
        0.27200788259506226,
        0.0
      ]
    },
    {
      "children": [
        22,
        24,
        31
      ],
      "name": "Klatka_16",
      "rotation": [
        0.04352313652634621,
        0.06583676487207413,
        -0.00866756122559309,
        0.9968430995941162
      ],
      "scale": [
        1.0,
        0.9999999403953552,
        1.0
      ],
      "translation": [
        0.0,
        0.2475733757019043,
        7.450580596923828e-09
      ]
    },
    {
      "children": [
        23
      ],
      "name": "Szyja_1",
      "rotation": [
        3.7252867457482353e-09,
        -8.086114000604994e-10,
        7.074252295069527e-11,
        1.0
      ],
      "translation": [
        2.3283064365386963e-10,
        0.13490331172943115,
        0.0
      ]
    },
    {
      "name": "Glowa_0",
      "rotation": [
        -0.08715575188398361,
        3.396417813661401e-09,
        -2.0635942732383228e-08,
        0.9961947202682495
      ],
      "translation": [
        -1.1641532182693481e-09,
        0.05119907855987549,
        -2.9802322387695313e-08
      ]
    },
    {
      "children": [
        25
      ],
      "name": "Reka.L_8",
      "rotation": [
        0.2562142312526703,
        0.15868836641311646,
        -0.8423418998718262,
        0.4468024969100952
      ],
      "scale": [
        1.0,
        1.0,
        1.0000001192092896
      ],
      "translation": [
        0.208088681101799,
        0.03896164149045944,
        0.06725402176380157
      ]
    },
    {
      "children": [
        26
      ],
      "name": "Reka.L.001_7",
      "rotation": [
        0.4830205738544464,
        -0.10706828534603119,
        -0.3052099049091339,
        0.813679575920105
      ],
      "scale": [
        1.000000238418579,
        1.000000238418579,
        1.000000238418579
      ],
      "translation": [
        4.111687701424671e-08,
        0.2854800224304199,
        -5.637197375563119e-10
      ]
    },
    {
      "children": [
        27,
        29
      ],
      "name": "Dlon.L_6",
      "rotation": [
        0.057036325335502625,
        0.18785201013088226,
        0.08198018372058868,
        0.9771068096160889
      ],
      "scale": [
        1.0,
        1.0,
        0.9999998211860657
      ],
      "translation": [
        -3.2963798357599217e-09,
        0.26222771406173706,
        2.204632920665972e-09
      ]
    },
    {
      "children": [
        28
      ],
      "name": "Palce.L_3",
      "rotation": [
        0.2597615718841553,
        -0.34063592553138733,
        -0.4654945135116577,
        0.7744714021682739
      ],
      "scale": [
        1.0000001192092896,
        1.0000001192092896,
        1.0000001192092896
      ],
      "translation": [
        -2.3777504054578458e-07,
        0.05464991182088852,
        -1.9905646908568997e-08
      ]
    },
    {
      "name": "Palce.L.001_2",
      "rotation": [
        -0.07797612994909286,
        0.0300899688154459,
        -0.6493087410926819,
        0.7559182643890381
      ],
      "scale": [
        0.9999999403953552,
        0.9999997615814209,
        0.9999997019767761
      ],
      "translation": [
        2.3852031461046863e-08,
        0.05866467207670212,
        -6.114390771472245e-08
      ]
    },
    {
      "children": [
        30
      ],
      "name": "Kciuk.L_5",
      "rotation": [
        0.7528441548347473,
        -0.24677389860153198,
        -0.26892879605293274,
        0.5477277636528015
      ],
      "scale": [
        0.9999999403953552,
        1.0,
        0.9999997615814209
      ],
      "translation": [
        -0.0027499417774379253,
        0.009382529184222221,
        0.026436854153871536
      ]
    },
    {
      "name": "Kciuk.L.001_4",
      "rotation": [
        -0.3908487558364868,
        0.3753024637699127,
        -0.49746304750442505,
        0.6774333119392395
      ],
      "scale": [
        1.0000001192092896,
        1.0,
        1.000000238418579
      ],
      "translation": [
        -6.172582889263367e-09,
        0.04990944266319275,
        3.81089826362313e-09
      ]
    },
    {
      "children": [
        32
      ],
      "name": "Reka.P_15",
      "rotation": [
        0.5606486797332764,
        0.4576062858104706,
        0.5529125332832336,
        0.41298577189445496
      ],
      "scale": [
        1.0000001192092896,
        1.0000001192092896,
        1.0000001192092896
      ],
      "translation": [
        -0.20060257613658905,
        0.0380614772439003,
        0.03385647013783455
      ]
    },
    {
      "children": [
        33
      ],
      "name": "Reka.P.001_14",
      "rotation": [
        0.18446993827819824,
        0.7052817344665527,
        0.35096895694732666,
        0.5876814126968384
      ],
      "scale": [
        1.0,
        1.0,
        1.0000001192092896
      ],
      "translation": [
        9.011196056007975e-08,
        0.2854801118373871,
        6.2445344894968e-08
      ]
    },
    {
      "children": [
        34,
        36
      ],
      "name": "Dlon.P_13",
      "rotation": [
        -0.10322099924087524,
        -0.3150728940963745,
        -0.00555875338613987,
        0.9434212446212769
      ],
      "scale": [
        0.9999998807907104,
        0.9999999403953552,
        0.9999998807907104
      ],
      "translation": [
        -2.4757301986255698e-08,
        0.26222801208496094,
        2.596500614515662e-08
      ]
    },
    {
      "children": [
        35
      ],
      "name": "Palce.P_10",
      "rotation": [
        0.11273486167192459,
        0.38923943042755127,
        0.18957120180130005,
        0.8943412899971008
      ],
      "scale": [
        1.0,
        0.9999998807907104,
        1.0
      ],
      "translation": [
        -2.0619194174287259e-07,
        0.05464993417263031,
        -9.330759809245137e-08
      ]
    },
    {
      "name": "Palce.P.001_9",
      "rotation": [
        -1.21560745469651e-07,
        4.345283457496407e-07,
        0.17409741878509521,
        0.9847284555435181
      ],
      "scale": [
        1.0000001192092896,
        1.0,
        1.0
      ],
      "translation": [
        -2.4343094651158026e-07,
        0.05866467207670212,
        2.024349354812216e-09
      ]
    },
    {
      "children": [
        37
      ],
      "name": "Kciuk.P_12",
      "rotation": [
        0.45071613788604736,
        0.5008172392845154,
        0.23368889093399048,
        0.7010182738304138
      ],
      "scale": [
        0.9999997615814209,
        0.9999998211860657,
        1.0
      ],
      "translation": [
        0.011243575252592564,
        0.009382566437125206,
        0.024084191769361496
      ]
    },
    {
      "name": "Kciuk.P.001_11",
      "rotation": [
        -0.21534816920757294,
        -0.29356518387794495,
        -0.08570116758346558,
        0.9274157285690308
      ],
      "scale": [
        0.9999999403953552,
        1.0,
        1.0
      ],
      "translation": [
        5.2045663778699236e-08,
        0.049909405410289764,
        -1.076291056278933e-08
      ]
    },
    {
      "children": [
        39
      ],
      "name": "Noga.L_21",
      "rotation": [
        -0.7034245133399963,
        -0.11244410276412964,
        0.6981089115142822,
        0.07207140326499939
      ],
      "scale": [
        1.0000025033950806,
        1.0000003576278687,
        1.0
      ],
      "translation": [
        0.08529049903154373,
        -0.015986144542694092,
        3.115659907848567e-08
      ]
    },
    {
      "children": [
        40
      ],
      "name": "Noga.L.001_20",
      "rotation": [
        0.02878660149872303,
        0.0006726577412337065,
        -0.023352183401584625,
        0.9993125796318054
      ],
      "scale": [
        1.0,
        1.0,
        0.9999999403953552
      ],
      "translation": [
        1.4901161193847656e-08,
        0.27269306778907776,
        1.117587622445626e-08
      ]
    },
    {
      "children": [
        41
      ],
      "name": "Noga.L.002_19",
      "rotation": [
        -1.8626433728741176e-09,
        8.834549574104206e-14,
        7.450578376477779e-09,
        1.0
      ],
      "translation": [
        -1.4901154976598718e-08,
        0.4810188114643097,
        2.8882427005605393e-10
      ]
    },
    {
      "name": "Stopa.L_18",
      "rotation": [
        -2.7973106853096397e-07,
        3.2658885373848534e-08,
        0.7829140424728394,
        0.6221299171447754
      ],
      "scale": [
        1.0,
        0.9999999403953552,
        1.0
      ],
      "translation": [
        1.4901161193847656e-08,
        0.07078211009502411,
        1.1024710637951799e-14
      ]
    },
    {
      "children": [
        43
      ],
      "name": "Noga.P_25",
      "rotation": [
        0.7003868222236633,
        -0.13740965723991394,
        -0.6936272382736206,
        0.09725353121757507
      ],
      "scale": [
        1.000002384185791,
        1.0000003576278687,
        0.9999999403953552
      ],
      "translation": [
        -0.08790788054466248,
        -0.015986144542694092,
        -9.783007293151513e-09
      ]
    },
    {
      "children": [
        44
      ],
      "name": "Noga.P.001_24",
      "rotation": [
        -0.028728347271680832,
        -0.0019502908689901233,
        -0.06771442294120789,
        0.99728924036026
      ],
      "scale": [
        1.0,
        0.9999998807907104,
        0.9999998807907104
      ],
      "translation": [
        1.916129981191419e-15,
        0.27269306778907776,
        2.9413960156432495e-10
      ]
    },
    {
      "children": [
        45
      ],
      "name": "Noga.P.002_23",
      "rotation": [
        4.949159659872748e-08,
        1.093958035269793e-09,
        -0.14780940115451813,
        0.9890158772468567
      ],
      "translation": [
        -1.7327452305284947e-15,
        0.4810187816619873,
        6.8729422153523956e-09
      ]
    },
    {
      "name": "Stopa.P_22",
      "rotation": [
        -2.526673767988541e-07,
        2.9058334405362984e-08,
        0.7256770133972168,
        0.6880354881286621
      ],
      "scale": [
        0.9999999403953552,
        0.9999998807907104,
        1.0
      ],
      "translation": [
        -1.4901161193847656e-08,
        0.07078206539154053,
        -3.1151378346774687e-16
      ]
    },
    {
      "name": "Bron_26",
      "rotation": [
        0.5299823880195618,
        -0.26863646507263184,
        0.0735534280538559,
        0.800963819026947
      ],
      "translation": [
        0.20113927125930786,
        0.22668027877807617,
        0.4014380872249603
      ]
    }
  ],
  "samplers": [
    {
      "magFilter": 9729,
      "minFilter": 9987,
      "wrapS": 10497,
      "wrapT": 10497
    }
  ],
  "scene": 0,
  "scenes": [
    {
      "name": "Sketchfab_Scene",
      "nodes": [
        0
      ]
    }
  ],
  "skins": [
    {
      "inverseBindMatrices": 24,
      "joints": [
        5,
        18,
        19,
        20,
        21,
        22,
        23,
        24,
        25,
        26,
        27,
        28,
        29,
        30,
        31,
        32,
        33,
        34,
        35,
        36,
        37,
        38,
        39,
        40,
        41,
        42,
        43,
        44,
        45,
        46
      ],
      "skeleton": 5
    }
  ],
  "textures": [
    {
      "sampler": 0,
      "source": 0
    }
  ]
}
