{
  "accessors": [
    {
      "bufferView": 2,
      "componentType": 5126,
      "count": 4781,
      "max": [
        142.42860412597656,
        45.16939926147461,
        229.74339294433594
      ],
      "min": [
        -127.60980224609375,
        -45.2234992980957,
        163.07620239257813
      ],
      "type": "VEC3"
    },
    {
      "bufferView": 2,
      "byteOffset": 57372,
      "componentType": 5126,
      "count": 4781,
      "max": [
        0.99998939037323,
        0.9999768733978271,
        1.0
      ],
      "min": [
        -0.99998939037323,
        -0.9999768733978271,
        -1.0
      ],
      "type": "VEC3"
    },
    {
      "bufferView": 3,
      "componentType": 5126,
      "count": 4781,
      "max": [
        1.0,
        1.0,
        0.999834418296814,
        1.0
      ],
      "min": [
        -1.0,
        -1.0,
        -0.9999776482582092,
        -1.0
      ],
      "type": "VEC4"
    },
    {
      "bufferView": 1,
      "componentType": 5126,
      "count": 4781,
      "max": [
        0.9943000078201294,
        0.9979000091552734
      ],
      "min": [
        0.0019000000320374966,
        0.006000000052154064
      ],
      "type": "VEC2"
    },
    {
      "bufferView": 0,
      "componentType": 5125,
      "count": 12522,
      "type": "SCALAR"
    },
    {
      "bufferView": 2,
      "byteOffset": 114744,
      "componentType": 5126,
      "count": 864,
      "max": [
        158.11720275878906,
        65.50170135498047,
        163.23570251464844
      ],
      "min": [
        -157.79820251464844,
        -62.726898193359375,
        -0.13099999725818634
      ],
      "type": "VEC3"
    },
    {
      "bufferView": 2,
      "byteOffset": 125112,
      "componentType": 5126,
      "count": 864,
      "max": [
        0.9975355863571167,
        0.9977222084999084,
        0.9999992847442627
      ],
      "min": [
        -0.9891831278800964,
        -0.9844889640808105,
        -1.0
      ],
      "type": "VEC3"
    },
    {
      "bufferView": 3,
      "byteOffset": 76496,
      "componentType": 5126,
      "count": 864,
      "max": [
        0.9978097677230835,
        0.9988438487052917,
        0.9999955892562866,
        1.0
      ],
      "min": [
        -0.992539644241333,
        -0.9998099207878113,
        -0.9999284148216248,
        -1.0
      ],
      "type": "VEC4"
    },
    {
      "bufferView": 1,
      "byteOffset": 38248,
      "componentType": 5126,
      "count": 864,
      "max": [
        0.9876000285148621,
        0.9921000003814697
      ],
      "min": [
        0.007799999788403511,
        0.008500000461935997
      ],
      "type": "VEC2"
    },
    {
      "bufferView": 0,
      "byteOffset": 50088,
      "componentType": 5125,
      "count": 2400,
      "type": "SCALAR"
    }
  ],
  "asset": {
    "extras": {
      "author": "burnedhrum (https://sketchfab.com/burnedhrum)",
      "license": "CC-BY-4.0 (http://creativecommons.org/licenses/by/4.0/)",
      "source": "https://sketchfab.com/3d-models/medieval-braziers-l-lights-l-enviroment-fc5c7544dd224365b055febee02bb496",
      "title": "Medieval braziers l Lights l Enviroment"
    },
    "generator": "Sketchfab-12.67.0",
    "version": "2.0"
  },
  "bufferViews": [
    {
      "buffer": 0,
      "byteLength": 59688,
      "name": "floatBufferViews",
      "target": 34963
    },
    {
      "buffer": 0,
      "byteLength": 45160,
      "byteOffset": 59688,
      "byteStride": 8,
      "name": "floatBufferViews",
      "target": 34962
    },
    {
      "buffer": 0,
      "byteLength": 135480,
      "byteOffset": 104848,
      "byteStride": 12,
      "name": "floatBufferViews",
      "target": 34962
    },
    {
      "buffer": 0,
      "byteLength": 90320,
      "byteOffset": 240328,
      "byteStride": 16,
      "name": "floatBufferViews",
      "target": 34962
    }
  ],
  "buffers": [
    {
      "byteLength": 330648,
      "uri": "scene.bin"
    }
  ],
  "images": [
    {
      "uri": "textures/Blaziers_baseColor.jpeg"
    },
    {
      "uri": "textures/Blaziers_metallicRoughness.png"
    },
    {
      "uri": "textures/Blaziers_normal.jpeg"
    },
    {
      "uri": "textures/Stand_baseColor.jpeg"
    },
    {
      "uri": "textures/Stand_metallicRoughness.png"
    },
    {
      "uri": "textures/Stand_normal.png"
    }
  ],
  "materials": [
    {
      "doubleSided": true,
      "name": "Blaziers",
      "normalTexture": {
        "index": 2
      },
      "occlusionTexture": {
        "index": 1
      },
      "pbrMetallicRoughness": {
        "baseColorTexture": {
          "index": 0
        },
        "metallicFactor": 0.0,
        "metallicRoughnessTexture": {
          "index": 1
        }
      }
    },
    {
      "doubleSided": true,
      "name": "Stand",
      "normalTexture": {
        "index": 5
      },
      "occlusionTexture": {
        "index": 4
      },
      "pbrMetallicRoughness": {
        "baseColorTexture": {
          "index": 3
        },
        "metallicFactor": 0.0,
        "metallicRoughnessTexture": {
          "index": 4
        }
      }
    }
  ],
  "meshes": [
    {
      "name": "Object_0",
      "primitives": [
        {
          "attributes": {
            "NORMAL": 1,
            "POSITION": 0,
            "TANGENT": 2,
            "TEXCOORD_0": 3
          },
          "indices": 4,
          "material": 0,
          "mode": 4
        }
      ]
    },
    {
      "name": "Object_1",
      "primitives": [
        {
          "attributes": {
            "NORMAL": 6,
            "POSITION": 5,
            "TANGENT": 7,
            "TEXCOORD_0": 8
          },
          "indices": 9,
          "material": 1,
          "mode": 4
        }
      ]
    }
  ],
  "nodes": [
    {
      "children": [
        1
      ],
      "matrix": [
        1.5261458158493042,
        0.0,
        0.0,
        0.0,
        0.0,
        3.3887244473824833e-16,
        -1.5261458158493042,
        0.0,
        0.0,
        1.5261458158493042,
        3.3887244473824833e-16,
        0.0,
        0.0,
        0.0,
        0.0,
        1.0
      ],
      "name": "Sketchfab_model"
    },
    {
      "children": [
        2,
        3
      ],
      "name": "7d54eab882b84eba86f716e4d9aa8b39.obj.cleaner.materialmerger.gles"
    },
    {
      "mesh": 0,
      "name": "Object_2"
    },
    {
      "mesh": 1,
      "name": "Object_3"
    }
  ],
  "samplers": [
    {
      "magFilter": 9729,
      "minFilter": 9987,
      "wrapS": 10497,
      "wrapT": 10497
    }
  ],
  "scene": 0,
  "scenes": [
    {
      "name": "Sketchfab_Scene",
      "nodes": [
        0
      ]
    }
  ],
  "textures": [
    {
      "sampler": 0,
      "source": 0
    },
    {
      "sampler": 0,
      "source": 1
    },
    {
      "sampler": 0,
      "source": 2
    },
    {
      "sampler": 0,
      "source": 3
    },
    {
      "sampler": 0,
      "source": 4
    },
    {
      "sampler": 0,
      "source": 5
    }
  ]
}
