{
  "accessors": [
    {
      "bufferView": 2,
      "componentType": 5126,
      "count": 168,
      "max": [
        51.92543411254883,
        101.91671752929688,
        52.26667022705078
      ],
      "min": [
        -52.59379196166992,
        -1.9167184829711914,
        -52.26667022705078
      ],
      "type": "VEC3"
    },
    {
      "bufferView": 2,
      "byteOffset": 2016,
      "componentType": 5126,
      "count": 168,
      "max": [
        0.8982611894607544,
        0.8977378606796265,
        0.8992758393287659
      ],
      "min": [
        -0.8981347680091858,
        -0.8977379202842712,
        -0.8982940912246704
      ],
      "type": "VEC3"
    },
    {
      "bufferView": 1,
      "componentType": 5126,
      "count": 168,
      "max": [
        0.9234716892242432,
        0.866587221622467
      ],
      "min": [
        0.9162919521331787,
        0.7337483763694763
      ],
      "type": "VEC2"
    },
    {
      "bufferView": 0,
      "componentType": 5125,
      "count": 732,
      "type": "SCALAR"
    },
    {
      "bufferView": 2,
      "byteOffset": 4032,
      "componentType": 5126,
      "count": 156,
      "max": [
        27.762514114379883,
        40.89824295043945,
        27.31242561340332
      ],
      "min": [
        -28.84172248840332,
        0.0,
        -27.007219314575195
      ],
      "type": "VEC3"
    },
    {
      "bufferView": 2,
      "byteOffset": 5904,
      "componentType": 5126,
      "count": 156,
      "max": [
        0.9999459981918335,
        0.99751216173172,
        0.9999459981918335
      ],
      "min": [
        -0.9999459981918335,
        -0.9574935436248779,
        -0.9999459981918335
      ],
      "type": "VEC3"
    },
    {
      "bufferView": 1,
      "byteOffset": 1344,
      "componentType": 5126,
      "count": 156,
      "max": [
        0.9218419790267944,
        0.7433532476425171
      ],
      "min": [
        0.08399471640586853,
        0.5755952596664429
      ],
      "type": "VEC2"
    },
    {
      "bufferView": 0,
      "byteOffset": 2928,
      "componentType": 5125,
      "count": 912,
      "type": "SCALAR"
    },
    {
      "bufferView": 2,
      "byteOffset": 7776,
      "componentType": 5126,
      "count": 96,
      "max": [
        9.204742431640625,
        16.352272033691406,
        9.204742431640625
      ],
      "min": [
        -9.204742431640625,
        0.0,
        -9.204742431640625
      ],
      "type": "VEC3"
    },
    {
      "bufferView": 2,
      "byteOffset": 8928,
      "componentType": 5126,
      "count": 96,
      "max": [
        0.9909939169883728,
        0.9818370938301086,
        0.9725253582000732
      ],
      "min": [
        -0.9725252985954285,
        -1.0,
        -0.9725253582000732
      ],
      "type": "VEC3"
    },
    {
      "bufferView": 1,
      "byteOffset": 2592,
      "componentType": 5126,
      "count": 96,
      "max": [
        0.252991259098053,
        0.5989444255828857
      ],
      "min": [
        0.2388407289981842,
        0.5847939252853394
      ],
      "type": "VEC2"
    },
    {
      "bufferView": 0,
      "byteOffset": 6576,
      "componentType": 5125,
      "count": 384,
      "type": "SCALAR"
    },
    {
      "bufferView": 2,
      "byteOffset": 10080,
      "componentType": 5126,
      "count": 212,
      "max": [
        51.38518142700195,
        104.39775085449219,
        51.38518142700195
      ],
      "min": [
        -51.385189056396484,
        0.0,
        -51.38518142700195
      ],
      "type": "VEC3"
    },
    {
      "bufferView": 2,
      "byteOffset": 12624,
      "componentType": 5126,
      "count": 212,
      "max": [
        0.9999865889549255,
        1.0,
        0.9999865889549255
      ],
      "min": [
        -0.9999866485595703,
        -0.982207715511322,
        -0.9999866485595703
      ],
      "type": "VEC3"
    },
    {
      "bufferView": 1,
      "byteOffset": 3360,
      "componentType": 5126,
      "count": 212,
      "max": [
        0.9173976182937622,
        0.7037838101387024
      ],
      "min": [
        0.022488174960017204,
        0.3849446773529053
      ],
      "type": "VEC2"
    },
    {
      "bufferView": 0,
      "byteOffset": 8112,
      "componentType": 5125,
      "count": 828,
      "type": "SCALAR"
    },
    {
      "bufferView": 2,
      "byteOffset": 15168,
      "componentType": 5126,
      "count": 220,
      "max": [
        51.38518142700195,
        100.0,
        51.38518142700195
      ],
      "min": [
        -73.2972640991211,
        -1.4516030550003052,
        -54.11223602294922
      ],
      "type": "VEC3"
    },
    {
      "bufferView": 2,
      "byteOffset": 17808,
      "componentType": 5126,
      "count": 220,
      "max": [
        0.9860320091247559,
        0.9822085499763489,
        0.9860320091247559
      ],
      "min": [
        -0.9860320687294006,
        -0.982207715511322,
        -0.9860320091247559
      ],
      "type": "VEC3"
    },
    {
      "bufferView": 1,
      "byteOffset": 5056,
      "componentType": 5126,
      "count": 220,
      "max": [
        0.9169856905937195,
        0.7036200761795044
      ],
      "min": [
        0.0259108804166317,
        0.4010499119758606
      ],
      "type": "VEC2"
    },
    {
      "bufferView": 0,
      "byteOffset": 11424,
      "componentType": 5125,
      "count": 846,
      "type": "SCALAR"
    },
    {
      "bufferView": 2,
      "byteOffset": 20448,
      "componentType": 5126,
      "count": 64,
      "max": [
        10.043428421020508,
        53.000003814697266,
        10.043427467346191
      ],
      "min": [
        -10.043424606323242,
        0.0,
        -10.043427467346191
      ],
      "type": "VEC3"
    },
    {
      "bufferView": 2,
      "byteOffset": 21216,
      "componentType": 5126,
      "count": 64,
      "max": [
        1.0,
        0.804187536239624,
        1.0
      ],
      "min": [
        -1.0,
        -1.0,
        -1.0
      ],
      "type": "VEC3"
    },
    {
      "bufferView": 1,
      "byteOffset": 6816,
      "componentType": 5126,
      "count": 64,
      "max": [
        0.5984623432159424,
        0.07979495078325272
      ],
      "min": [
        0.5984623432159424,
        0.07979495078325272
      ],
      "type": "VEC2"
    },
    {
      "bufferView": 0,
      "byteOffset": 14808,
      "componentType": 5125,
      "count": 384,
      "type": "SCALAR"
    },
    {
      "bufferView": 2,
      "byteOffset": 21984,
      "componentType": 5126,
      "count": 103,
      "max": [
        15.646843910217285,
        27.201187133789063,
        20.55118751525879
      ],
      "min": [
        -15.651865005493164,
        -8.942251205444336,
        -23.100183486938477
      ],
      "type": "VEC3"
    },
    {
      "bufferView": 2,
      "byteOffset": 23220,
      "componentType": 5126,
      "count": 103,
      "max": [
        0.927665650844574,
        0.9717015624046326,
        0.9999119639396667
      ],
      "min": [
        -0.9278742671012878,
        -0.9930377006530762,
        -0.9682481288909912
      ],
      "type": "VEC3"
    },
    {
      "bufferView": 1,
      "byteOffset": 7328,
      "componentType": 5126,
      "count": 103,
      "max": [
        0.7557083368301392,
        0.16333332657814026
      ],
      "min": [
        0.7557083368301392,
        0.16333332657814026
      ],
      "type": "VEC2"
    },
    {
      "bufferView": 0,
      "byteOffset": 16344,
      "componentType": 5125,
      "count": 588,
      "type": "SCALAR"
    },
    {
      "bufferView": 2,
      "byteOffset": 24456,
      "componentType": 5126,
      "count": 116,
      "max": [
        7.500000476837158,
        2.0,
        7.500000476837158
      ],
      "min": [
        -7.500000476837158,
        0.0,
        -9.245683670043945
      ],
      "type": "VEC3"
    },
    {
      "bufferView": 2,
      "byteOffset": 25848,
      "componentType": 5126,
      "count": 116,
      "max": [
        0.8564010858535767,
        0.8301541209220886,
        0.7855628728866577
      ],
      "min": [
        -0.8564010262489319,
        -0.8301541209220886,
        -0.7830551266670227
      ],
      "type": "VEC3"
    },
    {
      "bufferView": 1,
      "byteOffset": 8152,
      "componentType": 5126,
      "count": 116,
      "max": [
        0.7538524866104126,
        0.7034557461738586
      ],
      "min": [
        0.08189493417739868,
        0.0797950029373169
      ],
      "type": "VEC2"
    },
    {
      "bufferView": 0,
      "byteOffset": 18696,
      "componentType": 5125,
      "count": 552,
      "type": "SCALAR"
    },
    {
      "bufferView": 2,
      "byteOffset": 27240,
      "componentType": 5126,
      "count": 196,
      "max": [
        18.124319076538086,
        27.93804359436035,
        50.00000762939453
      ],
      "min": [
        -4.4310407638549805,
        -5.594061374664307,
        -337.03594970703125
      ],
      "type": "VEC3"
    },
    {
      "bufferView": 2,
      "byteOffset": 29592,
      "componentType": 5126,
      "count": 196,
      "max": [
        1.0,
        0.9999618530273438,
        1.0
      ],
      "min": [
        -1.0,
        -0.999961793422699,
        -1.0
      ],
      "type": "VEC3"
    },
    {
      "bufferView": 1,
      "byteOffset": 9080,
      "componentType": 5126,
      "count": 196,
      "max": [
        0.9180467128753662,
        0.8915589451789856
      ],
      "min": [
        0.08215704560279846,
        0.5919293165206909
      ],
      "type": "VEC2"
    },
    {
      "bufferView": 0,
      "byteOffset": 20904,
      "componentType": 5125,
      "count": 894,
      "type": "SCALAR"
    },
    {
      "bufferView": 2,
      "byteOffset": 31944,
      "componentType": 5126,
      "count": 64,
      "max": [
        8.516558647155762,
        30.775386810302734,
        8.516558647155762
      ],
      "min": [
        -8.863698959350586,
        0.0,
        -8.516558647155762
      ],
      "type": "VEC3"
    },
    {
      "bufferView": 2,
      "byteOffset": 32712,
      "componentType": 5126,
      "count": 64,
      "max": [
        0.9989175200462341,
        0.953103244304657,
        0.9999378323554993
      ],
      "min": [
        -0.9998505115509033,
        -0.6149583458900452,
        -0.9999997615814209
      ],
      "type": "VEC3"
    },
    {
      "bufferView": 1,
      "byteOffset": 10648,
      "componentType": 5126,
      "count": 64,
      "max": [
        0.7599999904632568,
        0.21666666865348816
      ],
      "min": [
        0.7599999904632568,
        0.21666666865348816
      ],
      "type": "VEC2"
    },
    {
      "bufferView": 0,
      "byteOffset": 24480,
      "componentType": 5125,
      "count": 372,
      "type": "SCALAR"
    },
    {
      "bufferView": 2,
      "byteOffset": 33480,
      "componentType": 5126,
      "count": 140,
      "max": [
        21.524873733520508,
        27.22232437133789,
        12.12621784210205
      ],
      "min": [
        -12.12621784210205,
        0.0,
        -12.126219749450684
      ],
      "type": "VEC3"
    },
    {
      "bufferView": 2,
      "byteOffset": 35160,
      "componentType": 5126,
      "count": 140,
      "max": [
        0.9992471933364868,
        1.0,
        0.999247133731842
      ],
      "min": [
        -0.999247133731842,
        -1.0,
        -0.9992470741271973
      ],
      "type": "VEC3"
    },
    {
      "bufferView": 1,
      "byteOffset": 11160,
      "componentType": 5126,
      "count": 140,
      "max": [
        0.919973611831665,
        0.7834821343421936
      ],
      "min": [
        0.07769510895013809,
        0.6446593999862671
      ],
      "type": "VEC2"
    },
    {
      "bufferView": 0,
      "byteOffset": 25968,
      "componentType": 5125,
      "count": 690,
      "type": "SCALAR"
    },
    {
      "bufferView": 2,
      "byteOffset": 36840,
      "componentType": 5126,
      "count": 113,
      "max": [
        15.441987037658691,
        4.219420433044434,
        100.0
      ],
      "min": [
        -15.441987037658691,
        -4.107187747955322,
        -89.46568298339844
      ],
      "type": "VEC3"
    },
    {
      "bufferView": 2,
      "byteOffset": 38196,
      "componentType": 5126,
      "count": 113,
      "max": [
        0.9999949336051941,
        0.9999999403953552,
        1.0
      ],
      "min": [
        -0.9999949336051941,
        -0.9999949336051941,
        -0.9914982914924622
      ],
      "type": "VEC3"
    },
    {
      "bufferView": 1,
      "byteOffset": 12280,
      "componentType": 5126,
      "count": 113,
      "max": [
        0.9197421073913574,
        0.7570024132728577
      ],
      "min": [
        0.0797949731349945,
        0.577463686466217
      ],
      "type": "VEC2"
    },
    {
      "bufferView": 0,
      "byteOffset": 28728,
      "componentType": 5125,
      "count": 540,
      "type": "SCALAR"
    },
    {
      "bufferView": 2,
      "byteOffset": 39552,
      "componentType": 5126,
      "count": 66,
      "max": [
        4.0056610107421875,
        0.7144951224327087,
        11.688973426818848
      ],
      "min": [
        -4.0056610107421875,
        -0.7144951224327087,
        -11.734383583068848
      ],
      "type": "VEC3"
    },
    {
      "bufferView": 2,
      "byteOffset": 40344,
      "componentType": 5126,
      "count": 66,
      "max": [
        0.7322925329208374,
        1.0,
        0.8239319920539856
      ],
      "min": [
        -0.7322925329208374,
        -1.0,
        -0.7596250772476196
      ],
      "type": "VEC3"
    },
    {
      "bufferView": 1,
      "byteOffset": 13184,
      "componentType": 5126,
      "count": 66,
      "max": [
        0.07582670450210571,
        0.413673996925354
      ],
      "min": [
        0.07582670450210571,
        0.413673996925354
      ],
      "type": "VEC2"
    },
    {
      "bufferView": 0,
      "byteOffset": 30888,
      "componentType": 5125,
      "count": 396,
      "type": "SCALAR"
    },
    {
      "bufferView": 2,
      "byteOffset": 41136,
      "componentType": 5126,
      "count": 48,
      "max": [
        3.9999990463256836,
        0.5,
        3.9999990463256836
      ],
      "min": [
        -3.9999990463256836,
        -0.5,
        -3.9999990463256836
      ],
      "type": "VEC3"
    },
    {
      "bufferView": 2,
      "byteOffset": 41712,
      "componentType": 5126,
      "count": 48,
      "max": [
        0.7763821482658386,
        0.8041866421699524,
        0.7763820886611938
      ],
      "min": [
        -0.7763821482658386,
        -0.8041866421699524,
        -0.7763822078704834
      ],
      "type": "VEC3"
    },
    {
      "bufferView": 1,
      "byteOffset": 13712,
      "componentType": 5126,
      "count": 48,
      "max": [
        0.744403064250946,
        0.6457094550132751
      ],
      "min": [
        0.744403064250946,
        0.6457094550132751
      ],
      "type": "VEC2"
    },
    {
      "bufferView": 0,
      "byteOffset": 32472,
      "componentType": 5125,
      "count": 276,
      "type": "SCALAR"
    },
    {
      "bufferView": 2,
      "byteOffset": 42288,
      "componentType": 5126,
      "count": 161,
      "max": [
        28.611480712890625,
        12.17768669128418,
        24.283235549926758
      ],
      "min": [
        -23.375835418701172,
        -1.443791151046753,
        -21.00404167175293
      ],
      "type": "VEC3"
    },
    {
      "bufferView": 2,
      "byteOffset": 44220,
      "componentType": 5126,
      "count": 161,
      "max": [
        0.9771022200584412,
        0.9962767362594604,
        0.98463374376297
      ],
      "min": [
        -0.9771021008491516,
        -0.9745355844497681,
        -0.9846338033676147
      ],
      "type": "VEC3"
    },
    {
      "bufferView": 1,
      "byteOffset": 14096,
      "componentType": 5126,
      "count": 161,
      "max": [
        0.7447243332862854,
        0.6455118060112
      ],
      "min": [
        0.7447243332862854,
        0.6455118060112
      ],
      "type": "VEC2"
    },
    {
      "bufferView": 0,
      "byteOffset": 33576,
      "componentType": 5125,
      "count": 828,
      "type": "SCALAR"
    },
    {
      "bufferView": 2,
      "byteOffset": 46152,
      "componentType": 5126,
      "count": 50,
      "max": [
        19.008474349975586,
        14.024177551269531,
        13.384596824645996
      ],
      "min": [
        -25.198089599609375,
        -0.27316921949386597,
        -11.994067192077637
      ],
      "type": "VEC3"
    },
    {
      "bufferView": 2,
      "byteOffset": 46752,
      "componentType": 5126,
      "count": 50,
      "max": [
        0.9790654182434082,
        0.9938440322875977,
        0.9997089505195618
      ],
      "min": [
        -0.9985621571540833,
        -0.9999844431877136,
        -0.969754159450531
      ],
      "type": "VEC3"
    },
    {
      "bufferView": 1,
      "byteOffset": 15384,
      "componentType": 5126,
      "count": 50,
      "max": [
        0.9218420386314392,
        0.6782572865486145
      ],
      "min": [
        0.9218420386314392,
        0.6782572865486145
      ],
      "type": "VEC2"
    },
    {
      "bufferView": 0,
      "byteOffset": 36888,
      "componentType": 5125,
      "count": 288,
      "type": "SCALAR"
    },
    {
      "bufferView": 2,
      "byteOffset": 47352,
      "componentType": 5126,
      "count": 50,
      "max": [
        14.153739929199219,
        12.582178115844727,
        36.944305419921875
      ],
      "min": [
        -12.262948989868164,
        -12.184979438781738,
        -11.725237846374512
      ],
      "type": "VEC3"
    },
    {
      "bufferView": 2,
      "byteOffset": 47952,
      "componentType": 5126,
      "count": 50,
      "max": [
        0.9975802898406982,
        0.9938768744468689,
        0.9899835586547852
      ],
      "min": [
        -0.9990038275718689,
        -0.9997305274009705,
        -0.9702196717262268
      ],
      "type": "VEC3"
    },
    {
      "bufferView": 1,
      "byteOffset": 15784,
      "componentType": 5126,
      "count": 50,
      "max": [
        0.923941969871521,
        0.6803572177886963
      ],
      "min": [
        0.923941969871521,
        0.6803572177886963
      ],
      "type": "VEC2"
    },
    {
      "bufferView": 0,
      "byteOffset": 38040,
      "componentType": 5125,
      "count": 288,
      "type": "SCALAR"
    },
    {
      "bufferView": 2,
      "byteOffset": 48552,
      "componentType": 5126,
      "count": 112,
      "max": [
        11.6288480758667,
        53.000003814697266,
        11.628847122192383
      ],
      "min": [
        -11.628844261169434,
        0.0,
        -11.628847122192383
      ],
      "type": "VEC3"
    },
    {
      "bufferView": 2,
      "byteOffset": 49896,
      "componentType": 5126,
      "count": 112,
      "max": [
        0.9860817193984985,
        0.804187536239624,
        0.9860817193984985
      ],
      "min": [
        -0.9860817193984985,
        -1.0,
        -0.9860817193984985
      ],
      "type": "VEC3"
    },
    {
      "bufferView": 1,
      "byteOffset": 16184,
      "componentType": 5126,
      "count": 112,
      "max": [
        0.9176422357559204,
        0.5207672119140625
      ],
      "min": [
        0.5900629162788391,
        0.07769510895013809
      ],
      "type": "VEC2"
    },
    {
      "bufferView": 0,
      "byteOffset": 39192,
      "componentType": 5125,
      "count": 594,
      "type": "SCALAR"
    },
    {
      "bufferView": 2,
      "byteOffset": 51240,
      "componentType": 5126,
      "count": 88,
      "max": [
        17.129199981689453,
        49.20575714111328,
        10.058722496032715
      ],
      "min": [
        -17.129199981689453,
        0.0,
        -10.058722496032715
      ],
      "type": "VEC3"
    },
    {
      "bufferView": 2,
      "byteOffset": 52296,
      "componentType": 5126,
      "count": 88,
      "max": [
        1.0,
        0.8909181356430054,
        1.0
      ],
      "min": [
        -1.0,
        -0.8041866421699524,
        -1.0
      ],
      "type": "VEC3"
    },
    {
      "bufferView": 1,
      "byteOffset": 17080,
      "componentType": 5126,
      "count": 88,
      "max": [
        0.9147238731384277,
        0.6921378374099731
      ],
      "min": [
        0.08107632398605347,
        0.6753389239311218
      ],
      "type": "VEC2"
    },
    {
      "bufferView": 0,
      "byteOffset": 41568,
      "componentType": 5125,
      "count": 420,
      "type": "SCALAR"
    },
    {
      "bufferView": 2,
      "byteOffset": 53352,
      "componentType": 5126,
      "count": 102,
      "max": [
        8.045283317565918,
        29.632204055786133,
        7.515507221221924
      ],
      "min": [
        -7.515507221221924,
        0.0,
        -7.515507221221924
      ],
      "type": "VEC3"
    },
    {
      "bufferView": 2,
      "byteOffset": 54576,
      "componentType": 5126,
      "count": 102,
      "max": [
        0.992202877998352,
        0.999952495098114,
        0.994279146194458
      ],
      "min": [
        -0.9922521710395813,
        -1.0,
        -0.9942792057991028
      ],
      "type": "VEC3"
    },
    {
      "bufferView": 1,
      "byteOffset": 17784,
      "componentType": 5126,
      "count": 102,
      "max": [
        0.9206923842430115,
        0.8624876141548157
      ],
      "min": [
        0.08201570063829422,
        0.2513384222984314
      ],
      "type": "VEC2"
    },
    {
      "bufferView": 0,
      "byteOffset": 43248,
      "componentType": 5125,
      "count": 576,
      "type": "SCALAR"
    },
    {
      "bufferView": 2,
      "byteOffset": 55800,
      "componentType": 5126,
      "count": 244,
      "max": [
        13.270495414733887,
        14.590583801269531,
        55.0
      ],
      "min": [
        -13.27049446105957,
        -11.950408935546875,
        -104.99999237060547
      ],
      "type": "VEC3"
    },
    {
      "bufferView": 2,
      "byteOffset": 58728,
      "componentType": 5126,
      "count": 244,
      "max": [
        0.8811351656913757,
        0.9997154474258423,
        0.9019710421562195
      ],
      "min": [
        -0.9999490976333618,
        -0.8943248391151428,
        -0.8559756875038147
      ],
      "type": "VEC3"
    },
    {
      "bufferView": 1,
      "byteOffset": 18600,
      "componentType": 5126,
      "count": 244,
      "max": [
        0.9197038412094116,
        0.6880031228065491
      ],
      "min": [
        0.8006151914596558,
        0.1359061896800995
      ],
      "type": "VEC2"
    },
    {
      "bufferView": 0,
      "byteOffset": 45552,
      "componentType": 5125,
      "count": 1008,
      "type": "SCALAR"
    },
    {
      "bufferView": 2,
      "byteOffset": 61656,
      "componentType": 5126,
      "count": 183,
      "max": [
        9.764750480651855,
        9.764752388000488,
        43.32649612426758
      ],
      "min": [
        -9.764750480651855,
        -9.764750480651855,
        -43.63775634765625
      ],
      "type": "VEC3"
    },
    {
      "bufferView": 2,
      "byteOffset": 63852,
      "componentType": 5126,
      "count": 183,
      "max": [
        0.8198854923248291,
        0.9996479749679565,
        0.9536305069923401
      ],
      "min": [
        -0.8198855519294739,
        -0.9486096501350403,
        -0.8113783001899719
      ],
      "type": "VEC3"
    },
    {
      "bufferView": 1,
      "byteOffset": 20552,
      "componentType": 5126,
      "count": 183,
      "max": [
        0.9260417222976685,
        0.6887567043304443
      ],
      "min": [
        0.7465029954910278,
        0.06719577312469482
      ],
      "type": "VEC2"
    },
    {
      "bufferView": 0,
      "byteOffset": 49584,
      "componentType": 5125,
      "count": 768,
      "type": "SCALAR"
    },
    {
      "bufferView": 2,
      "byteOffset": 66048,
      "componentType": 5126,
      "count": 396,
      "max": [
        161.6971435546875,
        272.779541015625,
        106.09022521972656
      ],
      "min": [
        -158.6155242919922,
        -31.91291618347168,
        -105.99138641357422
      ],
      "type": "VEC3"
    },
    {
      "bufferView": 2,
      "byteOffset": 70800,
      "componentType": 5126,
      "count": 396,
      "max": [
        0.9249734878540039,
        0.9999076128005981,
        0.9998895525932312
      ],
      "min": [
        -0.9296260476112366,
        -0.9999150037765503,
        -0.9990096092224121
      ],
      "type": "VEC3"
    },
    {
      "bufferView": 1,
      "byteOffset": 22016,
      "componentType": 5126,
      "count": 396,
      "max": [
        0.9249975681304932,
        0.9089069962501526
      ],
      "min": [
        0.5983332991600037,
        0.09083343297243118
      ],
      "type": "VEC2"
    },
    {
      "bufferView": 0,
      "byteOffset": 52656,
      "componentType": 5125,
      "count": 2052,
      "type": "SCALAR"
    },
    {
      "bufferView": 2,
      "byteOffset": 75552,
      "componentType": 5126,
      "count": 172,
      "max": [
        135.3131561279297,
        250.0,
        6.562092304229736
      ],
      "min": [
        -135.40972900390625,
        -31.91925048828125,
        -6.5620951652526855
      ],
      "type": "VEC3"
    },
    {
      "bufferView": 2,
      "byteOffset": 77616,
      "componentType": 5126,
      "count": 172,
      "max": [
        0.7045789361000061,
        0.999535083770752,
        0.7591397762298584
      ],
      "min": [
        -0.7045789361000061,
        -0.7192320227622986,
        -0.7591404318809509
      ],
      "type": "VEC3"
    },
    {
      "bufferView": 1,
      "byteOffset": 25184,
      "componentType": 5126,
      "count": 172,
      "max": [
        0.9298364520072937,
        0.9062172770500183
      ],
      "min": [
        0.7643518447875977,
        0.11129302531480789
      ],
      "type": "VEC2"
    },
    {
      "bufferView": 0,
      "byteOffset": 60864,
      "componentType": 5125,
      "count": 732,
      "type": "SCALAR"
    },
    {
      "bufferView": 2,
      "byteOffset": 79680,
      "componentType": 5126,
      "count": 294,
      "max": [
        67.2520751953125,
        97.64379119873047,
        49.0088996887207
      ],
      "min": [
        -67.23868560791016,
        0.0,
        -48.98149108886719
      ],
      "type": "VEC3"
    },
    {
      "bufferView": 2,
      "byteOffset": 83208,
      "componentType": 5126,
      "count": 294,
      "max": [
        1.0,
        0.998790979385376,
        1.0
      ],
      "min": [
        -1.0,
        -1.0,
        -1.0
      ],
      "type": "VEC3"
    },
    {
      "bufferView": 1,
      "byteOffset": 26560,
      "componentType": 5126,
      "count": 294,
      "max": [
        0.9240576028823853,
        0.8422785997390747
      ],
      "min": [
        0.0,
        0.0
      ],
      "type": "VEC2"
    },
    {
      "bufferView": 0,
      "byteOffset": 63792,
      "componentType": 5125,
      "count": 1344,
      "type": "SCALAR"
    },
    {
      "bufferView": 2,
      "byteOffset": 86736,
      "componentType": 5126,
      "count": 72,
      "max": [
        4.3364667892456055,
        0.7191279530525208,
        14.456171989440918
      ],
      "min": [
        -4.3228020668029785,
        -0.5533806681632996,
        -13.438834190368652
      ],
      "type": "VEC3"
    },
    {
      "bufferView": 2,
      "byteOffset": 87600,
      "componentType": 5126,
      "count": 72,
      "max": [
        0.7532276511192322,
        0.9392129778862,
        0.5786322355270386
      ],
      "min": [
        -0.761182427406311,
        -1.0,
        -0.7321874499320984
      ],
      "type": "VEC3"
    },
    {
      "bufferView": 1,
      "byteOffset": 28912,
      "componentType": 5126,
      "count": 72,
      "max": [
        0.75,
        0.15833333134651184
      ],
      "min": [
        0.75,
        0.15833333134651184
      ],
      "type": "VEC2"
    },
    {
      "bufferView": 0,
      "byteOffset": 69168,
      "componentType": 5125,
      "count": 426,
      "type": "SCALAR"
    },
    {
      "bufferView": 2,
      "byteOffset": 88464,
      "componentType": 5126,
      "count": 78,
      "max": [
        5.207216739654541,
        3.839446544647217,
        32.56757354736328
      ],
      "min": [
        -5.207213878631592,
        -3.3290975093841553,
        -32.4029426574707
      ],
      "type": "VEC3"
    },
    {
      "bufferView": 2,
      "byteOffset": 89400,
      "componentType": 5126,
      "count": 78,
      "max": [
        0.999966561794281,
        0.9999469518661499,
        0.9995495080947876
      ],
      "min": [
        -0.999977171421051,
        -0.9999504089355469,
        -0.9999753832817078
      ],
      "type": "VEC3"
    },
    {
      "bufferView": 1,
      "byteOffset": 29488,
      "componentType": 5126,
      "count": 78,
      "max": [
        0.7487242817878723,
        0.16403146088123322
      ],
      "min": [
        0.7487242817878723,
        0.16403146088123322
      ],
      "type": "VEC2"
    },
    {
      "bufferView": 0,
      "byteOffset": 70872,
      "componentType": 5125,
      "count": 456,
      "type": "SCALAR"
    },
    {
      "bufferView": 2,
      "byteOffset": 90336,
      "componentType": 5126,
      "count": 41,
      "max": [
        6.025635719299316,
        0.07013380527496338,
        6.025635719299316
      ],
      "min": [
        -6.025635719299316,
        -45.0,
        -6.025635719299316
      ],
      "type": "VEC3"
    },
    {
      "bufferView": 2,
      "byteOffset": 90828,
      "componentType": 5126,
      "count": 41,
      "max": [
        0.9995405673980713,
        -0.029772382229566574,
        0.9995406270027161
      ],
      "min": [
        -0.9995405673980713,
        -1.0,
        -0.9995406270027161
      ],
      "type": "VEC3"
    },
    {
      "bufferView": 1,
      "byteOffset": 30112,
      "componentType": 5126,
      "count": 41,
      "max": [
        0.918865978717804,
        0.701587438583374
      ],
      "min": [
        0.918865978717804,
        0.701587438583374
      ],
      "type": "VEC2"
    },
    {
      "bufferView": 0,
      "byteOffset": 72696,
      "componentType": 5125,
      "count": 216,
      "type": "SCALAR"
    },
    {
      "bufferView": 2,
      "byteOffset": 91320,
      "componentType": 5126,
      "count": 258,
      "max": [
        27.731990814208984,
        279.820556640625,
        53.57281494140625
      ],
      "min": [
        -5.6169352531433105,
        -10.599004745483398,
        -371.8403625488281
      ],
      "type": "VEC3"
    },
    {
      "bufferView": 2,
      "byteOffset": 94416,
      "componentType": 5126,
      "count": 258,
      "max": [
        0.9999535083770752,
        0.9849063158035278,
        0.9847087264060974
      ],
      "min": [
        -0.9999534487724304,
        -0.9848077893257141,
        -0.9848077893257141
      ],
      "type": "VEC3"
    },
    {
      "bufferView": 1,
      "byteOffset": 30440,
      "componentType": 5126,
      "count": 258,
      "max": [
        0.9218422770500183,
        0.8987435698509216
      ],
      "min": [
        0.08002635836601257,
        0.07372677326202393
      ],
      "type": "VEC2"
    },
    {
      "bufferView": 0,
      "byteOffset": 73560,
      "componentType": 5125,
      "count": 1326,
      "type": "SCALAR"
    },
    {
      "bufferView": 2,
      "byteOffset": 97512,
      "componentType": 5126,
      "count": 52,
      "max": [
        10.4999418258667,
        4.294149398803711,
        28.757312774658203
      ],
      "min": [
        -10.499947547912598,
        -4.294149398803711,
        -22.52216911315918
      ],
      "type": "VEC3"
    },
    {
      "bufferView": 2,
      "byteOffset": 98136,
      "componentType": 5126,
      "count": 52,
      "max": [
        0.8248559236526489,
        0.9996761679649353,
        0.7885075807571411
      ],
      "min": [
        -0.8178801536560059,
        -0.9996761679649353,
        -0.5125473737716675
      ],
      "type": "VEC3"
    },
    {
      "bufferView": 1,
      "byteOffset": 32504,
      "componentType": 5126,
      "count": 52,
      "max": [
        0.5650959014892578,
        0.7513695955276489
      ],
      "min": [
        0.058204688131809235,
        0.09323349595069885
      ],
      "type": "VEC2"
    },
    {
      "bufferView": 0,
      "byteOffset": 78864,
      "componentType": 5125,
      "count": 204,
      "type": "SCALAR"
    },
    {
      "bufferView": 2,
      "byteOffset": 98760,
      "componentType": 5126,
      "count": 188,
      "max": [
        50.92409896850586,
        76.86357116699219,
        30.877351760864258
      ],
      "min": [
        -50.924076080322266,
        -0.023070070892572403,
        -59.831153869628906
      ],
      "type": "VEC3"
    },
    {
      "bufferView": 2,
      "byteOffset": 101016,
      "componentType": 5126,
      "count": 188,
      "max": [
        1.0,
        0.9045340418815613,
        0.9529822468757629
      ],
      "min": [
        -1.0,
        -0.8164965510368347,
        -0.8164967894554138
      ],
      "type": "VEC3"
    },
    {
      "bufferView": 1,
      "byteOffset": 32920,
      "componentType": 5126,
      "count": 188,
      "max": [
        0.9512306451797485,
        0.7855281829833984
      ],
      "min": [
        -0.005037877708673477,
        0.7363241910934448
      ],
      "type": "VEC2"
    },
    {
      "bufferView": 0,
      "byteOffset": 79680,
      "componentType": 5125,
      "count": 540,
      "type": "SCALAR"
    },
    {
      "bufferView": 2,
      "byteOffset": 103272,
      "componentType": 5126,
      "count": 156,
      "max": [
        50.92409896850586,
        25.644248962402344,
        31.738611221313477
      ],
      "min": [
        -50.924076080322266,
        -0.023070070892572403,
        -32.29303741455078
      ],
      "type": "VEC3"
    },
    {
      "bufferView": 2,
      "byteOffset": 105144,
      "componentType": 5126,
      "count": 156,
      "max": [
        1.0,
        0.9045340418815613,
        0.816496729850769
      ],
      "min": [
        -1.0,
        -0.9053405523300171,
        -0.8164967894554138
      ],
      "type": "VEC3"
    },
    {
      "bufferView": 1,
      "byteOffset": 34424,
      "componentType": 5126,
      "count": 156,
      "max": [
        0.9509392976760864,
        0.7853235602378845
      ],
      "min": [
        -0.002628851681947708,
        0.7363029718399048
      ],
      "type": "VEC2"
    },
    {
      "bufferView": 0,
      "byteOffset": 81840,
      "componentType": 5125,
      "count": 540,
      "type": "SCALAR"
    },
    {
      "bufferView": 2,
      "byteOffset": 107016,
      "componentType": 5126,
      "count": 655,
      "max": [
        81.61833953857422,
        72.57787322998047,
        194.84234619140625
      ],
      "min": [
        -81.61833953857422,
        -31.851329803466797,
        -269.27081298828125
      ],
      "type": "VEC3"
    },
    {
      "bufferView": 2,
      "byteOffset": 114876,
      "componentType": 5126,
      "count": 655,
      "max": [
        0.9111723303794861,
        0.9999842643737793,
        0.9999024271965027
      ],
      "min": [
        -0.911172091960907,
        -0.9999857544898987,
        -0.9999105334281921
      ],
      "type": "VEC3"
    },
    {
      "bufferView": 1,
      "byteOffset": 35672,
      "componentType": 5126,
      "count": 655,
      "max": [
        0.9213722944259644,
        0.698422908782959
      ],
      "min": [
        0.9171725511550903,
        0.5886276960372925
      ],
      "type": "VEC2"
    },
    {
      "bufferView": 0,
      "byteOffset": 84000,
      "componentType": 5125,
      "count": 2964,
      "type": "SCALAR"
    },
    {
      "bufferView": 2,
      "byteOffset": 122736,
      "componentType": 5126,
      "count": 85,
      "max": [
        13.577259063720703,
        3.6603403091430664,
        57.29159164428711
      ],
      "min": [
        -13.570603370666504,
        -3.6455326080322266,
        -140.32569885253906
      ],
      "type": "VEC3"
    },
    {
      "bufferView": 2,
      "byteOffset": 123756,
      "componentType": 5126,
      "count": 85,
      "max": [
        0.9873663187026978,
        0.9999338984489441,
        0.9999995827674866
      ],
      "min": [
        -0.987366259098053,
        -0.9995718598365784,
        -0.9996073246002197
      ],
      "type": "VEC3"
    },
    {
      "bufferView": 1,
      "byteOffset": 40912,
      "componentType": 5126,
      "count": 85,
      "max": [
        0.9200049638748169,
        0.6660208106040955
      ],
      "min": [
        0.9200049638748169,
        0.6660208106040955
      ],
      "type": "VEC2"
    },
    {
      "bufferView": 0,
      "byteOffset": 95856,
      "componentType": 5125,
      "count": 498,
      "type": "SCALAR"
    },
    {
      "bufferView": 2,
      "byteOffset": 124776,
      "componentType": 5126,
      "count": 1229,
      "max": [
        88.49212646484375,
        101.87509155273438,
        58.55774688720703
      ],
      "min": [
        -85.50189971923828,
        0.0,
        -51.642250061035156
      ],
      "type": "VEC3"
    },
    {
      "bufferView": 2,
      "byteOffset": 139524,
      "componentType": 5126,
      "count": 1229,
      "max": [
        0.9999753832817078,
        0.9999997615814209,
        0.999996542930603
      ],
      "min": [
        -0.9999753832817078,
        -1.0,
        -0.9999954104423523
      ],
      "type": "VEC3"
    },
    {
      "bufferView": 1,
      "byteOffset": 41592,
      "componentType": 5126,
      "count": 1229,
      "max": [
        1.0,
        0.9136741161346436
      ],
      "min": [
        0.08323389291763306,
        0.0
      ],
      "type": "VEC2"
    },
    {
      "bufferView": 0,
      "byteOffset": 97848,
      "componentType": 5125,
      "count": 6921,
      "type": "SCALAR"
    },
    {
      "bufferView": 2,
      "byteOffset": 154272,
      "componentType": 5126,
      "count": 228,
      "max": [
        59.291446685791016,
        102.16466522216797,
        43.48048400878906
      ],
      "min": [
        -59.291446685791016,
        -0.10792762041091919,
        -83.71183013916016
      ],
      "type": "VEC3"
    },
    {
      "bufferView": 2,
      "byteOffset": 157008,
      "componentType": 5126,
      "count": 228,
      "max": [
        0.8976291418075562,
        0.7787330746650696,
        0.8544197678565979
      ],
      "min": [
        -0.8976291418075562,
        -0.9999998211860657,
        -0.7763821482658386
      ],
      "type": "VEC3"
    },
    {
      "bufferView": 1,
      "byteOffset": 51424,
      "componentType": 5126,
      "count": 228,
      "max": [
        0.9226981401443481,
        0.9116666316986084
      ],
      "min": [
        0.08166670799255371,
        0.5856426954269409
      ],
      "type": "VEC2"
    },
    {
      "bufferView": 0,
      "byteOffset": 125532,
      "componentType": 5125,
      "count": 1236,
      "type": "SCALAR"
    },
    {
      "bufferView": 2,
      "byteOffset": 159744,
      "componentType": 5126,
      "count": 469,
      "max": [
        49.999996185302734,
        20.728374481201172,
        109.65164947509766
      ],
      "min": [
        -50.0,
        -20.205917358398438,
        -89.65708923339844
      ],
      "type": "VEC3"
    },
    {
      "bufferView": 2,
      "byteOffset": 165372,
      "componentType": 5126,
      "count": 469,
      "max": [
        1.0,
        1.0,
        0.9770405292510986
      ],
      "min": [
        -1.0,
        -1.0,
        -1.0
      ],
      "type": "VEC3"
    },
    {
      "bufferView": 1,
      "byteOffset": 53248,
      "componentType": 5126,
      "count": 469,
      "max": [
        0.08351391553878784,
        0.7559089064598083
      ],
      "min": [
        0.08002641797065735,
        0.7529996633529663
      ],
      "type": "VEC2"
    },
    {
      "bufferView": 0,
      "byteOffset": 130476,
      "componentType": 5125,
      "count": 2526,
      "type": "SCALAR"
    },
    {
      "bufferView": 2,
      "byteOffset": 171000,
      "componentType": 5126,
      "count": 441,
      "max": [
        9.210226058959961,
        31.824907302856445,
        9.259777069091797
      ],
      "min": [
        -9.305492401123047,
        0.0,
        -9.255924224853516
      ],
      "type": "VEC3"
    },
    {
      "bufferView": 2,
      "byteOffset": 176292,
      "componentType": 5126,
      "count": 441,
      "max": [
        0.9984169006347656,
        1.0,
        0.9984169006347656
      ],
      "min": [
        -0.9984169006347656,
        -0.9433872103691101,
        -0.9984169602394104
      ],
      "type": "VEC3"
    },
    {
      "bufferView": 1,
      "byteOffset": 57000,
      "componentType": 5126,
      "count": 441,
      "max": [
        0.7541671395301819,
        0.283482164144516
      ],
      "min": [
        0.24988430738449097,
        0.28070732951164246
      ],
      "type": "VEC2"
    },
    {
      "bufferView": 0,
      "byteOffset": 140580,
      "componentType": 5125,
      "count": 2298,
      "type": "SCALAR"
    },
    {
      "bufferView": 2,
      "byteOffset": 181584,
      "componentType": 5126,
      "count": 71,
      "max": [
        3.0668447017669678,
        1.252212405204773,
        4.464603424072266
      ],
      "min": [
        -3.0668447017669678,
        -1.2558739185333252,
        -3.155412435531616
      ],
      "type": "VEC3"
    },
    {
      "bufferView": 2,
      "byteOffset": 182436,
      "componentType": 5126,
      "count": 71,
      "max": [
        0.9999860525131226,
        0.9999860525131226,
        0.8975706100463867
      ],
      "min": [
        -0.9999860525131226,
        -0.9999860525131226,
        -1.0
      ],
      "type": "VEC3"
    },
    {
      "bufferView": 1,
      "byteOffset": 60528,
      "componentType": 5126,
      "count": 71,
      "max": [
        0.8231799006462097,
        0.421446293592453
      ],
      "min": [
        0.523548424243927,
        0.3243288993835449
      ],
      "type": "VEC2"
    },
    {
      "bufferView": 0,
      "byteOffset": 149772,
      "componentType": 5125,
      "count": 366,
      "type": "SCALAR"
    },
    {
      "bufferView": 2,
      "byteOffset": 183288,
      "componentType": 5126,
      "count": 728,
      "max": [
        40.928592681884766,
        8.913822174072266,
        32.06433868408203
      ],
      "min": [
        -32.20247268676758,
        -4.441654205322266,
        -23.81529426574707
      ],
      "type": "VEC3"
    },
    {
      "bufferView": 2,
      "byteOffset": 192024,
      "componentType": 5126,
      "count": 728,
      "max": [
        0.9989936351776123,
        1.0,
        0.9999256730079651
      ],
      "min": [
        -0.9999690055847168,
        -1.0,
        -0.9997945427894592
      ],
      "type": "VEC3"
    },
    {
      "bufferView": 1,
      "byteOffset": 61096,
      "componentType": 5126,
      "count": 728,
      "max": [
        0.5845106840133667,
        0.19588622450828552
      ],
      "min": [
        0.5845106840133667,
        0.19588622450828552
      ],
      "type": "VEC2"
    },
    {
      "bufferView": 0,
      "byteOffset": 151236,
      "componentType": 5125,
      "count": 4032,
      "type": "SCALAR"
    },
    {
      "bufferView": 2,
      "byteOffset": 200760,
      "componentType": 5126,
      "count": 25,
      "max": [
        7.530135154724121,
        2.977588653564453,
        7.530135154724121
      ],
      "min": [
        -7.530135154724121,
        -7.471676349639893,
        -7.530135154724121
      ],
      "type": "VEC3"
    },
    {
      "bufferView": 2,
      "byteOffset": 201060,
      "componentType": 5126,
      "count": 25,
      "max": [
        0.999375581741333,
        0.9096832275390625,
        0.999375581741333
      ],
      "min": [
        -0.9993756413459778,
        -1.0,
        -0.999375581741333
      ],
      "type": "VEC3"
    },
    {
      "bufferView": 1,
      "byteOffset": 66920,
      "componentType": 5126,
      "count": 25,
      "max": [
        0.6064227819442749,
        0.5935736894607544
      ],
      "min": [
        0.5672954320907593,
        0.5744092464447021
      ],
      "type": "VEC2"
    },
    {
      "bufferView": 0,
      "byteOffset": 167364,
      "componentType": 5125,
      "count": 90,
      "type": "SCALAR"
    },
    {
      "bufferView": 2,
      "byteOffset": 201360,
      "componentType": 5126,
      "count": 80,
      "max": [
        40.714542388916016,
        39.999996185302734,
        26.030181884765625
      ],
      "min": [
        -40.6475830078125,
        0.0,
        -27.375152587890625
      ],
      "type": "VEC3"
    },
    {
      "bufferView": 2,
      "byteOffset": 202320,
      "componentType": 5126,
      "count": 80,
      "max": [
        0.7404337525367737,
        0.6768385171890259,
        0.6310072541236877
      ],
      "min": [
        -0.7404337525367737,
        -0.4366939663887024,
        -0.6310073733329773
      ],
      "type": "VEC3"
    },
    {
      "bufferView": 1,
      "byteOffset": 67120,
      "componentType": 5126,
      "count": 80,
      "max": [
        0.7447242736816406,
        0.6468345522880554
      ],
      "min": [
        0.7447242736816406,
        0.6468345522880554
      ],
      "type": "VEC2"
    },
    {
      "bufferView": 0,
      "byteOffset": 167724,
      "componentType": 5125,
      "count": 360,
      "type": "SCALAR"
    },
    {
      "bufferView": 2,
      "byteOffset": 203280,
      "componentType": 5126,
      "count": 8,
      "max": [
        9.999996185302734,
        9.999999046325684,
        25.0
      ],
      "min": [
        -9.999999046325684,
        0.0,
        -24.999998092651367
      ],
      "type": "VEC3"
    },
    {
      "bufferView": 2,
      "byteOffset": 203376,
      "componentType": 5126,
      "count": 8,
      "max": [
        0.7065854668617249,
        0.6768383979797363,
        0.605728805065155
      ],
      "min": [
        -0.7065854668617249,
        -0.43669387698173523,
        -0.605728805065155
      ],
      "type": "VEC3"
    },
    {
      "bufferView": 1,
      "byteOffset": 67760,
      "componentType": 5126,
      "count": 8,
      "max": [
        0.7434014081954956,
        0.6468345522880554
      ],
      "min": [
        0.7434014081954956,
        0.6468345522880554
      ],
      "type": "VEC2"
    },
    {
      "bufferView": 0,
      "byteOffset": 169164,
      "componentType": 5125,
      "count": 36,
      "type": "SCALAR"
    },
    {
      "bufferView": 2,
      "byteOffset": 203472,
      "componentType": 5126,
      "count": 96,
      "max": [
        40.97274398803711,
        29.999998092651367,
        25.372940063476563
      ],
      "min": [
        -50.5685920715332,
        0.0,
        -25.37293815612793
      ],
      "type": "VEC3"
    },
    {
      "bufferView": 2,
      "byteOffset": 204624,
      "componentType": 5126,
      "count": 96,
      "max": [
        0.7278783917427063,
        0.6768386363983154,
        0.621667742729187
      ],
      "min": [
        -0.7278786897659302,
        -0.43669408559799194,
        -0.6216678023338318
      ],
      "type": "VEC3"
    },
    {
      "bufferView": 1,
      "byteOffset": 67824,
      "componentType": 5126,
      "count": 96,
      "max": [
        0.7435846924781799,
        0.6448909044265747
      ],
      "min": [
        0.7435846924781799,
        0.6448909044265747
      ],
      "type": "VEC2"
    },
    {
      "bufferView": 0,
      "byteOffset": 169308,
      "componentType": 5125,
      "count": 432,
      "type": "SCALAR"
    },
    {
      "bufferView": 2,
      "byteOffset": 205776,
      "componentType": 5126,
      "count": 162,
      "max": [
        2.3345530033111572,
        7.00779390335083,
        117.47611999511719
      ],
      "min": [
        -2.0544281005859375,
        -15.852734565734863,
        -54.75544738769531
      ],
      "type": "VEC3"
    },
    {
      "bufferView": 2,
      "byteOffset": 207720,
      "componentType": 5126,
      "count": 162,
      "max": [
        0.9990985989570618,
        0.9934499263763428,
        1.0
      ],
      "min": [
        -0.9990986585617065,
        -0.9934499263763428,
        -1.0
      ],
      "type": "VEC3"
    },
    {
      "bufferView": 1,
      "byteOffset": 68592,
      "componentType": 5126,
      "count": 162,
      "max": [
        0.9327348470687866,
        0.7028268575668335
      ],
      "min": [
        0.08435845375061035,
        0.4253389835357666
      ],
      "type": "VEC2"
    },
    {
      "bufferView": 0,
      "byteOffset": 171036,
      "componentType": 5125,
      "count": 882,
      "type": "SCALAR"
    },
    {
      "bufferView": 2,
      "byteOffset": 209664,
      "componentType": 5126,
      "count": 232,
      "max": [
        17.27779197692871,
        30.451181411743164,
        19.460269927978516
      ],
      "min": [
        -21.055973052978516,
        0.0,
        -14.336562156677246
      ],
      "type": "VEC3"
    },
    {
      "bufferView": 2,
      "byteOffset": 212448,
      "componentType": 5126,
      "count": 232,
      "max": [
        0.9974647164344788,
        0.9969437718391418,
        0.9976478219032288
      ],
      "min": [
        -0.9999749064445496,
        -0.7606191039085388,
        -0.999859631061554
      ],
      "type": "VEC3"
    },
    {
      "bufferView": 1,
      "byteOffset": 69888,
      "componentType": 5126,
      "count": 232,
      "max": [
        0.7599999904632568,
        0.21666666865348816
      ],
      "min": [
        0.7599999904632568,
        0.21666666865348816
      ],
      "type": "VEC2"
    },
    {
      "bufferView": 0,
      "byteOffset": 174564,
      "componentType": 5125,
      "count": 1344,
      "type": "SCALAR"
    },
    {
      "bufferView": 2,
      "byteOffset": 215232,
      "componentType": 5126,
      "count": 25,
      "max": [
        7.530135154724121,
        2.977588653564453,
        7.530135154724121
      ],
      "min": [
        -7.530135154724121,
        -7.471676349639893,
        -7.530135154724121
      ],
      "type": "VEC3"
    },
    {
      "bufferView": 2,
      "byteOffset": 215532,
      "componentType": 5126,
      "count": 25,
      "max": [
        0.999375581741333,
        0.9096832275390625,
        0.999375581741333
      ],
      "min": [
        -0.9993756413459778,
        -1.0,
        -0.999375581741333
      ],
      "type": "VEC3"
    },
    {
      "bufferView": 1,
      "byteOffset": 71744,
      "componentType": 5126,
      "count": 25,
      "max": [
        0.2668777406215668,
        0.5522884130477905
      ],
      "min": [
        0.2546842694282532,
        0.5463160872459412
      ],
      "type": "VEC2"
    },
    {
      "bufferView": 0,
      "byteOffset": 179940,
      "componentType": 5125,
      "count": 90,
      "type": "SCALAR"
    },
    {
      "bufferView": 2,
      "byteOffset": 215832,
      "componentType": 5126,
      "count": 193,
      "max": [
        72.22969818115234,
        35.326271057128906,
        41.65700912475586
      ],
      "min": [
        -56.08893585205078,
        -0.38751932978630066,
        -60.9306526184082
      ],
      "type": "VEC3"
    },
    {
      "bufferView": 2,
      "byteOffset": 218148,
      "componentType": 5126,
      "count": 193,
      "max": [
        0.9897743463516235,
        0.9962767362594604,
        0.9994230270385742
      ],
      "min": [
        -0.9897746443748474,
        -0.9938785433769226,
        -0.999423086643219
      ],
      "type": "VEC3"
    },
    {
      "bufferView": 1,
      "byteOffset": 71944,
      "componentType": 5126,
      "count": 193,
      "max": [
        0.7447243332862854,
        0.6455118060112
      ],
      "min": [
        0.7447243332862854,
        0.6455118060112
      ],
      "type": "VEC2"
    },
    {
      "bufferView": 0,
      "byteOffset": 180300,
      "componentType": 5125,
      "count": 996,
      "type": "SCALAR"
    },
    {
      "bufferView": 2,
      "byteOffset": 220464,
      "componentType": 5126,
      "count": 158,
      "max": [
        2.3305764198303223,
        7.00779390335083,
        47.742095947265625
      ],
      "min": [
        -2.0544281005859375,
        -19.022645950317383,
        -25.021028518676758
      ],
      "type": "VEC3"
    },
    {
      "bufferView": 2,
      "byteOffset": 222360,
      "componentType": 5126,
      "count": 158,
      "max": [
        0.9988303184509277,
        0.9697251915931702,
        1.0
      ],
      "min": [
        -0.9988303184509277,
        -0.9697251915931702,
        -1.0
      ],
      "type": "VEC3"
    },
    {
      "bufferView": 1,
      "byteOffset": 73488,
      "componentType": 5126,
      "count": 158,
      "max": [
        0.9327348470687866,
        0.7028268575668335
      ],
      "min": [
        0.08435845375061035,
        0.4253389835357666
      ],
      "type": "VEC2"
    },
    {
      "bufferView": 0,
      "byteOffset": 184284,
      "componentType": 5125,
      "count": 858,
      "type": "SCALAR"
    }
  ],
  "asset": {
    "extras": {
      "author": "hotelghosts (https://sketchfab.com/hotelghosts)",
      "license": "CC-BY-4.0 (http://creativecommons.org/licenses/by/4.0/)",
      "source": "https://sketchfab.com/3d-models/low-poly-pirate-pack-pack-1-87f6623ee777473bb3f16de95f106527",
      "title": "Low Poly Pirate Pack | Pack 1"
    },
    "generator": "Sketchfab-16.60.0",
    "version": "2.0"
  },
  "bufferViews": [
    {
      "buffer": 0,
      "byteLength": 187716,
      "name": "floatBufferViews",
      "target": 34963
    },
    {
      "buffer": 0,
      "byteLength": 74752,
      "byteOffset": 187716,
      "byteStride": 8,
      "name": "floatBufferViews",
      "target": 34962
    },
    {
      "buffer": 0,
      "byteLength": 224256,
      "byteOffset": 262468,
      "byteStride": 12,
      "name": "floatBufferViews",
      "target": 34962
    }
  ],
  "buffers": [
    {
      "byteLength": 486724,
      "uri": "scene.bin"
    }
  ],
  "images": [
    {
      "uri": "textures/Material_baseColor.png"
    }
  ],
  "materials": [
    {
      "doubleSided": true,
      "name": "Material",
      "pbrMetallicRoughness": {
        "baseColorTexture": {
          "index": 0
        },
        "metallicFactor": 0.0,
        "roughnessFactor": 0.7470177871865296
      }
    }
  ],
  "meshes": [
    {
      "name": "PIRATE_PACK-Create_Material_0",
      "primitives": [
        {
          "attributes": {
            "NORMAL": 1,
            "POSITION": 0,
            "TEXCOORD_0": 2
          },
          "indices": 3,
          "material": 0,
          "mode": 4
        }
      ]
    },
    {
      "name": "PIRATE_PACK-Bucket_Material_0",
      "primitives": [
        {
          "attributes": {
            "NORMAL": 5,
            "POSITION": 4,
            "TEXCOORD_0": 6
          },
          "indices": 7,
          "material": 0,
          "mode": 4
        }
      ]
    },
    {
      "name": "PIRATE_PACK-Apple_Material_0",
      "primitives": [
        {
          "attributes": {
            "NORMAL": 9,
            "POSITION": 8,
            "TEXCOORD_0": 10
          },
          "indices": 11,
          "material": 0,
          "mode": 4
        }
      ]
    },
    {
      "name": "PIRATE_PACK-Barell_Material_0",
      "primitives": [
        {
          "attributes": {
            "NORMAL": 13,
            "POSITION": 12,
            "TEXCOORD_0": 14
          },
          "indices": 15,
          "material": 0,
          "mode": 4
        }
      ]
    },
    {
      "name": "PIRATE_PACK-Barell_Open_Material_0",
      "primitives": [
        {
          "attributes": {
            "NORMAL": 17,
            "POSITION": 16,
            "TEXCOORD_0": 18
          },
          "indices": 19,
          "material": 0,
          "mode": 4
        }
      ]
    },
    {
      "name": "PIRATE_PACK-GlassBottle_Material_0",
      "primitives": [
        {
          "attributes": {
            "NORMAL": 21,
            "POSITION": 20,
            "TEXCOORD_0": 22
          },
          "indices": 23,
          "material": 0,
          "mode": 4
        }
      ]
    },
    {
      "name": "PIRATE_PACK-Skull_Material_0",
      "primitives": [
        {
          "attributes": {
            "NORMAL": 25,
            "POSITION": 24,
            "TEXCOORD_0": 26
          },
          "indices": 27,
          "material": 0,
          "mode": 4
        }
      ]
    },
    {
      "name": "PIRATE_PACK-Compass_Material_0",
      "primitives": [
        {
          "attributes": {
            "NORMAL": 29,
            "POSITION": 28,
            "TEXCOORD_0": 30
          },
          "indices": 31,
          "material": 0,
          "mode": 4
        }
      ]
    },
    {
      "name": "PIRATE_PACK-FishingRod_Material_0",
      "primitives": [
        {
          "attributes": {
            "NORMAL": 33,
            "POSITION": 32,
            "TEXCOORD_0": 34
          },
          "indices": 35,
          "material": 0,
          "mode": 4
        }
      ]
    },
    {
      "name": "PIRATE_PACK-Candle_Material_0",
      "primitives": [
        {
          "attributes": {
            "NORMAL": 37,
            "POSITION": 36,
            "TEXCOORD_0": 38
          },
          "indices": 39,
          "material": 0,
          "mode": 4
        }
      ]
    },
    {
      "name": "PIRATE_PACK-Mug_Material_0",
      "primitives": [
        {
          "attributes": {
            "NORMAL": 41,
            "POSITION": 40,
            "TEXCOORD_0": 42
          },
          "indices": 43,
          "material": 0,
          "mode": 4
        }
      ]
    },
    {
      "name": "PIRATE_PACK-Shovel_Material_0",
      "primitives": [
        {
          "attributes": {
            "NORMAL": 45,
            "POSITION": 44,
            "TEXCOORD_0": 46
          },
          "indices": 47,
          "material": 0,
          "mode": 4
        }
      ]
    },
    {
      "name": "PIRATE_PACK-Key_Material_0",
      "primitives": [
        {
          "attributes": {
            "NORMAL": 49,
            "POSITION": 48,
            "TEXCOORD_0": 50
          },
          "indices": 51,
          "material": 0,
          "mode": 4
        }
      ]
    },
    {
      "name": "PIRATE_PACK-Coin_Material_0",
      "primitives": [
        {
          "attributes": {
            "NORMAL": 53,
            "POSITION": 52,
            "TEXCOORD_0": 54
          },
          "indices": 55,
          "material": 0,
          "mode": 4
        }
      ]
    },
    {
      "name": "PIRATE_PACK-CoinPile_Small_Material_0",
      "primitives": [
        {
          "attributes": {
            "NORMAL": 57,
            "POSITION": 56,
            "TEXCOORD_0": 58
          },
          "indices": 59,
          "material": 0,
          "mode": 4
        }
      ]
    },
    {
      "name": "PIRATE_PACK-CoinBag_Material_0",
      "primitives": [
        {
          "attributes": {
            "NORMAL": 61,
            "POSITION": 60,
            "TEXCOORD_0": 62
          },
          "indices": 63,
          "material": 0,
          "mode": 4
        }
      ]
    },
    {
      "name": "PIRATE_PACK-MoneyBag_Material_0",
      "primitives": [
        {
          "attributes": {
            "NORMAL": 65,
            "POSITION": 64,
            "TEXCOORD_0": 66
          },
          "indices": 67,
          "material": 0,
          "mode": 4
        }
      ]
    },
    {
      "name": "PIRATE_PACK-GlassBottleCover_Material_0",
      "primitives": [
        {
          "attributes": {
            "NORMAL": 69,
            "POSITION": 68,
            "TEXCOORD_0": 70
          },
          "indices": 71,
          "material": 0,
          "mode": 4
        }
      ]
    },
    {
      "name": "PIRATE_PACK-LiqurBottle_Material_0",
      "primitives": [
        {
          "attributes": {
            "NORMAL": 73,
            "POSITION": 72,
            "TEXCOORD_0": 74
          },
          "indices": 75,
          "material": 0,
          "mode": 4
        }
      ]
    },
    {
      "name": "PIRATE_PACK-HookHand_Material_0",
      "primitives": [
        {
          "attributes": {
            "NORMAL": 77,
            "POSITION": 76,
            "TEXCOORD_0": 78
          },
          "indices": 79,
          "material": 0,
          "mode": 4
        }
      ]
    },
    {
      "name": "PIRATE_PACK-LongScope_Material_0",
      "primitives": [
        {
          "attributes": {
            "NORMAL": 81,
            "POSITION": 80,
            "TEXCOORD_0": 82
          },
          "indices": 83,
          "material": 0,
          "mode": 4
        }
      ]
    },
    {
      "name": "PIRATE_PACK-SmallScope_Material_0",
      "primitives": [
        {
          "attributes": {
            "NORMAL": 85,
            "POSITION": 84,
            "TEXCOORD_0": 86
          },
          "indices": 87,
          "material": 0,
          "mode": 4
        }
      ]
    },
    {
      "name": "PIRATE_PACK-FishingStandNet_Material_0",
      "primitives": [
        {
          "attributes": {
            "NORMAL": 89,
            "POSITION": 88,
            "TEXCOORD_0": 90
          },
          "indices": 91,
          "material": 0,
          "mode": 4
        }
      ]
    },
    {
      "name": "PIRATE_PACK-FishingDry_Material_0",
      "primitives": [
        {
          "attributes": {
            "NORMAL": 93,
            "POSITION": 92,
            "TEXCOORD_0": 94
          },
          "indices": 95,
          "material": 0,
          "mode": 4
        }
      ]
    },
    {
      "name": "PIRATE_PACK-Chest-Closed_Material_0",
      "primitives": [
        {
          "attributes": {
            "NORMAL": 97,
            "POSITION": 96,
            "TEXCOORD_0": 98
          },
          "indices": 99,
          "material": 0,
          "mode": 4
        }
      ]
    },
    {
      "name": "PIRATE_PACK-SkullKey_Material_0",
      "primitives": [
        {
          "attributes": {
            "NORMAL": 101,
            "POSITION": 100,
            "TEXCOORD_0": 102
          },
          "indices": 103,
          "material": 0,
          "mode": 4
        }
      ]
    },
    {
      "name": "PIRATE_PACK-Bone_Material_0",
      "primitives": [
        {
          "attributes": {
            "NORMAL": 105,
            "POSITION": 104,
            "TEXCOORD_0": 106
          },
          "indices": 107,
          "material": 0,
          "mode": 4
        }
      ]
    },
    {
      "name": "PIRATE_PACK-PegLeg_Material_0",
      "primitives": [
        {
          "attributes": {
            "NORMAL": 109,
            "POSITION": 108,
            "TEXCOORD_0": 110
          },
          "indices": 111,
          "material": 0,
          "mode": 4
        }
      ]
    },
    {
      "name": "PIRATE_PACK-FishingRodStanding_Material_0",
      "primitives": [
        {
          "attributes": {
            "NORMAL": 113,
            "POSITION": 112,
            "TEXCOORD_0": 114
          },
          "indices": 115,
          "material": 0,
          "mode": 4
        }
      ]
    },
    {
      "name": "PIRATE_PACK-DeadFish_Material_0",
      "primitives": [
        {
          "attributes": {
            "NORMAL": 117,
            "POSITION": 116,
            "TEXCOORD_0": 118
          },
          "indices": 119,
          "material": 0,
          "mode": 4
        }
      ]
    },
    {
      "name": "PIRATE_PACK-SmallCreate-Open_Material_0",
      "primitives": [
        {
          "attributes": {
            "NORMAL": 121,
            "POSITION": 120,
            "TEXCOORD_0": 122
          },
          "indices": 123,
          "material": 0,
          "mode": 4
        }
      ]
    },
    {
      "name": "PIRATE_PACK-SmallCreate-Closed_Material_0",
      "primitives": [
        {
          "attributes": {
            "NORMAL": 125,
            "POSITION": 124,
            "TEXCOORD_0": 126
          },
          "indices": 127,
          "material": 0,
          "mode": 4
        }
      ]
    },
    {
      "name": "PIRATE_PACK-RowBoat_Material_0",
      "primitives": [
        {
          "attributes": {
            "NORMAL": 129,
            "POSITION": 128,
            "TEXCOORD_0": 130
          },
          "indices": 131,
          "material": 0,
          "mode": 4
        }
      ]
    },
    {
      "name": "PIRATE_PACK-RowBoatOars_Material_0",
      "primitives": [
        {
          "attributes": {
            "NORMAL": 133,
            "POSITION": 132,
            "TEXCOORD_0": 134
          },
          "indices": 135,
          "material": 0,
          "mode": 4
        }
      ]
    },
    {
      "name": "PIRATE_PACK-Death_Chest-Closed_Material_0",
      "primitives": [
        {
          "attributes": {
            "NORMAL": 137,
            "POSITION": 136,
            "TEXCOORD_0": 138
          },
          "indices": 139,
          "material": 0,
          "mode": 4
        }
      ]
    },
    {
      "name": "PIRATE_PACK-CannonStand_Material_0",
      "primitives": [
        {
          "attributes": {
            "NORMAL": 141,
            "POSITION": 140,
            "TEXCOORD_0": 142
          },
          "indices": 143,
          "material": 0,
          "mode": 4
        }
      ]
    },
    {
      "name": "PIRATE_PACK-Cannon_Material_0",
      "primitives": [
        {
          "attributes": {
            "NORMAL": 145,
            "POSITION": 144,
            "TEXCOORD_0": 146
          },
          "indices": 147,
          "material": 0,
          "mode": 4
        }
      ]
    },
    {
      "name": "PIRATE_PACK-Chalece_Material_0",
      "primitives": [
        {
          "attributes": {
            "NORMAL": 149,
            "POSITION": 148,
            "TEXCOORD_0": 150
          },
          "indices": 151,
          "material": 0,
          "mode": 4
        }
      ]
    },
    {
      "name": "PIRATE_PACK-Ring_Material_0",
      "primitives": [
        {
          "attributes": {
            "NORMAL": 153,
            "POSITION": 152,
            "TEXCOORD_0": 154
          },
          "indices": 155,
          "material": 0,
          "mode": 4
        }
      ]
    },
    {
      "name": "PIRATE_PACK-Pearls_Material_0",
      "primitives": [
        {
          "attributes": {
            "NORMAL": 157,
            "POSITION": 156,
            "TEXCOORD_0": 158
          },
          "indices": 159,
          "material": 0,
          "mode": 4
        }
      ]
    },
    {
      "name": "PIRATE_PACK-Diamond_Material_0",
      "primitives": [
        {
          "attributes": {
            "NORMAL": 161,
            "POSITION": 160,
            "TEXCOORD_0": 162
          },
          "indices": 163,
          "material": 0,
          "mode": 4
        }
      ]
    },
    {
      "name": "PIRATE_PACK-GoldBar_Pile_Material_0",
      "primitives": [
        {
          "attributes": {
            "NORMAL": 165,
            "POSITION": 164,
            "TEXCOORD_0": 166
          },
          "indices": 167,
          "material": 0,
          "mode": 4
        }
      ]
    },
    {
      "name": "PIRATE_PACK-GoldBar_Material_0",
      "primitives": [
        {
          "attributes": {
            "NORMAL": 169,
            "POSITION": 168,
            "TEXCOORD_0": 170
          },
          "indices": 171,
          "material": 0,
          "mode": 4
        }
      ]
    },
    {
      "name": "PIRATE_PACK-GoldBar_Wall_Material_0",
      "primitives": [
        {
          "attributes": {
            "NORMAL": 173,
            "POSITION": 172,
            "TEXCOORD_0": 174
          },
          "indices": 175,
          "material": 0,
          "mode": 4
        }
      ]
    },
    {
      "name": "PIRATE_PACK-Gun_Material_0",
      "primitives": [
        {
          "attributes": {
            "NORMAL": 177,
            "POSITION": 176,
            "TEXCOORD_0": 178
          },
          "indices": 179,
          "material": 0,
          "mode": 4
        }
      ]
    },
    {
      "name": "PIRATE_PACK-CandlesThree_Material_0",
      "primitives": [
        {
          "attributes": {
            "NORMAL": 181,
            "POSITION": 180,
            "TEXCOORD_0": 182
          },
          "indices": 183,
          "material": 0,
          "mode": 4
        }
      ]
    },
    {
      "name": "PIRATE_PACK-Ruby_Material_0",
      "primitives": [
        {
          "attributes": {
            "NORMAL": 185,
            "POSITION": 184,
            "TEXCOORD_0": 186
          },
          "indices": 187,
          "material": 0,
          "mode": 4
        }
      ]
    },
    {
      "name": "PIRATE_PACK-CoinPile_Large_Material_0",
      "primitives": [
        {
          "attributes": {
            "NORMAL": 189,
            "POSITION": 188,
            "TEXCOORD_0": 190
          },
          "indices": 191,
          "material": 0,
          "mode": 4
        }
      ]
    },
    {
      "name": "PIRATE_PACK-Gun.001_Material_0",
      "primitives": [
        {
          "attributes": {
            "NORMAL": 193,
            "POSITION": 192,
            "TEXCOORD_0": 194
          },
          "indices": 195,
          "material": 0,
          "mode": 4
        }
      ]
    }
  ],
  "nodes": [
    {
      "children": [
        1
      ],
      "matrix": [
        1.0,
        0.0,
        0.0,
        0.0,
        0.0,
        2.220446049250313e-16,
        -1.0,
        0.0,
        0.0,
        1.0,
        2.220446049250313e-16,
        0.0,
        0.0,
        0.0,
        0.0,
        1.0
      ],
      "name": "Sketchfab_model"
    },
    {
      "children": [
        2
      ],
      "matrix": [
        0.009999999776482582,
        0.0,
        0.0,
        0.0,
        0.0,
        0.0,
        0.009999999776482582,
        0.0,
        0.0,
        -0.009999999776482582,
        0.0,
        0.0,
        0.0,
        0.0,
        0.0,
        1.0
      ],
      "name": "LowPoly_Pirate_Pack-1.fbx"
    },
    {
      "children": [
        3,
        5,
        7,
        9,
        11,
        13,
        15,
        17,
        19,
        21,
        23,
        25,
        27,
        29,
        31,
        33,
        35,
        37,
        39,
        41,
        43,
        45,
        47,
        49,
        51,
        53,
        55,
        57,
        59,
        61,
        63,
        65,
        67,
        69,
        71,
        73,
        75,
        77,
        79,
        81,
        83,
        85,
        87,
        89,
        91,
        93,
        95,
        97,
        99
      ],
      "name": "RootNode"
    },
    {
      "children": [
        4
      ],
      "matrix": [
        1.0,
        0.0,
        0.0,
        0.0,
        0.0,
        1.0,
        0.0,
        0.0,
        0.0,
        0.0,
        1.0,
        0.0,
        -214.4651641845703,
        0.0,
        -253.8011474609375,
        1.0
      ],
      "name": "PIRATE_PACK-Create"
    },
    {
      "mesh": 0,
      "name": "PIRATE_PACK-Create_Material_0"
    },
    {
      "children": [
        6
      ],
      "matrix": [
        1.0,
        0.0,
        0.0,
        0.0,
        0.0,
        1.0,
        0.0,
        0.0,
        0.0,
        0.0,
        1.0,
        0.0,
        -63.133758544921875,
        0.0,
        71.6136245727539,
        1.0
      ],
      "name": "PIRATE_PACK-Bucket"
    },
    {
      "mesh": 1,
      "name": "PIRATE_PACK-Bucket_Material_0"
    },
    {
      "children": [
        8
      ],
      "matrix": [
        1.0,
        0.0,
        0.0,
        0.0,
        0.0,
        1.0,
        0.0,
        0.0,
        0.0,
        0.0,
        1.0,
        0.0,
        -11.960667610168457,
        0.0,
        134.85154724121094,
        1.0
      ],
      "name": "PIRATE_PACK-Apple"
    },
    {
      "mesh": 2,
      "name": "PIRATE_PACK-Apple_Material_0"
    },
    {
      "children": [
        10
      ],
      "matrix": [
        1.0,
        0.0,
        0.0,
        0.0,
        0.0,
        1.0,
        0.0,
        0.0,
        0.0,
        0.0,
        1.0,
        0.0,
        -63.27459716796875,
        0.0,
        -315.16815185546875,
        1.0
      ],
      "name": "PIRATE_PACK-Barell"
    },
    {
      "mesh": 3,
      "name": "PIRATE_PACK-Barell_Material_0"
    },
    {
      "children": [
        12
      ],
      "matrix": [
        1.0,
        0.0,
        0.0,
        0.0,
        0.0,
        1.0,
        0.0,
        0.0,
        0.0,
        0.0,
        1.0,
        0.0,
        -60.445613861083984,
        0.0,
        -157.536865234375,
        1.0
      ],
      "name": "PIRATE_PACK-Barell_Open"
    },
    {
      "mesh": 4,
      "name": "PIRATE_PACK-Barell_Open_Material_0"
    },
    {
      "children": [
        14
      ],
      "matrix": [
        1.0,
        0.0,
        0.0,
        0.0,
        0.0,
        1.0,
        0.0,
        0.0,
        0.0,
        0.0,
        1.0,
        0.0,
        -61.38314437866211,
        0.0,
        137.32044982910156,
        1.0
      ],
      "name": "PIRATE_PACK-GlassBottle"
    },
    {
      "mesh": 5,
      "name": "PIRATE_PACK-GlassBottle_Material_0"
    },
    {
      "children": [
        16
      ],
      "matrix": [
        1.0,
        0.0,
        0.0,
        0.0,
        0.0,
        1.0,
        0.0,
        0.0,
        0.0,
        0.0,
        1.0,
        0.0,
        -13.133758544921875,
        8.791937828063965,
        73.28827667236328,
        1.0
      ],
      "name": "PIRATE_PACK-Skull"
    },
    {
      "mesh": 6,
      "name": "PIRATE_PACK-Skull_Material_0"
    },
    {
      "children": [
        18
      ],
      "matrix": [
        1.0,
        0.0,
        0.0,
        0.0,
        0.0,
        1.0,
        0.0,
        0.0,
        0.0,
        0.0,
        1.0,
        0.0,
        -163.13375854492188,
        0.0,
        121.6136245727539,
        1.0
      ],
      "name": "PIRATE_PACK-Compass"
    },
    {
      "mesh": 7,
      "name": "PIRATE_PACK-Compass_Material_0"
    },
    {
      "children": [
        20
      ],
      "matrix": [
        1.0,
        0.0,
        0.0,
        0.0,
        0.0,
        1.0,
        0.0,
        0.0,
        0.0,
        0.0,
        1.0,
        0.0,
        253.38485717773438,
        0.0,
        228.9658966064453,
        1.0
      ],
      "name": "PIRATE_PACK-FishingRod"
    },
    {
      "mesh": 8,
      "name": "PIRATE_PACK-FishingRod_Material_0"
    },
    {
      "children": [
        22
      ],
      "matrix": [
        1.0,
        0.0,
        0.0,
        0.0,
        0.0,
        1.0,
        0.0,
        0.0,
        0.0,
        0.0,
        1.0,
        0.0,
        -17.313522338867188,
        0.0,
        174.05267333984375,
        1.0
      ],
      "name": "PIRATE_PACK-Candle"
    },
    {
      "mesh": 9,
      "name": "PIRATE_PACK-Candle_Material_0"
    },
    {
      "children": [
        24
      ],
      "matrix": [
        1.0,
        0.0,
        0.0,
        0.0,
        0.0,
        1.0,
        0.0,
        0.0,
        0.0,
        0.0,
        1.0,
        0.0,
        -58.39216232299805,
        0.0,
        194.79617309570313,
        1.0
      ],
      "name": "PIRATE_PACK-Mug"
    },
    {
      "mesh": 10,
      "name": "PIRATE_PACK-Mug_Material_0"
    },
    {
      "children": [
        26
      ],
      "matrix": [
        1.0,
        0.0,
        0.0,
        0.0,
        0.0,
        1.0,
        0.0,
        0.0,
        0.0,
        0.0,
        1.0,
        0.0,
        -197.08680725097656,
        0.0,
        97.24726867675781,
        1.0
      ],
      "name": "PIRATE_PACK-Shovel"
    },
    {
      "mesh": 11,
      "name": "PIRATE_PACK-Shovel_Material_0"
    },
    {
      "children": [
        28
      ],
      "matrix": [
        1.0,
        0.0,
        0.0,
        0.0,
        0.0,
        1.0,
        0.0,
        0.0,
        0.0,
        0.0,
        1.0,
        0.0,
        -90.48313903808594,
        0.0,
        -24.714946746826172,
        1.0
      ],
      "name": "PIRATE_PACK-Key"
    },
    {
      "mesh": 12,
      "name": "PIRATE_PACK-Key_Material_0"
    },
    {
      "children": [
        30
      ],
      "matrix": [
        1.0,
        0.0,
        0.0,
        0.0,
        0.0,
        1.0,
        0.0,
        0.0,
        0.0,
        0.0,
        1.0,
        0.0,
        -561.1525268554688,
        0.0,
        208.44964599609375,
        1.0
      ],
      "name": "PIRATE_PACK-Coin"
    },
    {
      "mesh": 13,
      "name": "PIRATE_PACK-Coin_Material_0"
    },
    {
      "children": [
        32
      ],
      "matrix": [
        1.0,
        0.0,
        0.0,
        0.0,
        0.0,
        1.0,
        0.0,
        0.0,
        0.0,
        0.0,
        1.0,
        0.0,
        -646.1417236328125,
        -7.1711838245391846e-06,
        141.01901245117188,
        1.0
      ],
      "name": "PIRATE_PACK-CoinPile_Small"
    },
    {
      "mesh": 14,
      "name": "PIRATE_PACK-CoinPile_Small_Material_0"
    },
    {
      "children": [
        34
      ],
      "matrix": [
        1.0,
        0.0,
        0.0,
        0.0,
        0.0,
        1.0,
        0.0,
        0.0,
        0.0,
        0.0,
        1.0,
        0.0,
        -405.8681640625,
        0.0,
        203.9761962890625,
        1.0
      ],
      "name": "PIRATE_PACK-CoinBag"
    },
    {
      "mesh": 15,
      "name": "PIRATE_PACK-CoinBag_Material_0"
    },
    {
      "children": [
        36
      ],
      "matrix": [
        1.0,
        0.0,
        0.0,
        0.0,
        0.0,
        1.0,
        0.0,
        0.0,
        0.0,
        0.0,
        1.0,
        0.0,
        -459.881591796875,
        0.0,
        202.52597045898438,
        1.0
      ],
      "name": "PIRATE_PACK-MoneyBag"
    },
    {
      "mesh": 16,
      "name": "PIRATE_PACK-MoneyBag_Material_0"
    },
    {
      "children": [
        38
      ],
      "matrix": [
        1.0,
        0.0,
        0.0,
        0.0,
        0.0,
        1.0,
        0.0,
        0.0,
        0.0,
        0.0,
        1.0,
        0.0,
        -111.38314819335938,
        0.0,
        137.32044982910156,
        1.0
      ],
      "name": "PIRATE_PACK-GlassBottleCover"
    },
    {
      "mesh": 17,
      "name": "PIRATE_PACK-GlassBottleCover_Material_0"
    },
    {
      "children": [
        40
      ],
      "matrix": [
        1.0,
        0.0,
        0.0,
        0.0,
        0.0,
        1.0,
        0.0,
        0.0,
        0.0,
        0.0,
        1.0,
        0.0,
        -107.7147216796875,
        0.0,
        194.79617309570313,
        1.0
      ],
      "name": "PIRATE_PACK-LiqurBottle"
    },
    {
      "mesh": 18,
      "name": "PIRATE_PACK-LiqurBottle_Material_0"
    },
    {
      "children": [
        42
      ],
      "matrix": [
        1.0,
        0.0,
        0.0,
        0.0,
        0.0,
        1.0,
        0.0,
        0.0,
        0.0,
        0.0,
        1.0,
        0.0,
        -163.13375854492188,
        0.0,
        71.6136245727539,
        1.0
      ],
      "name": "PIRATE_PACK-HookHand"
    },
    {
      "mesh": 19,
      "name": "PIRATE_PACK-HookHand_Material_0"
    },
    {
      "children": [
        44
      ],
      "matrix": [
        1.0,
        0.0,
        0.0,
        0.0,
        0.0,
        1.0,
        0.0,
        0.0,
        0.0,
        0.0,
        1.0,
        0.0,
        -310.381591796875,
        0.0,
        -33.44195556640625,
        1.0
      ],
      "name": "PIRATE_PACK-LongScope"
    },
    {
      "mesh": 20,
      "name": "PIRATE_PACK-LongScope_Material_0"
    },
    {
      "children": [
        46
      ],
      "matrix": [
        1.0,
        0.0,
        0.0,
        0.0,
        0.0,
        1.0,
        0.0,
        0.0,
        0.0,
        0.0,
        1.0,
        0.0,
        -260.381591796875,
        0.0,
        -33.44195556640625,
        1.0
      ],
      "name": "PIRATE_PACK-SmallScope"
    },
    {
      "mesh": 21,
      "name": "PIRATE_PACK-SmallScope_Material_0"
    },
    {
      "children": [
        48
      ],
      "matrix": [
        1.0,
        0.0,
        0.0,
        0.0,
        0.0,
        1.0,
        0.0,
        0.0,
        0.0,
        0.0,
        1.0,
        0.0,
        230.72555541992188,
        0.0,
        -376.50384521484375,
        1.0
      ],
      "name": "PIRATE_PACK-FishingStandNet"
    },
    {
      "mesh": 22,
      "name": "PIRATE_PACK-FishingStandNet_Material_0"
    },
    {
      "children": [
        50
      ],
      "matrix": [
        1.0,
        0.0,
        0.0,
        0.0,
        0.0,
        1.0,
        0.0,
        0.0,
        0.0,
        0.0,
        1.0,
        0.0,
        498.7784729003906,
        0.0,
        -114.38832092285156,
        1.0
      ],
      "name": "PIRATE_PACK-FishingDry"
    },
    {
      "mesh": 23,
      "name": "PIRATE_PACK-FishingDry_Material_0"
    },
    {
      "children": [
        52
      ],
      "matrix": [
        1.0,
        0.0,
        0.0,
        0.0,
        0.0,
        1.0,
        0.0,
        0.0,
        0.0,
        0.0,
        1.0,
        0.0,
        -548.8553466796875,
        0.0,
        -249.26341247558594,
        1.0
      ],
      "name": "PIRATE_PACK-Chest-Closed"
    },
    {
      "mesh": 24,
      "name": "PIRATE_PACK-Chest-Closed_Material_0"
    },
    {
      "children": [
        54
      ],
      "matrix": [
        1.0,
        0.0,
        0.0,
        0.0,
        0.0,
        1.0,
        0.0,
        0.0,
        0.0,
        0.0,
        1.0,
        0.0,
        -40.48313903808594,
        0.0,
        -24.714946746826172,
        1.0
      ],
      "name": "PIRATE_PACK-SkullKey"
    },
    {
      "mesh": 25,
      "name": "PIRATE_PACK-SkullKey_Material_0"
    },
    {
      "children": [
        56
      ],
      "matrix": [
        1.0,
        0.0,
        0.0,
        0.0,
        0.0,
        1.0,
        0.0,
        0.0,
        0.0,
        0.0,
        1.0,
        0.0,
        31.177001953125,
        0.0,
        109.48259735107422,
        1.0
      ],
      "name": "PIRATE_PACK-Bone"
    },
    {
      "mesh": 26,
      "name": "PIRATE_PACK-Bone_Material_0"
    },
    {
      "children": [
        58
      ],
      "matrix": [
        1.0,
        0.0,
        0.0,
        0.0,
        0.0,
        1.0,
        0.0,
        0.0,
        0.0,
        0.0,
        1.0,
        0.0,
        -122.25663757324219,
        45.0,
        79.43759155273438,
        1.0
      ],
      "name": "PIRATE_PACK-PegLeg"
    },
    {
      "mesh": 27,
      "name": "PIRATE_PACK-PegLeg_Material_0"
    },
    {
      "children": [
        60
      ],
      "matrix": [
        1.0,
        0.0,
        0.0,
        0.0,
        0.0,
        1.0,
        0.0,
        0.0,
        0.0,
        0.0,
        1.0,
        0.0,
        327.60284423828125,
        0.0,
        228.9658966064453,
        1.0
      ],
      "name": "PIRATE_PACK-FishingRodStanding"
    },
    {
      "mesh": 28,
      "name": "PIRATE_PACK-FishingRodStanding_Material_0"
    },
    {
      "children": [
        62
      ],
      "matrix": [
        1.0,
        0.0,
        0.0,
        0.0,
        0.0,
        1.0,
        0.0,
        0.0,
        0.0,
        0.0,
        1.0,
        0.0,
        112.30979919433594,
        0.0,
        82.7970962524414,
        1.0
      ],
      "name": "PIRATE_PACK-DeadFish"
    },
    {
      "mesh": 29,
      "name": "PIRATE_PACK-DeadFish_Material_0"
    },
    {
      "children": [
        64
      ],
      "matrix": [
        1.0,
        0.0,
        0.0,
        0.0,
        0.0,
        1.0,
        0.0,
        0.0,
        0.0,
        0.0,
        1.0,
        0.0,
        -523.5792846679688,
        0.0,
        -64.84012603759766,
        1.0
      ],
      "name": "PIRATE_PACK-SmallCreate-Open"
    },
    {
      "mesh": 30,
      "name": "PIRATE_PACK-SmallCreate-Open_Material_0"
    },
    {
      "children": [
        66
      ],
      "matrix": [
        1.0,
        0.0,
        0.0,
        0.0,
        0.0,
        1.0,
        0.0,
        0.0,
        0.0,
        0.0,
        1.0,
        0.0,
        -406.6131591796875,
        0.0,
        -64.84012603759766,
        1.0
      ],
      "name": "PIRATE_PACK-SmallCreate-Closed"
    },
    {
      "mesh": 31,
      "name": "PIRATE_PACK-SmallCreate-Closed_Material_0"
    },
    {
      "children": [
        68
      ],
      "matrix": [
        1.0,
        0.0,
        0.0,
        0.0,
        0.0,
        1.0,
        0.0,
        0.0,
        0.0,
        0.0,
        1.0,
        0.0,
        467.861083984375,
        0.0,
        154.03695678710938,
        1.0
      ],
      "name": "PIRATE_PACK-RowBoat"
    },
    {
      "mesh": 32,
      "name": "PIRATE_PACK-RowBoat_Material_0"
    },
    {
      "children": [
        70
      ],
      "matrix": [
        1.0,
        0.0,
        0.0,
        0.0,
        0.0,
        1.0,
        0.0,
        0.0,
        0.0,
        0.0,
        1.0,
        0.0,
        181.19635009765625,
        0.0,
        183.48855590820313,
        1.0
      ],
      "name": "PIRATE_PACK-RowBoatOars"
    },
    {
      "mesh": 33,
      "name": "PIRATE_PACK-RowBoatOars_Material_0"
    },
    {
      "children": [
        72
      ],
      "matrix": [
        1.0,
        0.0,
        0.0,
        0.0,
        0.0,
        1.0,
        0.0,
        0.0,
        0.0,
        0.0,
        1.0,
        0.0,
        -370.8459777832031,
        0.0,
        -249.26341247558594,
        1.0
      ],
      "name": "PIRATE_PACK-Death_Chest-Closed"
    },
    {
      "mesh": 34,
      "name": "PIRATE_PACK-Death_Chest-Closed_Material_0"
    },
    {
      "children": [
        74
      ],
      "matrix": [
        1.0,
        0.0,
        0.0,
        0.0,
        0.0,
        1.0,
        0.0,
        0.0,
        0.0,
        0.0,
        1.0,
        0.0,
        199.6019287109375,
        0.0,
        -152.7051544189453,
        1.0
      ],
      "name": "PIRATE_PACK-CannonStand"
    },
    {
      "mesh": 35,
      "name": "PIRATE_PACK-CannonStand_Material_0"
    },
    {
      "children": [
        76
      ],
      "matrix": [
        1.0,
        0.0,
        0.0,
        0.0,
        0.0,
        1.0,
        0.0,
        0.0,
        0.0,
        0.0,
        1.0,
        0.0,
        75.9455795288086,
        0.0,
        -171.627197265625,
        1.0
      ],
      "name": "PIRATE_PACK-Cannon"
    },
    {
      "mesh": 36,
      "name": "PIRATE_PACK-Cannon_Material_0"
    },
    {
      "children": [
        78
      ],
      "matrix": [
        1.0,
        0.0,
        0.0,
        0.0,
        0.0,
        1.0,
        0.0,
        0.0,
        0.0,
        0.0,
        1.0,
        0.0,
        -444.0594177246094,
        0.0,
        162.3241729736328,
        1.0
      ],
      "name": "PIRATE_PACK-Chalece"
    },
    {
      "mesh": 37,
      "name": "PIRATE_PACK-Chalece_Material_0"
    },
    {
      "children": [
        80
      ],
      "matrix": [
        1.0,
        0.0,
        0.0,
        0.0,
        0.0,
        1.0,
        0.0,
        0.0,
        0.0,
        0.0,
        1.0,
        0.0,
        -416.8373107910156,
        0.0,
        162.3241729736328,
        1.0
      ],
      "name": "PIRATE_PACK-Ring"
    },
    {
      "mesh": 38,
      "name": "PIRATE_PACK-Ring_Material_0"
    },
    {
      "children": [
        82
      ],
      "matrix": [
        1.0,
        0.0,
        0.0,
        0.0,
        0.0,
        1.0,
        0.0,
        0.0,
        0.0,
        0.0,
        1.0,
        0.0,
        -280.8363952636719,
        0.0,
        151.9794464111328,
        1.0
      ],
      "name": "PIRATE_PACK-Pearls"
    },
    {
      "mesh": 39,
      "name": "PIRATE_PACK-Pearls_Material_0"
    },
    {
      "children": [
        84
      ],
      "matrix": [
        1.0,
        0.0,
        0.0,
        0.0,
        0.0,
        1.0,
        0.0,
        0.0,
        0.0,
        0.0,
        1.0,
        0.0,
        -366.8373107910156,
        0.0,
        162.3241729736328,
        1.0
      ],
      "name": "PIRATE_PACK-Diamond"
    },
    {
      "mesh": 40,
      "name": "PIRATE_PACK-Diamond_Material_0"
    },
    {
      "children": [
        86
      ],
      "matrix": [
        1.0,
        0.0,
        0.0,
        0.0,
        0.0,
        1.0,
        0.0,
        0.0,
        0.0,
        0.0,
        1.0,
        0.0,
        -417.614501953125,
        0.0,
        87.18304443359375,
        1.0
      ],
      "name": "PIRATE_PACK-GoldBar_Pile"
    },
    {
      "mesh": 41,
      "name": "PIRATE_PACK-GoldBar_Pile_Material_0"
    },
    {
      "children": [
        88
      ],
      "matrix": [
        1.0,
        0.0,
        0.0,
        0.0,
        0.0,
        1.0,
        0.0,
        0.0,
        0.0,
        0.0,
        1.0,
        0.0,
        -342.614501953125,
        0.0,
        87.18304443359375,
        1.0
      ],
      "name": "PIRATE_PACK-GoldBar"
    },
    {
      "mesh": 42,
      "name": "PIRATE_PACK-GoldBar_Material_0"
    },
    {
      "children": [
        90
      ],
      "matrix": [
        1.0,
        0.0,
        0.0,
        0.0,
        0.0,
        1.0,
        0.0,
        0.0,
        0.0,
        0.0,
        1.0,
        0.0,
        -274.7890930175781,
        0.0,
        87.18304443359375,
        1.0
      ],
      "name": "PIRATE_PACK-GoldBar_Wall"
    },
    {
      "mesh": 43,
      "name": "PIRATE_PACK-GoldBar_Wall_Material_0"
    },
    {
      "children": [
        92
      ],
      "matrix": [
        1.0,
        0.0,
        0.0,
        0.0,
        0.0,
        1.0,
        0.0,
        0.0,
        0.0,
        0.0,
        1.0,
        0.0,
        64.24895477294922,
        23.64645004272461,
        57.09919738769531,
        1.0
      ],
      "name": "PIRATE_PACK-Gun"
    },
    {
      "mesh": 44,
      "name": "PIRATE_PACK-Gun_Material_0"
    },
    {
      "children": [
        94
      ],
      "matrix": [
        1.0,
        0.0,
        0.0,
        0.0,
        0.0,
        1.0,
        0.0,
        0.0,
        0.0,
        0.0,
        1.0,
        0.0,
        -17.313522338867188,
        0.0,
        210.93551635742188,
        1.0
      ],
      "name": "PIRATE_PACK-CandlesThree"
    },
    {
      "mesh": 45,
      "name": "PIRATE_PACK-CandlesThree_Material_0"
    },
    {
      "children": [
        96
      ],
      "matrix": [
        1.0,
        0.0,
        0.0,
        0.0,
        0.0,
        1.0,
        0.0,
        0.0,
        0.0,
        0.0,
        1.0,
        0.0,
        -394.8168640136719,
        0.0,
        162.3241729736328,
        1.0
      ],
      "name": "PIRATE_PACK-Ruby"
    },
    {
      "mesh": 46,
      "name": "PIRATE_PACK-Ruby_Material_0"
    },
    {
      "children": [
        98
      ],
      "matrix": [
        1.0,
        0.0,
        0.0,
        0.0,
        0.0,
        1.0,
        0.0,
        0.0,
        0.0,
        0.0,
        1.0,
        0.0,
        -551.6060180664063,
        -7.1711838245391846e-06,
        83.92648315429688,
        1.0
      ],
      "name": "PIRATE_PACK-CoinPile_Large"
    },
    {
      "mesh": 47,
      "name": "PIRATE_PACK-CoinPile_Large_Material_0"
    },
    {
      "children": [
        100
      ],
      "matrix": [
        1.0,
        0.0,
        0.0,
        0.0,
        0.0,
        1.0,
        0.0,
        0.0,
        0.0,
        0.0,
        1.0,
        0.0,
        47.14109420776367,
        23.64645004272461,
        57.09919738769531,
        1.0
      ],
      "name": "PIRATE_PACK-Gun.001"
    },
    {
      "mesh": 48,
      "name": "PIRATE_PACK-Gun.001_Material_0"
    }
  ],
  "samplers": [
    {
      "magFilter": 9729,
      "minFilter": 9987,
      "wrapS": 10497,
      "wrapT": 10497
    }
  ],
  "scene": 0,
  "scenes": [
    {
      "name": "Sketchfab_Scene",
      "nodes": [
        0
      ]
    }
  ],
  "textures": [
    {
      "sampler": 0,
      "source": 0
    }
  ]
}
