{
  "accessors": [
    {
      "bufferView": 2,
      "componentType": 5126,
      "count": 322,
      "max": [
        7.252361297607422,
        0.29048392176628113,
        11.528791427612305
      ],
      "min": [
        -7.252362251281738,
        -0.29048392176628113,
        -11.006501197814941
      ],
      "type": "VEC3"
    },
    {
      "bufferView": 2,
      "byteOffset": 3864,
      "componentType": 5126,
      "count": 322,
      "max": [
        1.0,
        1.0,
        1.0
      ],
      "min": [
        -1.0,
        -1.0,
        -1.0
      ],
      "type": "VEC3"
    },
    {
      "bufferView": 1,
      "componentType": 5126,
      "count": 322,
      "max": [
        0.875,
        1.0
      ],
      "min": [
        0.125,
        0.0
      ],
      "type": "VEC2"
    },
    {
      "bufferView": 0,
      "componentType": 5125,
      "count": 588,
      "type": "SCALAR"
    },
    {
      "bufferView": 2,
      "byteOffset": 7728,
      "componentType": 5126,
      "count": 398,
      "max": [
        7.2523627281188965,
        13.593545913696289,
        10.97668743133545
      ],
      "min": [
        -0.9934741854667664,
        -0.29048392176628113,
        -12.305802345275879
      ],
      "type": "VEC3"
    },
    {
      "bufferView": 2,
      "byteOffset": 12504,
      "componentType": 5126,
      "count": 398,
      "max": [
        1.0,
        1.0,
        1.0
      ],
      "min": [
        -1.0,
        -1.0,
        -1.0
      ],
      "type": "VEC3"
    },
    {
      "bufferView": 1,
      "byteOffset": 2576,
      "componentType": 5126,
      "count": 398,
      "max": [
        0.875,
        1.0
      ],
      "min": [
        0.125,
        0.0
      ],
      "type": "VEC2"
    },
    {
      "bufferView": 0,
      "byteOffset": 2352,
      "componentType": 5125,
      "count": 672,
      "type": "SCALAR"
    },
    {
      "bufferView": 2,
      "byteOffset": 17280,
      "componentType": 5126,
      "count": 52,
      "max": [
        0.9934741854667664,
        0.32744279503822327,
        7.218774318695068
      ],
      "min": [
        -0.9934741854667664,
        -0.32744279503822327,
        -7.0766496658325195
      ],
      "type": "VEC3"
    },
    {
      "bufferView": 2,
      "byteOffset": 17904,
      "componentType": 5126,
      "count": 52,
      "max": [
        1.0,
        1.0,
        0.9777420163154602
      ],
      "min": [
        -1.0,
        -1.0,
        -0.9838932752609253
      ],
      "type": "VEC3"
    },
    {
      "bufferView": 1,
      "byteOffset": 5760,
      "componentType": 5126,
      "count": 52,
      "max": [
        0.875,
        1.0
      ],
      "min": [
        0.125,
        0.0
      ],
      "type": "VEC2"
    },
    {
      "bufferView": 0,
      "byteOffset": 5040,
      "componentType": 5125,
      "count": 84,
      "type": "SCALAR"
    },
    {
      "bufferView": 2,
      "byteOffset": 18528,
      "componentType": 5126,
      "count": 576,
      "max": [
        5.6793951988220215,
        0.8463606238365173,
        5.67939567565918
      ],
      "min": [
        -5.679397106170654,
        -18.05681610107422,
        -5.679396152496338
      ],
      "type": "VEC3"
    },
    {
      "bufferView": 2,
      "byteOffset": 25440,
      "componentType": 5126,
      "count": 576,
      "max": [
        0.9914449453353882,
        0.997120201587677,
        0.9914449453353882
      ],
      "min": [
        -0.991445004940033,
        -0.9971200227737427,
        -0.9914449453353882
      ],
      "type": "VEC3"
    },
    {
      "bufferView": 1,
      "byteOffset": 6176,
      "componentType": 5126,
      "count": 576,
      "max": [
        1.0,
        1.0
      ],
      "min": [
        -1.862645149230957e-07,
        0.01000000536441803
      ],
      "type": "VEC2"
    },
    {
      "bufferView": 0,
      "byteOffset": 5376,
      "componentType": 5125,
      "count": 864,
      "type": "SCALAR"
    },
    {
      "bufferView": 2,
      "byteOffset": 32352,
      "componentType": 5126,
      "count": 722,
      "max": [
        0.5242125988006592,
        0.8685306906700134,
        0.8685307502746582
      ],
      "min": [
        -18.725923538208008,
        -0.8685307502746582,
        -0.8685306310653687
      ],
      "type": "VEC3"
    },
    {
      "bufferView": 2,
      "byteOffset": 41016,
      "componentType": 5126,
      "count": 722,
      "max": [
        1.0,
        1.0,
        1.0
      ],
      "min": [
        -1.0,
        -1.0,
        -1.0
      ],
      "type": "VEC3"
    },
    {
      "bufferView": 1,
      "byteOffset": 10784,
      "componentType": 5126,
      "count": 722,
      "max": [
        0.9465254545211792,
        0.44652536511421204
      ],
      "min": [
        0.053474873304367065,
        0.05347486585378647
      ],
      "type": "VEC2"
    },
    {
      "bufferView": 0,
      "byteOffset": 8832,
      "componentType": 5125,
      "count": 1272,
      "type": "SCALAR"
    },
    {
      "bufferView": 2,
      "byteOffset": 49680,
      "componentType": 5126,
      "count": 476,
      "max": [
        5.299567699432373,
        0.5740916728973389,
        5.299567222595215
      ],
      "min": [
        -5.299569129943848,
        -17.784543991088867,
        -5.2995686531066895
      ],
      "type": "VEC3"
    },
    {
      "bufferView": 2,
      "byteOffset": 55392,
      "componentType": 5126,
      "count": 476,
      "max": [
        0.9914449453353882,
        1.0,
        0.9914448857307434
      ],
      "min": [
        -0.9914448857307434,
        -1.0,
        -0.9914449453353882
      ],
      "type": "VEC3"
    },
    {
      "bufferView": 1,
      "byteOffset": 16560,
      "componentType": 5126,
      "count": 476,
      "max": [
        0.9817937612533569,
        0.48179376125335693
      ],
      "min": [
        0.018206406384706497,
        0.018206408247351646
      ],
      "type": "VEC2"
    },
    {
      "bufferView": 0,
      "byteOffset": 13920,
      "componentType": 5125,
      "count": 864,
      "type": "SCALAR"
    },
    {
      "bufferView": 2,
      "byteOffset": 61104,
      "componentType": 5126,
      "count": 960,
      "max": [
        0.21464571356773376,
        4.829933166503906,
        4.662935256958008
      ],
      "min": [
        -17.425100326538086,
        -4.829969882965088,
        -4.663151264190674
      ],
      "type": "VEC3"
    },
    {
      "bufferView": 2,
      "byteOffset": 72624,
      "componentType": 5126,
      "count": 960,
      "max": [
        1.0,
        1.0,
        1.0
      ],
      "min": [
        -1.0,
        -1.0,
        -1.0
      ],
      "type": "VEC3"
    },
    {
      "bufferView": 1,
      "byteOffset": 20368,
      "componentType": 5126,
      "count": 960,
      "max": [
        0.875,
        0.9624161720275879
      ],
      "min": [
        0.125,
        0.0
      ],
      "type": "VEC2"
    },
    {
      "bufferView": 0,
      "byteOffset": 17376,
      "componentType": 5125,
      "count": 1680,
      "type": "SCALAR"
    },
    {
      "bufferView": 2,
      "byteOffset": 84144,
      "componentType": 5126,
      "count": 56,
      "max": [
        0.9934741854667664,
        0.32744288444519043,
        7.293493270874023
      ],
      "min": [
        -0.9934741854667664,
        -0.32744279503822327,
        -7.3288750648498535
      ],
      "type": "VEC3"
    },
    {
      "bufferView": 2,
      "byteOffset": 84816,
      "componentType": 5126,
      "count": 56,
      "max": [
        1.0,
        1.0,
        0.7953139543533325
      ],
      "min": [
        -1.0,
        -1.0,
        -0.9580124020576477
      ],
      "type": "VEC3"
    },
    {
      "bufferView": 1,
      "byteOffset": 28048,
      "componentType": 5126,
      "count": 56,
      "max": [
        0.875,
        1.0
      ],
      "min": [
        0.125,
        0.0
      ],
      "type": "VEC2"
    },
    {
      "bufferView": 0,
      "byteOffset": 24096,
      "componentType": 5125,
      "count": 84,
      "type": "SCALAR"
    },
    {
      "bufferView": 2,
      "byteOffset": 85488,
      "componentType": 5126,
      "count": 166,
      "max": [
        0.8591591715812683,
        0.5073708295822144,
        13.744403839111328
      ],
      "min": [
        -13.326784133911133,
        -0.6297715902328491,
        -26.50177001953125
      ],
      "type": "VEC3"
    },
    {
      "bufferView": 2,
      "byteOffset": 87480,
      "componentType": 5126,
      "count": 166,
      "max": [
        1.0,
        1.0,
        0.9104801416397095
      ],
      "min": [
        -1.0,
        -1.0,
        -1.0
      ],
      "type": "VEC3"
    },
    {
      "bufferView": 1,
      "byteOffset": 28496,
      "componentType": 5126,
      "count": 166,
      "max": [
        0.8605390191078186,
        1.0
      ],
      "min": [
        0.0,
        0.0
      ],
      "type": "VEC2"
    },
    {
      "bufferView": 0,
      "byteOffset": 24432,
      "componentType": 5125,
      "count": 252,
      "type": "SCALAR"
    },
    {
      "bufferView": 2,
      "byteOffset": 89472,
      "componentType": 5126,
      "count": 36,
      "max": [
        0.6493234038352966,
        0.606921374797821,
        7.489295482635498
      ],
      "min": [
        -0.6493234634399414,
        -0.5186377763748169,
        -7.489295482635498
      ],
      "type": "VEC3"
    },
    {
      "bufferView": 2,
      "byteOffset": 89904,
      "componentType": 5126,
      "count": 36,
      "max": [
        1.0,
        1.0,
        1.0
      ],
      "min": [
        -1.0,
        -1.0,
        -1.0
      ],
      "type": "VEC3"
    },
    {
      "bufferView": 1,
      "byteOffset": 29824,
      "componentType": 5126,
      "count": 36,
      "max": [
        0.875,
        1.0
      ],
      "min": [
        0.125,
        0.0
      ],
      "type": "VEC2"
    },
    {
      "bufferView": 0,
      "byteOffset": 25440,
      "componentType": 5125,
      "count": 60,
      "type": "SCALAR"
    },
    {
      "bufferView": 2,
      "byteOffset": 90336,
      "componentType": 5126,
      "count": 36,
      "max": [
        0.6493234038352966,
        0.606921374797821,
        7.489295482635498
      ],
      "min": [
        -0.6493234634399414,
        -0.5186377763748169,
        -7.489295482635498
      ],
      "type": "VEC3"
    },
    {
      "bufferView": 2,
      "byteOffset": 90768,
      "componentType": 5126,
      "count": 36,
      "max": [
        1.0,
        1.0,
        1.0
      ],
      "min": [
        -1.0,
        -1.0,
        -1.0
      ],
      "type": "VEC3"
    },
    {
      "bufferView": 1,
      "byteOffset": 30112,
      "componentType": 5126,
      "count": 36,
      "max": [
        0.875,
        1.0
      ],
      "min": [
        0.125,
        0.0
      ],
      "type": "VEC2"
    },
    {
      "bufferView": 0,
      "byteOffset": 25680,
      "componentType": 5125,
      "count": 60,
      "type": "SCALAR"
    },
    {
      "bufferView": 2,
      "byteOffset": 91200,
      "componentType": 5126,
      "count": 24,
      "max": [
        7.176774024963379,
        0.7076066136360168,
        0.7076066136360168
      ],
      "min": [
        -7.176774024963379,
        -0.7076066136360168,
        -0.7076066136360168
      ],
      "type": "VEC3"
    },
    {
      "bufferView": 2,
      "byteOffset": 91488,
      "componentType": 5126,
      "count": 24,
      "max": [
        1.0,
        1.0,
        1.0
      ],
      "min": [
        -1.0,
        -1.0,
        -1.0
      ],
      "type": "VEC3"
    },
    {
      "bufferView": 1,
      "byteOffset": 30400,
      "componentType": 5126,
      "count": 24,
      "max": [
        0.875,
        1.0
      ],
      "min": [
        0.125,
        0.0
      ],
      "type": "VEC2"
    },
    {
      "bufferView": 0,
      "byteOffset": 25920,
      "componentType": 5125,
      "count": 36,
      "type": "SCALAR"
    },
    {
      "bufferView": 2,
      "byteOffset": 91776,
      "componentType": 5126,
      "count": 288,
      "max": [
        0.969767153263092,
        4.364001750946045,
        18.081687927246094
      ],
      "min": [
        -13.478676795959473,
        -4.36400032043457,
        -0.4054190516471863
      ],
      "type": "VEC3"
    },
    {
      "bufferView": 2,
      "byteOffset": 95232,
      "componentType": 5126,
      "count": 288,
      "max": [
        1.0,
        1.0,
        1.0
      ],
      "min": [
        -1.0,
        -1.0,
        -1.0
      ],
      "type": "VEC3"
    },
    {
      "bufferView": 1,
      "byteOffset": 30592,
      "componentType": 5126,
      "count": 288,
      "max": [
        0.875,
        1.0
      ],
      "min": [
        0.125,
        0.0
      ],
      "type": "VEC2"
    },
    {
      "bufferView": 0,
      "byteOffset": 26064,
      "componentType": 5125,
      "count": 432,
      "type": "SCALAR"
    },
    {
      "bufferView": 2,
      "byteOffset": 98688,
      "componentType": 5126,
      "count": 3160,
      "max": [
        2.946739673614502,
        3.5876691341400146,
        3.2314493656158447
      ],
      "min": [
        -2.946739912033081,
        -3.4370670318603516,
        -2.946739435195923
      ],
      "type": "VEC3"
    },
    {
      "bufferView": 2,
      "byteOffset": 136608,
      "componentType": 5126,
      "count": 3160,
      "max": [
        0.9993242621421814,
        1.0,
        0.999324381351471
      ],
      "min": [
        -0.9993246793746948,
        -1.0,
        -0.9993245601654053
      ],
      "type": "VEC3"
    },
    {
      "bufferView": 1,
      "byteOffset": 32896,
      "componentType": 5126,
      "count": 3160,
      "max": [
        1.0,
        1.0
      ],
      "min": [
        -1.8626452913395042e-07,
        0.01000000536441803
      ],
      "type": "VEC2"
    },
    {
      "bufferView": 0,
      "byteOffset": 27792,
      "componentType": 5125,
      "count": 4764,
      "type": "SCALAR"
    },
    {
      "bufferView": 2,
      "byteOffset": 174528,
      "componentType": 5126,
      "count": 2304,
      "max": [
        3.050699472427368,
        3.612959861755371,
        3.050699472427368
      ],
      "min": [
        -3.050699472427368,
        -3.6144649982452393,
        -3.05069899559021
      ],
      "type": "VEC3"
    },
    {
      "bufferView": 2,
      "byteOffset": 202176,
      "componentType": 5126,
      "count": 2304,
      "max": [
        0.991418719291687,
        0.9915070533752441,
        0.9914188385009766
      ],
      "min": [
        -0.9914188385009766,
        -0.9915070533752441,
        -0.9914188385009766
      ],
      "type": "VEC3"
    },
    {
      "bufferView": 1,
      "byteOffset": 58176,
      "componentType": 5126,
      "count": 2304,
      "max": [
        1.0,
        0.9166666269302368
      ],
      "min": [
        -1.862645149230957e-07,
        0.8333333134651184
      ],
      "type": "VEC2"
    },
    {
      "bufferView": 0,
      "byteOffset": 46848,
      "componentType": 5125,
      "count": 3456,
      "type": "SCALAR"
    },
    {
      "bufferView": 2,
      "byteOffset": 229824,
      "componentType": 5126,
      "count": 3160,
      "max": [
        2.946739673614502,
        3.5876691341400146,
        3.2314493656158447
      ],
      "min": [
        -2.946739912033081,
        -3.4370670318603516,
        -2.946739435195923
      ],
      "type": "VEC3"
    },
    {
      "bufferView": 2,
      "byteOffset": 267744,
      "componentType": 5126,
      "count": 3160,
      "max": [
        0.9993242621421814,
        1.0,
        0.999324381351471
      ],
      "min": [
        -0.9993246793746948,
        -1.0,
        -0.9993245601654053
      ],
      "type": "VEC3"
    },
    {
      "bufferView": 1,
      "byteOffset": 76608,
      "componentType": 5126,
      "count": 3160,
      "max": [
        1.0,
        1.0
      ],
      "min": [
        -1.8626452913395042e-07,
        0.01000000536441803
      ],
      "type": "VEC2"
    },
    {
      "bufferView": 0,
      "byteOffset": 60672,
      "componentType": 5125,
      "count": 4764,
      "type": "SCALAR"
    },
    {
      "bufferView": 2,
      "byteOffset": 305664,
      "componentType": 5126,
      "count": 2304,
      "max": [
        3.050699472427368,
        3.612959861755371,
        3.050699472427368
      ],
      "min": [
        -3.050699472427368,
        -3.6144649982452393,
        -3.05069899559021
      ],
      "type": "VEC3"
    },
    {
      "bufferView": 2,
      "byteOffset": 333312,
      "componentType": 5126,
      "count": 2304,
      "max": [
        0.991418719291687,
        0.9915070533752441,
        0.9914188385009766
      ],
      "min": [
        -0.9914188385009766,
        -0.9915070533752441,
        -0.9914188385009766
      ],
      "type": "VEC3"
    },
    {
      "bufferView": 1,
      "byteOffset": 101888,
      "componentType": 5126,
      "count": 2304,
      "max": [
        1.0,
        0.9166666269302368
      ],
      "min": [
        -1.862645149230957e-07,
        0.8333333134651184
      ],
      "type": "VEC2"
    },
    {
      "bufferView": 0,
      "byteOffset": 79728,
      "componentType": 5125,
      "count": 3456,
      "type": "SCALAR"
    },
    {
      "bufferView": 2,
      "byteOffset": 360960,
      "componentType": 5126,
      "count": 3160,
      "max": [
        2.946739673614502,
        3.5876691341400146,
        3.2314493656158447
      ],
      "min": [
        -2.946739912033081,
        -3.4370670318603516,
        -2.946739435195923
      ],
      "type": "VEC3"
    },
    {
      "bufferView": 2,
      "byteOffset": 398880,
      "componentType": 5126,
      "count": 3160,
      "max": [
        0.9993242621421814,
        1.0,
        0.999324381351471
      ],
      "min": [
        -0.9993246793746948,
        -1.0,
        -0.9993245601654053
      ],
      "type": "VEC3"
    },
    {
      "bufferView": 1,
      "byteOffset": 120320,
      "componentType": 5126,
      "count": 3160,
      "max": [
        1.0,
        1.0
      ],
      "min": [
        -1.8626452913395042e-07,
        0.01000000536441803
      ],
      "type": "VEC2"
    },
    {
      "bufferView": 0,
      "byteOffset": 93552,
      "componentType": 5125,
      "count": 4764,
      "type": "SCALAR"
    },
    {
      "bufferView": 2,
      "byteOffset": 436800,
      "componentType": 5126,
      "count": 2304,
      "max": [
        3.050699472427368,
        3.612959861755371,
        3.050699472427368
      ],
      "min": [
        -3.050699472427368,
        -3.6144649982452393,
        -3.05069899559021
      ],
      "type": "VEC3"
    },
    {
      "bufferView": 2,
      "byteOffset": 464448,
      "componentType": 5126,
      "count": 2304,
      "max": [
        0.991418719291687,
        0.9915070533752441,
        0.9914188385009766
      ],
      "min": [
        -0.9914188385009766,
        -0.9915070533752441,
        -0.9914188385009766
      ],
      "type": "VEC3"
    },
    {
      "bufferView": 1,
      "byteOffset": 145600,
      "componentType": 5126,
      "count": 2304,
      "max": [
        1.0,
        0.9166666269302368
      ],
      "min": [
        -1.862645149230957e-07,
        0.8333333134651184
      ],
      "type": "VEC2"
    },
    {
      "bufferView": 0,
      "byteOffset": 112608,
      "componentType": 5125,
      "count": 3456,
      "type": "SCALAR"
    },
    {
      "bufferView": 2,
      "byteOffset": 492096,
      "componentType": 5126,
      "count": 3160,
      "max": [
        2.946739673614502,
        3.5876691341400146,
        3.2314493656158447
      ],
      "min": [
        -2.946739912033081,
        -3.4370670318603516,
        -2.946739435195923
      ],
      "type": "VEC3"
    },
    {
      "bufferView": 2,
      "byteOffset": 530016,
      "componentType": 5126,
      "count": 3160,
      "max": [
        0.9993242621421814,
        1.0,
        0.999324381351471
      ],
      "min": [
        -0.9993246793746948,
        -1.0,
        -0.9993245601654053
      ],
      "type": "VEC3"
    },
    {
      "bufferView": 1,
      "byteOffset": 164032,
      "componentType": 5126,
      "count": 3160,
      "max": [
        1.0,
        1.0
      ],
      "min": [
        -1.8626452913395042e-07,
        0.01000000536441803
      ],
      "type": "VEC2"
    },
    {
      "bufferView": 0,
      "byteOffset": 126432,
      "componentType": 5125,
      "count": 4764,
      "type": "SCALAR"
    },
    {
      "bufferView": 2,
      "byteOffset": 567936,
      "componentType": 5126,
      "count": 2304,
      "max": [
        3.050699472427368,
        3.612959861755371,
        3.050699472427368
      ],
      "min": [
        -3.050699472427368,
        -3.6144649982452393,
        -3.05069899559021
      ],
      "type": "VEC3"
    },
    {
      "bufferView": 2,
      "byteOffset": 595584,
      "componentType": 5126,
      "count": 2304,
      "max": [
        0.991418719291687,
        0.9915070533752441,
        0.9914188385009766
      ],
      "min": [
        -0.9914188385009766,
        -0.9915070533752441,
        -0.9914188385009766
      ],
      "type": "VEC3"
    },
    {
      "bufferView": 1,
      "byteOffset": 189312,
      "componentType": 5126,
      "count": 2304,
      "max": [
        1.0,
        0.9166666269302368
      ],
      "min": [
        -1.862645149230957e-07,
        0.8333333134651184
      ],
      "type": "VEC2"
    },
    {
      "bufferView": 0,
      "byteOffset": 145488,
      "componentType": 5125,
      "count": 3456,
      "type": "SCALAR"
    },
    {
      "bufferView": 2,
      "byteOffset": 623232,
      "componentType": 5126,
      "count": 3160,
      "max": [
        2.946739673614502,
        3.5876691341400146,
        3.2314493656158447
      ],
      "min": [
        -2.946739912033081,
        -3.4370670318603516,
        -2.946739435195923
      ],
      "type": "VEC3"
    },
    {
      "bufferView": 2,
      "byteOffset": 661152,
      "componentType": 5126,
      "count": 3160,
      "max": [
        0.9993242621421814,
        1.0,
        0.999324381351471
      ],
      "min": [
        -0.9993246793746948,
        -1.0,
        -0.9993245601654053
      ],
      "type": "VEC3"
    },
    {
      "bufferView": 1,
      "byteOffset": 207744,
      "componentType": 5126,
      "count": 3160,
      "max": [
        1.0,
        1.0
      ],
      "min": [
        -1.8626452913395042e-07,
        0.01000000536441803
      ],
      "type": "VEC2"
    },
    {
      "bufferView": 0,
      "byteOffset": 159312,
      "componentType": 5125,
      "count": 4764,
      "type": "SCALAR"
    },
    {
      "bufferView": 2,
      "byteOffset": 699072,
      "componentType": 5126,
      "count": 2304,
      "max": [
        3.050699472427368,
        3.612959861755371,
        3.050699472427368
      ],
      "min": [
        -3.050699472427368,
        -3.6144649982452393,
        -3.05069899559021
      ],
      "type": "VEC3"
    },
    {
      "bufferView": 2,
      "byteOffset": 726720,
      "componentType": 5126,
      "count": 2304,
      "max": [
        0.991418719291687,
        0.9915070533752441,
        0.9914188385009766
      ],
      "min": [
        -0.9914188385009766,
        -0.9915070533752441,
        -0.9914188385009766
      ],
      "type": "VEC3"
    },
    {
      "bufferView": 1,
      "byteOffset": 233024,
      "componentType": 5126,
      "count": 2304,
      "max": [
        1.0,
        0.9166666269302368
      ],
      "min": [
        -1.862645149230957e-07,
        0.8333333134651184
      ],
      "type": "VEC2"
    },
    {
      "bufferView": 0,
      "byteOffset": 178368,
      "componentType": 5125,
      "count": 3456,
      "type": "SCALAR"
    },
    {
      "bufferView": 2,
      "byteOffset": 754368,
      "componentType": 5126,
      "count": 3160,
      "max": [
        2.946739673614502,
        3.5876691341400146,
        3.2314493656158447
      ],
      "min": [
        -2.946739912033081,
        -3.4370670318603516,
        -2.946739435195923
      ],
      "type": "VEC3"
    },
    {
      "bufferView": 2,
      "byteOffset": 792288,
      "componentType": 5126,
      "count": 3160,
      "max": [
        0.9993242621421814,
        1.0,
        0.999324381351471
      ],
      "min": [
        -0.9993246793746948,
        -1.0,
        -0.9993245601654053
      ],
      "type": "VEC3"
    },
    {
      "bufferView": 1,
      "byteOffset": 251456,
      "componentType": 5126,
      "count": 3160,
      "max": [
        1.0,
        1.0
      ],
      "min": [
        -1.8626452913395042e-07,
        0.01000000536441803
      ],
      "type": "VEC2"
    },
    {
      "bufferView": 0,
      "byteOffset": 192192,
      "componentType": 5125,
      "count": 4764,
      "type": "SCALAR"
    },
    {
      "bufferView": 2,
      "byteOffset": 830208,
      "componentType": 5126,
      "count": 2304,
      "max": [
        3.050699472427368,
        3.612959861755371,
        3.050699472427368
      ],
      "min": [
        -3.050699472427368,
        -3.6144649982452393,
        -3.05069899559021
      ],
      "type": "VEC3"
    },
    {
      "bufferView": 2,
      "byteOffset": 857856,
      "componentType": 5126,
      "count": 2304,
      "max": [
        0.991418719291687,
        0.9915070533752441,
        0.9914188385009766
      ],
      "min": [
        -0.9914188385009766,
        -0.9915070533752441,
        -0.9914188385009766
      ],
      "type": "VEC3"
    },
    {
      "bufferView": 1,
      "byteOffset": 276736,
      "componentType": 5126,
      "count": 2304,
      "max": [
        1.0,
        0.9166666269302368
      ],
      "min": [
        -1.862645149230957e-07,
        0.8333333134651184
      ],
      "type": "VEC2"
    },
    {
      "bufferView": 0,
      "byteOffset": 211248,
      "componentType": 5125,
      "count": 3456,
      "type": "SCALAR"
    }
  ],
  "asset": {
    "extras": {
      "author": "PlushNinja (https://sketchfab.com/PlushNinja)",
      "license": "CC-BY-4.0 (http://creativecommons.org/licenses/by/4.0/)",
      "source": "https://sketchfab.com/3d-models/cart-and-beer-barrels-b6e30643e3ab49e79c05702582a7684b",
      "title": "Cart and beer barrels"
    },
    "generator": "Sketchfab-12.67.0",
    "version": "2.0"
  },
  "bufferViews": [
    {
      "buffer": 0,
      "byteLength": 225072,
      "name": "floatBufferViews",
      "target": 34963
    },
    {
      "buffer": 0,
      "byteLength": 295168,
      "byteOffset": 225072,
      "byteStride": 8,
      "name": "floatBufferViews",
      "target": 34962
    },
    {
      "buffer": 0,
      "byteLength": 885504,
      "byteOffset": 520240,
      "byteStride": 12,
      "name": "floatBufferViews",
      "target": 34962
    }
  ],
  "buffers": [
    {
      "byteLength": 1405744,
      "uri": "scene.bin"
    }
  ],
  "materials": [
    {
      "doubleSided": true,
      "name": "Material",
      "pbrMetallicRoughness": {
        "baseColorFactor": [
          0.173355,
          0.0436799,
          0.00526932,
          1.0
        ],
        "metallicFactor": 0.0,
        "roughnessFactor": 0.6
      }
    },
    {
      "doubleSided": true,
      "name": "Material.001",
      "pbrMetallicRoughness": {
        "baseColorFactor": [
          0.00571523,
          0.0003199,
          0.0373609,
          1.0
        ],
        "roughnessFactor": 0.714286
      }
    }
  ],
  "meshes": [
    {
      "name": "Object_0",
      "primitives": [
        {
          "attributes": {
            "NORMAL": 1,
            "POSITION": 0,
            "TEXCOORD_0": 2
          },
          "indices": 3,
          "material": 0,
          "mode": 4
        }
      ]
    },
    {
      "name": "Object_1",
      "primitives": [
        {
          "attributes": {
            "NORMAL": 5,
            "POSITION": 4,
            "TEXCOORD_0": 6
          },
          "indices": 7,
          "material": 0,
          "mode": 4
        }
      ]
    },
    {
      "name": "Object_2",
      "primitives": [
        {
          "attributes": {
            "NORMAL": 9,
            "POSITION": 8,
            "TEXCOORD_0": 10
          },
          "indices": 11,
          "material": 0,
          "mode": 4
        }
      ]
    },
    {
      "name": "Object_3",
      "primitives": [
        {
          "attributes": {
            "NORMAL": 13,
            "POSITION": 12,
            "TEXCOORD_0": 14
          },
          "indices": 15,
          "material": 1,
          "mode": 4
        }
      ]
    },
    {
      "name": "Object_4",
      "primitives": [
        {
          "attributes": {
            "NORMAL": 17,
            "POSITION": 16,
            "TEXCOORD_0": 18
          },
          "indices": 19,
          "material": 0,
          "mode": 4
        }
      ]
    },
    {
      "name": "Object_5",
      "primitives": [
        {
          "attributes": {
            "NORMAL": 21,
            "POSITION": 20,
            "TEXCOORD_0": 22
          },
          "indices": 23,
          "material": 0,
          "mode": 4
        }
      ]
    },
    {
      "name": "Object_6",
      "primitives": [
        {
          "attributes": {
            "NORMAL": 25,
            "POSITION": 24,
            "TEXCOORD_0": 26
          },
          "indices": 27,
          "material": 0,
          "mode": 4
        }
      ]
    },
    {
      "name": "Object_7",
      "primitives": [
        {
          "attributes": {
            "NORMAL": 29,
            "POSITION": 28,
            "TEXCOORD_0": 30
          },
          "indices": 31,
          "material": 0,
          "mode": 4
        }
      ]
    },
    {
      "name": "Object_8",
      "primitives": [
        {
          "attributes": {
            "NORMAL": 33,
            "POSITION": 32,
            "TEXCOORD_0": 34
          },
          "indices": 35,
          "material": 0,
          "mode": 4
        }
      ]
    },
    {
      "name": "Object_9",
      "primitives": [
        {
          "attributes": {
            "NORMAL": 37,
            "POSITION": 36,
            "TEXCOORD_0": 38
          },
          "indices": 39,
          "material": 0,
          "mode": 4
        }
      ]
    },
    {
      "name": "Object_10",
      "primitives": [
        {
          "attributes": {
            "NORMAL": 41,
            "POSITION": 40,
            "TEXCOORD_0": 42
          },
          "indices": 43,
          "material": 0,
          "mode": 4
        }
      ]
    },
    {
      "name": "Object_11",
      "primitives": [
        {
          "attributes": {
            "NORMAL": 45,
            "POSITION": 44,
            "TEXCOORD_0": 46
          },
          "indices": 47,
          "material": 0,
          "mode": 4
        }
      ]
    },
    {
      "name": "Object_12",
      "primitives": [
        {
          "attributes": {
            "NORMAL": 49,
            "POSITION": 48,
            "TEXCOORD_0": 50
          },
          "indices": 51,
          "material": 1,
          "mode": 4
        }
      ]
    },
    {
      "name": "Object_13",
      "primitives": [
        {
          "attributes": {
            "NORMAL": 53,
            "POSITION": 52,
            "TEXCOORD_0": 54
          },
          "indices": 55,
          "material": 0,
          "mode": 4
        }
      ]
    },
    {
      "name": "Object_14",
      "primitives": [
        {
          "attributes": {
            "NORMAL": 57,
            "POSITION": 56,
            "TEXCOORD_0": 58
          },
          "indices": 59,
          "material": 1,
          "mode": 4
        }
      ]
    },
    {
      "name": "Object_15",
      "primitives": [
        {
          "attributes": {
            "NORMAL": 61,
            "POSITION": 60,
            "TEXCOORD_0": 62
          },
          "indices": 63,
          "material": 0,
          "mode": 4
        }
      ]
    },
    {
      "name": "Object_16",
      "primitives": [
        {
          "attributes": {
            "NORMAL": 65,
            "POSITION": 64,
            "TEXCOORD_0": 66
          },
          "indices": 67,
          "material": 1,
          "mode": 4
        }
      ]
    },
    {
      "name": "Object_17",
      "primitives": [
        {
          "attributes": {
            "NORMAL": 69,
            "POSITION": 68,
            "TEXCOORD_0": 70
          },
          "indices": 71,
          "material": 0,
          "mode": 4
        }
      ]
    },
    {
      "name": "Object_18",
      "primitives": [
        {
          "attributes": {
            "NORMAL": 73,
            "POSITION": 72,
            "TEXCOORD_0": 74
          },
          "indices": 75,
          "material": 1,
          "mode": 4
        }
      ]
    },
    {
      "name": "Object_19",
      "primitives": [
        {
          "attributes": {
            "NORMAL": 77,
            "POSITION": 76,
            "TEXCOORD_0": 78
          },
          "indices": 79,
          "material": 0,
          "mode": 4
        }
      ]
    },
    {
      "name": "Object_20",
      "primitives": [
        {
          "attributes": {
            "NORMAL": 81,
            "POSITION": 80,
            "TEXCOORD_0": 82
          },
          "indices": 83,
          "material": 1,
          "mode": 4
        }
      ]
    },
    {
      "name": "Object_21",
      "primitives": [
        {
          "attributes": {
            "NORMAL": 85,
            "POSITION": 84,
            "TEXCOORD_0": 86
          },
          "indices": 87,
          "material": 0,
          "mode": 4
        }
      ]
    },
    {
      "name": "Object_22",
      "primitives": [
        {
          "attributes": {
            "NORMAL": 89,
            "POSITION": 88,
            "TEXCOORD_0": 90
          },
          "indices": 91,
          "material": 1,
          "mode": 4
        }
      ]
    },
    {
      "name": "Object_23",
      "primitives": [
        {
          "attributes": {
            "NORMAL": 93,
            "POSITION": 92,
            "TEXCOORD_0": 94
          },
          "indices": 95,
          "material": 0,
          "mode": 4
        }
      ]
    },
    {
      "name": "Object_24",
      "primitives": [
        {
          "attributes": {
            "NORMAL": 97,
            "POSITION": 96,
            "TEXCOORD_0": 98
          },
          "indices": 99,
          "material": 1,
          "mode": 4
        }
      ]
    }
  ],
  "nodes": [
    {
      "children": [
        1
      ],
      "matrix": [
        0.0741647481918335,
        0.0,
        0.0,
        0.0,
        0.0,
        1.64678822116201e-17,
        -0.0741647481918335,
        0.0,
        0.0,
        0.0741647481918335,
        1.64678822116201e-17,
        0.0,
        0.0,
        0.0,
        0.0,
        1.0
      ],
      "name": "Sketchfab_model"
    },
    {
      "children": [
        2
      ],
      "name": "root"
    },
    {
      "children": [
        3,
        5,
        7,
        9,
        11,
        13,
        15,
        17,
        19,
        21,
        23,
        25,
        27,
        29,
        32,
        35,
        38,
        41,
        44
      ],
      "matrix": [
        1.0,
        0.0,
        0.0,
        0.0,
        0.0,
        2.220446049250313e-16,
        1.0,
        0.0,
        0.0,
        -1.0,
        2.220446049250313e-16,
        0.0,
        0.0,
        0.0,
        0.0,
        1.0
      ],
      "name": "GLTF_SceneRootNode"
    },
    {
      "children": [
        4
      ],
      "matrix": [
        1.0,
        0.0,
        0.0,
        0.0,
        0.0,
        0.9826035007383798,
        0.18571580529583592,
        0.0,
        0.0,
        -0.18571580529583592,
        0.9826035007383798,
        0.0,
        0.0,
        6.890592098236084,
        0.8311926126480103,
        1.0
      ],
      "name": "Cube_0"
    },
    {
      "mesh": 0,
      "name": "Object_4"
    },
    {
      "children": [
        6
      ],
      "matrix": [
        8.392629313735966e-08,
        -0.9826034949152911,
        -0.1857158361051868,
        0.0,
        0.9999999999999964,
        8.392629313735966e-08,
        7.861603062986333e-09,
        0.0,
        7.861603062986333e-09,
        -0.1857158361051868,
        0.9826034949152945,
        0.0,
        -6.6404523849487305,
        14.386333465576172,
        2.2596282958984375,
        1.0
      ],
      "name": "Cube.001_1"
    },
    {
      "mesh": 1,
      "name": "Object_6"
    },
    {
      "children": [
        8
      ],
      "matrix": [
        5.378585687942916e-08,
        -0.9826034921305608,
        -0.18571585083892045,
        0.0,
        -6.49038432998239e-08,
        0.18571585083891695,
        -0.9826034921305606,
        0.0,
        0.9999999999999964,
        6.490384324431275e-08,
        -5.378585687942916e-08,
        0.0,
        0.0,
        6.283553123474121,
        11.365478515625,
        1.0
      ],
      "name": "Cube.002_2"
    },
    {
      "mesh": 2,
      "name": "Object_8"
    },
    {
      "children": [
        10
      ],
      "matrix": [
        8.392629313735966e-08,
        -0.9826034949152911,
        -0.1857158361051868,
        0.0,
        0.9999999999999964,
        8.392629313735966e-08,
        7.861603062986333e-09,
        0.0,
        7.861603062986333e-09,
        -0.1857158361051868,
        0.9826034949152945,
        0.0,
        8.60522747039795,
        5.787500381469727,
        -2.7481136322021484,
        1.0
      ],
      "name": "Cylinder_3"
    },
    {
      "mesh": 3,
      "name": "Object_10"
    },
    {
      "children": [
        12
      ],
      "matrix": [
        1.0,
        0.0,
        0.0,
        0.0,
        0.0,
        0.9826035007383798,
        0.18571580529583592,
        0.0,
        0.0,
        -0.18571580529583592,
        0.9826035007383798,
        0.0,
        9.100855827331543,
        5.787500858306885,
        -2.7481141090393066,
        1.0
      ],
      "name": "Cylinder.001_4"
    },
    {
      "mesh": 4,
      "name": "Object_12"
    },
    {
      "children": [
        14
      ],
      "matrix": [
        8.392629313735966e-08,
        -0.9826034949152911,
        -0.1857158361051868,
        0.0,
        0.9999999999999964,
        8.392629313735966e-08,
        7.861603062986333e-09,
        0.0,
        7.861603062986333e-09,
        -0.1857158361051868,
        0.9826034949152945,
        0.0,
        8.605225563049316,
        5.787500381469727,
        -2.7481136322021484,
        1.0
      ],
      "name": "Cylinder.002_5"
    },
    {
      "mesh": 5,
      "name": "Object_14"
    },
    {
      "children": [
        16
      ],
      "matrix": [
        1.0,
        0.0,
        0.0,
        0.0,
        0.0,
        0.9826035007383798,
        0.18571580529583592,
        0.0,
        0.0,
        -0.18571580529583592,
        0.9826035007383798,
        0.0,
        8.60522747039795,
        5.787500381469727,
        -2.7481136322021484,
        1.0
      ],
      "name": "Cube.003_6"
    },
    {
      "mesh": 6,
      "name": "Object_16"
    },
    {
      "children": [
        18
      ],
      "matrix": [
        5.378585687942916e-08,
        -0.9826034921305608,
        -0.18571585083892045,
        0.0,
        -6.49038432998239e-08,
        0.18571585083891695,
        -0.9826034921305606,
        0.0,
        0.9999999999999964,
        6.490384324431275e-08,
        -5.378585687942916e-08,
        0.0,
        0.0,
        8.448201179504395,
        -10.434855461120605,
        1.0
      ],
      "name": "Cube.004_7"
    },
    {
      "mesh": 7,
      "name": "Object_18"
    },
    {
      "children": [
        20
      ],
      "matrix": [
        1.0,
        0.0,
        0.0,
        0.0,
        0.0,
        0.9826035007383798,
        0.18571580529583592,
        0.0,
        0.0,
        -0.18571580529583592,
        0.9826035007383798,
        0.0,
        6.233811855316162,
        3.2057886123657227,
        15.852954864501953,
        1.0
      ],
      "name": "Cube.005_8"
    },
    {
      "mesh": 8,
      "name": "Object_20"
    },
    {
      "children": [
        22
      ],
      "matrix": [
        -8.490899361390802e-08,
        0.18571580518033537,
        -0.9826035007602063,
        0.0,
        -2.6291849114512544e-09,
        0.9826035007602096,
        0.18571580518033629,
        0.0,
        0.9999999999999964,
        1.8352388414522025e-08,
        -8.294359332694512e-08,
        0.0,
        0.0,
        3.5129666328430176,
        7.79503059387207,
        1.0
      ],
      "name": "Cube.006_9"
    },
    {
      "mesh": 9,
      "name": "Object_22"
    },
    {
      "children": [
        24
      ],
      "matrix": [
        -8.490899361390802e-08,
        0.18571580518033537,
        -0.9826035007602063,
        0.0,
        -2.6291849114512544e-09,
        0.9826035007602096,
        0.18571580518033629,
        0.0,
        0.9999999999999964,
        1.8352388414522025e-08,
        -8.294359332694512e-08,
        0.0,
        0.0,
        6.782935619354248,
        -9.506041526794434,
        1.0
      ],
      "name": "Cube.007_10"
    },
    {
      "mesh": 10,
      "name": "Object_24"
    },
    {
      "children": [
        26
      ],
      "matrix": [
        1.0,
        0.0,
        0.0,
        0.0,
        0.0,
        0.9826035007383798,
        0.18571580529583592,
        0.0,
        0.0,
        -0.18571580529583592,
        0.9826035007383798,
        0.0,
        0.05228900909423828,
        5.829377174377441,
        -2.7573928833007813,
        1.0
      ],
      "name": "Cube.008_11"
    },
    {
      "mesh": 11,
      "name": "Object_26"
    },
    {
      "children": [
        28
      ],
      "matrix": [
        1.0,
        0.0,
        0.0,
        0.0,
        0.0,
        0.9826035007383798,
        0.18571580529583592,
        0.0,
        0.0,
        -0.18571580529583592,
        0.9826035007383798,
        0.0,
        6.254454612731934,
        13.220300674438477,
        -7.857731342315674,
        1.0
      ],
      "name": "Cube.010_12"
    },
    {
      "mesh": 12,
      "name": "Object_28"
    },
    {
      "children": [
        30,
        31
      ],
      "matrix": [
        -0.9751776778992518,
        0.04112182876161899,
        -0.21757180820667704,
        0.0,
        -6.964441558177104e-08,
        0.982603503050906,
        0.1857157930604805,
        0.0,
        0.22142379394956208,
        0.18110591097859882,
        -0.9582129995369473,
        0.0,
        -3.0206668376922607,
        12.462703704833984,
        -4.9684247970581055,
        1.0
      ],
      "name": "Cylinder.005_13"
    },
    {
      "mesh": 13,
      "name": "Object_30"
    },
    {
      "mesh": 14,
      "name": "Object_31"
    },
    {
      "children": [
        33,
        34
      ],
      "matrix": [
        0.7634157629614029,
        0.11995522187878359,
        -0.6346708734502245,
        0.0,
        -2.1491215695945698e-08,
        0.9826035029860961,
        0.18571579340339525,
        0.0,
        0.6459074026995345,
        -0.14177835047518664,
        0.7501350054986612,
        0.0,
        3.1559133529663086,
        12.283227920532227,
        -4.018834114074707,
        1.0
      ],
      "name": "Cylinder.003_14"
    },
    {
      "mesh": 15,
      "name": "Object_33"
    },
    {
      "mesh": 16,
      "name": "Object_34"
    },
    {
      "children": [
        36,
        37
      ],
      "matrix": [
        0.9390711441545244,
        0.06383476097538218,
        -0.3377432597514392,
        0.0,
        -8.91904953365108e-09,
        0.982603506271334,
        0.18571577602153375,
        0.0,
        0.34372283342296633,
        -0.17440032326373825,
        0.9227345994538144,
        0.0,
        -3.0206668376922607,
        11.277633666992188,
        1.3016626834869385,
        1.0
      ],
      "name": "Cylinder.004_15"
    },
    {
      "mesh": 17,
      "name": "Object_36"
    },
    {
      "mesh": 18,
      "name": "Object_37"
    },
    {
      "children": [
        39,
        40
      ],
      "matrix": [
        -0.22683898792666923,
        0.9739298691306622,
        -0.0021641560792765024,
        0.0,
        -0.6278897117623612,
        -0.14454305757116437,
        0.7647625869320216,
        0.0,
        0.7445123124699706,
        0.17483682256066696,
        0.6443085456964751,
        0.0,
        1.6970913410186768,
        9.124417304992676,
        4.798136234283447,
        1.0
      ],
      "name": "Cylinder.007_16"
    },
    {
      "mesh": 19,
      "name": "Object_39"
    },
    {
      "mesh": 20,
      "name": "Object_40"
    },
    {
      "children": [
        42,
        43
      ],
      "matrix": [
        0.9390711331742898,
        0.0,
        -0.3437228634216166,
        0.0,
        0.0,
        1.0,
        0.0,
        0.0,
        0.3437228634216166,
        0.0,
        0.9390711331742898,
        0.0,
        11.13161849975586,
        3.628514289855957,
        -14.874850273132324,
        1.0
      ],
      "name": "Cylinder.006_19"
    },
    {
      "mesh": 21,
      "name": "Object_42"
    },
    {
      "mesh": 22,
      "name": "Object_43"
    },
    {
      "children": [
        45,
        46
      ],
      "matrix": [
        0.734687979055993,
        0.0,
        0.678405169077168,
        0.0,
        0.0,
        1.0,
        0.0,
        0.0,
        -0.678405169077168,
        0.0,
        0.734687979055993,
        0.0,
        11.13161849975586,
        3.628514289855957,
        -21.761554718017578,
        1.0
      ],
      "name": "Cylinder.008_20"
    },
    {
      "mesh": 23,
      "name": "Object_45"
    },
    {
      "mesh": 24,
      "name": "Object_46"
    }
  ],
  "scene": 0,
  "scenes": [
    {
      "name": "Sketchfab_Scene",
      "nodes": [
        0
      ]
    }
  ]
}
