{
  "accessors": [
    {
      "bufferView": 2,
      "componentType": 5126,
      "count": 134,
      "max": [
        3.0,
        2.5,
        0.5
      ],
      "min": [
        -3.0,
        -2.5,
        -1.0000001192092896
      ],
      "type": "VEC3"
    },
    {
      "bufferView": 2,
      "byteOffset": 1608,
      "componentType": 5126,
      "count": 134,
      "max": [
        1.0,
        3.416848315396237e-08,
        1.0
      ],
      "min": [
        -1.0,
        -0.9876283407211304,
        0.0
      ],
      "type": "VEC3"
    },
    {
      "bufferView": 3,
      "componentType": 5126,
      "count": 134,
      "max": [
        1.0,
        1.871794552243955e-06,
        1.0,
        1.0
      ],
      "min": [
        0.0,
        -1.126115421357099e-06,
        -1.0,
        -1.0
      ],
      "type": "VEC4"
    },
    {
      "bufferView": 1,
      "componentType": 5126,
      "count": 134,
      "max": [
        0.910605788230896,
        0.7210221290588379
      ],
      "min": [
        0.020824136212468147,
        0.14345398545265198
      ],
      "type": "VEC2"
    },
    {
      "bufferView": 0,
      "componentType": 5125,
      "count": 348,
      "type": "SCALAR"
    },
    {
      "bufferView": 2,
      "byteOffset": 3216,
      "componentType": 5126,
      "count": 28,
      "max": [
        3.0,
        3.999999761581421,
        0.0
      ],
      "min": [
        -3.0,
        -3.000000238418579,
        0.0
      ],
      "type": "VEC3"
    },
    {
      "bufferView": 2,
      "byteOffset": 3552,
      "componentType": 5126,
      "count": 28,
      "max": [
        0.0,
        0.0,
        1.0
      ],
      "min": [
        0.0,
        0.0,
        1.0
      ],
      "type": "VEC3"
    },
    {
      "bufferView": 3,
      "byteOffset": 2144,
      "componentType": 5126,
      "count": 28,
      "max": [
        1.0,
        0.0,
        0.0,
        1.0
      ],
      "min": [
        1.0,
        0.0,
        0.0,
        1.0
      ],
      "type": "VEC4"
    },
    {
      "bufferView": 1,
      "byteOffset": 1072,
      "componentType": 5126,
      "count": 28,
      "max": [
        1.0,
        1.0
      ],
      "min": [
        0.0,
        0.0
      ],
      "type": "VEC2"
    },
    {
      "bufferView": 0,
      "byteOffset": 1392,
      "componentType": 5125,
      "count": 108,
      "type": "SCALAR"
    },
    {
      "bufferView": 2,
      "byteOffset": 3888,
      "componentType": 5126,
      "count": 46,
      "max": [
        3.0,
        2.500000238418579,
        7.000000476837158
      ],
      "min": [
        -4.0,
        -2.500000238418579,
        -1.1920928955078125e-06
      ],
      "type": "VEC3"
    },
    {
      "bufferView": 2,
      "byteOffset": 4440,
      "componentType": 5126,
      "count": 46,
      "max": [
        0.9982025027275085,
        1.0,
        1.1530723043051694e-07
      ],
      "min": [
        -1.9666643424898211e-07,
        -1.0,
        -0.9947409629821777
      ],
      "type": "VEC3"
    },
    {
      "bufferView": 3,
      "byteOffset": 2592,
      "componentType": 5126,
      "count": 46,
      "max": [
        0.994740903377533,
        1.301902329942095e-06,
        0.9982024431228638,
        1.0
      ],
      "min": [
        -1.0,
        -4.635503501049243e-07,
        -0.056905347853899,
        -1.0
      ],
      "type": "VEC4"
    },
    {
      "bufferView": 1,
      "byteOffset": 1296,
      "componentType": 5126,
      "count": 46,
      "max": [
        0.9889004826545715,
        0.9488882422447205
      ],
      "min": [
        0.0019999975338578224,
        0.002000008476898074
      ],
      "type": "VEC2"
    },
    {
      "bufferView": 0,
      "byteOffset": 1824,
      "componentType": 5125,
      "count": 120,
      "type": "SCALAR"
    },
    {
      "bufferView": 2,
      "byteOffset": 4992,
      "componentType": 5126,
      "count": 146,
      "max": [
        3.0,
        2.5,
        0.5000000596046448
      ],
      "min": [
        -3.0,
        -2.5,
        -7.450580596923828e-08
      ],
      "type": "VEC3"
    },
    {
      "bufferView": 2,
      "byteOffset": 6744,
      "componentType": 5126,
      "count": 146,
      "max": [
        1.0,
        1.0,
        1.0
      ],
      "min": [
        -1.0,
        -1.0,
        -2.384185791015625e-07
      ],
      "type": "VEC3"
    },
    {
      "bufferView": 3,
      "byteOffset": 3328,
      "componentType": 5126,
      "count": 146,
      "max": [
        1.0,
        1.9337926460138988e-06,
        1.0,
        1.0
      ],
      "min": [
        -7.105427357601002e-15,
        -2.384185791015625e-07,
        -1.0,
        -1.0
      ],
      "type": "VEC4"
    },
    {
      "bufferView": 1,
      "byteOffset": 1664,
      "componentType": 5126,
      "count": 146,
      "max": [
        0.9141449332237244,
        0.7295677661895752
      ],
      "min": [
        0.018945861607789993,
        0.1403217613697052
      ],
      "type": "VEC2"
    },
    {
      "bufferView": 0,
      "byteOffset": 2304,
      "componentType": 5125,
      "count": 324,
      "type": "SCALAR"
    },
    {
      "bufferView": 2,
      "byteOffset": 8496,
      "componentType": 5126,
      "count": 28,
      "max": [
        3.0,
        3.999999761581421,
        0.0
      ],
      "min": [
        -3.0,
        -3.000000238418579,
        0.0
      ],
      "type": "VEC3"
    },
    {
      "bufferView": 2,
      "byteOffset": 8832,
      "componentType": 5126,
      "count": 28,
      "max": [
        0.0,
        0.0,
        1.0
      ],
      "min": [
        0.0,
        0.0,
        1.0
      ],
      "type": "VEC3"
    },
    {
      "bufferView": 3,
      "byteOffset": 5664,
      "componentType": 5126,
      "count": 28,
      "max": [
        1.0,
        0.0,
        0.0,
        1.0
      ],
      "min": [
        1.0,
        0.0,
        0.0,
        1.0
      ],
      "type": "VEC4"
    },
    {
      "bufferView": 1,
      "byteOffset": 2832,
      "componentType": 5126,
      "count": 28,
      "max": [
        1.0,
        1.0
      ],
      "min": [
        0.0,
        0.0
      ],
      "type": "VEC2"
    },
    {
      "bufferView": 0,
      "byteOffset": 3600,
      "componentType": 5125,
      "count": 108,
      "type": "SCALAR"
    },
    {
      "bufferView": 2,
      "byteOffset": 9168,
      "componentType": 5126,
      "count": 140,
      "max": [
        1.6003270149230957,
        2.0816619396209717,
        0.1467122584581375
      ],
      "min": [
        -1.5461843013763428,
        -0.33538055419921875,
        -0.023119965568184853
      ],
      "type": "VEC3"
    },
    {
      "bufferView": 2,
      "byteOffset": 10848,
      "componentType": 5126,
      "count": 140,
      "max": [
        0.9004710912704468,
        0.8966383934020996,
        1.0
      ],
      "min": [
        -0.900471031665802,
        -0.8966382145881653,
        -1.0
      ],
      "type": "VEC3"
    },
    {
      "bufferView": 3,
      "byteOffset": 6112,
      "componentType": 5126,
      "count": 140,
      "max": [
        1.0,
        1.0,
        0.9975771307945251,
        1.0
      ],
      "min": [
        -1.0,
        -1.0,
        -0.9975771903991699,
        -1.0
      ],
      "type": "VEC4"
    },
    {
      "bufferView": 1,
      "byteOffset": 3056,
      "componentType": 5126,
      "count": 140,
      "max": [
        1.0,
        1.0
      ],
      "min": [
        0.0,
        0.0
      ],
      "type": "VEC2"
    },
    {
      "bufferView": 1,
      "byteOffset": 4176,
      "componentType": 5126,
      "count": 140,
      "max": [
        1.6003270149230957,
        2.0816619396209717
      ],
      "min": [
        -1.5461843013763428,
        -0.33538055419921875
      ],
      "type": "VEC2"
    },
    {
      "bufferView": 0,
      "byteOffset": 4032,
      "componentType": 5125,
      "count": 294,
      "type": "SCALAR"
    },
    {
      "bufferView": 2,
      "byteOffset": 12528,
      "componentType": 5126,
      "count": 5240,
      "max": [
        1.198014497756958,
        1.8742380142211914,
        0.5672028064727783
      ],
      "min": [
        -1.2121257781982422,
        -0.18075187504291534,
        -0.01746441423892975
      ],
      "type": "VEC3"
    },
    {
      "bufferView": 2,
      "byteOffset": 75408,
      "componentType": 5126,
      "count": 5240,
      "max": [
        1.0,
        0.9999355673789978,
        0.9999468922615051
      ],
      "min": [
        -1.0,
        -0.9999110698699951,
        -0.9999985694885254
      ],
      "type": "VEC3"
    },
    {
      "bufferView": 1,
      "byteOffset": 5296,
      "componentType": 5126,
      "count": 5240,
      "max": [
        0.98095703125,
        0.9900054931640625
      ],
      "min": [
        0.00678253173828125,
        0.01025390625
      ],
      "type": "VEC2"
    },
    {
      "bufferView": 1,
      "byteOffset": 47216,
      "componentType": 5126,
      "count": 5240,
      "max": [
        3.0517578125e-05,
        0.999969482421875
      ],
      "min": [
        3.0517578125e-05,
        0.999969482421875
      ],
      "type": "VEC2"
    },
    {
      "bufferView": 0,
      "byteOffset": 5208,
      "componentType": 5125,
      "count": 20463,
      "type": "SCALAR"
    },
    {
      "bufferView": 2,
      "byteOffset": 138288,
      "componentType": 5126,
      "count": 203,
      "max": [
        16.22109603881836,
        17.30562973022461,
        86.97901916503906
      ],
      "min": [
        -15.842994689941406,
        -11.785490989685059,
        -63.68917465209961
      ],
      "type": "VEC3"
    },
    {
      "bufferView": 2,
      "byteOffset": 140724,
      "componentType": 5126,
      "count": 203,
      "max": [
        0.9998168349266052,
        0.9900879859924316,
        0.9936368465423584
      ],
      "min": [
        -0.9998168349266052,
        -0.9999967813491821,
        -0.9224367141723633
      ],
      "type": "VEC3"
    },
    {
      "bufferView": 3,
      "byteOffset": 8352,
      "componentType": 5126,
      "count": 203,
      "max": [
        0.9840701222419739,
        0.9995371699333191,
        1.0,
        1.0
      ],
      "min": [
        -1.0,
        -0.999568521976471,
        -0.9886889457702637,
        1.0
      ],
      "type": "VEC4"
    },
    {
      "bufferView": 1,
      "byteOffset": 89136,
      "componentType": 5126,
      "count": 203,
      "max": [
        0.9979999661445618,
        0.966938853263855
      ],
      "min": [
        0.0020000000949949026,
        0.0020000000949949026
      ],
      "type": "VEC2"
    },
    {
      "bufferView": 0,
      "byteOffset": 87060,
      "componentType": 5125,
      "count": 462,
      "type": "SCALAR"
    }
  ],
  "asset": {
    "extras": {
      "author": "Pedram Ashoori (https://sketchfab.com/pedramashoori)",
      "license": "CC-BY-4.0 (http://creativecommons.org/licenses/by/4.0/)",
      "source": "https://sketchfab.com/3d-models/medieval-castle-modular-kits-interior-bde29c804d6247c59d29a2ade11e69bc",
      "title": "Medieval castle modular kits (interior)"
    },
    "generator": "Sketchfab-12.68.0",
    "version": "2.0"
  },
  "bufferViews": [
    {
      "buffer": 0,
      "byteLength": 88908,
      "name": "floatBufferViews",
      "target": 34963
    },
    {
      "buffer": 0,
      "byteLength": 90760,
      "byteOffset": 88908,
      "byteStride": 8,
      "name": "floatBufferViews",
      "target": 34962
    },
    {
      "buffer": 0,
      "byteLength": 143160,
      "byteOffset": 179668,
      "byteStride": 12,
      "name": "floatBufferViews",
      "target": 34962
    },
    {
      "buffer": 0,
      "byteLength": 11600,
      "byteOffset": 322828,
      "byteStride": 16,
      "name": "floatBufferViews",
      "target": 34962
    }
  ],
  "buffers": [
    {
      "byteLength": 334428,
      "uri": "scene.bin"
    }
  ],
  "images": [
    {
      "uri": "textures/01_-_Default_baseColor.jpeg"
    },
    {
      "uri": "textures/01_-_Default_normal.png"
    },
    {
      "uri": "textures/03_-_Default_baseColor.jpeg"
    },
    {
      "uri": "textures/03_-_Default_normal.png"
    },
    {
      "uri": "textures/07_-_Default_baseColor.jpeg"
    },
    {
      "uri": "textures/07_-_Default_normal.png"
    },
    {
      "uri": "textures/02_-_Default_baseColor.jpeg"
    },
    {
      "uri": "textures/02_-_Default_normal.png"
    },
    {
      "uri": "textures/08_-_Default_baseColor.jpeg"
    },
    {
      "uri": "textures/08_-_Default_normal.png"
    },
    {
      "uri": "textures/01_-_Default_0_baseColor.jpeg"
    },
    {
      "uri": "textures/01_-_Default_0_normal.png"
    },
    {
      "uri": "textures/01_-_Default_1_baseColor.jpeg"
    },
    {
      "uri": "textures/01_-_Default_1_normal.png"
    }
  ],
  "materials": [
    {
      "doubleSided": true,
      "name": "01_-_Default",
      "normalTexture": {
        "index": 1
      },
      "pbrMetallicRoughness": {
        "baseColorTexture": {
          "index": 0
        },
        "metallicFactor": 0.026105182926829267,
        "roughnessFactor": 0.30926067073170727
      }
    },
    {
      "doubleSided": true,
      "name": "03_-_Default",
      "normalTexture": {
        "index": 3
      },
      "pbrMetallicRoughness": {
        "baseColorFactor": [
          0.6907393292682927,
          0.6907393292682927,
          0.6907393292682927,
          1.0
        ],
        "baseColorTexture": {
          "index": 2
        },
        "metallicFactor": 0.0,
        "roughnessFactor": 0.3336509146341463
      }
    },
    {
      "doubleSided": true,
      "name": "07_-_Default",
      "normalTexture": {
        "index": 5,
        "scale": 0.3614710365853659
      },
      "pbrMetallicRoughness": {
        "baseColorTexture": {
          "index": 4
        },
        "metallicFactor": 0.7517149390243902,
        "roughnessFactor": 0.23608993902439024
      }
    },
    {
      "doubleSided": true,
      "name": "02_-_Default",
      "normalTexture": {
        "index": 7,
        "scale": 0.5017149390243902
      },
      "pbrMetallicRoughness": {
        "baseColorTexture": {
          "index": 6
        },
        "metallicFactor": 0.7456173780487805,
        "roughnessFactor": 0.5775533536585367
      }
    },
    {
      "doubleSided": true,
      "name": "08_-_Default",
      "normalTexture": {
        "index": 9
      },
      "pbrMetallicRoughness": {
        "baseColorTexture": {
          "index": 8
        },
        "metallicFactor": 0.6114710365853658,
        "roughnessFactor": 0.46779725609756095
      }
    },
    {
      "doubleSided": true,
      "name": "01_-_Default_0",
      "normalTexture": {
        "index": 11
      },
      "pbrMetallicRoughness": {
        "baseColorTexture": {
          "index": 10
        },
        "metallicFactor": 0.8065929878048781,
        "roughnessFactor": 0.13852896341463417
      }
    },
    {
      "doubleSided": true,
      "name": "Skeleton_Body",
      "pbrMetallicRoughness": {
        "baseColorFactor": [
          0.588,
          0.588,
          0.588,
          1.0
        ],
        "metallicFactor": 0.13586128048780488,
        "roughnessFactor": 0.12633384146341464
      }
    },
    {
      "doubleSided": true,
      "name": "01_-_Default_1",
      "normalTexture": {
        "index": 13
      },
      "pbrMetallicRoughness": {
        "baseColorTexture": {
          "index": 12
        },
        "metallicFactor": 0.7700076219512195,
        "roughnessFactor": 0.19950457317073167
      }
    }
  ],
  "meshes": [
    {
      "name": "Plane002_01 - Default_0",
      "primitives": [
        {
          "attributes": {
            "NORMAL": 1,
            "POSITION": 0,
            "TANGENT": 2,
            "TEXCOORD_0": 3
          },
          "indices": 4,
          "material": 0,
          "mode": 4
        }
      ]
    },
    {
      "name": "Plane003_03 - Default_0",
      "primitives": [
        {
          "attributes": {
            "NORMAL": 6,
            "POSITION": 5,
            "TANGENT": 7,
            "TEXCOORD_0": 8
          },
          "indices": 9,
          "material": 1,
          "mode": 4
        }
      ]
    },
    {
      "name": "Plane007_07 - Default_0",
      "primitives": [
        {
          "attributes": {
            "NORMAL": 11,
            "POSITION": 10,
            "TANGENT": 12,
            "TEXCOORD_0": 13
          },
          "indices": 14,
          "material": 2,
          "mode": 4
        }
      ]
    },
    {
      "name": "Plane004_02 - Default_0",
      "primitives": [
        {
          "attributes": {
            "NORMAL": 16,
            "POSITION": 15,
            "TANGENT": 17,
            "TEXCOORD_0": 18
          },
          "indices": 19,
          "material": 3,
          "mode": 4
        }
      ]
    },
    {
      "name": "Plane010_08 - Default_0",
      "primitives": [
        {
          "attributes": {
            "NORMAL": 21,
            "POSITION": 20,
            "TANGENT": 22,
            "TEXCOORD_0": 23
          },
          "indices": 24,
          "material": 4,
          "mode": 4
        }
      ]
    },
    {
      "name": "Box003_01 - Default_0",
      "primitives": [
        {
          "attributes": {
            "NORMAL": 26,
            "POSITION": 25,
            "TANGENT": 27,
            "TEXCOORD_0": 28,
            "TEXCOORD_1": 29
          },
          "indices": 30,
          "material": 5,
          "mode": 4
        }
      ]
    },
    {
      "name": "Box003_Skeleton_Body_0",
      "primitives": [
        {
          "attributes": {
            "NORMAL": 32,
            "POSITION": 31,
            "TEXCOORD_0": 33,
            "TEXCOORD_1": 34
          },
          "indices": 35,
          "material": 6,
          "mode": 4
        }
      ]
    },
    {
      "name": "Cylinder002_01 - Default_0",
      "primitives": [
        {
          "attributes": {
            "NORMAL": 37,
            "POSITION": 36,
            "TANGENT": 38,
            "TEXCOORD_0": 39
          },
          "indices": 40,
          "material": 7,
          "mode": 4
        }
      ]
    }
  ],
  "nodes": [
    {
      "children": [
        1
      ],
      "matrix": [
        0.00019554523169063032,
        0.0,
        0.0,
        0.0,
        0.0,
        4.341976371571972e-20,
        -0.00019554523169063032,
        0.0,
        0.0,
        0.00019554523169063032,
        4.341976371571972e-20,
        0.0,
        0.0,
        0.0,
        0.0,
        1.0
      ],
      "name": "Sketchfab_model"
    },
    {
      "children": [
        2
      ],
      "matrix": [
        1.0,
        0.0,
        0.0,
        0.0,
        0.0,
        0.0,
        1.0,
        0.0,
        0.0,
        -1.0,
        0.0,
        0.0,
        0.0,
        0.0,
        0.0,
        1.0
      ],
      "name": "a88acf5f57134fe5ab5a081dbb306744.fbx"
    },
    {
      "children": [
        3,
        5,
        7,
        10,
        12,
        14,
        17
      ],
      "name": "RootNode"
    },
    {
      "children": [
        4
      ],
      "matrix": [
        100.0,
        0.0,
        0.0,
        0.0,
        0.0,
        99.99999999999866,
        1.6292067828160764e-05,
        0.0,
        0.0,
        -1.6292067828160764e-05,
        99.99999999999866,
        0.0,
        284.08453369140625,
        250.0,
        -310.5570068359375,
        1.0
      ],
      "name": "Plane002"
    },
    {
      "mesh": 0,
      "name": "Plane002_01 - Default_0"
    },
    {
      "children": [
        6
      ],
      "matrix": [
        100.0,
        0.0,
        0.0,
        0.0,
        0.0,
        2.220446049250313e-14,
        -100.0,
        0.0,
        0.0,
        100.0,
        2.220446049250313e-14,
        0.0,
        272.9734802246094,
        0.0,
        194.5096435546875,
        1.0
      ],
      "name": "Plane003"
    },
    {
      "mesh": 1,
      "name": "Plane003_03 - Default_0"
    },
    {
      "children": [
        8
      ],
      "matrix": [
        -99.99999999999245,
        -2.854417411031659e-12,
        3.8941438086392567e-05,
        0.0,
        -9.198782887510151e-12,
        99.99999999999866,
        -1.6292067751588163e-05,
        0.0,
        -3.8941438086391584e-05,
        -1.6292067751590507e-05,
        -99.99999999999112,
        0.0,
        967.104736328125,
        249.99996948242188,
        149.31878662109375,
        1.0
      ],
      "name": "Plane007"
    },
    {
      "children": [
        9
      ],
      "matrix": [
        1.0,
        0.0,
        -0.0,
        0.0,
        0.0,
        1.0,
        0.0,
        0.0,
        0.0,
        0.0,
        1.0,
        0.0,
        -5.006868946111354e-07,
        -1.192489662571461e-08,
        -3.0,
        1.0
      ],
      "name": "Object_8"
    },
    {
      "mesh": 2,
      "name": "Plane007_07 - Default_0"
    },
    {
      "children": [
        11
      ],
      "matrix": [
        100.0,
        0.0,
        0.0,
        0.0,
        0.0,
        99.99999999999866,
        1.6292067828160764e-05,
        0.0,
        0.0,
        -1.6292067828160764e-05,
        99.99999999999866,
        0.0,
        -413.5528564453125,
        250.0345458984375,
        -314.6811218261719,
        1.0
      ],
      "name": "Plane004"
    },
    {
      "mesh": 3,
      "name": "Plane004_02 - Default_0"
    },
    {
      "children": [
        13
      ],
      "matrix": [
        100.0,
        0.0,
        0.0,
        0.0,
        0.0,
        2.220446049250313e-14,
        -100.0,
        0.0,
        0.0,
        100.0,
        2.220446049250313e-14,
        0.0,
        -421.6147766113281,
        -1.431060791015625,
        192.19085693359375,
        1.0
      ],
      "name": "Plane010"
    },
    {
      "mesh": 4,
      "name": "Plane010_08 - Default_0"
    },
    {
      "children": [
        15,
        16
      ],
      "matrix": [
        80.91057586669922,
        0.0,
        0.0,
        0.0,
        0.0,
        143.1400909423809,
        2.3320480991675377e-05,
        0.0,
        0.0,
        -2.3320480991675377e-05,
        143.1400909423809,
        0.0,
        -919.2767333984375,
        113.26274871826172,
        -301.10870361328125,
        1.0
      ],
      "name": "Box003"
    },
    {
      "mesh": 5,
      "name": "Box003_01 - Default_0"
    },
    {
      "mesh": 6,
      "name": "Box003_Skeleton_Body_0"
    },
    {
      "children": [
        18
      ],
      "matrix": [
        1.4781184196472168,
        0.0,
        0.0,
        0.0,
        0.0,
        3.282082205229779e-16,
        -1.4781184196472168,
        0.0,
        0.0,
        0.9542428851127625,
        2.1188448442738538e-16,
        0.0,
        -1160.661865234375,
        243.4017333984375,
        -271.7742004394531,
        1.0
      ],
      "name": "Cylinder002"
    },
    {
      "mesh": 7,
      "name": "Cylinder002_01 - Default_0"
    }
  ],
  "samplers": [
    {
      "magFilter": 9729,
      "minFilter": 9987,
      "wrapS": 10497,
      "wrapT": 10497
    }
  ],
  "scene": 0,
  "scenes": [
    {
      "name": "Sketchfab_Scene",
      "nodes": [
        0
      ]
    }
  ],
  "textures": [
    {
      "sampler": 0,
      "source": 0
    },
    {
      "sampler": 0,
      "source": 1
    },
    {
      "sampler": 0,
      "source": 2
    },
    {
      "sampler": 0,
      "source": 3
    },
    {
      "sampler": 0,
      "source": 4
    },
    {
      "sampler": 0,
      "source": 5
    },
    {
      "sampler": 0,
      "source": 6
    },
    {
      "sampler": 0,
      "source": 7
    },
    {
      "sampler": 0,
      "source": 8
    },
    {
      "sampler": 0,
      "source": 9
    },
    {
      "sampler": 0,
      "source": 10
    },
    {
      "sampler": 0,
      "source": 11
    },
    {
      "sampler": 0,
      "source": 12
    },
    {
      "sampler": 0,
      "source": 13
    }
  ]
}
