{
  "accessors": [
    {
      "bufferView": 2,
      "componentType": 5126,
      "count": 19295,
      "max": [
        0.3170419931411743,
        1.8215199708938599,
        0.6582109928131104
      ],
      "min": [
        -0.21932800114154816,
        0.7242969870567322,
        -1.1349300146102905
      ],
      "type": "VEC3"
    },
    {
      "bufferView": 2,
      "byteOffset": 231540,
      "componentType": 5126,
      "count": 19295,
      "max": [
        1.0,
        0.9996451139450073,
        1.0
      ],
      "min": [
        -1.0,
        -1.0,
        -1.0
      ],
      "type": "VEC3"
    },
    {
      "bufferView": 3,
      "componentType": 5126,
      "count": 19295,
      "max": [
        1.0,
        1.0,
        1.0,
        1.0
      ],
      "min": [
        -1.0,
        -1.0,
        -1.0,
        1.0
      ],
      "type": "VEC4"
    },
    {
      "bufferView": 1,
      "componentType": 5126,
      "count": 19295,
      "max": [
        0.0,
        0.0
      ],
      "min": [
        0.0,
        0.0
      ],
      "type": "VEC2"
    },
    {
      "bufferView": 0,
      "componentType": 5125,
      "count": 50502,
      "type": "SCALAR"
    },
    {
      "bufferView": 2,
      "byteOffset": 463080,
      "componentType": 5126,
      "count": 1363,
      "max": [
        0.6663060188293457,
        1.0,
        0.7901800274848938
      ],
      "min": [
        -0.6663060188293457,
        -1.0,
        -0.7901800274848938
      ],
      "type": "VEC3"
    },
    {
      "bufferView": 2,
      "byteOffset": 479436,
      "componentType": 5126,
      "count": 1363,
      "max": [
        1.0,
        0.9999236464500427,
        0.9968931078910828
      ],
      "min": [
        -1.0,
        -0.9999533295631409,
        -0.9999012351036072
      ],
      "type": "VEC3"
    },
    {
      "bufferView": 3,
      "byteOffset": 308720,
      "componentType": 5126,
      "count": 1363,
      "max": [
        1.0,
        0.9940546154975891,
        0.9976820945739746,
        1.0
      ],
      "min": [
        -0.999968409538269,
        -1.0,
        -0.9976828098297119,
        -1.0
      ],
      "type": "VEC4"
    },
    {
      "bufferView": 1,
      "byteOffset": 154360,
      "componentType": 5126,
      "count": 1363,
      "max": [
        0.9994999766349792,
        0.9875509738922119
      ],
      "min": [
        0.0005000000237487257,
        0.0005000000237487257
      ],
      "type": "VEC2"
    },
    {
      "bufferView": 0,
      "byteOffset": 202008,
      "componentType": 5125,
      "count": 4956,
      "type": "SCALAR"
    }
  ],
  "asset": {
    "extras": {
      "author": "Lazanja (https://sketchfab.com/Lazanja)",
      "license": "CC-BY-4.0 (http://creativecommons.org/licenses/by/4.0/)",
      "source": "https://sketchfab.com/3d-models/imperial-roman-leather-helmet-95e47870edc146b797162bd45826277b",
      "title": "Imperial Roman Leather Helmet"
    },
    "generator": "Sketchfab-12.67.0",
    "version": "2.0"
  },
  "bufferViews": [
    {
      "buffer": 0,
      "byteLength": 221832,
      "name": "floatBufferViews",
      "target": 34963
    },
    {
      "buffer": 0,
      "byteLength": 165264,
      "byteOffset": 221832,
      "byteStride": 8,
      "name": "floatBufferViews",
      "target": 34962
    },
    {
      "buffer": 0,
      "byteLength": 495792,
      "byteOffset": 387096,
      "byteStride": 12,
      "name": "floatBufferViews",
      "target": 34962
    },
    {
      "buffer": 0,
      "byteLength": 330528,
      "byteOffset": 882888,
      "byteStride": 16,
      "name": "floatBufferViews",
      "target": 34962
    }
  ],
  "buffers": [
    {
      "byteLength": 1213416,
      "uri": "scene.bin"
    }
  ],
  "images": [
    {
      "uri": "textures/Helmet20_baseColor.jpeg"
    },
    {
      "uri": "textures/Helmet20_metallicRoughness.png"
    },
    {
      "uri": "textures/Helmet20_normal.png"
    },
    {
      "uri": "textures/DefaultMaterial_baseColor.jpeg"
    },
    {
      "uri": "textures/DefaultMaterial_metallicRoughness.png"
    },
    {
      "uri": "textures/DefaultMaterial_normal.png"
    }
  ],
  "materials": [
    {
      "name": "Helmet20",
      "normalTexture": {
        "index": 2
      },
      "occlusionTexture": {
        "index": 1
      },
      "pbrMetallicRoughness": {
        "baseColorTexture": {
          "index": 0
        },
        "metallicRoughnessTexture": {
          "index": 1
        }
      }
    },
    {
      "doubleSided": true,
      "name": "DefaultMaterial",
      "normalTexture": {
        "index": 5
      },
      "pbrMetallicRoughness": {
        "baseColorTexture": {
          "index": 3
        },
        "metallicRoughnessTexture": {
          "index": 4
        }
      }
    }
  ],
  "meshes": [
    {
      "name": "defaultMaterial",
      "primitives": [
        {
          "attributes": {
            "NORMAL": 1,
            "POSITION": 0,
            "TANGENT": 2,
            "TEXCOORD_0": 3
          },
          "indices": 4,
          "material": 1,
          "mode": 4
        }
      ]
    },
    {
      "name": "defaultMaterial",
      "primitives": [
        {
          "attributes": {
            "NORMAL": 6,
            "POSITION": 5,
            "TANGENT": 7,
            "TEXCOORD_0": 8
          },
          "indices": 9,
          "material": 0,
          "mode": 4
        }
      ]
    }
  ],
  "nodes": [
    {
      "children": [
        1
      ],
      "matrix": [
        1.0,
        0.0,
        0.0,
        0.0,
        0.0,
        2.220446049250313e-16,
        -1.0,
        0.0,
        0.0,
        1.0,
        2.220446049250313e-16,
        0.0,
        0.0,
        0.0,
        0.0,
        1.0
      ],
      "name": "Sketchfab_model"
    },
    {
      "children": [
        2,
        4
      ],
      "matrix": [
        1.0,
        0.0,
        0.0,
        0.0,
        0.0,
        -4.371139006309477e-08,
        0.999999999999999,
        0.0,
        0.0,
        -0.999999999999999,
        -4.371139006309477e-08,
        0.0,
        0.0,
        0.0,
        0.0,
        1.0
      ],
      "name": "Collada visual scene group"
    },
    {
      "children": [
        3
      ],
      "name": "Object001"
    },
    {
      "mesh": 0,
      "name": "defaultMaterial"
    },
    {
      "children": [
        5
      ],
      "name": "Helmet2Retopo"
    },
    {
      "mesh": 1,
      "name": "defaultMaterial"
    }
  ],
  "samplers": [
    {
      "magFilter": 9729,
      "minFilter": 9987,
      "wrapS": 10497,
      "wrapT": 10497
    }
  ],
  "scene": 0,
  "scenes": [
    {
      "name": "Sketchfab_Scene",
      "nodes": [
        0
      ]
    }
  ],
  "textures": [
    {
      "sampler": 0,
      "source": 0
    },
    {
      "sampler": 0,
      "source": 1
    },
    {
      "sampler": 0,
      "source": 2
    },
    {
      "sampler": 0,
      "source": 3
    },
    {
      "sampler": 0,
      "source": 4
    },
    {
      "sampler": 0,
      "source": 5
    }
  ]
}
