{
  "accessors": [
    {
      "bufferView": 3,
      "componentType": 5126,
      "count": 4,
      "max": [
        1.0,
        1.0,
        0.0
      ],
      "min": [
        -1.0,
        -1.0,
        0.0
      ],
      "type": "VEC3"
    },
    {
      "bufferView": 3,
      "byteOffset": 48,
      "componentType": 5126,
      "count": 4,
      "max": [
        0.0,
        0.0,
        1.0
      ],
      "min": [
        0.0,
        0.0,
        1.0
      ],
      "type": "VEC3"
    },
    {
      "bufferView": 2,
      "componentType": 5126,
      "count": 4,
      "max": [
        0.9980079531669617,
        0.9980079531669617
      ],
      "min": [
        0.0019920319318771362,
        0.0019920319318771362
      ],
      "type": "VEC2"
    },
    {
      "bufferView": 1,
      "componentType": 5125,
      "count": 6,
      "type": "SCALAR"
    },
    {
      "bufferView": 3,
      "byteOffset": 96,
      "componentType": 5126,
      "count": 2159,
      "max": [
        2.4955646991729736,
        2.074197769165039,
        29.49652862548828
      ],
      "min": [
        -2.305208921432495,
        -2.7601232528686523,
        8.282565116882324
      ],
      "type": "VEC3"
    },
    {
      "bufferView": 3,
      "byteOffset": 26004,
      "componentType": 5126,
      "count": 2159,
      "max": [
        0.9998912811279297,
        0.9998455047607422,
        0.9996217489242554
      ],
      "min": [
        -0.9984430074691772,
        -0.99896639585495,
        -0.9998224973678589
      ],
      "type": "VEC3"
    },
    {
      "bufferView": 4,
      "componentType": 5126,
      "count": 2159,
      "max": [
        0.9996200799942017,
        0.999775767326355,
        0.9999712705612183,
        1.0
      ],
      "min": [
        -0.9998493790626526,
        -0.9999052882194519,
        -0.9995008111000061,
        -1.0
      ],
      "type": "VEC4"
    },
    {
      "bufferView": 2,
      "byteOffset": 32,
      "componentType": 5126,
      "count": 2159,
      "max": [
        0.9948891401290894,
        0.983954906463623
      ],
      "min": [
        0.004868741147220135,
        0.004868741147220135
      ],
      "type": "VEC2"
    },
    {
      "bufferView": 1,
      "byteOffset": 24,
      "componentType": 5125,
      "count": 5532,
      "type": "SCALAR"
    },
    {
      "bufferView": 3,
      "byteOffset": 51912,
      "componentType": 5126,
      "count": 131,
      "max": [
        0.53560870885849,
        0.5020277500152588,
        21.225605010986328
      ],
      "min": [
        -0.8509228229522705,
        -1.5825144052505493,
        -8.133096694946289
      ],
      "type": "VEC3"
    },
    {
      "bufferView": 3,
      "byteOffset": 53484,
      "componentType": 5126,
      "count": 131,
      "max": [
        0.9950166940689087,
        0.9905911684036255,
        1.0
      ],
      "min": [
        -0.9913467764854431,
        -0.9892367124557495,
        -0.7874687314033508
      ],
      "type": "VEC3"
    },
    {
      "bufferView": 4,
      "byteOffset": 34544,
      "componentType": 5126,
      "count": 131,
      "max": [
        0.9902719259262085,
        0.9942572712898254,
        0.9931722283363342,
        1.0
      ],
      "min": [
        -0.9900749325752258,
        -0.9999927282333374,
        -0.4663389027118683,
        1.0
      ],
      "type": "VEC4"
    },
    {
      "bufferView": 2,
      "byteOffset": 17304,
      "componentType": 5126,
      "count": 131,
      "max": [
        0.9929870367050171,
        0.9497904777526855
      ],
      "min": [
        0.06501170247793198,
        0.08102737367153168
      ],
      "type": "VEC2"
    },
    {
      "bufferView": 1,
      "byteOffset": 22152,
      "componentType": 5125,
      "count": 498,
      "type": "SCALAR"
    },
    {
      "bufferView": 3,
      "byteOffset": 55056,
      "componentType": 5126,
      "count": 12,
      "max": [
        43.20720672607422,
        -66.61642456054688,
        -16.533309936523438
      ],
      "min": [
        40.05537033081055,
        -70.00777435302734,
        -18.114431381225586
      ],
      "type": "VEC3"
    },
    {
      "bufferView": 3,
      "byteOffset": 55200,
      "componentType": 5126,
      "count": 12,
      "max": [
        0.25864657759666443,
        -0.20173679292201996,
        0.9792149066925049
      ],
      "min": [
        -0.4231950342655182,
        -0.6914843916893005,
        0.7223361730575562
      ],
      "type": "VEC3"
    },
    {
      "bufferView": 4,
      "byteOffset": 36640,
      "componentType": 5126,
      "count": 12,
      "max": [
        -0.6945322155952454,
        0.7179151773452759,
        0.4497542679309845,
        1.0
      ],
      "min": [
        -0.7862750887870789,
        0.441446989774704,
        0.04714782536029816,
        1.0
      ],
      "type": "VEC4"
    },
    {
      "bufferView": 2,
      "byteOffset": 18352,
      "componentType": 5126,
      "count": 12,
      "max": [
        0.2125059962272644,
        0.7431572079658508
      ],
      "min": [
        0.09697699546813965,
        0.3934359550476074
      ],
      "type": "VEC2"
    },
    {
      "bufferView": 1,
      "byteOffset": 24144,
      "componentType": 5125,
      "count": 36,
      "type": "SCALAR"
    },
    {
      "bufferView": 3,
      "byteOffset": 55344,
      "componentType": 5126,
      "count": 40,
      "max": [
        44.89558410644531,
        -65.81707763671875,
        -16.675291061401367
      ],
      "min": [
        39.52174758911133,
        -71.06073760986328,
        -20.01371192932129
      ],
      "type": "VEC3"
    },
    {
      "bufferView": 3,
      "byteOffset": 55824,
      "componentType": 5126,
      "count": 40,
      "max": [
        0.44565966725349426,
        -0.3788573443889618,
        0.8854724168777466
      ],
      "min": [
        -0.42637524008750916,
        -0.9735223054885864,
        0.2268751859664917
      ],
      "type": "VEC3"
    },
    {
      "bufferView": 4,
      "byteOffset": 36832,
      "componentType": 5126,
      "count": 40,
      "max": [
        -0.6030138731002808,
        0.6558566689491272,
        0.7204140424728394,
        1.0
      ],
      "min": [
        -0.7340877652168274,
        0.17748942971229553,
        0.34629058837890625,
        1.0
      ],
      "type": "VEC4"
    },
    {
      "bufferView": 2,
      "byteOffset": 18448,
      "componentType": 5126,
      "count": 40,
      "max": [
        0.2125059962272644,
        0.7431572079658508
      ],
      "min": [
        0.09697699546813965,
        0.3934359550476074
      ],
      "type": "VEC2"
    },
    {
      "bufferView": 1,
      "byteOffset": 24288,
      "componentType": 5125,
      "count": 114,
      "type": "SCALAR"
    },
    {
      "bufferView": 3,
      "byteOffset": 56304,
      "componentType": 5126,
      "count": 492,
      "max": [
        -3749.91796875,
        7149.66259765625,
        2611.602783203125
      ],
      "min": [
        -4617.447265625,
        6368.92724609375,
        2041.7841796875
      ],
      "type": "VEC3"
    },
    {
      "bufferView": 3,
      "byteOffset": 62208,
      "componentType": 5126,
      "count": 492,
      "max": [
        0.7865241765975952,
        0.9666648507118225,
        -0.01815028488636017
      ],
      "min": [
        -0.41575542092323303,
        -0.17648829519748688,
        -0.9993895292282104
      ],
      "type": "VEC3"
    },
    {
      "bufferView": 4,
      "byteOffset": 37472,
      "componentType": 5126,
      "count": 492,
      "max": [
        0.32511869072914124,
        0.9943860769271851,
        0.9916317462921143,
        1.0
      ],
      "min": [
        -0.6300780177116394,
        0.11879882961511612,
        -0.18941287696361542,
        1.0
      ],
      "type": "VEC4"
    },
    {
      "bufferView": 2,
      "byteOffset": 18768,
      "componentType": 5126,
      "count": 492,
      "max": [
        0.2125059962272644,
        0.7431572079658508
      ],
      "min": [
        0.09697699546813965,
        0.3934359550476074
      ],
      "type": "VEC2"
    },
    {
      "bufferView": 1,
      "byteOffset": 24744,
      "componentType": 5125,
      "count": 1476,
      "type": "SCALAR"
    },
    {
      "bufferView": 3,
      "byteOffset": 68112,
      "componentType": 5126,
      "count": 132,
      "max": [
        -3563.713134765625,
        5697.94091796875,
        1931.924560546875
      ],
      "min": [
        -4177.9404296875,
        5247.7490234375,
        1577.6170654296875
      ],
      "type": "VEC3"
    },
    {
      "bufferView": 3,
      "byteOffset": 69696,
      "componentType": 5126,
      "count": 132,
      "max": [
        0.6752539277076721,
        0.9809859395027161,
        0.019007110968232155
      ],
      "min": [
        -0.3231712579727173,
        0.19597016274929047,
        -0.9575210809707642
      ],
      "type": "VEC3"
    },
    {
      "bufferView": 4,
      "byteOffset": 45344,
      "componentType": 5126,
      "count": 132,
      "max": [
        -0.04816225543618202,
        0.8804239630699158,
        0.9750579595565796,
        1.0
      ],
      "min": [
        -0.8581365942955017,
        0.09430056065320969,
        -0.1161377802491188,
        1.0
      ],
      "type": "VEC4"
    },
    {
      "bufferView": 2,
      "byteOffset": 22704,
      "componentType": 5126,
      "count": 132,
      "max": [
        0.2125059962272644,
        0.7431572079658508
      ],
      "min": [
        0.09697699546813965,
        0.3934359550476074
      ],
      "type": "VEC2"
    },
    {
      "bufferView": 1,
      "byteOffset": 30648,
      "componentType": 5125,
      "count": 396,
      "type": "SCALAR"
    },
    {
      "bufferView": 3,
      "byteOffset": 71280,
      "componentType": 5126,
      "count": 678,
      "max": [
        -2181.188232421875,
        5040.26513671875,
        1829.58642578125
      ],
      "min": [
        -3227.5537109375,
        3985.770751953125,
        995.85009765625
      ],
      "type": "VEC3"
    },
    {
      "bufferView": 3,
      "byteOffset": 79416,
      "componentType": 5126,
      "count": 678,
      "max": [
        0.9890159964561462,
        0.9844675660133362,
        0.9988807439804077
      ],
      "min": [
        -0.983857274055481,
        -0.9955755472183228,
        -0.9938396215438843
      ],
      "type": "VEC3"
    },
    {
      "bufferView": 4,
      "byteOffset": 47456,
      "componentType": 5126,
      "count": 678,
      "max": [
        0.9952292442321777,
        0.98492431640625,
        0.9990293979644775,
        1.0
      ],
      "min": [
        -0.9936147332191467,
        -0.999150276184082,
        -0.9964427351951599,
        -1.0
      ],
      "type": "VEC4"
    },
    {
      "bufferView": 2,
      "byteOffset": 23760,
      "componentType": 5126,
      "count": 678,
      "max": [
        0.9681259989738464,
        0.9956156611442566
      ],
      "min": [
        0.0030912701040506363,
        0.0017690658569335938
      ],
      "type": "VEC2"
    },
    {
      "bufferView": 1,
      "byteOffset": 32232,
      "componentType": 5125,
      "count": 2595,
      "type": "SCALAR"
    },
    {
      "bufferView": 3,
      "byteOffset": 87552,
      "componentType": 5126,
      "count": 443,
      "max": [
        46.955291748046875,
        -64.00582122802734,
        -15.834297180175781
      ],
      "min": [
        37.35748291015625,
        -73.64421844482422,
        -23.986352920532227
      ],
      "type": "VEC3"
    },
    {
      "bufferView": 3,
      "byteOffset": 92868,
      "componentType": 5126,
      "count": 443,
      "max": [
        0.6191278696060181,
        -0.06122767925262451,
        0.9851850867271423
      ],
      "min": [
        -0.8576884269714355,
        -0.9853165149688721,
        -0.03061775490641594
      ],
      "type": "VEC3"
    },
    {
      "bufferView": 4,
      "byteOffset": 58304,
      "componentType": 5126,
      "count": 443,
      "max": [
        -0.2529095411300659,
        0.9504989385604858,
        0.8554161787033081,
        1.0
      ],
      "min": [
        -0.922976016998291,
        -0.18899372220039368,
        -0.3148041367530823,
        1.0
      ],
      "type": "VEC4"
    },
    {
      "bufferView": 2,
      "byteOffset": 29184,
      "componentType": 5126,
      "count": 443,
      "max": [
        0.2125059962272644,
        0.7431572079658508
      ],
      "min": [
        0.09697699546813965,
        0.3934359550476074
      ],
      "type": "VEC2"
    },
    {
      "bufferView": 1,
      "byteOffset": 42612,
      "componentType": 5125,
      "count": 1326,
      "type": "SCALAR"
    },
    {
      "bufferView": 5,
      "componentType": 5126,
      "count": 26,
      "max": [
        1.0,
        0.42567816376686096,
        0.3022002875804901,
        0.0,
        0.3783254325389862,
        1.0,
        0.2732188105583191,
        0.0,
        0.2926129698753357,
        0.32772397994995117,
        1.0,
        0.0,
        37.91669845581055,
        24.545141220092773,
        19.337617874145508,
        1.0
      ],
      "min": [
        -42.58185577392578,
        -0.4177838861942291,
        -0.4192083179950714,
        0.0,
        -0.3422955274581909,
        -42.58185958862305,
        -0.3054612874984741,
        0.0,
        -0.2912951409816742,
        -0.303661584854126,
        -42.58187484741211,
        0.0,
        -36.29636001586914,
        -27.384912490844727,
        -14.427093505859375,
        1.0
      ],
      "type": "MAT4"
    },
    {
      "bufferView": 0,
      "componentType": 5123,
      "count": 12,
      "type": "VEC4"
    },
    {
      "bufferView": 4,
      "byteOffset": 65392,
      "componentType": 5126,
      "count": 12,
      "max": [
        0.8109959959983826,
        0.23102916777133942,
        0.0,
        0.0
      ],
      "min": [
        0.7689708471298218,
        0.18900397419929504,
        0.0,
        0.0
      ],
      "type": "VEC4"
    },
    {
      "bufferView": 0,
      "byteOffset": 96,
      "componentType": 5123,
      "count": 40,
      "type": "VEC4"
    },
    {
      "bufferView": 4,
      "byteOffset": 65584,
      "componentType": 5126,
      "count": 40,
      "max": [
        0.9076684713363647,
        0.37734976410865784,
        0.333063006401062,
        0.0
      ],
      "min": [
        0.33351656794548035,
        0.06826008856296539,
        0.0191817469894886,
        0.0
      ],
      "type": "VEC4"
    },
    {
      "bufferView": 0,
      "byteOffset": 416,
      "componentType": 5123,
      "count": 492,
      "type": "VEC4"
    },
    {
      "bufferView": 4,
      "byteOffset": 66224,
      "componentType": 5126,
      "count": 492,
      "max": [
        1.0,
        0.4998250901699066,
        0.030415236949920654,
        0.0
      ],
      "min": [
        0.49297696352005005,
        0.0,
        0.0,
        0.0
      ],
      "type": "VEC4"
    },
    {
      "bufferView": 0,
      "byteOffset": 4352,
      "componentType": 5123,
      "count": 132,
      "type": "VEC4"
    },
    {
      "bufferView": 4,
      "byteOffset": 74096,
      "componentType": 5126,
      "count": 132,
      "max": [
        1.0,
        0.4938836395740509,
        0.1053980216383934,
        0.0
      ],
      "min": [
        0.48300087451934814,
        0.0,
        0.0,
        0.0
      ],
      "type": "VEC4"
    },
    {
      "bufferView": 0,
      "byteOffset": 5408,
      "componentType": 5123,
      "count": 678,
      "type": "VEC4"
    },
    {
      "bufferView": 4,
      "byteOffset": 76208,
      "componentType": 5126,
      "count": 678,
      "max": [
        1.0,
        0.49378466606140137,
        0.24303224682807922,
        0.1450016349554062
      ],
      "min": [
        0.36061355471611023,
        0.0,
        0.0,
        0.0
      ],
      "type": "VEC4"
    },
    {
      "bufferView": 0,
      "byteOffset": 10832,
      "componentType": 5123,
      "count": 443,
      "type": "VEC4"
    },
    {
      "bufferView": 4,
      "byteOffset": 87056,
      "componentType": 5126,
      "count": 443,
      "max": [
        1.0,
        0.4999600350856781,
        0.3333160877227783,
        0.24997295439243317
      ],
      "min": [
        0.2500320374965668,
        0.0,
        0.0,
        0.0
      ],
      "type": "VEC4"
    },
    {
      "bufferView": 6,
      "componentType": 5126,
      "count": 182,
      "max": [
        6.666666507720947
      ],
      "min": [
        0.0
      ],
      "type": "SCALAR"
    },
    {
      "bufferView": 7,
      "componentType": 5126,
      "count": 182,
      "max": [
        3.1199320460473245e-08,
        0.8087157011032104,
        -6.332992796842518e-08
      ],
      "min": [
        3.119929914419117e-08,
        0.8087157011032104,
        -6.33299421792799e-08
      ],
      "type": "VEC3"
    },
    {
      "bufferView": 6,
      "byteOffset": 728,
      "componentType": 5126,
      "count": 292,
      "max": [
        6.666666507720947
      ],
      "min": [
        0.0
      ],
      "type": "SCALAR"
    },
    {
      "bufferView": 8,
      "componentType": 5126,
      "count": 292,
      "max": [
        0.34775683283805847,
        0.07025562226772308,
        -0.04688992723822594,
        0.9903621673583984
      ],
      "min": [
        -0.7031329274177551,
        -0.11204326897859573,
        -0.22067780792713165,
        0.6885645985603333
      ],
      "type": "VEC4"
    },
    {
      "bufferView": 6,
      "byteOffset": 1896,
      "componentType": 5126,
      "count": 314,
      "max": [
        6.666666507720947
      ],
      "min": [
        0.0
      ],
      "type": "SCALAR"
    },
    {
      "bufferView": 7,
      "byteOffset": 2184,
      "componentType": 5126,
      "count": 314,
      "max": [
        0.30202028155326843,
        0.38440459966659546,
        -0.5844278335571289
      ],
      "min": [
        -0.2512595057487488,
        -0.5184219479560852,
        -0.8132951855659485
      ],
      "type": "VEC3"
    },
    {
      "bufferView": 6,
      "byteOffset": 3152,
      "componentType": 5126,
      "count": 315,
      "max": [
        6.666666507720947
      ],
      "min": [
        0.0
      ],
      "type": "SCALAR"
    },
    {
      "bufferView": 8,
      "byteOffset": 4672,
      "componentType": 5126,
      "count": 315,
      "max": [
        0.2695949673652649,
        0.9816989898681641,
        0.8203734159469604,
        0.15960131585597992
      ],
      "min": [
        -0.3973346948623657,
        -0.6994190216064453,
        -0.6987496018409729,
        -0.24826502799987793
      ],
      "type": "VEC4"
    },
    {
      "bufferView": 6,
      "byteOffset": 4412,
      "componentType": 5126,
      "count": 291,
      "max": [
        6.666666507720947
      ],
      "min": [
        0.0
      ],
      "type": "SCALAR"
    },
    {
      "bufferView": 7,
      "byteOffset": 5952,
      "componentType": 5126,
      "count": 291,
      "max": [
        -4.3655742132386877e-08,
        2.8299503326416016,
        -5.215404996761208e-08
      ],
      "min": [
        -4.365575279052791e-08,
        2.8299503326416016,
        -5.2154071283894154e-08
      ],
      "type": "VEC3"
    },
    {
      "bufferView": 6,
      "byteOffset": 5576,
      "componentType": 5126,
      "count": 321,
      "max": [
        6.666666507720947
      ],
      "min": [
        0.0
      ],
      "type": "SCALAR"
    },
    {
      "bufferView": 8,
      "byteOffset": 9712,
      "componentType": 5126,
      "count": 321,
      "max": [
        0.32290375232696533,
        0.45389890670776367,
        0.8474759459495544,
        0.7538558840751648
      ],
      "min": [
        -0.28454041481018066,
        -0.3702113926410675,
        -0.8434257507324219,
        -0.48517048358917236
      ],
      "type": "VEC4"
    },
    {
      "bufferView": 6,
      "byteOffset": 6860,
      "componentType": 5126,
      "count": 315,
      "max": [
        6.666666507720947
      ],
      "min": [
        0.0
      ],
      "type": "SCALAR"
    },
    {
      "bufferView": 7,
      "byteOffset": 9444,
      "componentType": 5126,
      "count": 315,
      "max": [
        6.053603840427968e-09,
        1.419893503189087,
        1.4901171851988693e-08
      ],
      "min": [
        6.053589629573253e-09,
        1.419893503189087,
        1.4901154088420299e-08
      ],
      "type": "VEC3"
    },
    {
      "bufferView": 6,
      "byteOffset": 8120,
      "componentType": 5126,
      "count": 318,
      "max": [
        6.666666507720947
      ],
      "min": [
        0.0
      ],
      "type": "SCALAR"
    },
    {
      "bufferView": 8,
      "byteOffset": 14848,
      "componentType": 5126,
      "count": 318,
      "max": [
        0.7805888652801514,
        0.8648805618286133,
        0.1950644999742508,
        -0.01694299280643463
      ],
      "min": [
        0.48034825921058655,
        0.6008977293968201,
        -0.48829877376556396,
        -0.2026769369840622
      ],
      "type": "VEC4"
    },
    {
      "bufferView": 6,
      "byteOffset": 9392,
      "componentType": 5126,
      "count": 309,
      "max": [
        6.666666507720947
      ],
      "min": [
        0.0
      ],
      "type": "SCALAR"
    },
    {
      "bufferView": 8,
      "byteOffset": 19936,
      "componentType": 5126,
      "count": 309,
      "max": [
        -0.30998852849006653,
        0.05916471406817436,
        0.1162409856915474,
        0.7598171830177307
      ],
      "min": [
        -0.7914918661117554,
        -0.45589038729667664,
        -0.45079442858695984,
        0.563700795173645
      ],
      "type": "VEC4"
    },
    {
      "bufferView": 6,
      "byteOffset": 10628,
      "componentType": 5126,
      "count": 78,
      "max": [
        6.666666507720947
      ],
      "min": [
        0.0
      ],
      "type": "SCALAR"
    },
    {
      "bufferView": 7,
      "byteOffset": 13224,
      "componentType": 5126,
      "count": 78,
      "max": [
        -8.254791339368239e-08,
        0.427783727645874,
        0.1062571108341217
      ],
      "min": [
        -8.254792760453711e-08,
        0.427783727645874,
        0.1062571108341217
      ],
      "type": "VEC3"
    },
    {
      "bufferView": 6,
      "byteOffset": 10940,
      "componentType": 5126,
      "count": 201,
      "max": [
        6.666666507720947
      ],
      "min": [
        0.0
      ],
      "type": "SCALAR"
    },
    {
      "bufferView": 8,
      "byteOffset": 24880,
      "componentType": 5126,
      "count": 201,
      "max": [
        0.03045322373509407,
        1.1952577949614351e-07,
        1.9173008070083597e-08,
        0.9995362162590027
      ],
      "min": [
        0.03045322373509407,
        1.1952577949614351e-07,
        1.9173008070083597e-08,
        0.9995362162590027
      ],
      "type": "VEC4"
    },
    {
      "bufferView": 6,
      "byteOffset": 11744,
      "componentType": 5126,
      "count": 101,
      "max": [
        6.666666507720947
      ],
      "min": [
        0.0
      ],
      "type": "SCALAR"
    },
    {
      "bufferView": 7,
      "byteOffset": 14160,
      "componentType": 5126,
      "count": 101,
      "max": [
        -8.246794891419995e-08,
        0.42490285634994507,
        -0.10988552868366241
      ],
      "min": [
        -8.246796312505467e-08,
        0.42490285634994507,
        -0.10988552868366241
      ],
      "type": "VEC3"
    },
    {
      "bufferView": 6,
      "byteOffset": 12148,
      "componentType": 5126,
      "count": 304,
      "max": [
        6.666666507720947
      ],
      "min": [
        0.0
      ],
      "type": "SCALAR"
    },
    {
      "bufferView": 8,
      "byteOffset": 28096,
      "componentType": 5126,
      "count": 304,
      "max": [
        0.09083163738250732,
        0.07868968695402145,
        0.013006351888179779,
        0.9999307990074158
      ],
      "min": [
        -0.30804550647735596,
        -0.01642250083386898,
        -0.03775329887866974,
        0.9512691497802734
      ],
      "type": "VEC4"
    },
    {
      "bufferView": 6,
      "byteOffset": 13364,
      "componentType": 5126,
      "count": 227,
      "max": [
        6.666666507720947
      ],
      "min": [
        0.0
      ],
      "type": "SCALAR"
    },
    {
      "bufferView": 7,
      "byteOffset": 15372,
      "componentType": 5126,
      "count": 227,
      "max": [
        -5.960462701182223e-08,
        0.5185694098472595,
        -5.191921914615705e-08
      ],
      "min": [
        -5.960464477539063e-08,
        0.5185694098472595,
        -5.191923690972544e-08
      ],
      "type": "VEC3"
    },
    {
      "bufferView": 6,
      "byteOffset": 14272,
      "componentType": 5126,
      "count": 232,
      "max": [
        6.666666507720947
      ],
      "min": [
        0.0
      ],
      "type": "SCALAR"
    },
    {
      "bufferView": 8,
      "byteOffset": 32960,
      "componentType": 5126,
      "count": 232,
      "max": [
        -0.18741805851459503,
        0.06637422740459442,
        0.13521452248096466,
        0.9801450967788696
      ],
      "min": [
        -0.22497189044952393,
        -0.048427511006593704,
        -0.05950118973851204,
        0.9668647646903992
      ],
      "type": "VEC4"
    },
    {
      "bufferView": 6,
      "byteOffset": 15200,
      "componentType": 5126,
      "count": 230,
      "max": [
        6.666666507720947
      ],
      "min": [
        0.0
      ],
      "type": "SCALAR"
    },
    {
      "bufferView": 7,
      "byteOffset": 18096,
      "componentType": 5126,
      "count": 230,
      "max": [
        2.842170943040401e-14,
        1.0291948318481445,
        1.1586855919176742e-08
      ],
      "min": [
        1.4210854715202004e-14,
        1.0291948318481445,
        1.1586841708322027e-08
      ],
      "type": "VEC3"
    },
    {
      "bufferView": 6,
      "byteOffset": 16120,
      "componentType": 5126,
      "count": 233,
      "max": [
        6.666666507720947
      ],
      "min": [
        0.0
      ],
      "type": "SCALAR"
    },
    {
      "bufferView": 8,
      "byteOffset": 36672,
      "componentType": 5126,
      "count": 233,
      "max": [
        -0.038035959005355835,
        0.011242898181080818,
        0.15157264471054077,
        0.9992741942405701
      ],
      "min": [
        -0.21123073995113373,
        -0.1431846022605896,
        -1.1649997633256248e-10,
        0.9666261076927185
      ],
      "type": "VEC4"
    },
    {
      "bufferView": 6,
      "byteOffset": 17052,
      "componentType": 5126,
      "count": 272,
      "max": [
        6.666666507720947
      ],
      "min": [
        0.0
      ],
      "type": "SCALAR"
    },
    {
      "bufferView": 7,
      "byteOffset": 20856,
      "componentType": 5126,
      "count": 272,
      "max": [
        -3.731377873350539e-08,
        0.8456850647926331,
        -7.730113793513738e-08
      ],
      "min": [
        -3.731379649707378e-08,
        0.8456850647926331,
        -7.730115214599209e-08
      ],
      "type": "VEC3"
    },
    {
      "bufferView": 6,
      "byteOffset": 18140,
      "componentType": 5126,
      "count": 293,
      "max": [
        6.666666507720947
      ],
      "min": [
        0.0
      ],
      "type": "SCALAR"
    },
    {
      "bufferView": 8,
      "byteOffset": 40400,
      "componentType": 5126,
      "count": 293,
      "max": [
        0.17109066247940063,
        0.06429539620876312,
        0.12552344799041748,
        0.9999847412109375
      ],
      "min": [
        -0.07397028803825378,
        -0.031221337616443634,
        -0.1248403936624527,
        0.9809277653694153
      ],
      "type": "VEC4"
    },
    {
      "bufferView": 6,
      "byteOffset": 19312,
      "componentType": 5126,
      "count": 287,
      "max": [
        6.666666507720947
      ],
      "min": [
        0.0
      ],
      "type": "SCALAR"
    },
    {
      "bufferView": 8,
      "byteOffset": 45088,
      "componentType": 5126,
      "count": 287,
      "max": [
        0.7603123784065247,
        0.15795063972473145,
        -0.10302191972732544,
        0.7112658023834229
      ],
      "min": [
        0.6701213121414185,
        0.04921630769968033,
        -0.17238670587539673,
        0.6095823645591736
      ],
      "type": "VEC4"
    },
    {
      "bufferView": 6,
      "byteOffset": 20460,
      "componentType": 5126,
      "count": 264,
      "max": [
        6.666666507720947
      ],
      "min": [
        0.0
      ],
      "type": "SCALAR"
    },
    {
      "bufferView": 7,
      "byteOffset": 24120,
      "componentType": 5126,
      "count": 264,
      "max": [
        3.591836872374188e-08,
        0.9696951508522034,
        -8.739043266814406e-09
      ],
      "min": [
        3.591835451288716e-08,
        0.9696951508522034,
        -8.739057477669121e-09
      ],
      "type": "VEC3"
    },
    {
      "bufferView": 6,
      "byteOffset": 21516,
      "componentType": 5126,
      "count": 293,
      "max": [
        6.666666507720947
      ],
      "min": [
        0.0
      ],
      "type": "SCALAR"
    },
    {
      "bufferView": 8,
      "byteOffset": 49680,
      "componentType": 5126,
      "count": 293,
      "max": [
        0.3838980197906494,
        0.03942595049738884,
        0.03744833916425705,
        0.9995522499084473
      ],
      "min": [
        -0.27216094732284546,
        -0.02153686061501503,
        -0.01199045218527317,
        0.9217730164527893
      ],
      "type": "VEC4"
    },
    {
      "bufferView": 6,
      "byteOffset": 22688,
      "componentType": 5126,
      "count": 277,
      "max": [
        6.666666507720947
      ],
      "min": [
        0.0
      ],
      "type": "SCALAR"
    },
    {
      "bufferView": 7,
      "byteOffset": 27288,
      "componentType": 5126,
      "count": 277,
      "max": [
        1.626013101940771e-08,
        0.8662081956863403,
        -2.576917523811062e-08
      ],
      "min": [
        1.6260109703125636e-08,
        0.8662081956863403,
        -2.5769189448965335e-08
      ],
      "type": "VEC3"
    },
    {
      "bufferView": 6,
      "byteOffset": 23796,
      "componentType": 5126,
      "count": 291,
      "max": [
        6.666666507720947
      ],
      "min": [
        0.0
      ],
      "type": "SCALAR"
    },
    {
      "bufferView": 8,
      "byteOffset": 54368,
      "componentType": 5126,
      "count": 291,
      "max": [
        0.11400339007377625,
        0.05024681240320206,
        0.13706493377685547,
        0.9999966621398926
      ],
      "min": [
        -0.2753523290157318,
        -0.030209124088287354,
        -0.011425425298511982,
        0.9609212279319763
      ],
      "type": "VEC4"
    },
    {
      "bufferView": 6,
      "byteOffset": 24960,
      "componentType": 5126,
      "count": 190,
      "max": [
        6.666666507720947
      ],
      "min": [
        0.0
      ],
      "type": "SCALAR"
    },
    {
      "bufferView": 7,
      "byteOffset": 30612,
      "componentType": 5126,
      "count": 190,
      "max": [
        -8.04918656172049e-08,
        0.8871693015098572,
        -1.9353976199454337e-09
      ],
      "min": [
        -8.049187982805961e-08,
        0.8871693015098572,
        -1.935411830800149e-09
      ],
      "type": "VEC3"
    },
    {
      "bufferView": 6,
      "byteOffset": 25720,
      "componentType": 5126,
      "count": 217,
      "max": [
        6.666666507720947
      ],
      "min": [
        0.0
      ],
      "type": "SCALAR"
    },
    {
      "bufferView": 8,
      "byteOffset": 59024,
      "componentType": 5126,
      "count": 217,
      "max": [
        0.00018562411423772573,
        0.9999762773513794,
        0.040824197232723236,
        3.4578604299895233e-06
      ],
      "min": [
        -0.004476152826100588,
        0.9968366026878357,
        -0.07717660069465637,
        -0.018995199352502823
      ],
      "type": "VEC4"
    },
    {
      "bufferView": 6,
      "byteOffset": 26588,
      "componentType": 5126,
      "count": 289,
      "max": [
        6.666666507720947
      ],
      "min": [
        0.0
      ],
      "type": "SCALAR"
    },
    {
      "bufferView": 8,
      "byteOffset": 62496,
      "componentType": 5126,
      "count": 289,
      "max": [
        -0.32811495661735535,
        0.21444948017597198,
        0.14246425032615662,
        0.9152318835258484
      ],
      "min": [
        -0.6407812833786011,
        0.1636553853750229,
        0.09328754246234894,
        0.7364376187324524
      ],
      "type": "VEC4"
    },
    {
      "bufferView": 6,
      "byteOffset": 27744,
      "componentType": 5126,
      "count": 243,
      "max": [
        6.666666507720947
      ],
      "min": [
        0.0
      ],
      "type": "SCALAR"
    },
    {
      "bufferView": 7,
      "byteOffset": 32892,
      "componentType": 5126,
      "count": 243,
      "max": [
        -1.9371509552001953e-07,
        2.8299508094787598,
        2.980232949312267e-08
      ],
      "min": [
        -1.9371509552001953e-07,
        2.8299508094787598,
        2.9802315282267955e-08
      ],
      "type": "VEC3"
    },
    {
      "bufferView": 6,
      "byteOffset": 28716,
      "componentType": 5126,
      "count": 321,
      "max": [
        6.666666507720947
      ],
      "min": [
        0.0
      ],
      "type": "SCALAR"
    },
    {
      "bufferView": 8,
      "byteOffset": 67120,
      "componentType": 5126,
      "count": 321,
      "max": [
        0.23626844584941864,
        0.28923213481903076,
        0.8441559672355652,
        0.7734395265579224
      ],
      "min": [
        -0.1343294382095337,
        -0.00715987291187048,
        0.6244492530822754,
        0.5110082030296326
      ],
      "type": "VEC4"
    },
    {
      "bufferView": 6,
      "byteOffset": 30000,
      "componentType": 5126,
      "count": 300,
      "max": [
        6.666666507720947
      ],
      "min": [
        0.0
      ],
      "type": "SCALAR"
    },
    {
      "bufferView": 7,
      "byteOffset": 35808,
      "componentType": 5126,
      "count": 300,
      "max": [
        -5.960463766996327e-08,
        1.4198933839797974,
        1.4901168299275014e-08
      ],
      "min": [
        -5.960465188081798e-08,
        1.4198933839797974,
        1.490115053570662e-08
      ],
      "type": "VEC3"
    },
    {
      "bufferView": 6,
      "byteOffset": 31200,
      "componentType": 5126,
      "count": 321,
      "max": [
        6.666666507720947
      ],
      "min": [
        0.0
      ],
      "type": "SCALAR"
    },
    {
      "bufferView": 8,
      "byteOffset": 72256,
      "componentType": 5126,
      "count": 321,
      "max": [
        0.7883879542350769,
        0.8298950791358948,
        0.17098556458950043,
        0.3902008831501007
      ],
      "min": [
        -0.6855010986328125,
        -0.68114173412323,
        -0.10322348028421402,
        -0.37303608655929565
      ],
      "type": "VEC4"
    },
    {
      "bufferView": 6,
      "byteOffset": 32484,
      "componentType": 5126,
      "count": 309,
      "max": [
        6.666666507720947
      ],
      "min": [
        0.0
      ],
      "type": "SCALAR"
    },
    {
      "bufferView": 8,
      "byteOffset": 77392,
      "componentType": 5126,
      "count": 309,
      "max": [
        0.6649324297904968,
        0.8010692596435547,
        0.5364235639572144,
        0.5566296577453613
      ],
      "min": [
        -0.7007991671562195,
        -0.6051457524299622,
        -0.5348990559577942,
        -0.49996399879455566
      ],
      "type": "VEC4"
    },
    {
      "bufferView": 6,
      "byteOffset": 33720,
      "componentType": 5126,
      "count": 298,
      "max": [
        6.666666507720947
      ],
      "min": [
        0.0
      ],
      "type": "SCALAR"
    },
    {
      "bufferView": 7,
      "byteOffset": 39408,
      "componentType": 5126,
      "count": 298,
      "max": [
        -0.35666584968566895,
        0.05570794269442558,
        1.0201358795166016
      ],
      "min": [
        -0.9099456071853638,
        -1.6681835651397705,
        0.7912683486938477
      ],
      "type": "VEC3"
    },
    {
      "bufferView": 6,
      "byteOffset": 34912,
      "componentType": 5126,
      "count": 311,
      "max": [
        6.666666507720947
      ],
      "min": [
        0.0
      ],
      "type": "SCALAR"
    },
    {
      "bufferView": 8,
      "byteOffset": 82336,
      "componentType": 5126,
      "count": 311,
      "max": [
        -0.373935729265213,
        -0.11711709946393967,
        0.23396776616573334,
        0.9041391611099243
      ],
      "min": [
        -0.711348295211792,
        -0.30133935809135437,
        -0.052144814282655716,
        0.6434338092803955
      ],
      "type": "VEC4"
    },
    {
      "bufferView": 6,
      "byteOffset": 36156,
      "componentType": 5126,
      "count": 203,
      "max": [
        6.666666507720947
      ],
      "min": [
        0.0
      ],
      "type": "SCALAR"
    },
    {
      "bufferView": 8,
      "byteOffset": 87312,
      "componentType": 5126,
      "count": 203,
      "max": [
        -1.4901137213030324e-08,
        2.980233304583635e-08,
        4.0605692674944294e-07,
        1.0
      ],
      "min": [
        -1.4901173628345532e-08,
        2.9802317058624794e-08,
        -8.121123187265766e-07,
        1.0
      ],
      "type": "VEC4"
    },
    {
      "bufferView": 6,
      "byteOffset": 36968,
      "componentType": 5126,
      "count": 321,
      "max": [
        6.666666507720947
      ],
      "min": [
        0.0
      ],
      "type": "SCALAR"
    },
    {
      "bufferView": 7,
      "byteOffset": 42984,
      "componentType": 5126,
      "count": 321,
      "max": [
        1215.4163818359375,
        3684.7685546875,
        1293.02587890625
      ],
      "min": [
        -2098.73095703125,
        2944.500732421875,
        -1376.0272216796875
      ],
      "type": "VEC3"
    },
    {
      "bufferView": 6,
      "byteOffset": 38252,
      "componentType": 5126,
      "count": 321,
      "max": [
        6.666666507720947
      ],
      "min": [
        0.0
      ],
      "type": "SCALAR"
    },
    {
      "bufferView": 8,
      "byteOffset": 90560,
      "componentType": 5126,
      "count": 321,
      "max": [
        0.6717212796211243,
        0.7749326229095459,
        0.6850663423538208,
        0.784666895866394
      ],
      "min": [
        -0.8226915001869202,
        -0.6082445979118347,
        -0.4976849853992462,
        -0.4985699951648712
      ],
      "type": "VEC4"
    }
  ],
  "animations": [
    {
      "channels": [
        {
          "sampler": 0,
          "target": {
            "node": 16,
            "path": "translation"
          }
        },
        {
          "sampler": 1,
          "target": {
            "node": 16,
            "path": "rotation"
          }
        },
        {
          "sampler": 2,
          "target": {
            "node": 15,
            "path": "translation"
          }
        },
        {
          "sampler": 3,
          "target": {
            "node": 15,
            "path": "rotation"
          }
        },
        {
          "sampler": 4,
          "target": {
            "node": 21,
            "path": "translation"
          }
        },
        {
          "sampler": 5,
          "target": {
            "node": 21,
            "path": "rotation"
          }
        },
        {
          "sampler": 6,
          "target": {
            "node": 20,
            "path": "translation"
          }
        },
        {
          "sampler": 7,
          "target": {
            "node": 20,
            "path": "rotation"
          }
        },
        {
          "sampler": 8,
          "target": {
            "node": 19,
            "path": "rotation"
          }
        },
        {
          "sampler": 9,
          "target": {
            "node": 27,
            "path": "translation"
          }
        },
        {
          "sampler": 10,
          "target": {
            "node": 27,
            "path": "rotation"
          }
        },
        {
          "sampler": 11,
          "target": {
            "node": 29,
            "path": "translation"
          }
        },
        {
          "sampler": 12,
          "target": {
            "node": 29,
            "path": "rotation"
          }
        },
        {
          "sampler": 13,
          "target": {
            "node": 26,
            "path": "translation"
          }
        },
        {
          "sampler": 14,
          "target": {
            "node": 26,
            "path": "rotation"
          }
        },
        {
          "sampler": 15,
          "target": {
            "node": 25,
            "path": "translation"
          }
        },
        {
          "sampler": 16,
          "target": {
            "node": 25,
            "path": "rotation"
          }
        },
        {
          "sampler": 17,
          "target": {
            "node": 24,
            "path": "translation"
          }
        },
        {
          "sampler": 18,
          "target": {
            "node": 24,
            "path": "rotation"
          }
        },
        {
          "sampler": 19,
          "target": {
            "node": 23,
            "path": "rotation"
          }
        },
        {
          "sampler": 20,
          "target": {
            "node": 34,
            "path": "translation"
          }
        },
        {
          "sampler": 21,
          "target": {
            "node": 34,
            "path": "rotation"
          }
        },
        {
          "sampler": 22,
          "target": {
            "node": 33,
            "path": "translation"
          }
        },
        {
          "sampler": 23,
          "target": {
            "node": 33,
            "path": "rotation"
          }
        },
        {
          "sampler": 24,
          "target": {
            "node": 32,
            "path": "translation"
          }
        },
        {
          "sampler": 25,
          "target": {
            "node": 32,
            "path": "rotation"
          }
        },
        {
          "sampler": 26,
          "target": {
            "node": 31,
            "path": "rotation"
          }
        },
        {
          "sampler": 27,
          "target": {
            "node": 38,
            "path": "translation"
          }
        },
        {
          "sampler": 28,
          "target": {
            "node": 38,
            "path": "rotation"
          }
        },
        {
          "sampler": 29,
          "target": {
            "node": 37,
            "path": "translation"
          }
        },
        {
          "sampler": 30,
          "target": {
            "node": 37,
            "path": "rotation"
          }
        },
        {
          "sampler": 31,
          "target": {
            "node": 36,
            "path": "rotation"
          }
        },
        {
          "sampler": 32,
          "target": {
            "node": 18,
            "path": "translation"
          }
        },
        {
          "sampler": 33,
          "target": {
            "node": 18,
            "path": "rotation"
          }
        },
        {
          "sampler": 34,
          "target": {
            "node": 12,
            "path": "rotation"
          }
        },
        {
          "sampler": 35,
          "target": {
            "node": 11,
            "path": "translation"
          }
        },
        {
          "sampler": 36,
          "target": {
            "node": 11,
            "path": "rotation"
          }
        }
      ],
      "name": "Scene",
      "samplers": [
        {
          "input": 57,
          "interpolation": "LINEAR",
          "output": 58
        },
        {
          "input": 59,
          "interpolation": "LINEAR",
          "output": 60
        },
        {
          "input": 61,
          "interpolation": "LINEAR",
          "output": 62
        },
        {
          "input": 63,
          "interpolation": "LINEAR",
          "output": 64
        },
        {
          "input": 65,
          "interpolation": "LINEAR",
          "output": 66
        },
        {
          "input": 67,
          "interpolation": "LINEAR",
          "output": 68
        },
        {
          "input": 69,
          "interpolation": "LINEAR",
          "output": 70
        },
        {
          "input": 71,
          "interpolation": "LINEAR",
          "output": 72
        },
        {
          "input": 73,
          "interpolation": "LINEAR",
          "output": 74
        },
        {
          "input": 75,
          "interpolation": "LINEAR",
          "output": 76
        },
        {
          "input": 77,
          "interpolation": "LINEAR",
          "output": 78
        },
        {
          "input": 79,
          "interpolation": "LINEAR",
          "output": 80
        },
        {
          "input": 81,
          "interpolation": "LINEAR",
          "output": 82
        },
        {
          "input": 83,
          "interpolation": "LINEAR",
          "output": 84
        },
        {
          "input": 85,
          "interpolation": "LINEAR",
          "output": 86
        },
        {
          "input": 87,
          "interpolation": "LINEAR",
          "output": 88
        },
        {
          "input": 89,
          "interpolation": "LINEAR",
          "output": 90
        },
        {
          "input": 91,
          "interpolation": "LINEAR",
          "output": 92
        },
        {
          "input": 93,
          "interpolation": "LINEAR",
          "output": 94
        },
        {
          "input": 95,
          "interpolation": "LINEAR",
          "output": 96
        },
        {
          "input": 97,
          "interpolation": "LINEAR",
          "output": 98
        },
        {
          "input": 99,
          "interpolation": "LINEAR",
          "output": 100
        },
        {
          "input": 101,
          "interpolation": "LINEAR",
          "output": 102
        },
        {
          "input": 103,
          "interpolation": "LINEAR",
          "output": 104
        },
        {
          "input": 105,
          "interpolation": "LINEAR",
          "output": 106
        },
        {
          "input": 107,
          "interpolation": "LINEAR",
          "output": 108
        },
        {
          "input": 109,
          "interpolation": "LINEAR",
          "output": 110
        },
        {
          "input": 111,
          "interpolation": "LINEAR",
          "output": 112
        },
        {
          "input": 113,
          "interpolation": "LINEAR",
          "output": 114
        },
        {
          "input": 115,
          "interpolation": "LINEAR",
          "output": 116
        },
        {
          "input": 117,
          "interpolation": "LINEAR",
          "output": 118
        },
        {
          "input": 119,
          "interpolation": "LINEAR",
          "output": 120
        },
        {
          "input": 121,
          "interpolation": "LINEAR",
          "output": 122
        },
        {
          "input": 123,
          "interpolation": "LINEAR",
          "output": 124
        },
        {
          "input": 125,
          "interpolation": "LINEAR",
          "output": 126
        },
        {
          "input": 127,
          "interpolation": "LINEAR",
          "output": 128
        },
        {
          "input": 129,
          "interpolation": "LINEAR",
          "output": 130
        }
      ]
    }
  ],
  "asset": {
    "extras": {
      "author": "Bcaaamino (https://sketchfab.com/Bcaaamino)",
      "license": "CC-BY-4.0 (http://creativecommons.org/licenses/by/4.0/)",
      "source": "https://sketchfab.com/3d-models/spirit-of-the-crow-free-for-download-bf5bd250cff6405fba2d811986a6d7da",
      "title": "Spirit of the crow. Free for download"
    },
    "generator": "Sketchfab-12.66.0",
    "version": "2.0"
  },
  "bufferViews": [
    {
      "buffer": 0,
      "byteLength": 14376,
      "byteStride": 8,
      "name": "shortBufferViews",
      "target": 34962
    },
    {
      "buffer": 0,
      "byteLength": 47916,
      "byteOffset": 14376,
      "name": "floatBufferViews",
      "target": 34963
    },
    {
      "buffer": 0,
      "byteLength": 32728,
      "byteOffset": 62292,
      "byteStride": 8,
      "name": "floatBufferViews",
      "target": 34962
    },
    {
      "buffer": 0,
      "byteLength": 98184,
      "byteOffset": 95020,
      "byteStride": 12,
      "name": "floatBufferViews",
      "target": 34962
    },
    {
      "buffer": 0,
      "byteLength": 94144,
      "byteOffset": 193204,
      "byteStride": 16,
      "name": "floatBufferViews",
      "target": 34962
    },
    {
      "buffer": 0,
      "byteLength": 1664,
      "byteOffset": 287348,
      "name": "floatBufferViews"
    },
    {
      "buffer": 0,
      "byteLength": 39536,
      "byteOffset": 289012,
      "name": "floatBufferViews"
    },
    {
      "buffer": 0,
      "byteLength": 46836,
      "byteOffset": 328548,
      "byteStride": 12,
      "name": "floatBufferViews"
    },
    {
      "buffer": 0,
      "byteLength": 95696,
      "byteOffset": 375384,
      "byteStride": 16,
      "name": "floatBufferViews"
    }
  ],
  "buffers": [
    {
      "byteLength": 471080,
      "uri": "scene.bin"
    }
  ],
  "images": [
    {
      "uri": "textures/Plane__0_baseColor.png"
    },
    {
      "uri": "textures/Plane__0_emissive.png"
    },
    {
      "uri": "textures/Material.002_baseColor.png"
    },
    {
      "uri": "textures/Material.002_normal.png"
    },
    {
      "uri": "textures/Material.003_baseColor.png"
    },
    {
      "uri": "textures/Material.003_metallicRoughness.png"
    },
    {
      "uri": "textures/Material.003_emissive.png"
    },
    {
      "uri": "textures/Material.003_normal.png"
    }
  ],
  "materials": [
    {
      "alphaMode": "BLEND",
      "doubleSided": true,
      "emissiveFactor": [
        1.0,
        1.0,
        1.0
      ],
      "emissiveTexture": {
        "index": 1
      },
      "name": "Plane__0",
      "pbrMetallicRoughness": {
        "baseColorFactor": [
          0.0,
          0.0,
          0.0,
          0.5687881098
        ],
        "baseColorTexture": {
          "index": 0
        },
        "metallicFactor": 0.0,
        "roughnessFactor": 0.6
      }
    },
    {
      "alphaMode": "BLEND",
      "doubleSided": true,
      "name": "Material.002",
      "normalTexture": {
        "index": 3
      },
      "pbrMetallicRoughness": {
        "baseColorTexture": {
          "index": 2
        },
        "metallicFactor": 0.0,
        "roughnessFactor": 0.9577051495
      }
    },
    {
      "alphaMode": "BLEND",
      "doubleSided": true,
      "emissiveFactor": [
        1.0,
        1.0,
        1.0
      ],
      "emissiveTexture": {
        "index": 6
      },
      "name": "Material.003",
      "normalTexture": {
        "index": 7,
        "scale": 0.9468368902
      },
      "pbrMetallicRoughness": {
        "baseColorFactor": [
          1.0,
          1.0,
          1.0,
          0.6053734756
        ],
        "baseColorTexture": {
          "index": 4
        },
        "metallicFactor": 0.0,
        "metallicRoughnessTexture": {
          "index": 5
        },
        "roughnessFactor": 0.8919588415
      }
    }
  ],
  "meshes": [
    {
      "name": "Plane__0",
      "primitives": [
        {
          "attributes": {
            "NORMAL": 1,
            "POSITION": 0,
            "TEXCOORD_0": 2
          },
          "indices": 3,
          "material": 0,
          "mode": 4
        }
      ]
    },
    {
      "name": "RetopoGroup1.003_Material.002_0",
      "primitives": [
        {
          "attributes": {
            "NORMAL": 5,
            "POSITION": 4,
            "TANGENT": 6,
            "TEXCOORD_0": 7
          },
          "indices": 8,
          "material": 1,
          "mode": 4
        }
      ]
    },
    {
      "name": "RetopoGroup1.001_Material.003_0",
      "primitives": [
        {
          "attributes": {
            "NORMAL": 10,
            "POSITION": 9,
            "TANGENT": 11,
            "TEXCOORD_0": 12
          },
          "indices": 13,
          "material": 2,
          "mode": 4
        }
      ]
    },
    {
      "name": "RetopoGroup1.006_Material.002_0",
      "primitives": [
        {
          "attributes": {
            "JOINTS_0": 45,
            "NORMAL": 15,
            "POSITION": 14,
            "TANGENT": 16,
            "TEXCOORD_0": 17,
            "WEIGHTS_0": 46
          },
          "indices": 18,
          "material": 1,
          "mode": 4
        }
      ]
    },
    {
      "name": "RetopoGroup1.005_Material.002_0",
      "primitives": [
        {
          "attributes": {
            "JOINTS_0": 47,
            "NORMAL": 20,
            "POSITION": 19,
            "TANGENT": 21,
            "TEXCOORD_0": 22,
            "WEIGHTS_0": 48
          },
          "indices": 23,
          "material": 1,
          "mode": 4
        }
      ]
    },
    {
      "name": "RetopoGroup1.008_Material.002_0",
      "primitives": [
        {
          "attributes": {
            "JOINTS_0": 49,
            "NORMAL": 25,
            "POSITION": 24,
            "TANGENT": 26,
            "TEXCOORD_0": 27,
            "WEIGHTS_0": 50
          },
          "indices": 28,
          "material": 1,
          "mode": 4
        }
      ]
    },
    {
      "name": "RetopoGroup1.013_Material.002_0",
      "primitives": [
        {
          "attributes": {
            "JOINTS_0": 51,
            "NORMAL": 30,
            "POSITION": 29,
            "TANGENT": 31,
            "TEXCOORD_0": 32,
            "WEIGHTS_0": 52
          },
          "indices": 33,
          "material": 1,
          "mode": 4
        }
      ]
    },
    {
      "name": "RetopoGroup1.017_Material.003_0",
      "primitives": [
        {
          "attributes": {
            "JOINTS_0": 53,
            "NORMAL": 35,
            "POSITION": 34,
            "TANGENT": 36,
            "TEXCOORD_0": 37,
            "WEIGHTS_0": 54
          },
          "indices": 38,
          "material": 2,
          "mode": 4
        }
      ]
    },
    {
      "name": "RetopoGroup1.004_Material.002_0",
      "primitives": [
        {
          "attributes": {
            "JOINTS_0": 55,
            "NORMAL": 40,
            "POSITION": 39,
            "TANGENT": 41,
            "TEXCOORD_0": 42,
            "WEIGHTS_0": 56
          },
          "indices": 43,
          "material": 1,
          "mode": 4
        }
      ]
    }
  ],
  "nodes": [
    {
      "children": [
        1
      ],
      "matrix": [
        0.17971917986869812,
        0.0,
        0.0,
        0.0,
        0.0,
        3.9905674291395714e-17,
        -0.17971917986869812,
        0.0,
        0.0,
        0.17971917986869812,
        3.9905674291395714e-17,
        0.0,
        0.0,
        0.0,
        0.0,
        1.0
      ],
      "name": "Sketchfab_model"
    },
    {
      "children": [
        2
      ],
      "matrix": [
        1.0,
        0.0,
        0.0,
        0.0,
        0.0,
        0.0,
        1.0,
        0.0,
        0.0,
        -1.0,
        0.0,
        0.0,
        0.0,
        0.0,
        0.0,
        1.0
      ],
      "name": "c584aa77e1774853b09e974a26a16f9b.fbx"
    },
    {
      "children": [
        3
      ],
      "name": "Object_2"
    },
    {
      "children": [
        4,
        6,
        11,
        52,
        53,
        54,
        55,
        56,
        57
      ],
      "name": "RootNode"
    },
    {
      "children": [
        5
      ],
      "name": "Plane",
      "rotation": [
        -0.5000000596046448,
        0.49999991059303284,
        0.5,
        0.5
      ],
      "scale": [
        1295.1986083984375,
        1295.1986083984375,
        1295.1986083984375
      ]
    },
    {
      "mesh": 0,
      "name": "Plane__0"
    },
    {
      "children": [
        7,
        9
      ],
      "name": "Empty.001",
      "rotation": [
        -0.7071068286895752,
        0.0,
        0.0,
        0.7071067094802856
      ],
      "scale": [
        100.0,
        100.0,
        100.0
      ],
      "translation": [
        0.0,
        823.2108154296875,
        0.0
      ]
    },
    {
      "children": [
        8
      ],
      "name": "RetopoGroup1.003",
      "rotation": [
        -1.3234889800848443e-23,
        -0.0,
        0.0,
        1.0
      ]
    },
    {
      "mesh": 1,
      "name": "RetopoGroup1.003_Material.002_0"
    },
    {
      "children": [
        10
      ],
      "name": "RetopoGroup1.001",
      "rotation": [
        -1.3234889800848443e-23,
        -0.0,
        0.0,
        1.0
      ]
    },
    {
      "mesh": 2,
      "name": "RetopoGroup1.001_Material.003_0"
    },
    {
      "children": [
        12
      ],
      "name": "Empty",
      "rotation": [
        0.506497323513031,
        0.774611234664917,
        0.35780519247055054,
        -0.12415143102407455
      ],
      "scale": [
        100.0,
        100.0,
        100.0
      ],
      "translation": [
        -1929.2991943359375,
        3121.33056640625,
        1042.1881103515625
      ]
    },
    {
      "children": [
        13
      ],
      "name": "Wing 1  .R",
      "rotation": [
        -1.4901161193847656e-08,
        2.9802322387695313e-08,
        4.996003610813204e-16,
        1.0
      ],
      "scale": [
        1.0,
        1.0000001192092896,
        1.0
      ],
      "translation": [
        0.5084342956542969,
        0.7739758491516113,
        0.46116065979003906
      ]
    },
    {
      "children": [
        14,
        41,
        43,
        45,
        47,
        49,
        51,
        40,
        42,
        44,
        46,
        48,
        50
      ],
      "name": "Object_13"
    },
    {
      "children": [
        15,
        18
      ],
      "name": "_rootJoint"
    },
    {
      "children": [
        16
      ],
      "name": "Bone.003_00",
      "rotation": [
        0.15796050429344177,
        0.7055448889732361,
        -0.687966525554657,
        0.06290458142757416
      ],
      "scale": [
        0.9999999403953552,
        0.9999998807907104,
        1.0
      ],
      "translation": [
        -0.09923990815877914,
        -0.15692788362503052,
        -0.7904434204101563
      ]
    },
    {
      "children": [
        17
      ],
      "name": "Bone.004_01",
      "rotation": [
        0.10326787829399109,
        -0.06873501092195511,
        -0.15698951482772827,
        0.9797784090042114
      ],
      "scale": [
        0.9999998807907104,
        1.0,
        0.9999999403953552
      ],
      "translation": [
        2.60770320892334e-08,
        0.8087155222892761,
        -1.6763806343078613e-08
      ]
    },
    {
      "name": "Bone.004_end_021",
      "rotation": [
        -8.326672684688674e-17,
        -4.622231866529366e-33,
        5.551115123125783e-17,
        1.0
      ],
      "translation": [
        -7.105427357601002e-15,
        1.0058547258377075,
        -2.6645352591003757e-15
      ]
    },
    {
      "children": [
        19,
        23,
        31,
        36
      ],
      "name": "Control_02",
      "rotation": [
        -0.6816338896751404,
        -0.15460382401943207,
        0.15113931894302368,
        0.6990205645561218
      ],
      "scale": [
        1.0,
        1.0,
        0.9999999403953552
      ],
      "translation": [
        -0.5086854696273804,
        0.008700031787157059,
        0.9972840547561646
      ]
    },
    {
      "children": [
        20
      ],
      "name": "Bone_03",
      "rotation": [
        -0.7914918661117554,
        0.059164684265851974,
        -0.1786603033542633,
        0.5814814567565918
      ],
      "scale": [
        1.0,
        0.9999998807907104,
        0.9999998211860657
      ],
      "translation": [
        0.4482918381690979,
        0.9953573346138,
        -0.2436334490776062
      ]
    },
    {
      "children": [
        21
      ],
      "name": "Bone.001_04",
      "rotation": [
        0.779681384563446,
        0.6193779706954956,
        0.01731017976999283,
        -0.09037815779447556
      ],
      "scale": [
        1.0,
        1.0000003576278687,
        1.0
      ],
      "translation": [
        2.8172507882118225e-08,
        1.4198933839797974,
        2.211892002890181e-09
      ]
    },
    {
      "children": [
        22
      ],
      "name": "Bone.002_05",
      "rotation": [
        -0.11180181056261063,
        -0.24127702414989471,
        -0.7699163556098938,
        0.5800987482070923
      ],
      "scale": [
        0.9999999403953552,
        1.0,
        0.9999999403953552
      ],
      "translation": [
        1.1920928955078125e-07,
        2.8299503326416016,
        -1.4901161193847656e-07
      ]
    },
    {
      "name": "Bone.002_end_023",
      "rotation": [
        -4.163336342344337e-17,
        5.551115123125783e-17,
        2.7755575615628914e-17,
        1.0
      ],
      "translation": [
        7.105427357601002e-15,
        3.0987436771392822,
        -1.7763568394002505e-15
      ]
    },
    {
      "children": [
        24
      ],
      "name": "Body1_06",
      "rotation": [
        0.7022354006767273,
        0.15326082706451416,
        -0.15721793472766876,
        0.6772437691688538
      ],
      "scale": [
        0.9999999403953552,
        0.9999999403953552,
        0.9999999403953552
      ],
      "translation": [
        0.08316536992788315,
        1.4620990753173828,
        0.18616050481796265
      ]
    },
    {
      "children": [
        25
      ],
      "name": "Neck_07",
      "rotation": [
        0.12229961156845093,
        -0.00029247417114675045,
        0.00040029894444160163,
        0.992493212223053
      ],
      "scale": [
        0.9999999403953552,
        0.9999999403953552,
        0.9999999403953552
      ],
      "translation": [
        8.04429802769846e-08,
        0.8456850051879883,
        1.8742863261422826e-08
      ]
    },
    {
      "children": [
        26
      ],
      "name": "Nead2_08",
      "rotation": [
        -0.03811059147119522,
        -2.912490734696682e-11,
        2.912508428876137e-11,
        0.9992735385894775
      ],
      "scale": [
        1.0,
        1.0000001192092896,
        1.0
      ],
      "translation": [
        4.0745362639427185e-09,
        1.029194951057434,
        -9.324867278337479e-08
      ]
    },
    {
      "children": [
        27,
        29
      ],
      "name": "Head1_09",
      "rotation": [
        -0.20256374776363373,
        -2.7639555089109535e-09,
        -1.3477999161182197e-08,
        0.9792690873146057
      ],
      "scale": [
        0.9999999403953552,
        1.0,
        0.9999998807907104
      ],
      "translation": [
        2.7175701688975096e-09,
        0.5185694694519043,
        1.7724229195437147e-08
      ]
    },
    {
      "children": [
        28
      ],
      "name": "Bone.008_010",
      "rotation": [
        0.03045322187244892,
        1.1970136881700455e-07,
        1.9086412450519674e-08,
        0.9995362162590027
      ],
      "scale": [
        1.0,
        1.0,
        0.9999999403953552
      ],
      "translation": [
        1.8124410416930914e-08,
        0.42778435349464417,
        0.10625717043876648
      ]
    },
    {
      "name": "Bone.008_end_019",
      "rotation": [
        2.7755575615628914e-17,
        -2.7755575615628914e-17,
        2.7755575615628914e-17,
        1.0
      ],
      "translation": [
        0.0,
        0.8991538286209106,
        1.7763568394002505e-15
      ]
    },
    {
      "children": [
        30
      ],
      "name": "Bone.009_011",
      "rotation": [
        -0.14698700606822968,
        -0.002262126188725233,
        0.0022705800365656614,
        0.9891332387924194
      ],
      "scale": [
        0.9999999403953552,
        1.0,
        0.9999999403953552
      ],
      "translation": [
        1.5133991837501526e-09,
        0.4249033033847809,
        -0.10988546907901764
      ]
    },
    {
      "name": "Bone.009_end_022",
      "rotation": [
        -7.703719777548943e-34,
        2.7755575615628914e-17,
        2.7755575615628914e-17,
        1.0
      ],
      "translation": [
        0.0,
        0.8582360148429871,
        0.0
      ]
    },
    {
      "children": [
        32
      ],
      "name": "Body2_012",
      "rotation": [
        -0.5429670214653015,
        0.1836826205253601,
        0.12767639756202698,
        0.8094110488891602
      ],
      "scale": [
        0.9999999403953552,
        0.9999999403953552,
        1.0
      ],
      "translation": [
        -0.07419600337743759,
        1.480247139930725,
        -0.15041793882846832
      ]
    },
    {
      "children": [
        33
      ],
      "name": "Tail1_013",
      "rotation": [
        -1.7202340529820503e-07,
        0.9991663694381714,
        0.04082421585917473,
        3.409177452340373e-06
      ],
      "scale": [
        1.0,
        1.0,
        0.9999999403953552
      ],
      "translation": [
        -1.11758780008131e-08,
        0.8871692419052124,
        -2.153683631433978e-08
      ]
    },
    {
      "children": [
        34
      ],
      "name": "Tail2_014",
      "rotation": [
        -0.008248323574662209,
        -0.0005373148014768958,
        -0.002997178351506591,
        0.9999614357948303
      ],
      "scale": [
        0.9999999403953552,
        0.9999999403953552,
        0.9999998807907104
      ],
      "translation": [
        7.450580596923828e-09,
        0.8662082552909851,
        -2.3464167497877497e-08
      ]
    },
    {
      "children": [
        35
      ],
      "name": "Tail2.001_015",
      "rotation": [
        -0.08464036136865616,
        -0.0005812138551846147,
        -0.0031330289784818888,
        0.9964064955711365
      ],
      "scale": [
        1.0,
        0.9999998807907104,
        1.0
      ],
      "translation": [
        -3.166496753692627e-08,
        0.9696951508522034,
        6.149639375507832e-08
      ]
    },
    {
      "name": "Tail2.001_end_024",
      "rotation": [
        -2.7755575615628914e-17,
        2.7755575615628914e-17,
        -4.163336342344337e-17,
        1.0
      ],
      "translation": [
        0.0,
        0.7532986998558044,
        1.7763568394002505e-15
      ]
    },
    {
      "children": [
        37
      ],
      "name": "Bone.005_016",
      "rotation": [
        -0.7004944086074829,
        0.3096710443496704,
        0.37563803791999817,
        0.5218309164047241
      ],
      "scale": [
        1.0,
        0.9999998807907104,
        0.9999998211860657
      ],
      "translation": [
        -0.4744136333465576,
        0.9953573942184448,
        0.1877613365650177
      ]
    },
    {
      "children": [
        38
      ],
      "name": "Bone.006_017",
      "rotation": [
        0.7797086238861084,
        -0.5843607187271118,
        0.01603996567428112,
        -0.22432111203670502
      ],
      "scale": [
        1.0000001192092896,
        1.000000238418579,
        1.0
      ],
      "translation": [
        5.587936158235607e-08,
        1.419893503189087,
        -4.470348713425665e-08
      ]
    },
    {
      "children": [
        39
      ],
      "name": "Bone.007_018",
      "rotation": [
        0.044317275285720825,
        0.17354297637939453,
        0.8269103169441223,
        0.5330460667610168
      ],
      "scale": [
        1.0,
        1.0,
        0.9999998807907104
      ],
      "translation": [
        -5.029141902923584e-08,
        2.8299503326416016,
        -1.6391277313232422e-07
      ]
    },
    {
      "name": "Bone.007_end_020",
      "rotation": [
        -3.851859888774472e-34,
        1.3877787807814457e-17,
        2.7755575615628914e-17,
        1.0
      ],
      "translation": [
        3.552713678800501e-15,
        3.0987436771392822,
        0.0
      ]
    },
    {
      "matrix": [
        -23.808713381854858,
        18.322996847249495,
        30.17660278923029,
        0.0,
        -21.65810156769293,
        21.162961369789368,
        -29.937777071441484,
        0.0,
        27.879867474771295,
        32.087572098536285,
        2.5133144364621405,
        0.0,
        -1760.8663421752235,
        3006.582713403657,
        790.4670054377584,
        1.0
      ],
      "name": "Object_40"
    },
    {
      "mesh": 3,
      "name": "Object_41",
      "skin": 0
    },
    {
      "matrix": [
        -18.856597990574073,
        8.652297140508182,
        37.18575330823796,
        0.0,
        -29.22215429928819,
        23.42012786373561,
        -20.26766313267007,
        0.0,
        24.57050034176179,
        34.4942172561659,
        4.433467534614929,
        0.0,
        -1760.8663421752235,
        3006.582713403657,
        790.4670054377584,
        1.0
      ],
      "name": "Object_42"
    },
    {
      "mesh": 4,
      "name": "Object_43",
      "skin": 0
    },
    {
      "matrix": [
        13.19903446965695,
        -40.39228516612696,
        -2.7320482146769796,
        0.0,
        -11.098496753602044,
        -0.8466609231583622,
        -41.10135068689366,
        0.0,
        38.933590345451115,
        13.45220448745697,
        -10.790248361992326,
        0.0,
        -2022.7294841667444,
        3428.4372861177253,
        1118.4283848537998,
        1.0
      ],
      "name": "Object_44"
    },
    {
      "mesh": 5,
      "name": "Object_45",
      "skin": 0
    },
    {
      "matrix": [
        27.83185421495602,
        -45.546471392286634,
        -3.9218685677976164,
        0.0,
        -2.502405954938954,
        3.06675903818229,
        -53.3742135682164,
        0.0,
        45.646466505129055,
        27.939006539664877,
        -0.5347861237247815,
        0.0,
        -2136.3607350073116,
        3096.8491639358135,
        981.2905755672818,
        1.0
      ],
      "name": "Object_46"
    },
    {
      "mesh": 6,
      "name": "Object_47",
      "skin": 0
    },
    {
      "matrix": [
        -45.60937809673448,
        69.58329029858315,
        55.47927059772815,
        0.0,
        87.35207922927404,
        23.087194112881708,
        42.85548554174467,
        0.0,
        17.011654017453765,
        68.00843283283037,
        -71.31239329212917,
        0.0,
        -1935.2437923122998,
        3096.4695969984655,
        1067.6974099401596,
        1.0
      ],
      "name": "Object_48"
    },
    {
      "mesh": 7,
      "name": "Object_49",
      "skin": 0
    },
    {
      "matrix": [
        -19.669766855295165,
        7.466936236054676,
        37.02106728676381,
        0.0,
        -27.45739902291595,
        25.832475674121422,
        -19.79872920016339,
        0.0,
        25.93080858515483,
        33.01732483254692,
        7.1179660485845595,
        0.0,
        -1760.8663421752235,
        3006.582713403657,
        790.4670054377584,
        1.0
      ],
      "name": "Object_50"
    },
    {
      "mesh": 8,
      "name": "Object_51",
      "skin": 0
    },
    {
      "name": "RetopoGroup1.006",
      "rotation": [
        0.727177083492279,
        0.026926742866635323,
        -0.4687333405017853,
        0.5007768869400024
      ],
      "scale": [
        -42.58185958862305,
        -42.58186340332031,
        -42.581878662109375
      ],
      "translation": [
        -1760.8662109375,
        3006.58251953125,
        790.467041015625
      ]
    },
    {
      "name": "RetopoGroup1.005",
      "rotation": [
        0.7240427732467651,
        0.16679465770721436,
        -0.5007629990577698,
        0.44404733180999756
      ],
      "scale": [
        -42.581851959228516,
        -42.58186340332031,
        -42.581878662109375
      ],
      "translation": [
        -1760.8662109375,
        3006.58251953125,
        790.467041015625
      ]
    },
    {
      "name": "RetopoGroup1.008",
      "rotation": [
        -0.6291367411613464,
        0.4805072546005249,
        -0.3378293514251709,
        0.5090886354446411
      ],
      "scale": [
        42.58186721801758,
        42.58185958862305,
        42.58187484741211
      ],
      "translation": [
        -2022.729248046875,
        3428.43701171875,
        1118.428466796875
      ]
    },
    {
      "name": "RetopoGroup1.013",
      "rotation": [
        -0.6067766547203064,
        0.3698894679546356,
        -0.32120394706726074,
        0.6259647607803345
      ],
      "scale": [
        53.520790100097656,
        53.520782470703125,
        53.52078628540039
      ],
      "translation": [
        -2136.360595703125,
        3096.848876953125,
        981.2906494140625
      ]
    },
    {
      "name": "RetopoGroup1.017",
      "rotation": [
        0.506497323513031,
        0.7746111750602722,
        0.357805073261261,
        -0.1241513267159462
      ],
      "scale": [
        100.0,
        99.99999237060547,
        100.00001525878906
      ],
      "translation": [
        -1935.24365234375,
        3096.46923828125,
        1067.697509765625
      ]
    },
    {
      "name": "RetopoGroup1.004",
      "rotation": [
        0.7476201057434082,
        0.15698446333408356,
        -0.4943598806858063,
        0.41476303339004517
      ],
      "scale": [
        -42.58185958862305,
        -42.58186721801758,
        -42.581878662109375
      ],
      "translation": [
        -1760.8662109375,
        3006.58251953125,
        790.467041015625
      ]
    }
  ],
  "samplers": [
    {
      "magFilter": 9729,
      "minFilter": 9987,
      "wrapS": 10497,
      "wrapT": 10497
    }
  ],
  "scene": 0,
  "scenes": [
    {
      "name": "Sketchfab_Scene",
      "nodes": [
        0
      ]
    }
  ],
  "skins": [
    {
      "inverseBindMatrices": 44,
      "joints": [
        14,
        15,
        16,
        17,
        18,
        19,
        20,
        21,
        22,
        23,
        24,
        25,
        26,
        27,
        28,
        29,
        30,
        31,
        32,
        33,
        34,
        35,
        36,
        37,
        38,
        39
      ],
      "skeleton": 14
    }
  ],
  "textures": [
    {
      "sampler": 0,
      "source": 0
    },
    {
      "sampler": 0,
      "source": 1
    },
    {
      "sampler": 0,
      "source": 2
    },
    {
      "sampler": 0,
      "source": 3
    },
    {
      "sampler": 0,
      "source": 4
    },
    {
      "sampler": 0,
      "source": 5
    },
    {
      "sampler": 0,
      "source": 6
    },
    {
      "sampler": 0,
      "source": 7
    }
  ]
}
