{
  "accessors": [
    {
      "bufferView": 2,
      "componentType": 5126,
      "count": 6254,
      "max": [
        150.48388671875,
        821.2655639648438,
        17.547483444213867
      ],
      "min": [
        -150.48388671875,
        -558.8369140625,
        -18.842487335205078
      ],
      "type": "VEC3"
    },
    {
      "bufferView": 2,
      "byteOffset": 75048,
      "componentType": 5126,
      "count": 6254,
      "max": [
        0.9999669194221497,
        0.9999780654907227,
        0.9999991059303284
      ],
      "min": [
        -0.9999778866767883,
        -0.9999938607215881,
        -0.9999991059303284
      ],
      "type": "VEC3"
    },
    {
      "bufferView": 3,
      "componentType": 5126,
      "count": 6254,
      "max": [
        0.9998829364776611,
        0.9999973773956299,
        1.0,
        1.0
      ],
      "min": [
        -0.9996902942657471,
        -0.9999894499778748,
        -1.0,
        1.0
      ],
      "type": "VEC4"
    },
    {
      "bufferView": 1,
      "componentType": 5126,
      "count": 6254,
      "max": [
        0.998046875,
        0.9944883584976196
      ],
      "min": [
        0.001953140599653125,
        0.0019531161524355412
      ],
      "type": "VEC2"
    },
    {
      "bufferView": 0,
      "componentType": 5125,
      "count": 28140,
      "type": "SCALAR"
    }
  ],
  "asset": {
    "extras": {
      "author": "DeLeon (https://sketchfab.com/dele0n)",
      "license": "CC-BY-4.0 (http://creativecommons.org/licenses/by/4.0/)",
      "source": "https://sketchfab.com/3d-models/andlangr-sword-midpoly-984250852a6648faa9a659d7699caf88",
      "title": "Andlangr Sword (midpoly)"
    },
    "generator": "Sketchfab-14.64.0",
    "version": "2.0"
  },
  "bufferViews": [
    {
      "buffer": 0,
      "byteLength": 112560,
      "name": "floatBufferViews",
      "target": 34963
    },
    {
      "buffer": 0,
      "byteLength": 50032,
      "byteOffset": 112560,
      "byteStride": 8,
      "name": "floatBufferViews",
      "target": 34962
    },
    {
      "buffer": 0,
      "byteLength": 150096,
      "byteOffset": 162592,
      "byteStride": 12,
      "name": "floatBufferViews",
      "target": 34962
    },
    {
      "buffer": 0,
      "byteLength": 100064,
      "byteOffset": 312688,
      "byteStride": 16,
      "name": "floatBufferViews",
      "target": 34962
    }
  ],
  "buffers": [
    {
      "byteLength": 412752,
      "uri": "scene.bin"
    }
  ],
  "extensionsUsed": [
    "KHR_materials_specular"
  ],
  "images": [
    {
      "uri": "textures/Box0025_baseColor.jpeg"
    },
    {
      "uri": "textures/Box0025_metallicRoughness.png"
    },
    {
      "uri": "textures/Box0025_normal.png"
    }
  ],
  "materials": [
    {
      "doubleSided": true,
      "extensions": {
        "KHR_materials_specular": {
          "specularColorFactor": [
            1.0,
            1.0,
            1.0
          ],
          "specularFactor": 0.5002842480953857
        }
      },
      "name": "Box0025",
      "normalTexture": {
        "index": 2
      },
      "occlusionTexture": {
        "index": 1
      },
      "pbrMetallicRoughness": {
        "baseColorTexture": {
          "index": 0
        },
        "metallicRoughnessTexture": {
          "index": 1
        }
      }
    }
  ],
  "meshes": [
    {
      "name": "Box0025_Box0025_0",
      "primitives": [
        {
          "attributes": {
            "NORMAL": 1,
            "POSITION": 0,
            "TANGENT": 2,
            "TEXCOORD_0": 3
          },
          "indices": 4,
          "material": 0,
          "mode": 4
        }
      ]
    }
  ],
  "nodes": [
    {
      "children": [
        1
      ],
      "matrix": [
        -0.0008041335837402699,
        -0.0037200921636268485,
        -0.09833906277354698,
        0.0,
        -0.0007480181746712805,
        0.09833973148080455,
        -0.003714000841760357,
        0.0,
        0.09840655527973619,
        0.0007171113152836148,
        -0.0008318132615363001,
        0.0,
        0.0,
        0.0,
        0.0,
        1.0
      ],
      "name": "Sketchfab_model"
    },
    {
      "children": [
        2
      ],
      "matrix": [
        0.009999999776482582,
        0.0,
        0.0,
        0.0,
        0.0,
        0.0,
        0.009999999776482582,
        0.0,
        0.0,
        -0.009999999776482582,
        0.0,
        0.0,
        0.0,
        0.0,
        0.0,
        1.0
      ],
      "name": "09a3987176ad4acca0453355e53ea590.fbx"
    },
    {
      "children": [
        3
      ],
      "name": "RootNode"
    },
    {
      "children": [
        4
      ],
      "name": "Box0025"
    },
    {
      "mesh": 0,
      "name": "Box0025_Box0025_0"
    }
  ],
  "samplers": [
    {
      "magFilter": 9729,
      "minFilter": 9987,
      "wrapS": 10497,
      "wrapT": 10497
    }
  ],
  "scene": 0,
  "scenes": [
    {
      "name": "Sketchfab_Scene",
      "nodes": [
        0
      ]
    }
  ],
  "textures": [
    {
      "sampler": 0,
      "source": 0
    },
    {
      "sampler": 0,
      "source": 1
    },
    {
      "sampler": 0,
      "source": 2
    }
  ]
}
