{
  "accessors": [
    {
      "bufferView": 3,
      "componentType": 5126,
      "count": 50,
      "max": [
        0.21875,
        2.1787109375,
        0.3798828125
      ],
      "min": [
        -0.21875,
        1.97265625,
        0.240234375
      ],
      "type": "VEC3"
    },
    {
      "bufferView": 3,
      "byteOffset": 600,
      "componentType": 5126,
      "count": 50,
      "max": [
        0.9724368453025818,
        0.9951527118682861,
        0.9364718198776245
      ],
      "min": [
        -0.9724368453025818,
        -0.7632065415382385,
        0.03128821775317192
      ],
      "type": "VEC3"
    },
    {
      "bufferView": 2,
      "componentType": 5126,
      "count": 50,
      "max": [
        0.984619140625,
        0.3876953125
      ],
      "min": [
        0.63958740234375,
        0.20623779296875
      ],
      "type": "VEC2"
    },
    {
      "bufferView": 1,
      "componentType": 5125,
      "count": 144,
      "type": "SCALAR"
    },
    {
      "bufferView": 3,
      "byteOffset": 1200,
      "componentType": 5126,
      "count": 437,
      "max": [
        0.5419921875,
        2.4716796875,
        0.505859375
      ],
      "min": [
        -0.5107421875,
        1.6767578125,
        -0.6064453125
      ],
      "type": "VEC3"
    },
    {
      "bufferView": 3,
      "byteOffset": 6444,
      "componentType": 5126,
      "count": 437,
      "max": [
        0.9993902444839478,
        0.9998780488967896,
        0.9989032745361328
      ],
      "min": [
        -0.996841311454773,
        -0.9644040465354919,
        -0.9749585390090942
      ],
      "type": "VEC3"
    },
    {
      "bufferView": 2,
      "byteOffset": 400,
      "componentType": 5126,
      "count": 437,
      "max": [
        3.975830078125,
        2.5223388671875
      ],
      "min": [
        -1.3909912109375,
        -2.4974365234375
      ],
      "type": "VEC2"
    },
    {
      "bufferView": 1,
      "byteOffset": 576,
      "componentType": 5125,
      "count": 1614,
      "type": "SCALAR"
    },
    {
      "bufferView": 3,
      "byteOffset": 11688,
      "componentType": 5126,
      "count": 84,
      "max": [
        1.4638671875,
        2.0302734375,
        0.1982421875
      ],
      "min": [
        -1.4638671875,
        1.5400390625,
        -0.267578125
      ],
      "type": "VEC3"
    },
    {
      "bufferView": 3,
      "byteOffset": 12696,
      "componentType": 5126,
      "count": 84,
      "max": [
        0.9332942366600037,
        0.7179616689682007,
        0.8392544388771057
      ],
      "min": [
        -0.9337461590766907,
        -0.8849182724952698,
        -0.8392544388771057
      ],
      "type": "VEC3"
    },
    {
      "bufferView": 2,
      "byteOffset": 3896,
      "componentType": 5126,
      "count": 84,
      "max": [
        0.4189453125,
        0.99298095703125
      ],
      "min": [
        0.24249267578125,
        0.83624267578125
      ],
      "type": "VEC2"
    },
    {
      "bufferView": 1,
      "byteOffset": 7032,
      "componentType": 5125,
      "count": 216,
      "type": "SCALAR"
    },
    {
      "bufferView": 3,
      "byteOffset": 13704,
      "componentType": 5126,
      "count": 463,
      "max": [
        2.0869140625,
        2.310546875,
        0.4873046875
      ],
      "min": [
        -2.0869140625,
        1.494140625,
        -0.3779296875
      ],
      "type": "VEC3"
    },
    {
      "bufferView": 3,
      "byteOffset": 19260,
      "componentType": 5126,
      "count": 463,
      "max": [
        0.9978099465370178,
        0.996841311454773,
        0.9998780488967896
      ],
      "min": [
        -0.996841311454773,
        -0.9908061623573303,
        -0.9998780488967896
      ],
      "type": "VEC3"
    },
    {
      "bufferView": 2,
      "byteOffset": 4568,
      "componentType": 5126,
      "count": 463,
      "max": [
        0.9913330078125,
        1.9969482421875
      ],
      "min": [
        -0.451416015625,
        0.00177001953125
      ],
      "type": "VEC2"
    },
    {
      "bufferView": 1,
      "byteOffset": 7896,
      "componentType": 5125,
      "count": 1674,
      "type": "SCALAR"
    },
    {
      "bufferView": 3,
      "byteOffset": 24816,
      "componentType": 5126,
      "count": 57,
      "max": [
        0.498046875,
        1.6162109375,
        0.427734375
      ],
      "min": [
        -0.498046875,
        0.4111328125,
        -0.3037109375
      ],
      "type": "VEC3"
    },
    {
      "bufferView": 3,
      "byteOffset": 25500,
      "componentType": 5126,
      "count": 57,
      "max": [
        0.9984169006347656,
        0.21808546781539917,
        0.9998780488967896
      ],
      "min": [
        -0.9984169006347656,
        -0.6709746718406677,
        -0.9989032745361328
      ],
      "type": "VEC3"
    },
    {
      "bufferView": 2,
      "byteOffset": 8272,
      "componentType": 5126,
      "count": 57,
      "max": [
        0.9913330078125,
        0.821044921875
      ],
      "min": [
        0.008544921875,
        0.598876953125
      ],
      "type": "VEC2"
    },
    {
      "bufferView": 1,
      "byteOffset": 14592,
      "componentType": 5125,
      "count": 234,
      "type": "SCALAR"
    },
    {
      "bufferView": 5,
      "componentType": 5126,
      "count": 22,
      "max": [
        1.0,
        0.47404205799102783,
        0.0,
        0.0,
        0.7313882112503052,
        1.0,
        0.19652524590492249,
        0.0,
        0.32940635085105896,
        0.5906225442886353,
        1.0,
        0.0,
        1.8243473768234253,
        2.288520097732544,
        1.2423797845840454,
        1.0
      ],
      "min": [
        0.5971287488937378,
        0.0,
        -0.6470869183540344,
        0.0,
        -0.7313881516456604,
        -1.0,
        -0.19652527570724487,
        0.0,
        -0.32940638065338135,
        -0.5906225442886353,
        -1.0,
        0.0,
        -1.8243473768234253,
        -2.288518190383911,
        -1.2423796653747559,
        1.0
      ],
      "type": "MAT4"
    },
    {
      "bufferView": 0,
      "componentType": 5123,
      "count": 50,
      "type": "VEC4"
    },
    {
      "bufferView": 4,
      "componentType": 5126,
      "count": 50,
      "max": [
        1.0,
        0.0,
        0.0,
        0.0
      ],
      "min": [
        1.0,
        0.0,
        0.0,
        0.0
      ],
      "type": "VEC4"
    },
    {
      "bufferView": 0,
      "byteOffset": 400,
      "componentType": 5123,
      "count": 437,
      "type": "VEC4"
    },
    {
      "bufferView": 4,
      "byteOffset": 800,
      "componentType": 5126,
      "count": 437,
      "max": [
        1.0,
        0.471698135137558,
        0.0,
        0.0
      ],
      "min": [
        0.5283018946647644,
        0.0,
        0.0,
        0.0
      ],
      "type": "VEC4"
    },
    {
      "bufferView": 0,
      "byteOffset": 3896,
      "componentType": 5123,
      "count": 84,
      "type": "VEC4"
    },
    {
      "bufferView": 4,
      "byteOffset": 7792,
      "componentType": 5126,
      "count": 84,
      "max": [
        1.0,
        0.0,
        0.0,
        0.0
      ],
      "min": [
        1.0,
        0.0,
        0.0,
        0.0
      ],
      "type": "VEC4"
    },
    {
      "bufferView": 0,
      "byteOffset": 4568,
      "componentType": 5123,
      "count": 463,
      "type": "VEC4"
    },
    {
      "bufferView": 4,
      "byteOffset": 9136,
      "componentType": 5126,
      "count": 463,
      "max": [
        1.0,
        0.46153849363327026,
        0.0,
        0.0
      ],
      "min": [
        0.5384615659713745,
        0.0,
        0.0,
        0.0
      ],
      "type": "VEC4"
    },
    {
      "bufferView": 0,
      "byteOffset": 8272,
      "componentType": 5123,
      "count": 57,
      "type": "VEC4"
    },
    {
      "bufferView": 4,
      "byteOffset": 16544,
      "componentType": 5126,
      "count": 57,
      "max": [
        1.0,
        0.3684210479259491,
        0.0,
        0.0
      ],
      "min": [
        0.6315789222717285,
        0.0,
        0.0,
        0.0
      ],
      "type": "VEC4"
    }
  ],
  "asset": {
    "extras": {
      "author": "emperor_prime (https://sketchfab.com/primalfrom12)",
      "license": "CC-BY-4.0 (http://creativecommons.org/licenses/by/4.0/)",
      "source": "https://sketchfab.com/3d-models/skylanders-trap-team-lightning-rod-d0a3c8e1dcc04547901ef194ccfd68a8",
      "title": "skylanders trap team lightning rod"
    },
    "generator": "Sketchfab-16.72.0",
    "version": "2.0"
  },
  "bufferViews": [
    {
      "buffer": 0,
      "byteLength": 8728,
      "byteStride": 8,
      "name": "shortBufferViews",
      "target": 34962
    },
    {
      "buffer": 0,
      "byteLength": 15528,
      "byteOffset": 8728,
      "name": "floatBufferViews",
      "target": 34963
    },
    {
      "buffer": 0,
      "byteLength": 8728,
      "byteOffset": 24256,
      "byteStride": 8,
      "name": "floatBufferViews",
      "target": 34962
    },
    {
      "buffer": 0,
      "byteLength": 26184,
      "byteOffset": 32984,
      "byteStride": 12,
      "name": "floatBufferViews",
      "target": 34962
    },
    {
      "buffer": 0,
      "byteLength": 17456,
      "byteOffset": 59168,
      "byteStride": 16,
      "name": "floatBufferViews",
      "target": 34962
    },
    {
      "buffer": 0,
      "byteLength": 1408,
      "byteOffset": 76624,
      "name": "floatBufferViews"
    }
  ],
  "buffers": [
    {
      "byteLength": 78032,
      "uri": "scene.bin"
    }
  ],
  "images": [
    {
      "uri": "textures/Mesh_0_1_baseColor.png"
    },
    {
      "uri": "textures/Mesh_0_3_baseColor.png"
    }
  ],
  "materials": [
    {
      "doubleSided": true,
      "name": "Mesh_0_1",
      "pbrMetallicRoughness": {
        "baseColorTexture": {
          "index": 0
        },
        "metallicFactor": 0.0,
        "roughnessFactor": 0.9577051494623774
      }
    },
    {
      "doubleSided": true,
      "name": "Mesh_0_3",
      "pbrMetallicRoughness": {
        "baseColorTexture": {
          "index": 1
        },
        "metallicFactor": 0.0,
        "roughnessFactor": 0.9577051494623774
      }
    },
    {
      "doubleSided": true,
      "name": "Mesh_0_5",
      "pbrMetallicRoughness": {
        "baseColorTexture": {
          "index": 0
        },
        "metallicFactor": 0.0,
        "roughnessFactor": 0.9577051494623774
      }
    },
    {
      "doubleSided": true,
      "name": "Mesh_0_7",
      "pbrMetallicRoughness": {
        "baseColorTexture": {
          "index": 0
        },
        "metallicFactor": 0.0,
        "roughnessFactor": 0.9577051494623774
      }
    },
    {
      "doubleSided": true,
      "name": "Mesh_0_9",
      "pbrMetallicRoughness": {
        "baseColorTexture": {
          "index": 0
        },
        "metallicFactor": 0.0,
        "roughnessFactor": 0.9577051494623774
      }
    }
  ],
  "meshes": [
    {
      "name": "Mesh_0_1_Mesh_0_1_0",
      "primitives": [
        {
          "attributes": {
            "JOINTS_0": 21,
            "NORMAL": 1,
            "POSITION": 0,
            "TEXCOORD_0": 2,
            "WEIGHTS_0": 22
          },
          "indices": 3,
          "material": 0,
          "mode": 4
        }
      ]
    },
    {
      "name": "Mesh_0_3_Mesh_0_3_0",
      "primitives": [
        {
          "attributes": {
            "JOINTS_0": 23,
            "NORMAL": 5,
            "POSITION": 4,
            "TEXCOORD_0": 6,
            "WEIGHTS_0": 24
          },
          "indices": 7,
          "material": 1,
          "mode": 4
        }
      ]
    },
    {
      "name": "Mesh_0_5_Mesh_0_5_0",
      "primitives": [
        {
          "attributes": {
            "JOINTS_0": 25,
            "NORMAL": 9,
            "POSITION": 8,
            "TEXCOORD_0": 10,
            "WEIGHTS_0": 26
          },
          "indices": 11,
          "material": 2,
          "mode": 4
        }
      ]
    },
    {
      "name": "Mesh_0_7_Mesh_0_7_0",
      "primitives": [
        {
          "attributes": {
            "JOINTS_0": 27,
            "NORMAL": 13,
            "POSITION": 12,
            "TEXCOORD_0": 14,
            "WEIGHTS_0": 28
          },
          "indices": 15,
          "material": 3,
          "mode": 4
        }
      ]
    },
    {
      "name": "Mesh_0_9_Mesh_0_9_0",
      "primitives": [
        {
          "attributes": {
            "JOINTS_0": 29,
            "NORMAL": 17,
            "POSITION": 16,
            "TEXCOORD_0": 18,
            "WEIGHTS_0": 30
          },
          "indices": 19,
          "material": 4,
          "mode": 4
        }
      ]
    }
  ],
  "nodes": [
    {
      "children": [
        1
      ],
      "matrix": [
        1.0,
        0.0,
        0.0,
        0.0,
        0.0,
        2.220446049250313e-16,
        -1.0,
        0.0,
        0.0,
        1.0,
        2.220446049250313e-16,
        0.0,
        0.0,
        0.0,
        0.0,
        1.0
      ],
      "name": "Sketchfab_model"
    },
    {
      "children": [
        2
      ],
      "matrix": [
        0.009999999776482582,
        0.0,
        0.0,
        0.0,
        0.0,
        0.0,
        0.009999999776482582,
        0.0,
        0.0,
        -0.009999999776482582,
        0.0,
        0.0,
        0.0,
        0.0,
        0.0,
        1.0
      ],
      "name": "zeus.fbx"
    },
    {
      "children": [
        3
      ],
      "name": "RootNode"
    },
    {
      "children": [
        4,
        5,
        6,
        7,
        8,
        9
      ],
      "name": "Object_3"
    },
    {
      "children": [
        10
      ],
      "name": "_rootJoint"
    },
    {
      "mesh": 0,
      "name": "Object_5",
      "skin": 0
    },
    {
      "mesh": 1,
      "name": "Object_6",
      "skin": 0
    },
    {
      "mesh": 2,
      "name": "Object_7",
      "skin": 0
    },
    {
      "mesh": 3,
      "name": "Object_8",
      "skin": 0
    },
    {
      "mesh": 4,
      "name": "Object_9",
      "skin": 0
    },
    {
      "children": [
        11
      ],
      "name": "J_root_00",
      "translation": [
        0.0,
        1.0613073110580444,
        0.09205415844917297
      ]
    },
    {
      "children": [
        12,
        19,
        25
      ],
      "name": "J_chest_01",
      "translation": [
        0.0,
        0.532233715057373,
        -0.009852699935436249
      ]
    },
    {
      "children": [
        13,
        14,
        15,
        16,
        17,
        18
      ],
      "name": "J_head_02",
      "translation": [
        0.0,
        0.46128809452056885,
        -0.02565637230873108
      ]
    },
    {
      "name": "J_jaw_03",
      "translation": [
        0.0,
        -0.11399340629577637,
        0.28041309118270874
      ]
    },
    {
      "name": "J_eye_L_04",
      "translation": [
        0.11164368689060211,
        0.02497124671936035,
        0.2201932668685913
      ]
    },
    {
      "name": "J_hair_L_05",
      "translation": [
        0.3404618799686432,
        0.2336890697479248,
        -0.1507193148136139
      ]
    },
    {
      "name": "J_hair_B_06",
      "translation": [
        -0.012815525755286217,
        0.045899152755737305,
        -0.4123004078865051
      ]
    },
    {
      "name": "J_hair_R_07",
      "rotation": [
        1.0,
        0.0,
        0.0,
        -6.123234262925839e-17
      ],
      "translation": [
        -0.34046199917793274,
        0.23369097709655762,
        -0.15071934461593628
      ]
    },
    {
      "name": "J_eye_R_08",
      "rotation": [
        1.0,
        0.0,
        0.0,
        -6.123234262925839e-17
      ],
      "translation": [
        -0.11164399981498718,
        0.02497076988220215,
        0.22019290924072266
      ]
    },
    {
      "children": [
        20
      ],
      "name": "J_shoulder_L_09",
      "translation": [
        0.5550970435142517,
        0.19719970226287842,
        -0.12704719603061676
      ]
    },
    {
      "children": [
        21
      ],
      "name": "J_elbow_L_010",
      "translation": [
        0.41484999656677246,
        0.0,
        -0.010000001639127731
      ]
    },
    {
      "children": [
        22,
        23,
        24
      ],
      "name": "J_wrist_L_011",
      "translation": [
        0.5525926947593689,
        0.0,
        0.010000001639127731
      ]
    },
    {
      "name": "J_palm_L_012",
      "translation": [
        0.3018076419830322,
        0.05253708362579346,
        0.0
      ]
    },
    {
      "name": "J_thumb_L_013",
      "rotation": [
        0.2277311235666275,
        -0.2825109660625458,
        -0.3487451374530792,
        0.8641197681427002
      ],
      "scale": [
        1.0,
        1.0,
        0.9999999403953552
      ],
      "translation": [
        0.12205040454864502,
        -0.16639375686645508,
        0.23630397021770477
      ]
    },
    {
      "name": "J_attach_L_014",
      "rotation": [
        0.0,
        -0.0,
        -0.7071068286895752,
        0.7071068286895752
      ],
      "translation": [
        0.37062811851501465,
        -0.07835471630096436,
        0.058081310242414474
      ]
    },
    {
      "children": [
        26
      ],
      "name": "J_shoulder_R_015",
      "rotation": [
        1.0,
        0.0,
        0.0,
        6.123234262925839e-17
      ],
      "translation": [
        -0.5550969839096069,
        0.1971989870071411,
        -0.12704715132713318
      ]
    },
    {
      "children": [
        27
      ],
      "name": "J_elbow_R_016",
      "translation": [
        -0.41484999656677246,
        0.0,
        0.009999997913837433
      ]
    },
    {
      "children": [
        28,
        29,
        30
      ],
      "name": "J_wrist_R_017",
      "translation": [
        -0.5525929927825928,
        0.0,
        -0.009999997913837433
      ]
    },
    {
      "name": "J_palm_R_018",
      "rotation": [
        -1.104037394838997e-08,
        -0.0,
        0.0,
        1.0
      ],
      "translation": [
        -0.3018074035644531,
        -0.05253779888153076,
        4.470348358154297e-08
      ]
    },
    {
      "name": "J_thumb_R_019",
      "rotation": [
        0.2277311533689499,
        -0.28251099586486816,
        -0.3487451672554016,
        0.864119827747345
      ],
      "scale": [
        1.0,
        1.0,
        0.9999999403953552
      ],
      "translation": [
        -0.12205016613006592,
        0.16639304161071777,
        -0.23630401492118835
      ]
    },
    {
      "name": "J_attach_R_020",
      "rotation": [
        0.7071068286895752,
        -0.7071068286895752,
        -1.8893122044582343e-24,
        -8.659561926915534e-17
      ],
      "translation": [
        -0.37062788009643555,
        0.07835400104522705,
        -0.05808126926422119
      ]
    }
  ],
  "samplers": [
    {
      "magFilter": 9729,
      "minFilter": 9987,
      "wrapS": 10497,
      "wrapT": 10497
    }
  ],
  "scene": 0,
  "scenes": [
    {
      "name": "Sketchfab_Scene",
      "nodes": [
        0
      ]
    }
  ],
  "skins": [
    {
      "inverseBindMatrices": 20,
      "joints": [
        4,
        10,
        11,
        12,
        13,
        14,
        15,
        16,
        17,
        18,
        19,
        20,
        21,
        22,
        23,
        24,
        25,
        26,
        27,
        28,
        29,
        30
      ],
      "skeleton": 4
    }
  ],
  "textures": [
    {
      "sampler": 0,
      "source": 0
    },
    {
      "sampler": 0,
      "source": 1
    }
  ]
}
