{
  "accessors": [
    {
      "bufferView": 2,
      "componentType": 5126,
      "count": 38,
      "max": [
        0.23746299743652344,
        -1.3612060546875,
        1.4904520511627197
      ],
      "min": [
        0.055723998695611954,
        -1.6204630136489868,
        -0.3824720084667206
      ],
      "type": "VEC3"
    },
    {
      "bufferView": 2,
      "byteOffset": 456,
      "componentType": 5126,
      "count": 38,
      "max": [
        0.9999953508377075,
        0.3272973895072937,
        0.001799972727894783
      ],
      "min": [
        -0.9999953508377075,
        -0.37420403957366943,
        -0.01590048335492611
      ],
      "type": "VEC3"
    },
    {
      "bufferView": 1,
      "componentType": 5126,
      "count": 38,
      "max": [
        0.6407660245895386,
        0.8737350106239319
      ],
      "min": [
        0.5182999968528748,
        0.012590000405907631
      ],
      "type": "VEC2"
    },
    {
      "bufferView": 0,
      "componentType": 5125,
      "count": 144,
      "type": "SCALAR"
    },
    {
      "bufferView": 2,
      "byteOffset": 912,
      "componentType": 5126,
      "count": 63,
      "max": [
        0.22305400669574738,
        -1.3561830520629883,
        -0.6327630281448364
      ],
      "min": [
        0.06105799973011017,
        -1.5751140117645264,
        -0.73580402135849
      ],
      "type": "VEC3"
    },
    {
      "bufferView": 2,
      "byteOffset": 1668,
      "componentType": 5126,
      "count": 63,
      "max": [
        0.9984379410743713,
        0.9985418915748596,
        1.0
      ],
      "min": [
        -0.9985836744308472,
        -0.995326578617096,
        -0.9999978542327881
      ],
      "type": "VEC3"
    },
    {
      "bufferView": 1,
      "byteOffset": 304,
      "componentType": 5126,
      "count": 63,
      "max": [
        0.9884859919548035,
        1.253322958946228
      ],
      "min": [
        0.05145300179719925,
        0.10025600343942642
      ],
      "type": "VEC2"
    },
    {
      "bufferView": 0,
      "byteOffset": 576,
      "componentType": 5125,
      "count": 240,
      "type": "SCALAR"
    },
    {
      "bufferView": 2,
      "byteOffset": 2424,
      "componentType": 5126,
      "count": 132,
      "max": [
        0.35055699944496155,
        -0.9548310041427612,
        -0.2440599948167801
      ],
      "min": [
        -0.06492000073194504,
        -1.9642319679260254,
        -0.6529319882392883
      ],
      "type": "VEC3"
    },
    {
      "bufferView": 2,
      "byteOffset": 4008,
      "componentType": 5126,
      "count": 132,
      "max": [
        0.9934810400009155,
        0.694627046585083,
        0.835502564907074
      ],
      "min": [
        -0.9934810400009155,
        -0.694627046585083,
        -0.8734814524650574
      ],
      "type": "VEC3"
    },
    {
      "bufferView": 1,
      "byteOffset": 808,
      "componentType": 5126,
      "count": 132,
      "max": [
        0.9912710189819336,
        0.9963870048522949
      ],
      "min": [
        0.00506900018081069,
        0.00849399995058775
      ],
      "type": "VEC2"
    },
    {
      "bufferView": 0,
      "byteOffset": 1536,
      "componentType": 5125,
      "count": 420,
      "type": "SCALAR"
    },
    {
      "bufferView": 2,
      "byteOffset": 5592,
      "componentType": 5126,
      "count": 72,
      "max": [
        0.2504670023918152,
        -1.3570189476013184,
        -0.7068089842796326
      ],
      "min": [
        0.031029999256134033,
        -1.5764559507369995,
        -1.6950130462646484
      ],
      "type": "VEC3"
    },
    {
      "bufferView": 2,
      "byteOffset": 6456,
      "componentType": 5126,
      "count": 72,
      "max": [
        0.9999586343765259,
        0.9999586343765259,
        1.0
      ],
      "min": [
        -0.9999586343765259,
        -0.9999586343765259,
        -1.0
      ],
      "type": "VEC3"
    },
    {
      "bufferView": 1,
      "byteOffset": 1864,
      "componentType": 5126,
      "count": 72,
      "max": [
        0.941802978515625,
        0.9777860045433044
      ],
      "min": [
        0.011250000447034836,
        -0.004780999850481749
      ],
      "type": "VEC2"
    },
    {
      "bufferView": 0,
      "byteOffset": 3216,
      "componentType": 5125,
      "count": 288,
      "type": "SCALAR"
    },
    {
      "bufferView": 2,
      "byteOffset": 7320,
      "componentType": 5126,
      "count": 120,
      "max": [
        0.26534199714660645,
        -1.4174840450286865,
        -0.2696009874343872
      ],
      "min": [
        0.20153899490833282,
        -1.528836965560913,
        -0.4246949851512909
      ],
      "type": "VEC3"
    },
    {
      "bufferView": 2,
      "byteOffset": 8760,
      "componentType": 5126,
      "count": 120,
      "max": [
        0.8577389717102051,
        0.4983985126018524,
        0.4025987982749939
      ],
      "min": [
        -0.8502902984619141,
        -0.498293936252594,
        -0.40747717022895813
      ],
      "type": "VEC3"
    },
    {
      "bufferView": 1,
      "byteOffset": 2440,
      "componentType": 5126,
      "count": 120,
      "max": [
        0.875,
        1.0
      ],
      "min": [
        0.125,
        0.0
      ],
      "type": "VEC2"
    },
    {
      "bufferView": 0,
      "byteOffset": 4368,
      "componentType": 5125,
      "count": 168,
      "type": "SCALAR"
    },
    {
      "bufferView": 2,
      "byteOffset": 10200,
      "componentType": 5126,
      "count": 22,
      "max": [
        0.22377200424671173,
        -1.3894460201263428,
        -1.6070079803466797
      ],
      "min": [
        0.0606129989027977,
        -1.544618010520935,
        -1.7894259691238403
      ],
      "type": "VEC3"
    },
    {
      "bufferView": 2,
      "byteOffset": 10464,
      "componentType": 5126,
      "count": 22,
      "max": [
        0.8944271802902222,
        0.8506679534912109,
        1.0
      ],
      "min": [
        -0.8944271802902222,
        -0.8506679534912109,
        -1.0
      ],
      "type": "VEC3"
    },
    {
      "bufferView": 1,
      "byteOffset": 3400,
      "componentType": 5126,
      "count": 22,
      "max": [
        0.4723860025405884,
        0.9999309778213501
      ],
      "min": [
        6.900000153109431e-05,
        6.900000153109431e-05
      ],
      "type": "VEC2"
    },
    {
      "bufferView": 0,
      "byteOffset": 5040,
      "componentType": 5125,
      "count": 60,
      "type": "SCALAR"
    },
    {
      "bufferView": 2,
      "byteOffset": 10728,
      "componentType": 5126,
      "count": 55,
      "max": [
        0.23746299743652344,
        -1.1703770160675049,
        1.6919879913330078
      ],
      "min": [
        0.055723998695611954,
        -1.811292052268982,
        -0.3824720084667206
      ],
      "type": "VEC3"
    },
    {
      "bufferView": 2,
      "byteOffset": 11388,
      "componentType": 5126,
      "count": 55,
      "max": [
        0.9106919765472412,
        0.4985097348690033,
        0.28099530935287476
      ],
      "min": [
        -0.9106919765472412,
        -0.4965021014213562,
        -1.0
      ],
      "type": "VEC3"
    },
    {
      "bufferView": 1,
      "byteOffset": 3576,
      "componentType": 5126,
      "count": 55,
      "max": [
        0.890779972076416,
        0.9699270129203796
      ],
      "min": [
        0.09581500291824341,
        0.01211399957537651
      ],
      "type": "VEC2"
    },
    {
      "bufferView": 0,
      "byteOffset": 5280,
      "componentType": 5125,
      "count": 144,
      "type": "SCALAR"
    }
  ],
  "asset": {
    "extras": {
      "author": "Victor Crissostomo (https://sketchfab.com/vicrissostomo)",
      "license": "CC-BY-4.0 (http://creativecommons.org/licenses/by/4.0/)",
      "source": "https://sketchfab.com/3d-models/runic-sword-mystic-fantasy-blade-7685d4caf6144393ba8b316a86cb040e",
      "title": "Runic Sword | Mystic Fantasy Blade"
    },
    "generator": "Sketchfab-16.62.0",
    "version": "2.0"
  },
  "bufferViews": [
    {
      "buffer": 0,
      "byteLength": 5856,
      "name": "floatBufferViews",
      "target": 34963
    },
    {
      "buffer": 0,
      "byteLength": 4016,
      "byteOffset": 5856,
      "byteStride": 8,
      "name": "floatBufferViews",
      "target": 34962
    },
    {
      "buffer": 0,
      "byteLength": 12048,
      "byteOffset": 9872,
      "byteStride": 12,
      "name": "floatBufferViews",
      "target": 34962
    }
  ],
  "buffers": [
    {
      "byteLength": 21920,
      "uri": "scene.bin"
    }
  ],
  "images": [
    {
      "uri": "textures/Material.001_baseColor.png"
    },
    {
      "uri": "textures/apoio_base_baseColor.png"
    },
    {
      "uri": "textures/base_baseColor.png"
    },
    {
      "uri": "textures/cabo_baseColor.png"
    }
  ],
  "materials": [
    {
      "doubleSided": true,
      "name": "Material.001",
      "pbrMetallicRoughness": {
        "baseColorTexture": {
          "index": 0
        },
        "metallicFactor": 0.0,
        "roughnessFactor": 0.8011823178082373
      }
    },
    {
      "doubleSided": true,
      "name": "apoio_base",
      "pbrMetallicRoughness": {
        "baseColorTexture": {
          "index": 1
        },
        "metallicFactor": 0.0
      }
    },
    {
      "doubleSided": true,
      "name": "base",
      "pbrMetallicRoughness": {
        "baseColorTexture": {
          "index": 2
        },
        "metallicFactor": 0.0
      }
    },
    {
      "doubleSided": true,
      "name": "cabo",
      "pbrMetallicRoughness": {
        "baseColorTexture": {
          "index": 3
        },
        "metallicFactor": 0.0
      }
    },
    {
      "doubleSided": true,
      "name": "joia_base",
      "pbrMetallicRoughness": {
        "baseColorFactor": [
          0.8,
          0.8,
          0.8,
          1.0
        ],
        "metallicFactor": 0.0,
        "roughnessFactor": 0.6023646356164747
      }
    },
    {
      "doubleSided": true,
      "name": "joia_cabo",
      "pbrMetallicRoughness": {
        "baseColorFactor": [
          0.8,
          0.8,
          0.8,
          1.0
        ],
        "metallicFactor": 0.0,
        "roughnessFactor": 0.6023646356164747
      }
    },
    {
      "doubleSided": true,
      "name": "lamina",
      "pbrMetallicRoughness": {
        "baseColorFactor": [
          0.8,
          0.8,
          0.8,
          1.0
        ],
        "metallicFactor": 0.0,
        "roughnessFactor": 0.7495211336321654
      }
    }
  ],
  "meshes": [
    {
      "name": "Object_0",
      "primitives": [
        {
          "attributes": {
            "NORMAL": 1,
            "POSITION": 0,
            "TEXCOORD_0": 2
          },
          "indices": 3,
          "material": 0,
          "mode": 4
        }
      ]
    },
    {
      "name": "Object_1",
      "primitives": [
        {
          "attributes": {
            "NORMAL": 5,
            "POSITION": 4,
            "TEXCOORD_0": 6
          },
          "indices": 7,
          "material": 1,
          "mode": 4
        }
      ]
    },
    {
      "name": "Object_2",
      "primitives": [
        {
          "attributes": {
            "NORMAL": 9,
            "POSITION": 8,
            "TEXCOORD_0": 10
          },
          "indices": 11,
          "material": 2,
          "mode": 4
        }
      ]
    },
    {
      "name": "Object_3",
      "primitives": [
        {
          "attributes": {
            "NORMAL": 13,
            "POSITION": 12,
            "TEXCOORD_0": 14
          },
          "indices": 15,
          "material": 3,
          "mode": 4
        }
      ]
    },
    {
      "name": "Object_4",
      "primitives": [
        {
          "attributes": {
            "NORMAL": 17,
            "POSITION": 16,
            "TEXCOORD_0": 18
          },
          "indices": 19,
          "material": 4,
          "mode": 4
        }
      ]
    },
    {
      "name": "Object_5",
      "primitives": [
        {
          "attributes": {
            "NORMAL": 21,
            "POSITION": 20,
            "TEXCOORD_0": 22
          },
          "indices": 23,
          "material": 5,
          "mode": 4
        }
      ]
    },
    {
      "name": "Object_6",
      "primitives": [
        {
          "attributes": {
            "NORMAL": 25,
            "POSITION": 24,
            "TEXCOORD_0": 26
          },
          "indices": 27,
          "material": 6,
          "mode": 4
        }
      ]
    }
  ],
  "nodes": [
    {
      "children": [
        1
      ],
      "matrix": [
        1.0,
        0.0,
        0.0,
        0.0,
        0.0,
        2.220446049250313e-16,
        -1.0,
        0.0,
        0.0,
        1.0,
        2.220446049250313e-16,
        0.0,
        0.0,
        0.0,
        0.0,
        1.0
      ],
      "name": "Sketchfab_model"
    },
    {
      "children": [
        2,
        3,
        4,
        5,
        6,
        7,
        8
      ],
      "name": "espada.obj.cleaner.materialmerger.gles"
    },
    {
      "mesh": 0,
      "name": "Object_2"
    },
    {
      "mesh": 1,
      "name": "Object_3"
    },
    {
      "mesh": 2,
      "name": "Object_4"
    },
    {
      "mesh": 3,
      "name": "Object_5"
    },
    {
      "mesh": 4,
      "name": "Object_6"
    },
    {
      "mesh": 5,
      "name": "Object_7"
    },
    {
      "mesh": 6,
      "name": "Object_8"
    }
  ],
  "samplers": [
    {
      "magFilter": 9729,
      "minFilter": 9987,
      "wrapS": 10497,
      "wrapT": 10497
    }
  ],
  "scene": 0,
  "scenes": [
    {
      "name": "Sketchfab_Scene",
      "nodes": [
        0
      ]
    }
  ],
  "textures": [
    {
      "sampler": 0,
      "source": 0
    },
    {
      "sampler": 0,
      "source": 1
    },
    {
      "sampler": 0,
      "source": 2
    },
    {
      "sampler": 0,
      "source": 3
    }
  ]
}
