{
  "accessors": [
    {
      "bufferView": 3,
      "componentType": 5126,
      "count": 1952,
      "max": [
        0.37743183970451355,
        2.748293161392212,
        1.8761510848999023
      ],
      "min": [
        -0.37743183970451355,
        -0.006407740525901318,
        -1.5020936727523804
      ],
      "type": "VEC3"
    },
    {
      "bufferView": 3,
      "byteOffset": 23424,
      "componentType": 5126,
      "count": 1952,
      "max": [
        0.9993310570716858,
        0.9965552687644958,
        0.9989455938339233
      ],
      "min": [
        -0.9993311166763306,
        -1.0,
        -0.9991559982299805
      ],
      "type": "VEC3"
    },
    {
      "bufferView": 2,
      "componentType": 5126,
      "count": 1952,
      "max": [
        0.9922616481781006,
        0.9853907823562622
      ],
      "min": [
        0.01198732852935791,
        0.014629483222961426
      ],
      "type": "VEC2"
    },
    {
      "bufferView": 1,
      "componentType": 5125,
      "count": 10110,
      "type": "SCALAR"
    },
    {
      "bufferView": 3,
      "byteOffset": 46848,
      "componentType": 5126,
      "count": 34,
      "max": [
        0.15223920345306396,
        2.3703551292419434,
        1.5151429176330566
      ],
      "min": [
        -0.15223920345306396,
        2.299708843231201,
        1.4676172733306885
      ],
      "type": "VEC3"
    },
    {
      "bufferView": 3,
      "byteOffset": 47256,
      "componentType": 5126,
      "count": 34,
      "max": [
        0.9974434971809387,
        0.4177636206150055,
        0.9391430616378784
      ],
      "min": [
        -0.997443437576294,
        -0.6916491985321045,
        0.014847690239548683
      ],
      "type": "VEC3"
    },
    {
      "bufferView": 2,
      "byteOffset": 15616,
      "componentType": 5126,
      "count": 34,
      "max": [
        0.9182050228118896,
        0.8421798944473267
      ],
      "min": [
        0.08179503679275513,
        0.07502982020378113
      ],
      "type": "VEC2"
    },
    {
      "bufferView": 1,
      "byteOffset": 40440,
      "componentType": 5125,
      "count": 144,
      "type": "SCALAR"
    },
    {
      "bufferView": 3,
      "byteOffset": 47664,
      "componentType": 5126,
      "count": 1336,
      "max": [
        0.552748441696167,
        2.5623762607574463,
        1.889095664024353
      ],
      "min": [
        -0.552748441696167,
        0.8259576559066772,
        -0.9491515755653381
      ],
      "type": "VEC3"
    },
    {
      "bufferView": 3,
      "byteOffset": 63696,
      "componentType": 5126,
      "count": 1336,
      "max": [
        1.0,
        1.0,
        1.0
      ],
      "min": [
        -1.0,
        -1.0,
        -1.0
      ],
      "type": "VEC3"
    },
    {
      "bufferView": 2,
      "byteOffset": 15888,
      "componentType": 5126,
      "count": 1336,
      "max": [
        0.997189998626709,
        0.8390361666679382
      ],
      "min": [
        0.19218450784683228,
        0.04546840488910675
      ],
      "type": "VEC2"
    },
    {
      "bufferView": 1,
      "byteOffset": 41016,
      "componentType": 5125,
      "count": 3546,
      "type": "SCALAR"
    },
    {
      "bufferView": 5,
      "componentType": 5126,
      "count": 53,
      "max": [
        73.52494812011719,
        0.2519889175891876,
        0.6685481667518616,
        0.0,
        0.34277161955833435,
        73.52494812011719,
        0.7331748008728027,
        0.0,
        0.6654272079467773,
        0.7331807017326355,
        73.52494812011719,
        0.0,
        0.582298219203949,
        1.3787848949432373,
        1.947209358215332,
        1.0
      ],
      "min": [
        -0.7352494597434998,
        -0.2519889771938324,
        -0.6685482263565063,
        0.0,
        -0.34277161955833435,
        -0.7351679801940918,
        -0.733046293258667,
        0.0,
        -0.6654272675514221,
        -0.615662157535553,
        -0.7351738810539246,
        0.0,
        -0.5822982788085938,
        -2.0828888416290283,
        -1.4760388135910034,
        1.0
      ],
      "type": "MAT4"
    },
    {
      "bufferView": 0,
      "componentType": 5123,
      "count": 1952,
      "type": "VEC4"
    },
    {
      "bufferView": 4,
      "componentType": 5126,
      "count": 1952,
      "max": [
        1.0,
        0.49954846501350403,
        0.2968151569366455,
        0.23924694955348969
      ],
      "min": [
        0.2727329432964325,
        0.0,
        0.0,
        0.0
      ],
      "type": "VEC4"
    },
    {
      "bufferView": 0,
      "byteOffset": 15616,
      "componentType": 5123,
      "count": 34,
      "type": "VEC4"
    },
    {
      "bufferView": 4,
      "byteOffset": 31232,
      "componentType": 5126,
      "count": 34,
      "max": [
        1.0,
        0.0,
        0.0,
        0.0
      ],
      "min": [
        1.0,
        0.0,
        0.0,
        0.0
      ],
      "type": "VEC4"
    },
    {
      "bufferView": 0,
      "byteOffset": 15888,
      "componentType": 5123,
      "count": 1336,
      "type": "VEC4"
    },
    {
      "bufferView": 4,
      "byteOffset": 31776,
      "componentType": 5126,
      "count": 1336,
      "max": [
        1.0,
        0.5,
        0.3100872039794922,
        0.19847308099269867
      ],
      "min": [
        0.29309049248695374,
        0.0,
        0.0,
        0.0
      ],
      "type": "VEC4"
    }
  ],
  "asset": {
    "extras": {
      "author": "joaomoreira28 (https://sketchfab.com/joaomoreira28)",
      "license": "CC-BY-4.0 (http://creativecommons.org/licenses/by/4.0/)",
      "source": "https://sketchfab.com/3d-models/corruptedhorse-64d9f3d54b8e471db9b876ed6dfd8c9f",
      "title": "CorruptedHorse"
    },
    "generator": "Sketchfab-13.88.0",
    "version": "2.0"
  },
  "bufferViews": [
    {
      "buffer": 0,
      "byteLength": 26576,
      "byteStride": 8,
      "name": "shortBufferViews",
      "target": 34962
    },
    {
      "buffer": 0,
      "byteLength": 55200,
      "byteOffset": 26576,
      "name": "floatBufferViews",
      "target": 34963
    },
    {
      "buffer": 0,
      "byteLength": 26576,
      "byteOffset": 81776,
      "byteStride": 8,
      "name": "floatBufferViews",
      "target": 34962
    },
    {
      "buffer": 0,
      "byteLength": 79728,
      "byteOffset": 108352,
      "byteStride": 12,
      "name": "floatBufferViews",
      "target": 34962
    },
    {
      "buffer": 0,
      "byteLength": 53152,
      "byteOffset": 188080,
      "byteStride": 16,
      "name": "floatBufferViews",
      "target": 34962
    },
    {
      "buffer": 0,
      "byteLength": 3392,
      "byteOffset": 241232,
      "name": "floatBufferViews"
    }
  ],
  "buffers": [
    {
      "byteLength": 244624,
      "uri": "scene.bin"
    }
  ],
  "images": [
    {
      "uri": "textures/Horse_baseColor.png"
    },
    {
      "uri": "textures/Material_baseColor.png"
    }
  ],
  "materials": [
    {
      "doubleSided": true,
      "name": "Horse",
      "pbrMetallicRoughness": {
        "baseColorTexture": {
          "index": 0
        },
        "metallicFactor": 0.0
      }
    },
    {
      "doubleSided": true,
      "name": "Eyes",
      "pbrMetallicRoughness": {
        "baseColorFactor": [
          0.8,
          0.00909225,
          0.0,
          1.0
        ],
        "metallicFactor": 0.0
      }
    },
    {
      "doubleSided": true,
      "name": "Material",
      "pbrMetallicRoughness": {
        "baseColorTexture": {
          "index": 1
        },
        "metallicFactor": 0.0
      }
    }
  ],
  "meshes": [
    {
      "name": "Horse_Horse_0",
      "primitives": [
        {
          "attributes": {
            "JOINTS_0": 13,
            "NORMAL": 1,
            "POSITION": 0,
            "TEXCOORD_0": 2,
            "WEIGHTS_0": 14
          },
          "indices": 3,
          "material": 0,
          "mode": 4
        }
      ]
    },
    {
      "name": "Horse_Eyes_0",
      "primitives": [
        {
          "attributes": {
            "JOINTS_0": 15,
            "NORMAL": 5,
            "POSITION": 4,
            "TEXCOORD_0": 6,
            "WEIGHTS_0": 16
          },
          "indices": 7,
          "material": 1,
          "mode": 4
        }
      ]
    },
    {
      "name": "Horse.003_Material_0",
      "primitives": [
        {
          "attributes": {
            "JOINTS_0": 17,
            "NORMAL": 9,
            "POSITION": 8,
            "TEXCOORD_0": 10,
            "WEIGHTS_0": 18
          },
          "indices": 11,
          "material": 2,
          "mode": 4
        }
      ]
    }
  ],
  "nodes": [
    {
      "children": [
        1
      ],
      "matrix": [
        1.0,
        0.0,
        0.0,
        0.0,
        0.0,
        2.220446049250313e-16,
        -1.0,
        0.0,
        0.0,
        1.0,
        2.220446049250313e-16,
        0.0,
        0.0,
        0.0,
        0.0,
        1.0
      ],
      "name": "Sketchfab_model"
    },
    {
      "children": [
        2
      ],
      "matrix": [
        0.009999999776482582,
        0.0,
        0.0,
        0.0,
        0.0,
        0.0,
        0.009999999776482582,
        0.0,
        0.0,
        -0.009999999776482582,
        0.0,
        0.0,
        0.0,
        0.0,
        0.0,
        1.0
      ],
      "name": "5090ff2efce048a6aea3c0164135b993.fbx"
    },
    {
      "children": [
        3
      ],
      "name": "RootNode"
    },
    {
      "children": [
        4
      ],
      "matrix": [
        100.0,
        0.0,
        0.0,
        0.0,
        0.0,
        -1.629206793918314e-05,
        -99.99999999999868,
        0.0,
        0.0,
        99.99999999999868,
        -1.629206793918314e-05,
        0.0,
        0.0,
        0.0,
        0.0,
        1.0
      ],
      "name": "Horse_Game"
    },
    {
      "children": [
        5,
        7,
        8,
        62,
        6,
        61
      ],
      "name": "Object_4"
    },
    {
      "children": [
        9
      ],
      "name": "_rootJoint"
    },
    {
      "matrix": [
        73.52494597434998,
        0.0,
        0.0,
        0.0,
        0.0,
        4.502104487248488e-15,
        -73.52494597434998,
        0.0,
        0.0,
        73.52494597434998,
        4.502104487248488e-15,
        0.0,
        0.0,
        0.0,
        -4.76837158203125e-07,
        1.0
      ],
      "name": "Object_6"
    },
    {
      "mesh": 0,
      "name": "Object_7",
      "skin": 0
    },
    {
      "mesh": 1,
      "name": "Object_8",
      "skin": 0
    },
    {
      "children": [
        10
      ],
      "name": "Root_01",
      "rotation": [
        -1.3234889800848443e-23,
        -0.0,
        0.0,
        1.0
      ],
      "translation": [
        0.0,
        -0.18981659412384033,
        0.0
      ]
    },
    {
      "children": [
        11,
        42,
        45,
        53
      ],
      "name": "DEF-spine.001_02",
      "rotation": [
        3.500621460261755e-05,
        -0.03960689902305603,
        0.9992148876190186,
        -0.0009507249924354255
      ],
      "scale": [
        1.0000003576278687,
        1.0000004768371582,
        1.0000109672546387
      ],
      "translation": [
        -0.0002666388463694602,
        0.7527682781219482,
        1.3141472339630127
      ]
    },
    {
      "children": [
        12
      ],
      "name": "DEF-spine.002_03",
      "rotation": [
        4.4969048929033306e-08,
        0.9966952800750732,
        -0.08123240619897842,
        7.897106684140454e-07
      ],
      "scale": [
        1.0,
        1.000000238418579,
        1.0
      ],
      "translation": [
        9.367795428261161e-11,
        0.2810775339603424,
        1.5980742773535894e-07
      ]
    },
    {
      "children": [
        13
      ],
      "name": "DEF-spine.003_04",
      "rotation": [
        -0.051601801067590714,
        -0.0004239391128066927,
        -0.002238373039290309,
        0.9986651539802551
      ],
      "scale": [
        1.0000001192092896,
        0.9999175071716309,
        0.9999117851257324
      ],
      "translation": [
        -1.0822986951097846e-10,
        0.1818140745162964,
        2.1783506554129417e-08
      ]
    },
    {
      "children": [
        14
      ],
      "name": "DEF-spine.004_05",
      "rotation": [
        -0.08154714852571487,
        -0.0002055209333775565,
        -0.006831514649093151,
        0.9966460466384888
      ],
      "scale": [
        1.0,
        1.0000828504562378,
        1.0001232624053955
      ],
      "translation": [
        1.9463186617940664e-10,
        0.17792992293834686,
        -9.432142178411596e-09
      ]
    },
    {
      "children": [
        15,
        23,
        32,
        41
      ],
      "name": "DEF-spine.005_06",
      "rotation": [
        -0.03882858157157898,
        0.0005490137846209109,
        -0.004523356910794973,
        0.9992355108261108
      ],
      "scale": [
        1.0000001192092896,
        1.0000003576278687,
        1.0000115633010864
      ],
      "translation": [
        1.1059455573558807e-09,
        0.24060849845409393,
        8.223378245020285e-08
      ]
    },
    {
      "children": [
        16
      ],
      "name": "DEF-spine.006_00",
      "rotation": [
        -0.2361561506986618,
        0.0018669283017516136,
        -0.0041565196588635445,
        0.9717044234275818
      ],
      "scale": [
        1.0,
        0.999997615814209,
        0.9999939799308777
      ],
      "translation": [
        -1.1641532182693481e-09,
        0.18222370743751526,
        4.2484316509217024e-08
      ]
    },
    {
      "children": [
        17
      ],
      "name": "DEF-neck.001_07",
      "rotation": [
        -0.1036897674202919,
        -0.003165008034557104,
        -0.009962151758372784,
        0.994554877281189
      ],
      "scale": [
        0.999999463558197,
        0.9999706745147705,
        0.9999784231185913
      ],
      "translation": [
        -2.3283064365386963e-09,
        0.33610570430755615,
        -1.7031561583280563e-07
      ]
    },
    {
      "children": [
        18
      ],
      "name": "DEF-neck.002_08",
      "rotation": [
        0.10680010169744492,
        -0.005332343280315399,
        -0.00057280930923298,
        0.9942660331726074
      ],
      "scale": [
        1.0000004768371582,
        0.9999992251396179,
        1.0000009536743164
      ],
      "translation": [
        -1.862645149230957e-09,
        0.18511058390140533,
        1.7869751900434494e-07
      ]
    },
    {
      "children": [
        19,
        21
      ],
      "name": "DEF-head_09",
      "rotation": [
        0.6773071885108948,
        0.005016351118683815,
        0.014718537218868732,
        0.7355359792709351
      ],
      "scale": [
        0.9999993443489075,
        0.9999989867210388,
        1.0000014305114746
      ],
      "translation": [
        6.938893903907228e-18,
        0.2088501751422882,
        -5.689798854291439e-08
      ]
    },
    {
      "children": [
        20
      ],
      "name": "DEF-ear.L_010",
      "rotation": [
        0.8531460762023926,
        0.21434132754802704,
        -0.007713486440479755,
        -0.475541889667511
      ],
      "scale": [
        1.0000005960464478,
        0.9999992847442627,
        1.0000003576278687
      ],
      "translation": [
        0.0663999617099762,
        -0.05548331141471863,
        -0.09848518669605255
      ]
    },
    {
      "name": "DEF-ear.L.001_011",
      "rotation": [
        0.0729706808924675,
        -3.2496646440449695e-07,
        -2.0076966222859483e-07,
        0.9973341822624207
      ],
      "scale": [
        1.000000238418579,
        0.9999988079071045,
        1.0000005960464478
      ],
      "translation": [
        -4.470348358154297e-08,
        0.08310003578662872,
        2.7939677238464355e-08
      ]
    },
    {
      "children": [
        22
      ],
      "name": "DEF-ear.R_012",
      "rotation": [
        0.8493382334709167,
        -0.21392333507537842,
        0.03808062896132469,
        -0.4810524582862854
      ],
      "scale": [
        1.0000020265579224,
        0.9999963045120239,
        1.0000015497207642
      ],
      "translation": [
        -0.06640004366636276,
        -0.055483415722846985,
        -0.09848500788211823
      ]
    },
    {
      "name": "DEF-ear.R.001_013",
      "rotation": [
        0.07297120988368988,
        2.8574677912729385e-07,
        -1.2606446375684754e-07,
        0.9973340630531311
      ],
      "scale": [
        0.9999987483024597,
        1.0000027418136597,
        0.9999991655349731
      ],
      "translation": [
        -4.470348358154297e-08,
        0.08309987932443619,
        1.2014061212539673e-07
      ]
    },
    {
      "children": [
        24
      ],
      "name": "DEF-shoulder.L_014",
      "rotation": [
        0.5505762100219727,
        0.1582048535346985,
        -0.12553341686725616,
        0.8099868297576904
      ],
      "scale": [
        0.9999999403953552,
        1.0,
        1.0
      ],
      "translation": [
        0.05182386189699173,
        0.09235832840204239,
        -0.15363642573356628
      ]
    },
    {
      "children": [
        25
      ],
      "name": "DEF-upper_arm.L_015",
      "rotation": [
        -0.41593316197395325,
        0.6739842891693115,
        0.38457953929901123,
        -0.4741764962673187
      ],
      "scale": [
        0.99998539686203,
        0.9999620914459229,
        0.9999927282333374
      ],
      "translation": [
        -0.05943891033530235,
        0.40594542026519775,
        -0.023483503609895706
      ]
    },
    {
      "children": [
        26
      ],
      "name": "DEF-upper_arm.L.001_016",
      "rotation": [
        -5.685670156907463e-09,
        -0.18455122411251068,
        -1.5493253613385605e-07,
        0.9828228950500488
      ],
      "scale": [
        1.000003695487976,
        1.0000001192092896,
        0.9999962449073792
      ],
      "translation": [
        5.21540641784668e-08,
        0.1474011242389679,
        1.6653345369377348e-16
      ]
    },
    {
      "children": [
        27
      ],
      "name": "DEF-forearm.L_017",
      "rotation": [
        0.2020624577999115,
        -0.18455134332180023,
        0.03880224749445915,
        0.961044192314148
      ],
      "scale": [
        1.0000014305114746,
        0.9999997615814209,
        0.9999985694885254
      ],
      "translation": [
        2.2351741790771484e-08,
        0.14740107953548431,
        1.4901161193847656e-08
      ]
    },
    {
      "children": [
        28
      ],
      "name": "DEF-forearm.L.001_018",
      "rotation": [
        -1.2191402731787093e-07,
        0.2094733566045761,
        -1.4286783311945328e-07,
        0.9778143763542175
      ],
      "scale": [
        1.0000011920928955,
        1.0000004768371582,
        0.9999997615814209
      ],
      "translation": [
        2.2351741790771484e-08,
        0.18528836965560913,
        -5.21540641784668e-08
      ]
    },
    {
      "children": [
        29
      ],
      "name": "DEF-forefoot.L_019",
      "rotation": [
        -0.03479280695319176,
        0.20701172947883606,
        -0.006568968761712313,
        0.9776975512504578
      ],
      "scale": [
        1.000000238418579,
        0.9999995827674866,
        0.9999985694885254
      ],
      "translation": [
        -2.2351741790771484e-08,
        0.18528828024864197,
        3.725290298461914e-09
      ]
    },
    {
      "children": [
        30
      ],
      "name": "DEF-forefoot.L.001_020",
      "rotation": [
        1.5844005247345194e-05,
        0.006598056759685278,
        2.796706758090295e-05,
        0.999978244304657
      ],
      "scale": [
        0.9999997615814209,
        1.0,
        0.9999999403953552
      ],
      "translation": [
        -2.2351741790771484e-08,
        0.1439099758863449,
        1.1175870895385742e-08
      ]
    },
    {
      "children": [
        31
      ],
      "name": "DEF-f_toe.L_021",
      "rotation": [
        0.14079998433589935,
        -0.06051477789878845,
        0.24285723268985748,
        0.9578797817230225
      ],
      "scale": [
        1.0,
        1.000000238418579,
        0.9999998807907104
      ],
      "translation": [
        2.2351741790771484e-08,
        0.1439100056886673,
        7.450580596923828e-09
      ]
    },
    {
      "name": "DEF-f_hoof.L_022",
      "rotation": [
        0.08473866432905197,
        0.019156286492943764,
        0.1557076871395111,
        0.9839754700660706
      ],
      "scale": [
        0.9999999403953552,
        0.9999997019767761,
        1.0
      ],
      "translation": [
        4.6566128730773926e-09,
        0.11319136619567871,
        -5.587935447692871e-09
      ]
    },
    {
      "children": [
        33
      ],
      "name": "DEF-shoulder.R_023",
      "rotation": [
        0.43631431460380554,
        -0.11043206602334976,
        0.13906531035900116,
        0.8820971846580505
      ],
      "scale": [
        0.9999998211860657,
        0.9999999403953552,
        0.9999998807907104
      ],
      "translation": [
        -0.05182349309325218,
        0.09235829859972,
        -0.15363653004169464
      ]
    },
    {
      "children": [
        34
      ],
      "name": "DEF-upper_arm.R_024",
      "rotation": [
        0.32340699434280396,
        0.7099865078926086,
        0.3415089249610901,
        0.524117112159729
      ],
      "scale": [
        0.9999988079071045,
        0.9999451637268066,
        0.9999969005584717
      ],
      "translation": [
        0.059438906610012054,
        0.4059453308582306,
        -0.023483319208025932
      ]
    },
    {
      "children": [
        35
      ],
      "name": "DEF-upper_arm.R.001_025",
      "rotation": [
        1.5587208679335163e-07,
        0.1995563507080078,
        8.601467982316535e-08,
        0.9798863530158997
      ],
      "scale": [
        1.0000008344650269,
        0.9999999403953552,
        0.9999997019767761
      ],
      "translation": [
        -5.587935447692871e-08,
        0.14740106463432312,
        3.725290298461914e-08
      ]
    },
    {
      "children": [
        36
      ],
      "name": "DEF-forearm.R_026",
      "rotation": [
        0.29863619804382324,
        0.19955630600452423,
        -0.06400684267282486,
        0.9310729503631592
      ],
      "scale": [
        0.9999997019767761,
        0.9999996423721313,
        0.9999997615814209
      ],
      "translation": [
        -5.587935447692871e-08,
        0.14740100502967834,
        5.551115123125783e-17
      ]
    },
    {
      "children": [
        37
      ],
      "name": "DEF-forearm.R.001_027",
      "rotation": [
        -1.801280120616866e-07,
        -0.19364617764949799,
        1.841624310827683e-07,
        0.9810715317726135
      ],
      "scale": [
        1.0000007152557373,
        1.000000238418579,
        1.000000238418579
      ],
      "translation": [
        -3.725290298461914e-09,
        0.18528838455677032,
        -1.1175870895385742e-08
      ]
    },
    {
      "children": [
        38
      ],
      "name": "DEF-forefoot.R_028",
      "rotation": [
        0.045307107269763947,
        -0.19117939472198486,
        -0.06562524288892746,
        0.9783102869987488
      ],
      "scale": [
        0.9999995827674866,
        0.9999997019767761,
        0.9999994039535522
      ],
      "translation": [
        -1.4901161193847656e-08,
        0.18528813123703003,
        -8.940696716308594e-08
      ]
    },
    {
      "children": [
        39
      ],
      "name": "DEF-forefoot.R.001_029",
      "rotation": [
        3.9491409552283585e-05,
        -0.005177266895771027,
        -5.060665716882795e-05,
        0.9999865889549255
      ],
      "scale": [
        0.9999998211860657,
        0.9999999403953552,
        0.9999998807907104
      ],
      "translation": [
        1.1175870895385742e-07,
        0.14391003549098969,
        0.0
      ]
    },
    {
      "children": [
        40
      ],
      "name": "DEF-f_toe.R_030",
      "rotation": [
        -0.04202384129166603,
        0.06317327916622162,
        0.0791088119149208,
        0.9939743280410767
      ],
      "scale": [
        1.0,
        1.0000001192092896,
        1.0
      ],
      "translation": [
        -2.9802322387695313e-08,
        0.1439100205898285,
        3.725290298461914e-09
      ]
    },
    {
      "name": "DEF-f_hoof.R_031",
      "rotation": [
        0.049414753913879395,
        -0.018478496000170708,
        -0.10082519054412842,
        0.9935044050216675
      ],
      "scale": [
        1.0,
        0.9999997019767761,
        1.0
      ],
      "translation": [
        5.587935447692871e-08,
        0.11319147050380707,
        -3.5390257835388184e-08
      ]
    },
    {
      "name": "DEF-chest_032",
      "rotation": [
        0.7629391551017761,
        -3.848922460747417e-07,
        4.5379189828054223e-07,
        0.646470308303833
      ],
      "scale": [
        0.9999998807907104,
        0.9999998807907104,
        1.0
      ],
      "translation": [
        0.0008078005630522966,
        0.054808370769023895,
        0.0880165845155716
      ]
    },
    {
      "children": [
        43
      ],
      "name": "DEF-tail.001_033",
      "rotation": [
        0.001268091145902872,
        -0.3602350652217865,
        0.932840883731842,
        0.006096282042562962
      ],
      "scale": [
        1.0000001192092896,
        1.0000016689300537,
        1.0000064373016357
      ],
      "translation": [
        1.864464138634503e-11,
        5.2908262659912e-08,
        1.4007872550791944e-07
      ]
    },
    {
      "children": [
        44
      ],
      "name": "DEF-tail.002_034",
      "rotation": [
        -0.42164546251296997,
        -0.00188449677079916,
        -0.005070603918284178,
        0.906744658946991
      ],
      "scale": [
        1.0000011920928955,
        0.9999960064888,
        1.0000027418136597
      ],
      "translation": [
        -2.3283064365386963e-10,
        0.23759964108467102,
        -2.5661847757874057e-08
      ]
    },
    {
      "name": "DEF-tail.003_035",
      "rotation": [
        0.06544649600982666,
        0.0007814361015334725,
        -0.005352831911295652,
        0.9978414177894592
      ],
      "scale": [
        0.999997615814209,
        1.0000141859054565,
        0.9999880194664001
      ],
      "translation": [
        1.3969838619232178e-09,
        0.29850780963897705,
        -4.988396540284157e-08
      ]
    },
    {
      "children": [
        46
      ],
      "name": "DEF-thigh.L_036",
      "rotation": [
        -0.15903273224830627,
        0.7275514602661133,
        -0.6648865938186646,
        0.05747557803988457
      ],
      "scale": [
        0.9999997019767761,
        0.9999896883964539,
        0.9999992847442627
      ],
      "translation": [
        -0.12640945613384247,
        0.12153302133083344,
        0.007191602606326342
      ]
    },
    {
      "children": [
        47
      ],
      "name": "DEF-thigh.L.001_037",
      "rotation": [
        1.7020532538936095e-07,
        0.008425711654126644,
        -6.403076402428098e-10,
        0.9999645948410034
      ],
      "scale": [
        0.9999997019767761,
        0.9999997019767761,
        0.9999998807907104
      ],
      "translation": [
        -2.9802322387695313e-08,
        0.201338529586792,
        -2.2351741790771484e-08
      ]
    },
    {
      "children": [
        48
      ],
      "name": "DEF-lower_leg.L_038",
      "rotation": [
        0.43271613121032715,
        0.008425991982221603,
        -0.004044459667056799,
        0.9014818072319031
      ],
      "scale": [
        1.0000001192092896,
        1.0,
        1.0000003576278687
      ],
      "translation": [
        -2.9802322387695313e-08,
        0.20133820176124573,
        -3.725290298461914e-09
      ]
    },
    {
      "children": [
        49
      ],
      "name": "DEF-lower_leg.L.001_039",
      "rotation": [
        -5.867441643658822e-08,
        0.00604682881385088,
        4.6566992040197874e-08,
        0.9999818205833435
      ],
      "scale": [
        0.9999999403953552,
        0.9999997019767761,
        0.9999998807907104
      ],
      "translation": [
        7.450580596923828e-09,
        0.2529784142971039,
        1.1175870895385742e-08
      ]
    },
    {
      "children": [
        50
      ],
      "name": "DEF-hind_foot.L_040",
      "rotation": [
        -0.5055549740791321,
        0.020786935463547707,
        0.09446397423744202,
        0.8573555946350098
      ],
      "scale": [
        1.0000001192092896,
        1.000000238418579,
        1.0
      ],
      "translation": [
        2.2351741790771484e-08,
        0.25297826528549194,
        -1.862645149230957e-08
      ]
    },
    {
      "children": [
        51
      ],
      "name": "DEF-hind_foot.L.001_041",
      "rotation": [
        -2.887707353238511e-07,
        -0.004096228163689375,
        -9.941955170233996e-08,
        0.9999915957450867
      ],
      "scale": [
        0.9999998807907104,
        0.9999995827674866,
        0.9999998807907104
      ],
      "translation": [
        1.30385160446167e-08,
        0.15942619740962982,
        -6.332993507385254e-08
      ]
    },
    {
      "children": [
        52
      ],
      "name": "DEF-r_toe.L_042",
      "rotation": [
        0.00757765443995595,
        0.057047463953495026,
        0.003554805414751172,
        0.9983364939689636
      ],
      "scale": [
        1.0,
        0.9999999403953552,
        1.0000001192092896
      ],
      "translation": [
        -2.514570951461792e-08,
        0.15942609310150146,
        3.725290298461914e-09
      ]
    },
    {
      "name": "DEF-r_hoof.L_043",
      "rotation": [
        0.3460201323032379,
        -0.012231985107064247,
        -0.06891835480928421,
        0.9356124997138977
      ],
      "scale": [
        1.0,
        1.000000238418579,
        1.0000001192092896
      ],
      "translation": [
        -9.778887033462524e-09,
        0.11108352988958359,
        2.7939677238464355e-08
      ]
    },
    {
      "children": [
        54
      ],
      "name": "DEF-thigh.R_044",
      "rotation": [
        0.12657493352890015,
        0.8401550650596619,
        -0.5235809683799744,
        -0.06309734284877777
      ],
      "scale": [
        0.9999998807907104,
        0.9999917149543762,
        0.9999974370002747
      ],
      "translation": [
        0.12640950083732605,
        0.12153305113315582,
        0.007191882003098726
      ]
    },
    {
      "children": [
        55
      ],
      "name": "DEF-thigh.R.001_045",
      "rotation": [
        -2.1048113296728843e-07,
        0.004551909863948822,
        1.3969984991035744e-07,
        0.9999896287918091
      ],
      "scale": [
        0.9999997615814209,
        0.9999998807907104,
        0.9999998211860657
      ],
      "translation": [
        7.450580596923828e-09,
        0.20133839547634125,
        -3.725290298461914e-09
      ]
    },
    {
      "children": [
        56
      ],
      "name": "DEF-lower_leg.R_046",
      "rotation": [
        0.3807933032512665,
        0.004551631864160299,
        -0.0018745738780125976,
        0.9246470928192139
      ],
      "scale": [
        1.0000001192092896,
        0.9999998211860657,
        1.000000238418579
      ],
      "translation": [
        1.862645149230957e-08,
        0.20133835077285767,
        -4.470348358154297e-08
      ]
    },
    {
      "children": [
        57
      ],
      "name": "DEF-lower_leg.R.001_047",
      "rotation": [
        -1.2479978295232286e-07,
        -0.006379236932843924,
        -2.4214882543560634e-08,
        0.9999796748161316
      ],
      "scale": [
        1.0,
        0.9999999403953552,
        0.9999999403953552
      ],
      "translation": [
        1.30385160446167e-08,
        0.25297826528549194,
        -4.842877388000488e-08
      ]
    },
    {
      "children": [
        58
      ],
      "name": "DEF-hind_foot.R_048",
      "rotation": [
        -0.377029150724411,
        -0.021633200347423553,
        -0.0842173770070076,
        0.9221108555793762
      ],
      "scale": [
        1.0000001192092896,
        1.0000003576278687,
        0.9999997019767761
      ],
      "translation": [
        3.725290298461914e-08,
        0.2529783844947815,
        1.1920928955078125e-07
      ]
    },
    {
      "children": [
        59
      ],
      "name": "DEF-hind_foot.R.001_049",
      "rotation": [
        2.226614242317737e-06,
        0.006975025404244661,
        1.0356561688240618e-06,
        0.9999756813049316
      ],
      "scale": [
        0.9999999403953552,
        0.9999997019767761,
        0.9999998211860657
      ],
      "translation": [
        1.862645149230957e-08,
        0.15942616760730743,
        7.450580596923828e-09
      ]
    },
    {
      "children": [
        60
      ],
      "name": "DEF-r_toe.R_050",
      "rotation": [
        -0.1722303330898285,
        -0.05370628088712692,
        -0.02608374133706093,
        0.9832456111907959
      ],
      "scale": [
        1.0,
        0.9999998807907104,
        1.0000001192092896
      ],
      "translation": [
        -1.6763806343078613e-08,
        0.15942615270614624,
        1.862645149230957e-08
      ]
    },
    {
      "name": "DEF-r_hoof.R_051",
      "rotation": [
        0.09954105317592621,
        0.013005205430090427,
        0.01982603594660759,
        0.9947509169578552
      ],
      "scale": [
        0.9999999403953552,
        1.0000001192092896,
        0.9999999403953552
      ],
      "translation": [
        1.862645149230957e-09,
        0.11108345538377762,
        1.1175870895385742e-08
      ]
    },
    {
      "matrix": [
        73.52494597434998,
        0.0,
        0.0,
        0.0,
        0.0,
        4.502104487248488e-15,
        -73.52494597434998,
        0.0,
        0.0,
        73.52494597434998,
        4.502104487248488e-15,
        0.0,
        0.0,
        0.0,
        -4.76837158203125e-07,
        1.0
      ],
      "name": "Object_61"
    },
    {
      "mesh": 2,
      "name": "Object_62",
      "skin": 0
    }
  ],
  "samplers": [
    {
      "magFilter": 9729,
      "minFilter": 9987,
      "wrapS": 10497,
      "wrapT": 10497
    }
  ],
  "scene": 0,
  "scenes": [
    {
      "name": "Sketchfab_Scene",
      "nodes": [
        0
      ]
    }
  ],
  "skins": [
    {
      "inverseBindMatrices": 12,
      "joints": [
        5,
        9,
        10,
        11,
        12,
        13,
        14,
        15,
        16,
        17,
        18,
        19,
        20,
        21,
        22,
        23,
        24,
        25,
        26,
        27,
        28,
        29,
        30,
        31,
        32,
        33,
        34,
        35,
        36,
        37,
        38,
        39,
        40,
        41,
        42,
        43,
        44,
        45,
        46,
        47,
        48,
        49,
        50,
        51,
        52,
        53,
        54,
        55,
        56,
        57,
        58,
        59,
        60
      ],
      "skeleton": 5
    }
  ],
  "textures": [
    {
      "sampler": 0,
      "source": 0
    },
    {
      "sampler": 0,
      "source": 1
    }
  ]
}
