{
  "accessors": [
    {
      "bufferView": 2,
      "componentType": 5126,
      "count": 33190,
      "max": [
        -10.815738677978516,
        7.309953212738037,
        1.8583780527114868
      ],
      "min": [
        -10.999343872070313,
        7.124964237213135,
        1.5223499536514282
      ],
      "type": "VEC3"
    },
    {
      "bufferView": 2,
      "byteOffset": 398280,
      "componentType": 5126,
      "count": 33190,
      "max": [
        0.999958336353302,
        0.9999859929084778,
        0.9999876618385315
      ],
      "min": [
        -0.9998804926872253,
        -0.9999954700469971,
        -0.9999996423721313
      ],
      "type": "VEC3"
    },
    {
      "bufferView": 3,
      "componentType": 5126,
      "count": 33190,
      "max": [
        0.9998885989189148,
        0.9997987151145935,
        0.99998939037323,
        1.0
      ],
      "min": [
        -0.9999828934669495,
        -0.9999902248382568,
        -0.9999917149543762,
        -1.0
      ],
      "type": "VEC4"
    },
    {
      "bufferView": 1,
      "componentType": 5126,
      "count": 33190,
      "max": [
        0.9999729990959167,
        0.8684700131416321
      ],
      "min": [
        6.70000008540228e-05,
        0.00010399999882793054
      ],
      "type": "VEC2"
    },
    {
      "bufferView": 0,
      "componentType": 5125,
      "count": 192000,
      "type": "SCALAR"
    }
  ],
  "asset": {
    "extras": {
      "author": "Minneapolis Institute of Art (https://sketchfab.com/artsmia)",
      "license": "CC0-1.0 (http://creativecommons.org/publicdomain/zero/1.0/)",
      "source": "https://sketchfab.com/3d-models/sultanabad-ware-ewer-before-1220-ce-24371574dcfb4a3f9118e6ed8a078e2e",
      "title": "Sultanabad ware ewer, before 1220 CE"
    },
    "generator": "Sketchfab-13.5.0",
    "version": "2.0"
  },
  "bufferViews": [
    {
      "buffer": 0,
      "byteLength": 768000,
      "name": "floatBufferViews",
      "target": 34963
    },
    {
      "buffer": 0,
      "byteLength": 265520,
      "byteOffset": 768000,
      "byteStride": 8,
      "name": "floatBufferViews",
      "target": 34962
    },
    {
      "buffer": 0,
      "byteLength": 796560,
      "byteOffset": 1033520,
      "byteStride": 12,
      "name": "floatBufferViews",
      "target": 34962
    },
    {
      "buffer": 0,
      "byteLength": 531040,
      "byteOffset": 1830080,
      "byteStride": 16,
      "name": "floatBufferViews",
      "target": 34962
    }
  ],
  "buffers": [
    {
      "byteLength": 2361120,
      "uri": "scene.bin"
    }
  ],
  "extensionsUsed": [
    "KHR_materials_clearcoat"
  ],
  "images": [
    {
      "uri": "textures/Mia_001097_SultanabadEwer_64k_baseColor.jpeg"
    },
    {
      "uri": "textures/Mia_001097_SultanabadEwer_64k_metallicRoughness.png"
    },
    {
      "uri": "textures/Mia_001097_SultanabadEwer_64k_normal.png"
    },
    {
      "uri": "textures/Mia_001097_SultanabadEwer_64k_clearcoat.png"
    }
  ],
  "materials": [
    {
      "doubleSided": true,
      "extensions": {
        "KHR_materials_clearcoat": {
          "clearcoatFactor": 0.039095680320697636,
          "clearcoatNormalTexture": {
            "index": 2
          },
          "clearcoatRoughnessFactor": 0.04,
          "clearcoatTexture": {
            "index": 3
          }
        }
      },
      "name": "Mia_001097_SultanabadEwer_64k",
      "normalTexture": {
        "index": 2
      },
      "occlusionTexture": {
        "index": 1
      },
      "pbrMetallicRoughness": {
        "baseColorTexture": {
          "index": 0
        },
        "metallicFactor": 0.0,
        "metallicRoughnessTexture": {
          "index": 1
        },
        "roughnessFactor": 0.6364189255281119
      }
    }
  ],
  "meshes": [
    {
      "name": "Object_0",
      "primitives": [
        {
          "attributes": {
            "NORMAL": 1,
            "POSITION": 0,
            "TANGENT": 2,
            "TEXCOORD_0": 3
          },
          "indices": 4,
          "material": 0,
          "mode": 4
        }
      ]
    }
  ],
  "nodes": [
    {
      "children": [
        1
      ],
      "matrix": [
        1.0,
        0.0,
        0.0,
        0.0,
        0.0,
        2.220446049250313e-16,
        -1.0,
        0.0,
        0.0,
        1.0,
        2.220446049250313e-16,
        0.0,
        0.0,
        0.0,
        0.0,
        1.0
      ],
      "name": "Sketchfab_model"
    },
    {
      "children": [
        2
      ],
      "name": "Mia_001097_SultanabadEwer_64k.obj.cleaner.materialmerger.gles"
    },
    {
      "mesh": 0,
      "name": "Object_2"
    }
  ],
  "samplers": [
    {
      "magFilter": 9729,
      "minFilter": 9987,
      "wrapS": 10497,
      "wrapT": 10497
    }
  ],
  "scene": 0,
  "scenes": [
    {
      "name": "Sketchfab_Scene",
      "nodes": [
        0
      ]
    }
  ],
  "textures": [
    {
      "sampler": 0,
      "source": 0
    },
    {
      "sampler": 0,
      "source": 1
    },
    {
      "sampler": 0,
      "source": 2
    },
    {
      "sampler": 0,
      "source": 3
    }
  ]
}
