{
  "accessors": [
    {
      "bufferView": 2,
      "componentType": 5126,
      "count": 1690,
      "max": [
        80.32551574707031,
        80.31509399414063,
        80.50605010986328
      ],
      "min": [
        -80.28311157226563,
        -80.31510162353516,
        -1.3543200492858887
      ],
      "type": "VEC3"
    },
    {
      "bufferView": 2,
      "byteOffset": 20280,
      "componentType": 5126,
      "count": 1690,
      "max": [
        1.0,
        1.0,
        1.0
      ],
      "min": [
        -1.0,
        -1.0,
        -1.0
      ],
      "type": "VEC3"
    },
    {
      "bufferView": 3,
      "componentType": 5126,
      "count": 1690,
      "max": [
        1.0,
        1.0,
        1.0,
        1.0
      ],
      "min": [
        -0.9877792596817017,
        -1.0,
        -1.0,
        -1.0
      ],
      "type": "VEC4"
    },
    {
      "bufferView": 1,
      "componentType": 5126,
      "count": 1690,
      "max": [
        0.9916315078735352,
        0.9979999661445618
      ],
      "min": [
        0.0020000003278255463,
        0.007735705003142357
      ],
      "type": "VEC2"
    },
    {
      "bufferView": 1,
      "byteOffset": 13520,
      "componentType": 5126,
      "count": 1690,
      "max": [
        0.9916315078735352,
        0.9979999661445618
      ],
      "min": [
        0.0020000003278255463,
        0.007735705003142357
      ],
      "type": "VEC2"
    },
    {
      "bufferView": 0,
      "componentType": 5125,
      "count": 8112,
      "type": "SCALAR"
    }
  ],
  "asset": {
    "extras": {
      "author": "Pedram Ashoori (https://sketchfab.com/pedramashoori)",
      "license": "CC-BY-4.0 (http://creativecommons.org/licenses/by/4.0/)",
      "source": "https://sketchfab.com/3d-models/indian-dhal-shield-19th-century-fca1088c468c480a845977189d66bf59",
      "title": "Indian dhal (shield), 19th century"
    },
    "generator": "Sketchfab-12.68.0",
    "version": "2.0"
  },
  "bufferViews": [
    {
      "buffer": 0,
      "byteLength": 32448,
      "name": "floatBufferViews",
      "target": 34963
    },
    {
      "buffer": 0,
      "byteLength": 27040,
      "byteOffset": 32448,
      "byteStride": 8,
      "name": "floatBufferViews",
      "target": 34962
    },
    {
      "buffer": 0,
      "byteLength": 40560,
      "byteOffset": 59488,
      "byteStride": 12,
      "name": "floatBufferViews",
      "target": 34962
    },
    {
      "buffer": 0,
      "byteLength": 27040,
      "byteOffset": 100048,
      "byteStride": 16,
      "name": "floatBufferViews",
      "target": 34962
    }
  ],
  "buffers": [
    {
      "byteLength": 127088,
      "uri": "scene.bin"
    }
  ],
  "images": [
    {
      "uri": "textures/02_-_Default_baseColor.jpeg"
    },
    {
      "uri": "textures/02_-_Default_metallicRoughness.png"
    },
    {
      "uri": "textures/02_-_Default_normal.png"
    }
  ],
  "materials": [
    {
      "doubleSided": true,
      "emissiveFactor": [
        0.078125,
        0.078125,
        0.078125
      ],
      "emissiveTexture": {
        "index": 0
      },
      "name": "02_-_Default",
      "normalTexture": {
        "index": 2
      },
      "pbrMetallicRoughness": {
        "baseColorTexture": {
          "index": 0
        },
        "metallicFactor": 0.2822027439,
        "metallicRoughnessTexture": {
          "index": 1
        },
        "roughnessFactor": 0.1663490854
      }
    }
  ],
  "meshes": [
    {
      "name": "Shield_02 - Default_0",
      "primitives": [
        {
          "attributes": {
            "NORMAL": 1,
            "POSITION": 0,
            "TANGENT": 2,
            "TEXCOORD_0": 3,
            "TEXCOORD_1": 4
          },
          "indices": 5,
          "material": 0,
          "mode": 4
        }
      ]
    }
  ],
  "nodes": [
    {
      "children": [
        1
      ],
      "matrix": [
        1.0,
        0.0,
        0.0,
        0.0,
        0.0,
        2.220446049250313e-16,
        -1.0,
        0.0,
        0.0,
        1.0,
        2.220446049250313e-16,
        0.0,
        0.0,
        0.0,
        0.0,
        1.0
      ],
      "name": "Sketchfab_model"
    },
    {
      "children": [
        2
      ],
      "matrix": [
        1.0,
        0.0,
        0.0,
        0.0,
        0.0,
        0.0,
        1.0,
        0.0,
        0.0,
        -1.0,
        0.0,
        0.0,
        0.0,
        0.0,
        0.0,
        1.0
      ],
      "name": "1f84d97d55c04f0fb7b012f9ba8b111a.fbx"
    },
    {
      "children": [
        3
      ],
      "name": "RootNode"
    },
    {
      "children": [
        4
      ],
      "matrix": [
        1.0,
        0.0,
        0.0,
        0.0,
        0.0,
        0.999999999999999,
        4.371138784264871e-08,
        0.0,
        0.0,
        -9.7895541031263e-09,
        0.22395889461040475,
        0.0,
        0.0,
        0.0,
        0.0,
        1.0
      ],
      "name": "Shield"
    },
    {
      "mesh": 0,
      "name": "Shield_02 - Default_0"
    }
  ],
  "samplers": [
    {
      "magFilter": 9729,
      "minFilter": 9987,
      "wrapS": 10497,
      "wrapT": 10497
    }
  ],
  "scene": 0,
  "scenes": [
    {
      "name": "Sketchfab_Scene",
      "nodes": [
        0
      ]
    }
  ],
  "textures": [
    {
      "sampler": 0,
      "source": 0
    },
    {
      "sampler": 0,
      "source": 1
    },
    {
      "sampler": 0,
      "source": 2
    }
  ]
}
