{
  "accessors": [
    {
      "bufferView": 3,
      "componentType": 5126,
      "count": 1124,
      "max": [
        0.7040197253227234,
        1.4115369319915771,
        1.1177036762237549
      ],
      "min": [
        -0.714455783367157,
        -0.003664433490484953,
        -0.4069409966468811
      ],
      "type": "VEC3"
    },
    {
      "bufferView": 3,
      "byteOffset": 13488,
      "componentType": 5126,
      "count": 1124,
      "max": [
        0.9999642372131348,
        1.0,
        0.9999873638153076
      ],
      "min": [
        -0.9999642372131348,
        -1.0,
        -0.9999855756759644
      ],
      "type": "VEC3"
    },
    {
      "bufferView": 2,
      "componentType": 5126,
      "count": 1124,
      "max": [
        0.3750000298023224,
        0.7500000596046448
      ],
      "min": [
        0.25,
        0.5
      ],
      "type": "VEC2"
    },
    {
      "bufferView": 1,
      "componentType": 5125,
      "count": 6720,
      "type": "SCALAR"
    },
    {
      "bufferView": 3,
      "byteOffset": 26976,
      "componentType": 5126,
      "count": 516,
      "max": [
        0.6555726528167725,
        46.868438720703125,
        1.6555908918380737
      ],
      "min": [
        -0.6555726528167725,
        44.217201232910156,
        -2.4838619232177734
      ],
      "type": "VEC3"
    },
    {
      "bufferView": 3,
      "byteOffset": 33168,
      "componentType": 5126,
      "count": 516,
      "max": [
        0.7747524380683899,
        0.9999968409538269,
        0.9674767255783081
      ],
      "min": [
        -0.7747427821159363,
        -0.9999966621398926,
        -0.9131683707237244
      ],
      "type": "VEC3"
    },
    {
      "bufferView": 2,
      "byteOffset": 8992,
      "componentType": 5126,
      "count": 516,
      "max": [
        0.6250002384185791,
        0.7574430704116821
      ],
      "min": [
        0.6249999403953552,
        0.4925571382045746
      ],
      "type": "VEC2"
    },
    {
      "bufferView": 1,
      "byteOffset": 26880,
      "componentType": 5125,
      "count": 3072,
      "type": "SCALAR"
    },
    {
      "bufferView": 3,
      "byteOffset": 39360,
      "componentType": 5126,
      "count": 8036,
      "max": [
        10.533815383911133,
        -8.63967227935791,
        2.6178956031799316
      ],
      "min": [
        -10.533817291259766,
        -20.753541946411133,
        -2.1897950172424316
      ],
      "type": "VEC3"
    },
    {
      "bufferView": 3,
      "byteOffset": 135792,
      "componentType": 5126,
      "count": 8036,
      "max": [
        0.9999999403953552,
        0.9999999403953552,
        0.9999999403953552
      ],
      "min": [
        -0.9999999403953552,
        -0.9999999403953552,
        -0.9999999403953552
      ],
      "type": "VEC3"
    },
    {
      "bufferView": 2,
      "byteOffset": 13120,
      "componentType": 5126,
      "count": 8036,
      "max": [
        0.6250001788139343,
        0.8750001192092896
      ],
      "min": [
        0.0,
        0.0
      ],
      "type": "VEC2"
    },
    {
      "bufferView": 1,
      "byteOffset": 39168,
      "componentType": 5125,
      "count": 47664,
      "type": "SCALAR"
    },
    {
      "bufferView": 3,
      "byteOffset": 232224,
      "componentType": 5126,
      "count": 426,
      "max": [
        0.15351004898548126,
        -0.9797331094741821,
        0.13802222907543182
      ],
      "min": [
        -0.15351004898548126,
        -1.2852894067764282,
        -0.13508251309394836
      ],
      "type": "VEC3"
    },
    {
      "bufferView": 3,
      "byteOffset": 237336,
      "componentType": 5126,
      "count": 426,
      "max": [
        0.9992883205413818,
        0.9845207333564758,
        0.9945611357688904
      ],
      "min": [
        -0.9992883205413818,
        -0.960759699344635,
        -0.9937347769737244
      ],
      "type": "VEC3"
    },
    {
      "bufferView": 2,
      "byteOffset": 77408,
      "componentType": 5126,
      "count": 426,
      "max": [
        0.7189670205116272,
        0.8437500596046448
      ],
      "min": [
        0.6249999403953552,
        0.375
      ],
      "type": "VEC2"
    },
    {
      "bufferView": 1,
      "byteOffset": 229824,
      "componentType": 5125,
      "count": 2292,
      "type": "SCALAR"
    },
    {
      "bufferView": 3,
      "byteOffset": 242448,
      "componentType": 5126,
      "count": 144,
      "max": [
        0.04085458815097809,
        -1.03872549533844,
        0.15086577832698822
      ],
      "min": [
        -0.04085459187626839,
        -1.3299446105957031,
        -0.10546556860208511
      ],
      "type": "VEC3"
    },
    {
      "bufferView": 3,
      "byteOffset": 244176,
      "componentType": 5126,
      "count": 144,
      "max": [
        0.9966116547584534,
        0.992893397808075,
        0.9945611357688904
      ],
      "min": [
        -0.9966116547584534,
        -0.9869874715805054,
        -0.9937347769737244
      ],
      "type": "VEC3"
    },
    {
      "bufferView": 2,
      "byteOffset": 80816,
      "componentType": 5126,
      "count": 144,
      "max": [
        0.7189670205116272,
        0.8437500596046448
      ],
      "min": [
        0.6249999403953552,
        0.375
      ],
      "type": "VEC2"
    },
    {
      "bufferView": 1,
      "byteOffset": 238992,
      "componentType": 5125,
      "count": 480,
      "type": "SCALAR"
    },
    {
      "bufferView": 3,
      "byteOffset": 245904,
      "componentType": 5126,
      "count": 114,
      "max": [
        0.03770439326763153,
        -0.9535350799560547,
        0.23206596076488495
      ],
      "min": [
        -0.037704430520534515,
        -1.418531894683838,
        -0.22623679041862488
      ],
      "type": "VEC3"
    },
    {
      "bufferView": 3,
      "byteOffset": 247272,
      "componentType": 5126,
      "count": 114,
      "max": [
        0.9966116547584534,
        0.9999549984931946,
        0.9979183673858643
      ],
      "min": [
        -0.9966116547584534,
        -0.9999540448188782,
        -0.998022198677063
      ],
      "type": "VEC3"
    },
    {
      "bufferView": 2,
      "byteOffset": 81968,
      "componentType": 5126,
      "count": 114,
      "max": [
        0.7500001192092896,
        0.875
      ],
      "min": [
        0.6249999403953552,
        0.375
      ],
      "type": "VEC2"
    },
    {
      "bufferView": 1,
      "byteOffset": 240912,
      "componentType": 5125,
      "count": 432,
      "type": "SCALAR"
    },
    {
      "bufferView": 3,
      "byteOffset": 248640,
      "componentType": 5126,
      "count": 1118,
      "max": [
        119.76278686523438,
        -767.6951293945313,
        -40.60929489135742
      ],
      "min": [
        -119.76278686523438,
        -808.1770629882813,
        -81.09117126464844
      ],
      "type": "VEC3"
    },
    {
      "bufferView": 3,
      "byteOffset": 262056,
      "componentType": 5126,
      "count": 1118,
      "max": [
        1.0,
        1.0,
        1.0
      ],
      "min": [
        -1.0,
        -1.0,
        -1.0
      ],
      "type": "VEC3"
    },
    {
      "bufferView": 2,
      "byteOffset": 82880,
      "componentType": 5126,
      "count": 1118,
      "max": [
        1.0,
        1.0
      ],
      "min": [
        0.0,
        0.0
      ],
      "type": "VEC2"
    },
    {
      "bufferView": 1,
      "byteOffset": 242640,
      "componentType": 5125,
      "count": 5760,
      "type": "SCALAR"
    },
    {
      "bufferView": 3,
      "byteOffset": 275472,
      "componentType": 5126,
      "count": 2479,
      "max": [
        1132.3505859375,
        -3.104578971862793,
        88.56907653808594
      ],
      "min": [
        -1132.3505859375,
        -883.6837158203125,
        -106.24655151367188
      ],
      "type": "VEC3"
    },
    {
      "bufferView": 3,
      "byteOffset": 305220,
      "componentType": 5126,
      "count": 2479,
      "max": [
        1.0,
        1.0,
        1.0
      ],
      "min": [
        -1.0,
        -1.0,
        -1.0
      ],
      "type": "VEC3"
    },
    {
      "bufferView": 2,
      "byteOffset": 91824,
      "componentType": 5126,
      "count": 2479,
      "max": [
        0.7500001192092896,
        0.8750001192092896
      ],
      "min": [
        0.0,
        0.0
      ],
      "type": "VEC2"
    },
    {
      "bufferView": 1,
      "byteOffset": 265680,
      "componentType": 5125,
      "count": 14592,
      "type": "SCALAR"
    },
    {
      "bufferView": 3,
      "byteOffset": 334968,
      "componentType": 5126,
      "count": 698,
      "max": [
        308.6817321777344,
        -183.91433715820313,
        67.4492416381836
      ],
      "min": [
        -328.8548583984375,
        -452.3939514160156,
        -70.74981689453125
      ],
      "type": "VEC3"
    },
    {
      "bufferView": 3,
      "byteOffset": 343344,
      "componentType": 5126,
      "count": 698,
      "max": [
        0.9999998807907104,
        0.9461060762405396,
        1.0
      ],
      "min": [
        -0.9999998807907104,
        -0.9458876848220825,
        -1.0
      ],
      "type": "VEC3"
    },
    {
      "bufferView": 2,
      "byteOffset": 111656,
      "componentType": 5126,
      "count": 698,
      "max": [
        0.6250001192092896,
        0.8750001192092896
      ],
      "min": [
        0.4375000298023224,
        0.375
      ],
      "type": "VEC2"
    },
    {
      "bufferView": 1,
      "byteOffset": 324048,
      "componentType": 5125,
      "count": 4212,
      "type": "SCALAR"
    },
    {
      "bufferView": 5,
      "componentType": 5126,
      "count": 26,
      "max": [
        25.57907485961914,
        25.57337188720703,
        6.213350296020508,
        0.0,
        0.8710947036743164,
        25.57907485961914,
        25.565093994140625,
        0.0,
        25.57615852355957,
        25.57470703125,
        25.57907485961914,
        0.0,
        10.363863945007324,
        74.5479965209961,
        136.864990234375,
        1.0
      ],
      "min": [
        -25.578977584838867,
        -25.578908920288086,
        -6.211312294006348,
        0.0,
        -1.0418437719345093,
        -25.578792572021484,
        -25.566286087036133,
        0.0,
        -25.575714111328125,
        -0.532619833946228,
        0.2705575227737427,
        0.0,
        -10.363849639892578,
        -156.40164184570313,
        -11.718074798583984,
        1.0
      ],
      "type": "MAT4"
    },
    {
      "bufferView": 0,
      "componentType": 5123,
      "count": 1124,
      "type": "VEC4"
    },
    {
      "bufferView": 4,
      "componentType": 5126,
      "count": 1124,
      "max": [
        0.9759358167648315,
        0.49995943903923035,
        0.1790488362312317,
        0.016999205574393272
      ],
      "min": [
        0.4552915394306183,
        0.014704693108797073,
        0.0,
        0.0
      ],
      "type": "VEC4"
    },
    {
      "bufferView": 0,
      "byteOffset": 8992,
      "componentType": 5123,
      "count": 516,
      "type": "VEC4"
    },
    {
      "bufferView": 4,
      "byteOffset": 17984,
      "componentType": 5126,
      "count": 516,
      "max": [
        0.9831615090370178,
        0.4873736500740051,
        0.2100394368171692,
        0.0
      ],
      "min": [
        0.4671933054924011,
        0.015553361736238003,
        0.0,
        0.0
      ],
      "type": "VEC4"
    },
    {
      "bufferView": 0,
      "byteOffset": 13120,
      "componentType": 5123,
      "count": 8036,
      "type": "VEC4"
    },
    {
      "bufferView": 4,
      "byteOffset": 26240,
      "componentType": 5126,
      "count": 8036,
      "max": [
        1.0,
        0.49955397844314575,
        0.3219437897205353,
        0.15179182589054108
      ],
      "min": [
        0.33213719725608826,
        0.0,
        0.0,
        0.0
      ],
      "type": "VEC4"
    },
    {
      "bufferView": 0,
      "byteOffset": 77408,
      "componentType": 5123,
      "count": 426,
      "type": "VEC4"
    },
    {
      "bufferView": 4,
      "byteOffset": 154816,
      "componentType": 5126,
      "count": 426,
      "max": [
        1.0,
        0.4869934618473053,
        0.2052914798259735,
        0.0
      ],
      "min": [
        0.5130065679550171,
        0.0,
        0.0,
        0.0
      ],
      "type": "VEC4"
    },
    {
      "bufferView": 0,
      "byteOffset": 80816,
      "componentType": 5123,
      "count": 144,
      "type": "VEC4"
    },
    {
      "bufferView": 4,
      "byteOffset": 161632,
      "componentType": 5126,
      "count": 144,
      "max": [
        1.0,
        0.46781280636787415,
        0.0,
        0.0
      ],
      "min": [
        0.5321872234344482,
        0.0,
        0.0,
        0.0
      ],
      "type": "VEC4"
    },
    {
      "bufferView": 0,
      "byteOffset": 81968,
      "componentType": 5123,
      "count": 114,
      "type": "VEC4"
    },
    {
      "bufferView": 4,
      "byteOffset": 163936,
      "componentType": 5126,
      "count": 114,
      "max": [
        1.0,
        0.14694881439208984,
        0.0,
        0.0
      ],
      "min": [
        0.8530511856079102,
        0.0,
        0.0,
        0.0
      ],
      "type": "VEC4"
    },
    {
      "bufferView": 0,
      "byteOffset": 82880,
      "componentType": 5123,
      "count": 1118,
      "type": "VEC4"
    },
    {
      "bufferView": 4,
      "byteOffset": 165760,
      "componentType": 5126,
      "count": 1118,
      "max": [
        0.9667842388153076,
        0.1950310468673706,
        0.0,
        0.0
      ],
      "min": [
        0.8049689531326294,
        0.03321576490998268,
        0.0,
        0.0
      ],
      "type": "VEC4"
    },
    {
      "bufferView": 0,
      "byteOffset": 91824,
      "componentType": 5123,
      "count": 2479,
      "type": "VEC4"
    },
    {
      "bufferView": 4,
      "byteOffset": 183648,
      "componentType": 5126,
      "count": 2479,
      "max": [
        1.0,
        0.4998549222946167,
        0.3180727958679199,
        0.13501814007759094
      ],
      "min": [
        0.3491375148296356,
        0.0,
        0.0,
        0.0
      ],
      "type": "VEC4"
    },
    {
      "bufferView": 0,
      "byteOffset": 111656,
      "componentType": 5123,
      "count": 698,
      "type": "VEC4"
    },
    {
      "bufferView": 4,
      "byteOffset": 223312,
      "componentType": 5126,
      "count": 698,
      "max": [
        1.0,
        0.4980457127094269,
        0.2852320373058319,
        0.13997073471546173
      ],
      "min": [
        0.36984965205192566,
        0.0,
        0.0,
        0.0
      ],
      "type": "VEC4"
    },
    {
      "bufferView": 6,
      "componentType": 5126,
      "count": 54,
      "max": [
        1.899999976158142
      ],
      "min": [
        0.0
      ],
      "type": "SCALAR"
    },
    {
      "bufferView": 7,
      "componentType": 5126,
      "count": 54,
      "max": [
        3.552713678800501e-15,
        15.576934814453125,
        0.41970860958099365
      ],
      "min": [
        -3.552713678800501e-15,
        15.576934814453125,
        0.41970860958099365
      ],
      "type": "VEC3"
    },
    {
      "bufferView": 6,
      "byteOffset": 216,
      "componentType": 5126,
      "count": 58,
      "max": [
        1.899999976158142
      ],
      "min": [
        0.0
      ],
      "type": "SCALAR"
    },
    {
      "bufferView": 8,
      "componentType": 5126,
      "count": 58,
      "max": [
        0.05342235788702965,
        -0.0031921009067445993,
        0.07716282457113266,
        0.9968434572219849
      ],
      "min": [
        0.03986221179366112,
        -0.010776670649647713,
        0.06331665813922882,
        0.9955804944038391
      ],
      "type": "VEC4"
    },
    {
      "bufferView": 6,
      "byteOffset": 448,
      "componentType": 5126,
      "count": 53,
      "max": [
        1.899999976158142
      ],
      "min": [
        0.0
      ],
      "type": "SCALAR"
    },
    {
      "bufferView": 7,
      "byteOffset": 648,
      "componentType": 5126,
      "count": 53,
      "max": [
        1.7763568394002505e-15,
        17.87970542907715,
        -4.107023343635774e-08
      ],
      "min": [
        -1.7763568394002505e-15,
        17.87970542907715,
        -4.107023698907142e-08
      ],
      "type": "VEC3"
    },
    {
      "bufferView": 6,
      "byteOffset": 660,
      "componentType": 5126,
      "count": 58,
      "max": [
        1.899999976158142
      ],
      "min": [
        0.0
      ],
      "type": "SCALAR"
    },
    {
      "bufferView": 8,
      "byteOffset": 928,
      "componentType": 5126,
      "count": 58,
      "max": [
        0.10825490951538086,
        0.021374225616455078,
        -0.05542437732219696,
        0.9983199238777161
      ],
      "min": [
        -0.02800394408404827,
        0.013523885980248451,
        -0.07069868594408035,
        0.9920150637626648
      ],
      "type": "VEC4"
    },
    {
      "bufferView": 6,
      "byteOffset": 892,
      "componentType": 5126,
      "count": 57,
      "max": [
        1.899999976158142
      ],
      "min": [
        0.0
      ],
      "type": "SCALAR"
    },
    {
      "bufferView": 7,
      "byteOffset": 1284,
      "componentType": 5126,
      "count": 57,
      "max": [
        1.7763568394002505e-15,
        23.130237579345703,
        1.4210854715202004e-14
      ],
      "min": [
        -3.552713678800501e-15,
        23.130237579345703,
        -1.4210854715202004e-14
      ],
      "type": "VEC3"
    },
    {
      "bufferView": 6,
      "byteOffset": 1120,
      "componentType": 5126,
      "count": 58,
      "max": [
        1.899999976158142
      ],
      "min": [
        0.0
      ],
      "type": "SCALAR"
    },
    {
      "bufferView": 8,
      "byteOffset": 1856,
      "componentType": 5126,
      "count": 58,
      "max": [
        0.01596786268055439,
        0.07321453839540482,
        0.16914322972297668,
        0.9916099309921265
      ],
      "min": [
        -0.00017555525118950754,
        -2.048996066150721e-05,
        0.12917126715183258,
        0.9848548173904419
      ],
      "type": "VEC4"
    },
    {
      "bufferView": 6,
      "byteOffset": 1352,
      "componentType": 5126,
      "count": 57,
      "max": [
        1.899999976158142
      ],
      "min": [
        0.0
      ],
      "type": "SCALAR"
    },
    {
      "bufferView": 7,
      "byteOffset": 1968,
      "componentType": 5126,
      "count": 57,
      "max": [
        1.7763568394002505e-15,
        18.85403060913086,
        2.842170943040401e-14
      ],
      "min": [
        -3.552713678800501e-15,
        18.85403060913086,
        -5.684341886080802e-14
      ],
      "type": "VEC3"
    },
    {
      "bufferView": 6,
      "byteOffset": 1580,
      "componentType": 5126,
      "count": 58,
      "max": [
        1.899999976158142
      ],
      "min": [
        0.0
      ],
      "type": "SCALAR"
    },
    {
      "bufferView": 8,
      "byteOffset": 2784,
      "componentType": 5126,
      "count": 58,
      "max": [
        0.5058891177177429,
        -0.022549418732523918,
        0.012186998501420021,
        0.8764424920082092
      ],
      "min": [
        0.47625795006752014,
        -0.040274303406476974,
        -0.09875219315290451,
        0.8608759045600891
      ],
      "type": "VEC4"
    },
    {
      "bufferView": 6,
      "byteOffset": 1812,
      "componentType": 5126,
      "count": 58,
      "max": [
        1.899999976158142
      ],
      "min": [
        0.0
      ],
      "type": "SCALAR"
    },
    {
      "bufferView": 8,
      "byteOffset": 3712,
      "componentType": 5126,
      "count": 58,
      "max": [
        -0.5554112792015076,
        -0.4056508541107178,
        0.5990103483200073,
        -0.3997036814689636
      ],
      "min": [
        -0.5696851015090942,
        -0.4160444736480713,
        0.5789147019386292,
        -0.419242262840271
      ],
      "type": "VEC4"
    },
    {
      "bufferView": 6,
      "byteOffset": 2044,
      "componentType": 5126,
      "count": 58,
      "max": [
        1.899999976158142
      ],
      "min": [
        0.0
      ],
      "type": "SCALAR"
    },
    {
      "bufferView": 7,
      "byteOffset": 2652,
      "componentType": 5126,
      "count": 58,
      "max": [
        3.552713678800501e-15,
        23.084579467773438,
        5.684341886080802e-14
      ],
      "min": [
        -3.552713678800501e-15,
        23.084579467773438,
        1.4210854715202004e-14
      ],
      "type": "VEC3"
    },
    {
      "bufferView": 6,
      "byteOffset": 2276,
      "componentType": 5126,
      "count": 58,
      "max": [
        1.899999976158142
      ],
      "min": [
        0.0
      ],
      "type": "SCALAR"
    },
    {
      "bufferView": 8,
      "byteOffset": 4640,
      "componentType": 5126,
      "count": 58,
      "max": [
        0.026042966172099113,
        0.014255620539188385,
        -0.14970721304416656,
        0.9886607527732849
      ],
      "min": [
        -0.007179275620728731,
        -0.05510001629590988,
        -0.21192166209220886,
        0.9766669869422913
      ],
      "type": "VEC4"
    },
    {
      "bufferView": 6,
      "byteOffset": 2508,
      "componentType": 5126,
      "count": 58,
      "max": [
        1.899999976158142
      ],
      "min": [
        0.0
      ],
      "type": "SCALAR"
    },
    {
      "bufferView": 7,
      "byteOffset": 3348,
      "componentType": 5126,
      "count": 58,
      "max": [
        1.7763568394002505e-15,
        18.85403060913086,
        0.0
      ],
      "min": [
        -1.7763568394002505e-15,
        18.85403060913086,
        -5.684341886080802e-14
      ],
      "type": "VEC3"
    },
    {
      "bufferView": 6,
      "byteOffset": 2740,
      "componentType": 5126,
      "count": 58,
      "max": [
        1.899999976158142
      ],
      "min": [
        0.0
      ],
      "type": "SCALAR"
    },
    {
      "bufferView": 8,
      "byteOffset": 5568,
      "componentType": 5126,
      "count": 58,
      "max": [
        0.4611041247844696,
        -0.01160101592540741,
        0.10339811444282532,
        0.8941910266876221
      ],
      "min": [
        0.43703317642211914,
        -0.03605787828564644,
        -0.0036106975749135017,
        0.8862669467926025
      ],
      "type": "VEC4"
    },
    {
      "bufferView": 6,
      "byteOffset": 2972,
      "componentType": 5126,
      "count": 58,
      "max": [
        1.899999976158142
      ],
      "min": [
        0.0
      ],
      "type": "SCALAR"
    },
    {
      "bufferView": 8,
      "byteOffset": 6496,
      "componentType": 5126,
      "count": 58,
      "max": [
        0.569580614566803,
        -0.4055033326148987,
        0.5879010558128357,
        0.42719680070877075
      ],
      "min": [
        0.5578245520591736,
        -0.41957563161849976,
        0.572357714176178,
        0.4095469117164612
      ],
      "type": "VEC4"
    },
    {
      "bufferView": 6,
      "byteOffset": 3204,
      "componentType": 5126,
      "count": 56,
      "max": [
        1.899999976158142
      ],
      "min": [
        0.0
      ],
      "type": "SCALAR"
    },
    {
      "bufferView": 7,
      "byteOffset": 4044,
      "componentType": 5126,
      "count": 56,
      "max": [
        4.440892098500626e-16,
        15.893078804016113,
        7.105427357601002e-15
      ],
      "min": [
        -8.881784197001252e-16,
        15.893078804016113,
        -3.552713678800501e-15
      ],
      "type": "VEC3"
    },
    {
      "bufferView": 6,
      "byteOffset": 3428,
      "componentType": 5126,
      "count": 58,
      "max": [
        1.899999976158142
      ],
      "min": [
        0.0
      ],
      "type": "SCALAR"
    },
    {
      "bufferView": 8,
      "byteOffset": 7424,
      "componentType": 5126,
      "count": 58,
      "max": [
        -0.07676226645708084,
        0.03429979830980301,
        0.014870106242597103,
        0.9964404106140137
      ],
      "min": [
        -0.0957164540886879,
        0.029735224321484566,
        0.0115536293014884,
        0.9947082996368408
      ],
      "type": "VEC4"
    },
    {
      "bufferView": 6,
      "byteOffset": 3660,
      "componentType": 5126,
      "count": 58,
      "max": [
        1.899999976158142
      ],
      "min": [
        0.0
      ],
      "type": "SCALAR"
    },
    {
      "bufferView": 7,
      "byteOffset": 4716,
      "componentType": 5126,
      "count": 58,
      "max": [
        2.220446049250313e-16,
        13.906444549560547,
        7.105427357601002e-15
      ],
      "min": [
        -2.220446049250313e-16,
        13.906444549560547,
        -3.552713678800501e-15
      ],
      "type": "VEC3"
    },
    {
      "bufferView": 6,
      "byteOffset": 3892,
      "componentType": 5126,
      "count": 58,
      "max": [
        1.899999976158142
      ],
      "min": [
        0.0
      ],
      "type": "SCALAR"
    },
    {
      "bufferView": 8,
      "byteOffset": 8352,
      "componentType": 5126,
      "count": 58,
      "max": [
        0.02650931105017662,
        0.03647864982485771,
        0.010705053806304932,
        0.9992684125900269
      ],
      "min": [
        0.007385974749922752,
        0.03361555188894272,
        0.008054373785853386,
        0.9989988207817078
      ],
      "type": "VEC4"
    },
    {
      "bufferView": 6,
      "byteOffset": 4124,
      "componentType": 5126,
      "count": 52,
      "max": [
        1.899999976158142
      ],
      "min": [
        0.0
      ],
      "type": "SCALAR"
    },
    {
      "bufferView": 7,
      "byteOffset": 5412,
      "componentType": 5126,
      "count": 52,
      "max": [
        4.440892098500626e-16,
        11.918426513671875,
        -0.1811869740486145
      ],
      "min": [
        -6.661338147750939e-16,
        11.918426513671875,
        -0.1811869740486145
      ],
      "type": "VEC3"
    },
    {
      "bufferView": 6,
      "byteOffset": 4332,
      "componentType": 5126,
      "count": 58,
      "max": [
        1.899999976158142
      ],
      "min": [
        0.0
      ],
      "type": "SCALAR"
    },
    {
      "bufferView": 8,
      "byteOffset": 9280,
      "componentType": 5126,
      "count": 58,
      "max": [
        0.07529071718454361,
        0.01779615692794323,
        0.006084722001105547,
        0.9986298084259033
      ],
      "min": [
        0.048998571932315826,
        0.01593843102455139,
        0.005051067564636469,
        0.9970037937164307
      ],
      "type": "VEC4"
    },
    {
      "bufferView": 6,
      "byteOffset": 4564,
      "componentType": 5126,
      "count": 57,
      "max": [
        1.899999976158142
      ],
      "min": [
        0.0
      ],
      "type": "SCALAR"
    },
    {
      "bufferView": 7,
      "byteOffset": 6036,
      "componentType": 5126,
      "count": 57,
      "max": [
        7.105427357601002e-15,
        21.94520378112793,
        0.0
      ],
      "min": [
        -7.105427357601002e-15,
        21.94520378112793,
        -1.0658141036401503e-14
      ],
      "type": "VEC3"
    },
    {
      "bufferView": 6,
      "byteOffset": 4792,
      "componentType": 5126,
      "count": 58,
      "max": [
        1.899999976158142
      ],
      "min": [
        0.0
      ],
      "type": "SCALAR"
    },
    {
      "bufferView": 8,
      "byteOffset": 10208,
      "componentType": 5126,
      "count": 58,
      "max": [
        0.31004273891448975,
        -0.03246733918786049,
        -0.02030179277062416,
        0.9502522945404053
      ],
      "min": [
        0.3089387118816376,
        -0.03413565084338188,
        -0.021462764590978622,
        0.9499102830886841
      ],
      "type": "VEC4"
    },
    {
      "bufferView": 6,
      "byteOffset": 5024,
      "componentType": 5126,
      "count": 58,
      "max": [
        1.899999976158142
      ],
      "min": [
        0.0
      ],
      "type": "SCALAR"
    },
    {
      "bufferView": 7,
      "byteOffset": 6720,
      "componentType": 5126,
      "count": 58,
      "max": [
        7.105427357601002e-15,
        28.775426864624023,
        1.7763568394002505e-15
      ],
      "min": [
        -3.552713678800501e-15,
        28.775426864624023,
        -1.7763568394002505e-15
      ],
      "type": "VEC3"
    },
    {
      "bufferView": 6,
      "byteOffset": 5256,
      "componentType": 5126,
      "count": 58,
      "max": [
        1.899999976158142
      ],
      "min": [
        0.0
      ],
      "type": "SCALAR"
    },
    {
      "bufferView": 8,
      "byteOffset": 11136,
      "componentType": 5126,
      "count": 58,
      "max": [
        0.5281127691268921,
        -0.08343534916639328,
        -0.06767275184392929,
        0.856955349445343
      ],
      "min": [
        0.503878116607666,
        -0.08585993945598602,
        -0.07155189663171768,
        0.8418327569961548
      ],
      "type": "VEC4"
    },
    {
      "bufferView": 6,
      "byteOffset": 5488,
      "componentType": 5126,
      "count": 58,
      "max": [
        1.899999976158142
      ],
      "min": [
        0.0
      ],
      "type": "SCALAR"
    },
    {
      "bufferView": 7,
      "byteOffset": 7416,
      "componentType": 5126,
      "count": 58,
      "max": [
        3.552713678800501e-15,
        32.24193572998047,
        7.105427357601002e-15
      ],
      "min": [
        -7.105427357601002e-15,
        32.24193572998047,
        -3.552713678800501e-15
      ],
      "type": "VEC3"
    },
    {
      "bufferView": 6,
      "byteOffset": 5720,
      "componentType": 5126,
      "count": 58,
      "max": [
        1.899999976158142
      ],
      "min": [
        0.0
      ],
      "type": "SCALAR"
    },
    {
      "bufferView": 8,
      "byteOffset": 12064,
      "componentType": 5126,
      "count": 58,
      "max": [
        -0.13352157175540924,
        -0.027404358610510826,
        0.025404205545783043,
        0.9903014302253723
      ],
      "min": [
        -0.20649679005146027,
        -0.03606549650430679,
        0.020285066217184067,
        0.9774958491325378
      ],
      "type": "VEC4"
    },
    {
      "bufferView": 6,
      "byteOffset": 5952,
      "componentType": 5126,
      "count": 30,
      "max": [
        1.899999976158142
      ],
      "min": [
        0.0
      ],
      "type": "SCALAR"
    },
    {
      "bufferView": 7,
      "byteOffset": 8112,
      "componentType": 5126,
      "count": 30,
      "max": [
        10.039899826049805,
        -6.640220642089844,
        1.017329216003418
      ],
      "min": [
        10.039899826049805,
        -6.640220642089844,
        1.0173290967941284
      ],
      "type": "VEC3"
    },
    {
      "bufferView": 6,
      "byteOffset": 6072,
      "componentType": 5126,
      "count": 58,
      "max": [
        1.899999976158142
      ],
      "min": [
        0.0
      ],
      "type": "SCALAR"
    },
    {
      "bufferView": 8,
      "byteOffset": 12992,
      "componentType": 5126,
      "count": 58,
      "max": [
        0.1306486874818802,
        0.13768677413463593,
        0.9832136631011963,
        -0.0988522469997406
      ],
      "min": [
        0.12406536191701889,
        0.07991255074739456,
        0.977498471736908,
        -0.10367688536643982
      ],
      "type": "VEC4"
    },
    {
      "bufferView": 6,
      "byteOffset": 6304,
      "componentType": 5126,
      "count": 57,
      "max": [
        1.899999976158142
      ],
      "min": [
        0.0
      ],
      "type": "SCALAR"
    },
    {
      "bufferView": 7,
      "byteOffset": 8472,
      "componentType": 5126,
      "count": 57,
      "max": [
        3.552713678800501e-15,
        21.738632202148438,
        1.7763568394002505e-15
      ],
      "min": [
        -7.105427357601002e-15,
        21.738632202148438,
        -5.3290705182007514e-15
      ],
      "type": "VEC3"
    },
    {
      "bufferView": 6,
      "byteOffset": 6532,
      "componentType": 5126,
      "count": 58,
      "max": [
        1.899999976158142
      ],
      "min": [
        0.0
      ],
      "type": "SCALAR"
    },
    {
      "bufferView": 8,
      "byteOffset": 13920,
      "componentType": 5126,
      "count": 58,
      "max": [
        0.3357352316379547,
        0.03529203683137894,
        0.02227216772735119,
        0.9429177641868591
      ],
      "min": [
        0.33057451248168945,
        0.030762163922190666,
        0.019211530685424805,
        0.9412031173706055
      ],
      "type": "VEC4"
    },
    {
      "bufferView": 6,
      "byteOffset": 6764,
      "componentType": 5126,
      "count": 58,
      "max": [
        1.899999976158142
      ],
      "min": [
        0.0
      ],
      "type": "SCALAR"
    },
    {
      "bufferView": 7,
      "byteOffset": 9156,
      "componentType": 5126,
      "count": 58,
      "max": [
        3.552713678800501e-15,
        28.774843215942383,
        3.9968028886505635e-15
      ],
      "min": [
        -7.105427357601002e-15,
        28.774843215942383,
        -2.6645352591003757e-15
      ],
      "type": "VEC3"
    },
    {
      "bufferView": 6,
      "byteOffset": 6996,
      "componentType": 5126,
      "count": 58,
      "max": [
        1.899999976158142
      ],
      "min": [
        0.0
      ],
      "type": "SCALAR"
    },
    {
      "bufferView": 8,
      "byteOffset": 14848,
      "componentType": 5126,
      "count": 58,
      "max": [
        0.5797680020332336,
        0.03441845253109932,
        0.07650978863239288,
        0.8341757655143738
      ],
      "min": [
        0.5460962653160095,
        0.029649848118424416,
        0.07063187658786774,
        0.8106164336204529
      ],
      "type": "VEC4"
    },
    {
      "bufferView": 6,
      "byteOffset": 7228,
      "componentType": 5126,
      "count": 58,
      "max": [
        1.899999976158142
      ],
      "min": [
        0.0
      ],
      "type": "SCALAR"
    },
    {
      "bufferView": 7,
      "byteOffset": 9852,
      "componentType": 5126,
      "count": 58,
      "max": [
        7.105427357601002e-15,
        32.242679595947266,
        1.7763568394002505e-15
      ],
      "min": [
        -3.552713678800501e-15,
        32.242679595947266,
        -1.7763568394002505e-15
      ],
      "type": "VEC3"
    },
    {
      "bufferView": 6,
      "byteOffset": 7460,
      "componentType": 5126,
      "count": 58,
      "max": [
        1.899999976158142
      ],
      "min": [
        0.0
      ],
      "type": "SCALAR"
    },
    {
      "bufferView": 8,
      "byteOffset": 15776,
      "componentType": 5126,
      "count": 58,
      "max": [
        -0.11015273630619049,
        0.04478304460644722,
        -0.01385581772774458,
        0.9928594827651978
      ],
      "min": [
        -0.2066282033920288,
        0.037444911897182465,
        -0.028089113533496857,
        0.9772582650184631
      ],
      "type": "VEC4"
    },
    {
      "bufferView": 6,
      "byteOffset": 7692,
      "componentType": 5126,
      "count": 43,
      "max": [
        1.899999976158142
      ],
      "min": [
        0.0
      ],
      "type": "SCALAR"
    },
    {
      "bufferView": 7,
      "byteOffset": 10548,
      "componentType": 5126,
      "count": 43,
      "max": [
        -10.039899826049805,
        -6.640220642089844,
        0.9100506901741028
      ],
      "min": [
        -10.039899826049805,
        -6.640220642089844,
        0.910050630569458
      ],
      "type": "VEC3"
    },
    {
      "bufferView": 6,
      "byteOffset": 7864,
      "componentType": 5126,
      "count": 58,
      "max": [
        1.899999976158142
      ],
      "min": [
        0.0
      ],
      "type": "SCALAR"
    },
    {
      "bufferView": 8,
      "byteOffset": 16704,
      "componentType": 5126,
      "count": 58,
      "max": [
        -0.0785500556230545,
        0.08667755872011185,
        0.9949471950531006,
        0.05301608517765999
      ],
      "min": [
        -0.08918987214565277,
        0.014229340478777885,
        0.9918761849403381,
        0.04762091860175133
      ],
      "type": "VEC4"
    },
    {
      "bufferView": 6,
      "byteOffset": 8096,
      "componentType": 5126,
      "count": 58,
      "max": [
        1.899999976158142
      ],
      "min": [
        0.0
      ],
      "type": "SCALAR"
    },
    {
      "bufferView": 7,
      "byteOffset": 11064,
      "componentType": 5126,
      "count": 58,
      "max": [
        0.2218821495771408,
        79.9515151977539,
        0.3096199631690979
      ],
      "min": [
        -0.22845008969306946,
        79.16300964355469,
        -0.8584228754043579
      ],
      "type": "VEC3"
    },
    {
      "bufferView": 6,
      "byteOffset": 8328,
      "componentType": 5126,
      "count": 58,
      "max": [
        1.899999976158142
      ],
      "min": [
        0.0
      ],
      "type": "SCALAR"
    },
    {
      "bufferView": 8,
      "byteOffset": 17632,
      "componentType": 5126,
      "count": 58,
      "max": [
        0.023234836757183075,
        -0.09266390651464462,
        -0.0061623770743608475,
        0.9955917000770569
      ],
      "min": [
        0.00886217225342989,
        -0.10494271665811539,
        -0.010413723066449165,
        0.99419105052948
      ],
      "type": "VEC4"
    }
  ],
  "animations": [
    {
      "channels": [
        {
          "sampler": 0,
          "target": {
            "node": 26,
            "path": "translation"
          }
        },
        {
          "sampler": 1,
          "target": {
            "node": 26,
            "path": "rotation"
          }
        },
        {
          "sampler": 2,
          "target": {
            "node": 25,
            "path": "translation"
          }
        },
        {
          "sampler": 3,
          "target": {
            "node": 25,
            "path": "rotation"
          }
        },
        {
          "sampler": 4,
          "target": {
            "node": 30,
            "path": "translation"
          }
        },
        {
          "sampler": 5,
          "target": {
            "node": 30,
            "path": "rotation"
          }
        },
        {
          "sampler": 6,
          "target": {
            "node": 29,
            "path": "translation"
          }
        },
        {
          "sampler": 7,
          "target": {
            "node": 29,
            "path": "rotation"
          }
        },
        {
          "sampler": 8,
          "target": {
            "node": 28,
            "path": "rotation"
          }
        },
        {
          "sampler": 9,
          "target": {
            "node": 34,
            "path": "translation"
          }
        },
        {
          "sampler": 10,
          "target": {
            "node": 34,
            "path": "rotation"
          }
        },
        {
          "sampler": 11,
          "target": {
            "node": 33,
            "path": "translation"
          }
        },
        {
          "sampler": 12,
          "target": {
            "node": 33,
            "path": "rotation"
          }
        },
        {
          "sampler": 13,
          "target": {
            "node": 32,
            "path": "rotation"
          }
        },
        {
          "sampler": 14,
          "target": {
            "node": 24,
            "path": "translation"
          }
        },
        {
          "sampler": 15,
          "target": {
            "node": 24,
            "path": "rotation"
          }
        },
        {
          "sampler": 16,
          "target": {
            "node": 23,
            "path": "translation"
          }
        },
        {
          "sampler": 17,
          "target": {
            "node": 23,
            "path": "rotation"
          }
        },
        {
          "sampler": 18,
          "target": {
            "node": 22,
            "path": "translation"
          }
        },
        {
          "sampler": 19,
          "target": {
            "node": 22,
            "path": "rotation"
          }
        },
        {
          "sampler": 20,
          "target": {
            "node": 39,
            "path": "translation"
          }
        },
        {
          "sampler": 21,
          "target": {
            "node": 39,
            "path": "rotation"
          }
        },
        {
          "sampler": 22,
          "target": {
            "node": 38,
            "path": "translation"
          }
        },
        {
          "sampler": 23,
          "target": {
            "node": 38,
            "path": "rotation"
          }
        },
        {
          "sampler": 24,
          "target": {
            "node": 37,
            "path": "translation"
          }
        },
        {
          "sampler": 25,
          "target": {
            "node": 37,
            "path": "rotation"
          }
        },
        {
          "sampler": 26,
          "target": {
            "node": 36,
            "path": "translation"
          }
        },
        {
          "sampler": 27,
          "target": {
            "node": 36,
            "path": "rotation"
          }
        },
        {
          "sampler": 28,
          "target": {
            "node": 44,
            "path": "translation"
          }
        },
        {
          "sampler": 29,
          "target": {
            "node": 44,
            "path": "rotation"
          }
        },
        {
          "sampler": 30,
          "target": {
            "node": 43,
            "path": "translation"
          }
        },
        {
          "sampler": 31,
          "target": {
            "node": 43,
            "path": "rotation"
          }
        },
        {
          "sampler": 32,
          "target": {
            "node": 42,
            "path": "translation"
          }
        },
        {
          "sampler": 33,
          "target": {
            "node": 42,
            "path": "rotation"
          }
        },
        {
          "sampler": 34,
          "target": {
            "node": 41,
            "path": "translation"
          }
        },
        {
          "sampler": 35,
          "target": {
            "node": 41,
            "path": "rotation"
          }
        },
        {
          "sampler": 36,
          "target": {
            "node": 21,
            "path": "translation"
          }
        },
        {
          "sampler": 37,
          "target": {
            "node": 21,
            "path": "rotation"
          }
        }
      ],
      "name": "mixamo.com",
      "samplers": [
        {
          "input": 55,
          "interpolation": "LINEAR",
          "output": 56
        },
        {
          "input": 57,
          "interpolation": "LINEAR",
          "output": 58
        },
        {
          "input": 59,
          "interpolation": "LINEAR",
          "output": 60
        },
        {
          "input": 61,
          "interpolation": "LINEAR",
          "output": 62
        },
        {
          "input": 63,
          "interpolation": "LINEAR",
          "output": 64
        },
        {
          "input": 65,
          "interpolation": "LINEAR",
          "output": 66
        },
        {
          "input": 67,
          "interpolation": "LINEAR",
          "output": 68
        },
        {
          "input": 69,
          "interpolation": "LINEAR",
          "output": 70
        },
        {
          "input": 71,
          "interpolation": "LINEAR",
          "output": 72
        },
        {
          "input": 73,
          "interpolation": "LINEAR",
          "output": 74
        },
        {
          "input": 75,
          "interpolation": "LINEAR",
          "output": 76
        },
        {
          "input": 77,
          "interpolation": "LINEAR",
          "output": 78
        },
        {
          "input": 79,
          "interpolation": "LINEAR",
          "output": 80
        },
        {
          "input": 81,
          "interpolation": "LINEAR",
          "output": 82
        },
        {
          "input": 83,
          "interpolation": "LINEAR",
          "output": 84
        },
        {
          "input": 85,
          "interpolation": "LINEAR",
          "output": 86
        },
        {
          "input": 87,
          "interpolation": "LINEAR",
          "output": 88
        },
        {
          "input": 89,
          "interpolation": "LINEAR",
          "output": 90
        },
        {
          "input": 91,
          "interpolation": "LINEAR",
          "output": 92
        },
        {
          "input": 93,
          "interpolation": "LINEAR",
          "output": 94
        },
        {
          "input": 95,
          "interpolation": "LINEAR",
          "output": 96
        },
        {
          "input": 97,
          "interpolation": "LINEAR",
          "output": 98
        },
        {
          "input": 99,
          "interpolation": "LINEAR",
          "output": 100
        },
        {
          "input": 101,
          "interpolation": "LINEAR",
          "output": 102
        },
        {
          "input": 103,
          "interpolation": "LINEAR",
          "output": 104
        },
        {
          "input": 105,
          "interpolation": "LINEAR",
          "output": 106
        },
        {
          "input": 107,
          "interpolation": "LINEAR",
          "output": 108
        },
        {
          "input": 109,
          "interpolation": "LINEAR",
          "output": 110
        },
        {
          "input": 111,
          "interpolation": "LINEAR",
          "output": 112
        },
        {
          "input": 113,
          "interpolation": "LINEAR",
          "output": 114
        },
        {
          "input": 115,
          "interpolation": "LINEAR",
          "output": 116
        },
        {
          "input": 117,
          "interpolation": "LINEAR",
          "output": 118
        },
        {
          "input": 119,
          "interpolation": "LINEAR",
          "output": 120
        },
        {
          "input": 121,
          "interpolation": "LINEAR",
          "output": 122
        },
        {
          "input": 123,
          "interpolation": "LINEAR",
          "output": 124
        },
        {
          "input": 125,
          "interpolation": "LINEAR",
          "output": 126
        },
        {
          "input": 127,
          "interpolation": "LINEAR",
          "output": 128
        },
        {
          "input": 129,
          "interpolation": "LINEAR",
          "output": 130
        }
      ]
    }
  ],
  "asset": {
    "extras": {
      "author": "MariosTzavis (https://sketchfab.com/MariosTzavis)",
      "license": "CC-BY-4.0 (http://creativecommons.org/licenses/by/4.0/)",
      "source": "https://sketchfab.com/3d-models/low-poly-roman-soldier-3d084865416a4ae0a855e112abb66c1f",
      "title": "Low poly - Roman Soldier"
    },
    "generator": "Sketchfab-15.58.0",
    "version": "2.0"
  },
  "bufferViews": [
    {
      "buffer": 0,
      "byteLength": 117240,
      "byteStride": 8,
      "name": "shortBufferViews",
      "target": 34962
    },
    {
      "buffer": 0,
      "byteLength": 340896,
      "byteOffset": 117240,
      "name": "floatBufferViews",
      "target": 34963
    },
    {
      "buffer": 0,
      "byteLength": 117240,
      "byteOffset": 458136,
      "byteStride": 8,
      "name": "floatBufferViews",
      "target": 34962
    },
    {
      "buffer": 0,
      "byteLength": 351720,
      "byteOffset": 575376,
      "byteStride": 12,
      "name": "floatBufferViews",
      "target": 34962
    },
    {
      "buffer": 0,
      "byteLength": 234480,
      "byteOffset": 927096,
      "byteStride": 16,
      "name": "floatBufferViews",
      "target": 34962
    },
    {
      "buffer": 0,
      "byteLength": 1664,
      "byteOffset": 1161576,
      "name": "floatBufferViews"
    },
    {
      "buffer": 0,
      "byteLength": 8560,
      "byteOffset": 1163240,
      "name": "floatBufferViews"
    },
    {
      "buffer": 0,
      "byteLength": 11760,
      "byteOffset": 1171800,
      "byteStride": 12,
      "name": "floatBufferViews"
    },
    {
      "buffer": 0,
      "byteLength": 18560,
      "byteOffset": 1183560,
      "byteStride": 16,
      "name": "floatBufferViews"
    }
  ],
  "buffers": [
    {
      "byteLength": 1202120,
      "uri": "scene.bin"
    }
  ],
  "materials": [
    {
      "doubleSided": true,
      "name": "Boots",
      "pbrMetallicRoughness": {
        "baseColorFactor": [
          0.0422133,
          0.0195244,
          0.00623651,
          1.0
        ],
        "metallicFactor": 0.0,
        "roughnessFactor": 0.9954767486156418
      }
    },
    {
      "doubleSided": true,
      "name": "Iron",
      "pbrMetallicRoughness": {
        "baseColorFactor": [
          0.513695,
          0.513695,
          0.513695,
          1.0
        ],
        "metallicFactor": 0.6445733929855786,
        "roughnessFactor": 0.0
      }
    },
    {
      "doubleSided": true,
      "name": "Leather",
      "pbrMetallicRoughness": {
        "baseColorFactor": [
          0.80071,
          0.30237,
          0.108184,
          1.0
        ],
        "metallicFactor": 0.0
      }
    },
    {
      "doubleSided": true,
      "name": "Iron2",
      "pbrMetallicRoughness": {
        "baseColorFactor": [
          0.341561,
          0.341561,
          0.341561,
          1.0
        ],
        "metallicFactor": 0.0,
        "roughnessFactor": 0.9118961927949983
      }
    },
    {
      "doubleSided": true,
      "name": "material",
      "pbrMetallicRoughness": {
        "baseColorFactor": [
          0.800266,
          0.0,
          0.000410923,
          1.0
        ],
        "metallicFactor": 0.0,
        "roughnessFactor": 0.9619496764067818
      }
    },
    {
      "doubleSided": true,
      "name": "Eyes",
      "pbrMetallicRoughness": {
        "baseColorFactor": [
          0.0,
          0.0,
          0.0,
          1.0
        ],
        "metallicFactor": 0.0
      }
    },
    {
      "doubleSided": true,
      "name": "Skin",
      "pbrMetallicRoughness": {
        "baseColorFactor": [
          1.0,
          0.462473,
          0.331953,
          1.0
        ],
        "metallicFactor": 0.0,
        "roughnessFactor": 0.8731416705778451
      }
    }
  ],
  "meshes": [
    {
      "name": "Boots_Boots_0",
      "primitives": [
        {
          "attributes": {
            "JOINTS_0": 37,
            "NORMAL": 1,
            "POSITION": 0,
            "TEXCOORD_0": 2,
            "WEIGHTS_0": 38
          },
          "indices": 3,
          "material": 0,
          "mode": 4
        }
      ]
    },
    {
      "name": "Armor 1_Iron_0",
      "primitives": [
        {
          "attributes": {
            "JOINTS_0": 39,
            "NORMAL": 5,
            "POSITION": 4,
            "TEXCOORD_0": 6,
            "WEIGHTS_0": 40
          },
          "indices": 7,
          "material": 1,
          "mode": 4
        }
      ]
    },
    {
      "name": "Uniform_Leather_0",
      "primitives": [
        {
          "attributes": {
            "JOINTS_0": 41,
            "NORMAL": 9,
            "POSITION": 8,
            "TEXCOORD_0": 10,
            "WEIGHTS_0": 42
          },
          "indices": 11,
          "material": 2,
          "mode": 4
        }
      ]
    },
    {
      "name": "Helmet_Iron_0",
      "primitives": [
        {
          "attributes": {
            "JOINTS_0": 43,
            "NORMAL": 13,
            "POSITION": 12,
            "TEXCOORD_0": 14,
            "WEIGHTS_0": 44
          },
          "indices": 15,
          "material": 1,
          "mode": 4
        }
      ]
    },
    {
      "name": "Helmet_Iron2_0",
      "primitives": [
        {
          "attributes": {
            "JOINTS_0": 45,
            "NORMAL": 17,
            "POSITION": 16,
            "TEXCOORD_0": 18,
            "WEIGHTS_0": 46
          },
          "indices": 19,
          "material": 3,
          "mode": 4
        }
      ]
    },
    {
      "name": "Helmet_Top_0",
      "primitives": [
        {
          "attributes": {
            "JOINTS_0": 47,
            "NORMAL": 21,
            "POSITION": 20,
            "TEXCOORD_0": 22,
            "WEIGHTS_0": 48
          },
          "indices": 23,
          "material": 4,
          "mode": 4
        }
      ]
    },
    {
      "name": "Sphere_Eyes_0",
      "primitives": [
        {
          "attributes": {
            "JOINTS_0": 49,
            "NORMAL": 25,
            "POSITION": 24,
            "TEXCOORD_0": 26,
            "WEIGHTS_0": 50
          },
          "indices": 27,
          "material": 5,
          "mode": 4
        }
      ]
    },
    {
      "name": "Sphere_Skin_0",
      "primitives": [
        {
          "attributes": {
            "JOINTS_0": 51,
            "NORMAL": 29,
            "POSITION": 28,
            "TEXCOORD_0": 30,
            "WEIGHTS_0": 52
          },
          "indices": 31,
          "material": 6,
          "mode": 4
        }
      ]
    },
    {
      "name": "Armor_Iron_0",
      "primitives": [
        {
          "attributes": {
            "JOINTS_0": 53,
            "NORMAL": 33,
            "POSITION": 32,
            "TEXCOORD_0": 34,
            "WEIGHTS_0": 54
          },
          "indices": 35,
          "material": 1,
          "mode": 4
        }
      ]
    }
  ],
  "nodes": [
    {
      "children": [
        1
      ],
      "matrix": [
        1.4763920307159424,
        0.0,
        0.0,
        0.0,
        0.0,
        3.278248851747861e-16,
        -1.4763920307159424,
        0.0,
        0.0,
        1.4763920307159424,
        3.278248851747861e-16,
        0.0,
        0.0,
        0.0,
        0.0,
        1.0
      ],
      "name": "Sketchfab_model"
    },
    {
      "children": [
        2
      ],
      "matrix": [
        0.009999999776482582,
        0.0,
        0.0,
        0.0,
        0.0,
        0.0,
        0.009999999776482582,
        0.0,
        0.0,
        -0.009999999776482582,
        0.0,
        0.0,
        0.0,
        0.0,
        0.0,
        1.0
      ],
      "name": "500c0a876eda47d2bf3654c0fe9a9666.fbx"
    },
    {
      "children": [
        3
      ],
      "name": "Object_2"
    },
    {
      "children": [
        4
      ],
      "name": "RootNode"
    },
    {
      "children": [
        5,
        7,
        9,
        11,
        13,
        14,
        15,
        17,
        18,
        20,
        6,
        8,
        10,
        12,
        16,
        19,
        46,
        47,
        48,
        49,
        50,
        51
      ],
      "name": "Object_4"
    },
    {
      "children": [
        21
      ],
      "name": "_rootJoint"
    },
    {
      "matrix": [
        25.579074859619144,
        2.778505631920183e-17,
        5.063876228765289e-20,
        0.0,
        5.064328904790915e-20,
        -4.167360258457076e-06,
        -25.579074859618803,
        0.0,
        -2.778505631095136e-17,
        25.579074859618807,
        -4.1673602584570765e-06,
        0.0,
        -2.7474122047424334,
        110.39081573486328,
        2.7755575615628914e-17,
        1.0
      ],
      "name": "Object_6"
    },
    {
      "mesh": 0,
      "name": "Object_7",
      "skin": 0
    },
    {
      "matrix": [
        24.255067825317383,
        0.0,
        0.0,
        0.0,
        0.0,
        -5.73049363965413e-06,
        -35.173519134521015,
        0.0,
        0.0,
        30.36073493957478,
        -4.946391568073259e-06,
        0.0,
        0.0,
        67.90280151367188,
        0.0,
        1.0
      ],
      "name": "Object_8"
    },
    {
      "mesh": 1,
      "name": "Object_9",
      "skin": 0
    },
    {
      "matrix": [
        21.45859718322754,
        0.0,
        0.0,
        0.0,
        0.0,
        -3.496049235337861e-06,
        -21.45859718322726,
        0.0,
        0.0,
        21.45859718322726,
        -3.496049235337861e-06,
        0.0,
        0.0,
        87.42767333984375,
        0.0,
        1.0
      ],
      "name": "Object_10"
    },
    {
      "mesh": 2,
      "name": "Object_11",
      "skin": 0
    },
    {
      "matrix": [
        -24.418424606322958,
        2.990394553435438e-15,
        3.687079536142067e-06,
        0.0,
        3.6870795361420564e-06,
        1.8435397705026224e-06,
        24.41842460632289,
        0.0,
        -2.7537636626225134e-13,
        24.418424606323168,
        -1.8435397705026017e-06,
        0.0,
        0.0,
        76.0870361328125,
        -2.219395637512207,
        1.0
      ],
      "name": "Object_12"
    },
    {
      "mesh": 3,
      "name": "Object_13",
      "skin": 0
    },
    {
      "mesh": 4,
      "name": "Object_14",
      "skin": 0
    },
    {
      "mesh": 5,
      "name": "Object_15",
      "skin": 0
    },
    {
      "matrix": [
        1.879777193069458,
        0.0,
        0.0,
        0.0,
        0.0,
        -7.067713978867675e-07,
        -4.338131904601994,
        0.0,
        0.0,
        4.338131904601994,
        -7.067713978867675e-07,
        0.0,
        -8.038036346435547,
        168.8740692138672,
        13.041702270507813,
        1.0
      ],
      "name": "Object_16"
    },
    {
      "mesh": 6,
      "name": "Object_17",
      "skin": 0
    },
    {
      "mesh": 7,
      "name": "Object_18",
      "skin": 0
    },
    {
      "matrix": [
        2.3183436393737793,
        0.0,
        0.0,
        0.0,
        0.0,
        -9.438250915975953e-07,
        -5.793157100677412,
        0.0,
        0.0,
        5.20769739150994,
        -8.484415979293367e-07,
        0.0,
        -9.897735595703125,
        175.63198852539063,
        17.789247512817376,
        1.0
      ],
      "name": "Object_19"
    },
    {
      "mesh": 8,
      "name": "Object_20",
      "skin": 0
    },
    {
      "children": [
        22,
        36,
        41
      ],
      "name": "mixamorig:Hips_00",
      "translation": [
        0.0,
        81.23255920410156,
        -0.9608734250068665
      ]
    },
    {
      "children": [
        23
      ],
      "name": "mixamorig:Spine_01",
      "rotation": [
        -0.007600460667163134,
        -0.0,
        0.0,
        0.9999712109565735
      ],
      "translation": [
        0.0,
        11.918426513671875,
        -0.1811869740486145
      ]
    },
    {
      "children": [
        24
      ],
      "name": "mixamorig:Spine1_02",
      "rotation": [
        -5.8782352319042275e-09,
        -0.0,
        0.0,
        1.0
      ],
      "translation": [
        0.0,
        13.906444549560547,
        0.0
      ]
    },
    {
      "children": [
        25,
        28,
        32
      ],
      "name": "mixamorig:Spine2_03",
      "rotation": [
        -8.673617379884035e-19,
        -0.0,
        0.0,
        1.0
      ],
      "translation": [
        0.0,
        15.893078804016113,
        -2.220446049250313e-16
      ]
    },
    {
      "children": [
        26
      ],
      "name": "mixamorig:Neck_04",
      "rotation": [
        0.007600466720759869,
        0.0,
        0.0,
        0.9999712109565735
      ],
      "translation": [
        0.0,
        17.87970542907715,
        -4.107023698907142e-08
      ]
    },
    {
      "children": [
        27
      ],
      "name": "mixamorig:Head_05",
      "translation": [
        0.0,
        15.576934814453125,
        0.41970860958099365
      ]
    },
    {
      "name": "mixamorig:HeadTop_End_06",
      "translation": [
        0.0,
        58.31495666503906,
        1.5712518692016602
      ]
    },
    {
      "children": [
        29
      ],
      "name": "mixamorig:LeftShoulder_07",
      "rotation": [
        -0.5557084679603577,
        -0.4365244209766388,
        0.5591096878051758,
        -0.43362531065940857
      ],
      "translation": [
        9.57732105255127,
        15.733736038208008,
        -0.05619102716445923
      ]
    },
    {
      "children": [
        30
      ],
      "name": "mixamorig:LeftArm_08",
      "rotation": [
        -0.1038414016366005,
        -0.005549406632781029,
        0.053075700998306274,
        0.9931612014770508
      ],
      "translation": [
        0.0,
        18.85403060913086,
        -2.842170943040401e-14
      ]
    },
    {
      "children": [
        31
      ],
      "name": "mixamorig:LeftForeArm_09",
      "rotation": [
        -0.01756495051085949,
        0.0010400395840406418,
        -0.05909840390086174,
        0.9980970621109009
      ],
      "translation": [
        -1.3322676295501878e-15,
        23.130237579345703,
        2.842170943040401e-14
      ]
    },
    {
      "name": "mixamorig:LeftHand_010",
      "rotation": [
        -2.7159264420761886e-17,
        5.551115123125783e-17,
        2.42861286636753e-17,
        1.0
      ],
      "translation": [
        8.881784197001252e-16,
        22.483509063720703,
        2.842170943040401e-14
      ]
    },
    {
      "children": [
        33
      ],
      "name": "mixamorig:RightShoulder_011",
      "rotation": [
        0.5571289658546448,
        -0.43535616993904114,
        0.5577285289764404,
        0.43475422263145447
      ],
      "translation": [
        -9.57732105255127,
        15.733019828796387,
        -0.009067317470908165
      ]
    },
    {
      "children": [
        34
      ],
      "name": "mixamorig:RightArm_012",
      "rotation": [
        -0.1043851375579834,
        0.0040997290052473545,
        -0.0390300452709198,
        0.9937624335289001
      ],
      "translation": [
        -4.440892098500626e-16,
        18.85403060913086,
        -5.684341886080802e-14
      ]
    },
    {
      "children": [
        35
      ],
      "name": "mixamorig:RightForeArm_013",
      "rotation": [
        -0.01654699817299843,
        -0.0006153949070721865,
        0.037159938365221024,
        0.9991721510887146
      ],
      "translation": [
        -9.992007221626409e-16,
        23.084579467773438,
        5.684341886080802e-14
      ]
    },
    {
      "name": "mixamorig:RightHand_014",
      "rotation": [
        -1.6776334553318673e-17,
        3.8163916471489756e-17,
        -1.5720931501039814e-18,
        1.0
      ],
      "translation": [
        -8.881784197001252e-16,
        22.478641510009766,
        -2.842170943040401e-14
      ]
    },
    {
      "children": [
        37
      ],
      "name": "mixamorig:LeftUpLeg_015",
      "rotation": [
        -1.955357902261312e-06,
        -0.0009001696016639471,
        0.9999972581863403,
        -0.0021722044330090284
      ],
      "translation": [
        10.039899826049805,
        -6.640220642089844,
        1.017329216003418
      ]
    },
    {
      "children": [
        38
      ],
      "name": "mixamorig:LeftLeg_016",
      "rotation": [
        0.014911326579749584,
        -1.1899506716872565e-05,
        -0.0007979290676303208,
        0.9998885989189148
      ],
      "translation": [
        0.0,
        32.24193572998047,
        -1.3877787807814457e-17
      ]
    },
    {
      "children": [
        39
      ],
      "name": "mixamorig:LeftFoot_017",
      "rotation": [
        0.45906659960746765,
        0.0034683900885283947,
        -0.0017922488041222095,
        0.8883934020996094
      ],
      "translation": [
        1.7763568394002505e-15,
        28.775426864624023,
        0.0
      ]
    },
    {
      "children": [
        40
      ],
      "name": "mixamorig:LeftToeBase_018",
      "rotation": [
        0.2850148379802704,
        -0.019810928031802177,
        0.00589210819453001,
        0.9583003520965576
      ],
      "translation": [
        1.7763568394002505e-15,
        21.94520378112793,
        -7.105427357601002e-15
      ]
    },
    {
      "name": "mixamorig:LeftToe_End_019",
      "rotation": [
        4.7704895589362195e-17,
        -9.439335164201923e-17,
        -1.734723475976807e-18,
        1.0
      ],
      "translation": [
        -1.7763568394002505e-15,
        8.646402359008789,
        -6.661338147750939e-16
      ]
    },
    {
      "children": [
        42
      ],
      "name": "mixamorig:RightUpLeg_020",
      "rotation": [
        -7.64393280405784e-06,
        0.00351904658600688,
        0.9999914765357971,
        0.002172141568735242
      ],
      "translation": [
        -10.039899826049805,
        -6.640220642089844,
        0.910050630569458
      ]
    },
    {
      "children": [
        43
      ],
      "name": "mixamorig:RightLeg_021",
      "rotation": [
        0.010126064531505108,
        8.083326065388974e-06,
        0.0007982281385920942,
        0.9999485015869141
      ],
      "translation": [
        3.552713678800501e-15,
        32.242679595947266,
        5.551115123125783e-17
      ]
    },
    {
      "children": [
        44
      ],
      "name": "mixamorig:RightFoot_022",
      "rotation": [
        0.4565647840499878,
        -0.00353137101046741,
        0.001812221365980804,
        0.889681339263916
      ],
      "translation": [
        1.7763568394002505e-15,
        28.774843215942383,
        6.661338147750939e-16
      ]
    },
    {
      "children": [
        45
      ],
      "name": "mixamorig:RightToeBase_023",
      "rotation": [
        0.2880474030971527,
        0.019727865234017372,
        -0.0059354426339268684,
        0.957394540309906
      ],
      "translation": [
        0.0,
        21.738632202148438,
        -3.552713678800501e-15
      ]
    },
    {
      "name": "mixamorig:RightToe_End_024",
      "rotation": [
        4.336808689942018e-18,
        9.646688829689776e-17,
        8.673617379884035e-19,
        1.0
      ],
      "translation": [
        -3.552713678800501e-15,
        8.623920440673828,
        -2.220446049250313e-16
      ]
    },
    {
      "name": "Boots",
      "rotation": [
        -0.7071068286895752,
        0.0,
        0.0,
        0.7071067094802856
      ],
      "scale": [
        25.57907485961914,
        25.57907485961914,
        25.57907485961914
      ],
      "translation": [
        -2.7474122047424316,
        110.39081573486328,
        0.0
      ]
    },
    {
      "name": "Armor 1",
      "rotation": [
        -0.7071068286895752,
        0.0,
        0.0,
        0.7071067094802856
      ],
      "scale": [
        24.255067825317383,
        35.173519134521484,
        30.360734939575195
      ],
      "translation": [
        0.0,
        67.90280151367188,
        0.0
      ]
    },
    {
      "name": "Uniform",
      "rotation": [
        -0.7071068286895752,
        0.0,
        0.0,
        0.7071067094802856
      ],
      "scale": [
        21.45859718322754,
        21.45859718322754,
        21.45859718322754
      ],
      "translation": [
        0.0,
        87.42767333984375,
        0.0
      ]
    },
    {
      "name": "Helmet",
      "rotation": [
        5.338507591545749e-08,
        0.7071068286895752,
        0.7071067690849304,
        -5.338507946817117e-08
      ],
      "scale": [
        24.418424606323242,
        24.418424606323242,
        24.418424606323242
      ],
      "translation": [
        0.0,
        76.0870361328125,
        -2.219395637512207
      ]
    },
    {
      "name": "Sphere",
      "rotation": [
        -0.7071068286895752,
        0.0,
        0.0,
        0.7071067094802856
      ],
      "scale": [
        1.879777193069458,
        4.338131904602051,
        4.338131904602051
      ],
      "translation": [
        -8.038036346435547,
        168.8740692138672,
        13.041702270507813
      ]
    },
    {
      "name": "Armor",
      "rotation": [
        -0.7071068286895752,
        0.0,
        0.0,
        0.7071067094802856
      ],
      "scale": [
        2.3183436393737793,
        5.79315710067749,
        5.20769739151001
      ],
      "translation": [
        -9.897735595703125,
        175.63198852539063,
        17.789247512817383
      ]
    }
  ],
  "scene": 0,
  "scenes": [
    {
      "name": "Sketchfab_Scene",
      "nodes": [
        0
      ]
    }
  ],
  "skins": [
    {
      "inverseBindMatrices": 36,
      "joints": [
        5,
        21,
        22,
        23,
        24,
        25,
        26,
        27,
        28,
        29,
        30,
        31,
        32,
        33,
        34,
        35,
        36,
        37,
        38,
        39,
        40,
        41,
        42,
        43,
        44,
        45
      ],
      "skeleton": 5
    }
  ]
}
