{
  "accessors": [
    {
      "bufferView": 3,
      "componentType": 5126,
      "count": 1390,
      "max": [
        8553.6826171875,
        6007.3984375,
        2332.80029296875
      ],
      "min": [
        -24560.46875,
        -4731.76416015625,
        -2332.800537109375
      ],
      "type": "VEC3"
    },
    {
      "bufferView": 3,
      "byteOffset": 16680,
      "componentType": 5126,
      "count": 1390,
      "max": [
        1.0,
        1.0,
        1.0
      ],
      "min": [
        -1.0,
        -1.0,
        -1.0
      ],
      "type": "VEC3"
    },
    {
      "bufferView": 4,
      "componentType": 5126,
      "count": 1390,
      "max": [
        1.0,
        1.0,
        1.0,
        1.0
      ],
      "min": [
        -1.0,
        -1.0,
        -1.0,
        -1.0
      ],
      "type": "VEC4"
    },
    {
      "bufferView": 2,
      "componentType": 5126,
      "count": 1390,
      "max": [
        0.997337818145752,
        0.989739179611206
      ],
      "min": [
        0.0026438585482537746,
        0.002645152388140559
      ],
      "type": "VEC2"
    },
    {
      "bufferView": 1,
      "componentType": 5125,
      "count": 4464,
      "type": "SCALAR"
    },
    {
      "bufferView": 3,
      "byteOffset": 33360,
      "componentType": 5126,
      "count": 255,
      "max": [
        16076.8935546875,
        5360.41796875,
        1476.9801025390625
      ],
      "min": [
        5923.1064453125,
        -3360.4228515625,
        -1476.97998046875
      ],
      "type": "VEC3"
    },
    {
      "bufferView": 3,
      "byteOffset": 36420,
      "componentType": 5126,
      "count": 255,
      "max": [
        0.9995994567871094,
        0.9987596869468689,
        0.989938497543335
      ],
      "min": [
        -0.9995188117027283,
        -0.9977066516876221,
        -0.9899285435676575
      ],
      "type": "VEC3"
    },
    {
      "bufferView": 4,
      "byteOffset": 22240,
      "componentType": 5126,
      "count": 255,
      "max": [
        0.9937586188316345,
        0.9991969466209412,
        1.0,
        1.0
      ],
      "min": [
        -0.9941027760505676,
        -0.9994486570358276,
        -1.0,
        -1.0
      ],
      "type": "VEC4"
    },
    {
      "bufferView": 2,
      "byteOffset": 11120,
      "componentType": 5126,
      "count": 255,
      "max": [
        0.9967433214187622,
        0.9948375225067139
      ],
      "min": [
        0.0026487591676414013,
        0.002649277448654175
      ],
      "type": "VEC2"
    },
    {
      "bufferView": 1,
      "byteOffset": 17856,
      "componentType": 5125,
      "count": 576,
      "type": "SCALAR"
    },
    {
      "bufferView": 3,
      "byteOffset": 39480,
      "componentType": 5126,
      "count": 306,
      "max": [
        26639.9375,
        6794.7265625,
        867.6258544921875
      ],
      "min": [
        16610.7578125,
        -4022.27197265625,
        -867.6259765625
      ],
      "type": "VEC3"
    },
    {
      "bufferView": 3,
      "byteOffset": 43152,
      "componentType": 5126,
      "count": 306,
      "max": [
        0.9996151924133301,
        0.9999067783355713,
        0.999669075012207
      ],
      "min": [
        -0.997731626033783,
        -0.9985787868499756,
        -0.999669075012207
      ],
      "type": "VEC3"
    },
    {
      "bufferView": 4,
      "byteOffset": 26320,
      "componentType": 5126,
      "count": 306,
      "max": [
        0.9998792409896851,
        0.997731626033783,
        1.0,
        1.0
      ],
      "min": [
        -0.9908406138420105,
        -0.9995453357696533,
        -0.9999992251396179,
        -1.0
      ],
      "type": "VEC4"
    },
    {
      "bufferView": 2,
      "byteOffset": 13160,
      "componentType": 5126,
      "count": 306,
      "max": [
        0.9973528981208801,
        0.9952231049537659
      ],
      "min": [
        0.002823377028107643,
        0.002786075696349144
      ],
      "type": "VEC2"
    },
    {
      "bufferView": 1,
      "byteOffset": 20160,
      "componentType": 5125,
      "count": 708,
      "type": "SCALAR"
    },
    {
      "bufferView": 3,
      "byteOffset": 46824,
      "componentType": 5126,
      "count": 319,
      "max": [
        21268.08984375,
        9490.7861328125,
        1285.255126953125
      ],
      "min": [
        14627.4833984375,
        2785.8955078125,
        -1285.25341796875
      ],
      "type": "VEC3"
    },
    {
      "bufferView": 3,
      "byteOffset": 50652,
      "componentType": 5126,
      "count": 319,
      "max": [
        1.0,
        1.0,
        1.0
      ],
      "min": [
        -1.0,
        -1.0,
        -1.0
      ],
      "type": "VEC3"
    },
    {
      "bufferView": 4,
      "byteOffset": 31216,
      "componentType": 5126,
      "count": 319,
      "max": [
        0.9991350769996643,
        0.9999949336051941,
        1.0,
        1.0
      ],
      "min": [
        -0.9992688298225403,
        -0.9992574453353882,
        -1.0,
        1.0
      ],
      "type": "VEC4"
    },
    {
      "bufferView": 2,
      "byteOffset": 15608,
      "componentType": 5126,
      "count": 319,
      "max": [
        0.9863355159759521,
        0.9771973490715027
      ],
      "min": [
        0.002643598709255457,
        0.0026473975740373135
      ],
      "type": "VEC2"
    },
    {
      "bufferView": 1,
      "byteOffset": 22992,
      "componentType": 5125,
      "count": 828,
      "type": "SCALAR"
    },
    {
      "bufferView": 5,
      "componentType": 5126,
      "count": 26,
      "max": [
        1.0,
        9.999999747378752e-05,
        3.41581653628964e-05,
        0.0,
        9.758285887073725e-05,
        1.0,
        3.0151699320413172e-05,
        0.0,
        3.920942253898829e-05,
        9.087231774174143e-06,
        1.0,
        0.0,
        1.80417001247406,
        2.39550518989563,
        0.006425082683563232,
        1.0
      ],
      "min": [
        -9.358892566524446e-05,
        -9.756331564858556e-05,
        -4.0416816204924544e-07,
        0.0,
        -9.999999747378752e-05,
        -9.93181238300167e-05,
        -1.2321831491135526e-05,
        0.0,
        -3.9919419236866815e-07,
        -7.400093409160036e-07,
        9.154258441412821e-05,
        0.0,
        -1.8275519609451294,
        -0.4180242717266083,
        -0.7147414684295654,
        1.0
      ],
      "type": "MAT4"
    },
    {
      "bufferView": 0,
      "componentType": 5123,
      "count": 1390,
      "type": "VEC4"
    },
    {
      "bufferView": 4,
      "byteOffset": 36320,
      "componentType": 5126,
      "count": 1390,
      "max": [
        1.0,
        0.0,
        0.0,
        0.0
      ],
      "min": [
        1.0,
        0.0,
        0.0,
        0.0
      ],
      "type": "VEC4"
    },
    {
      "bufferView": 0,
      "byteOffset": 11120,
      "componentType": 5123,
      "count": 255,
      "type": "VEC4"
    },
    {
      "bufferView": 4,
      "byteOffset": 58560,
      "componentType": 5126,
      "count": 255,
      "max": [
        1.0,
        0.4989563524723053,
        0.2190370261669159,
        0.13404454290866852
      ],
      "min": [
        0.34787023067474365,
        0.0,
        0.0,
        0.0
      ],
      "type": "VEC4"
    },
    {
      "bufferView": 0,
      "byteOffset": 13160,
      "componentType": 5123,
      "count": 306,
      "type": "VEC4"
    },
    {
      "bufferView": 4,
      "byteOffset": 62640,
      "componentType": 5126,
      "count": 306,
      "max": [
        1.0,
        0.48874324560165405,
        0.0,
        0.0
      ],
      "min": [
        0.511256754398346,
        0.0,
        0.0,
        0.0
      ],
      "type": "VEC4"
    },
    {
      "bufferView": 0,
      "byteOffset": 15608,
      "componentType": 5123,
      "count": 319,
      "type": "VEC4"
    },
    {
      "bufferView": 4,
      "byteOffset": 67536,
      "componentType": 5126,
      "count": 319,
      "max": [
        1.0,
        0.46375441551208496,
        0.2033831626176834,
        0.05762721970677376
      ],
      "min": [
        0.4177297055721283,
        0.0,
        0.0,
        0.0
      ],
      "type": "VEC4"
    },
    {
      "bufferView": 6,
      "componentType": 5126,
      "count": 82,
      "max": [
        2.359999895095825
      ],
      "min": [
        0.0
      ],
      "type": "SCALAR"
    },
    {
      "bufferView": 7,
      "componentType": 5126,
      "count": 82,
      "max": [
        1.1003912687301636,
        3.6126677989959717,
        -2.3306424168367812e-07
      ],
      "min": [
        1.0846835374832153,
        3.5890400409698486,
        -2.3306424168367812e-07
      ],
      "type": "VEC3"
    },
    {
      "bufferView": 6,
      "byteOffset": 328,
      "componentType": 5126,
      "count": 112,
      "max": [
        2.359999895095825
      ],
      "min": [
        0.0
      ],
      "type": "SCALAR"
    },
    {
      "bufferView": 7,
      "byteOffset": 984,
      "componentType": 5126,
      "count": 112,
      "max": [
        1.1322722434997559,
        4.16300630569458,
        -2.3761495526741783e-07
      ],
      "min": [
        1.0217711925506592,
        4.16300630569458,
        -2.3761495526741783e-07
      ],
      "type": "VEC3"
    },
    {
      "bufferView": 6,
      "byteOffset": 776,
      "componentType": 5126,
      "count": 88,
      "max": [
        2.359999895095825
      ],
      "min": [
        0.0
      ],
      "type": "SCALAR"
    },
    {
      "bufferView": 7,
      "byteOffset": 2328,
      "componentType": 5126,
      "count": 88,
      "max": [
        1.1200320720672607,
        4.762446403503418,
        -2.3072200860951853e-07
      ],
      "min": [
        1.09942626953125,
        4.742373943328857,
        -2.3072200860951853e-07
      ],
      "type": "VEC3"
    },
    {
      "bufferView": 6,
      "byteOffset": 1128,
      "componentType": 5126,
      "count": 86,
      "max": [
        2.359999895095825
      ],
      "min": [
        0.0
      ],
      "type": "SCALAR"
    },
    {
      "bufferView": 7,
      "byteOffset": 3384,
      "componentType": 5126,
      "count": 86,
      "max": [
        -0.6125328540802002,
        -1.3755592220832114e-09,
        -2.8837077617645264
      ],
      "min": [
        -0.6125328540802002,
        -1.3755592220832114e-09,
        -2.9477481842041016
      ],
      "type": "VEC3"
    },
    {
      "bufferView": 6,
      "byteOffset": 1472,
      "componentType": 5126,
      "count": 82,
      "max": [
        2.359999895095825
      ],
      "min": [
        0.0
      ],
      "type": "SCALAR"
    },
    {
      "bufferView": 7,
      "byteOffset": 4416,
      "componentType": 5126,
      "count": 82,
      "max": [
        1.1003912687301636,
        3.6126677989959717,
        -2.3306424168367812e-07
      ],
      "min": [
        1.0846835374832153,
        3.5890400409698486,
        -2.3306424168367812e-07
      ],
      "type": "VEC3"
    },
    {
      "bufferView": 6,
      "byteOffset": 1800,
      "componentType": 5126,
      "count": 112,
      "max": [
        2.359999895095825
      ],
      "min": [
        0.0
      ],
      "type": "SCALAR"
    },
    {
      "bufferView": 7,
      "byteOffset": 5400,
      "componentType": 5126,
      "count": 112,
      "max": [
        1.1322722434997559,
        4.16300630569458,
        -2.3761495526741783e-07
      ],
      "min": [
        1.0217711925506592,
        4.16300630569458,
        -2.3761495526741783e-07
      ],
      "type": "VEC3"
    },
    {
      "bufferView": 6,
      "byteOffset": 2248,
      "componentType": 5126,
      "count": 88,
      "max": [
        2.359999895095825
      ],
      "min": [
        0.0
      ],
      "type": "SCALAR"
    },
    {
      "bufferView": 7,
      "byteOffset": 6744,
      "componentType": 5126,
      "count": 88,
      "max": [
        1.1200320720672607,
        4.762446403503418,
        -2.3072200860951853e-07
      ],
      "min": [
        1.09942626953125,
        4.742373943328857,
        -2.3072200860951853e-07
      ],
      "type": "VEC3"
    },
    {
      "bufferView": 6,
      "byteOffset": 2600,
      "componentType": 5126,
      "count": 86,
      "max": [
        2.359999895095825
      ],
      "min": [
        0.0
      ],
      "type": "SCALAR"
    },
    {
      "bufferView": 7,
      "byteOffset": 7800,
      "componentType": 5126,
      "count": 86,
      "max": [
        -0.6125328540802002,
        -1.3755592220832114e-09,
        -2.8837077617645264
      ],
      "min": [
        -0.6125328540802002,
        -1.3755592220832114e-09,
        -2.9477481842041016
      ],
      "type": "VEC3"
    }
  ],
  "animations": [
    {
      "channels": [
        {
          "sampler": 0,
          "target": {
            "node": 9,
            "path": "translation"
          }
        },
        {
          "sampler": 1,
          "target": {
            "node": 16,
            "path": "translation"
          }
        },
        {
          "sampler": 2,
          "target": {
            "node": 23,
            "path": "translation"
          }
        },
        {
          "sampler": 3,
          "target": {
            "node": 7,
            "path": "translation"
          }
        }
      ],
      "name": "SwordIdle",
      "samplers": [
        {
          "input": 29,
          "interpolation": "LINEAR",
          "output": 30
        },
        {
          "input": 31,
          "interpolation": "LINEAR",
          "output": 32
        },
        {
          "input": 33,
          "interpolation": "LINEAR",
          "output": 34
        },
        {
          "input": 35,
          "interpolation": "LINEAR",
          "output": 36
        }
      ]
    },
    {
      "channels": [
        {
          "sampler": 0,
          "target": {
            "node": 9,
            "path": "translation"
          }
        },
        {
          "sampler": 1,
          "target": {
            "node": 16,
            "path": "translation"
          }
        },
        {
          "sampler": 2,
          "target": {
            "node": 23,
            "path": "translation"
          }
        },
        {
          "sampler": 3,
          "target": {
            "node": 7,
            "path": "translation"
          }
        }
      ],
      "name": "Armature|SwordIdle",
      "samplers": [
        {
          "input": 37,
          "interpolation": "LINEAR",
          "output": 38
        },
        {
          "input": 39,
          "interpolation": "LINEAR",
          "output": 40
        },
        {
          "input": 41,
          "interpolation": "LINEAR",
          "output": 42
        },
        {
          "input": 43,
          "interpolation": "LINEAR",
          "output": 44
        }
      ]
    }
  ],
  "asset": {
    "extras": {
      "author": "Batuhan13 (https://sketchfab.com/Batuhan13)",
      "license": "CC-BY-4.0 (http://creativecommons.org/licenses/by/4.0/)",
      "source": "https://sketchfab.com/3d-models/ashbringer-legion-artifact-skin-57e6661029504188a1639e56d62cbd8f",
      "title": "Ashbringer Legion Artifact Skin"
    },
    "generator": "Sketchfab-12.65.0",
    "version": "2.0"
  },
  "bufferViews": [
    {
      "buffer": 0,
      "byteLength": 18160,
      "byteStride": 8,
      "name": "shortBufferViews",
      "target": 34962
    },
    {
      "buffer": 0,
      "byteLength": 26304,
      "byteOffset": 18160,
      "name": "floatBufferViews",
      "target": 34963
    },
    {
      "buffer": 0,
      "byteLength": 18160,
      "byteOffset": 44464,
      "byteStride": 8,
      "name": "floatBufferViews",
      "target": 34962
    },
    {
      "buffer": 0,
      "byteLength": 54480,
      "byteOffset": 62624,
      "byteStride": 12,
      "name": "floatBufferViews",
      "target": 34962
    },
    {
      "buffer": 0,
      "byteLength": 72640,
      "byteOffset": 117104,
      "byteStride": 16,
      "name": "floatBufferViews",
      "target": 34962
    },
    {
      "buffer": 0,
      "byteLength": 1664,
      "byteOffset": 189744,
      "name": "floatBufferViews"
    },
    {
      "buffer": 0,
      "byteLength": 2944,
      "byteOffset": 191408,
      "name": "floatBufferViews"
    },
    {
      "buffer": 0,
      "byteLength": 8832,
      "byteOffset": 194352,
      "byteStride": 12,
      "name": "floatBufferViews"
    }
  ],
  "buffers": [
    {
      "byteLength": 203184,
      "uri": "scene.bin"
    }
  ],
  "images": [
    {
      "uri": "textures/Sword.001_baseColor.png"
    },
    {
      "uri": "textures/Sword.001_metallicRoughness.png"
    },
    {
      "uri": "textures/Sword.001_emissive.png"
    },
    {
      "uri": "textures/Sword.001_normal.png"
    }
  ],
  "materials": [
    {
      "doubleSided": true,
      "emissiveFactor": [
        1.0,
        1.0,
        1.0
      ],
      "emissiveTexture": {
        "index": 2
      },
      "name": "Sword.001",
      "normalTexture": {
        "index": 3
      },
      "occlusionTexture": {
        "index": 1
      },
      "pbrMetallicRoughness": {
        "baseColorTexture": {
          "index": 0
        },
        "metallicRoughnessTexture": {
          "index": 1
        }
      }
    }
  ],
  "meshes": [
    {
      "name": "Cylinder.028_Sword.001_0",
      "primitives": [
        {
          "attributes": {
            "JOINTS_0": 21,
            "NORMAL": 1,
            "POSITION": 0,
            "TANGENT": 2,
            "TEXCOORD_0": 3,
            "WEIGHTS_0": 22
          },
          "indices": 4,
          "material": 0,
          "mode": 4
        }
      ]
    },
    {
      "name": "Cylinder.029_Sword.001_0",
      "primitives": [
        {
          "attributes": {
            "JOINTS_0": 23,
            "NORMAL": 6,
            "POSITION": 5,
            "TANGENT": 7,
            "TEXCOORD_0": 8,
            "WEIGHTS_0": 24
          },
          "indices": 9,
          "material": 0,
          "mode": 4
        }
      ]
    },
    {
      "name": "Cylinder.030_Sword.001_0",
      "primitives": [
        {
          "attributes": {
            "JOINTS_0": 25,
            "NORMAL": 11,
            "POSITION": 10,
            "TANGENT": 12,
            "TEXCOORD_0": 13,
            "WEIGHTS_0": 26
          },
          "indices": 14,
          "material": 0,
          "mode": 4
        }
      ]
    },
    {
      "name": "Cylinder.031_Sword.001_0",
      "primitives": [
        {
          "attributes": {
            "JOINTS_0": 27,
            "NORMAL": 16,
            "POSITION": 15,
            "TANGENT": 17,
            "TEXCOORD_0": 18,
            "WEIGHTS_0": 28
          },
          "indices": 19,
          "material": 0,
          "mode": 4
        }
      ]
    }
  ],
  "nodes": [
    {
      "children": [
        1
      ],
      "matrix": [
        1.0,
        0.0,
        0.0,
        0.0,
        0.0,
        2.220446049250313e-16,
        -1.0,
        0.0,
        0.0,
        1.0,
        2.220446049250313e-16,
        0.0,
        0.0,
        0.0,
        0.0,
        1.0
      ],
      "name": "Sketchfab_model"
    },
    {
      "children": [
        2
      ],
      "matrix": [
        1.0,
        0.0,
        0.0,
        0.0,
        0.0,
        0.0,
        1.0,
        0.0,
        0.0,
        -1.0,
        0.0,
        0.0,
        0.0,
        0.0,
        0.0,
        1.0
      ],
      "name": "7e2e8de96cda46838ddc93d0547e1e1f.fbx"
    },
    {
      "children": [
        3
      ],
      "name": "Object_2"
    },
    {
      "children": [
        4,
        40,
        41,
        42,
        43
      ],
      "name": "RootNode"
    },
    {
      "children": [
        5
      ],
      "name": "Armature",
      "rotation": [
        -0.7071068286895752,
        0.0,
        0.0,
        0.7071067094802856
      ],
      "scale": [
        100.0,
        100.0,
        100.0
      ],
      "translation": [
        110.29247283935547,
        9.155678749084473,
        2.889242523451685e-06
      ]
    },
    {
      "children": [
        6,
        33,
        35,
        37,
        39,
        32,
        34,
        36,
        38
      ],
      "name": "Object_5"
    },
    {
      "children": [
        7
      ],
      "name": "_rootJoint"
    },
    {
      "children": [
        8
      ],
      "name": "Root_00",
      "rotation": [
        0.7071068286895752,
        0.0,
        0.0,
        0.7071067094802856
      ],
      "translation": [
        -0.6125328540802002,
        -1.3755592220832114e-09,
        -2.9455387592315674
      ]
    },
    {
      "children": [
        9,
        16,
        23
      ],
      "name": "Handle_01",
      "rotation": [
        -2.6692543286799264e-08,
        -2.6692539734085585e-08,
        -0.7071068286895752,
        0.7071067094802856
      ],
      "translation": [
        -2.8547990322113037,
        2.895080327987671,
        1.322692497751632e-07
      ]
    },
    {
      "children": [
        10,
        13
      ],
      "name": "CuttedPart1_02",
      "rotation": [
        2.2590917581055692e-07,
        -7.708438687359376e-08,
        0.7081190943717957,
        0.7060930132865906
      ],
      "translation": [
        1.085239291191101,
        3.6149041652679443,
        -2.1879098710542166e-07
      ]
    },
    {
      "children": [
        11
      ],
      "name": "CuttedPart1.003_03",
      "rotation": [
        -0.003553383518010378,
        -0.0010318906279280782,
        0.28806185722351074,
        0.9576046466827393
      ],
      "scale": [
        0.9999998211860657,
        0.9999999403953552,
        0.9999999403953552
      ],
      "translation": [
        -0.0005543638253584504,
        0.7442230582237244,
        2.3736035359434027e-10
      ]
    },
    {
      "children": [
        12
      ],
      "name": "CuttedPart1.004_04",
      "rotation": [
        0.007849244400858879,
        -4.0744438933870697e-07,
        -0.017530057579278946,
        0.9998155236244202
      ],
      "scale": [
        1.0,
        0.9999997615814209,
        0.9999999403953552
      ],
      "translation": [
        2.05187973278953e-08,
        0.38225188851356506,
        2.3283064365386963e-10
      ]
    },
    {
      "name": "CuttedPart1.004_end_016",
      "rotation": [
        1.5110555140650775e-35,
        2.981555974335137e-19,
        -5.0680098816592925e-17,
        1.0
      ],
      "translation": [
        0.0,
        0.3408961296081543,
        4.336808689942018e-19
      ]
    },
    {
      "children": [
        14
      ],
      "name": "CuttedPart1.005_05",
      "rotation": [
        -7.71100872043462e-08,
        -6.059615031972498e-08,
        -0.15750904381275177,
        0.9875175356864929
      ],
      "scale": [
        0.9999999403953552,
        0.9999998807907104,
        1.0
      ],
      "translation": [
        0.16344203054904938,
        0.781367301940918,
        -6.998546098202496e-08
      ]
    },
    {
      "children": [
        15
      ],
      "name": "CuttedPart1.006_06",
      "rotation": [
        2.502839322460204e-07,
        5.360221067007842e-08,
        0.5123469829559326,
        0.8587785363197327
      ],
      "scale": [
        0.9999998807907104,
        0.9999998211860657,
        1.0
      ],
      "translation": [
        -5.951657389147158e-09,
        0.3712711036205292,
        2.0919030396804317e-14
      ]
    },
    {
      "name": "CuttedPart1.006_end_017",
      "rotation": [
        0.0,
        0.0,
        9.079923864558652e-17,
        1.0
      ],
      "translation": [
        0.0,
        0.4123639762401581,
        0.0
      ]
    },
    {
      "children": [
        17,
        19,
        21
      ],
      "name": "CuttedPart1.007_07",
      "rotation": [
        2.4041770529947826e-07,
        -9.155141356131935e-08,
        0.7081190943717957,
        0.7060930132865906
      ],
      "translation": [
        1.034224033355713,
        4.165110111236572,
        -2.1592016707927542e-07
      ]
    },
    {
      "children": [
        18
      ],
      "name": "CuttedPart1.010_08",
      "rotation": [
        0.15354245901107788,
        -0.01563095860183239,
        0.9386887550354004,
        0.30829182267189026
      ],
      "scale": [
        1.0000001192092896,
        1.0,
        1.0
      ],
      "translation": [
        -0.003342296462506056,
        1.8311454057693481,
        -0.01644078642129898
      ]
    },
    {
      "name": "CuttedPart1.010_end_018",
      "rotation": [
        2.7755575615628914e-17,
        -2.7755575615628914e-17,
        -2.2551405187698492e-17,
        1.0
      ],
      "translation": [
        0.0,
        0.30900537967681885,
        5.551115123125783e-17
      ]
    },
    {
      "children": [
        20
      ],
      "name": "CuttedPart1.012_09",
      "rotation": [
        0.1755371391773224,
        0.04625723883509636,
        0.9827916622161865,
        -0.034168899059295654
      ],
      "scale": [
        1.0000126361846924,
        1.000000238418579,
        1.0000113248825073
      ],
      "translation": [
        0.005337581504136324,
        1.824675440788269,
        -0.015920516103506088
      ]
    },
    {
      "name": "CuttedPart1.012_end_019",
      "rotation": [
        6.938893903907228e-18,
        -2.7755575615628914e-17,
        5.204170427930421e-18,
        1.0
      ],
      "translation": [
        -2.220446049250313e-16,
        0.42977434396743774,
        -1.1102230246251565e-16
      ]
    },
    {
      "children": [
        22
      ],
      "name": "CuttedPart1.013_010",
      "rotation": [
        0.17681877315044403,
        0.10498680919408798,
        0.9325535297393799,
        -0.2967440187931061
      ],
      "scale": [
        0.9999995231628418,
        0.9999998807907104,
        0.9999999403953552
      ],
      "translation": [
        0.01602926477789879,
        1.8129675388336182,
        -0.015124855563044548
      ]
    },
    {
      "name": "CuttedPart1.013_end_020",
      "rotation": [
        2.7755575615628914e-17,
        5.7777898331617076e-34,
        2.0816681711721685e-17,
        1.0
      ],
      "translation": [
        0.0,
        0.3721502721309662,
        1.1102230246251565e-16
      ]
    },
    {
      "children": [
        24,
        26,
        28,
        30
      ],
      "name": "CuttedPart1.008_011",
      "rotation": [
        2.4041770529947826e-07,
        -9.155141356131935e-08,
        0.7081190943717957,
        0.7060930132865906
      ],
      "translation": [
        1.1193029880523682,
        4.764346122741699,
        -2.2461125581685337e-07
      ]
    },
    {
      "children": [
        25
      ],
      "name": "CuttedPart1.001_012",
      "rotation": [
        0.007037762552499771,
        0.002514485502615571,
        0.07268655300140381,
        0.9973268508911133
      ],
      "scale": [
        0.9999999403953552,
        1.0,
        1.0
      ],
      "translation": [
        -0.5424798727035522,
        0.814158022403717,
        0.01342532504349947
      ]
    },
    {
      "name": "CuttedPart1.001_end_021",
      "rotation": [
        -1.734723475976807e-18,
        -1.610427260626534e-36,
        9.283481101907132e-19,
        1.0
      ],
      "translation": [
        -2.220446049250313e-16,
        0.3433791697025299,
        -3.469446951953614e-18
      ]
    },
    {
      "children": [
        27
      ],
      "name": "CuttedPart1.002_013",
      "rotation": [
        0.004239194095134735,
        0.0013199473032727838,
        0.24666020274162292,
        0.9690918326377869
      ],
      "translation": [
        -0.240289568901062,
        0.9040038585662842,
        0.018489820882678032
      ]
    },
    {
      "name": "CuttedPart1.002_end_022",
      "rotation": [
        -8.673617379884035e-19,
        3.5236570605778894e-19,
        -6.833014785500441e-18,
        1.0
      ],
      "translation": [
        2.220446049250313e-16,
        0.3459962010383606,
        0.0
      ]
    },
    {
      "children": [
        29
      ],
      "name": "CuttedPart1.009_014",
      "rotation": [
        0.00900891050696373,
        0.0023467503488063812,
        0.3895021378993988,
        0.9209784865379333
      ],
      "scale": [
        1.0,
        0.9999999403953552,
        1.0
      ],
      "translation": [
        0.0010995791526511312,
        1.1368473768234253,
        0.015864893794059753
      ]
    },
    {
      "name": "CuttedPart1.009_end_023",
      "rotation": [
        3.469446951953614e-18,
        2.168404344971009e-19,
        4.3818708427359465e-17,
        1.0
      ],
      "translation": [
        0.0,
        0.3003772497177124,
        6.938893903907228e-18
      ]
    },
    {
      "children": [
        31
      ],
      "name": "CuttedPart1.011_015",
      "rotation": [
        0.01662842556834221,
        0.002916911384090781,
        0.6242005228996277,
        0.7810817360877991
      ],
      "scale": [
        1.0,
        1.0,
        0.9999999403953552
      ],
      "translation": [
        0.1746155470609665,
        1.412965178489685,
        0.009474723599851131
      ]
    },
    {
      "name": "CuttedPart1.011_end_024",
      "rotation": [
        -6.573364409798232e-35,
        -1.734723475976807e-18,
        -3.789286592836838e-17,
        1.0
      ],
      "translation": [
        1.1102230246251565e-16,
        0.30501899123191833,
        1.3877787807814457e-17
      ]
    },
    {
      "matrix": [
        0.009999999747378752,
        0.0,
        0.0,
        0.0,
        0.0,
        -1.6292066655513861e-09,
        0.009999999747378752,
        0.0,
        0.0,
        -0.009999999747378752,
        -1.6292066655513861e-09,
        0.0,
        -134.0371732711792,
        9.99997615814209,
        3.026798367500305e-06,
        1.0
      ],
      "name": "Object_32"
    },
    {
      "mesh": 0,
      "name": "Object_33",
      "skin": 0
    },
    {
      "matrix": [
        0.009999999747378752,
        0.0,
        0.0,
        0.0,
        0.0,
        -1.6292066655513861e-09,
        0.009999999747378752,
        0.0,
        0.0,
        -0.009999999747378752,
        -1.6292066655513861e-09,
        0.0,
        -134.0371732711792,
        9.99997615814209,
        3.0267980122289373e-06,
        1.0
      ],
      "name": "Object_34"
    },
    {
      "mesh": 1,
      "name": "Object_35",
      "skin": 0
    },
    {
      "matrix": [
        0.009999999747378752,
        0.0,
        0.0,
        0.0,
        0.0,
        -1.6292066655513861e-09,
        0.009999999747378752,
        0.0,
        0.0,
        -0.009999999747378752,
        -1.6292066655513861e-09,
        0.0,
        -134.0371732711792,
        9.99997615814209,
        3.0267980122289373e-06,
        1.0
      ],
      "name": "Object_36"
    },
    {
      "mesh": 2,
      "name": "Object_37",
      "skin": 0
    },
    {
      "matrix": [
        0.009999999747378752,
        0.0,
        0.0,
        0.0,
        0.0,
        -1.6292066655513861e-09,
        0.009999999747378752,
        0.0,
        0.0,
        -0.009999999747378752,
        -1.6292066655513861e-09,
        0.0,
        -134.0371732711792,
        9.99997615814209,
        3.0267980122289373e-06,
        1.0
      ],
      "name": "Object_38"
    },
    {
      "mesh": 3,
      "name": "Object_39",
      "skin": 0
    },
    {
      "name": "Cylinder.028",
      "rotation": [
        0.7071068286895752,
        0.0,
        0.0,
        0.7071067094802856
      ],
      "scale": [
        0.009999999776482582,
        0.009999999776482582,
        0.009999999776482582
      ],
      "translation": [
        -134.03717041015625,
        10.000001907348633,
        3.026798367500305e-06
      ]
    },
    {
      "name": "Cylinder.029",
      "rotation": [
        0.7071068286895752,
        0.0,
        0.0,
        0.7071067094802856
      ],
      "scale": [
        0.009999999776482582,
        0.009999999776482582,
        0.009999999776482582
      ],
      "translation": [
        -134.03717041015625,
        10.000000953674316,
        3.0267979127529543e-06
      ]
    },
    {
      "name": "Cylinder.030",
      "rotation": [
        0.7071068286895752,
        0.0,
        0.0,
        0.7071067094802856
      ],
      "scale": [
        0.009999999776482582,
        0.009999999776482582,
        0.009999999776482582
      ],
      "translation": [
        -134.03717041015625,
        10.000000953674316,
        3.0267979127529543e-06
      ]
    },
    {
      "name": "Cylinder.031",
      "rotation": [
        0.7071068286895752,
        0.0,
        0.0,
        0.7071067094802856
      ],
      "scale": [
        0.009999999776482582,
        0.009999999776482582,
        0.009999999776482582
      ],
      "translation": [
        -134.03717041015625,
        10.000000953674316,
        3.0267979127529543e-06
      ]
    }
  ],
  "samplers": [
    {
      "magFilter": 9729,
      "minFilter": 9987,
      "wrapS": 10497,
      "wrapT": 10497
    }
  ],
  "scene": 0,
  "scenes": [
    {
      "name": "Sketchfab_Scene",
      "nodes": [
        0
      ]
    }
  ],
  "skins": [
    {
      "inverseBindMatrices": 20,
      "joints": [
        6,
        7,
        8,
        9,
        10,
        11,
        12,
        13,
        14,
        15,
        16,
        17,
        18,
        19,
        20,
        21,
        22,
        23,
        24,
        25,
        26,
        27,
        28,
        29,
        30,
        31
      ],
      "skeleton": 6
    }
  ],
  "textures": [
    {
      "sampler": 0,
      "source": 0
    },
    {
      "sampler": 0,
      "source": 1
    },
    {
      "sampler": 0,
      "source": 2
    },
    {
      "sampler": 0,
      "source": 3
    }
  ]
}
