{
  "accessors": [
    {
      "bufferView": 2,
      "componentType": 5126,
      "count": 13459,
      "max": [
        75.54068756103516,
        274.217529296875,
        16.962480545043945
      ],
      "min": [
        -75.54068756103516,
        -274.217529296875,
        -16.962501525878906
      ],
      "type": "VEC3"
    },
    {
      "bufferView": 2,
      "byteOffset": 161508,
      "componentType": 5126,
      "count": 13459,
      "max": [
        1.0,
        1.0,
        1.0
      ],
      "min": [
        -1.0,
        -1.0,
        -1.0
      ],
      "type": "VEC3"
    },
    {
      "bufferView": 3,
      "componentType": 5126,
      "count": 13459,
      "max": [
        0.9999998807907104,
        1.0,
        1.0,
        1.0
      ],
      "min": [
        -0.9972007870674133,
        -1.0,
        -0.9999909400939941,
        -1.0
      ],
      "type": "VEC4"
    },
    {
      "bufferView": 1,
      "componentType": 5126,
      "count": 13459,
      "max": [
        0.9958135485649109,
        1.0
      ],
      "min": [
        -1.776601088465668e-09,
        2.64133159788571e-11
      ],
      "type": "VEC2"
    },
    {
      "bufferView": 1,
      "byteOffset": 107672,
      "componentType": 5126,
      "count": 13459,
      "max": [
        0.9958135485649109,
        1.0
      ],
      "min": [
        -1.776601088465668e-09,
        2.64133159788571e-11
      ],
      "type": "VEC2"
    },
    {
      "bufferView": 0,
      "componentType": 5125,
      "count": 34932,
      "type": "SCALAR"
    }
  ],
  "asset": {
    "extras": {
      "author": "nodgerty (https://sketchfab.com/nodgert111)",
      "license": "CC-BY-4.0 (http://creativecommons.org/licenses/by/4.0/)",
      "source": "https://sketchfab.com/3d-models/free-gold-skull-glory-sword-game-ready-80732e7f0e404f82bb22b5ce43ff749f",
      "title": "FREE | Gold Skull Glory Sword (Game-Ready)"
    },
    "generator": "Sketchfab-17.20.0",
    "version": "2.0"
  },
  "bufferViews": [
    {
      "buffer": 0,
      "byteLength": 139728,
      "name": "floatBufferViews",
      "target": 34963
    },
    {
      "buffer": 0,
      "byteLength": 215344,
      "byteOffset": 139728,
      "byteStride": 8,
      "name": "floatBufferViews",
      "target": 34962
    },
    {
      "buffer": 0,
      "byteLength": 323016,
      "byteOffset": 355072,
      "byteStride": 12,
      "name": "floatBufferViews",
      "target": 34962
    },
    {
      "buffer": 0,
      "byteLength": 215344,
      "byteOffset": 678088,
      "byteStride": 16,
      "name": "floatBufferViews",
      "target": 34962
    }
  ],
  "buffers": [
    {
      "byteLength": 893432,
      "uri": "scene.bin"
    }
  ],
  "extensionsUsed": [
    "KHR_materials_clearcoat"
  ],
  "images": [
    {
      "uri": "textures/Material.001_baseColor.png"
    },
    {
      "uri": "textures/Material.001_metallicRoughness.png"
    },
    {
      "uri": "textures/Material.001_normal.png"
    },
    {
      "uri": "textures/Material.001_clearcoat.png"
    }
  ],
  "materials": [
    {
      "doubleSided": true,
      "extensions": {
        "KHR_materials_clearcoat": {
          "clearcoatFactor": 0.10209554924357864,
          "clearcoatRoughnessFactor": 1.0,
          "clearcoatRoughnessTexture": {
            "index": 1
          },
          "clearcoatTexture": {
            "index": 3
          }
        }
      },
      "name": "Material.001",
      "normalTexture": {
        "index": 2
      },
      "occlusionTexture": {
        "index": 1
      },
      "pbrMetallicRoughness": {
        "baseColorTexture": {
          "index": 0
        },
        "metallicRoughnessTexture": {
          "index": 1
        }
      }
    }
  ],
  "meshes": [
    {
      "name": "GlorySwordLP_Material.001_0",
      "primitives": [
        {
          "attributes": {
            "NORMAL": 1,
            "POSITION": 0,
            "TANGENT": 2,
            "TEXCOORD_0": 3,
            "TEXCOORD_1": 4
          },
          "indices": 5,
          "material": 0,
          "mode": 4
        }
      ]
    }
  ],
  "nodes": [
    {
      "children": [
        1
      ],
      "matrix": [
        -0.8200492262840271,
        0.5472347736358643,
        0.16749133169651043,
        0.0,
        -0.2797154188156128,
        -0.6385874152183534,
        0.7169138193130492,
        0.0,
        0.4992780089378357,
        0.5410547256469725,
        0.6767431497573854,
        0.0,
        0.0,
        0.0,
        0.0,
        1.0
      ],
      "name": "Sketchfab_model"
    },
    {
      "children": [
        2
      ],
      "matrix": [
        0.009999999776482582,
        0.0,
        0.0,
        0.0,
        0.0,
        0.0,
        0.009999999776482582,
        0.0,
        0.0,
        -0.009999999776482582,
        0.0,
        0.0,
        0.0,
        0.0,
        0.0,
        1.0
      ],
      "name": "GlorySword.fbx"
    },
    {
      "children": [
        3
      ],
      "name": "RootNode"
    },
    {
      "children": [
        4
      ],
      "name": "GlorySwordLP"
    },
    {
      "mesh": 0,
      "name": "GlorySwordLP_Material.001_0"
    }
  ],
  "samplers": [
    {
      "magFilter": 9729,
      "minFilter": 9987,
      "wrapS": 10497,
      "wrapT": 10497
    }
  ],
  "scene": 0,
  "scenes": [
    {
      "name": "Sketchfab_Scene",
      "nodes": [
        0
      ]
    }
  ],
  "textures": [
    {
      "sampler": 0,
      "source": 0
    },
    {
      "sampler": 0,
      "source": 1
    },
    {
      "sampler": 0,
      "source": 2
    },
    {
      "sampler": 0,
      "source": 3
    }
  ]
}
