{
  "accessors": [
    {
      "bufferView": 2,
      "componentType": 5126,
      "count": 10569,
      "max": [
        0.5303429961204529,
        1.0066399574279785,
        0.42649000883102417
      ],
      "min": [
        -0.5422599911689758,
        -1.0004899501800537,
        -0.42204800248146057
      ],
      "type": "VEC3"
    },
    {
      "bufferView": 2,
      "byteOffset": 126828,
      "componentType": 5126,
      "count": 10569,
      "max": [
        0.9998977184295654,
        0.9999421238899231,
        0.9998786449432373
      ],
      "min": [
        -0.9998999834060669,
        -0.9999085068702698,
        -0.999826192855835
      ],
      "type": "VEC3"
    },
    {
      "bufferView": 1,
      "componentType": 5126,
      "count": 10569,
      "max": [
        1.0,
        1.0
      ],
      "min": [
        7.95125961303711e-05,
        0.0010089874267578125
      ],
      "type": "VEC2"
    },
    {
      "bufferView": 0,
      "componentType": 5125,
      "count": 30000,
      "type": "SCALAR"
    }
  ],
  "asset": {
    "extras": {
      "author": "xd76fk (https://sketchfab.com/akkzabrat)",
      "license": "CC-BY-4.0 (http://creativecommons.org/licenses/by/4.0/)",
      "source": "https://sketchfab.com/3d-models/undead-skeleton-mage-dark-sorcerer-character-8cb0627bfc904fd0bfc1c90c15b3fa41",
      "title": "Undead Skeleton Mage | Dark Sorcerer Character"
    },
    "generator": "Sketchfab-16.67.0",
    "version": "2.0"
  },
  "bufferViews": [
    {
      "buffer": 0,
      "byteLength": 120000,
      "name": "floatBufferViews",
      "target": 34963
    },
    {
      "buffer": 0,
      "byteLength": 84552,
      "byteOffset": 120000,
      "byteStride": 8,
      "name": "floatBufferViews",
      "target": 34962
    },
    {
      "buffer": 0,
      "byteLength": 253656,
      "byteOffset": 204552,
      "byteStride": 12,
      "name": "floatBufferViews",
      "target": 34962
    }
  ],
  "buffers": [
    {
      "byteLength": 458208,
      "uri": "scene.bin"
    }
  ],
  "images": [
    {
      "uri": "textures/Material_0_baseColor.jpeg"
    }
  ],
  "materials": [
    {
      "doubleSided": true,
      "name": "Material_0",
      "pbrMetallicRoughness": {
        "baseColorTexture": {
          "index": 0
        },
        "metallicFactor": 0.0,
        "roughnessFactor": 0.8
      }
    }
  ],
  "meshes": [
    {
      "name": "Object_0",
      "primitives": [
        {
          "attributes": {
            "NORMAL": 1,
            "POSITION": 0,
            "TEXCOORD_0": 2
          },
          "indices": 3,
          "material": 0,
          "mode": 4
        }
      ]
    }
  ],
  "nodes": [
    {
      "children": [
        1
      ],
      "matrix": [
        1.0,
        0.0,
        0.0,
        0.0,
        0.0,
        2.220446049250313e-16,
        -1.0,
        0.0,
        0.0,
        1.0,
        2.220446049250313e-16,
        0.0,
        0.0,
        0.0,
        0.0,
        1.0
      ],
      "name": "Sketchfab_model"
    },
    {
      "children": [
        2
      ],
      "name": "root"
    },
    {
      "children": [
        3
      ],
      "matrix": [
        1.0,
        0.0,
        0.0,
        0.0,
        0.0,
        2.220446049250313e-16,
        1.0,
        0.0,
        0.0,
        -1.0,
        2.220446049250313e-16,
        0.0,
        0.0,
        0.0,
        0.0,
        1.0
      ],
      "name": "GLTF_SceneRootNode"
    },
    {
      "children": [
        4
      ],
      "matrix": [
        5.187512397766113,
        0.0,
        0.0,
        0.0,
        0.0,
        5.187512397766113,
        0.0,
        0.0,
        0.0,
        0.0,
        5.187512397766113,
        0.0,
        0.0,
        5.35875940322876,
        0.0,
        1.0
      ],
      "name": "Abyssal Necromancer_0"
    },
    {
      "mesh": 0,
      "name": "Object_4"
    }
  ],
  "samplers": [
    {
      "magFilter": 9729,
      "minFilter": 9987,
      "wrapS": 10497,
      "wrapT": 10497
    }
  ],
  "scene": 0,
  "scenes": [
    {
      "name": "Sketchfab_Scene",
      "nodes": [
        0
      ]
    }
  ],
  "textures": [
    {
      "sampler": 0,
      "source": 0
    }
  ]
}
