{
  "accessors": [
    {
      "bufferView": 2,
      "componentType": 5126,
      "count": 584,
      "max": [
        0.29232531785964966,
        0.14313262701034546,
        0.32325005531311035
      ],
      "min": [
        -0.2920556664466858,
        -0.17500251531600952,
        0.06713370233774185
      ],
      "type": "VEC3"
    },
    {
      "bufferView": 2,
      "byteOffset": 7008,
      "componentType": 5126,
      "count": 584,
      "max": [
        0.9839982390403748,
        0.9997453093528748,
        0.9998984336853027
      ],
      "min": [
        -0.9839982390403748,
        -0.9979732036590576,
        -0.9867498874664307
      ],
      "type": "VEC3"
    },
    {
      "bufferView": 1,
      "componentType": 5126,
      "count": 584,
      "max": [
        0.8028931617736816,
        0.9954911470413208
      ],
      "min": [
        0.03194829449057579,
        0.502556324005127
      ],
      "type": "VEC2"
    },
    {
      "bufferView": 0,
      "componentType": 5125,
      "count": 1338,
      "type": "SCALAR"
    },
    {
      "bufferView": 2,
      "byteOffset": 14016,
      "componentType": 5126,
      "count": 584,
      "max": [
        0.2923262417316437,
        0.14313167333602905,
        0.3232499957084656
      ],
      "min": [
        -0.2920563519001007,
        -0.17500324547290802,
        0.06713369488716125
      ],
      "type": "VEC3"
    },
    {
      "bufferView": 2,
      "byteOffset": 21024,
      "componentType": 5126,
      "count": 584,
      "max": [
        0.9839982986450195,
        0.9997453093528748,
        0.9998984336853027
      ],
      "min": [
        -0.9839982986450195,
        -0.9979732036590576,
        -0.9867495894432068
      ],
      "type": "VEC3"
    },
    {
      "bufferView": 1,
      "byteOffset": 4672,
      "componentType": 5126,
      "count": 584,
      "max": [
        0.8028931617736816,
        0.9954911470413208
      ],
      "min": [
        0.03194829449057579,
        0.502556324005127
      ],
      "type": "VEC2"
    },
    {
      "bufferView": 0,
      "byteOffset": 5352,
      "componentType": 5125,
      "count": 1338,
      "type": "SCALAR"
    },
    {
      "bufferView": 2,
      "byteOffset": 28032,
      "componentType": 5126,
      "count": 584,
      "max": [
        0.2923261821269989,
        0.14313164353370667,
        0.32325002551078796
      ],
      "min": [
        -0.2920565903186798,
        -0.17500349879264832,
        0.06713368743658066
      ],
      "type": "VEC3"
    },
    {
      "bufferView": 2,
      "byteOffset": 35040,
      "componentType": 5126,
      "count": 584,
      "max": [
        0.9839982986450195,
        0.9997453093528748,
        0.9998984336853027
      ],
      "min": [
        -0.9839982986450195,
        -0.9979732036590576,
        -0.9867498874664307
      ],
      "type": "VEC3"
    },
    {
      "bufferView": 1,
      "byteOffset": 9344,
      "componentType": 5126,
      "count": 584,
      "max": [
        0.8028931617736816,
        0.9954911470413208
      ],
      "min": [
        0.03194829449057579,
        0.502556324005127
      ],
      "type": "VEC2"
    },
    {
      "bufferView": 0,
      "byteOffset": 10704,
      "componentType": 5125,
      "count": 1338,
      "type": "SCALAR"
    },
    {
      "bufferView": 2,
      "byteOffset": 42048,
      "componentType": 5126,
      "count": 584,
      "max": [
        0.29232722520828247,
        0.14313167333602905,
        0.32325002551078796
      ],
      "min": [
        -0.29205742478370667,
        -0.1750044971704483,
        0.06713370233774185
      ],
      "type": "VEC3"
    },
    {
      "bufferView": 2,
      "byteOffset": 49056,
      "componentType": 5126,
      "count": 584,
      "max": [
        0.9839982390403748,
        0.9997453689575195,
        0.9998984336853027
      ],
      "min": [
        -0.9839982390403748,
        -0.9979732036590576,
        -0.9867498874664307
      ],
      "type": "VEC3"
    },
    {
      "bufferView": 1,
      "byteOffset": 14016,
      "componentType": 5126,
      "count": 584,
      "max": [
        0.8028931617736816,
        0.9954911470413208
      ],
      "min": [
        0.03194829449057579,
        0.502556324005127
      ],
      "type": "VEC2"
    },
    {
      "bufferView": 0,
      "byteOffset": 16056,
      "componentType": 5125,
      "count": 1338,
      "type": "SCALAR"
    },
    {
      "bufferView": 2,
      "byteOffset": 56064,
      "componentType": 5126,
      "count": 584,
      "max": [
        0.29232674837112427,
        0.14313167333602905,
        0.3232499957084656
      ],
      "min": [
        -0.2920568585395813,
        -0.1750040203332901,
        0.06713369488716125
      ],
      "type": "VEC3"
    },
    {
      "bufferView": 2,
      "byteOffset": 63072,
      "componentType": 5126,
      "count": 584,
      "max": [
        0.98399817943573,
        0.9997453093528748,
        0.9998984336853027
      ],
      "min": [
        -0.9839982986450195,
        -0.9979732036590576,
        -0.9867498874664307
      ],
      "type": "VEC3"
    },
    {
      "bufferView": 1,
      "byteOffset": 18688,
      "componentType": 5126,
      "count": 584,
      "max": [
        0.8028931617736816,
        0.9954911470413208
      ],
      "min": [
        0.03194829449057579,
        0.502556324005127
      ],
      "type": "VEC2"
    },
    {
      "bufferView": 0,
      "byteOffset": 21408,
      "componentType": 5125,
      "count": 1338,
      "type": "SCALAR"
    },
    {
      "bufferView": 2,
      "byteOffset": 70080,
      "componentType": 5126,
      "count": 584,
      "max": [
        0.29232627153396606,
        0.14313167333602905,
        0.32325005531311035
      ],
      "min": [
        -0.2920565605163574,
        -0.17500343918800354,
        0.06713375449180603
      ],
      "type": "VEC3"
    },
    {
      "bufferView": 2,
      "byteOffset": 77088,
      "componentType": 5126,
      "count": 584,
      "max": [
        0.9839982390403748,
        0.9997453093528748,
        0.9998984932899475
      ],
      "min": [
        -0.9839982390403748,
        -0.9979732036590576,
        -0.9867498278617859
      ],
      "type": "VEC3"
    },
    {
      "bufferView": 1,
      "byteOffset": 23360,
      "componentType": 5126,
      "count": 584,
      "max": [
        0.8028931617736816,
        0.9954911470413208
      ],
      "min": [
        0.03194829449057579,
        0.502556324005127
      ],
      "type": "VEC2"
    },
    {
      "bufferView": 0,
      "byteOffset": 26760,
      "componentType": 5125,
      "count": 1338,
      "type": "SCALAR"
    },
    {
      "bufferView": 2,
      "byteOffset": 84096,
      "componentType": 5126,
      "count": 413,
      "max": [
        0.24250707030296326,
        0.24694663286209106,
        0.37474799156188965
      ],
      "min": [
        -0.411784827709198,
        -0.2457548975944519,
        -0.024557024240493774
      ],
      "type": "VEC3"
    },
    {
      "bufferView": 2,
      "byteOffset": 89052,
      "componentType": 5126,
      "count": 413,
      "max": [
        0.9938397407531738,
        1.0,
        0.9999886155128479
      ],
      "min": [
        -0.9993663430213928,
        -1.0,
        -0.9999886155128479
      ],
      "type": "VEC3"
    },
    {
      "bufferView": 1,
      "byteOffset": 28032,
      "componentType": 5126,
      "count": 413,
      "max": [
        0.9782535433769226,
        0.9948086738586426
      ],
      "min": [
        0.5217464566230774,
        0.01000000536441803
      ],
      "type": "VEC2"
    },
    {
      "bufferView": 0,
      "byteOffset": 32112,
      "componentType": 5125,
      "count": 1128,
      "type": "SCALAR"
    },
    {
      "bufferView": 2,
      "byteOffset": 94008,
      "componentType": 5126,
      "count": 533,
      "max": [
        0.4042963981628418,
        0.34242796897888184,
        0.8393192887306213
      ],
      "min": [
        -0.46006345748901367,
        -0.43468737602233887,
        -0.01970699429512024
      ],
      "type": "VEC3"
    },
    {
      "bufferView": 2,
      "byteOffset": 100404,
      "componentType": 5126,
      "count": 533,
      "max": [
        1.0,
        1.0,
        1.0
      ],
      "min": [
        -1.0,
        -1.0,
        -0.9989426732063293
      ],
      "type": "VEC3"
    },
    {
      "bufferView": 1,
      "byteOffset": 31336,
      "componentType": 5126,
      "count": 533,
      "max": [
        0.875,
        1.0
      ],
      "min": [
        0.08940137177705765,
        0.0
      ],
      "type": "VEC2"
    },
    {
      "bufferView": 0,
      "byteOffset": 36624,
      "componentType": 5125,
      "count": 1326,
      "type": "SCALAR"
    },
    {
      "bufferView": 2,
      "byteOffset": 106800,
      "componentType": 5126,
      "count": 533,
      "max": [
        0.4042963981628418,
        0.34242796897888184,
        0.8393192887306213
      ],
      "min": [
        -0.46006345748901367,
        -0.43468737602233887,
        -0.01970699429512024
      ],
      "type": "VEC3"
    },
    {
      "bufferView": 2,
      "byteOffset": 113196,
      "componentType": 5126,
      "count": 533,
      "max": [
        1.0,
        1.0,
        1.0
      ],
      "min": [
        -1.0,
        -1.0,
        -0.9989426732063293
      ],
      "type": "VEC3"
    },
    {
      "bufferView": 1,
      "byteOffset": 35600,
      "componentType": 5126,
      "count": 533,
      "max": [
        0.875,
        1.0
      ],
      "min": [
        0.08940137177705765,
        0.0
      ],
      "type": "VEC2"
    },
    {
      "bufferView": 0,
      "byteOffset": 41928,
      "componentType": 5125,
      "count": 1326,
      "type": "SCALAR"
    },
    {
      "bufferView": 2,
      "byteOffset": 119592,
      "componentType": 5126,
      "count": 111,
      "max": [
        0.06821942329406738,
        0.01805383712053299,
        0.4938284158706665
      ],
      "min": [
        -0.06821942329406738,
        -0.01805383712053299,
        -5.8144330978393555e-05
      ],
      "type": "VEC3"
    },
    {
      "bufferView": 2,
      "byteOffset": 120924,
      "componentType": 5126,
      "count": 111,
      "max": [
        1.0,
        1.0,
        1.0
      ],
      "min": [
        -1.0,
        -1.0,
        -1.0
      ],
      "type": "VEC3"
    },
    {
      "bufferView": 1,
      "byteOffset": 39864,
      "componentType": 5126,
      "count": 111,
      "max": [
        0.7279932498931885,
        0.6147121787071228
      ],
      "min": [
        0.7173188924789429,
        0.6040378212928772
      ],
      "type": "VEC2"
    },
    {
      "bufferView": 0,
      "byteOffset": 47232,
      "componentType": 5125,
      "count": 318,
      "type": "SCALAR"
    },
    {
      "bufferView": 2,
      "byteOffset": 122256,
      "componentType": 5126,
      "count": 1150,
      "max": [
        0.37026074528694153,
        0.37069782614707947,
        0.43097418546676636
      ],
      "min": [
        -0.22631847858428955,
        -0.23973405361175537,
        -0.0015228986740112305
      ],
      "type": "VEC3"
    },
    {
      "bufferView": 2,
      "byteOffset": 136056,
      "componentType": 5126,
      "count": 1150,
      "max": [
        0.9996528625488281,
        0.999993622303009,
        0.9999704957008362
      ],
      "min": [
        -0.9991256594657898,
        -1.0,
        -0.9985950589179993
      ],
      "type": "VEC3"
    },
    {
      "bufferView": 1,
      "byteOffset": 40752,
      "componentType": 5126,
      "count": 1150,
      "max": [
        0.7404122352600098,
        0.9896531105041504
      ],
      "min": [
        0.021469779312610626,
        0.5144827365875244
      ],
      "type": "VEC2"
    },
    {
      "bufferView": 0,
      "byteOffset": 48504,
      "componentType": 5125,
      "count": 1932,
      "type": "SCALAR"
    },
    {
      "bufferView": 2,
      "byteOffset": 149856,
      "componentType": 5126,
      "count": 276,
      "max": [
        0.40139761567115784,
        0.3527422547340393,
        1.4157931804656982
      ],
      "min": [
        -0.3878743052482605,
        -0.39007407426834106,
        -0.10412190854549408
      ],
      "type": "VEC3"
    },
    {
      "bufferView": 2,
      "byteOffset": 153168,
      "componentType": 5126,
      "count": 276,
      "max": [
        0.9376466870307922,
        0.9775996804237366,
        1.0
      ],
      "min": [
        -0.9358053207397461,
        -0.9556999206542969,
        0.18475303053855896
      ],
      "type": "VEC3"
    },
    {
      "bufferView": 1,
      "byteOffset": 49952,
      "componentType": 5126,
      "count": 276,
      "max": [
        0.7128906846046448,
        0.8829969763755798
      ],
      "min": [
        0.5908737182617188,
        0.577427864074707
      ],
      "type": "VEC2"
    },
    {
      "bufferView": 0,
      "byteOffset": 56232,
      "componentType": 5125,
      "count": 426,
      "type": "SCALAR"
    },
    {
      "bufferView": 2,
      "byteOffset": 156480,
      "componentType": 5126,
      "count": 276,
      "max": [
        0.40139761567115784,
        0.3527422547340393,
        1.4157931804656982
      ],
      "min": [
        -0.3878743052482605,
        -0.39007407426834106,
        -0.10412190854549408
      ],
      "type": "VEC3"
    },
    {
      "bufferView": 2,
      "byteOffset": 159792,
      "componentType": 5126,
      "count": 276,
      "max": [
        0.9376466870307922,
        0.9775996804237366,
        1.0
      ],
      "min": [
        -0.9358053207397461,
        -0.9556999206542969,
        0.18475303053855896
      ],
      "type": "VEC3"
    },
    {
      "bufferView": 1,
      "byteOffset": 52160,
      "componentType": 5126,
      "count": 276,
      "max": [
        0.7128906846046448,
        0.9188502430915833
      ],
      "min": [
        0.5893235206604004,
        0.577427864074707
      ],
      "type": "VEC2"
    },
    {
      "bufferView": 0,
      "byteOffset": 57936,
      "componentType": 5125,
      "count": 426,
      "type": "SCALAR"
    },
    {
      "bufferView": 2,
      "byteOffset": 163104,
      "componentType": 5126,
      "count": 276,
      "max": [
        0.40139761567115784,
        0.3527422547340393,
        1.4157931804656982
      ],
      "min": [
        -0.3878743052482605,
        -0.39007407426834106,
        -0.10412190854549408
      ],
      "type": "VEC3"
    },
    {
      "bufferView": 2,
      "byteOffset": 166416,
      "componentType": 5126,
      "count": 276,
      "max": [
        0.9376466870307922,
        0.9775996804237366,
        1.0
      ],
      "min": [
        -0.9358053207397461,
        -0.9556999206542969,
        0.18475303053855896
      ],
      "type": "VEC3"
    },
    {
      "bufferView": 1,
      "byteOffset": 54368,
      "componentType": 5126,
      "count": 276,
      "max": [
        0.7128906846046448,
        0.7589812874794006
      ],
      "min": [
        0.583122730255127,
        0.5729313492774963
      ],
      "type": "VEC2"
    },
    {
      "bufferView": 0,
      "byteOffset": 59640,
      "componentType": 5125,
      "count": 426,
      "type": "SCALAR"
    },
    {
      "bufferView": 2,
      "byteOffset": 169728,
      "componentType": 5126,
      "count": 276,
      "max": [
        0.40139761567115784,
        0.3527422547340393,
        1.4157931804656982
      ],
      "min": [
        -0.3878743052482605,
        -0.39007407426834106,
        -0.10412190854549408
      ],
      "type": "VEC3"
    },
    {
      "bufferView": 2,
      "byteOffset": 173040,
      "componentType": 5126,
      "count": 276,
      "max": [
        0.9376466870307922,
        0.9775996804237366,
        1.0
      ],
      "min": [
        -0.9358053207397461,
        -0.9556999206542969,
        0.18475303053855896
      ],
      "type": "VEC3"
    },
    {
      "bufferView": 1,
      "byteOffset": 56576,
      "componentType": 5126,
      "count": 276,
      "max": [
        0.7128906846046448,
        0.711634635925293
      ],
      "min": [
        0.6404799818992615,
        0.1869325041770935
      ],
      "type": "VEC2"
    },
    {
      "bufferView": 0,
      "byteOffset": 61344,
      "componentType": 5125,
      "count": 426,
      "type": "SCALAR"
    },
    {
      "bufferView": 2,
      "byteOffset": 176352,
      "componentType": 5126,
      "count": 276,
      "max": [
        0.40139761567115784,
        0.3527422547340393,
        1.4157931804656982
      ],
      "min": [
        -0.3878743052482605,
        -0.39007407426834106,
        -0.10412190854549408
      ],
      "type": "VEC3"
    },
    {
      "bufferView": 2,
      "byteOffset": 179664,
      "componentType": 5126,
      "count": 276,
      "max": [
        0.9376466870307922,
        0.9775996804237366,
        1.0
      ],
      "min": [
        -0.9358053207397461,
        -0.9556999206542969,
        0.18475303053855896
      ],
      "type": "VEC3"
    },
    {
      "bufferView": 1,
      "byteOffset": 58784,
      "componentType": 5126,
      "count": 276,
      "max": [
        0.7128906846046448,
        0.8829969763755798
      ],
      "min": [
        0.5908737182617188,
        0.577427864074707
      ],
      "type": "VEC2"
    },
    {
      "bufferView": 0,
      "byteOffset": 63048,
      "componentType": 5125,
      "count": 426,
      "type": "SCALAR"
    },
    {
      "bufferView": 2,
      "byteOffset": 182976,
      "componentType": 5126,
      "count": 276,
      "max": [
        0.40139761567115784,
        0.3527422547340393,
        1.4157931804656982
      ],
      "min": [
        -0.3878743052482605,
        -0.39007407426834106,
        -0.10412190854549408
      ],
      "type": "VEC3"
    },
    {
      "bufferView": 2,
      "byteOffset": 186288,
      "componentType": 5126,
      "count": 276,
      "max": [
        0.9376466870307922,
        0.9775996804237366,
        1.0
      ],
      "min": [
        -0.9358053207397461,
        -0.9556999206542969,
        0.18475303053855896
      ],
      "type": "VEC3"
    },
    {
      "bufferView": 1,
      "byteOffset": 60992,
      "componentType": 5126,
      "count": 276,
      "max": [
        0.7128906846046448,
        0.8829969763755798
      ],
      "min": [
        0.5908737182617188,
        0.577427864074707
      ],
      "type": "VEC2"
    },
    {
      "bufferView": 0,
      "byteOffset": 64752,
      "componentType": 5125,
      "count": 426,
      "type": "SCALAR"
    },
    {
      "bufferView": 2,
      "byteOffset": 189600,
      "componentType": 5126,
      "count": 276,
      "max": [
        0.40139761567115784,
        0.3527422547340393,
        1.4157931804656982
      ],
      "min": [
        -0.3878743052482605,
        -0.39007407426834106,
        -0.10412190854549408
      ],
      "type": "VEC3"
    },
    {
      "bufferView": 2,
      "byteOffset": 192912,
      "componentType": 5126,
      "count": 276,
      "max": [
        0.9376466870307922,
        0.9775996804237366,
        1.0
      ],
      "min": [
        -0.9358053207397461,
        -0.9556999206542969,
        0.18475303053855896
      ],
      "type": "VEC3"
    },
    {
      "bufferView": 1,
      "byteOffset": 63200,
      "componentType": 5126,
      "count": 276,
      "max": [
        0.7128906846046448,
        0.8829969763755798
      ],
      "min": [
        0.5908737182617188,
        0.577427864074707
      ],
      "type": "VEC2"
    },
    {
      "bufferView": 0,
      "byteOffset": 66456,
      "componentType": 5125,
      "count": 426,
      "type": "SCALAR"
    },
    {
      "bufferView": 2,
      "byteOffset": 196224,
      "componentType": 5126,
      "count": 276,
      "max": [
        0.40139761567115784,
        0.3527422547340393,
        1.4157931804656982
      ],
      "min": [
        -0.3878743052482605,
        -0.39007407426834106,
        -0.10412190854549408
      ],
      "type": "VEC3"
    },
    {
      "bufferView": 2,
      "byteOffset": 199536,
      "componentType": 5126,
      "count": 276,
      "max": [
        0.9376466870307922,
        0.9775996804237366,
        1.0
      ],
      "min": [
        -0.9358053207397461,
        -0.9556999206542969,
        0.18475303053855896
      ],
      "type": "VEC3"
    },
    {
      "bufferView": 1,
      "byteOffset": 65408,
      "componentType": 5126,
      "count": 276,
      "max": [
        0.7128906846046448,
        0.711634635925293
      ],
      "min": [
        0.5805248618125916,
        0.13691896200180054
      ],
      "type": "VEC2"
    },
    {
      "bufferView": 0,
      "byteOffset": 68160,
      "componentType": 5125,
      "count": 426,
      "type": "SCALAR"
    },
    {
      "bufferView": 2,
      "byteOffset": 202848,
      "componentType": 5126,
      "count": 276,
      "max": [
        0.40139761567115784,
        0.3527422547340393,
        1.4157931804656982
      ],
      "min": [
        -0.3878743052482605,
        -0.39007407426834106,
        -0.10412190854549408
      ],
      "type": "VEC3"
    },
    {
      "bufferView": 2,
      "byteOffset": 206160,
      "componentType": 5126,
      "count": 276,
      "max": [
        0.9376466870307922,
        0.9775996804237366,
        1.0
      ],
      "min": [
        -0.9358053207397461,
        -0.9556999206542969,
        0.18475303053855896
      ],
      "type": "VEC3"
    },
    {
      "bufferView": 1,
      "byteOffset": 67616,
      "componentType": 5126,
      "count": 276,
      "max": [
        0.7128906846046448,
        0.8829969763755798
      ],
      "min": [
        0.5908737182617188,
        0.577427864074707
      ],
      "type": "VEC2"
    },
    {
      "bufferView": 0,
      "byteOffset": 69864,
      "componentType": 5125,
      "count": 426,
      "type": "SCALAR"
    },
    {
      "bufferView": 2,
      "byteOffset": 209472,
      "componentType": 5126,
      "count": 276,
      "max": [
        0.40139761567115784,
        0.3527422547340393,
        1.4157931804656982
      ],
      "min": [
        -0.3878743052482605,
        -0.39007407426834106,
        -0.015273317694664001
      ],
      "type": "VEC3"
    },
    {
      "bufferView": 2,
      "byteOffset": 212784,
      "componentType": 5126,
      "count": 276,
      "max": [
        0.9376466870307922,
        0.9775996804237366,
        1.0
      ],
      "min": [
        -0.9296550154685974,
        -0.9556999206542969,
        0.18475303053855896
      ],
      "type": "VEC3"
    },
    {
      "bufferView": 1,
      "byteOffset": 69824,
      "componentType": 5126,
      "count": 276,
      "max": [
        0.7128906846046448,
        0.711634635925293
      ],
      "min": [
        0.6559819579124451,
        0.15352940559387207
      ],
      "type": "VEC2"
    },
    {
      "bufferView": 0,
      "byteOffset": 71568,
      "componentType": 5125,
      "count": 426,
      "type": "SCALAR"
    },
    {
      "bufferView": 2,
      "byteOffset": 216096,
      "componentType": 5126,
      "count": 276,
      "max": [
        0.40139761567115784,
        0.3527422547340393,
        1.4157931804656982
      ],
      "min": [
        -0.3878743052482605,
        -0.39007407426834106,
        -0.015273317694664001
      ],
      "type": "VEC3"
    },
    {
      "bufferView": 2,
      "byteOffset": 219408,
      "componentType": 5126,
      "count": 276,
      "max": [
        0.9376466870307922,
        0.9775996804237366,
        1.0
      ],
      "min": [
        -0.9296550154685974,
        -0.9556999206542969,
        0.18475303053855896
      ],
      "type": "VEC3"
    },
    {
      "bufferView": 1,
      "byteOffset": 72032,
      "componentType": 5126,
      "count": 276,
      "max": [
        0.7128906846046448,
        0.711634635925293
      ],
      "min": [
        0.6006774306297302,
        0.15685057640075684
      ],
      "type": "VEC2"
    },
    {
      "bufferView": 0,
      "byteOffset": 73272,
      "componentType": 5125,
      "count": 426,
      "type": "SCALAR"
    },
    {
      "bufferView": 2,
      "byteOffset": 222720,
      "componentType": 5126,
      "count": 276,
      "max": [
        0.40139761567115784,
        0.3527422547340393,
        1.4157931804656982
      ],
      "min": [
        -0.3878743052482605,
        -0.39007407426834106,
        -0.015273317694664001
      ],
      "type": "VEC3"
    },
    {
      "bufferView": 2,
      "byteOffset": 226032,
      "componentType": 5126,
      "count": 276,
      "max": [
        0.9376466870307922,
        0.9775996804237366,
        1.0
      ],
      "min": [
        -0.9296550154685974,
        -0.9556999206542969,
        0.18475303053855896
      ],
      "type": "VEC3"
    },
    {
      "bufferView": 1,
      "byteOffset": 74240,
      "componentType": 5126,
      "count": 276,
      "max": [
        0.7128906846046448,
        0.711634635925293
      ],
      "min": [
        0.6063756942749023,
        0.20088428258895874
      ],
      "type": "VEC2"
    },
    {
      "bufferView": 0,
      "byteOffset": 74976,
      "componentType": 5125,
      "count": 426,
      "type": "SCALAR"
    },
    {
      "bufferView": 2,
      "byteOffset": 229344,
      "componentType": 5126,
      "count": 789,
      "max": [
        3.7510130405426025,
        2.9710209369659424,
        1.0657461881637573
      ],
      "min": [
        -1.4585219621658325,
        -1.8917068243026733,
        -1.0773439407348633
      ],
      "type": "VEC3"
    },
    {
      "bufferView": 2,
      "byteOffset": 238812,
      "componentType": 5126,
      "count": 789,
      "max": [
        0.9986035823822021,
        0.8695979714393616,
        1.0
      ],
      "min": [
        -0.9986035823822021,
        -0.8659595251083374,
        -1.0
      ],
      "type": "VEC3"
    },
    {
      "bufferView": 1,
      "byteOffset": 76448,
      "componentType": 5126,
      "count": 789,
      "max": [
        0.5328885316848755,
        0.9914394617080688
      ],
      "min": [
        0.0940951406955719,
        0.5092325210571289
      ],
      "type": "VEC2"
    },
    {
      "bufferView": 0,
      "byteOffset": 76680,
      "componentType": 5125,
      "count": 1560,
      "type": "SCALAR"
    },
    {
      "bufferView": 2,
      "byteOffset": 248280,
      "componentType": 5126,
      "count": 19,
      "max": [
        0.8801990151405334,
        0.0021156729198992252,
        2.5887343883514404
      ],
      "min": [
        -0.9739001989364624,
        -0.0007052173605188727,
        -0.18542827665805817
      ],
      "type": "VEC3"
    },
    {
      "bufferView": 2,
      "byteOffset": 248508,
      "componentType": 5126,
      "count": 19,
      "max": [
        0.0016473059076815844,
        -0.9999933242797852,
        0.0003831553622148931
      ],
      "min": [
        -0.003652184270322323,
        -1.0,
        -4.6508725063176826e-05
      ],
      "type": "VEC3"
    },
    {
      "bufferView": 1,
      "byteOffset": 82760,
      "componentType": 5126,
      "count": 19,
      "max": [
        0.9656345844268799,
        0.6053557395935059
      ],
      "min": [
        0.9656345844268799,
        0.5066564083099365
      ],
      "type": "VEC2"
    },
    {
      "bufferView": 0,
      "byteOffset": 82920,
      "componentType": 5125,
      "count": 27,
      "type": "SCALAR"
    },
    {
      "bufferView": 2,
      "byteOffset": 248736,
      "componentType": 5126,
      "count": 19,
      "max": [
        0.8801990151405334,
        0.0021156729198992252,
        2.5887343883514404
      ],
      "min": [
        -0.9739001989364624,
        -0.0007052173605188727,
        -0.18542827665805817
      ],
      "type": "VEC3"
    },
    {
      "bufferView": 2,
      "byteOffset": 248964,
      "componentType": 5126,
      "count": 19,
      "max": [
        0.0016473059076815844,
        -0.9999933242797852,
        0.0003831553622148931
      ],
      "min": [
        -0.003652184270322323,
        -1.0,
        -4.6508725063176826e-05
      ],
      "type": "VEC3"
    },
    {
      "bufferView": 1,
      "byteOffset": 82912,
      "componentType": 5126,
      "count": 19,
      "max": [
        0.9776456952095032,
        0.6053557395935059
      ],
      "min": [
        0.9536234736442566,
        0.5066564083099365
      ],
      "type": "VEC2"
    },
    {
      "bufferView": 0,
      "byteOffset": 83028,
      "componentType": 5125,
      "count": 27,
      "type": "SCALAR"
    },
    {
      "bufferView": 2,
      "byteOffset": 249192,
      "componentType": 5126,
      "count": 19,
      "max": [
        0.8801990151405334,
        0.0021156729198992252,
        2.5887343883514404
      ],
      "min": [
        -0.9739001989364624,
        -0.0007052173605188727,
        -0.18542827665805817
      ],
      "type": "VEC3"
    },
    {
      "bufferView": 2,
      "byteOffset": 249420,
      "componentType": 5126,
      "count": 19,
      "max": [
        0.0016473059076815844,
        -0.9999933242797852,
        0.0003831553622148931
      ],
      "min": [
        -0.003652184270322323,
        -1.0,
        -4.6508725063176826e-05
      ],
      "type": "VEC3"
    },
    {
      "bufferView": 1,
      "byteOffset": 83064,
      "componentType": 5126,
      "count": 19,
      "max": [
        0.9776456952095032,
        0.6053557395935059
      ],
      "min": [
        0.9536234736442566,
        0.5066564083099365
      ],
      "type": "VEC2"
    },
    {
      "bufferView": 0,
      "byteOffset": 83136,
      "componentType": 5125,
      "count": 27,
      "type": "SCALAR"
    },
    {
      "bufferView": 2,
      "byteOffset": 249648,
      "componentType": 5126,
      "count": 19,
      "max": [
        0.8801990151405334,
        0.0021156729198992252,
        2.5887343883514404
      ],
      "min": [
        -0.9739001989364624,
        -0.0007052173605188727,
        -0.18542827665805817
      ],
      "type": "VEC3"
    },
    {
      "bufferView": 2,
      "byteOffset": 249876,
      "componentType": 5126,
      "count": 19,
      "max": [
        0.0016473059076815844,
        -0.9999933242797852,
        0.0003831553622148931
      ],
      "min": [
        -0.003652184270322323,
        -1.0,
        -4.6508725063176826e-05
      ],
      "type": "VEC3"
    },
    {
      "bufferView": 1,
      "byteOffset": 83216,
      "componentType": 5126,
      "count": 19,
      "max": [
        0.9776456952095032,
        0.6053557395935059
      ],
      "min": [
        0.9536234736442566,
        0.5066564083099365
      ],
      "type": "VEC2"
    },
    {
      "bufferView": 0,
      "byteOffset": 83244,
      "componentType": 5125,
      "count": 27,
      "type": "SCALAR"
    },
    {
      "bufferView": 2,
      "byteOffset": 250104,
      "componentType": 5126,
      "count": 19,
      "max": [
        0.8801990151405334,
        0.0021156729198992252,
        2.5887343883514404
      ],
      "min": [
        -0.9739001989364624,
        -0.0007052173605188727,
        -0.18542827665805817
      ],
      "type": "VEC3"
    },
    {
      "bufferView": 2,
      "byteOffset": 250332,
      "componentType": 5126,
      "count": 19,
      "max": [
        0.0016473059076815844,
        -0.9999933242797852,
        0.0003831553622148931
      ],
      "min": [
        -0.003652184270322323,
        -1.0,
        -4.6508725063176826e-05
      ],
      "type": "VEC3"
    },
    {
      "bufferView": 1,
      "byteOffset": 83368,
      "componentType": 5126,
      "count": 19,
      "max": [
        0.9776456952095032,
        0.6053557395935059
      ],
      "min": [
        0.9536234736442566,
        0.5066564083099365
      ],
      "type": "VEC2"
    },
    {
      "bufferView": 0,
      "byteOffset": 83352,
      "componentType": 5125,
      "count": 27,
      "type": "SCALAR"
    },
    {
      "bufferView": 2,
      "byteOffset": 250560,
      "componentType": 5126,
      "count": 276,
      "max": [
        0.40139761567115784,
        0.3527422547340393,
        1.4157931804656982
      ],
      "min": [
        -0.3878743052482605,
        -0.39007407426834106,
        -0.10412190854549408
      ],
      "type": "VEC3"
    },
    {
      "bufferView": 2,
      "byteOffset": 253872,
      "componentType": 5126,
      "count": 276,
      "max": [
        0.9376466870307922,
        0.9775996804237366,
        1.0
      ],
      "min": [
        -0.9358053207397461,
        -0.9556999206542969,
        0.18475303053855896
      ],
      "type": "VEC3"
    },
    {
      "bufferView": 1,
      "byteOffset": 83520,
      "componentType": 5126,
      "count": 276,
      "max": [
        0.7128906846046448,
        0.7884350419044495
      ],
      "min": [
        0.5851754546165466,
        0.577427864074707
      ],
      "type": "VEC2"
    },
    {
      "bufferView": 0,
      "byteOffset": 83460,
      "componentType": 5125,
      "count": 426,
      "type": "SCALAR"
    },
    {
      "bufferView": 2,
      "byteOffset": 257184,
      "componentType": 5126,
      "count": 276,
      "max": [
        0.40139761567115784,
        0.3527422547340393,
        1.4157931804656982
      ],
      "min": [
        -0.3878743052482605,
        -0.39007407426834106,
        -0.10412190854549408
      ],
      "type": "VEC3"
    },
    {
      "bufferView": 2,
      "byteOffset": 260496,
      "componentType": 5126,
      "count": 276,
      "max": [
        0.9376466870307922,
        0.9775996804237366,
        1.0
      ],
      "min": [
        -0.9358053207397461,
        -0.9556999206542969,
        0.18475303053855896
      ],
      "type": "VEC3"
    },
    {
      "bufferView": 1,
      "byteOffset": 85728,
      "componentType": 5126,
      "count": 276,
      "max": [
        0.7128906846046448,
        0.711634635925293
      ],
      "min": [
        0.5944766402244568,
        0.20398467779159546
      ],
      "type": "VEC2"
    },
    {
      "bufferView": 0,
      "byteOffset": 85164,
      "componentType": 5125,
      "count": 426,
      "type": "SCALAR"
    },
    {
      "bufferView": 2,
      "byteOffset": 263808,
      "componentType": 5126,
      "count": 276,
      "max": [
        0.40139761567115784,
        0.3527422547340393,
        1.4157931804656982
      ],
      "min": [
        -0.3878743052482605,
        -0.39007407426834106,
        -0.10412190854549408
      ],
      "type": "VEC3"
    },
    {
      "bufferView": 2,
      "byteOffset": 267120,
      "componentType": 5126,
      "count": 276,
      "max": [
        0.9376466870307922,
        0.9775996804237366,
        1.0
      ],
      "min": [
        -0.9358053207397461,
        -0.9556999206542969,
        0.18475303053855896
      ],
      "type": "VEC3"
    },
    {
      "bufferView": 1,
      "byteOffset": 87936,
      "componentType": 5126,
      "count": 276,
      "max": [
        0.7128906846046448,
        0.8829969763755798
      ],
      "min": [
        0.5908737182617188,
        0.577427864074707
      ],
      "type": "VEC2"
    },
    {
      "bufferView": 0,
      "byteOffset": 86868,
      "componentType": 5125,
      "count": 426,
      "type": "SCALAR"
    },
    {
      "bufferView": 2,
      "byteOffset": 270432,
      "componentType": 5126,
      "count": 276,
      "max": [
        0.40139761567115784,
        0.3527422547340393,
        1.4157931804656982
      ],
      "min": [
        -0.3878743052482605,
        -0.39007407426834106,
        -0.10412190854549408
      ],
      "type": "VEC3"
    },
    {
      "bufferView": 2,
      "byteOffset": 273744,
      "componentType": 5126,
      "count": 276,
      "max": [
        0.9376466870307922,
        0.9775996804237366,
        1.0
      ],
      "min": [
        -0.9358053207397461,
        -0.9556999206542969,
        0.18475303053855896
      ],
      "type": "VEC3"
    },
    {
      "bufferView": 1,
      "byteOffset": 90144,
      "componentType": 5126,
      "count": 276,
      "max": [
        0.7128906846046448,
        0.8829969763755798
      ],
      "min": [
        0.5908737182617188,
        0.577427864074707
      ],
      "type": "VEC2"
    },
    {
      "bufferView": 0,
      "byteOffset": 88572,
      "componentType": 5125,
      "count": 426,
      "type": "SCALAR"
    },
    {
      "bufferView": 2,
      "byteOffset": 277056,
      "componentType": 5126,
      "count": 276,
      "max": [
        0.40139761567115784,
        0.3527422547340393,
        1.4157931804656982
      ],
      "min": [
        -0.3878743052482605,
        -0.39007407426834106,
        -0.10412190854549408
      ],
      "type": "VEC3"
    },
    {
      "bufferView": 2,
      "byteOffset": 280368,
      "componentType": 5126,
      "count": 276,
      "max": [
        0.9376466870307922,
        0.9775996804237366,
        1.0
      ],
      "min": [
        -0.9358053207397461,
        -0.9556999206542969,
        0.18475303053855896
      ],
      "type": "VEC3"
    },
    {
      "bufferView": 1,
      "byteOffset": 92352,
      "componentType": 5126,
      "count": 276,
      "max": [
        0.7128906846046448,
        0.711634635925293
      ],
      "min": [
        0.6564844846725464,
        0.16833019256591797
      ],
      "type": "VEC2"
    },
    {
      "bufferView": 0,
      "byteOffset": 90276,
      "componentType": 5125,
      "count": 426,
      "type": "SCALAR"
    },
    {
      "bufferView": 2,
      "byteOffset": 283680,
      "componentType": 5126,
      "count": 236,
      "max": [
        0.09295783936977386,
        0.5738202333450317,
        0.08258497714996338
      ],
      "min": [
        -0.09296762943267822,
        -0.49356088042259216,
        -0.04375934600830078
      ],
      "type": "VEC3"
    },
    {
      "bufferView": 2,
      "byteOffset": 286512,
      "componentType": 5126,
      "count": 236,
      "max": [
        0.9238801598548889,
        0.8782474994659424,
        0.9824984669685364
      ],
      "min": [
        -0.9238801002502441,
        -0.9994030594825745,
        -0.9672904014587402
      ],
      "type": "VEC3"
    },
    {
      "bufferView": 1,
      "byteOffset": 94560,
      "componentType": 5126,
      "count": 236,
      "max": [
        0.7239312529563904,
        0.9967788457870483
      ],
      "min": [
        0.09581172466278076,
        0.5092325210571289
      ],
      "type": "VEC2"
    },
    {
      "bufferView": 0,
      "byteOffset": 91980,
      "componentType": 5125,
      "count": 390,
      "type": "SCALAR"
    },
    {
      "bufferView": 2,
      "byteOffset": 289344,
      "componentType": 5126,
      "count": 1547,
      "max": [
        0.5872767567634583,
        0.5872768759727478,
        1.100000023841858
      ],
      "min": [
        -0.587276816368103,
        -0.5872767567634583,
        -0.011483728885650635
      ],
      "type": "VEC3"
    },
    {
      "bufferView": 2,
      "byteOffset": 307908,
      "componentType": 5126,
      "count": 1547,
      "max": [
        1.0,
        1.0,
        1.0
      ],
      "min": [
        -1.0,
        -1.0,
        -0.9915896058082581
      ],
      "type": "VEC3"
    },
    {
      "bufferView": 1,
      "byteOffset": 96448,
      "componentType": 5126,
      "count": 1547,
      "max": [
        0.8197164535522461,
        0.9935958981513977
      ],
      "min": [
        0.025697171688079834,
        0.0
      ],
      "type": "VEC2"
    },
    {
      "bufferView": 0,
      "byteOffset": 93540,
      "componentType": 5125,
      "count": 3582,
      "type": "SCALAR"
    },
    {
      "bufferView": 2,
      "byteOffset": 326472,
      "componentType": 5126,
      "count": 114,
      "max": [
        5.078092575073242,
        24.061397552490234,
        0.0
      ],
      "min": [
        -5.022603988647461,
        -10.591405868530273,
        -0.4564492702484131
      ],
      "type": "VEC3"
    },
    {
      "bufferView": 2,
      "byteOffset": 327840,
      "componentType": 5126,
      "count": 114,
      "max": [
        1.0,
        1.0,
        1.0
      ],
      "min": [
        -1.0,
        -1.0,
        -1.0
      ],
      "type": "VEC3"
    },
    {
      "bufferView": 1,
      "byteOffset": 108824,
      "componentType": 5126,
      "count": 114,
      "max": [
        0.847751259803772,
        0.9962857365608215
      ],
      "min": [
        0.08019973337650299,
        0.502108633518219
      ],
      "type": "VEC2"
    },
    {
      "bufferView": 0,
      "byteOffset": 107868,
      "componentType": 5125,
      "count": 390,
      "type": "SCALAR"
    },
    {
      "bufferView": 2,
      "byteOffset": 329208,
      "componentType": 5126,
      "count": 25287,
      "max": [
        4.811101913452148,
        23.6666202545166,
        0.39598649740219116
      ],
      "min": [
        -4.7777814865112305,
        -10.260666847229004,
        -0.005021657329052687
      ],
      "type": "VEC3"
    },
    {
      "bufferView": 2,
      "byteOffset": 632652,
      "componentType": 5126,
      "count": 25287,
      "max": [
        0.5854796767234802,
        -0.7932641506195068,
        0.29699328541755676
      ],
      "min": [
        -0.4974052906036377,
        -1.0,
        -0.32276323437690735
      ],
      "type": "VEC3"
    },
    {
      "bufferView": 1,
      "byteOffset": 109736,
      "componentType": 5126,
      "count": 25287,
      "max": [
        0.8387190699577332,
        0.8957388401031494
      ],
      "min": [
        0.8387190103530884,
        0.6687809228897095
      ],
      "type": "VEC2"
    },
    {
      "bufferView": 0,
      "byteOffset": 109428,
      "componentType": 5125,
      "count": 25287,
      "type": "SCALAR"
    }
  ],
  "asset": {
    "extras": {
      "author": "imwolfgang (https://sketchfab.com/imwolfgang)",
      "license": "CC-BY-4.0 (http://creativecommons.org/licenses/by/4.0/)",
      "source": "https://sketchfab.com/3d-models/creepy-creep-defense-03a2d89de61f4484ab732b19950a6a70",
      "title": "Creepy Creep Defense"
    },
    "generator": "Sketchfab-12.68.0",
    "version": "2.0"
  },
  "bufferViews": [
    {
      "buffer": 0,
      "byteLength": 210576,
      "name": "floatBufferViews",
      "target": 34963
    },
    {
      "buffer": 0,
      "byteLength": 312032,
      "byteOffset": 210576,
      "byteStride": 8,
      "name": "floatBufferViews",
      "target": 34962
    },
    {
      "buffer": 0,
      "byteLength": 936096,
      "byteOffset": 522608,
      "byteStride": 12,
      "name": "floatBufferViews",
      "target": 34962
    }
  ],
  "buffers": [
    {
      "byteLength": 1458704,
      "uri": "scene.bin"
    }
  ],
  "extensionsRequired": [
    "KHR_materials_pbrSpecularGlossiness"
  ],
  "extensionsUsed": [
    "KHR_materials_pbrSpecularGlossiness"
  ],
  "images": [
    {
      "uri": "textures/Scene_diffuse.png"
    },
    {
      "uri": "textures/Scene_emissive.png"
    }
  ],
  "materials": [
    {
      "alphaMode": "BLEND",
      "doubleSided": true,
      "emissiveFactor": [
        1.0,
        1.0,
        1.0
      ],
      "emissiveTexture": {
        "index": 1
      },
      "extensions": {
        "KHR_materials_pbrSpecularGlossiness": {
          "diffuseFactor": [
            1.0,
            1.0,
            1.0,
            1.0
          ],
          "diffuseTexture": {
            "index": 0
          },
          "glossinessFactor": 0.0,
          "specularFactor": [
            0.0,
            0.0,
            0.0
          ]
        }
      },
      "name": "Scene"
    }
  ],
  "meshes": [
    {
      "name": "Skelly.002_Scene_0",
      "primitives": [
        {
          "attributes": {
            "NORMAL": 1,
            "POSITION": 0,
            "TEXCOORD_0": 2
          },
          "indices": 3,
          "material": 0,
          "mode": 4
        }
      ]
    },
    {
      "name": "Skelly.006_Scene_0",
      "primitives": [
        {
          "attributes": {
            "NORMAL": 5,
            "POSITION": 4,
            "TEXCOORD_0": 6
          },
          "indices": 7,
          "material": 0,
          "mode": 4
        }
      ]
    },
    {
      "name": "Skelly.010_Scene_0",
      "primitives": [
        {
          "attributes": {
            "NORMAL": 9,
            "POSITION": 8,
            "TEXCOORD_0": 10
          },
          "indices": 11,
          "material": 0,
          "mode": 4
        }
      ]
    },
    {
      "name": "Skelly.014_Scene_0",
      "primitives": [
        {
          "attributes": {
            "NORMAL": 13,
            "POSITION": 12,
            "TEXCOORD_0": 14
          },
          "indices": 15,
          "material": 0,
          "mode": 4
        }
      ]
    },
    {
      "name": "Skelly.016_Scene_0",
      "primitives": [
        {
          "attributes": {
            "NORMAL": 17,
            "POSITION": 16,
            "TEXCOORD_0": 18
          },
          "indices": 19,
          "material": 0,
          "mode": 4
        }
      ]
    },
    {
      "name": "Skelly.022_Scene_0",
      "primitives": [
        {
          "attributes": {
            "NORMAL": 21,
            "POSITION": 20,
            "TEXCOORD_0": 22
          },
          "indices": 23,
          "material": 0,
          "mode": 4
        }
      ]
    },
    {
      "name": "Cart_Scene_0",
      "primitives": [
        {
          "attributes": {
            "NORMAL": 25,
            "POSITION": 24,
            "TEXCOORD_0": 26
          },
          "indices": 27,
          "material": 0,
          "mode": 4
        }
      ]
    },
    {
      "name": "House_Final_Scene_0",
      "primitives": [
        {
          "attributes": {
            "NORMAL": 29,
            "POSITION": 28,
            "TEXCOORD_0": 30
          },
          "indices": 31,
          "material": 0,
          "mode": 4
        }
      ]
    },
    {
      "name": "House_Final.001_Scene_0",
      "primitives": [
        {
          "attributes": {
            "NORMAL": 33,
            "POSITION": 32,
            "TEXCOORD_0": 34
          },
          "indices": 35,
          "material": 0,
          "mode": 4
        }
      ]
    },
    {
      "name": "Pitchfork_Scene_0",
      "primitives": [
        {
          "attributes": {
            "NORMAL": 37,
            "POSITION": 36,
            "TEXCOORD_0": 38
          },
          "indices": 39,
          "material": 0,
          "mode": 4
        }
      ]
    },
    {
      "name": "Well_Scene_0",
      "primitives": [
        {
          "attributes": {
            "NORMAL": 41,
            "POSITION": 40,
            "TEXCOORD_0": 42
          },
          "indices": 43,
          "material": 0,
          "mode": 4
        }
      ]
    },
    {
      "name": "Tree2_Scene_0",
      "primitives": [
        {
          "attributes": {
            "NORMAL": 45,
            "POSITION": 44,
            "TEXCOORD_0": 46
          },
          "indices": 47,
          "material": 0,
          "mode": 4
        }
      ]
    },
    {
      "name": "Tree2.001_Scene_0",
      "primitives": [
        {
          "attributes": {
            "NORMAL": 49,
            "POSITION": 48,
            "TEXCOORD_0": 50
          },
          "indices": 51,
          "material": 0,
          "mode": 4
        }
      ]
    },
    {
      "name": "Tree2.002_Scene_0",
      "primitives": [
        {
          "attributes": {
            "NORMAL": 53,
            "POSITION": 52,
            "TEXCOORD_0": 54
          },
          "indices": 55,
          "material": 0,
          "mode": 4
        }
      ]
    },
    {
      "name": "Tree2.003_Scene_0",
      "primitives": [
        {
          "attributes": {
            "NORMAL": 57,
            "POSITION": 56,
            "TEXCOORD_0": 58
          },
          "indices": 59,
          "material": 0,
          "mode": 4
        }
      ]
    },
    {
      "name": "Tree2.004_Scene_0",
      "primitives": [
        {
          "attributes": {
            "NORMAL": 61,
            "POSITION": 60,
            "TEXCOORD_0": 62
          },
          "indices": 63,
          "material": 0,
          "mode": 4
        }
      ]
    },
    {
      "name": "Tree2.005_Scene_0",
      "primitives": [
        {
          "attributes": {
            "NORMAL": 65,
            "POSITION": 64,
            "TEXCOORD_0": 66
          },
          "indices": 67,
          "material": 0,
          "mode": 4
        }
      ]
    },
    {
      "name": "Tree2.006_Scene_0",
      "primitives": [
        {
          "attributes": {
            "NORMAL": 69,
            "POSITION": 68,
            "TEXCOORD_0": 70
          },
          "indices": 71,
          "material": 0,
          "mode": 4
        }
      ]
    },
    {
      "name": "Tree2.007_Scene_0",
      "primitives": [
        {
          "attributes": {
            "NORMAL": 73,
            "POSITION": 72,
            "TEXCOORD_0": 74
          },
          "indices": 75,
          "material": 0,
          "mode": 4
        }
      ]
    },
    {
      "name": "Tree2.008_Scene_0",
      "primitives": [
        {
          "attributes": {
            "NORMAL": 77,
            "POSITION": 76,
            "TEXCOORD_0": 78
          },
          "indices": 79,
          "material": 0,
          "mode": 4
        }
      ]
    },
    {
      "name": "Tree2.009_Scene_0",
      "primitives": [
        {
          "attributes": {
            "NORMAL": 81,
            "POSITION": 80,
            "TEXCOORD_0": 82
          },
          "indices": 83,
          "material": 0,
          "mode": 4
        }
      ]
    },
    {
      "name": "Tree2.010_Scene_0",
      "primitives": [
        {
          "attributes": {
            "NORMAL": 85,
            "POSITION": 84,
            "TEXCOORD_0": 86
          },
          "indices": 87,
          "material": 0,
          "mode": 4
        }
      ]
    },
    {
      "name": "Tree2.011_Scene_0",
      "primitives": [
        {
          "attributes": {
            "NORMAL": 89,
            "POSITION": 88,
            "TEXCOORD_0": 90
          },
          "indices": 91,
          "material": 0,
          "mode": 4
        }
      ]
    },
    {
      "name": "Cylinder.010_Scene_0",
      "primitives": [
        {
          "attributes": {
            "NORMAL": 93,
            "POSITION": 92,
            "TEXCOORD_0": 94
          },
          "indices": 95,
          "material": 0,
          "mode": 4
        }
      ]
    },
    {
      "name": "Plane_Scene_0",
      "primitives": [
        {
          "attributes": {
            "NORMAL": 97,
            "POSITION": 96,
            "TEXCOORD_0": 98
          },
          "indices": 99,
          "material": 0,
          "mode": 4
        }
      ]
    },
    {
      "name": "Plane.001_Scene_0",
      "primitives": [
        {
          "attributes": {
            "NORMAL": 101,
            "POSITION": 100,
            "TEXCOORD_0": 102
          },
          "indices": 103,
          "material": 0,
          "mode": 4
        }
      ]
    },
    {
      "name": "Plane.002_Scene_0",
      "primitives": [
        {
          "attributes": {
            "NORMAL": 105,
            "POSITION": 104,
            "TEXCOORD_0": 106
          },
          "indices": 107,
          "material": 0,
          "mode": 4
        }
      ]
    },
    {
      "name": "Plane.003_Scene_0",
      "primitives": [
        {
          "attributes": {
            "NORMAL": 109,
            "POSITION": 108,
            "TEXCOORD_0": 110
          },
          "indices": 111,
          "material": 0,
          "mode": 4
        }
      ]
    },
    {
      "name": "Plane.004_Scene_0",
      "primitives": [
        {
          "attributes": {
            "NORMAL": 113,
            "POSITION": 112,
            "TEXCOORD_0": 114
          },
          "indices": 115,
          "material": 0,
          "mode": 4
        }
      ]
    },
    {
      "name": "Tree2.012_Scene_0",
      "primitives": [
        {
          "attributes": {
            "NORMAL": 117,
            "POSITION": 116,
            "TEXCOORD_0": 118
          },
          "indices": 119,
          "material": 0,
          "mode": 4
        }
      ]
    },
    {
      "name": "Tree2.013_Scene_0",
      "primitives": [
        {
          "attributes": {
            "NORMAL": 121,
            "POSITION": 120,
            "TEXCOORD_0": 122
          },
          "indices": 123,
          "material": 0,
          "mode": 4
        }
      ]
    },
    {
      "name": "Tree2.014_Scene_0",
      "primitives": [
        {
          "attributes": {
            "NORMAL": 125,
            "POSITION": 124,
            "TEXCOORD_0": 126
          },
          "indices": 127,
          "material": 0,
          "mode": 4
        }
      ]
    },
    {
      "name": "Tree2.015_Scene_0",
      "primitives": [
        {
          "attributes": {
            "NORMAL": 129,
            "POSITION": 128,
            "TEXCOORD_0": 130
          },
          "indices": 131,
          "material": 0,
          "mode": 4
        }
      ]
    },
    {
      "name": "Tree2.016_Scene_0",
      "primitives": [
        {
          "attributes": {
            "NORMAL": 133,
            "POSITION": 132,
            "TEXCOORD_0": 134
          },
          "indices": 135,
          "material": 0,
          "mode": 4
        }
      ]
    },
    {
      "name": "ArrowRoot.002_Scene_0",
      "primitives": [
        {
          "attributes": {
            "NORMAL": 137,
            "POSITION": 136,
            "TEXCOORD_0": 138
          },
          "indices": 139,
          "material": 0,
          "mode": 4
        }
      ]
    },
    {
      "name": "Tower_Archer_Base_Scene_0",
      "primitives": [
        {
          "attributes": {
            "NORMAL": 141,
            "POSITION": 140,
            "TEXCOORD_0": 142
          },
          "indices": 143,
          "material": 0,
          "mode": 4
        }
      ]
    },
    {
      "name": "Ground_Scene_0",
      "primitives": [
        {
          "attributes": {
            "NORMAL": 145,
            "POSITION": 144,
            "TEXCOORD_0": 146
          },
          "indices": 147,
          "material": 0,
          "mode": 4
        }
      ]
    },
    {
      "name": "Grass_Scene_0",
      "primitives": [
        {
          "attributes": {
            "NORMAL": 149,
            "POSITION": 148,
            "TEXCOORD_0": 150
          },
          "indices": 151,
          "material": 0,
          "mode": 4
        }
      ]
    }
  ],
  "nodes": [
    {
      "children": [
        1
      ],
      "matrix": [
        1.0,
        0.0,
        0.0,
        0.0,
        0.0,
        2.220446049250313e-16,
        -1.0,
        0.0,
        0.0,
        1.0,
        2.220446049250313e-16,
        0.0,
        0.0,
        0.0,
        0.0,
        1.0
      ],
      "name": "Sketchfab_model"
    },
    {
      "children": [
        2
      ],
      "matrix": [
        1.0,
        0.0,
        0.0,
        0.0,
        0.0,
        0.0,
        1.0,
        0.0,
        0.0,
        -1.0,
        0.0,
        0.0,
        0.0,
        0.0,
        0.0,
        1.0
      ],
      "name": "003001b20c4947b1ad378aedd59df2bd.fbx"
    },
    {
      "children": [
        3,
        5,
        7,
        9,
        11,
        13,
        15,
        17,
        20,
        22,
        24,
        26,
        28,
        30,
        32,
        34,
        36,
        38,
        40,
        42,
        44,
        46,
        48,
        50,
        52,
        54,
        56,
        58,
        60,
        62,
        64,
        66,
        68,
        70,
        72,
        74,
        76,
        78,
        80,
        82
      ],
      "name": "RootNode"
    },
    {
      "children": [
        4
      ],
      "matrix": [
        133.8138694566324,
        -2.8349372042164284e-06,
        65.52739039568826,
        0.0,
        65.5273903956883,
        9.860689269253914e-06,
        -133.81386945663206,
        0.0,
        -1.7905862797161187e-06,
        148.99659729003872,
        1.0102665042685033e-05,
        0.0,
        174.1007080078125,
        3.8743019104003906e-05,
        -1658.1458740234375,
        1.0
      ],
      "name": "Skelly.002"
    },
    {
      "mesh": 0,
      "name": "Skelly.002_Scene_0"
    },
    {
      "children": [
        6
      ],
      "matrix": [
        176.67265666897893,
        -2.47369090846186e-06,
        -57.956574538191816,
        0.0,
        -57.95657453819147,
        -2.9481335906232697e-05,
        -176.6726566689766,
        0.0,
        -6.838932587592858e-06,
        185.93598937988043,
        -2.8783629255517415e-05,
        0.0,
        -373.8722229003906,
        5.066394805908203e-05,
        -354.1068115234375,
        1.0
      ],
      "name": "Skelly.006"
    },
    {
      "mesh": 1,
      "name": "Skelly.006_Scene_0"
    },
    {
      "children": [
        8
      ],
      "matrix": [
        180.86450169958889,
        0.0,
        43.130381936074066,
        0.0,
        43.130381936073945,
        1.40377778099955e-05,
        -180.86450169958837,
        0.0,
        -3.2562529752092216e-06,
        185.9359893798823,
        1.3654888860857757e-05,
        0.0,
        162.55902099609375,
        9.5367431640625e-05,
        73.13067626953125,
        1.0
      ],
      "name": "Skelly.010"
    },
    {
      "mesh": 2,
      "name": "Skelly.010_Scene_0"
    },
    {
      "children": [
        10
      ],
      "matrix": [
        154.027905098429,
        -2.1998123266551983e-15,
        -37.44107135239653,
        0.0,
        -37.44107135239649,
        -6.92883159820936e-06,
        -154.02790509842882,
        0.0,
        -1.6366011133310605e-06,
        158.51316833496077,
        -6.732773186842699e-06,
        0.0,
        -314.96820068359375,
        8.344650268554688e-05,
        -1688.57958984375,
        1.0
      ],
      "name": "Skelly.014"
    },
    {
      "mesh": 3,
      "name": "Skelly.014_Scene_0"
    },
    {
      "children": [
        12
      ],
      "matrix": [
        -152.38917106542849,
        -4.707468248248119e-06,
        -106.53509757047955,
        0.0,
        -106.5350975704786,
        3.2912085099005275e-05,
        152.38917106542567,
        0.0,
        1.4999384902758234e-05,
        185.93598937987983,
        -2.9671269559871075e-05,
        0.0,
        -226.35134887695313,
        8.046627044677734e-05,
        868.0536499023438,
        1.0
      ],
      "name": "Skelly.016"
    },
    {
      "mesh": 4,
      "name": "Skelly.016_Scene_0"
    },
    {
      "children": [
        14
      ],
      "matrix": [
        147.04562774163296,
        24.0313309738739,
        0.26276361780571855,
        0.0,
        -1.6578037514816875,
        11.767926641774492,
        -148.52188069867148,
        0.0,
        -23.975520822089848,
        146.57421849859796,
        11.881221480151238,
        0.0,
        10.500240325927734,
        3.5762786865234375e-05,
        -1398.62841796875,
        1.0
      ],
      "name": "Skelly.022"
    },
    {
      "mesh": 5,
      "name": "Skelly.022_Scene_0"
    },
    {
      "children": [
        16
      ],
      "matrix": [
        -1.8123340539411004e-05,
        -16.2308989456679,
        -98.67399819311666,
        0.0,
        -1.4806069814632394e-06,
        98.67399819311831,
        -16.2308989456679,
        0.0,
        99.99999999999835,
        -1.4806069814632394e-06,
        -1.8123340539411004e-05,
        0.0,
        0.0,
        296.4356689453125,
        1136.7275390625,
        1.0
      ],
      "name": "Camera"
    },
    {
      "name": "Object_16"
    },
    {
      "children": [
        18
      ],
      "matrix": [
        69.48788741445956,
        66.82683734830493,
        -26.56324127096954,
        0.0,
        -33.16701325069585,
        62.55699941677197,
        70.61565730061682,
        0.0,
        63.807382001792675,
        -40.259097761401854,
        65.63400833040134,
        0.0,
        0.0,
        525.2137451171875,
        0.0,
        1.0
      ],
      "name": "Sun"
    },
    {
      "children": [
        19
      ],
      "matrix": [
        1.0,
        0.0,
        0.0,
        0.0,
        0.0,
        2.220446049250313e-16,
        1.0,
        0.0,
        0.0,
        -1.0,
        2.220446049250313e-16,
        0.0,
        0.0,
        0.0,
        0.0,
        1.0
      ],
      "name": "Object_18"
    },
    {
      "name": "Object_19"
    },
    {
      "children": [
        21
      ],
      "matrix": [
        -85.07100329315708,
        -1.6200399583030795e-14,
        -118.55647203441579,
        0.0,
        -118.55647203441568,
        -6.378375962712052e-06,
        85.071003293157,
        0.0,
        -5.182267648394298e-06,
        145.92021179199205,
        3.718571386964257e-06,
        0.0,
        210.13250732421875,
        0.0,
        -907.9030151367188,
        1.0
      ],
      "name": "Cart"
    },
    {
      "mesh": 6,
      "name": "Cart_Scene_0"
    },
    {
      "children": [
        23
      ],
      "matrix": [
        23.87234043119918,
        -5.200573460761859e-06,
        -97.10876048193029,
        0.0,
        -97.10876048192617,
        -3.089977611558936e-05,
        -23.87234043119652,
        0.0,
        -2.8764890963595136e-05,
        99.9999999999951,
        -1.2426712170388043e-05,
        0.0,
        353.4429931640625,
        1.341104507446289e-05,
        -975.0694580078125,
        1.0
      ],
      "name": "House_Final"
    },
    {
      "mesh": 7,
      "name": "House_Final_Scene_0"
    },
    {
      "children": [
        25
      ],
      "matrix": [
        83.53785829172011,
        5.551115123125783e-15,
        -54.96750159896745,
        0.0,
        -54.967501598967395,
        -4.371138984105016e-06,
        -83.53785829172004,
        0.0,
        -2.402705900905744e-06,
        99.9999999999999,
        -3.651555902095538e-06,
        0.0,
        405.7445068359375,
        1.341104507446289e-05,
        -651.3538208007813,
        1.0
      ],
      "name": "House_Final.001"
    },
    {
      "mesh": 8,
      "name": "House_Final.001_Scene_0"
    },
    {
      "children": [
        27
      ],
      "matrix": [
        123.23919004132308,
        21.990376746045186,
        1.2712299814453276e-06,
        0.0,
        2.8897665654878053,
        -16.194917317340792,
        -124.10015525274675,
        0.0,
        -21.79967304468867,
        122.1704430593213,
        -16.450714232499088,
        0.0,
        151.82107543945313,
        -2.043541669845581,
        -858.8307495117188,
        1.0
      ],
      "name": "Pitchfork"
    },
    {
      "mesh": 9,
      "name": "Pitchfork_Scene_0"
    },
    {
      "children": [
        29
      ],
      "matrix": [
        166.0986328125,
        0.0,
        0.0,
        0.0,
        0.0,
        -2.7060902103866842e-05,
        -166.0986328124978,
        0.0,
        0.0,
        166.0986328124978,
        -2.7060902103866842e-05,
        0.0,
        305.3297424316406,
        6.705522537231445e-06,
        -462.1922912597656,
        1.0
      ],
      "name": "Well"
    },
    {
      "mesh": 10,
      "name": "Well_Scene_0"
    },
    {
      "children": [
        31
      ],
      "matrix": [
        31.88276320704724,
        2.68751639021872e-06,
        -55.222569476666884,
        0.0,
        -55.22256947666693,
        1.5924832099482754e-07,
        -31.882763207047258,
        0.0,
        -1.2058448154780103e-06,
        63.765518188476506,
        2.407081235296004e-06,
        0.0,
        -276.056884765625,
        6.518002510070801,
        -472.38360595703125,
        1.0
      ],
      "name": "Tree2"
    },
    {
      "mesh": 11,
      "name": "Tree2_Scene_0"
    },
    {
      "children": [
        33
      ],
      "matrix": [
        86.60254263015281,
        2.181681368895738e-06,
        -49.99999609992544,
        0.0,
        -49.999996099925475,
        6.290195753155814e-06,
        -86.60254263015258,
        0.0,
        1.2557061002116399e-06,
        99.99999999999977,
        6.538310060033581e-06,
        0.0,
        -52.71308898925781,
        6.518002510070801,
        235.94288635253906,
        1.0
      ],
      "name": "Tree2.001"
    },
    {
      "mesh": 12,
      "name": "Tree2.001_Scene_0"
    },
    {
      "children": [
        35
      ],
      "matrix": [
        41.04242045559816,
        5.801865237410255e-06,
        -112.76312142806536,
        0.0,
        -112.763121428064,
        2.172948643282624e-05,
        -41.042420455596556,
        0.0,
        1.843468319960268e-05,
        120.00000762939243,
        1.2883892119632689e-05,
        0.0,
        262.52947998046875,
        6.5179548263549805,
        -1595.421630859375,
        1.0
      ],
      "name": "Tree2.002"
    },
    {
      "mesh": 13,
      "name": "Tree2.002_Scene_0"
    },
    {
      "children": [
        37
      ],
      "matrix": [
        -71.75080842002711,
        1.3322676295501878e-14,
        -35.38108945570458,
        0.0,
        -35.381089455704554,
        -3.4969112050475815e-06,
        71.75080842002701,
        0.0,
        -1.546556587239678e-06,
        79.99999999999993,
        3.1363275709850313e-06,
        0.0,
        337.3723449707031,
        6.5179548263549805,
        -1440.891845703125,
        1.0
      ],
      "name": "Tree2.003"
    },
    {
      "mesh": 14,
      "name": "Tree2.003_Scene_0"
    },
    {
      "children": [
        39
      ],
      "matrix": [
        93.96925423731251,
        0.0,
        -34.202013569444674,
        0.0,
        -34.20201356944422,
        -1.6292066696197e-05,
        -93.96925423731125,
        0.0,
        -5.572215716620477e-06,
        99.99999999999866,
        -1.5309535905672078e-05,
        0.0,
        211.62176513671875,
        6.5179548263549805,
        -1316.6563720703125,
        1.0
      ],
      "name": "Tree2.004"
    },
    {
      "mesh": 15,
      "name": "Tree2.004_Scene_0"
    },
    {
      "children": [
        41
      ],
      "matrix": [
        100.0,
        0.0,
        0.0,
        0.0,
        0.0,
        -1.629206793918314e-05,
        -99.99999999999868,
        0.0,
        0.0,
        99.99999999999868,
        -1.629206793918314e-05,
        0.0,
        364.1036071777344,
        6.5179548263549805,
        626.4411010742188,
        1.0
      ],
      "name": "Tree2.005"
    },
    {
      "mesh": 16,
      "name": "Tree2.005_Scene_0"
    },
    {
      "children": [
        43
      ],
      "matrix": [
        40.36222286756974,
        -3.3564468630193496e-06,
        69.07164531044417,
        0.0,
        69.07164531044356,
        -9.24078022299313e-06,
        -40.36222286756985,
        0.0,
        9.671867533533884e-06,
        79.9999999999994,
        -1.764288715122575e-06,
        0.0,
        -349.18359375,
        6.517956256866455,
        395.7686767578125,
        1.0
      ],
      "name": "Tree2.006"
    },
    {
      "mesh": 17,
      "name": "Tree2.006_Scene_0"
    },
    {
      "children": [
        45
      ],
      "matrix": [
        68.93654241031253,
        9.71445146547012e-16,
        -12.155374141143627,
        0.0,
        -12.155374141143614,
        -3.0597973044166338e-06,
        -68.93654241031246,
        0.0,
        -5.313282994134916e-07,
        69.99999999999994,
        -3.0133120842990024e-06,
        0.0,
        -311.4514465332031,
        6.517956256866455,
        596.4702758789063,
        1.0
      ],
      "name": "Tree2.007"
    },
    {
      "mesh": 18,
      "name": "Tree2.007_Scene_0"
    },
    {
      "children": [
        47
      ],
      "matrix": [
        73.9986829919184,
        0.0,
        12.214537054737962,
        0.0,
        12.214537054737951,
        -3.2783542380787623e-06,
        -73.99868299191833,
        0.0,
        5.33914390823953e-07,
        74.99999999999993,
        -3.2345852829518407e-06,
        0.0,
        -163.73828125,
        6.518003940582275,
        -1827.6727294921875,
        1.0
      ],
      "name": "Tree2.008"
    },
    {
      "mesh": 19,
      "name": "Tree2.008_Scene_0"
    },
    {
      "children": [
        49
      ],
      "matrix": [
        31.88276320704724,
        2.68751639021872e-06,
        -55.222569476666884,
        0.0,
        -55.22256947666693,
        1.5924832099482754e-07,
        -31.882763207047258,
        0.0,
        -1.2058448154780103e-06,
        63.765518188476506,
        2.407081235296004e-06,
        0.0,
        -233.26356506347656,
        6.518002510070801,
        -2004.103271484375,
        1.0
      ],
      "name": "Tree2.009"
    },
    {
      "mesh": 20,
      "name": "Tree2.009_Scene_0"
    },
    {
      "children": [
        51
      ],
      "matrix": [
        69.51222222524653,
        1.0706788357735676e-06,
        -25.025274664903073,
        0.0,
        -25.025274664903087,
        5.1923060156340064e-06,
        -69.51222222524636,
        0.0,
        7.514053554965091e-07,
        73.87972259521466,
        5.248026769443116e-06,
        0.0,
        -387.4468688964844,
        6.518002510070801,
        -1319.029541015625,
        1.0
      ],
      "name": "Tree2.010"
    },
    {
      "mesh": 21,
      "name": "Tree2.010_Scene_0"
    },
    {
      "children": [
        53
      ],
      "matrix": [
        -41.337934126745665,
        3.217624334214669e-06,
        -66.70263821421923,
        0.0,
        -66.70263821421914,
        -7.592992567229079e-06,
        41.33793412674523,
        0.0,
        -4.759101248051587e-06,
        78.47333526611287,
        6.734802976622008e-06,
        0.0,
        -316.0066223144531,
        6.518003463745117,
        -538.7893676757813,
        1.0
      ],
      "name": "Tree2.011"
    },
    {
      "mesh": 22,
      "name": "Tree2.011_Scene_0"
    },
    {
      "children": [
        55
      ],
      "matrix": [
        -29.953426532198094,
        0.30494459686216024,
        -7.629083930194744,
        -0.0,
        0.14232852681444152,
        8.167772334594959,
        -0.2323357621643244,
        -0.0,
        -21.141311055463188,
        2.7326297839693185,
        83.11456709401074,
        -0.0,
        -151.34930419921875,
        231.9080047607422,
        3.1996748447418213,
        1.0
      ],
      "name": "Cylinder.010"
    },
    {
      "mesh": 23,
      "name": "Cylinder.010_Scene_0"
    },
    {
      "children": [
        57
      ],
      "matrix": [
        33.34232458430762,
        -28.02145214534617,
        7.772093323863832,
        -0.0,
        16.39736215537578,
        0.7434059522000237,
        -67.6645062125166,
        -0.0,
        -4.515155579567511,
        -5.6933503513580535,
        -1.1567233125055383,
        -0.0,
        -22.885026931762695,
        203.08432006835938,
        28.556636810302734,
        1.0
      ],
      "name": "Plane"
    },
    {
      "mesh": 24,
      "name": "Plane_Scene_0"
    },
    {
      "children": [
        59
      ],
      "matrix": [
        13.869928616195297,
        -13.201365955306498,
        2.477000019843923,
        -0.0,
        5.308718461418283,
        -0.03616929357351706,
        -29.918865397840527,
        -0.0,
        -1.6939945375150571,
        -1.835765851850337,
        -0.298358296750932,
        -0.0,
        18.141984939575195,
        190.37384033203125,
        37.13082504272461,
        1.0
      ],
      "name": "Plane.001"
    },
    {
      "mesh": 25,
      "name": "Plane.001_Scene_0"
    },
    {
      "children": [
        61
      ],
      "matrix": [
        26.409900346672067,
        -14.213779848853498,
        7.83331042499469,
        0.0,
        14.634171836767752,
        1.5582041975651961,
        -46.51150390757138,
        0.0,
        1.195651097947243,
        2.4745897280265123,
        0.4590967380473504,
        0.0,
        -13.221653938293457,
        171.89259338378906,
        30.66189193725586,
        1.0
      ],
      "name": "Plane.002"
    },
    {
      "mesh": 26,
      "name": "Plane.002_Scene_0"
    },
    {
      "children": [
        63
      ],
      "matrix": [
        10.988027072396454,
        -15.681655184759189,
        2.4770016911866204,
        -0.0,
        5.196910650243376,
        -1.0844062285845473,
        -29.918865109480574,
        -0.0,
        -2.0233253640738504,
        -1.4648573466596764,
        -0.29835826559907686,
        -0.0,
        86.04962158203125,
        132.82872009277344,
        53.94083786010742,
        1.0
      ],
      "name": "Plane.003"
    },
    {
      "mesh": 27,
      "name": "Plane.003_Scene_0"
    },
    {
      "children": [
        65
      ],
      "matrix": [
        33.642247409659646,
        -15.803573595747624,
        9.707896189730743,
        0.0,
        18.003916273775136,
        2.917569918798981,
        -57.642167134482094,
        0.0,
        1.3122782558905919,
        3.1430496103672376,
        0.5689622107186734,
        0.0,
        15.495779991149902,
        139.97821044921875,
        39.46574783325195,
        1.0
      ],
      "name": "Plane.004"
    },
    {
      "mesh": 28,
      "name": "Plane.004_Scene_0"
    },
    {
      "children": [
        67
      ],
      "matrix": [
        -35.96955528100075,
        9.525198894065091e-15,
        -77.89117820372148,
        0.0,
        -77.8911782037214,
        -3.7502346189640066e-06,
        35.969555281000716,
        0.0,
        -3.404731656337652e-06,
        85.79536437988274,
        1.5722792605469867e-06,
        0.0,
        321.4023742675781,
        6.5179548263549805,
        816.3743896484375,
        1.0
      ],
      "name": "Tree2.012"
    },
    {
      "mesh": 29,
      "name": "Tree2.012_Scene_0"
    },
    {
      "children": [
        69
      ],
      "matrix": [
        107.82555389404297,
        0.0,
        0.0,
        0.0,
        0.0,
        -1.7567012496218012e-05,
        -107.82555389404155,
        0.0,
        0.0,
        107.82555389404155,
        -1.7567012496218012e-05,
        0.0,
        399.30206298828125,
        6.51796293258667,
        955.1458129882813,
        1.0
      ],
      "name": "Tree2.013"
    },
    {
      "mesh": 30,
      "name": "Tree2.013_Scene_0"
    },
    {
      "children": [
        71
      ],
      "matrix": [
        74.40399169921875,
        0.0,
        0.0,
        0.0,
        0.0,
        -1.2121948877100904e-05,
        -74.40399169921777,
        0.0,
        0.0,
        74.40399169921777,
        -1.2121948877100904e-05,
        0.0,
        228.96812438964844,
        6.517942905426025,
        957.4803466796875,
        1.0
      ],
      "name": "Tree2.014"
    },
    {
      "mesh": 31,
      "name": "Tree2.014_Scene_0"
    },
    {
      "children": [
        73
      ],
      "matrix": [
        94.64923095703125,
        0.0,
        0.0,
        0.0,
        0.0,
        -1.5420317011433893e-05,
        -94.64923095703,
        0.0,
        0.0,
        94.64923095703,
        -1.5420317011433893e-05,
        0.0,
        45.499881744384766,
        6.517949104309082,
        908.4947509765625,
        1.0
      ],
      "name": "Tree2.015"
    },
    {
      "mesh": 32,
      "name": "Tree2.015_Scene_0"
    },
    {
      "children": [
        75
      ],
      "matrix": [
        64.158935546875,
        0.0,
        0.0,
        0.0,
        0.0,
        -1.0452817368353598e-05,
        -64.15893554687415,
        0.0,
        0.0,
        64.15893554687415,
        -1.0452817368353598e-05,
        0.0,
        1.6372531652450562,
        6.51794958114624,
        847.390380859375,
        1.0
      ],
      "name": "Tree2.016"
    },
    {
      "mesh": 33,
      "name": "Tree2.016_Scene_0"
    },
    {
      "children": [
        77
      ],
      "matrix": [
        -77.70242491996152,
        -78.09582962419535,
        49.27251747185451,
        0.0,
        90.34720711870241,
        -77.60501284326844,
        19.474734925527766,
        0.0,
        19.082196812539863,
        49.425878183267436,
        108.43139747858122,
        0.0,
        56.61549377441406,
        133.77108764648438,
        43.972679138183594,
        1.0
      ],
      "name": "ArrowRoot.002"
    },
    {
      "mesh": 34,
      "name": "ArrowRoot.002_Scene_0"
    },
    {
      "children": [
        79
      ],
      "matrix": [
        -208.5003398528144,
        2.0488004340825047e-14,
        31.739572213178075,
        0.0,
        31.739572213178054,
        -9.218833945894266e-06,
        208.5003398528142,
        0.0,
        1.3873805414473944e-06,
        210.90228271484355,
        9.113837688968199e-06,
        0.0,
        -171.4635772705078,
        -1.307869791984558,
        -15.47364330291748,
        1.0
      ],
      "name": "Tower_Archer_Base"
    },
    {
      "mesh": 35,
      "name": "Tower_Archer_Base_Scene_0"
    },
    {
      "children": [
        81
      ],
      "matrix": [
        100.0,
        0.0,
        0.0,
        0.0,
        0.0,
        -1.629206793918314e-05,
        -99.99999999999868,
        0.0,
        0.0,
        99.99999999999868,
        -1.629206793918314e-05,
        0.0,
        0.0,
        0.0,
        0.0,
        1.0
      ],
      "name": "Ground"
    },
    {
      "mesh": 36,
      "name": "Ground_Scene_0"
    },
    {
      "children": [
        83
      ],
      "matrix": [
        100.0,
        0.0,
        0.0,
        0.0,
        0.0,
        -1.629206793918314e-05,
        -99.99999999999868,
        0.0,
        0.0,
        99.99999999999868,
        -1.629206793918314e-05,
        0.0,
        0.0,
        0.0,
        0.0,
        1.0
      ],
      "name": "Grass"
    },
    {
      "mesh": 37,
      "name": "Grass_Scene_0"
    }
  ],
  "samplers": [
    {
      "magFilter": 9729,
      "minFilter": 9987,
      "wrapS": 10497,
      "wrapT": 10497
    }
  ],
  "scene": 0,
  "scenes": [
    {
      "name": "Sketchfab_Scene",
      "nodes": [
        0
      ]
    }
  ],
  "textures": [
    {
      "sampler": 0,
      "source": 0
    },
    {
      "sampler": 0,
      "source": 1
    }
  ]
}
