{
  "accessors": [
    {
      "bufferView": 2,
      "componentType": 5126,
      "count": 7707,
      "max": [
        11.239500045776367,
        25.114961624145508,
        3.186264991760254
      ],
      "min": [
        -11.239500045776367,
        -15.751441955566406,
        -10.857501983642578
      ],
      "type": "VEC3"
    },
    {
      "bufferView": 2,
      "byteOffset": 92484,
      "componentType": 5126,
      "count": 7707,
      "max": [
        0.9999381899833679,
        0.9979878664016724,
        0.9999992847442627
      ],
      "min": [
        -0.9999381899833679,
        -0.9999629855155945,
        -0.9999863505363464
      ],
      "type": "VEC3"
    },
    {
      "bufferView": 3,
      "componentType": 5126,
      "count": 7707,
      "max": [
        1.0,
        0.9999651908874512,
        0.9999746084213257,
        1.0
      ],
      "min": [
        -0.9999995827674866,
        -0.9999837875366211,
        -0.9999746680259705,
        -1.0
      ],
      "type": "VEC4"
    },
    {
      "bufferView": 1,
      "componentType": 5126,
      "count": 7707,
      "max": [
        0.9986258149147034,
        0.999103844165802
      ],
      "min": [
        0.001114964485168457,
        0.0012951493263244629
      ],
      "type": "VEC2"
    },
    {
      "bufferView": 0,
      "componentType": 5125,
      "count": 36111,
      "type": "SCALAR"
    }
  ],
  "asset": {
    "extras": {
      "author": "ninhcongnguyen (https://sketchfab.com/ninhcongnguyen)",
      "license": "CC-BY-4.0 (http://creativecommons.org/licenses/by/4.0/)",
      "source": "https://sketchfab.com/3d-models/ciix-lava-warrior-7246fa9e2f0c4576af1077138e392b15",
      "title": "C'iix - Lava Warrior"
    },
    "generator": "Sketchfab-16.56.0",
    "version": "2.0"
  },
  "bufferViews": [
    {
      "buffer": 0,
      "byteLength": 144444,
      "name": "floatBufferViews",
      "target": 34963
    },
    {
      "buffer": 0,
      "byteLength": 61656,
      "byteOffset": 144444,
      "byteStride": 8,
      "name": "floatBufferViews",
      "target": 34962
    },
    {
      "buffer": 0,
      "byteLength": 184968,
      "byteOffset": 206100,
      "byteStride": 12,
      "name": "floatBufferViews",
      "target": 34962
    },
    {
      "buffer": 0,
      "byteLength": 123312,
      "byteOffset": 391068,
      "byteStride": 16,
      "name": "floatBufferViews",
      "target": 34962
    }
  ],
  "buffers": [
    {
      "byteLength": 514380,
      "uri": "scene.bin"
    }
  ],
  "images": [
    {
      "uri": "textures/ciix_low_baseColor.png"
    },
    {
      "uri": "textures/ciix_low_metallicRoughness.png"
    },
    {
      "uri": "textures/ciix_low_emissive.png"
    },
    {
      "uri": "textures/ciix_low_normal.png"
    }
  ],
  "materials": [
    {
      "alphaMode": "BLEND",
      "doubleSided": true,
      "emissiveFactor": [
        1.0,
        1.0,
        1.0
      ],
      "emissiveTexture": {
        "index": 2
      },
      "name": "ciix_low",
      "normalTexture": {
        "index": 3
      },
      "pbrMetallicRoughness": {
        "baseColorTexture": {
          "index": 0
        },
        "metallicRoughnessTexture": {
          "index": 1
        }
      }
    }
  ],
  "meshes": [
    {
      "name": "C_iix_low_ciix_low_0",
      "primitives": [
        {
          "attributes": {
            "NORMAL": 1,
            "POSITION": 0,
            "TANGENT": 2,
            "TEXCOORD_0": 3
          },
          "indices": 4,
          "material": 0,
          "mode": 4
        }
      ]
    }
  ],
  "nodes": [
    {
      "children": [
        1
      ],
      "matrix": [
        19.63923454284668,
        0.0,
        0.0,
        0.0,
        0.0,
        4.360786075096419e-15,
        -19.63923454284668,
        0.0,
        0.0,
        19.63923454284668,
        4.360786075096419e-15,
        0.0,
        0.0,
        0.0,
        0.0,
        1.0
      ],
      "name": "Sketchfab_model"
    },
    {
      "children": [
        2
      ],
      "matrix": [
        0.009999999776482582,
        0.0,
        0.0,
        0.0,
        0.0,
        0.0,
        0.009999999776482582,
        0.0,
        0.0,
        -0.009999999776482582,
        0.0,
        0.0,
        0.0,
        0.0,
        0.0,
        1.0
      ],
      "name": "8b147b7bd1f546c8b1dba91853e046b7.fbx"
    },
    {
      "children": [
        3
      ],
      "name": "RootNode"
    },
    {
      "children": [
        4
      ],
      "name": "C_iix_low"
    },
    {
      "mesh": 0,
      "name": "C_iix_low_ciix_low_0"
    }
  ],
  "samplers": [
    {
      "magFilter": 9729,
      "minFilter": 9987,
      "wrapS": 10497,
      "wrapT": 10497
    }
  ],
  "scene": 0,
  "scenes": [
    {
      "name": "Sketchfab_Scene",
      "nodes": [
        0
      ]
    }
  ],
  "textures": [
    {
      "sampler": 0,
      "source": 0
    },
    {
      "sampler": 0,
      "source": 1
    },
    {
      "sampler": 0,
      "source": 2
    },
    {
      "sampler": 0,
      "source": 3
    }
  ]
}
