{
  "accessors": [
    {
      "bufferView": 3,
      "componentType": 5126,
      "count": 1472,
      "max": [
        3.251270294189453,
        11.703927993774414,
        2.5432610511779785
      ],
      "min": [
        -3.2520294189453125,
        5.871798515319824,
        -3.2888684272766113
      ],
      "type": "VEC3"
    },
    {
      "bufferView": 3,
      "byteOffset": 17664,
      "componentType": 5126,
      "count": 1472,
      "max": [
        0.9995273947715759,
        0.9984742999076843,
        0.9981488585472107
      ],
      "min": [
        -0.9996030330657959,
        -0.9995004534721375,
        -0.9992468357086182
      ],
      "type": "VEC3"
    },
    {
      "bufferView": 2,
      "componentType": 5126,
      "count": 1472,
      "max": [
        0.7734375,
        -0.15826416015625
      ],
      "min": [
        0.005390167236328125,
        -0.80224609375
      ],
      "type": "VEC2"
    },
    {
      "bufferView": 1,
      "componentType": 5125,
      "count": 6732,
      "type": "SCALAR"
    },
    {
      "bufferView": 3,
      "byteOffset": 35328,
      "componentType": 5126,
      "count": 491,
      "max": [
        1.8619976043701172,
        13.873259544372559,
        2.199699878692627
      ],
      "min": [
        -1.8618183135986328,
        8.04488468170166,
        -7.9288530349731445
      ],
      "type": "VEC3"
    },
    {
      "bufferView": 3,
      "byteOffset": 41220,
      "componentType": 5126,
      "count": 491,
      "max": [
        0.9992604851722717,
        0.9990859627723694,
        0.9976387619972229
      ],
      "min": [
        -0.9992749691009521,
        -0.9963719248771667,
        -0.9989824891090393
      ],
      "type": "VEC3"
    },
    {
      "bufferView": 2,
      "byteOffset": 11776,
      "componentType": 5126,
      "count": 491,
      "max": [
        0.470458984375,
        -0.108795166015625
      ],
      "min": [
        0.14306640625,
        -0.294921875
      ],
      "type": "VEC2"
    },
    {
      "bufferView": 1,
      "byteOffset": 26928,
      "componentType": 5125,
      "count": 2706,
      "type": "SCALAR"
    },
    {
      "bufferView": 3,
      "byteOffset": 47112,
      "componentType": 5126,
      "count": 254,
      "max": [
        -6.266186237335205,
        4.411185264587402,
        3.9625744819641113
      ],
      "min": [
        -7.666723251342773,
        1.693655014038086,
        -2.511625289916992
      ],
      "type": "VEC3"
    },
    {
      "bufferView": 3,
      "byteOffset": 50160,
      "componentType": 5126,
      "count": 254,
      "max": [
        0.9999985098838806,
        0.9999995827674866,
        0.9784871935844421
      ],
      "min": [
        -0.9999985098838806,
        -0.9999995827674866,
        -0.9980552792549133
      ],
      "type": "VEC3"
    },
    {
      "bufferView": 2,
      "byteOffset": 15704,
      "componentType": 5126,
      "count": 254,
      "max": [
        0.995849609375,
        -0.0482635498046875
      ],
      "min": [
        0.621337890625,
        -0.3970947265625
      ],
      "type": "VEC2"
    },
    {
      "bufferView": 1,
      "byteOffset": 37752,
      "componentType": 5125,
      "count": 1416,
      "type": "SCALAR"
    },
    {
      "bufferView": 3,
      "byteOffset": 53208,
      "componentType": 5126,
      "count": 633,
      "max": [
        -2.489804267883301,
        4.8232741355896,
        4.479797840118408
      ],
      "min": [
        -11.443105697631836,
        2.140475273132324,
        -1.1232911348342896
      ],
      "type": "VEC3"
    },
    {
      "bufferView": 3,
      "byteOffset": 60804,
      "componentType": 5126,
      "count": 633,
      "max": [
        0.9999999403953552,
        0.9999513030052185,
        1.0
      ],
      "min": [
        -0.9999999403953552,
        -0.9999513626098633,
        -0.985512912273407
      ],
      "type": "VEC3"
    },
    {
      "bufferView": 2,
      "byteOffset": 17736,
      "componentType": 5126,
      "count": 633,
      "max": [
        0.994384765625,
        -0.005634307861328125
      ],
      "min": [
        0.353515625,
        -0.622314453125
      ],
      "type": "VEC2"
    },
    {
      "bufferView": 1,
      "byteOffset": 43416,
      "componentType": 5125,
      "count": 2541,
      "type": "SCALAR"
    },
    {
      "bufferView": 3,
      "byteOffset": 68400,
      "componentType": 5126,
      "count": 26,
      "max": [
        0.5590858459472656,
        7.848699569702148,
        1.7707151174545288
      ],
      "min": [
        -0.558903694152832,
        7.5736589431762695,
        1.6092575788497925
      ],
      "type": "VEC3"
    },
    {
      "bufferView": 3,
      "byteOffset": 68712,
      "componentType": 5126,
      "count": 26,
      "max": [
        0.7412797808647156,
        0.7438494563102722,
        0.9101173281669617
      ],
      "min": [
        -0.7412765622138977,
        -0.9901185631752014,
        -0.9793400168418884
      ],
      "type": "VEC3"
    },
    {
      "bufferView": 2,
      "byteOffset": 22800,
      "componentType": 5126,
      "count": 26,
      "max": [
        0.0345458984375,
        -0.93310546875
      ],
      "min": [
        0.009063720703125,
        -0.993896484375
      ],
      "type": "VEC2"
    },
    {
      "bufferView": 1,
      "byteOffset": 53580,
      "componentType": 5125,
      "count": 60,
      "type": "SCALAR"
    },
    {
      "bufferView": 3,
      "byteOffset": 69024,
      "componentType": 5126,
      "count": 223,
      "max": [
        0.6454505920410156,
        3.4884450435638428,
        1.368015170097351
      ],
      "min": [
        -0.6461982727050781,
        2.4774672985076904,
        0.9155625700950623
      ],
      "type": "VEC3"
    },
    {
      "bufferView": 3,
      "byteOffset": 71700,
      "componentType": 5126,
      "count": 223,
      "max": [
        0.9963890910148621,
        0.9727737903594971,
        0.9969069361686707
      ],
      "min": [
        -0.9963890910148621,
        -0.9762688875198364,
        -0.9969397783279419
      ],
      "type": "VEC3"
    },
    {
      "bufferView": 2,
      "byteOffset": 23008,
      "componentType": 5126,
      "count": 223,
      "max": [
        0.76513671875,
        -0.8271484375
      ],
      "min": [
        0.549072265625,
        -0.997314453125
      ],
      "type": "VEC2"
    },
    {
      "bufferView": 1,
      "byteOffset": 53820,
      "componentType": 5125,
      "count": 900,
      "type": "SCALAR"
    },
    {
      "bufferView": 3,
      "byteOffset": 74376,
      "componentType": 5126,
      "count": 3116,
      "max": [
        3.4549684524536133,
        10.185117721557617,
        1.9453123807907104
      ],
      "min": [
        -3.454786777496338,
        -0.0025737090036273003,
        -3.0795369148254395
      ],
      "type": "VEC3"
    },
    {
      "bufferView": 3,
      "byteOffset": 111768,
      "componentType": 5126,
      "count": 3116,
      "max": [
        0.9989738464355469,
        1.0,
        0.9999842047691345
      ],
      "min": [
        -0.9989902377128601,
        -1.0,
        -0.9999739527702332
      ],
      "type": "VEC3"
    },
    {
      "bufferView": 2,
      "byteOffset": 24792,
      "componentType": 5126,
      "count": 3116,
      "max": [
        0.99072265625,
        -0.012248992919921875
      ],
      "min": [
        0.01812744140625,
        -0.994873046875
      ],
      "type": "VEC2"
    },
    {
      "bufferView": 1,
      "byteOffset": 57420,
      "componentType": 5125,
      "count": 14916,
      "type": "SCALAR"
    },
    {
      "bufferView": 3,
      "byteOffset": 149160,
      "componentType": 5126,
      "count": 2846,
      "max": [
        3.9355831146240234,
        8.201648712158203,
        1.8852356672286987
      ],
      "min": [
        -3.9353995323181152,
        1.8429073095321655,
        -2.5585598945617676
      ],
      "type": "VEC3"
    },
    {
      "bufferView": 3,
      "byteOffset": 183312,
      "componentType": 5126,
      "count": 2846,
      "max": [
        0.9999761581420898,
        0.9999595880508423,
        1.0
      ],
      "min": [
        -0.9999771118164063,
        -0.9999427795410156,
        -0.9999975562095642
      ],
      "type": "VEC3"
    },
    {
      "bufferView": 2,
      "byteOffset": 49720,
      "componentType": 5126,
      "count": 2846,
      "max": [
        1.000732421875,
        -0.19061279296875
      ],
      "min": [
        0.0071048736572265625,
        -1.000244140625
      ],
      "type": "VEC2"
    },
    {
      "bufferView": 1,
      "byteOffset": 117084,
      "componentType": 5125,
      "count": 12732,
      "type": "SCALAR"
    },
    {
      "bufferView": 3,
      "byteOffset": 217464,
      "componentType": 5126,
      "count": 408,
      "max": [
        2.0178232192993164,
        5.291684150695801,
        -0.6473713517189026
      ],
      "min": [
        -2.0176401138305664,
        3.155207872390747,
        -2.02162504196167
      ],
      "type": "VEC3"
    },
    {
      "bufferView": 3,
      "byteOffset": 222360,
      "componentType": 5126,
      "count": 408,
      "max": [
        0.9999995231628418,
        0.981137216091156,
        0.9900461435317993
      ],
      "min": [
        -0.9999995231628418,
        -0.998296320438385,
        -0.9977140426635742
      ],
      "type": "VEC3"
    },
    {
      "bufferView": 2,
      "byteOffset": 72488,
      "componentType": 5126,
      "count": 408,
      "max": [
        1.0,
        -0.0041656494140625
      ],
      "min": [
        0.4400634765625,
        -0.4464111328125
      ],
      "type": "VEC2"
    },
    {
      "bufferView": 1,
      "byteOffset": 168012,
      "componentType": 5125,
      "count": 1716,
      "type": "SCALAR"
    },
    {
      "bufferView": 3,
      "byteOffset": 227256,
      "componentType": 5126,
      "count": 40,
      "max": [
        0.7064619064331055,
        4.467507362365723,
        -1.779440999031067
      ],
      "min": [
        -0.7062788009643555,
        3.4922003746032715,
        -2.1108012199401855
      ],
      "type": "VEC3"
    },
    {
      "bufferView": 3,
      "byteOffset": 227736,
      "componentType": 5126,
      "count": 40,
      "max": [
        0.8982373476028442,
        0.8832789659500122,
        -0.2230909764766693
      ],
      "min": [
        -0.898433268070221,
        -0.9046030640602112,
        -0.9763131141662598
      ],
      "type": "VEC3"
    },
    {
      "bufferView": 2,
      "byteOffset": 75752,
      "componentType": 5126,
      "count": 40,
      "max": [
        0.578369140625,
        -0.88037109375
      ],
      "min": [
        0.552490234375,
        -0.923583984375
      ],
      "type": "VEC2"
    },
    {
      "bufferView": 1,
      "byteOffset": 174876,
      "componentType": 5125,
      "count": 180,
      "type": "SCALAR"
    },
    {
      "bufferView": 3,
      "byteOffset": 228216,
      "componentType": 5126,
      "count": 244,
      "max": [
        2.6679747104644775,
        1.739983081817627,
        2.342226028442383
      ],
      "min": [
        -2.6682779788970947,
        0.8983022570610046,
        -2.3370065689086914
      ],
      "type": "VEC3"
    },
    {
      "bufferView": 3,
      "byteOffset": 231144,
      "componentType": 5126,
      "count": 244,
      "max": [
        0.9985401630401611,
        0.9664023518562317,
        0.9993799924850464
      ],
      "min": [
        -0.9985401630401611,
        -0.9923655986785889,
        -0.9993869066238403
      ],
      "type": "VEC3"
    },
    {
      "bufferView": 2,
      "byteOffset": 76072,
      "componentType": 5126,
      "count": 244,
      "max": [
        0.967529296875,
        -0.4647216796875
      ],
      "min": [
        0.6982421875,
        -0.8994140625
      ],
      "type": "VEC2"
    },
    {
      "bufferView": 1,
      "byteOffset": 175596,
      "componentType": 5125,
      "count": 1128,
      "type": "SCALAR"
    },
    {
      "bufferView": 3,
      "byteOffset": 234072,
      "componentType": 5126,
      "count": 637,
      "max": [
        2.865386724472046,
        1.60582435131073,
        2.5778965950012207
      ],
      "min": [
        -2.865180253982544,
        -2.2643699537638895e-07,
        -2.2844653129577637
      ],
      "type": "VEC3"
    },
    {
      "bufferView": 3,
      "byteOffset": 241716,
      "componentType": 5126,
      "count": 637,
      "max": [
        0.9969480037689209,
        1.0,
        0.9969480037689209
      ],
      "min": [
        -0.9969479441642761,
        -1.0,
        -0.9969084858894348
      ],
      "type": "VEC3"
    },
    {
      "bufferView": 2,
      "byteOffset": 78024,
      "componentType": 5126,
      "count": 637,
      "max": [
        0.994873046875,
        -0.15606689453125
      ],
      "min": [
        0.4921875,
        -0.991943359375
      ],
      "type": "VEC2"
    },
    {
      "bufferView": 1,
      "byteOffset": 180108,
      "componentType": 5125,
      "count": 3048,
      "type": "SCALAR"
    },
    {
      "bufferView": 3,
      "byteOffset": 249360,
      "componentType": 5126,
      "count": 1294,
      "max": [
        2.6761367321014404,
        7.293031215667725,
        4.885630130767822
      ],
      "min": [
        -2.6759300231933594,
        2.181736469268799,
        -3.4714903831481934
      ],
      "type": "VEC3"
    },
    {
      "bufferView": 3,
      "byteOffset": 264888,
      "componentType": 5126,
      "count": 1294,
      "max": [
        1.0,
        1.0,
        0.9962911009788513
      ],
      "min": [
        -1.0,
        -0.999897301197052,
        -0.9993104934692383
      ],
      "type": "VEC3"
    },
    {
      "bufferView": 2,
      "byteOffset": 83120,
      "componentType": 5126,
      "count": 1294,
      "max": [
        0.783447265625,
        -0.0041656494140625
      ],
      "min": [
        0.0071048736572265625,
        -0.99462890625
      ],
      "type": "VEC2"
    },
    {
      "bufferView": 1,
      "byteOffset": 192300,
      "componentType": 5125,
      "count": 6336,
      "type": "SCALAR"
    },
    {
      "bufferView": 3,
      "byteOffset": 280416,
      "componentType": 5126,
      "count": 389,
      "max": [
        2.5751354694366455,
        5.340843200683594,
        4.355627536773682
      ],
      "min": [
        -2.574928045272827,
        2.9055821895599365,
        0.8292410373687744
      ],
      "type": "VEC3"
    },
    {
      "bufferView": 3,
      "byteOffset": 285084,
      "componentType": 5126,
      "count": 389,
      "max": [
        0.9897774457931519,
        1.0,
        1.0
      ],
      "min": [
        -0.9895199537277222,
        -1.0,
        -1.0
      ],
      "type": "VEC3"
    },
    {
      "bufferView": 2,
      "byteOffset": 93472,
      "componentType": 5126,
      "count": 389,
      "max": [
        0.851318359375,
        -0.26513671875
      ],
      "min": [
        0.01494598388671875,
        -0.99609375
      ],
      "type": "VEC2"
    },
    {
      "bufferView": 1,
      "byteOffset": 217644,
      "componentType": 5125,
      "count": 1866,
      "type": "SCALAR"
    },
    {
      "bufferView": 3,
      "byteOffset": 289752,
      "componentType": 5126,
      "count": 731,
      "max": [
        2.4315874576568604,
        2.446993589401245,
        2.1268415451049805
      ],
      "min": [
        -2.4317939281463623,
        0.40655696392059326,
        -3.7159512042999268
      ],
      "type": "VEC3"
    },
    {
      "bufferView": 3,
      "byteOffset": 298524,
      "componentType": 5126,
      "count": 731,
      "max": [
        1.0,
        1.0,
        1.0
      ],
      "min": [
        -1.0,
        -1.0,
        -1.0
      ],
      "type": "VEC3"
    },
    {
      "bufferView": 2,
      "byteOffset": 96584,
      "componentType": 5126,
      "count": 731,
      "max": [
        0.9892578125,
        -0.0061244964599609375
      ],
      "min": [
        0.005634307861328125,
        -0.4556884765625
      ],
      "type": "VEC2"
    },
    {
      "bufferView": 1,
      "byteOffset": 225108,
      "componentType": 5125,
      "count": 3498,
      "type": "SCALAR"
    },
    {
      "bufferView": 3,
      "byteOffset": 307296,
      "componentType": 5126,
      "count": 264,
      "max": [
        1.4746226072311401,
        2.0414576530456543,
        2.322723388671875
      ],
      "min": [
        -1.4748289585113525,
        0.4065572917461395,
        1.2402710914611816
      ],
      "type": "VEC3"
    },
    {
      "bufferView": 3,
      "byteOffset": 310464,
      "componentType": 5126,
      "count": 264,
      "max": [
        0.9999817609786987,
        0.9968681931495667,
        1.0
      ],
      "min": [
        -0.9999960660934448,
        -0.9970619082450867,
        -0.9512848258018494
      ],
      "type": "VEC3"
    },
    {
      "bufferView": 2,
      "byteOffset": 102432,
      "componentType": 5126,
      "count": 264,
      "max": [
        0.8544921875,
        -0.0061244964599609375
      ],
      "min": [
        0.294921875,
        -0.821044921875
      ],
      "type": "VEC2"
    },
    {
      "bufferView": 1,
      "byteOffset": 239100,
      "componentType": 5125,
      "count": 1152,
      "type": "SCALAR"
    },
    {
      "bufferView": 5,
      "componentType": 5126,
      "count": 67,
      "max": [
        100.0,
        0.9124601483345032,
        0.9005010724067688,
        0.0,
        0.8483440279960632,
        100.0,
        0.9999997019767761,
        0.0,
        0.9996298551559448,
        0.9999294281005859,
        100.0,
        0.0,
        8.94981575012207,
        7.857114315032959,
        6.654876708984375,
        1.0
      ],
      "min": [
        -1.0,
        -0.8474492430686951,
        -0.9817754030227661,
        0.0,
        -0.8943408131599426,
        -1.0000004768371582,
        -0.9999997019767761,
        0.0,
        -0.9996299147605896,
        -0.9999361634254456,
        -1.0000001192092896,
        0.0,
        -11.164775848388672,
        -10.708291053771973,
        -4.66604471206665,
        1.0
      ],
      "type": "MAT4"
    },
    {
      "bufferView": 5,
      "byteOffset": 4288,
      "componentType": 5126,
      "count": 7,
      "max": [
        100.00000762939453,
        1.5375901796232938e-07,
        1.0000001192092896,
        0.0,
        0.9996018409729004,
        100.0,
        4.754641906856705e-07,
        0.0,
        0.9994209408760071,
        8.330752842395598e-15,
        100.00000762939453,
        0.0,
        1.923356533050537,
        0.0,
        0.28667956590652466,
        1.0
      ],
      "min": [
        -4.1791096805354755e-07,
        -0.13301487267017365,
        -1.0000001192092896,
        0.0,
        -0.003044663229957223,
        0.02797088585793972,
        -0.003753787139430642,
        0.0,
        -1.0000001192092896,
        -0.9907195568084717,
        -4.1744056034076493e-07,
        0.0,
        -4.737146377563477,
        -3.9490349292755127,
        -0.0002635958371683955,
        1.0
      ],
      "type": "MAT4"
    },
    {
      "bufferView": 0,
      "componentType": 5123,
      "count": 1472,
      "type": "VEC4"
    },
    {
      "bufferView": 4,
      "componentType": 5126,
      "count": 1472,
      "max": [
        1.0,
        0.0,
        0.0,
        0.0
      ],
      "min": [
        1.0,
        0.0,
        0.0,
        0.0
      ],
      "type": "VEC4"
    },
    {
      "bufferView": 0,
      "byteOffset": 11776,
      "componentType": 5123,
      "count": 491,
      "type": "VEC4"
    },
    {
      "bufferView": 4,
      "byteOffset": 23552,
      "componentType": 5126,
      "count": 491,
      "max": [
        1.0,
        0.49803921580314636,
        0.2823529541492462,
        0.08235294371843338
      ],
      "min": [
        0.3607843220233917,
        0.0,
        0.0,
        0.0
      ],
      "type": "VEC4"
    },
    {
      "bufferView": 0,
      "byteOffset": 15704,
      "componentType": 5123,
      "count": 254,
      "type": "VEC4"
    },
    {
      "bufferView": 4,
      "byteOffset": 31408,
      "componentType": 5126,
      "count": 254,
      "max": [
        1.0,
        0.0,
        0.0,
        0.0
      ],
      "min": [
        1.0,
        0.0,
        0.0,
        0.0
      ],
      "type": "VEC4"
    },
    {
      "bufferView": 0,
      "byteOffset": 17736,
      "componentType": 5123,
      "count": 633,
      "type": "VEC4"
    },
    {
      "bufferView": 4,
      "byteOffset": 35472,
      "componentType": 5126,
      "count": 633,
      "max": [
        1.0,
        0.0,
        0.0,
        0.0
      ],
      "min": [
        1.0,
        0.0,
        0.0,
        0.0
      ],
      "type": "VEC4"
    },
    {
      "bufferView": 0,
      "byteOffset": 22800,
      "componentType": 5123,
      "count": 26,
      "type": "VEC4"
    },
    {
      "bufferView": 4,
      "byteOffset": 45600,
      "componentType": 5126,
      "count": 26,
      "max": [
        1.0,
        0.0,
        0.0,
        0.0
      ],
      "min": [
        1.0,
        0.0,
        0.0,
        0.0
      ],
      "type": "VEC4"
    },
    {
      "bufferView": 0,
      "byteOffset": 23008,
      "componentType": 5123,
      "count": 223,
      "type": "VEC4"
    },
    {
      "bufferView": 4,
      "byteOffset": 46016,
      "componentType": 5126,
      "count": 223,
      "max": [
        1.0,
        0.0,
        0.0,
        0.0
      ],
      "min": [
        1.0,
        0.0,
        0.0,
        0.0
      ],
      "type": "VEC4"
    },
    {
      "bufferView": 0,
      "byteOffset": 24792,
      "componentType": 5123,
      "count": 3116,
      "type": "VEC4"
    },
    {
      "bufferView": 4,
      "byteOffset": 49584,
      "componentType": 5126,
      "count": 3116,
      "max": [
        1.0,
        0.5,
        0.2823529541492462,
        0.21568627655506134
      ],
      "min": [
        0.2980392277240753,
        0.0,
        0.0,
        0.0
      ],
      "type": "VEC4"
    },
    {
      "bufferView": 0,
      "byteOffset": 49720,
      "componentType": 5123,
      "count": 2846,
      "type": "VEC4"
    },
    {
      "bufferView": 4,
      "byteOffset": 99440,
      "componentType": 5126,
      "count": 2846,
      "max": [
        1.0,
        0.49803921580314636,
        0.26274511218070984,
        0.21960784494876862
      ],
      "min": [
        0.32156863808631897,
        0.0,
        0.0,
        0.0
      ],
      "type": "VEC4"
    },
    {
      "bufferView": 0,
      "byteOffset": 72488,
      "componentType": 5123,
      "count": 408,
      "type": "VEC4"
    },
    {
      "bufferView": 4,
      "byteOffset": 144976,
      "componentType": 5126,
      "count": 408,
      "max": [
        1.0,
        0.0,
        0.0,
        0.0
      ],
      "min": [
        1.0,
        0.0,
        0.0,
        0.0
      ],
      "type": "VEC4"
    },
    {
      "bufferView": 0,
      "byteOffset": 75752,
      "componentType": 5123,
      "count": 40,
      "type": "VEC4"
    },
    {
      "bufferView": 4,
      "byteOffset": 151504,
      "componentType": 5126,
      "count": 40,
      "max": [
        1.0,
        0.0,
        0.0,
        0.0
      ],
      "min": [
        1.0,
        0.0,
        0.0,
        0.0
      ],
      "type": "VEC4"
    },
    {
      "bufferView": 0,
      "byteOffset": 76072,
      "componentType": 5123,
      "count": 244,
      "type": "VEC4"
    },
    {
      "bufferView": 4,
      "byteOffset": 152144,
      "componentType": 5126,
      "count": 244,
      "max": [
        1.0,
        0.0,
        0.0,
        0.0
      ],
      "min": [
        1.0,
        0.0,
        0.0,
        0.0
      ],
      "type": "VEC4"
    },
    {
      "bufferView": 0,
      "byteOffset": 78024,
      "componentType": 5123,
      "count": 637,
      "type": "VEC4"
    },
    {
      "bufferView": 4,
      "byteOffset": 156048,
      "componentType": 5126,
      "count": 637,
      "max": [
        1.0,
        0.0,
        0.0,
        0.0
      ],
      "min": [
        1.0,
        0.0,
        0.0,
        0.0
      ],
      "type": "VEC4"
    },
    {
      "bufferView": 0,
      "byteOffset": 83120,
      "componentType": 5123,
      "count": 1294,
      "type": "VEC4"
    },
    {
      "bufferView": 4,
      "byteOffset": 166240,
      "componentType": 5126,
      "count": 1294,
      "max": [
        1.0,
        0.18503937125205994,
        0.1568627506494522,
        0.0
      ],
      "min": [
        0.6705882549285889,
        0.0,
        0.0,
        0.0
      ],
      "type": "VEC4"
    },
    {
      "bufferView": 0,
      "byteOffset": 93472,
      "componentType": 5123,
      "count": 389,
      "type": "VEC4"
    },
    {
      "bufferView": 4,
      "byteOffset": 186944,
      "componentType": 5126,
      "count": 389,
      "max": [
        1.0,
        0.2666666805744171,
        0.1568627506494522,
        0.0
      ],
      "min": [
        0.6509803533554077,
        0.0,
        0.0,
        0.0
      ],
      "type": "VEC4"
    },
    {
      "bufferView": 0,
      "byteOffset": 96584,
      "componentType": 5123,
      "count": 731,
      "type": "VEC4"
    },
    {
      "bufferView": 4,
      "byteOffset": 193168,
      "componentType": 5126,
      "count": 731,
      "max": [
        1.0,
        0.49803921580314636,
        0.0,
        0.0
      ],
      "min": [
        0.501960813999176,
        0.0,
        0.0,
        0.0
      ],
      "type": "VEC4"
    },
    {
      "bufferView": 0,
      "byteOffset": 102432,
      "componentType": 5123,
      "count": 264,
      "type": "VEC4"
    },
    {
      "bufferView": 4,
      "byteOffset": 204864,
      "componentType": 5126,
      "count": 264,
      "max": [
        1.0,
        0.0,
        0.0,
        0.0
      ],
      "min": [
        1.0,
        0.0,
        0.0,
        0.0
      ],
      "type": "VEC4"
    }
  ],
  "asset": {
    "extras": {
      "author": "Brawl2023. (https://sketchfab.com/Brawl2023.)",
      "license": "CC-BY-4.0 (http://creativecommons.org/licenses/by/4.0/)",
      "source": "https://sketchfab.com/3d-models/dragon-khight-jessie-remodel-5de0198425c44ea3a9819115ab844851",
      "title": "Dragon Khight Jessie Remodel"
    },
    "generator": "Sketchfab-15.77.0",
    "version": "2.0"
  },
  "bufferViews": [
    {
      "buffer": 0,
      "byteLength": 104544,
      "byteStride": 8,
      "name": "shortBufferViews",
      "target": 34962
    },
    {
      "buffer": 0,
      "byteLength": 243708,
      "byteOffset": 104544,
      "name": "floatBufferViews",
      "target": 34963
    },
    {
      "buffer": 0,
      "byteLength": 104544,
      "byteOffset": 348252,
      "byteStride": 8,
      "name": "floatBufferViews",
      "target": 34962
    },
    {
      "buffer": 0,
      "byteLength": 313632,
      "byteOffset": 452796,
      "byteStride": 12,
      "name": "floatBufferViews",
      "target": 34962
    },
    {
      "buffer": 0,
      "byteLength": 209088,
      "byteOffset": 766428,
      "byteStride": 16,
      "name": "floatBufferViews",
      "target": 34962
    },
    {
      "buffer": 0,
      "byteLength": 4736,
      "byteOffset": 975516,
      "name": "floatBufferViews"
    }
  ],
  "buffers": [
    {
      "byteLength": 980252,
      "uri": "scene.bin"
    }
  ],
  "images": [
    {
      "uri": "textures/character_metal_mat_baseColor.jpeg"
    },
    {
      "uri": "textures/Scrappy_baseColor.jpeg"
    }
  ],
  "materials": [
    {
      "doubleSided": true,
      "name": "character_metal_mat",
      "pbrMetallicRoughness": {
        "baseColorTexture": {
          "index": 0
        },
        "metallicFactor": 0.0,
        "roughnessFactor": 0.6
      }
    },
    {
      "doubleSided": true,
      "name": "character_mat",
      "pbrMetallicRoughness": {
        "baseColorTexture": {
          "index": 0
        },
        "metallicFactor": 0.0,
        "roughnessFactor": 0.6
      }
    },
    {
      "doubleSided": true,
      "name": "Scrappy",
      "pbrMetallicRoughness": {
        "baseColorTexture": {
          "index": 1
        },
        "metallicFactor": 0.0,
        "roughnessFactor": 0.6
      }
    },
    {
      "doubleSided": true,
      "name": "Scrappy_0",
      "pbrMetallicRoughness": {
        "baseColorTexture": {
          "index": 1
        },
        "metallicFactor": 0.0,
        "roughnessFactor": 0.6
      }
    }
  ],
  "meshes": [
    {
      "name": "helmet_Geo_001_character_metal_mat_0",
      "primitives": [
        {
          "attributes": {
            "JOINTS_0": 66,
            "NORMAL": 1,
            "POSITION": 0,
            "TEXCOORD_0": 2,
            "WEIGHTS_0": 67
          },
          "indices": 3,
          "material": 0,
          "mode": 4
        }
      ]
    },
    {
      "name": "helmet_Geo_001_character_mat_0",
      "primitives": [
        {
          "attributes": {
            "JOINTS_0": 68,
            "NORMAL": 5,
            "POSITION": 4,
            "TEXCOORD_0": 6,
            "WEIGHTS_0": 69
          },
          "indices": 7,
          "material": 1,
          "mode": 4
        }
      ]
    },
    {
      "name": "gun_Geo_001_character_mat_0",
      "primitives": [
        {
          "attributes": {
            "JOINTS_0": 70,
            "NORMAL": 9,
            "POSITION": 8,
            "TEXCOORD_0": 10,
            "WEIGHTS_0": 71
          },
          "indices": 11,
          "material": 1,
          "mode": 4
        }
      ]
    },
    {
      "name": "gun_Geo_001_character_metal_mat_0",
      "primitives": [
        {
          "attributes": {
            "JOINTS_0": 72,
            "NORMAL": 13,
            "POSITION": 12,
            "TEXCOORD_0": 14,
            "WEIGHTS_0": 73
          },
          "indices": 15,
          "material": 0,
          "mode": 4
        }
      ]
    },
    {
      "name": "eyebrows_Geo_001_character_mat_0",
      "primitives": [
        {
          "attributes": {
            "JOINTS_0": 74,
            "NORMAL": 17,
            "POSITION": 16,
            "TEXCOORD_0": 18,
            "WEIGHTS_0": 75
          },
          "indices": 19,
          "material": 1,
          "mode": 4
        }
      ]
    },
    {
      "name": "buckle_Geo_001_character_metal_mat_0",
      "primitives": [
        {
          "attributes": {
            "JOINTS_0": 76,
            "NORMAL": 21,
            "POSITION": 20,
            "TEXCOORD_0": 22,
            "WEIGHTS_0": 77
          },
          "indices": 23,
          "material": 0,
          "mode": 4
        }
      ]
    },
    {
      "name": "body_Geo_001_character_mat_0",
      "primitives": [
        {
          "attributes": {
            "JOINTS_0": 78,
            "NORMAL": 25,
            "POSITION": 24,
            "TEXCOORD_0": 26,
            "WEIGHTS_0": 79
          },
          "indices": 27,
          "material": 1,
          "mode": 4
        }
      ]
    },
    {
      "name": "body_Geo_001_character_metal_mat_0",
      "primitives": [
        {
          "attributes": {
            "JOINTS_0": 80,
            "NORMAL": 29,
            "POSITION": 28,
            "TEXCOORD_0": 30,
            "WEIGHTS_0": 81
          },
          "indices": 31,
          "material": 0,
          "mode": 4
        }
      ]
    },
    {
      "name": "backpack_Geo_001_character_mat_0",
      "primitives": [
        {
          "attributes": {
            "JOINTS_0": 82,
            "NORMAL": 33,
            "POSITION": 32,
            "TEXCOORD_0": 34,
            "WEIGHTS_0": 83
          },
          "indices": 35,
          "material": 1,
          "mode": 4
        }
      ]
    },
    {
      "name": "backpack_Geo_001_character_metal_mat_0",
      "primitives": [
        {
          "attributes": {
            "JOINTS_0": 84,
            "NORMAL": 37,
            "POSITION": 36,
            "TEXCOORD_0": 38,
            "WEIGHTS_0": 85
          },
          "indices": 39,
          "material": 0,
          "mode": 4
        }
      ]
    },
    {
      "name": "legs_geo_PIV_001_Scrappy_0",
      "primitives": [
        {
          "attributes": {
            "JOINTS_0": 86,
            "NORMAL": 41,
            "POSITION": 40,
            "TEXCOORD_0": 42,
            "WEIGHTS_0": 87
          },
          "indices": 43,
          "material": 2,
          "mode": 4
        }
      ]
    },
    {
      "name": "legs_geo_PIV_001_Scrappy_0",
      "primitives": [
        {
          "attributes": {
            "JOINTS_0": 88,
            "NORMAL": 45,
            "POSITION": 44,
            "TEXCOORD_0": 46,
            "WEIGHTS_0": 89
          },
          "indices": 47,
          "material": 3,
          "mode": 4
        }
      ]
    },
    {
      "name": "head_geo_PIV_001_Scrappy_0",
      "primitives": [
        {
          "attributes": {
            "JOINTS_0": 90,
            "NORMAL": 49,
            "POSITION": 48,
            "TEXCOORD_0": 50,
            "WEIGHTS_0": 91
          },
          "indices": 51,
          "material": 3,
          "mode": 4
        }
      ]
    },
    {
      "name": "head_geo_PIV_001_Scrappy_0",
      "primitives": [
        {
          "attributes": {
            "JOINTS_0": 92,
            "NORMAL": 53,
            "POSITION": 52,
            "TEXCOORD_0": 54,
            "WEIGHTS_0": 93
          },
          "indices": 55,
          "material": 2,
          "mode": 4
        }
      ]
    },
    {
      "name": "body_geo_PIV_001_Scrappy_0",
      "primitives": [
        {
          "attributes": {
            "JOINTS_0": 94,
            "NORMAL": 57,
            "POSITION": 56,
            "TEXCOORD_0": 58,
            "WEIGHTS_0": 95
          },
          "indices": 59,
          "material": 3,
          "mode": 4
        }
      ]
    },
    {
      "name": "body_geo_PIV_001_Scrappy_0",
      "primitives": [
        {
          "attributes": {
            "JOINTS_0": 96,
            "NORMAL": 61,
            "POSITION": 60,
            "TEXCOORD_0": 62,
            "WEIGHTS_0": 97
          },
          "indices": 63,
          "material": 2,
          "mode": 4
        }
      ]
    }
  ],
  "nodes": [
    {
      "children": [
        1
      ],
      "matrix": [
        1.0,
        0.0,
        0.0,
        0.0,
        0.0,
        2.220446049250313e-16,
        -1.0,
        0.0,
        0.0,
        1.0,
        2.220446049250313e-16,
        0.0,
        0.0,
        0.0,
        0.0,
        1.0
      ],
      "name": "Sketchfab_model"
    },
    {
      "children": [
        2
      ],
      "matrix": [
        0.009999999776482582,
        0.0,
        0.0,
        0.0,
        0.0,
        0.0,
        0.009999999776482582,
        0.0,
        0.0,
        -0.009999999776482582,
        0.0,
        0.0,
        0.0,
        0.0,
        0.0,
        1.0
      ],
      "name": "c808c679d5b749098de2becd2e4420b6.fbx"
    },
    {
      "children": [
        3,
        5
      ],
      "name": "RootNode"
    },
    {
      "children": [
        4
      ],
      "matrix": [
        -0.017262490566687827,
        0.042224410831226536,
        -0.9989590109455898,
        0.0,
        0.0007295491406963117,
        0.999108151868433,
        0.04221810782230191,
        0.0,
        0.9998507259473718,
        -3.0184188481996443e-16,
        -0.017277899829367893,
        0.0,
        92.4967269897461,
        498.3169860839844,
        2803.076171875,
        1.0
      ],
      "name": "Camera"
    },
    {
      "name": "Object_4"
    },
    {
      "children": [
        6
      ],
      "name": "Dragon_Khight_Jessie"
    },
    {
      "children": [
        7,
        92
      ],
      "matrix": [
        100.0,
        0.0,
        0.0,
        0.0,
        0.0,
        2.220446049250313e-14,
        -100.0,
        0.0,
        0.0,
        100.0,
        2.220446049250313e-14,
        0.0,
        0.0,
        0.0,
        0.0,
        1.0
      ],
      "name": "Root"
    },
    {
      "children": [
        8
      ],
      "matrix": [
        0.009999999776482582,
        0.0,
        0.0,
        0.0,
        0.0,
        2.2204459996194763e-18,
        0.009999999776482582,
        0.0,
        0.0,
        -0.009999999776482582,
        2.2204459996194763e-18,
        0.0,
        0.0,
        0.0,
        0.0,
        1.0
      ],
      "name": "Jessie"
    },
    {
      "children": [
        9,
        77,
        78,
        80,
        81,
        83,
        85,
        87,
        88,
        90,
        91,
        76,
        79,
        82,
        84,
        86,
        89
      ],
      "name": "Object_8"
    },
    {
      "children": [
        10
      ],
      "name": "_rootJoint"
    },
    {
      "children": [
        11
      ],
      "name": "Root_2_01",
      "rotation": [
        0.0,
        -0.0,
        -1.2904783908140871e-08,
        1.0
      ],
      "scale": [
        100.0,
        100.0,
        100.0
      ]
    },
    {
      "children": [
        12,
        67,
        71,
        75
      ],
      "name": "hips_s_02",
      "rotation": [
        -9.730983212448815e-33,
        -4.4441996749355894e-09,
        -4.963083675318166e-24,
        1.0
      ],
      "translation": [
        -3.741509768673268e-09,
        2.9592483043670654,
        0.10930465906858444
      ]
    },
    {
      "children": [
        13
      ],
      "name": "spine_lower_s_03",
      "rotation": [
        0.00938644353300333,
        1.765615920135133e-08,
        -1.6573584171730715e-10,
        0.999955952167511
      ],
      "scale": [
        1.0,
        0.9999999403953552,
        1.0
      ],
      "translation": [
        -1.0186388399446855e-09,
        0.291262149810791,
        0.04020138084888458
      ]
    },
    {
      "children": [
        14
      ],
      "name": "spine_mid_s_04",
      "rotation": [
        -0.018215762451291084,
        -2.2862350235186568e-08,
        -4.16524176261035e-10,
        0.9998341798782349
      ],
      "scale": [
        1.0,
        0.9999998807907104,
        0.9999998807907104
      ],
      "translation": [
        -9.64851754048368e-10,
        0.29430633783340454,
        0.015913791954517365
      ]
    },
    {
      "children": [
        15
      ],
      "name": "spine_upper_s_05",
      "rotation": [
        -0.0027365945279598236,
        6.891872317282832e-08,
        1.886036188336604e-10,
        0.9999962449073792
      ],
      "scale": [
        1.0,
        0.9999999403953552,
        1.0
      ],
      "translation": [
        -4.358022970274433e-11,
        0.33135849237442017,
        0.002925582230091095
      ]
    },
    {
      "children": [
        16,
        33,
        49,
        65,
        66
      ],
      "name": "chest_s_06",
      "rotation": [
        0.011566528119146824,
        -5.333199837309621e-08,
        6.169070809747268e-10,
        0.999933123588562
      ],
      "translation": [
        -1.0074513445701427e-09,
        0.2973438799381256,
        0.006596304476261139
      ]
    },
    {
      "children": [
        17
      ],
      "name": "neck_s_07",
      "rotation": [
        -3.60158614043371e-09,
        -3.0394802230659934e-09,
        -9.353491187411782e-18,
        1.0
      ],
      "translation": [
        5.293200988631952e-09,
        1.059847354888916,
        -0.11493351310491562
      ]
    },
    {
      "children": [
        18,
        21,
        24,
        29,
        30,
        31,
        32
      ],
      "name": "head_s_08",
      "rotation": [
        4.165336449215066e-25,
        -2.3694635142845755e-09,
        1.2422021480844114e-18,
        1.0
      ],
      "translation": [
        5.616837217559123e-09,
        1.024759292602539,
        -0.14051486551761627
      ]
    },
    {
      "children": [
        19
      ],
      "name": "L_ponytail_01_09",
      "rotation": [
        -0.19649557769298553,
        0.3123377561569214,
        -0.3738458752632141,
        0.8509254455566406
      ],
      "scale": [
        1.0000004768371582,
        0.9999996423721313,
        0.9999998211860657
      ],
      "translation": [
        1.2409934997558594,
        0.12224149703979492,
        -1.134386420249939
      ]
    },
    {
      "children": [
        20
      ],
      "name": "L_ponytail_02_010",
      "rotation": [
        -8.754432911928234e-08,
        -5.587965201669931e-09,
        6.322031964600683e-08,
        1.0
      ],
      "scale": [
        1.0,
        1.0,
        0.9999999403953552
      ],
      "translation": [
        1.1342053413391113,
        3.6358840134198545e-06,
        -3.5166724501323188e-06
      ]
    },
    {
      "name": "L_ponytail_03_011",
      "rotation": [
        9.313086302142892e-09,
        2.272427366278862e-07,
        -9.599408912208673e-08,
        1.0
      ],
      "scale": [
        1.0000001192092896,
        1.0000001192092896,
        1.0000001192092896
      ],
      "translation": [
        1.1476508378982544,
        2.5033946258190554e-06,
        3.0100356980256038e-06
      ]
    },
    {
      "children": [
        22
      ],
      "name": "R_ponytail_01_012",
      "rotation": [
        -0.384097695350647,
        0.8545854091644287,
        -0.17526662349700928,
        0.3023811876773834
      ],
      "scale": [
        1.0000005960464478,
        0.9999998211860657,
        0.9999997615814209
      ],
      "translation": [
        -1.2410000562667847,
        0.12224149703979492,
        -1.134484887123108
      ]
    },
    {
      "children": [
        23
      ],
      "name": "R_ponytail_02_013",
      "rotation": [
        -8.102507109697399e-08,
        -2.328306969445748e-08,
        -1.9712398824367483e-08,
        1.0
      ],
      "scale": [
        1.0,
        0.9999998807907104,
        0.9999999403953552
      ],
      "translation": [
        1.1342027187347412,
        1.1920931797249068e-07,
        2.6822084464583895e-07
      ]
    },
    {
      "name": "R_ponytail_03_014",
      "rotation": [
        8.661146466693026e-08,
        1.8766139646686497e-06,
        -7.450815076026629e-09,
        1.0
      ],
      "scale": [
        1.0,
        1.0,
        1.0000001192092896
      ],
      "translation": [
        1.1480004787445068,
        -7.152557373046875e-07,
        1.1920960218958498e-07
      ]
    },
    {
      "children": [
        25,
        28
      ],
      "name": "hat_01_s_015",
      "rotation": [
        -0.15088282525539398,
        2.8883730962547816e-08,
        4.408529541422013e-09,
        0.988551676273346
      ],
      "scale": [
        1.0,
        0.9999999403953552,
        1.0
      ],
      "translation": [
        -0.015103072859346867,
        2.777378559112549,
        -0.3792797923088074
      ]
    },
    {
      "children": [
        26
      ],
      "name": "hat_02_s_016",
      "rotation": [
        1.0430813546236095e-07,
        -1.138347194284961e-08,
        4.818240511942089e-16,
        1.0
      ],
      "translation": [
        0.01394549198448658,
        1.9451404809951782,
        -1.4051506519317627
      ]
    },
    {
      "children": [
        27
      ],
      "name": "hat_leaf_R_s_017",
      "rotation": [
        0.14248807728290558,
        0.28695636987686157,
        -0.5281723737716675,
        0.7863759398460388
      ],
      "scale": [
        1.0000003576278687,
        0.9999992847442627,
        1.0000001192092896
      ],
      "translation": [
        -0.00017251246026717126,
        1.161238193511963,
        -0.7442768216133118
      ]
    },
    {
      "name": "hat_leaf_L_s_018",
      "rotation": [
        -0.3300648331642151,
        -0.300995796918869,
        0.823668897151947,
        0.3493255376815796
      ],
      "scale": [
        1.0000008344650269,
        0.9999992847442627,
        0.9999998807907104
      ],
      "translation": [
        1.2708112001419067,
        0.5041057467460632,
        -2.70108962059021
      ]
    },
    {
      "name": "visor_019",
      "rotation": [
        0.5616154074668884,
        6.487886849981805e-08,
        9.431331449150093e-08,
        0.827398419380188
      ],
      "scale": [
        1.0,
        0.9999995231628418,
        1.0000004768371582
      ],
      "translation": [
        6.009182129673718e-08,
        -0.9712225198745728,
        -0.6605642437934875
      ]
    },
    {
      "name": "L_eyebrow_s_020",
      "rotation": [
        0.03595548868179321,
        0.0634511187672615,
        -0.002287492621690035,
        0.9973344206809998
      ],
      "scale": [
        1.0000001192092896,
        1.0,
        1.0
      ],
      "translation": [
        0.3256691098213196,
        1.4935307502746582,
        1.8081343173980713
      ]
    },
    {
      "name": "R_eyebrow_s_021",
      "rotation": [
        0.9973344802856445,
        0.00228749867528677,
        0.06345159560441971,
        -0.03595537692308426
      ],
      "scale": [
        1.0,
        1.0000001192092896,
        1.0000065565109253
      ],
      "translation": [
        -0.3256690502166748,
        1.4935297966003418,
        1.8081315755844116
      ]
    },
    {
      "name": "L_sidehair_01_022",
      "rotation": [
        8.83934969664324e-09,
        -2.20983653598239e-09,
        2.069203386521607e-17,
        1.0
      ],
      "translation": [
        1.7229115962982178,
        0.5891714096069336,
        0.432646781206131
      ]
    },
    {
      "name": "R_sidehair_01_023",
      "rotation": [
        8.83934969664324e-09,
        -2.20983653598239e-09,
        2.069203386521607e-17,
        1.0
      ],
      "translation": [
        -1.7229100465774536,
        0.58917236328125,
        0.43264666199684143
      ]
    },
    {
      "children": [
        34
      ],
      "name": "L_clavicle_s_024",
      "rotation": [
        -1.6788767709385866e-08,
        -1.3788334918274359e-08,
        -2.2426054899416696e-16,
        1.0
      ],
      "translation": [
        0.09933385252952576,
        0.5716018676757813,
        0.19187766313552856
      ]
    },
    {
      "children": [
        35,
        48
      ],
      "name": "L_shoulder_s_025",
      "rotation": [
        0.6249763369560242,
        0.33159297704696655,
        0.6150533556938171,
        -0.3480808138847351
      ],
      "scale": [
        1.0000001192092896,
        0.9999993443489075,
        1.0000001192092896
      ],
      "translation": [
        0.810386598110199,
        0.06842231750488281,
        -0.35548335313796997
      ]
    },
    {
      "children": [
        36,
        37
      ],
      "name": "L_elbow_s_026",
      "rotation": [
        0.00969141535460949,
        -0.0010787119390442967,
        -0.11057458817958832,
        0.9938200116157532
      ],
      "scale": [
        1.0,
        1.0000001192092896,
        1.0
      ],
      "translation": [
        -1.7556250497818837e-07,
        1.3488951921463013,
        -4.462841388885863e-06
      ]
    },
    {
      "name": "L_forearm_twist_s_027",
      "rotation": [
        -7.716874961261055e-08,
        2.910384599985605e-09,
        -2.1073438105645437e-08,
        1.0
      ],
      "scale": [
        1.0,
        0.9999999403953552,
        1.0
      ],
      "translation": [
        2.313572089462923e-08,
        0.3969873785972595,
        4.498249381867936e-07
      ]
    },
    {
      "children": [
        38,
        40,
        42,
        44,
        46
      ],
      "name": "L_wrist_s_028",
      "rotation": [
        -0.2065906971693039,
        -0.03231848403811455,
        -0.04660241678357124,
        0.976782500743866
      ],
      "scale": [
        1.0,
        0.9999995827674866,
        1.0000004768371582
      ],
      "translation": [
        2.1096815316923312e-07,
        1.1909610033035278,
        3.081106285662827e-07
      ]
    },
    {
      "children": [
        39
      ],
      "name": "L_middle_01_s_029",
      "rotation": [
        -0.038777511566877365,
        0.996576189994812,
        -0.07265623658895493,
        -0.007301727309823036
      ],
      "scale": [
        0.9999999403953552,
        0.9999998211860657,
        1.0000001192092896
      ],
      "translation": [
        0.04540848731994629,
        0.7474263310432434,
        0.2602910101413727
      ]
    },
    {
      "name": "L_middle_02_s_030",
      "rotation": [
        0.168331578373909,
        4.393725383522451e-09,
        1.671479310516588e-08,
        0.9857305288314819
      ],
      "scale": [
        1.0,
        0.9999995231628418,
        1.000000238418579
      ],
      "translation": [
        -1.2737240595583899e-08,
        0.3779956102371216,
        9.752684491104446e-07
      ]
    },
    {
      "children": [
        41
      ],
      "name": "L_index_01_s_031",
      "rotation": [
        0.07298627495765686,
        0.991671621799469,
        -0.045391812920570374,
        -0.09591753035783768
      ],
      "scale": [
        0.9999999403953552,
        0.9999999403953552,
        1.0000001192092896
      ],
      "translation": [
        0.2887299954891205,
        0.6957307457923889,
        0.18648870289325714
      ]
    },
    {
      "name": "L_index_02_s_032",
      "rotation": [
        0.1459168940782547,
        -0.01503959484398365,
        -0.015960900112986565,
        0.9890538454055786
      ],
      "scale": [
        0.9999999403953552,
        0.9999995827674866,
        1.000000238418579
      ],
      "translation": [
        7.089647624525242e-08,
        0.3891240358352661,
        6.913348897796823e-07
      ]
    },
    {
      "children": [
        43
      ],
      "name": "L_thumb_01_s_033",
      "rotation": [
        -0.2742406725883484,
        -0.7612844705581665,
        -0.020610427483916283,
        0.5872081518173218
      ],
      "scale": [
        0.9999998211860657,
        0.9999992847442627,
        1.0000007152557373
      ],
      "translation": [
        0.31488603353500366,
        0.2505306303501129,
        -0.09607943147420883
      ]
    },
    {
      "name": "L_thumb_02_s_034",
      "rotation": [
        -0.060278601944446564,
        0.00847137626260519,
        -0.011655605398118496,
        0.9980776906013489
      ],
      "scale": [
        0.9999999403953552,
        1.0,
        0.9999999403953552
      ],
      "translation": [
        -6.49899689619815e-08,
        0.48405423760414124,
        -2.0861857308318577e-07
      ]
    },
    {
      "children": [
        45
      ],
      "name": "L_ring_01_s_035",
      "rotation": [
        -0.14188627898693085,
        0.9776676893234253,
        -0.09622959792613983,
        0.12154930084943771
      ],
      "scale": [
        1.0000001192092896,
        0.9999995827674866,
        1.000000238418579
      ],
      "translation": [
        -0.18506892025470734,
        0.6986583471298218,
        0.23702752590179443
      ]
    },
    {
      "name": "L_ring_02_s_036",
      "rotation": [
        0.09310372173786163,
        -0.05058566480875015,
        -0.0009558821911923587,
        0.9943701028823853
      ],
      "scale": [
        1.0000001192092896,
        1.0,
        1.0000001192092896
      ],
      "translation": [
        5.3817466039163264e-08,
        0.36643683910369873,
        -1.8451304129030177e-07
      ]
    },
    {
      "children": [
        47
      ],
      "name": "L_pinky_01_s_037",
      "rotation": [
        -0.22705195844173431,
        0.9558482766151428,
        -0.09760060906410217,
        0.15898288786411285
      ],
      "scale": [
        1.0000004768371582,
        0.9999993443489075,
        1.000000238418579
      ],
      "translation": [
        -0.3638702630996704,
        0.5683068037033081,
        0.11597875505685806
      ]
    },
    {
      "name": "L_pinky_02_s_038",
      "rotation": [
        0.14755898714065552,
        -2.3742797949921624e-08,
        1.344277222870005e-07,
        0.9890533685684204
      ],
      "scale": [
        1.0,
        0.9999997615814209,
        1.000000238418579
      ],
      "translation": [
        3.23108707789288e-07,
        0.32401758432388306,
        1.5204126668777462e-07
      ]
    },
    {
      "name": "L_shoulder_twist_s_039",
      "rotation": [
        -5.167198580124932e-08,
        3.524475289395923e-08,
        1.0848216902559216e-07,
        1.0
      ],
      "scale": [
        1.0,
        1.0000001192092896,
        1.0
      ],
      "translation": [
        1.2535036120198129e-08,
        0.04000043869018555,
        3.56765468723097e-07
      ]
    },
    {
      "children": [
        50
      ],
      "name": "R_clavicle_s_040",
      "rotation": [
        1.0,
        -5.66035230365196e-15,
        7.549786573690653e-08,
        7.549792968575275e-08
      ],
      "scale": [
        1.0,
        0.9999998211860657,
        1.0
      ],
      "translation": [
        -0.09933389723300934,
        0.5715980529785156,
        0.1918773204088211
      ]
    },
    {
      "children": [
        51,
        64
      ],
      "name": "R_shoulder_s_041",
      "rotation": [
        0.6249752640724182,
        0.33159464597702026,
        0.6150522828102112,
        -0.34808284044265747
      ],
      "scale": [
        1.0000001192092896,
        0.999998927116394,
        1.0000003576278687
      ],
      "translation": [
        -0.8103861808776855,
        -0.06843042373657227,
        0.35548272728919983
      ]
    },
    {
      "children": [
        52,
        53
      ],
      "name": "R_elbow_s_042",
      "rotation": [
        0.00968883652240038,
        -0.0010778591968119144,
        -0.11057505011558533,
        0.9938199520111084
      ],
      "scale": [
        1.0000001192092896,
        1.0,
        1.0000001192092896
      ],
      "translation": [
        -3.801895331889682e-07,
        -1.3488972187042236,
        7.059858035063371e-06
      ]
    },
    {
      "name": "R_forearm_twist_s_043",
      "rotation": [
        2.625615138640569e-07,
        1.2631066681478842e-07,
        -7.889163226772883e-14,
        1.0
      ],
      "scale": [
        0.9999999403953552,
        1.0,
        0.9999999403953552
      ],
      "translation": [
        -1.4456315966526745e-07,
        -0.3969857692718506,
        -8.49475583208914e-08
      ]
    },
    {
      "children": [
        54,
        56,
        58,
        60,
        62
      ],
      "name": "R_wrist_s_044",
      "rotation": [
        -0.20658503472805023,
        -0.03232105076313019,
        -0.046602826565504074,
        0.9767835736274719
      ],
      "scale": [
        0.9999999403953552,
        0.9999991059303284,
        1.0000008344650269
      ],
      "translation": [
        -5.342722602108552e-07,
        -1.1909573078155518,
        -4.433190952113364e-07
      ]
    },
    {
      "children": [
        55
      ],
      "name": "R_middle_01_s_045",
      "rotation": [
        -0.03878076747059822,
        0.9965761303901672,
        -0.07265512645244598,
        -0.007299638818949461
      ],
      "scale": [
        0.9999999403953552,
        1.0,
        1.000000238418579
      ],
      "translation": [
        -0.0454091802239418,
        -0.7474274635314941,
        -0.26028797030448914
      ]
    },
    {
      "name": "R_middle_02_s_046",
      "rotation": [
        0.16833698749542236,
        6.503574695670977e-06,
        1.3113927934682579e-06,
        0.9857295155525208
      ],
      "scale": [
        0.9999998807907104,
        0.9999994039535522,
        1.000000238418579
      ],
      "translation": [
        2.246005266215434e-07,
        -0.37800273299217224,
        -8.360823926523153e-07
      ]
    },
    {
      "children": [
        57
      ],
      "name": "R_index_01_s_047",
      "rotation": [
        0.07298766076564789,
        0.9916703104972839,
        -0.045403189957141876,
        -0.09592389315366745
      ],
      "scale": [
        1.0,
        0.9999999403953552,
        1.0000001192092896
      ],
      "translation": [
        -0.28872933983802795,
        -0.6957351565361023,
        -0.1864883005619049
      ]
    },
    {
      "name": "R_index_02_s_048",
      "rotation": [
        0.14590604603290558,
        -0.015054655261337757,
        -0.015963774174451828,
        0.9890550971031189
      ],
      "scale": [
        1.0,
        0.9999996423721313,
        1.0000004768371582
      ],
      "translation": [
        6.669000640613376e-07,
        -0.38912317156791687,
        -1.4472303178081347e-07
      ]
    },
    {
      "children": [
        59
      ],
      "name": "R_thumb_01_s_049",
      "rotation": [
        -0.2742414176464081,
        -0.7612868547439575,
        -0.020606273785233498,
        0.5872046947479248
      ],
      "scale": [
        0.9999992251396179,
        0.9999991059303284,
        1.0000015497207642
      ],
      "translation": [
        -0.31488433480262756,
        -0.250535786151886,
        0.09608187526464462
      ]
    },
    {
      "name": "R_thumb_02_s_00",
      "rotation": [
        -0.06028608977794647,
        0.008484400808811188,
        -0.011651729233562946,
        0.9980770945549011
      ],
      "scale": [
        1.0000001192092896,
        1.0,
        0.9999997019767761
      ],
      "translation": [
        1.037608512888255e-06,
        -0.48405447602272034,
        1.7758934234279877e-07
      ]
    },
    {
      "children": [
        61
      ],
      "name": "R_ring_01_s_050",
      "rotation": [
        -0.14188848435878754,
        0.9776667356491089,
        -0.09623029083013535,
        0.12155298888683319
      ],
      "scale": [
        1.0000003576278687,
        0.9999991655349731,
        1.000000238418579
      ],
      "translation": [
        0.185069739818573,
        -0.6986642479896545,
        -0.23702868819236755
      ]
    },
    {
      "name": "R_ring_02_s_051",
      "rotation": [
        0.09311485290527344,
        -0.05058090388774872,
        -0.0009593386785127223,
        0.9943692684173584
      ],
      "scale": [
        0.9999999403953552,
        0.9999998211860657,
        0.9999999403953552
      ],
      "translation": [
        -9.951341439773387e-08,
        -0.3664345145225525,
        -6.166337129798194e-07
      ]
    },
    {
      "children": [
        63
      ],
      "name": "R_pinky_01_s_052",
      "rotation": [
        -0.22705404460430145,
        0.955846905708313,
        -0.09761424362659454,
        0.15898004174232483
      ],
      "scale": [
        1.0000008344650269,
        0.9999988079071045,
        1.0000004768371582
      ],
      "translation": [
        0.3638710081577301,
        -0.5683087706565857,
        -0.11598221957683563
      ]
    },
    {
      "name": "R_pinky_02_s_053",
      "rotation": [
        0.14754770696163177,
        -3.909063650553435e-08,
        3.239674242649926e-06,
        0.9890550374984741
      ],
      "scale": [
        1.0,
        0.9999997019767761,
        1.0000003576278687
      ],
      "translation": [
        -6.056622510186571e-07,
        -0.32402127981185913,
        -6.019160423420544e-07
      ]
    },
    {
      "name": "R_shoulder_twist_s_054",
      "rotation": [
        -9.726689143008116e-08,
        -2.910386376342444e-10,
        -1.07453928421819e-07,
        1.0
      ],
      "translation": [
        -2.8411475838652223e-08,
        -0.04000168293714523,
        2.323817170690745e-06
      ]
    },
    {
      "name": "backpack_01_055",
      "rotation": [
        -4.877060533203803e-08,
        -1.2192638898511632e-08,
        -5.882502999453635e-16,
        1.0
      ],
      "translation": [
        3.8721100992233914e-08,
        0.3399362564086914,
        -0.8407881855964661
      ]
    },
    {
      "name": "R_gunbone_01_056",
      "rotation": [
        1.6193363316929776e-09,
        2.1316273602473533e-14,
        -4.992298981170845e-23,
        1.0
      ],
      "translation": [
        -6.9566264152526855,
        -0.8840048313140869,
        0.0015474981628358364
      ]
    },
    {
      "children": [
        68
      ],
      "name": "L_upperLeg_s_057",
      "rotation": [
        7.296581827631599e-08,
        0.046659864485263824,
        0.9989108443260193,
        -4.541736942087482e-08
      ],
      "scale": [
        1.0,
        1.0000003576278687,
        1.00001859664917
      ],
      "translation": [
        0.671147346496582,
        -0.4125783443450928,
        1.4768811951171301e-08
      ]
    },
    {
      "children": [
        69
      ],
      "name": "L_lowerLeg_s_058",
      "rotation": [
        -0.13496795296669006,
        1.2459970832878753e-08,
        1.9444813759150748e-08,
        0.9908499717712402
      ],
      "scale": [
        1.0,
        0.9999958276748657,
        1.0000038146972656
      ],
      "translation": [
        -6.243460859423067e-08,
        0.7310247421264648,
        -9.381437848787755e-10
      ]
    },
    {
      "children": [
        70
      ],
      "name": "L_ankle_s_059",
      "rotation": [
        7.11939591724331e-08,
        -0.08858568221330643,
        0.9960686564445496,
        4.86259175147552e-08
      ],
      "scale": [
        1.0,
        0.9999912977218628,
        1.000001072883606
      ],
      "translation": [
        3.7515221151807054e-08,
        1.4217705726623535,
        -1.6382185776819824e-06
      ]
    },
    {
      "name": "L_toes_s_060",
      "rotation": [
        0.0038618051912635565,
        0.7071762084960938,
        0.7070163488388062,
        -0.003862525336444378
      ],
      "scale": [
        1.0,
        0.9999256134033203,
        1.0000741481781006
      ],
      "translation": [
        0.0019387602806091309,
        -0.28657543659210205,
        0.540347695350647
      ]
    },
    {
      "children": [
        72
      ],
      "name": "R_upperLeg_s_061",
      "rotation": [
        -3.5534404307924206e-09,
        0.9989108443260193,
        -0.046659525483846664,
        -7.60738601002231e-08
      ],
      "scale": [
        1.0,
        1.000000238418579,
        0.9999999403953552
      ],
      "translation": [
        -0.6711469292640686,
        -0.4125785827636719,
        4.799437647307059e-07
      ]
    },
    {
      "children": [
        73
      ],
      "name": "R_lowerLeg_s_062",
      "rotation": [
        -0.1349625587463379,
        -4.2682518852643625e-08,
        -5.813733050530345e-09,
        0.9908508062362671
      ],
      "scale": [
        1.0,
        1.0000001192092896,
        0.9999998807907104
      ],
      "translation": [
        5.677483017052509e-08,
        -0.7310224771499634,
        -3.073833454436681e-08
      ]
    },
    {
      "children": [
        74
      ],
      "name": "R_ankle_s_063",
      "rotation": [
        -1.644766634001371e-08,
        -0.08858316391706467,
        0.9960688948631287,
        4.018638222191839e-08
      ],
      "scale": [
        1.0,
        1.000000238418579,
        1.0000041723251343
      ],
      "translation": [
        4.681434617737068e-08,
        -1.4217735528945923,
        -3.558643513201787e-08
      ]
    },
    {
      "name": "R_toes_s_064",
      "rotation": [
        0.0038617486134171486,
        0.7071772813796997,
        0.7070152759552002,
        -0.0038625639863312244
      ],
      "scale": [
        1.0,
        0.9999890327453613,
        1.00001060962677
      ],
      "translation": [
        -0.0019390283850952983,
        0.2865794599056244,
        -0.5403508543968201
      ]
    },
    {
      "name": "bowtie_s_065",
      "rotation": [
        -2.6353752673458075e-06,
        1.0082423784751882e-10,
        2.6570970922136213e-16,
        1.0
      ],
      "translation": [
        -2.403442778131648e-08,
        0.022654056549072266,
        0.9484723806381226
      ]
    },
    {
      "matrix": [
        100.00000000000009,
        6.10765348890779e-20,
        1.775007007695506e-13,
        0.0,
        1.7750070077451376e-13,
        2.1833107898736816e-11,
        -100.00000000279621,
        0.0,
        -6.107657364470516e-20,
        100.00000000279613,
        2.1833107898736796e-11,
        0.0,
        -9.71148668752441e-12,
        1.848306567353575e-05,
        -5.978054332445026e-06,
        1.0
      ],
      "name": "Object_76"
    },
    {
      "mesh": 0,
      "name": "Object_77",
      "skin": 0
    },
    {
      "mesh": 1,
      "name": "Object_78",
      "skin": 0
    },
    {
      "matrix": [
        100.00000000000009,
        6.10765348890779e-20,
        1.775007007695506e-13,
        0.0,
        1.7750070077451376e-13,
        2.1833107898736816e-11,
        -100.00000000279621,
        0.0,
        -6.107657364470516e-20,
        100.00000000279613,
        2.1833107898736796e-11,
        0.0,
        -9.71148668752441e-12,
        1.848306567353575e-05,
        -5.978054332445026e-06,
        1.0
      ],
      "name": "Object_79"
    },
    {
      "mesh": 2,
      "name": "Object_80",
      "skin": 0
    },
    {
      "mesh": 3,
      "name": "Object_81",
      "skin": 0
    },
    {
      "matrix": [
        100.00000000000009,
        6.10765348890779e-20,
        1.775007007695506e-13,
        0.0,
        1.7750070077451376e-13,
        2.1833107898736816e-11,
        -100.00000000279621,
        0.0,
        -6.107657364470516e-20,
        100.00000000279613,
        2.1833107898736796e-11,
        0.0,
        -9.71148668752441e-12,
        1.848306567353575e-05,
        -5.978054332445026e-06,
        1.0
      ],
      "name": "Object_82"
    },
    {
      "mesh": 4,
      "name": "Object_83",
      "skin": 0
    },
    {
      "matrix": [
        100.00000000000009,
        6.10765348890779e-20,
        1.775007007695506e-13,
        0.0,
        1.7750070077451376e-13,
        2.1833107898736816e-11,
        -100.00000000279621,
        0.0,
        -6.107657364470516e-20,
        100.00000000279613,
        2.1833107898736796e-11,
        0.0,
        -9.71148668752441e-12,
        1.848306567353575e-05,
        -5.978054332445026e-06,
        1.0
      ],
      "name": "Object_84"
    },
    {
      "mesh": 5,
      "name": "Object_85",
      "skin": 0
    },
    {
      "matrix": [
        100.00000000000009,
        6.10765348890779e-20,
        1.775007007695506e-13,
        0.0,
        1.7750070077451376e-13,
        2.1833107898736816e-11,
        -100.00000000279621,
        0.0,
        -6.107657364470516e-20,
        100.00000000279613,
        2.1833107898736796e-11,
        0.0,
        -9.71148668752441e-12,
        1.848306567353575e-05,
        -5.978054332445026e-06,
        1.0
      ],
      "name": "Object_86"
    },
    {
      "mesh": 6,
      "name": "Object_87",
      "skin": 0
    },
    {
      "mesh": 7,
      "name": "Object_88",
      "skin": 0
    },
    {
      "matrix": [
        100.00000000000009,
        6.10765348890779e-20,
        1.775007007695506e-13,
        0.0,
        1.7750070077451376e-13,
        2.1833107898736816e-11,
        -100.00000000279621,
        0.0,
        -6.107657364470516e-20,
        100.00000000279613,
        2.1833107898736796e-11,
        0.0,
        -9.71148668752441e-12,
        1.848306567353575e-05,
        -5.978054332445026e-06,
        1.0
      ],
      "name": "Object_89"
    },
    {
      "mesh": 8,
      "name": "Object_90",
      "skin": 0
    },
    {
      "mesh": 9,
      "name": "Object_91",
      "skin": 0
    },
    {
      "children": [
        93
      ],
      "matrix": [
        0.009999999776482582,
        0.0,
        0.0,
        0.0,
        0.0,
        2.2204459996194763e-18,
        0.009999999776482582,
        0.0,
        0.0,
        -0.009999999776482582,
        2.2204459996194763e-18,
        0.0,
        0.0,
        0.0,
        0.0,
        1.0
      ],
      "name": "Scrappy"
    },
    {
      "children": [
        94,
        102,
        103,
        105,
        106,
        108,
        109,
        101,
        104,
        107
      ],
      "name": "Object_93"
    },
    {
      "children": [
        95
      ],
      "name": "_rootJoint"
    },
    {
      "children": [
        96
      ],
      "name": "Root_3_066",
      "rotation": [
        -0.4986541271209717,
        -0.501342236995697,
        0.4986540973186493,
        0.5013422966003418
      ],
      "scale": [
        100.0,
        100.0,
        100.0
      ],
      "translation": [
        774.7481689453125,
        -1.049041748046875e-05,
        7.152558509915252e-07
      ]
    },
    {
      "children": [
        97,
        98
      ],
      "name": "turret_main_s_067",
      "rotation": [
        1.2250181313788744e-08,
        -2.6667054675577617e-10,
        -0.6930346488952637,
        0.7209042906761169
      ],
      "scale": [
        0.9999998211860657,
        0.9999998211860657,
        1.0
      ],
      "translation": [
        1.3716686964035034,
        0.30985650420188904,
        2.475317373296093e-08
      ]
    },
    {
      "name": "tail_s_068",
      "rotation": [
        0.048576951026916504,
        0.045642681419849396,
        0.6832306981086731,
        0.727154016494751
      ],
      "scale": [
        0.9999999403953552,
        0.9999998807907104,
        1.0
      ],
      "translation": [
        -1.8229620456695557,
        -0.08519285917282104,
        -3.1548641032941305e-08
      ]
    },
    {
      "children": [
        99
      ],
      "name": "turret_bone_s_069",
      "rotation": [
        0.012034328654408455,
        0.7070043087005615,
        -0.012034326791763306,
        0.7070044279098511
      ],
      "scale": [
        0.9999994039535522,
        0.9999997615814209,
        1.0000004768371582
      ],
      "translation": [
        0.34128338098526,
        1.1266847848892212,
        5.906308331304899e-09
      ]
    },
    {
      "children": [
        100
      ],
      "name": "turret_canon_s_070",
      "rotation": [
        -0.001877290429547429,
        0.7071042656898499,
        -0.0018772901967167854,
        0.7071042656898499
      ],
      "scale": [
        0.9999985098838806,
        1.0000001192092896,
        1.0000016689300537
      ],
      "translation": [
        -1.6328240093343993e-08,
        1.4439090490341187,
        1.91106116771698
      ]
    },
    {
      "name": "turret_canonend_s_071",
      "rotation": [
        3.554994354448837e-10,
        -1.995327068016195e-07,
        0.0026548795867711306,
        0.9999964833259583
      ],
      "scale": [
        1.0,
        0.9999998211860657,
        1.0
      ],
      "translation": [
        2.8258378505706787,
        0.003871247172355652,
        9.85205019787827e-07
      ]
    },
    {
      "matrix": [
        100.00000429153388,
        -9.48121899526787e-14,
        -1.2751809957135482e-14,
        0.0,
        -1.2751809409887111e-14,
        1.1714553645825208e-13,
        -99.9999999999997,
        0.0,
        9.481219492575907e-14,
        100.000009536725,
        1.1714554763010007e-13,
        0.0,
        -2.3306419524881695e-12,
        -5.658521786244819e-06,
        4.631452094372434e-05,
        1.0
      ],
      "name": "Object_101"
    },
    {
      "mesh": 10,
      "name": "Object_102",
      "skin": 1
    },
    {
      "mesh": 11,
      "name": "Object_103",
      "skin": 1
    },
    {
      "matrix": [
        100.00000429153388,
        -9.48121899526787e-14,
        -1.2751809957135482e-14,
        0.0,
        -1.2751809409887111e-14,
        1.1714553645825208e-13,
        -99.9999999999997,
        0.0,
        9.481219492575907e-14,
        100.000009536725,
        1.1714554763010007e-13,
        0.0,
        -2.3306419524881695e-12,
        -5.658521786244819e-06,
        4.631452094372434e-05,
        1.0
      ],
      "name": "Object_104"
    },
    {
      "mesh": 12,
      "name": "Object_105",
      "skin": 1
    },
    {
      "mesh": 13,
      "name": "Object_106",
      "skin": 1
    },
    {
      "matrix": [
        100.00000429153388,
        -9.48121899526787e-14,
        -1.2751809957135482e-14,
        0.0,
        -1.2751809409887111e-14,
        1.1714553645825208e-13,
        -99.9999999999997,
        0.0,
        9.481219492575907e-14,
        100.000009536725,
        1.1714554763010007e-13,
        0.0,
        -2.3306419524881695e-12,
        -5.658521786244819e-06,
        4.631452094372434e-05,
        1.0
      ],
      "name": "Object_107"
    },
    {
      "mesh": 14,
      "name": "Object_108",
      "skin": 1
    },
    {
      "mesh": 15,
      "name": "Object_109",
      "skin": 1
    }
  ],
  "samplers": [
    {
      "magFilter": 9729,
      "minFilter": 9987,
      "wrapS": 10497,
      "wrapT": 10497
    }
  ],
  "scene": 0,
  "scenes": [
    {
      "name": "Sketchfab_Scene",
      "nodes": [
        0
      ]
    }
  ],
  "skins": [
    {
      "inverseBindMatrices": 64,
      "joints": [
        9,
        10,
        11,
        12,
        13,
        14,
        15,
        16,
        17,
        18,
        19,
        20,
        21,
        22,
        23,
        24,
        25,
        26,
        27,
        28,
        29,
        30,
        31,
        32,
        33,
        34,
        35,
        36,
        37,
        38,
        39,
        40,
        41,
        42,
        43,
        44,
        45,
        46,
        47,
        48,
        49,
        50,
        51,
        52,
        53,
        54,
        55,
        56,
        57,
        58,
        59,
        60,
        61,
        62,
        63,
        64,
        65,
        66,
        67,
        68,
        69,
        70,
        71,
        72,
        73,
        74,
        75
      ],
      "skeleton": 9
    },
    {
      "inverseBindMatrices": 65,
      "joints": [
        94,
        95,
        96,
        97,
        98,
        99,
        100
      ],
      "skeleton": 94
    }
  ],
  "textures": [
    {
      "sampler": 0,
      "source": 0
    },
    {
      "sampler": 0,
      "source": 1
    }
  ]
}
