{
  "accessors": [
    {
      "bufferView": 2,
      "componentType": 5126,
      "count": 106,
      "max": [
        0.2418198585510254,
        0.03995928913354874,
        3.1123721599578857
      ],
      "min": [
        -0.2418198585510254,
        -0.03995928913354874,
        -0.7415554523468018
      ],
      "type": "VEC3"
    },
    {
      "bufferView": 2,
      "byteOffset": 1272,
      "componentType": 5126,
      "count": 106,
      "max": [
        0.3105504512786865,
        1.0,
        0.1784762591123581
      ],
      "min": [
        -0.3105504512786865,
        -1.0,
        -0.18856370449066162
      ],
      "type": "VEC3"
    },
    {
      "bufferView": 3,
      "componentType": 5126,
      "count": 106,
      "max": [
        0.9999907612800598,
        0.3097588121891022,
        0.057232290506362915,
        1.0
      ],
      "min": [
        -0.9999907612800598,
        -0.3097589612007141,
        -0.03139001503586769,
        1.0
      ],
      "type": "VEC4"
    },
    {
      "bufferView": 1,
      "componentType": 5126,
      "count": 106,
      "max": [
        0.28068727254867554,
        0.8798618912696838
      ],
      "min": [
        0.03846559301018715,
        0.0034354436211287975
      ],
      "type": "VEC2"
    },
    {
      "bufferView": 0,
      "componentType": 5125,
      "count": 342,
      "type": "SCALAR"
    },
    {
      "bufferView": 2,
      "byteOffset": 2544,
      "componentType": 5126,
      "count": 34,
      "max": [
        0.10994216054677963,
        0.059575024992227554,
        0.6028134226799011
      ],
      "min": [
        -0.10994216054677963,
        -0.059575024992227554,
        -0.6404896378517151
      ],
      "type": "VEC3"
    },
    {
      "bufferView": 2,
      "byteOffset": 2952,
      "componentType": 5126,
      "count": 34,
      "max": [
        1.0,
        1.0,
        0.0
      ],
      "min": [
        -1.0,
        -1.0,
        0.0
      ],
      "type": "VEC3"
    },
    {
      "bufferView": 3,
      "byteOffset": 1696,
      "componentType": 5126,
      "count": 34,
      "max": [
        1.0,
        1.0,
        0.0,
        1.0
      ],
      "min": [
        -1.0,
        -1.0,
        0.0,
        1.0
      ],
      "type": "VEC4"
    },
    {
      "bufferView": 1,
      "byteOffset": 848,
      "componentType": 5126,
      "count": 34,
      "max": [
        0.4002948999404907,
        0.8759918808937073
      ],
      "min": [
        0.28448179364204407,
        0.6097778677940369
      ],
      "type": "VEC2"
    },
    {
      "bufferView": 0,
      "byteOffset": 1368,
      "componentType": 5125,
      "count": 96,
      "type": "SCALAR"
    },
    {
      "bufferView": 2,
      "byteOffset": 3360,
      "componentType": 5126,
      "count": 132,
      "max": [
        0.15222954750061035,
        0.09027706831693649,
        0.1532062292098999
      ],
      "min": [
        -0.15222954750061035,
        -0.09027706831693649,
        0.09498566389083862
      ],
      "type": "VEC3"
    },
    {
      "bufferView": 2,
      "byteOffset": 4944,
      "componentType": 5126,
      "count": 132,
      "max": [
        1.0,
        1.0,
        1.0
      ],
      "min": [
        -1.0,
        -1.0,
        0.0
      ],
      "type": "VEC3"
    },
    {
      "bufferView": 3,
      "byteOffset": 2240,
      "componentType": 5126,
      "count": 132,
      "max": [
        0.1949080228805542,
        0.0,
        1.0,
        1.0
      ],
      "min": [
        -0.44864463806152344,
        -0.9998281002044678,
        -1.5830664779059589e-06,
        1.0
      ],
      "type": "VEC4"
    },
    {
      "bufferView": 1,
      "byteOffset": 1120,
      "componentType": 5126,
      "count": 132,
      "max": [
        0.38416218757629395,
        0.3088938891887665
      ],
      "min": [
        0.11343634128570557,
        0.0019531298894435167
      ],
      "type": "VEC2"
    },
    {
      "bufferView": 0,
      "byteOffset": 1752,
      "componentType": 5125,
      "count": 384,
      "type": "SCALAR"
    },
    {
      "bufferView": 2,
      "byteOffset": 6528,
      "componentType": 5126,
      "count": 372,
      "max": [
        0.16600675880908966,
        0.07857924699783325,
        0.34477734565734863
      ],
      "min": [
        -0.16600675880908966,
        -0.07857924699783325,
        -0.00013971328735351563
      ],
      "type": "VEC3"
    },
    {
      "bufferView": 2,
      "byteOffset": 10992,
      "componentType": 5126,
      "count": 372,
      "max": [
        1.0,
        1.0,
        1.0
      ],
      "min": [
        -1.0,
        -1.0,
        -1.0
      ],
      "type": "VEC3"
    },
    {
      "bufferView": 3,
      "byteOffset": 4352,
      "componentType": 5126,
      "count": 372,
      "max": [
        0.5015514492988586,
        1.0,
        0.6204128265380859,
        1.0
      ],
      "min": [
        -0.9933595657348633,
        -1.0,
        -0.9225280284881592,
        1.0
      ],
      "type": "VEC4"
    },
    {
      "bufferView": 1,
      "byteOffset": 2176,
      "componentType": 5126,
      "count": 372,
      "max": [
        0.402111679315567,
        0.9976818561553955
      ],
      "min": [
        0.03840743750333786,
        0.0019531298894435167
      ],
      "type": "VEC2"
    },
    {
      "bufferView": 0,
      "byteOffset": 3288,
      "componentType": 5125,
      "count": 1296,
      "type": "SCALAR"
    },
    {
      "bufferView": 2,
      "byteOffset": 15456,
      "componentType": 5126,
      "count": 156,
      "max": [
        0.16600675880908966,
        0.07857924699783325,
        0.3497559130191803
      ],
      "min": [
        -0.16600675880908966,
        -0.07857924699783325,
        0.30383554100990295
      ],
      "type": "VEC3"
    },
    {
      "bufferView": 2,
      "byteOffset": 17328,
      "componentType": 5126,
      "count": 156,
      "max": [
        1.0,
        1.0,
        1.0
      ],
      "min": [
        -1.0,
        -1.0,
        -0.9733205437660217
      ],
      "type": "VEC3"
    },
    {
      "bufferView": 3,
      "byteOffset": 10304,
      "componentType": 5126,
      "count": 156,
      "max": [
        1.0,
        0.8351305723190308,
        0.9733200073242188,
        1.0
      ],
      "min": [
        -0.39863401651382446,
        -0.9707071185112,
        -0.9733200669288635,
        1.0
      ],
      "type": "VEC4"
    },
    {
      "bufferView": 1,
      "byteOffset": 5152,
      "componentType": 5126,
      "count": 156,
      "max": [
        0.12611524760723114,
        0.9165824055671692
      ],
      "min": [
        0.03840743750333786,
        0.0019531301222741604
      ],
      "type": "VEC2"
    },
    {
      "bufferView": 0,
      "byteOffset": 8472,
      "componentType": 5125,
      "count": 390,
      "type": "SCALAR"
    },
    {
      "bufferView": 2,
      "byteOffset": 19200,
      "componentType": 5126,
      "count": 1562,
      "max": [
        0.11229643225669861,
        0.06167137250304222,
        0.6796502470970154
      ],
      "min": [
        -0.11228316277265549,
        -0.06300882250070572,
        -0.5839827060699463
      ],
      "type": "VEC3"
    },
    {
      "bufferView": 2,
      "byteOffset": 37944,
      "componentType": 5126,
      "count": 1562,
      "max": [
        0.999641478061676,
        0.9999226927757263,
        0.9911102652549744
      ],
      "min": [
        -0.9992390275001526,
        -0.9999793171882629,
        -0.9948683977127075
      ],
      "type": "VEC3"
    },
    {
      "bufferView": 3,
      "byteOffset": 12800,
      "componentType": 5126,
      "count": 1562,
      "max": [
        0.9919443130493164,
        0.9947876930236816,
        0.13551045954227448,
        1.0
      ],
      "min": [
        -0.9919319748878479,
        -0.9942151308059692,
        -0.9999997019767761,
        1.0
      ],
      "type": "VEC4"
    },
    {
      "bufferView": 1,
      "byteOffset": 6400,
      "componentType": 5126,
      "count": 1562,
      "max": [
        0.03915789723396301,
        0.9918438196182251
      ],
      "min": [
        0.01086193136870861,
        0.0019531298894435167
      ],
      "type": "VEC2"
    },
    {
      "bufferView": 0,
      "byteOffset": 10032,
      "componentType": 5125,
      "count": 4656,
      "type": "SCALAR"
    },
    {
      "bufferView": 2,
      "byteOffset": 56688,
      "componentType": 5126,
      "count": 1562,
      "max": [
        0.11308261752128601,
        0.06252621114253998,
        0.6794734001159668
      ],
      "min": [
        -0.11309853196144104,
        -0.06375347077846527,
        -0.5838303565979004
      ],
      "type": "VEC3"
    },
    {
      "bufferView": 2,
      "byteOffset": 75432,
      "componentType": 5126,
      "count": 1562,
      "max": [
        0.9992504715919495,
        0.9999228715896606,
        0.9898537993431091
      ],
      "min": [
        -0.9996484518051147,
        -0.9999792575836182,
        -0.9944947957992554
      ],
      "type": "VEC3"
    },
    {
      "bufferView": 3,
      "byteOffset": 37792,
      "componentType": 5126,
      "count": 1562,
      "max": [
        0.990501880645752,
        0.9928398728370667,
        0.999999463558197,
        1.0
      ],
      "min": [
        -0.9903833866119385,
        -0.9935093522071838,
        -0.15733833611011505,
        1.0
      ],
      "type": "VEC4"
    },
    {
      "bufferView": 1,
      "byteOffset": 18896,
      "componentType": 5126,
      "count": 1562,
      "max": [
        0.042866431176662445,
        0.998046875
      ],
      "min": [
        0.001953125,
        0.001953125
      ],
      "type": "VEC2"
    },
    {
      "bufferView": 0,
      "byteOffset": 28656,
      "componentType": 5125,
      "count": 4656,
      "type": "SCALAR"
    },
    {
      "bufferView": 2,
      "byteOffset": 94176,
      "componentType": 5126,
      "count": 1782,
      "max": [
        0.11555202305316925,
        0.06694455444812775,
        1.2126500606536865
      ],
      "min": [
        -0.11555202305316925,
        -0.06694455444812775,
        -0.030811836943030357
      ],
      "type": "VEC3"
    },
    {
      "bufferView": 2,
      "byteOffset": 115560,
      "componentType": 5126,
      "count": 1782,
      "max": [
        0.9484249353408813,
        0.944686770439148,
        0.9999857544898987
      ],
      "min": [
        -0.9484232664108276,
        -0.9446851015090942,
        -0.9999858736991882
      ],
      "type": "VEC3"
    },
    {
      "bufferView": 3,
      "byteOffset": 62784,
      "componentType": 5126,
      "count": 1782,
      "max": [
        0.9999973773956299,
        0.9999840259552002,
        0.94804447889328,
        1.0
      ],
      "min": [
        -0.9999839663505554,
        -0.9999839663505554,
        -0.9481137990951538,
        1.0
      ],
      "type": "VEC4"
    },
    {
      "bufferView": 1,
      "byteOffset": 31392,
      "componentType": 5126,
      "count": 1782,
      "max": [
        0.34099799394607544,
        0.9962483644485474
      ],
      "min": [
        0.028961574658751488,
        0.0019535068422555923
      ],
      "type": "VEC2"
    },
    {
      "bufferView": 0,
      "byteOffset": 47280,
      "componentType": 5125,
      "count": 8640,
      "type": "SCALAR"
    },
    {
      "bufferView": 2,
      "byteOffset": 136944,
      "componentType": 5126,
      "count": 56,
      "max": [
        0.7167220711708069,
        0.0986197292804718,
        0.09498566389083862
      ],
      "min": [
        -0.7167220711708069,
        -0.0986197292804718,
        -0.10385127365589142
      ],
      "type": "VEC3"
    },
    {
      "bufferView": 2,
      "byteOffset": 137616,
      "componentType": 5126,
      "count": 56,
      "max": [
        0.8882553577423096,
        0.9999753832817078,
        1.0
      ],
      "min": [
        -0.8882553577423096,
        -0.9999753832817078,
        -1.0
      ],
      "type": "VEC3"
    },
    {
      "bufferView": 3,
      "byteOffset": 91296,
      "componentType": 5126,
      "count": 56,
      "max": [
        0.9979492425918579,
        1.0,
        0.9999753832817078,
        1.0
      ],
      "min": [
        -0.998174786567688,
        -1.0,
        -0.9999753832817078,
        1.0
      ],
      "type": "VEC4"
    },
    {
      "bufferView": 1,
      "byteOffset": 45648,
      "componentType": 5126,
      "count": 56,
      "max": [
        0.3650311827659607,
        0.9786997437477112
      ],
      "min": [
        0.03840743005275726,
        0.002213334897533059
      ],
      "type": "VEC2"
    },
    {
      "bufferView": 0,
      "byteOffset": 81840,
      "componentType": 5125,
      "count": 108,
      "type": "SCALAR"
    }
  ],
  "asset": {
    "extras": {
      "author": "sanekcloff (https://sketchfab.com/sanekcloff)",
      "license": "CC-BY-4.0 (http://creativecommons.org/licenses/by/4.0/)",
      "source": "https://sketchfab.com/3d-models/runic-sword-7b3be81471c0423ca3cef84edd1e1c23",
      "title": "Runic Sword"
    },
    "generator": "Sketchfab-16.59.0",
    "version": "2.0"
  },
  "bufferViews": [
    {
      "buffer": 0,
      "byteLength": 82272,
      "name": "floatBufferViews",
      "target": 34963
    },
    {
      "buffer": 0,
      "byteLength": 46096,
      "byteOffset": 82272,
      "byteStride": 8,
      "name": "floatBufferViews",
      "target": 34962
    },
    {
      "buffer": 0,
      "byteLength": 138288,
      "byteOffset": 128368,
      "byteStride": 12,
      "name": "floatBufferViews",
      "target": 34962
    },
    {
      "buffer": 0,
      "byteLength": 92192,
      "byteOffset": 266656,
      "byteStride": 16,
      "name": "floatBufferViews",
      "target": 34962
    }
  ],
  "buffers": [
    {
      "byteLength": 358848,
      "uri": "scene.bin"
    }
  ],
  "images": [
    {
      "uri": "textures/Scene_-_Root_baseColor.png"
    },
    {
      "uri": "textures/Scene_-_Root_metallicRoughness.png"
    },
    {
      "uri": "textures/Scene_-_Root_normal.png"
    }
  ],
  "materials": [
    {
      "doubleSided": true,
      "name": "Scene_-_Root",
      "normalTexture": {
        "index": 2
      },
      "pbrMetallicRoughness": {
        "baseColorTexture": {
          "index": 0
        },
        "metallicRoughnessTexture": {
          "index": 1
        }
      }
    }
  ],
  "meshes": [
    {
      "name": "Blade_Low__0",
      "primitives": [
        {
          "attributes": {
            "NORMAL": 1,
            "POSITION": 0,
            "TANGENT": 2,
            "TEXCOORD_0": 3
          },
          "indices": 4,
          "material": 0,
          "mode": 4
        }
      ]
    },
    {
      "name": "HandlePart1_Low__0",
      "primitives": [
        {
          "attributes": {
            "NORMAL": 6,
            "POSITION": 5,
            "TANGENT": 7,
            "TEXCOORD_0": 8
          },
          "indices": 9,
          "material": 0,
          "mode": 4
        }
      ]
    },
    {
      "name": "HandlePart2_Low__0",
      "primitives": [
        {
          "attributes": {
            "NORMAL": 11,
            "POSITION": 10,
            "TANGENT": 12,
            "TEXCOORD_0": 13
          },
          "indices": 14,
          "material": 0,
          "mode": 4
        }
      ]
    },
    {
      "name": "HandlePart3_Low__0",
      "primitives": [
        {
          "attributes": {
            "NORMAL": 16,
            "POSITION": 15,
            "TANGENT": 17,
            "TEXCOORD_0": 18
          },
          "indices": 19,
          "material": 0,
          "mode": 4
        }
      ]
    },
    {
      "name": "HandlePart4_Low__0",
      "primitives": [
        {
          "attributes": {
            "NORMAL": 21,
            "POSITION": 20,
            "TANGENT": 22,
            "TEXCOORD_0": 23
          },
          "indices": 24,
          "material": 0,
          "mode": 4
        }
      ]
    },
    {
      "name": "RopePart1_Low__0",
      "primitives": [
        {
          "attributes": {
            "NORMAL": 26,
            "POSITION": 25,
            "TANGENT": 27,
            "TEXCOORD_0": 28
          },
          "indices": 29,
          "material": 0,
          "mode": 4
        }
      ]
    },
    {
      "name": "RopePart2_Low__0",
      "primitives": [
        {
          "attributes": {
            "NORMAL": 31,
            "POSITION": 30,
            "TANGENT": 32,
            "TEXCOORD_0": 33
          },
          "indices": 34,
          "material": 0,
          "mode": 4
        }
      ]
    },
    {
      "name": "RopePart3_Low__0",
      "primitives": [
        {
          "attributes": {
            "NORMAL": 36,
            "POSITION": 35,
            "TANGENT": 37,
            "TEXCOORD_0": 38
          },
          "indices": 39,
          "material": 0,
          "mode": 4
        }
      ]
    },
    {
      "name": "SwordPart1_Low__0",
      "primitives": [
        {
          "attributes": {
            "NORMAL": 41,
            "POSITION": 40,
            "TANGENT": 42,
            "TEXCOORD_0": 43
          },
          "indices": 44,
          "material": 0,
          "mode": 4
        }
      ]
    }
  ],
  "nodes": [
    {
      "children": [
        1
      ],
      "matrix": [
        1.0,
        0.0,
        0.0,
        0.0,
        0.0,
        2.220446049250313e-16,
        -1.0,
        0.0,
        0.0,
        1.0,
        2.220446049250313e-16,
        0.0,
        0.0,
        0.0,
        0.0,
        1.0
      ],
      "name": "Sketchfab_model"
    },
    {
      "children": [
        2
      ],
      "matrix": [
        0.009999999776482582,
        0.0,
        0.0,
        0.0,
        0.0,
        0.0,
        0.009999999776482582,
        0.0,
        0.0,
        -0.009999999776482582,
        0.0,
        0.0,
        0.0,
        0.0,
        0.0,
        1.0
      ],
      "name": "789e35e396004e76a7b6fe919b134b73.fbx"
    },
    {
      "children": [
        3
      ],
      "name": "RootNode"
    },
    {
      "children": [
        4,
        6,
        8,
        10,
        12,
        14,
        16,
        18,
        20
      ],
      "matrix": [
        100.0,
        0.0,
        0.0,
        0.0,
        0.0,
        -1.629206793918314e-05,
        -99.99999999999868,
        0.0,
        0.0,
        99.99999999999868,
        -1.629206793918314e-05,
        0.0,
        0.0,
        0.0,
        0.0,
        1.0
      ],
      "name": "root"
    },
    {
      "children": [
        5
      ],
      "matrix": [
        1.0,
        0.0,
        0.0,
        0.0,
        0.0,
        1.0,
        -2.646977960169688e-23,
        0.0,
        0.0,
        2.646977960169688e-23,
        1.0,
        0.0,
        0.0,
        0.0,
        0.0,
        1.0
      ],
      "name": "Blade_Low"
    },
    {
      "mesh": 0,
      "name": "Blade_Low__0"
    },
    {
      "children": [
        7
      ],
      "matrix": [
        1.0,
        0.0,
        0.0,
        0.0,
        0.0,
        1.0,
        -2.646977960169688e-23,
        0.0,
        0.0,
        2.646977960169688e-23,
        1.0,
        0.0,
        1.1288758816618838e-09,
        -1.1288758816618838e-10,
        3.9700732231140137,
        1.0
      ],
      "name": "HandlePart1_Low"
    },
    {
      "mesh": 1,
      "name": "HandlePart1_Low__0"
    },
    {
      "children": [
        9
      ],
      "matrix": [
        1.0,
        0.0,
        0.0,
        0.0,
        0.0,
        1.0,
        -2.646977960169688e-23,
        0.0,
        0.0,
        2.646977960169688e-23,
        1.0,
        0.0,
        0.0,
        -1.0587911840678754e-22,
        3.176377534866333,
        1.0
      ],
      "name": "HandlePart2_Low"
    },
    {
      "mesh": 2,
      "name": "HandlePart2_Low__0"
    },
    {
      "children": [
        11
      ],
      "matrix": [
        1.0,
        0.0,
        0.0,
        0.0,
        0.0,
        1.0,
        -2.646977960169688e-23,
        0.0,
        0.0,
        2.646977960169688e-23,
        1.0,
        0.0,
        -9.313225746154785e-10,
        -1.3969838619232178e-09,
        4.573044776916504,
        1.0
      ],
      "name": "HandlePart3_Low"
    },
    {
      "mesh": 3,
      "name": "HandlePart3_Low__0"
    },
    {
      "children": [
        13
      ],
      "matrix": [
        1.0,
        0.0,
        0.0,
        0.0,
        0.0,
        1.0,
        -2.646977960169688e-23,
        0.0,
        0.0,
        2.646977960169688e-23,
        1.0,
        0.0,
        -9.313225746154785e-10,
        -1.3969838619232178e-09,
        4.573044776916504,
        1.0
      ],
      "name": "HandlePart4_Low"
    },
    {
      "mesh": 4,
      "name": "HandlePart4_Low__0"
    },
    {
      "children": [
        15
      ],
      "matrix": [
        -0.9999999999999245,
        -3.8941437731121196e-07,
        -1.2621774483536194e-29,
        0.0,
        3.8941437731121196e-07,
        -0.9999999999999245,
        -2.6469779601696883e-23,
        0.0,
        -2.3140617423754273e-30,
        -2.646977960169979e-23,
        1.0,
        0.0,
        -2.991521030892841e-09,
        -1.1288758816618838e-10,
        3.910512924194336,
        1.0
      ],
      "name": "RopePart1_Low"
    },
    {
      "mesh": 5,
      "name": "RopePart1_Low__0"
    },
    {
      "children": [
        17
      ],
      "matrix": [
        -0.9999999999999245,
        -3.8941437731121196e-07,
        -1.2621774483536194e-29,
        0.0,
        3.8941437731121196e-07,
        -0.9999999999999245,
        -2.6469779601696883e-23,
        0.0,
        -2.3140617423754273e-30,
        -2.646977960169979e-23,
        1.0,
        0.0,
        1.1288758816618838e-09,
        -1.1288758816618838e-10,
        3.910512924194336,
        1.0
      ],
      "name": "RopePart2_Low"
    },
    {
      "mesh": 6,
      "name": "RopePart2_Low__0"
    },
    {
      "children": [
        19
      ],
      "matrix": [
        1.0,
        0.0,
        0.0,
        0.0,
        0.0,
        1.0,
        -2.646977960169688e-23,
        0.0,
        0.0,
        2.646977960169688e-23,
        1.0,
        0.0,
        1.1288758816618838e-09,
        -1.1288758816618838e-10,
        3.3603954315185547,
        1.0
      ],
      "name": "RopePart3_Low"
    },
    {
      "mesh": 7,
      "name": "RopePart3_Low__0"
    },
    {
      "children": [
        21
      ],
      "matrix": [
        1.0,
        0.0,
        0.0,
        0.0,
        0.0,
        1.0,
        -2.646977960169688e-23,
        0.0,
        0.0,
        2.646977960169688e-23,
        1.0,
        0.0,
        0.0,
        -1.0587911840678754e-22,
        3.176377534866333,
        1.0
      ],
      "name": "SwordPart1_Low"
    },
    {
      "mesh": 8,
      "name": "SwordPart1_Low__0"
    }
  ],
  "samplers": [
    {
      "magFilter": 9729,
      "minFilter": 9987,
      "wrapS": 10497,
      "wrapT": 10497
    }
  ],
  "scene": 0,
  "scenes": [
    {
      "name": "Sketchfab_Scene",
      "nodes": [
        0
      ]
    }
  ],
  "textures": [
    {
      "sampler": 0,
      "source": 0
    },
    {
      "sampler": 0,
      "source": 1
    },
    {
      "sampler": 0,
      "source": 2
    }
  ]
}
