{
  "accessors": [
    {
      "bufferView": 2,
      "componentType": 5126,
      "count": 12768,
      "max": [
        47.452789306640625,
        67.75175476074219,
        44.78363800048828
      ],
      "min": [
        -39.30876159667969,
        -99.4890365600586,
        -36.73363494873047
      ],
      "type": "VEC3"
    },
    {
      "bufferView": 2,
      "byteOffset": 153216,
      "componentType": 5126,
      "count": 12768,
      "max": [
        0.9994677305221558,
        0.9994944334030151,
        0.9997837543487549
      ],
      "min": [
        -0.9978491067886353,
        -0.9998648762702942,
        -0.9998452663421631
      ],
      "type": "VEC3"
    },
    {
      "bufferView": 1,
      "componentType": 5126,
      "count": 12768,
      "max": [
        0.9868159890174866,
        0.9946280121803284
      ],
      "min": [
        0.003590000094845891,
        0.004395008087158203
      ],
      "type": "VEC2"
    },
    {
      "bufferView": 0,
      "componentType": 5125,
      "count": 12768,
      "type": "SCALAR"
    },
    {
      "bufferView": 2,
      "byteOffset": 306432,
      "componentType": 5126,
      "count": 3648,
      "max": [
        10.841301918029785,
        33.199188232421875,
        15.699175834655762
      ],
      "min": [
        -10.76906681060791,
        -2.5282745361328125,
        -10.49953842163086
      ],
      "type": "VEC3"
    },
    {
      "bufferView": 2,
      "byteOffset": 350208,
      "componentType": 5126,
      "count": 3648,
      "max": [
        0.9988596439361572,
        0.9998140931129456,
        0.9991057515144348
      ],
      "min": [
        -0.9978746771812439,
        -0.9999710917472839,
        -0.9998725652694702
      ],
      "type": "VEC3"
    },
    {
      "bufferView": 1,
      "byteOffset": 102144,
      "componentType": 5126,
      "count": 3648,
      "max": [
        0.9972749948501587,
        0.9965050220489502
      ],
      "min": [
        0.0067529999651014805,
        0.0018270015716552734
      ],
      "type": "VEC2"
    },
    {
      "bufferView": 0,
      "byteOffset": 51072,
      "componentType": 5125,
      "count": 3648,
      "type": "SCALAR"
    },
    {
      "bufferView": 2,
      "byteOffset": 393984,
      "componentType": 5126,
      "count": 1718,
      "max": [
        20.253395080566406,
        5.680816650390625,
        58.6967658996582
      ],
      "min": [
        -20.47092056274414,
        -5.557952880859375,
        -134.63731384277344
      ],
      "type": "VEC3"
    },
    {
      "bufferView": 2,
      "byteOffset": 414600,
      "componentType": 5126,
      "count": 1718,
      "max": [
        1.0,
        1.0,
        1.0
      ],
      "min": [
        -1.0,
        -1.0,
        -1.0
      ],
      "type": "VEC3"
    },
    {
      "bufferView": 1,
      "byteOffset": 131328,
      "componentType": 5126,
      "count": 1718,
      "max": [
        0.9957879781723022,
        0.9878209829330444
      ],
      "min": [
        0.005293000023812056,
        0.009243011474609375
      ],
      "type": "VEC2"
    },
    {
      "bufferView": 0,
      "byteOffset": 65664,
      "componentType": 5125,
      "count": 1812,
      "type": "SCALAR"
    },
    {
      "bufferView": 2,
      "byteOffset": 435216,
      "componentType": 5126,
      "count": 296,
      "max": [
        28.374143600463867,
        11.599899291992188,
        27.332548141479492
      ],
      "min": [
        -26.393224716186523,
        -39.68165969848633,
        -6.631923675537109
      ],
      "type": "VEC3"
    },
    {
      "bufferView": 2,
      "byteOffset": 438768,
      "componentType": 5126,
      "count": 296,
      "max": [
        0.9738128185272217,
        0.9967167973518372,
        0.9972299933433533
      ],
      "min": [
        -0.9884047508239746,
        -0.9691764712333679,
        -0.9996131658554077
      ],
      "type": "VEC3"
    },
    {
      "bufferView": 1,
      "byteOffset": 145072,
      "componentType": 5126,
      "count": 296,
      "max": [
        0.9868429899215698,
        0.9911379814147949
      ],
      "min": [
        0.6543099880218506,
        0.6357309818267822
      ],
      "type": "VEC2"
    },
    {
      "bufferView": 0,
      "byteOffset": 72912,
      "componentType": 5125,
      "count": 1284,
      "type": "SCALAR"
    },
    {
      "bufferView": 2,
      "byteOffset": 442320,
      "componentType": 5126,
      "count": 1128,
      "max": [
        29.431604385375977,
        16.845230102539063,
        29.818918228149414
      ],
      "min": [
        -27.400421142578125,
        -28.140541076660156,
        -8.375370025634766
      ],
      "type": "VEC3"
    },
    {
      "bufferView": 2,
      "byteOffset": 455856,
      "componentType": 5126,
      "count": 1128,
      "max": [
        0.941663920879364,
        0.657924473285675,
        0.9506658911705017
      ],
      "min": [
        -0.9345637559890747,
        -0.16449236869812012,
        -0.9993004202842712
      ],
      "type": "VEC3"
    },
    {
      "bufferView": 1,
      "byteOffset": 147440,
      "componentType": 5126,
      "count": 1128,
      "max": [
        0.9855489730834961,
        0.6465420126914978
      ],
      "min": [
        0.43321898579597473,
        0.14650201797485352
      ],
      "type": "VEC2"
    },
    {
      "bufferView": 0,
      "byteOffset": 78048,
      "componentType": 5125,
      "count": 1128,
      "type": "SCALAR"
    },
    {
      "bufferView": 2,
      "byteOffset": 469392,
      "componentType": 5126,
      "count": 1404,
      "max": [
        5.369619369506836,
        10.367790222167969,
        6.390020847320557
      ],
      "min": [
        -6.469423294067383,
        -5.952953338623047,
        -5.786019802093506
      ],
      "type": "VEC3"
    },
    {
      "bufferView": 2,
      "byteOffset": 486240,
      "componentType": 5126,
      "count": 1404,
      "max": [
        0.997329831123352,
        0.9929894208908081,
        0.9960400462150574
      ],
      "min": [
        -0.9999954104423523,
        -0.9997153878211975,
        -0.9796076416969299
      ],
      "type": "VEC3"
    },
    {
      "bufferView": 1,
      "byteOffset": 156464,
      "componentType": 5126,
      "count": 1404,
      "max": [
        0.992900013923645,
        0.17070001363754272
      ],
      "min": [
        0.7447999715805054,
        0.006200015544891357
      ],
      "type": "VEC2"
    },
    {
      "bufferView": 0,
      "byteOffset": 82560,
      "componentType": 5125,
      "count": 1404,
      "type": "SCALAR"
    },
    {
      "bufferView": 2,
      "byteOffset": 503088,
      "componentType": 5126,
      "count": 475,
      "max": [
        5.397705078125,
        5.087995529174805,
        69.13153839111328
      ],
      "min": [
        -5.397796630859375,
        -5.087905406951904,
        -69.13153839111328
      ],
      "type": "VEC3"
    },
    {
      "bufferView": 2,
      "byteOffset": 508788,
      "componentType": 5126,
      "count": 475,
      "max": [
        1.0,
        1.0,
        1.0
      ],
      "min": [
        -1.0,
        -1.0,
        -1.0
      ],
      "type": "VEC3"
    },
    {
      "bufferView": 1,
      "byteOffset": 167696,
      "componentType": 5126,
      "count": 475,
      "max": [
        0.7563999891281128,
        0.9966999888420105
      ],
      "min": [
        0.0032999999821186066,
        0.0027000000700354576
      ],
      "type": "VEC2"
    },
    {
      "bufferView": 0,
      "byteOffset": 88176,
      "componentType": 5125,
      "count": 828,
      "type": "SCALAR"
    },
    {
      "bufferView": 2,
      "byteOffset": 514488,
      "componentType": 5126,
      "count": 1404,
      "max": [
        5.369619369506836,
        10.367790222167969,
        6.390020847320557
      ],
      "min": [
        -6.469423294067383,
        -5.952953338623047,
        -5.786019802093506
      ],
      "type": "VEC3"
    },
    {
      "bufferView": 2,
      "byteOffset": 531336,
      "componentType": 5126,
      "count": 1404,
      "max": [
        0.997329831123352,
        0.9929894208908081,
        0.9960400462150574
      ],
      "min": [
        -0.9999954104423523,
        -0.9997153878211975,
        -0.9796076416969299
      ],
      "type": "VEC3"
    },
    {
      "bufferView": 1,
      "byteOffset": 171496,
      "componentType": 5126,
      "count": 1404,
      "max": [
        0.992900013923645,
        0.17070001363754272
      ],
      "min": [
        0.7447999715805054,
        0.006200015544891357
      ],
      "type": "VEC2"
    },
    {
      "bufferView": 0,
      "byteOffset": 91488,
      "componentType": 5125,
      "count": 1404,
      "type": "SCALAR"
    }
  ],
  "asset": {
    "extras": {
      "author": "danielgobr481 (https://sketchfab.com/danielgobr481)",
      "license": "CC-BY-4.0 (http://creativecommons.org/licenses/by/4.0/)",
      "source": "https://sketchfab.com/3d-models/knight-d62d60d5e4304d2cb08b2b1678ae4215",
      "title": "Knight"
    },
    "generator": "Sketchfab-13.68.0",
    "version": "2.0"
  },
  "bufferViews": [
    {
      "buffer": 0,
      "byteLength": 97104,
      "name": "floatBufferViews",
      "target": 34963
    },
    {
      "buffer": 0,
      "byteLength": 182728,
      "byteOffset": 97104,
      "byteStride": 8,
      "name": "floatBufferViews",
      "target": 34962
    },
    {
      "buffer": 0,
      "byteLength": 548184,
      "byteOffset": 279832,
      "byteStride": 12,
      "name": "floatBufferViews",
      "target": 34962
    }
  ],
  "buffers": [
    {
      "byteLength": 828016,
      "uri": "scene.bin"
    }
  ],
  "images": [
    {
      "uri": "textures/Material.002_baseColor.jpeg"
    },
    {
      "uri": "textures/Material.002_metallicRoughness.png"
    },
    {
      "uri": "textures/Material.003_baseColor.jpeg"
    },
    {
      "uri": "textures/mat_2_baseColor.jpeg"
    },
    {
      "uri": "textures/Material.004_metallicRoughness.png"
    },
    {
      "uri": "textures/Material.001_baseColor.jpeg"
    }
  ],
  "materials": [
    {
      "doubleSided": true,
      "name": "Material.002",
      "pbrMetallicRoughness": {
        "baseColorTexture": {
          "index": 0
        },
        "metallicRoughnessTexture": {
          "index": 1
        }
      }
    },
    {
      "doubleSided": true,
      "name": "Material.003",
      "pbrMetallicRoughness": {
        "baseColorTexture": {
          "index": 2
        },
        "metallicRoughnessTexture": {
          "index": 1
        }
      }
    },
    {
      "doubleSided": true,
      "name": "mat_2",
      "pbrMetallicRoughness": {
        "baseColorTexture": {
          "index": 3
        },
        "metallicRoughnessTexture": {
          "index": 1
        }
      }
    },
    {
      "doubleSided": true,
      "name": "Material.004",
      "pbrMetallicRoughness": {
        "baseColorTexture": {
          "index": 0
        },
        "metallicFactor": 0.0,
        "metallicRoughnessTexture": {
          "index": 4
        }
      }
    },
    {
      "doubleSided": true,
      "name": "Material.001",
      "pbrMetallicRoughness": {
        "baseColorTexture": {
          "index": 5
        },
        "metallicRoughnessTexture": {
          "index": 1
        }
      }
    },
    {
      "doubleSided": true,
      "name": "Material.005",
      "pbrMetallicRoughness": {
        "baseColorTexture": {
          "index": 0
        },
        "metallicFactor": 0.0,
        "metallicRoughnessTexture": {
          "index": 4
        }
      }
    }
  ],
  "meshes": [
    {
      "name": "Armor_Material.002_0",
      "primitives": [
        {
          "attributes": {
            "NORMAL": 1,
            "POSITION": 0,
            "TEXCOORD_0": 2
          },
          "indices": 3,
          "material": 0,
          "mode": 4
        }
      ]
    },
    {
      "name": "Helmet_Material.003_0",
      "primitives": [
        {
          "attributes": {
            "NORMAL": 5,
            "POSITION": 4,
            "TEXCOORD_0": 6
          },
          "indices": 7,
          "material": 1,
          "mode": 4
        }
      ]
    },
    {
      "name": "Sword_mat_2_0",
      "primitives": [
        {
          "attributes": {
            "NORMAL": 9,
            "POSITION": 8,
            "TEXCOORD_0": 10
          },
          "indices": 11,
          "material": 2,
          "mode": 4
        }
      ]
    },
    {
      "name": "Pants_Material.002_0",
      "primitives": [
        {
          "attributes": {
            "NORMAL": 13,
            "POSITION": 12,
            "TEXCOORD_0": 14
          },
          "indices": 15,
          "material": 0,
          "mode": 4
        }
      ]
    },
    {
      "name": "Cloth_Material.002_0",
      "primitives": [
        {
          "attributes": {
            "NORMAL": 17,
            "POSITION": 16,
            "TEXCOORD_0": 18
          },
          "indices": 19,
          "material": 0,
          "mode": 4
        }
      ]
    },
    {
      "name": "L.hand_Material.004_0",
      "primitives": [
        {
          "attributes": {
            "NORMAL": 21,
            "POSITION": 20,
            "TEXCOORD_0": 22
          },
          "indices": 23,
          "material": 3,
          "mode": 4
        }
      ]
    },
    {
      "name": "Pillum_Material.001_0",
      "primitives": [
        {
          "attributes": {
            "NORMAL": 25,
            "POSITION": 24,
            "TEXCOORD_0": 26
          },
          "indices": 27,
          "material": 4,
          "mode": 4
        }
      ]
    },
    {
      "name": "R.hand_Material.005_0",
      "primitives": [
        {
          "attributes": {
            "NORMAL": 29,
            "POSITION": 28,
            "TEXCOORD_0": 30
          },
          "indices": 31,
          "material": 5,
          "mode": 4
        }
      ]
    }
  ],
  "nodes": [
    {
      "children": [
        1
      ],
      "matrix": [
        1.0,
        0.0,
        0.0,
        0.0,
        0.0,
        2.220446049250313e-16,
        -1.0,
        0.0,
        0.0,
        1.0,
        2.220446049250313e-16,
        0.0,
        0.0,
        0.0,
        0.0,
        1.0
      ],
      "name": "Sketchfab_model"
    },
    {
      "children": [
        2
      ],
      "matrix": [
        0.009999999776482582,
        0.0,
        0.0,
        0.0,
        0.0,
        0.0,
        0.009999999776482582,
        0.0,
        0.0,
        -0.009999999776482582,
        0.0,
        0.0,
        0.0,
        0.0,
        0.0,
        1.0
      ],
      "name": "43fef6fa3fde47b3b6efd992b4592007.fbx"
    },
    {
      "children": [
        3,
        5,
        7,
        9,
        11,
        13,
        15,
        17
      ],
      "name": "RootNode"
    },
    {
      "children": [
        4
      ],
      "matrix": [
        100.0,
        0.0,
        0.0,
        0.0,
        0.0,
        97.43699979651383,
        22.495100461551964,
        0.0,
        0.0,
        -22.495100461551964,
        97.43699979651383,
        0.0,
        0.0,
        0.0,
        0.0,
        1.0
      ],
      "name": "Armor"
    },
    {
      "mesh": 0,
      "name": "Armor_Material.002_0"
    },
    {
      "children": [
        6
      ],
      "matrix": [
        100.0,
        0.0,
        0.0,
        0.0,
        0.0,
        99.9999999999999,
        4.371138828673792e-06,
        0.0,
        0.0,
        -4.371138828673792e-06,
        99.9999999999999,
        0.0,
        0.0,
        5893.3740234375,
        -86.29493713378906,
        1.0
      ],
      "name": "Helmet"
    },
    {
      "mesh": 1,
      "name": "Helmet_Material.003_0"
    },
    {
      "children": [
        8
      ],
      "matrix": [
        16.31657346802362,
        5.45255218753482e-06,
        -98.65986737403695,
        0.0,
        -98.65986737400067,
        -8.502428174850252e-05,
        -16.316573468022323,
        0.0,
        -8.47745132981359e-05,
        99.9999999999637,
        -8.493568648404448e-06,
        0.0,
        4145.39208984375,
        3201.3095703125,
        1012.6815795898438,
        1.0
      ],
      "name": "Sword"
    },
    {
      "mesh": 2,
      "name": "Sword_mat_2_0"
    },
    {
      "children": [
        10
      ],
      "matrix": [
        100.0,
        0.0,
        0.0,
        0.0,
        0.0,
        97.43699979651383,
        22.495100461551964,
        0.0,
        0.0,
        -22.495100461551964,
        97.43699979651383,
        0.0,
        0.0,
        0.0,
        0.0,
        1.0
      ],
      "name": "Pants"
    },
    {
      "mesh": 3,
      "name": "Pants_Material.002_0"
    },
    {
      "children": [
        12
      ],
      "matrix": [
        100.0,
        0.0,
        0.0,
        0.0,
        0.0,
        97.43699979651383,
        22.495100461551964,
        0.0,
        0.0,
        -22.495100461551964,
        97.43699979651383,
        0.0,
        0.0,
        0.0,
        0.0,
        1.0
      ],
      "name": "Cloth"
    },
    {
      "mesh": 4,
      "name": "Cloth_Material.002_0"
    },
    {
      "children": [
        14
      ],
      "matrix": [
        -63.0254695829344,
        -76.85185785822594,
        -11.026359404209517,
        0.0,
        -0.6388057698795413,
        14.714949712381442,
        -98.90936347055549,
        0.0,
        77.63621851064916,
        -62.26766327001789,
        -9.765101747415217,
        0.0,
        3975.44482421875,
        3857.568359375,
        818.022705078125,
        1.0
      ],
      "name": "L.hand"
    },
    {
      "mesh": 5,
      "name": "L.hand_Material.004_0"
    },
    {
      "children": [
        16
      ],
      "matrix": [
        39.15121343403868,
        -4.118420285146406,
        -61.583333454798144,
        0.0,
        4.079402326682237,
        72.94124515259323,
        -2.2845329181196683,
        0.0,
        61.58593038760578,
        -2.213420057695198,
        39.30088813689563,
        0.0,
        -1966.13623046875,
        -857.7665405273438,
        2403.01953125,
        1.0
      ],
      "name": "Pillum"
    },
    {
      "mesh": 6,
      "name": "Pillum_Material.001_0"
    },
    {
      "children": [
        18
      ],
      "matrix": [
        -53.40073453632914,
        -14.866800016313691,
        -83.23064224343966,
        -0.0,
        36.079300208561335,
        85.02174634547205,
        -38.33518938034247,
        -0.0,
        -76.46336147097519,
        50.50030599551998,
        40.0383996548044,
        -0.0,
        -2792.40673828125,
        -710.8057861328125,
        1715.32421875,
        1.0
      ],
      "name": "R.hand"
    },
    {
      "mesh": 7,
      "name": "R.hand_Material.005_0"
    }
  ],
  "samplers": [
    {
      "magFilter": 9729,
      "minFilter": 9987,
      "wrapS": 10497,
      "wrapT": 10497
    }
  ],
  "scene": 0,
  "scenes": [
    {
      "name": "Sketchfab_Scene",
      "nodes": [
        0
      ]
    }
  ],
  "textures": [
    {
      "sampler": 0,
      "source": 0
    },
    {
      "sampler": 0,
      "source": 1
    },
    {
      "sampler": 0,
      "source": 2
    },
    {
      "sampler": 0,
      "source": 3
    },
    {
      "sampler": 0,
      "source": 4
    },
    {
      "sampler": 0,
      "source": 5
    }
  ]
}
