{
  "accessors": [
    {
      "bufferView": 3,
      "componentType": 5126,
      "count": 591,
      "max": [
        98.62505340576172,
        421.91070556640625,
        28.025480270385742
      ],
      "min": [
        -98.7967529296875,
        69.65030670166016,
        -35.19105529785156
      ],
      "type": "VEC3"
    },
    {
      "bufferView": 3,
      "byteOffset": 7092,
      "componentType": 5126,
      "count": 591,
      "max": [
        0.9985682964324951,
        0.9895199537277222,
        0.9987809062004089
      ],
      "min": [
        -0.9985684156417847,
        -0.9992551207542419,
        -0.9948402047157288
      ],
      "type": "VEC3"
    },
    {
      "bufferView": 2,
      "componentType": 5126,
      "count": 591,
      "max": [
        0.9710382223129272,
        0.9573776721954346
      ],
      "min": [
        -5.001191993869725e-08,
        -4.0099628506595764e-08
      ],
      "type": "VEC2"
    },
    {
      "bufferView": 1,
      "componentType": 5125,
      "count": 1572,
      "type": "SCALAR"
    },
    {
      "bufferView": 3,
      "byteOffset": 14184,
      "componentType": 5126,
      "count": 466,
      "max": [
        34.65975570678711,
        429.374267578125,
        29.96278953552246
      ],
      "min": [
        -34.64164352416992,
        341.1053771972656,
        -39.1890869140625
      ],
      "type": "VEC3"
    },
    {
      "bufferView": 3,
      "byteOffset": 19776,
      "componentType": 5126,
      "count": 466,
      "max": [
        0.9934794306755066,
        0.99272221326828,
        0.9994635581970215
      ],
      "min": [
        -0.9918550252914429,
        -0.9985214471817017,
        -0.999625563621521
      ],
      "type": "VEC3"
    },
    {
      "bufferView": 2,
      "byteOffset": 4728,
      "componentType": 5126,
      "count": 466,
      "max": [
        0.9185580611228943,
        0.9413020610809326
      ],
      "min": [
        -3.5209023252491534e-08,
        -2.569924362205711e-08
      ],
      "type": "VEC2"
    },
    {
      "bufferView": 1,
      "byteOffset": 6288,
      "componentType": 5125,
      "count": 1320,
      "type": "SCALAR"
    },
    {
      "bufferView": 3,
      "byteOffset": 25368,
      "componentType": 5126,
      "count": 248,
      "max": [
        17.79732322692871,
        406.7084655761719,
        29.11669921875
      ],
      "min": [
        -17.79732322692871,
        380.681884765625,
        10.227766990661621
      ],
      "type": "VEC3"
    },
    {
      "bufferView": 3,
      "byteOffset": 28344,
      "componentType": 5126,
      "count": 248,
      "max": [
        0.9602547883987427,
        0.9872798919677734,
        0.9521476626396179
      ],
      "min": [
        -0.9602392911911011,
        -0.9997519254684448,
        -0.9474598169326782
      ],
      "type": "VEC3"
    },
    {
      "bufferView": 2,
      "byteOffset": 8456,
      "componentType": 5126,
      "count": 248,
      "max": [
        0.9317000508308411,
        0.9469852447509766
      ],
      "min": [
        0.2332150936126709,
        0.6187135577201843
      ],
      "type": "VEC2"
    },
    {
      "bufferView": 1,
      "byteOffset": 11568,
      "componentType": 5125,
      "count": 648,
      "type": "SCALAR"
    },
    {
      "bufferView": 3,
      "byteOffset": 31320,
      "componentType": 5126,
      "count": 264,
      "max": [
        41.92685317993164,
        354.93951416015625,
        33.45769500732422
      ],
      "min": [
        -41.92685317993164,
        247.69503784179688,
        -37.341087341308594
      ],
      "type": "VEC3"
    },
    {
      "bufferView": 3,
      "byteOffset": 34488,
      "componentType": 5126,
      "count": 264,
      "max": [
        0.9976226687431335,
        0.999496340751648,
        0.9986236095428467
      ],
      "min": [
        -0.9976227879524231,
        -0.9995551109313965,
        -0.99875807762146
      ],
      "type": "VEC3"
    },
    {
      "bufferView": 2,
      "byteOffset": 10440,
      "componentType": 5126,
      "count": 264,
      "max": [
        0.9687631130218506,
        0.9385888576507568
      ],
      "min": [
        0.1305435448884964,
        -4.0099628506595764e-08
      ],
      "type": "VEC2"
    },
    {
      "bufferView": 1,
      "byteOffset": 14160,
      "componentType": 5125,
      "count": 624,
      "type": "SCALAR"
    },
    {
      "bufferView": 3,
      "byteOffset": 37656,
      "componentType": 5126,
      "count": 48,
      "max": [
        -28.756433486938477,
        352.7924499511719,
        7.862602233886719
      ],
      "min": [
        -49.768577575683594,
        317.68280029296875,
        -30.939939498901367
      ],
      "type": "VEC3"
    },
    {
      "bufferView": 3,
      "byteOffset": 38232,
      "componentType": 5126,
      "count": 48,
      "max": [
        0.9898934364318848,
        0.9602670669555664,
        0.9978995323181152
      ],
      "min": [
        -0.9610705375671387,
        -0.9618171453475952,
        -0.9966508746147156
      ],
      "type": "VEC3"
    },
    {
      "bufferView": 2,
      "byteOffset": 12552,
      "componentType": 5126,
      "count": 48,
      "max": [
        0.6919143795967102,
        0.7765887379646301
      ],
      "min": [
        0.27220627665519714,
        -4.0099628506595764e-08
      ],
      "type": "VEC2"
    },
    {
      "bufferView": 1,
      "byteOffset": 16656,
      "componentType": 5125,
      "count": 84,
      "type": "SCALAR"
    },
    {
      "bufferView": 3,
      "byteOffset": 38808,
      "componentType": 5126,
      "count": 48,
      "max": [
        48.42203140258789,
        353.4693603515625,
        7.800978660583496
      ],
      "min": [
        28.387117385864258,
        317.44696044921875,
        -31.363842010498047
      ],
      "type": "VEC3"
    },
    {
      "bufferView": 3,
      "byteOffset": 39384,
      "componentType": 5126,
      "count": 48,
      "max": [
        0.9540121555328369,
        0.9175680875778198,
        0.987407386302948
      ],
      "min": [
        -0.9986223578453064,
        -0.9195868968963623,
        -0.9855908155441284
      ],
      "type": "VEC3"
    },
    {
      "bufferView": 2,
      "byteOffset": 12936,
      "componentType": 5126,
      "count": 48,
      "max": [
        0.6572255492210388,
        0.6988438367843628
      ],
      "min": [
        -4.1023863417422035e-08,
        0.12805309891700745
      ],
      "type": "VEC2"
    },
    {
      "bufferView": 1,
      "byteOffset": 16992,
      "componentType": 5125,
      "count": 84,
      "type": "SCALAR"
    },
    {
      "bufferView": 3,
      "byteOffset": 39960,
      "componentType": 5126,
      "count": 140,
      "max": [
        39.691490173339844,
        272.7071228027344,
        30.232528686523438
      ],
      "min": [
        -39.691490173339844,
        219.83840942382813,
        -36.882442474365234
      ],
      "type": "VEC3"
    },
    {
      "bufferView": 3,
      "byteOffset": 41640,
      "componentType": 5126,
      "count": 140,
      "max": [
        0.9866785407066345,
        0.9786844849586487,
        0.9997355341911316
      ],
      "min": [
        -0.9866785407066345,
        -0.9997653365135193,
        -0.9997637867927551
      ],
      "type": "VEC3"
    },
    {
      "bufferView": 2,
      "byteOffset": 13320,
      "componentType": 5126,
      "count": 140,
      "max": [
        0.9710382223129272,
        0.30013102293014526
      ],
      "min": [
        0.17254522442817688,
        0.1055891290307045
      ],
      "type": "VEC2"
    },
    {
      "bufferView": 1,
      "byteOffset": 17328,
      "componentType": 5125,
      "count": 360,
      "type": "SCALAR"
    },
    {
      "bufferView": 3,
      "byteOffset": 43320,
      "componentType": 5126,
      "count": 212,
      "max": [
        84.77790069580078,
        89.43187713623047,
        31.487119674682617
      ],
      "min": [
        34.757102966308594,
        -1.1178429126739502,
        -36.564334869384766
      ],
      "type": "VEC3"
    },
    {
      "bufferView": 3,
      "byteOffset": 45864,
      "componentType": 5126,
      "count": 212,
      "max": [
        0.9968032240867615,
        0.9999871253967285,
        0.944582998752594
      ],
      "min": [
        -0.9962480664253235,
        -0.9999984502792358,
        -0.944561243057251
      ],
      "type": "VEC3"
    },
    {
      "bufferView": 2,
      "byteOffset": 14440,
      "componentType": 5126,
      "count": 212,
      "max": [
        0.9710382223129272,
        0.9730772972106934
      ],
      "min": [
        1.4105320467194815e-08,
        0.42011022567749023
      ],
      "type": "VEC2"
    },
    {
      "bufferView": 1,
      "byteOffset": 18768,
      "componentType": 5125,
      "count": 456,
      "type": "SCALAR"
    },
    {
      "bufferView": 3,
      "byteOffset": 48408,
      "componentType": 5126,
      "count": 208,
      "max": [
        -34.75636672973633,
        89.43182373046875,
        31.487747192382813
      ],
      "min": [
        -84.77863311767578,
        -1.1184697151184082,
        -36.56510543823242
      ],
      "type": "VEC3"
    },
    {
      "bufferView": 3,
      "byteOffset": 50904,
      "componentType": 5126,
      "count": 208,
      "max": [
        0.9962493181228638,
        0.9999871253967285,
        0.9445831775665283
      ],
      "min": [
        -0.9968026876449585,
        -0.9999984502792358,
        -0.9445614218711853
      ],
      "type": "VEC3"
    },
    {
      "bufferView": 2,
      "byteOffset": 16136,
      "componentType": 5126,
      "count": 208,
      "max": [
        0.8998942971229553,
        1.0
      ],
      "min": [
        0.13054358959197998,
        0.42005327343940735
      ],
      "type": "VEC2"
    },
    {
      "bufferView": 1,
      "byteOffset": 20592,
      "componentType": 5125,
      "count": 456,
      "type": "SCALAR"
    },
    {
      "bufferView": 3,
      "byteOffset": 53400,
      "componentType": 5126,
      "count": 450,
      "max": [
        141.25192260742188,
        279.50018310546875,
        23.18614387512207
      ],
      "min": [
        72.50801849365234,
        193.96665954589844,
        -20.68767738342285
      ],
      "type": "VEC3"
    },
    {
      "bufferView": 3,
      "byteOffset": 58800,
      "componentType": 5126,
      "count": 450,
      "max": [
        0.991730809211731,
        0.8718065023422241,
        0.9978302717208862
      ],
      "min": [
        -0.9910911321640015,
        -0.8923070430755615,
        -0.9959250092506409
      ],
      "type": "VEC3"
    },
    {
      "bufferView": 2,
      "byteOffset": 17800,
      "componentType": 5126,
      "count": 450,
      "max": [
        0.9489912986755371,
        0.9433470964431763
      ],
      "min": [
        -5.001191993869725e-08,
        0.30182909965515137
      ],
      "type": "VEC2"
    },
    {
      "bufferView": 1,
      "byteOffset": 22416,
      "componentType": 5125,
      "count": 1188,
      "type": "SCALAR"
    },
    {
      "bufferView": 3,
      "byteOffset": 64200,
      "componentType": 5126,
      "count": 412,
      "max": [
        -72.33045959472656,
        279.6353454589844,
        23.433218002319336
      ],
      "min": [
        -139.58090209960938,
        194.52053833007813,
        -20.921289443969727
      ],
      "type": "VEC3"
    },
    {
      "bufferView": 3,
      "byteOffset": 69144,
      "componentType": 5126,
      "count": 412,
      "max": [
        0.9641109704971313,
        0.9634428024291992,
        0.9789397716522217
      ],
      "min": [
        -0.9732025265693665,
        -0.9913946390151978,
        -0.9755957126617432
      ],
      "type": "VEC3"
    },
    {
      "bufferView": 2,
      "byteOffset": 21400,
      "componentType": 5126,
      "count": 412,
      "max": [
        0.9399666786193848,
        0.9519004225730896
      ],
      "min": [
        -2.118846254006712e-08,
        0.09552134573459625
      ],
      "type": "VEC2"
    },
    {
      "bufferView": 1,
      "byteOffset": 27168,
      "componentType": 5125,
      "count": 1044,
      "type": "SCALAR"
    },
    {
      "bufferView": 3,
      "byteOffset": 74088,
      "componentType": 5126,
      "count": 216,
      "max": [
        25.937938690185547,
        424.6329650878906,
        29.713964462280273
      ],
      "min": [
        -24.906843185424805,
        398.44464111328125,
        -32.83943557739258
      ],
      "type": "VEC3"
    },
    {
      "bufferView": 3,
      "byteOffset": 76680,
      "componentType": 5126,
      "count": 216,
      "max": [
        0.9977077841758728,
        0.9950730204582214,
        0.9961929321289063
      ],
      "min": [
        -0.9976780414581299,
        -0.9985328316688538,
        -0.996155858039856
      ],
      "type": "VEC3"
    },
    {
      "bufferView": 2,
      "byteOffset": 24696,
      "componentType": 5126,
      "count": 216,
      "max": [
        0.625,
        1.0
      ],
      "min": [
        0.375,
        0.0
      ],
      "type": "VEC2"
    },
    {
      "bufferView": 1,
      "byteOffset": 31344,
      "componentType": 5125,
      "count": 576,
      "type": "SCALAR"
    },
    {
      "bufferView": 3,
      "byteOffset": 79272,
      "componentType": 5126,
      "count": 70,
      "max": [
        -29.589664459228516,
        351.9436340332031,
        9.852850914001465
      ],
      "min": [
        -72.32475280761719,
        316.2725830078125,
        -32.22457504272461
      ],
      "type": "VEC3"
    },
    {
      "bufferView": 3,
      "byteOffset": 80112,
      "componentType": 5126,
      "count": 70,
      "max": [
        0.966755747795105,
        0.9853047132492065,
        0.9997923970222473
      ],
      "min": [
        -0.862001895904541,
        -0.9990916848182678,
        -0.9990378618240356
      ],
      "type": "VEC3"
    },
    {
      "bufferView": 2,
      "byteOffset": 26424,
      "componentType": 5126,
      "count": 70,
      "max": [
        0.7279661893844604,
        0.8085672855377197
      ],
      "min": [
        0.2571014165878296,
        0.00802614726126194
      ],
      "type": "VEC2"
    },
    {
      "bufferView": 1,
      "byteOffset": 33648,
      "componentType": 5125,
      "count": 144,
      "type": "SCALAR"
    },
    {
      "bufferView": 3,
      "byteOffset": 80952,
      "componentType": 5126,
      "count": 72,
      "max": [
        72.73888397216797,
        350.2801513671875,
        9.365833282470703
      ],
      "min": [
        29.34803009033203,
        316.7489318847656,
        -32.205963134765625
      ],
      "type": "VEC3"
    },
    {
      "bufferView": 3,
      "byteOffset": 81816,
      "componentType": 5126,
      "count": 72,
      "max": [
        0.8794856667518616,
        0.7126871347427368,
        0.9990008473396301
      ],
      "min": [
        -0.9075004458427429,
        -0.9944178462028503,
        -0.99897700548172
      ],
      "type": "VEC3"
    },
    {
      "bufferView": 2,
      "byteOffset": 26984,
      "componentType": 5126,
      "count": 72,
      "max": [
        0.612646222114563,
        0.6990470886230469
      ],
      "min": [
        -4.1023863417422035e-08,
        0.15387633442878723
      ],
      "type": "VEC2"
    },
    {
      "bufferView": 1,
      "byteOffset": 34224,
      "componentType": 5125,
      "count": 144,
      "type": "SCALAR"
    },
    {
      "bufferView": 3,
      "byteOffset": 82680,
      "componentType": 5126,
      "count": 160,
      "max": [
        48.27006530761719,
        233.6712646484375,
        31.628257751464844
      ],
      "min": [
        -48.27006530761719,
        185.32237243652344,
        -40.598751068115234
      ],
      "type": "VEC3"
    },
    {
      "bufferView": 3,
      "byteOffset": 84600,
      "componentType": 5126,
      "count": 160,
      "max": [
        0.956247091293335,
        0.9855992794036865,
        0.9933066964149475
      ],
      "min": [
        -0.9562472105026245,
        -0.9938429594039917,
        -0.9933211207389832
      ],
      "type": "VEC3"
    },
    {
      "bufferView": 2,
      "byteOffset": 27560,
      "componentType": 5126,
      "count": 160,
      "max": [
        0.971038281917572,
        0.30013102293014526
      ],
      "min": [
        0.17254522442817688,
        0.15051598846912384
      ],
      "type": "VEC2"
    },
    {
      "bufferView": 1,
      "byteOffset": 34800,
      "componentType": 5125,
      "count": 432,
      "type": "SCALAR"
    },
    {
      "bufferView": 5,
      "componentType": 5126,
      "count": 26,
      "max": [
        1.0,
        0.9450575709342957,
        0.8314103484153748,
        0.0,
        0.20420615375041962,
        1.0,
        0.9875243306159973,
        0.0,
        0.9998332262039185,
        0.9998879432678223,
        1.0,
        0.0,
        67.28268432617188,
        252.19647216796875,
        328.8135681152344,
        1.0
      ],
      "min": [
        -0.987576425075531,
        -0.9450576901435852,
        -0.831347644329071,
        0.0,
        -0.20435088872909546,
        -0.9790166020393372,
        -0.9449103474617004,
        0.0,
        -0.9998501539230347,
        -0.09538136422634125,
        -0.03614024072885513,
        0.0,
        -65.62220764160156,
        -375.62725830078125,
        0.0,
        1.0
      ],
      "type": "MAT4"
    },
    {
      "bufferView": 0,
      "componentType": 5123,
      "count": 591,
      "type": "VEC4"
    },
    {
      "bufferView": 4,
      "componentType": 5126,
      "count": 591,
      "max": [
        1.0,
        0.49640849232673645,
        0.23518364131450653,
        0.20641502737998962
      ],
      "min": [
        0.30701830983161926,
        0.0,
        0.0,
        0.0
      ],
      "type": "VEC4"
    },
    {
      "bufferView": 0,
      "byteOffset": 4728,
      "componentType": 5123,
      "count": 466,
      "type": "VEC4"
    },
    {
      "bufferView": 4,
      "byteOffset": 9456,
      "componentType": 5126,
      "count": 466,
      "max": [
        1.0,
        0.49300235509872437,
        0.2297239601612091,
        0.08995305746793747
      ],
      "min": [
        0.47209736704826355,
        0.0,
        0.0,
        0.0
      ],
      "type": "VEC4"
    },
    {
      "bufferView": 0,
      "byteOffset": 8456,
      "componentType": 5123,
      "count": 248,
      "type": "VEC4"
    },
    {
      "bufferView": 4,
      "byteOffset": 16912,
      "componentType": 5126,
      "count": 248,
      "max": [
        0.9829432964324951,
        0.30370721220970154,
        0.0,
        0.0
      ],
      "min": [
        0.6962928175926208,
        0.01705675758421421,
        0.0,
        0.0
      ],
      "type": "VEC4"
    },
    {
      "bufferView": 0,
      "byteOffset": 10440,
      "componentType": 5123,
      "count": 264,
      "type": "VEC4"
    },
    {
      "bufferView": 4,
      "byteOffset": 20880,
      "componentType": 5126,
      "count": 264,
      "max": [
        1.0,
        0.4992258548736572,
        0.23875100910663605,
        0.20490103960037231
      ],
      "min": [
        0.30902472138404846,
        0.0,
        0.0,
        0.0
      ],
      "type": "VEC4"
    },
    {
      "bufferView": 0,
      "byteOffset": 12552,
      "componentType": 5123,
      "count": 48,
      "type": "VEC4"
    },
    {
      "bufferView": 4,
      "byteOffset": 25104,
      "componentType": 5126,
      "count": 48,
      "max": [
        0.7844523191452026,
        0.4783725440502167,
        0.2426869422197342,
        0.1990940421819687
      ],
      "min": [
        0.30080631375312805,
        0.17336921393871307,
        0.0,
        0.0
      ],
      "type": "VEC4"
    },
    {
      "bufferView": 0,
      "byteOffset": 12936,
      "componentType": 5123,
      "count": 48,
      "type": "VEC4"
    },
    {
      "bufferView": 4,
      "byteOffset": 25872,
      "componentType": 5126,
      "count": 48,
      "max": [
        0.892529308795929,
        0.4755687713623047,
        0.20418459177017212,
        0.0749121755361557
      ],
      "min": [
        0.4798690974712372,
        0.10747064650058746,
        0.0,
        0.0
      ],
      "type": "VEC4"
    },
    {
      "bufferView": 0,
      "byteOffset": 13320,
      "componentType": 5123,
      "count": 140,
      "type": "VEC4"
    },
    {
      "bufferView": 4,
      "byteOffset": 26640,
      "componentType": 5126,
      "count": 140,
      "max": [
        1.0,
        0.44026434421539307,
        0.13241098821163177,
        0.0
      ],
      "min": [
        0.5389783978462219,
        0.0,
        0.0,
        0.0
      ],
      "type": "VEC4"
    },
    {
      "bufferView": 0,
      "byteOffset": 14440,
      "componentType": 5123,
      "count": 212,
      "type": "VEC4"
    },
    {
      "bufferView": 4,
      "byteOffset": 28880,
      "componentType": 5126,
      "count": 212,
      "max": [
        1.0,
        0.49940764904022217,
        0.08137714862823486,
        0.0
      ],
      "min": [
        0.4867802858352661,
        0.0,
        0.0,
        0.0
      ],
      "type": "VEC4"
    },
    {
      "bufferView": 0,
      "byteOffset": 16136,
      "componentType": 5123,
      "count": 208,
      "type": "VEC4"
    },
    {
      "bufferView": 4,
      "byteOffset": 32272,
      "componentType": 5126,
      "count": 208,
      "max": [
        1.0,
        0.4972967207431793,
        0.09413428604602814,
        0.0
      ],
      "min": [
        0.5027033090591431,
        0.0,
        0.0,
        0.0
      ],
      "type": "VEC4"
    },
    {
      "bufferView": 0,
      "byteOffset": 17800,
      "componentType": 5123,
      "count": 450,
      "type": "VEC4"
    },
    {
      "bufferView": 4,
      "byteOffset": 35600,
      "componentType": 5126,
      "count": 450,
      "max": [
        1.0,
        0.472595751285553,
        0.0,
        0.0
      ],
      "min": [
        0.527404248714447,
        0.0,
        0.0,
        0.0
      ],
      "type": "VEC4"
    },
    {
      "bufferView": 0,
      "byteOffset": 21400,
      "componentType": 5123,
      "count": 412,
      "type": "VEC4"
    },
    {
      "bufferView": 4,
      "byteOffset": 42800,
      "componentType": 5126,
      "count": 412,
      "max": [
        1.0,
        0.47604599595069885,
        0.0,
        0.0
      ],
      "min": [
        0.5239539742469788,
        0.0,
        0.0,
        0.0
      ],
      "type": "VEC4"
    },
    {
      "bufferView": 0,
      "byteOffset": 24696,
      "componentType": 5123,
      "count": 216,
      "type": "VEC4"
    },
    {
      "bufferView": 4,
      "byteOffset": 49392,
      "componentType": 5126,
      "count": 216,
      "max": [
        1.0,
        0.1003464087843895,
        0.0,
        0.0
      ],
      "min": [
        0.8996535539627075,
        0.0,
        0.0,
        0.0
      ],
      "type": "VEC4"
    },
    {
      "bufferView": 0,
      "byteOffset": 26424,
      "componentType": 5123,
      "count": 70,
      "type": "VEC4"
    },
    {
      "bufferView": 4,
      "byteOffset": 52848,
      "componentType": 5126,
      "count": 70,
      "max": [
        0.9827102422714233,
        0.4942934215068817,
        0.23368845880031586,
        0.21621385216712952
      ],
      "min": [
        0.2971455156803131,
        0.01689394935965538,
        0.0,
        0.0
      ],
      "type": "VEC4"
    },
    {
      "bufferView": 0,
      "byteOffset": 26984,
      "componentType": 5123,
      "count": 72,
      "type": "VEC4"
    },
    {
      "bufferView": 4,
      "byteOffset": 53968,
      "componentType": 5126,
      "count": 72,
      "max": [
        0.9723213911056519,
        0.32155942916870117,
        0.23867397010326385,
        0.13384567201137543
      ],
      "min": [
        0.4070790410041809,
        0.016759322956204414,
        0.010452338494360447,
        0.0
      ],
      "type": "VEC4"
    },
    {
      "bufferView": 0,
      "byteOffset": 27560,
      "componentType": 5123,
      "count": 160,
      "type": "VEC4"
    },
    {
      "bufferView": 4,
      "byteOffset": 55120,
      "componentType": 5126,
      "count": 160,
      "max": [
        1.0,
        0.48231378197669983,
        0.26827025413513184,
        0.0
      ],
      "min": [
        0.3963223695755005,
        0.0,
        0.0,
        0.0
      ],
      "type": "VEC4"
    },
    {
      "bufferView": 6,
      "componentType": 5126,
      "count": 403,
      "max": [
        7.066666603088379
      ],
      "min": [
        0.0
      ],
      "type": "SCALAR"
    },
    {
      "bufferView": 7,
      "componentType": 5126,
      "count": 403,
      "max": [
        2.842170943040401e-14,
        28.3289794921875,
        4.992458343505859
      ],
      "min": [
        -2.842170943040401e-14,
        28.3289794921875,
        4.992458343505859
      ],
      "type": "VEC3"
    },
    {
      "bufferView": 6,
      "byteOffset": 1612,
      "componentType": 5126,
      "count": 425,
      "max": [
        7.066666603088379
      ],
      "min": [
        0.0
      ],
      "type": "SCALAR"
    },
    {
      "bufferView": 8,
      "componentType": 5126,
      "count": 425,
      "max": [
        0.27004560828208923,
        0.204799085855484,
        0.23036520183086395,
        0.9997478127479553
      ],
      "min": [
        -0.13502442836761475,
        -0.15227065980434418,
        -0.1385122835636139,
        0.9420551657676697
      ],
      "type": "VEC4"
    },
    {
      "bufferView": 6,
      "byteOffset": 3312,
      "componentType": 5126,
      "count": 404,
      "max": [
        7.066666603088379
      ],
      "min": [
        0.0
      ],
      "type": "SCALAR"
    },
    {
      "bufferView": 7,
      "byteOffset": 4836,
      "componentType": 5126,
      "count": 404,
      "max": [
        2.842170943040401e-14,
        36.298892974853516,
        -1.312983840762172e-06
      ],
      "min": [
        -5.684341886080802e-14,
        36.298892974853516,
        -1.3129839544490096e-06
      ],
      "type": "VEC3"
    },
    {
      "bufferView": 6,
      "byteOffset": 4928,
      "componentType": 5126,
      "count": 425,
      "max": [
        7.066666603088379
      ],
      "min": [
        0.0
      ],
      "type": "SCALAR"
    },
    {
      "bufferView": 8,
      "byteOffset": 6800,
      "componentType": 5126,
      "count": 425,
      "max": [
        0.09776303917169571,
        0.051399655640125275,
        0.08689066022634506,
        0.9999067783355713
      ],
      "min": [
        -0.12110380083322525,
        -0.04268518090248108,
        -0.08598100394010544,
        0.9913651347160339
      ],
      "type": "VEC4"
    },
    {
      "bufferView": 6,
      "byteOffset": 6628,
      "componentType": 5126,
      "count": 422,
      "max": [
        7.066666603088379
      ],
      "min": [
        0.0
      ],
      "type": "SCALAR"
    },
    {
      "bufferView": 7,
      "byteOffset": 9684,
      "componentType": 5126,
      "count": 422,
      "max": [
        1.1368683772161603e-13,
        53.387550354003906,
        1.1368683772161603e-13
      ],
      "min": [
        -5.684341886080802e-14,
        53.387550354003906,
        -5.684341886080802e-14
      ],
      "type": "VEC3"
    },
    {
      "bufferView": 6,
      "byteOffset": 8316,
      "componentType": 5126,
      "count": 425,
      "max": [
        7.066666603088379
      ],
      "min": [
        0.0
      ],
      "type": "SCALAR"
    },
    {
      "bufferView": 8,
      "byteOffset": 13600,
      "componentType": 5126,
      "count": 425,
      "max": [
        2.369820606418216e-07,
        -0.0025438463781028986,
        0.732557475566864,
        0.9999930262565613
      ],
      "min": [
        -0.024166714400053024,
        -0.0037393381353467703,
        -2.2360157458933827e-07,
        0.6802712678909302
      ],
      "type": "VEC4"
    },
    {
      "bufferView": 6,
      "byteOffset": 10016,
      "componentType": 5126,
      "count": 457,
      "max": [
        7.066666603088379
      ],
      "min": [
        0.0
      ],
      "type": "SCALAR"
    },
    {
      "bufferView": 7,
      "byteOffset": 14748,
      "componentType": 5126,
      "count": 457,
      "max": [
        5.684341886080802e-14,
        30.682941436767578,
        1.7053025658242404e-13
      ],
      "min": [
        -2.842170943040401e-14,
        30.682941436767578,
        -5.684341886080802e-14
      ],
      "type": "VEC3"
    },
    {
      "bufferView": 6,
      "byteOffset": 11844,
      "componentType": 5126,
      "count": 463,
      "max": [
        7.066666603088379
      ],
      "min": [
        0.0
      ],
      "type": "SCALAR"
    },
    {
      "bufferView": 8,
      "byteOffset": 20400,
      "componentType": 5126,
      "count": 463,
      "max": [
        0.5968649387359619,
        0.6393439173698425,
        0.7201718091964722,
        0.863884449005127
      ],
      "min": [
        -0.3978548049926758,
        -0.08098573237657547,
        -0.12791119515895844,
        0.5747060775756836
      ],
      "type": "VEC4"
    },
    {
      "bufferView": 6,
      "byteOffset": 13696,
      "componentType": 5126,
      "count": 425,
      "max": [
        7.066666603088379
      ],
      "min": [
        0.0
      ],
      "type": "SCALAR"
    },
    {
      "bufferView": 8,
      "byteOffset": 27808,
      "componentType": 5126,
      "count": 425,
      "max": [
        0.5117414593696594,
        0.4909825921058655,
        0.6541738510131836,
        0.4914460778236389
      ],
      "min": [
        -0.5202233195304871,
        -0.5047983527183533,
        -0.511562168598175,
        -0.49187004566192627
      ],
      "type": "VEC4"
    },
    {
      "bufferView": 6,
      "byteOffset": 15396,
      "componentType": 5126,
      "count": 421,
      "max": [
        7.066666603088379
      ],
      "min": [
        0.0
      ],
      "type": "SCALAR"
    },
    {
      "bufferView": 7,
      "byteOffset": 20232,
      "componentType": 5126,
      "count": 421,
      "max": [
        1.1368683772161603e-13,
        53.38607406616211,
        5.684341886080802e-14
      ],
      "min": [
        -5.684341886080802e-14,
        53.38607406616211,
        -5.684341886080802e-14
      ],
      "type": "VEC3"
    },
    {
      "bufferView": 6,
      "byteOffset": 17080,
      "componentType": 5126,
      "count": 425,
      "max": [
        7.066666603088379
      ],
      "min": [
        0.0
      ],
      "type": "SCALAR"
    },
    {
      "bufferView": 8,
      "byteOffset": 34608,
      "componentType": 5126,
      "count": 425,
      "max": [
        4.891264211437374e-07,
        0.0036356954369693995,
        2.9516090194192657e-07,
        0.9999933838844299
      ],
      "min": [
        -0.02134842239320278,
        0.002215838059782982,
        -0.7925824522972107,
        0.6093869209289551
      ],
      "type": "VEC4"
    },
    {
      "bufferView": 6,
      "byteOffset": 18780,
      "componentType": 5126,
      "count": 419,
      "max": [
        7.066666603088379
      ],
      "min": [
        0.0
      ],
      "type": "SCALAR"
    },
    {
      "bufferView": 7,
      "byteOffset": 25284,
      "componentType": 5126,
      "count": 419,
      "max": [
        5.684341886080802e-14,
        30.682941436767578,
        1.1368683772161603e-13
      ],
      "min": [
        -4.263256414560601e-14,
        30.682941436767578,
        -1.1368683772161603e-13
      ],
      "type": "VEC3"
    },
    {
      "bufferView": 6,
      "byteOffset": 20456,
      "componentType": 5126,
      "count": 425,
      "max": [
        7.066666603088379
      ],
      "min": [
        0.0
      ],
      "type": "SCALAR"
    },
    {
      "bufferView": 8,
      "byteOffset": 41408,
      "componentType": 5126,
      "count": 425,
      "max": [
        0.6049222350120544,
        0.5388729572296143,
        0.1526954621076584,
        0.9462779760360718
      ],
      "min": [
        -0.42534950375556946,
        -0.60718834400177,
        -0.6438437104225159,
        0.61752849817276
      ],
      "type": "VEC4"
    },
    {
      "bufferView": 6,
      "byteOffset": 22156,
      "componentType": 5126,
      "count": 425,
      "max": [
        7.066666603088379
      ],
      "min": [
        0.0
      ],
      "type": "SCALAR"
    },
    {
      "bufferView": 8,
      "byteOffset": 48208,
      "componentType": 5126,
      "count": 425,
      "max": [
        0.5483059883117676,
        0.5085351467132568,
        0.6668189764022827,
        0.5312994718551636
      ],
      "min": [
        -0.4987322688102722,
        -0.5083314776420593,
        -0.5083485245704651,
        -0.4996480345726013
      ],
      "type": "VEC4"
    },
    {
      "bufferView": 6,
      "byteOffset": 23856,
      "componentType": 5126,
      "count": 422,
      "max": [
        7.066666603088379
      ],
      "min": [
        0.0
      ],
      "type": "SCALAR"
    },
    {
      "bufferView": 7,
      "byteOffset": 30312,
      "componentType": 5126,
      "count": 422,
      "max": [
        4.263256414560601e-14,
        32.26572799682617,
        2.842170943040401e-14
      ],
      "min": [
        -2.842170943040401e-14,
        32.26572799682617,
        -2.842170943040401e-14
      ],
      "type": "VEC3"
    },
    {
      "bufferView": 6,
      "byteOffset": 25544,
      "componentType": 5126,
      "count": 425,
      "max": [
        7.066666603088379
      ],
      "min": [
        0.0
      ],
      "type": "SCALAR"
    },
    {
      "bufferView": 8,
      "byteOffset": 55008,
      "componentType": 5126,
      "count": 425,
      "max": [
        0.094999298453331,
        0.06603045016527176,
        0.06636148691177368,
        0.9999104738235474
      ],
      "min": [
        -0.08491194248199463,
        -0.07374678552150726,
        -0.07737720757722855,
        0.9945195317268372
      ],
      "type": "VEC4"
    },
    {
      "bufferView": 6,
      "byteOffset": 27244,
      "componentType": 5126,
      "count": 422,
      "max": [
        7.066666603088379
      ],
      "min": [
        0.0
      ],
      "type": "SCALAR"
    },
    {
      "bufferView": 7,
      "byteOffset": 35376,
      "componentType": 5126,
      "count": 422,
      "max": [
        1.4210854715202004e-14,
        28.232467651367188,
        2.842170943040401e-14
      ],
      "min": [
        -2.842170943040401e-14,
        28.232467651367188,
        -2.842170943040401e-14
      ],
      "type": "VEC3"
    },
    {
      "bufferView": 6,
      "byteOffset": 28932,
      "componentType": 5126,
      "count": 425,
      "max": [
        7.066666603088379
      ],
      "min": [
        0.0
      ],
      "type": "SCALAR"
    },
    {
      "bufferView": 8,
      "byteOffset": 61808,
      "componentType": 5126,
      "count": 425,
      "max": [
        0.0951138287782669,
        0.0679325982928276,
        0.0652485266327858,
        0.999912440776825
      ],
      "min": [
        -0.08550550788640976,
        -0.07418785244226456,
        -0.07731343060731888,
        0.9945427775382996
      ],
      "type": "VEC4"
    },
    {
      "bufferView": 6,
      "byteOffset": 30632,
      "componentType": 5126,
      "count": 389,
      "max": [
        7.066666603088379
      ],
      "min": [
        0.0
      ],
      "type": "SCALAR"
    },
    {
      "bufferView": 7,
      "byteOffset": 40440,
      "componentType": 5126,
      "count": 389,
      "max": [
        1.4210854715202004e-14,
        24.195831298828125,
        -0.4080538749694824
      ],
      "min": [
        -1.4210854715202004e-14,
        24.195831298828125,
        -0.4080538749694824
      ],
      "type": "VEC3"
    },
    {
      "bufferView": 6,
      "byteOffset": 32188,
      "componentType": 5126,
      "count": 425,
      "max": [
        7.066666603088379
      ],
      "min": [
        0.0
      ],
      "type": "SCALAR"
    },
    {
      "bufferView": 8,
      "byteOffset": 68608,
      "componentType": 5126,
      "count": 425,
      "max": [
        0.041098129004240036,
        0.03710382431745529,
        0.03695274889469147,
        0.9999409317970276
      ],
      "min": [
        -0.05939824879169464,
        -0.04182065650820732,
        -0.06534575670957565,
        0.9972913265228271
      ],
      "type": "VEC4"
    },
    {
      "bufferView": 6,
      "byteOffset": 33888,
      "componentType": 5126,
      "count": 422,
      "max": [
        7.066666603088379
      ],
      "min": [
        0.0
      ],
      "type": "SCALAR"
    },
    {
      "bufferView": 7,
      "byteOffset": 45108,
      "componentType": 5126,
      "count": 422,
      "max": [
        2.842170943040401e-14,
        40.46026611328125,
        1.4210854715202004e-14
      ],
      "min": [
        0.0,
        40.46026611328125,
        -1.4210854715202004e-14
      ],
      "type": "VEC3"
    },
    {
      "bufferView": 6,
      "byteOffset": 35576,
      "componentType": 5126,
      "count": 425,
      "max": [
        7.066666603088379
      ],
      "min": [
        0.0
      ],
      "type": "SCALAR"
    },
    {
      "bufferView": 8,
      "byteOffset": 75408,
      "componentType": 5126,
      "count": 425,
      "max": [
        0.5250357389450073,
        -0.027150563895702362,
        0.047027215361595154,
        0.941328763961792
      ],
      "min": [
        0.33625710010528564,
        -0.03437132388353348,
        0.009700433351099491,
        0.8490844964981079
      ],
      "type": "VEC4"
    },
    {
      "bufferView": 6,
      "byteOffset": 37276,
      "componentType": 5126,
      "count": 423,
      "max": [
        7.066666603088379
      ],
      "min": [
        0.0
      ],
      "type": "SCALAR"
    },
    {
      "bufferView": 7,
      "byteOffset": 50172,
      "componentType": 5126,
      "count": 423,
      "max": [
        2.1316282072803006e-14,
        86.58212280273438,
        1.4210854715202004e-14
      ],
      "min": [
        -1.4210854715202004e-14,
        86.58212280273438,
        -1.4210854715202004e-14
      ],
      "type": "VEC3"
    },
    {
      "bufferView": 6,
      "byteOffset": 38968,
      "componentType": 5126,
      "count": 425,
      "max": [
        7.066666603088379
      ],
      "min": [
        0.0
      ],
      "type": "SCALAR"
    },
    {
      "bufferView": 8,
      "byteOffset": 82208,
      "componentType": 5126,
      "count": 425,
      "max": [
        0.6763768196105957,
        0.06845702230930328,
        0.1956750750541687,
        0.9343354105949402
      ],
      "min": [
        0.28883764147758484,
        -0.23668958246707916,
        -0.09547467529773712,
        0.6935058832168579
      ],
      "type": "VEC4"
    },
    {
      "bufferView": 6,
      "byteOffset": 40668,
      "componentType": 5126,
      "count": 424,
      "max": [
        7.066666603088379
      ],
      "min": [
        0.0
      ],
      "type": "SCALAR"
    },
    {
      "bufferView": 7,
      "byteOffset": 55248,
      "componentType": 5126,
      "count": 424,
      "max": [
        1.4210854715202004e-14,
        105.49309539794922,
        2.842170943040401e-14
      ],
      "min": [
        -1.4210854715202004e-14,
        105.49309539794922,
        -2.842170943040401e-14
      ],
      "type": "VEC3"
    },
    {
      "bufferView": 6,
      "byteOffset": 42364,
      "componentType": 5126,
      "count": 425,
      "max": [
        7.066666603088379
      ],
      "min": [
        0.0
      ],
      "type": "SCALAR"
    },
    {
      "bufferView": 8,
      "byteOffset": 89008,
      "componentType": 5126,
      "count": 425,
      "max": [
        -0.017299704253673553,
        0.10833851248025894,
        0.11756342649459839,
        0.9948320984840393
      ],
      "min": [
        -0.44215190410614014,
        -0.11397958546876907,
        -0.0660136491060257,
        0.8924197554588318
      ],
      "type": "VEC4"
    },
    {
      "bufferView": 6,
      "byteOffset": 44064,
      "componentType": 5126,
      "count": 425,
      "max": [
        7.066666603088379
      ],
      "min": [
        0.0
      ],
      "type": "SCALAR"
    },
    {
      "bufferView": 8,
      "byteOffset": 95808,
      "componentType": 5126,
      "count": 425,
      "max": [
        0.1882634460926056,
        0.448947936296463,
        0.9977201223373413,
        0.10864695906639099
      ],
      "min": [
        -0.052590806037187576,
        -0.16786916553974152,
        0.8917238116264343,
        -0.19155184924602509
      ],
      "type": "VEC4"
    },
    {
      "bufferView": 6,
      "byteOffset": 45764,
      "componentType": 5126,
      "count": 425,
      "max": [
        7.066666603088379
      ],
      "min": [
        0.0
      ],
      "type": "SCALAR"
    },
    {
      "bufferView": 7,
      "byteOffset": 60336,
      "componentType": 5126,
      "count": 425,
      "max": [
        2.1316282072803006e-14,
        40.45889663696289,
        1.0658141036401503e-14
      ],
      "min": [
        -1.4210854715202004e-14,
        40.45889663696289,
        -1.0658141036401503e-14
      ],
      "type": "VEC3"
    },
    {
      "bufferView": 6,
      "byteOffset": 47464,
      "componentType": 5126,
      "count": 425,
      "max": [
        7.066666603088379
      ],
      "min": [
        0.0
      ],
      "type": "SCALAR"
    },
    {
      "bufferView": 8,
      "byteOffset": 102608,
      "componentType": 5126,
      "count": 425,
      "max": [
        0.5610299706459045,
        0.03562142699956894,
        -0.009683676064014435,
        0.9413235783576965
      ],
      "min": [
        0.3362756371498108,
        0.027107402682304382,
        -0.054433319717645645,
        0.8252354264259338
      ],
      "type": "VEC4"
    },
    {
      "bufferView": 6,
      "byteOffset": 49164,
      "componentType": 5126,
      "count": 422,
      "max": [
        7.066666603088379
      ],
      "min": [
        0.0
      ],
      "type": "SCALAR"
    },
    {
      "bufferView": 7,
      "byteOffset": 65436,
      "componentType": 5126,
      "count": 422,
      "max": [
        0.0,
        86.58721923828125,
        2.1316282072803006e-14
      ],
      "min": [
        -3.552713678800501e-14,
        86.58721923828125,
        -2.1316282072803006e-14
      ],
      "type": "VEC3"
    },
    {
      "bufferView": 6,
      "byteOffset": 50852,
      "componentType": 5126,
      "count": 425,
      "max": [
        7.066666603088379
      ],
      "min": [
        0.0
      ],
      "type": "SCALAR"
    },
    {
      "bufferView": 8,
      "byteOffset": 109408,
      "componentType": 5126,
      "count": 425,
      "max": [
        0.6925230026245117,
        0.20714353024959564,
        0.06857459247112274,
        0.9511027336120605
      ],
      "min": [
        0.29792019724845886,
        -0.04733636975288391,
        -0.14587318897247314,
        0.6933627724647522
      ],
      "type": "VEC4"
    },
    {
      "bufferView": 6,
      "byteOffset": 52552,
      "componentType": 5126,
      "count": 423,
      "max": [
        7.066666603088379
      ],
      "min": [
        0.0
      ],
      "type": "SCALAR"
    },
    {
      "bufferView": 7,
      "byteOffset": 70500,
      "componentType": 5126,
      "count": 423,
      "max": [
        1.4210854715202004e-14,
        105.52967071533203,
        2.842170943040401e-14
      ],
      "min": [
        -1.4210854715202004e-14,
        105.52967071533203,
        -2.842170943040401e-14
      ],
      "type": "VEC3"
    },
    {
      "bufferView": 6,
      "byteOffset": 54244,
      "componentType": 5126,
      "count": 425,
      "max": [
        7.066666603088379
      ],
      "min": [
        0.0
      ],
      "type": "SCALAR"
    },
    {
      "bufferView": 8,
      "byteOffset": 116208,
      "componentType": 5126,
      "count": 425,
      "max": [
        -0.06448863446712494,
        0.10126009583473206,
        0.031263913959264755,
        0.9964967966079712
      ],
      "min": [
        -0.4813677966594696,
        -0.10875894129276276,
        -0.106745645403862,
        0.8742215037345886
      ],
      "type": "VEC4"
    },
    {
      "bufferView": 6,
      "byteOffset": 55944,
      "componentType": 5126,
      "count": 425,
      "max": [
        7.066666603088379
      ],
      "min": [
        0.0
      ],
      "type": "SCALAR"
    },
    {
      "bufferView": 8,
      "byteOffset": 123008,
      "componentType": 5126,
      "count": 425,
      "max": [
        0.10835322737693787,
        0.405177503824234,
        0.9997588992118835,
        0.14157474040985107
      ],
      "min": [
        -0.21035559475421906,
        -0.2514471113681793,
        0.9122827649116516,
        -0.09421426057815552
      ],
      "type": "VEC4"
    },
    {
      "bufferView": 6,
      "byteOffset": 57644,
      "componentType": 5126,
      "count": 425,
      "max": [
        7.066666603088379
      ],
      "min": [
        0.0
      ],
      "type": "SCALAR"
    },
    {
      "bufferView": 7,
      "byteOffset": 75576,
      "componentType": 5126,
      "count": 425,
      "max": [
        52.418521881103516,
        233.4376220703125,
        14.812746047973633
      ],
      "min": [
        -41.51747131347656,
        204.36737060546875,
        -12.924823760986328
      ],
      "type": "VEC3"
    },
    {
      "bufferView": 6,
      "byteOffset": 59344,
      "componentType": 5126,
      "count": 425,
      "max": [
        7.066666603088379
      ],
      "min": [
        0.0
      ],
      "type": "SCALAR"
    },
    {
      "bufferView": 8,
      "byteOffset": 129808,
      "componentType": 5126,
      "count": 425,
      "max": [
        0.22077922523021698,
        0.5487968921661377,
        0.20713907480239868,
        0.9974759817123413
      ],
      "min": [
        -0.18017002940177917,
        -0.5003233551979065,
        -0.18184056878089905,
        0.8335705995559692
      ],
      "type": "VEC4"
    }
  ],
  "animations": [
    {
      "channels": [
        {
          "sampler": 0,
          "target": {
            "node": 37,
            "path": "translation"
          }
        },
        {
          "sampler": 1,
          "target": {
            "node": 37,
            "path": "rotation"
          }
        },
        {
          "sampler": 2,
          "target": {
            "node": 36,
            "path": "translation"
          }
        },
        {
          "sampler": 3,
          "target": {
            "node": 36,
            "path": "rotation"
          }
        },
        {
          "sampler": 4,
          "target": {
            "node": 41,
            "path": "translation"
          }
        },
        {
          "sampler": 5,
          "target": {
            "node": 41,
            "path": "rotation"
          }
        },
        {
          "sampler": 6,
          "target": {
            "node": 40,
            "path": "translation"
          }
        },
        {
          "sampler": 7,
          "target": {
            "node": 40,
            "path": "rotation"
          }
        },
        {
          "sampler": 8,
          "target": {
            "node": 39,
            "path": "rotation"
          }
        },
        {
          "sampler": 9,
          "target": {
            "node": 45,
            "path": "translation"
          }
        },
        {
          "sampler": 10,
          "target": {
            "node": 45,
            "path": "rotation"
          }
        },
        {
          "sampler": 11,
          "target": {
            "node": 44,
            "path": "translation"
          }
        },
        {
          "sampler": 12,
          "target": {
            "node": 44,
            "path": "rotation"
          }
        },
        {
          "sampler": 13,
          "target": {
            "node": 43,
            "path": "rotation"
          }
        },
        {
          "sampler": 14,
          "target": {
            "node": 35,
            "path": "translation"
          }
        },
        {
          "sampler": 15,
          "target": {
            "node": 35,
            "path": "rotation"
          }
        },
        {
          "sampler": 16,
          "target": {
            "node": 34,
            "path": "translation"
          }
        },
        {
          "sampler": 17,
          "target": {
            "node": 34,
            "path": "rotation"
          }
        },
        {
          "sampler": 18,
          "target": {
            "node": 33,
            "path": "translation"
          }
        },
        {
          "sampler": 19,
          "target": {
            "node": 33,
            "path": "rotation"
          }
        },
        {
          "sampler": 20,
          "target": {
            "node": 50,
            "path": "translation"
          }
        },
        {
          "sampler": 21,
          "target": {
            "node": 50,
            "path": "rotation"
          }
        },
        {
          "sampler": 22,
          "target": {
            "node": 49,
            "path": "translation"
          }
        },
        {
          "sampler": 23,
          "target": {
            "node": 49,
            "path": "rotation"
          }
        },
        {
          "sampler": 24,
          "target": {
            "node": 48,
            "path": "translation"
          }
        },
        {
          "sampler": 25,
          "target": {
            "node": 48,
            "path": "rotation"
          }
        },
        {
          "sampler": 26,
          "target": {
            "node": 47,
            "path": "rotation"
          }
        },
        {
          "sampler": 27,
          "target": {
            "node": 55,
            "path": "translation"
          }
        },
        {
          "sampler": 28,
          "target": {
            "node": 55,
            "path": "rotation"
          }
        },
        {
          "sampler": 29,
          "target": {
            "node": 54,
            "path": "translation"
          }
        },
        {
          "sampler": 30,
          "target": {
            "node": 54,
            "path": "rotation"
          }
        },
        {
          "sampler": 31,
          "target": {
            "node": 53,
            "path": "translation"
          }
        },
        {
          "sampler": 32,
          "target": {
            "node": 53,
            "path": "rotation"
          }
        },
        {
          "sampler": 33,
          "target": {
            "node": 52,
            "path": "rotation"
          }
        },
        {
          "sampler": 34,
          "target": {
            "node": 32,
            "path": "translation"
          }
        },
        {
          "sampler": 35,
          "target": {
            "node": 32,
            "path": "rotation"
          }
        }
      ],
      "name": "mixamo.com",
      "samplers": [
        {
          "input": 91,
          "interpolation": "LINEAR",
          "output": 92
        },
        {
          "input": 93,
          "interpolation": "LINEAR",
          "output": 94
        },
        {
          "input": 95,
          "interpolation": "LINEAR",
          "output": 96
        },
        {
          "input": 97,
          "interpolation": "LINEAR",
          "output": 98
        },
        {
          "input": 99,
          "interpolation": "LINEAR",
          "output": 100
        },
        {
          "input": 101,
          "interpolation": "LINEAR",
          "output": 102
        },
        {
          "input": 103,
          "interpolation": "LINEAR",
          "output": 104
        },
        {
          "input": 105,
          "interpolation": "LINEAR",
          "output": 106
        },
        {
          "input": 107,
          "interpolation": "LINEAR",
          "output": 108
        },
        {
          "input": 109,
          "interpolation": "LINEAR",
          "output": 110
        },
        {
          "input": 111,
          "interpolation": "LINEAR",
          "output": 112
        },
        {
          "input": 113,
          "interpolation": "LINEAR",
          "output": 114
        },
        {
          "input": 115,
          "interpolation": "LINEAR",
          "output": 116
        },
        {
          "input": 117,
          "interpolation": "LINEAR",
          "output": 118
        },
        {
          "input": 119,
          "interpolation": "LINEAR",
          "output": 120
        },
        {
          "input": 121,
          "interpolation": "LINEAR",
          "output": 122
        },
        {
          "input": 123,
          "interpolation": "LINEAR",
          "output": 124
        },
        {
          "input": 125,
          "interpolation": "LINEAR",
          "output": 126
        },
        {
          "input": 127,
          "interpolation": "LINEAR",
          "output": 128
        },
        {
          "input": 129,
          "interpolation": "LINEAR",
          "output": 130
        },
        {
          "input": 131,
          "interpolation": "LINEAR",
          "output": 132
        },
        {
          "input": 133,
          "interpolation": "LINEAR",
          "output": 134
        },
        {
          "input": 135,
          "interpolation": "LINEAR",
          "output": 136
        },
        {
          "input": 137,
          "interpolation": "LINEAR",
          "output": 138
        },
        {
          "input": 139,
          "interpolation": "LINEAR",
          "output": 140
        },
        {
          "input": 141,
          "interpolation": "LINEAR",
          "output": 142
        },
        {
          "input": 143,
          "interpolation": "LINEAR",
          "output": 144
        },
        {
          "input": 145,
          "interpolation": "LINEAR",
          "output": 146
        },
        {
          "input": 147,
          "interpolation": "LINEAR",
          "output": 148
        },
        {
          "input": 149,
          "interpolation": "LINEAR",
          "output": 150
        },
        {
          "input": 151,
          "interpolation": "LINEAR",
          "output": 152
        },
        {
          "input": 153,
          "interpolation": "LINEAR",
          "output": 154
        },
        {
          "input": 155,
          "interpolation": "LINEAR",
          "output": 156
        },
        {
          "input": 157,
          "interpolation": "LINEAR",
          "output": 158
        },
        {
          "input": 159,
          "interpolation": "LINEAR",
          "output": 160
        },
        {
          "input": 161,
          "interpolation": "LINEAR",
          "output": 162
        }
      ]
    }
  ],
  "asset": {
    "extras": {
      "author": "giorgi.abashidze95 (https://sketchfab.com/giorgi.abashidze95)",
      "license": "CC-BY-4.0 (http://creativecommons.org/licenses/by/4.0/)",
      "source": "https://sketchfab.com/3d-models/low-poly-dark-knight-mixamo-rigged-7f59a7b0e952457c9102cd65fe485f09",
      "title": "Low Poly Dark Knight (Mixamo Rigged)"
    },
    "generator": "Sketchfab-15.61.0",
    "version": "2.0"
  },
  "bufferViews": [
    {
      "buffer": 0,
      "byteLength": 28840,
      "byteStride": 8,
      "name": "shortBufferViews",
      "target": 34962
    },
    {
      "buffer": 0,
      "byteLength": 36528,
      "byteOffset": 28840,
      "name": "floatBufferViews",
      "target": 34963
    },
    {
      "buffer": 0,
      "byteLength": 28840,
      "byteOffset": 65368,
      "byteStride": 8,
      "name": "floatBufferViews",
      "target": 34962
    },
    {
      "buffer": 0,
      "byteLength": 86520,
      "byteOffset": 94208,
      "byteStride": 12,
      "name": "floatBufferViews",
      "target": 34962
    },
    {
      "buffer": 0,
      "byteLength": 57680,
      "byteOffset": 180728,
      "byteStride": 16,
      "name": "floatBufferViews",
      "target": 34962
    },
    {
      "buffer": 0,
      "byteLength": 1664,
      "byteOffset": 238408,
      "name": "floatBufferViews"
    },
    {
      "buffer": 0,
      "byteLength": 61044,
      "byteOffset": 240072,
      "name": "floatBufferViews"
    },
    {
      "buffer": 0,
      "byteLength": 80676,
      "byteOffset": 301116,
      "byteStride": 12,
      "name": "floatBufferViews"
    },
    {
      "buffer": 0,
      "byteLength": 136608,
      "byteOffset": 381792,
      "byteStride": 16,
      "name": "floatBufferViews"
    }
  ],
  "buffers": [
    {
      "byteLength": 518400,
      "uri": "scene.bin"
    }
  ],
  "extensionsUsed": [
    "KHR_materials_specular"
  ],
  "materials": [
    {
      "doubleSided": true,
      "name": "hoodie",
      "pbrMetallicRoughness": {
        "baseColorFactor": [
          0.0327492,
          0.0327492,
          0.0327492,
          1.0
        ],
        "metallicFactor": 0.0
      }
    },
    {
      "doubleSided": true,
      "extensions": {
        "KHR_materials_specular": {
          "specularColorFactor": [
            1.0,
            1.0,
            1.0
          ],
          "specularFactor": 0.5165730028891516
        }
      },
      "name": "metal",
      "pbrMetallicRoughness": {
        "baseColorFactor": [
          0.179049,
          0.169637,
          0.165557,
          1.0
        ],
        "metallicFactor": 0.650668649656837,
        "roughnessFactor": 0.5870463605222416
      }
    },
    {
      "doubleSided": true,
      "name": "leather",
      "pbrMetallicRoughness": {
        "baseColorFactor": [
          0.0682746,
          0.0447275,
          0.0257333,
          1.0
        ],
        "metallicFactor": 0.0,
        "roughnessFactor": 0.9954990856591449
      }
    }
  ],
  "meshes": [
    {
      "name": "body_hoodie_0",
      "primitives": [
        {
          "attributes": {
            "JOINTS_0": 61,
            "NORMAL": 1,
            "POSITION": 0,
            "TEXCOORD_0": 2,
            "WEIGHTS_0": 62
          },
          "indices": 3,
          "material": 0,
          "mode": 4
        }
      ]
    },
    {
      "name": "hoodie_hoodie_0",
      "primitives": [
        {
          "attributes": {
            "JOINTS_0": 63,
            "NORMAL": 5,
            "POSITION": 4,
            "TEXCOORD_0": 6,
            "WEIGHTS_0": 64
          },
          "indices": 7,
          "material": 0,
          "mode": 4
        }
      ]
    },
    {
      "name": "mask_metal_0",
      "primitives": [
        {
          "attributes": {
            "JOINTS_0": 65,
            "NORMAL": 9,
            "POSITION": 8,
            "TEXCOORD_0": 10,
            "WEIGHTS_0": 66
          },
          "indices": 11,
          "material": 1,
          "mode": 4
        }
      ]
    },
    {
      "name": "armor1_metal_0",
      "primitives": [
        {
          "attributes": {
            "JOINTS_0": 67,
            "NORMAL": 13,
            "POSITION": 12,
            "TEXCOORD_0": 14,
            "WEIGHTS_0": 68
          },
          "indices": 15,
          "material": 1,
          "mode": 4
        }
      ]
    },
    {
      "name": "arm_leather2_leather_0",
      "primitives": [
        {
          "attributes": {
            "JOINTS_0": 69,
            "NORMAL": 17,
            "POSITION": 16,
            "TEXCOORD_0": 18,
            "WEIGHTS_0": 70
          },
          "indices": 19,
          "material": 2,
          "mode": 4
        }
      ]
    },
    {
      "name": "arm_leather2.001_leather_0",
      "primitives": [
        {
          "attributes": {
            "JOINTS_0": 71,
            "NORMAL": 21,
            "POSITION": 20,
            "TEXCOORD_0": 22,
            "WEIGHTS_0": 72
          },
          "indices": 23,
          "material": 2,
          "mode": 4
        }
      ]
    },
    {
      "name": "leather_armor_leather_0",
      "primitives": [
        {
          "attributes": {
            "JOINTS_0": 73,
            "NORMAL": 25,
            "POSITION": 24,
            "TEXCOORD_0": 26,
            "WEIGHTS_0": 74
          },
          "indices": 27,
          "material": 2,
          "mode": 4
        }
      ]
    },
    {
      "name": "boots_l_metal_0",
      "primitives": [
        {
          "attributes": {
            "JOINTS_0": 75,
            "NORMAL": 29,
            "POSITION": 28,
            "TEXCOORD_0": 30,
            "WEIGHTS_0": 76
          },
          "indices": 31,
          "material": 1,
          "mode": 4
        }
      ]
    },
    {
      "name": "boots_r_metal_0",
      "primitives": [
        {
          "attributes": {
            "JOINTS_0": 77,
            "NORMAL": 33,
            "POSITION": 32,
            "TEXCOORD_0": 34,
            "WEIGHTS_0": 78
          },
          "indices": 35,
          "material": 1,
          "mode": 4
        }
      ]
    },
    {
      "name": "glove_l_leather_0",
      "primitives": [
        {
          "attributes": {
            "JOINTS_0": 79,
            "NORMAL": 37,
            "POSITION": 36,
            "TEXCOORD_0": 38,
            "WEIGHTS_0": 80
          },
          "indices": 39,
          "material": 2,
          "mode": 4
        }
      ]
    },
    {
      "name": "glove_r_leather_0",
      "primitives": [
        {
          "attributes": {
            "JOINTS_0": 81,
            "NORMAL": 41,
            "POSITION": 40,
            "TEXCOORD_0": 42,
            "WEIGHTS_0": 82
          },
          "indices": 43,
          "material": 2,
          "mode": 4
        }
      ]
    },
    {
      "name": "crown_metal_0",
      "primitives": [
        {
          "attributes": {
            "JOINTS_0": 83,
            "NORMAL": 45,
            "POSITION": 44,
            "TEXCOORD_0": 46,
            "WEIGHTS_0": 84
          },
          "indices": 47,
          "material": 1,
          "mode": 4
        }
      ]
    },
    {
      "name": "arm_metal2_metal_0",
      "primitives": [
        {
          "attributes": {
            "JOINTS_0": 85,
            "NORMAL": 49,
            "POSITION": 48,
            "TEXCOORD_0": 50,
            "WEIGHTS_0": 86
          },
          "indices": 51,
          "material": 1,
          "mode": 4
        }
      ]
    },
    {
      "name": "arm_metal1_metal_0",
      "primitives": [
        {
          "attributes": {
            "JOINTS_0": 87,
            "NORMAL": 53,
            "POSITION": 52,
            "TEXCOORD_0": 54,
            "WEIGHTS_0": 88
          },
          "indices": 55,
          "material": 1,
          "mode": 4
        }
      ]
    },
    {
      "name": "bottom_hoodie_0",
      "primitives": [
        {
          "attributes": {
            "JOINTS_0": 89,
            "NORMAL": 57,
            "POSITION": 56,
            "TEXCOORD_0": 58,
            "WEIGHTS_0": 90
          },
          "indices": 59,
          "material": 0,
          "mode": 4
        }
      ]
    }
  ],
  "nodes": [
    {
      "children": [
        1
      ],
      "matrix": [
        1.0,
        0.0,
        0.0,
        0.0,
        0.0,
        2.220446049250313e-16,
        -1.0,
        0.0,
        0.0,
        1.0,
        2.220446049250313e-16,
        0.0,
        0.0,
        0.0,
        0.0,
        1.0
      ],
      "name": "Sketchfab_model"
    },
    {
      "children": [
        2
      ],
      "matrix": [
        0.009999999776482582,
        0.0,
        0.0,
        0.0,
        0.0,
        0.0,
        0.009999999776482582,
        0.0,
        0.0,
        -0.009999999776482582,
        0.0,
        0.0,
        0.0,
        0.0,
        0.0,
        1.0
      ],
      "name": "b9aa40d9b78347708929fad6e062d512.fbx"
    },
    {
      "children": [
        3
      ],
      "name": "Object_2"
    },
    {
      "children": [
        4
      ],
      "name": "RootNode"
    },
    {
      "children": [
        5,
        7,
        9,
        10,
        12,
        14,
        16,
        17,
        19,
        21,
        23,
        25,
        26,
        28,
        30,
        31,
        6,
        8,
        11,
        13,
        15,
        18,
        20,
        22,
        24,
        27,
        29,
        57,
        58,
        59,
        60,
        61,
        62,
        63,
        64,
        65,
        66,
        67,
        68,
        69,
        70,
        71
      ],
      "name": "Object_4"
    },
    {
      "children": [
        32
      ],
      "name": "_rootJoint"
    },
    {
      "matrix": [
        1.0,
        -1.30611398174004e-18,
        -2.6865195930912576e-22,
        0.0,
        1.3061139817400404e-18,
        1.0000000000000002,
        2.7755575615628914e-17,
        0.0,
        2.686519593090895e-22,
        -2.7755575615628907e-17,
        1.0,
        0.0,
        0.0,
        2.842170943040401e-14,
        3.552713678800501e-15,
        1.0
      ],
      "name": "Object_6"
    },
    {
      "mesh": 0,
      "name": "Object_7",
      "skin": 0
    },
    {
      "matrix": [
        1.0,
        0.0,
        0.0,
        0.0,
        0.0,
        0.9999999999999998,
        3.469446951953614e-18,
        0.0,
        0.0,
        -3.469446951953614e-18,
        0.9999999999999998,
        0.0,
        0.0,
        1.1368683772161603e-13,
        -3.552713678800501e-15,
        1.0
      ],
      "name": "Object_8"
    },
    {
      "mesh": 1,
      "name": "Object_9",
      "skin": 0
    },
    {
      "mesh": 2,
      "name": "Object_10",
      "skin": 0
    },
    {
      "matrix": [
        1.0,
        0.0,
        0.0,
        0.0,
        0.0,
        0.9999999999999998,
        3.469446951953614e-18,
        0.0,
        0.0,
        -3.469446951953614e-18,
        0.9999999999999998,
        0.0,
        0.0,
        1.1368683772161603e-13,
        -3.552713678800501e-15,
        1.0
      ],
      "name": "Object_11"
    },
    {
      "mesh": 3,
      "name": "Object_12",
      "skin": 0
    },
    {
      "matrix": [
        1.0,
        0.0,
        0.0,
        0.0,
        0.0,
        0.9999999999999998,
        3.469446951953614e-18,
        0.0,
        0.0,
        -3.469446951953614e-18,
        0.9999999999999998,
        0.0,
        0.0,
        1.1368683772161603e-13,
        -3.552713678800501e-15,
        1.0
      ],
      "name": "Object_13"
    },
    {
      "mesh": 4,
      "name": "Object_14",
      "skin": 0
    },
    {
      "matrix": [
        1.0,
        0.0,
        0.0,
        0.0,
        0.0,
        0.9999999999999998,
        3.469446951953614e-18,
        0.0,
        0.0,
        -3.469446951953614e-18,
        0.9999999999999998,
        0.0,
        0.0,
        1.1368683772161603e-13,
        -3.552713678800501e-15,
        1.0
      ],
      "name": "Object_15"
    },
    {
      "mesh": 5,
      "name": "Object_16",
      "skin": 0
    },
    {
      "mesh": 6,
      "name": "Object_17",
      "skin": 0
    },
    {
      "matrix": [
        1.0,
        -1.0191500421363742e-17,
        6.938893903907228e-18,
        0.0,
        1.0191500421363737e-17,
        0.9999999999999996,
        0.0,
        0.0,
        -6.938893903907227e-18,
        7.071774014546881e-35,
        0.9999999999999998,
        0.0,
        2.1316282072803006e-14,
        2.842170943040401e-14,
        0.0,
        1.0
      ],
      "name": "Object_18"
    },
    {
      "mesh": 7,
      "name": "Object_19",
      "skin": 0
    },
    {
      "matrix": [
        1.0000000000000002,
        -5.551115123125783e-17,
        -1.9515639104739084e-18,
        0.0,
        5.551115123125783e-17,
        1.0000000000000002,
        3.469446951953614e-18,
        0.0,
        1.9515639104739076e-18,
        -3.469446951953613e-18,
        0.9999999999999999,
        0.0,
        2.842170943040401e-14,
        -5.3290705182007514e-15,
        -1.7763568394002505e-15,
        1.0
      ],
      "name": "Object_20"
    },
    {
      "mesh": 8,
      "name": "Object_21",
      "skin": 0
    },
    {
      "matrix": [
        0.9999999999999999,
        5.551115123125783e-17,
        -1.734723475976807e-17,
        0.0,
        -5.551115123125783e-17,
        0.9999999999999999,
        2.7755575615628914e-17,
        0.0,
        1.7347234759768074e-17,
        -2.7755575615628914e-17,
        0.9999999999999999,
        0.0,
        -4.263256414560601e-14,
        0.0,
        -9.769962616701378e-15,
        1.0
      ],
      "name": "Object_22"
    },
    {
      "mesh": 9,
      "name": "Object_23",
      "skin": 0
    },
    {
      "matrix": [
        1.0,
        1.6653345369377348e-16,
        3.642919299551295e-17,
        0.0,
        -1.6653345369377348e-16,
        1.0,
        -1.734723475976807e-18,
        0.0,
        -3.642919299551297e-17,
        1.7347234759768017e-18,
        1.0000000000000004,
        0.0,
        1.4210854715202004e-14,
        -5.684341886080802e-14,
        1.2434497875801753e-14,
        1.0
      ],
      "name": "Object_24"
    },
    {
      "mesh": 10,
      "name": "Object_25",
      "skin": 0
    },
    {
      "mesh": 11,
      "name": "Object_26",
      "skin": 0
    },
    {
      "matrix": [
        1.0,
        0.0,
        0.0,
        0.0,
        0.0,
        1.0000000000000004,
        -3.469446951953614e-18,
        0.0,
        0.0,
        3.469446951953614e-18,
        1.0000000000000004,
        0.0,
        0.0,
        -1.1368683772161603e-13,
        3.552713678800501e-15,
        1.0
      ],
      "name": "Object_27"
    },
    {
      "mesh": 12,
      "name": "Object_28",
      "skin": 0
    },
    {
      "matrix": [
        1.0,
        0.0,
        0.0,
        0.0,
        0.0,
        1.0000000000000004,
        -3.469446951953614e-18,
        0.0,
        0.0,
        3.469446951953614e-18,
        1.0000000000000004,
        0.0,
        0.0,
        -1.1368683772161603e-13,
        3.552713678800501e-15,
        1.0
      ],
      "name": "Object_29"
    },
    {
      "mesh": 13,
      "name": "Object_30",
      "skin": 0
    },
    {
      "mesh": 14,
      "name": "Object_31",
      "skin": 0
    },
    {
      "children": [
        33,
        47,
        52
      ],
      "name": "mixamorig:Hips_01",
      "translation": [
        0.83551025390625,
        226.31912231445313,
        -7.238078594207764
      ]
    },
    {
      "children": [
        34
      ],
      "name": "mixamorig:Spine_02",
      "rotation": [
        -0.008431421592831612,
        -0.0,
        0.0,
        0.9999644756317139
      ],
      "translation": [
        0.0,
        24.195831298828125,
        -0.4080538749694824
      ]
    },
    {
      "children": [
        35
      ],
      "name": "mixamorig:Spine1_03",
      "rotation": [
        2.097470641615473e-08,
        0.0,
        0.0,
        1.0
      ],
      "translation": [
        0.0,
        28.232467651367188,
        -8.881784197001252e-16
      ]
    },
    {
      "children": [
        36,
        39,
        43
      ],
      "name": "mixamorig:Spine2_04",
      "rotation": [
        1.734723475976807e-18,
        0.0,
        0.0,
        1.0
      ],
      "translation": [
        0.0,
        32.26572799682617,
        0.0
      ]
    },
    {
      "children": [
        37
      ],
      "name": "mixamorig:Neck_05",
      "rotation": [
        0.00843140110373497,
        0.0,
        0.0,
        0.9999644756317139
      ],
      "translation": [
        0.0,
        36.298892974853516,
        -1.3129839544490096e-06
      ]
    },
    {
      "children": [
        38
      ],
      "name": "mixamorig:Head_06",
      "translation": [
        0.0,
        28.3289794921875,
        4.992458343505859
      ]
    },
    {
      "name": "mixamorig:HeadTop_End_07",
      "translation": [
        0.0,
        53.31915283203125,
        9.396514892578125
      ]
    },
    {
      "children": [
        40
      ],
      "name": "mixamorig:LeftShoulder_08",
      "rotation": [
        -0.5747296810150146,
        -0.4111291170120239,
        0.5771697759628296,
        -0.4093087911605835
      ],
      "translation": [
        14.744479179382324,
        31.426355361938477,
        -0.06048410385847092
      ]
    },
    {
      "children": [
        41
      ],
      "name": "mixamorig:LeftArm_09",
      "rotation": [
        0.318708211183548,
        0.02916908450424671,
        -0.009813053533434868,
        0.9473531246185303
      ],
      "translation": [
        -1.7763568394002505e-15,
        30.682941436767578,
        5.684341886080802e-14
      ]
    },
    {
      "children": [
        42
      ],
      "name": "mixamorig:LeftForeArm_010",
      "rotation": [
        -0.04044385254383087,
        -0.003720460692420602,
        0.09152840077877045,
        0.99497389793396
      ],
      "translation": [
        -3.552713678800501e-15,
        53.387550354003906,
        2.842170943040401e-14
      ]
    },
    {
      "name": "mixamorig:LeftHand_011",
      "rotation": [
        1.0776969594505914e-16,
        -2.2551405187698492e-17,
        2.430358080212096e-33,
        1.0
      ],
      "translation": [
        3.552713678800501e-15,
        73.03657531738281,
        8.526512829121202e-14
      ]
    },
    {
      "children": [
        44
      ],
      "name": "mixamorig:RightShoulder_012",
      "rotation": [
        0.5738615989685059,
        -0.4117598533630371,
        0.5780121684074402,
        0.40870365500450134
      ],
      "translation": [
        -14.744479179382324,
        31.427087783813477,
        -0.10385390371084213
      ]
    },
    {
      "children": [
        45
      ],
      "name": "mixamorig:RightArm_013",
      "rotation": [
        0.3186569809913635,
        -0.02699493058025837,
        0.009079312905669212,
        0.9474421143531799
      ],
      "translation": [
        0.0,
        30.682941436767578,
        0.0
      ]
    },
    {
      "children": [
        46
      ],
      "name": "mixamorig:RightForeArm_014",
      "rotation": [
        -0.039859406650066376,
        0.003617907641455531,
        -0.09032268822193146,
        0.9951080083847046
      ],
      "translation": [
        -3.552713678800501e-15,
        53.38607406616211,
        -2.842170943040401e-14
      ]
    },
    {
      "name": "mixamorig:RightHand_015",
      "rotation": [
        1.1622647289044608e-16,
        6.938893903907228e-18,
        -1.3877787807814457e-17,
        1.0
      ],
      "translation": [
        -7.105427357601002e-15,
        73.015380859375,
        0.0
      ]
    },
    {
      "children": [
        48
      ],
      "name": "mixamorig:LeftUpLeg_016",
      "rotation": [
        -0.004839362110942602,
        -0.04665287584066391,
        0.9935683608055115,
        -0.10306411236524582
      ],
      "translation": [
        23.543758392333984,
        -13.4404296875,
        3.1060357093811035
      ]
    },
    {
      "children": [
        49
      ],
      "name": "mixamorig:LeftLeg_017",
      "rotation": [
        0.031226105988025665,
        -5.1316637836862355e-05,
        -0.001642585382796824,
        0.9995110034942627
      ],
      "translation": [
        -1.4210854715202004e-14,
        105.49309539794922,
        -3.552713678800501e-15
      ]
    },
    {
      "children": [
        50
      ],
      "name": "mixamorig:LeftFoot_018",
      "rotation": [
        0.43631866574287415,
        0.012089797295629978,
        -0.00586312310770154,
        0.8996918797492981
      ],
      "translation": [
        1.4210854715202004e-14,
        86.58212280273438,
        0.0
      ]
    },
    {
      "children": [
        51
      ],
      "name": "mixamorig:LeftToeBase_019",
      "rotation": [
        0.3362599313259125,
        -0.027155663818120956,
        0.009700513444840908,
        0.9413276314735413
      ],
      "translation": [
        2.842170943040401e-14,
        40.46026611328125,
        7.105427357601002e-15
      ]
    },
    {
      "name": "mixamorig:LeftToe_End_020",
      "rotation": [
        -4.0766001685454967e-17,
        1.1616548651824377e-16,
        2.6020852139652106e-18,
        1.0
      ],
      "translation": [
        -1.4210854715202004e-14,
        16.23149299621582,
        -3.552713678800501e-15
      ]
    },
    {
      "children": [
        53
      ],
      "name": "mixamorig:RightUpLeg_021",
      "rotation": [
        0.0050318120047450066,
        -0.048525333404541016,
        0.9934824109077454,
        0.10301870852708817
      ],
      "translation": [
        -23.543758392333984,
        -13.4404296875,
        3.535560131072998
      ]
    },
    {
      "children": [
        54
      ],
      "name": "mixamorig:RightLeg_022",
      "rotation": [
        0.032162200659513474,
        5.1532919314922765e-05,
        0.001601451076567173,
        0.9994813799858093
      ],
      "translation": [
        0.0,
        105.52967071533203,
        3.552713678800501e-15
      ]
    },
    {
      "children": [
        55
      ],
      "name": "mixamorig:RightFoot_00",
      "rotation": [
        0.4371422231197357,
        -0.011713598854839802,
        0.005693894810974598,
        0.8992980718612671
      ],
      "translation": [
        -1.4210854715202004e-14,
        86.58721923828125,
        -3.552713678800501e-15
      ]
    },
    {
      "children": [
        56
      ],
      "name": "mixamorig:RightToeBase_023",
      "rotation": [
        0.3362756669521332,
        0.027107467874884605,
        -0.009683792479336262,
        0.9413235783576965
      ],
      "translation": [
        0.0,
        40.45889663696289,
        3.552713678800501e-15
      ]
    },
    {
      "name": "mixamorig:RightToe_End_024",
      "rotation": [
        2.3418766925686896e-17,
        2.8262440131265887e-16,
        3.469446951953614e-18,
        1.0
      ],
      "translation": [
        1.4210854715202004e-14,
        16.236196517944336,
        1.7763568394002505e-15
      ]
    },
    {
      "name": "body"
    },
    {
      "name": "hoodie"
    },
    {
      "name": "mask"
    },
    {
      "name": "armor1"
    },
    {
      "name": "arm_leather2"
    },
    {
      "name": "arm_leather2.001"
    },
    {
      "name": "leather_armor"
    },
    {
      "name": "boots_l"
    },
    {
      "name": "boots_r"
    },
    {
      "name": "glove_l"
    },
    {
      "name": "glove_r"
    },
    {
      "name": "crown"
    },
    {
      "name": "arm_metal2"
    },
    {
      "name": "arm_metal1"
    },
    {
      "name": "bottom"
    }
  ],
  "scene": 0,
  "scenes": [
    {
      "name": "Sketchfab_Scene",
      "nodes": [
        0
      ]
    }
  ],
  "skins": [
    {
      "inverseBindMatrices": 60,
      "joints": [
        5,
        32,
        33,
        34,
        35,
        36,
        37,
        38,
        39,
        40,
        41,
        42,
        43,
        44,
        45,
        46,
        47,
        48,
        49,
        50,
        51,
        52,
        53,
        54,
        55,
        56
      ],
      "skeleton": 5
    }
  ]
}
