{
  "accessors": [
    {
      "bufferView": 2,
      "componentType": 5126,
      "count": 4415,
      "max": [
        83.42009735107422,
        31.744600296020508,
        207.50830078125
      ],
      "min": [
        -31.88640022277832,
        -48.05739974975586,
        70.1323013305664
      ],
      "type": "VEC3"
    },
    {
      "bufferView": 2,
      "byteOffset": 52980,
      "componentType": 5126,
      "count": 4415,
      "max": [
        1.0,
        1.0,
        1.0
      ],
      "min": [
        -1.0,
        -1.0,
        -1.0
      ],
      "type": "VEC3"
    },
    {
      "bufferView": 3,
      "componentType": 5126,
      "count": 4415,
      "max": [
        1.0,
        1.0,
        1.0,
        1.0
      ],
      "min": [
        -1.0,
        -1.0,
        -1.0,
        -1.0
      ],
      "type": "VEC4"
    },
    {
      "bufferView": 1,
      "componentType": 5126,
      "count": 4415,
      "max": [
        0.888700008392334,
        0.9976999759674072
      ],
      "min": [
        0.0008999999845400453,
        0.19529999792575836
      ],
      "type": "VEC2"
    },
    {
      "bufferView": 0,
      "componentType": 5125,
      "count": 9999,
      "type": "SCALAR"
    },
    {
      "bufferView": 2,
      "byteOffset": 105960,
      "componentType": 5126,
      "count": 3756,
      "max": [
        75.59339904785156,
        40.13059997558594,
        246.31790161132813
      ],
      "min": [
        -23.92650032043457,
        -112.40019989013672,
        78.89209747314453
      ],
      "type": "VEC3"
    },
    {
      "bufferView": 2,
      "byteOffset": 151032,
      "componentType": 5126,
      "count": 3756,
      "max": [
        1.0,
        1.0,
        1.0
      ],
      "min": [
        -1.0,
        -1.0,
        -1.0
      ],
      "type": "VEC3"
    },
    {
      "bufferView": 3,
      "byteOffset": 70640,
      "componentType": 5126,
      "count": 3756,
      "max": [
        1.0,
        1.0,
        1.0,
        1.0
      ],
      "min": [
        -1.0,
        -1.0,
        -1.0,
        -1.0
      ],
      "type": "VEC4"
    },
    {
      "bufferView": 1,
      "byteOffset": 35320,
      "componentType": 5126,
      "count": 3756,
      "max": [
        0.9976000189781189,
        0.9968000054359436
      ],
      "min": [
        0.0010999999940395355,
        0.193900004029274
      ],
      "type": "VEC2"
    },
    {
      "bufferView": 0,
      "byteOffset": 39996,
      "componentType": 5125,
      "count": 9999,
      "type": "SCALAR"
    },
    {
      "bufferView": 2,
      "byteOffset": 196104,
      "componentType": 5126,
      "count": 4528,
      "max": [
        82.79879760742188,
        63.9463005065918,
        141.56869506835938
      ],
      "min": [
        -94.22460174560547,
        -63.9463005065918,
        0.0012000000569969416
      ],
      "type": "VEC3"
    },
    {
      "bufferView": 2,
      "byteOffset": 250440,
      "componentType": 5126,
      "count": 4528,
      "max": [
        1.0,
        1.0,
        1.0
      ],
      "min": [
        -1.0,
        -1.0,
        -1.0
      ],
      "type": "VEC3"
    },
    {
      "bufferView": 3,
      "byteOffset": 130736,
      "componentType": 5126,
      "count": 4528,
      "max": [
        1.0,
        1.0,
        1.0,
        1.0
      ],
      "min": [
        -1.0,
        -1.0,
        -1.0,
        -1.0
      ],
      "type": "VEC4"
    },
    {
      "bufferView": 1,
      "byteOffset": 65368,
      "componentType": 5126,
      "count": 4528,
      "max": [
        0.9990000128746033,
        0.845300018787384
      ],
      "min": [
        0.00279999990016222,
        0.002400000113993883
      ],
      "type": "VEC2"
    },
    {
      "bufferView": 0,
      "byteOffset": 79992,
      "componentType": 5125,
      "count": 9993,
      "type": "SCALAR"
    },
    {
      "bufferView": 2,
      "byteOffset": 304776,
      "componentType": 5126,
      "count": 4148,
      "max": [
        72.6594009399414,
        48.940399169921875,
        139.28359985351563
      ],
      "min": [
        -86.30269622802734,
        -50.00680160522461,
        66.2061996459961
      ],
      "type": "VEC3"
    },
    {
      "bufferView": 2,
      "byteOffset": 354552,
      "componentType": 5126,
      "count": 4148,
      "max": [
        1.0,
        1.0,
        1.0
      ],
      "min": [
        -1.0,
        -1.0,
        -1.0
      ],
      "type": "VEC3"
    },
    {
      "bufferView": 3,
      "byteOffset": 203184,
      "componentType": 5126,
      "count": 4148,
      "max": [
        1.0,
        1.0,
        1.0,
        1.0
      ],
      "min": [
        -1.0,
        -1.0,
        -1.0,
        -1.0
      ],
      "type": "VEC4"
    },
    {
      "bufferView": 1,
      "byteOffset": 101592,
      "componentType": 5126,
      "count": 4148,
      "max": [
        0.8295999765396118,
        0.8555999994277954
      ],
      "min": [
        0.0203000009059906,
        0.053700000047683716
      ],
      "type": "VEC2"
    },
    {
      "bufferView": 0,
      "byteOffset": 119964,
      "componentType": 5125,
      "count": 9744,
      "type": "SCALAR"
    }
  ],
  "asset": {
    "extras": {
      "author": "Muhamad Mirza Arrafi (https://sketchfab.com/nazidefenseforceofficial)",
      "license": "CC-BY-4.0 (http://creativecommons.org/licenses/by/4.0/)",
      "source": "https://sketchfab.com/3d-models/centurion-c-ram-10ea7349c7574ca7a43991eece92c9a9",
      "title": "Centurion C-RAM"
    },
    "generator": "Sketchfab-16.64.0",
    "version": "2.0"
  },
  "bufferViews": [
    {
      "buffer": 0,
      "byteLength": 158940,
      "name": "floatBufferViews",
      "target": 34963
    },
    {
      "buffer": 0,
      "byteLength": 134776,
      "byteOffset": 158940,
      "byteStride": 8,
      "name": "floatBufferViews",
      "target": 34962
    },
    {
      "buffer": 0,
      "byteLength": 404328,
      "byteOffset": 293716,
      "byteStride": 12,
      "name": "floatBufferViews",
      "target": 34962
    },
    {
      "buffer": 0,
      "byteLength": 269552,
      "byteOffset": 698044,
      "byteStride": 16,
      "name": "floatBufferViews",
      "target": 34962
    }
  ],
  "buffers": [
    {
      "byteLength": 967596,
      "uri": "scene.bin"
    }
  ],
  "extensionsUsed": [
    "KHR_materials_specular"
  ],
  "images": [
    {
      "uri": "textures/Material__46_baseColor.png"
    },
    {
      "uri": "textures/Material__46_normal.png"
    }
  ],
  "materials": [
    {
      "doubleSided": true,
      "extensions": {
        "KHR_materials_specular": {
          "specularColorFactor": [
            1.0,
            1.0,
            1.0
          ],
          "specularFactor": 1.0
        }
      },
      "name": "Material__46",
      "normalTexture": {
        "index": 1
      },
      "pbrMetallicRoughness": {
        "baseColorTexture": {
          "index": 0
        },
        "metallicFactor": 0.0,
        "roughnessFactor": 0.30000000000000004
      }
    }
  ],
  "meshes": [
    {
      "name": "Object_0",
      "primitives": [
        {
          "attributes": {
            "NORMAL": 1,
            "POSITION": 0,
            "TANGENT": 2,
            "TEXCOORD_0": 3
          },
          "indices": 4,
          "material": 0,
          "mode": 4
        }
      ]
    },
    {
      "name": "Object_1",
      "primitives": [
        {
          "attributes": {
            "NORMAL": 6,
            "POSITION": 5,
            "TANGENT": 7,
            "TEXCOORD_0": 8
          },
          "indices": 9,
          "material": 0,
          "mode": 4
        }
      ]
    },
    {
      "name": "Object_2",
      "primitives": [
        {
          "attributes": {
            "NORMAL": 11,
            "POSITION": 10,
            "TANGENT": 12,
            "TEXCOORD_0": 13
          },
          "indices": 14,
          "material": 0,
          "mode": 4
        }
      ]
    },
    {
      "name": "Object_3",
      "primitives": [
        {
          "attributes": {
            "NORMAL": 16,
            "POSITION": 15,
            "TANGENT": 17,
            "TEXCOORD_0": 18
          },
          "indices": 19,
          "material": 0,
          "mode": 4
        }
      ]
    }
  ],
  "nodes": [
    {
      "children": [
        1
      ],
      "matrix": [
        1.0,
        0.0,
        0.0,
        0.0,
        0.0,
        2.220446049250313e-16,
        -1.0,
        0.0,
        0.0,
        1.0,
        2.220446049250313e-16,
        0.0,
        0.0,
        0.0,
        0.0,
        1.0
      ],
      "name": "Sketchfab_model"
    },
    {
      "children": [
        2,
        3,
        4,
        5
      ],
      "name": "Centurion C-RAM.obj.cleaner.materialmerger.gles"
    },
    {
      "mesh": 0,
      "name": "Object_2"
    },
    {
      "mesh": 1,
      "name": "Object_3"
    },
    {
      "mesh": 2,
      "name": "Object_4"
    },
    {
      "mesh": 3,
      "name": "Object_5"
    }
  ],
  "samplers": [
    {
      "magFilter": 9729,
      "minFilter": 9987,
      "wrapS": 10497,
      "wrapT": 10497
    }
  ],
  "scene": 0,
  "scenes": [
    {
      "name": "Sketchfab_Scene",
      "nodes": [
        0
      ]
    }
  ],
  "textures": [
    {
      "sampler": 0,
      "source": 0
    },
    {
      "sampler": 0,
      "source": 1
    }
  ]
}
