{
  "accessors": [
    {
      "bufferView": 2,
      "componentType": 5126,
      "count": 965,
      "max": [
        0.9382966160774231,
        0.4784563183784485,
        0.9465566873550415
      ],
      "min": [
        -0.9382966160774231,
        -0.9617831707000732,
        -0.9424798488616943
      ],
      "type": "VEC3"
    },
    {
      "bufferView": 2,
      "byteOffset": 11580,
      "componentType": 5126,
      "count": 965,
      "max": [
        0.9897472858428955,
        0.9654809832572937,
        0.9998579621315002
      ],
      "min": [
        -0.9897469282150269,
        -1.0,
        -0.9997443556785583
      ],
      "type": "VEC3"
    },
    {
      "bufferView": 3,
      "componentType": 5126,
      "count": 965,
      "max": [
        0.9903990626335144,
        0.999912440776825,
        0.9968302249908447,
        1.0
      ],
      "min": [
        -0.9491216540336609,
        -0.999961256980896,
        -0.9965918064117432,
        1.0
      ],
      "type": "VEC4"
    },
    {
      "bufferView": 1,
      "componentType": 5126,
      "count": 965,
      "max": [
        0.99267578125,
        0.9714252352714539
      ],
      "min": [
        0.00732421875,
        0.05742017552256584
      ],
      "type": "VEC2"
    },
    {
      "bufferView": 1,
      "byteOffset": 7720,
      "componentType": 5126,
      "count": 965,
      "max": [
        0.99267578125,
        0.9714252352714539
      ],
      "min": [
        0.00732421875,
        0.05742017552256584
      ],
      "type": "VEC2"
    },
    {
      "bufferView": 1,
      "byteOffset": 15440,
      "componentType": 5126,
      "count": 965,
      "max": [
        0.99267578125,
        0.9714252352714539
      ],
      "min": [
        0.00732421875,
        0.05742017552256584
      ],
      "type": "VEC2"
    },
    {
      "bufferView": 1,
      "byteOffset": 23160,
      "componentType": 5126,
      "count": 965,
      "max": [
        0.99267578125,
        0.9714252352714539
      ],
      "min": [
        0.00732421875,
        0.05742017552256584
      ],
      "type": "VEC2"
    },
    {
      "bufferView": 1,
      "byteOffset": 30880,
      "componentType": 5126,
      "count": 965,
      "max": [
        0.99267578125,
        0.9714252352714539
      ],
      "min": [
        0.00732421875,
        0.05742017552256584
      ],
      "type": "VEC2"
    },
    {
      "bufferView": 1,
      "byteOffset": 38600,
      "componentType": 5126,
      "count": 965,
      "max": [
        0.99267578125,
        0.9714252352714539
      ],
      "min": [
        0.00732421875,
        0.05742017552256584
      ],
      "type": "VEC2"
    },
    {
      "bufferView": 1,
      "byteOffset": 46320,
      "componentType": 5126,
      "count": 965,
      "max": [
        0.99267578125,
        0.9714252352714539
      ],
      "min": [
        0.00732421875,
        0.05742017552256584
      ],
      "type": "VEC2"
    },
    {
      "bufferView": 1,
      "byteOffset": 54040,
      "componentType": 5126,
      "count": 965,
      "max": [
        0.99267578125,
        0.9714252352714539
      ],
      "min": [
        0.00732421875,
        0.05742017552256584
      ],
      "type": "VEC2"
    },
    {
      "bufferView": 1,
      "byteOffset": 61760,
      "componentType": 5126,
      "count": 965,
      "max": [
        0.99267578125,
        0.9714252352714539
      ],
      "min": [
        0.00732421875,
        0.05742017552256584
      ],
      "type": "VEC2"
    },
    {
      "bufferView": 1,
      "byteOffset": 69480,
      "componentType": 5126,
      "count": 965,
      "max": [
        0.99267578125,
        0.9714252352714539
      ],
      "min": [
        0.00732421875,
        0.05742017552256584
      ],
      "type": "VEC2"
    },
    {
      "bufferView": 0,
      "componentType": 5125,
      "count": 4242,
      "type": "SCALAR"
    },
    {
      "bufferView": 2,
      "byteOffset": 23160,
      "componentType": 5126,
      "count": 76,
      "max": [
        0.6616405248641968,
        0.8722187280654907,
        0.6588384509086609
      ],
      "min": [
        -0.6616406440734863,
        0.4775482416152954,
        -0.6203510165214539
      ],
      "type": "VEC3"
    },
    {
      "bufferView": 2,
      "byteOffset": 24072,
      "componentType": 5126,
      "count": 76,
      "max": [
        0.9644190669059753,
        1.0,
        0.980205774307251
      ],
      "min": [
        -0.9644190669059753,
        -1.0,
        -0.6933522820472717
      ],
      "type": "VEC3"
    },
    {
      "bufferView": 3,
      "byteOffset": 15440,
      "componentType": 5126,
      "count": 76,
      "max": [
        1.0,
        0.9702264070510864,
        0.9999322295188904,
        1.0
      ],
      "min": [
        -1.0,
        -0.015377029776573181,
        -1.0,
        1.0
      ],
      "type": "VEC4"
    },
    {
      "bufferView": 1,
      "byteOffset": 77200,
      "componentType": 5126,
      "count": 76,
      "max": [
        0.9591008424758911,
        0.9345313310623169
      ],
      "min": [
        0.00732421875,
        0.05742017552256584
      ],
      "type": "VEC2"
    },
    {
      "bufferView": 1,
      "byteOffset": 77808,
      "componentType": 5126,
      "count": 76,
      "max": [
        0.9591008424758911,
        0.9345313310623169
      ],
      "min": [
        0.00732421875,
        0.05742017552256584
      ],
      "type": "VEC2"
    },
    {
      "bufferView": 1,
      "byteOffset": 78416,
      "componentType": 5126,
      "count": 76,
      "max": [
        0.9591008424758911,
        0.9345313310623169
      ],
      "min": [
        0.00732421875,
        0.05742017552256584
      ],
      "type": "VEC2"
    },
    {
      "bufferView": 1,
      "byteOffset": 79024,
      "componentType": 5126,
      "count": 76,
      "max": [
        0.9591008424758911,
        0.9345313310623169
      ],
      "min": [
        0.00732421875,
        0.05742017552256584
      ],
      "type": "VEC2"
    },
    {
      "bufferView": 1,
      "byteOffset": 79632,
      "componentType": 5126,
      "count": 76,
      "max": [
        0.9591008424758911,
        0.9345313310623169
      ],
      "min": [
        0.00732421875,
        0.05742017552256584
      ],
      "type": "VEC2"
    },
    {
      "bufferView": 1,
      "byteOffset": 80240,
      "componentType": 5126,
      "count": 76,
      "max": [
        0.9591008424758911,
        0.9345313310623169
      ],
      "min": [
        0.00732421875,
        0.05742017552256584
      ],
      "type": "VEC2"
    },
    {
      "bufferView": 1,
      "byteOffset": 80848,
      "componentType": 5126,
      "count": 76,
      "max": [
        0.9591008424758911,
        0.9345313310623169
      ],
      "min": [
        0.00732421875,
        0.05742017552256584
      ],
      "type": "VEC2"
    },
    {
      "bufferView": 1,
      "byteOffset": 81456,
      "componentType": 5126,
      "count": 76,
      "max": [
        0.9591008424758911,
        0.9345313310623169
      ],
      "min": [
        0.00732421875,
        0.05742017552256584
      ],
      "type": "VEC2"
    },
    {
      "bufferView": 1,
      "byteOffset": 82064,
      "componentType": 5126,
      "count": 76,
      "max": [
        0.9591008424758911,
        0.9345313310623169
      ],
      "min": [
        0.00732421875,
        0.05742017552256584
      ],
      "type": "VEC2"
    },
    {
      "bufferView": 1,
      "byteOffset": 82672,
      "componentType": 5126,
      "count": 76,
      "max": [
        0.9591008424758911,
        0.9345313310623169
      ],
      "min": [
        0.00732421875,
        0.05742017552256584
      ],
      "type": "VEC2"
    },
    {
      "bufferView": 0,
      "byteOffset": 16968,
      "componentType": 5125,
      "count": 126,
      "type": "SCALAR"
    },
    {
      "bufferView": 2,
      "byteOffset": 24984,
      "componentType": 5126,
      "count": 20,
      "max": [
        0.32871347665786743,
        0.7830932140350342,
        -0.5586364269256592
      ],
      "min": [
        -0.32871347665786743,
        0.4775482416152954,
        -0.7168383598327637
      ],
      "type": "VEC3"
    },
    {
      "bufferView": 2,
      "byteOffset": 25224,
      "componentType": 5126,
      "count": 20,
      "max": [
        0.9055971503257751,
        0.9228128790855408,
        -4.933650643579313e-07
      ],
      "min": [
        -0.9055970907211304,
        -1.0,
        -0.9812045693397522
      ],
      "type": "VEC3"
    },
    {
      "bufferView": 3,
      "byteOffset": 16656,
      "componentType": 5126,
      "count": 20,
      "max": [
        0.14717775583267212,
        -4.933650075145124e-07,
        1.0,
        1.0
      ],
      "min": [
        -0.14841996133327484,
        -0.981204628944397,
        -0.9228129982948303,
        1.0
      ],
      "type": "VEC4"
    },
    {
      "bufferView": 1,
      "byteOffset": 83280,
      "componentType": 5126,
      "count": 20,
      "max": [
        0.5784971714019775,
        0.9281119704246521
      ],
      "min": [
        0.00732421875,
        0.09389617294073105
      ],
      "type": "VEC2"
    },
    {
      "bufferView": 1,
      "byteOffset": 83440,
      "componentType": 5126,
      "count": 20,
      "max": [
        0.5784971714019775,
        0.9281119704246521
      ],
      "min": [
        0.00732421875,
        0.09389617294073105
      ],
      "type": "VEC2"
    },
    {
      "bufferView": 1,
      "byteOffset": 83600,
      "componentType": 5126,
      "count": 20,
      "max": [
        0.5784971714019775,
        0.9281119704246521
      ],
      "min": [
        0.00732421875,
        0.09389617294073105
      ],
      "type": "VEC2"
    },
    {
      "bufferView": 1,
      "byteOffset": 83760,
      "componentType": 5126,
      "count": 20,
      "max": [
        0.5784971714019775,
        0.9281119704246521
      ],
      "min": [
        0.00732421875,
        0.09389617294073105
      ],
      "type": "VEC2"
    },
    {
      "bufferView": 1,
      "byteOffset": 83920,
      "componentType": 5126,
      "count": 20,
      "max": [
        0.5784971714019775,
        0.9281119704246521
      ],
      "min": [
        0.00732421875,
        0.09389617294073105
      ],
      "type": "VEC2"
    },
    {
      "bufferView": 1,
      "byteOffset": 84080,
      "componentType": 5126,
      "count": 20,
      "max": [
        0.5784971714019775,
        0.9281119704246521
      ],
      "min": [
        0.00732421875,
        0.09389617294073105
      ],
      "type": "VEC2"
    },
    {
      "bufferView": 1,
      "byteOffset": 84240,
      "componentType": 5126,
      "count": 20,
      "max": [
        0.5784971714019775,
        0.9281119704246521
      ],
      "min": [
        0.00732421875,
        0.09389617294073105
      ],
      "type": "VEC2"
    },
    {
      "bufferView": 1,
      "byteOffset": 84400,
      "componentType": 5126,
      "count": 20,
      "max": [
        0.5784971714019775,
        0.9281119704246521
      ],
      "min": [
        0.00732421875,
        0.09389617294073105
      ],
      "type": "VEC2"
    },
    {
      "bufferView": 1,
      "byteOffset": 84560,
      "componentType": 5126,
      "count": 20,
      "max": [
        0.5784971714019775,
        0.9281119704246521
      ],
      "min": [
        0.00732421875,
        0.09389617294073105
      ],
      "type": "VEC2"
    },
    {
      "bufferView": 1,
      "byteOffset": 84720,
      "componentType": 5126,
      "count": 20,
      "max": [
        0.5784971714019775,
        0.9281119704246521
      ],
      "min": [
        0.00732421875,
        0.09389617294073105
      ],
      "type": "VEC2"
    },
    {
      "bufferView": 0,
      "byteOffset": 17472,
      "componentType": 5125,
      "count": 30,
      "type": "SCALAR"
    },
    {
      "bufferView": 2,
      "byteOffset": 25464,
      "componentType": 5126,
      "count": 102,
      "max": [
        0.3043210208415985,
        0.7529065608978271,
        -0.7219749689102173
      ],
      "min": [
        -0.3043210208415985,
        -0.45114827156066895,
        -1.128402590751648
      ],
      "type": "VEC3"
    },
    {
      "bufferView": 2,
      "byteOffset": 26688,
      "componentType": 5126,
      "count": 102,
      "max": [
        1.0,
        0.8991492986679077,
        0.9995657801628113
      ],
      "min": [
        -1.0,
        -0.9354395270347595,
        -0.9999988079071045
      ],
      "type": "VEC3"
    },
    {
      "bufferView": 3,
      "byteOffset": 16976,
      "componentType": 5126,
      "count": 102,
      "max": [
        1.0,
        0.4376421272754669,
        0.9894191026687622,
        1.0
      ],
      "min": [
        -1.0,
        -0.9995657205581665,
        -0.9893742799758911,
        1.0
      ],
      "type": "VEC4"
    },
    {
      "bufferView": 1,
      "byteOffset": 84880,
      "componentType": 5126,
      "count": 102,
      "max": [
        0.8880094289779663,
        0.8640149831771851
      ],
      "min": [
        0.00732421875,
        0.05742017552256584
      ],
      "type": "VEC2"
    },
    {
      "bufferView": 1,
      "byteOffset": 85696,
      "componentType": 5126,
      "count": 102,
      "max": [
        0.8880094289779663,
        0.8640149831771851
      ],
      "min": [
        0.00732421875,
        0.05742017552256584
      ],
      "type": "VEC2"
    },
    {
      "bufferView": 1,
      "byteOffset": 86512,
      "componentType": 5126,
      "count": 102,
      "max": [
        0.8880094289779663,
        0.8640149831771851
      ],
      "min": [
        0.00732421875,
        0.05742017552256584
      ],
      "type": "VEC2"
    },
    {
      "bufferView": 1,
      "byteOffset": 87328,
      "componentType": 5126,
      "count": 102,
      "max": [
        0.8880094289779663,
        0.8640149831771851
      ],
      "min": [
        0.00732421875,
        0.05742017552256584
      ],
      "type": "VEC2"
    },
    {
      "bufferView": 1,
      "byteOffset": 88144,
      "componentType": 5126,
      "count": 102,
      "max": [
        0.8880094289779663,
        0.8640149831771851
      ],
      "min": [
        0.00732421875,
        0.05742017552256584
      ],
      "type": "VEC2"
    },
    {
      "bufferView": 1,
      "byteOffset": 88960,
      "componentType": 5126,
      "count": 102,
      "max": [
        0.8880094289779663,
        0.8640149831771851
      ],
      "min": [
        0.00732421875,
        0.05742017552256584
      ],
      "type": "VEC2"
    },
    {
      "bufferView": 1,
      "byteOffset": 89776,
      "componentType": 5126,
      "count": 102,
      "max": [
        0.8880094289779663,
        0.8640149831771851
      ],
      "min": [
        0.00732421875,
        0.05742017552256584
      ],
      "type": "VEC2"
    },
    {
      "bufferView": 1,
      "byteOffset": 90592,
      "componentType": 5126,
      "count": 102,
      "max": [
        0.8880094289779663,
        0.8640149831771851
      ],
      "min": [
        0.00732421875,
        0.05742017552256584
      ],
      "type": "VEC2"
    },
    {
      "bufferView": 1,
      "byteOffset": 91408,
      "componentType": 5126,
      "count": 102,
      "max": [
        0.8880094289779663,
        0.8640149831771851
      ],
      "min": [
        0.00732421875,
        0.05742017552256584
      ],
      "type": "VEC2"
    },
    {
      "bufferView": 1,
      "byteOffset": 92224,
      "componentType": 5126,
      "count": 102,
      "max": [
        0.8880094289779663,
        0.8640149831771851
      ],
      "min": [
        0.00732421875,
        0.05742017552256584
      ],
      "type": "VEC2"
    },
    {
      "bufferView": 0,
      "byteOffset": 17592,
      "componentType": 5125,
      "count": 240,
      "type": "SCALAR"
    },
    {
      "bufferView": 2,
      "byteOffset": 27912,
      "componentType": 5126,
      "count": 16,
      "max": [
        0.18179160356521606,
        0.6938191652297974,
        -0.6772445440292358
      ],
      "min": [
        -0.18179160356521606,
        0.49349910020828247,
        -0.7647732496261597
      ],
      "type": "VEC3"
    },
    {
      "bufferView": 2,
      "byteOffset": 28104,
      "componentType": 5126,
      "count": 16,
      "max": [
        1.0,
        0.9651504755020142,
        0.2616955041885376
      ],
      "min": [
        -1.0,
        -0.9594254493713379,
        -0.2819625735282898
      ],
      "type": "VEC3"
    },
    {
      "bufferView": 3,
      "byteOffset": 18608,
      "componentType": 5126,
      "count": 16,
      "max": [
        1.1192759302502964e-05,
        0.2616955041885376,
        0.9815250039100647,
        1.0
      ],
      "min": [
        -0.9999985694885254,
        -0.9820296168327332,
        -0.9651504755020142,
        1.0
      ],
      "type": "VEC4"
    },
    {
      "bufferView": 1,
      "byteOffset": 93040,
      "componentType": 5126,
      "count": 16,
      "max": [
        0.9269680380821228,
        0.2027093470096588
      ],
      "min": [
        0.2085241675376892,
        0.08811980485916138
      ],
      "type": "VEC2"
    },
    {
      "bufferView": 1,
      "byteOffset": 93168,
      "componentType": 5126,
      "count": 16,
      "max": [
        0.9269680380821228,
        0.2027093470096588
      ],
      "min": [
        0.2085241675376892,
        0.08811980485916138
      ],
      "type": "VEC2"
    },
    {
      "bufferView": 1,
      "byteOffset": 93296,
      "componentType": 5126,
      "count": 16,
      "max": [
        0.9269680380821228,
        0.2027093470096588
      ],
      "min": [
        0.2085241675376892,
        0.08811980485916138
      ],
      "type": "VEC2"
    },
    {
      "bufferView": 1,
      "byteOffset": 93424,
      "componentType": 5126,
      "count": 16,
      "max": [
        0.9269680380821228,
        0.2027093470096588
      ],
      "min": [
        0.2085241675376892,
        0.08811980485916138
      ],
      "type": "VEC2"
    },
    {
      "bufferView": 1,
      "byteOffset": 93552,
      "componentType": 5126,
      "count": 16,
      "max": [
        0.9269680380821228,
        0.2027093470096588
      ],
      "min": [
        0.2085241675376892,
        0.08811980485916138
      ],
      "type": "VEC2"
    },
    {
      "bufferView": 1,
      "byteOffset": 93680,
      "componentType": 5126,
      "count": 16,
      "max": [
        0.9269680380821228,
        0.2027093470096588
      ],
      "min": [
        0.2085241675376892,
        0.08811980485916138
      ],
      "type": "VEC2"
    },
    {
      "bufferView": 1,
      "byteOffset": 93808,
      "componentType": 5126,
      "count": 16,
      "max": [
        0.9269680380821228,
        0.2027093470096588
      ],
      "min": [
        0.2085241675376892,
        0.08811980485916138
      ],
      "type": "VEC2"
    },
    {
      "bufferView": 1,
      "byteOffset": 93936,
      "componentType": 5126,
      "count": 16,
      "max": [
        0.9269680380821228,
        0.2027093470096588
      ],
      "min": [
        0.2085241675376892,
        0.08811980485916138
      ],
      "type": "VEC2"
    },
    {
      "bufferView": 1,
      "byteOffset": 94064,
      "componentType": 5126,
      "count": 16,
      "max": [
        0.9269680380821228,
        0.2027093470096588
      ],
      "min": [
        0.2085241675376892,
        0.08811980485916138
      ],
      "type": "VEC2"
    },
    {
      "bufferView": 1,
      "byteOffset": 94192,
      "componentType": 5126,
      "count": 16,
      "max": [
        0.9269680380821228,
        0.2027093470096588
      ],
      "min": [
        0.2085241675376892,
        0.08811980485916138
      ],
      "type": "VEC2"
    },
    {
      "bufferView": 0,
      "byteOffset": 18552,
      "componentType": 5125,
      "count": 24,
      "type": "SCALAR"
    },
    {
      "bufferView": 2,
      "byteOffset": 28296,
      "componentType": 5126,
      "count": 78,
      "max": [
        0.8496590852737427,
        -0.2505788803100586,
        0.10922299325466156
      ],
      "min": [
        0.8461194038391113,
        -0.2965700626373291,
        -0.10922299325466156
      ],
      "type": "VEC3"
    },
    {
      "bufferView": 2,
      "byteOffset": 29232,
      "componentType": 5126,
      "count": 78,
      "max": [
        1.0,
        0.9999517798423767,
        1.0
      ],
      "min": [
        1.1049225889792069e-07,
        -0.9999517798423767,
        -1.0
      ],
      "type": "VEC3"
    },
    {
      "bufferView": 3,
      "byteOffset": 18864,
      "componentType": 5126,
      "count": 78,
      "max": [
        -2.47776227979557e-07,
        0.8659241199493408,
        1.0,
        1.0
      ],
      "min": [
        -0.9996962547302246,
        -0.8658827543258667,
        -0.5727055668830872,
        1.0
      ],
      "type": "VEC4"
    },
    {
      "bufferView": 1,
      "byteOffset": 94320,
      "componentType": 5126,
      "count": 78,
      "max": [
        0.8872052431106567,
        0.38222500681877136
      ],
      "min": [
        0.18337418138980865,
        0.20947423577308655
      ],
      "type": "VEC2"
    },
    {
      "bufferView": 1,
      "byteOffset": 94944,
      "componentType": 5126,
      "count": 78,
      "max": [
        0.8872052431106567,
        0.38222500681877136
      ],
      "min": [
        0.18337418138980865,
        0.20947423577308655
      ],
      "type": "VEC2"
    },
    {
      "bufferView": 1,
      "byteOffset": 95568,
      "componentType": 5126,
      "count": 78,
      "max": [
        0.8872052431106567,
        0.38222500681877136
      ],
      "min": [
        0.18337418138980865,
        0.20947423577308655
      ],
      "type": "VEC2"
    },
    {
      "bufferView": 1,
      "byteOffset": 96192,
      "componentType": 5126,
      "count": 78,
      "max": [
        0.8872052431106567,
        0.38222500681877136
      ],
      "min": [
        0.18337418138980865,
        0.20947423577308655
      ],
      "type": "VEC2"
    },
    {
      "bufferView": 1,
      "byteOffset": 96816,
      "componentType": 5126,
      "count": 78,
      "max": [
        0.8872052431106567,
        0.38222500681877136
      ],
      "min": [
        0.18337418138980865,
        0.20947423577308655
      ],
      "type": "VEC2"
    },
    {
      "bufferView": 1,
      "byteOffset": 97440,
      "componentType": 5126,
      "count": 78,
      "max": [
        0.8872052431106567,
        0.38222500681877136
      ],
      "min": [
        0.18337418138980865,
        0.20947423577308655
      ],
      "type": "VEC2"
    },
    {
      "bufferView": 1,
      "byteOffset": 98064,
      "componentType": 5126,
      "count": 78,
      "max": [
        0.8872052431106567,
        0.38222500681877136
      ],
      "min": [
        0.18337418138980865,
        0.20947423577308655
      ],
      "type": "VEC2"
    },
    {
      "bufferView": 1,
      "byteOffset": 98688,
      "componentType": 5126,
      "count": 78,
      "max": [
        0.8872052431106567,
        0.38222500681877136
      ],
      "min": [
        0.18337418138980865,
        0.20947423577308655
      ],
      "type": "VEC2"
    },
    {
      "bufferView": 1,
      "byteOffset": 99312,
      "componentType": 5126,
      "count": 78,
      "max": [
        0.8872052431106567,
        0.38222500681877136
      ],
      "min": [
        0.18337418138980865,
        0.20947423577308655
      ],
      "type": "VEC2"
    },
    {
      "bufferView": 1,
      "byteOffset": 99936,
      "componentType": 5126,
      "count": 78,
      "max": [
        0.8872052431106567,
        0.38222500681877136
      ],
      "min": [
        0.18337418138980865,
        0.20947423577308655
      ],
      "type": "VEC2"
    },
    {
      "bufferView": 0,
      "byteOffset": 18648,
      "componentType": 5125,
      "count": 264,
      "type": "SCALAR"
    },
    {
      "bufferView": 2,
      "byteOffset": 30168,
      "componentType": 5126,
      "count": 56,
      "max": [
        0.8464480638504028,
        -0.24773719906806946,
        0.11306238174438477
      ],
      "min": [
        0.8405055403709412,
        -0.29941174387931824,
        -0.11306238174438477
      ],
      "type": "VEC3"
    },
    {
      "bufferView": 2,
      "byteOffset": 30840,
      "componentType": 5126,
      "count": 56,
      "max": [
        1.0,
        0.999943196773529,
        1.0
      ],
      "min": [
        0.0,
        -0.999943196773529,
        -1.0
      ],
      "type": "VEC3"
    },
    {
      "bufferView": 3,
      "byteOffset": 20112,
      "componentType": 5126,
      "count": 56,
      "max": [
        4.947692673340498e-07,
        0.00040655297925695777,
        0.00031394429970532656,
        1.0
      ],
      "min": [
        -1.0,
        -1.0,
        -0.00020929759193677455,
        1.0
      ],
      "type": "VEC4"
    },
    {
      "bufferView": 1,
      "byteOffset": 100560,
      "componentType": 5126,
      "count": 56,
      "max": [
        0.6623416543006897,
        0.5781786441802979
      ],
      "min": [
        0.44924554228782654,
        0.12487804889678955
      ],
      "type": "VEC2"
    },
    {
      "bufferView": 1,
      "byteOffset": 101008,
      "componentType": 5126,
      "count": 56,
      "max": [
        0.6623416543006897,
        0.5781786441802979
      ],
      "min": [
        0.44924554228782654,
        0.12487804889678955
      ],
      "type": "VEC2"
    },
    {
      "bufferView": 1,
      "byteOffset": 101456,
      "componentType": 5126,
      "count": 56,
      "max": [
        0.6623416543006897,
        0.5781786441802979
      ],
      "min": [
        0.44924554228782654,
        0.12487804889678955
      ],
      "type": "VEC2"
    },
    {
      "bufferView": 1,
      "byteOffset": 101904,
      "componentType": 5126,
      "count": 56,
      "max": [
        0.6623416543006897,
        0.5781786441802979
      ],
      "min": [
        0.44924554228782654,
        0.12487804889678955
      ],
      "type": "VEC2"
    },
    {
      "bufferView": 1,
      "byteOffset": 102352,
      "componentType": 5126,
      "count": 56,
      "max": [
        0.6623416543006897,
        0.5781786441802979
      ],
      "min": [
        0.44924554228782654,
        0.12487804889678955
      ],
      "type": "VEC2"
    },
    {
      "bufferView": 1,
      "byteOffset": 102800,
      "componentType": 5126,
      "count": 56,
      "max": [
        0.6623416543006897,
        0.5781786441802979
      ],
      "min": [
        0.44924554228782654,
        0.12487804889678955
      ],
      "type": "VEC2"
    },
    {
      "bufferView": 1,
      "byteOffset": 103248,
      "componentType": 5126,
      "count": 56,
      "max": [
        0.6623416543006897,
        0.5781786441802979
      ],
      "min": [
        0.44924554228782654,
        0.12487804889678955
      ],
      "type": "VEC2"
    },
    {
      "bufferView": 1,
      "byteOffset": 103696,
      "componentType": 5126,
      "count": 56,
      "max": [
        0.6623416543006897,
        0.5781786441802979
      ],
      "min": [
        0.44924554228782654,
        0.12487804889678955
      ],
      "type": "VEC2"
    },
    {
      "bufferView": 1,
      "byteOffset": 104144,
      "componentType": 5126,
      "count": 56,
      "max": [
        0.6623416543006897,
        0.5781786441802979
      ],
      "min": [
        0.44924554228782654,
        0.12487804889678955
      ],
      "type": "VEC2"
    },
    {
      "bufferView": 1,
      "byteOffset": 104592,
      "componentType": 5126,
      "count": 56,
      "max": [
        0.6623416543006897,
        0.5781786441802979
      ],
      "min": [
        0.44924554228782654,
        0.12487804889678955
      ],
      "type": "VEC2"
    },
    {
      "bufferView": 0,
      "byteOffset": 19704,
      "componentType": 5125,
      "count": 156,
      "type": "SCALAR"
    },
    {
      "bufferView": 2,
      "byteOffset": 31512,
      "componentType": 5126,
      "count": 369,
      "max": [
        0.7301833629608154,
        0.5641934275627136,
        -0.5825828909873962
      ],
      "min": [
        0.3478515148162842,
        -0.002179596573114395,
        -1.189064383506775
      ],
      "type": "VEC3"
    },
    {
      "bufferView": 2,
      "byteOffset": 35940,
      "componentType": 5126,
      "count": 369,
      "max": [
        0.9775518774986267,
        0.975822925567627,
        0.9553029537200928
      ],
      "min": [
        -0.9775519371032715,
        -0.9758235216140747,
        -0.9553029537200928
      ],
      "type": "VEC3"
    },
    {
      "bufferView": 3,
      "byteOffset": 21008,
      "componentType": 5126,
      "count": 369,
      "max": [
        0.9852145314216614,
        0.9511343240737915,
        0.9634642601013184,
        1.0
      ],
      "min": [
        -0.9927933812141418,
        -0.9341890811920166,
        -0.9463582634925842,
        1.0
      ],
      "type": "VEC4"
    },
    {
      "bufferView": 1,
      "byteOffset": 105040,
      "componentType": 5126,
      "count": 369,
      "max": [
        0.9269847273826599,
        0.6122913360595703
      ],
      "min": [
        0.8947597146034241,
        0.2721773087978363
      ],
      "type": "VEC2"
    },
    {
      "bufferView": 1,
      "byteOffset": 107992,
      "componentType": 5126,
      "count": 369,
      "max": [
        0.9269847273826599,
        0.6122913360595703
      ],
      "min": [
        0.8947597146034241,
        0.2721773087978363
      ],
      "type": "VEC2"
    },
    {
      "bufferView": 1,
      "byteOffset": 110944,
      "componentType": 5126,
      "count": 369,
      "max": [
        0.9269847273826599,
        0.6122913360595703
      ],
      "min": [
        0.8947597146034241,
        0.2721773087978363
      ],
      "type": "VEC2"
    },
    {
      "bufferView": 1,
      "byteOffset": 113896,
      "componentType": 5126,
      "count": 369,
      "max": [
        0.9269847273826599,
        0.6122913360595703
      ],
      "min": [
        0.8947597146034241,
        0.2721773087978363
      ],
      "type": "VEC2"
    },
    {
      "bufferView": 1,
      "byteOffset": 116848,
      "componentType": 5126,
      "count": 369,
      "max": [
        0.9269847273826599,
        0.6122913360595703
      ],
      "min": [
        0.8947597146034241,
        0.2721773087978363
      ],
      "type": "VEC2"
    },
    {
      "bufferView": 1,
      "byteOffset": 119800,
      "componentType": 5126,
      "count": 369,
      "max": [
        0.9269847273826599,
        0.6122913360595703
      ],
      "min": [
        0.8947597146034241,
        0.2721773087978363
      ],
      "type": "VEC2"
    },
    {
      "bufferView": 1,
      "byteOffset": 122752,
      "componentType": 5126,
      "count": 369,
      "max": [
        0.9269847273826599,
        0.6122913360595703
      ],
      "min": [
        0.8947597146034241,
        0.2721773087978363
      ],
      "type": "VEC2"
    },
    {
      "bufferView": 1,
      "byteOffset": 125704,
      "componentType": 5126,
      "count": 369,
      "max": [
        0.9269847273826599,
        0.6122913360595703
      ],
      "min": [
        0.8947597146034241,
        0.2721773087978363
      ],
      "type": "VEC2"
    },
    {
      "bufferView": 1,
      "byteOffset": 128656,
      "componentType": 5126,
      "count": 369,
      "max": [
        0.9269847273826599,
        0.6122913360595703
      ],
      "min": [
        0.8947597146034241,
        0.2721773087978363
      ],
      "type": "VEC2"
    },
    {
      "bufferView": 1,
      "byteOffset": 131608,
      "componentType": 5126,
      "count": 369,
      "max": [
        0.9269847273826599,
        0.6122913360595703
      ],
      "min": [
        0.8947597146034241,
        0.2721773087978363
      ],
      "type": "VEC2"
    },
    {
      "bufferView": 0,
      "byteOffset": 20328,
      "componentType": 5125,
      "count": 1920,
      "type": "SCALAR"
    },
    {
      "bufferView": 2,
      "byteOffset": 40368,
      "componentType": 5126,
      "count": 479,
      "max": [
        0.47839608788490295,
        0.6137722730636597,
        -0.8126111030578613
      ],
      "min": [
        0.303449809551239,
        0.4790511131286621,
        -0.8465532064437866
      ],
      "type": "VEC3"
    },
    {
      "bufferView": 2,
      "byteOffset": 46116,
      "componentType": 5126,
      "count": 479,
      "max": [
        1.0,
        1.0,
        0.9999983310699463
      ],
      "min": [
        -1.0,
        -1.0,
        -0.9999984502792358
      ],
      "type": "VEC3"
    },
    {
      "bufferView": 3,
      "byteOffset": 26912,
      "componentType": 5126,
      "count": 479,
      "max": [
        1.0,
        1.0,
        0.8694238066673279,
        1.0
      ],
      "min": [
        -1.0,
        -1.0,
        -0.8692480325698853,
        1.0
      ],
      "type": "VEC4"
    },
    {
      "bufferView": 1,
      "byteOffset": 134560,
      "componentType": 5126,
      "count": 479,
      "max": [
        0.8798962831497192,
        0.3740246295928955
      ],
      "min": [
        0.1546313315629959,
        0.05742017552256584
      ],
      "type": "VEC2"
    },
    {
      "bufferView": 1,
      "byteOffset": 138392,
      "componentType": 5126,
      "count": 479,
      "max": [
        0.8798962831497192,
        0.3740246295928955
      ],
      "min": [
        0.1546313315629959,
        0.05742017552256584
      ],
      "type": "VEC2"
    },
    {
      "bufferView": 1,
      "byteOffset": 142224,
      "componentType": 5126,
      "count": 479,
      "max": [
        0.8798962831497192,
        0.3740246295928955
      ],
      "min": [
        0.1546313315629959,
        0.05742017552256584
      ],
      "type": "VEC2"
    },
    {
      "bufferView": 1,
      "byteOffset": 146056,
      "componentType": 5126,
      "count": 479,
      "max": [
        0.8798962831497192,
        0.3740246295928955
      ],
      "min": [
        0.1546313315629959,
        0.05742017552256584
      ],
      "type": "VEC2"
    },
    {
      "bufferView": 1,
      "byteOffset": 149888,
      "componentType": 5126,
      "count": 479,
      "max": [
        0.8798962831497192,
        0.3740246295928955
      ],
      "min": [
        0.1546313315629959,
        0.05742017552256584
      ],
      "type": "VEC2"
    },
    {
      "bufferView": 1,
      "byteOffset": 153720,
      "componentType": 5126,
      "count": 479,
      "max": [
        0.8798962831497192,
        0.3740246295928955
      ],
      "min": [
        0.1546313315629959,
        0.05742017552256584
      ],
      "type": "VEC2"
    },
    {
      "bufferView": 1,
      "byteOffset": 157552,
      "componentType": 5126,
      "count": 479,
      "max": [
        0.8798962831497192,
        0.3740246295928955
      ],
      "min": [
        0.1546313315629959,
        0.05742017552256584
      ],
      "type": "VEC2"
    },
    {
      "bufferView": 1,
      "byteOffset": 161384,
      "componentType": 5126,
      "count": 479,
      "max": [
        0.8798962831497192,
        0.3740246295928955
      ],
      "min": [
        0.1546313315629959,
        0.05742017552256584
      ],
      "type": "VEC2"
    },
    {
      "bufferView": 1,
      "byteOffset": 165216,
      "componentType": 5126,
      "count": 479,
      "max": [
        0.8798962831497192,
        0.3740246295928955
      ],
      "min": [
        0.1546313315629959,
        0.05742017552256584
      ],
      "type": "VEC2"
    },
    {
      "bufferView": 1,
      "byteOffset": 169048,
      "componentType": 5126,
      "count": 479,
      "max": [
        0.8798962831497192,
        0.3740246295928955
      ],
      "min": [
        0.1546313315629959,
        0.05742017552256584
      ],
      "type": "VEC2"
    },
    {
      "bufferView": 0,
      "byteOffset": 28008,
      "componentType": 5125,
      "count": 2100,
      "type": "SCALAR"
    },
    {
      "bufferView": 2,
      "byteOffset": 51864,
      "componentType": 5126,
      "count": 52,
      "max": [
        -0.30417516827583313,
        0.5658503770828247,
        -0.8167658448219299
      ],
      "min": [
        -0.39306211471557617,
        0.5494589805603027,
        -0.8422336578369141
      ],
      "type": "VEC3"
    },
    {
      "bufferView": 2,
      "byteOffset": 52488,
      "componentType": 5126,
      "count": 52,
      "max": [
        0.17905139923095703,
        0.9998161196708679,
        1.0
      ],
      "min": [
        -0.9922152757644653,
        -0.9998160004615784,
        -1.0
      ],
      "type": "VEC3"
    },
    {
      "bufferView": 3,
      "byteOffset": 34576,
      "componentType": 5126,
      "count": 52,
      "max": [
        0.9998160600662231,
        0.019182218238711357,
        1.0,
        1.0
      ],
      "min": [
        -0.11172295361757278,
        -0.993740975856781,
        -0.0003131316334474832,
        1.0
      ],
      "type": "VEC4"
    },
    {
      "bufferView": 1,
      "byteOffset": 172880,
      "componentType": 5126,
      "count": 52,
      "max": [
        0.7809094190597534,
        0.14868831634521484
      ],
      "min": [
        0.028881356120109558,
        0.05742017552256584
      ],
      "type": "VEC2"
    },
    {
      "bufferView": 1,
      "byteOffset": 173296,
      "componentType": 5126,
      "count": 52,
      "max": [
        0.7809094190597534,
        0.14868831634521484
      ],
      "min": [
        0.028881356120109558,
        0.05742017552256584
      ],
      "type": "VEC2"
    },
    {
      "bufferView": 1,
      "byteOffset": 173712,
      "componentType": 5126,
      "count": 52,
      "max": [
        0.7809094190597534,
        0.14868831634521484
      ],
      "min": [
        0.028881356120109558,
        0.05742017552256584
      ],
      "type": "VEC2"
    },
    {
      "bufferView": 1,
      "byteOffset": 174128,
      "componentType": 5126,
      "count": 52,
      "max": [
        0.7809094190597534,
        0.14868831634521484
      ],
      "min": [
        0.028881356120109558,
        0.05742017552256584
      ],
      "type": "VEC2"
    },
    {
      "bufferView": 1,
      "byteOffset": 174544,
      "componentType": 5126,
      "count": 52,
      "max": [
        0.7809094190597534,
        0.14868831634521484
      ],
      "min": [
        0.028881356120109558,
        0.05742017552256584
      ],
      "type": "VEC2"
    },
    {
      "bufferView": 1,
      "byteOffset": 174960,
      "componentType": 5126,
      "count": 52,
      "max": [
        0.7809094190597534,
        0.14868831634521484
      ],
      "min": [
        0.028881356120109558,
        0.05742017552256584
      ],
      "type": "VEC2"
    },
    {
      "bufferView": 1,
      "byteOffset": 175376,
      "componentType": 5126,
      "count": 52,
      "max": [
        0.7809094190597534,
        0.14868831634521484
      ],
      "min": [
        0.028881356120109558,
        0.05742017552256584
      ],
      "type": "VEC2"
    },
    {
      "bufferView": 1,
      "byteOffset": 175792,
      "componentType": 5126,
      "count": 52,
      "max": [
        0.7809094190597534,
        0.14868831634521484
      ],
      "min": [
        0.028881356120109558,
        0.05742017552256584
      ],
      "type": "VEC2"
    },
    {
      "bufferView": 1,
      "byteOffset": 176208,
      "componentType": 5126,
      "count": 52,
      "max": [
        0.7809094190597534,
        0.14868831634521484
      ],
      "min": [
        0.028881356120109558,
        0.05742017552256584
      ],
      "type": "VEC2"
    },
    {
      "bufferView": 1,
      "byteOffset": 176624,
      "componentType": 5126,
      "count": 52,
      "max": [
        0.7809094190597534,
        0.14868831634521484
      ],
      "min": [
        0.028881356120109558,
        0.05742017552256584
      ],
      "type": "VEC2"
    },
    {
      "bufferView": 0,
      "byteOffset": 36408,
      "componentType": 5125,
      "count": 126,
      "type": "SCALAR"
    },
    {
      "bufferView": 2,
      "byteOffset": 53112,
      "componentType": 5126,
      "count": 52,
      "max": [
        -0.3042796552181244,
        0.5359354019165039,
        -0.8167658448219299
      ],
      "min": [
        -0.393093466758728,
        0.5247150659561157,
        -0.8422336578369141
      ],
      "type": "VEC3"
    },
    {
      "bufferView": 2,
      "byteOffset": 53736,
      "componentType": 5126,
      "count": 52,
      "max": [
        0.0913064032793045,
        0.999972403049469,
        1.0
      ],
      "min": [
        -0.9980063438415527,
        -0.999972403049469,
        -1.0
      ],
      "type": "VEC3"
    },
    {
      "bufferView": 3,
      "byteOffset": 35408,
      "componentType": 5126,
      "count": 52,
      "max": [
        0.9999722838401794,
        0.9983024597167969,
        0.00018332258332520723,
        1.0
      ],
      "min": [
        -0.05829598754644394,
        -0.007441021502017975,
        -1.0,
        1.0
      ],
      "type": "VEC4"
    },
    {
      "bufferView": 1,
      "byteOffset": 177040,
      "componentType": 5126,
      "count": 52,
      "max": [
        0.9821093678474426,
        0.15185308456420898
      ],
      "min": [
        0.03965992480516434,
        0.05742017552256584
      ],
      "type": "VEC2"
    },
    {
      "bufferView": 1,
      "byteOffset": 177456,
      "componentType": 5126,
      "count": 52,
      "max": [
        0.9821093678474426,
        0.15185308456420898
      ],
      "min": [
        0.03965992480516434,
        0.05742017552256584
      ],
      "type": "VEC2"
    },
    {
      "bufferView": 1,
      "byteOffset": 177872,
      "componentType": 5126,
      "count": 52,
      "max": [
        0.9821093678474426,
        0.15185308456420898
      ],
      "min": [
        0.03965992480516434,
        0.05742017552256584
      ],
      "type": "VEC2"
    },
    {
      "bufferView": 1,
      "byteOffset": 178288,
      "componentType": 5126,
      "count": 52,
      "max": [
        0.9821093678474426,
        0.15185308456420898
      ],
      "min": [
        0.03965992480516434,
        0.05742017552256584
      ],
      "type": "VEC2"
    },
    {
      "bufferView": 1,
      "byteOffset": 178704,
      "componentType": 5126,
      "count": 52,
      "max": [
        0.9821093678474426,
        0.15185308456420898
      ],
      "min": [
        0.03965992480516434,
        0.05742017552256584
      ],
      "type": "VEC2"
    },
    {
      "bufferView": 1,
      "byteOffset": 179120,
      "componentType": 5126,
      "count": 52,
      "max": [
        0.9821093678474426,
        0.15185308456420898
      ],
      "min": [
        0.03965992480516434,
        0.05742017552256584
      ],
      "type": "VEC2"
    },
    {
      "bufferView": 1,
      "byteOffset": 179536,
      "componentType": 5126,
      "count": 52,
      "max": [
        0.9821093678474426,
        0.15185308456420898
      ],
      "min": [
        0.03965992480516434,
        0.05742017552256584
      ],
      "type": "VEC2"
    },
    {
      "bufferView": 1,
      "byteOffset": 179952,
      "componentType": 5126,
      "count": 52,
      "max": [
        0.9821093678474426,
        0.15185308456420898
      ],
      "min": [
        0.03965992480516434,
        0.05742017552256584
      ],
      "type": "VEC2"
    },
    {
      "bufferView": 1,
      "byteOffset": 180368,
      "componentType": 5126,
      "count": 52,
      "max": [
        0.9821093678474426,
        0.15185308456420898
      ],
      "min": [
        0.03965992480516434,
        0.05742017552256584
      ],
      "type": "VEC2"
    },
    {
      "bufferView": 1,
      "byteOffset": 180784,
      "componentType": 5126,
      "count": 52,
      "max": [
        0.9821093678474426,
        0.15185308456420898
      ],
      "min": [
        0.03965992480516434,
        0.05742017552256584
      ],
      "type": "VEC2"
    },
    {
      "bufferView": 0,
      "byteOffset": 36912,
      "componentType": 5125,
      "count": 126,
      "type": "SCALAR"
    }
  ],
  "asset": {
    "extras": {
      "author": "epavlenko (https://sketchfab.com/epavlenko)",
      "license": "CC-BY-4.0 (http://creativecommons.org/licenses/by/4.0/)",
      "source": "https://sketchfab.com/3d-models/c-03-caltrop-grenade-fd9ea6187dc84285963b7e7932621712",
      "title": "C-03 Caltrop Grenade"
    },
    "generator": "Sketchfab-12.68.0",
    "version": "2.0"
  },
  "bufferViews": [
    {
      "buffer": 0,
      "byteLength": 37416,
      "name": "floatBufferViews",
      "target": 34963
    },
    {
      "buffer": 0,
      "byteLength": 181200,
      "byteOffset": 37416,
      "byteStride": 8,
      "name": "floatBufferViews",
      "target": 34962
    },
    {
      "buffer": 0,
      "byteLength": 54360,
      "byteOffset": 218616,
      "byteStride": 12,
      "name": "floatBufferViews",
      "target": 34962
    },
    {
      "buffer": 0,
      "byteLength": 36240,
      "byteOffset": 272976,
      "byteStride": 16,
      "name": "floatBufferViews",
      "target": 34962
    }
  ],
  "buffers": [
    {
      "byteLength": 309216,
      "uri": "scene.bin"
    }
  ],
  "images": [
    {
      "uri": "textures/Grenade_caltrop_main_baseColor.png"
    },
    {
      "uri": "textures/Grenade_caltrop_main_metallicRoughness.png"
    },
    {
      "uri": "textures/Grenade_caltrop_main_normal.png"
    }
  ],
  "materials": [
    {
      "doubleSided": true,
      "name": "Grenade_caltrop_main",
      "normalTexture": {
        "index": 2
      },
      "occlusionTexture": {
        "index": 1
      },
      "pbrMetallicRoughness": {
        "baseColorTexture": {
          "index": 0
        },
        "metallicRoughnessTexture": {
          "index": 1
        }
      }
    }
  ],
  "meshes": [
    {
      "name": "Grenade_caltrop_1_low_Grenade_caltrop_main_0",
      "primitives": [
        {
          "attributes": {
            "NORMAL": 1,
            "POSITION": 0,
            "TANGENT": 2,
            "TEXCOORD_0": 3,
            "TEXCOORD_1": 4,
            "TEXCOORD_2": 5,
            "TEXCOORD_3": 6,
            "TEXCOORD_4": 7,
            "TEXCOORD_5": 8,
            "TEXCOORD_6": 9,
            "TEXCOORD_7": 10,
            "TEXCOORD_8": 11,
            "TEXCOORD_9": 12
          },
          "indices": 13,
          "material": 0,
          "mode": 4
        }
      ]
    },
    {
      "name": "Grenade_caltrop_2_low_Grenade_caltrop_main_0",
      "primitives": [
        {
          "attributes": {
            "NORMAL": 15,
            "POSITION": 14,
            "TANGENT": 16,
            "TEXCOORD_0": 17,
            "TEXCOORD_1": 18,
            "TEXCOORD_2": 19,
            "TEXCOORD_3": 20,
            "TEXCOORD_4": 21,
            "TEXCOORD_5": 22,
            "TEXCOORD_6": 23,
            "TEXCOORD_7": 24,
            "TEXCOORD_8": 25,
            "TEXCOORD_9": 26
          },
          "indices": 27,
          "material": 0,
          "mode": 4
        }
      ]
    },
    {
      "name": "Grenade_caltrop_3_low_Grenade_caltrop_main_0",
      "primitives": [
        {
          "attributes": {
            "NORMAL": 29,
            "POSITION": 28,
            "TANGENT": 30,
            "TEXCOORD_0": 31,
            "TEXCOORD_1": 32,
            "TEXCOORD_2": 33,
            "TEXCOORD_3": 34,
            "TEXCOORD_4": 35,
            "TEXCOORD_5": 36,
            "TEXCOORD_6": 37,
            "TEXCOORD_7": 38,
            "TEXCOORD_8": 39,
            "TEXCOORD_9": 40
          },
          "indices": 41,
          "material": 0,
          "mode": 4
        }
      ]
    },
    {
      "name": "Grenade_caltrop_4_low_Grenade_caltrop_main_0",
      "primitives": [
        {
          "attributes": {
            "NORMAL": 43,
            "POSITION": 42,
            "TANGENT": 44,
            "TEXCOORD_0": 45,
            "TEXCOORD_1": 46,
            "TEXCOORD_2": 47,
            "TEXCOORD_3": 48,
            "TEXCOORD_4": 49,
            "TEXCOORD_5": 50,
            "TEXCOORD_6": 51,
            "TEXCOORD_7": 52,
            "TEXCOORD_8": 53,
            "TEXCOORD_9": 54
          },
          "indices": 55,
          "material": 0,
          "mode": 4
        }
      ]
    },
    {
      "name": "Grenade_caltrop_5_low_Grenade_caltrop_main_0",
      "primitives": [
        {
          "attributes": {
            "NORMAL": 57,
            "POSITION": 56,
            "TANGENT": 58,
            "TEXCOORD_0": 59,
            "TEXCOORD_1": 60,
            "TEXCOORD_2": 61,
            "TEXCOORD_3": 62,
            "TEXCOORD_4": 63,
            "TEXCOORD_5": 64,
            "TEXCOORD_6": 65,
            "TEXCOORD_7": 66,
            "TEXCOORD_8": 67,
            "TEXCOORD_9": 68
          },
          "indices": 69,
          "material": 0,
          "mode": 4
        }
      ]
    },
    {
      "name": "Grenade_caltrop_6_low_Grenade_caltrop_main_0",
      "primitives": [
        {
          "attributes": {
            "NORMAL": 71,
            "POSITION": 70,
            "TANGENT": 72,
            "TEXCOORD_0": 73,
            "TEXCOORD_1": 74,
            "TEXCOORD_2": 75,
            "TEXCOORD_3": 76,
            "TEXCOORD_4": 77,
            "TEXCOORD_5": 78,
            "TEXCOORD_6": 79,
            "TEXCOORD_7": 80,
            "TEXCOORD_8": 81,
            "TEXCOORD_9": 82
          },
          "indices": 83,
          "material": 0,
          "mode": 4
        }
      ]
    },
    {
      "name": "Grenade_caltrop_7_low_Grenade_caltrop_main_0",
      "primitives": [
        {
          "attributes": {
            "NORMAL": 85,
            "POSITION": 84,
            "TANGENT": 86,
            "TEXCOORD_0": 87,
            "TEXCOORD_1": 88,
            "TEXCOORD_2": 89,
            "TEXCOORD_3": 90,
            "TEXCOORD_4": 91,
            "TEXCOORD_5": 92,
            "TEXCOORD_6": 93,
            "TEXCOORD_7": 94,
            "TEXCOORD_8": 95,
            "TEXCOORD_9": 96
          },
          "indices": 97,
          "material": 0,
          "mode": 4
        }
      ]
    },
    {
      "name": "Grenade_caltrop_8_low_Grenade_caltrop_main_0",
      "primitives": [
        {
          "attributes": {
            "NORMAL": 99,
            "POSITION": 98,
            "TANGENT": 100,
            "TEXCOORD_0": 101,
            "TEXCOORD_1": 102,
            "TEXCOORD_2": 103,
            "TEXCOORD_3": 104,
            "TEXCOORD_4": 105,
            "TEXCOORD_5": 106,
            "TEXCOORD_6": 107,
            "TEXCOORD_7": 108,
            "TEXCOORD_8": 109,
            "TEXCOORD_9": 110
          },
          "indices": 111,
          "material": 0,
          "mode": 4
        }
      ]
    },
    {
      "name": "Grenade_caltrop_9_low_Grenade_caltrop_main_0",
      "primitives": [
        {
          "attributes": {
            "NORMAL": 113,
            "POSITION": 112,
            "TANGENT": 114,
            "TEXCOORD_0": 115,
            "TEXCOORD_1": 116,
            "TEXCOORD_2": 117,
            "TEXCOORD_3": 118,
            "TEXCOORD_4": 119,
            "TEXCOORD_5": 120,
            "TEXCOORD_6": 121,
            "TEXCOORD_7": 122,
            "TEXCOORD_8": 123,
            "TEXCOORD_9": 124
          },
          "indices": 125,
          "material": 0,
          "mode": 4
        }
      ]
    },
    {
      "name": "Grenade_caltrop_10_low_Grenade_caltrop_main_0",
      "primitives": [
        {
          "attributes": {
            "NORMAL": 127,
            "POSITION": 126,
            "TANGENT": 128,
            "TEXCOORD_0": 129,
            "TEXCOORD_1": 130,
            "TEXCOORD_2": 131,
            "TEXCOORD_3": 132,
            "TEXCOORD_4": 133,
            "TEXCOORD_5": 134,
            "TEXCOORD_6": 135,
            "TEXCOORD_7": 136,
            "TEXCOORD_8": 137,
            "TEXCOORD_9": 138
          },
          "indices": 139,
          "material": 0,
          "mode": 4
        }
      ]
    },
    {
      "name": "Grenade_caltrop_11_low_Grenade_caltrop_main_0",
      "primitives": [
        {
          "attributes": {
            "NORMAL": 141,
            "POSITION": 140,
            "TANGENT": 142,
            "TEXCOORD_0": 143,
            "TEXCOORD_1": 144,
            "TEXCOORD_2": 145,
            "TEXCOORD_3": 146,
            "TEXCOORD_4": 147,
            "TEXCOORD_5": 148,
            "TEXCOORD_6": 149,
            "TEXCOORD_7": 150,
            "TEXCOORD_8": 151,
            "TEXCOORD_9": 152
          },
          "indices": 153,
          "material": 0,
          "mode": 4
        }
      ]
    }
  ],
  "nodes": [
    {
      "children": [
        1
      ],
      "matrix": [
        1.0,
        0.0,
        0.0,
        0.0,
        0.0,
        2.220446049250313e-16,
        -1.0,
        0.0,
        0.0,
        1.0,
        2.220446049250313e-16,
        0.0,
        0.0,
        0.0,
        0.0,
        1.0
      ],
      "name": "Sketchfab_model"
    },
    {
      "children": [
        2
      ],
      "matrix": [
        0.009999999776482582,
        0.0,
        0.0,
        0.0,
        0.0,
        0.0,
        0.009999999776482582,
        0.0,
        0.0,
        -0.009999999776482582,
        0.0,
        0.0,
        0.0,
        0.0,
        0.0,
        1.0
      ],
      "name": "015fb3d85afd451ca9b92d9c98082819.fbx"
    },
    {
      "children": [
        3
      ],
      "name": "RootNode"
    },
    {
      "children": [
        4,
        6,
        8,
        10,
        12,
        14,
        16,
        18,
        20,
        22,
        24
      ],
      "name": "Grenade_caltrop_lp"
    },
    {
      "children": [
        5
      ],
      "name": "Grenade_caltrop_1_low"
    },
    {
      "mesh": 0,
      "name": "Grenade_caltrop_1_low_Grenade_caltrop_main_0"
    },
    {
      "children": [
        7
      ],
      "name": "Grenade_caltrop_2_low"
    },
    {
      "mesh": 1,
      "name": "Grenade_caltrop_2_low_Grenade_caltrop_main_0"
    },
    {
      "children": [
        9
      ],
      "name": "Grenade_caltrop_3_low"
    },
    {
      "mesh": 2,
      "name": "Grenade_caltrop_3_low_Grenade_caltrop_main_0"
    },
    {
      "children": [
        11
      ],
      "name": "Grenade_caltrop_4_low"
    },
    {
      "mesh": 3,
      "name": "Grenade_caltrop_4_low_Grenade_caltrop_main_0"
    },
    {
      "children": [
        13
      ],
      "name": "Grenade_caltrop_5_low"
    },
    {
      "mesh": 4,
      "name": "Grenade_caltrop_5_low_Grenade_caltrop_main_0"
    },
    {
      "children": [
        15
      ],
      "name": "Grenade_caltrop_6_low"
    },
    {
      "mesh": 5,
      "name": "Grenade_caltrop_6_low_Grenade_caltrop_main_0"
    },
    {
      "children": [
        17
      ],
      "name": "Grenade_caltrop_7_low"
    },
    {
      "mesh": 6,
      "name": "Grenade_caltrop_7_low_Grenade_caltrop_main_0"
    },
    {
      "children": [
        19
      ],
      "name": "Grenade_caltrop_8_low"
    },
    {
      "mesh": 7,
      "name": "Grenade_caltrop_8_low_Grenade_caltrop_main_0"
    },
    {
      "children": [
        21
      ],
      "name": "Grenade_caltrop_9_low"
    },
    {
      "mesh": 8,
      "name": "Grenade_caltrop_9_low_Grenade_caltrop_main_0"
    },
    {
      "children": [
        23
      ],
      "name": "Grenade_caltrop_10_low"
    },
    {
      "mesh": 9,
      "name": "Grenade_caltrop_10_low_Grenade_caltrop_main_0"
    },
    {
      "children": [
        25
      ],
      "name": "Grenade_caltrop_11_low"
    },
    {
      "mesh": 10,
      "name": "Grenade_caltrop_11_low_Grenade_caltrop_main_0"
    }
  ],
  "samplers": [
    {
      "magFilter": 9729,
      "minFilter": 9987,
      "wrapS": 10497,
      "wrapT": 10497
    }
  ],
  "scene": 0,
  "scenes": [
    {
      "name": "Sketchfab_Scene",
      "nodes": [
        0
      ]
    }
  ],
  "textures": [
    {
      "sampler": 0,
      "source": 0
    },
    {
      "sampler": 0,
      "source": 1
    },
    {
      "sampler": 0,
      "source": 2
    }
  ]
}
