{
  "accessors": [
    {
      "bufferView": 2,
      "componentType": 5126,
      "count": 1695,
      "max": [
        11.629103660583496,
        17.98736572265625,
        11.88986587524414
      ],
      "min": [
        -15.631573677062988,
        -18.731460571289063,
        -17.86292839050293
      ],
      "type": "VEC3"
    },
    {
      "bufferView": 2,
      "byteOffset": 20340,
      "componentType": 5126,
      "count": 1695,
      "max": [
        0.998064398765564,
        0.9961463212966919,
        0.999362587928772
      ],
      "min": [
        -0.9946123957633972,
        -0.9606739282608032,
        -0.9978172779083252
      ],
      "type": "VEC3"
    },
    {
      "bufferView": 1,
      "componentType": 5126,
      "count": 1695,
      "max": [
        0.9914000034332275,
        0.9890999794006348
      ],
      "min": [
        0.007799999788403511,
        0.00550001859664917
      ],
      "type": "VEC2"
    },
    {
      "bufferView": 0,
      "componentType": 5125,
      "count": 1695,
      "type": "SCALAR"
    }
  ],
  "asset": {
    "extras": {
      "author": "Shadow Models 3D (https://sketchfab.com/shadowmodels3d)",
      "license": "CC-BY-4.0 (http://creativecommons.org/licenses/by/4.0/)",
      "source": "https://sketchfab.com/3d-models/helmet-f882f286841447848982779246130b47",
      "title": "Helmet"
    },
    "generator": "Sketchfab-13.74.0",
    "version": "2.0"
  },
  "bufferViews": [
    {
      "buffer": 0,
      "byteLength": 6780,
      "name": "floatBufferViews",
      "target": 34963
    },
    {
      "buffer": 0,
      "byteLength": 13560,
      "byteOffset": 6780,
      "byteStride": 8,
      "name": "floatBufferViews",
      "target": 34962
    },
    {
      "buffer": 0,
      "byteLength": 40680,
      "byteOffset": 20340,
      "byteStride": 12,
      "name": "floatBufferViews",
      "target": 34962
    }
  ],
  "buffers": [
    {
      "byteLength": 61020,
      "uri": "scene.bin"
    }
  ],
  "images": [
    {
      "uri": "textures/Material.001_baseColor.jpeg"
    },
    {
      "uri": "textures/Material.001_metallicRoughness.png"
    }
  ],
  "materials": [
    {
      "doubleSided": true,
      "name": "Material.001",
      "pbrMetallicRoughness": {
        "baseColorTexture": {
          "index": 0
        },
        "metallicRoughnessTexture": {
          "index": 1
        }
      }
    }
  ],
  "meshes": [
    {
      "name": "Helmet_Material.001_0",
      "primitives": [
        {
          "attributes": {
            "NORMAL": 1,
            "POSITION": 0,
            "TEXCOORD_0": 2
          },
          "indices": 3,
          "material": 0,
          "mode": 4
        }
      ]
    }
  ],
  "nodes": [
    {
      "children": [
        1
      ],
      "matrix": [
        1.0,
        0.0,
        0.0,
        0.0,
        0.0,
        2.220446049250313e-16,
        -1.0,
        0.0,
        0.0,
        1.0,
        2.220446049250313e-16,
        0.0,
        0.0,
        0.0,
        0.0,
        1.0
      ],
      "name": "Sketchfab_model"
    },
    {
      "children": [
        2
      ],
      "matrix": [
        0.009999999776482582,
        0.0,
        0.0,
        0.0,
        0.0,
        0.0,
        0.009999999776482582,
        0.0,
        0.0,
        -0.009999999776482582,
        0.0,
        0.0,
        0.0,
        0.0,
        0.0,
        1.0
      ],
      "name": "db8bce46e07a44acb01c90267a936bc2.fbx"
    },
    {
      "children": [
        3
      ],
      "name": "RootNode"
    },
    {
      "children": [
        4
      ],
      "matrix": [
        80.87015192187161,
        11.420158267454136,
        57.70267336336944,
        0.0,
        7.233547181415725,
        95.42188607577275,
        -29.023111115031142,
        0.0,
        -58.37546000925112,
        27.64498204471208,
        76.34173587531181,
        0.0,
        -13.386970520019531,
        12294.3173828125,
        200.9186248779297,
        1.0
      ],
      "name": "Helmet"
    },
    {
      "mesh": 0,
      "name": "Helmet_Material.001_0"
    }
  ],
  "samplers": [
    {
      "magFilter": 9729,
      "minFilter": 9987,
      "wrapS": 10497,
      "wrapT": 10497
    }
  ],
  "scene": 0,
  "scenes": [
    {
      "name": "Sketchfab_Scene",
      "nodes": [
        0
      ]
    }
  ],
  "textures": [
    {
      "sampler": 0,
      "source": 0
    },
    {
      "sampler": 0,
      "source": 1
    }
  ]
}
