{
  "accessors": [
    {
      "bufferView": 2,
      "componentType": 5126,
      "count": 270,
      "max": [
        1.4282540082931519,
        31.930469512939453,
        1.4282540082931519
      ],
      "min": [
        -1.4282540082931519,
        29.078445434570313,
        -1.4282540082931519
      ],
      "type": "VEC3"
    },
    {
      "bufferView": 2,
      "byteOffset": 3240,
      "componentType": 5126,
      "count": 270,
      "max": [
        0.998673141002655,
        1.0,
        0.998673141002655
      ],
      "min": [
        -0.998673141002655,
        0.051497310400009155,
        -0.998673141002655
      ],
      "type": "VEC3"
    },
    {
      "bufferView": 1,
      "componentType": 5126,
      "count": 270,
      "max": [
        0.9164404273033142,
        1.0
      ],
      "min": [
        0.6508783102035522,
        0.24619340896606445
      ],
      "type": "VEC2"
    },
    {
      "bufferView": 0,
      "componentType": 5125,
      "count": 858,
      "type": "SCALAR"
    },
    {
      "bufferView": 2,
      "byteOffset": 6480,
      "componentType": 5126,
      "count": 258,
      "max": [
        1.298358678817749,
        24.286012649536133,
        1.298358678817749
      ],
      "min": [
        -1.298358678817749,
        2.8694496154785156,
        -1.393487572669983
      ],
      "type": "VEC3"
    },
    {
      "bufferView": 2,
      "byteOffset": 9576,
      "componentType": 5126,
      "count": 258,
      "max": [
        0.9999372959136963,
        1.0,
        0.9999372959136963
      ],
      "min": [
        -0.9999372959136963,
        -1.0,
        -0.9999372959136963
      ],
      "type": "VEC3"
    },
    {
      "bufferView": 1,
      "byteOffset": 2160,
      "componentType": 5126,
      "count": 258,
      "max": [
        1.0,
        0.9900000095367432
      ],
      "min": [
        0.0,
        0.0
      ],
      "type": "VEC2"
    },
    {
      "bufferView": 1,
      "byteOffset": 4224,
      "componentType": 5126,
      "count": 258,
      "max": [
        1.0,
        0.9900000095367432
      ],
      "min": [
        0.0,
        0.0
      ],
      "type": "VEC2"
    },
    {
      "bufferView": 0,
      "byteOffset": 3432,
      "componentType": 5125,
      "count": 714,
      "type": "SCALAR"
    },
    {
      "bufferView": 2,
      "byteOffset": 12672,
      "componentType": 5126,
      "count": 309,
      "max": [
        1.4282540082931519,
        31.93046760559082,
        1.4282540082931519
      ],
      "min": [
        -1.4282540082931519,
        -1.0,
        -1.4282540082931519
      ],
      "type": "VEC3"
    },
    {
      "bufferView": 2,
      "byteOffset": 16380,
      "componentType": 5126,
      "count": 309,
      "max": [
        1.0,
        1.0,
        1.0
      ],
      "min": [
        -1.0,
        0.0,
        -1.0
      ],
      "type": "VEC3"
    },
    {
      "bufferView": 1,
      "byteOffset": 6288,
      "componentType": 5126,
      "count": 309,
      "max": [
        1.0,
        1.0
      ],
      "min": [
        0.0,
        0.0
      ],
      "type": "VEC2"
    },
    {
      "bufferView": 1,
      "byteOffset": 8760,
      "componentType": 5126,
      "count": 309,
      "max": [
        1.0,
        1.0
      ],
      "min": [
        0.0,
        0.0
      ],
      "type": "VEC2"
    },
    {
      "bufferView": 0,
      "byteOffset": 6288,
      "componentType": 5125,
      "count": 858,
      "type": "SCALAR"
    },
    {
      "bufferView": 2,
      "byteOffset": 20088,
      "componentType": 5126,
      "count": 848,
      "max": [
        0.5787026882171631,
        -8.088828086853027,
        0.14057672023773193
      ],
      "min": [
        -0.5787026882171631,
        -9.711743354797363,
        -0.4935595691204071
      ],
      "type": "VEC3"
    },
    {
      "bufferView": 2,
      "byteOffset": 30264,
      "componentType": 5126,
      "count": 848,
      "max": [
        0.9951865673065186,
        1.0,
        0.9951865673065186
      ],
      "min": [
        -0.9951865673065186,
        -1.0,
        -0.9951865673065186
      ],
      "type": "VEC3"
    },
    {
      "bufferView": 1,
      "byteOffset": 11232,
      "componentType": 5126,
      "count": 848,
      "max": [
        1.0,
        0.9900000095367432
      ],
      "min": [
        0.0,
        0.0
      ],
      "type": "VEC2"
    },
    {
      "bufferView": 0,
      "byteOffset": 9720,
      "componentType": 5125,
      "count": 1536,
      "type": "SCALAR"
    },
    {
      "bufferView": 2,
      "byteOffset": 40440,
      "componentType": 5126,
      "count": 384,
      "max": [
        0.4772115647792816,
        -0.3972492218017578,
        0.08369284868240356
      ],
      "min": [
        -0.4772115647792816,
        -8.1904296875,
        -0.0836929976940155
      ],
      "type": "VEC3"
    },
    {
      "bufferView": 2,
      "byteOffset": 45048,
      "componentType": 5126,
      "count": 384,
      "max": [
        0.9951865673065186,
        1.0,
        0.9951865673065186
      ],
      "min": [
        -0.9951865673065186,
        -1.0,
        -0.9951865673065186
      ],
      "type": "VEC3"
    },
    {
      "bufferView": 1,
      "byteOffset": 18016,
      "componentType": 5126,
      "count": 384,
      "max": [
        1.0,
        0.9900000095367432
      ],
      "min": [
        0.0,
        0.0
      ],
      "type": "VEC2"
    },
    {
      "bufferView": 0,
      "byteOffset": 15864,
      "componentType": 5125,
      "count": 744,
      "type": "SCALAR"
    },
    {
      "bufferView": 2,
      "byteOffset": 49656,
      "componentType": 5126,
      "count": 990,
      "max": [
        2.4574005603790283,
        20.956249237060547,
        0.18927346169948578
      ],
      "min": [
        -2.4574015140533447,
        5.826684474945068,
        -0.17822876572608948
      ],
      "type": "VEC3"
    },
    {
      "bufferView": 2,
      "byteOffset": 61536,
      "componentType": 5126,
      "count": 990,
      "max": [
        0.9978261590003967,
        0.169602170586586,
        0.9997888207435608
      ],
      "min": [
        -0.9978261590003967,
        -0.16160492599010468,
        -0.9985883235931396
      ],
      "type": "VEC3"
    },
    {
      "bufferView": 1,
      "byteOffset": 21088,
      "componentType": 5126,
      "count": 990,
      "max": [
        1.0,
        0.9900000095367432
      ],
      "min": [
        0.0,
        0.0
      ],
      "type": "VEC2"
    },
    {
      "bufferView": 0,
      "byteOffset": 18840,
      "componentType": 5125,
      "count": 2238,
      "type": "SCALAR"
    },
    {
      "bufferView": 2,
      "byteOffset": 73416,
      "componentType": 5126,
      "count": 40,
      "max": [
        1.074656367301941,
        24.160228729248047,
        1.074656367301941
      ],
      "min": [
        -1.074656367301941,
        2.8694496154785156,
        -1.393487572669983
      ],
      "type": "VEC3"
    },
    {
      "bufferView": 2,
      "byteOffset": 73896,
      "componentType": 5126,
      "count": 40,
      "max": [
        0.03339986130595207,
        1.0,
        0.0
      ],
      "min": [
        -0.03339986130595207,
        -0.017099929973483086,
        -0.9998538494110107
      ],
      "type": "VEC3"
    },
    {
      "bufferView": 1,
      "byteOffset": 29008,
      "componentType": 5126,
      "count": 40,
      "max": [
        1.0,
        0.9900000095367432
      ],
      "min": [
        0.0,
        0.0
      ],
      "type": "VEC2"
    },
    {
      "bufferView": 1,
      "byteOffset": 29328,
      "componentType": 5126,
      "count": 40,
      "max": [
        1.0,
        0.9900000095367432
      ],
      "min": [
        0.0,
        0.0
      ],
      "type": "VEC2"
    },
    {
      "bufferView": 1,
      "byteOffset": 29648,
      "componentType": 5126,
      "count": 40,
      "max": [
        1.0,
        0.9900000095367432
      ],
      "min": [
        0.0,
        0.0
      ],
      "type": "VEC2"
    },
    {
      "bufferView": 1,
      "byteOffset": 29968,
      "componentType": 5126,
      "count": 40,
      "max": [
        1.0,
        0.9900000095367432
      ],
      "min": [
        0.0,
        0.0
      ],
      "type": "VEC2"
    },
    {
      "bufferView": 0,
      "byteOffset": 27792,
      "componentType": 5125,
      "count": 102,
      "type": "SCALAR"
    },
    {
      "bufferView": 2,
      "byteOffset": 74376,
      "componentType": 5126,
      "count": 72,
      "max": [
        1.4282538890838623,
        29.226722717285156,
        1.4282538890838623
      ],
      "min": [
        -1.4282538890838623,
        26.63389015197754,
        -1.4282538890838623
      ],
      "type": "VEC3"
    },
    {
      "bufferView": 2,
      "byteOffset": 75240,
      "componentType": 5126,
      "count": 72,
      "max": [
        1.0,
        0.0,
        1.0
      ],
      "min": [
        -1.0,
        0.0,
        -1.0
      ],
      "type": "VEC3"
    },
    {
      "bufferView": 1,
      "byteOffset": 30288,
      "componentType": 5126,
      "count": 72,
      "max": [
        0.9999999403953552,
        1.0
      ],
      "min": [
        0.0,
        0.0
      ],
      "type": "VEC2"
    },
    {
      "bufferView": 0,
      "byteOffset": 28200,
      "componentType": 5125,
      "count": 192,
      "type": "SCALAR"
    },
    {
      "bufferView": 2,
      "byteOffset": 76104,
      "componentType": 5126,
      "count": 130,
      "max": [
        1.0,
        1.0,
        1.0
      ],
      "min": [
        -1.0,
        -10.38917350769043,
        -1.0
      ],
      "type": "VEC3"
    },
    {
      "bufferView": 2,
      "byteOffset": 77664,
      "componentType": 5126,
      "count": 130,
      "max": [
        1.0,
        0.0,
        1.0
      ],
      "min": [
        -1.0,
        0.0,
        -1.0
      ],
      "type": "VEC3"
    },
    {
      "bufferView": 1,
      "byteOffset": 30864,
      "componentType": 5126,
      "count": 130,
      "max": [
        1.0,
        0.862417995929718
      ],
      "min": [
        0.0,
        0.0
      ],
      "type": "VEC2"
    },
    {
      "bufferView": 0,
      "byteOffset": 28968,
      "componentType": 5125,
      "count": 384,
      "type": "SCALAR"
    },
    {
      "bufferView": 2,
      "byteOffset": 79224,
      "componentType": 5126,
      "count": 418,
      "max": [
        1.0000004768371582,
        50.59202194213867,
        0.9999999403953552
      ],
      "min": [
        -0.999999463558197,
        -10.38917350769043,
        -0.9999999403953552
      ],
      "type": "VEC3"
    },
    {
      "bufferView": 2,
      "byteOffset": 84240,
      "componentType": 5126,
      "count": 418,
      "max": [
        0.9998326301574707,
        1.0,
        0.9998326301574707
      ],
      "min": [
        -0.9998326301574707,
        -1.0,
        -0.9998326301574707
      ],
      "type": "VEC3"
    },
    {
      "bufferView": 1,
      "byteOffset": 31904,
      "componentType": 5126,
      "count": 418,
      "max": [
        1.0,
        0.9900000095367432
      ],
      "min": [
        0.0,
        0.5
      ],
      "type": "VEC2"
    },
    {
      "bufferView": 0,
      "byteOffset": 30504,
      "componentType": 5125,
      "count": 1242,
      "type": "SCALAR"
    },
    {
      "bufferView": 2,
      "byteOffset": 89256,
      "componentType": 5126,
      "count": 100,
      "max": [
        0.3819755017757416,
        -10.38917350769043,
        0.3819741904735565
      ],
      "min": [
        -0.3819741904735565,
        -21.03114128112793,
        -0.3819741904735565
      ],
      "type": "VEC3"
    },
    {
      "bufferView": 2,
      "byteOffset": 90456,
      "componentType": 5126,
      "count": 100,
      "max": [
        1.0,
        0.0,
        1.0
      ],
      "min": [
        -1.0,
        -1.0,
        -1.0
      ],
      "type": "VEC3"
    },
    {
      "bufferView": 1,
      "byteOffset": 35248,
      "componentType": 5126,
      "count": 100,
      "max": [
        1.0,
        1.0
      ],
      "min": [
        0.0,
        0.0
      ],
      "type": "VEC2"
    },
    {
      "bufferView": 1,
      "byteOffset": 36048,
      "componentType": 5126,
      "count": 100,
      "max": [
        1.0,
        1.0
      ],
      "min": [
        0.0,
        0.0
      ],
      "type": "VEC2"
    },
    {
      "bufferView": 1,
      "byteOffset": 36848,
      "componentType": 5126,
      "count": 100,
      "max": [
        1.0,
        1.0
      ],
      "min": [
        0.0,
        0.0
      ],
      "type": "VEC2"
    },
    {
      "bufferView": 0,
      "byteOffset": 35472,
      "componentType": 5125,
      "count": 282,
      "type": "SCALAR"
    },
    {
      "bufferView": 2,
      "byteOffset": 91656,
      "componentType": 5126,
      "count": 128,
      "max": [
        0.4695560336112976,
        39.199283599853516,
        0.46955546736717224
      ],
      "min": [
        -0.46955499053001404,
        -5.32391357421875,
        -0.46955546736717224
      ],
      "type": "VEC3"
    },
    {
      "bufferView": 2,
      "byteOffset": 93192,
      "componentType": 5126,
      "count": 128,
      "max": [
        1.0,
        0.0038000093773007393,
        1.0
      ],
      "min": [
        -1.0,
        0.0,
        -1.0
      ],
      "type": "VEC3"
    },
    {
      "bufferView": 1,
      "byteOffset": 37648,
      "componentType": 5126,
      "count": 128,
      "max": [
        0.9549948573112488,
        0.9549952149391174
      ],
      "min": [
        0.15521779656410217,
        0.5450048446655273
      ],
      "type": "VEC2"
    },
    {
      "bufferView": 0,
      "byteOffset": 36600,
      "componentType": 5125,
      "count": 384,
      "type": "SCALAR"
    },
    {
      "bufferView": 3,
      "componentType": 5126,
      "count": 140,
      "max": [
        4.0
      ],
      "min": [
        0.01666666753590107
      ],
      "type": "SCALAR"
    },
    {
      "bufferView": 4,
      "componentType": 5126,
      "count": 140,
      "max": [
        -0.03810739517211914,
        1.744670033454895,
        8.741630352915308e-08
      ],
      "min": [
        -0.4320189356803894,
        0.08314400911331177,
        -0.67054682970047
      ],
      "type": "VEC3"
    },
    {
      "bufferView": 3,
      "byteOffset": 560,
      "componentType": 5126,
      "count": 240,
      "max": [
        4.0
      ],
      "min": [
        0.01666666753590107
      ],
      "type": "SCALAR"
    },
    {
      "bufferView": 5,
      "componentType": 5126,
      "count": 240,
      "max": [
        0.0702742338180542,
        0.5430455207824707,
        0.16510246694087982,
        1.0
      ],
      "min": [
        -0.09866390377283096,
        -0.20380081236362457,
        -0.06636365503072739,
        0.8397032618522644
      ],
      "type": "VEC4"
    },
    {
      "bufferView": 3,
      "byteOffset": 1520,
      "componentType": 5126,
      "count": 3,
      "max": [
        4.0
      ],
      "min": [
        0.01666666753590107
      ],
      "type": "SCALAR"
    },
    {
      "bufferView": 4,
      "byteOffset": 1680,
      "componentType": 5126,
      "count": 3,
      "max": [
        1.905314564704895,
        0.1998598873615265,
        1.905314564704895
      ],
      "min": [
        1.905314564704895,
        0.1998598724603653,
        1.9053144454956055
      ],
      "type": "VEC3"
    },
    {
      "bufferView": 3,
      "byteOffset": 1532,
      "componentType": 5126,
      "count": 138,
      "max": [
        4.166666507720947
      ],
      "min": [
        0.01666666753590107
      ],
      "type": "SCALAR"
    },
    {
      "bufferView": 4,
      "byteOffset": 1716,
      "componentType": 5126,
      "count": 138,
      "max": [
        -3.912459373474121,
        4.8318986892700195,
        5.4997165932491043e-08
      ],
      "min": [
        -4.275467395782471,
        1.675323247909546,
        -3.7219319343566895
      ],
      "type": "VEC3"
    },
    {
      "bufferView": 3,
      "byteOffset": 2084,
      "componentType": 5126,
      "count": 188,
      "max": [
        4.166666507720947
      ],
      "min": [
        0.01666666753590107
      ],
      "type": "SCALAR"
    },
    {
      "bufferView": 5,
      "byteOffset": 3840,
      "componentType": 5126,
      "count": 188,
      "max": [
        0.0,
        0.48122522234916687,
        0.25343024730682373,
        0.9843950867652893
      ],
      "min": [
        -0.6323131918907166,
        -0.029967645183205605,
        -0.44953837990760803,
        0.5568904876708984
      ],
      "type": "VEC4"
    },
    {
      "bufferView": 3,
      "byteOffset": 2836,
      "componentType": 5126,
      "count": 3,
      "max": [
        4.166666507720947
      ],
      "min": [
        0.01666666753590107
      ],
      "type": "SCALAR"
    },
    {
      "bufferView": 4,
      "byteOffset": 3372,
      "componentType": 5126,
      "count": 3,
      "max": [
        0.5662581920623779,
        0.08436466008424759,
        0.5662580728530884
      ],
      "min": [
        0.5662581324577332,
        0.08436466008424759,
        0.5662580728530884
      ],
      "type": "VEC3"
    }
  ],
  "animations": [
    {
      "channels": [
        {
          "sampler": 0,
          "target": {
            "node": 3,
            "path": "translation"
          }
        },
        {
          "sampler": 1,
          "target": {
            "node": 3,
            "path": "rotation"
          }
        },
        {
          "sampler": 2,
          "target": {
            "node": 3,
            "path": "scale"
          }
        }
      ],
      "name": "Cylinder.006Action",
      "samplers": [
        {
          "input": 55,
          "interpolation": "LINEAR",
          "output": 56
        },
        {
          "input": 57,
          "interpolation": "LINEAR",
          "output": 58
        },
        {
          "input": 59,
          "interpolation": "LINEAR",
          "output": 60
        }
      ]
    },
    {
      "channels": [
        {
          "sampler": 0,
          "target": {
            "node": 12,
            "path": "translation"
          }
        },
        {
          "sampler": 1,
          "target": {
            "node": 12,
            "path": "rotation"
          }
        },
        {
          "sampler": 2,
          "target": {
            "node": 12,
            "path": "scale"
          }
        }
      ],
      "name": "Cylinder.001Action",
      "samplers": [
        {
          "input": 61,
          "interpolation": "LINEAR",
          "output": 62
        },
        {
          "input": 63,
          "interpolation": "LINEAR",
          "output": 64
        },
        {
          "input": 65,
          "interpolation": "LINEAR",
          "output": 66
        }
      ]
    }
  ],
  "asset": {
    "extras": {
      "author": "Manhattanese (https://sketchfab.com/_rememberWHO_you_is)",
      "license": "CC-BY-4.0 (http://creativecommons.org/licenses/by/4.0/)",
      "source": "https://sketchfab.com/3d-models/fighting-cup-animated-69d6630af5064b3594dad34f4739b4c0",
      "title": "Fighting Cup [ANIMATED]"
    },
    "generator": "Sketchfab-17.15.0",
    "version": "2.0"
  },
  "bufferViews": [
    {
      "buffer": 0,
      "byteLength": 38136,
      "name": "floatBufferViews",
      "target": 34963
    },
    {
      "buffer": 0,
      "byteLength": 38672,
      "byteOffset": 38136,
      "byteStride": 8,
      "name": "floatBufferViews",
      "target": 34962
    },
    {
      "buffer": 0,
      "byteLength": 94728,
      "byteOffset": 76808,
      "byteStride": 12,
      "name": "floatBufferViews",
      "target": 34962
    },
    {
      "buffer": 0,
      "byteLength": 2848,
      "byteOffset": 171536,
      "name": "floatBufferViews"
    },
    {
      "buffer": 0,
      "byteLength": 3408,
      "byteOffset": 174384,
      "byteStride": 12,
      "name": "floatBufferViews"
    },
    {
      "buffer": 0,
      "byteLength": 6848,
      "byteOffset": 177792,
      "byteStride": 16,
      "name": "floatBufferViews"
    }
  ],
  "buffers": [
    {
      "byteLength": 184640,
      "uri": "scene.bin"
    }
  ],
  "extensionsUsed": [
    "KHR_materials_emissive_strength",
    "KHR_materials_transmission",
    "KHR_materials_specular"
  ],
  "images": [
    {
      "uri": "textures/Material.005_metallicRoughness.png"
    },
    {
      "uri": "textures/Material.004_metallicRoughness.png"
    },
    {
      "uri": "textures/Material.006_baseColor.png"
    },
    {
      "uri": "textures/Material.006_metallicRoughness.png"
    },
    {
      "uri": "textures/Material.035_baseColor.jpeg"
    },
    {
      "uri": "textures/Material.035_metallicRoughness.png"
    }
  ],
  "materials": [
    {
      "doubleSided": true,
      "name": "Material.008",
      "pbrMetallicRoughness": {
        "baseColorFactor": [
          0.144256,
          0.157417,
          0.183704,
          1.0
        ],
        "metallicFactor": 0.7,
        "roughnessFactor": 0.5
      }
    },
    {
      "doubleSided": true,
      "name": "Material.005",
      "pbrMetallicRoughness": {
        "baseColorFactor": [
          0.129435,
          0.129435,
          0.129435,
          1.0
        ],
        "metallicRoughnessTexture": {
          "index": 0
        },
        "roughnessFactor": 0.418182
      }
    },
    {
      "doubleSided": true,
      "name": "Material.004",
      "pbrMetallicRoughness": {
        "baseColorFactor": [
          0.8,
          0.8,
          0.8,
          1.0
        ],
        "metallicFactor": 0.759091,
        "metallicRoughnessTexture": {
          "index": 1
        }
      }
    },
    {
      "doubleSided": true,
      "name": "Material.002",
      "pbrMetallicRoughness": {
        "baseColorFactor": [
          0.0942829,
          0.209948,
          0.486477,
          1.0
        ],
        "metallicFactor": 0.465909,
        "roughnessFactor": 0.6
      }
    },
    {
      "doubleSided": true,
      "name": "Material.001",
      "pbrMetallicRoughness": {
        "baseColorFactor": [
          0.800482,
          0.483499,
          0.265053,
          1.0
        ],
        "metallicFactor": 0.290909,
        "roughnessFactor": 0.504545
      }
    },
    {
      "doubleSided": true,
      "name": "Material.003",
      "pbrMetallicRoughness": {
        "baseColorFactor": [
          0.238556,
          0.271492,
          0.293543,
          1.0
        ],
        "metallicFactor": 0.290909,
        "roughnessFactor": 0.504545
      }
    },
    {
      "doubleSided": true,
      "emissiveFactor": [
        1.0,
        1.0,
        1.0
      ],
      "emissiveTexture": {
        "index": 2
      },
      "extensions": {
        "KHR_materials_emissive_strength": {
          "emissiveStrength": 3.6
        }
      },
      "name": "Material.006",
      "pbrMetallicRoughness": {
        "baseColorTexture": {
          "index": 2
        },
        "metallicRoughnessTexture": {
          "index": 3
        },
        "roughnessFactor": 0.5
      }
    },
    {
      "doubleSided": true,
      "name": "Material.009",
      "pbrMetallicRoughness": {
        "baseColorFactor": [
          0.0216371,
          0.0332135,
          0.0563627,
          1.0
        ],
        "metallicFactor": 0.525,
        "roughnessFactor": 0.379545
      }
    },
    {
      "alphaMode": "BLEND",
      "doubleSided": true,
      "extensions": {
        "KHR_materials_specular": {
          "specularColorFactor": [
            1.0,
            1.0,
            1.0
          ],
          "specularFactor": 1.0
        },
        "KHR_materials_transmission": {
          "transmissionFactor": 1.0
        }
      },
      "name": "Material.033",
      "pbrMetallicRoughness": {
        "baseColorFactor": [
          0.0954178,
          0.111892,
          0.143005,
          0.25
        ],
        "metallicFactor": 0.479545,
        "roughnessFactor": 0.5014084864097017
      }
    },
    {
      "doubleSided": true,
      "name": "Material.034",
      "pbrMetallicRoughness": {
        "baseColorFactor": [
          0.262363,
          0.262363,
          0.262363,
          1.0
        ],
        "metallicFactor": 0.572727,
        "roughnessFactor": 0.259091
      }
    },
    {
      "doubleSided": true,
      "name": "Material.035",
      "pbrMetallicRoughness": {
        "baseColorTexture": {
          "index": 4
        },
        "metallicRoughnessTexture": {
          "index": 5
        },
        "roughnessFactor": 0.413636
      }
    },
    {
      "doubleSided": true,
      "name": "Material.036",
      "pbrMetallicRoughness": {
        "baseColorFactor": [
          0.580019,
          0.595024,
          0.708307,
          1.0
        ],
        "metallicFactor": 0.934091,
        "roughnessFactor": 0.4
      }
    }
  ],
  "meshes": [
    {
      "name": "Object_0",
      "primitives": [
        {
          "attributes": {
            "NORMAL": 1,
            "POSITION": 0,
            "TEXCOORD_0": 2
          },
          "indices": 3,
          "material": 0,
          "mode": 4
        }
      ]
    },
    {
      "name": "Object_1",
      "primitives": [
        {
          "attributes": {
            "NORMAL": 5,
            "POSITION": 4,
            "TEXCOORD_0": 6,
            "TEXCOORD_1": 7
          },
          "indices": 8,
          "material": 1,
          "mode": 4
        }
      ]
    },
    {
      "name": "Object_2",
      "primitives": [
        {
          "attributes": {
            "NORMAL": 10,
            "POSITION": 9,
            "TEXCOORD_0": 11,
            "TEXCOORD_1": 12
          },
          "indices": 13,
          "material": 2,
          "mode": 4
        }
      ]
    },
    {
      "name": "Object_3",
      "primitives": [
        {
          "attributes": {
            "NORMAL": 15,
            "POSITION": 14,
            "TEXCOORD_0": 16
          },
          "indices": 17,
          "material": 3,
          "mode": 4
        }
      ]
    },
    {
      "name": "Object_4",
      "primitives": [
        {
          "attributes": {
            "NORMAL": 19,
            "POSITION": 18,
            "TEXCOORD_0": 20
          },
          "indices": 21,
          "material": 4,
          "mode": 4
        }
      ]
    },
    {
      "name": "Object_5",
      "primitives": [
        {
          "attributes": {
            "NORMAL": 23,
            "POSITION": 22,
            "TEXCOORD_0": 24
          },
          "indices": 25,
          "material": 5,
          "mode": 4
        }
      ]
    },
    {
      "name": "Object_6",
      "primitives": [
        {
          "attributes": {
            "NORMAL": 27,
            "POSITION": 26,
            "TEXCOORD_0": 28,
            "TEXCOORD_1": 29,
            "TEXCOORD_2": 30,
            "TEXCOORD_3": 31
          },
          "indices": 32,
          "material": 6,
          "mode": 4
        }
      ]
    },
    {
      "name": "Object_7",
      "primitives": [
        {
          "attributes": {
            "NORMAL": 34,
            "POSITION": 33,
            "TEXCOORD_0": 35
          },
          "indices": 36,
          "material": 7,
          "mode": 4
        }
      ]
    },
    {
      "name": "Object_8",
      "primitives": [
        {
          "attributes": {
            "NORMAL": 38,
            "POSITION": 37,
            "TEXCOORD_0": 39
          },
          "indices": 40,
          "material": 8,
          "mode": 4
        }
      ]
    },
    {
      "name": "Object_9",
      "primitives": [
        {
          "attributes": {
            "NORMAL": 42,
            "POSITION": 41,
            "TEXCOORD_0": 43
          },
          "indices": 44,
          "material": 9,
          "mode": 4
        }
      ]
    },
    {
      "name": "Object_10",
      "primitives": [
        {
          "attributes": {
            "NORMAL": 46,
            "POSITION": 45,
            "TEXCOORD_0": 47,
            "TEXCOORD_1": 48,
            "TEXCOORD_2": 49
          },
          "indices": 50,
          "material": 10,
          "mode": 4
        }
      ]
    },
    {
      "name": "Object_11",
      "primitives": [
        {
          "attributes": {
            "NORMAL": 52,
            "POSITION": 51,
            "TEXCOORD_0": 53
          },
          "indices": 54,
          "material": 11,
          "mode": 4
        }
      ]
    }
  ],
  "nodes": [
    {
      "children": [
        1
      ],
      "matrix": [
        1.0,
        0.0,
        0.0,
        0.0,
        0.0,
        2.220446049250313e-16,
        -1.0,
        0.0,
        0.0,
        1.0,
        2.220446049250313e-16,
        0.0,
        0.0,
        0.0,
        0.0,
        1.0
      ],
      "name": "Sketchfab_model"
    },
    {
      "children": [
        2
      ],
      "name": "root"
    },
    {
      "children": [
        3,
        12
      ],
      "matrix": [
        1.0,
        0.0,
        0.0,
        0.0,
        0.0,
        2.220446049250313e-16,
        1.0,
        0.0,
        0.0,
        -1.0,
        2.220446049250313e-16,
        0.0,
        0.0,
        0.0,
        0.0,
        1.0
      ],
      "name": "GLTF_SceneRootNode"
    },
    {
      "children": [
        4,
        5,
        6,
        7,
        8,
        9,
        10,
        11
      ],
      "name": "Cylinder.006_0",
      "scale": [
        1.905314564704895,
        0.1998598873615265,
        1.905314564704895
      ],
      "translation": [
        -0.03810739517211914,
        0.08314400911331177,
        0.0
      ]
    },
    {
      "mesh": 0,
      "name": "Object_4"
    },
    {
      "mesh": 1,
      "name": "Object_5"
    },
    {
      "mesh": 2,
      "name": "Object_6"
    },
    {
      "mesh": 3,
      "name": "Object_7"
    },
    {
      "mesh": 4,
      "name": "Object_8"
    },
    {
      "mesh": 5,
      "name": "Object_9"
    },
    {
      "mesh": 6,
      "name": "Object_10"
    },
    {
      "mesh": 7,
      "name": "Object_11"
    },
    {
      "children": [
        13,
        14,
        15,
        16
      ],
      "name": "Cylinder.001_1",
      "rotation": [
        0.0,
        0.0,
        0.2534302771091461,
        0.9673536419868469
      ],
      "scale": [
        0.5662581920623779,
        0.08436466008424759,
        0.5662580728530884
      ],
      "translation": [
        -4.275467395782471,
        1.675323247909546,
        0.0
      ]
    },
    {
      "mesh": 8,
      "name": "Object_13"
    },
    {
      "mesh": 9,
      "name": "Object_14"
    },
    {
      "mesh": 10,
      "name": "Object_15"
    },
    {
      "mesh": 11,
      "name": "Object_16"
    }
  ],
  "samplers": [
    {
      "magFilter": 9729,
      "minFilter": 9987,
      "wrapS": 10497,
      "wrapT": 10497
    }
  ],
  "scene": 0,
  "scenes": [
    {
      "name": "Sketchfab_Scene",
      "nodes": [
        0
      ]
    }
  ],
  "textures": [
    {
      "sampler": 0,
      "source": 0
    },
    {
      "sampler": 0,
      "source": 1
    },
    {
      "sampler": 0,
      "source": 2
    },
    {
      "sampler": 0,
      "source": 3
    },
    {
      "sampler": 0,
      "source": 4
    },
    {
      "sampler": 0,
      "source": 5
    }
  ]
}
